<svg width="50.000000" height="50.000000" viewBox="0 0 50 50" fill="none" xmlns="http://www.w3.org/2000/svg" xmlns:xlink="http://www.w3.org/1999/xlink">
	<desc>
			Created with Pixso.
	</desc>
	<defs/>
	<path id="path" d="M27.95 50C18.61 50 9.3 50 0 50C0 33.33 0 16.66 0 0C16.66 0 33.33 0 50 0C50 16.66 50 33.33 50 50C42.65 50 35.31 50 27.95 50ZM16.43 5.84C15.08 5.52 13.73 5.19 12.38 4.88C12.24 4.85 12.08 4.85 11.93 4.88C11.35 4.99 11.04 5.43 11.04 6.1C11.04 12.61 11.04 19.12 11.04 25.63C11.04 31.7 11.05 37.78 11.03 43.85C11.02 44.82 11.82 45.32 12.61 45.07C14.15 44.58 15.71 44.17 17.26 43.73C18.58 43.35 19.9 42.97 21.22 42.6C21.81 42.43 22.1 42.05 22.1 41.43C22.11 40.97 22.1 40.51 22.1 40.05C22.1 39.98 22.11 39.91 22.12 39.83C22.2 39.85 22.25 39.86 22.31 39.87C24.48 40.47 26.69 40.62 28.91 40.25C32.91 39.6 36.15 37.66 38.67 34.49C38.76 34.38 38.84 34.24 38.89 34.1C39.06 33.63 38.9 33.18 38.46 32.83C36.5 31.27 34.54 29.72 32.59 28.16C31.56 27.35 30.39 27.38 29.41 28.25C28.66 28.91 27.79 29.28 26.79 29.36C23.61 29.61 21.23 26.37 22.42 23.4C23.56 20.55 27.1 19.72 29.41 21.75C30.36 22.58 31.61 22.64 32.53 21.87C34.49 20.23 36.43 18.58 38.38 16.94C38.91 16.48 38.96 15.85 38.51 15.3C34.65 10.51 28.37 8.47 22.45 10.08C22.34 10.11 22.23 10.13 22.1 10.16C22.1 9.49 22.1 8.86 22.1 8.23C22.1 7.48 21.81 7.12 21.08 6.94C19.54 6.58 18.01 6.21 16.43 5.84Z" fill="#2100DF" fill-opacity="1.000000" fill-rule="nonzero"/>
	<path id="path" d="M0 50C0 33.33 0 16.66 0 0C16.66 0 33.33 0 50 0C50 16.66 50 33.33 50 50C42.65 50 35.31 50 27.95 50C18.61 50 9.3 50 0 50ZM12.38 4.88C12.24 4.85 12.08 4.85 11.93 4.88C11.35 4.99 11.04 5.43 11.04 6.1C11.04 12.61 11.04 19.12 11.04 25.63C11.04 31.7 11.05 37.78 11.03 43.85C11.02 44.82 11.82 45.32 12.61 45.07C14.15 44.58 15.71 44.17 17.26 43.73C18.58 43.35 19.9 42.97 21.22 42.6C21.81 42.43 22.1 42.05 22.1 41.43C22.11 40.97 22.1 40.51 22.1 40.05C22.1 39.98 22.11 39.91 22.12 39.83C22.2 39.85 22.25 39.86 22.31 39.87C24.48 40.47 26.69 40.62 28.91 40.25C32.91 39.6 36.15 37.66 38.67 34.49C38.76 34.38 38.84 34.24 38.89 34.1C39.06 33.63 38.9 33.18 38.46 32.83C36.5 31.27 34.54 29.72 32.59 28.16C31.56 27.35 30.39 27.38 29.41 28.25C28.66 28.91 27.79 29.28 26.79 29.36C23.61 29.61 21.23 26.37 22.42 23.4C23.56 20.55 27.1 19.72 29.41 21.75C30.36 22.58 31.61 22.64 32.53 21.87C34.49 20.23 36.43 18.58 38.38 16.94C38.91 16.48 38.96 15.85 38.51 15.3C34.65 10.51 28.37 8.47 22.45 10.08C22.34 10.11 22.23 10.13 22.1 10.16C22.1 9.49 22.1 8.86 22.1 8.23C22.1 7.48 21.81 7.12 21.08 6.94C19.54 6.58 18.01 6.21 16.43 5.84C15.08 5.52 13.73 5.19 12.38 4.88Z" stroke="#000000" stroke-opacity="0" stroke-width="1.000000"/>
	<path id="path" d="M16.45 5.84C18.01 6.21 19.54 6.58 21.08 6.94C21.81 7.12 22.1 7.48 22.1 8.23C22.1 8.86 22.1 9.49 22.1 10.16C22.23 10.13 22.34 10.11 22.45 10.08C28.37 8.47 34.65 10.51 38.51 15.3C38.96 15.85 38.91 16.48 38.38 16.94C36.43 18.58 34.49 20.23 32.53 21.87C31.61 22.64 30.36 22.58 29.41 21.75C27.1 19.72 23.56 20.55 22.42 23.4C21.23 26.37 23.61 29.61 26.79 29.36C27.79 29.28 28.66 28.91 29.41 28.25C30.39 27.38 31.56 27.35 32.59 28.16C34.54 29.72 36.5 31.27 38.46 32.83C38.9 33.18 39.06 33.63 38.89 34.1C38.84 34.24 38.76 34.38 38.67 34.49C36.15 37.66 32.91 39.6 28.91 40.25C26.69 40.62 24.48 40.47 22.31 39.87C22.25 39.86 22.2 39.85 22.12 39.83C22.11 39.91 22.1 39.98 22.1 40.05C22.1 40.51 22.11 40.97 22.1 41.43C22.1 42.05 21.81 42.43 21.22 42.6C19.9 42.97 18.58 43.35 17.26 43.73C15.71 44.17 14.15 44.58 12.61 45.07C11.82 45.32 11.02 44.82 11.03 43.85C11.05 37.78 11.04 31.7 11.04 25.63C11.04 19.12 11.04 12.61 11.04 6.1C11.04 5.43 11.35 4.99 11.93 4.88C12.08 4.85 12.24 4.85 12.38 4.88C13.73 5.19 15.08 5.52 16.45 5.84ZM19.89 28.97C19.89 23.84 19.89 18.7 19.89 13.57C19.86 13.56 19.83 13.55 19.8 13.54C15.15 16.58 12.82 20.84 13.37 26.45C13.8 30.85 16.12 34.13 19.89 36.48C19.89 33.95 19.89 31.48 19.89 28.97ZM35.27 34.9C35.59 34.57 35.91 34.24 36.24 33.91C36.21 33.88 36.17 33.85 36.14 33.82C34.49 32.51 32.85 31.21 31.21 29.9C31.06 29.78 30.98 29.83 30.85 29.93C28.34 32.1 24.86 32.15 22.27 30.06C22.22 30.03 22.18 30 22.11 29.95C22.11 30.02 22.1 30.05 22.1 30.08C22.1 32.49 22.11 34.89 22.1 37.3C22.1 37.47 22.17 37.51 22.3 37.55C24.03 38.13 25.81 38.34 27.62 38.18C30.52 37.92 33.06 36.84 35.27 34.9ZM22.1 13.87C22.1 15.93 22.1 17.99 22.1 20.08C22.17 20.04 22.19 20.02 22.21 20.01C24.76 17.81 28.46 17.9 30.88 20.09C31.02 20.22 31.11 20.17 31.23 20.07C32.34 19.13 33.46 18.19 34.57 17.25C35.09 16.81 35.6 16.38 36.12 15.94C32.41 11.86 26.55 10.87 22.1 12.53C22.1 12.95 22.1 13.39 22.1 13.87ZM17.09 12.72C17.92 12.09 18.79 11.54 19.72 11.1C19.79 11.07 19.88 10.98 19.88 10.92C19.9 10.27 19.89 9.61 19.89 8.94C17.67 8.41 15.47 7.89 13.26 7.36C13.26 10.57 13.26 13.74 13.26 16.97C14.3 15.3 15.55 13.9 17.09 12.72ZM13.25 36.57C13.25 38.56 13.25 40.55 13.25 42.56C15.48 41.93 17.68 41.3 19.89 40.67C19.89 40.3 19.86 39.94 19.9 39.58C19.95 39.14 19.8 38.92 19.38 38.71C16.9 37.44 14.91 35.61 13.41 33.26C13.37 33.2 13.33 33.14 13.25 33.02C13.25 34.24 13.25 35.38 13.25 36.57Z" fill="#FEFEFF" fill-opacity="1.000000" fill-rule="nonzero"/>
	<path id="path" d="M21.08 6.94C21.81 7.12 22.1 7.48 22.1 8.23C22.1 8.86 22.1 9.49 22.1 10.16C22.23 10.13 22.34 10.11 22.45 10.08C28.37 8.47 34.65 10.51 38.51 15.3C38.96 15.85 38.91 16.48 38.38 16.94C36.43 18.58 34.49 20.23 32.53 21.87C31.61 22.64 30.36 22.58 29.41 21.75C27.1 19.72 23.56 20.55 22.42 23.4C21.23 26.37 23.61 29.61 26.79 29.36C27.79 29.28 28.66 28.91 29.41 28.25C30.39 27.38 31.56 27.35 32.59 28.16C34.54 29.72 36.5 31.27 38.46 32.83C38.9 33.18 39.06 33.63 38.89 34.1C38.84 34.24 38.76 34.38 38.67 34.49C36.15 37.66 32.91 39.6 28.91 40.25C26.69 40.62 24.48 40.47 22.31 39.87C22.25 39.86 22.2 39.85 22.12 39.83C22.11 39.91 22.1 39.98 22.1 40.05C22.1 40.51 22.11 40.97 22.1 41.43C22.1 42.05 21.81 42.43 21.22 42.6C19.9 42.97 18.58 43.35 17.26 43.73C15.71 44.17 14.15 44.58 12.61 45.07C11.82 45.32 11.02 44.82 11.03 43.85C11.05 37.78 11.04 31.7 11.04 25.63C11.04 19.12 11.04 12.61 11.04 6.1C11.04 5.43 11.35 4.99 11.93 4.88C12.08 4.85 12.24 4.85 12.38 4.88C13.73 5.19 15.08 5.52 16.45 5.84C18.01 6.21 19.54 6.58 21.08 6.94ZM19.89 13.57C19.86 13.56 19.83 13.55 19.8 13.54C15.15 16.58 12.82 20.84 13.37 26.45C13.8 30.85 16.12 34.13 19.89 36.48C19.89 33.95 19.89 31.48 19.89 28.97C19.89 23.84 19.89 18.7 19.89 13.57ZM36.24 33.91C36.21 33.88 36.17 33.85 36.14 33.82C34.49 32.51 32.85 31.21 31.21 29.9C31.06 29.78 30.98 29.83 30.85 29.93C28.34 32.1 24.86 32.15 22.27 30.06C22.22 30.03 22.18 30 22.11 29.95C22.11 30.02 22.1 30.05 22.1 30.08C22.1 32.49 22.11 34.89 22.1 37.3C22.1 37.47 22.17 37.51 22.3 37.55C24.03 38.13 25.81 38.34 27.62 38.18C30.52 37.92 33.06 36.84 35.27 34.9C35.59 34.57 35.91 34.24 36.24 33.91ZM22.1 20.08C22.17 20.04 22.19 20.02 22.21 20.01C24.76 17.81 28.46 17.9 30.88 20.09C31.02 20.22 31.11 20.17 31.23 20.07C32.34 19.13 33.46 18.19 34.57 17.25C35.09 16.81 35.6 16.38 36.12 15.94C32.41 11.86 26.55 10.87 22.1 12.53C22.1 12.95 22.1 13.39 22.1 13.87C22.1 15.93 22.1 17.99 22.1 20.08ZM19.72 11.1C19.79 11.07 19.88 10.98 19.88 10.92C19.9 10.27 19.89 9.61 19.89 8.94C17.67 8.41 15.47 7.89 13.26 7.36C13.26 10.57 13.26 13.74 13.26 16.97C14.3 15.3 15.55 13.9 17.09 12.72C17.92 12.09 18.79 11.54 19.72 11.1ZM13.25 42.56C15.48 41.93 17.68 41.3 19.89 40.67C19.89 40.3 19.86 39.94 19.9 39.58C19.95 39.14 19.8 38.92 19.38 38.71C16.9 37.44 14.91 35.61 13.41 33.26C13.37 33.2 13.33 33.14 13.25 33.02C13.25 34.24 13.25 35.38 13.25 36.57C13.25 38.56 13.25 40.55 13.25 42.56Z" stroke="#000000" stroke-opacity="0" stroke-width="1.000000"/>
	<path id="path" d="M19.89 29C19.89 31.48 19.89 33.95 19.89 36.48C16.12 34.13 13.8 30.85 13.37 26.45C12.82 20.84 15.15 16.58 19.8 13.54C19.83 13.55 19.86 13.56 19.89 13.57C19.89 18.7 19.89 23.84 19.89 29Z" fill="#2201DF" fill-opacity="1.000000" fill-rule="nonzero"/>
	<path id="path" d="M19.89 36.48C16.12 34.13 13.8 30.85 13.37 26.45C12.82 20.84 15.15 16.58 19.8 13.54C19.83 13.55 19.86 13.56 19.89 13.57C19.89 18.7 19.89 23.84 19.89 29C19.89 31.48 19.89 33.95 19.89 36.48Z" stroke="#000000" stroke-opacity="0" stroke-width="1.000000"/>
	<path id="path" d="M35.26 34.91C33.06 36.84 30.52 37.92 27.62 38.18C25.81 38.34 24.03 38.13 22.3 37.55C22.17 37.51 22.1 37.47 22.1 37.3C22.11 34.89 22.1 32.49 22.1 30.08C22.1 30.05 22.11 30.02 22.11 29.95C22.18 30 22.22 30.03 22.27 30.06C24.86 32.15 28.34 32.1 30.85 29.93C30.98 29.83 31.06 29.78 31.21 29.9C32.85 31.21 34.49 32.51 36.14 33.82C36.17 33.85 36.21 33.88 36.24 33.91C35.91 34.24 35.59 34.57 35.26 34.91Z" fill="#2201DF" fill-opacity="1.000000" fill-rule="nonzero"/>
	<path id="path" d="M27.62 38.18C25.81 38.34 24.03 38.13 22.3 37.55C22.17 37.51 22.1 37.47 22.1 37.3C22.11 34.89 22.1 32.49 22.1 30.08C22.1 30.05 22.11 30.02 22.11 29.95C22.18 30 22.22 30.03 22.27 30.06C24.86 32.15 28.34 32.1 30.85 29.93C30.98 29.83 31.06 29.78 31.21 29.9C32.85 31.21 34.49 32.51 36.14 33.82C36.17 33.85 36.21 33.88 36.24 33.91C35.91 34.24 35.59 34.57 35.26 34.91C33.06 36.84 30.52 37.92 27.62 38.18Z" stroke="#000000" stroke-opacity="0" stroke-width="1.000000"/>
	<path id="path" d="M22.1 13.85C22.1 13.39 22.1 12.95 22.1 12.53C26.55 10.87 32.41 11.86 36.12 15.94C35.6 16.38 35.09 16.81 34.57 17.25C33.46 18.19 32.34 19.13 31.23 20.07C31.11 20.17 31.02 20.22 30.88 20.09C28.46 17.9 24.76 17.81 22.21 20.01C22.19 20.02 22.17 20.04 22.1 20.08C22.1 17.99 22.1 15.93 22.1 13.85Z" fill="#2201DF" fill-opacity="1.000000" fill-rule="nonzero"/>
	<path id="path" d="M22.1 12.53C26.55 10.87 32.41 11.86 36.12 15.94C35.6 16.38 35.09 16.81 34.57 17.25C33.46 18.19 32.34 19.13 31.23 20.07C31.11 20.17 31.02 20.22 30.88 20.09C28.46 17.9 24.76 17.81 22.21 20.01C22.19 20.02 22.17 20.04 22.1 20.08C22.1 17.99 22.1 15.93 22.1 13.85C22.1 13.39 22.1 12.95 22.1 12.53Z" stroke="#000000" stroke-opacity="0" stroke-width="1.000000"/>
	<path id="path" d="M17.08 12.73C15.55 13.9 14.3 15.3 13.26 16.97C13.26 13.74 13.26 10.57 13.26 7.36C15.47 7.89 17.67 8.41 19.89 8.94C19.89 9.61 19.9 10.27 19.88 10.92C19.88 10.98 19.79 11.07 19.72 11.1C18.79 11.54 17.92 12.09 17.08 12.73Z" fill="#2201DF" fill-opacity="1.000000" fill-rule="nonzero"/>
	<path id="path" d="M13.26 16.97C13.26 13.74 13.26 10.57 13.26 7.36C15.47 7.89 17.67 8.41 19.89 8.94C19.89 9.61 19.9 10.27 19.88 10.92C19.88 10.98 19.79 11.07 19.72 11.1C18.79 11.54 17.92 12.09 17.08 12.73C15.55 13.9 14.3 15.3 13.26 16.97Z" stroke="#000000" stroke-opacity="0" stroke-width="1.000000"/>
	<path id="path" d="M13.25 36.54C13.25 35.38 13.25 34.24 13.25 33.02C13.33 33.14 13.37 33.2 13.41 33.26C14.91 35.61 16.9 37.44 19.38 38.71C19.8 38.92 19.95 39.14 19.9 39.58C19.86 39.94 19.89 40.3 19.89 40.67C17.68 41.3 15.48 41.93 13.25 42.56C13.25 40.55 13.25 38.56 13.25 36.54Z" fill="#2201DF" fill-opacity="1.000000" fill-rule="nonzero"/>
	<path id="path" d="M13.25 33.02C13.33 33.14 13.37 33.2 13.41 33.26C14.91 35.61 16.9 37.44 19.38 38.71C19.8 38.92 19.95 39.14 19.9 39.58C19.86 39.94 19.89 40.3 19.89 40.67C17.68 41.3 15.48 41.93 13.25 42.56C13.25 40.55 13.25 38.56 13.25 36.54C13.25 35.38 13.25 34.24 13.25 33.02Z" stroke="#000000" stroke-opacity="0" stroke-width="1.000000"/>
</svg>
