<svg width="50.000000" height="50.000000" viewBox="0 0 50 50" fill="none" xmlns="http://www.w3.org/2000/svg" xmlns:xlink="http://www.w3.org/1999/xlink">
	<desc>
			Created with Pixso.
	</desc>
	<defs/>
	<path id="path" d="M42.85 0L7.14 0C3.19 0 0 3.19 0 7.14L0 42.85C0 46.8 3.19 50 7.14 50L42.85 50C46.8 50 50 46.8 50 42.85L50 7.14C50 3.19 46.8 0 42.85 0Z" fill="#1E4DFF" fill-opacity="1.000000" fill-rule="nonzero"/>
	<g opacity="0.800000">
		<path id="path" d="M24.9 31.61L11.56 21.37L11.56 8.03L24.9 18.27L24.9 31.61Z" fill="#FFFFFF" fill-opacity="1.000000" fill-rule="nonzero"/>
	</g>
	<g opacity="0.600000">
		<path id="path" d="M39.14 41.96L28.34 33.32L28.34 19.98L39.14 28.62L39.14 41.96Z" fill="#FFFFFF" fill-opacity="1.000000" fill-rule="nonzero"/>
	</g>
	<g opacity="0.600000">
		<path id="path" d="M24.9 31.61L38.24 21.37L38.24 8.03L24.9 18.27L24.9 31.61Z" fill="#FFFFFF" fill-opacity="1.000000" fill-rule="nonzero"/>
	</g>
	<g opacity="0.600000">
		<path id="path" d="M11.56 41.84L24.9 31.6L24.9 18.26L11.56 28.51L11.56 41.84Z" fill="#FFFFFF" fill-opacity="1.000000" fill-rule="nonzero"/>
	</g>
	<path id="path" d="M28.9 28.54L34.36 24.35L29 20.06L28.9 28.54Z" fill="#FFFFFF" fill-opacity="1.000000" fill-rule="nonzero"/>
	<g opacity="0.850000">
		<path id="path" d="M24.9 26.22L38.24 15.98L38.24 14.46L24.9 24.7L24.9 26.22Z" fill="#FFFFFF" fill-opacity="1.000000" fill-rule="nonzero"/>
	</g>
	<path id="path" d="M24.9 31.61L16.21 24.94L24.9 18.27L24.9 31.61Z" fill="#FFFFFF" fill-opacity="1.000000" fill-rule="nonzero"/>
	<g opacity="0.850000">
		<path id="path" d="M11.56 36.49L24.9 26.25L24.9 24.7L11.56 34.94L11.56 36.49Z" fill="#FFFFFF" fill-opacity="1.000000" fill-rule="nonzero"/>
	</g>
</svg>
