<svg width="50.000000" height="50.000000" viewBox="0 0 50 50" fill="none" xmlns="http://www.w3.org/2000/svg" xmlns:xlink="http://www.w3.org/1999/xlink">
	<desc>
			Created with Pixso.
	</desc>
	<defs/>
	<path id="path" d="M42.5 0L42.5 2.77L37.5 2.77L37.5 47.22L42.5 47.22L42.5 50L37.5 49.99L35 50L30 50L30 47.22L35 47.22L35 2.77L30 2.77L30 0L42.5 0ZM50 8.33L50 41.66L40 41.66L40 36.11L45 36.11L45 13.88L40 13.88L40 8.33L50 8.33ZM32.5 8.33L32.5 41.66L0 41.66L0 8.33L32.5 8.33ZM21 11.66L17.5 11.66L17.5 30.55C17.5 32.29 17.4 33.37 17.32 34.42L17.31 34.56L17.31 34.69C17.27 35.23 17.25 35.76 17.25 36.38L20.75 36.38L20.75 33.88C21.67 35.66 23.4 36.73 25.25 36.66C26.89 36.69 28.46 35.87 29.5 34.44C30.83 32.42 31.62 30 31.75 27.5C31.75 22.22 29.25 18.61 25.5 18.61C23.73 18.61 22.06 19.54 21 21.11L21 11.66ZM14 21.11C12.65 19.51 10.71 18.69 8.75 18.88C6.75 18.81 4.78 19.29 3 20.27L4 23.05C5.32 22.28 6.76 21.81 8.25 21.66C9.2 21.55 10.15 21.92 10.83 22.67C11.51 23.43 11.85 24.49 11.75 25.55L11.75 25.83L9.25 25.83C7.71 25.73 6.17 26.02 4.75 26.66C3.07 27.46 2.06 29.37 2.25 31.38C2.23 32.82 2.77 34.18 3.73 35.14C4.68 36.1 5.97 36.55 7.25 36.38C9.05 36.49 10.8 35.67 12 34.16L12 36.11L15.25 36.11C15.03 34.64 14.95 33.15 15 31.66L15 26.66C15.23 24.74 14.88 22.78 14 21.11ZM11.5 27.77L11.5 31.11C10.79 32.55 9.47 33.49 8 33.61C7.39 33.66 6.79 33.41 6.35 32.93C5.92 32.45 5.7 31.78 5.75 31.11C5.75 29.16 7 28.05 10 27.77L11.5 27.77ZM24.5 21.66C26.5 21.66 28 23.88 28 27.5C28 31.11 26.75 33.33 24.75 33.33C23.12 33.29 21.65 32.21 21 30.55L21 24.44C21.69 22.94 22.99 21.91 24.5 21.66Z" fill="#FFFFFF" fill-opacity="1.000000" fill-rule="evenodd"/>
	<path id="path" d="M42.5 2.77L37.5 2.77L37.5 47.22L42.5 47.22L42.5 50L37.5 49.99L35 50L30 50L30 47.22L35 47.22L35 2.77L30 2.77L30 0L42.5 0L42.5 2.77ZM50 41.66L40 41.66L40 36.11L45 36.11L45 13.88L40 13.88L40 8.33L50 8.33L50 41.66ZM32.5 41.66L0 41.66L0 8.33L32.5 8.33L32.5 41.66ZM17.5 11.66L17.5 30.55C17.5 32.29 17.4 33.37 17.32 34.42L17.31 34.56L17.31 34.69C17.27 35.23 17.25 35.76 17.25 36.38L20.75 36.38L20.75 33.88C21.67 35.66 23.4 36.73 25.25 36.66C26.89 36.69 28.46 35.87 29.5 34.44C30.83 32.42 31.62 30 31.75 27.5C31.75 22.22 29.25 18.61 25.5 18.61C23.73 18.61 22.06 19.54 21 21.11L21 11.66L17.5 11.66ZM8.75 18.88C6.75 18.81 4.78 19.29 3 20.27L4 23.05C5.32 22.28 6.76 21.81 8.25 21.66C9.2 21.55 10.15 21.92 10.83 22.67C11.51 23.43 11.85 24.49 11.75 25.55L11.75 25.83L9.25 25.83C7.71 25.73 6.17 26.02 4.75 26.66C3.07 27.46 2.06 29.37 2.25 31.38C2.23 32.82 2.77 34.18 3.73 35.14C4.68 36.1 5.97 36.55 7.25 36.38C9.05 36.49 10.8 35.67 12 34.16L12 36.11L15.25 36.11C15.03 34.64 14.95 33.15 15 31.66L15 26.66C15.23 24.74 14.88 22.78 14 21.11C12.65 19.51 10.71 18.69 8.75 18.88ZM11.5 31.11C10.79 32.55 9.47 33.49 8 33.61C7.39 33.66 6.79 33.41 6.35 32.93C5.92 32.45 5.7 31.78 5.75 31.11C5.75 29.16 7 28.05 10 27.77L11.5 27.77L11.5 31.11ZM28 27.5C28 31.11 26.75 33.33 24.75 33.33C23.12 33.29 21.65 32.21 21 30.55L21 24.44C21.69 22.94 22.99 21.91 24.5 21.66C26.5 21.66 28 23.88 28 27.5Z" stroke="#000000" stroke-opacity="0" stroke-width="1.562500"/>
</svg>
