<svg width="50.000000" height="50.000000" viewBox="0 0 50 50" fill="none" xmlns="http://www.w3.org/2000/svg" xmlns:xlink="http://www.w3.org/1999/xlink">
	<desc>
			Created with Pixso.
	</desc>
	<defs>
		<linearGradient x1="-2.428572" y1="-5.149167" x2="-2.428572" y2="-3.138238" id="paint_linear_56_265_0" gradientUnits="userSpaceOnUse">
			<stop stop-color="#D8D8D8"/>
			<stop offset="1.000000" stop-color="#A3A3A3"/>
		</linearGradient>
		<linearGradient x1="-3.099701" y1="-4.163762" x2="-1.739856" y2="-4.163762" id="paint_linear_56_267_0" gradientUnits="userSpaceOnUse">
			<stop stop-color="#D7D7D7"/>
			<stop offset="0.500000" stop-color="#E7E7E7"/>
			<stop offset="1.000000" stop-color="#D7D7D7"/>
		</linearGradient>
	</defs>
	<rect id="rect" width="50.000004" height="50.000004" fill="url(#paint_linear_56_265_0)" fill-opacity="1.000000"/>
	<rect id="rect" x="4.130371" y="3.456909" rx="3.000000" width="41.373219" height="41.627148" fill="url(#paint_linear_56_267_0)" fill-opacity="1.000000"/>
	<path id="path" d="M7.5 30.01L11.68 18.44L13.23 18.44L17.7 30.01L16.05 30.01L14.78 26.5L10.22 26.5L9.02 30.01L7.5 30.01ZM10.63 25.27L14.33 25.27L13.2 22.04C12.85 21.07 12.59 20.27 12.42 19.64C12.28 20.39 12.09 21.13 11.84 21.85L10.63 25.27Z" fill="#000000" fill-opacity="1.000000" fill-rule="nonzero"/>
	<path id="path" d="M20.82 30.01L20.82 18.44L22.26 18.44L22.26 23.18L27.92 23.18L27.92 18.44L29.36 18.44L29.36 30.01L27.92 30.01L27.92 24.55L22.26 24.55L22.26 30.01L20.82 30.01Z" fill="#000000" fill-opacity="1.000000" fill-rule="nonzero"/>
	<path id="path" d="M33.09 30.01L33.09 18.44L34.53 18.44L34.53 24.18L39.94 18.44L41.9 18.44L37.33 23.12L42.1 30.01L40.19 30.01L36.31 24.15L34.53 26L34.53 30.01L33.09 30.01Z" fill="#000000" fill-opacity="1.000000" fill-rule="nonzero"/>
</svg>
