<svg width="50" height="50" viewBox="0 0 50 50" fill="none" xmlns="http://www.w3.org/2000/svg">
<g clip-path="url(#clip0_84_218)">
<path d="M5.55 0C2.47 0 0 2.47 0 5.55V44.44C0 44.62 0 44.8 0.02 44.98C0.04 45.17 0.07 45.34 0.1 45.52C0.14 45.7 0.18 45.88 0.23 46.05C0.29 46.23 0.35 46.4 0.42 46.57C0.49 46.73 0.57 46.9 0.65 47.06C0.74 47.22 0.83 47.37 0.93 47.53C1.03 47.68 1.14 47.82 1.26 47.96C1.37 48.1 1.49 48.24 1.62 48.37C1.75 48.5 1.89 48.62 2.03 48.73C2.17 48.85 2.31 48.96 2.46 49.06C2.62 49.16 2.77 49.25 2.93 49.34C3.09 49.42 3.26 49.5 3.42 49.57C3.59 49.64 3.76 49.7 3.94 49.76C4.11 49.81 4.29 49.85 4.47 49.89C4.65 49.92 4.82 49.95 5.01 49.97C5.19 49.99 5.37 50 5.55 50H44.44C44.62 50 44.8 49.99 44.98 49.97C45.17 49.95 45.34 49.92 45.52 49.89C45.7 49.85 45.88 49.81 46.05 49.76C46.23 49.7 46.4 49.64 46.57 49.57C46.73 49.5 46.9 49.42 47.06 49.34C47.22 49.25 47.37 49.16 47.53 49.06C47.68 48.96 47.82 48.85 47.96 48.73C48.1 48.62 48.24 48.5 48.37 48.37C48.5 48.24 48.62 48.1 48.73 47.96C48.85 47.82 48.96 47.68 49.06 47.53C49.16 47.37 49.25 47.22 49.34 47.06C49.42 46.9 49.5 46.73 49.57 46.57C49.64 46.4 49.7 46.23 49.76 46.05C49.81 45.88 49.85 45.7 49.89 45.52C49.92 45.34 49.95 45.17 49.97 44.98C49.99 44.8 50 44.62 50 44.44V5.55C50 5.37 49.99 5.19 49.97 5.01C49.95 4.82 49.92 4.65 49.89 4.47C49.85 4.29 49.81 4.11 49.76 3.94C49.7 3.76 49.64 3.59 49.57 3.42C49.5 3.26 49.42 3.09 49.34 2.93C49.25 2.77 49.16 2.62 49.06 2.46C48.96 2.31 48.85 2.17 48.73 2.03C48.62 1.89 48.5 1.75 48.37 1.62C48.24 1.49 48.1 1.37 47.96 1.26C47.82 1.14 47.68 1.03 47.53 0.93C47.37 0.83 47.22 0.74 47.06 0.65C46.9 0.57 46.73 0.49 46.57 0.42C46.4 0.35 46.23 0.29 46.05 0.23C45.88 0.18 45.7 0.14 45.52 0.1C45.34 0.07 45.17 0.04 44.98 0.02C44.8 0 44.62 0 44.44 0H5.55ZM15.74 9.57C16.46 9.57 17.07 9.81 17.55 10.28C18.03 10.75 18.28 11.33 18.28 12.02C18.28 12.96 18.24 14.38 18.16 16.29C18.1 18.18 18.07 19.59 18.07 20.54C18.07 20.85 18.03 21.44 17.94 22.33C17.88 22.95 17.85 23.58 17.85 24.21L25.01 22.87C27.81 22.37 30.22 22.09 32.24 22.01C32.29 21.18 32.38 18.94 32.49 15.3C32.51 14.34 32.81 13.24 33.37 12C34.06 10.47 34.85 9.7 35.73 9.7C36.39 9.7 36.98 9.92 37.48 10.36C38.03 10.83 38.3 11.42 38.3 12.13C38.3 12.31 38.28 12.5 38.23 12.68C37.98 13.59 37.86 14.38 37.86 15.06C37.86 15.4 37.82 15.95 37.75 16.68C37.68 17.4 37.65 17.94 37.65 18.28C37.65 19.46 37.59 21.22 37.47 23.54C37.36 25.29 37.3 27.04 37.28 28.8C37.28 29.71 37.35 31.06 37.48 32.87C37.62 34.67 37.69 36.02 37.69 36.93C37.7 37.26 37.64 37.57 37.51 37.88C37.38 38.18 37.2 38.44 36.96 38.67C36.72 38.9 36.45 39.08 36.13 39.2C35.82 39.33 35.5 39.38 35.16 39.37C34.81 39.38 34.47 39.32 34.14 39.2C33.81 39.08 33.52 38.9 33.25 38.67C33 38.46 32.8 38.21 32.66 37.91C32.51 37.61 32.45 37.3 32.45 36.97C32.45 36.06 32.41 34.7 32.32 32.88C32.26 31.52 32.22 30.16 32.21 28.8C32.21 28.09 32.22 27.46 32.24 26.91C30.29 27 27.88 27.31 25.01 27.83C22.62 28.27 20.24 28.71 17.85 29.16C17.82 30 17.73 31.41 17.58 33.39C17.47 34.81 17.41 36.23 17.4 37.66C17.41 37.99 17.35 38.3 17.22 38.6C17.09 38.91 16.91 39.17 16.67 39.4C16.43 39.63 16.15 39.81 15.84 39.93C15.53 40.05 15.2 40.11 14.87 40.1C14.53 40.11 14.2 40.05 13.89 39.93C13.57 39.81 13.3 39.63 13.05 39.4C12.82 39.17 12.63 38.91 12.51 38.6C12.38 38.3 12.32 37.99 12.33 37.66C12.33 36.4 12.43 34.53 12.64 32.03C12.86 29.53 12.98 27.65 12.98 26.4C12.98 24.8 13.02 22.41 13.09 19.21C13.17 16 13.2 13.61 13.2 12.02C13.2 11.69 13.26 11.37 13.39 11.07C13.51 10.77 13.7 10.51 13.93 10.28C14.17 10.05 14.45 9.87 14.76 9.74C15.08 9.62 15.4 9.56 15.74 9.57Z" fill="#4CAF50"/>
<path d="M31.4737 30.2632H18.5263L15 27.6316C15 27.6316 16.75 23.9474 25 23.9474C33.25 23.9474 35 27.6316 35 27.6316L31.4737 30.2632Z" fill="#455A64"/>
<path d="M31.5411 29.7368H18.4589L16.5789 33.4211L25 35L33.4211 33.4211L31.5411 29.7368Z" fill="#455A64"/>
<path d="M25 34.4737C25 34.4737 20.7895 32.8884 20.7895 30.7895C20.7895 30.2595 20.7895 27.0221 20.7895 27.0221H29.2105C29.2105 27.0221 29.2105 30.2742 29.2105 30.7895C29.2105 32.91 25 34.4737 25 34.4737Z" fill="#263238"/>
<path d="M20 24.4737C19.651 24.4737 19.3164 24.6123 19.0696 24.8591C18.8228 25.1058 18.6842 25.4405 18.6842 25.7895C18.6842 26.1384 18.8228 26.4731 19.0696 26.7199C19.3164 26.9666 19.651 27.1053 20 27.1053C20.349 27.1053 20.6836 26.9666 20.9304 26.7199C21.1772 26.4731 21.3158 26.1384 21.3158 25.7895C21.3158 25.4405 21.1772 25.1058 20.9304 24.8591C20.6836 24.6123 20.349 24.4737 20 24.4737ZM30 24.4737C29.651 24.4737 29.3164 24.6123 29.0696 24.8591C28.8228 25.1058 28.6842 25.4405 28.6842 25.7895C28.6842 26.1384 28.8228 26.4731 29.0696 26.7199C29.3164 26.9666 29.651 27.1053 30 27.1053C30.349 27.1053 30.6836 26.9666 30.9304 26.7199C31.1772 26.4731 31.3158 26.1384 31.3158 25.7895C31.3158 25.4405 31.1772 25.1058 30.9304 24.8591C30.6836 24.6123 30.349 24.4737 30 24.4737Z" fill="#FFA726"/>
<path d="M30.2632 23.5379C30.2632 19.0732 19.7368 20.6311 19.7368 23.5379C19.7368 24.1542 19.7368 27.0153 19.7368 27.6316C19.7368 30.5384 22.0932 32.8947 25 32.8947C27.9068 32.8947 30.2632 30.5384 30.2632 27.6316C30.2632 27.0153 30.2632 24.1542 30.2632 23.5379Z" fill="#FFB74D"/>
<path d="M30.2632 21.8421H31.8421V24.7689L30.2632 26.5789V21.8421ZM19.7368 21.8421H18.1579V24.7689L19.7368 26.5789V21.8421Z" fill="#424242"/>
<path d="M26.2105 25.8384C26.0358 25.8563 25.3374 26.0526 25 26.0526C24.6626 26.0526 23.9642 25.8563 23.7895 25.8384L20.2632 25.5263L20.6526 27.2626C20.7568 27.7263 21.0621 28.1168 21.4863 28.3305C21.8521 28.5147 22.34 28.6842 22.8995 28.6842C24.1242 28.6842 24.4737 27.5716 24.4737 27.1179V27.1053C24.4737 26.8147 24.7095 26.5789 25 26.5789C25.2905 26.5789 25.5263 26.8147 25.5263 27.1053V27.1179C25.5263 27.5716 25.8758 28.6842 27.1005 28.6842C27.6595 28.6842 28.1479 28.5147 28.5137 28.3305C28.9379 28.1168 29.2432 27.7263 29.3474 27.2626L29.7368 25.5263L26.2105 25.8384Z" fill="#263238"/>
<path d="M20.7895 26.5789L18.6842 25V23.9474L20.7895 25.5263L21.3158 26.0042L20.7895 26.5789ZM29.2105 26.5789L31.3158 25V23.9474L29.2105 25.5263L28.6842 26.0795L29.2105 26.5789Z" fill="#263238"/>
<path d="M25 19.7368C22.3478 19.7368 19.8043 20.0695 17.9289 20.6618C16.0536 21.254 15 22.0572 15 22.8947C15 23.7323 16.0536 24.5355 17.9289 25.1277C19.8043 25.7199 22.3478 26.0526 25 26.0526C27.6522 26.0526 30.1957 25.7199 32.0711 25.1277C33.9464 24.5355 35 23.7323 35 22.8947C35 22.0572 33.9464 21.254 32.0711 20.6618C30.1957 20.0695 27.6522 19.7368 25 19.7368Z" fill="#546E7A"/>
<path d="M27.4605 15C26.5195 15 26.0132 15.5263 25 15.5263C23.9868 15.5263 23.5526 15 22.5395 15C20.73 15 19.8621 18.6032 19.2105 21.5184C19.2105 23.2995 22.8416 23.4211 25 23.4211C27.1584 23.4211 30.7895 23.3805 30.7895 21.5184C29.9932 18.4411 29.2695 15 27.4605 15Z" fill="#607D8B"/>
</g>
<defs>
<clipPath id="clip0_84_218">
<rect width="50" height="50" fill="white"/>
</clipPath>
</defs>
</svg>
