<svg width="50" height="50" viewBox="0 0 50 50" fill="none" xmlns="http://www.w3.org/2000/svg">
<path fill-rule="evenodd" clip-rule="evenodd" d="M3.20383 3.20383C2.1881 4.21946 1.38237 5.42521 0.832652 6.75225C0.282936 8.07928 0 9.50161 0 10.938C0 12.3744 0.282936 13.7967 0.832652 15.1237C1.38237 16.4508 2.1881 17.6565 3.20383 18.6722L7.90683 23.3439C12.1786 27.6157 19.0722 27.6157 23.3439 23.3439C27.6157 19.0722 27.6157 12.1786 23.3439 7.90683L18.6722 3.20383C17.6565 2.1881 16.4508 1.38237 15.1237 0.832652C13.7967 0.282936 12.3744 0 10.938 0C9.50161 0 8.07928 0.282936 6.75225 0.832652C5.42521 1.38237 4.21946 2.1881 3.20383 3.20383ZM7.62558 7.62558C7.19 8.06089 6.84446 8.57775 6.60871 9.14665C6.37296 9.71554 6.25162 10.3253 6.25162 10.9411C6.25162 11.5569 6.37296 12.1667 6.60871 12.7356C6.84446 13.3045 7.19 13.8214 7.62558 14.2567L12.313 18.9378C12.7479 19.3728 13.2644 19.7178 13.8327 19.9532C14.4011 20.1887 15.0102 20.3098 15.6254 20.3098C16.2405 20.3098 16.8497 20.1887 17.418 19.9532C17.9864 19.7178 18.5028 19.3728 18.9378 18.9378C19.3728 18.5028 19.7178 17.9864 19.9532 17.418C20.1887 16.8497 20.3098 16.2405 20.3098 15.6254C20.3098 15.0102 20.1887 14.4011 19.9532 13.8327C19.7178 13.2644 19.3728 12.7479 18.9378 12.313L14.2504 7.62558C13.3715 6.74779 12.1802 6.25475 10.938 6.25475C9.69584 6.25475 8.50447 6.74779 7.62558 7.62558Z" fill="url(#paint0_linear_69_13)"/>
<path fill-rule="evenodd" clip-rule="evenodd" d="M26.6563 26.6563C25.6408 27.6689 24.835 28.8718 24.2853 30.1963C23.7355 31.5208 23.4525 32.9408 23.4525 34.3749C23.4525 35.8089 23.7355 37.2289 24.2853 38.5534C24.835 39.8779 25.6408 41.0808 26.6563 42.0934L31.328 46.7964C33.3792 48.8476 36.1613 50 39.0622 50C41.9631 50 44.7451 48.8476 46.7964 46.7964C48.8476 44.7452 49.9999 41.9631 49.9999 39.0622C49.9999 36.1614 48.8476 33.3793 46.7964 31.3281L42.0933 26.6563C41.0808 25.6408 39.8778 24.8351 38.5533 24.2853C37.2288 23.7355 35.8089 23.4526 34.3748 23.4526C32.9408 23.4526 31.5208 23.7355 30.1963 24.2853C28.8718 24.8351 27.6688 25.6408 26.6563 26.6563ZM31.0624 31.0624C30.627 31.4972 30.2816 32.0136 30.0459 32.5819C29.8103 33.1503 29.689 33.7596 29.689 34.3749C29.689 34.9902 29.8103 35.5994 30.0459 36.1678C30.2816 36.7362 30.627 37.2525 31.0624 37.6873L35.7498 42.3746C36.6383 43.2026 37.8136 43.6534 39.0279 43.632C40.2423 43.6105 41.4009 43.1186 42.2597 42.2598C43.1185 41.401 43.6105 40.2423 43.6319 39.028C43.6533 37.8136 43.2026 36.6384 42.3746 35.7498L37.6872 31.0624C37.2524 30.6271 36.7361 30.2817 36.1677 30.046C35.5994 29.8103 34.9901 29.689 34.3748 29.689C33.7595 29.689 33.1503 29.8103 32.5819 30.046C32.0135 30.2817 31.4972 30.6271 31.0624 31.0624Z" fill="url(#paint1_linear_69_13)"/>
<path d="M15.7503 20.1878C14.5316 18.969 14.5316 16.9691 15.7503 15.7504C16.9691 14.5317 18.969 14.5317 20.1877 15.7504L34.2498 29.8125C35.4686 31.0312 35.4686 33.0312 34.2498 34.2499C33.0311 35.4686 31.0312 35.4686 29.8125 34.2499L15.7503 20.1878Z" fill="url(#paint2_linear_69_13)"/>
<defs>
<linearGradient id="paint0_linear_69_13" x1="10.938" y1="0.00078916" x2="10.938" y2="26.5626" gradientUnits="userSpaceOnUse">
<stop stop-color="#66ABDD"/>
<stop offset="1" stop-color="#0073C6"/>
</linearGradient>
<linearGradient id="paint1_linear_69_13" x1="34.3904" y1="23.4533" x2="34.3904" y2="50.0151" gradientUnits="userSpaceOnUse">
<stop stop-color="#66ABDD"/>
<stop offset="1" stop-color="#0073C6"/>
</linearGradient>
<linearGradient id="paint2_linear_69_13" x1="23.2126" y1="14.8348" x2="23.2126" y2="35.178" gradientUnits="userSpaceOnUse">
<stop stop-color="#66ABDD"/>
<stop offset="1" stop-color="#0073C6"/>
</linearGradient>
</defs>
</svg>
