<svg width="50" height="50" viewBox="0 0 50 50" fill="none" xmlns="http://www.w3.org/2000/svg">
<path d="M7.01259 50C3.1459 50 0 46.7946 0 42.8549V7.14515C0 5.23493 0.730684 3.43959 2.05687 2.08981C3.38072 0.742122 5.14043 0 7.012 0L42.9956 0.0460115C46.8576 0.0507611 50 3.25613 50 7.19146V42.8549C50 46.7946 46.8541 50 42.9874 50H7.01259Z" fill="#F2F2F2"/>
<path d="M4.11665 35.8282V42.2644C4.11665 44.0819 5.56272 45.5553 7.34653 45.5553H42.6535C44.4373 45.5553 45.8833 44.0819 45.8833 42.2644V35.8282H4.11665Z" fill="#707CC0"/>
<path d="M4.71333 4.82294V40.0222C4.71333 40.7278 5.27466 41.2997 5.96711 41.2997H44.0329C44.7253 41.2997 45.2867 40.7278 45.2867 40.0222V4.82294H4.71333Z" fill="#9AA2E6"/>
<path d="M7.0162 3.95156C5.28372 3.9496 3.87826 5.38005 3.87826 7.14527V36.3358V39.6704V42.8547C3.87826 44.6186 5.2816 46.0484 7.01271 46.0484H42.9873C44.7184 46.0484 46.1217 44.6186 46.1217 42.8547V39.6704V36.3358V7.19142C46.1217 5.42897 44.7205 3.99968 42.9908 3.99772L7.0162 3.95156Z" stroke="#40396E" stroke-width="3" stroke-miterlimit="10" stroke-linecap="round" stroke-linejoin="round"/>
<path d="M18.77 28.7982C17.8027 28.7982 16.9765 28.6037 16.2901 28.2152C15.6037 27.8266 15.0757 27.2804 14.7063 26.5763C14.3381 25.8724 14.1539 25.041 14.1539 24.0821C14.1539 23.1322 14.3381 22.3052 14.7063 21.6011C15.0757 20.8972 15.6037 20.351 16.2901 19.9622C16.9765 19.5736 17.8027 19.3792 18.77 19.3792C19.193 19.3792 19.623 19.4356 20.06 19.5478C20.497 19.66 20.8758 19.8114 21.1986 20.0011C21.4608 20.1566 21.6216 20.351 21.681 20.5841C21.7405 20.8174 21.7218 21.0377 21.6239 21.2449C21.526 21.4524 21.3757 21.5993 21.1729 21.6854C20.969 21.7718 20.7406 21.7418 20.4865 21.5948C20.2313 21.4393 19.9645 21.3271 19.6848 21.2579C19.4051 21.1888 19.1207 21.1543 18.8329 21.1543C17.9763 21.1543 17.3307 21.4069 16.8937 21.9122C16.4567 22.4174 16.2388 23.1408 16.2388 24.0821C16.2388 25.0237 16.4567 25.7492 16.8937 26.2589C17.3307 26.7686 17.9763 27.0233 18.8329 27.0233C19.1044 27.0233 19.3818 26.9889 19.6661 26.9197C19.9493 26.8506 20.2232 26.7428 20.4865 26.5956C20.7569 26.4489 20.9946 26.4166 21.1986 26.4985C21.4014 26.5807 21.5517 26.7187 21.6496 26.9132C21.7463 27.1073 21.7708 27.3193 21.7195 27.5478C21.6682 27.777 21.5249 27.9649 21.2871 28.1116C20.9643 28.3277 20.5774 28.496 20.1241 28.6168C19.6696 28.7376 19.2186 28.7982 18.77 28.7982Z" fill="#40396E"/>
<path d="M25.6736 28.7976C23.9185 28.7976 23.0422 27.9297 23.0422 26.1938V23.758H22.5073C22.0073 23.758 21.758 23.5164 21.758 23.0326C21.758 22.5405 22.0073 22.2941 22.5073 22.2941H23.0422V21.3095C23.0422 20.6446 23.3638 20.3122 24.0083 20.3122C24.6434 20.3122 24.9615 20.6446 24.9615 21.3095V22.2941H26.17C26.6618 22.2941 26.9077 22.5405 26.9077 23.0326C26.9077 23.5164 26.6618 23.758 26.17 23.758H24.9615V26.116C24.9615 26.4788 25.0443 26.7507 25.2098 26.932C25.3753 27.1134 25.6398 27.2042 26.0045 27.2042C26.1316 27.2042 26.2504 27.1912 26.36 27.1653C26.4707 27.1395 26.5721 27.1223 26.6653 27.1134C26.7842 27.1051 26.8821 27.144 26.9578 27.23C27.0347 27.3164 27.072 27.4936 27.072 27.7614C27.072 27.9772 27.0382 28.1609 26.9706 28.3117C26.903 28.4631 26.7842 28.5732 26.6152 28.642C26.5045 28.6854 26.3542 28.7219 26.163 28.7522C25.9731 28.7824 25.8088 28.7976 25.6736 28.7976Z" fill="#40396E"/>
<path d="M28.7385 28.7719C28.0766 28.7719 27.7468 28.4394 27.7468 27.7743V23.1752C27.7468 22.5189 28.0602 22.1906 28.6872 22.1906C29.3142 22.1906 29.6277 22.5189 29.6277 23.1752V23.4085C29.933 22.64 30.5646 22.2254 31.5225 22.1648C31.7346 22.1476 31.8978 22.2016 32.012 22.3269C32.1274 22.4521 32.188 22.6569 32.1973 22.9422C32.2136 23.2099 32.16 23.4216 32.0376 23.5768C31.9153 23.7324 31.709 23.8276 31.4212 23.8618L31.1287 23.8879C30.1789 23.9829 29.7046 24.4753 29.7046 25.3646V27.7743C29.7046 28.4394 29.3818 28.7719 28.7385 28.7719Z" fill="#40396E"/>
<path d="M35.2354 28.7982C33.7356 28.7982 32.9851 27.9477 32.9851 26.2459V20.4027C32.9851 19.7378 33.3067 19.4053 33.9512 19.4053C34.5875 19.4053 34.9056 19.7378 34.9056 20.4027V26.1681C34.9056 26.5225 34.979 26.7835 35.1282 26.9521C35.2762 27.1204 35.4731 27.2047 35.719 27.2047C35.7866 27.2047 35.853 27.2002 35.916 27.1916C35.9801 27.1833 36.0407 27.1789 36.1001 27.1789C36.2364 27.1703 36.3308 27.2133 36.3868 27.3083C36.4416 27.4033 36.4695 27.5977 36.4695 27.8913C36.4695 28.3924 36.2609 28.6771 35.846 28.7465C35.761 28.7548 35.6643 28.7658 35.5535 28.7789C35.444 28.7917 35.3379 28.7982 35.2354 28.7982Z" fill="#40396E"/>
</svg>
