<svg width="50.000000" height="50.000000" viewBox="0 0 50 50" fill="none" xmlns="http://www.w3.org/2000/svg" xmlns:xlink="http://www.w3.org/1999/xlink">
	<desc>
			Created with Pixso.
	</desc>
	<defs/>
	<path id="path" d="M10.81 20.68L10.81 46.16C10.81 46.61 10.9 47.05 11.09 47.48C11.27 47.9 11.53 48.27 11.87 48.59C12.22 48.92 12.61 49.17 13.06 49.34C13.5 49.52 13.97 49.6 14.45 49.6L40.7 49.6C41.19 49.6 41.65 49.52 42.1 49.34C42.54 49.17 42.94 48.92 43.28 48.59C43.62 48.27 43.88 47.9 44.07 47.48C44.25 47.05 44.35 46.61 44.34 46.16L44.34 19.1L10.81 20.68Z" fill="#BBCDFB" fill-opacity="1.000000" fill-rule="nonzero"/>
	<path id="path" d="M10.81 20.68L10.81 46.16C10.81 46.26 10.82 46.35 10.82 46.45L35.95 46.45C36.43 46.45 36.9 46.37 37.34 46.19C37.79 46.02 38.18 45.77 38.52 45.44C38.87 45.12 39.13 44.75 39.31 44.33C39.5 43.9 39.59 43.46 39.59 43.01L39.59 28.26L44.34 23.76L44.34 19.1L10.81 20.68Z" fill="#9EBBFB" fill-opacity="1.000000" fill-rule="nonzero"/>
	<path id="path" d="M0.41 13.36L0.41 40.19C0.41 40.64 0.5 41.08 0.68 41.5C0.87 41.93 1.13 42.3 1.47 42.62C1.81 42.94 2.2 43.19 2.65 43.37C3.1 43.54 3.56 43.63 4.04 43.63L32.77 43.63C33.26 43.63 33.72 43.54 34.17 43.37C34.61 43.19 35.01 42.94 35.35 42.62C35.69 42.3 35.95 41.93 36.13 41.5C36.32 41.08 36.41 40.64 36.41 40.19L36.41 3.83C36.41 3.37 36.32 2.93 36.13 2.51C35.95 2.09 35.69 1.72 35.35 1.39C35.01 1.07 34.61 0.82 34.17 0.65C33.72 0.47 33.26 0.39 32.77 0.39L14.12 0.39L0.41 13.36Z" fill="#D9DEFB" fill-opacity="1.000000" fill-rule="nonzero"/>
	<path id="path" d="M14.12 0.39L0.41 13.36L10.48 13.36C10.97 13.36 11.43 13.28 11.88 13.1C12.32 12.93 12.71 12.68 13.06 12.36C13.4 12.03 13.66 11.66 13.84 11.24C14.03 10.82 14.12 10.38 14.12 9.92L14.12 0.39Z" fill="#2196F3" fill-opacity="1.000000" fill-rule="nonzero"/>
	<path id="path" d="M44.23 8.06C44.01 7.86 43.77 7.7 43.49 7.59C43.21 7.48 42.92 7.43 42.61 7.43C42.31 7.43 42.02 7.48 41.74 7.59C41.46 7.7 41.21 7.86 41 8.06L20.6 27.37L28.43 34.78L48.83 15.48C49.05 15.27 49.21 15.04 49.33 14.78C49.44 14.51 49.5 14.24 49.5 13.95C49.5 13.66 49.44 13.39 49.33 13.12C49.21 12.86 49.05 12.62 48.83 12.42L44.23 8.06Z" fill="#2196F3" fill-opacity="1.000000" fill-rule="nonzero"/>
	<path id="path" d="M47.26 10.94C47.48 11.14 47.64 11.37 47.76 11.64C47.88 11.9 47.94 12.18 47.94 12.47C47.94 12.75 47.88 13.03 47.76 13.29C47.64 13.56 47.48 13.79 47.26 13.99L26.87 33.3L28.43 34.78L48.83 15.48C49.05 15.27 49.21 15.04 49.33 14.78C49.44 14.51 49.5 14.24 49.5 13.95C49.5 13.66 49.44 13.39 49.33 13.12C49.21 12.86 49.05 12.62 48.83 12.42L47.26 10.94Z" fill="#2979FF" fill-opacity="1.000000" fill-rule="nonzero"/>
	<path id="path" d="M38.04 10.87L34.86 13.87L42.69 21.29L45.87 18.28L38.04 10.87Z" fill="#D9DEFB" fill-opacity="1.000000" fill-rule="nonzero"/>
	<path id="path" d="M44.3 16.8L41.13 19.8L42.69 21.29L45.87 18.28L44.3 16.8Z" fill="#BBCDFB" fill-opacity="1.000000" fill-rule="nonzero"/>
	<path id="path" d="M44.23 8.06C44.01 7.86 43.77 7.7 43.49 7.59C43.21 7.48 42.92 7.43 42.61 7.43C42.31 7.43 42.02 7.48 41.74 7.59C41.46 7.7 41.21 7.86 41 8.06L37.35 11.51L45.19 18.93L48.83 15.48C49.05 15.27 49.21 15.04 49.33 14.78C49.44 14.51 49.5 14.24 49.5 13.95C49.5 13.66 49.44 13.39 49.33 13.12C49.21 12.86 49.05 12.62 48.83 12.42L44.23 8.06Z" fill="#FF7EBD" fill-opacity="1.000000" fill-rule="nonzero"/>
	<path id="path" d="M24.28 27.66L22.2 27.66C21.68 27.66 21.23 27.47 20.88 27.1L19.18 28.71C18.64 29.22 18.46 29.64 18.44 30.29L18.46 35.38C18.46 35.84 18.6 36.18 18.86 36.43C19.12 36.68 19.48 36.8 19.97 36.8L25.34 36.83C26.03 36.8 26.47 36.64 27.02 36.12L28.71 34.52C28.32 34.18 28.13 33.76 28.13 33.26L28.13 31.3L26.06 31.3C25.56 31.3 25.14 31.14 24.8 30.81C24.45 30.48 24.27 30.08 24.28 29.62L24.28 27.66Z" fill="#FFB7BD" fill-opacity="1.000000" fill-rule="nonzero"/>
	<path id="path" d="M22.71 27.66L22.71 28.13C22.71 29.14 23.07 29.81 24.29 29.81C24.28 29.75 24.28 29.68 24.28 29.62L24.28 27.66L22.71 27.66ZM26.56 31.3C26.56 31.3 26.4 32.39 27.15 33.03L25.45 34.64C24.91 35.15 24.46 35.32 23.78 35.34L18.46 35.32L18.46 35.38C18.46 35.84 18.6 36.18 18.86 36.43C19.12 36.68 19.48 36.8 19.97 36.8L25.34 36.83C26.03 36.8 26.47 36.64 27.02 36.12L28.71 34.52C28.32 34.18 28.13 33.76 28.13 33.26L28.13 31.3L26.56 31.3Z" fill="#FFA2BD" fill-opacity="1.000000" fill-rule="nonzero"/>
	<path id="path" d="M18.45 31.4L18.46 35.38C18.46 35.84 18.6 36.18 18.86 36.43C19.12 36.68 19.48 36.8 19.97 36.8L24.17 36.82L18.45 31.4Z" fill="#455A64" fill-opacity="1.000000" fill-rule="nonzero"/>
	<path id="path" d="M47.34 10.96C47.56 11.16 47.72 11.39 47.84 11.66C47.96 11.92 48.01 12.2 48.01 12.49C48.01 12.77 47.96 13.05 47.84 13.31C47.72 13.58 47.56 13.81 47.34 14.02L43.69 17.47L45.26 18.96L48.91 15.5C49.13 15.3 49.29 15.06 49.41 14.8C49.52 14.53 49.58 14.26 49.58 13.97C49.58 13.68 49.52 13.41 49.41 13.14C49.29 12.88 49.13 12.64 48.91 12.44L47.34 10.96Z" fill="#E95AAD" fill-opacity="1.000000" fill-rule="nonzero"/>
	<path id="path" d="M18.5 35.38L18.5 35.44C18.5 35.9 18.63 36.24 18.89 36.49C19.15 36.74 19.52 36.86 20 36.86L24.21 36.88L22.65 35.39L18.5 35.38Z" fill="#453E64" fill-opacity="1.000000" fill-rule="nonzero"/>
	<path id="path" d="M7.23 17.86L9.51 17.86C9.86 17.86 10.19 17.92 10.51 18.05C10.83 18.17 11.11 18.35 11.35 18.58C11.59 18.81 11.78 19.08 11.91 19.38C12.04 19.68 12.11 19.99 12.11 20.32L12.11 22.48C12.11 22.81 12.04 23.12 11.91 23.42C11.78 23.72 11.59 23.99 11.35 24.22C11.11 24.45 10.83 24.63 10.51 24.75C10.19 24.88 9.86 24.94 9.51 24.94L7.23 24.94C6.88 24.94 6.55 24.88 6.23 24.75C5.92 24.63 5.63 24.45 5.39 24.22C5.15 23.99 4.96 23.72 4.83 23.42C4.7 23.12 4.63 22.81 4.63 22.48L4.63 20.32C4.63 19.99 4.7 19.68 4.83 19.38C4.96 19.08 5.15 18.81 5.39 18.58C5.63 18.35 5.91 18.17 6.23 18.05C6.55 17.92 6.88 17.86 7.23 17.86ZM7.23 29.7L9.51 29.7C9.86 29.7 10.19 29.77 10.51 29.89C10.83 30.01 11.11 30.19 11.35 30.42C11.59 30.65 11.78 30.92 11.91 31.22C12.04 31.52 12.11 31.84 12.11 32.16L12.11 34.32C12.11 34.65 12.04 34.96 11.91 35.26C11.78 35.57 11.59 35.83 11.35 36.06C11.11 36.29 10.83 36.47 10.51 36.59C10.19 36.72 9.86 36.78 9.51 36.78L7.23 36.78C6.88 36.78 6.55 36.72 6.23 36.59C5.92 36.47 5.63 36.29 5.39 36.06C5.15 35.83 4.96 35.57 4.83 35.26C4.7 34.96 4.63 34.65 4.63 34.32L4.63 32.16C4.63 31.84 4.7 31.52 4.83 31.22C4.96 30.92 5.15 30.65 5.39 30.42C5.63 30.19 5.91 30.01 6.23 29.89C6.55 29.77 6.88 29.7 7.23 29.7Z" fill="#5BB774" fill-opacity="1.000000" fill-rule="nonzero"/>
	<path id="path" d="M15.42 4.37L15.42 4.76L16.25 4.76L16.25 4.37L15.42 4.37ZM17.5 4.37L17.5 4.76L18.33 4.76L18.33 4.37L17.5 4.37ZM19.58 4.37L19.58 4.76L20.41 4.76L20.41 4.37L19.58 4.37ZM21.65 4.37L21.65 4.76L22.48 4.76L22.48 4.37L21.65 4.37ZM23.73 4.37L23.73 4.76L24.56 4.76L24.56 4.37L23.73 4.37ZM25.81 4.37L25.81 4.76L26.64 4.76L26.64 4.37L25.81 4.37ZM27.88 4.37L27.88 4.76L28.71 4.76L28.71 4.37L27.88 4.37ZM29.96 4.37L29.96 4.76L30.79 4.76L30.79 4.37L29.96 4.37ZM32.04 4.37L32.04 4.76L32.87 4.76L32.87 4.37L32.04 4.37ZM34.11 4.37L34.11 4.76L34.94 4.76L34.94 4.37L34.11 4.37ZM2.11 39.88L2.11 40.27L2.94 40.27L2.94 39.88L2.11 39.88ZM4.19 39.88L4.19 40.27L5.02 40.27L5.02 39.88L4.19 39.88ZM6.26 39.88L6.26 40.27L7.09 40.27L7.09 39.88L6.26 39.88ZM8.34 39.88L8.34 40.27L9.17 40.27L9.17 39.88L8.34 39.88ZM10.42 39.88L10.42 40.27L11.25 40.27L11.25 39.88L10.42 39.88ZM12.49 39.88L12.49 40.27L13.32 40.27L13.32 39.88L12.49 39.88ZM14.57 39.88L14.57 40.27L15.4 40.27L15.4 39.88L14.57 39.88ZM16.65 39.88L16.65 40.27L17.48 40.27L17.48 39.88L16.65 39.88ZM18.72 39.88L18.72 40.27L19.55 40.27L19.55 39.88L18.72 39.88ZM20.8 39.88L20.8 40.27L21.63 40.27L21.63 39.88L20.8 39.88ZM22.88 39.88L22.88 40.27L23.71 40.27L23.71 39.88L22.88 39.88ZM24.95 39.88L24.95 40.27L25.78 40.27L25.78 39.88L24.95 39.88ZM27.03 39.88L27.03 40.27L27.86 40.27L27.86 39.88L27.03 39.88ZM29.11 39.88L29.11 40.27L29.94 40.27L29.94 39.88L29.11 39.88ZM31.18 39.88L31.18 40.27L32.01 40.27L32.01 39.88L31.18 39.88ZM33.26 39.88L33.26 40.27L34.09 40.27L34.09 39.88L33.26 39.88Z" fill="#0A0D33" fill-opacity="1.000000" fill-rule="nonzero"/>
	<path id="path" d="M13.84 0.12L0.13 13.1C0.04 13.17 0 13.27 0 13.38L0 40.25C0 42.37 1.81 44.09 4.05 44.09L10.39 44.09L10.39 46.16C10.39 48.28 12.21 50 14.45 50L40.7 50C42.94 50 44.76 48.28 44.76 46.16L44.76 19.99L49.2 15.78C49.46 15.54 49.65 15.26 49.79 14.95C49.93 14.64 50 14.31 50 13.97C50 13.63 49.93 13.3 49.79 12.99C49.65 12.68 49.46 12.4 49.2 12.16L44.6 7.8C43.5 6.76 41.79 6.84 40.77 7.8L36.88 11.48L36.88 3.83C36.88 1.71 35.07 -0.03 32.82 0L14.15 0C14.03 -0.01 13.92 0.04 13.84 0.12ZM14.56 0.78L32.83 0.78C34.62 0.76 36.05 2.14 36.05 3.83L36.05 12.26L20.34 27.13L18.92 28.48C18.33 29.04 18.08 29.62 18.06 30.33L18.08 35.44C18.08 36.76 19.06 37.26 20 37.26C20 37.26 25.29 37.28 25.4 37.28C26.22 37.25 26.76 37.02 27.36 36.46L36.05 28.23L36.05 40.25C36.06 40.66 35.97 41.05 35.81 41.42C35.65 41.8 35.42 42.13 35.11 42.41C34.81 42.7 34.46 42.92 34.06 43.07C33.67 43.23 33.26 43.3 32.83 43.3L4.05 43.3C3.62 43.3 3.21 43.23 2.82 43.07C2.42 42.92 2.07 42.7 1.77 42.41C1.46 42.13 1.23 41.8 1.07 41.42C0.91 41.05 0.83 40.66 0.83 40.25L0.83 13.78L10.5 13.78C12.74 13.78 14.56 12.06 14.56 9.94L14.56 0.78ZM13.73 1.34L13.73 9.94C13.73 10.34 13.65 10.73 13.49 11.11C13.32 11.48 13.09 11.81 12.79 12.1C12.48 12.39 12.13 12.61 11.74 12.76C11.34 12.92 10.93 12.99 10.5 12.99L1.42 12.99L13.73 1.34ZM18.36 9.06C18.09 9.06 17.96 9.2 17.96 9.45C17.96 9.71 18.09 9.84 18.36 9.84L23.88 9.84C23.99 9.84 24.09 9.81 24.17 9.73C24.25 9.65 24.29 9.56 24.29 9.45C24.29 9.34 24.25 9.25 24.17 9.17C24.09 9.1 23.99 9.06 23.88 9.06L18.36 9.06ZM44.01 8.36L48.62 12.72C48.79 12.88 48.93 13.07 49.03 13.29C49.12 13.51 49.17 13.73 49.17 13.97C49.17 14.21 49.12 14.43 49.03 14.65C48.93 14.87 48.79 15.06 48.62 15.22L45.26 18.4L38 11.53L41.36 8.36C42.13 7.63 43.31 7.7 44.01 8.36ZM18.36 12.59C18.25 12.59 18.15 12.62 18.07 12.7C17.99 12.78 17.95 12.87 17.95 12.98C17.95 13.09 17.99 13.18 18.07 13.26C18.15 13.33 18.25 13.37 18.36 13.37L31.57 13.37C31.68 13.37 31.78 13.33 31.86 13.26C31.94 13.18 31.98 13.09 31.98 12.98C31.98 12.87 31.94 12.78 31.86 12.7C31.78 12.62 31.68 12.59 31.57 12.59L18.36 12.59ZM37.41 12.09L44.67 18.96L42.76 20.76L35.51 13.9L37.41 12.09ZM34.92 14.45L38.12 17.48L24.81 30.08C24.76 29.95 24.73 29.81 24.73 29.66L24.73 27.7C24.73 27.59 24.69 27.5 24.61 27.42C24.53 27.34 24.43 27.31 24.32 27.31L22.24 27.31C21.99 27.31 21.75 27.24 21.53 27.12L34.92 14.45ZM7.24 17.5C5.58 17.5 4.23 18.78 4.23 20.35L4.23 22.52C4.23 24.09 5.58 25.37 7.24 25.37L9.53 25.37C11.19 25.37 12.55 24.09 12.55 22.52L12.55 20.35C12.55 18.78 11.19 17.5 9.53 17.5L7.24 17.5ZM7.24 18.28L9.53 18.28C9.82 18.28 10.1 18.33 10.37 18.44C10.64 18.54 10.87 18.69 11.08 18.89C11.28 19.08 11.44 19.3 11.55 19.56C11.66 19.81 11.72 20.08 11.71 20.35L11.71 22.52C11.72 22.79 11.66 23.06 11.55 23.31C11.44 23.56 11.28 23.79 11.08 23.98C10.87 24.18 10.64 24.33 10.37 24.43C10.1 24.53 9.82 24.59 9.53 24.58L7.24 24.58C6.95 24.59 6.67 24.53 6.4 24.43C6.14 24.33 5.9 24.18 5.69 23.98C5.49 23.79 5.33 23.56 5.22 23.31C5.11 23.06 5.06 22.79 5.06 22.52L5.06 20.35C5.06 20.08 5.11 19.81 5.22 19.56C5.33 19.3 5.49 19.08 5.69 18.89C5.9 18.69 6.14 18.54 6.4 18.44C6.67 18.33 6.95 18.28 7.24 18.28ZM15.69 19.02C15.58 19.02 15.48 19.06 15.4 19.13C15.32 19.21 15.28 19.3 15.28 19.41C15.28 19.52 15.32 19.61 15.4 19.69C15.48 19.77 15.58 19.81 15.69 19.81L21.53 19.81C21.64 19.81 21.74 19.77 21.82 19.69C21.9 19.61 21.94 19.52 21.94 19.41C21.94 19.3 21.9 19.21 21.82 19.13C21.74 19.06 21.64 19.02 21.53 19.02L15.69 19.02ZM38.71 18.04L42.17 21.32L28.79 33.99C28.66 33.78 28.59 33.56 28.59 33.32L28.59 31.35C28.59 31.24 28.55 31.15 28.47 31.07C28.39 31 28.29 30.96 28.18 30.96L26.1 30.96C25.81 30.96 25.55 30.88 25.31 30.72L38.71 18.04ZM9.29 20.42L8.02 21.62L7.48 21.1C7.28 20.93 7.09 20.93 6.9 21.11C6.71 21.29 6.71 21.47 6.89 21.66L7.73 22.45C7.81 22.53 7.91 22.57 8.02 22.57C8.14 22.57 8.24 22.53 8.32 22.45L9.88 20.97C9.96 20.9 10 20.8 10 20.7C10 20.59 9.96 20.49 9.88 20.42C9.68 20.23 9.49 20.23 9.29 20.42ZM43.93 20.77L43.93 46.16C43.93 46.56 43.85 46.95 43.69 47.33C43.52 47.7 43.29 48.03 42.99 48.32C42.69 48.61 42.34 48.83 41.94 48.98C41.54 49.13 41.13 49.21 40.7 49.21L14.45 49.21C14.02 49.21 13.61 49.13 13.21 48.98C12.82 48.83 12.47 48.6 12.17 48.32C11.86 48.03 11.63 47.7 11.47 47.33C11.3 46.95 11.22 46.56 11.23 46.16L11.23 44.09L32.83 44.09C35.07 44.09 36.88 42.37 36.88 40.25L36.88 27.44L43.93 20.77ZM15.69 22.75C15.43 22.76 15.3 22.89 15.3 23.14C15.3 23.39 15.43 23.53 15.69 23.54L19.04 23.54C19.31 23.53 19.45 23.4 19.45 23.14C19.45 22.89 19.31 22.76 19.04 22.75L15.69 22.75ZM22.24 28.09L23.9 28.09L23.9 29.66C23.9 30.24 24.15 30.76 24.54 31.14C24.97 31.54 25.49 31.75 26.1 31.75L27.76 31.75L27.76 33.32C27.76 33.77 27.9 34.18 28.19 34.55L26.77 35.9C26.27 36.37 25.92 36.47 25.37 36.49L24.39 36.49L18.89 31.29L18.89 30.35C18.89 29.76 19.01 29.5 19.51 29.03L20.93 27.69C21.33 27.95 21.75 28.09 22.24 28.09ZM7.24 29.36C5.58 29.36 4.23 30.64 4.23 32.21L4.23 34.38C4.23 35.95 5.58 37.23 7.24 37.23L9.53 37.23C11.19 37.23 12.55 35.95 12.55 34.38L12.55 32.21C12.55 30.64 11.19 29.36 9.53 29.36L7.24 29.36ZM7.24 30.14L9.53 30.14C9.82 30.14 10.1 30.19 10.37 30.3C10.64 30.4 10.87 30.55 11.08 30.75C11.28 30.94 11.44 31.16 11.55 31.42C11.66 31.67 11.72 31.94 11.71 32.21L11.71 34.38C11.72 34.65 11.66 34.92 11.55 35.17C11.44 35.42 11.28 35.65 11.08 35.84C10.87 36.04 10.64 36.19 10.37 36.29C10.1 36.39 9.82 36.45 9.53 36.44L7.24 36.44C6.95 36.45 6.67 36.39 6.4 36.29C6.14 36.19 5.9 36.04 5.69 35.84C5.49 35.65 5.33 35.42 5.22 35.17C5.11 34.92 5.06 34.65 5.06 34.38L5.06 32.21C5.06 31.94 5.11 31.67 5.22 31.42C5.33 31.16 5.49 30.94 5.69 30.75C5.9 30.55 6.14 30.4 6.4 30.3C6.67 30.19 6.95 30.14 7.24 30.14ZM9.29 32.28L8.02 33.48L7.48 32.96C7.28 32.79 7.09 32.79 6.9 32.97C6.71 33.15 6.71 33.33 6.89 33.52L7.73 34.31C7.81 34.39 7.91 34.43 8.02 34.43C8.14 34.43 8.24 34.39 8.32 34.31L9.88 32.83C9.96 32.76 10 32.66 10 32.56C10 32.45 9.96 32.36 9.88 32.28C9.69 32.1 9.43 32.15 9.29 32.28ZM18.9 32.4L23.21 36.48C23.21 36.48 20.13 36.47 20 36.47C19.27 36.47 18.91 36.11 18.91 35.44L18.9 32.4Z" fill="#0A0D33" fill-opacity="1.000000" fill-rule="nonzero"/>
</svg>
