<svg width="50.000000" height="50.000000" viewBox="0 0 50 50" fill="none" xmlns="http://www.w3.org/2000/svg" xmlns:xlink="http://www.w3.org/1999/xlink">
	<desc>
			Created with Pixso.
	</desc>
	<defs/>
	<rect id="Прямоугольник 20" width="50.000000" height="50.000000" fill="#FFFFFF" fill-opacity="1.000000"/>
	<path id="path" d="M18.55 34.59L22.2 26.85C19.41 26.25 16.61 24.51 15.02 22.39L11.2 30.49C13.32 32.3 15.87 33.73 18.55 34.59Z" fill="#1A007F" fill-opacity="1.000000" fill-rule="evenodd"/>
	<path id="path" d="M33.79 22.16C31.96 24.43 29.41 26.11 26.68 26.76L30.32 34.49C32.98 33.58 35.47 32.12 37.61 30.25L33.79 22.16Z" fill="#4E000A" fill-opacity="1.000000" fill-rule="evenodd"/>
	<path id="path" d="M11.2 30.49L9.29 34.53C8.32 36.59 9.05 39.12 11.05 40.2C13.17 41.33 15.78 40.44 16.81 38.28L18.55 34.59C15.83 33.71 13.38 32.34 11.2 30.49Z" fill="#1A007F" fill-opacity="1.000000" fill-rule="evenodd"/>
	<path id="path" d="M41.37 13.33C40.83 13.22 40.28 13.22 39.74 13.33C39.19 13.43 38.69 13.64 38.22 13.96C37.76 14.27 37.37 14.65 37.06 15.12C36.76 15.59 36.55 16.09 36.44 16.64C36.03 18.67 35.09 20.56 33.79 22.17L37.6 30.26C41.12 27.18 43.72 22.99 44.66 18.3C45.11 16.01 43.64 13.78 41.37 13.33Z" fill="#FF9396" fill-opacity="1.000000" fill-rule="evenodd"/>
	<path id="path" d="M26.68 26.76C25.87 26.96 25.03 27.07 24.2 27.07C23.55 27.07 22.88 26.99 22.2 26.85C19.41 26.25 16.61 24.51 15.02 22.39C14.62 21.87 14.3 21.32 14.08 20.75C13.21 18.59 10.76 17.55 8.62 18.42C6.47 19.29 5.44 21.76 6.3 23.92C7.28 26.38 9.02 28.63 11.2 30.49C13.38 32.34 15.83 33.71 18.54 34.59C20.39 35.19 22.31 35.52 24.19 35.52C26.29 35.52 28.35 35.15 30.32 34.49L26.68 26.76Z" fill="#002DC8" fill-opacity="1.000000" fill-rule="evenodd"/>
	<path id="path" d="M39.62 34.51L37.6 30.25L33.79 22.16L28.25 10.41C27.9 9.67 27.38 9.08 26.7 8.65C26.02 8.21 25.27 8 24.46 8C22.85 8 21.37 8.93 20.68 10.41L15.02 22.39C16.61 24.51 19.42 26.25 22.21 26.85L24.04 22.97C24.21 22.61 24.73 22.61 24.9 22.97L26.69 26.76L30.33 34.49L32.12 38.28C32.47 39.01 32.98 39.6 33.67 40.04C34.35 40.47 35.1 40.69 35.91 40.69C36.28 40.69 36.66 40.64 37.02 40.53C39.55 39.83 40.75 36.9 39.62 34.51Z" fill="#FF536A" fill-opacity="1.000000" fill-rule="evenodd"/>
</svg>
