<svg width="50.000000" height="50.000000" viewBox="0 0 50 50" fill="none" xmlns="http://www.w3.org/2000/svg" xmlns:xlink="http://www.w3.org/1999/xlink">
	<desc>
			Created with Pixso.
	</desc>
	<defs/>
	<path id="path" d="M45.95 0L4.04 0C1.81 0 0 1.81 0 4.04L0 45.95C0 48.18 1.81 50 4.04 50L45.95 50C48.18 50 50 48.18 50 45.95L50 4.04C50 1.81 48.18 0 45.95 0Z" fill="#CBE857" fill-opacity="1.000000" fill-rule="nonzero"/>
	<path id="path" d="M24.38 38.26L42.28 38.26L27.41 3.38L20.48 3.38C20.48 3.38 6.97 35.77 1.43 49.04C2.24 49.77 3.31 49.99 3.91 49.99L9 49.99L23.96 13.19L31.97 32.74L24.38 32.74L24.38 38.26Z" fill="#323843" fill-opacity="1.000000" fill-rule="nonzero"/>
</svg>
