<svg width="50.000000" height="50.000000" viewBox="0 0 50 50" fill="none" xmlns="http://www.w3.org/2000/svg" xmlns:xlink="http://www.w3.org/1999/xlink">
	<desc>
			Created with Pixso.
	</desc>
	<defs/>
	<path id="path" d="M22.65 36.56C19.37 36.56 17.34 34.68 17.34 31.87C17.34 28.28 21.25 25 25.31 24.06L15.62 0L32.65 0L35.78 6.09L23.75 6.09L30.93 23.28C31.56 24.84 31.87 26.25 31.87 27.81C31.87 32.81 26.71 36.71 22.5 36.71L22.65 36.56ZM40.31 12.65L47.65 25.46C49.12 28.09 49.9 30.9 50 33.9C50 43.28 42.65 50 32.18 50L17.81 50C7.34 50 0 43.28 0 33.9C0 30.93 0.93 28.12 2.34 25.46L9.68 12.65L16.71 12.65L7.81 27.81C6.79 29.65 6.26 31.63 6.25 33.75C6.25 39.68 10.15 43.9 17.96 43.9L31.71 43.9C39.53 43.9 43.59 39.68 43.59 33.75C43.52 31.62 42.95 29.64 41.87 27.81L33.28 12.5L40.31 12.65Z" fill="#F12C18" fill-opacity="1.000000" fill-rule="nonzero"/>
</svg>
