<svg width="50" height="50" viewBox="0 0 50 50" fill="none" xmlns="http://www.w3.org/2000/svg">
<path d="M37.9232 25.9082C44.4801 22.7762 49.8163 25.2872 49.8379 31.5296C49.8595 37.772 44.5611 45.3698 37.9988 48.5072C31.4473 51.6392 26.1165 49.1228 26.0949 42.8804C26.0733 36.6434 31.3663 29.0456 37.9232 25.9082Z" fill="#B9E9F7"/>
<path d="M49.8379 31.5296C49.8595 37.772 44.5611 45.3698 38.0042 48.5072C31.4473 51.6446 26.1111 49.1228 26.0949 42.8858C26.0895 41.417 26.3811 39.8834 26.905 38.3444C27.7746 38.6036 28.709 38.744 29.6758 38.744C34.4881 38.744 38.3877 35.3096 38.3877 31.0652C38.3877 29.375 37.7666 27.8144 36.7133 26.5508C37.1076 26.3186 37.5127 26.108 37.9232 25.9136C44.4855 22.7762 49.8163 25.2872 49.8379 31.5296Z" fill="#A9DEEA"/>
<path d="M32.6734 49.9976C31.4851 49.9976 30.3887 49.7654 29.4219 49.2848C27.1805 48.1832 25.9383 45.9044 25.9274 42.8804C25.9058 36.611 31.2529 28.943 37.8422 25.7894C41.1206 24.2234 44.1992 23.9858 46.5109 25.1306C48.7523 26.2322 49.9945 28.5056 49.9999 31.5296C50.0215 37.8044 44.6745 45.4724 38.0798 48.626C36.1732 49.5386 34.3369 49.9976 32.6734 49.9976ZM43.254 24.6986C41.6499 24.6986 39.8622 25.1468 38.0042 26.0324C31.5067 29.1428 26.2407 36.6974 26.2623 42.8804C26.2677 45.8018 27.4505 47.9888 29.5894 49.0418C31.793 50.1326 34.7528 49.9004 37.9178 48.383C44.4206 45.2726 49.6921 37.7126 49.6705 31.5296C49.6597 28.6136 48.4768 26.4266 46.3434 25.3736C45.4306 24.92 44.3882 24.6986 43.254 24.6986Z" fill="black"/>
<path d="M33.1757 47.1248C30.5994 47.1248 29.0547 45.3374 29.0439 42.3458C29.0277 37.286 33.5105 30.86 38.836 28.3112C40.2294 27.647 41.5851 27.2906 42.7571 27.2906C45.3334 27.2906 46.8781 29.078 46.8835 32.0642C46.9051 37.1294 42.4169 43.5554 37.0914 46.1042C35.6925 46.7684 34.3423 47.1248 33.1757 47.1248Z" fill="#F6977F"/>
<path d="M46.8835 32.0642C46.9051 37.1294 42.4169 43.5554 37.0914 46.1042C35.6926 46.7684 34.3423 47.1248 33.1757 47.1248C30.5994 47.1248 29.0547 45.3374 29.0439 42.3458C29.0439 41.5574 29.1519 40.7366 29.3517 39.8996C29.7568 39.9644 30.1673 39.9968 30.594 39.9968C34.6664 39.9968 37.9664 36.9566 37.9664 33.2036C37.9664 31.8428 37.5343 30.5738 36.7836 29.51C37.4263 29.0618 38.1122 28.6622 38.836 28.3112C40.2294 27.647 41.5905 27.2906 42.7571 27.2906C45.3334 27.2906 46.8727 29.078 46.8835 32.0642Z" fill="#F28772"/>
<path d="M33.1757 47.2652C30.4967 47.2652 28.8872 45.4238 28.8818 42.3458C28.8602 37.2374 33.3809 30.7574 38.7549 28.1924C40.1754 27.512 41.5581 27.1502 42.7571 27.1502C45.436 27.1502 47.0402 28.9862 47.051 32.0642C47.0672 37.1726 42.5465 43.658 37.1724 46.2284C35.752 46.9034 34.3693 47.2652 33.1757 47.2652ZM42.7571 27.431C41.6175 27.431 40.2888 27.7766 38.917 28.4354C33.6402 30.9572 29.1951 37.3292 29.2113 42.3458C29.2221 45.251 30.702 46.9844 33.1757 46.9844C34.3099 46.9844 35.6385 46.6388 37.0104 45.98C42.2926 43.4582 46.7377 37.0862 46.7215 32.0696C46.7107 29.1644 45.2308 27.431 42.7571 27.431Z" fill="black"/>
<path d="M37.9232 25.9082C41.2232 24.3314 44.2154 24.1856 46.3758 25.2278L43.4377 23.8076C41.288 22.7708 38.2959 22.9166 34.9904 24.4988C32.8786 25.5086 30.9018 26.9828 29.1843 28.727L32.1171 30.1418C33.8346 28.3976 35.8114 26.918 37.9232 25.9082Z" fill="white"/>
<path d="M46.3758 25.2278C44.2208 24.1856 41.2286 24.3314 37.9232 25.9082C35.8114 26.9234 33.8346 28.3976 32.1171 30.1418L29.1897 28.7216C30.2159 27.6794 31.3393 26.729 32.5329 25.919C32.9758 26.2106 33.4781 26.351 34.0398 26.351C35.3307 26.351 36.3785 25.5302 36.3785 24.5204C36.3785 24.3206 36.3407 24.1316 36.2651 23.9534C39.0628 22.9004 41.5689 22.9058 43.4377 23.8076L46.3758 25.2278Z" fill="#F0F5F7"/>
<path d="M32.1171 30.2822C32.0901 30.2822 32.063 30.2768 32.036 30.2606L29.1033 28.8458C28.9898 28.7918 28.9736 28.7216 29.0601 28.6352C30.8424 26.8262 32.8624 25.352 34.9094 24.3746C38.1608 22.8194 41.2178 22.5764 43.5241 23.6834L46.4622 25.1036C46.5541 25.1522 46.5757 25.217 46.5217 25.298C46.4676 25.379 46.392 25.3952 46.2948 25.3466C44.0912 24.2882 41.1476 24.5312 38.0042 26.0324C35.9896 26.9936 34.002 28.4462 32.2467 30.2282C32.2143 30.266 32.1711 30.2822 32.1171 30.2822ZM29.4435 28.6838L32.0792 29.9582C33.84 28.1924 35.8276 26.7506 37.8422 25.7894C40.2726 24.623 42.5951 24.1964 44.5827 24.5204L43.3566 23.9318C41.1638 22.868 38.2202 23.1164 35.0714 24.6176C33.1109 25.5572 31.1665 26.9612 29.4435 28.6838Z" fill="black"/>
<path d="M29.1843 28.727C25.5764 32.3882 23.1459 37.2374 23.1621 41.4656C23.1675 44.5706 24.4908 46.7468 26.6188 47.7782L29.557 49.193C27.4235 48.167 26.1057 45.98 26.0949 42.8804C26.0787 38.6522 28.5092 33.803 32.1171 30.1418L29.1843 28.727Z" fill="black"/>
<path d="M29.5624 49.3334C29.53 49.3334 29.5029 49.328 29.4759 49.3118L26.5378 47.9024C24.2639 46.8008 23.0055 44.5166 23.0001 41.4656C22.9839 37.367 25.3063 32.4476 29.0601 28.6352C29.1195 28.5758 29.1897 28.565 29.2653 28.6028L32.1981 30.0176C32.3169 30.0716 32.3277 30.1418 32.2467 30.2282C28.5362 33.9974 26.2461 38.8412 26.2623 42.8804C26.2731 45.8234 27.4668 48.0212 29.6272 49.0634C29.7028 49.0958 29.7406 49.1552 29.719 49.2254C29.6974 49.2956 29.6434 49.3334 29.5624 49.3334ZM29.2221 28.9052C25.571 32.6582 23.3133 37.4588 23.3295 41.4656C23.3349 44.4086 24.534 46.6064 26.7052 47.654L27.9312 48.248C26.6404 47.0006 25.9383 45.1538 25.9275 42.8804C25.9113 38.825 28.1851 33.9758 31.8632 30.1796L29.2221 28.9052ZM40.143 35.9414C41.3907 36.0872 41.4339 37.1834 41.2502 38.0744C41.1692 38.447 41.0018 38.8412 40.7317 39.2516C40.4455 39.7106 40.143 40.0454 39.8136 40.2938C39.5705 40.472 38.8468 40.8824 38.7279 40.958C38.7279 40.9904 38.7333 41.6816 38.7279 41.7464C38.7171 42.0056 38.5173 42.2864 38.2689 42.4052C38.015 42.524 37.8098 42.4268 37.8044 42.1838C37.799 42.0434 37.799 41.4386 37.799 41.4062L37.2805 41.66V42.3728C37.2805 42.6698 37.0914 42.9776 36.816 43.1126C36.5405 43.2422 36.3461 43.1288 36.3407 42.8264L36.3353 42.119C36.2759 42.146 35.093 42.7184 35.012 42.7454C34.7744 42.8156 34.6123 42.6968 34.6339 42.4538C34.6448 42.2108 34.8446 41.9462 35.093 41.8112L35.5035 41.6114L35.4819 35.126L35.1038 35.3096C34.8068 35.4446 34.6069 35.3582 34.6015 35.1044C34.6015 34.8452 34.8068 34.559 35.093 34.4186C35.3739 34.2782 35.6439 34.1432 35.941 34.0028L36.3083 33.8246C36.3083 33.749 36.3029 33.2468 36.3137 33.0686C36.3137 32.8796 36.4109 32.6744 36.5567 32.5232C36.6215 32.453 36.6971 32.399 36.7728 32.3612C36.8376 32.3288 36.9132 32.3072 36.9942 32.3126C37.1616 32.318 37.2481 32.4206 37.2481 32.6042L37.2535 33.3656L37.7666 33.1172C37.772 32.8904 37.7666 32.4314 37.772 32.3612C37.772 32.0858 37.9718 31.778 38.231 31.6538C38.4957 31.5242 38.6901 31.6322 38.7009 31.9022C38.7009 32.0156 38.7063 32.6258 38.7063 32.6582C39.7595 32.291 40.4347 32.4908 40.7155 33.2414C41.0072 34.0298 40.8182 34.937 40.143 35.9414ZM39.5111 39.5864C40.0836 39.1058 40.3915 38.474 40.3807 37.772C40.3699 37.0214 39.792 36.7406 39.0088 37.1186C38.8738 37.1834 38.6955 37.2698 38.4849 37.3724C37.6585 37.772 36.5189 38.3336 36.4541 38.3606L36.4649 41.1416C36.5675 41.093 38.4687 40.1696 39.16 39.8348C39.2735 39.7754 39.3923 39.6782 39.5111 39.5864ZM36.4487 34.6724L36.4541 37.4372L36.5135 37.421C36.6053 37.3778 38.3067 36.5516 38.6739 36.3626C38.9602 36.2168 39.2356 35.963 39.4895 35.6066C39.7866 35.1908 39.9054 34.7804 39.8892 34.2728C39.8676 33.6032 39.3599 33.3116 38.7009 33.5924C38.3445 33.7436 37.5505 34.1324 37.005 34.397C36.7458 34.5212 36.5189 34.64 36.4487 34.6724Z" fill="black"/>
<path d="M28.4483 26.4H11.5517C10.6948 26.4 10 25.7181 10 24.8769V15.7385C10 14.8973 10.6948 14.2154 11.5517 14.2154H28.4483C29.3053 14.2154 30 14.8973 30 15.7385V24.8769C30 25.7181 29.3053 26.4 28.4483 26.4Z" fill="#F06423"/>
<path d="M27.4138 26.4H11.5517C10.6948 26.4 10 25.7181 10 24.8769V15.7385C10 14.8973 10.6948 14.2154 11.5517 14.2154H27.4138C28.2708 14.2154 28.9655 14.8973 28.9655 15.7385V24.8769C28.9655 25.7181 28.2708 26.4 27.4138 26.4Z" fill="#FAA51E"/>
<path d="M28.9655 16.2461H10V19.2923H28.9655V16.2461Z" fill="#5F78BE"/>
<path d="M28.9655 19.2923H30V16.2461H28.9655V19.2923Z" fill="#46508C"/>
<path d="M21.7241 19.2923H2.06897C0.926316 19.2923 0 18.3831 0 17.2615V4.06154C0 3.50072 0.463125 3.04615 1.03448 3.04615H22.7586C23.33 3.04615 23.7931 3.50072 23.7931 4.06154V17.2615C23.7931 18.3831 22.8668 19.2923 21.7241 19.2923Z" fill="#46508C"/>
<path d="M19.6552 19.2923H2.06897C0.926316 19.2923 0 18.3831 0 17.2615V4.06154C0 3.50072 0.463125 3.04615 1.03448 3.04615H22.7586C22.1873 3.04615 21.7241 3.50072 21.7241 4.06154V17.2615C21.7241 18.3831 20.7978 19.2923 19.6552 19.2923Z" fill="#5F78BE"/>
<path d="M19.6552 19.2923H2.06897C0.926316 19.2923 0 18.3831 0 17.2615V14.2154H21.7241V17.2615C21.7241 18.3831 20.7978 19.2923 19.6552 19.2923Z" fill="#73CDDC"/>
<path d="M16.5517 24.3692H13.4483C12.8769 24.3692 12.4138 23.9147 12.4138 23.3539V22.3385C12.4138 21.7777 12.8769 21.3231 13.4483 21.3231H16.5517C17.1231 21.3231 17.5862 21.7777 17.5862 22.3385V23.3539C17.5862 23.9147 17.1231 24.3692 16.5517 24.3692Z" fill="#73CDDC"/>
<path d="M23.7931 12.1846C27.2211 12.1846 30 9.45702 30 6.09228C30 2.72762 27.2211 0 23.7931 0C20.3651 0 17.5862 2.72762 17.5862 6.09228C17.5862 9.45702 20.3651 12.1846 23.7931 12.1846Z" fill="#73CDDC"/>
<path d="M25.094 6.25512C25.8625 5.81502 26.3793 4.99776 26.3793 4.06154C26.3793 2.65961 25.2214 1.52308 23.7931 1.52308C22.3648 1.52308 21.2069 2.65961 21.2069 4.06154C21.2069 4.99776 21.7237 5.81502 22.4921 6.25512C21.1376 6.6 19.9988 7.46994 19.3144 8.63076C20.2088 10.1478 21.8789 11.1692 23.7931 11.1692C25.7073 11.1692 27.3774 10.1478 28.2718 8.63076C27.5874 7.46994 26.4486 6.6 25.094 6.25512Z" fill="#46508C"/>
<path d="M5.68964 12.6923C7.97496 12.6923 9.82758 10.8739 9.82758 8.63076C9.82758 6.38766 7.97496 4.56924 5.68964 4.56924C3.40433 4.56924 1.55171 6.38766 1.55171 8.63076C1.55171 10.8739 3.40433 12.6923 5.68964 12.6923Z" fill="#46508C"/>
<path d="M7.2414 7.99614C7.4556 7.99614 7.6293 7.82562 7.6293 7.61538V7.48512C7.6293 6.78708 7.05078 6.21924 6.33966 6.21924H6.07758V5.75388C6.07758 5.54364 5.90386 5.37312 5.68966 5.37312C5.47545 5.37312 5.30173 5.54364 5.30173 5.75388V6.21924H5.03968C4.32853 6.21924 3.75 6.78708 3.75 7.48512C3.75 8.03088 4.10437 8.51346 4.63183 8.68596L6.50214 9.29795C6.71226 9.36665 6.85344 9.55896 6.85344 9.77646C6.85344 10.0546 6.62298 10.2808 6.33966 10.2808H5.03974C4.75642 10.2808 4.52593 10.0546 4.52593 9.77646V9.64614C4.52593 9.4359 4.3522 9.26538 4.138 9.26538C3.9238 9.26538 3.75007 9.4359 3.75007 9.64614V9.77646C3.75 10.4744 4.32853 11.0423 5.03968 11.0423H5.30173V11.5077C5.30173 11.7179 5.47545 11.8885 5.68966 11.8885C5.90386 11.8885 6.07758 11.7179 6.07758 11.5077V11.0423H6.33966C7.05078 11.0423 7.6293 10.4744 7.6293 9.77646C7.6293 9.2307 7.27494 8.74812 6.74748 8.57556L4.8772 7.96361C4.66707 7.89485 4.52586 7.70256 4.52586 7.48512C4.52586 7.20702 4.75636 6.98076 5.03968 6.98076H6.33954C6.62286 6.98076 6.85338 7.20702 6.85338 7.48512V7.61538C6.85344 7.82562 7.0272 7.99614 7.2414 7.99614Z" fill="#73CDDC"/>
</svg>
