<svg width="50.000031" height="50.000000" viewBox="0 0 50 50" fill="none" xmlns="http://www.w3.org/2000/svg" xmlns:xlink="http://www.w3.org/1999/xlink">
	<desc>
			Created with Pixso.
	</desc>
	<defs/>
	<path id="path" d="M18.3 1.56C13.99 1.56 10.49 4.76 10.49 8.69C10.49 9.4 10.6 10.1 10.82 10.75C10.71 10.74 10.61 10.73 10.49 10.73C5.55 10.73 1.56 14.38 1.56 18.88C1.56 21.78 3.21 24.3 5.69 25.75C4.42 27.32 3.79 29.1 3.79 31.11C3.79 35.17 6.67 38.61 10.66 39.82C10.55 40.28 10.48 40.79 10.48 41.3C10.48 45.24 13.99 48.44 18.3 48.44C21.15 48.44 23.63 47.03 24.99 44.95L24.99 5.04C23.63 2.96 21.16 1.56 18.3 1.56Z" fill="#CFD8DC" fill-opacity="1.000000" fill-rule="nonzero"/>
	<path id="path" d="M26.3 4.19C24.58 1.56 21.59 0 18.3 0C13.13 0 8.92 3.9 8.92 8.69C8.92 8.89 8.93 9.08 8.95 9.27C3.89 9.96 0 14.01 0 18.88C0 21.7 1.29 24.32 3.53 26.15C2.66 27.69 2.22 29.34 2.23 31.11C2.23 35.34 4.87 39.11 8.94 40.84C8.93 41 8.93 41.15 8.93 41.3C8.93 46.09 13.13 50 18.3 50C21.59 50 24.59 48.43 26.31 45.8C26.48 45.54 26.56 45.26 26.56 44.95L26.56 5.04C26.56 4.73 26.47 4.45 26.3 4.19ZM23.43 44.45C22.26 45.97 20.37 46.87 18.3 46.87C14.95 46.87 12.22 44.5 12.08 41.55C12.36 41.57 12.67 41.58 13 41.58C14.47 41.58 16.3 41.31 17.65 40.22C18.46 39.57 19.43 38.34 19.43 36.2C19.43 32.57 17.42 30.57 13.79 30.57C12.75 30.57 12.23 31.09 12.23 32.13C12.23 33.17 12.75 33.69 13.79 33.69C15.71 33.69 16.3 34.28 16.3 36.2C16.3 37.18 15.95 37.57 15.69 37.79C14.55 38.72 12 38.45 11.19 38.28C8.46 37.7 5.35 34.91 5.35 31.11C5.35 29.52 5.89 28 6.91 26.72C7.21 26.35 7.31 25.93 7.23 25.46C7.14 24.99 6.89 24.64 6.48 24.4C4.37 23.17 3.12 21.11 3.12 18.88C3.12 15.25 6.42 12.29 10.49 12.29C10.58 12.31 10.76 12.31 10.86 12.31C12.28 12.47 13.39 13.53 13.39 14.81C13.39 15.85 13.91 16.37 14.95 16.37C15.99 16.37 16.51 15.85 16.51 14.81C16.51 12.22 14.64 10.03 12.09 9.37C12.06 9.14 12.05 8.92 12.05 8.69C12.05 5.62 14.85 3.12 18.3 3.12C20.38 3.12 22.26 4.02 23.43 5.54L23.43 44.45Z" fill="#B0BEC5" fill-opacity="1.000000" fill-rule="nonzero"/>
	<path id="path" d="M42.7 26.56L24.47 26.56C23.43 26.56 22.91 26.04 22.91 25C22.91 23.95 23.43 23.43 24.47 23.43L42.7 23.43C43.75 23.43 44.27 23.95 44.27 25C44.27 26.04 43.75 26.56 42.7 26.56ZM29.16 18.75L24.47 18.75C23.43 18.75 22.91 18.22 22.91 17.18C22.91 16.14 23.43 15.62 24.47 15.62L28.55 15.62L35.39 9.27C35.69 8.99 36.05 8.85 36.45 8.85L42.7 8.85C43.75 8.85 44.27 9.37 44.27 10.41C44.27 11.45 43.75 11.97 42.7 11.97L37.07 11.97L30.22 18.33C29.92 18.61 29.57 18.75 29.16 18.75Z" fill="#607D8B" fill-opacity="1.000000" fill-rule="nonzero"/>
	<path id="path" d="M45.83 14.58C43.53 14.58 41.66 12.71 41.66 10.41C41.66 8.11 43.53 6.25 45.83 6.25C48.13 6.25 50 8.11 50 10.41C50 12.71 48.13 14.58 45.83 14.58Z" fill="#2196F3" fill-opacity="1.000000" fill-rule="nonzero"/>
	<path id="path" d="M42.7 41.14L36.45 41.14C36.04 41.14 35.69 41 35.39 40.73L28.55 34.37L24.47 34.37C23.43 34.37 22.91 33.85 22.91 32.81C22.91 31.77 23.43 31.25 24.47 31.25L29.16 31.25C29.56 31.25 29.94 31.4 30.22 31.66L37.07 38.02L42.7 38.02C43.75 38.02 44.27 38.54 44.27 39.58C44.27 40.62 43.75 41.14 42.7 41.14Z" fill="#607D8B" fill-opacity="1.000000" fill-rule="nonzero"/>
	<path id="path" d="M45.83 43.75C43.53 43.75 41.66 41.88 41.66 39.58C41.66 37.28 43.53 35.41 45.83 35.41C48.13 35.41 50 37.28 50 39.58C50 41.88 48.13 43.75 45.83 43.75ZM45.83 29.16C43.53 29.16 41.66 27.29 41.66 25C41.66 22.7 43.53 20.83 45.83 20.83C48.13 20.83 50 22.7 50 25C50 27.29 48.13 29.16 45.83 29.16Z" fill="#2196F3" fill-opacity="1.000000" fill-rule="nonzero"/>
</svg>
