<svg width="50.000000" height="50.000000" viewBox="0 0 50 50" fill="none" xmlns="http://www.w3.org/2000/svg" xmlns:xlink="http://www.w3.org/1999/xlink">
	<desc>
			Created with Pixso.
	</desc>
	<defs/>
	<path id="path" d="M50 12.17C50 15.27 48.82 17.96 46.46 20.23C44.1 22.45 40.66 24.06 36.14 25.05C38.58 25.67 40.42 26.69 41.68 28.12C42.94 29.51 43.57 31.12 43.57 32.94C43.57 35.83 42.59 38.34 40.62 40.46C38.69 42.58 35.86 44.22 32.13 45.39C28.4 46.52 23.89 47.09 18.63 47.09C16.66 47.09 15.09 47.03 13.91 46.92C13.87 47.95 13.4 48.72 12.5 49.23C11.59 49.74 10.43 50 9.02 50C7.6 50 6.62 49.7 6.07 49.12C5.56 48.53 5.34 47.67 5.42 46.54C5.77 41.42 6.46 36.07 7.48 30.48C8.51 24.85 9.8 19.42 11.37 14.19C11.65 13.28 12.2 12.64 13.03 12.28C13.85 11.91 14.93 11.73 16.27 11.73C18.67 11.73 19.87 12.35 19.87 13.59C19.87 14.1 19.75 14.69 19.51 15.35C18.49 18.2 17.47 22.07 16.45 26.97C15.42 31.83 14.7 36.47 14.26 40.89C16.15 41.04 17.68 41.11 18.86 41.11C24.37 41.11 28.4 40.38 30.95 38.92C33.54 37.42 34.84 35.52 34.84 33.22C34.84 31.61 34.09 30.26 32.6 29.16C31.15 28.07 28.69 27.46 25.23 27.35C24.44 27.32 23.89 27.13 23.58 26.8C23.27 26.48 23.11 25.95 23.11 25.21C23.11 24.15 23.34 23.3 23.82 22.64C24.29 21.98 25.15 21.63 26.41 21.6C29.2 21.52 31.72 21.14 33.96 20.44C36.24 19.75 38.03 18.78 39.32 17.54C40.62 16.26 41.27 14.78 41.27 13.1C41.27 10.98 40.15 9.32 37.91 8.11C35.67 6.87 32.23 6.25 27.59 6.25C23.38 6.25 19.32 6.76 15.38 7.78C11.45 8.77 8.11 10.03 5.36 11.56C4.1 12.26 3.04 12.6 2.18 12.6C1.47 12.6 0.92 12.39 0.53 11.95C0.17 11.47 0 10.89 0 10.19C0 9.28 0.19 8.49 0.58 7.83C1.02 7.18 2.02 6.43 3.59 5.59C6.89 3.83 10.77 2.46 15.21 1.48C19.65 0.49 24.19 0 28.83 0C35.94 0 41.25 1.11 44.75 3.34C48.25 5.57 50 8.51 50 12.17Z" fill="#D8D8D8" fill-opacity="1.000000" fill-rule="nonzero"/>
</svg>
