<svg width="50" height="50" viewBox="0 0 50 50" fill="none" xmlns="http://www.w3.org/2000/svg">
<path d="M32.7857 1.199C38.6615 3.14445 43.6147 7.19384 46.6965 12.5716H39.9554C38.3572 7.72191 35.8482 3.74016 32.7857 1.199ZM25.8929 0V12.5716H38.0982C35.6339 5.44023 31.1161 0.501074 25.8929 0ZM40.0982 25C40.1098 21.4049 39.6291 17.8253 38.6697 14.3611H25.8929V35.6389H38.6607C39.6276 32.1761 40.1114 28.5958 40.0982 25ZM47.625 14.3611H40.5C42.3452 21.3332 42.3452 28.6668 40.5 35.6389H47.625C49.189 32.3112 50 28.6783 50 25C50 21.3217 49.189 17.6888 47.625 14.3611ZM32.7768 48.801C38.6568 46.859 43.6138 42.809 46.6965 37.4284H39.9554C38.3572 42.287 35.8393 46.2688 32.7768 48.801ZM38.0982 37.4284H25.8929V50C31.1161 49.49 35.6339 44.5598 38.0982 37.4284ZM10.0446 37.4284H3.30355C6.38619 42.809 11.3432 46.859 17.2232 48.801C14.1607 46.2688 11.6428 42.287 10.0446 37.4284ZM24.1071 50V37.4284H11.9018C14.3661 44.5598 18.8839 49.49 24.1071 50ZM8.11605 25C8.10781 21.4081 8.57315 17.8309 9.49998 14.3611H2.37497C0.810988 17.6888 0 21.3217 0 25C0 28.6783 0.810988 32.3112 2.37497 35.6389H9.49998C8.57315 32.1691 8.10781 28.5919 8.11605 25ZM17.2143 1.199C11.3385 3.14445 6.38533 7.19384 3.30355 12.5716H10.0446C11.6428 7.72191 14.1518 3.74016 17.2143 1.199ZM11.9018 12.5716H24.1071V0C18.8839 0.501074 14.3661 5.44023 11.9018 12.5716ZM9.90177 25C9.88862 28.5958 10.3724 32.1761 11.3393 35.6389H24.1071V14.3611H11.3303C10.3709 17.8253 9.89022 21.4049 9.90177 25Z" fill="url(#paint0_linear_94_9)"/>
<defs>
<linearGradient id="paint0_linear_94_9" x1="-2.79416e-05" y1="25" x2="50" y2="25" gradientUnits="userSpaceOnUse">
<stop stop-color="#00C0FF"/>
<stop offset="1" stop-color="#5558FF"/>
</linearGradient>
</defs>
</svg>
