<svg xmlns="http://www.w3.org/2000/svg" version="1.1" xmlns:xlink="http://www.w3.org/1999/xlink" width="512" height="512" x="0" y="0" viewBox="0 0 50 50" style="enable-background:new 0 0 512 512" xml:space="preserve"><g><path fill="#B98E2E" d="m44.039 40.171-16.214 8.83-21.74-12.08 17.512-7.66z" opacity="1" data-original="#b98e2e"></path><path fill="#F6D341" d="m21.747 12.071 1.85 17.19-15.61 7.659-1.851-15.777z" opacity="1" data-original="#f6d341"></path><path fill="#FEE44B" d="m4.235 21.14 1.85 15.78L27.825 49l.43-13.99zm5.82 14.71c-.01.66-.48.93-1.06.6s-1.04-1.15-1.04-1.81l.03-8.51c0-.66.47-.93 1.05-.6s1.05 1.15 1.05 1.81zm4.71 2.72c0 .67-.47.94-1.05.6-.59-.34-1.06-1.15-1.06-1.82l.03-8.5c.01-.66.48-.93 1.07-.6.57.34 1.05 1.15 1.04 1.82zm4.7 2.72c0 .66-.46.94-1.04.6-.58-.33-1.05-1.15-1.05-1.81l.03-8.51c0-.66.48-.93 1.06-.6.58.34 1.04 1.15 1.04 1.81zm4.72 2.72c0 .66-.47.94-1.05.6-.58-.33-1.05-1.15-1.05-1.81l.03-8.51c0-.66.48-.93 1.06-.6.57.34 1.05 1.15 1.04 1.82z" opacity="1" data-original="#fee44b"></path><g fill="#D7B428"><path d="m18.16 40.018.031-8.505c0-.257.088-.434.21-.56-.549-.279-.992-.018-.994.621l-.031 8.504c-.002.664.47 1.481 1.047 1.815.361.208.673.18.86-.025-.025-.013-.05-.02-.076-.036-.577-.333-1.05-1.15-1.047-1.814zM8.74 34.58l.031-8.505c.001-.255.071-.45.19-.579-.544-.268-.972.004-.974.64l-.031 8.504c-.002.664.462 1.476 1.04 1.81.353.204.652.16.844-.04-.021-.01-.039-.008-.06-.02-.578-.334-1.042-1.147-1.04-1.81zM22.87 42.737l.03-8.504c.002-.258.09-.434.21-.561-.548-.279-.992-.018-.993.621l-.032 8.505c-.002.663.47 1.48 1.048 1.814.353.204.653.16.845-.04-.021-.01-.04-.008-.06-.02-.578-.334-1.05-1.15-1.048-1.814zM13.442 37.294l.031-8.504c0-.255.072-.45.191-.576-.544-.263-.973.006-.975.636l-.031 8.505c-.002.663.47 1.48 1.055 1.818.354.205.653.16.845-.04-.021-.01-.039-.008-.06-.02-.586-.338-1.058-1.155-1.056-1.819z" fill="#D7B428" opacity="1" data-original="#d7b428"></path></g><path fill="#DBC340" d="m21.741 10.972 24.02 13.868-17.502 10.171-24.02-13.868zm6.512 22.94 15.611-9.072-22.117-12.769-15.611 9.072z" opacity="1" data-original="#dbc340"></path><path fill="#FEE44B" d="m21.747 12.071 1.757 17.236 20.556 10.89 1.707-14.256zm5.82 14.71c-.01.66-.48.93-1.06.6s-1.04-1.15-1.04-1.81l.03-8.51c0-.66.47-.93 1.05-.6s1.05 1.15 1.05 1.81zm4.71 2.72c0 .67-.47.94-1.05.6-.59-.34-1.06-1.15-1.06-1.82l.03-8.5c.01-.66.48-.93 1.07-.6.57.34 1.05 1.15 1.04 1.82zm4.7 2.72c0 .66-.46.94-1.04.6-.58-.33-1.05-1.15-1.05-1.81l.03-8.51c0-.66.48-.93 1.06-.6.58.34 1.04 1.15 1.04 1.81zm4.72 2.72c0 .66-.47.94-1.05.6-.58-.33-1.05-1.15-1.05-1.81l.03-8.51c0-.66.48-.93 1.06-.6.57.34 1.05 1.15 1.04 1.82z" opacity="1" data-original="#fee44b"></path><g fill="#D7B428"><path d="m35.672 30.948.031-8.504c.001-.258.089-.434.21-.56-.548-.28-.992-.019-.994.62l-.031 8.505c-.002.664.47 1.481 1.048 1.815.36.208.672.18.86-.026-.026-.013-.05-.02-.076-.035-.578-.334-1.05-1.15-1.048-1.815zM26.253 25.51l.03-8.504c.001-.255.072-.451.19-.579-.543-.269-.972.004-.974.64l-.03 8.504c-.003.664.461 1.476 1.039 1.81.353.203.653.16.844-.04-.02-.011-.039-.009-.06-.02-.578-.335-1.041-1.147-1.04-1.811zM40.382 33.668l.031-8.505c.001-.258.089-.434.21-.56-.548-.279-.992-.018-.994.62l-.031 8.505c-.002.664.47 1.481 1.047 1.815.354.204.653.16.845-.04-.021-.01-.039-.009-.06-.02-.578-.334-1.05-1.151-1.048-1.815zM30.954 28.225l.032-8.505c0-.254.071-.449.19-.576-.544-.262-.973.006-.975.636l-.031 8.505c-.002.664.47 1.48 1.056 1.82.353.203.653.16.844-.04-.02-.011-.039-.01-.06-.021-.586-.338-1.058-1.156-1.056-1.82z" fill="#D7B428" opacity="1" data-original="#d7b428"></path></g><path fill="#F6D341" d="m45.76 24.84-1.7 15.358L27.824 49l.435-13.989z" opacity="1" data-original="#f6d341"></path><path fill="#BC2B3B" d="m21.753 9.882-.006 2.189-14.666 8.523.006-2.19z" opacity="1" data-original="#bc2b3b"></path><path fill="#DD454D" d="m42.919 22.102-.007 2.189-21.165-12.22.006-2.189zM28.265 32.822l-.006 2.19L3.288 20.593l.006-2.19z" opacity="1" data-original="#dd454d"></path><path fill="#BC2B3B" d="m46.712 22.102-.006 2.189L28.26 35.01l.006-2.189z" opacity="1" data-original="#bc2b3b"></path><path fill="#EF5A5A" d="m21.741 7.684 24.971 14.418-18.447 10.72L3.294 18.405zm6.512 22.94 14.666-8.522-21.166-12.22-14.666 8.523z" opacity="1" data-original="#ef5a5a"></path><path fill="#686868" d="m33.809 3.292-.99-.575.037 13.105.99.575zM17.361 11.598l-.99-.575.04 14.248.99.575z" opacity="1" data-original="#686868"></path><path fill="#686868" d="M34.8 1.575 33.812 1l-17.44 10.023.99.576z" opacity="1" data-original="#686868"></path><path fill="#3D3D3D" d="m17.361 11.598.04 14.248.996-.574-.037-13.105 15.449-8.874.037 13.104.995-.574-.04-14.248z" opacity="1" data-original="#3d3d3d"></path></g></svg>