<svg width="50.000000" height="50.000122" viewBox="0 0 50 50.0001" fill="none" xmlns="http://www.w3.org/2000/svg" xmlns:xlink="http://www.w3.org/1999/xlink">
	<desc>
			Created with Pixso.
	</desc>
	<defs/>
	<path id="path" d="M42.59 14.51L44.98 12.12C45.51 11.59 45.57 10.76 45.12 10.15C43.62 8.13 41.86 6.37 39.84 4.87C39.23 4.42 38.4 4.48 37.86 5.01L35.48 7.4C33.77 6.38 31.95 5.62 30.03 5.14L30.03 1.77C30.03 1.02 29.47 0.38 28.73 0.27C27.51 0.09 26.26 0 25 0C23.73 0 22.48 0.09 21.26 0.27C20.52 0.38 19.96 1.02 19.96 1.77L19.96 5.14C18.04 5.62 16.22 6.38 14.51 7.4L12.13 5.01C11.59 4.48 10.76 4.42 10.15 4.87C8.13 6.37 6.37 8.13 4.87 10.15C4.42 10.76 4.48 11.59 5.01 12.13L7.4 14.51C6.38 16.22 5.62 18.04 5.14 19.96L1.77 19.96C1.02 19.96 0.38 20.52 0.27 21.26C0.09 22.48 0 23.73 0 25C0 26.27 0.09 27.51 0.27 28.73C0.38 29.47 1.02 30.03 1.77 30.03L5.14 30.03C5.62 31.95 6.38 33.77 7.4 35.48L5.01 37.86C4.48 38.4 4.42 39.23 4.87 39.84C6.37 41.86 8.13 43.62 10.15 45.12C10.76 45.57 11.59 45.51 12.13 44.98L14.51 42.59L25 45.47L39.48 39.48L45.47 25L42.59 14.51ZM25 36.56C18.61 36.56 13.43 31.38 13.43 25C13.43 18.61 18.61 13.43 25 13.43C31.38 13.43 36.56 18.61 36.56 25C36.56 31.38 31.38 36.56 25 36.56Z" fill="#8B9BA9" fill-opacity="1.000000" fill-rule="nonzero"/>
	<path id="path" d="M49.72 21.26C49.61 20.52 48.97 19.96 48.22 19.96L44.85 19.96C44.37 18.04 43.61 16.22 42.59 14.51C41.34 15.76 40.93 17.62 41.51 19.3C42.13 21.11 42.45 23.03 42.45 25C42.45 29.66 40.64 34.05 37.34 37.34C34.05 40.64 29.66 42.45 25 42.45C23.03 42.45 21.11 42.13 19.3 41.51C17.62 40.93 15.76 41.34 14.51 42.59C16.22 43.61 18.04 44.37 19.96 44.85L19.96 48.22C19.96 48.97 20.52 49.61 21.26 49.72C22.48 49.9 23.73 50 25 50C26.26 50 27.51 49.9 28.73 49.72C29.47 49.61 30.03 48.97 30.03 48.22L30.03 44.85C31.95 44.37 33.77 43.61 35.48 42.59L37.86 44.98C38.4 45.51 39.23 45.57 39.84 45.12C41.86 43.62 43.62 41.86 45.12 39.84C45.57 39.23 45.51 38.4 44.98 37.86L42.59 35.48C43.61 33.77 44.37 31.95 44.85 30.03L48.22 30.03C48.97 30.03 49.61 29.47 49.72 28.73C49.9 27.51 50 26.27 50 25C50 23.73 49.9 22.48 49.72 21.26Z" fill="#6C7A88" fill-opacity="1.000000" fill-rule="nonzero"/>
	<path id="path" d="M25 10.56C17.01 10.56 10.56 17 10.56 25C10.56 32.98 17 39.43 25 39.43C32.98 39.43 39.43 32.99 39.43 25C39.43 17.01 32.99 10.56 25 10.56ZM25 33.4C20.34 33.4 16.59 29.65 16.59 25C16.59 20.34 20.34 16.59 25 16.59C29.65 16.59 33.4 20.34 33.4 25C33.4 29.65 29.65 33.4 25 33.4Z" fill="#6C7A88" fill-opacity="1.000000" fill-rule="nonzero"/>
	<path id="path" d="M35.21 14.78C34.09 15.9 33.88 17.65 34.72 19C35.83 20.79 36.42 22.85 36.42 25C36.42 28.04 35.23 30.91 33.07 33.07C30.91 35.23 28.04 36.42 24.99 36.42C22.85 36.42 20.79 35.83 19 34.72C17.65 33.88 15.9 34.09 14.78 35.21C17.39 37.82 21 39.43 25 39.43C32.98 39.43 39.43 32.99 39.43 25C39.43 21 37.82 17.39 35.21 14.78Z" fill="#596775" fill-opacity="1.000000" fill-rule="nonzero"/>
</svg>
