<svg width="50.000000" height="50.000000" viewBox="0 0 50 50" fill="none" xmlns="http://www.w3.org/2000/svg" xmlns:xlink="http://www.w3.org/1999/xlink">
	<desc>
			Created with Pixso.
	</desc>
	<defs/>
	<path id="path" d="M23.25 0.02C23.5 0.02 23.74 0.02 23.99 0.03C24.18 0.03 24.36 0.03 24.55 0.03C24.76 0.64 24.76 0.64 24.97 1.26C25.11 0.86 25.25 0.45 25.39 0.03C28.77 -0.22 31.99 0.8 35.11 2.25C35.18 2.82 35.25 3.39 35.32 3.97C35.44 3.84 35.56 3.72 35.69 3.59C36.16 3.23 36.16 3.23 36.53 3.27C37.21 3.57 37.79 4.01 38.4 4.46C38.53 4.56 38.65 4.66 38.79 4.76C40.03 5.71 41.18 6.76 42.29 7.91C42.45 8.07 42.61 8.23 42.78 8.4C43.13 8.89 43.13 8.89 43.17 9.42C43.09 9.9 43.01 10.38 42.92 10.86C43.05 10.74 43.18 10.61 43.31 10.48C43.46 10.36 43.61 10.24 43.77 10.12C44.63 10.46 44.91 11.13 45.39 11.99C45.48 12.15 45.58 12.31 45.67 12.48C46.84 14.59 48.12 17.03 48.63 19.48C48.44 20.16 48.13 20.6 47.78 21.2C48.41 21.08 48.41 21.08 49.05 20.95C49.15 21.37 49.25 21.79 49.35 22.21C49.41 22.45 49.46 22.68 49.52 22.92C49.94 24.86 49.95 26.74 49.96 28.72C49.96 29.04 49.97 29.37 49.98 29.7C49.98 30.01 49.98 30.32 49.98 30.65C49.99 31.07 49.99 31.07 49.99 31.5C49.85 32.62 49.38 33.17 48.66 33.89C48.53 34 48.4 34.11 48.26 34.22C48.11 34.35 47.96 34.47 47.8 34.6C47.64 34.73 47.48 34.86 47.32 35C47.15 35.14 46.99 35.27 46.82 35.41C46.29 35.85 45.77 36.28 45.25 36.7C44.91 36.98 44.57 37.26 44.23 37.54C43.76 37.93 43.29 38.32 42.81 38.71C42.67 38.82 42.53 38.93 42.39 39.05C42.27 39.15 42.15 39.25 42.02 39.35C41.9 39.45 41.78 39.55 41.66 39.66C41.51 39.75 41.36 39.85 41.2 39.95C40.61 40.63 40.64 41.4 40.6 42.32C40.58 42.6 40.58 42.6 40.56 42.89C40.52 43.49 40.49 44.09 40.45 44.69C40.42 45.29 40.38 45.89 40.34 46.49C40.32 46.86 40.3 47.23 40.28 47.6C40.23 48.44 40.14 49.18 39.97 50C30 50 20.03 50 9.76 50C9.13 41.38 9.13 41.38 9.13 40.15C8.95 40.05 8.95 40.05 8.76 39.95C7.93 39.44 7.17 38.8 6.4 38.18C6.13 37.97 6.13 37.97 5.86 37.75C4.58 36.72 3.33 35.65 2.11 34.52C1.52 33.98 1.52 33.98 0.83 33.47C0.26 33.01 0.26 33.01 0.05 32.52C-0.01 31.32 0 30.12 0 28.92C0 28.75 0 28.58 0 28.4C-0.01 25.85 0.11 23.43 0.68 20.95C1.1 20.95 1.52 20.95 1.95 20.95C1.79 20.69 1.79 20.69 1.62 20.43C1.24 19.54 1.33 19.21 1.53 18.25C1.75 17.63 1.98 17.04 2.24 16.45C2.31 16.28 2.39 16.11 2.46 15.94C3.36 13.91 4.45 12.02 5.54 10.12C6 10.25 6.39 10.37 6.81 10.62C6.73 10.29 6.73 10.29 6.65 9.95C6.6 9.14 6.6 9.14 6.91 8.56C8.71 6.56 10.84 4.41 13.14 3.23C13.79 3.32 14.06 3.54 14.62 3.97C14.62 3.48 14.62 3 14.62 2.5C15.9 1.74 17.19 1.27 18.57 0.85C18.74 0.8 18.92 0.74 19.09 0.69C20.5 0.27 21.8 0 23.25 0.02Z" fill="#41AFC4" fill-opacity="1.000000" fill-rule="nonzero"/>
	<path id="path" d="M23.28 2.74C23.39 3.14 23.39 3.14 23.5 3.55C23.59 3.91 23.69 4.26 23.78 4.62C23.83 4.79 23.88 4.97 23.92 5.15C23.97 5.32 24.02 5.5 24.06 5.67C24.11 5.84 24.16 6.02 24.2 6.19C24.32 6.63 24.45 7.06 24.58 7.48C24.76 8.16 24.76 8.16 24.76 9.14C24.9 9.14 25.04 9.14 25.18 9.14C25.2 8.91 25.23 8.67 25.25 8.43C25.39 7.24 25.72 6.12 26.04 4.97C26.1 4.76 26.16 4.54 26.22 4.32C26.37 3.79 26.51 3.27 26.66 2.74C27.61 2.42 28.42 2.58 29.37 2.8C29.59 2.85 29.59 2.85 29.82 2.91C30.86 3.15 31.81 3.48 32.79 3.97C32.71 5.86 32.34 7.55 31.88 9.35C31.84 9.53 31.79 9.72 31.74 9.91C31.7 10.07 31.66 10.24 31.61 10.41C31.49 10.91 31.49 10.91 31.52 11.6C31.68 11.41 31.84 11.21 32.01 11.02C33.11 9.72 34.21 8.45 35.4 7.27C35.75 6.93 35.75 6.93 36.05 6.5C36.38 6.19 36.38 6.19 36.75 6.19C37.45 6.55 38.01 7.08 38.61 7.63C38.73 7.74 38.85 7.85 38.98 7.97C39.31 8.27 39.64 8.58 39.97 8.89C40.1 9.02 40.24 9.14 40.38 9.27C40.6 9.63 40.6 9.63 40.54 10.17C40.36 10.98 40.1 11.72 39.81 12.49C39.76 12.64 39.7 12.79 39.64 12.95C39.47 13.43 39.29 13.91 39.11 14.39C38.99 14.71 38.87 15.04 38.74 15.36C38.45 16.16 38.15 16.96 37.85 17.75C39.21 16.75 40.57 15.74 41.91 14.69C42.05 14.58 42.19 14.47 42.33 14.36C42.67 14.1 43.01 13.83 43.35 13.57C44.06 14.33 44.51 15.12 44.97 16.11C45.1 16.38 45.22 16.64 45.35 16.92C45.69 17.81 45.86 18.5 45.88 19.48C45.59 20.04 45.59 20.04 45.15 20.54C44.53 21.29 43.94 22.04 43.38 22.86C42.35 24.39 41.26 25.87 40.18 27.35C41.67 26.84 43.14 26.29 44.58 25.6C45.48 25.17 46.17 24.89 47.15 24.89C47.72 26.89 47.71 29.49 47.36 31.54C46.81 32.7 45.82 33.21 44.82 33.75C44.52 33.98 44.21 34.22 43.91 34.46C43.19 34.97 42.43 35.33 41.66 35.72C41.2 36.04 40.76 36.37 40.32 36.71C39.97 36.95 39.97 36.95 39.54 36.95C39.51 36.63 39.51 36.63 39.48 36.29C39.21 33.73 38.65 31.61 37.64 29.32C37.64 29.16 37.64 29 37.64 28.83C37.5 28.83 37.36 28.83 37.22 28.83C37.22 28.59 37.22 28.34 37.22 28.09C37.08 28.09 36.94 28.09 36.8 28.09C36.8 27.85 36.8 27.6 36.8 27.35C36.61 27.26 36.61 27.26 36.43 27.17C35.88 26.81 35.56 26.39 35.13 25.85C32.51 22.74 28.65 21.22 24.96 21.14C22.51 21.17 20.19 21.92 18 23.17C17.83 23.27 17.65 23.36 17.47 23.46C15.49 24.7 13.85 26.75 12.51 28.83C12.3 28.95 12.3 28.95 12.09 29.08C11.93 29.56 11.8 30.06 11.67 30.55C11.6 30.74 11.53 30.92 11.47 31.11C10.77 33.11 10.57 35.07 10.4 37.2C9.19 36.71 8.15 36.13 7.07 35.32C6.93 35.21 6.78 35.11 6.63 35C3.14 32.38 3.14 32.38 2.37 31.04C2.32 30.48 2.32 30.48 2.32 29.82C2.32 29.58 2.32 29.35 2.33 29.1C2.33 28.86 2.33 28.61 2.33 28.35C2.33 28.11 2.33 27.86 2.33 27.61C2.34 25.61 2.34 25.61 2.58 24.65C3.07 24.82 3.56 24.99 4.05 25.16C4.49 25.31 4.93 25.46 5.37 25.61C6.9 26.13 8.33 26.78 9.76 27.6C9.59 27.37 9.42 27.14 9.25 26.91C8.53 25.93 7.83 24.95 7.14 23.95C6.74 23.37 6.33 22.8 5.9 22.24C5.67 21.92 5.43 21.6 5.2 21.28C5.08 21.13 4.97 20.98 4.85 20.83C4.09 19.77 4.09 19.77 4.02 18.98C4.1 17.9 4.41 17.04 4.88 16.11C4.99 15.89 5.1 15.67 5.21 15.44C5.32 15.23 5.43 15.02 5.54 14.8C5.66 14.57 5.78 14.34 5.9 14.1C5.99 13.93 6.08 13.75 6.17 13.57C7 13.91 7.62 14.36 8.31 14.97C9.46 15.97 10.66 16.87 11.88 17.75C11.69 17.17 11.51 16.58 11.32 16C11.27 15.82 11.21 15.65 11.15 15.46C10.87 14.57 10.57 13.69 10.24 12.82C10.15 12.59 10.15 12.59 10.06 12.36C9.89 11.93 9.72 11.51 9.55 11.08C9.34 10.37 9.34 10.37 9.35 9.85C10 8.36 11.66 6.96 12.93 6.19C13.87 6.22 14.39 7.08 14.99 7.82C15.22 8.09 15.44 8.36 15.67 8.62C15.78 8.75 15.89 8.89 16 9.02C17.11 10.34 17.11 10.34 18.42 11.36C18.38 11.16 18.33 10.96 18.28 10.76C18.08 9.86 17.87 8.97 17.67 8.08C17.6 7.77 17.53 7.46 17.45 7.14C17.35 6.69 17.35 6.69 17.25 6.24C17.18 5.96 17.12 5.69 17.06 5.4C16.95 4.71 16.95 4.71 17.16 3.97C18.92 2.99 21.34 2.17 23.28 2.74Z" fill="#4ED2D9" fill-opacity="1.000000" fill-rule="nonzero"/>
	<path id="path" d="M23.25 0.02C23.5 0.02 23.74 0.02 23.99 0.03C24.18 0.03 24.36 0.03 24.55 0.03C24.76 0.64 24.76 0.64 24.97 1.26C25.11 0.86 25.25 0.45 25.39 0.03C28.77 -0.22 31.99 0.8 35.11 2.25C35.18 2.82 35.25 3.39 35.32 3.97C35.44 3.84 35.56 3.72 35.69 3.59C36.16 3.23 36.16 3.23 36.53 3.27C37.21 3.57 37.79 4.01 38.4 4.46C38.53 4.56 38.65 4.66 38.79 4.76C40.03 5.71 41.18 6.76 42.29 7.91C42.45 8.07 42.61 8.23 42.78 8.4C43.13 8.89 43.13 8.89 43.17 9.42C43.09 9.9 43.01 10.38 42.92 10.86C43.05 10.74 43.18 10.61 43.31 10.48C43.46 10.36 43.61 10.24 43.77 10.12C44.63 10.46 44.91 11.13 45.39 11.99C45.48 12.15 45.58 12.31 45.67 12.48C46.84 14.59 48.12 17.03 48.63 19.48C48.44 20.16 48.13 20.6 47.78 21.2C48.41 21.08 48.41 21.08 49.05 20.95C49.15 21.37 49.25 21.79 49.35 22.21C49.41 22.45 49.46 22.68 49.52 22.92C49.94 24.86 49.95 26.74 49.96 28.72C49.96 29.04 49.97 29.37 49.98 29.7C49.98 30.01 49.98 30.32 49.98 30.65C49.99 31.07 49.99 31.07 49.99 31.5C49.85 32.62 49.38 33.17 48.66 33.89C48.53 34 48.4 34.11 48.26 34.22C48.11 34.35 47.96 34.47 47.8 34.6C47.64 34.73 47.48 34.86 47.32 35C47.15 35.14 46.99 35.27 46.82 35.41C46.29 35.85 45.77 36.28 45.25 36.7C44.91 36.98 44.57 37.26 44.23 37.54C43.76 37.93 43.29 38.32 42.81 38.71C42.67 38.82 42.53 38.93 42.39 39.05C42.27 39.15 42.15 39.25 42.02 39.35C41.9 39.45 41.78 39.55 41.66 39.66C41.51 39.75 41.36 39.85 41.2 39.95C40.61 40.63 40.64 41.4 40.6 42.32C40.58 42.6 40.58 42.6 40.56 42.89C40.52 43.49 40.49 44.09 40.45 44.69C40.42 45.29 40.38 45.89 40.34 46.49C40.32 46.86 40.3 47.23 40.28 47.6C40.23 48.44 40.14 49.18 39.97 50C30 50 20.03 50 9.76 50C9.13 41.38 9.13 41.38 9.13 40.15C8.95 40.05 8.95 40.05 8.76 39.95C7.93 39.44 7.17 38.8 6.4 38.18C6.13 37.97 6.13 37.97 5.86 37.75C4.58 36.72 3.33 35.65 2.11 34.52C1.52 33.98 1.52 33.98 0.83 33.47C0.26 33.01 0.26 33.01 0.05 32.52C-0.01 31.32 0 30.12 0 28.92C0 28.75 0 28.58 0 28.4C-0.01 25.85 0.11 23.43 0.68 20.95C1.1 20.95 1.52 20.95 1.95 20.95C1.79 20.69 1.79 20.69 1.62 20.43C1.24 19.54 1.33 19.21 1.53 18.25C1.75 17.63 1.98 17.04 2.24 16.45C2.31 16.28 2.39 16.11 2.46 15.94C3.36 13.91 4.45 12.02 5.54 10.12C6 10.25 6.39 10.37 6.81 10.62C6.73 10.29 6.73 10.29 6.65 9.95C6.6 9.14 6.6 9.14 6.91 8.56C8.71 6.56 10.84 4.41 13.14 3.23C13.79 3.32 14.06 3.54 14.62 3.97C14.62 3.48 14.62 3 14.62 2.5C15.9 1.74 17.19 1.27 18.57 0.85C18.74 0.8 18.92 0.74 19.09 0.69C20.5 0.27 21.8 0 23.25 0.02ZM17.16 3.97C16.89 4.9 17.04 5.34 17.25 6.29C17.35 6.75 17.35 6.75 17.45 7.22C17.53 7.55 17.6 7.88 17.67 8.2C17.74 8.53 17.82 8.86 17.89 9.19C18.06 9.99 18.24 10.8 18.42 11.6C18.31 11.47 18.2 11.34 18.08 11.2C17.94 11.03 17.79 10.85 17.63 10.67C17.49 10.5 17.34 10.33 17.19 10.15C16.63 9.52 16.05 8.93 15.46 8.34C14.9 7.76 14.41 7.13 13.91 6.48C13.58 6.14 13.58 6.14 13.17 6.21C12.14 6.72 11.28 7.6 10.4 8.4C10.27 8.52 10.14 8.63 10 8.75C9.67 9.07 9.67 9.07 9.34 9.63C9.42 10.67 9.67 11.52 10.04 12.47C10.13 12.71 10.23 12.96 10.32 13.21C10.42 13.47 10.52 13.72 10.62 13.99C10.82 14.49 11.02 15 11.21 15.51C11.34 15.85 11.34 15.85 11.47 16.19C11.67 16.77 11.67 16.77 11.67 17.51C11.02 17.04 10.37 16.57 9.72 16.09C9.54 15.96 9.36 15.83 9.17 15.69C8.27 15.03 7.43 14.35 6.6 13.57C6.46 13.57 6.32 13.57 6.17 13.57C5.9 14.12 5.63 14.67 5.36 15.22C5.28 15.37 5.2 15.52 5.12 15.68C4.23 17.46 4.23 17.46 4.06 19.48C4.29 19.97 4.29 19.97 4.63 20.4C4.75 20.57 4.87 20.74 5 20.91C5.13 21.09 5.26 21.26 5.4 21.45C5.6 21.72 5.6 21.72 5.8 22C6.2 22.56 6.61 23.11 7.02 23.66C7.36 24.13 7.7 24.59 8.04 25.06C8.23 25.33 8.43 25.6 8.63 25.87C9.04 26.43 9.41 26.98 9.76 27.6C9.59 27.5 9.59 27.5 9.41 27.39C8.01 26.6 6.58 26 5.1 25.43C4.81 25.31 4.81 25.31 4.5 25.2C3.56 24.8 3.56 24.8 2.58 24.65C2.28 25.86 2.32 27.07 2.31 28.32C2.3 28.57 2.29 28.81 2.29 29.06C2.28 30.44 2.28 30.44 2.67 31.73C3.49 32.54 4.36 33.23 5.26 33.91C5.46 34.06 5.65 34.21 5.86 34.36C6.81 35.09 7.77 35.81 8.74 36.5C8.9 36.62 9.07 36.74 9.24 36.87C9.55 37.09 9.86 37.31 10.17 37.53C11.19 38.27 11.19 38.27 11.44 39C11.45 39.32 11.45 39.32 11.45 39.66C11.47 39.96 11.49 40.27 11.51 40.58C11.53 41.1 11.55 41.62 11.56 42.13C11.63 43.81 11.86 45.34 12.09 47.04C20.59 47.04 29.09 47.04 37.85 47.04C38.38 42.43 38.38 42.43 38.12 40.04C38.17 39.11 38.3 38.63 38.9 37.99C40.05 37 41.29 36.18 42.54 35.38C43.37 34.83 44.15 34.22 44.94 33.6C45.07 33.5 45.19 33.41 45.32 33.31C45.65 33.05 45.98 32.79 46.3 32.52C46.5 32.4 46.7 32.27 46.91 32.15C47.67 31.11 47.48 29.88 47.44 28.57C47.43 28.3 47.43 28.03 47.43 27.75C47.42 26.3 47.42 26.3 47.15 24.89C45.16 25.1 43.3 26.04 41.44 26.86C41.02 27.03 40.6 27.19 40.18 27.35C40.28 27.22 40.38 27.1 40.48 26.96C41.44 25.71 42.37 24.44 43.28 23.13C43.62 22.65 43.96 22.17 44.3 21.69C44.47 21.45 44.65 21.21 44.82 20.97C45.06 20.65 45.06 20.65 45.3 20.32C45.65 19.75 45.83 19.43 45.88 18.74C45.48 16.83 44.49 15.18 43.56 13.57C41.7 14.93 39.88 16.33 38.07 17.75C38.22 16.88 38.5 16.12 38.81 15.31C38.92 15.03 39.02 14.75 39.13 14.46C39.35 13.86 39.58 13.27 39.8 12.68C39.91 12.4 40.01 12.12 40.12 11.83C40.27 11.45 40.27 11.45 40.41 11.05C40.61 10.34 40.64 10.06 40.39 9.39C39.81 8.66 39.15 8.04 38.49 7.42C38.35 7.28 38.21 7.15 38.06 7.01C37.4 6.37 37.4 6.37 36.59 6.22C36.05 6.49 35.77 6.83 35.37 7.32C34.8 8.02 34.23 8.67 33.6 9.29C32.87 10.03 32.19 10.8 31.52 11.6C31.79 9.81 32.18 8.06 32.62 6.31C32.78 5.5 32.82 4.8 32.79 3.97C29.78 2.72 29.78 2.72 26.66 2.74C26.41 3.62 26.17 4.5 25.92 5.39C25.85 5.64 25.78 5.89 25.71 6.14C25.64 6.39 25.57 6.63 25.51 6.88C25.44 7.1 25.38 7.32 25.32 7.55C25.15 8.21 25.15 8.21 25.18 9.14C25.04 9.14 24.9 9.14 24.76 9.14C24.74 8.9 24.71 8.65 24.69 8.4C24.56 7.37 24.31 6.4 24.03 5.4C23.97 5.14 23.97 5.14 23.89 4.88C23.67 4.05 23.43 3.26 23.07 2.5C21.09 2.5 18.95 2.97 17.16 3.97Z" fill="#EB9E46" fill-opacity="1.000000" fill-rule="nonzero"/>
	<path id="path" d="M23.28 2.74C23.39 3.14 23.39 3.14 23.5 3.55C23.59 3.91 23.69 4.26 23.78 4.62C23.83 4.79 23.88 4.97 23.92 5.15C23.97 5.32 24.02 5.5 24.07 5.67C24.11 5.84 24.16 6.02 24.2 6.19C24.32 6.63 24.45 7.06 24.58 7.48C24.76 8.16 24.76 8.16 24.76 9.14C24.9 9.14 25.04 9.14 25.18 9.14C25.2 8.91 25.23 8.67 25.25 8.43C25.39 7.24 25.72 6.12 26.04 4.97C26.1 4.76 26.16 4.54 26.22 4.32C26.37 3.79 26.51 3.27 26.66 2.74C27.61 2.42 28.42 2.58 29.37 2.8C29.59 2.85 29.59 2.85 29.82 2.91C30.86 3.15 31.81 3.48 32.79 3.97C32.71 5.86 32.34 7.55 31.88 9.35C31.84 9.53 31.79 9.72 31.74 9.91C31.7 10.07 31.66 10.24 31.61 10.41C31.49 10.91 31.49 10.91 31.52 11.6C31.68 11.41 31.84 11.21 32.01 11.02C33.11 9.72 34.21 8.45 35.4 7.27C35.75 6.93 35.75 6.93 36.05 6.5C36.38 6.19 36.38 6.19 36.75 6.19C37.45 6.55 38.01 7.08 38.61 7.63C38.73 7.74 38.85 7.85 38.98 7.97C39.31 8.27 39.64 8.58 39.97 8.89C40.1 9.02 40.24 9.14 40.38 9.27C40.6 9.63 40.6 9.63 40.54 10.17C40.26 11.46 39.76 12.67 39.31 13.89C39.13 14.37 38.96 14.86 38.78 15.34C38.67 15.65 38.56 15.96 38.44 16.27C38.34 16.55 38.24 16.83 38.13 17.11C37.85 17.75 37.85 17.75 37.43 18C37.34 17.85 37.26 17.7 37.17 17.55C36.56 16.68 35.74 16.29 34.9 15.79C34.74 15.68 34.58 15.58 34.42 15.48C31.79 13.82 28.98 13.1 26.03 12.83C25.85 12.81 25.67 12.8 25.49 12.78C22.39 12.63 18.4 13.48 15.73 15.33C15.04 15.79 15.04 15.79 14.41 15.79C14.41 15.95 14.41 16.11 14.41 16.28C14.25 16.34 14.1 16.4 13.94 16.46C13.31 16.79 12.96 17.17 12.51 17.75C12.51 17.59 12.51 17.43 12.51 17.26C12.37 17.26 12.23 17.26 12.09 17.26C12.09 17.02 12.09 16.77 12.09 16.52C11.88 16.44 11.67 16.36 11.45 16.28C11.01 15.35 10.69 14.35 10.35 13.37C10.2 12.96 10.2 12.96 10.04 12.54C9.95 12.28 9.86 12.02 9.76 11.75C9.68 11.51 9.59 11.27 9.5 11.02C9.33 10.33 9.32 10.04 9.55 9.39C10.52 8.18 11.67 6.96 12.93 6.19C13.87 6.22 14.39 7.08 14.99 7.82C15.22 8.09 15.44 8.36 15.67 8.62C15.78 8.75 15.89 8.89 16 9.02C17.11 10.34 17.11 10.34 18.42 11.36C18.38 11.16 18.33 10.96 18.28 10.76C18.08 9.86 17.87 8.97 17.67 8.08C17.56 7.61 17.56 7.61 17.45 7.14C17.38 6.84 17.32 6.54 17.25 6.24C17.15 5.82 17.15 5.82 17.06 5.4C16.95 4.71 16.95 4.71 17.16 3.97C18.93 2.99 21.34 2.17 23.28 2.74Z" fill="#59E7E1" fill-opacity="1.000000" fill-rule="nonzero"/>
	<path id="path" d="M23.25 0.02C23.5 0.02 23.74 0.02 23.99 0.03C24.18 0.03 24.36 0.03 24.55 0.03C24.76 0.64 24.76 0.64 24.97 1.26C25.11 0.86 25.25 0.45 25.39 0.03C28.77 -0.22 31.99 0.8 35.11 2.25C35.18 2.82 35.25 3.39 35.32 3.97C35.44 3.84 35.56 3.72 35.69 3.59C36.16 3.23 36.16 3.23 36.53 3.27C37.21 3.57 37.79 4.01 38.4 4.46C38.53 4.56 38.65 4.66 38.79 4.76C40.03 5.71 41.18 6.76 42.29 7.91C42.45 8.07 42.61 8.23 42.78 8.4C43.13 8.89 43.13 8.89 43.17 9.42C43.09 9.9 43.01 10.38 42.92 10.86C43.05 10.74 43.18 10.61 43.31 10.48C43.46 10.36 43.61 10.24 43.77 10.12C44.63 10.46 44.91 11.13 45.39 11.99C45.48 12.15 45.58 12.31 45.67 12.48C46.84 14.59 48.12 17.03 48.63 19.48C48.44 20.16 48.13 20.6 47.78 21.2C48.41 21.08 48.41 21.08 49.05 20.95C49.15 21.37 49.25 21.79 49.35 22.21C49.41 22.45 49.46 22.68 49.52 22.92C49.94 24.86 49.95 26.74 49.96 28.72C49.96 29.04 49.97 29.37 49.98 29.7C49.98 30.01 49.98 30.32 49.98 30.65C49.99 31.07 49.99 31.07 49.99 31.5C49.85 32.62 49.38 33.17 48.66 33.89C48.53 34 48.4 34.11 48.26 34.22C48.11 34.35 47.96 34.47 47.8 34.6C47.64 34.73 47.48 34.86 47.32 35C47.15 35.14 46.99 35.27 46.82 35.41C46.29 35.85 45.77 36.28 45.25 36.7C44.91 36.98 44.57 37.26 44.23 37.54C43.76 37.93 43.29 38.32 42.81 38.71C42.67 38.82 42.53 38.93 42.39 39.05C42.27 39.15 42.15 39.25 42.02 39.35C41.9 39.45 41.78 39.55 41.66 39.66C41.51 39.75 41.36 39.85 41.2 39.95C40.61 40.63 40.64 41.4 40.6 42.32C40.58 42.6 40.58 42.6 40.56 42.89C40.52 43.49 40.49 44.09 40.45 44.69C40.42 45.29 40.38 45.89 40.34 46.49C40.32 46.86 40.3 47.23 40.28 47.6C40.23 48.44 40.14 49.18 39.97 50C30 50 20.03 50 9.76 50C9.13 41.38 9.13 41.38 9.13 40.15C8.95 40.05 8.95 40.05 8.76 39.95C7.93 39.44 7.17 38.8 6.4 38.18C6.13 37.97 6.13 37.97 5.86 37.75C4.58 36.72 3.33 35.65 2.11 34.52C1.52 33.98 1.52 33.98 0.83 33.47C0.26 33.01 0.26 33.01 0.05 32.52C-0.01 31.32 0 30.12 0 28.92C0 28.75 0 28.58 0 28.4C-0.01 25.85 0.11 23.43 0.68 20.95C1.1 20.95 1.52 20.95 1.95 20.95C1.79 20.69 1.79 20.69 1.62 20.43C1.24 19.54 1.33 19.21 1.53 18.25C1.75 17.63 1.98 17.04 2.24 16.45C2.31 16.28 2.39 16.11 2.46 15.94C3.36 13.91 4.45 12.02 5.54 10.12C6 10.25 6.39 10.37 6.81 10.62C6.73 10.29 6.73 10.29 6.65 9.95C6.6 9.14 6.6 9.14 6.91 8.56C8.71 6.56 10.84 4.41 13.14 3.23C13.79 3.32 14.06 3.54 14.62 3.97C14.62 3.48 14.62 3 14.62 2.5C15.9 1.74 17.19 1.27 18.57 0.85C18.74 0.8 18.92 0.74 19.09 0.69C20.5 0.27 21.8 0 23.25 0.02ZM20.14 1.45C19.95 1.49 19.77 1.54 19.58 1.58C17.47 2.02 17.47 2.02 15.68 3.23C15.63 3.56 15.59 3.9 15.56 4.23C15.53 4.55 15.5 4.87 15.47 5.2C14.98 5.25 14.98 5.25 14.41 5.2C14.31 5.08 14.2 4.95 14.09 4.82C13.99 4.7 13.88 4.58 13.78 4.46C11.72 4.7 9.8 6.89 8.29 8.4C8.16 8.51 8.04 8.63 7.91 8.74C7.52 9.35 7.64 9.81 7.72 10.54C7.74 10.78 7.77 11.03 7.8 11.28C7.82 11.47 7.84 11.65 7.86 11.85C7.38 11.85 6.89 11.85 6.39 11.85C6.39 11.68 6.39 11.52 6.39 11.36C4.87 11.94 3.97 14.91 3.24 16.51C3.16 16.69 3.08 16.87 2.99 17.06C2.91 17.23 2.84 17.4 2.76 17.58C2.69 17.73 2.62 17.88 2.55 18.04C2.36 18.53 2.22 18.95 2.16 19.48C2.44 19.89 2.72 20.3 3.01 20.71C3.16 21.52 3.16 21.52 3.22 22.18C2.66 22.18 2.1 22.18 1.53 22.18C0.86 24.32 0.82 26.45 0.78 28.71C0.76 29 0.75 29.3 0.74 29.6C0.69 31.17 0.69 31.17 1.22 32.57C1.65 33.02 2.09 33.39 2.58 33.75C2.86 33.99 3.13 34.22 3.41 34.46C3.69 34.69 3.98 34.92 4.26 35.15C4.41 35.28 4.56 35.4 4.72 35.53C5.53 36.2 6.34 36.83 7.19 37.41C9.57 39.1 9.57 39.1 10.07 40.53C10.17 41.47 10.17 41.47 10.19 43.6C10.33 45.38 10.47 47.17 10.61 49.01C20.02 49.01 29.43 49.01 39.12 49.01C39.45 48.24 39.42 47.4 39.46 46.55C39.49 46.15 39.51 45.75 39.54 45.35C39.57 44.72 39.61 44.09 39.64 43.45C39.68 42.84 39.71 42.24 39.75 41.63C39.76 41.44 39.77 41.25 39.78 41.05C39.82 40.52 39.82 40.52 39.97 39.66C40.35 39.33 40.35 39.33 40.81 39.17C41.08 38.97 41.34 38.77 41.6 38.56C41.81 38.39 41.81 38.39 42.03 38.21C42.18 38.09 42.33 37.97 42.49 37.84C42.71 37.67 42.71 37.67 42.94 37.48C43.73 36.84 44.49 36.18 45.25 35.47C45.39 35.39 45.52 35.31 45.67 35.23C45.67 35.07 45.67 34.9 45.67 34.74C45.82 34.67 45.97 34.61 46.13 34.55C46.78 34.21 47.27 33.81 47.83 33.29C48.02 33.12 48.2 32.96 48.39 32.78C49.07 32.01 49.07 31.26 49.08 30.18C49.09 29.74 49.09 29.3 49.09 28.86C49.09 28.63 49.09 28.4 49.09 28.16C49.11 25.09 49.11 25.09 48.41 22.18C47.93 22.18 47.44 22.18 46.94 22.18C46.78 21.66 46.78 21.66 46.72 20.95C47.01 20.46 47.29 19.97 47.57 19.48C47.45 18.16 46.89 17.1 46.37 15.95C46.28 15.75 46.19 15.55 46.1 15.35C45.22 13.32 45.22 13.32 43.98 11.6C43.3 11.52 42.73 11.63 42.08 11.85C42.14 11.62 42.14 11.62 42.21 11.4C42.35 10.66 42.39 10.14 42.29 9.39C41.63 8.39 40.83 7.67 39.97 6.93C39.67 6.67 39.67 6.67 39.38 6.41C37.98 5.08 37.98 5.08 36.38 4.49C35.92 4.71 35.92 4.71 35.41 5.09C34.9 5.45 34.9 5.45 34.26 5.45C34.26 4.64 34.26 3.82 34.26 2.99C31.72 1.91 28.98 0.82 26.24 1.02C25.77 1.57 25.62 2.02 25.39 2.74C25.04 2.66 24.7 2.58 24.34 2.5C24.13 1.76 24.13 1.76 23.91 1.02C22.61 0.97 21.42 1.14 20.14 1.45Z" fill="#EC8E14" fill-opacity="1.000000" fill-rule="nonzero"/>
	<path id="path" d="M27.57 36.75C29.56 38.05 29.56 38.05 30.04 39.17C30.1 39.3 30.16 39.44 30.22 39.58C31 41.45 31.34 42.83 31.32 44.89C31.32 45.07 31.32 45.25 31.32 45.44C31.31 45.89 31.31 46.35 31.31 46.8C31.62 46.92 31.62 46.92 31.94 47.04C25.39 47.04 18.84 47.04 12.09 47.04C12.02 46.23 11.95 45.42 11.88 44.58C12.3 45.07 12.3 45.07 12.3 46.8C14.6 46.8 16.9 46.8 19.27 46.8C19.26 46.15 19.24 45.51 19.23 44.84C19.21 43.21 19.33 41.91 19.9 40.4C20.04 40.4 20.18 40.4 20.32 40.4C20.38 40.15 20.38 40.15 20.44 39.89C21.08 38.37 22.26 37.31 23.49 36.46C24.88 35.92 26.25 36.01 27.57 36.75Z" fill="#338CB1" fill-opacity="1.000000" fill-rule="nonzero"/>
	<path id="path" d="M6.17 13.57C7 13.91 7.62 14.36 8.31 14.97C9.46 15.97 10.66 16.87 11.88 17.75C11.6 18.5 11.3 18.95 10.78 19.49C9.51 20.93 8.6 22.77 7.86 24.65C6.98 23.64 6.16 22.59 5.36 21.49C5.16 21.24 5.16 21.24 4.97 20.99C4.09 19.78 4.09 19.78 4.01 18.96C4.09 17.9 4.42 17.02 4.88 16.11C4.99 15.89 5.1 15.67 5.21 15.44C5.37 15.13 5.37 15.13 5.54 14.8C5.66 14.57 5.78 14.34 5.9 14.1C5.99 13.93 6.08 13.75 6.17 13.57Z" fill="#46C9C2" fill-opacity="1.000000" fill-rule="nonzero"/>
	<path id="path" d="M43.35 13.57C44.05 14.36 44.5 15.11 44.97 16.11C45.1 16.38 45.22 16.64 45.35 16.92C45.69 17.81 45.86 18.5 45.88 19.48C45.59 20.04 45.59 20.04 45.15 20.54C44.47 21.35 43.84 22.17 43.24 23.06C43.1 23.27 42.96 23.48 42.81 23.69C42.66 23.92 42.66 23.92 42.5 24.15C41.84 23.45 41.34 22.77 40.86 21.89C40.23 20.73 39.46 19.77 38.65 18.78C38.28 18.25 38.28 18.25 38.28 17.51C38.74 17.06 38.74 17.06 39.39 16.57C39.61 16.4 39.84 16.22 40.08 16.04C40.32 15.86 40.57 15.68 40.81 15.49C41.06 15.31 41.3 15.12 41.54 14.93C42.14 14.48 42.74 14.02 43.35 13.57Z" fill="#45C9C3" fill-opacity="1.000000" fill-rule="nonzero"/>
	<path id="path" d="M2.58 20.22C3.22 20.71 3.22 20.71 3.4 21.18C3.43 21.69 3.43 21.69 3.2 22.12C2.64 22.55 2.19 22.45 1.53 22.43C1.18 24.54 0.99 26.62 0.95 28.77C0.93 29.05 0.92 29.34 0.9 29.64C0.87 31.25 0.87 31.25 1.52 32.62C2.07 33.13 2.62 33.57 3.22 34C3.53 34.26 3.84 34.53 4.15 34.8C4.46 35.06 4.76 35.31 5.07 35.57C5.23 35.7 5.39 35.84 5.56 35.98C6.32 36.64 7.09 37.26 7.91 37.81C9.83 39.15 9.83 39.15 10.24 40.58C10.39 41.59 10.39 42.58 10.4 43.6C10.44 44.12 10.48 44.64 10.53 45.17C10.63 46.46 10.61 47.69 10.61 49.01C20.02 49.01 29.43 49.01 39.12 49.01C39.19 48.85 39.26 48.69 39.33 48.52C39.33 48.76 39.33 49.01 39.33 49.26C29.19 49.38 29.19 49.38 18.85 49.5C18.85 49.58 18.85 49.67 18.85 49.75C15.85 49.75 12.85 49.75 9.76 49.75C9.66 48.39 9.56 47.04 9.45 45.64C9.41 45.22 9.38 44.79 9.35 44.35C9.32 44.01 9.3 43.67 9.27 43.33C9.26 43.16 9.24 42.98 9.23 42.8C9.16 41.92 9.12 41.04 9.13 40.15C9.01 40.08 8.89 40.02 8.76 39.95C7.91 39.43 7.14 38.77 6.35 38.14C6.17 38 6 37.86 5.83 37.72C2.49 35.06 2.49 35.06 1.32 33.01C1.11 32.85 0.9 32.69 0.68 32.52C0.35 30.98 0.43 29.36 0.43 27.78C0.43 27.26 0.43 26.75 0.42 26.23C0.42 24.56 0.45 23.04 0.89 21.45C1.59 21.61 2.29 21.77 3.01 21.94C2.87 21.37 2.73 20.8 2.58 20.22Z" fill="#F8B617" fill-opacity="1.000000" fill-rule="nonzero"/>
	<path id="path" d="M45.25 36.7C45.14 36.79 45.04 36.88 44.93 36.96C44.45 37.35 43.98 37.75 43.5 38.14C43.34 38.27 43.18 38.4 43.01 38.54C42.85 38.67 42.69 38.81 42.52 38.94C42.3 39.12 42.3 39.12 42.08 39.3C41.94 39.42 41.8 39.54 41.66 39.66C41.5 39.76 41.35 39.85 41.19 39.95C40.61 40.63 40.64 41.4 40.6 42.32C40.58 42.6 40.58 42.6 40.56 42.89C40.52 43.49 40.49 44.09 40.45 44.69C40.42 45.29 40.38 45.89 40.34 46.49C40.32 46.86 40.3 47.23 40.28 47.6C40.23 48.44 40.14 49.18 39.97 50C30 50 20.03 50 9.76 50C9.76 49.91 9.76 49.83 9.76 49.75C10.81 49.63 10.81 49.63 11.88 49.5C11.88 49.42 11.88 49.34 11.88 49.26C20.94 49.26 30 49.26 39.33 49.26C39.33 48.04 39.33 46.82 39.33 45.56C39.37 44.61 39.41 43.66 39.48 42.7C39.49 42.47 39.5 42.24 39.51 42C39.59 40.92 39.64 40.32 40.23 39.44C40.42 39.27 40.61 39.1 40.81 38.92C41 38.74 41.18 38.57 41.38 38.39C41.67 38.14 41.67 38.14 41.96 37.89C42.15 37.72 42.34 37.56 42.54 37.39C43.47 36.7 44.17 36.33 45.25 36.7Z" fill="#FEB61C" fill-opacity="1.000000" fill-rule="nonzero"/>
	<path id="path" d="M15.04 2.5C15.25 2.58 15.46 2.66 15.68 2.74C15.61 3.63 15.54 4.53 15.47 5.45C15.12 5.45 14.77 5.45 14.41 5.45C14.31 5.32 14.2 5.19 14.09 5.06C13.99 4.95 13.88 4.83 13.78 4.71C11.61 4.95 9.35 7.41 7.86 9.14C7.87 9.79 7.87 9.79 7.96 10.51C8 10.95 8.04 11.4 8.07 11.85C8.01 11.93 7.94 12.01 7.86 12.09C7.37 12.02 6.88 11.94 6.39 11.85C6.39 11.68 6.39 11.52 6.39 11.36C5.44 12.35 4.86 13.42 4.26 14.72C4.17 14.92 4.08 15.12 3.98 15.32C2.99 17.31 2.99 17.31 2.37 19.48C2.6 20.31 2.6 20.31 3.01 20.95C3.01 21.28 3.01 21.6 3.01 21.94C2.27 21.83 1.6 21.72 0.89 21.45C0.65 23.21 0.65 24.96 0.66 26.74C0.66 27.26 0.66 27.78 0.65 28.3C0.65 28.63 0.65 28.97 0.65 29.3C0.66 29.6 0.66 29.9 0.66 30.21C0.68 31.01 0.73 31.74 0.89 32.52C1.4 33.05 1.4 33.05 1.95 33.51C2.23 34.06 2.23 34.06 2.37 34.49C0.45 33.46 0.45 33.46 0.05 32.52C-0.01 31.32 0 30.12 0 28.92C0 28.75 0 28.58 0 28.4C-0.01 25.85 0.11 23.43 0.68 20.95C1.1 20.95 1.52 20.95 1.95 20.95C1.79 20.69 1.79 20.69 1.62 20.43C1.24 19.54 1.33 19.21 1.53 18.25C1.75 17.63 1.98 17.04 2.24 16.45C2.31 16.28 2.39 16.11 2.46 15.94C3.36 13.91 4.45 12.02 5.54 10.12C6 10.25 6.39 10.37 6.81 10.62C6.76 10.4 6.7 10.18 6.65 9.95C6.6 9.14 6.6 9.14 6.91 8.56C8.71 6.56 10.84 4.42 13.14 3.23C13.59 3.26 13.59 3.26 13.99 3.48C14.25 3.99 14.25 3.99 14.41 4.46C14.55 4.46 14.69 4.46 14.83 4.46C14.9 3.81 14.97 3.16 15.04 2.5Z" fill="#F1A614" fill-opacity="1.000000" fill-rule="nonzero"/>
	<path id="path" d="M2.58 24.65C4.21 25.21 5.82 25.79 7.44 26.37C7.34 26.55 7.24 26.74 7.14 26.93C6.12 28.99 6.27 31.69 6.17 34C7.15 34.73 8.13 35.46 9.13 36.21C9.06 36.38 8.99 36.54 8.92 36.7C8.22 36.17 7.52 35.63 6.82 35.09C6.63 34.94 6.43 34.79 6.23 34.64C2.77 31.96 2.77 31.96 2.37 31.04C2.35 30.65 2.34 30.25 2.34 29.85C2.34 29.61 2.34 29.37 2.34 29.12C2.34 28.75 2.34 28.75 2.35 28.37C2.35 28.12 2.34 27.87 2.34 27.62C2.34 27.38 2.34 27.14 2.34 26.89C2.34 26.67 2.34 26.46 2.35 26.23C2.37 25.67 2.45 25.18 2.58 24.65Z" fill="#2DA199" fill-opacity="1.000000" fill-rule="nonzero"/>
	<path id="path" d="M47.15 24.89C47.72 26.88 47.72 29.49 47.36 31.54C46.8 32.69 45.84 33.23 44.82 33.75C44.57 33.9 44.57 33.9 44.32 34.05C44.15 34.14 44.15 34.14 43.98 34.24C43.97 33.98 43.96 33.71 43.95 33.44C43.88 31.39 43.72 29.48 43.27 27.49C43.13 26.86 43.13 26.86 43.13 26.12C43.64 25.92 44.15 25.71 44.67 25.51C44.88 25.42 44.88 25.42 45.1 25.33C45.83 25.04 46.37 24.89 47.15 24.89Z" fill="#2BA09A" fill-opacity="1.000000" fill-rule="nonzero"/>
	<path id="path" d="M49.26 22.43C49.33 22.43 49.4 22.43 49.47 22.43C49.88 24.56 49.97 26.62 49.97 28.8C49.98 29.12 49.98 29.43 49.99 29.76C49.99 30.22 49.99 30.22 49.99 30.69C49.99 30.96 49.99 31.24 50 31.52C49.82 32.8 49.11 33.51 48.25 34.25C47.94 34.51 47.63 34.77 47.32 35.03C47.17 35.16 47.02 35.29 46.86 35.43C45.79 36.31 44.85 36.74 43.56 36.95C43.85 36.58 43.85 36.58 44.19 36.21C44.33 36.21 44.47 36.21 44.61 36.21C44.68 35.97 44.75 35.73 44.82 35.47C45.26 35.31 45.26 35.31 45.67 35.23C45.67 35.07 45.67 34.9 45.67 34.74C46.29 34.2 46.91 33.7 47.56 33.21C47.69 33.11 47.82 33 47.96 32.89C48.08 32.8 48.2 32.7 48.33 32.6C49.01 31.84 48.87 30.67 48.9 29.63C48.9 29.31 48.91 28.98 48.92 28.65C48.93 28.31 48.93 27.97 48.94 27.63C48.96 26.96 48.97 26.3 48.99 25.63C48.99 25.34 49 25.04 49.01 24.74C49.05 23.95 49.13 23.2 49.26 22.43Z" fill="#EF9413" fill-opacity="1.000000" fill-rule="nonzero"/>
	<path id="path" d="M9.98 40.89C10.05 40.89 10.12 40.89 10.19 40.89C10.26 41.78 10.33 42.67 10.4 43.57C10.43 43.94 10.43 43.94 10.46 44.32C10.48 44.57 10.5 44.82 10.52 45.07C10.53 45.3 10.55 45.52 10.57 45.75C10.62 46.84 10.61 47.92 10.61 49.01C20.02 49.01 29.43 49.01 39.12 49.01C39.19 48.85 39.26 48.69 39.33 48.52C39.33 48.76 39.33 49.01 39.33 49.26C29.78 49.34 20.24 49.42 10.4 49.5C10.04 48.24 9.92 47.59 9.93 46.32C9.94 46 9.94 45.69 9.94 45.36C9.94 45.03 9.95 44.7 9.95 44.37C9.95 44.03 9.95 43.69 9.96 43.35C9.96 42.53 9.97 41.71 9.98 40.89Z" fill="#FDCA3B" fill-opacity="1.000000" fill-rule="nonzero"/>
	<path id="path" d="M41.02 39.17C41.16 39.17 41.3 39.17 41.44 39.17C41.44 39.41 41.44 39.65 41.44 39.9C41.24 40.07 41.03 40.23 40.81 40.4C40.71 41.04 40.65 41.64 40.62 42.29C40.61 42.48 40.59 42.67 40.58 42.86C40.54 43.47 40.5 44.07 40.47 44.67C40.43 45.27 40.39 45.87 40.35 46.48C40.33 46.85 40.3 47.22 40.28 47.6C40.23 48.43 40.14 49.18 39.97 50C30 50 20.03 50 9.76 50C9.76 49.91 9.76 49.83 9.76 49.75C19.66 49.75 29.56 49.75 39.75 49.75C39.75 48.86 39.75 47.96 39.75 47.04C39.82 45.85 39.92 44.67 40.03 43.49C40.06 43.18 40.08 42.87 40.11 42.55C40.13 42.26 40.16 41.96 40.19 41.66C40.21 41.39 40.23 41.13 40.26 40.85C40.4 40.1 40.57 39.71 41.02 39.17Z" fill="#E9A60D" fill-opacity="1.000000" fill-rule="nonzero"/>
	<path id="path" d="M45.25 36.7C44.06 37.68 42.88 38.65 41.66 39.66C41.59 39.5 41.52 39.33 41.44 39.17C40.89 39.71 40.63 40.03 40.45 40.86C40.43 41.12 40.41 41.39 40.39 41.67C40.37 41.96 40.35 42.26 40.32 42.57C40.3 42.88 40.28 43.19 40.26 43.5C40.1 45.54 39.92 47.51 39.54 49.5C38.92 49.5 38.29 49.5 37.64 49.5C37.64 49.42 37.64 49.34 37.64 49.26C38.2 49.26 38.76 49.26 39.33 49.26C39.33 49.05 39.32 48.85 39.32 48.64C39.29 46.65 39.35 44.68 39.48 42.7C39.49 42.47 39.5 42.24 39.51 42C39.59 40.91 39.65 40.32 40.23 39.44C40.42 39.27 40.61 39.1 40.81 38.92C41 38.74 41.18 38.57 41.38 38.39C41.57 38.22 41.76 38.06 41.96 37.89C42.25 37.64 42.25 37.64 42.54 37.39C43.52 36.67 44.11 36.37 45.25 36.7Z" fill="#F5A521" fill-opacity="1.000000" fill-rule="nonzero"/>
	<path id="path" d="M2.58 20.22C3.22 20.71 3.22 20.71 3.4 21.18C3.43 21.69 3.43 21.69 3.2 22.12C2.64 22.55 2.19 22.45 1.53 22.43C1.18 24.54 0.99 26.62 0.95 28.77C0.93 29.05 0.92 29.34 0.9 29.64C0.87 31.27 0.87 31.27 1.56 32.64C2.09 33.15 2.63 33.58 3.22 34C3.51 34.24 3.8 34.49 4.09 34.74C4.29 34.9 4.49 35.06 4.7 35.23C4.38 35.35 4.38 35.35 4.06 35.47C3.77 35.24 3.49 34.99 3.22 34.74C2.96 34.63 2.96 34.63 2.69 34.52C2.02 34.17 1.75 33.69 1.32 33.01C1.11 32.85 0.9 32.69 0.68 32.52C0.35 30.98 0.43 29.36 0.43 27.78C0.43 27.26 0.43 26.75 0.42 26.23C0.42 24.56 0.45 23.04 0.89 21.45C1.59 21.61 2.29 21.77 3.01 21.94C2.87 21.37 2.73 20.8 2.58 20.22Z" fill="#FEC934" fill-opacity="1.000000" fill-rule="nonzero"/>
	<path id="path" d="M46.09 15.29C46.23 15.29 46.37 15.29 46.51 15.29C48.22 18.74 48.22 18.74 47.88 20.78C47.85 20.92 47.81 21.06 47.78 21.2C48.2 21.12 48.62 21.04 49.05 20.95C49.66 22.39 49.22 24.59 49.05 26.12C48.98 26.12 48.91 26.12 48.84 26.12C48.7 24.82 48.56 23.52 48.41 22.18C47.93 22.27 47.44 22.35 46.94 22.43C46.8 22.27 46.66 22.11 46.51 21.94C46.57 21.18 46.71 20.74 47.07 20.09C47.43 19.32 47.35 19.08 47.15 18.25C46.98 17.81 46.8 17.39 46.61 16.97C46.09 15.84 46.09 15.84 46.09 15.29Z" fill="#ED861D" fill-opacity="1.000000" fill-rule="nonzero"/>
	<path id="path" d="M2.37 34.49C5.1 35.01 7.84 37.42 9.76 39.66C7.93 39.13 6.57 38.42 5.05 37.09C4.8 36.88 4.8 36.88 4.55 36.66C3.77 35.99 3.03 35.33 2.37 34.49Z" fill="#FBC42C" fill-opacity="1.000000" fill-rule="nonzero"/>
	<path id="path" d="M2.58 20.22C3.22 20.71 3.22 20.71 3.4 21.18C3.43 21.69 3.43 21.69 3.2 22.12C2.64 22.55 2.19 22.48 1.53 22.43C0.99 23.53 0.81 24.35 0.79 25.61C0.78 25.93 0.77 26.25 0.76 26.57C0.76 26.91 0.75 27.24 0.75 27.57C0.74 27.91 0.73 28.24 0.73 28.58C0.71 29.4 0.7 30.22 0.68 31.04C0.61 31.04 0.54 31.04 0.47 31.04C0.46 29.99 0.45 28.94 0.45 27.89C0.45 27.54 0.44 27.18 0.44 26.82C0.4 23.18 0.4 23.18 0.89 21.45C1.59 21.61 2.29 21.77 3.01 21.94C2.87 21.37 2.73 20.8 2.58 20.22Z" fill="#FDBA24" fill-opacity="1.000000" fill-rule="nonzero"/>
	<path id="path" d="M41.02 7.91C41.63 8.23 42.09 8.52 42.5 9.14C42.52 9.75 42.52 9.75 42.43 10.42C42.4 10.75 42.4 10.75 42.36 11.09C42.34 11.26 42.31 11.43 42.29 11.6C42.92 11.44 43.54 11.28 44.19 11.11C44.51 11.67 44.83 12.23 45.15 12.79C45.29 13.02 45.29 13.02 45.43 13.26C45.67 13.68 45.88 14.12 46.09 14.55C46.02 14.8 45.95 15.04 45.88 15.29C45.25 14.16 44.63 13.02 43.98 11.85C43.67 11.89 43.36 11.94 43.04 11.99C42.72 12.03 42.4 12.07 42.08 12.09C42.01 12.01 41.94 11.93 41.87 11.85C41.91 11.46 41.97 11.08 42.03 10.69C42.12 9.76 42.12 9.76 41.86 8.9C41.54 8.44 41.54 8.44 41.02 7.91Z" fill="#EB7725" fill-opacity="1.000000" fill-rule="nonzero"/>
	<path id="path" d="M47.78 33.01C47.92 33.09 48.06 33.18 48.2 33.26C48.08 33.4 47.95 33.53 47.82 33.67C47.34 34.21 47.34 34.21 47.07 34.86C46.42 36.03 45.56 36.47 44.43 36.77C44.14 36.83 43.85 36.89 43.56 36.95C43.85 36.58 43.85 36.58 44.19 36.21C44.33 36.21 44.47 36.21 44.61 36.21C44.68 35.97 44.75 35.73 44.82 35.47C45.26 35.31 45.26 35.31 45.67 35.23C45.67 35.07 45.67 34.9 45.67 34.74C46.13 34.31 46.13 34.31 46.72 33.84C46.92 33.69 47.12 33.53 47.32 33.37C47.47 33.25 47.62 33.14 47.78 33.01Z" fill="#F2971B" fill-opacity="1.000000" fill-rule="nonzero"/>
	<path id="path" d="M5.54 10.12C6.23 10.3 6.55 10.48 7.02 11.11C6.39 10.99 6.39 10.99 5.75 10.86C5.61 11.27 5.47 11.68 5.33 12.09C5.19 12.09 5.05 12.09 4.91 12.09C4.91 12.42 4.91 12.74 4.91 13.08C4.77 13.08 4.63 13.08 4.48 13.08C4.43 13.27 4.38 13.46 4.33 13.66C4.03 14.39 3.85 14.53 3.22 14.8C3.55 13.68 4.06 12.75 4.62 11.77C4.71 11.61 4.79 11.45 4.89 11.29C5.1 10.9 5.32 10.51 5.54 10.12Z" fill="#EBA30E" fill-opacity="1.000000" fill-rule="nonzero"/>
	<path id="path" d="M13.66 3.29C13.77 3.36 13.88 3.42 13.99 3.48C13.24 4.16 12.45 4.75 11.65 5.34C10.6 6.12 10.6 6.12 9.55 6.93C9.41 6.76 9.27 6.6 9.13 6.43C12.76 3.19 12.76 3.19 13.66 3.29Z" fill="#EC9D0D" fill-opacity="1.000000" fill-rule="nonzero"/>
	<path id="path" d="M4.48 13.08C4.62 13.16 4.76 13.24 4.91 13.32C4.84 13.48 4.77 13.63 4.7 13.78C4.38 14.47 4.07 15.16 3.76 15.85C3.65 16.09 3.54 16.32 3.43 16.57C3.32 16.8 3.22 17.03 3.11 17.27C3.02 17.48 2.92 17.69 2.82 17.91C2.49 18.72 2.37 19.32 2.37 20.22C2.23 20.05 2.09 19.89 1.95 19.72C2.02 18.22 2.35 16.83 3.01 15.54C3.15 15.54 3.28 15.54 3.43 15.54C3.36 15.3 3.29 15.05 3.22 14.8C3.39 14.61 3.56 14.41 3.73 14.22C4.27 13.64 4.27 13.64 4.48 13.08Z" fill="#FBB429" fill-opacity="1.000000" fill-rule="nonzero"/>
	<path id="path" d="M7.44 9.14C7.99 10.09 8 10.71 8.07 11.85C8.01 11.93 7.94 12.01 7.86 12.09C7.37 12.02 6.88 11.94 6.39 11.85C6.39 11.68 6.39 11.52 6.39 11.36C6.22 11.55 6.05 11.74 5.88 11.94C5.56 12.32 5.23 12.7 4.91 13.08C4.91 12.09 4.91 12.09 5.21 11.69C5.32 11.58 5.43 11.47 5.54 11.36C5.61 11.19 5.68 11.03 5.75 10.86C6.24 10.94 6.73 11.03 7.23 11.11C7.3 10.46 7.37 9.81 7.44 9.14Z" fill="#F9A91D" fill-opacity="1.000000" fill-rule="nonzero"/>
	<path id="path" d="M2.37 34.49C3.24 34.64 3.92 34.99 4.7 35.47C4.7 35.64 4.7 35.8 4.7 35.97C4.85 36.02 5 36.07 5.16 36.12C5.95 36.57 6.28 37.12 6.81 37.94C5.91 37.94 5.4 37.36 4.71 36.77C4.58 36.66 4.45 36.55 4.31 36.44C3.61 35.84 2.97 35.23 2.37 34.49Z" fill="#F0B012" fill-opacity="1.000000" fill-rule="nonzero"/>
	<path id="path" d="M39.97 39.66C40.18 39.66 40.38 39.66 40.6 39.66C40.53 40.57 40.47 41.47 40.4 42.38C40.38 42.64 40.36 42.89 40.35 43.16C40.25 44.46 40.14 45.75 39.97 47.04C39.9 47.04 39.83 47.04 39.75 47.04C39.73 44.56 39.76 42.13 39.97 39.66Z" fill="#FBA616" fill-opacity="1.000000" fill-rule="nonzero"/>
	<path id="path" d="M7.65 38.92C8.78 39.07 8.78 39.07 9.28 39.42C9.72 40.19 9.62 41.02 9.59 41.92C9.59 42.1 9.59 42.29 9.58 42.48C9.58 42.93 9.57 43.39 9.55 43.84C9.48 43.84 9.41 43.84 9.34 43.84C9.33 43.45 9.33 43.45 9.33 43.05C9.31 42.71 9.3 42.37 9.29 42.03C9.29 41.86 9.28 41.68 9.28 41.51C9.27 40.94 9.27 40.94 9.13 40.15C8.74 39.79 8.74 39.79 8.29 39.66C7.92 39.26 7.92 39.26 7.65 38.92Z" fill="#EBAC0F" fill-opacity="1.000000" fill-rule="nonzero"/>
	<path id="path" d="M3.22 24.89C4.61 25.38 6.01 25.87 7.44 26.37C7.16 26.77 6.88 27.18 6.6 27.6C6.59 27.45 6.59 27.3 6.59 27.15C6.41 26.52 6.41 26.52 5.67 26.25C5.38 26.14 5.08 26.04 4.79 25.94C4.64 25.88 4.49 25.83 4.33 25.77C3.96 25.64 3.59 25.51 3.22 25.38C3.22 25.22 3.22 25.06 3.22 24.89Z" fill="#41B2A6" fill-opacity="1.000000" fill-rule="nonzero"/>
	<path id="path" d="M8.71 6.68C8.85 6.76 8.99 6.84 9.13 6.93C9.01 7.04 8.89 7.16 8.77 7.29C7.67 8.42 7.67 8.42 7.23 10C7.23 10.29 7.23 10.57 7.23 10.86C6.61 9.79 6.61 9.79 6.6 9.14C7.04 8.51 7.04 8.51 7.64 7.85C7.84 7.63 8.04 7.41 8.24 7.18C8.39 7.02 8.55 6.85 8.71 6.68Z" fill="#E79F0B" fill-opacity="1.000000" fill-rule="nonzero"/>
	<path id="path" d="M7.44 9.14C7.99 10.09 8 10.71 8.08 11.85C8.01 11.93 7.94 12.01 7.86 12.09C7.37 12.02 6.88 11.94 6.39 11.85C6.39 11.77 6.39 11.68 6.39 11.6C6.8 11.6 7.22 11.6 7.65 11.6C7.58 10.79 7.51 9.98 7.44 9.14Z" fill="#F7A82D" fill-opacity="1.000000" fill-rule="nonzero"/>
	<path id="path" d="M25.39 0.03C25.74 0.03 26.09 0.03 26.45 0.03C26.24 0.2 26.03 0.36 25.82 0.53C25.66 1.28 25.66 1.28 25.6 2C25.26 1.92 24.91 1.84 24.55 1.76C24.62 1.43 24.69 1.11 24.76 0.77C24.83 0.93 24.9 1.1 24.97 1.26C25.11 0.86 25.25 0.45 25.39 0.03Z" fill="#E5950B" fill-opacity="1.000000" fill-rule="nonzero"/>
	<path id="path" d="M45.25 36.7C44.76 37.11 44.27 37.52 43.77 37.94C43.63 37.85 43.49 37.77 43.35 37.69C43.56 36.95 43.56 36.95 43.94 36.64C44.4 36.46 44.4 36.46 45.25 36.7Z" fill="#EA9D0C" fill-opacity="1.000000" fill-rule="nonzero"/>
	<path id="path" d="M17.79 9.63C17.86 9.88 17.93 10.12 18 10.37C18.14 10.37 18.28 10.37 18.42 10.37C18.49 10.86 18.56 11.35 18.63 11.85C18.22 11.44 17.8 11.04 17.37 10.62C17.51 10.29 17.65 9.97 17.79 9.63Z" fill="#DF974E" fill-opacity="1.000000" fill-rule="nonzero"/>
	<path id="path" d="M49.26 22.43C49.33 22.43 49.4 22.43 49.47 22.43C49.61 23.49 49.75 24.54 49.89 25.63C49.47 25.38 49.47 25.38 49.22 24.72C49.04 23.85 49.08 23.3 49.26 22.43Z" fill="#E09409" fill-opacity="1.000000" fill-rule="nonzero"/>
	<path id="path" d="M31.73 10.12C31.94 10.21 32.15 10.29 32.36 10.37C32.07 11.15 31.94 11.35 31.31 11.85C31.49 10.4 31.49 10.4 31.73 10.12Z" fill="#D18153" fill-opacity="1.000000" fill-rule="nonzero"/>
	<path id="path" d="M38.28 16.03C38.49 16.36 38.69 16.68 38.91 17.02C38.63 17.34 38.35 17.67 38.07 18C37.93 17.92 37.79 17.84 37.64 17.75C37.85 17.19 38.06 16.62 38.28 16.03Z" fill="#D07F51" fill-opacity="1.000000" fill-rule="nonzero"/>
</svg>
