<svg width="50.000000" height="50.000000" viewBox="0 0 50 50" fill="none" xmlns="http://www.w3.org/2000/svg" xmlns:xlink="http://www.w3.org/1999/xlink">
	<desc>
			Created with Pixso.
	</desc>
	<defs/>
	<path id="path" d="M25 0C26.64 0 28.26 0.16 29.87 0.48C31.48 0.8 33.05 1.27 34.56 1.9C36.08 2.53 37.52 3.3 38.88 4.21C40.25 5.12 41.51 6.16 42.67 7.32C43.83 8.48 44.87 9.74 45.78 11.11C46.69 12.47 47.46 13.91 48.09 15.43C48.72 16.94 49.19 18.51 49.51 20.12C49.83 21.73 50 23.35 50 25C50 26.64 49.83 28.26 49.51 29.87C49.19 31.48 48.72 33.05 48.09 34.56C47.46 36.08 46.69 37.52 45.78 38.88C44.87 40.25 43.83 41.51 42.67 42.67C41.51 43.83 40.25 44.87 38.88 45.78C37.52 46.69 36.08 47.46 34.56 48.09C33.05 48.72 31.48 49.19 29.87 49.51C28.26 49.83 26.64 50 25 50C23.35 50 21.73 49.83 20.12 49.51C18.51 49.19 16.94 48.72 15.43 48.09C13.91 47.46 12.47 46.69 11.11 45.78C9.74 44.87 8.48 43.83 7.32 42.67C6.16 41.51 5.12 40.25 4.21 38.88C3.3 37.52 2.53 36.08 1.9 34.56C1.27 33.05 0.8 31.48 0.48 29.87C0.16 28.26 0 26.64 0 25C0 23.35 0.16 21.73 0.48 20.12C0.8 18.51 1.27 16.94 1.9 15.43C2.53 13.91 3.3 12.47 4.21 11.11C5.12 9.74 6.16 8.48 7.32 7.32C8.48 6.16 9.74 5.12 11.11 4.21C12.47 3.3 13.91 2.53 15.43 1.9C16.94 1.27 18.51 0.8 20.12 0.48C21.73 0.16 23.35 0 25 0ZM30.34 14.97C31.05 14.25 31.49 13.67 32.38 14.56L35.22 17.46C36.16 18.38 36.11 18.92 35.22 19.78L29.83 25.15L35.02 30.34C35.74 31.05 36.32 31.49 35.43 32.38L32.53 35.22C31.61 36.16 31.07 36.11 30.22 35.22L25 29.99L19.78 35.2C18.93 36.08 18.39 36.13 17.47 35.2L14.57 32.36C13.67 31.48 14.25 31.04 14.98 30.32L20.16 25.15L14.79 19.79C13.91 18.93 13.86 18.39 14.79 17.47L17.63 14.57C18.51 13.67 18.95 14.25 19.67 14.98L25 20.32L30.34 14.97Z" fill="#F44336" fill-opacity="1.000000" fill-rule="evenodd"/>
</svg>
