<svg width="50" height="50" viewBox="0 0 50 50" fill="none" xmlns="http://www.w3.org/2000/svg">
<path d="M25 30.6708L7.14375 48.5271L1.47292 42.8562L19.3292 25L1.47292 7.14375L7.14375 1.47292L25 19.3292L42.8563 1.47292L48.5271 7.14375L30.6708 25L48.5271 42.8562L42.8563 48.5271L25 30.6708Z" fill="#F78F8F"/>
<path d="M42.8562 2.94583L47.0521 7.14167L30.6688 23.525L29.1958 25L30.6688 26.4729L47.0521 42.8562L42.8562 47.0521L26.4729 30.6688L25 29.1958L23.5271 30.6688L7.14375 47.0521L2.94792 42.8562L19.3312 26.4729L20.8042 25L19.3312 23.5271L2.94583 7.14375L7.14167 2.94792L23.525 19.3312L25 20.8042L26.4729 19.3312L42.8562 2.94583ZM42.8562 0L25 17.8562L7.14375 0L0 7.14375L17.8562 25L0 42.8562L7.14375 50L25 32.1438L42.8562 50L50 42.8562L32.1438 25L50 7.14375L42.8562 0Z" fill="#C74343"/>
</svg>
