<svg xmlns="http://www.w3.org/2000/svg" xmlns:xlink="http://www.w3.org/1999/xlink" preserveAspectRatio="xMidYMid" width="22" height="24" viewBox="0 0 22 24">
  <defs>
    <style>
      .cls-1 {
        fill: #fff;
        fill-rule: evenodd;
      }
    </style>
  </defs>
  <path d="M21.177,13.277 L19.382,21.978 C19.397,23.032 18.451,24.000 17.290,24.000 L4.949,24.000 C3.787,24.000 2.842,23.032 2.842,21.842 L1.094,13.432 C0.434,13.096 0.000,12.411 0.000,11.648 C0.000,10.531 0.886,9.623 1.975,9.623 L20.023,9.623 C21.112,9.623 22.000,10.531 22.000,11.648 C22.000,12.301 21.692,12.900 21.177,13.277 ZM20.022,10.950 L1.975,10.950 L1.975,10.951 C1.601,10.951 1.295,11.264 1.295,11.648 C1.295,11.950 1.509,12.218 1.815,12.298 C2.054,12.360 2.237,12.557 2.287,12.804 L4.123,21.705 C4.138,22.300 4.501,22.671 4.948,22.671 L17.289,22.671 C17.736,22.671 18.099,22.300 18.099,21.841 L19.966,12.721 C20.007,12.520 20.135,12.350 20.313,12.261 C20.553,12.142 20.702,11.905 20.702,11.647 C20.702,11.263 20.397,10.950 20.022,10.950 ZM16.170,20.574 L16.044,20.574 C15.793,20.574 15.588,20.363 15.588,20.106 L15.588,14.638 C15.588,14.381 15.794,14.172 16.044,14.172 L16.170,14.172 C16.421,14.172 16.627,14.382 16.627,14.638 L16.627,20.106 C16.627,20.363 16.421,20.574 16.170,20.574 ZM12.833,20.574 L12.707,20.574 C12.456,20.574 12.250,20.363 12.250,20.106 L12.250,14.638 C12.250,14.381 12.456,14.172 12.707,14.172 L12.833,14.172 C13.084,14.172 13.288,14.382 13.288,14.638 L13.288,20.106 C13.288,20.363 13.083,20.574 12.833,20.574 ZM9.496,20.574 L9.368,20.574 C9.117,20.574 8.912,20.363 8.912,20.106 L8.912,14.638 C8.912,14.381 9.117,14.172 9.368,14.172 L9.494,14.172 C9.745,14.172 9.950,14.382 9.950,14.638 L9.950,20.106 L9.951,20.106 C9.951,20.363 9.745,20.574 9.496,20.574 ZM6.156,20.574 L6.031,20.574 C5.780,20.574 5.576,20.363 5.576,20.106 L5.576,14.638 C5.576,14.381 5.781,14.172 6.031,14.172 L6.157,14.172 C6.408,14.172 6.614,14.382 6.614,14.638 L6.614,20.106 L6.613,20.106 C6.613,20.363 6.407,20.574 6.156,20.574 ZM11.013,1.408 C7.578,1.408 4.793,4.261 4.793,7.782 L3.419,7.782 C3.419,3.484 6.819,-0.000 11.013,-0.000 C15.207,-0.000 18.606,3.484 18.607,7.782 L17.233,7.782 C17.233,4.261 14.449,1.408 11.013,1.408 Z" class="cls-1"></path>
</svg>