<svg width="50" height="50" viewBox="0 0 50 50" fill="none" xmlns="http://www.w3.org/2000/svg">
<path d="M0.347222 0.367647H49.6528V49.6324H0.347222V0.367647Z" fill="#424E5C"/>
<path d="M49.3056 0.735294V49.2647H0.694444V0.735294H49.3056ZM50 0H0V50H50V0Z" fill="#AFC5D8"/>
<path d="M0 0H50V8.82353H0V0Z" fill="#AFC5D8"/>
<path d="M20.8737 37.6122L27.8235 17.7554L29.1258 18.2664L22.176 38.1232L20.8737 37.6122Z" fill="#BAE0BD"/>
<path d="M16.5972 35.5882L8.33333 27.9412L16.5972 20.2941L17.5 21.3971L10.4167 27.9412L17.5 34.4853L16.5972 35.5882ZM33.4722 35.6618L32.5694 34.5588L39.5833 28.0147L32.5694 21.3971L33.4722 20.2941L41.6667 28.0147L33.4722 35.6618Z" fill="#BAE0BD"/>
</svg>
