<svg width="50.000000" height="50.000000" viewBox="0 0 50 50" fill="none" xmlns="http://www.w3.org/2000/svg" xmlns:xlink="http://www.w3.org/1999/xlink">
	<desc>
			Created with Pixso.
	</desc>
	<defs/>
	<path id="path" d="M49.99 24.88C50 25.7 49.96 26.52 49.89 27.34C49.81 28.15 49.69 28.96 49.54 29.76C49.38 30.57 49.18 31.36 48.95 32.15C48.72 32.93 48.44 33.7 48.13 34.46C47.82 35.22 47.48 35.96 47.09 36.68C46.71 37.41 46.29 38.11 45.84 38.79C45.39 39.48 44.91 40.13 44.39 40.77C43.87 41.4 43.33 42.01 42.75 42.59C42.17 43.18 41.57 43.73 40.94 44.25C40.31 44.77 39.65 45.26 38.98 45.72C38.3 46.18 37.6 46.6 36.88 46.99C36.16 47.38 35.42 47.73 34.66 48.05C33.91 48.37 33.14 48.65 32.36 48.89C31.58 49.13 30.78 49.33 29.98 49.49C29.18 49.66 28.37 49.78 27.56 49.86C26.74 49.95 25.92 49.99 25.11 49.99C24.29 50 23.47 49.96 22.65 49.89C21.84 49.81 21.03 49.69 20.23 49.54C19.42 49.38 18.63 49.18 17.84 48.95C17.06 48.72 16.29 48.44 15.53 48.13C14.77 47.82 14.03 47.48 13.31 47.09C12.58 46.71 11.88 46.29 11.2 45.84C10.51 45.39 9.86 44.91 9.22 44.39C8.59 43.87 7.98 43.33 7.4 42.75C6.81 42.17 6.26 41.57 5.74 40.94C5.22 40.31 4.73 39.65 4.27 38.98C3.81 38.3 3.39 37.6 3 36.88C2.61 36.16 2.26 35.42 1.94 34.66C1.62 33.91 1.34 33.14 1.1 32.36C0.86 31.58 0.66 30.78 0.5 29.98C0.33 29.18 0.21 28.37 0.13 27.56C0.04 26.74 0 25.92 0 25.11C-0.01 24.29 0.03 23.47 0.1 22.65C0.18 21.84 0.3 21.03 0.45 20.23C0.61 19.42 0.81 18.63 1.04 17.84C1.27 17.06 1.55 16.29 1.86 15.53C2.17 14.77 2.51 14.03 2.9 13.31C3.28 12.58 3.7 11.88 4.15 11.2C4.6 10.52 5.08 9.86 5.6 9.22C6.12 8.59 6.66 7.98 7.24 7.4C7.82 6.81 8.42 6.26 9.05 5.74C9.68 5.22 10.34 4.73 11.01 4.27C11.69 3.81 12.39 3.39 13.11 3C13.83 2.61 14.57 2.26 15.33 1.94C16.08 1.62 16.85 1.35 17.63 1.1C18.41 0.86 19.21 0.66 20.01 0.5C20.81 0.33 21.62 0.21 22.43 0.13C23.25 0.04 24.07 0 24.88 0C25.7 -0.01 26.52 0.03 27.34 0.1C28.15 0.18 28.96 0.3 29.76 0.45C30.57 0.61 31.36 0.81 32.15 1.04C32.93 1.27 33.7 1.55 34.46 1.86C35.22 2.17 35.96 2.51 36.68 2.9C37.41 3.28 38.11 3.7 38.79 4.15C39.48 4.6 40.13 5.08 40.77 5.6C41.4 6.12 42.01 6.66 42.59 7.24C43.18 7.82 43.73 8.42 44.25 9.05C44.77 9.68 45.26 10.34 45.72 11.01C46.18 11.69 46.6 12.39 46.99 13.11C47.38 13.83 47.73 14.57 48.05 15.33C48.37 16.08 48.65 16.85 48.89 17.63C49.13 18.41 49.33 19.21 49.49 20.01C49.66 20.81 49.78 21.62 49.86 22.43C49.95 23.25 49.99 24.07 49.99 24.88Z" fill="#8DC63F" fill-opacity="1.000000" fill-rule="nonzero"/>
	<path id="path" d="M48.12 24.89C48.12 25.65 48.09 26.41 48.02 27.16C47.95 27.91 47.84 28.66 47.7 29.41C47.55 30.15 47.37 30.89 47.16 31.61C46.94 32.34 46.69 33.05 46.4 33.75C46.12 34.45 45.8 35.14 45.44 35.81C45.09 36.48 44.7 37.13 44.29 37.76C43.87 38.39 43.42 39 42.94 39.59C42.47 40.18 41.96 40.74 41.43 41.28C40.89 41.82 40.34 42.33 39.75 42.81C39.17 43.29 38.56 43.75 37.94 44.17C37.31 44.59 36.66 44.99 36 45.35C35.33 45.71 34.65 46.03 33.95 46.33C33.25 46.62 32.54 46.88 31.82 47.1C31.09 47.32 30.36 47.51 29.62 47.66C28.88 47.81 28.13 47.93 27.38 48.01C26.62 48.08 25.87 48.13 25.11 48.13C24.35 48.13 23.6 48.1 22.84 48.03C22.09 47.96 21.34 47.85 20.6 47.71C19.85 47.56 19.12 47.38 18.39 47.17C17.67 46.95 16.95 46.7 16.25 46.41C15.55 46.12 14.87 45.8 14.2 45.45C13.53 45.1 12.88 44.71 12.24 44.29C11.61 43.88 11 43.43 10.42 42.95C9.83 42.47 9.27 41.97 8.73 41.43C8.19 40.9 7.68 40.34 7.2 39.76C6.71 39.18 6.26 38.57 5.83 37.94C5.41 37.32 5.02 36.67 4.66 36C4.3 35.34 3.97 34.65 3.68 33.96C3.39 33.26 3.13 32.55 2.9 31.82C2.68 31.1 2.49 30.37 2.34 29.62C2.19 28.88 2.08 28.14 2 27.38C1.92 26.63 1.88 25.87 1.88 25.12C1.87 24.36 1.91 23.6 1.98 22.85C2.05 22.09 2.16 21.35 2.3 20.6C2.45 19.86 2.63 19.12 2.84 18.4C3.06 17.67 3.31 16.96 3.6 16.26C3.88 15.56 4.2 14.87 4.56 14.2C4.91 13.53 5.3 12.88 5.71 12.25C6.13 11.62 6.58 11.01 7.06 10.42C7.54 9.83 8.04 9.27 8.57 8.73C9.11 8.2 9.67 7.69 10.25 7.2C10.83 6.72 11.44 6.27 12.06 5.84C12.69 5.42 13.34 5.03 14.01 4.67C14.67 4.31 15.35 3.98 16.05 3.69C16.75 3.39 17.46 3.14 18.19 2.91C18.91 2.69 19.64 2.5 20.38 2.35C21.13 2.2 21.87 2.09 22.63 2.01C23.38 1.93 24.14 1.89 24.89 1.89C25.65 1.88 26.41 1.92 27.16 1.99C27.91 2.06 28.66 2.17 29.4 2.31C30.15 2.45 30.88 2.64 31.61 2.85C32.33 3.07 33.05 3.32 33.75 3.61C34.45 3.89 35.13 4.21 35.8 4.57C36.47 4.92 37.12 5.31 37.75 5.72C38.38 6.14 38.99 6.59 39.58 7.07C40.17 7.54 40.73 8.05 41.27 8.58C41.81 9.11 42.32 9.67 42.8 10.26C43.28 10.84 43.74 11.44 44.16 12.07C44.58 12.7 44.98 13.35 45.34 14.01C45.7 14.68 46.02 15.36 46.32 16.06C46.61 16.76 46.87 17.47 47.09 18.19C47.31 18.91 47.5 19.64 47.65 20.39C47.8 21.13 47.92 21.88 48 22.63C48.08 23.38 48.12 24.14 48.12 24.89Z" fill="#F9E988" fill-opacity="1.000000" fill-rule="nonzero"/>
	<path id="path" d="M25.42 3.38C26.9 3.11 28.38 3.11 29.86 3.38C31.36 3.61 32.77 4.09 34.11 4.8C35.43 5.52 36.57 6.51 37.7 7.43C38.84 8.35 39.96 9.29 41.04 10.33C42.14 11.35 43.09 12.5 43.88 13.77C44.7 15.03 45.37 16.37 45.88 17.79C46.84 20.62 47.18 23.68 46.7 26.59L46.55 26.59C46.07 23.7 45.41 20.95 44.38 18.33C43.89 17.01 43.32 15.73 42.67 14.49C41.99 13.24 41.24 12.03 40.42 10.86C39.58 9.68 38.58 8.67 37.4 7.82C36.23 6.98 34.88 6.44 33.57 5.93C32.27 5.41 30.97 4.89 29.61 4.5C28.25 4.1 26.86 3.81 25.42 3.53L25.42 3.38Z" fill="#FFFFFF" fill-opacity="1.000000" fill-rule="nonzero"/>
	<path id="path" d="M36.72 16.73C35.05 16.25 33.31 15.56 31.55 14.86C31.44 14.42 31.05 13.87 30.26 13.2C29.11 12.2 26.95 12.23 25.08 12.67C23.02 12.18 20.98 12.01 19.03 12.49C3.04 16.89 12.11 27.63 6.24 38.44C7.07 40.21 16.07 50.54 29.1 47.77C29.1 47.77 24.65 37.07 34.7 31.93C42.85 27.75 48.74 20.01 36.72 16.73Z" fill="#8BC53F" fill-opacity="1.000000" fill-rule="nonzero"/>
	<path id="path" d="M38.7 23.76C38.7 23.89 38.67 24.02 38.63 24.13C38.58 24.25 38.51 24.36 38.42 24.45C38.33 24.54 38.22 24.61 38.1 24.66C37.99 24.71 37.86 24.74 37.73 24.74C37.61 24.74 37.48 24.72 37.36 24.67C37.24 24.62 37.14 24.55 37.05 24.46C36.96 24.37 36.89 24.26 36.84 24.14C36.79 24.03 36.76 23.9 36.76 23.77C36.76 23.65 36.78 23.52 36.83 23.4C36.88 23.28 36.95 23.18 37.04 23.09C37.13 23 37.23 22.93 37.35 22.88C37.47 22.83 37.59 22.8 37.72 22.8C37.85 22.8 37.98 22.82 38.09 22.87C38.21 22.92 38.32 22.99 38.41 23.08C38.5 23.17 38.57 23.28 38.62 23.39C38.67 23.51 38.7 23.63 38.7 23.76Z" fill="#FFFFFF" fill-opacity="1.000000" fill-rule="nonzero"/>
	<path id="path" d="M25.08 12.66C26.25 12.74 30.46 14.11 31.55 14.86C30.64 12.23 27.59 11.88 25.08 12.66Z" fill="#009345" fill-opacity="1.000000" fill-rule="nonzero"/>
	<path id="path" d="M26.19 19.3C26.19 19.6 26.16 19.89 26.1 20.18C26.05 20.46 25.96 20.74 25.85 21.01C25.74 21.29 25.6 21.54 25.44 21.79C25.27 22.03 25.09 22.26 24.88 22.47C24.67 22.67 24.45 22.86 24.21 23.02C23.96 23.18 23.7 23.32 23.43 23.44C23.16 23.55 22.88 23.63 22.59 23.69C22.31 23.75 22.01 23.78 21.72 23.78C21.43 23.78 21.14 23.75 20.85 23.69C20.56 23.63 20.28 23.55 20.01 23.44C19.74 23.32 19.48 23.19 19.24 23.02C18.99 22.86 18.77 22.68 18.56 22.47C18.35 22.26 18.17 22.03 18 21.79C17.84 21.55 17.7 21.29 17.59 21.02C17.48 20.75 17.39 20.47 17.33 20.18C17.28 19.89 17.25 19.6 17.25 19.31C17.25 19.01 17.28 18.72 17.33 18.43C17.39 18.15 17.48 17.87 17.59 17.6C17.7 17.32 17.84 17.07 18 16.82C18.16 16.58 18.35 16.35 18.56 16.14C18.76 15.94 18.99 15.75 19.23 15.59C19.48 15.43 19.74 15.29 20.01 15.18C20.28 15.06 20.56 14.98 20.85 14.92C21.13 14.86 21.42 14.83 21.72 14.83C22.01 14.83 22.3 14.86 22.59 14.92C22.88 14.98 23.16 15.06 23.43 15.17C23.7 15.29 23.96 15.42 24.2 15.59C24.44 15.75 24.67 15.93 24.88 16.14C25.09 16.35 25.27 16.58 25.43 16.82C25.6 17.06 25.73 17.32 25.85 17.59C25.96 17.86 26.04 18.14 26.1 18.43C26.16 18.72 26.19 19.01 26.19 19.3Z" fill="#FFFFFF" fill-opacity="1.000000" fill-rule="nonzero"/>
	<path id="path" d="M24.86 19.34C24.86 19.55 24.84 19.75 24.8 19.96C24.76 20.16 24.7 20.36 24.62 20.55C24.55 20.74 24.45 20.92 24.33 21.09C24.22 21.26 24.09 21.42 23.94 21.57C23.8 21.71 23.64 21.84 23.47 21.96C23.29 22.07 23.11 22.17 22.92 22.25C22.73 22.33 22.54 22.39 22.33 22.43C22.13 22.47 21.93 22.49 21.72 22.49C21.51 22.49 21.31 22.47 21.11 22.43C20.9 22.39 20.71 22.33 20.52 22.25C20.33 22.17 20.14 22.07 19.97 21.96C19.8 21.84 19.64 21.71 19.5 21.57C19.35 21.42 19.22 21.26 19.1 21.09C18.99 20.92 18.89 20.74 18.81 20.55C18.73 20.36 18.68 20.16 18.63 19.96C18.59 19.75 18.57 19.55 18.57 19.34C18.57 19.14 18.59 18.93 18.63 18.73C18.68 18.53 18.73 18.33 18.81 18.14C18.89 17.95 18.99 17.77 19.1 17.6C19.22 17.42 19.35 17.27 19.5 17.12C19.64 16.97 19.8 16.84 19.97 16.73C20.14 16.61 20.33 16.52 20.52 16.44C20.71 16.36 20.9 16.3 21.11 16.26C21.31 16.22 21.51 16.2 21.72 16.2C21.93 16.2 22.13 16.22 22.33 16.26C22.54 16.3 22.73 16.36 22.92 16.44C23.11 16.52 23.29 16.61 23.47 16.73C23.64 16.84 23.8 16.97 23.94 17.12C24.09 17.27 24.22 17.42 24.33 17.6C24.45 17.77 24.55 17.95 24.62 18.14C24.7 18.33 24.76 18.53 24.8 18.73C24.84 18.93 24.86 19.14 24.86 19.34Z" fill="#58595B" fill-opacity="1.000000" fill-rule="nonzero"/>
	<path id="path" d="M42.32 25.73C38.7 28.29 34.58 30.22 28.73 30.22C26 30.22 25.44 27.32 23.63 28.74C22.7 29.48 19.41 31.12 16.8 31C14.19 30.87 9.96 29.34 8.78 23.77C8.31 29.34 8.07 33.45 5.97 38.15C10.14 44.82 20.07 49.97 29.09 47.75C28.13 40.99 34.05 34.36 37.38 30.97C38.64 29.69 41.05 27.59 42.32 25.73Z" fill="#8BC53F" fill-opacity="1.000000" fill-rule="nonzero"/>
	<path id="path" d="M42.18 25.9C41.05 26.93 39.71 27.69 38.35 28.36C36.97 29.01 35.54 29.53 34.06 29.92C32.58 30.3 31.04 30.59 29.48 30.45C27.92 30.31 26.32 29.78 25.28 28.61L25.33 28.55C26.6 29.37 28.07 29.66 29.52 29.7C31 29.75 32.47 29.63 33.92 29.34C35.39 29.03 36.82 28.59 38.2 28.02C39.58 27.45 40.95 26.79 42.13 25.84L42.18 25.9Z" fill="#58595B" fill-opacity="1.000000" fill-rule="nonzero"/>
</svg>
