<svg width="50.000000" height="50.000000" viewBox="0 0 50 50" fill="none" xmlns="http://www.w3.org/2000/svg" xmlns:xlink="http://www.w3.org/1999/xlink">
	<desc>
			Created with Pixso.
	</desc>
	<defs/>
	<path id="path" d="M0 1.51L0 6.32C0 7.15 0.7 7.82 1.59 7.82L48.4 7.82C49.29 7.82 50 7.15 50 6.32L50 1.51C50 0.67 49.29 0 48.4 0L1.59 0C0.7 0 0 0.67 0 1.51Z" fill="#FD4755" fill-opacity="1.000000" fill-rule="nonzero"/>
	<path id="path" d="M48.4 0L46.34 0L46.34 3.26C46.34 4.1 45.64 4.78 44.76 4.78L0 4.78L0 6.32C0 7.15 0.7 7.82 1.59 7.82L48.4 7.82C49.29 7.82 50 7.15 50 6.32L50 1.51C50 0.67 49.29 0 48.4 0Z" fill="#FB2B3A" fill-opacity="1.000000" fill-rule="nonzero"/>
	<path id="path" d="M48.42 29.21L30.42 29.21L30.42 30.17C30.42 30.95 29.76 31.57 28.93 31.57L19.48 31.57L19.48 48.5C19.48 49.32 20.18 50 21.07 50L48.42 50C49.29 50 50 49.32 50 48.5L50 30.73C50 29.89 49.29 29.21 48.42 29.21Z" fill="#60B7FF" fill-opacity="1.000000" fill-rule="nonzero"/>
	<path id="path" d="M48.42 29.21L46.85 29.21L46.85 45.48C46.85 46.32 46.14 47 45.26 47L19.48 47L19.48 48.5C19.48 49.32 20.18 50 21.07 50L48.42 50C49.29 50 50 49.32 50 48.5L50 30.73C50 29.89 49.29 29.21 48.42 29.21Z" fill="#26A6FE" fill-opacity="1.000000" fill-rule="nonzero"/>
	<path id="path" d="M39.29 38.73L32.82 35.18C32.1 34.79 31.23 35.28 31.23 36.04L31.23 43.17C31.23 43.93 32.1 44.42 32.82 44.04L39.29 40.48C40 40.09 40 39.12 39.29 38.73Z" fill="#FFFFFF" fill-opacity="1.000000" fill-rule="nonzero"/>
	<path id="path" d="M39.29 38.73L37.64 37.82L31.23 41.34L31.23 43.15C31.23 43.93 32.1 44.42 32.82 44.03L39.29 40.48C40 40.09 40 39.12 39.29 38.73Z" fill="#F8F6F6" fill-opacity="1.000000" fill-rule="nonzero"/>
	<path id="path" d="M0.01 25.92L4.06 22.07C4.34 21.81 4.71 21.65 5.1 21.65C5.5 21.65 5.87 21.81 6.15 22.07L9.84 25.57C9.96 25.68 10.1 25.75 10.28 25.75C10.46 25.75 10.6 25.68 10.73 25.57L20.18 16.57C20.48 16.29 20.84 16.15 21.25 16.15C21.65 16.15 22.03 16.31 22.31 16.57L30.5 24.37L30.51 24.35L30.51 12.4C30.51 11.56 29.81 10.89 28.93 10.89L1.59 10.89C0.7 10.89 0 11.56 0 12.4L0 25.9L0.01 25.92Z" fill="#EAF6FF" fill-opacity="1.000000" fill-rule="nonzero"/>
	<path id="path" d="M30.5 24.37L30.51 24.35L30.51 12.4C30.51 11.56 29.81 10.89 28.92 10.89L26.85 10.89L26.85 20.9L30.5 24.37Z" fill="#D8ECFE" fill-opacity="1.000000" fill-rule="nonzero"/>
	<path id="path" d="M22.39 16.51C21.76 15.9 20.75 15.9 20.12 16.51L10.65 25.51C10.6 25.56 10.54 25.59 10.48 25.62C10.42 25.64 10.35 25.65 10.28 25.65C10.21 25.65 10.15 25.64 10.07 25.62C10.01 25.59 9.96 25.56 9.9 25.51L6.23 22C5.6 21.42 4.6 21.42 3.98 22L0 25.79L0 30.17C0 31 0.7 31.67 1.57 31.67L28.93 31.67C29.81 31.67 30.51 31 30.51 30.17L30.51 24.25L22.39 16.51Z" fill="#05E39C" fill-opacity="1.000000" fill-rule="nonzero"/>
	<path id="path" d="M26.85 20.76L26.85 27.17C26.85 28.01 26.15 28.68 25.28 28.68L0 28.68L0 30.17C0 31 0.7 31.67 1.57 31.67L28.93 31.67C29.81 31.67 30.51 31 30.51 30.17L30.51 24.25L26.85 20.76Z" fill="#0ED290" fill-opacity="1.000000" fill-rule="nonzero"/>
	<ellipse id="circle" cx="10.312500" cy="16.718750" rx="2.009016" ry="1.911422" fill="#FFD15B" fill-opacity="1.000000"/>
	<path id="path" d="M11.12 14.98C11.21 15.2 11.25 15.42 11.25 15.64C11.25 16.7 10.35 17.56 9.25 17.56C8.95 17.56 8.68 17.5 8.42 17.39C8.7 18.1 9.43 18.64 10.29 18.64C11.42 18.64 12.31 17.78 12.31 16.71C12.31 15.95 11.82 15.28 11.12 14.98Z" fill="#FFC344" fill-opacity="1.000000" fill-rule="nonzero"/>
	<path id="path" d="M48.42 25.9L35.81 25.9C34.92 25.9 34.21 25.23 34.21 24.39L34.21 12.4C34.21 11.56 34.92 10.89 35.81 10.89L48.42 10.89C49.29 10.89 50 11.56 50 12.4L50 24.39C50 25.23 49.29 25.9 48.42 25.9Z" fill="#FFD15B" fill-opacity="1.000000" fill-rule="nonzero"/>
	<path id="path" d="M48.42 10.89L46.89 10.89L46.89 21.4C46.89 22.23 46.18 22.92 45.29 22.92L34.21 22.92L34.21 24.39C34.21 25.23 34.92 25.9 35.81 25.9L48.42 25.9C49.29 25.9 50 25.23 50 24.39L50 12.4C50 11.56 49.29 10.89 48.42 10.89Z" fill="#FFC344" fill-opacity="1.000000" fill-rule="nonzero"/>
	<path id="path" d="M46.32 13.65L37.87 13.65C37.78 13.65 37.67 13.67 37.57 13.71C37.48 13.75 37.4 13.79 37.32 13.87C37.26 13.93 37.2 14.01 37.17 14.1C37.12 14.2 37.1 14.29 37.1 14.39L37.1 15.9C37.1 16.31 37.45 16.64 37.87 16.64C38.29 16.64 38.65 16.31 38.65 15.9L38.65 15.12L41.32 15.12L41.32 21.68L40.57 21.68C40.14 21.68 39.79 22.01 39.79 22.42C39.79 22.82 40.14 23.15 40.57 23.15L43.62 23.15C44.06 23.15 44.4 22.82 44.4 22.42C44.4 22.01 44.06 21.68 43.62 21.68L42.87 21.68L42.87 15.12L45.54 15.12L45.54 15.9C45.54 16.31 45.89 16.64 46.32 16.64C46.75 16.64 47.09 16.31 47.09 15.9L47.09 14.39C47.09 14.29 47.07 14.2 47.03 14.1C47 14.01 46.93 13.93 46.85 13.87C46.79 13.79 46.7 13.75 46.6 13.71C46.51 13.67 46.42 13.65 46.32 13.65Z" fill="#FFFFFF" fill-opacity="1.000000" fill-rule="nonzero"/>
	<path id="path" d="M15.07 37.98L1.79 37.98C1.37 37.98 1.03 37.65 1.03 37.25C1.03 36.84 1.37 36.51 1.79 36.51L15.07 36.51C15.17 36.51 15.28 36.53 15.37 36.57C15.46 36.6 15.54 36.65 15.62 36.73C15.68 36.79 15.75 36.87 15.78 36.96C15.82 37.06 15.84 37.15 15.84 37.25C15.84 37.34 15.82 37.43 15.78 37.53C15.75 37.62 15.68 37.7 15.62 37.76C15.54 37.82 15.46 37.89 15.37 37.92C15.28 37.96 15.17 37.98 15.07 37.98ZM15.07 42L1.79 42C1.37 42 1.03 41.67 1.03 41.26C1.03 40.87 1.37 40.54 1.79 40.54L15.07 40.54C15.17 40.54 15.28 40.56 15.37 40.59C15.46 40.62 15.54 40.68 15.62 40.75C15.68 40.82 15.75 40.9 15.78 40.98C15.82 41.07 15.84 41.17 15.84 41.26C15.84 41.37 15.82 41.46 15.78 41.54C15.75 41.64 15.68 41.71 15.62 41.79C15.54 41.85 15.46 41.9 15.37 41.95C15.28 41.98 15.17 42 15.07 42ZM15.07 46.03L1.79 46.03C1.37 46.03 1.03 45.7 1.03 45.29C1.03 44.89 1.37 44.56 1.79 44.56L15.07 44.56C15.17 44.56 15.28 44.57 15.37 44.62C15.46 44.65 15.54 44.7 15.62 44.78C15.68 44.84 15.75 44.92 15.78 45.01C15.82 45.1 15.84 45.2 15.84 45.29C15.84 45.39 15.82 45.48 15.78 45.57C15.75 45.67 15.68 45.75 15.62 45.81C15.54 45.89 15.46 45.93 15.37 45.96C15.28 46.01 15.17 46.03 15.07 46.03Z" fill="#8AC9FE" fill-opacity="1.000000" fill-rule="nonzero"/>
	<path id="path" d="M40.29 4.65L40.18 4.65C39.76 4.65 39.42 4.32 39.42 3.92C39.42 3.51 39.76 3.18 40.18 3.18L40.29 3.18C40.71 3.18 41.06 3.51 41.06 3.92C41.06 4.32 40.71 4.65 40.29 4.65ZM43.21 4.65L43.1 4.65C42.68 4.65 42.34 4.32 42.34 3.92C42.34 3.51 42.68 3.18 43.1 3.18L43.21 3.18C43.64 3.18 43.98 3.51 43.98 3.92C43.98 4.32 43.64 4.65 43.21 4.65ZM46.14 4.65L46.03 4.65C45.6 4.65 45.26 4.32 45.26 3.92C45.26 3.51 45.6 3.18 46.03 3.18L46.14 3.18C46.56 3.18 46.9 3.51 46.9 3.92C46.9 4.32 46.56 4.65 46.14 4.65ZM5.96 4.65L3.84 4.65C3.42 4.65 3.07 4.32 3.07 3.92C3.07 3.51 3.42 3.18 3.84 3.18L5.96 3.18C6.06 3.18 6.15 3.2 6.25 3.25C6.35 3.28 6.43 3.32 6.5 3.4C6.57 3.46 6.64 3.54 6.67 3.64C6.71 3.73 6.73 3.82 6.73 3.92C6.73 4.01 6.71 4.1 6.67 4.2C6.64 4.29 6.57 4.37 6.5 4.43C6.43 4.5 6.35 4.56 6.25 4.59C6.15 4.64 6.06 4.65 5.96 4.65Z" fill="#FFFFFF" fill-opacity="1.000000" fill-rule="nonzero"/>
	<circle id="Эллипс 7" cx="7.500000" cy="42.500000" r="7.500000" fill="#FFFFFF" fill-opacity="1.000000"/>
	<path id="path" d="M1.79 40.21L7.84 36.67L7.56 36.5L1.51 40.04L1.79 40.21Z" fill="#FE91AB" fill-opacity="1.000000" fill-rule="nonzero"/>
	<path id="path" d="M8.31 41.96C8.04 41.81 7.82 41.43 7.82 41.12L7.84 36.67L5.78 37.87L1.79 40.21L1.78 44.67C1.78 44.98 2 45.35 2.26 45.51C2.39 45.59 2.51 45.59 2.6 45.54L8.65 42C8.56 42.04 8.43 42.04 8.31 41.96Z" fill="#ED5D71" fill-opacity="1.000000" fill-rule="nonzero"/>
	<path id="path" d="M2.04 40.37L2.85 40.84L2.92 40.89L2.92 45.6C2.84 45.6 2.75 45.57 2.65 45.51C2.31 45.31 2.03 44.82 2.03 44.42L2.04 40.37Z" fill="#E3E7F0" fill-opacity="1.000000" fill-rule="nonzero"/>
	<path id="path" d="M9.09 37.4L9.07 41.85C9.07 42.1 9 42.28 8.85 42.35L2.81 45.9C2.95 45.82 3.03 45.65 3.03 45.4L3.04 40.95L9.09 37.4Z" fill="#ED5D71" fill-opacity="1.000000" fill-rule="nonzero"/>
	<path id="path" d="M2.82 40.82L8.5 37.5L7.71 37.04L2.04 40.37L2.82 40.82Z" fill="#FFFFFF" fill-opacity="1.000000" fill-rule="nonzero"/>
	<path id="path" d="M1.51 40.04L1.5 44.5C1.5 45 1.84 45.59 2.26 45.84C2.7 46.09 3.04 45.89 3.04 45.4L3.06 40.95L2.76 40.78L2.75 45.23C2.75 45.54 2.53 45.67 2.26 45.51C2 45.35 1.78 44.98 1.78 44.67L1.79 40.21L1.51 40.04Z" fill="#D3374E" fill-opacity="1.000000" fill-rule="nonzero"/>
	<path id="path" d="M3.04 40.95L9.09 37.4L8.81 37.23L2.76 40.78L3.04 40.95Z" fill="#FE91AB" fill-opacity="1.000000" fill-rule="nonzero"/>
	<path id="path" d="M9.1 36.67L7.67 37.51L7.04 38.6L9.1 37.4L9.1 36.67Z" fill="#ED5D71" fill-opacity="1.000000" fill-rule="nonzero"/>
	<path id="path" d="M7.65 37.51L7.03 38.6L6.75 38.43L7.37 37.34L7.65 37.51Z" fill="#D3374E" fill-opacity="1.000000" fill-rule="nonzero"/>
	<path id="path" d="M7.65 37.51L9.09 36.67L8.81 36.5L7.37 37.34L7.65 37.51Z" fill="#FE91AB" fill-opacity="1.000000" fill-rule="nonzero"/>
	<path id="path" d="M3.98 41.5L10.03 37.95L9.75 37.78L3.7 41.32L3.98 41.5Z" fill="#FFDD94" fill-opacity="1.000000" fill-rule="nonzero"/>
	<path id="path" d="M10.51 43.23C10.25 43.07 10.03 42.7 10.03 42.39L10.04 37.93L7.98 39.14L4 41.48L3.98 45.93C3.98 46.25 4.2 46.62 4.46 46.78C4.59 46.85 4.71 46.85 4.81 46.81L10.85 43.26C10.76 43.31 10.64 43.31 10.51 43.23Z" fill="#FEBB61" fill-opacity="1.000000" fill-rule="nonzero"/>
	<path id="path" d="M4.25 41.65L5.06 42.12L5.12 42.17L5.12 46.89C5.04 46.89 4.95 46.85 4.85 46.79C4.51 46.59 4.23 46.1 4.23 45.7L4.25 41.65Z" fill="#E3E7F0" fill-opacity="1.000000" fill-rule="nonzero"/>
	<path id="path" d="M11.29 38.67L11.28 43.12C11.28 43.37 11.2 43.54 11.06 43.62L5.01 47.17C5.15 47.09 5.23 46.92 5.23 46.67L5.25 42.21L11.29 38.67Z" fill="#FEBB61" fill-opacity="1.000000" fill-rule="nonzero"/>
	<path id="path" d="M5.01 42.1L10.68 38.78L9.9 38.32L4.23 41.65L5.01 42.1Z" fill="#FFFFFF" fill-opacity="1.000000" fill-rule="nonzero"/>
	<path id="path" d="M3.71 41.31L3.7 45.76C3.7 46.26 4.04 46.85 4.46 47.1C4.89 47.35 5.25 47.15 5.25 46.67L5.26 42.21L4.96 42.04L4.95 46.5C4.95 46.81 4.73 46.93 4.46 46.78C4.2 46.62 3.98 46.25 3.98 45.93L4 41.48L3.71 41.31Z" fill="#EFA143" fill-opacity="1.000000" fill-rule="nonzero"/>
	<path id="path" d="M5.25 42.21L11.29 38.67L11.01 38.5L4.96 42.04L5.25 42.21Z" fill="#FFDD94" fill-opacity="1.000000" fill-rule="nonzero"/>
	<path id="path" d="M11.31 37.93L9.87 38.78L9.25 39.87L11.31 38.67L11.31 37.93Z" fill="#FEBB61" fill-opacity="1.000000" fill-rule="nonzero"/>
	<path id="path" d="M9.85 38.79L9.23 39.89L8.95 39.71L9.57 38.62L9.85 38.79Z" fill="#EFA143" fill-opacity="1.000000" fill-rule="nonzero"/>
	<path id="path" d="M9.85 38.79L11.29 37.95L11.01 37.78L9.57 38.62L9.85 38.79Z" fill="#FFDD94" fill-opacity="1.000000" fill-rule="nonzero"/>
	<path id="path" d="M6.18 42.76L12.23 39.21L11.95 39.04L5.9 42.59L6.18 42.76Z" fill="#7BB1FF" fill-opacity="1.000000" fill-rule="nonzero"/>
	<path id="path" d="M12.71 44.51C12.45 44.35 12.23 43.98 12.23 43.67L12.25 39.21L10.18 40.42L6.2 42.76L6.18 47.21C6.18 47.53 6.4 47.9 6.67 48.06C6.79 48.14 6.92 48.14 7.01 48.09L13.06 44.54C12.96 44.59 12.84 44.59 12.71 44.51Z" fill="#5793FB" fill-opacity="1.000000" fill-rule="nonzero"/>
	<path id="path" d="M6.43 42.93L7.25 43.4L7.31 43.45L7.31 48.17C7.23 48.17 7.14 48.14 7.04 48.07C6.7 47.87 6.42 47.39 6.42 46.98L6.43 42.93Z" fill="#E3E7F0" fill-opacity="1.000000" fill-rule="nonzero"/>
	<path id="path" d="M13.5 39.95L13.48 44.4C13.48 44.65 13.4 44.82 13.26 44.9L7.21 48.45C7.35 48.37 7.43 48.2 7.43 47.95L7.45 43.5L13.5 39.95Z" fill="#5793FB" fill-opacity="1.000000" fill-rule="nonzero"/>
	<path id="path" d="M11.54 44.89L13.01 44.03C13.01 44.03 13.01 44.32 13.01 44.34L11.54 45.2L11.54 44.89ZM11.54 44.31L13.01 43.45C13.01 43.45 13.01 43.73 13.01 43.75L11.54 44.62L11.54 44.31ZM11.54 43.71L13.01 42.85C13.01 42.85 13.01 43.15 13.01 43.17L11.54 44.03L11.54 43.71Z" fill="#E3E7F0" fill-opacity="1.000000" fill-rule="nonzero"/>
	<path id="path" d="M7.21 43.39L12.89 40.06L12.1 39.6L6.43 42.93L7.21 43.39Z" fill="#FFFFFF" fill-opacity="1.000000" fill-rule="nonzero"/>
	<path id="path" d="M5.9 42.59L5.89 47.04C5.89 47.54 6.23 48.14 6.65 48.39C7.09 48.64 7.43 48.43 7.43 47.95L7.45 43.5L7.15 43.32L7.14 47.78C7.14 48.09 6.92 48.21 6.65 48.06C6.39 47.9 6.17 47.53 6.17 47.21L6.18 42.76L5.9 42.59Z" fill="#3A53D0" fill-opacity="1.000000" fill-rule="nonzero"/>
	<path id="path" d="M7.45 43.5L13.5 39.95L13.21 39.78L7.17 43.32L7.45 43.5Z" fill="#7BB1FF" fill-opacity="1.000000" fill-rule="nonzero"/>
	<path id="path" d="M13.5 39.21L12.06 40.06L11.43 41.15L13.5 39.95L13.5 39.21Z" fill="#5793FB" fill-opacity="1.000000" fill-rule="nonzero"/>
	<path id="path" d="M12.06 40.06L11.43 41.15L11.15 40.98L11.78 39.89L12.06 40.06Z" fill="#3A53D0" fill-opacity="1.000000" fill-rule="nonzero"/>
	<path id="path" d="M12.06 40.06L13.5 39.21L13.21 39.04L11.78 39.89L12.06 40.06Z" fill="#7BB1FF" fill-opacity="1.000000" fill-rule="nonzero"/>
</svg>
