<svg width="50.000488" height="50.000519" viewBox="0 0 50.0005 50.0005" fill="none" xmlns="http://www.w3.org/2000/svg" xmlns:xlink="http://www.w3.org/1999/xlink">
	<desc>
			Created with Pixso.
	</desc>
	<defs/>
	<path id="path" d="M26.9 16.32C25.47 12.44 19.68 11.17 13.95 13.49C8.22 15.8 4.73 20.82 6.15 24.7L14.98 24.41L26.9 16.32ZM33.67 23.09C37.55 24.52 38.82 30.31 36.5 36.04C34.19 41.77 29.17 45.26 25.29 43.84L25.58 35.01L33.67 23.09Z" fill="#FFC108" fill-opacity="1.000000" fill-rule="nonzero"/>
	<path id="path" d="M43.48 25.47C39.27 29.68 31.01 33.59 23.55 36.51L13.48 26.44C16.4 18.98 20.31 10.72 24.52 6.5C33.33 -2.3 48.22 1.77 48.22 1.77C48.22 1.77 52.29 16.66 43.48 25.47Z" fill="#FFD54F" fill-opacity="1.000000" fill-rule="nonzero"/>
	<path id="path" d="M29.37 34.08C27.44 34.94 25.47 35.76 23.55 36.51L13.47 26.44C14.23 24.52 15.05 22.55 15.9 20.62L29.37 34.08Z" fill="#90A4AE" fill-opacity="1.000000" fill-rule="nonzero"/>
	<ellipse id="circle" cx="34.999268" cy="15.000641" rx="9.165718" ry="9.165895" fill="#90CAF9" fill-opacity="1.000000"/>
	<path id="path" d="M15.56 43.86C11.01 48.41 0.83 49.16 0.83 49.16C0.83 49.16 1.58 38.99 6.13 34.43C10.69 29.87 14.73 30.06 17.33 32.66C19.93 35.26 20.12 39.3 15.56 43.86Z" fill="#FF7043" fill-opacity="1.000000" fill-rule="nonzero"/>
	<path id="path" d="M16.14 38.56C13.21 41.49 6.71 43.28 6.71 43.28C6.71 43.28 8.5 36.78 11.43 33.85C14.36 30.92 16.14 31.49 17.32 32.67C18.5 33.85 19.07 35.63 16.14 38.56Z" fill="#FDD835" fill-opacity="1.000000" fill-rule="nonzero"/>
	<path id="path" d="M37.28 36.36C38.07 34.42 38.47 32.4 38.48 30.3C40.51 29.1 42.37 27.68 44.07 26.05C47.83 22.3 49.87 16.86 49.99 10.33C50.05 7.36 49.73 4.43 49.02 1.55C48.94 1.24 48.75 1.05 48.44 0.97C45.56 0.26 42.63 -0.06 39.66 0C33.13 0.12 27.69 2.16 23.94 5.92C22.31 7.62 20.89 9.49 19.69 11.52C17.59 11.52 15.57 11.92 13.63 12.72C7.5 15.19 3.79 20.7 5.37 24.99C5.41 25.1 5.47 25.2 5.56 25.29C5.73 25.46 5.93 25.54 6.18 25.54L13.03 25.31C12.92 25.58 12.81 25.85 12.7 26.14C12.57 26.47 12.63 26.77 12.88 27.03L22.96 37.1C23.22 37.36 23.52 37.42 23.85 37.29C24.14 37.18 24.41 37.07 24.69 36.96L24.46 43.81C24.45 44.05 24.53 44.26 24.7 44.43C24.79 44.52 24.89 44.58 25.01 44.62C29.29 46.2 34.8 42.49 37.28 36.36ZM47.53 2.46C48.11 5.02 50.39 17.38 42.89 24.87C40.3 27.46 35.74 30.26 29.55 33.08L16.91 20.44C19.73 14.25 22.52 9.68 25.11 7.09C32.61 -0.4 44.97 1.88 47.53 2.46ZM6.76 23.85C6.02 20.47 9.24 16.29 14.26 14.26C15.68 13.68 17.15 13.34 18.68 13.22C16.81 16.58 15.16 20.05 13.72 23.62L6.76 23.85ZM23.75 35.54L14.45 26.23C15 24.84 15.58 23.45 16.18 22.07L27.91 33.81C26.54 34.41 25.15 34.99 23.75 35.54ZM26.14 43.23L26.38 36.27C29.94 34.83 33.41 33.18 36.77 31.31C36.65 32.84 36.31 34.31 35.73 35.73C33.7 40.75 29.52 43.97 26.14 43.23Z" fill="#000000" fill-opacity="1.000000" fill-rule="nonzero"/>
	<path id="path" d="M27.93 22.06C28.47 22.6 29.07 23.08 29.72 23.48C30.37 23.89 31.06 24.21 31.78 24.46C32.51 24.7 33.25 24.86 34.02 24.94C34.78 25.01 35.54 25 36.3 24.9C37.06 24.8 37.8 24.61 38.52 24.34C39.23 24.07 39.91 23.72 40.55 23.3C41.18 22.87 41.76 22.38 42.29 21.82C42.81 21.26 43.26 20.65 43.65 19.98C44.03 19.32 44.33 18.62 44.55 17.89C44.78 17.15 44.91 16.4 44.96 15.64C45.01 14.88 44.97 14.11 44.85 13.36C44.72 12.6 44.51 11.87 44.22 11.16C43.93 10.45 43.56 9.79 43.11 9.17C42.66 8.54 42.15 7.98 41.58 7.47C41 6.97 40.37 6.54 39.7 6.18C39.02 5.81 38.31 5.53 37.57 5.34C36.83 5.14 36.08 5.03 35.31 5C34.55 4.98 33.79 5.04 33.04 5.19C32.28 5.34 31.56 5.57 30.86 5.89C30.16 6.21 29.51 6.6 28.9 7.07C28.29 7.53 27.75 8.06 27.26 8.65C26.78 9.25 26.36 9.89 26.02 10.58C25.69 11.26 25.43 11.98 25.26 12.73C25.08 13.47 25 14.23 25 15C24.99 17.76 25.97 20.11 27.93 22.06ZM34.99 6.66C36.1 6.66 37.16 6.87 38.18 7.3C39.2 7.72 40.11 8.32 40.89 9.1C41.67 9.88 42.27 10.79 42.69 11.81C43.12 12.83 43.33 13.89 43.33 15C43.33 16.1 43.12 17.16 42.69 18.18C42.27 19.21 41.67 20.11 40.89 20.89C40.11 21.67 39.2 22.27 38.18 22.69C37.16 23.12 36.1 23.33 34.99 23.33C33.89 23.33 32.83 23.12 31.81 22.69C30.78 22.27 29.88 21.67 29.1 20.89C28.32 20.11 27.72 19.21 27.3 18.18C26.87 17.16 26.66 16.1 26.66 15C26.66 13.89 26.87 12.83 27.29 11.8C27.71 10.78 28.31 9.88 29.1 9.1C29.88 8.31 30.78 7.71 31.8 7.29C32.82 6.87 33.89 6.66 34.99 6.66Z" fill="#000000" fill-opacity="1.000000" fill-rule="nonzero"/>
	<path id="path" d="M30.83 10.83L30.83 12.5L31.66 12.5L31.66 17.5L30.83 17.5L30.83 19.16L31.66 19.16L31.66 20.83L33.33 20.83L33.33 19.16L34.99 19.16L34.99 20.83L36.66 20.83L36.66 19.16C37.35 19.16 37.94 18.92 38.43 18.43C38.92 17.94 39.16 17.35 39.16 16.66C39.16 16.02 38.94 15.47 38.51 15C38.94 14.52 39.16 13.97 39.16 13.33C39.14 12.65 38.9 12.06 38.41 11.58C37.93 11.09 37.34 10.84 36.66 10.83L36.66 9.16L34.99 9.16L34.99 10.83L33.33 10.83L33.33 9.16L31.66 9.16L31.66 10.83L30.83 10.83ZM36.66 17.5L33.33 17.5L33.33 15.83L36.66 15.83C37.22 15.83 37.49 16.11 37.49 16.66C37.49 17.22 37.22 17.5 36.66 17.5ZM37.49 13.33C37.49 13.88 37.22 14.16 36.66 14.16L33.33 14.16L33.33 12.5L36.66 12.5C37.22 12.5 37.49 12.77 37.49 13.33ZM17.92 32.07C14.6 28.75 9.97 29.41 5.54 33.84C0.82 38.56 0.03 48.67 0 49.1C-0.02 49.35 0.06 49.57 0.24 49.75C0.42 49.93 0.64 50.01 0.89 49.99C1.32 49.96 11.43 49.17 16.15 44.45C20.58 40.02 21.24 35.39 17.92 32.07ZM1.77 48.22C2.09 45.6 3.25 38.49 6.72 35.02C10.47 31.27 14.12 30.63 16.74 33.25C19.36 35.87 18.72 39.52 14.97 43.27C11.5 46.74 4.39 47.9 1.77 48.22Z" fill="#000000" fill-opacity="1.000000" fill-rule="nonzero"/>
</svg>
