<svg width="50.000000" height="50.000244" viewBox="0 0 50 50.0002" fill="none" xmlns="http://www.w3.org/2000/svg" xmlns:xlink="http://www.w3.org/1999/xlink">
	<desc>
			Created with Pixso.
	</desc>
	<defs/>
	<path id="Vector" d="M50 24.98C50 29.53 48.76 34 46.41 37.89L42.39 32.25C43.35 29.95 43.85 27.48 43.84 24.98C43.84 23.72 43.72 22.45 43.47 21.21C43.44 21.09 43.42 20.98 43.39 20.86C43.36 20.74 43.33 20.57 43.3 20.44C43.26 20.32 43.25 20.24 43.22 20.14C43.16 19.91 43.09 19.68 43.02 19.44L42.96 19.24C42.89 19.03 42.78 18.72 42.71 18.51C42.66 18.36 42.6 18.22 42.55 18.08C42.49 17.94 42.43 17.79 42.37 17.65C42.31 17.52 42.25 17.37 42.19 17.23C42.06 16.96 41.93 16.68 41.79 16.41C41.73 16.29 41.67 16.17 41.6 16.06C41.54 15.93 41.44 15.74 41.36 15.61C41.29 15.49 41.22 15.35 41.13 15.22C40.97 14.94 40.78 14.67 40.6 14.39C39.6 12.91 38.39 11.59 37.01 10.45C36.9 10.36 36.79 10.28 36.68 10.19C36.57 10.1 36.42 9.98 36.28 9.88C36.15 9.79 36.04 9.7 35.92 9.62C35.8 9.53 35.69 9.45 35.57 9.38C35.44 9.28 35.3 9.19 35.16 9.11L34.88 8.93L34.6 8.76C32.18 7.34 29.49 6.47 26.7 6.22C23.91 5.97 21.1 6.34 18.47 7.31C17.08 7.83 14.17 9.57 14.06 9.65L10.46 4.62L10.93 4.32C12.15 3.49 13.43 2.77 14.78 2.17C18.2 0.64 21.92 -0.1 25.67 0C29.41 0.11 33.09 1.05 36.42 2.77C36.66 2.89 36.89 3.01 37.12 3.14L37.46 3.34L37.79 3.54L38.11 3.73C38.34 3.87 38.57 4.02 38.81 4.17L39.07 4.34L39.44 4.6L39.83 4.89L40.04 5.05C40.17 5.14 40.29 5.23 40.39 5.33C40.71 5.57 41.02 5.83 41.32 6.09C41.62 6.36 41.92 6.62 42.21 6.9L42.64 7.32C42.78 7.46 42.92 7.6 43.06 7.75C43.32 8.02 43.57 8.31 43.82 8.59C43.93 8.72 44.04 8.84 44.14 8.96C44.24 9.08 44.34 9.21 44.45 9.34C44.55 9.47 44.61 9.55 44.69 9.65L44.93 9.97L45.17 10.29C45.27 10.43 45.37 10.56 45.46 10.7C45.56 10.84 45.65 10.98 45.74 11.12C45.8 11.19 45.84 11.26 45.89 11.34C45.94 11.41 45.99 11.48 46.03 11.56L46.26 11.91C46.37 12.08 46.47 12.25 46.57 12.42C46.67 12.59 46.72 12.68 46.79 12.81C46.86 12.93 46.93 13.06 47 13.19C47.01 13.21 47.08 13.34 47.09 13.36L47.28 13.73C47.36 13.88 47.46 14.08 47.53 14.22C47.6 14.37 47.67 14.55 47.75 14.71L47.96 15.09C48.02 15.23 48.07 15.35 48.13 15.49L48.27 15.83C48.33 15.99 48.39 16.14 48.44 16.3C48.46 16.34 48.48 16.38 48.49 16.43C48.56 16.6 48.62 16.78 48.68 16.96C48.81 17.35 48.93 17.74 49.05 18.14C49.1 18.32 49.15 18.51 49.2 18.69C49.3 19.09 49.39 19.54 49.48 19.95C49.52 20.15 49.56 20.35 49.59 20.55C49.62 20.72 49.65 20.98 49.68 21.16C49.71 21.34 49.73 21.56 49.77 21.76C49.79 21.96 49.81 22.21 49.84 22.42C49.88 22.81 49.91 23.19 49.93 23.59C49.98 24.06 50 24.52 50 24.98Z" fill="#23272E" fill-opacity="1.000000" fill-rule="evenodd"/>
	<path id="Vector_2" d="M43.28 42.05C42.14 43.26 40.89 44.36 39.53 45.33C38.17 46.3 36.73 47.13 35.21 47.82C30.33 50 24.88 50.56 19.65 49.42C14.43 48.27 9.71 45.48 6.19 41.46C2.67 37.43 0.53 32.39 0.08 27.06C-0.36 21.72 0.91 16.39 3.72 11.84C3.83 11.65 3.95 11.49 4.06 11.29C4.18 11.09 4.3 10.94 4.41 10.75C4.84 10.13 5.3 9.52 5.8 8.95C5.89 8.83 5.99 8.72 6.1 8.6C6.14 8.54 6.19 8.49 6.24 8.43C6.35 8.31 6.46 8.18 6.59 8.06L6.72 7.93L10.31 13.01C10.23 13.11 10.19 13.28 10.12 13.38C10.03 13.48 9.95 13.59 9.88 13.7C7.18 17.3 5.86 21.75 6.16 26.24C6.46 30.73 8.35 34.97 11.49 38.19C14.64 41.4 18.83 43.39 23.31 43.78C27.79 44.17 32.27 42.95 35.93 40.33L33.84 37.41L30.27 32.4C31.7 31.38 32.8 29.96 33.45 28.33C33.99 26.94 34.19 25.45 34.02 23.97C33.85 22.5 33.33 21.08 32.49 19.85C31.66 18.63 30.53 17.62 29.22 16.93C27.91 16.24 26.45 15.87 24.96 15.87C24.83 15.87 24.7 15.87 24.57 15.87C22.82 15.95 21.11 16.54 19.69 17.56L16.13 12.55C17.5 11.57 19.02 10.82 20.64 10.34C22.05 9.92 23.51 9.71 24.98 9.71C25.44 9.71 25.89 9.73 26.33 9.77C30.13 10.11 33.67 11.86 36.24 14.68C38.82 17.49 40.25 21.17 40.25 24.99C40.25 28.16 39.26 31.26 37.42 33.84L39.6 36.9L43.28 42.05Z" fill="#0059FF" fill-opacity="1.000000" fill-rule="nonzero"/>
	<path id="Vector_3" d="M30.28 32.38C29.31 33.09 28.21 33.61 27.04 33.89C25.87 34.17 24.65 34.22 23.46 34.03C22.28 33.84 21.14 33.42 20.11 32.78C19.09 32.15 18.2 31.32 17.5 30.34C16.8 29.36 16.31 28.25 16.04 27.07C15.77 25.9 15.74 24.69 15.94 23.5C16.15 22.31 16.59 21.18 17.23 20.16C17.88 19.15 18.72 18.27 19.71 17.58L30.28 32.38Z" fill="#23272E" fill-opacity="1.000000" fill-rule="evenodd"/>
</svg>
