<svg width="50.000000" height="50.000000" viewBox="0 0 50 50" fill="none" xmlns="http://www.w3.org/2000/svg" xmlns:xlink="http://www.w3.org/1999/xlink">
	<desc>
			Created with Pixso.
	</desc>
	<defs/>
	<g opacity="0.000000">
		<rect id="Прямоугольник 72" width="50.000000" height="50.000000" fill="#C4C4C4" fill-opacity="1.000000"/>
	</g>
	<path id="path" d="M38.54 13.68L35.02 13.68C34.97 13.71 34.91 13.73 34.82 13.75C34.44 14.29 34.67 14.03 34 14.48C34 15.38 34.02 15.48 34.24 16.28C34.24 16.3 34.24 16.32 34.23 16.34C34.07 16.37 33.79 16.47 33.65 16.49C33.66 16.52 33.72 17.03 33.65 17.42C33.53 18.02 32.11 19.33 31.76 19.4C31.29 19.49 30.77 19.07 29.94 18.71C29.72 18.61 28.95 18.11 28.55 17.98C28.34 17.91 28.13 18.22 28.12 18.5C28.11 18.66 28.16 18.81 28.3 18.89C28.49 18.99 28.8 19.12 28.9 19.37C29.18 20.12 28.85 22.97 28.26 23.55C27.98 23.55 27.75 23.29 27.54 23.36C27.17 23.56 27.4 24.69 27.54 24.89C29.82 27.24 29.55 28.98 30.52 30.27C30.96 30.27 30.67 30.74 31 31.29C31.09 31.57 30.98 32.05 30.93 32.24C30.93 32.47 30.93 32.71 30.93 32.94C30.91 33.02 30.88 33.09 30.86 33.16C30.86 33.37 30.86 33.58 30.86 33.78C30.79 34.09 30.71 34.49 30.65 34.77C30.51 35.37 31.04 35.83 30.72 36.39C30.72 36.74 30.72 36.67 30.52 36.96C30.52 37.5 30.39 38.63 30.52 39.04C30.61 39.31 31.62 40.5 31.87 40.61C32.49 40.89 33.39 40.83 33.1 41.79C31.3 42.34 30.16 41.48 29.2 41.47L29.16 41.63C28.54 41.63 28.06 41.48 27.92 41.44C27.92 41.27 28.12 40 28.19 39.8C28.26 39.69 28.33 39.59 28.39 39.48C28.47 39.26 28.32 37.68 28.3 37.25C27.92 36.97 27.85 36.11 27.85 35.64C27.74 35.28 27.74 34.85 27.71 34.37C27.7 34.15 27.57 33.83 27.66 33.55C27.71 33.36 27.93 33.28 27.98 33.12C27.98 32.94 27.98 32.77 27.98 32.59C28.08 32.03 28.05 31.77 27.72 31.44C26.88 31.45 26.76 31.49 26.3 30.78C26.16 30.55 24.98 28.7 24.87 28.65C23.89 28.23 24.09 28.39 23.66 27.63C23.64 27.63 23.38 27.72 23.15 28.06C22.8 28.59 22.19 30.28 22.01 30.88C21.91 31.21 22.01 31.58 21.86 31.85C21.75 32.05 21.41 32.11 21.33 32.25C20.99 32.87 21.25 32.82 20.59 33.25C20.48 33.4 20.47 33.63 20.39 33.81C20.34 33.88 20.29 33.95 20.24 34.02C20.13 34.26 20.36 34.68 20.31 34.83C20.2 35.22 20.05 35.61 19.9 35.97C19.6 36.68 19.64 37.62 19.34 38.05C19.19 38.27 18.82 38.06 18.54 38.24C18.53 38.39 18.08 39.4 18 39.68C18 40.22 18 40.76 18 41.29C18.08 41.56 18.31 41.82 18.24 42.16C18.17 42.53 16.9 42.52 16.21 42.42C15.75 42.36 15.61 42.02 15.62 41.62C15.63 41.16 16.57 38.14 16.51 37.94C15.8 37.14 16.7 36.32 16.97 35.57C17.1 35.2 17.02 34.7 17.16 34.36C17.41 33.9 17.66 33.45 17.91 32.99C18.37 32.56 18.16 32.53 18.41 32.15C18.63 31.81 18.89 31.59 18.74 31.07C18.43 30.04 19.09 28.57 19.13 27.49C19.02 27.36 18.62 27.4 18.57 27.07C18.47 26.4 18.83 25.21 19.04 25.1C19.14 25.05 19.25 25.09 19.34 25.04C19.34 24.53 18.84 21.73 19.22 21.59C19.45 21.5 19.99 21.45 20.1 21.41C20.09 21.29 20.01 21.03 19.91 21.02C19.74 21 19.4 20.93 19.13 20.87C18.29 20.67 19.06 17.42 19.07 17.41C19.19 17.26 19.49 17.28 19.79 17.28C20.11 17.28 20.44 17.27 20.51 16.99C20.86 16.54 20.23 14.73 21.45 12.56C21.86 11.83 22.65 11.1 23.57 11.41C23.88 11.51 23.76 11.96 24.3 11.48C24.32 11.21 24.19 10.97 24.11 10.75C23.99 10.37 23.94 10.02 23.95 9.7C24.05 7.71 26.5 6.81 28.34 8.14C28.58 8.23 28.72 8.28 28.9 8.42C29.01 9.02 29.62 10.11 29.01 10.82C28.77 10.87 28.46 11.01 28.28 11.14C28.27 11.39 28.3 11.23 28.35 11.38C28.39 11.51 28.47 11.56 28.27 11.64C28.24 11.65 28.25 11.74 28.27 11.77C28.77 11.86 29.3 11.67 29.63 11.54L30.03 11.54L30.03 11.04L30.13 11.04L30.22 11.04L30.22 10.6L30.41 10.6L30.41 11.32L30.91 11.32L30.92 11.62L38.54 11.62L38.54 13.68Z" fill="#FEFDEF" fill-opacity="1.000000" fill-rule="evenodd"/>
	<path id="path" d="M3.9 34L3.9 26.28L13.8 26.28C13.8 24.86 12.63 23.71 11.19 23.71L2.86 23.71C1.42 23.71 0.26 24.86 0.26 26.28L0.26 34C0.26 35.41 1.42 36.57 2.86 36.57L11.19 36.57C12.63 36.57 13.8 35.41 13.8 34L3.9 34Z" fill="#F9B621" fill-opacity="1.000000" fill-rule="evenodd"/>
	<path id="path" d="M38.8 28.85L38.8 26.28L49.21 26.28C49.21 24.86 48.05 23.71 46.61 23.71L38.28 23.71C36.84 23.71 35.67 24.86 35.67 26.28L35.67 28.85C35.67 30.27 36.84 31.42 38.28 31.42L46.61 31.42L46.61 34L35.67 34C35.67 35.41 36.84 36.57 38.28 36.57L47.13 36.57C48.57 36.57 49.73 35.41 49.73 34L49.73 31.42C49.73 30 48.57 28.85 47.13 28.85L38.8 28.85Z" fill="#F9B621" fill-opacity="1.000000" fill-rule="evenodd"/>
	<path id="path" d="M42.7 12.14L42.07 12.14C41.99 12.08 41.89 12.05 41.78 12.05L41.46 12.05C41.29 12.05 41.15 12.13 41.05 12.25L39.96 12.25L39.96 11.72C39.96 11.44 39.73 11.21 39.44 11.21L39.33 11.21L39.33 10.6C39.33 10.31 39.1 10.08 38.81 10.08L38.54 10.08C38.25 10.08 38.02 10.31 38.02 10.6L38.02 11.11L31.38 11.11C31.3 10.94 31.13 10.82 30.93 10.81L30.93 10.6C30.93 10.31 30.7 10.08 30.41 10.08L30.22 10.08C30.04 10.08 29.87 10.18 29.78 10.32C29.86 9.76 29.67 9.19 29.53 8.76C29.48 8.59 29.43 8.45 29.41 8.32C29.38 8.19 29.31 8.08 29.21 8.01C28.99 7.84 28.82 7.77 28.61 7.69C27.97 7.24 27.21 7 26.49 7C25.99 6.99 25.49 7.09 25.03 7.31C24.08 7.76 23.48 8.64 23.43 9.67C23.41 10.06 23.47 10.47 23.61 10.88C22.45 10.57 21.49 11.45 21 12.31C20.14 13.83 20.13 15.16 20.12 16.05C20.12 16.3 20.11 16.62 20.09 16.68C20.08 16.7 20.06 16.73 20.04 16.76C20 16.76 19.92 16.77 19.79 16.77L19.71 16.77C19.36 16.76 18.92 16.76 18.66 17.1C18.47 17.34 18.01 19.81 18.35 20.73C18.46 21.03 18.63 21.19 18.78 21.28C18.46 21.65 18.52 22.5 18.74 24.23C18.75 24.38 18.77 24.52 18.79 24.65C18.24 24.97 17.96 26.51 18.06 27.15C18.12 27.53 18.38 27.72 18.58 27.81C18.54 28.09 18.47 28.4 18.4 28.73C18.21 29.57 18.01 30.44 18.24 31.21C18.29 31.4 18.26 31.45 18.09 31.69C18.05 31.75 18.01 31.81 17.97 31.87C17.84 32.08 17.79 32.23 17.76 32.33C17.74 32.41 17.73 32.45 17.55 32.62C17.51 32.65 17.48 32.7 17.45 32.74L16.7 34.11C16.6 34.37 16.55 34.69 16.54 34.94C16.53 35.11 16.52 35.29 16.48 35.4C16.42 35.56 16.31 35.74 16.2 35.94C15.89 36.48 15.43 37.29 15.97 38.09C15.91 38.39 15.73 39.03 15.6 39.52C15.26 40.74 15.11 41.34 15.1 41.61C15.09 42.34 15.47 42.84 16.14 42.93C16.34 42.96 16.71 43 17.11 43C17.83 43 18.64 42.87 18.76 42.26C18.84 41.86 18.68 41.54 18.58 41.32C18.56 41.28 18.54 41.24 18.52 41.2L18.52 39.77C18.57 39.64 18.65 39.44 18.73 39.23C18.83 38.98 18.9 38.81 18.95 38.67C19.14 38.68 19.53 38.69 19.77 38.34C20 38.02 20.07 37.59 20.15 37.13C20.21 36.79 20.27 36.44 20.38 36.16C20.57 35.72 20.71 35.33 20.82 34.97C20.87 34.78 20.83 34.6 20.78 34.42C20.77 34.36 20.74 34.28 20.74 34.22L20.82 34.11C20.83 34.08 20.85 34.06 20.86 34.03C20.91 33.93 20.94 33.81 20.97 33.7C20.98 33.67 20.99 33.63 21 33.6C21.41 33.32 21.51 33.17 21.63 32.86C21.65 32.78 21.68 32.7 21.75 32.57C21.91 32.49 22.19 32.34 22.32 32.09C22.46 31.83 22.47 31.56 22.48 31.34C22.48 31.22 22.48 31.11 22.51 31.02C22.69 30.43 23.22 28.98 23.53 28.44C23.71 28.7 23.89 28.79 24.35 28.99L24.56 29.08C24.67 29.23 24.97 29.66 25.78 30.92L25.86 31.05C26.4 31.88 26.72 31.98 27.48 31.96C27.53 32.05 27.53 32.19 27.47 32.5C27.46 32.53 27.46 32.56 27.46 32.59L27.46 32.95C27.37 33.04 27.22 33.18 27.16 33.4C27.06 33.71 27.12 34.01 27.17 34.23C27.18 34.29 27.19 34.35 27.2 34.4L27.21 34.61C27.22 35 27.24 35.37 27.33 35.72C27.33 36.22 27.41 37.01 27.8 37.47C27.8 37.6 27.81 37.76 27.83 37.93C27.86 38.34 27.91 39.09 27.9 39.28L27.75 39.53C27.72 39.56 27.71 39.6 27.69 39.64C27.61 39.9 27.4 41.23 27.4 41.44C27.4 41.66 27.54 41.86 27.76 41.93C27.96 41.99 28.49 42.15 29.15 42.15C29.29 42.16 29.41 42.1 29.5 42.02C29.68 42.06 29.87 42.11 30.08 42.17C30.58 42.32 31.19 42.48 31.93 42.48C32.33 42.48 32.77 42.43 33.25 42.29C33.42 42.23 33.55 42.11 33.6 41.94C33.71 41.55 33.7 41.21 33.55 40.94C33.31 40.52 32.85 40.38 32.48 40.27C32.34 40.24 32.21 40.2 32.12 40.16C31.9 40.02 31.11 39.1 31.01 38.88C30.95 38.69 30.99 38.02 31.01 37.61C31.02 37.44 31.03 37.27 31.03 37.13C31.2 36.91 31.24 36.79 31.24 36.51C31.43 36.07 31.32 35.67 31.23 35.37C31.17 35.15 31.13 35.01 31.16 34.89C31.19 34.74 31.23 34.56 31.26 34.38C31.3 34.22 31.33 34.04 31.36 33.9C31.37 33.86 31.38 33.82 31.38 33.79L31.38 33.25L31.42 33.1C31.44 33.05 31.45 33 31.45 32.94L31.45 32.3C31.57 31.81 31.59 31.42 31.5 31.14C31.49 31.1 31.47 31.06 31.45 31.03C31.36 30.88 31.34 30.74 31.33 30.59C31.31 30.42 31.25 29.96 30.82 29.81C30.58 29.42 30.42 28.97 30.25 28.46C29.88 27.42 29.44 26.12 27.97 24.59C27.92 24.46 27.87 24.2 27.86 23.98C27.97 24.03 28.11 24.06 28.26 24.06C28.4 24.08 28.53 24.01 28.63 23.91C29.41 23.15 29.72 20.08 29.38 19.19C29.34 19.07 29.27 18.97 29.2 18.88C29.22 18.9 29.24 18.91 29.26 18.92C29.46 19.04 29.64 19.14 29.73 19.18C29.97 19.28 30.18 19.39 30.37 19.49C30.9 19.76 31.36 20 31.87 19.9C32.42 19.79 34.01 18.31 34.16 17.51C34.2 17.31 34.2 17.09 34.2 16.89C34.23 16.89 34.26 16.88 34.29 16.87C34.45 16.84 34.59 16.75 34.67 16.6C34.76 16.47 34.78 16.31 34.74 16.15C34.56 15.46 34.52 15.34 34.52 14.75C34.58 14.72 34.62 14.69 34.66 14.67C34.9 14.53 34.95 14.47 35.14 14.2L38.21 14.2C38.47 14.2 38.67 14.01 38.71 13.77L39.44 13.77C39.6 13.77 39.75 13.69 39.85 13.57L41.05 13.57C41.15 13.69 41.29 13.77 41.46 13.77L41.78 13.77C41.89 13.77 41.99 13.73 42.07 13.68L42.7 13.68C42.99 13.68 43.22 13.45 43.22 13.17L43.22 12.65C43.22 12.37 42.99 12.14 42.7 12.14ZM35.02 13.17C34.94 13.17 34.86 13.19 34.79 13.22C34.76 13.24 34.75 13.24 34.73 13.24C34.59 13.27 34.47 13.35 34.4 13.46L34.29 13.61C34.24 13.69 34.21 13.73 34.2 13.74C34.18 13.75 34.16 13.77 34.13 13.79C34.04 13.84 33.91 13.91 33.7 14.05C33.56 14.15 33.48 14.31 33.48 14.48C33.48 15.23 33.5 15.47 33.62 15.97C33.6 15.98 33.57 15.98 33.55 15.99C33.28 16.04 33.1 16.29 33.14 16.56C33.15 16.68 33.18 17.06 33.14 17.32C33.06 17.68 31.94 18.77 31.66 18.89C31.51 18.91 31.19 18.76 30.85 18.58C30.64 18.47 30.41 18.35 30.15 18.24C30.08 18.21 29.95 18.13 29.79 18.03C29.43 17.83 29.02 17.59 28.72 17.49C28.5 17.42 28.26 17.45 28.07 17.58C27.8 17.76 27.62 18.11 27.6 18.48C27.58 18.86 27.75 19.18 28.06 19.34L28.12 19.37C28.2 19.41 28.38 19.51 28.41 19.56C28.62 20.11 28.37 22.17 28.04 22.94C27.87 22.86 27.64 22.78 27.38 22.87C27.35 22.88 27.31 22.89 27.29 22.91C27.14 22.99 26.95 23.16 26.86 23.5C26.73 24.05 26.92 24.91 27.11 25.18C27.12 25.2 27.14 25.23 27.16 25.25C28.51 26.64 28.91 27.78 29.26 28.8C29.48 29.43 29.69 30.03 30.1 30.58C30.15 30.64 30.22 30.7 30.29 30.73C30.32 30.92 30.35 31.19 30.51 31.48C30.52 31.56 30.52 31.76 30.43 32.11C30.41 32.15 30.41 32.19 30.41 32.24L30.41 32.86L30.36 33C30.34 33.06 30.34 33.11 30.34 33.16L30.34 33.73C30.3 33.87 30.27 34.03 30.24 34.18C30.21 34.35 30.17 34.52 30.14 34.66C30.05 35.05 30.15 35.39 30.23 35.65C30.31 35.93 30.33 36.03 30.27 36.15C30.22 36.22 30.2 36.31 30.2 36.4C30.2 36.45 30.2 36.48 30.2 36.51L30.1 36.65C30.03 36.74 30 36.85 30 36.95C30 37.11 29.98 37.33 29.97 37.55C29.93 38.3 29.91 38.85 30.02 39.19C30.14 39.58 31.24 40.9 31.66 41.08C31.84 41.16 32.02 41.21 32.18 41.26C32.3 41.3 32.49 41.35 32.58 41.39C31.71 41.57 31 41.37 30.38 41.19C29.98 41.07 29.6 40.96 29.21 40.95C29.06 40.96 28.93 41.01 28.84 41.1C28.71 41.09 28.59 41.07 28.49 41.05C28.55 40.69 28.63 40.19 28.67 40.01L28.84 39.75C28.86 39.72 28.87 39.68 28.89 39.64C28.96 39.44 28.95 39.11 28.87 37.86C28.85 37.59 28.83 37.36 28.83 37.24C28.82 37.08 28.75 36.93 28.62 36.84C28.53 36.77 28.37 36.36 28.37 35.64C28.37 35.59 28.36 35.54 28.35 35.5C28.27 35.25 28.26 34.94 28.25 34.57L28.24 34.35C28.23 34.26 28.21 34.15 28.19 34.03C28.17 33.92 28.14 33.76 28.14 33.74C28.15 33.72 28.17 33.7 28.19 33.68C28.28 33.6 28.41 33.48 28.47 33.29C28.49 33.23 28.5 33.18 28.5 33.12L28.5 32.64C28.61 32 28.57 31.56 28.09 31.08C27.99 30.98 27.86 30.93 27.71 30.93L27.59 30.93C27.02 30.94 27.02 30.94 26.74 30.5L26.66 30.37C25.33 28.29 25.27 28.26 25.08 28.18L24.76 28.04C24.39 27.89 24.39 27.89 24.25 27.63L24.12 27.39C24.03 27.22 23.85 27.12 23.66 27.12C23.41 27.12 23.01 27.35 22.72 27.78C22.3 28.41 21.66 30.24 21.51 30.74C21.45 30.94 21.44 31.14 21.44 31.31C21.43 31.41 21.43 31.52 21.41 31.58C21.39 31.6 21.34 31.62 21.31 31.64C21.17 31.71 20.98 31.81 20.88 32C20.74 32.24 20.69 32.4 20.65 32.51C20.63 32.54 20.63 32.57 20.61 32.59C20.6 32.61 20.56 32.66 20.3 32.83C20.26 32.86 20.22 32.9 20.18 32.94C20.05 33.11 20 33.3 19.96 33.45C19.95 33.49 19.94 33.53 19.93 33.57L19.82 33.73C19.8 33.75 19.78 33.78 19.77 33.81C19.63 34.11 19.71 34.43 19.77 34.67C19.78 34.7 19.79 34.74 19.79 34.76C19.7 35.07 19.58 35.4 19.42 35.77C19.26 36.16 19.18 36.58 19.12 36.96C19.08 37.2 19.03 37.47 18.97 37.65C18.79 37.64 18.52 37.64 18.26 37.81C18.13 37.89 18.05 38 18.03 38.15C18.01 38.24 17.86 38.61 17.77 38.85C17.65 39.13 17.54 39.41 17.5 39.53C17.49 39.58 17.48 39.63 17.48 39.69L17.48 41.29C17.48 41.34 17.49 41.39 17.5 41.44C17.53 41.55 17.58 41.66 17.64 41.76C17.66 41.83 17.69 41.88 17.71 41.92C17.41 41.98 16.81 41.99 16.29 41.92C16.2 41.9 16.14 41.89 16.14 41.64C16.15 41.44 16.42 40.44 16.6 39.79C17.05 38.15 17.07 38.01 17.01 37.81C16.99 37.73 16.95 37.66 16.9 37.61C16.66 37.33 16.74 37.1 17.11 36.44C17.24 36.22 17.37 35.98 17.46 35.74C17.55 35.5 17.56 35.24 17.58 35.01C17.59 34.84 17.6 34.67 17.63 34.58L18.33 33.3C18.63 33 18.7 32.82 18.76 32.62C18.78 32.55 18.8 32.51 18.85 32.42C18.89 32.37 18.92 32.33 18.95 32.28C19.15 31.99 19.43 31.59 19.24 30.93C19.09 30.41 19.25 29.67 19.42 28.95C19.52 28.47 19.64 27.96 19.66 27.51C19.66 27.37 19.61 27.24 19.52 27.14C19.38 27 19.22 26.94 19.1 26.91C19.07 26.48 19.22 25.84 19.34 25.57C19.42 25.56 19.52 25.54 19.62 25.47C19.77 25.38 19.86 25.22 19.86 25.04C19.86 24.87 19.83 24.59 19.77 24.11C19.71 23.6 19.57 22.48 19.6 22.02C19.69 22.01 19.79 21.99 19.86 21.98C20.09 21.94 20.21 21.92 20.32 21.87C20.51 21.78 20.63 21.59 20.62 21.38C20.61 21.16 20.47 20.58 19.99 20.51C19.84 20.49 19.57 20.44 19.32 20.38C19.16 20.01 19.33 18.62 19.52 17.8C19.58 17.79 19.65 17.79 19.7 17.8L19.78 17.8C20.06 17.79 20.76 17.8 20.98 17.22C21.15 16.93 21.16 16.56 21.16 16.06C21.17 15.23 21.18 14.1 21.91 12.81C21.97 12.69 22.58 11.67 23.36 11.88C23.42 11.97 23.58 12.18 23.87 12.21C24.18 12.24 24.43 12.06 24.65 11.87C24.76 11.78 24.82 11.65 24.82 11.51C24.84 11.19 24.74 10.93 24.66 10.73C24.64 10.68 24.62 10.63 24.61 10.58C24.51 10.28 24.46 9.99 24.47 9.72C24.5 9.06 24.87 8.52 25.48 8.23C26.26 7.86 27.24 7.98 28.03 8.55C28.06 8.57 28.1 8.59 28.14 8.61L28.22 8.64C28.31 8.68 28.38 8.71 28.44 8.74C28.47 8.84 28.5 8.95 28.54 9.07C28.72 9.61 28.84 10.07 28.69 10.38C28.44 10.46 28.17 10.59 27.97 10.73C27.84 10.82 27.76 10.97 27.76 11.14C27.76 11.21 27.75 11.32 27.79 11.44C27.71 11.62 27.74 11.85 27.79 11.97C27.86 12.13 28 12.24 28.17 12.27C28.74 12.39 29.32 12.21 29.73 12.05L30.03 12.05C30.2 12.05 30.35 11.97 30.45 11.85C30.53 12.02 30.71 12.14 30.92 12.14L38.02 12.14L38.02 13.12L35.02 13.17Z" fill="#1F212B" fill-opacity="1.000000" fill-rule="nonzero"/>
	<path id="path" d="M11.19 36.82L2.86 36.82C1.28 36.82 0 35.55 0 34L0 26.28C0 24.72 1.28 23.45 2.86 23.45L11.19 23.45C12.77 23.45 14.06 24.72 14.06 26.28C14.06 26.42 13.94 26.54 13.8 26.54L4.16 26.54L4.16 33.74L13.8 33.74C13.94 33.74 14.06 33.85 14.06 34C14.06 35.55 12.77 36.82 11.19 36.82ZM2.86 23.97C1.57 23.97 0.52 25 0.52 26.28L0.52 34C0.52 35.27 1.57 36.31 2.86 36.31L11.19 36.31C12.4 36.31 13.39 35.41 13.52 34.25L3.9 34.25C3.76 34.25 3.64 34.14 3.64 34L3.64 26.28C3.64 26.14 3.76 26.02 3.9 26.02L13.52 26.02C13.39 24.87 12.4 23.97 11.19 23.97L2.86 23.97Z" fill="#1F212B" fill-opacity="1.000000" fill-rule="nonzero"/>
	<path id="path" d="M47.13 36.82L38.28 36.82C36.7 36.82 35.41 35.55 35.41 34C35.41 33.85 35.53 33.74 35.67 33.74L46.35 33.74L46.35 31.68L38.28 31.68C36.7 31.68 35.41 30.41 35.41 28.85L35.41 26.28C35.41 24.72 36.7 23.45 38.28 23.45L46.61 23.45C48.19 23.45 49.47 24.72 49.47 26.28C49.47 26.42 49.36 26.54 49.21 26.54L39.06 26.54L39.06 28.6L47.13 28.6C48.71 28.6 50 29.86 50 31.42L50 34C50 35.55 48.71 36.82 47.13 36.82ZM35.95 34.25C36.08 35.41 37.07 36.31 38.28 36.31L47.13 36.31C48.42 36.31 49.47 35.27 49.47 34L49.47 31.42C49.47 30.15 48.42 29.11 47.13 29.11L38.8 29.11C38.65 29.11 38.54 28.99 38.54 28.85L38.54 26.28C38.54 26.14 38.65 26.02 38.8 26.02L48.94 26.02C48.81 24.87 47.81 23.97 46.61 23.97L38.28 23.97C36.98 23.97 35.93 25 35.93 26.28L35.93 28.85C35.93 30.13 36.98 31.17 38.28 31.17L46.61 31.17C46.75 31.17 46.87 31.28 46.87 31.42L46.87 34C46.87 34.14 46.75 34.25 46.61 34.25L35.95 34.25Z" fill="#1F212B" fill-opacity="1.000000" fill-rule="nonzero"/>
	<path id="path" d="M32.59 13.78C32.4 13.65 31.82 13.63 31.56 13.84C31.42 13.96 31.37 14.13 31.43 14.33C31.41 14.33 31.39 14.33 31.36 14.33C31.29 14.33 31.23 14.36 31.18 14.41C31.13 14.45 31.1 14.52 31.1 14.59L31.1 14.78L30.98 14.78C30.91 14.78 30.84 14.81 30.79 14.87C30.74 14.92 30.72 14.99 30.73 15.06C30.76 15.42 31.03 15.84 31.23 16.14C31.28 16.21 31.36 16.25 31.45 16.25C31.78 16.25 32.05 15.84 32.36 15.31L32.44 15.17C32.47 15.12 32.48 15.07 32.47 15.01C32.52 14.99 32.57 14.96 32.6 14.91C32.79 14.61 32.96 14.04 32.59 13.78Z" fill="#1F212B" fill-opacity="1.000000" fill-rule="nonzero"/>
</svg>
