<svg width="50.000000" height="50.000000" viewBox="0 0 50 50" fill="none" xmlns="http://www.w3.org/2000/svg" xmlns:xlink="http://www.w3.org/1999/xlink">
	<desc>
			Created with Pixso.
	</desc>
	<defs/>
	<g opacity="0.000000">
		<rect id="Прямоугольник 64" width="50.000000" height="50.000000" fill="#C4C4C4" fill-opacity="1.000000"/>
	</g>
	<path id="path" d="M16.64 39.07C16.53 39.18 16.37 39.34 16.26 39.44C16.17 39.52 16.06 39.62 15.97 39.69C15.94 39.73 15.85 39.8 15.81 39.83C15.73 39.9 15.65 39.96 15.56 40.02C15.51 40.05 15.45 40.11 15.4 40.15C15.27 40.24 15.14 40.33 15 40.42C14.9 40.49 14.79 40.55 14.69 40.61C14.46 40.75 14.24 40.87 14 40.98C13.93 41.02 13.87 41.05 13.79 41.08C13.72 41.12 13.65 41.15 13.58 41.18C13.52 41.2 13.43 41.25 13.37 41.27C13.3 41.3 13.22 41.33 13.15 41.36C12.66 41.54 12.16 41.69 11.64 41.79C11.57 41.81 11.5 41.82 11.43 41.83C11.16 41.88 10.89 41.92 10.62 41.95C10.54 41.95 10.47 41.96 10.39 41.97C10.25 41.98 10.07 41.99 9.93 41.99C9.83 41.99 9.73 42 9.62 42C9.48 42 9.34 41.99 9.21 41.99C9.1 41.98 8.99 41.98 8.88 41.97C8.76 41.96 8.64 41.95 8.52 41.94C8.41 41.92 8.3 41.91 8.2 41.89C8.03 41.87 7.85 41.84 7.68 41.81C7.57 41.79 7.46 41.76 7.35 41.73C7.24 41.71 6.99 41.65 6.88 41.61C6.76 41.58 6.65 41.54 6.53 41.51C6.41 41.47 6.24 41.41 6.13 41.36C6.01 41.32 5.83 41.25 5.72 41.2C5.59 41.15 5.47 41.09 5.35 41.03C5.22 40.97 5.09 40.91 4.97 40.84C4.85 40.78 4.74 40.72 4.63 40.66C4.3 40.46 3.98 40.25 3.68 40.02C3.62 39.98 3.46 39.85 3.41 39.81C3.35 39.76 3.3 39.72 3.25 39.67C3.17 39.61 3.1 39.55 3.03 39.48C2.68 39.16 2.35 38.82 2.05 38.45C1.99 38.38 1.93 38.31 1.88 38.23C1.71 38.01 1.55 37.78 1.39 37.54C0.83 36.64 0.42 35.65 0.19 34.6C0.18 34.53 0.16 34.45 0.15 34.38C0.05 33.84 0 33.29 0 32.73L0 13.68C0 13.51 0.01 13.22 0.02 13.05C0.03 12.97 0.04 12.9 0.04 12.82C0.05 12.75 0.07 12.63 0.08 12.56C0.09 12.45 0.12 12.33 0.14 12.22C0.16 12.11 0.19 12 0.22 11.89C0.25 11.78 0.28 11.67 0.32 11.57C0.35 11.46 0.39 11.36 0.43 11.27C0.46 11.2 0.51 11.08 0.54 11.01C0.57 10.93 0.61 10.86 0.64 10.78C0.66 10.72 0.69 10.67 0.72 10.61C0.76 10.55 0.79 10.48 0.83 10.42C0.87 10.34 0.93 10.25 0.98 10.17C2.18 8.27 4.35 7 6.82 7C10.59 7 13.64 9.94 13.64 13.56L13.64 24.31L13.64 31.15C13.64 32.09 13.56 33.08 13.61 34.03C13.61 34.13 13.61 34.3 13.62 34.4C13.63 34.5 13.63 34.59 13.64 34.69C13.66 34.88 13.69 35.07 13.73 35.25C13.75 35.32 13.76 35.38 13.78 35.45C13.81 35.58 13.85 35.7 13.89 35.83C13.97 36.04 14.08 36.33 14.18 36.53C14.2 36.58 14.23 36.64 14.26 36.69C14.29 36.75 14.35 36.86 14.39 36.92C14.43 36.98 14.54 37.15 14.57 37.21C14.61 37.26 14.68 37.35 14.72 37.41C14.89 37.62 15.15 37.94 15.35 38.12C15.39 38.16 15.56 38.32 15.6 38.35C15.64 38.39 15.75 38.48 15.79 38.51C15.85 38.56 15.91 38.6 15.96 38.64C16.03 38.69 16.1 38.74 16.17 38.79C16.32 38.89 16.48 38.99 16.64 39.07Z" fill="#1BB394" fill-opacity="1.000000" fill-rule="nonzero"/>
	<path id="path" d="M34.82 39.07C34.71 39.18 34.56 39.34 34.45 39.44C34.36 39.52 34.25 39.62 34.15 39.7C34.12 39.73 34.03 39.8 33.99 39.83C33.91 39.9 33.83 39.96 33.75 40.02C33.7 40.05 33.63 40.11 33.58 40.15C33.45 40.24 33.32 40.33 33.19 40.42C33.08 40.49 32.98 40.55 32.87 40.61C32.65 40.75 32.42 40.87 32.19 40.98C32.12 41.02 32.05 41.05 31.98 41.08C31.91 41.12 31.84 41.15 31.77 41.18C31.71 41.2 31.61 41.25 31.55 41.27C31.48 41.3 31.41 41.33 31.34 41.36C30.85 41.54 30.34 41.69 29.82 41.79C29.75 41.81 29.68 41.82 29.62 41.83C29.35 41.88 29.08 41.92 28.8 41.95C28.73 41.95 28.65 41.96 28.57 41.97C28.44 41.98 28.25 41.99 28.11 41.99C28.01 41.99 27.91 42 27.81 42C27.67 42 27.53 41.99 27.39 41.99C27.28 41.98 27.17 41.98 27.07 41.97C26.94 41.96 26.82 41.95 26.7 41.94C26.6 41.92 26.49 41.91 26.38 41.89C26.21 41.87 26.04 41.84 25.87 41.81C25.75 41.79 25.64 41.76 25.53 41.73C25.42 41.71 25.17 41.65 25.06 41.61C24.95 41.58 24.83 41.54 24.72 41.51C24.6 41.47 24.43 41.41 24.31 41.36C24.19 41.32 24.02 41.25 23.9 41.2C23.78 41.15 23.65 41.09 23.53 41.03C23.4 40.97 23.28 40.91 23.15 40.84C23.04 40.78 22.92 40.72 22.82 40.66C22.49 40.46 22.17 40.25 21.86 40.02C21.8 39.98 21.65 39.85 21.59 39.81C21.54 39.76 21.48 39.72 21.43 39.67C21.36 39.61 21.29 39.55 21.21 39.48C20.86 39.16 20.53 38.82 20.24 38.45C20.18 38.38 20.12 38.31 20.06 38.23C19.89 38.01 19.73 37.78 19.58 37.54C19.02 36.64 18.6 35.65 18.38 34.6C18.36 34.53 18.35 34.45 18.33 34.38C18.23 33.84 18.18 33.29 18.18 32.73L18.19 13.68C18.19 13.51 18.19 13.22 18.21 13.05C18.21 12.97 18.22 12.9 18.23 12.82C18.24 12.75 18.25 12.63 18.26 12.56C18.28 12.45 18.3 12.33 18.32 12.22C18.35 12.11 18.38 12 18.41 11.89C18.43 11.78 18.47 11.67 18.5 11.57C18.54 11.46 18.57 11.36 18.61 11.27C18.64 11.2 18.69 11.08 18.72 11.01C18.75 10.93 18.79 10.86 18.82 10.78C18.85 10.72 18.88 10.67 18.91 10.61C18.94 10.55 18.97 10.48 19.01 10.42C19.06 10.34 19.11 10.25 19.16 10.17C20.36 8.27 22.52 7 25 7C28.77 7 31.82 9.94 31.82 13.56L31.82 24.31L31.81 31.15C31.81 32.1 31.74 33.08 31.79 34.03C31.79 34.13 31.79 34.3 31.8 34.4C31.8 34.5 31.81 34.59 31.82 34.69C31.84 34.88 31.87 35.07 31.91 35.25C31.93 35.32 31.94 35.39 31.96 35.45C31.99 35.58 32.02 35.7 32.07 35.83C32.14 36.04 32.25 36.33 32.35 36.53C32.38 36.58 32.41 36.64 32.44 36.69C32.47 36.75 32.53 36.87 32.57 36.92C32.61 36.98 32.71 37.15 32.75 37.21C32.79 37.27 32.85 37.36 32.89 37.41C33.06 37.62 33.33 37.94 33.52 38.13C33.56 38.16 33.74 38.32 33.78 38.35C33.82 38.39 33.92 38.48 33.97 38.52C34.03 38.56 34.08 38.6 34.14 38.64C34.21 38.7 34.28 38.74 34.35 38.79C34.51 38.89 34.66 38.99 34.82 39.07Z" fill="#1BB394" fill-opacity="1.000000" fill-rule="nonzero"/>
	<path id="path" d="M43.18 37.6C39.41 37.6 36.36 34.66 36.36 31.04L36.36 13.56C36.36 9.93 39.41 7 43.18 7C46.94 7 50 9.93 50 13.56L50 31.03C50 34.66 46.94 37.6 43.18 37.6Z" fill="#1BB394" fill-opacity="1.000000" fill-rule="nonzero"/>
</svg>
