<svg width="50" height="50" viewBox="0 0 50 50" fill="none" xmlns="http://www.w3.org/2000/svg">
<path d="M49.023 29.9712L48.4371 29.7443C48.2457 29.6696 48.0433 29.6334 47.8433 29.6334C47.7316 29.6334 47.6199 29.6445 47.5105 29.6674C47.4894 29.6608 47.4683 29.6541 47.4473 29.6475C47.2379 29.4154 46.9535 29.2446 46.627 29.1693L46.5629 29.1493C46.4598 29.1175 46.3176 29.0732 46.1387 29.0384C45.7668 28.8322 45.4012 28.7029 45.0309 28.6497C44.9832 28.6297 44.9348 28.612 44.8848 28.5965C44.7536 28.5469 44.5543 28.4738 44.3043 28.4479C44.2168 28.439 44.102 28.4213 44.0504 28.3895C43.7247 28.184 43.3262 28.0754 42.8989 28.0754C42.8567 28.0754 42.8161 28.0761 42.7755 28.0783C42.7442 28.0665 42.6802 28.0392 42.5739 27.9793C42.2669 27.8078 41.9497 27.7295 41.7005 27.6874C41.3482 27.4449 40.9841 27.3725 40.7974 27.3356C40.4833 27.255 40.2919 27.2225 40.0693 27.184L39.9013 27.1545C39.8372 27.1426 39.756 27.1175 39.6529 27.0857C39.5177 27.0436 39.349 26.9911 39.1459 26.9483C38.8357 26.5846 38.3685 26.3296 37.8045 26.3296C37.7123 26.3296 37.6053 26.3385 37.5139 26.354C37.3904 26.3747 37.2779 26.4072 37.1756 26.4464C37.1639 26.4457 37.1521 26.4457 37.1412 26.4449C37.099 26.422 37.0553 26.4006 37.0115 26.3799C37.0123 26.3614 37.0139 26.3407 37.0146 26.3186C37.2685 26.068 37.431 25.7332 37.449 25.3607L37.7373 19.2506C37.7459 19.0658 37.7178 18.8832 37.656 18.7103C37.7271 18.4479 37.7209 18.1715 37.6365 17.9106L37.6553 17.5152C37.6631 17.3511 37.642 17.187 37.5928 17.0288C37.5576 16.9165 37.4342 16.5314 37.3217 16.2831C37.1725 15.9549 36.9225 15.5839 36.8498 15.4782C36.642 15.1766 36.3264 14.9593 35.9639 14.8633C35.9608 14.8618 35.9576 14.8603 35.9545 14.8588L35.9537 14.8455C35.9381 14.6334 35.8756 14.4346 35.7764 14.2572L35.7412 13.728C35.6897 12.952 35.0116 12.3466 34.1897 12.3429C34.1874 12.3429 34.1842 12.3429 34.1819 12.3429C33.4749 12.3429 32.871 12.7894 32.6811 13.4087C32.2944 13.6585 32.0327 14.0695 32.0022 14.5403L31.9616 15.1737C31.9319 15.2254 31.9054 15.2794 31.8819 15.3356L31.7593 15.6305L31.7226 15.6608C31.4632 15.8766 31.2874 16.167 31.221 16.4878L31.0773 17.1848L31.0249 16.9579C31.0538 16.6016 31.103 15.9231 31.1015 15.5248C31.1007 15.3141 31.1007 15.1988 31.321 14.7554C31.4366 14.5225 31.4866 14.2646 31.4648 14.0074L31.4132 13.3999C31.4023 13.2683 31.3726 13.139 31.3249 13.0148C31.057 12.3149 30.8945 12.088 30.8406 12.0133C30.796 11.952 30.7476 11.8936 30.6937 11.8389C30.6507 11.7953 30.6031 11.7509 30.5429 11.7029C30.5366 11.6933 30.5296 11.6844 30.5234 11.6748L30.5171 11.6445C30.3906 11.0325 29.8742 10.5684 29.2367 10.4693C29.1382 10.2772 28.9976 10.1086 28.8265 9.97413C28.6906 9.2816 28.05 8.76718 27.2906 8.76718C27.2859 8.76718 27.2805 8.76718 27.2758 8.76718C26.4508 8.77458 25.7742 9.38729 25.7305 10.1663L25.661 11.4065C25.5485 11.5861 25.4774 11.7864 25.4524 11.9948L25.3297 12.1345C25.0993 12.3976 24.9719 12.728 24.9704 13.0702C24.9696 13.1316 24.9625 13.255 24.9516 13.3208C24.9375 13.4028 24.9032 13.4893 24.8922 13.5137C24.786 13.7265 24.7446 13.9416 24.7532 14.1766L24.775 14.762C24.7758 14.7783 24.7782 14.7945 24.779 14.8101L24.6625 14.303C24.7446 14.0569 24.7571 13.7923 24.6961 13.5366L24.6711 13.4309C24.6719 13.4095 24.6727 13.3895 24.6735 13.3725C24.6758 13.3186 24.6821 13.1907 24.6454 12.7576C24.6266 12.5307 24.5524 12.3119 24.429 12.1175C24.3915 11.915 24.3094 11.7243 24.1907 11.5558C24.1712 11.3925 24.1243 11.2373 24.0532 11.0946L24.0102 10.5743C23.9712 10.1005 23.6985 9.69254 23.304 9.45011L23.3009 9.39394C23.2548 8.63119 22.6009 8.02735 21.7939 8.00148C21.779 8 21.761 8 21.7431 8C20.9587 8 20.2923 8.55211 20.1939 9.29342L20.0634 10.2742C20.0173 10.3459 19.9767 10.422 19.9439 10.5018C19.5283 10.6622 19.2908 10.8891 19.1752 11.0015C19.0423 11.1027 18.9361 11.2018 18.8572 11.2764C18.8306 11.3016 18.8049 11.3274 18.7767 11.3503C18.4549 11.6075 18.1447 11.8869 17.8877 12.4486C17.6142 12.6888 17.4353 13.0185 17.3963 13.3821L17.3221 14.0724C17.3197 14.0695 17.3182 14.0658 17.3158 14.0628L17.2189 12.9424C17.1533 12.1781 16.4807 11.5883 15.6705 11.5839C15.6674 11.5839 15.6643 11.5839 15.6612 11.5839C15.0455 11.5839 14.5065 11.9224 14.2534 12.4213C13.9792 12.507 13.7362 12.663 13.551 12.8707C13.3706 12.8995 13.1964 12.9579 13.0362 13.0436C13.037 13.0436 13.037 13.0429 13.037 13.0429C13.0362 13.0429 12.9815 13.0687 12.887 13.1042C12.8573 13.1101 12.83 13.1153 12.8253 13.116C12.5792 13.1611 12.3464 13.2624 12.1503 13.4095L11.7847 13.6837C11.4347 13.9468 11.2198 14.3392 11.1956 14.7613L11.1816 15.0089L11.0308 15.32C10.9402 15.507 10.8917 15.7095 10.8886 15.915L10.8816 16.3784C10.8808 16.4479 10.8847 16.5174 10.8941 16.5861C10.8925 16.6127 10.8917 16.6386 10.8917 16.6659L10.8909 16.7953C10.8909 16.833 10.8917 16.8707 10.8948 16.9076C10.8917 16.9468 10.8902 16.9867 10.8902 17.0259V18.133L10.6495 19.0532C10.6214 19.1619 10.6058 19.2727 10.6042 19.3836C10.5581 19.3725 10.505 19.3599 10.4433 19.3444C10.3011 19.3089 10.1871 19.2905 10.0667 19.2742C10.0644 19.2742 10.0628 19.2735 10.0613 19.2735C9.97612 19.2003 9.90424 19.1456 9.85346 19.1123C9.68862 19.0022 9.52144 18.929 9.36363 18.8795C9.03942 18.456 8.54568 18.2809 8.20506 18.2461C8.14959 18.2402 8.09334 18.2373 8.03788 18.2373C7.84647 18.2373 7.66132 18.2683 7.48632 18.3252C7.33945 18.3075 7.17695 18.2979 6.99571 18.2979C6.89727 18.2979 6.78634 18.3001 6.65978 18.3052C6.65587 18.3052 6.65275 18.3052 6.64884 18.306C6.4215 18.2432 6.17854 18.218 5.88323 18.204C5.84104 18.2018 5.79651 18.1966 5.75042 18.1922C5.61449 18.1789 5.44496 18.1619 5.25199 18.1619C5.16762 18.1619 5.08403 18.1656 5.002 18.1722C4.75982 18.1929 4.52857 18.2446 4.30279 18.3304C3.97233 18.0599 3.54109 17.898 3.07938 17.898C2.77392 17.898 2.47314 17.9712 2.20987 18.1101C2.16924 18.1316 2.13252 18.1523 2.09815 18.1722C2.06299 18.1663 2.02706 18.1604 1.98956 18.1559C1.91768 18.1463 1.82159 18.1404 1.74894 18.1404C1.18098 18.1404 0.645834 18.4065 0.318497 18.8529C-0.0104032 19.3008 -0.0900892 19.8662 0.105219 20.3651C0.261466 20.7635 0.578648 21.1072 0.963015 21.3326C0.952859 22.0761 1.38879 22.7428 2.13174 23.051L2.18174 23.0776C2.39033 23.1855 2.77939 23.3873 3.31531 23.3873C3.34969 23.3873 3.38328 23.3865 3.41687 23.3851C3.55906 23.5595 3.70124 23.6874 3.79499 23.7716C4.00514 23.9601 4.26686 24.0939 4.5481 24.1604C4.61294 24.3673 4.72466 24.5854 4.91216 24.7864C5.25434 25.153 5.72386 25.3452 6.309 25.3577C6.32072 25.3577 6.37072 25.3585 6.38244 25.3585C6.86602 25.3585 7.24648 25.2513 7.54101 25.105C7.6246 25.1197 7.70976 25.1308 7.79647 25.1367C7.92928 25.1456 8.10272 25.1899 8.38396 25.4494C8.65739 25.7147 9.02536 26.003 9.66753 26.1094C9.76128 26.1301 9.85971 26.1449 9.96284 26.1545C9.96987 26.1582 9.9769 26.1611 9.98393 26.1648C10.3449 26.3385 10.6995 26.3548 10.9581 26.3666C10.9675 26.3673 10.9769 26.3673 10.987 26.3681C11.005 26.3755 11.0238 26.3821 11.0425 26.3895C11.0589 26.5299 11.0972 26.6659 11.1534 26.7945L11.2027 32.4479C11.2066 32.9409 11.4667 33.3777 11.8636 33.643L11.8612 34.9941C11.8612 35.1367 11.8823 35.2786 11.9253 35.4146L11.9761 35.578L11.9886 36.8625C11.9894 36.9549 11.9995 37.0466 12.0183 37.1367L12.1589 37.8049L12.2995 40.0569C12.3479 40.8307 13.0198 41.4383 13.8401 41.4479C13.8464 41.4479 13.8534 41.4479 13.8596 41.4479C14.6706 41.4479 15.3479 40.8603 15.4166 40.0939L15.608 37.9424C15.6205 37.8041 15.6119 37.6652 15.583 37.5292V37.4117L15.6502 37.2794C15.7416 37.099 15.7932 36.9032 15.8026 36.7036C16.0362 36.4597 16.1846 36.1404 16.2033 35.7871L16.4729 30.7391C16.4791 30.6194 16.4705 30.4989 16.4463 30.3821L16.4783 30.3119C16.5651 30.1212 16.608 29.915 16.6049 29.7073L16.5979 29.2624C16.5963 29.1656 16.5846 29.0687 16.5635 28.9749V28.8093C16.5947 28.7339 16.619 28.6548 16.6369 28.5728L16.751 28.0517C16.7611 28.0044 16.769 27.9571 16.7744 27.9091C16.8799 27.9542 16.9893 27.9882 17.1002 28.0096C17.1658 28.031 17.233 28.0488 17.3018 28.0621L18.322 28.5765C18.4072 28.6194 18.4963 28.6548 18.5877 28.6822V29.1256C18.5877 29.289 18.6166 29.4516 18.6728 29.6061L18.883 30.1848L18.8853 31.5432C18.8853 31.6615 18.9009 31.7797 18.9306 31.8943L19.072 32.4361L19.0486 34.2446C19.0478 34.2846 19.0494 34.3245 19.0525 34.3636L19.2736 37.4095C19.2892 37.6208 19.3502 37.8182 19.4486 37.9948L19.4478 38.3466C19.447 38.5218 19.4798 38.6948 19.5431 38.8588L19.6119 39.037L19.7369 40.6312C19.797 41.4006 20.4728 41.997 21.2884 42C21.2907 42 21.2931 42 21.2954 42C22.1079 42 22.786 41.4102 22.8524 40.643L23.0852 37.9697C23.0884 37.9327 23.0899 37.8958 23.0907 37.8596L23.1032 36.3008L23.186 36.014C23.2235 35.884 23.2423 35.7502 23.2415 35.6157L23.2376 34.946C23.2368 34.8285 23.2212 34.711 23.1915 34.5972L23.1337 34.3769L23.1368 33.7886C23.5048 33.5403 23.7555 33.1449 23.7891 32.6874L23.9547 30.439C24.1149 30.4848 24.2829 30.5085 24.4547 30.5085C24.6438 30.5085 24.9047 30.4782 25.1899 30.3555C25.3164 30.3422 25.4407 30.3178 25.5633 30.2816L25.561 30.884L25.4625 31.3555C25.4149 31.5831 25.425 31.8189 25.4914 32.0429L25.6461 32.5632L25.8063 35.2291C25.8289 35.6046 25.9977 35.9409 26.2594 36.1892L26.3766 38.0399C26.425 38.8034 27.0805 39.4058 27.8883 39.4294C27.9047 39.4302 27.9203 39.4302 27.9367 39.4302C28.7242 39.4302 29.3914 38.8744 29.4867 38.1301L29.8039 35.6593C29.8117 35.6001 29.8156 35.5403 29.8156 35.4804V34.8271L30.0031 34.4095C30.0859 34.2254 30.1288 34.0273 30.1281 33.8271L30.1218 30.9712C30.1601 30.9601 30.1984 30.9475 30.2374 30.9335C30.2617 30.9364 30.3031 30.9424 30.3687 30.9571C30.4609 30.9778 30.5523 31.0007 30.6437 31.0237C30.6898 31.0347 30.7359 31.0466 30.782 31.0576C31.0476 31.2491 31.3749 31.3636 31.7265 31.3792C31.7523 31.762 31.9319 32.1035 32.2061 32.3518L32.2015 32.997C32.2007 33.1242 32.2171 33.2513 32.2507 33.3747L32.3835 33.8647L32.4007 35.5588C32.4007 35.5854 32.4022 35.6127 32.4038 35.6393L32.6397 39.0894C32.6929 39.8625 33.3678 40.4664 34.1866 40.4723C34.1905 40.4723 34.1952 40.4723 34.1991 40.4723C35.0131 40.4723 35.6912 39.881 35.7561 39.1123L35.9147 37.238C36.2756 36.9874 36.5201 36.592 36.5498 36.1382L36.842 31.7214C37.0912 31.8692 37.3217 31.932 37.4131 31.9564C37.5076 31.9823 37.6045 31.9993 37.7021 32.0074C37.7217 32.0148 37.7404 32.0214 37.7607 32.0281C37.7857 32.037 37.8115 32.0443 37.8365 32.0517C38.1529 32.3422 38.4896 32.456 38.7545 32.4959C39.0982 32.6637 39.4849 32.7642 39.838 32.7642C39.8701 32.7642 39.9021 32.7635 39.9341 32.762C39.9779 32.7857 40.0193 32.8071 40.0591 32.8271C40.3036 32.952 40.5794 33.0177 40.8568 33.0177C41.3192 33.0177 41.77 32.8352 42.0942 32.5166C42.1575 32.4545 42.2153 32.388 42.2669 32.3178C42.3903 32.3126 42.4997 32.2971 42.5911 32.2786C42.6216 32.2801 42.6528 32.2809 42.6833 32.2809C42.7372 32.2809 42.7911 32.2779 42.845 32.2727C42.9114 32.3001 42.9786 32.3259 43.0372 32.3466C43.3442 32.456 43.6333 32.5092 43.9208 32.5092C44.1122 32.5092 44.3012 32.4848 44.4833 32.4375C44.6247 32.4775 44.7926 32.5078 44.9809 32.51C44.9903 32.5144 44.9989 32.5181 45.0082 32.5225C45.2551 32.6356 45.4762 32.6844 45.6082 32.7132C45.7668 32.748 45.9082 32.7635 46.0473 32.7635C46.0801 32.7635 46.1121 32.7627 46.1442 32.7613C46.259 32.8485 46.4027 32.9342 46.5793 32.9993C46.7715 33.0702 46.9441 33.0953 47.084 33.1057C47.1223 33.1168 47.1855 33.1382 47.2387 33.1604C47.4387 33.2446 47.6582 33.289 47.8777 33.289C47.9371 33.289 47.9933 33.286 48.0465 33.2801C48.0504 33.2809 48.0551 33.2809 48.059 33.2816C48.1136 33.2868 48.1754 33.2905 48.23 33.2905C48.5949 33.2905 49.123 33.1781 49.5761 32.6438C49.8542 32.3533 49.998 31.9594 49.9824 31.5684C50.0902 30.8914 49.6956 30.2291 49.023 29.9712ZM1.99737 20.1338C1.99268 20.1338 1.98878 20.1338 1.98409 20.1338C1.9755 20.136 1.9669 20.1367 1.95753 20.1367C1.83409 20.1367 1.6216 19.9823 1.56847 19.8477C1.53488 19.7628 1.61535 19.6164 1.74737 19.6164C1.75519 19.6164 1.76378 19.6171 1.77159 19.6179C1.94893 19.6415 2.10362 19.697 2.16612 19.8869C2.2294 20.0776 2.19737 20.1338 1.99737 20.1338ZM44.5153 30.1035C44.5528 30.0998 44.5895 30.0983 44.6254 30.0983C44.8895 30.0983 45.1293 30.1892 45.3668 30.3237C45.3285 30.3481 45.3114 30.3969 45.2543 30.4095C45.2035 30.4205 45.1465 30.4257 45.0864 30.4257C44.8434 30.4257 44.5512 30.3437 44.4559 30.238C44.3825 30.1574 44.4372 30.1109 44.5153 30.1035ZM7.87616 19.8514C7.89569 19.7967 7.94725 19.7154 8.03553 19.7154C8.12537 19.7243 8.12537 19.796 8.12928 19.9172C8.13084 19.9793 8.15115 20.0163 8.17225 20.0532C8.14647 20.0577 8.12225 20.0591 8.09881 20.0591C7.94022 20.0591 7.83397 19.9697 7.87616 19.8514ZM2.64814 19.5883C2.79579 19.5166 2.84657 19.4634 2.9661 19.4006C3.00047 19.3829 3.03876 19.3747 3.07782 19.3747C3.2036 19.3747 3.33719 19.459 3.36453 19.5765C3.45125 19.9534 3.18406 20.2757 2.7872 20.2757C2.78564 20.2757 2.78407 20.2757 2.78251 20.2757C2.59423 20.2742 2.4497 20.1471 2.38877 19.9379C2.33096 19.7406 2.52236 19.6497 2.64814 19.5883ZM3.61999 21.799C3.50671 21.8773 3.40672 21.9061 3.31375 21.9061C3.11766 21.9061 2.95204 21.7753 2.75751 21.6948C2.54189 21.6053 2.48408 21.4205 2.54658 21.2025C2.57861 21.0902 2.56923 20.963 2.6372 20.8662C2.69111 20.7908 2.80985 20.7546 2.90751 20.7288C2.95751 20.7154 3.01376 20.6541 3.06297 20.6541C3.06375 20.6541 3.06454 20.6541 3.06532 20.6541C3.14813 20.6578 3.22313 20.7443 3.29969 20.8271C3.31609 20.8448 3.33641 20.8485 3.35672 20.8485C3.37156 20.8485 3.38719 20.8463 3.40203 20.8463C3.41922 20.8463 3.43562 20.8485 3.44968 20.8588C3.58328 20.9557 3.63015 21.0857 3.75202 21.2077C3.82624 21.289 3.85983 21.3474 3.85593 21.5218C3.85046 21.813 3.73093 21.7221 3.61999 21.799ZM6.9629 23.6844C6.81212 23.8396 6.59181 23.8773 6.38088 23.8773C6.3676 23.8773 6.3551 23.8773 6.34181 23.8766C6.07307 23.8707 5.99417 23.8086 6.03557 23.4346C6.03948 23.4021 6.06916 23.3282 6.30744 23.3282C6.31682 23.3282 6.32619 23.3282 6.33635 23.3282C6.33869 23.3282 6.34103 23.3282 6.34338 23.3282C6.46134 23.3282 6.44494 23.2587 6.5215 23.2587C6.609 23.2587 6.80665 23.2779 6.89493 23.4235C6.9504 23.5152 7.08164 23.5004 7.15117 23.5381C7.09258 23.5905 7.0543 23.5905 6.9629 23.6844ZM16.8127 26.2336C16.5893 26.1323 16.4166 26.085 16.444 26.003C16.4541 25.9719 16.4783 25.9586 16.5127 25.9586C16.701 25.9586 17.1986 26.3599 17.4166 26.5595C17.2853 26.4797 17.026 26.3296 16.8127 26.2336ZM23.5704 28.3104C23.4907 28.3112 23.3844 28.4146 23.3844 28.4146L23.229 28.4124L23.0282 28.5891L22.9134 28.5854L22.8368 28.6578L22.8571 28.5536C22.8571 28.5536 23.0712 28.3688 23.0946 28.3356C23.1446 28.2631 23.1766 28.0266 23.1766 28.0266C23.1766 28.0266 23.2532 28.0495 23.3579 28.0495L23.4509 27.8758L23.5923 28.0695L23.6118 28.2321C23.6118 28.2321 23.8516 28.3607 23.8001 28.3984C23.7985 28.3991 23.7969 28.3999 23.7946 28.3999C23.7657 28.3999 23.6704 28.3104 23.5735 28.3104C23.5712 28.3104 23.5712 28.3104 23.5704 28.3104ZM39.0076 31.037C38.9701 31.037 38.9138 30.9993 38.8396 30.895C38.8396 30.895 39.0787 30.8965 39.0638 30.9749C39.0576 31.0111 39.0388 31.037 39.0076 31.037ZM39.8349 31.286C39.6701 31.286 39.3748 31.1641 39.2544 31.0384C39.2763 31.0377 39.2982 31.037 39.3193 31.037C39.5638 31.037 39.756 31.105 39.9482 31.2313C39.938 31.2698 39.8951 31.286 39.8349 31.286ZM40.8536 31.5388C40.8349 31.5388 40.8154 31.5344 40.7974 31.5255C40.6279 31.439 40.4591 31.3444 40.3083 31.2313C40.1365 31.1419 40.2849 30.9268 40.1841 30.9084C40.2208 30.8773 40.2552 30.8278 40.3271 30.8278C40.3583 30.8278 40.3958 30.8374 40.4443 30.861C40.5318 30.9054 40.6138 30.9638 40.7052 30.9978C40.9599 31.0865 40.9482 31.0968 40.963 31.2853C40.9654 31.3126 41.0075 31.3577 41.0091 31.3925C41.0122 31.4679 40.9333 31.5388 40.8536 31.5388ZM46.0442 31.286C46.0246 31.286 46.0027 31.2838 45.9793 31.2786C45.8824 31.2572 45.7824 31.2365 45.6934 31.1959C45.5059 31.1101 45.3231 31.0251 45.1121 31.0251C45.0809 31.0251 45.0489 31.0273 45.0168 31.031C45.0098 31.0318 45.0028 31.0325 44.9957 31.0325C44.9176 31.0325 44.8309 30.9852 44.7543 30.9512C44.659 30.9091 44.5653 30.884 44.4715 30.884C44.3817 30.884 44.2926 30.9069 44.2012 30.9586C44.1083 31.0111 44.0137 31.0318 43.9184 31.0318C43.8083 31.0318 43.6965 31.0037 43.5864 30.9645C43.4348 30.9106 43.1372 30.7761 43.1372 30.7761C43.1372 30.7761 43.0864 30.7738 43.0177 30.7738C42.9106 30.7738 42.7583 30.7783 42.6817 30.8027C42.6848 30.7236 42.6739 30.6171 42.5708 30.6171C42.5575 30.6171 42.5434 30.6186 42.527 30.6223C42.3833 30.6548 42.4505 30.7317 42.5083 30.7775C42.4067 30.7864 42.2903 30.8396 42.1856 30.8396C42.1778 30.8396 42.17 30.8396 42.1622 30.8389C42.052 30.8293 41.9583 30.7487 41.8489 30.6186C41.8044 30.5654 41.7333 30.4945 41.6685 30.4856C41.6661 30.4856 41.6638 30.4848 41.6614 30.4848C41.6255 30.4848 41.6005 30.5262 41.5497 30.5285C41.5013 30.5285 41.3872 30.4013 41.2997 30.3902C41.1286 30.3681 40.9982 30.2905 40.9021 30.2579C40.7794 30.2173 40.6818 30.2106 40.6318 30.2106C40.6075 30.2106 40.5943 30.2121 40.5943 30.2121C40.5943 30.2121 40.4419 30.122 40.3654 30.0961C40.2974 30.0732 40.2466 30.0599 40.2099 30.0599C40.1286 30.0599 40.1107 30.1212 40.1029 30.2676C40.1201 30.4582 40.0255 30.5248 39.9708 30.6334C39.9677 30.6401 39.9521 30.6467 39.9294 30.6467C39.8966 30.6467 39.8482 30.6334 39.8013 30.5876C39.8037 30.5691 39.806 30.5506 39.8083 30.5329C39.8677 30.4952 39.9505 30.4686 39.981 30.4154C40.013 30.3585 40.0224 30.3097 40.0029 30.2446C39.9927 30.2114 39.974 30.1308 39.9216 30.1146C39.9193 30.1138 39.9169 30.1138 39.9146 30.1138C39.8802 30.1138 39.7982 30.1648 39.7638 30.1648C39.7615 30.1648 39.7599 30.1648 39.7576 30.1641C39.7208 30.1545 39.6982 30.071 39.6529 30.071C39.6427 30.071 39.6318 30.0746 39.6193 30.085C39.549 30.1397 39.5958 30.1981 39.6068 30.2498C39.6435 30.4161 39.5576 30.5447 39.3912 30.5521C39.3865 30.5521 39.381 30.5521 39.3763 30.5521C39.2873 30.5521 39.2334 30.5152 39.2576 30.4124C39.2685 30.3659 39.2794 30.3193 39.2888 30.272C39.3201 30.1175 39.256 30.034 39.256 30.034C39.256 30.034 38.7154 29.8581 38.5638 29.8322C38.5513 29.83 38.5381 29.8293 38.5248 29.8293C38.4459 29.8293 38.3646 29.8655 38.3498 29.9076C38.292 30.0732 38.3271 30.1101 38.417 30.221C38.4365 30.2454 38.4623 30.2786 38.4935 30.2971C38.5763 30.3466 38.6552 30.388 38.581 30.5041C38.5256 30.5913 38.4631 30.6474 38.3685 30.6474C38.3443 30.6474 38.3185 30.6438 38.2896 30.6364C38.1381 30.5846 38.0842 30.5381 37.842 30.5336C37.7662 30.5129 37.6834 30.4856 37.6271 30.4361C37.4295 30.2661 37.1787 30.2173 36.9193 30.2173C36.9178 30.2173 36.917 30.2173 36.9154 30.2173C36.8514 30.2173 36.785 30.1693 36.7482 30.122C36.6248 29.9645 36.5295 29.9276 36.3428 29.9224C36.199 29.918 35.9819 29.9261 35.8397 29.9113C35.828 29.912 35.8155 29.912 35.8022 29.912C35.6865 29.912 35.5475 29.8862 35.5475 29.8862L35.5256 29.7524L35.2373 29.7391L35.3451 30.6423L34.9881 36.0429L34.8881 32.1316L34.8327 32.1227L34.7413 32.4664V34.8219L34.4889 35.5292L34.196 38.9911L33.96 35.541L33.9405 33.6674L33.76 33.0037L33.7671 31.9919L33.8756 31.5905L33.8749 29.8115L33.6967 29.3341C33.6913 29.3341 33.6522 29.3356 33.5257 29.3659C33.5171 29.3681 33.5061 29.3688 33.4944 29.3688C33.4311 29.3688 33.3382 29.3422 33.3382 29.3422L33.2803 31.2786L33.2225 29.3555C33.0796 29.4316 33.0132 29.4738 32.9241 29.5388C32.6593 29.7347 32.3913 29.8404 32.1796 29.8404C32.1546 29.8404 32.1304 29.8389 32.1069 29.8359C32.0921 29.8337 32.0788 29.833 32.0647 29.833C31.953 29.833 31.8804 29.8914 31.8108 29.898C31.8077 29.898 31.8046 29.8987 31.8007 29.8987C31.7616 29.8987 31.7148 29.8803 31.7038 29.8551C31.646 29.7214 31.5257 29.7044 31.4023 29.6778C31.1773 29.6282 30.9554 29.5676 30.7304 29.5166C30.5554 29.4767 30.3796 29.4494 30.2054 29.4494C30.0304 29.4494 29.857 29.4767 29.6843 29.5447C29.6624 29.5536 29.6351 29.5632 29.6101 29.5632C29.5976 29.5632 29.5859 29.561 29.5757 29.5543C29.5117 29.5152 29.4492 29.5011 29.3867 29.5011C29.2968 29.5011 29.2101 29.5299 29.1242 29.5514C29.0828 29.5617 29.0476 29.5662 29.0171 29.5662C28.8507 29.5662 28.839 29.4324 28.839 29.4324L28.7718 29.3747L28.5523 30.1744L28.5601 33.8256L28.2469 34.5211L28.2476 35.476L27.9305 37.9468L27.7234 34.6741L27.7508 32.7982L27.5476 32.2794C27.5476 32.2794 27.4156 34.3186 27.3601 35.1412L27.1906 32.3141L26.9898 31.6386L27.1172 31.0281L27.125 29.031L27.0164 28.9889C27.0164 28.9889 26.882 28.6349 26.7891 28.6349C26.6961 28.6349 25.9461 28.592 25.9461 28.592C25.9461 28.592 25.3993 28.7509 25.1453 28.8492C25.0704 28.878 25.0125 28.8854 24.9547 28.8854C24.8922 28.8854 24.829 28.8766 24.743 28.8766C24.7211 28.8766 24.6665 28.9268 24.6024 28.9697C24.5485 29.0059 24.4977 29.0266 24.4485 29.0266C24.3977 29.0266 24.3501 29.0044 24.3032 28.9549C24.1805 28.8241 24.0672 28.8204 24.0532 28.8204C24.0524 28.8204 24.0516 28.8204 24.0516 28.8204C24.0516 28.8204 23.8446 28.8987 23.8141 28.8987C23.8133 28.8987 23.8126 28.8987 23.8118 28.8987C23.7305 28.881 23.6485 28.861 23.5719 28.8293C23.5626 28.8256 23.5735 28.7199 23.5735 28.7199L23.7641 28.6245L23.8915 28.6674L23.9672 28.7236L24.0844 28.7036L24.1891 28.7672C24.1891 28.7672 24.2407 28.7576 24.268 28.7576C24.2719 28.7576 24.2758 28.7576 24.2782 28.7583C24.2915 28.7583 24.3141 28.5588 24.3141 28.5588L24.3407 28.7768C24.3501 28.779 24.3594 28.7798 24.3672 28.7798C24.4696 28.7798 24.4922 28.6393 24.4922 28.5728C24.4922 28.4797 24.4321 28.3769 24.4321 28.3762L24.3836 28.3607L24.3071 28.439L24.2391 28.3149L24.0383 28.1914L23.7212 28.1789L23.4938 27.7931L23.3188 27.4715C23.2337 27.4715 23.1751 27.4701 23.129 27.4701C23.1055 27.4701 23.0852 27.4701 23.0657 27.4715C23.0649 27.4715 23.0634 27.4715 23.0626 27.4715C22.9946 27.4715 22.9165 27.3718 22.9165 27.3718C22.9165 27.3718 22.8204 27.4516 22.6399 27.4516C22.6251 27.4516 22.6095 27.4509 22.5938 27.4501L22.5345 28.4457C22.5345 28.4457 22.7813 28.4834 22.7891 28.5366C22.7954 28.5795 22.7391 28.6475 22.6766 28.6475C22.6141 28.6475 22.572 28.5795 22.572 28.5795L22.5181 28.5721L22.2228 32.5809L22.1892 28.4627L21.9665 28.3858L21.8735 28.7967L21.8649 32.4671L21.5689 33.3703L21.5626 34.5506L21.6681 34.9505L21.672 35.6201L21.5353 36.0931L21.5212 37.8448L21.2923 40.5203L21.1517 38.7199L21.0072 38.3481L21.0142 35.306L20.9447 34.731C20.9447 34.731 20.8579 36.6068 20.829 37.306L20.6079 34.2602L20.6337 32.2624L20.4447 31.5373L20.4415 29.9335L20.1462 29.122V27.6548C20.1462 27.6548 19.8306 27.575 19.7087 27.4797C19.5955 27.391 19.4478 27.2594 19.4478 27.2594L19.0533 27.269L17.7869 26.6305L17.6135 26.6112L17.3986 26.3067L17.6392 26.5373C17.6392 26.5373 18.5197 26.7154 18.84 26.7635C18.8752 26.7687 18.915 26.7738 18.9517 26.7738C19.0478 26.7738 19.1252 26.7376 19.0658 26.5691C19.0595 26.5514 19.0759 26.5233 19.0877 26.5033C19.1759 26.3503 19.2017 26.2262 18.9548 26.2136C18.9338 26.2129 18.865 26.1737 18.8603 26.1574C18.84 26.0865 18.8244 25.969 18.7447 25.969C18.7424 25.969 18.7408 25.969 18.7384 25.969C18.7275 25.9697 18.7166 25.9704 18.7056 25.9704C18.5517 25.9704 18.3877 25.8943 18.2908 25.867C18.2603 25.8588 18.2299 25.8559 18.2033 25.8559C18.1486 25.8559 18.108 25.8677 18.108 25.8677C18.108 25.8677 18.0041 25.7627 17.9549 25.7502C17.9205 25.7413 17.8924 25.7398 17.8674 25.7398C17.8416 25.7398 17.8189 25.7421 17.7947 25.7421C17.7853 25.7421 17.776 25.7421 17.7658 25.7406C17.7463 25.7391 17.7275 25.7384 17.7103 25.7384C17.5002 25.7384 17.4619 25.861 17.3908 26.037C17.1346 25.711 17.0221 25.8278 16.8377 25.7413C16.7416 25.6962 16.5611 25.6371 16.5611 25.6371C16.5611 25.6371 16.4236 25.6948 16.3533 25.748C16.3354 25.762 16.2979 25.7694 16.2635 25.7694C16.2354 25.7694 16.2104 25.7642 16.2018 25.7539C16.119 25.6489 16.0041 25.5839 15.8533 25.5839C15.8323 25.5839 15.8104 25.5854 15.7877 25.5876C15.7729 25.5891 15.758 25.5898 15.7432 25.5898C15.6112 25.5898 15.4932 25.5262 15.4932 25.5262L15.4815 25.8906L15.2745 26.4782L15.219 27.748L15.1049 28.269L15.0721 25.5373L14.9924 25.5336L14.9995 29.2188L15.0338 29.2786L15.0409 29.7236L14.8627 30.1153L14.8432 30.5255L14.9104 30.6593L14.6409 35.7073L14.594 32.2639L14.5229 32.1212L14.444 34.2683L14.2182 34.9372L14.2385 36.6341L14.0174 37.0695V37.7081L14.0479 37.813L13.8565 39.9645L13.7096 37.6112L13.5487 36.8441L13.5346 35.3525L13.4214 34.9904L13.4237 33.3444L13.2503 32.2173L13.2495 29.7465L13.1393 29.3636L13.1487 27.8795L13.0573 27.5196L12.7612 32.4287L12.7081 26.323L12.5909 26.2173C12.5909 26.2173 12.5886 25.49 12.5886 25.1596C12.512 25.1722 12.4378 25.1781 12.3651 25.1781C12.0284 25.1781 11.7284 25.0562 11.423 24.9335C11.2519 24.8647 10.8159 24.9032 10.6886 24.8418C10.5574 24.779 10.412 24.6755 10.412 24.6755C10.412 24.6755 10.3355 24.6829 10.2402 24.6829C10.155 24.6829 10.0558 24.677 9.98159 24.6548C9.67144 24.6157 9.60659 24.5107 9.47066 24.3851C9.0277 23.9771 8.52927 23.7007 7.90585 23.6578C7.70351 23.6438 7.5496 23.5492 7.40273 23.4132C7.19336 23.2195 6.94024 23.122 6.65431 23.122C6.60275 23.122 6.5504 23.1249 6.4965 23.1316C6.47384 23.1345 6.45041 23.1353 6.42697 23.1353C6.36369 23.1353 6.29885 23.1256 6.24182 23.1057C5.96135 23.0074 5.6848 22.8987 5.40824 22.7916C5.30512 22.7517 5.1059 22.6511 5.1059 22.6511C5.1059 22.6511 5.0184 22.6962 4.97387 22.7228C4.9684 22.7258 4.96137 22.7273 4.95278 22.7273C4.92622 22.7273 4.88872 22.714 4.87153 22.6984C4.67935 22.5255 4.49888 22.3503 4.48013 22.0695C4.4731 21.969 4.49888 21.9135 4.45513 21.8721C4.31139 21.7354 4.13014 21.5721 4.1317 21.3814C4.13326 21.1656 4.1192 20.8707 4.12623 20.6548C4.13873 20.2942 4.31451 20.0421 4.63404 19.8322C4.79653 19.7251 4.95669 19.66 5.13871 19.6445C5.17543 19.6415 5.21293 19.6401 5.25043 19.6401C5.43636 19.6401 5.63167 19.6718 5.80042 19.6807C6.34728 19.7073 6.21447 19.7583 6.35744 19.7768C6.41759 19.7842 6.49416 19.7879 6.56837 19.7879C6.62228 19.7879 6.6754 19.7864 6.71915 19.7827C6.82227 19.779 6.9129 19.7768 6.99258 19.7768C7.49882 19.7768 7.5957 19.8596 7.94491 20.0909C8.31287 20.3348 8.74177 20.1818 8.95114 20.3215C9.01911 20.3673 9.19723 20.5713 9.41441 20.6408C9.74331 20.7465 9.8394 20.7228 10.0402 20.7731C10.5003 20.8884 10.6917 20.918 10.9066 20.918C10.973 20.918 11.0417 20.915 11.1214 20.9113L11.1534 20.9608L11.2909 20.9786L11.3964 20.8987L12.4339 20.918L12.3714 20.0259L12.162 19.408L12.4479 18.3134V17.0266L12.4886 16.9956L12.4909 16.8529L12.4495 16.8049C12.4503 16.7265 12.4503 16.6755 12.4503 16.6755L12.4933 16.6689L12.4956 16.4523L12.4401 16.4013L12.4472 15.9379L12.7222 15.371L12.7526 14.8426L13.1182 14.5684C13.1182 14.5684 13.3112 14.5336 13.38 14.5085C13.6573 14.4087 13.8057 14.3289 13.8057 14.3289C14.3542 14.2853 14.6362 14.1596 14.6362 14.1596L14.7416 13.8248C14.7846 13.9579 14.8885 14.3274 14.8885 14.3274L15.0909 14.255C15.0909 14.255 15.2096 14.4612 15.3315 14.476L15.4182 14.1316L15.5494 14.1722L15.6588 13.0621L15.8299 15.0488L15.9026 15.204C15.9026 15.204 15.9526 14.8684 15.9666 14.8012C15.9791 14.9867 16.069 15.5477 16.069 15.5477C16.069 15.5477 16.3315 16.0118 16.4088 16.2454C16.4088 16.2454 16.3236 16.5018 16.2549 16.8906C16.1627 17.0015 16.0018 17.1072 16.0166 17.4265C16.0299 17.7221 16.076 17.966 16.076 17.966L15.944 18.1131L15.9604 20.3289L15.5854 21.663L16.5549 21.7406L16.9025 21.8928L17.3549 21.8803L18.2267 22.0828L18.3869 22.0488L18.733 22.2424L18.9478 22.2239C18.9478 22.2239 18.9783 22.2616 19.0119 22.2735L18.9673 22.4545L19.0283 22.5314L19.1986 22.5499L19.5345 22.8145L19.7408 22.714L19.6103 20.1153L19.7291 19.9069L19.7275 19.139L19.3572 18.1338L19.3478 16.2956L19.2478 16.1863L19.2181 17.1131L19.0752 15.5477L18.9072 15.2956L18.9064 14.9446L18.8627 14.9224C18.8634 14.8522 18.9048 14.6467 18.9048 14.6467L18.8377 14.5654L18.9494 13.5292C18.9494 13.5292 19.1361 13.4634 19.2986 13.082C19.4377 12.7561 19.5736 12.6445 19.7837 12.4767C19.9181 12.3695 20.033 12.2387 20.1712 12.1375C20.3275 12.0237 20.3665 11.8943 20.6665 11.8293C20.915 11.7753 21.0993 11.5218 21.0993 11.5218L21.1884 11.6186L21.3954 11.0421L21.54 10.9956L21.7439 9.4782L21.8579 11.3592L21.9548 11.3732L22.0485 10.7169L22.1751 11.912L22.2524 11.9387L22.279 11.5765L22.3813 11.4516L22.4548 10.6896L22.5415 11.7406L22.5907 11.8877L22.6399 11.7214L22.6977 12.2653L22.8923 12.3762L22.8946 12.5928L23.0891 12.8766C23.0891 12.8766 23.118 13.2173 23.1134 13.3067C23.1095 13.3954 23.104 13.5721 23.104 13.5721L23.1727 13.861L23.0602 14.0443L23.0548 14.1567L23.1001 14.1922L23.1087 15.2247L22.993 15.7502L23.0407 16.0362L22.8391 19.4812L22.8009 16.9394L22.6634 17.5233L22.654 20.0436L22.8337 20.6061L22.8462 23.4146C22.8462 23.4146 22.9516 23.3651 23.0946 23.3651C23.1016 23.3651 23.1087 23.3651 23.1157 23.3651C23.336 23.3725 23.5227 23.5403 23.8469 23.5928C23.9524 23.663 24.1047 23.8293 24.2219 23.8817C24.2547 23.8965 24.4766 23.9387 24.4766 23.9387L24.704 24.1367C24.7391 24.1338 24.7719 24.1323 24.8032 24.1323C24.9672 24.1323 25.0922 24.17 25.2188 24.2291C25.5055 24.2993 25.7485 24.4198 25.9078 24.6571C26.0164 24.8189 26.1641 24.9135 26.2688 24.9704C26.3477 25.0133 26.6359 25.0185 26.7719 25.0185C26.8156 25.0185 26.8438 25.0177 26.8438 25.0177L26.8375 22.3474L26.5938 21.4738L26.5727 19.5122L26.8383 19.014L26.8148 17.357L26.7375 17.1123L26.7422 16.5225L26.6758 16.6016C26.6758 16.6016 26.6281 18.4435 26.6055 19.088C26.5953 19.088 26.4156 15.711 26.4156 15.711L26.2524 15.3976C26.2524 15.3976 26.4039 15.0067 26.4039 14.9416C26.4039 14.7827 26.3391 14.7088 26.3391 14.7088L26.3172 14.1234C26.3172 14.1234 26.4422 13.8721 26.4961 13.5558C26.5336 13.3378 26.5352 13.0769 26.5352 13.0769L26.9953 12.5521L27.007 12.1604L27.1969 11.9527L27.293 10.2446L27.3914 11.5307L27.5906 12.2195L27.6867 12.1227V11.6755L27.793 11.8529L27.8305 11.1109L27.8758 11.7657L28.0351 12.0429L28.2508 11.9897L28.7172 12.2476L28.8906 12.2424L28.9843 11.9276L29.0851 12.4161L29.239 12.5152L29.2921 12.6785C29.2921 12.6785 29.5078 12.8012 29.5484 12.8418C29.6546 12.9904 29.8562 13.5152 29.8562 13.5152L29.9078 14.1227C29.5742 14.7923 29.5382 15.1212 29.539 15.527C29.5406 16.0052 29.4492 17.0576 29.4492 17.0576L29.6507 17.9305L29.5062 23.4279L29.3875 23.9416C29.3875 23.9416 29.3843 21.3178 29.3843 20.1382L29.3429 20.0665L29.1828 20.7642L29.1789 24.3873L29.0961 25.054L29.0859 25.7273C29.0859 25.7273 29.1867 25.8019 29.3335 25.8315C29.5812 26.014 29.8656 26.0909 30.1788 26.0909C30.2874 26.0909 30.3992 26.0813 30.5148 26.0643C30.5452 26.0599 30.5773 26.0628 30.6085 26.0606C30.6202 26.0599 30.632 26.0599 30.6437 26.0599C30.7945 26.0599 30.9038 26.1242 30.9601 26.2705C31.0155 26.4146 31.121 26.4553 31.2796 26.4627C31.4616 26.4715 31.5405 26.4531 31.7202 26.4915C31.8413 26.5166 31.8593 26.6445 32.1819 26.6445C32.3905 26.6534 32.5608 26.7354 32.7304 26.8396C32.8593 26.9187 33.1718 27.0569 33.1718 27.0569L33.1163 25.105L33.1546 23.3045L33.053 22.8825L32.9975 22.8189L32.8804 24.088L32.61 22.3718L32.5968 20.3392L32.7569 19.8093L32.7577 19.0007L32.628 18.3932L32.6452 18.1523L32.5655 18.1094L32.5608 17.9534L32.5241 17.8965L32.7561 16.7701L33.0757 16.5041L33.3366 15.878L33.3999 16.1146L33.4647 16.1537L33.5624 14.6305L33.7631 15.7945L33.91 15.9143L34.0256 15.8633L34.1827 13.8211L34.3092 15.7154L34.3959 14.9483L34.4631 15.8677L34.5405 15.7731L34.6053 15.8884L34.6897 15.8928L34.7483 15.9897L34.8889 15.983C35.0092 16.0983 35.1842 16.1353 35.2592 16.1848C35.3787 16.2639 35.5428 16.2868 35.5428 16.2868C35.5428 16.2868 35.7803 16.6305 35.8873 16.8662C35.9725 17.0532 36.0959 17.4479 36.0959 17.4479L36.0647 18.105L36.1444 18.3422L35.942 18.8588L36.1779 19.184L35.8897 25.2942L35.7764 21.286L35.7115 21.5233L35.7194 22.6268L35.4616 23.1863C35.4616 23.1863 35.4491 25.0606 35.46 25.912C35.4639 26.2062 35.4475 26.3725 35.4475 26.3725L35.1592 27.0458L35.1545 27.4974L35.3772 27.6127C35.4905 27.5942 35.6069 27.5839 35.7233 27.5839C35.9725 27.5839 36.2201 27.6334 36.4342 27.7664C36.5498 27.8381 36.6982 27.8677 36.8357 27.9017C36.9107 27.9209 36.9498 27.9254 36.9811 27.9254C37.0092 27.9254 37.0318 27.9217 37.0693 27.9217C37.0959 27.9217 37.1295 27.9231 37.1787 27.9298C37.2381 27.9372 37.4334 28.0458 37.524 28.0458C37.5349 28.0458 37.5451 28.0443 37.5521 28.0407C37.6224 28.0052 37.6873 27.8263 37.7896 27.8093C37.7943 27.8086 37.7998 27.8078 37.8053 27.8078C37.9029 27.8078 38.0013 27.9593 38.0021 28.0273C38.0029 28.0939 38.0084 28.2151 38.0084 28.2151C38.0084 28.2151 38.256 28.3466 38.3771 28.3466C38.3779 28.3466 38.3795 28.3466 38.3802 28.3466C38.8998 28.3466 39.1732 28.5285 39.613 28.6068C39.9318 28.6637 40.0724 28.6807 40.3849 28.762C40.4958 28.7908 40.6966 28.8093 40.8021 28.898C40.8458 28.935 40.831 29.0296 41.0575 29.0909C41.181 29.1242 41.5458 29.1212 41.7794 29.2513C42.1778 29.4738 42.4622 29.558 42.7434 29.558C42.777 29.558 42.8106 29.5565 42.8442 29.5543C42.8622 29.5528 42.8802 29.5521 42.8989 29.5521C42.9989 29.5521 43.1083 29.5706 43.1848 29.6186C43.4762 29.8027 43.7958 29.8817 44.1348 29.9165C44.2106 29.9246 44.3208 29.9793 44.395 29.9993C44.3942 30.0103 44.2668 30.0702 44.1254 30.0702C44.1239 30.0702 44.1223 30.0702 44.1215 30.0702C44.0176 30.0695 43.9051 30.0089 43.8403 30.0089C43.8395 30.0089 43.8387 30.0089 43.838 30.0089C43.7958 30.0096 43.759 30.0103 43.7278 30.0103C43.488 30.0103 43.5051 29.9808 43.2958 29.9394C43.27 29.9342 43.2489 29.932 43.2309 29.932C43.1591 29.932 43.1372 29.9719 43.0716 30.0473C42.9997 30.1301 42.8888 30.1981 42.7911 30.1981C42.7794 30.1981 42.7684 30.1973 42.7567 30.1951C42.638 30.1737 42.5372 30.0525 42.3309 30.0244C41.8497 29.9586 41.9521 29.8485 41.5583 29.7066C41.4552 29.6696 41.1583 29.643 41.0466 29.6364C40.6021 29.6364 40.7825 29.4545 40.5255 29.4361C40.2693 29.4176 40.2622 29.2631 40.1568 29.2299C40.138 29.2239 40.1224 29.2217 40.1068 29.2217C40.056 29.2217 40.0068 29.2446 39.8599 29.2446C39.8388 29.2446 39.8154 29.2439 39.7904 29.2432C39.7833 29.2432 39.7763 29.2432 39.7693 29.2432C39.7552 29.2432 39.7404 29.2432 39.7248 29.2432C39.6818 29.2432 39.6365 29.2402 39.6099 29.2195C39.2334 28.9298 38.7662 28.9985 38.3381 28.9157C37.9068 28.895 37.8076 28.7827 37.5803 28.7738C37.5764 28.7738 37.5732 28.7738 37.5693 28.7738C37.4076 28.7738 37.1287 28.9039 37.1287 28.9039C37.1287 28.9039 37.1154 29.0303 37.1334 29.082C37.192 29.2528 37.3389 29.3437 37.5568 29.3437C37.5982 29.3437 37.642 29.3407 37.6881 29.3341C37.7553 29.3245 37.8209 29.3134 37.8818 29.3134C37.9849 29.3134 38.0763 29.3444 38.142 29.4679C38.1506 29.4841 38.1842 29.4945 38.2076 29.4967C38.2388 29.5018 38.2732 29.5033 38.3068 29.5033C38.331 29.5033 38.3552 29.5026 38.3795 29.5026C38.4123 29.5026 38.4435 29.5033 38.4724 29.5085C38.5685 29.5262 38.6427 29.5743 38.7302 29.5913C40.5786 29.9424 40.5779 30.1286 40.9825 30.1286C41.2153 30.1286 41.2935 30.1515 41.6466 30.1515C41.6974 30.1515 41.788 30.354 42.4192 30.493C42.5708 30.5403 42.6278 30.5758 43.1762 30.5758C43.2966 30.5758 43.7294 30.8359 43.9473 30.8448C43.9512 30.8448 43.9559 30.8448 43.9606 30.8448C44.0161 30.8448 44.1169 30.8322 44.1192 30.765C44.1208 30.7051 44.0559 30.646 44.0059 30.6238C43.8879 30.5713 43.7575 30.5447 43.6356 30.5011C43.5723 30.4782 43.5114 30.4464 43.4583 30.4072C43.4364 30.391 43.4169 30.3659 43.4286 30.3134C43.4333 30.2912 43.4544 30.2853 43.477 30.2853C43.5083 30.2853 43.5426 30.2971 43.5426 30.2971C43.5426 30.2971 43.7473 30.4679 44.2864 30.5455C44.434 30.6046 44.8004 30.8529 44.9536 30.898C44.9637 30.898 44.9739 30.898 44.984 30.898C45.3676 30.898 45.4926 30.9557 45.5887 31.0333C45.6403 31.0747 45.691 31.0887 45.7965 31.1072C45.8223 31.1116 45.8535 31.1131 45.8871 31.1131C45.9613 31.1131 46.0473 31.1057 46.1098 31.1057C46.1676 31.1057 46.2059 31.1123 46.1988 31.136C46.1871 31.2269 46.1387 31.286 46.0442 31.286ZM46.0317 30.6748C45.9059 30.6748 45.7903 30.6024 45.6278 30.4922C45.6137 30.4826 45.6051 30.4605 45.6051 30.4605C45.8856 30.4715 46.0621 30.5602 46.2574 30.6046C46.1731 30.6534 46.1004 30.6748 46.0317 30.6748ZM48.2261 31.8123C48.2238 31.8123 48.2215 31.8123 48.2183 31.8115C48.184 31.8078 48.1496 31.7561 48.0972 31.7561C48.0965 31.7561 48.0965 31.7561 48.0957 31.7561C48.0058 31.7583 47.8965 31.8108 47.8738 31.8108C47.873 31.8108 47.8715 31.8108 47.8707 31.8101C47.7113 31.7428 47.4473 31.6519 47.2605 31.6356C47.234 31.6334 47.173 31.6334 47.1434 31.6223C47.0832 31.6001 47.0605 31.5129 47.0004 31.4804C46.8996 31.4265 46.8059 31.4102 46.7902 31.3673C46.7168 31.1663 46.6129 31.1434 46.4465 31.1027C46.4192 31.0961 46.3817 31.0658 46.377 31.034C46.3746 31.0177 46.3824 30.9889 46.3996 30.9889C46.4262 30.9882 46.4527 30.9874 46.4793 30.9874C46.8457 30.9874 47.1832 31.071 47.448 31.3348C47.4801 31.3666 47.5691 31.3732 47.666 31.3732C47.7269 31.3732 47.791 31.371 47.8457 31.371C47.8879 31.371 47.9246 31.3725 47.9504 31.3777C48.0582 31.4021 48.1308 31.4346 48.3324 31.4871C48.3754 31.4982 48.4324 31.6341 48.4183 31.6474C48.3519 31.7066 48.2988 31.8123 48.2261 31.8123ZM48.3746 31.3415C48.0363 31.3415 47.4824 31.2151 47.4824 31.2151L47.4574 31.1478L47.7246 31.201L47.8433 31.1109C47.8433 31.1109 48.2636 31.2742 48.4347 31.34C48.416 31.3415 48.3957 31.3415 48.3746 31.3415ZM19.6384 26.3829C19.6884 26.4272 19.6986 26.4494 19.7111 26.5314C19.7126 26.541 19.6736 26.6423 19.672 26.6534C19.658 26.7687 19.6556 26.9298 19.5259 26.9298C19.5095 26.9298 19.4916 26.9276 19.4712 26.9217C19.358 26.8914 19.2377 26.7531 19.2392 26.5839C19.2408 26.4531 19.3095 26.3762 19.3853 26.3452C19.408 26.3363 19.4361 26.3319 19.4666 26.3319C19.5306 26.3311 19.6017 26.3503 19.6384 26.3829ZM22.1634 27.595L22.1798 28.3274L22.0571 28.2897L22.0517 27.5122L22.1634 27.595ZM36.5873 29.0503C36.5975 29.1116 36.5779 29.1981 36.5358 29.2409C36.5186 29.2587 36.4834 29.2639 36.4451 29.2639C36.4139 29.2639 36.3803 29.2602 36.3529 29.2565C36.1139 29.2254 35.878 29.1589 35.6358 29.153C35.4842 29.1493 35.3553 29.1493 35.2819 29.1493C35.2389 29.1493 35.2147 29.1493 35.2147 29.1493C35.1311 29.02 35.1756 28.7731 35.1756 28.7731C35.3405 28.8537 35.5045 28.8773 35.6686 28.8773C35.8522 28.8773 36.035 28.8477 36.2178 28.8337C36.2404 28.8322 36.2615 28.8315 36.2818 28.8315C36.4678 28.8322 36.5631 28.9039 36.5873 29.0503ZM33.1921 28.2106C33.1936 28.2506 33.1944 28.3452 33.1882 28.4132C32.9561 28.4383 32.7257 28.4679 32.4952 28.4679C32.2429 28.4679 31.9921 28.4324 31.7429 28.3178C31.7038 28.3001 31.6585 28.2934 31.6108 28.2934C31.514 28.2934 31.4046 28.3193 31.3077 28.3319C31.2101 28.3444 31.1187 28.3925 31.0226 28.4161C30.9882 28.4242 30.9445 28.4316 30.8968 28.4316C30.8398 28.4316 30.7765 28.4213 30.7171 28.3917C30.7234 28.1774 30.6718 28.088 30.6163 28.082C30.5038 28.0702 30.3609 28.0473 30.3609 28.0473L30.3859 27.7938C30.2382 27.7775 30.1546 27.7458 29.8726 27.7458C29.8664 27.7458 29.8609 27.7458 29.8546 27.7458C29.7617 27.6563 29.6039 27.6149 29.5031 27.4878C29.389 27.2971 29.2945 27.1966 29.1265 27.1035C29.0898 27.0835 29.0664 27.0414 29.0375 27.0096C29.0476 26.9948 29.0578 26.98 29.0679 26.9653C29.1179 26.9837 29.1781 26.9919 29.2171 27.0229C29.2828 27.0769 29.3507 27.1382 29.3898 27.2106C29.5515 27.5107 29.8093 27.6194 30.1179 27.6194C30.1624 27.6194 30.2085 27.6171 30.2554 27.6127C30.257 27.6127 30.2577 27.6127 30.2593 27.6127C30.5234 27.6127 30.6312 27.5277 30.6312 27.5277C30.6312 27.5277 30.8741 27.5743 30.989 27.6186C30.9976 27.6223 31.0085 27.6238 31.0195 27.6238C31.0288 27.6238 31.0374 27.6223 31.0445 27.6186C31.1374 27.5691 31.2265 27.5499 31.3132 27.5499C31.489 27.5499 31.6546 27.6304 31.8233 27.7066C31.9108 27.7465 32.028 27.714 32.1218 27.7458C32.1944 27.7709 32.1655 27.8965 32.3007 27.8965C32.3116 27.8965 32.3241 27.8958 32.3382 27.8936C32.346 27.8603 32.3569 27.8123 32.3686 27.7598C32.3936 27.762 32.4186 27.7576 32.4272 27.7672C32.5069 27.8588 32.5858 27.9505 32.6593 28.0466C32.721 28.1279 32.7874 28.1752 32.885 28.1752C32.9085 28.1752 32.9335 28.1722 32.9608 28.167C33.0483 28.1493 33.1053 28.1308 33.1405 28.1308C33.1757 28.1301 33.1897 28.15 33.1921 28.2106Z" fill="url(#paint0_linear_81_95)"/>
<path d="M12.9987 14.9867C12.9987 14.9867 13.3651 14.4782 13.9753 14.5248C14.5854 14.5713 15.0127 14.6748 15.2815 14.8825C15.5502 15.0902 16.1971 15.7487 16.258 15.9793C16.319 16.2106 16.2947 16.4878 16.2213 16.6837C16.1479 16.8795 15.8916 16.8803 15.8916 17.1685C15.8916 17.4568 15.9283 17.8847 15.9283 17.8847L15.5619 18L15.4518 20.3444C15.4518 20.3444 15.3416 18.3001 15.1713 18.0118C15.001 17.7236 14.9518 17.6881 14.8049 17.8152C14.658 17.9423 14.658 18.6696 14.658 18.6696C14.658 18.6696 14.8049 18.1611 14.4627 17.861C14.1206 17.561 13.2667 16.9948 13.2667 16.9948L13.2542 17.2602L12.8143 16.9601C12.7901 16.7406 12.8143 16.8211 12.7901 16.7406C12.7659 16.66 12.8026 16.7177 12.7659 16.66C12.7292 16.6024 12.5581 16.1404 12.5581 16.1404C12.5581 16.1404 12.7534 15.8167 12.8268 15.5861C12.9003 15.3555 12.9003 15.3548 12.9003 15.3548L12.9987 14.9867Z" fill="url(#paint1_linear_81_95)"/>
<path d="M14.1213 18.1279L13.926 25.1722L13.7307 18.1626L13.5354 22.8514L13.2909 17.7472C13.2909 17.7472 13.3518 17.3777 13.462 17.3311C13.5721 17.2846 13.7307 17.4235 13.7307 17.4235C13.7307 17.4235 13.7065 17.3311 13.7065 17.4812C13.7065 17.6312 13.6089 17.8278 13.7557 17.9202C13.9026 18.0126 14.1213 18.1279 14.1213 18.1279Z" fill="url(#paint2_linear_81_95)"/>
<path d="M13.2425 15.3681L15.2807 15.3215C15.2807 15.3215 15.0612 14.8596 14.6706 14.779C14.2799 14.6985 14.044 14.6016 13.8042 14.6866C13.2792 14.8714 13.2425 15.3681 13.2425 15.3681Z" fill="white"/>
<path d="M14.9518 17.3429C15.0526 17.1944 15.2276 17.153 15.394 17.0946C15.4854 17.0621 15.6377 17.0103 15.7315 17.0355C15.7002 17.2424 15.6705 17.4804 15.4315 17.5676C15.2995 17.6164 15.1245 17.6149 15.0073 17.5336C14.9245 17.4767 14.9518 17.4442 14.9518 17.3429Z" fill="white"/>
<path d="M20.408 13.0813C20.4283 12.9305 20.2619 12.8381 20.115 12.8721C19.9658 12.9061 19.8689 13.1183 19.7744 13.2188C19.5025 13.5078 19.0455 13.9497 19.1924 14.3732C19.3978 14.1286 19.5705 13.9313 19.9197 13.8677C20.2298 13.8115 20.6517 13.7147 20.7454 14.0562C20.7939 14.2321 20.7611 14.4767 20.7744 14.6585C20.8329 15.493 20.9392 16.3319 21.0173 17.1663C21.147 18.5506 21.4337 19.9254 21.3665 21.3178C21.3501 21.6504 21.3368 22.054 21.3368 22.3511C21.3368 20.6216 21.2517 18.9084 21.3181 17.1774C21.3501 16.3392 21.3876 15.5107 21.3618 14.6733C21.3501 14.2927 21.3181 13.4649 21.7064 13.2491C22.0314 13.4035 22.286 13.507 22.3392 13.8854C22.3876 14.2276 22.3618 14.7169 22.6079 14.9823C22.7962 14.5905 22.6806 13.9845 22.6806 13.5484C22.6806 13.2897 22.7274 12.9956 22.5845 12.7768C22.279 12.3104 21.7275 12.1123 21.1915 12.0362C20.9314 11.9993 20.7837 12.0067 20.5814 12.1619C20.4642 12.2513 20.0728 12.4523 20.1892 12.6149C20.2744 12.7339 20.672 12.7088 20.8009 12.7746C20.9868 12.8684 21.215 13.1966 21.2142 13.4043C21.2134 13.9342 20.3244 13.5588 20.4728 13.0776C20.4337 13.068 20.4095 13.0702 20.408 13.0813Z" fill="url(#paint3_linear_81_95)"/>
<path d="M21.4821 12.6659C21.1485 12.7561 20.6189 12.1951 21.2626 12.2498C21.597 12.2786 21.9884 12.3814 22.1782 12.6704C22.0642 12.8825 21.6196 12.7206 21.4267 12.6933C21.4212 12.66 21.4399 12.6815 21.4821 12.6659Z" fill="white"/>
<path d="M26.4867 15.391C26.5399 15.0562 26.468 14.9187 26.8438 14.8211C26.8078 14.7191 26.8031 14.6142 26.7797 14.5129C26.743 14.3526 26.6547 14.2498 26.6016 14.0968C26.543 13.9276 26.5891 13.7044 26.6383 13.5432C26.8242 12.9424 27.1945 12.7731 27.7586 12.5492C28.3304 12.3222 28.8382 12.6534 29.2515 13.0177C29.5195 13.255 29.6671 13.6179 29.6601 13.9594C29.6562 14.1338 29.6734 14.1138 29.5335 14.2646C29.4031 14.4058 29.125 14.5262 29.0234 14.6563C28.9312 14.7738 28.8679 15.1286 28.8843 15.2801C28.9164 15.5698 29.2421 15.5026 29.2414 15.7857C29.2406 16.204 28.7398 16.4427 28.7336 16.8707C28.7242 17.4545 28.6672 18.0407 28.6406 18.6231C28.6148 19.1885 28.5867 19.7465 28.5867 20.3149C28.5867 20.7664 28.7523 21.4952 28.539 21.9054C28.2992 21.5469 28.5179 20.8426 28.3867 20.4294C28.2047 20.7332 28.3187 21.173 28.2992 21.5055C28.2765 21.8877 28.2562 22.2676 28.2445 22.6497C28.2281 23.1774 28.3289 23.983 28.1031 24.4686C27.8469 24.2025 27.9148 23.7879 27.9508 23.4619C28.0023 22.9985 28.0039 22.5336 28.0242 22.0687C28.0445 21.609 28.0492 21.1523 28.0492 20.6911C28.0492 19.8758 28.0484 19.065 28.0055 18.2528C27.9883 17.9202 27.9539 17.5632 27.9555 17.2336C27.9562 17.0798 28.0625 16.7938 27.957 16.6585C27.8726 16.5499 27.7672 16.612 27.6336 16.5735C27.4609 16.524 27.2594 16.374 27.1445 16.2446C26.9344 16.6415 27.0445 17.3562 27.0484 17.8012C27.018 17.252 27.0422 16.6194 26.882 16.0865C26.8047 15.83 26.6305 15.5787 26.4781 15.3422C26.4633 15.3651 26.4664 15.3651 26.4867 15.391Z" fill="url(#paint4_linear_81_95)"/>
<path d="M27.0484 15.5758C26.9102 15.5063 26.7008 15.2919 26.8773 15.1648C27.0086 15.0702 27.2602 15.2136 27.3961 15.2461C27.6992 15.3186 28.1562 15.2823 28.4156 15.442C28.5195 15.5055 28.8062 15.8071 28.7828 15.9231C28.7109 16.2772 28.2398 15.8285 28.1164 15.7265C27.7258 15.4035 27.5172 15.5107 27.0656 15.6223C27.0617 15.5913 27.007 15.5913 27.0484 15.5758Z" fill="white"/>
<path d="M27.3898 16.0843C27.3977 16.0754 27.5437 15.7635 27.6836 15.8064C27.8258 15.8492 27.807 16.0503 27.8055 16.153C27.7961 16.66 27.2398 16.2476 27.3898 16.0843Z" fill="white"/>
<path d="M27.0726 13.3126C27.2641 12.932 27.8836 12.7228 28.3125 12.7568C28.4547 12.7679 29.407 13.1212 29.075 13.2387C28.9836 13.2713 28.7242 13.1027 28.6109 13.1027C28.4351 13.1027 28.2843 13.2151 28.1234 13.2661C27.7984 13.3696 27.3992 13.2934 27.075 13.2993C27.1125 13.2698 27.0305 13.3356 27.0726 13.3126Z" fill="white"/>
<path d="M32.7366 17.493C32.8069 17.2491 32.7983 17.0636 33.0257 16.833C33.2093 16.6467 33.3116 16.5218 33.4507 16.32C33.7139 15.9357 34.4045 16.0399 34.7881 16.2173C35.0131 16.3208 35.1506 16.5913 35.3233 16.8049C35.4717 16.9889 35.7553 17.2831 35.7397 17.5388C35.7311 17.6837 35.6053 17.8138 35.5623 17.9542C35.5084 18.1293 35.524 18.3001 35.5139 18.4812C35.4897 18.935 35.4694 19.3895 35.4756 19.8448C35.4811 20.2166 35.4303 20.5846 35.4162 20.9549C35.2506 20.3991 35.3944 19.7679 35.3045 19.1981C35.2655 18.9505 35.2248 18.7081 35.203 18.4582C35.1897 18.3119 35.2116 18.0584 35.1233 17.9313C35.0397 17.8101 34.9147 17.7576 34.7913 17.8455C34.6366 17.9557 34.8522 18.02 34.5913 18.0296C34.4475 18.0347 34.2749 17.9416 34.128 17.9364C33.9913 17.9313 33.8569 17.9623 33.7163 17.9512C33.6608 17.6859 33.8241 17.6098 34.0545 17.5846C34.385 17.5477 34.3733 17.4656 34.2288 17.1951C33.7936 17.3577 34.1655 16.5506 33.5905 16.7251C33.3866 16.7871 33.0608 17.0843 33.0764 17.303C33.0928 17.5358 33.3975 17.4006 33.5811 17.4309C33.5374 17.6674 33.471 17.8869 33.4499 18.1301C33.428 18.3821 33.4858 18.731 33.3905 18.9667C33.2757 18.6475 33.4577 18.0887 33.2311 17.8123C33.1194 17.6755 32.8827 17.7014 32.7889 17.5188C32.8397 17.4545 32.9069 17.3969 32.9796 17.354" fill="url(#paint5_linear_81_95)"/>
<path d="M34.6413 17.3311C34.5991 17.1493 34.4194 16.7088 34.7389 16.7125C34.892 16.7147 35.1764 16.9734 35.2772 17.0769C35.7029 17.5115 34.9225 17.5832 34.6397 17.3333C34.6483 17.2971 34.5998 17.3429 34.6413 17.3311Z" fill="white"/>
<path d="M33.6397 19.0406C33.5983 18.6911 33.9452 18.5092 34.2624 18.5846C34.5038 18.6423 34.5467 18.6984 34.4944 18.9305C34.4381 19.1826 34.3272 19.3969 34.3366 19.6637C34.2436 19.5248 34.2194 19.3407 34.1717 19.1796C33.9491 19.3119 34.0545 20.0015 34.0545 20.2239C34.0538 20.9039 34.0788 21.5854 34.0788 22.2668C34.0788 22.986 34.1139 23.7051 34.0795 24.422C34.0631 24.7591 34.1827 25.4398 34.0084 25.7576C33.7592 25.4161 33.8835 24.8507 33.8835 24.442C33.8835 23.9423 33.8725 23.4427 33.8702 22.9438C33.867 22.3769 33.8897 21.799 33.8592 21.2306C33.835 20.7738 33.8124 20.3156 33.7858 19.8551C33.7756 19.6608 33.4897 19.1604 33.6397 19.0406Z" fill="url(#paint6_linear_81_95)"/>
<path d="M33.7131 16.3843C33.9678 16.2358 34.2631 16.1907 34.5373 16.2986C34.3334 16.6275 33.9967 16.5455 33.6835 16.4597C33.7092 16.4058 33.6577 16.4169 33.7131 16.3843Z" fill="white"/>
<defs>
<linearGradient id="paint0_linear_81_95" x1="25" y1="7.13969" x2="25" y2="42.9882" gradientUnits="userSpaceOnUse">
<stop stop-color="#1A6DFF"/>
<stop offset="1" stop-color="#C822FF"/>
</linearGradient>
<linearGradient id="paint1_linear_81_95" x1="14.4096" y1="11.5713" x2="14.4481" y2="24.1597" gradientUnits="userSpaceOnUse">
<stop stop-color="#6DC7FF"/>
<stop offset="1" stop-color="#E6ABFF"/>
</linearGradient>
<linearGradient id="paint2_linear_81_95" x1="13.6846" y1="11.5735" x2="13.7231" y2="24.1619" gradientUnits="userSpaceOnUse">
<stop stop-color="#6DC7FF"/>
<stop offset="1" stop-color="#E6ABFF"/>
</linearGradient>
<linearGradient id="paint3_linear_81_95" x1="20.929" y1="11.5514" x2="20.9682" y2="24.1397" gradientUnits="userSpaceOnUse">
<stop stop-color="#6DC7FF"/>
<stop offset="1" stop-color="#E6ABFF"/>
</linearGradient>
<linearGradient id="paint4_linear_81_95" x1="28.0539" y1="11.5299" x2="28.0923" y2="24.1183" gradientUnits="userSpaceOnUse">
<stop stop-color="#6DC7FF"/>
<stop offset="1" stop-color="#E6ABFF"/>
</linearGradient>
<linearGradient id="paint5_linear_81_95" x1="34.2186" y1="11.5107" x2="34.2571" y2="24.0991" gradientUnits="userSpaceOnUse">
<stop stop-color="#6DC7FF"/>
<stop offset="1" stop-color="#E6ABFF"/>
</linearGradient>
<linearGradient id="paint6_linear_81_95" x1="34.0303" y1="11.5114" x2="34.0688" y2="24.0998" gradientUnits="userSpaceOnUse">
<stop stop-color="#6DC7FF"/>
<stop offset="1" stop-color="#E6ABFF"/>
</linearGradient>
</defs>
</svg>
