<svg width="50" height="50" viewBox="0 0 50 50" fill="none" xmlns="http://www.w3.org/2000/svg">
                                <rect width="50" height="50" fill="#5865F2" />
								<g id="animated">
                                <path
                                    d="M38.18 13.34C35.72 12.24 33.09 11.45 30.35 11C30.01 11.58 29.61 12.36 29.34 12.98C26.42 12.56 23.52 12.56 20.65 12.98C20.38 12.36 19.98 11.58 19.64 11C16.88 11.45 14.25 12.25 11.79 13.35C6.83 20.48 5.48 27.44 6.16 34.3C9.45 36.64 12.64 38.06 15.77 38.99C16.55 37.98 17.24 36.9 17.83 35.76C16.7 35.35 15.61 34.85 14.59 34.26C14.86 34.07 15.13 33.87 15.38 33.66C21.64 36.45 28.43 36.45 34.61 33.66C34.87 33.87 35.13 34.07 35.4 34.26C34.37 34.85 33.29 35.36 32.15 35.77C32.75 36.9 33.44 37.98 34.21 39C37.35 38.07 40.54 36.64 43.83 34.3C44.62 26.35 42.49 19.45 38.18 13.34ZM18.68 30.08C16.81 30.08 15.27 28.42 15.27 26.38C15.27 24.35 16.77 22.68 18.68 22.68C20.59 22.68 22.13 24.35 22.1 26.38C22.1 28.42 20.59 30.08 18.68 30.08ZM31.31 30.08C29.43 30.08 27.89 28.42 27.89 26.38C27.89 24.35 29.4 22.68 31.31 22.68C33.22 22.68 34.76 24.35 34.72 26.38C34.72 28.42 33.22 30.08 31.31 30.08Z"
                                    fill="#FFFFFF"
                                />
								<animateTransform
                                    attributeName="transform"
                                    type="rotate"
                                    values="0 25 25; 360 25 25; 360 25 25;"
                                    dur="9s"
                                    keyTimes="0; 0.025; 1"
                                    repeatCount="indefinite"
                                />
								</g>
                            </svg>