<svg width="50.000000" height="50.000000" viewBox="0 0 50 50" fill="none" xmlns="http://www.w3.org/2000/svg" xmlns:xlink="http://www.w3.org/1999/xlink">
	<desc>
			Created with Pixso.
	</desc>
	<defs/>
	<g opacity="0.000000">
		<rect id="Прямоугольник 40" width="50.000000" height="50.000000" fill="#C4C4C4" fill-opacity="1.000000"/>
	</g>
	<path id="path" d="M0 24.5C0 14.28 8.15 6 18.21 6C28.27 6 36.42 14.28 36.42 24.5C36.42 34.71 28.27 42.99 18.21 42.99C8.15 42.99 0 34.71 0 24.5ZM18.27 33.75C19.48 33.75 20.64 33.51 21.75 33.04C22.87 32.57 23.85 31.91 24.71 31.04C25.56 30.17 26.22 29.17 26.68 28.04C27.14 26.9 27.37 25.72 27.37 24.5C27.37 19.39 23.3 15.25 18.27 15.25C17.06 15.24 15.9 15.48 14.79 15.95C13.67 16.42 12.69 17.08 11.83 17.95C10.98 18.82 10.32 19.82 9.86 20.95C9.4 22.09 9.16 23.27 9.16 24.5C9.16 29.6 13.24 33.75 18.27 33.75Z" fill="#0071FF" fill-opacity="1.000000" fill-rule="evenodd"/>
	<path id="path" d="M43.92 6C42.25 5.99 40.82 6.59 39.63 7.8C38.45 9 37.85 10.46 37.85 12.16C37.85 13.87 38.45 15.32 39.63 16.53C40.82 17.73 42.25 18.33 43.92 18.33C45.6 18.33 47.03 17.73 48.21 16.53C49.4 15.32 49.99 13.87 50 12.16C49.99 10.46 49.4 9 48.22 7.8C47.03 6.59 45.6 5.99 43.92 6ZM43.92 30.66C42.25 30.66 40.82 31.26 39.63 32.46C38.45 33.67 37.85 35.12 37.85 36.83C37.85 38.53 38.45 39.99 39.63 41.19C40.82 42.4 42.25 43 43.92 43C45.6 43 47.03 42.4 48.22 41.19C49.4 39.99 49.99 38.53 50 36.83C49.99 35.12 49.4 33.67 48.21 32.46C47.03 31.26 45.6 30.66 43.92 30.66Z" fill="#0071FF" fill-opacity="1.000000" fill-rule="nonzero"/>
</svg>
