<svg width="50.000000" height="50.000000" viewBox="0 0 50 50" fill="none" xmlns="http://www.w3.org/2000/svg" xmlns:xlink="http://www.w3.org/1999/xlink">
	<desc>
			Created with Pixso.
	</desc>
	<defs/>
	<g opacity="0.000000">
		<rect id="Прямоугольник 1" width="50.000000" height="50.000000" fill="#C4C4C4" fill-opacity="1.000000"/>
	</g>
	<path id="path14" d="M0 19C3.3 19 6.6 19 9.9 19C11.25 19 12.6 19.43 13.68 20.21C14.81 21.02 15.64 22.21 15.98 23.52C16.29 24.71 16.22 25.99 15.76 27.13C15.3 28.31 14.43 29.34 13.32 30.03C12.29 30.67 11.06 31.02 9.82 30.99C6.55 30.99 3.27 30.99 0 30.99C0 26.99 0 22.99 0 19ZM3.13 22C3.13 24 3.13 26 3.13 28C5.36 28 7.6 28 9.83 28C10.28 28 10.72 27.92 11.13 27.75C12.23 27.3 13.01 26.22 13.02 25.08C13.06 24.12 12.57 23.17 11.77 22.6C11.25 22.23 10.62 22.01 9.97 22C7.69 22 5.41 22 3.13 22ZM17.93 19.09C18.51 18.88 19.18 19.06 19.61 19.47C23.05 21.84 26.49 24.21 29.93 26.58C29.93 24.05 29.93 21.52 29.93 19C30.98 19 32.02 19 33.07 19C33.07 22.43 33.07 25.87 33.07 29.3C33.07 29.66 33.02 30.03 32.8 30.32C32.45 30.85 31.74 31.11 31.11 30.95C30.76 30.88 30.5 30.65 30.23 30.45C26.83 28.1 23.42 25.76 20.03 23.42C20.03 25.94 20.03 28.47 20.03 30.99C18.98 30.99 17.94 30.99 16.89 30.99C16.89 27.5 16.89 24 16.89 20.5C16.88 19.89 17.31 19.29 17.93 19.09ZM36.95 19.08C37.44 18.99 37.95 19 38.45 19C41.47 19 44.5 18.99 47.52 19C47.95 18.99 48.37 19.12 48.68 19.4C49.08 19.75 49.25 20.3 49.14 20.8C49.01 21.45 48.38 21.98 47.68 21.99C44.43 21.99 41.18 21.99 37.93 21.98C37.6 21.96 37.24 22.07 37.07 22.36C36.88 22.64 36.93 23.03 37.18 23.27C37.36 23.47 37.66 23.52 37.93 23.52C40.73 23.51 43.53 23.52 46.34 23.51C47.5 23.58 48.61 24.18 49.28 25.09C49.85 25.86 50.1 26.83 49.96 27.76C49.82 28.78 49.2 29.74 48.31 30.32C47.67 30.75 46.9 30.98 46.13 30.99C42.53 30.99 38.94 30.99 35.35 30.99C34.77 30.99 34.2 30.64 33.97 30.13C33.72 29.63 33.8 29.01 34.15 28.58C34.45 28.21 34.94 28 35.43 28C38.97 28 42.51 28 46.05 28C46.53 28.03 46.95 27.56 46.85 27.11C46.78 26.76 46.43 26.48 46.06 26.49C43.25 26.49 40.45 26.49 37.64 26.49C36.62 26.48 35.63 26.05 34.92 25.35C34.04 24.5 33.65 23.22 33.89 22.05C34.16 20.59 35.42 19.36 36.95 19.08Z" fill="#F08B21" fill-opacity="1.000000" fill-rule="nonzero"/>
	<path id="path14" d="M9.9 19C11.25 19 12.6 19.43 13.68 20.21C14.81 21.02 15.64 22.21 15.98 23.52C16.29 24.71 16.22 25.99 15.76 27.13C15.3 28.31 14.43 29.34 13.32 30.03C12.29 30.67 11.06 31.02 9.82 30.99C6.55 30.99 3.27 30.99 0 30.99C0 26.99 0 22.99 0 19C3.3 19 6.6 19 9.9 19ZM3.13 28C5.36 28 7.6 28 9.83 28C10.28 28 10.72 27.92 11.13 27.75C12.23 27.3 13.01 26.22 13.02 25.08C13.06 24.12 12.57 23.17 11.77 22.6C11.25 22.23 10.62 22.01 9.97 22C7.69 22 5.41 22 3.13 22C3.13 24 3.13 26 3.13 28ZM19.61 19.47C23.05 21.84 26.49 24.21 29.93 26.58C29.93 24.05 29.93 21.52 29.93 19C30.98 19 32.02 19 33.07 19C33.07 22.43 33.07 25.87 33.07 29.3C33.07 29.66 33.02 30.03 32.8 30.32C32.45 30.85 31.74 31.11 31.11 30.95C30.76 30.88 30.5 30.65 30.23 30.45C26.83 28.1 23.42 25.76 20.03 23.42C20.03 25.94 20.03 28.47 20.03 30.99C18.98 30.99 17.94 30.99 16.89 30.99C16.89 27.5 16.89 24 16.89 20.5C16.88 19.89 17.31 19.29 17.93 19.09C18.51 18.88 19.18 19.06 19.61 19.47ZM38.45 19C41.47 19 44.5 18.99 47.52 19C47.95 18.99 48.37 19.12 48.68 19.4C49.08 19.75 49.25 20.3 49.14 20.8C49.01 21.45 48.38 21.98 47.68 21.99C44.43 21.99 41.18 21.99 37.93 21.98C37.6 21.96 37.24 22.07 37.07 22.36C36.88 22.64 36.93 23.03 37.18 23.27C37.36 23.47 37.66 23.52 37.93 23.52C40.73 23.51 43.53 23.52 46.34 23.51C47.5 23.58 48.61 24.18 49.28 25.09C49.85 25.86 50.1 26.83 49.96 27.76C49.82 28.78 49.2 29.74 48.31 30.32C47.67 30.75 46.9 30.98 46.13 30.99C42.53 30.99 38.94 30.99 35.35 30.99C34.77 30.99 34.2 30.64 33.97 30.13C33.72 29.63 33.8 29.01 34.15 28.58C34.45 28.21 34.94 28 35.43 28C38.97 28 42.51 28 46.05 28C46.53 28.03 46.95 27.56 46.85 27.11C46.78 26.76 46.43 26.48 46.06 26.49C43.25 26.49 40.45 26.49 37.64 26.49C36.62 26.48 35.63 26.05 34.92 25.35C34.04 24.5 33.65 23.22 33.89 22.05C34.16 20.59 35.42 19.36 36.95 19.08C37.44 18.99 37.95 19 38.45 19Z" stroke="#000000" stroke-opacity="0" stroke-width="0.133333"/>
</svg>
