<svg width="50.000000" height="50.000000" viewBox="0 0 50 50" fill="none" xmlns="http://www.w3.org/2000/svg" xmlns:xlink="http://www.w3.org/1999/xlink">
	<desc>
			Created with Pixso.
	</desc>
	<defs/>
	<circle id="circle" cx="25.000000" cy="25.000000" r="25.000000" fill="#FFCD00" fill-opacity="1.000000"/>
	<path id="path" d="M25 50C23.34 50 21.74 49.68 20.21 49.04C18.68 48.41 17.33 47.51 16.16 46.33C14.98 45.16 14.08 43.81 13.45 42.28C12.81 40.75 12.5 39.15 12.5 37.5C12.5 35.84 12.81 34.24 13.45 32.71C14.08 31.18 14.98 29.83 16.16 28.66C17.33 27.48 18.68 26.58 20.21 25.95C21.74 25.31 23.34 25 25 25L50 25C50 26.64 49.83 28.26 49.51 29.87C49.19 31.48 48.72 33.05 48.09 34.56C47.46 36.08 46.69 37.52 45.78 38.88C44.87 40.25 43.83 41.51 42.67 42.67C41.51 43.83 40.25 44.87 38.88 45.78C37.52 46.69 36.08 47.46 34.56 48.09C33.05 48.72 31.48 49.19 29.87 49.51C28.26 49.83 26.64 50 25 50Z" fill="#FFB400" fill-opacity="1.000000" fill-rule="evenodd"/>
	<path id="path" d="M25 0C26.65 0 28.25 0.31 29.78 0.95C31.31 1.58 32.66 2.48 33.83 3.66C35.01 4.83 35.91 6.18 36.54 7.71C37.18 9.24 37.5 10.84 37.5 12.5C37.5 14.15 37.18 15.75 36.54 17.28C35.91 18.81 35.01 20.16 33.83 21.33C32.66 22.51 31.31 23.41 29.78 24.04C28.25 24.68 26.65 25 25 25L0 25C0 23.35 0.16 21.73 0.48 20.12C0.8 18.51 1.27 16.94 1.9 15.43C2.53 13.91 3.3 12.47 4.21 11.11C5.12 9.74 6.16 8.48 7.32 7.32C8.48 6.16 9.74 5.12 11.11 4.21C12.47 3.3 13.91 2.53 15.43 1.9C16.94 1.27 18.51 0.8 20.12 0.48C21.73 0.16 23.35 0 25 0Z" fill="#FFEB00" fill-opacity="1.000000" fill-rule="evenodd"/>
	<path id="path" d="M50 15.62L50 18.75C49.99 20.4 49.68 22 49.04 23.53C48.41 25.06 47.51 26.41 46.33 27.58C45.16 28.76 43.81 29.66 42.28 30.29C40.75 30.93 39.15 31.25 37.5 31.25C35.84 31.24 34.24 30.93 32.71 30.29C31.18 29.66 29.83 28.76 28.66 27.58C27.48 26.41 26.58 25.06 25.95 23.53C25.31 22 25 20.4 25 18.75C25 20.4 24.68 22 24.04 23.53C23.41 25.06 22.51 26.41 21.33 27.58C20.16 28.76 18.81 29.66 17.28 30.29C15.75 30.93 14.15 31.25 12.5 31.25C10.84 31.24 9.24 30.93 7.71 30.29C6.18 29.66 4.83 28.76 3.66 27.58C2.48 26.41 1.58 25.06 0.95 23.53C0.31 22 0 20.4 0 18.75L0 15.62L50 15.62ZM13.95 34.37C14.67 35.1 15.46 35.74 16.32 36.31C17.17 36.88 18.07 37.37 19.02 37.76C19.96 38.15 20.94 38.45 21.95 38.65C22.95 38.85 23.97 38.95 24.99 38.95C26.02 38.95 27.04 38.85 28.04 38.65C29.05 38.45 30.02 38.15 30.97 37.76C31.92 37.37 32.82 36.89 33.67 36.32C34.53 35.75 35.31 35.1 36.04 34.37L38.25 36.58C36.5 38.34 34.47 39.7 32.17 40.65C29.87 41.6 27.48 42.08 25 42.07C22.51 42.08 20.11 41.6 17.82 40.65C15.52 39.7 13.49 38.34 11.74 36.58L13.95 34.37Z" fill="#46321E" fill-opacity="1.000000" fill-rule="evenodd"/>
	<path id="path" d="M21.21 27.71L9.12 15.62L26.8 15.62L41.7 30.52C40.34 31.01 38.94 31.25 37.5 31.25C35.84 31.24 34.24 30.93 32.71 30.29C31.18 29.66 29.83 28.76 28.66 27.58C27.48 26.41 26.58 25.06 25.95 23.53C25.31 22 25 20.4 25 18.75C25 22.27 23.74 25.25 21.21 27.71Z" fill="#2C54A8" fill-opacity="1.000000" fill-rule="evenodd"/>
</svg>
