<svg width="50.000000" height="50.029907" viewBox="0 0 50 50.0299" fill="none" xmlns="http://www.w3.org/2000/svg" xmlns:xlink="http://www.w3.org/1999/xlink">
	<desc>
			Created with Pixso.
	</desc>
	<defs/>
	<g opacity="0.000000">
		<rect id="Прямоугольник 71" width="50.000000" height="50.000000" fill="#C4C4C4" fill-opacity="1.000000"/>
	</g>
	<path id="path" d="M39.45 0L10.55 0C9.84 0 9.24 0.24 8.74 0.73C8.24 1.22 8 1.81 8 2.5L8 47.49C7.99 48.5 8.45 49.24 9.36 49.71C10.27 50.18 11.15 50.12 12 49.55L24.58 40.99C24.91 40.77 25.23 40.77 25.55 40.99L37.98 49.53C38.83 50.11 39.71 50.16 40.62 49.69C41.54 49.23 42 48.49 42 47.48L42 2.5C41.99 1.81 41.75 1.22 41.25 0.73C40.75 0.24 40.15 0 39.45 0Z" fill="#FF3C38" fill-opacity="1.000000" fill-rule="nonzero"/>
	<path id="path" d="M33.43 15.83L28.22 15.83L26.61 10.98C26.35 10.22 25.81 9.84 25 9.84C24.18 9.84 23.64 10.22 23.38 10.98L21.77 15.83L16.56 15.83C15.75 15.84 15.21 16.23 14.96 16.99C14.71 17.75 14.91 18.37 15.56 18.85L19.78 21.85L18.17 26.71C17.92 27.47 18.13 28.09 18.79 28.56C19.45 29.03 20.12 29.03 20.78 28.57L25 25.57L29.21 28.57C29.87 29.03 30.54 29.03 31.2 28.56C31.85 28.09 32.06 27.47 31.82 26.71L30.21 21.85L34.43 18.85C35.08 18.37 35.28 17.75 35.03 16.99C34.78 16.23 34.24 15.84 33.43 15.83Z" fill="#FFC107" fill-opacity="1.000000" fill-rule="nonzero"/>
</svg>
