<svg width="50.000000" height="50.000000" viewBox="0 0 50 50" fill="none" xmlns="http://www.w3.org/2000/svg" xmlns:xlink="http://www.w3.org/1999/xlink">
	<desc>
			Created with Pixso.
	</desc>
	<defs/>
	<circle id="Эллипс 7" cx="25.000000" cy="25.000000" r="25.000000" fill="#FFFFFF" fill-opacity="1.000000"/>
	<path id="path" d="M5.99 17.37L26.15 5.55L25.18 5L5.03 16.81L5.99 17.37Z" fill="#FE91AB" fill-opacity="1.000000" fill-rule="nonzero"/>
	<path id="path" d="M27.72 23.21C26.83 22.7 26.11 21.44 26.11 20.41L26.14 5.56L19.29 9.58L5.99 17.37L5.96 32.22C5.95 33.25 6.68 34.51 7.56 35.02C8.01 35.29 8.42 35.31 8.71 35.14L28.86 23.32C28.57 23.5 28.16 23.47 27.72 23.21Z" fill="#ED5D71" fill-opacity="1.000000" fill-rule="nonzero"/>
	<path id="path" d="M6.8 17.93L9.52 19.51L9.72 19.63L9.72 35.37C9.46 35.35 9.17 35.26 8.86 35.08C7.7 34.41 6.76 32.77 6.77 31.43L6.8 17.93Z" fill="#E3E7F0" fill-opacity="1.000000" fill-rule="nonzero"/>
	<path id="path" d="M30.33 7.99L30.29 22.84C30.29 23.66 30.01 24.24 29.54 24.51L9.39 36.32C9.85 36.05 10.14 35.47 10.14 34.66L10.18 19.8L30.33 7.99Z" fill="#ED5D71" fill-opacity="1.000000" fill-rule="nonzero"/>
	<path id="path" d="M9.39 19.44L28.31 8.35L25.72 6.84L6.8 17.93L9.39 19.44Z" fill="#FFFFFF" fill-opacity="1.000000" fill-rule="nonzero"/>
	<path id="path" d="M5.03 16.81L5 31.66C4.99 33.3 6.14 35.31 7.56 36.14C8.98 36.97 10.14 36.3 10.14 34.66L10.18 19.8L9.22 19.25L9.18 34.1C9.18 35.13 8.45 35.54 7.56 35.03C6.68 34.51 5.95 33.25 5.96 32.22L5.99 17.37L5.03 16.81Z" fill="#D3374E" fill-opacity="1.000000" fill-rule="nonzero"/>
	<path id="path" d="M10.18 19.8L30.33 7.99L29.37 7.43L9.22 19.25L10.18 19.8Z" fill="#FE91AB" fill-opacity="1.000000" fill-rule="nonzero"/>
	<path id="path" d="M30.34 5.56L25.54 8.37L23.48 12.01L30.33 7.99L30.34 5.56Z" fill="#ED5D71" fill-opacity="1.000000" fill-rule="nonzero"/>
	<path id="path" d="M25.55 8.37L23.48 12.01L22.51 11.45L24.58 7.81L25.55 8.37Z" fill="#D3374E" fill-opacity="1.000000" fill-rule="nonzero"/>
	<path id="path" d="M25.55 8.37L30.34 5.56L29.37 5L24.58 7.81L25.55 8.37Z" fill="#FE91AB" fill-opacity="1.000000" fill-rule="nonzero"/>
	<path id="path" d="M13.32 21.62L33.48 9.8L32.51 9.24L12.36 21.06L13.32 21.62Z" fill="#FFDD94" fill-opacity="1.000000" fill-rule="nonzero"/>
	<path id="path" d="M35.04 27.46C34.16 26.94 33.44 25.69 33.44 24.66L33.47 9.81L26.61 13.83L13.32 21.62L13.29 36.47C13.29 37.5 14.01 38.76 14.89 39.27C15.34 39.54 15.75 39.56 16.04 39.39L36.19 27.57C35.9 27.75 35.49 27.72 35.04 27.46Z" fill="#FEBB61" fill-opacity="1.000000" fill-rule="nonzero"/>
	<path id="path" d="M14.13 22.18L16.85 23.76L17.05 23.88L17.05 39.62C16.79 39.6 16.5 39.51 16.19 39.33C15.03 38.66 14.09 37.02 14.1 35.68L14.13 22.18Z" fill="#E3E7F0" fill-opacity="1.000000" fill-rule="nonzero"/>
	<path id="path" d="M37.66 12.24L37.62 27.09C37.62 27.91 37.33 28.49 36.87 28.76L16.72 40.57C17.18 40.3 17.47 39.72 17.47 38.91L17.51 24.05L37.66 12.24Z" fill="#FEBB61" fill-opacity="1.000000" fill-rule="nonzero"/>
	<path id="path" d="M16.72 23.69L35.64 12.6L33.05 11.09L14.13 22.18L16.72 23.69Z" fill="#FFFFFF" fill-opacity="1.000000" fill-rule="nonzero"/>
	<path id="path" d="M12.36 21.06L12.32 35.91C12.32 37.55 13.47 39.56 14.89 40.39C16.31 41.22 17.47 40.55 17.47 38.91L17.51 24.05L16.55 23.49L16.51 38.35C16.51 39.38 15.78 39.79 14.89 39.28C14 38.76 13.28 37.5 13.29 36.47L13.32 21.62L12.36 21.06Z" fill="#EFA143" fill-opacity="1.000000" fill-rule="nonzero"/>
	<path id="path" d="M17.51 24.05L37.66 12.24L36.7 11.68L16.55 23.5L17.51 24.05Z" fill="#FFDD94" fill-opacity="1.000000" fill-rule="nonzero"/>
	<path id="path" d="M37.67 9.81L32.87 12.62L30.8 16.26L37.66 12.24L37.67 9.81Z" fill="#FEBB61" fill-opacity="1.000000" fill-rule="nonzero"/>
	<path id="path" d="M32.87 12.62L30.81 16.26L29.84 15.7L31.91 12.05L32.87 12.62Z" fill="#EFA143" fill-opacity="1.000000" fill-rule="nonzero"/>
	<path id="path" d="M32.87 12.62L37.67 9.81L36.7 9.25L31.91 12.05L32.87 12.62Z" fill="#FFDD94" fill-opacity="1.000000" fill-rule="nonzero"/>
	<path id="path" d="M20.65 25.87L40.8 14.05L39.84 13.49L19.69 25.31L20.65 25.87Z" fill="#7BB1FF" fill-opacity="1.000000" fill-rule="nonzero"/>
	<path id="path" d="M42.37 31.71C41.49 31.19 40.77 29.93 40.77 28.91L40.8 14.06L33.94 18.08L20.65 25.87L20.62 40.72C20.61 41.75 21.33 43.01 22.22 43.52C22.67 43.78 23.08 43.81 23.37 43.64L43.52 31.82C43.23 32 42.82 31.97 42.37 31.71Z" fill="#5793FB" fill-opacity="1.000000" fill-rule="nonzero"/>
	<path id="path" d="M21.46 26.43L24.18 28.01L24.38 28.13L24.38 43.87C24.11 43.85 23.82 43.76 23.52 43.58C22.36 42.91 21.42 41.27 21.43 39.93L21.46 26.43Z" fill="#E3E7F0" fill-opacity="1.000000" fill-rule="nonzero"/>
	<path id="path" d="M44.99 16.49L44.95 31.34C44.95 32.16 44.66 32.74 44.2 33.01L24.05 44.82C24.51 44.55 24.8 43.97 24.8 43.16L24.84 28.3L44.99 16.49Z" fill="#5793FB" fill-opacity="1.000000" fill-rule="nonzero"/>
	<path id="path" d="M38.48 33L43.38 30.12C43.38 30.12 43.38 31.1 43.38 31.16L38.47 34.04L38.48 33ZM38.48 31.04L43.38 28.17C43.38 28.17 43.38 29.14 43.38 29.2L38.47 32.08L38.48 31.04ZM38.48 29.08L43.38 26.21C43.38 26.21 43.38 27.18 43.38 27.24L38.47 30.12L38.48 29.08Z" fill="#E3E7F0" fill-opacity="1.000000" fill-rule="nonzero"/>
	<path id="path" d="M24.05 27.94L42.97 16.85L40.38 15.34L21.46 26.43L24.05 27.94Z" fill="#FFFFFF" fill-opacity="1.000000" fill-rule="nonzero"/>
	<path id="path" d="M19.69 25.31L19.65 40.16C19.65 41.8 20.8 43.81 22.22 44.64C23.64 45.47 24.8 44.8 24.8 43.16L24.84 28.3L23.87 27.74L23.84 42.6C23.84 43.62 23.11 44.04 22.22 43.52C21.33 43.01 20.61 41.75 20.62 40.72L20.65 25.87L19.69 25.31Z" fill="#3A53D0" fill-opacity="1.000000" fill-rule="nonzero"/>
	<path id="path" d="M24.84 28.3L44.99 16.49L44.03 15.93L23.88 27.74L24.84 28.3Z" fill="#7BB1FF" fill-opacity="1.000000" fill-rule="nonzero"/>
	<path id="path" d="M45 14.06L40.2 16.87L38.13 20.51L44.99 16.49L45 14.06Z" fill="#5793FB" fill-opacity="1.000000" fill-rule="nonzero"/>
	<path id="path" d="M40.2 16.87L38.14 20.51L37.17 19.95L39.24 16.3L40.2 16.87Z" fill="#3A53D0" fill-opacity="1.000000" fill-rule="nonzero"/>
	<path id="path" d="M40.2 16.87L45 14.06L44.03 13.5L39.24 16.3L40.2 16.87Z" fill="#7BB1FF" fill-opacity="1.000000" fill-rule="nonzero"/>
</svg>
