<svg width="50" height="50" viewBox="0 0 50 50" fill="none" xmlns="http://www.w3.org/2000/svg">
<path fill-rule="evenodd" clip-rule="evenodd" d="M6.75308 5.01964H43.2468C44.9998 5.01964 46.4343 6.50978 46.4343 8.33068V46.1092C46.4343 47.9301 44.9998 49.4202 43.2469 49.4202H6.75308C5.00017 49.4203 3.56567 47.9302 3.56567 46.1092V8.33068C3.56567 6.50978 5.00017 5.01964 6.75308 5.01964Z" fill="#97B3C4"/>
<path fill-rule="evenodd" clip-rule="evenodd" d="M6.75308 5.01964H43.2468C44.9998 5.01964 46.4343 6.50978 46.4343 8.33068V37.5577C42.6206 44.1353 35.7265 48.7309 27.703 49.4203H6.75308C5.00017 49.4203 3.56567 47.9302 3.56567 46.1092V8.33068C3.56567 6.50978 5.00017 5.01964 6.75308 5.01964Z" fill="#E1EFFF"/>
<path fill-rule="evenodd" clip-rule="evenodd" d="M27.703 49.4203C33.2697 47.0128 37.7391 42.5702 40.1504 37.0462C41.1166 37.858 42.3316 38.3417 43.651 38.3417C44.6626 38.3417 45.6101 38.0581 46.4344 37.5577C42.6206 44.1353 35.7265 48.7309 27.703 49.4203ZM6.53902 47.6938V10.5325C6.53902 8.73937 7.94946 7.27433 9.67558 7.27433H45.5725C45.8214 7.27433 46.0623 7.3049 46.295 7.3633C45.8936 6.00939 44.6759 5.01964 43.2468 5.01964H6.75308C5.00017 5.01964 3.56567 6.50978 3.56567 8.33068V46.1092C3.56567 47.9301 5.00017 49.4202 6.75308 49.4202H7.02073C6.70549 48.904 6.5384 48.3052 6.53902 47.6938Z" fill="#B0CCDD"/>
<path fill-rule="evenodd" clip-rule="evenodd" d="M6.75308 5.01964H43.2468C44.9998 5.01964 46.4343 6.50978 46.4343 8.33068V15.5088H3.56567V8.33068C3.56567 6.50978 5.00017 5.01964 6.75308 5.01964Z" fill="#D10028"/>
<path fill-rule="evenodd" clip-rule="evenodd" d="M6.53902 10.5325C6.53902 8.73937 7.94946 7.27433 9.67558 7.27433H45.5725C45.8214 7.27433 46.0623 7.3049 46.295 7.3633C45.8936 6.00939 44.6759 5.01964 43.2468 5.01964H6.75309C5.00017 5.01964 3.56567 6.50978 3.56567 8.33068V15.5088H6.53902V10.5325Z" fill="#B8000F"/>
<path fill-rule="evenodd" clip-rule="evenodd" d="M16.7436 0.579786C17.6937 0.579786 18.4698 1.38604 18.4698 2.37012V7.66896C18.4698 8.65314 17.6937 9.4593 16.7436 9.4593C15.7962 9.4593 15.0201 8.65304 15.0201 7.66896V2.37012C15.0201 1.38604 15.7963 0.579786 16.7436 0.579786ZM33.2536 0.579786C34.2036 0.579786 34.9798 1.38604 34.9798 2.37012V7.66896C34.9798 8.65314 34.2036 9.4593 33.2536 9.4593C32.3061 9.4593 31.5301 8.65304 31.5301 7.66896V2.37012C31.5301 1.38604 32.3062 0.579786 33.2536 0.579786Z" fill="#113255"/>
<path fill-rule="evenodd" clip-rule="evenodd" d="M16.7436 0.579786C15.7962 0.579786 15.0201 1.38604 15.0201 2.37012V7.66896C15.0201 8.65314 15.7963 9.4593 16.7436 9.4593V5.01964V0.579786ZM33.2536 0.579786C32.3061 0.579786 31.5301 1.38604 31.5301 2.37012V7.66896C31.5301 8.65314 32.3062 9.4593 33.2536 9.4593V5.01964V0.579786Z" fill="#00193C"/>
<path d="M43.1691 4.42364H35.5942V2.46788C35.5942 1.10713 34.5297 0 33.2211 0C31.9111 0 30.8454 1.10713 30.8454 2.46788V4.42364H19.1545V2.46788C19.1545 1.10713 18.09 0 16.7815 0C15.4715 0 14.4058 1.10713 14.4058 2.46788V4.42364H6.83082C4.7185 4.42364 3 6.20753 3 8.40021V46.0206C3 48.2148 4.7185 50 6.83082 50H43.1692C45.2815 50 47 48.2148 47 46.0206V8.40031C46.9999 6.20753 45.2814 4.42364 43.1691 4.42364ZM32.1592 2.46788C32.1592 1.85957 32.6355 1.36465 33.2211 1.36465C33.8053 1.36465 34.2805 1.85948 34.2805 2.46788V7.74142C34.2805 8.34972 33.8053 8.84465 33.2211 8.84465C32.6355 8.84465 32.1592 8.34982 32.1592 7.74142V2.46788ZM15.7196 2.46788C15.7196 1.85957 16.1959 1.36465 16.7815 1.36465C17.3656 1.36465 17.8408 1.85948 17.8408 2.46788V7.74142C17.8408 8.34972 17.3656 8.84465 16.7815 8.84465C16.1959 8.84465 15.7196 8.34982 15.7196 7.74142V2.46788ZM6.83082 5.78839H14.4058V7.74142C14.4058 9.10226 15.4715 10.2093 16.7815 10.2093C18.09 10.2093 19.1545 9.10217 19.1545 7.74142V5.78839H30.8454V7.74142C30.8454 9.10226 31.9111 10.2093 33.2211 10.2093C34.5297 10.2093 35.5942 9.10217 35.5942 7.74142V5.78839H43.1691C44.557 5.78839 45.6861 6.96007 45.6861 8.40021V14.8682H4.31379V8.40031C4.31379 6.96007 5.44295 5.78839 6.83082 5.78839ZM4.31379 46.0207V16.233H45.6861V37.0962C45.0266 37.4289 44.3028 37.604 43.5715 37.604C42.4486 37.604 41.3873 37.2096 40.5025 36.4637C40.4245 36.398 40.333 36.3517 40.2351 36.3285C40.1372 36.3052 40.0355 36.3056 39.9378 36.3295C39.84 36.3534 39.7489 36.4003 39.6713 36.4666C39.5937 36.5329 39.5318 36.6167 39.4903 36.7117C37.1596 42.0479 32.9249 46.2774 27.5589 48.6355H6.83082C5.44295 48.6354 4.31379 47.4624 4.31379 46.0207ZM44.6862 38.8621C41.5505 43.3151 36.9404 46.5141 31.7031 47.9227C35.4262 45.4792 38.414 42.0724 40.3467 38.0197C41.3182 38.6429 42.4186 38.9686 43.5715 38.9686C43.9463 38.9686 44.3195 38.9327 44.6862 38.8621ZM43.1691 48.6353H33.9695C38.662 46.9473 42.7676 43.86 45.6861 39.7531V46.0207C45.6861 47.4624 44.557 48.6353 43.1691 48.6353ZM33.974 35.8834V24.7357C33.974 24.5547 34.0432 24.3812 34.1664 24.2532C34.2895 24.1253 34.4566 24.0534 34.6308 24.0534C34.805 24.0534 34.9721 24.1253 35.0953 24.2532C35.2185 24.3812 35.2877 24.5547 35.2877 24.7357V35.8834C35.2877 36.0643 35.2185 36.2379 35.0953 36.3658C34.9721 36.4938 34.805 36.5657 34.6308 36.5657C34.4566 36.5657 34.2895 36.4938 34.1664 36.3658C34.0432 36.2379 33.974 36.0643 33.974 35.8834ZM22.475 24.7357C22.475 24.9167 22.4058 25.0902 22.2826 25.2182C22.1595 25.3461 21.9924 25.418 21.8182 25.418H16.0287V29.014H19.6968C19.8711 29.014 20.0381 29.0859 20.1613 29.2139C20.2845 29.3418 20.3537 29.5154 20.3537 29.6963C20.3537 29.8773 20.2845 30.0509 20.1613 30.1788C20.0381 30.3068 19.8711 30.3787 19.6968 30.3787H16.0287V35.8833C16.0287 35.9729 16.0117 36.0616 15.9787 36.1444C15.9457 36.2272 15.8973 36.3024 15.8363 36.3658C15.7753 36.4291 15.7029 36.4794 15.6232 36.5137C15.5435 36.548 15.4581 36.5656 15.3718 36.5656C15.2856 36.5656 15.2001 36.548 15.1205 36.5137C15.0408 36.4794 14.9684 36.4291 14.9074 36.3658C14.8464 36.3024 14.798 36.2272 14.765 36.1444C14.732 36.0616 14.715 35.9729 14.715 35.8833V24.7357C14.715 24.5547 14.7842 24.3812 14.9074 24.2532C15.0305 24.1253 15.1976 24.0534 15.3718 24.0534H21.8182C21.9924 24.0534 22.1595 24.1253 22.2826 24.2532C22.4058 24.3812 22.475 24.5547 22.475 24.7357ZM25.3451 32.2584H27.9127C28.0309 32.2584 28.1478 32.2519 28.2634 32.2411L30.5741 36.2348C30.6185 36.3117 30.6771 36.3786 30.7464 36.4319C30.8158 36.4852 30.8946 36.5238 30.9783 36.5455C31.062 36.5672 31.149 36.5715 31.2343 36.5582C31.3197 36.5449 31.4016 36.5143 31.4756 36.4681C31.6249 36.3749 31.7324 36.2239 31.7746 36.0483C31.8167 35.8726 31.79 35.6868 31.7002 35.5317L29.5798 31.8667C30.888 31.2176 31.7941 29.8299 31.7941 28.2262V28.0851C31.7941 25.8619 30.0529 24.0532 27.9127 24.0532H24.6882C24.514 24.0532 24.3469 24.1251 24.2238 24.253C24.1006 24.381 24.0314 24.5545 24.0314 24.7355V35.8832C24.0314 36.0641 24.1006 36.2377 24.2238 36.3657C24.3469 36.4936 24.514 36.5655 24.6882 36.5655C24.8624 36.5655 25.0295 36.4936 25.1527 36.3657C25.2759 36.2377 25.3451 36.0641 25.3451 35.8832V32.2584ZM25.3451 25.418H27.9127C29.3285 25.418 30.4803 26.6145 30.4803 28.0852V28.2263C30.4803 29.5045 29.6102 30.5751 28.4531 30.8336C28.4486 30.8346 28.444 30.8356 28.4395 30.8369C28.2694 30.8739 28.0933 30.8935 27.9127 30.8935H25.3451V30.225V25.418Z" fill="black"/>
</svg>
