<svg width="50.000000" height="50.000000" viewBox="0 0 50 50" fill="none" xmlns="http://www.w3.org/2000/svg" xmlns:xlink="http://www.w3.org/1999/xlink">
	<desc>
			Created with Pixso.
	</desc>
	<defs/>
	<circle id="circle" cx="25.000000" cy="25.000000" r="25.000000" fill="#F15233" fill-opacity="1.000000"/>
	<path id="path" d="M23.68 18.56C22.72 18.97 21.72 19.19 20.68 19.22C17.72 17.49 13.69 19.29 13.69 23.08C13.69 24.5 14.58 26.43 15.98 26.9L15.98 26.97C14.94 27.43 14.66 29.79 16.03 30.64L16.03 30.7C14.53 31.2 13.54 32.16 13.54 33.83C13.54 36.7 16.23 37.5 18.58 37.5C21.44 37.5 23.57 36.46 23.57 33.26C23.57 29.31 18.01 30.78 18.01 28.66C18.01 27.9 18.41 27.61 19.09 27.47C21.4 27.04 22.81 25.24 22.81 22.88C22.81 22.48 22.74 22.09 22.59 21.71C22.96 21.62 23.32 21.51 23.68 21.38L23.68 18.56ZM18.52 32.23C19.46 32.23 20.79 32.4 20.79 33.63C20.79 34.85 19.72 35.09 18.72 35.09C17.76 35.09 16.33 34.94 16.33 33.69C16.33 32.44 17.55 32.23 18.52 32.23ZM18.35 25C17.13 25 16.62 24.27 16.62 23.11C16.62 20.36 19.98 20.39 19.98 23.08C19.98 24.22 19.55 25 18.35 25ZM36.45 30.49L36.45 27.76C35.96 28.07 35.42 28.23 34.84 28.22C33.82 28.22 33.64 27.22 33.64 26.39L33.64 21.31C35.39 21.31 36.45 21.36 36.45 21.36L36.45 18.71L33.64 18.71C33.61 17.94 33.64 17.17 33.72 16.41L30.59 16.41C30.68 17.17 30.71 17.94 30.67 18.71L29.35 18.71L29.35 21.38C29.79 21.29 30.23 21.27 30.67 21.32L30.67 21.38L30.65 26.25C30.65 28.68 30.98 31.04 33.94 31.04C34.82 31.06 35.66 30.88 36.45 30.49ZM26.55 12.5C26.29 12.51 26.04 12.58 25.81 12.69C25.58 12.8 25.37 12.95 25.2 13.14C25.02 13.33 24.89 13.54 24.79 13.78C24.7 14.02 24.65 14.27 24.65 14.53C24.65 14.79 24.7 15.04 24.79 15.28C24.89 15.52 25.02 15.73 25.2 15.92C25.37 16.11 25.58 16.26 25.81 16.37C26.04 16.48 26.29 16.55 26.55 16.56C27.61 16.56 28.41 15.58 28.41 14.54C28.41 13.51 27.63 12.5 26.55 12.5ZM25.01 18.7C25.11 19.52 25.1 29.84 25.01 30.87L28.07 30.87C27.98 29.88 27.97 19.53 28.07 18.72L25.01 18.7Z" fill="#FFFFFF" fill-opacity="1.000000" fill-rule="nonzero"/>
</svg>
