<svg width="50" height="50" viewBox="0 0 50 50" fill="none" xmlns="http://www.w3.org/2000/svg">
<path d="M23.5104 18.089V22.7744L12.2488 11.5368L15.9889 7.80338L21.6703 13.4782C21.5178 13.8879 21.4405 14.3217 21.4421 14.7588C21.44 15.4515 21.6327 16.1309 21.9984 16.7196C22.364 17.3084 22.8879 17.7828 23.5104 18.089ZM26.9626 18.7647L28.713 20.512L26.9626 22.2629V18.7647ZM37.6744 11.5741L30.9085 18.3204L28.6307 16.0543C28.8383 15.4979 28.9076 14.8997 28.8327 14.3107C28.7186 13.4462 28.3049 12.6488 27.6634 12.0569C27.0219 11.465 26.1931 11.1159 25.3207 11.0701C24.8254 11.0441 24.3301 11.1204 23.8657 11.2941L18.1807 5.60066L22.998 0.806941C23.2537 0.551147 23.5575 0.348207 23.8918 0.20974C24.2262 0.0712739 24.5846 0 24.9467 0C25.3087 0 25.6671 0.0712739 26.0015 0.20974C26.3359 0.348207 26.6396 0.551147 26.8953 0.806941L37.6744 11.5741Z" fill="#FF8080"/>
<path d="M21.2739 27.0791L11.0408 37.2937L0.886253 27.2545C0.31183 26.6581 -0.00619801 25.8611 9.1543e-05 25.0338C0.0063811 24.2064 0.33649 23.4144 0.919915 22.8267L11.3924 12.3731L21.2739 22.2704C21.9116 22.9087 22.2697 23.7733 22.2697 24.6747C22.2697 25.5762 21.9116 26.4408 21.2739 27.0791Z" fill="#80B3FF"/>
<path d="M26.9813 28.2962V32.5859C27.6045 32.956 28.0988 33.5083 28.3972 34.168C28.6955 34.8278 28.7836 35.5631 28.6494 36.2745C28.5265 36.9685 28.1953 37.6089 27.6998 38.1109C27.2042 38.6129 26.5676 38.9529 25.8742 39.0858C25.033 39.2693 24.1536 39.1406 23.4006 38.7238C22.6475 38.307 22.0723 37.6306 21.7826 36.8212C21.4929 36.0118 21.5086 35.1248 21.8266 34.326C22.1446 33.5272 22.7432 32.8715 23.5104 32.4813V27.7399C23.5041 27.6724 23.4795 27.6079 23.4393 27.5534C23.3991 27.4988 23.3447 27.4562 23.2821 27.4301C23.2194 27.404 23.1508 27.3954 23.0837 27.4053C23.0165 27.4151 22.9533 27.443 22.9008 27.486L12.1777 38.186L23.2112 49.1996C23.7253 49.7121 24.4221 50 25.1486 50C25.8752 50 26.572 49.7121 27.0861 49.1996L37.4949 38.8282L26.9813 28.2962Z" fill="#FFE680"/>
<path d="M48.8764 27.7959L38.95 37.7081L28.2606 27.038C27.6609 26.4388 27.324 25.6263 27.324 24.7793C27.324 23.9322 27.6609 23.1198 28.2606 22.5206L29.4912 21.2811L32.2177 23.9953C31.9254 24.7874 31.913 25.6555 32.1826 26.4557C32.4521 27.2558 32.9874 27.9401 33.6998 28.395C34.4122 28.85 35.2589 29.0483 36.0997 28.9572C36.9405 28.8661 37.7249 28.4911 38.3229 27.8941C38.9209 27.2972 39.2966 26.5142 39.3879 25.675C39.4792 24.8357 39.2805 23.9905 38.8247 23.2794C38.3689 22.5683 37.6834 22.0339 36.8818 21.7649C36.0802 21.4958 35.2106 21.5082 34.417 21.8L31.7053 19.097L38.6396 12.179L48.8764 22.4011C49.2326 22.7546 49.5151 23.1749 49.708 23.6378C49.9008 24.1008 50.0001 24.5971 50.0001 25.0985C50.0001 25.5998 49.9008 26.0962 49.708 26.5591C49.5151 27.022 49.2326 27.4424 48.8764 27.7959Z" fill="#8DD35F"/>
</svg>
