<svg width="50.000000" height="50.000000" viewBox="0 0 50 50" fill="none" xmlns="http://www.w3.org/2000/svg" xmlns:xlink="http://www.w3.org/1999/xlink">
	<desc>
			Created with Pixso.
	</desc>
	<defs/>
	<path id="path" d="M20.43 20.43C20.82 20.27 21.05 20.01 21.12 19.73C21.2 19.45 21.13 19.1 20.88 18.77C20.62 18.44 20.2 18.14 19.67 18C19.13 17.85 18.61 17.9 18.22 18.05C17.83 18.21 17.6 18.47 17.52 18.75C17.45 19.04 17.51 19.39 17.77 19.71C18.03 20.04 18.46 20.34 18.99 20.48C19.53 20.63 20.04 20.58 20.43 20.43Z" fill="#FFFFFF" fill-opacity="1.000000" fill-rule="nonzero"/>
	<path id="path" d="M24.9 24.28C21.96 24.28 19.56 25.64 19.46 27.33C19.45 27.37 19.45 27.41 19.45 27.45C19.45 28.16 19.86 28.82 20.53 29.35C21.26 29.81 22.37 30.01 23.07 30.45C23.32 30.6 23.56 30.76 23.76 30.97C24.5 31.75 24.52 32.44 24.35 32.91C23.99 33.9 22.91 34.59 21.66 34.59C21.47 34.6 21.32 34.76 21.32 34.95C21.32 35.15 21.47 35.3 21.67 35.3C21.67 35.3 21.67 35.3 21.67 35.3C23.18 35.28 24.51 34.45 24.99 33.22C25.5 34.4 26.8 35.2 28.27 35.22C28.28 35.22 28.28 35.22 28.28 35.22C28.47 35.22 28.63 35.07 28.63 34.88C28.64 34.69 28.48 34.52 28.29 34.52C27.04 34.5 25.94 33.83 25.6 32.84C25.27 31.86 25.89 31.15 26.08 30.97C26.28 30.76 26.52 30.59 26.76 30.45C27.47 30.01 28.45 29.77 29.29 29.35C29.96 29.02 30.38 28.17 30.37 27.45C30.37 27.38 30.36 27.3 30.35 27.23C30.14 25.58 27.78 24.28 24.9 24.28Z" fill="#FFFFFF" fill-opacity="1.000000" fill-rule="nonzero"/>
	<path id="path" d="M41.61 0L8.39 0C3.75 0 0 3.75 0 8.39L0 41.6C0 46.24 3.75 50 8.39 50L41.6 50C46.24 50 50 46.24 50 41.6L50 8.39C50 3.75 46.24 0 41.61 0ZM37.17 36.27L37.13 36.3C36.79 36.66 36.43 37 36.06 37.33L29.81 43.28L28.25 41.76L24.92 45.58L21.66 41.85L20.19 43.29L13.96 37.34C13.56 37.01 13.2 36.65 12.84 36.29L12.82 36.27C10.05 33.36 8.34 29.45 8.34 25.15C8.34 21.68 9.45 18.45 11.35 15.81C10.28 14.75 9.63 13.28 9.66 11.66C9.72 8.55 12.34 6.03 15.46 6.09C17.72 6.13 19.66 7.5 20.54 9.44C21.96 9.05 23.45 8.85 24.99 8.85C26.54 8.85 28.03 9.05 29.46 9.44C30.37 7.4 32.46 6 34.86 6.08C37.73 6.19 40.1 8.46 40.32 11.33C40.45 13.08 39.78 14.68 38.63 15.81C40.53 18.45 41.64 21.68 41.64 25.15C41.65 29.43 39.95 33.34 37.17 36.27Z" fill="#FFFFFF" fill-opacity="1.000000" fill-rule="nonzero"/>
	<path id="path" d="M31.87 18.06C31.48 17.9 30.97 17.86 30.43 18.01C29.88 18.16 29.46 18.45 29.21 18.78C28.95 19.1 28.88 19.45 28.96 19.74C29.03 20.03 29.27 20.28 29.66 20.44C30.05 20.6 30.56 20.64 31.1 20.49C31.64 20.34 32.07 20.04 32.32 19.72C32.58 19.4 32.64 19.05 32.57 18.76C32.48 18.47 32.25 18.22 31.87 18.06Z" fill="#FFFFFF" fill-opacity="1.000000" fill-rule="nonzero"/>
</svg>
