<svg width="50.000000" height="50.000000" viewBox="0 0 50 50" fill="none" xmlns="http://www.w3.org/2000/svg" xmlns:xlink="http://www.w3.org/1999/xlink">
	<desc>
			Created with Pixso.
	</desc>
	<defs/>
	<path id="path" d="M25 27.76L15.27 16.63L5.55 16.63L15.27 27.76L5.55 38.88L15.27 38.88L25 27.76ZM0 5.54C0 2.47 2.48 0 5.54 0L44.45 0C47.51 0 50 2.48 50 5.54L50 44.45C50 45.98 49.45 47.29 48.37 48.37C47.29 49.45 45.98 50 44.45 50L5.54 50C4.01 50 2.7 49.45 1.62 48.37C0.54 47.29 0 45.98 0 44.45L0 5.54ZM27.8 33.27L27.8 38.77L41.66 38.88L41.81 33.27L27.8 33.27Z" fill="#1A73E8" fill-opacity="1.000000" fill-rule="evenodd"/>
</svg>
