<svg width="50.000000" height="50.000000" viewBox="0 0 50 50" fill="none" xmlns="http://www.w3.org/2000/svg" xmlns:xlink="http://www.w3.org/1999/xlink">
	<desc>
			Created with Pixso.
	</desc>
	<defs/>
	<g opacity="0.000000">
		<rect id="Прямоугольник 33" width="50.000000" height="50.000000" fill="#C4C4C4" fill-opacity="1.000000"/>
	</g>
	<path id="path" d="M4.97 25L4.97 41.62L12.25 41.62L12.25 49L45.02 49L45.02 12.07L34.1 0.98L12.25 0.98L12.25 25L4.97 25Z" fill="#FFFFFF" fill-opacity="1.000000" fill-rule="nonzero"/>
	<path id="path" d="M34.27 12.06L45.02 21.28L45.02 12.06L34.27 0.98L34.27 12.06Z" fill="#C1C1C1" fill-opacity="1.000000" fill-rule="nonzero"/>
	<path id="path" d="M34.1 0.98L34.1 12.06L45.02 12.06L34.1 0.98ZM4.97 24.97L37.74 24.97L37.74 41.58L4.97 41.58L4.97 24.97Z" fill="#F2B705" fill-opacity="1.000000" fill-rule="nonzero"/>
	<path id="path" d="M45.98 11.86C45.95 11.7 45.87 11.45 45.76 11.34L34.8 0.22C34.69 0.1 34.56 0.02 34.4 0L14.04 0C13.29 -0.01 12.65 0.26 12.12 0.79C11.59 1.32 11.31 1.96 11.3 2.72L11.3 24.04L6.73 24.04C5.98 24.04 5.33 24.31 4.8 24.85C4.26 25.4 4 26.05 4 26.82L4 39.8C4 40.57 4.26 41.22 4.8 41.76C5.33 42.31 5.98 42.58 6.73 42.58L11.3 42.58L11.3 47.21C11.3 47.98 11.57 48.64 12.1 49.18C12.64 49.72 13.28 50 14.04 50L43.26 50C44.01 50 44.66 49.72 45.19 49.18C45.73 48.64 46 47.98 46 47.21L45.98 11.86ZM42.87 11.06L35.04 11.06L35.04 3.11L42.87 11.06ZM5.82 39.8L5.82 26.82C5.82 26.2 6.13 25.89 6.73 25.89L35.95 25.89C36.56 25.89 36.86 26.2 36.86 26.82L36.86 39.8C36.86 40.42 36.56 40.73 35.95 40.73L6.73 40.73C6.13 40.73 5.82 40.42 5.82 39.8ZM43.26 48.14L14.04 48.14C13.43 48.14 13.13 47.83 13.13 47.21L13.13 42.58L35.95 42.58C36.71 42.58 37.35 42.31 37.89 41.76C38.42 41.22 38.69 40.57 38.69 39.8L38.69 26.82C38.69 26.05 38.42 25.4 37.89 24.85C37.35 24.31 36.71 24.04 35.95 24.04L13.13 24.04L13.13 2.72C13.13 2.1 13.43 1.79 14.04 1.79L33.21 1.79L33.21 11.99C33.21 12.61 33.52 12.92 34.13 12.92L44.17 12.92L44.17 47.21C44.17 47.83 43.86 48.14 43.26 48.14ZM27.73 6.43C27.73 7.05 27.43 7.36 26.82 7.36L15.86 7.36C15.26 7.36 14.95 7.05 14.95 6.43C14.95 5.81 15.26 5.5 15.86 5.5L26.82 5.5C27.43 5.5 27.73 5.81 27.73 6.43ZM25.91 11.99C25.91 12.61 25.6 12.92 25 12.92L15.86 12.92C15.26 12.92 14.95 12.61 14.95 11.99C14.95 11.37 15.26 11.06 15.86 11.06L25 11.06C25.6 11.06 25.91 11.37 25.91 11.99ZM22.26 17.55C22.26 18.17 21.95 18.48 21.34 18.48L15.86 18.48C15.26 18.48 14.95 18.17 14.95 17.55C14.95 16.93 15.26 16.62 15.86 16.62L21.34 16.62C21.95 16.62 22.26 16.93 22.26 17.55ZM10.39 35.16L10.39 37.94C10.39 38.56 10.08 38.87 9.47 38.87C8.86 38.87 8.56 38.56 8.56 37.94L8.56 28.67C8.56 28.06 8.86 27.75 9.47 27.75C10.08 27.75 10.39 28.06 10.39 28.67L10.39 33.31L14.04 33.31L14.04 28.67C14.04 28.06 14.34 27.75 14.95 27.75C15.56 27.75 15.86 28.06 15.86 28.67L15.86 37.94C15.86 38.56 15.56 38.87 14.95 38.87C14.34 38.87 14.04 38.56 14.04 37.94L14.04 35.16L10.39 35.16ZM17.69 37.94L17.69 28.67C17.69 28.06 18 27.75 18.6 27.75L22.26 27.75C22.86 27.75 23.17 28.06 23.17 28.67C23.17 29.29 22.86 29.6 22.26 29.6L19.52 29.6L19.52 32.38L22.26 32.38C22.86 32.38 23.17 32.69 23.17 33.31C23.17 33.93 22.86 34.24 22.26 34.24L19.52 34.24L19.52 37.02L22.26 37.02C22.86 37.02 23.17 37.33 23.17 37.94C23.17 38.56 22.86 38.87 22.26 38.87L18.6 38.87C18 38.87 17.69 38.56 17.69 37.94ZM25 37.94L25 28.67C25 28.06 25.3 27.75 25.91 27.75C26.52 27.75 26.82 28.06 26.82 28.67L26.82 37.94C26.82 38.56 26.52 38.87 25.91 38.87C25.3 38.87 25 38.56 25 37.94ZM28.65 36.09L28.65 30.53C28.65 29.76 28.91 29.11 29.45 28.56C29.98 28.02 30.63 27.75 31.39 27.75L33.21 27.75C33.82 27.75 34.13 28.06 34.13 28.67C34.13 29.29 33.82 29.6 33.21 29.6L31.39 29.6C30.78 29.6 30.47 29.91 30.47 30.53L30.47 36.09C30.47 36.71 30.78 37.02 31.39 37.02L33.21 37.02C33.82 37.02 34.13 37.33 34.13 37.94C34.13 38.56 33.82 38.87 33.21 38.87L31.39 38.87C30.63 38.87 29.98 38.6 29.45 38.06C28.91 37.51 28.65 36.86 28.65 36.09Z" fill="#000000" fill-opacity="1.000000" fill-rule="nonzero"/>
</svg>
