<svg width="50.000000" height="50.000000" viewBox="0 0 50 50" fill="none" xmlns="http://www.w3.org/2000/svg" xmlns:xlink="http://www.w3.org/1999/xlink">
	<desc>
			Created with Pixso.
	</desc>
	<defs/>
	<g opacity="0.000000">
		<rect id="Прямоугольник 66" width="50.000000" height="50.000000" transform="matrix(-1 0 0 1 50 0)" fill="#C4C4C4" fill-opacity="1.000000"/>
	</g>
	<path id="path" d="M25.8 13.73L37.55 7L49.23 13.73L50 21.47L37.47 28.65L25.04 21.47L25.8 13.73Z" fill="#E3E3E3" fill-opacity="1.000000" fill-rule="nonzero"/>
	<path id="path" d="M25.8 13.73L37.48 20.46L49.23 13.73L37.55 7L25.8 13.73Z" fill="#FFFFFF" fill-opacity="1.000000" fill-rule="nonzero"/>
	<path id="path" d="M49.23 13.73L50 21.47L37.47 28.65L37.47 20.46L49.23 13.73Z" fill="#E3E3E3" fill-opacity="1.000000" fill-rule="nonzero"/>
	<path id="path" d="M25.8 13.73L25.04 21.47L37.47 28.65L37.47 20.46L25.8 13.73Z" fill="#E3E3E3" fill-opacity="1.000000" fill-rule="nonzero"/>
	<path id="path" d="M38.77 13.3L35.33 12.42L36.88 14.38L38.77 13.3ZM33.88 12.05L34.68 11.59L42.75 13.59L41.78 14.15L39.61 13.59L37.37 14.87L38.32 16.13L37.36 16.68L33.88 12.05Z" fill="#000000" fill-opacity="1.000000" fill-rule="nonzero"/>
	<path id="path" d="M0.84 13.73L12.59 7L24.27 13.73L25.04 21.47L12.52 28.65L0.08 21.47L0.84 13.73Z" fill="#E3E3E3" fill-opacity="1.000000" fill-rule="nonzero"/>
	<path id="path" d="M0.84 13.73L12.52 20.46L24.27 13.73L12.59 7L0.84 13.73Z" fill="#FFFFFF" fill-opacity="1.000000" fill-rule="nonzero"/>
	<path id="path" d="M24.27 13.73L25.04 21.47L12.52 28.65L12.52 20.46L24.27 13.73Z" fill="#E3E3E3" fill-opacity="1.000000" fill-rule="nonzero"/>
	<path id="path" d="M0.84 13.73L0.08 21.47L12.52 28.65L12.52 20.46L0.84 13.73Z" fill="#E3E3E3" fill-opacity="1.000000" fill-rule="nonzero"/>
	<path id="path" d="M5.99 14.87L7 14.29L13.51 15.97L12.25 14.26L8.7 13.34L9.56 12.85L12.23 13.57L10.99 12.03L11.85 11.54L13.42 13.59L16.41 14.31L13.51 10.56L14.51 9.99L17.88 14.68L17.09 15.13L13.43 14.27L14.93 16.37L14.15 16.82L5.99 14.87Z" fill="#000000" fill-opacity="1.000000" fill-rule="nonzero"/>
	<path id="path" d="M13.28 20.9L25.03 14.17L36.71 20.9L37.48 28.65L24.95 35.82L12.52 28.65L13.28 20.9Z" fill="#E3E3E3" fill-opacity="1.000000" fill-rule="nonzero"/>
	<path id="path" d="M13.28 20.9L24.96 27.63L36.71 20.9L25.03 14.17L13.28 20.9Z" fill="#FFFFFF" fill-opacity="1.000000" fill-rule="nonzero"/>
	<path id="path" d="M36.71 20.9L37.48 28.65L24.95 35.82L24.95 27.63L36.71 20.9Z" fill="#E3E3E3" fill-opacity="1.000000" fill-rule="nonzero"/>
	<path id="path" d="M13.28 20.9L12.52 28.65L24.95 35.82L24.95 27.63L13.28 20.9Z" fill="#E3E3E3" fill-opacity="1.000000" fill-rule="nonzero"/>
	<path id="path" d="M22.05 19.01C22.35 18.84 22.67 18.7 23 18.6C23.32 18.5 23.66 18.43 24 18.41C24.34 18.39 24.67 18.41 25 18.47C25.32 18.54 25.63 18.65 25.91 18.81C26.14 18.94 26.3 19.08 26.38 19.21C26.47 19.35 26.5 19.49 26.48 19.64C26.45 19.79 26.38 19.95 26.25 20.12C26.12 20.29 25.94 20.48 25.73 20.69C25.56 20.85 25.4 21.01 25.25 21.18C25.11 21.33 25.01 21.46 24.95 21.58C24.88 21.7 24.86 21.81 24.89 21.91C24.91 22.01 25 22.1 25.14 22.18C25.39 22.32 25.67 22.37 25.99 22.33C26.31 22.29 26.65 22.17 27.01 21.96C27.23 21.83 27.42 21.7 27.58 21.55C27.73 21.4 27.86 21.25 27.97 21.11C28.07 20.97 28.15 20.83 28.19 20.71C28.24 20.58 28.26 20.48 28.26 20.4L29.46 20.61C29.38 20.94 29.2 21.27 28.93 21.58C28.65 21.89 28.29 22.17 27.84 22.43C27.55 22.59 27.25 22.73 26.93 22.84C26.61 22.95 26.29 23.03 25.96 23.06C25.64 23.1 25.31 23.09 24.99 23.03C24.67 22.97 24.36 22.86 24.07 22.69C23.81 22.54 23.63 22.39 23.54 22.23C23.45 22.07 23.42 21.91 23.46 21.75C23.5 21.58 23.59 21.41 23.74 21.22C23.9 21.04 24.08 20.84 24.31 20.63C24.46 20.48 24.62 20.33 24.77 20.17C24.9 20.04 24.99 19.92 25.04 19.81C25.09 19.7 25.1 19.61 25.07 19.52C25.04 19.44 24.95 19.36 24.81 19.28C24.56 19.13 24.28 19.07 23.95 19.1C23.63 19.12 23.27 19.24 22.89 19.46C22.71 19.56 22.56 19.67 22.43 19.79C22.31 19.91 22.2 20.02 22.12 20.13C22.04 20.25 21.99 20.35 21.95 20.45C21.91 20.55 21.9 20.63 21.9 20.7L20.74 20.51C20.81 20.26 20.94 20 21.15 19.74C21.36 19.48 21.66 19.23 22.05 19.01Z" fill="#000000" fill-opacity="1.000000" fill-rule="nonzero"/>
	<path id="path" d="M0.76 28.08L12.51 21.34L24.19 28.08L24.95 35.82L12.43 43L0 35.82L0.76 28.08Z" fill="#E3E3E3" fill-opacity="1.000000" fill-rule="nonzero"/>
	<path id="path" d="M0.76 28.08L12.44 34.81L24.19 28.08L12.51 21.34L0.76 28.08Z" fill="#FFFFFF" fill-opacity="1.000000" fill-rule="nonzero"/>
	<path id="path" d="M24.19 28.08L24.95 35.82L12.43 43L12.43 34.81L24.19 28.08Z" fill="#E3E3E3" fill-opacity="1.000000" fill-rule="nonzero"/>
	<path id="path" d="M0.76 28.08L0 35.82L12.43 43L12.43 34.81L0.76 28.08Z" fill="#E3E3E3" fill-opacity="1.000000" fill-rule="nonzero"/>
	<path id="path" d="M15.8 28.4L11.65 26.01L10.5 26.66C10.2 26.83 9.99 27.02 9.86 27.21C9.73 27.4 9.67 27.6 9.69 27.8C9.71 28 9.8 28.19 9.97 28.39C10.14 28.58 10.38 28.77 10.68 28.94C10.98 29.12 11.3 29.25 11.63 29.35C11.96 29.45 12.3 29.51 12.65 29.52C13 29.54 13.35 29.51 13.69 29.43C14.03 29.36 14.35 29.23 14.66 29.06L15.8 28.4ZM9.7 26.2L11.76 25.02L17.52 28.34L15.46 29.52C15.03 29.77 14.57 29.95 14.09 30.07C13.6 30.19 13.11 30.25 12.61 30.25C12.12 30.24 11.62 30.17 11.14 30.05C10.65 29.92 10.18 29.73 9.75 29.48C9.35 29.25 9.04 29 8.81 28.73C8.58 28.46 8.46 28.18 8.43 27.9C8.41 27.61 8.5 27.32 8.7 27.03C8.9 26.75 9.23 26.47 9.7 26.2Z" fill="#000000" fill-opacity="1.000000" fill-rule="nonzero"/>
</svg>
