<svg width="50" height="50" viewBox="0 0 50 50" fill="none" xmlns="http://www.w3.org/2000/svg">
<path d="M25 49.9967C24.7512 49.9967 24.185 50.0042 23.9375 49.9967L28.9375 36.2478H35.9688C37.2025 36.2478 38.5575 35.299 38.98 34.1403L44.915 18.2814C45.8212 15.7876 44.3938 13.7489 41.7413 13.7489H31.9863L23.8387 36.5703H23.8363L19.1963 49.3179C8.1875 46.7016 0 36.8066 0 24.999C0 13.5314 7.7225 3.86753 18.25 0.922508L13.4625 14.0801H13.4613L5.1875 36.2478H10.4862L17.4563 17.4989H21.4375L14.4675 36.2478L19.3663 36.2491L26.1637 18.2814C27.0712 15.7876 25.6438 13.7489 22.9938 13.7489H18.9375L23.8762 0.0262501C24.2487 0.00999997 24.6238 0 25 0C38.8075 0 50 11.1913 50 24.999C50 38.8066 38.8075 49.9967 25 49.9967ZM40.1875 17.4989H36.2063L30.57 32.4978H34.5513L40.1875 17.4989Z" fill="#1976D2"/>
</svg>
