<svg width="50.000000" height="50.000000" viewBox="0 0 50 50" fill="none" xmlns="http://www.w3.org/2000/svg" xmlns:xlink="http://www.w3.org/1999/xlink">
	<desc>
			Created with Pixso.
	</desc>
	<defs/>
	<path id="svg_2" d="M32.02 1.48C29.22 3.02 27.12 5.62 25.58 8.56C23.11 3.83 19.18 0 13.24 0C7.29 0 0 5.75 0 15.47C0 25.31 7.2 29.97 10.77 32.6C14.58 35.42 21.09 40.53 25.58 50C30.07 40.53 36.58 35.42 40.39 32.6C43.07 30.62 47.81 27.5 50 21.89L32.02 1.48ZM31.81 22.45L31.81 3.95L48.03 22.44L31.81 22.45Z" fill="#E5322D" fill-opacity="1.000000" fill-rule="nonzero"/>
	<path id="svg_8" d="M31.61 22.45L31.61 3.95L47.84 22.45L31.61 22.45Z" fill="#FFFFFF" fill-opacity="1.000000" fill-rule="nonzero"/>
</svg>
