<svg width="50.000000" height="50.000000" viewBox="0 0 50 50" fill="none" xmlns="http://www.w3.org/2000/svg" xmlns:xlink="http://www.w3.org/1999/xlink">
	<desc>
			Created with Pixso.
	</desc>
	<defs/>
	<path id="path" d="M11.2 15.95C12.43 14.08 14.03 12.47 15.91 11.25C16.18 8.79 16.56 6.54 17 4.56C11.01 6.9 6.84 11.07 4.5 17.06C6.47 16.6 8.75 16.22 11.2 15.95ZM34.04 11.18C35.91 12.41 37.52 14.08 38.77 15.95C41.22 16.22 43.47 16.6 45.45 17.04C43.09 11.04 38.91 6.86 32.91 4.52C33.37 6.5 33.75 8.72 34.04 11.18ZM15.91 38.81C14.04 37.58 12.43 35.95 11.18 34.08C8.7 33.79 6.41 33.41 4.47 32.95C6.7 38.68 11.27 43.27 17 45.5C16.54 43.52 16.18 41.27 15.91 38.81ZM38.83 34.08C37.6 35.95 35.91 37.56 34.04 38.81C33.75 41.25 33.37 43.56 32.91 45.52C38.94 43.17 43.13 38.98 45.47 32.95C43.52 33.41 41.31 33.79 38.83 34.08ZM20.91 0.02L29.04 0.02C30.81 3.87 31.54 9.58 31.75 11.52C31.83 11.97 31.87 12.41 31.87 12.83L25 19L18.12 12.83C18.12 12.47 18.16 12.1 18.22 11.68C18.43 9.7 19.12 3.89 20.91 0.02ZM18.12 37.16C18.12 37.52 18.16 37.89 18.22 38.31C18.43 40.29 19.12 46.12 20.91 50L29.04 50C30.81 46.16 31.54 40.43 31.75 38.5C31.83 38.04 31.87 37.6 31.87 37.16L25 31L18.12 37.16ZM12.83 18.1C12.47 18.1 12.1 18.14 11.68 18.2C9.7 18.45 3.87 19.14 0 20.93L0 29.06C3.83 30.83 9.56 31.54 11.5 31.77C11.95 31.85 12.39 31.89 12.83 31.89L18.97 25.02L12.83 18.1ZM50 20.89C46.12 19.1 40.29 18.41 38.31 18.2C37.89 18.14 37.52 18.1 37.16 18.1L31 24.97L37.16 31.85C37.58 31.85 38.02 31.81 38.5 31.72C40.43 31.5 46.16 30.79 50 29.02L50 20.89Z" fill="#FF0000" fill-opacity="1.000000" fill-rule="nonzero"/>
</svg>
