<svg width="50.000000" height="50.000000" viewBox="0 0 50 50" fill="none" xmlns="http://www.w3.org/2000/svg" xmlns:xlink="http://www.w3.org/1999/xlink">
	<desc>
			Created with Pixso.
	</desc>
	<defs/>
	<path id="path" d="M36.15 40.2L24.96 49.08C24.59 49.37 24.18 49.6 23.73 49.75C23.28 49.91 22.82 49.99 22.35 50C21.88 50 21.42 49.92 20.97 49.77C20.52 49.62 20.11 49.4 19.73 49.11L8.21 40.23C2.97 36.19 0 30.52 0 24.58L0 13.08C0 11.47 0.92 10 2.37 9.29L20.53 0.42C21.13 0.13 21.76 -0.01 22.42 0C23.08 0 23.71 0.15 24.3 0.45L41.77 9.28C42.48 9.64 43.05 10.16 43.46 10.83C43.88 11.51 44.09 12.25 44.09 13.04L44.09 24.76C44.09 30.6 41.22 36.18 36.15 40.2Z" fill="#478CF7" fill-opacity="1.000000" fill-rule="nonzero"/>
	<path id="path" d="M41.77 9.28L41.51 9.15C41.75 9.68 41.86 10.24 41.86 10.82L41.86 22.54C41.86 28.37 38.99 33.95 33.92 37.98L22.73 46.85C22.36 47.15 21.95 47.37 21.5 47.53C21.06 47.69 20.6 47.77 20.12 47.77C19.65 47.78 19.19 47.7 18.74 47.55C18.29 47.4 17.88 47.18 17.5 46.89L5.98 38.01C5.6 37.72 5.24 37.42 4.88 37.11C5.85 38.23 6.97 39.27 8.21 40.23L19.73 49.11C20.11 49.4 20.52 49.62 20.97 49.77C21.42 49.92 21.88 50 22.35 49.99C22.82 49.99 23.28 49.91 23.73 49.75C24.18 49.6 24.59 49.37 24.96 49.08L36.15 40.2C41.22 36.18 44.09 30.6 44.09 24.76L44.09 13.04C44.09 12.25 43.88 11.51 43.46 10.83C43.05 10.16 42.48 9.64 41.77 9.28Z" fill="#377DE2" fill-opacity="1.000000" fill-rule="nonzero"/>
	<path id="path" d="M42.24 9.55C42.73 10.27 42.98 11.06 42.98 11.93L42.98 23.65C42.98 29.48 40.1 35.06 35.03 39.09L23.84 47.97C23.47 48.26 23.06 48.49 22.62 48.64C22.17 48.8 21.71 48.88 21.24 48.88C20.76 48.89 20.3 48.81 19.85 48.66C19.4 48.51 18.99 48.29 18.62 48L7.09 39.12C6.51 38.67 5.94 38.19 5.4 37.68C6.27 38.61 7.2 39.46 8.21 40.23L19.73 49.11C20.11 49.4 20.52 49.62 20.97 49.77C21.42 49.92 21.88 50 22.35 49.99C22.82 49.99 23.28 49.91 23.73 49.75C24.18 49.6 24.59 49.37 24.96 49.08L36.15 40.2C41.22 36.18 44.09 30.6 44.09 24.76L44.09 13.04C44.09 12.34 43.93 11.69 43.6 11.07C43.27 10.45 42.82 9.95 42.24 9.55Z" fill="#2266D3" fill-opacity="1.000000" fill-rule="nonzero"/>
	<path id="path" d="M1.33 25.02C1.21 25.02 1.1 24.98 1.02 24.89C0.93 24.81 0.89 24.7 0.89 24.58C0.89 24.33 1.09 24.13 1.33 24.13C1.46 24.13 1.56 24.18 1.65 24.27C1.74 24.35 1.78 24.46 1.78 24.58C1.78 24.7 1.74 24.81 1.65 24.89C1.56 24.98 1.46 25.02 1.33 25.02ZM1.33 23.25C1.21 23.25 1.1 23.2 1.02 23.12C0.93 23.03 0.89 22.92 0.89 22.8L0.89 13.08C0.89 11.82 1.62 10.65 2.76 10.09L20.92 1.22C21.14 1.12 21.41 1.21 21.52 1.43C21.63 1.65 21.53 1.91 21.31 2.02L3.15 10.89C2.32 11.29 1.78 12.16 1.78 13.08L1.78 22.8C1.78 23.05 1.58 23.25 1.33 23.25Z" fill="#5E9CF7" fill-opacity="1.000000" fill-rule="nonzero"/>
	<path id="path" d="M22.34 41.7C22.53 41.63 22.7 41.5 22.83 41.34L24.73 38.85C24.86 38.68 24.93 38.49 24.93 38.27L24.93 25.17C24.93 24.61 25.26 24.09 25.76 23.84C33.3 20.05 30.93 8.4 22.04 8.25C13.15 8.4 10.79 20.05 18.32 23.84C18.83 24.09 19.15 24.61 19.15 25.17L19.15 38.27C19.15 38.48 19.22 38.68 19.35 38.85L21.28 41.37C21.4 41.53 21.56 41.64 21.75 41.7C21.95 41.76 22.14 41.76 22.34 41.7ZM20.13 14.93C18.1 14.86 18.1 11.96 20.13 11.88L23.95 11.88C25.98 11.96 25.98 14.86 23.95 14.93L20.13 14.93Z" fill="#FFA91A" fill-opacity="1.000000" fill-rule="nonzero"/>
	<path id="path" d="M27.26 10.07C30.33 13.81 29.82 20.12 24.65 22.73C24.14 22.98 23.82 23.49 23.82 24.06L23.82 37.16C23.82 37.37 23.75 37.57 23.62 37.74L21.71 40.23C21.59 40.39 21.42 40.52 21.22 40.59C21.05 40.64 20.87 40.64 20.69 40.6L21.28 41.37C21.4 41.53 21.56 41.64 21.76 41.7C21.95 41.76 22.14 41.76 22.34 41.7C22.53 41.63 22.7 41.5 22.83 41.34L24.73 38.85C24.86 38.68 24.93 38.49 24.93 38.27L24.93 25.17C24.93 24.61 25.26 24.09 25.76 23.84C31.5 20.95 31.49 13.53 27.26 10.07ZM20.96 29.6L19.15 29.6L19.15 26.99L21.27 28.7C21.46 28.85 21.51 29.04 21.43 29.26C21.35 29.49 21.19 29.6 20.96 29.6Z" fill="#F79219" fill-opacity="1.000000" fill-rule="nonzero"/>
	<path id="path" d="M20.71 37.33L19.15 37.33L19.15 30.87L20.71 30.87C20.92 30.87 21.1 30.94 21.24 31.09C21.39 31.23 21.46 31.41 21.46 31.62L21.46 36.58C21.46 36.79 21.39 36.97 21.24 37.11C21.1 37.26 20.92 37.33 20.71 37.33Z" fill="#F79219" fill-opacity="1.000000" fill-rule="nonzero"/>
	<ellipse id="circle" cx="39.357300" cy="37.605957" rx="10.642631" ry="10.611670" fill="#58595B" fill-opacity="1.000000"/>
	<path id="path" d="M45.68 29.07C46.36 29.98 46.88 30.98 47.23 32.06C47.59 33.14 47.77 34.24 47.77 35.38C47.77 41.24 43 45.99 37.12 45.99C35.98 45.99 34.87 45.82 33.79 45.46C32.71 45.1 31.71 44.59 30.8 43.91C32.73 46.52 35.84 48.21 39.35 48.21C45.23 48.21 50 43.46 50 37.6C50 34.1 48.3 31 45.68 29.07Z" fill="#414042" fill-opacity="1.000000" fill-rule="nonzero"/>
	<path id="path" d="M43.53 44.61L35.13 44.61C34.98 44.61 34.85 44.56 34.74 44.45C34.64 44.34 34.58 44.21 34.58 44.06L34.58 37.04C34.58 36.88 34.64 36.75 34.74 36.65C34.85 36.54 34.98 36.49 35.13 36.49L43.53 36.49C43.69 36.49 43.82 36.54 43.92 36.65C44.03 36.75 44.08 36.88 44.08 37.04L44.08 44.06C44.08 44.21 44.03 44.34 43.92 44.45C43.82 44.56 43.69 44.61 43.53 44.61Z" fill="#478CF7" fill-opacity="1.000000" fill-rule="nonzero"/>
	<path id="path" d="M43.53 36.49L41.86 36.49L41.86 41.84C41.86 41.99 41.8 42.12 41.69 42.23C41.59 42.34 41.46 42.39 41.31 42.39L34.58 42.39L34.58 44.06C34.58 44.21 34.64 44.34 34.74 44.45C34.85 44.56 34.98 44.61 35.13 44.61L43.53 44.61C43.69 44.61 43.82 44.56 43.92 44.45C44.03 44.34 44.08 44.21 44.08 44.06L44.08 37.04C44.08 36.88 44.03 36.75 43.92 36.65C43.82 36.54 43.69 36.49 43.53 36.49Z" fill="#377DE2" fill-opacity="1.000000" fill-rule="nonzero"/>
	<path id="path" d="M43.36 36.49L41.98 36.49L41.98 34.14C41.98 32.77 40.96 31.56 39.59 31.43C38.01 31.29 36.68 32.52 36.68 34.07L36.68 36.49L35.3 36.49L35.3 34.16C35.3 31.99 37 30.13 39.18 30.05C41.47 29.97 43.36 31.8 43.36 34.07L43.36 36.49Z" fill="#FFA91A" fill-opacity="1.000000" fill-rule="nonzero"/>
	<path id="path" d="M41.96 31.03C42.6 31.78 42.92 32.64 42.92 33.62L42.92 36.04L41.98 36.04L41.98 36.49L43.36 36.49L43.36 34.07C43.36 32.85 42.82 31.77 41.96 31.03Z" fill="#F79219" fill-opacity="1.000000" fill-rule="nonzero"/>
</svg>
