<svg width="50" height="50" viewBox="0 0 50 50" fill="none" xmlns="http://www.w3.org/2000/svg">
<path d="M0 2.77797C0 1.24464 1.24444 0.000196457 2.77778 0.000196457H31.9444C33.4778 0.000196457 34.7222 1.24464 34.7222 2.77797V31.9446C34.7222 33.478 33.4778 34.7224 31.9444 34.7224H2.77778C1.24444 34.7224 0 33.478 0 31.9446V2.77797Z" fill="url(#paint0_linear_78_35)"/>
<path d="M9.48889 27.5753L8.21667 25.1086L9.45139 24.4711C9.53611 24.4281 17.925 20.0156 22.0111 11.8267L22.6306 10.5836L25.1167 11.8239L24.4958 13.0669C19.9944 22.0892 11.1 26.7475 10.7236 26.9405L9.48889 27.5753Z" fill="url(#paint1_linear_78_35)"/>
<path d="M25.0264 26.3892L23.8181 25.7086C23.5306 25.5475 16.7458 21.6794 12.0181 15.06L14.2778 13.4461C18.6375 19.5489 25.1181 23.2531 25.1819 23.2892L26.3889 23.9725L25.0264 26.3892ZM8.33333 9.7225H27.7778V12.5003H8.33333V9.7225Z" fill="url(#paint2_linear_78_35)"/>
<path d="M16.6667 6.94472H19.4444V12.5003H16.6667V6.94472Z" fill="url(#paint3_linear_78_35)"/>
<path d="M34.7222 15.2781H47.2222C48.7556 15.2781 50 16.5225 50 18.0558V47.2225C50 48.7558 48.7556 50.0003 47.2222 50.0003H18.0556C16.5222 50.0003 15.2778 48.7558 15.2778 47.2225V34.7225L34.7222 15.2781Z" fill="url(#paint4_linear_78_35)"/>
<path d="M36.35 37.5003H30.2958L28.8958 41.6669H25L31.6167 23.6114H35.0111L41.6667 41.6669H37.7708L36.35 37.5003ZM31.1722 34.7225H35.4792L33.3139 28.1753L31.1722 34.7225Z" fill="white"/>
<path d="M0 49.4378C0 49.9392 0.605556 50.1892 0.959722 49.8336L5.5875 45.1794C5.99167 44.7725 5.99167 44.1156 5.5875 43.71L0.959722 39.0558C0.605556 38.7003 0 38.9503 0 39.4517V49.4378Z" fill="url(#paint5_linear_78_35)"/>
<path d="M50 0.562773C50 0.0613845 49.3944 -0.188616 49.0403 0.16694L44.4125 4.82111C44.0083 5.22805 44.0083 5.885 44.4125 6.29055L49.0403 10.9447C49.3944 11.3003 50 11.0503 50 10.5489V0.562773Z" fill="url(#paint6_linear_78_35)"/>
<defs>
<linearGradient id="paint0_linear_78_35" x1="0" y1="17.3613" x2="34.7222" y2="17.3613" gradientUnits="userSpaceOnUse">
<stop stop-color="#42A3F2"/>
<stop offset="1" stop-color="#42A4EB"/>
</linearGradient>
<linearGradient id="paint1_linear_78_35" x1="8.21667" y1="19.0794" x2="25.1167" y2="19.0794" gradientUnits="userSpaceOnUse">
<stop stop-color="#11408A"/>
<stop offset="1" stop-color="#103F8F"/>
</linearGradient>
<linearGradient id="paint2_linear_78_35" x1="8.33333" y1="18.0558" x2="27.7778" y2="18.0558" gradientUnits="userSpaceOnUse">
<stop stop-color="#11408A"/>
<stop offset="1" stop-color="#103F8F"/>
</linearGradient>
<linearGradient id="paint3_linear_78_35" x1="16.6667" y1="9.7225" x2="19.4444" y2="9.7225" gradientUnits="userSpaceOnUse">
<stop stop-color="#11408A"/>
<stop offset="1" stop-color="#103F8F"/>
</linearGradient>
<linearGradient id="paint4_linear_78_35" x1="15.2778" y1="32.6392" x2="50" y2="32.6392" gradientUnits="userSpaceOnUse">
<stop stop-color="#1D59B3"/>
<stop offset="1" stop-color="#195BBC"/>
</linearGradient>
<linearGradient id="paint5_linear_78_35" x1="0" y1="44.4447" x2="5.89028" y2="44.4447" gradientUnits="userSpaceOnUse">
<stop stop-color="#C965EB"/>
<stop offset="1" stop-color="#C767E5"/>
</linearGradient>
<linearGradient id="paint6_linear_78_35" x1="50" y1="5.55583" x2="44.1083" y2="5.55583" gradientUnits="userSpaceOnUse">
<stop stop-color="#C965EB"/>
<stop offset="1" stop-color="#C767E5"/>
</linearGradient>
</defs>
</svg>
