<svg width="50.000000" height="50.000000" viewBox="0 0 50 50" fill="none" xmlns="http://www.w3.org/2000/svg" xmlns:xlink="http://www.w3.org/1999/xlink">
	<desc>
			Created with Pixso.
	</desc>
	<defs/>
	<rect id="Прямоугольник 23" width="50.000000" height="50.000000" fill="#F5F5F5" fill-opacity="1.000000"/>
	<path id="path" d="M13.59 33.99C12.37 34.72 11.1 35.09 9.7 34.98C7.58 34.81 6.54 33.35 7.19 31.5C8.16 28.73 11.91 27.08 14.91 28.11C15.06 28.16 15.2 28.2 15.45 28.28C15.45 23.48 15.45 18.76 15.45 14C21.67 14 27.81 14 34.03 14C34.03 19.73 34.03 25.44 34.03 31.25C37.39 31.25 40.66 31.25 44 31.25C44 32.53 44 33.71 44 34.95C39.06 34.95 34.14 34.95 29.12 34.95C29.12 30.62 29.12 26.29 29.12 21.9C24.84 21.9 20.67 21.9 16.41 21.9C16.41 24.29 16.32 26.65 16.44 29.01C16.54 31.19 15.61 32.78 13.59 33.99ZM23.32 17.14C21.05 17.14 18.77 17.14 16.46 17.14C16.46 17.69 16.46 18.14 16.46 18.59C20.69 18.59 24.85 18.59 29 18.59C29 18.07 29 17.63 29 17.14C27.12 17.14 25.32 17.14 23.32 17.14Z" fill="#007AFD" fill-opacity="1.000000" fill-rule="nonzero"/>
	<path id="path" d="M9.7 34.98C7.58 34.81 6.54 33.35 7.19 31.5C8.16 28.73 11.91 27.08 14.91 28.11C15.06 28.16 15.2 28.2 15.45 28.28C15.45 23.48 15.45 18.76 15.45 14C21.67 14 27.81 14 34.03 14C34.03 19.73 34.03 25.44 34.03 31.25C37.39 31.25 40.66 31.25 44 31.25C44 32.53 44 33.71 44 34.95C39.06 34.95 34.14 34.95 29.12 34.95C29.12 30.62 29.12 26.29 29.12 21.9C24.84 21.9 20.67 21.9 16.41 21.9C16.41 24.29 16.32 26.65 16.44 29.01C16.54 31.19 15.61 32.78 13.59 33.99C12.37 34.72 11.1 35.09 9.7 34.98ZM16.46 17.14C16.46 17.69 16.46 18.14 16.46 18.59C20.69 18.59 24.85 18.59 29 18.59C29 18.07 29 17.63 29 17.14C27.12 17.14 25.32 17.14 23.32 17.14C21.05 17.14 18.77 17.14 16.46 17.14Z" stroke="#000000" stroke-opacity="0" stroke-width="1.000000"/>
</svg>
