<svg width="50.000000" height="50.000000" viewBox="0 0 50 50" fill="none" xmlns="http://www.w3.org/2000/svg" xmlns:xlink="http://www.w3.org/1999/xlink">
	<desc>
			Created with Pixso.
	</desc>
	<defs/>
	<circle id="Эллипс 8" cx="25.000000" cy="25.000000" r="25.000000" fill="#ED6363" fill-opacity="1.000000"/>
	<path id="path" d="M15.85 9.46C9.2 12.74 6 18 6 25.23C6 35.53 14.13 42 26.95 42C31.14 42 36.07 41.56 37.79 40.9C40.87 39.91 41 39.58 41 30.49L41 21.18L32.98 21.18L24.97 21.18L24.97 25.01C24.97 28.41 25.34 28.85 28.05 28.85C30.27 28.85 31.14 29.4 31.14 30.93C31.14 34.76 24.48 34.98 19.8 31.26C16.59 28.85 16.84 20.74 20.04 17.89C22.76 15.48 28.67 15.04 32.61 16.91C34.71 17.89 35.7 17.67 38.16 15.37C41.86 12.19 41.12 10.66 35.33 8.47C29.29 6.17 21.4 6.61 15.85 9.46Z" fill="#000000" fill-opacity="1.000000" fill-rule="nonzero"/>
	<path id="path" d="M6 25.23C6 35.53 14.13 42 26.95 42C31.14 42 36.07 41.56 37.79 40.9C40.87 39.91 41 39.58 41 30.49L41 21.18L32.98 21.18L24.97 21.18L24.97 25.01C24.97 28.41 25.34 28.85 28.05 28.85C30.27 28.85 31.14 29.4 31.14 30.93C31.14 34.76 24.48 34.98 19.8 31.26C16.59 28.85 16.84 20.74 20.04 17.89C22.76 15.48 28.67 15.04 32.61 16.91C34.71 17.89 35.7 17.67 38.16 15.37C41.86 12.19 41.12 10.66 35.33 8.47C29.29 6.17 21.4 6.61 15.85 9.46C9.2 12.74 6 18 6 25.23Z" stroke="#000000" stroke-opacity="0" stroke-width="0.133333"/>
</svg>
