<svg width="50.000008" height="50.000000" viewBox="0 0 50 50" fill="none" xmlns="http://www.w3.org/2000/svg" xmlns:xlink="http://www.w3.org/1999/xlink">
	<desc>
			Created with Pixso.
	</desc>
	<defs/>
	<path id="path" d="M33.4 0L33.4 8.04L7.62e-6 6.03L7.62e-6 3.01C7.62e-6 1.35 1.35 0 3.01 0L33.4 0Z" fill="#95B0ED" fill-opacity="1.000000" fill-rule="nonzero"/>
	<path id="path" d="M46.98 0L42.45 0L40.94 12.07L50 9.05L50 3.01C50 1.35 48.64 0 46.98 0Z" fill="#5C2BC8" fill-opacity="1.000000" fill-rule="nonzero"/>
	<path id="path" d="M42.45 0L33.4 0C30.9 0 28.87 2.02 28.87 4.52L28.87 6.03L0 6.03L0 9.05L3.01 12.07L46.98 12.07L46.98 4.52C46.98 2.02 44.95 0 42.45 0Z" fill="#4E4CD3" fill-opacity="1.000000" fill-rule="nonzero"/>
	<path id="path" d="M46.98 9.05L34.9 24.24L46.98 39.43L49.24 39.43C49.34 39.43 49.44 39.41 49.53 39.37C49.62 39.34 49.7 39.28 49.77 39.21C49.84 39.14 49.9 39.06 49.94 38.97C49.98 38.87 50 38.78 50 38.68L50 9.05L46.98 9.05Z" fill="#95B0ED" fill-opacity="1.000000" fill-rule="nonzero"/>
	<path id="path" d="M46.98 9.05L0 9.05L0 38.68C0 38.78 0.01 38.87 0.05 38.97C0.09 39.06 0.15 39.14 0.22 39.21C0.29 39.28 0.37 39.34 0.46 39.37C0.55 39.41 0.65 39.43 0.75 39.43L46.98 39.43L46.98 36.41L40.94 24.24L46.98 12.07L46.98 9.05Z" fill="#ACD2F6" fill-opacity="1.000000" fill-rule="nonzero"/>
	<path id="path" d="M43.96 12.07L37.92 24.24L43.96 36.41L46.98 36.41L46.98 12.07L43.96 12.07Z" fill="#C4F3FF" fill-opacity="1.000000" fill-rule="nonzero"/>
	<path id="path" d="M3.01 12.07L43.96 12.07L43.96 36.41L3.01 36.41L3.01 12.07Z" fill="#FFFFFF" fill-opacity="1.000000" fill-rule="nonzero"/>
	<circle id="circle" cx="45.472839" cy="4.527100" r="1.509054" fill="#05FF77" fill-opacity="1.000000"/>
	<circle id="circle" cx="39.436630" cy="4.527100" r="1.509054" fill="#FFD06A" fill-opacity="1.000000"/>
	<circle id="circle" cx="33.400406" cy="4.527100" r="1.509054" fill="#FF545A" fill-opacity="1.000000"/>
	<path id="path" d="M33.29 26.5L31.79 26.5L31.79 19.61C31.79 17.53 30.09 15.84 28.01 15.84C25.93 15.84 24.24 17.53 24.24 19.61L24.24 26.5L22.73 26.5L22.73 19.61C22.73 16.7 25.1 14.33 28.01 14.33C30.93 14.33 33.29 16.7 33.29 19.61L33.29 26.5Z" fill="#FF545A" fill-opacity="1.000000" fill-rule="nonzero"/>
	<path id="path" d="M38.58 24.24L35.56 24.24L33.55 48.96L33.57 48.97L38.36 49.77C38.5 49.63 38.58 49.45 38.58 49.24L38.58 24.24Z" fill="#FF9733" fill-opacity="1.000000" fill-rule="nonzero"/>
	<path id="path" d="M35.56 24.24L32.54 24.24L26.5 37.12L32.54 50L35.56 48.96L35.56 24.24Z" fill="#FFB820" fill-opacity="1.000000" fill-rule="nonzero"/>
	<path id="path" d="M32.54 50L37.82 50C38.03 50 38.21 49.92 38.36 49.77L35.56 46.98L32.54 50Z" fill="#FF7647" fill-opacity="1.000000" fill-rule="nonzero"/>
	<path id="path" d="M11.41 24.24L11.41 49.24C11.41 49.34 11.43 49.44 11.47 49.53C11.51 49.62 11.56 49.7 11.63 49.77C11.71 49.84 11.79 49.9 11.88 49.94C11.97 49.98 12.07 50 12.17 50L32.54 50L32.54 24.24L11.41 24.24Z" fill="#FFD06A" fill-opacity="1.000000" fill-rule="nonzero"/>
	<path id="path" d="M26.5 26.5C26.4 26.5 26.31 26.49 26.22 26.45C26.12 26.41 26.04 26.35 25.97 26.28C25.9 26.21 25.85 26.13 25.81 26.04C25.77 25.95 25.75 25.85 25.75 25.75L25.75 19.61C25.75 17.53 24.06 15.84 21.98 15.84C19.9 15.84 18.2 17.53 18.2 19.61L18.2 25.75C18.2 26.17 17.87 26.5 17.45 26.5C17.03 26.5 16.7 26.17 16.7 25.75L16.7 19.61C16.7 16.7 19.06 14.33 21.98 14.33C24.89 14.33 27.26 16.7 27.26 19.61L27.26 25.75C27.26 26.17 26.92 26.5 26.5 26.5Z" fill="#FF7647" fill-opacity="1.000000" fill-rule="nonzero"/>
</svg>
