<svg width="50.000000" height="50.000000" viewBox="0 0 50 50" fill="none" xmlns="http://www.w3.org/2000/svg" xmlns:xlink="http://www.w3.org/1999/xlink">
	<desc>
			Created with Pixso.
	</desc>
	<defs/>
	<circle id="circle" cx="25.000000" cy="25.000000" r="25.000000" fill="#1F74BD" fill-opacity="1.000000"/>
	<path id="path" d="M15.52 20.18C17.25 20.18 19.11 21.03 20.05 22.33C20.99 21.03 22.85 20.01 24.58 20.01C27.53 20.01 30.11 22.16 30.11 26.27L30.17 29.04C30.17 33.3 32.98 33.85 34.14 33.85C35.3 33.85 38 33.08 38 29.44L38 21.76C38 20.44 40 20.44 40 21.76L40 29.44C39.92 34.23 36.46 35.83 34.14 35.83C31.83 35.83 28.19 34.46 28.19 29.04L28.12 26.11C28.12 22.66 25.71 22.16 24.58 22.16C22.82 22.16 21.05 23.63 21.05 26.11L21.05 34.84C21.05 35.39 20.6 35.83 20.05 35.83C19.51 35.83 19.05 35.39 19.05 34.84L19.05 26.11C19.05 23.63 17.28 22.16 15.52 22.16C13.75 22.16 11.98 23.09 11.98 26.76L11.98 34.84C11.98 35.39 11.54 35.83 10.99 35.83C10.44 35.83 10 35.39 10 34.84L10 26.76C10 21.93 12.66 20.18 15.52 20.18ZM33.94 13.23C31.42 13.23 29.95 15.38 29.95 17.36C29.95 18.85 27.97 18.85 27.97 17.36C27.97 13.89 30.59 11.25 33.94 11.25C37.3 11.25 39.92 13.89 39.92 17.36C39.92 18.85 37.93 18.85 37.93 17.36C37.93 15.38 36.47 13.23 33.94 13.23ZM34.13 16.11C34.86 16.11 35.44 16.7 35.44 17.42C35.44 18.14 34.86 18.73 34.13 18.73C33.41 18.73 32.82 18.14 32.82 17.42C32.82 16.7 33.41 16.11 34.13 16.11Z" fill="#FFFFFF" fill-opacity="1.000000" fill-rule="nonzero"/>
</svg>
