<svg width="50.000000" height="50.000000" viewBox="0 0 50 50" fill="none" xmlns="http://www.w3.org/2000/svg" xmlns:xlink="http://www.w3.org/1999/xlink">
	<desc>
			Created with Pixso.
	</desc>
	<defs/>
	<path id="path" d="M1.74 15.11C1.97 15.11 2.19 15.06 2.4 14.97C2.62 14.89 2.8 14.76 2.97 14.6C3.13 14.43 3.26 14.25 3.35 14.03C3.43 13.82 3.48 13.6 3.48 13.37L3.48 5.94L14.69 17.15C15.03 17.49 15.44 17.66 15.92 17.66C16.37 17.66 16.82 17.49 17.16 17.15C17.32 16.99 17.45 16.8 17.53 16.59C17.62 16.38 17.67 16.15 17.67 15.92C17.67 15.69 17.62 15.47 17.53 15.26C17.44 15.04 17.32 14.85 17.16 14.69L5.94 3.48L13.37 3.48C13.6 3.48 13.82 3.43 14.03 3.35C14.25 3.26 14.43 3.13 14.6 2.97C14.76 2.8 14.89 2.62 14.97 2.4C15.06 2.19 15.11 1.97 15.11 1.74C15.11 1.51 15.06 1.28 14.97 1.07C14.89 0.86 14.76 0.67 14.6 0.51C14.43 0.34 14.25 0.22 14.03 0.13C13.82 0.04 13.6 0 13.37 0L1.74 0C1.51 0 1.28 0.04 1.07 0.13C0.86 0.22 0.67 0.34 0.51 0.51C0.34 0.67 0.22 0.86 0.13 1.07C0.04 1.28 0 1.51 0 1.74L0 13.37C0 13.6 0.04 13.82 0.13 14.03C0.22 14.25 0.34 14.43 0.51 14.6C0.67 14.76 0.86 14.89 1.07 14.97C1.28 15.06 1.51 15.11 1.74 15.11ZM48.25 34.88C48.02 34.88 47.8 34.93 47.59 35.02C47.37 35.1 47.19 35.23 47.02 35.39C46.86 35.56 46.73 35.74 46.64 35.96C46.56 36.17 46.51 36.39 46.51 36.62L46.51 44.05L34.95 32.49C34.79 32.33 34.6 32.2 34.39 32.11C34.17 32.03 33.95 31.98 33.72 31.98C33.49 31.98 33.27 32.03 33.06 32.12C32.84 32.21 32.66 32.33 32.49 32.49C32.33 32.66 32.21 32.84 32.12 33.06C32.03 33.27 31.98 33.49 31.98 33.72C31.98 33.95 32.03 34.17 32.11 34.39C32.2 34.6 32.33 34.79 32.49 34.95L44.05 46.51L36.62 46.51C36.39 46.51 36.17 46.56 35.96 46.64C35.75 46.73 35.56 46.86 35.39 47.02C35.23 47.19 35.1 47.37 35.02 47.59C34.93 47.8 34.88 48.02 34.88 48.25C34.88 48.48 34.93 48.71 35.02 48.92C35.1 49.13 35.23 49.32 35.39 49.48C35.56 49.65 35.75 49.77 35.96 49.86C36.17 49.95 36.39 49.99 36.62 49.99L48.25 49.99C48.48 49.99 48.71 49.95 48.92 49.86C49.13 49.77 49.32 49.65 49.49 49.48C49.65 49.32 49.77 49.13 49.86 48.92C49.95 48.71 50 48.48 50 48.25L50 36.62C50 36.39 49.95 36.17 49.86 35.96C49.77 35.74 49.65 35.56 49.48 35.39C49.32 35.23 49.13 35.1 48.92 35.02C48.71 34.93 48.48 34.88 48.25 34.88ZM15.04 32.49L3.48 44.05L3.48 36.62C3.48 35.66 2.7 34.88 1.74 34.88C0.78 34.88 0 35.66 0 36.62L0 48.25C0 48.48 0.04 48.71 0.13 48.92C0.22 49.13 0.34 49.32 0.51 49.49C0.67 49.65 0.86 49.77 1.07 49.86C1.28 49.95 1.51 50 1.74 50L13.37 50C13.6 50 13.82 49.95 14.03 49.86C14.25 49.77 14.43 49.65 14.6 49.49C14.76 49.32 14.89 49.13 14.97 48.92C15.06 48.71 15.11 48.48 15.11 48.25C15.11 48.02 15.06 47.8 14.97 47.59C14.89 47.37 14.76 47.19 14.6 47.02C14.43 46.86 14.25 46.73 14.03 46.64C13.82 46.56 13.6 46.51 13.37 46.51L5.94 46.51L17.5 34.95C17.67 34.79 17.79 34.6 17.88 34.39C17.97 34.17 18.02 33.95 18.02 33.72C18.02 33.49 17.97 33.26 17.88 33.05C17.8 32.84 17.67 32.65 17.51 32.48C17.34 32.32 17.15 32.19 16.94 32.1C16.73 32.02 16.5 31.97 16.27 31.97C16.04 31.97 15.82 32.02 15.6 32.11C15.39 32.2 15.2 32.32 15.04 32.49ZM48.25 0L36.62 0C36.39 0 36.17 0.04 35.96 0.13C35.74 0.22 35.56 0.34 35.39 0.51C35.23 0.67 35.1 0.86 35.02 1.07C34.93 1.28 34.88 1.51 34.88 1.74C34.88 1.97 34.93 2.19 35.02 2.4C35.1 2.62 35.23 2.8 35.39 2.97C35.56 3.13 35.74 3.26 35.96 3.35C36.17 3.43 36.39 3.48 36.62 3.48L44.05 3.48L32.84 14.69C32.59 14.94 32.43 15.24 32.36 15.58C32.29 15.93 32.32 16.27 32.46 16.59C32.59 16.92 32.81 17.18 33.1 17.37C33.39 17.57 33.72 17.67 34.07 17.67C34.55 17.67 34.96 17.5 35.3 17.16L46.51 5.94L46.51 13.37C46.51 13.6 46.56 13.82 46.64 14.03C46.73 14.25 46.86 14.43 47.02 14.6C47.19 14.76 47.37 14.89 47.59 14.97C47.8 15.06 48.02 15.11 48.25 15.11C48.48 15.11 48.71 15.06 48.92 14.97C49.13 14.89 49.32 14.76 49.49 14.6C49.65 14.43 49.77 14.25 49.86 14.03C49.95 13.82 50 13.6 50 13.37L50 1.74C50 1.51 49.95 1.28 49.86 1.07C49.77 0.86 49.65 0.67 49.48 0.51C49.32 0.34 49.13 0.22 48.92 0.13C48.71 0.04 48.48 0 48.25 0Z" fill="#FFFFFF" fill-opacity="1.000000" fill-rule="nonzero"/>
</svg>
