<svg width="50.000000" height="50.000000" viewBox="0 0 50 50" fill="none" xmlns="http://www.w3.org/2000/svg" xmlns:xlink="http://www.w3.org/1999/xlink">
	<desc>
			Created with Pixso.
	</desc>
	<defs/>
	<path id="path" d="M0 24.7C0 47.92 0 49.41 0.07 49.41C0.15 49.41 11.12 48.32 13.9 48.03L15.11 47.91L15.13 36.57L15.14 25.23L16.34 26.12C17 26.61 22.57 30.71 28.71 35.23C34.85 39.75 41.87 44.92 44.32 46.72L48.76 50L49.38 50L50 50L50 46.21C49.99 35.76 49.91 1.94 49.89 1.92C49.87 1.91 49.16 1.98 48.31 2.06C47.45 2.15 45.52 2.34 44.01 2.5C42.51 2.65 40.31 2.87 39.13 2.99C37.95 3.11 36.51 3.25 35.93 3.31L34.88 3.41L34.85 14.62L34.83 25.82L33.01 24.42C32.01 23.65 26.19 19.18 20.09 14.49C13.99 9.79 7.25 4.61 5.12 2.98L1.24 0L0.62 0L0 0L0 24.7Z" fill="#59B8E9" fill-opacity="1.000000" fill-rule="nonzero"/>
	<path id="path" d="M0.07 49.41C0.15 49.41 11.12 48.32 13.9 48.03L15.11 47.91L15.13 36.57L15.14 25.23L16.34 26.12C17 26.61 22.57 30.71 28.71 35.23C34.85 39.75 41.87 44.92 44.32 46.72L48.76 50L49.38 50L50 50L50 46.21C49.99 35.76 49.91 1.94 49.89 1.92C49.87 1.91 49.16 1.98 48.31 2.06C47.45 2.15 45.52 2.34 44.01 2.5C42.51 2.65 40.31 2.87 39.13 2.99C37.95 3.11 36.51 3.25 35.93 3.31L34.88 3.41L34.85 14.62L34.83 25.82L33.01 24.42C32.01 23.65 26.19 19.18 20.09 14.49C13.99 9.79 7.25 4.61 5.12 2.98L1.24 0L0.62 0L0 0L0 24.7C0 47.92 0 49.41 0.07 49.41Z" stroke="#000000" stroke-opacity="0" stroke-width="0.133333"/>
</svg>
