<svg width="50.000000" height="50.000000" viewBox="0 0 50 50" fill="none" xmlns="http://www.w3.org/2000/svg" xmlns:xlink="http://www.w3.org/1999/xlink">
	<desc>
			Created with Pixso.
	</desc>
	<defs/>
	<path id="path" d="M37.5 41.4L37.5 44.53C37.5 45.15 37.38 45.75 37.14 46.32C36.9 46.89 36.56 47.4 36.12 47.84C35.68 48.28 35.18 48.62 34.6 48.86C34.03 49.09 33.43 49.21 32.81 49.21L7.81 49.21C6.94 49.21 6.21 48.91 5.6 48.3C4.99 47.69 4.68 46.95 4.68 46.09L32.81 46.09C33.43 46.09 34.03 45.97 34.6 45.73C35.17 45.49 35.68 45.15 36.12 44.71C36.56 44.27 36.9 43.77 37.14 43.19C37.37 42.62 37.49 42.02 37.5 41.4Z" fill="#D18546" fill-opacity="1.000000" fill-rule="nonzero"/>
	<path id="path" d="M8.59 32.81C8.59 33.24 8.44 33.61 8.13 33.91C7.83 34.22 7.46 34.37 7.03 34.37L2.34 34.37C1.91 34.37 1.54 34.22 1.23 33.91C0.93 33.61 0.78 33.24 0.78 32.81C0.78 32.38 0.93 32.01 1.23 31.7C1.54 31.4 1.91 31.25 2.34 31.25L7.03 31.25C7.46 31.25 7.83 31.4 8.13 31.7C8.44 32.01 8.59 32.38 8.59 32.81Z" fill="#B3B3B3" fill-opacity="1.000000" fill-rule="nonzero"/>
	<path id="path" d="M36.12 37.68C37.04 36.77 37.5 35.67 37.5 34.37L37.5 37.5C37.49 38.12 37.37 38.71 37.14 39.29C36.9 39.86 36.56 40.37 36.12 40.81C35.68 41.25 35.17 41.59 34.6 41.82C34.03 42.06 33.43 42.18 32.81 42.18L4.68 42.18L4.68 39.06L32.81 39.06C34.1 39.06 35.21 38.6 36.12 37.68Z" fill="#D18546" fill-opacity="1.000000" fill-rule="nonzero"/>
	<path id="path" d="M37.5 40.62L37.5 41.4C37.49 42.02 37.37 42.62 37.14 43.19C36.9 43.77 36.56 44.27 36.12 44.71C35.68 45.15 35.17 45.49 34.6 45.73C34.03 45.97 33.43 46.09 32.81 46.09L32.81 42.18C33.43 42.18 34.03 42.06 34.6 41.82C35.17 41.59 35.68 41.25 36.12 40.81C36.56 40.37 36.9 39.86 37.14 39.29C37.37 38.71 37.49 38.12 37.5 37.5L37.5 40.62Z" fill="#C6B2A5" fill-opacity="1.000000" fill-rule="nonzero"/>
	<path id="path" d="M4.68 42.18L32.81 42.18L32.81 46.09L4.68 46.09L4.68 42.18Z" fill="#F7E6D5" fill-opacity="1.000000" fill-rule="nonzero"/>
	<path id="path" d="M47.28 40.17L45.31 44.53L43.33 40.17L47.28 40.17Z" fill="#4D4D4D" fill-opacity="1.000000" fill-rule="nonzero"/>
	<path id="path" d="M49.21 35.93L47.28 40.17L43.33 40.17L41.4 35.93L45.31 35.93L49.21 35.93Z" fill="#E0CDBD" fill-opacity="1.000000" fill-rule="nonzero"/>
	<path id="path" d="M45.31 10.93L49.21 10.93L49.21 35.93L45.31 35.93L45.31 10.93Z" fill="#0986CC" fill-opacity="1.000000" fill-rule="nonzero"/>
	<path id="path" d="M41.4 10.93L45.31 10.93L45.31 35.93L41.4 35.93L41.4 10.93Z" fill="#E54C38" fill-opacity="1.000000" fill-rule="nonzero"/>
	<path id="path" d="M49.21 7.81L49.21 10.93L41.4 10.93L41.4 7.82C41.4 7.17 41.63 6.61 42.09 6.15C42.55 5.69 43.1 5.46 43.75 5.46L46.87 5.46C47.52 5.46 48.07 5.69 48.53 6.15C48.99 6.61 49.21 7.16 49.21 7.81Z" fill="#E6E6E6" fill-opacity="1.000000" fill-rule="nonzero"/>
	<path id="path" d="M12.5 6.25L32.81 6.25L32.81 15.62L12.5 15.62L12.5 6.25Z" fill="#FCD088" fill-opacity="1.000000" fill-rule="nonzero"/>
	<path id="path" d="M28.9 6.25L28.9 8.56C28.9 9.08 28.8 9.58 28.6 10.07C28.4 10.55 28.12 10.97 27.75 11.34C27.38 11.71 26.95 12 26.47 12.2C25.99 12.4 25.49 12.5 24.97 12.5L12.5 12.5L12.5 15.62L32.81 15.62L32.81 6.25L28.9 6.25Z" fill="#F9BB3D" fill-opacity="1.000000" fill-rule="nonzero"/>
	<path id="path" d="M8.59 7.03C8.59 7.46 8.44 7.83 8.13 8.13C7.83 8.44 7.46 8.59 7.03 8.59L2.34 8.59C1.91 8.59 1.54 8.44 1.23 8.13C0.93 7.83 0.78 7.46 0.78 7.03C0.78 6.59 0.93 6.23 1.23 5.92C1.54 5.62 1.91 5.46 2.34 5.46L7.03 5.46C7.46 5.46 7.83 5.62 8.13 5.92C8.44 6.23 8.59 6.59 8.59 7.03ZM8.59 15.62C8.59 16.05 8.44 16.42 8.13 16.72C7.83 17.03 7.46 17.18 7.03 17.18L2.34 17.18C1.91 17.18 1.54 17.03 1.23 16.72C0.93 16.42 0.78 16.05 0.78 15.62C0.78 15.19 0.93 14.82 1.23 14.52C1.54 14.21 1.91 14.06 2.34 14.06L7.03 14.06C7.46 14.06 7.83 14.21 8.13 14.52C8.44 14.82 8.59 15.19 8.59 15.62Z" fill="#B3B3B3" fill-opacity="1.000000" fill-rule="nonzero"/>
	<path id="path" d="M37.5 5.46L37.5 34.37C37.49 34.99 37.37 35.59 37.14 36.16C36.9 36.74 36.56 37.24 36.12 37.68C35.68 38.12 35.17 38.46 34.6 38.7C34.03 38.94 33.43 39.06 32.81 39.06L4.68 39.06L4.68 34.37L7.03 34.37C7.46 34.37 7.83 34.22 8.13 33.91C8.44 33.61 8.59 33.24 8.59 32.81C8.59 32.38 8.44 32.01 8.13 31.7C7.83 31.4 7.46 31.25 7.03 31.25L4.68 31.25L4.68 25.78L7.03 25.78C7.46 25.78 7.83 25.62 8.13 25.32C8.44 25.01 8.59 24.65 8.59 24.21C8.59 23.78 8.44 23.41 8.13 23.11C7.83 22.8 7.46 22.65 7.03 22.65L4.68 22.65L4.68 17.18L7.03 17.18C7.46 17.18 7.83 17.03 8.13 16.72C8.44 16.42 8.59 16.05 8.59 15.62C8.59 15.19 8.44 14.82 8.13 14.52C7.83 14.21 7.46 14.06 7.03 14.06L4.68 14.06L4.68 8.59L7.03 8.59C7.46 8.59 7.83 8.44 8.13 8.13C8.44 7.83 8.59 7.46 8.59 7.03C8.59 6.59 8.44 6.23 8.13 5.92C7.83 5.62 7.46 5.46 7.03 5.46L4.68 5.46L4.68 3.9C4.68 3.04 4.99 2.3 5.6 1.69C6.21 1.08 6.94 0.78 7.81 0.78L32.81 0.78C33.43 0.78 34.03 0.9 34.6 1.13C35.18 1.37 35.68 1.71 36.12 2.15C36.56 2.59 36.9 3.1 37.14 3.67C37.38 4.24 37.5 4.84 37.5 5.46ZM32.81 15.62L32.81 6.25L12.5 6.25L12.5 15.62L32.81 15.62Z" fill="#DD975E" fill-opacity="1.000000" fill-rule="nonzero"/>
	<path id="path" d="M32.81 0.78L7.81 0.78C6.94 0.78 6.21 1.08 5.6 1.69C4.99 2.3 4.68 3.04 4.68 3.9L4.68 5.46L4.79 5.46C4.97 4.78 5.34 4.21 5.9 3.78C6.46 3.34 7.1 3.12 7.81 3.12L32.81 3.12C33.43 3.12 34.03 3.24 34.6 3.48C35.18 3.71 35.68 4.05 36.12 4.49C36.56 4.93 36.9 5.44 37.14 6.01C37.38 6.59 37.5 7.19 37.5 7.81L37.5 5.46C37.5 4.84 37.38 4.24 37.14 3.67C36.9 3.1 36.56 2.59 36.12 2.15C35.68 1.71 35.18 1.37 34.6 1.13C34.03 0.9 33.43 0.78 32.81 0.78Z" fill="#EAAD75" fill-opacity="1.000000" fill-rule="nonzero"/>
	<path id="path" d="M8.59 24.21C8.59 24.65 8.44 25.01 8.13 25.32C7.83 25.62 7.46 25.78 7.03 25.78L2.34 25.78C1.91 25.78 1.54 25.62 1.23 25.32C0.93 25.01 0.78 24.65 0.78 24.21C0.78 23.78 0.93 23.41 1.23 23.11C1.54 22.8 1.91 22.65 2.34 22.65L7.03 22.65C7.46 22.65 7.83 22.8 8.13 23.11C8.44 23.41 8.59 23.78 8.59 24.21Z" fill="#B3B3B3" fill-opacity="1.000000" fill-rule="nonzero"/>
	<path id="path" d="M32.81 0L7.81 0C7.29 0 6.79 0.1 6.31 0.29C5.84 0.49 5.41 0.77 5.05 1.14C4.68 1.51 4.4 1.93 4.2 2.41C4 2.89 3.9 3.38 3.9 3.9L3.9 4.68L2.34 4.68C1.69 4.68 1.14 4.91 0.68 5.37C0.22 5.83 0 6.38 0 7.03C0 7.67 0.22 8.23 0.68 8.68C1.14 9.14 1.69 9.37 2.34 9.37L3.9 9.37L3.9 13.28L2.34 13.28C1.69 13.28 1.14 13.51 0.68 13.96C0.22 14.42 0 14.97 0 15.62C0 16.27 0.22 16.82 0.68 17.28C1.14 17.74 1.69 17.96 2.34 17.96L3.9 17.96L3.9 21.87L2.34 21.87C1.69 21.87 1.14 22.1 0.68 22.56C0.22 23.01 0 23.57 0 24.21C0 24.86 0.22 25.41 0.68 25.87C1.14 26.33 1.69 26.56 2.34 26.56L3.9 26.56L3.9 30.46L2.34 30.46C1.69 30.46 1.14 30.69 0.68 31.15C0.22 31.61 0 32.16 0 32.81C0 33.45 0.22 34.01 0.68 34.46C1.14 34.92 1.69 35.15 2.34 35.15L3.9 35.15L3.9 46.09C3.9 46.61 4 47.11 4.2 47.58C4.4 48.06 4.68 48.49 5.04 48.85C5.41 49.22 5.83 49.5 6.31 49.7C6.79 49.9 7.29 50 7.81 50L32.81 50C33.53 49.99 34.23 49.85 34.9 49.58C35.57 49.3 36.16 48.9 36.67 48.39C37.18 47.88 37.58 47.29 37.86 46.62C38.14 45.95 38.28 45.25 38.28 44.53L38.28 5.46C38.28 4.74 38.14 4.04 37.86 3.37C37.58 2.7 37.18 2.11 36.67 1.6C36.16 1.09 35.57 0.69 34.9 0.41C34.23 0.14 33.53 0 32.81 0ZM1.56 7.03C1.56 6.51 1.82 6.25 2.34 6.25L7.03 6.25C7.55 6.25 7.81 6.51 7.81 7.03C7.81 7.55 7.55 7.81 7.03 7.81L2.34 7.81C1.82 7.81 1.56 7.55 1.56 7.03ZM1.56 15.62C1.56 15.1 1.82 14.84 2.34 14.84L7.03 14.84C7.55 14.84 7.81 15.1 7.81 15.62C7.81 16.14 7.55 16.4 7.03 16.4L2.34 16.4C1.82 16.4 1.56 16.14 1.56 15.62ZM1.56 24.21C1.56 23.69 1.82 23.43 2.34 23.43L7.03 23.43C7.55 23.43 7.81 23.69 7.81 24.21C7.81 24.73 7.55 25 7.03 25L2.34 25C1.82 25 1.56 24.73 1.56 24.21ZM1.56 32.81C1.56 32.29 1.82 32.03 2.34 32.03L7.03 32.03C7.55 32.03 7.81 32.29 7.81 32.81C7.81 33.33 7.55 33.59 7.03 33.59L2.34 33.59C1.82 33.59 1.56 33.33 1.56 32.81ZM35.57 44.16C35.02 44.72 34.36 45.08 33.59 45.23L33.59 42.9C34.8 42.71 35.84 42.18 36.71 41.31L36.71 41.4C36.72 42.48 36.34 43.4 35.57 44.16ZM5.46 45.31L5.46 42.96L32.03 42.96L32.03 45.31L5.46 45.31ZM35.57 40.26C34.81 41.03 33.89 41.41 32.81 41.4L5.46 41.4L5.46 39.84L32.81 39.84C34.3 39.84 35.58 39.32 36.64 38.27C36.48 39.04 36.13 39.7 35.57 40.26ZM32.81 48.43L7.81 48.43C7.16 48.43 6.61 48.21 6.15 47.75C5.91 47.5 5.72 47.2 5.61 46.87L32.81 46.87C34.3 46.88 35.58 46.35 36.64 45.3C36.45 46.21 36 46.96 35.28 47.55C34.56 48.14 33.74 48.43 32.81 48.43ZM36.71 34.37C36.71 34.89 36.61 35.39 36.41 35.86C36.22 36.34 35.93 36.76 35.57 37.13C35.2 37.5 34.78 37.78 34.3 37.98C33.82 38.18 33.33 38.28 32.81 38.28L5.46 38.28L5.46 35.15L7.03 35.15C7.67 35.15 8.23 34.92 8.68 34.46C9.14 34.01 9.37 33.45 9.37 32.81C9.37 32.16 9.14 31.61 8.68 31.15C8.23 30.69 7.67 30.46 7.03 30.46L5.46 30.46L5.46 26.56L7.03 26.56C7.67 26.56 8.23 26.33 8.68 25.87C9.14 25.41 9.37 24.86 9.37 24.21C9.37 23.57 9.14 23.01 8.68 22.56C8.23 22.1 7.67 21.87 7.03 21.87L5.46 21.87L5.46 17.96L7.03 17.96C7.67 17.96 8.23 17.74 8.68 17.28C9.14 16.82 9.37 16.27 9.37 15.62C9.37 14.97 9.14 14.42 8.68 13.96C8.23 13.51 7.67 13.28 7.03 13.28L5.46 13.28L5.46 9.37L7.03 9.37C7.67 9.37 8.23 9.14 8.68 8.68C9.14 8.23 9.37 7.67 9.37 7.03C9.37 6.38 9.14 5.83 8.68 5.37C8.23 4.91 7.67 4.68 7.03 4.68L5.46 4.68L5.46 3.9C5.46 3.25 5.69 2.7 6.15 2.24C6.61 1.79 7.16 1.56 7.81 1.56L32.81 1.56C33.33 1.56 33.82 1.66 34.3 1.86C34.78 2.05 35.2 2.34 35.57 2.7C35.93 3.07 36.22 3.49 36.42 3.97C36.61 4.45 36.71 4.95 36.71 5.46L36.71 34.37ZM46.87 4.68L43.75 4.68C42.89 4.68 42.15 4.99 41.54 5.6C40.93 6.21 40.62 6.95 40.62 7.82L40.62 35.93C40.62 36.04 40.64 36.15 40.69 36.25L44.6 44.85C44.73 45.15 44.97 45.31 45.31 45.31C45.64 45.31 45.88 45.15 46.02 44.85L49.92 36.26C49.97 36.16 49.99 36.04 50 35.93L50 7.81C50 6.94 49.69 6.21 49.08 5.6C48.47 4.99 47.73 4.68 46.87 4.68ZM46.78 39.39L43.83 39.39L42.61 36.71L48 36.71L46.78 39.39ZM48.43 11.71L48.43 35.15L46.09 35.15L46.09 11.71L48.43 11.71ZM44.53 35.15L42.18 35.15L42.18 11.71L44.53 11.71L44.53 35.15ZM43.75 6.25L46.87 6.25C47.3 6.25 47.67 6.4 47.97 6.7C48.28 7.01 48.43 7.38 48.43 7.81L48.43 10.15L42.18 10.15L42.18 7.82C42.18 7.38 42.34 7.01 42.64 6.71C42.95 6.4 43.32 6.25 43.75 6.25ZM45.31 42.64L44.54 40.96L46.07 40.96L45.31 42.64Z" fill="#252525" fill-opacity="1.000000" fill-rule="nonzero"/>
	<path id="path" d="M32.81 5.46L12.5 5.46C11.97 5.46 11.71 5.72 11.71 6.25L11.71 15.62C11.71 16.14 11.97 16.4 12.5 16.4L25 16.4C25.52 16.4 25.78 16.14 25.78 15.62C25.78 15.1 25.52 14.84 25 14.84L13.28 14.84L13.28 7.03L32.03 7.03L32.03 14.84L28.9 14.84C28.38 14.84 28.12 15.1 28.12 15.62C28.12 16.14 28.38 16.4 28.9 16.4L32.81 16.4C33.33 16.4 33.59 16.14 33.59 15.62L33.59 6.25C33.59 5.72 33.33 5.46 32.81 5.46ZM27.34 31.25C27.86 31.25 28.12 30.98 28.12 30.46C28.12 29.94 27.86 29.68 27.34 29.68L17.96 29.68C17.44 29.68 17.18 29.94 17.18 30.46C17.18 30.98 17.44 31.25 17.96 31.25L27.34 31.25ZM31.25 33.59L14.06 33.59C13.54 33.59 13.28 33.85 13.28 34.37C13.28 34.89 13.54 35.15 14.06 35.15L31.25 35.15C31.77 35.15 32.03 34.89 32.03 34.37C32.03 33.85 31.77 33.59 31.25 33.59Z" fill="#252525" fill-opacity="1.000000" fill-rule="nonzero"/>
</svg>
