<svg width="50" height="50" viewBox="0 0 50 50" fill="none" xmlns="http://www.w3.org/2000/svg">
<path d="M35.7476 44.234H12.137C10.7683 44.234 9.65881 45.3584 9.65881 46.7455C9.65881 48.1325 10.7683 49.2569 12.137 49.2569H41.2406C42.3599 49.2569 43.2672 48.3374 43.2672 47.2032V40.5829" fill="#D2D7DD"/>
<path d="M43.267 2.79586V42.1805C43.267 43.3142 42.3593 44.2339 41.2407 44.2339H12.1371C10.7684 44.2339 9.65845 45.3586 9.65845 46.7457V3.25435C9.65845 1.86726 10.7683 0.74247 12.1371 0.74247H41.2407C42.3593 0.74247 43.267 1.66228 43.267 2.79586Z" fill="#FAC900"/>
<path d="M36.1548 23.5047H22.0054C20.8543 23.5047 19.9211 22.5591 19.9211 21.3925V15.2214C19.9211 14.0549 20.8542 13.1092 22.0054 13.1092H36.1547C37.3057 13.1092 38.2389 14.0548 38.2389 15.2214V21.3925C38.2389 22.559 37.3058 23.5047 36.1548 23.5047Z" fill="#FEFFFF"/>
<path d="M41.2407 0H12.137C10.7383 0 9.54617 0.911511 9.10704 2.17878H8.71118C7.2162 2.17878 6 3.41138 6 4.9263C6 5.66027 6.28206 6.35021 6.79336 6.86846C7.30447 7.38779 7.98557 7.67382 8.71118 7.67382H8.92607V9.2656H8.71118C7.2162 9.2656 6 10.4982 6 12.0131C6 12.7471 6.28206 13.437 6.79336 13.9553C7.30447 14.4746 7.98557 14.7606 8.71118 14.7606H8.92607V16.3524H8.71118C7.2162 16.3524 6 17.585 6 19.0999C6 19.8339 6.28206 20.5238 6.79336 21.0421C7.30447 21.5614 7.98557 21.8475 8.71118 21.8475H8.92607V23.4392H8.71118C7.2162 23.4392 6 24.6718 6 26.1868C6 26.9207 6.28206 27.6107 6.79336 28.1289C7.30447 28.6482 7.98557 28.9343 8.71118 28.9343H8.92607V30.526H8.71118C7.2162 30.526 6 31.7586 6 33.2736C6 34.0076 6.28206 34.6976 6.79336 35.2157C7.30447 35.7351 7.98557 36.0211 8.71118 36.0211H8.92607V37.6129H8.71118C7.2162 37.6129 6 38.8455 6 40.3604C6 41.0945 6.28206 41.7844 6.79336 42.3025C7.30447 42.8219 7.98557 43.1079 8.71118 43.1079H8.92607V46.746C8.92607 48.5403 10.3664 50 12.137 50H41.2407C42.7622 50 44 48.7456 44 47.2037V2.79625C44.0001 1.25448 42.7622 0 41.2407 0ZM8.71118 6.18859C8.37776 6.18859 8.06516 6.05763 7.83032 5.81896C7.71429 5.70199 7.6223 5.56285 7.55968 5.40961C7.49705 5.25637 7.46504 5.09206 7.46549 4.9262C7.46549 4.23022 8.0243 3.66382 8.71118 3.66382H8.92607V6.18849L8.71118 6.18859ZM8.71118 13.2754C8.37776 13.2754 8.06516 13.1444 7.83032 12.9058C7.71429 12.7888 7.6223 12.6497 7.55968 12.4964C7.49705 12.3432 7.46504 12.1789 7.46549 12.013C7.46549 11.317 8.0243 10.7506 8.71118 10.7506H8.92607V13.2753H8.71118V13.2754ZM8.71118 20.362C8.37776 20.362 8.06516 20.2311 7.83032 19.9924C7.71429 19.8754 7.6223 19.7363 7.55968 19.5831C7.49705 19.4298 7.46504 19.2655 7.46549 19.0996C7.46549 18.4037 8.0243 17.8373 8.71118 17.8373H8.92607V20.3619L8.71118 20.362ZM8.71118 27.4487C8.37776 27.4487 8.06516 27.3178 7.83032 27.0791C7.71429 26.9621 7.6223 26.823 7.55968 26.6698C7.49705 26.5165 7.46504 26.3522 7.46549 26.1864C7.46549 25.4904 8.0243 24.924 8.71118 24.924H8.92607V27.4486H8.71118V27.4487ZM8.71118 34.5355C8.37776 34.5355 8.06516 34.4045 7.83023 34.1657C7.71422 34.0488 7.62225 33.9097 7.55964 33.7564C7.49704 33.6032 7.46504 33.4389 7.46549 33.2731C7.46549 32.5771 8.0243 32.0107 8.71118 32.0107H8.92607V34.5354H8.71118V34.5355ZM8.71118 41.6221C8.37776 41.6221 8.06516 41.4911 7.83023 41.2524C7.71422 41.1354 7.62225 40.9963 7.55964 40.843C7.49704 40.6898 7.46504 40.5255 7.46549 40.3597C7.46549 39.6637 8.0243 39.0973 8.71118 39.0973H8.92607V41.622H8.71118V41.6221ZM41.2407 48.5142H12.137C11.225 48.5142 10.4751 47.8012 10.3991 46.8965C10.9128 47.2329 11.5112 47.4141 12.1375 47.4141H31.4489C31.6412 47.4109 31.8245 47.3313 31.9594 47.1924C32.0942 47.0535 32.1698 46.8664 32.1698 46.6715C32.1698 46.4766 32.0942 46.2896 31.9594 46.1507C31.8245 46.0117 31.6412 45.9321 31.4489 45.929H12.1375C11.6919 45.929 11.273 45.7594 10.9489 45.4531C11.2609 45.1584 11.6778 44.9764 12.137 44.9764H41.2407C41.7074 44.9764 42.1472 44.858 42.533 44.6498C42.5161 45.3579 41.9437 45.9289 41.241 45.9289H34.8685C34.6762 45.932 34.4929 46.0116 34.358 46.1506C34.2231 46.2895 34.1476 46.4765 34.1476 46.6714C34.1476 46.8663 34.2231 47.0534 34.358 47.1923C34.4929 47.3312 34.6762 47.4108 34.8685 47.414H41.241C41.7082 47.414 42.1485 47.2953 42.5346 47.0867V47.2029C42.5346 47.9272 41.9554 48.5142 41.2407 48.5142ZM42.5346 40.5828V42.1803C42.5346 42.9044 41.9554 43.4915 41.2407 43.4915H16.9905V9.29792C16.9874 9.10306 16.9088 8.91726 16.7718 8.78058C16.6347 8.6439 16.4501 8.5673 16.2578 8.5673C16.0655 8.5673 15.8809 8.6439 15.7438 8.78058C15.6067 8.91726 15.5281 9.10306 15.525 9.29792V43.4914H12.137C11.5172 43.4909 10.9108 43.6733 10.3916 44.0162V39.0973H11.1662C11.4911 39.0973 11.8114 39.21 12.0491 39.4342C12.1722 39.5495 12.271 39.6889 12.3393 39.844C12.4077 39.9991 12.4443 40.1666 12.4469 40.3365C12.4533 40.698 12.6892 41.0234 13.04 41.089C13.1461 41.1098 13.2555 41.1065 13.3602 41.0795C13.465 41.0524 13.5625 41.0023 13.6459 40.9326C13.7293 40.8629 13.7964 40.7753 13.8425 40.6763C13.8886 40.5772 13.9125 40.469 13.9126 40.3595C13.9126 39.593 13.6051 38.8744 13.0492 38.3485C12.5357 37.863 11.848 37.612 11.1457 37.612H10.3917V32.0104H11.1663C11.4912 32.0104 11.8115 32.1231 12.0492 32.3473C12.1723 32.4626 12.2711 32.602 12.3394 32.7571C12.4078 32.9122 12.4444 33.0797 12.447 33.2495C12.4534 33.6111 12.6893 33.9364 13.0401 34.0021C13.1462 34.0229 13.2556 34.0196 13.3603 33.9926C13.4651 33.9655 13.5626 33.9154 13.646 33.8457C13.7294 33.776 13.7965 33.6884 13.8426 33.5894C13.8887 33.4903 13.9126 33.3821 13.9127 33.2726C13.9127 32.5061 13.6052 31.7875 13.0492 31.2616C12.5357 30.776 11.848 30.5251 11.1457 30.5251H10.3917V24.9235H11.1663C11.4912 24.9235 11.8115 25.0362 12.0492 25.2604C12.1723 25.3757 12.2711 25.5151 12.3394 25.6702C12.4078 25.8252 12.4444 25.9928 12.447 26.1626C12.4534 26.5241 12.6893 26.8495 13.0401 26.9152C13.1462 26.9359 13.2556 26.9327 13.3603 26.9057C13.4651 26.8786 13.5626 26.8284 13.646 26.7587C13.7294 26.689 13.7965 26.6015 13.8426 26.5025C13.8887 26.4034 13.9126 26.2952 13.9127 26.1857C13.9127 25.4192 13.6052 24.7005 13.0492 24.1747C12.5357 23.6891 11.848 23.4382 11.1457 23.4382H10.3917V17.8366H11.1663C11.4912 17.8366 11.8115 17.9493 12.0492 18.1735C12.1723 18.2887 12.2711 18.4282 12.3394 18.5832C12.4078 18.7383 12.4444 18.9059 12.447 19.0757C12.4534 19.4372 12.6893 19.7626 13.0401 19.8282C13.1462 19.849 13.2556 19.8458 13.3603 19.8187C13.4651 19.7917 13.5626 19.7415 13.646 19.6718C13.7294 19.6021 13.7965 19.5146 13.8426 19.4155C13.8887 19.3165 13.9126 19.2083 13.9127 19.0988C13.9127 18.3323 13.6052 17.6136 13.0492 17.0878C12.5357 16.6022 11.848 16.3512 11.1457 16.3512H10.3917V10.7497H11.1663C11.4912 10.7497 11.8115 10.8624 12.0492 11.0866C12.1723 11.2018 12.2711 11.3412 12.3394 11.4963C12.4078 11.6514 12.4444 11.819 12.447 11.9888C12.4534 12.3503 12.6893 12.6757 13.0401 12.7413C13.1462 12.7621 13.2556 12.7589 13.3603 12.7318C13.4651 12.7048 13.5626 12.6546 13.646 12.5849C13.7294 12.5152 13.7965 12.4277 13.8426 12.3286C13.8887 12.2296 13.9126 12.1214 13.9127 12.0118C13.9127 11.2454 13.6052 10.5267 13.0492 10.0008C12.5357 9.5153 11.848 9.26433 11.1457 9.26433H10.3917V3.66391H11.1663C11.4912 3.66391 11.8115 3.77661 12.0492 4.00082C12.1723 4.11609 12.2711 4.25549 12.3394 4.41058C12.4078 4.56567 12.4444 4.73321 12.447 4.90306C12.4534 5.26458 12.6893 5.58996 13.0401 5.65559C13.1462 5.67637 13.2556 5.67312 13.3603 5.64608C13.4651 5.61904 13.5626 5.56887 13.646 5.49917C13.7294 5.42947 13.7965 5.34195 13.8426 5.24288C13.8887 5.14381 13.9126 5.03564 13.9127 4.9261C13.9127 4.15961 13.6052 3.44097 13.0492 2.9151C12.5357 2.42956 11.848 2.17858 11.1457 2.17858H10.7543C11.0736 1.75779 11.5738 1.48494 12.137 1.48494H15.525V5.83234C15.5281 6.0272 15.6067 6.213 15.7438 6.34968C15.8809 6.48636 16.0655 6.56296 16.2578 6.56296C16.4501 6.56296 16.6347 6.48636 16.7718 6.34968C16.9088 6.213 16.9874 6.0272 16.9905 5.83234V1.48514H41.2408C41.9554 1.48514 42.5347 2.07214 42.5347 2.79635V40.5828H42.5346Z" fill="#B28181"/>
<path d="M36.1548 12.3666H22.0055C20.4523 12.3666 19.1885 13.6473 19.1885 15.2214V21.3925C19.1885 22.9665 20.4522 24.2473 22.0055 24.2473H36.1547C37.7079 24.2473 38.9717 22.9666 38.9717 21.3925V15.2214C38.9717 13.6474 37.7081 12.3666 36.1548 12.3666ZM37.5062 21.3925C37.5062 22.1477 36.8999 22.7621 36.1547 22.7621H22.0055C21.2602 22.7621 20.654 22.1477 20.654 21.3925V15.2214C20.654 14.4662 21.2602 13.8518 22.0055 13.8518H36.1547C36.8999 13.8518 37.5062 14.4662 37.5062 15.2214V21.3925Z" fill="#B28181"/>
</svg>
