<svg width="50.000000" height="50.000000" viewBox="0 0 50 50" fill="none" xmlns="http://www.w3.org/2000/svg" xmlns:xlink="http://www.w3.org/1999/xlink">
	<desc>
			Created with Pixso.
	</desc>
	<defs>
		<radialGradient gradientTransform="translate(25.9254 26.0283) rotate(0) scale(25 25)" cx="0.000000" cy="0.000000" r="1.000000" id="paint_radial_15_21_0" gradientUnits="userSpaceOnUse">
			<stop offset="0.990000" stop-color="#FFFFFF"/>
			<stop offset="0.995050" stop-color="#FDFDFD"/>
			<stop offset="0.996870" stop-color="#F6F6F6"/>
			<stop offset="0.998170" stop-color="#EBEBEB"/>
			<stop offset="0.999210" stop-color="#DADADA"/>
			<stop offset="1.000000" stop-color="#C7C7C7"/>
		</radialGradient>
		<radialGradient gradientTransform="translate(25.9254 26.0283) rotate(0) scale(22.833 22.833)" cx="0.000000" cy="0.000000" r="1.000000" id="paint_radial_15_22_0" gradientUnits="userSpaceOnUse">
			<stop offset="0.990000" stop-color="#000000" stop-opacity="0.498039"/>
			<stop offset="1.000000" stop-color="#000000" stop-opacity="0.000000"/>
		</radialGradient>
		<radialGradient gradientTransform="translate(25.9254 26.0283) rotate(0) scale(22.833 22.833)" cx="0.000000" cy="0.000000" r="1.000000" id="paint_radial_15_27_0" gradientUnits="userSpaceOnUse">
			<stop offset="0.990000" stop-color="#000000" stop-opacity="0.498039"/>
			<stop offset="1.000000" stop-color="#000000" stop-opacity="0.000000"/>
		</radialGradient>
		<radialGradient gradientTransform="translate(24.9999 25.0778) rotate(0) scale(22.6445 22.6445)" cx="0.000000" cy="0.000000" r="1.000000" id="paint_radial_15_32_0" gradientUnits="userSpaceOnUse">
			<stop stop-color="#000000"/>
			<stop offset="1.000000" stop-color="#322F32"/>
		</radialGradient>
		<radialGradient gradientTransform="translate(29.3613 24.0344) rotate(0) scale(18.1967 19.9636)" cx="0.000000" cy="0.000000" r="1.000000" id="paint_radial_15_33_0" gradientUnits="userSpaceOnUse">
			<stop stop-color="#C2C0C2"/>
			<stop offset="1.000000" stop-color="#EBEBEB"/>
		</radialGradient>
	</defs>
	<path id="path" d="M25 0C38.8 0 50 11.19 50 25C50 38.8 38.8 50 25 50C11.19 50 0 38.8 0 25C0 11.19 11.19 0 25 0Z" fill="url(#paint_radial_15_21_0)" fill-opacity="1.000000" fill-rule="nonzero"/>
	<path id="path" d="M2.16 25C2.16 37.61 12.38 47.83 24.99 47.83C37.61 47.83 47.83 37.61 47.83 25C47.83 12.38 37.61 2.16 24.99 2.16C12.38 2.16 2.16 12.38 2.16 25Z" fill="url(#paint_radial_15_22_0)" fill-opacity="1.000000" fill-rule="nonzero"/>
	<mask id="mask15_25" mask-type="alpha" maskUnits="userSpaceOnUse" x="2.166931" y="2.167053" width="45.666504" height="45.666016">
		<path id="SVGID" d="M2.16 25C2.16 37.61 12.38 47.83 24.99 47.83C37.61 47.83 47.83 37.61 47.83 25C47.83 12.38 37.61 2.16 24.99 2.16C12.38 2.16 2.16 12.38 2.16 25Z" fill="#000000" fill-opacity="1.000000" fill-rule="nonzero"/>
	</mask>
	<g mask="url(#mask15_25)">
		<rect id="rect" x="2.166931" y="2.167053" width="45.666500" height="45.665989" fill="url(#paint_radial_15_27_0)" fill-opacity="1.000000"/>
	</g>
	<mask id="mask15_30" mask-type="alpha" maskUnits="userSpaceOnUse" x="2.355347" y="2.355225" width="45.289673" height="45.289673">
		<path id="path" d="M2.35 25C2.35 37.5 12.49 47.64 25 47.64C37.5 47.64 47.64 37.5 47.64 25C47.64 12.49 37.5 2.35 25 2.35C12.49 2.35 2.35 12.49 2.35 25Z" fill="#000000" fill-opacity="1.000000" fill-rule="nonzero"/>
	</mask>
	<g mask="url(#mask15_30)">
		<rect id="rect" x="2.355347" y="2.355469" width="45.289654" height="45.289139" fill="url(#paint_radial_15_32_0)" fill-opacity="1.000000"/>
	</g>
	<path id="path" d="M33.88 17.71C33.71 18.01 33.53 18.3 33.33 18.58C33.13 18.85 32.92 19.12 32.69 19.38C32.46 19.64 32.23 19.88 31.98 20.11C31.73 20.35 31.46 20.57 31.19 20.77C30.92 20.98 30.64 21.17 30.34 21.35C30.05 21.53 29.75 21.69 29.45 21.84C29.14 21.99 28.82 22.12 28.5 22.24C28.18 22.36 27.85 22.46 27.52 22.54C27.19 22.63 26.86 22.69 26.52 22.74C26.18 22.79 25.84 22.83 25.5 22.84C25.16 22.86 24.81 22.86 24.47 22.84C24.13 22.83 23.79 22.79 23.45 22.74C23.11 22.69 22.78 22.62 22.45 22.53C22.12 22.45 21.79 22.35 21.47 22.23C21.15 22.11 20.83 21.98 20.53 21.83C20.22 21.68 19.92 21.52 19.63 21.34C18.76 20.8 17.99 20.15 17.32 19.39C16.88 18.9 16.5 18.37 16.16 17.8C15.83 17.23 15.55 16.64 15.33 16.02C15.11 15.4 14.95 14.76 14.85 14.11C14.76 13.45 14.72 12.8 14.75 12.14C14.77 11.84 14.79 11.54 14.83 11.25C14.87 10.96 14.92 10.67 14.99 10.38C15.05 10.09 15.13 9.8 15.22 9.51C15.31 9.23 15.41 8.95 15.52 8.68C15.64 8.4 15.77 8.12 15.91 7.85C16.06 7.57 16.22 7.29 16.4 7.02C16.56 6.77 16.73 6.53 16.91 6.3C17.11 6.04 17.32 5.8 17.54 5.57C17.77 5.33 18 5.1 18.25 4.89C18.49 4.67 18.76 4.46 19.02 4.27C19.16 4.17 19.3 4.07 19.45 3.98C19.09 4.17 18.74 4.37 18.39 4.59C18.05 4.8 17.72 5.04 17.4 5.29C17.09 5.54 16.78 5.8 16.49 6.08C16.19 6.36 15.92 6.66 15.65 6.96C15.39 7.27 15.14 7.59 14.9 7.92C14.67 8.25 14.45 8.59 14.25 8.94C14.05 9.3 13.87 9.66 13.7 10.03C13.54 10.4 13.39 10.77 13.26 11.16C13.13 11.54 13.02 11.93 12.93 12.32C12.83 12.72 12.76 13.12 12.71 13.52C12.66 13.92 12.62 14.32 12.61 14.73C12.59 15.13 12.6 15.54 12.62 15.94C12.65 16.35 12.69 16.75 12.76 17.15C12.82 17.55 12.9 17.94 13.01 18.34C13.11 18.73 13.23 19.11 13.37 19.49C13.51 19.88 13.66 20.25 13.84 20.61C13.87 20.67 13.9 20.73 13.93 20.79C13.94 20.81 13.95 20.84 13.97 20.87C13.97 20.88 13.98 20.9 13.99 20.91C14.01 20.93 14.01 20.93 14.04 20.93C14.17 20.93 14.3 20.93 14.43 20.93C14.68 20.93 14.92 20.95 15.17 20.97C15.45 21 15.72 21.04 16 21.09C16.28 21.13 16.55 21.19 16.82 21.27C17.1 21.34 17.36 21.42 17.63 21.52C17.89 21.61 18.15 21.71 18.41 21.83C18.67 21.94 18.92 22.07 19.16 22.21C19.41 22.34 19.65 22.49 19.88 22.64C20.12 22.8 20.35 22.96 20.57 23.14C20.79 23.31 21 23.5 21.2 23.69C21.41 23.88 21.61 24.08 21.8 24.29C21.98 24.49 22.16 24.71 22.34 24.93C22.51 25.16 22.67 25.39 22.82 25.62C22.97 25.86 23.12 26.1 23.25 26.35C23.38 26.6 23.5 26.85 23.62 27.11C23.73 27.36 23.83 27.63 23.92 27.89C24.01 28.16 24.09 28.43 24.16 28.7C24.22 28.97 24.28 29.25 24.33 29.52C24.49 30.55 24.5 31.59 24.36 32.62C24.22 33.59 23.95 34.52 23.55 35.41C23.15 36.3 22.62 37.11 21.99 37.85C21.25 38.71 20.4 39.43 19.43 40C18.95 40.29 18.45 40.53 17.94 40.73C17.42 40.93 16.89 41.09 16.35 41.2C15.8 41.32 15.26 41.39 14.7 41.42C14.15 41.45 13.6 41.43 13.04 41.37C12.64 41.32 12.25 41.25 11.85 41.16C11.6 41.1 11.34 41.03 11.1 40.95C12.22 41.45 13.4 41.77 14.62 41.92C15.76 42.06 16.9 42.05 18.03 41.88C19.04 41.73 20.02 41.46 20.97 41.07C21.91 40.68 22.8 40.18 23.62 39.58C24.84 38.68 25.86 37.6 26.69 36.33C26.73 36.28 26.76 36.22 26.8 36.17C26.81 36.15 26.84 36.11 26.84 36.09C26.82 36.06 26.81 36.02 26.78 35.99C26.71 35.86 26.65 35.73 26.59 35.6C26.46 35.34 26.34 35.07 26.24 34.79C26.03 34.23 25.87 33.66 25.76 33.08C25.52 31.81 25.52 30.54 25.76 29.27C25.96 28.2 26.33 27.18 26.86 26.23C27.08 25.83 27.32 25.45 27.59 25.08C27.86 24.72 28.15 24.37 28.47 24.05C28.78 23.72 29.12 23.42 29.47 23.14C29.83 22.86 30.2 22.6 30.59 22.37C30.98 22.14 31.38 21.93 31.8 21.75C32.21 21.57 32.64 21.42 33.08 21.3C33.51 21.18 33.96 21.09 34.41 21.03C34.85 20.96 35.31 20.93 35.76 20.93C36.01 20.93 36.26 20.93 36.51 20.95C36.75 20.97 37 20.99 37.24 21.02C37.47 21.06 37.71 21.1 37.95 21.15C38.18 21.19 38.41 21.25 38.63 21.31C38.86 21.38 39.08 21.45 39.29 21.53C39.52 21.61 39.73 21.69 39.95 21.79C40.17 21.88 40.38 21.99 40.59 22.1C40.8 22.21 41.01 22.33 41.22 22.45C41.41 22.57 41.59 22.69 41.78 22.83C41.96 22.96 42.15 23.1 42.33 23.25C42.51 23.4 42.69 23.56 42.87 23.72C43.05 23.89 43.23 24.08 43.4 24.26C43.57 24.45 43.74 24.64 43.89 24.84C44.07 25.07 44.23 25.29 44.39 25.53C44.55 25.77 44.7 26.02 44.84 26.28C45.03 26.63 45.21 27 45.36 27.37C45.52 27.78 45.66 28.2 45.77 28.63C45.62 27.49 45.32 26.39 44.87 25.34C44.41 24.28 43.83 23.3 43.11 22.41C42.04 21.08 40.76 20.01 39.25 19.2C37.71 18.37 36.07 17.88 34.32 17.74C34.17 17.73 34.03 17.72 33.88 17.71Z" fill="url(#paint_radial_15_33_0)" fill-opacity="1.000000" fill-rule="nonzero"/>
</svg>
