<svg width="50" height="50" viewBox="0 0 50 50" fill="none" xmlns="http://www.w3.org/2000/svg">
<path d="M37.0904 46.4238C36.7936 48.7087 34.601 50.4859 32.4276 49.8707C29.3254 49.0016 25.735 47.6444 22.5083 47.3905L17.5583 46.9999C16.76 46.9432 16.0101 46.5887 15.4519 46.0039L6.93053 37.0498C6.47343 36.5729 6.16776 35.9667 6.05334 35.3101C5.93892 34.6534 6.02105 33.9769 6.28903 33.3686C6.28903 33.3686 11.555 21.5535 11.7561 20.9383C11.9476 20.3231 12.6753 14.9624 13.0965 12.0916C13.2114 11.3202 13.5753 10.6269 14.1497 10.1094L24.2318 0.852599C24.5642 0.548066 24.9544 0.31637 25.3782 0.171855C25.802 0.0273395 26.2503 -0.0269175 26.6955 0.0124429C27.1407 0.0518033 27.5732 0.183943 27.9663 0.400681C28.3594 0.617419 28.7047 0.914141 28.9807 1.27248L37.4447 12.2478C37.9154 12.8761 38.171 13.6445 38.1723 14.4351C38.1723 16.515 38.3447 20.7821 39.4745 23.5357C40.5755 26.2014 42.5862 29.1015 43.6394 30.5173C43.8398 30.7821 43.9587 31.1017 43.9808 31.4355C44.003 31.7692 43.9275 32.1022 43.7639 32.3921C42.3974 34.7304 40.9671 37.0292 39.4745 39.2859C38.0383 41.4634 37.3776 44.1584 37.0808 46.4238H37.0904Z" fill="#6C31E3"/>
<path d="M16.371 46.6874C20.3348 38.4852 20.2199 32.607 18.5348 28.4277C16.9837 24.561 14.1018 22.1296 11.8326 20.6161C11.7752 20.8407 11.7082 21.0457 11.622 21.2508L6.28895 33.3784C6.01975 33.9857 5.93606 34.6617 6.04877 35.3183C6.16148 35.9748 6.46536 36.5816 6.92087 37.0596L15.4518 46.0137C15.7165 46.2948 16.0276 46.5262 16.371 46.6972V46.6874Z" fill="url(#paint0_radial_195_78)"/>
<path d="M27.1423 30.0389C28.2147 30.156 29.2679 30.3904 30.2828 30.781C33.5381 32.0211 36.5062 34.804 38.9478 40.1843C39.1201 39.8816 39.2924 39.5788 39.4839 39.2859C40.9748 37.0281 42.4051 34.7293 43.7733 32.3921C43.9408 32.1034 44.0185 31.7697 43.9963 31.435C43.974 31.1004 43.8529 30.7804 43.6489 30.5173C42.5957 29.0917 40.585 26.2014 39.4839 23.5357C38.3541 20.7821 38.1914 16.5052 38.1818 14.4351C38.1818 13.6442 37.9329 12.8728 37.4541 12.2478L28.9806 1.27248C28.9346 1.21553 28.8867 1.16017 28.837 1.10648C29.3946 2.80914 29.461 4.63928 29.0285 6.37934C28.6183 7.78432 28.053 9.13724 27.3434 10.4121L26.654 11.7987C25.5488 13.9447 24.9149 16.3105 24.7966 18.7315C24.6817 21.6023 25.2561 25.2152 27.1423 30.0389Z" fill="url(#paint1_radial_195_78)"/>
<path d="M27.1424 30.0389C25.2562 25.2152 24.6721 21.6023 24.7966 18.7217C24.915 16.3007 25.5488 13.935 26.6541 11.7889C26.8743 11.3202 27.1136 10.8613 27.3434 10.4121C28.0232 9.05483 28.6839 7.77567 29.0286 6.36958C29.4611 4.62951 29.3946 2.79938 28.8371 1.09671C28.2562 0.443873 27.4452 0.0525878 26.5819 0.0086568C25.7186 -0.0352742 24.8734 0.271734 24.2317 0.862364L14.1401 10.1192C13.5773 10.6364 13.2083 11.3372 13.0965 12.1014L11.8709 20.4013L11.8231 20.6258C14.1018 22.1393 16.9933 24.5707 18.5348 28.4375C18.8534 29.2206 19.1033 30.031 19.2816 30.8591C21.9625 30.1951 24.6147 29.785 27.1424 30.0486V30.0389Z" fill="url(#paint2_radial_195_78)"/>
<path d="M32.4275 49.8805C34.6009 50.4859 36.7935 48.7087 37.0903 46.4238C37.3374 44.2471 37.9666 42.1336 38.9478 40.1843C36.4967 34.8137 33.5382 32.0211 30.2924 30.781C26.8455 29.4725 23.0923 29.9022 19.2816 30.8493C20.1338 34.7942 19.6263 39.9597 16.371 46.6874C16.754 46.8632 17.1465 46.9804 17.5678 47.0097C17.5678 47.0097 19.904 47.205 22.6998 47.41C25.4764 47.6053 29.6317 49.0798 32.4275 49.8707V49.8805Z" fill="url(#paint3_radial_195_78)"/>
<path fill-rule="evenodd" clip-rule="evenodd" d="M24.8158 18.5362C24.6913 21.3875 25.0456 24.6684 26.9317 29.4823L26.3381 29.4335C24.6434 24.4047 24.2796 21.8171 24.4041 18.9268C24.5496 16.4669 25.2159 14.0684 26.3573 11.8963C26.5871 11.4179 27.1232 10.5195 27.3626 10.0606C28.0424 8.72283 28.502 8.01002 28.8945 6.77969C29.4403 5.07089 29.3254 4.25067 29.2584 3.44997C29.6988 6.36958 28.0424 8.91813 26.7977 11.496C25.653 13.6685 24.9773 16.0656 24.8158 18.5265V18.5362Z" fill="url(#paint4_radial_195_78)"/>
<path fill-rule="evenodd" clip-rule="evenodd" d="M19.0902 28.6328C19.32 29.1601 19.5306 29.5897 19.6646 30.2439L19.1572 30.3513C18.9561 29.5897 18.7933 29.0429 18.5061 28.3984C16.8018 24.2973 14.0731 22.1882 11.8326 20.6356C14.5327 22.1198 17.3093 24.4438 19.0806 28.6328H19.0902Z" fill="url(#paint5_radial_195_78)"/>
<path fill-rule="evenodd" clip-rule="evenodd" d="M19.6933 30.7517C20.6316 35.2434 19.5784 40.9264 16.4763 46.4629C19.071 40.9752 20.3252 35.7121 19.2816 30.8396L19.6933 30.7517Z" fill="url(#paint6_radial_195_78)"/>
<path fill-rule="evenodd" clip-rule="evenodd" d="M30.4073 30.3513C35.4914 32.2945 37.4542 36.5616 38.9191 40.1159C37.0999 36.3956 34.5914 32.275 30.2254 30.7419C26.8934 29.5897 24.0881 29.7264 19.2817 30.8396L19.1763 30.3513C24.27 29.1698 26.9317 29.0331 30.4073 30.3513Z" fill="url(#paint7_radial_195_78)"/>
<defs>
<radialGradient id="paint0_radial_195_78" cx="0" cy="0" r="1" gradientUnits="userSpaceOnUse" gradientTransform="translate(15.9401 45.877) rotate(-104.42) scale(22.6849 14.8577)">
<stop stop-color="white" stop-opacity="0.4"/>
<stop offset="1" stop-opacity="0.1"/>
</radialGradient>
<radialGradient id="paint1_radial_195_78" cx="0" cy="0" r="1" gradientUnits="userSpaceOnUse" gradientTransform="translate(34.9552 36.5225) rotate(-82.6292) scale(37.316 27.0507)">
<stop stop-color="white" stop-opacity="0.6"/>
<stop offset="1" stop-color="white" stop-opacity="0.1"/>
</radialGradient>
<radialGradient id="paint2_radial_195_78" cx="0" cy="0" r="1" gradientUnits="userSpaceOnUse" gradientTransform="translate(17.2806 29.9608) rotate(-78.0255) scale(31.8418 21.3705)">
<stop stop-color="white" stop-opacity="0.8"/>
<stop offset="1" stop-color="white" stop-opacity="0.4"/>
</radialGradient>
<radialGradient id="paint3_radial_195_78" cx="0" cy="0" r="1" gradientUnits="userSpaceOnUse" gradientTransform="translate(32.5903 49.9976) rotate(-120.006) scale(18.3797 20.9251)">
<stop stop-color="white" stop-opacity="0.3"/>
<stop offset="1" stop-opacity="0.3"/>
</radialGradient>
<radialGradient id="paint4_radial_195_78" cx="0" cy="0" r="1" gradientUnits="userSpaceOnUse" gradientTransform="translate(30.1679 12.5017) rotate(102.005) scale(16.5716 10.9764)">
<stop stop-color="white" stop-opacity="0"/>
<stop offset="1" stop-color="white" stop-opacity="0.2"/>
</radialGradient>
<radialGradient id="paint5_radial_195_78" cx="0" cy="0" r="1" gradientUnits="userSpaceOnUse" gradientTransform="translate(11.1145 21.4851) rotate(45.8865) scale(12.1043 25.7712)">
<stop stop-color="white" stop-opacity="0.2"/>
<stop offset="1" stop-color="white" stop-opacity="0.4"/>
</radialGradient>
<radialGradient id="paint6_radial_195_78" cx="0" cy="0" r="1" gradientUnits="userSpaceOnUse" gradientTransform="translate(21.072 27.7149) rotate(86.1165) scale(12.7231 26.4974)">
<stop stop-color="white" stop-opacity="0.2"/>
<stop offset="1" stop-color="white" stop-opacity="0.3"/>
</radialGradient>
<radialGradient id="paint7_radial_195_78" cx="0" cy="0" r="1" gradientUnits="userSpaceOnUse" gradientTransform="translate(38.785 38.9637) rotate(-151.823) scale(21.5063 68.408)">
<stop stop-color="white" stop-opacity="0.2"/>
<stop offset="0.5" stop-color="white" stop-opacity="0.2"/>
<stop offset="1" stop-color="white" stop-opacity="0.3"/>
</radialGradient>
</defs>
</svg>
