<svg width="50" height="50" viewBox="0 0 50 50" fill="none" xmlns="http://www.w3.org/2000/svg">
<path d="M23.6111 40.1316C22.3219 40.1316 21.0854 40.6168 20.1738 41.4804C19.2622 42.3441 18.75 43.5155 18.75 44.7368C18.75 45.9582 19.2622 47.1296 20.1738 47.9933C21.0854 48.8569 22.3219 49.3421 23.6111 49.3421C24.9004 49.3421 26.1368 48.8569 27.0484 47.9933C27.9601 47.1296 28.4722 45.9582 28.4722 44.7368C28.4722 43.5155 27.9601 42.3441 27.0484 41.4804C26.1368 40.6168 24.9004 40.1316 23.6111 40.1316Z" fill="#8BB7F0"/>
<path d="M23.6111 40.7895C25.9083 40.7895 27.7778 42.5605 27.7778 44.7368C27.7778 46.9132 25.9083 48.6842 23.6111 48.6842C21.3139 48.6842 19.4444 46.9132 19.4444 44.7368C19.4444 42.5605 21.3139 40.7895 23.6111 40.7895ZM23.6111 39.4737C20.5431 39.4737 18.0556 41.8303 18.0556 44.7368C18.0556 47.6434 20.5431 50 23.6111 50C26.6792 50 29.1667 47.6434 29.1667 44.7368C29.1667 41.8303 26.6792 39.4737 23.6111 39.4737Z" fill="#4E7AB5"/>
<path d="M23.6111 0.657895C22.8744 0.657895 22.1679 0.935149 21.6469 1.42867C21.126 1.92218 20.8333 2.59154 20.8333 3.28947C20.8333 3.98741 21.126 4.65676 21.6469 5.15028C22.1679 5.6438 22.8744 5.92105 23.6111 5.92105C24.3478 5.92105 25.0544 5.6438 25.5753 5.15028C26.0962 4.65676 26.3889 3.98741 26.3889 3.28947C26.3889 2.59154 26.0962 1.92218 25.5753 1.42867C25.0544 0.935149 24.3478 0.657895 23.6111 0.657895Z" fill="#8BB7F0"/>
<path d="M23.6111 1.31579C24.7597 1.31579 25.6944 2.20132 25.6944 3.28947C25.6944 4.37763 24.7597 5.26316 23.6111 5.26316C22.4625 5.26316 21.5278 4.37763 21.5278 3.28947C21.5278 2.20132 22.4625 1.31579 23.6111 1.31579ZM23.6111 0C21.6931 0 20.1389 1.47237 20.1389 3.28947C20.1389 5.10658 21.6931 6.57895 23.6111 6.57895C25.5292 6.57895 27.0833 5.10658 27.0833 3.28947C27.0833 1.47237 25.5292 0 23.6111 0Z" fill="#4E7AB5"/>
<path d="M2.08333 23.0263C1.71498 23.0263 1.36171 23.1649 1.10124 23.4117C0.840772 23.6585 0.694443 23.9931 0.694443 24.3421C0.694443 24.6911 0.840772 25.0258 1.10124 25.2725C1.36171 25.5193 1.71498 25.6579 2.08333 25.6579C2.45169 25.6579 2.80496 25.5193 3.06542 25.2725C3.32589 25.0258 3.47222 24.6911 3.47222 24.3421C3.47222 23.9931 3.32589 23.6585 3.06542 23.4117C2.80496 23.1649 2.45169 23.0263 2.08333 23.0263Z" fill="#8BB7F0"/>
<path d="M2.08333 23.6842C2.46667 23.6842 2.77778 23.9789 2.77778 24.3421C2.77778 24.7053 2.46667 25 2.08333 25C1.7 25 1.38889 24.7053 1.38889 24.3421C1.38889 23.9789 1.7 23.6842 2.08333 23.6842ZM2.08333 22.3684C0.933333 22.3684 0 23.2526 0 24.3421C0 25.4316 0.933333 26.3158 2.08333 26.3158C3.23333 26.3158 4.16667 25.4316 4.16667 24.3421C4.16667 23.2526 3.23333 22.3684 2.08333 22.3684Z" fill="#4E7AB5"/>
<path d="M45.1389 20.3947C44.0338 20.3947 42.974 20.8106 42.1926 21.5509C41.4112 22.2912 40.9722 23.2952 40.9722 24.3421C40.9722 25.389 41.4112 26.393 42.1926 27.1333C42.974 27.8736 44.0338 28.2895 45.1389 28.2895C46.244 28.2895 47.3038 27.8736 48.0852 27.1333C48.8666 26.393 49.3056 25.389 49.3056 24.3421C49.3056 23.2952 48.8666 22.2912 48.0852 21.5509C47.3038 20.8106 46.244 20.3947 45.1389 20.3947Z" fill="#8BB7F0"/>
<path d="M45.1389 21.0526C47.0542 21.0526 48.6111 22.5289 48.6111 24.3421C48.6111 26.1553 47.0542 27.6316 45.1389 27.6316C43.2236 27.6316 41.6667 26.1553 41.6667 24.3421C41.6667 22.5289 43.2236 21.0526 45.1389 21.0526ZM45.1389 19.7368C42.4542 19.7368 40.2778 21.7987 40.2778 24.3421C40.2778 26.8855 42.4542 28.9474 45.1389 28.9474C47.8236 28.9474 50 26.8855 50 24.3421C50 21.7987 47.8236 19.7368 45.1389 19.7368Z" fill="#4E7AB5"/>
<path d="M6.94444 37.5C6.76027 37.5 6.58363 37.5693 6.4534 37.6927C6.32316 37.8161 6.25 37.9834 6.25 38.1579C6.25 38.3324 6.32316 38.4997 6.4534 38.6231C6.58363 38.7465 6.76027 38.8158 6.94444 38.8158C7.12862 38.8158 7.30526 38.7465 7.43549 38.6231C7.56572 38.4997 7.63889 38.3324 7.63889 38.1579C7.63889 37.9834 7.56572 37.8161 7.43549 37.6927C7.30526 37.5693 7.12862 37.5 6.94444 37.5Z" fill="#8BB7F0"/>
<path d="M6.94445 36.8421C6.17778 36.8421 5.55556 37.4316 5.55556 38.1579C5.55556 38.8842 6.17778 39.4737 6.94445 39.4737C7.71111 39.4737 8.33333 38.8842 8.33333 38.1579C8.33333 37.4316 7.71111 36.8421 6.94445 36.8421Z" fill="#4E7AB5"/>
<path d="M38.8889 5.92105C37.968 5.92105 37.0848 6.26762 36.4337 6.88452C35.7825 7.50141 35.4167 8.3381 35.4167 9.21053C35.4167 10.0829 35.7825 10.9196 36.4337 11.5365C37.0848 12.1534 37.968 12.5 38.8889 12.5C39.8098 12.5 40.693 12.1534 41.3441 11.5365C41.9953 10.9196 42.3611 10.0829 42.3611 9.21053C42.3611 8.3381 41.9953 7.50141 41.3441 6.88452C40.693 6.26762 39.8098 5.92105 38.8889 5.92105Z" fill="#8BB7F0"/>
<path d="M38.8889 6.57895C40.4208 6.57895 41.6667 7.75921 41.6667 9.21053C41.6667 10.6618 40.4208 11.8421 38.8889 11.8421C37.3569 11.8421 36.1111 10.6618 36.1111 9.21053C36.1111 7.75921 37.3569 6.57895 38.8889 6.57895ZM38.8889 5.26316C36.5875 5.26316 34.7222 7.03026 34.7222 9.21053C34.7222 11.3908 36.5875 13.1579 38.8889 13.1579C41.1903 13.1579 43.0556 11.3908 43.0556 9.21053C43.0556 7.03026 41.1903 5.26316 38.8889 5.26316Z" fill="#4E7AB5"/>
<path d="M8.33333 7.23684C7.7808 7.23684 7.25089 7.44478 6.86019 7.81492C6.46949 8.18506 6.25 8.68707 6.25 9.21053C6.25 9.73398 6.46949 10.236 6.86019 10.6061C7.25089 10.9763 7.7808 11.1842 8.33333 11.1842C8.88587 11.1842 9.41577 10.9763 9.80647 10.6061C10.1972 10.236 10.4167 9.73398 10.4167 9.21053C10.4167 8.68707 10.1972 8.18506 9.80647 7.81492C9.41577 7.44478 8.88587 7.23684 8.33333 7.23684Z" fill="#8BB7F0"/>
<path d="M8.33333 7.89474C9.09861 7.89474 9.72222 8.48553 9.72222 9.21053C9.72222 9.93553 9.09861 10.5263 8.33333 10.5263C7.56806 10.5263 6.94445 9.93553 6.94445 9.21053C6.94445 8.48553 7.56806 7.89474 8.33333 7.89474ZM8.33333 6.57895C6.79861 6.57895 5.55556 7.75658 5.55556 9.21053C5.55556 10.6645 6.79861 11.8421 8.33333 11.8421C9.86806 11.8421 11.1111 10.6645 11.1111 9.21053C11.1111 7.75658 9.86806 6.57895 8.33333 6.57895Z" fill="#4E7AB5"/>
<path d="M38.8889 33.5526C37.5996 33.5526 36.3632 34.0378 35.4516 34.9015C34.5399 35.7651 34.0278 36.9365 34.0278 38.1579C34.0278 39.3793 34.5399 40.5507 35.4516 41.4143C36.3632 42.278 37.5996 42.7632 38.8889 42.7632C40.1781 42.7632 41.4146 42.278 42.3262 41.4143C43.2378 40.5507 43.75 39.3793 43.75 38.1579C43.75 36.9365 43.2378 35.7651 42.3262 34.9015C41.4146 34.0378 40.1781 33.5526 38.8889 33.5526Z" fill="#8BB7F0"/>
<path d="M38.8889 34.2105C41.1861 34.2105 43.0556 35.9816 43.0556 38.1579C43.0556 40.3342 41.1861 42.1053 38.8889 42.1053C36.5917 42.1053 34.7222 40.3342 34.7222 38.1579C34.7222 35.9816 36.5917 34.2105 38.8889 34.2105ZM38.8889 32.8947C35.8208 32.8947 33.3333 35.2513 33.3333 38.1579C33.3333 41.0645 35.8208 43.4211 38.8889 43.4211C41.9569 43.4211 44.4444 41.0645 44.4444 38.1579C44.4444 35.2513 41.9569 32.8947 38.8889 32.8947Z" fill="#4E7AB5"/>
</svg>
