<svg width="50.000000" height="50.000000" viewBox="0 0 50 50" fill="none" xmlns="http://www.w3.org/2000/svg" xmlns:xlink="http://www.w3.org/1999/xlink">
	<desc>
			Created with Pixso.
	</desc>
	<defs/>
	<g opacity="0.000000">
		<rect id="Прямоугольник 1" width="50.000000" height="50.000000" fill="#C4C4C4" fill-opacity="1.000000"/>
	</g>
	<path id="path" d="M49.19 33L49.19 41C49.19 42.76 47.75 44.2 45.96 44.2L4.03 44.2C2.25 44.2 0.8 42.76 0.8 41L0.8 33L49.19 33Z" fill="#969FAA" fill-opacity="1.000000" fill-rule="nonzero"/>
	<path id="path" d="M28.22 36.2L45.96 36.2L45.96 41L28.22 41L28.22 36.2ZM20.16 36.2L25 36.2L25 41L20.16 41L20.16 36.2Z" fill="#E6E9ED" fill-opacity="1.000000" fill-rule="nonzero"/>
	<path id="path" d="M25 36.2L28.22 36.2L28.22 41L25 41L25 36.2Z" fill="#FFC729" fill-opacity="1.000000" fill-rule="nonzero"/>
	<path id="path" d="M49.19 9L49.19 33L0.8 33L0.8 9C0.8 7.23 2.25 5.79 4.03 5.79L45.96 5.79C47.75 5.79 49.19 7.23 49.19 9Z" fill="#69D6F4" fill-opacity="1.000000" fill-rule="nonzero"/>
	<path id="path" d="M25 9C30.79 9 35.48 13.65 35.48 19.4C35.48 25.14 30.79 29.8 25 29.8C19.2 29.8 14.51 25.14 14.51 19.4C14.51 13.65 19.2 9 25 9Z" fill="#E6E9ED" fill-opacity="1.000000" fill-rule="nonzero"/>
	<path id="path" d="M26.61 15.4L29.83 15.4L29.83 23.4L26.61 23.4L26.61 15.4ZM20.16 15.4L23.38 15.4L23.38 23.4L20.16 23.4L20.16 15.4Z" fill="#FF826E" fill-opacity="1.000000" fill-rule="nonzero"/>
	<path id="path" d="M4.03 36.2L8.87 36.2L8.87 41L4.03 41L4.03 36.2Z" fill="#CCD1D9" fill-opacity="1.000000" fill-rule="nonzero"/>
	<path id="path" d="M16.12 38.59L12.09 41L12.09 36.2L16.12 38.59Z" fill="#FCD770" fill-opacity="1.000000" fill-rule="nonzero"/>
	<path id="path" d="M45.96 5L4.03 5C1.8 5 0 6.79 0 9L0 41C0 43.2 1.8 45 4.03 45L45.96 45C48.19 45 50 43.2 50 41L50 9C50 6.79 48.19 5 45.96 5ZM4.03 6.6L45.96 6.6C47.3 6.6 48.38 7.67 48.38 9L48.38 32.2L1.61 32.2L1.61 9C1.61 7.67 2.69 6.6 4.03 6.6ZM45.96 43.4L4.03 43.4C2.69 43.4 1.61 42.32 1.61 41L1.61 33.8L48.38 33.8L48.38 41C48.38 42.32 47.3 43.4 45.96 43.4Z" fill="#000000" fill-opacity="1.000000" fill-rule="nonzero"/>
	<path id="path" d="M3.22 41.8L9.67 41.8L9.67 35.4L3.22 35.4L3.22 41.8ZM4.83 37L8.06 37L8.06 40.2L4.83 40.2L4.83 37ZM11.29 42.41L17.69 38.59L11.29 34.78L11.29 42.41ZM12.9 37.61L14.56 38.59L12.9 39.58L12.9 37.61ZM19.35 41.8L46.77 41.8L46.77 35.4L19.35 35.4L19.35 41.8ZM25.8 40.2L25.8 37L27.41 37L27.41 40.2L25.8 40.2ZM45.16 40.2L29.03 40.2L29.03 37L45.16 37L45.16 40.2ZM20.96 37L24.19 37L24.19 40.2L20.96 40.2L20.96 37ZM25 30.6C31.22 30.6 36.29 25.57 36.29 19.4C36.29 13.22 31.22 8.2 25 8.2C18.77 8.2 13.7 13.22 13.7 19.4C13.7 25.57 18.77 30.6 25 30.6ZM25 9.8C30.33 9.8 34.67 14.1 34.67 19.4C34.67 24.69 30.33 29 25 29C19.66 29 15.32 24.69 15.32 19.4C15.32 14.1 19.66 9.8 25 9.8Z" fill="#000000" fill-opacity="1.000000" fill-rule="nonzero"/>
	<path id="path" d="M30.64 14.6L25.8 14.6L25.8 24.2L30.64 24.2L30.64 14.6ZM29.03 22.6L27.41 22.6L27.41 16.2L29.03 16.2L29.03 22.6ZM24.19 14.6L19.35 14.6L19.35 24.2L24.19 24.2L24.19 14.6ZM22.58 22.6L20.96 22.6L20.96 16.2L22.58 16.2L22.58 22.6Z" fill="#000000" fill-opacity="1.000000" fill-rule="nonzero"/>
</svg>
