<svg width="50.000000" height="50.000000" viewBox="0 0 50 50" fill="none" xmlns="http://www.w3.org/2000/svg" xmlns:xlink="http://www.w3.org/1999/xlink">
	<desc>
			Created with Pixso.
	</desc>
	<defs/>
	<path id="path" d="M25 50C38.76 50 50 38.77 50 25C50 11.23 38.76 0 25 0C11.23 0 0 11.23 0 25C0 38.77 11.23 50 25 50Z" fill="#F34235" fill-opacity="1.000000" fill-rule="evenodd"/>
	<path id="path" d="M16.63 30.12L16.63 27.98L18.6 27.98C19.99 27.98 21.12 26.85 21.12 25.45C21.12 24.06 19.99 22.93 18.6 22.93L15.79 22.93C15.68 22.93 15.57 22.95 15.47 22.99C15.37 23.03 15.27 23.09 15.2 23.17C15.12 23.25 15.06 23.34 15.01 23.45C14.97 23.55 14.95 23.66 14.95 23.77L14.95 30.12C14.95 30.58 15.33 30.96 15.79 30.96C16.26 30.96 16.63 30.58 16.63 30.12ZM16.63 24.61L18.6 24.61C19.06 24.61 19.44 24.99 19.44 25.45C19.44 25.91 19.06 26.29 18.6 26.29L16.63 26.29L16.63 24.61ZM39.61 17.42L39.61 32.57C39.61 37.9 35.27 42.24 29.94 42.24L20.05 42.24C14.72 42.24 10.38 37.9 10.38 32.57C10.38 32.1 10.76 31.73 11.22 31.73C11.69 31.73 12.06 32.1 12.06 32.57C12.06 36.97 15.65 40.56 20.05 40.56L29.94 40.56C34.34 40.56 37.93 36.97 37.93 32.57L37.93 18.24L34.34 18.24C31.45 18.24 29.1 15.89 29.1 13L29.1 9.43L20.05 9.43C15.65 9.43 12.06 13.02 12.06 17.42L12.06 29.54C12.06 30 11.69 30.38 11.22 30.38C10.76 30.38 10.38 30 10.38 29.54L10.38 17.42C10.38 12.09 14.72 7.75 20.05 7.75L29.94 7.75C30.16 7.75 30.38 7.84 30.53 7.99L39.36 16.83C39.53 16.99 39.61 17.19 39.61 17.42ZM31.65 24.61L31.65 26.05L34.24 26.05C34.7 26.05 35.08 26.43 35.08 26.89C35.08 27.36 34.7 27.73 34.24 27.73L31.65 27.73L31.65 30.12C31.65 30.58 31.27 30.96 30.81 30.96C30.34 30.96 29.97 30.58 29.97 30.12L29.97 23.77C29.97 23.66 29.99 23.55 30.03 23.45C30.07 23.34 30.14 23.25 30.21 23.17C30.29 23.09 30.38 23.03 30.49 22.99C30.59 22.95 30.7 22.93 30.81 22.93L34.24 22.93C34.7 22.93 35.08 23.3 35.08 23.77C35.08 24.23 34.7 24.61 34.24 24.61L31.65 24.61ZM25.41 30.96C27.12 30.96 28.52 29.57 28.52 27.86L28.52 26.03C28.52 24.32 27.12 22.93 25.41 22.93L23.15 22.93C22.69 22.93 22.31 23.3 22.31 23.77L22.31 30.12C22.31 30.23 22.33 30.34 22.38 30.44C22.42 30.54 22.48 30.64 22.56 30.71C22.64 30.79 22.73 30.85 22.83 30.9C22.93 30.94 23.04 30.96 23.15 30.96L25.41 30.96ZM24 24.61L25.41 24.61C26.2 24.61 26.83 25.25 26.83 26.03L26.83 27.86C26.83 28.64 26.2 29.28 25.41 29.28L24 29.28L24 24.61Z" fill="#FFFFFF" fill-opacity="1.000000" fill-rule="nonzero"/>
</svg>
