<svg width="50.000000" height="50.000000" viewBox="0 0 50 50" fill="none" xmlns="http://www.w3.org/2000/svg" xmlns:xlink="http://www.w3.org/1999/xlink">
	<desc>
			Created with Pixso.
	</desc>
	<defs/>
	<path id="path" d="M47.98 10.67L47.85 8.14L45.29 7.82C45.09 7.21 44.81 6.65 44.46 6.12L45.82 3.98L43.9 2.28L41.85 3.82C41.28 3.53 40.67 3.32 40.03 3.19L39.45 0.73L36.85 0.86L36.53 3.36C35.9 3.55 35.32 3.82 34.78 4.17L32.58 2.84L30.84 4.72L32.42 6.71C32.12 7.28 31.9 7.87 31.77 8.49L29.26 9.06L29.39 11.59L31.95 11.91C32.14 12.52 32.42 13.09 32.78 13.62L31.41 15.76L33.34 17.45L35.38 15.91C35.96 16.2 36.57 16.42 37.2 16.54L37.79 19L40.38 18.87L40.71 16.37C41.33 16.18 41.91 15.91 42.46 15.56L44.65 16.89L46.39 15.01L44.81 13.02C45.11 12.46 45.33 11.86 45.46 11.24L47.98 10.67ZM38.8 13.38C36.81 13.48 35.12 11.98 35.02 10.04C34.92 8.11 36.45 6.45 38.44 6.35C40.42 6.26 42.12 7.75 42.22 9.69C42.32 11.63 40.79 13.28 38.8 13.38Z" fill="#7974E3" fill-opacity="1.000000" fill-rule="nonzero"/>
	<path id="path" d="M17.83 28.24L34.08 35.24L41.31 19.03L38.33 11.5L27.4 6.79L17.83 28.24Z" fill="#F0F0FF" fill-opacity="1.000000" fill-rule="nonzero"/>
	<path id="path" d="M37.31 19.03L30.72 33.79L34.08 35.24L41.31 19.03L39.44 14.29L37.31 19.03Z" fill="#E8E8FF" fill-opacity="1.000000" fill-rule="nonzero"/>
	<path id="path" d="M38.33 11.5L35.98 16.72L41.31 19.03L38.33 11.5Z" fill="#CFCFFF" fill-opacity="1.000000" fill-rule="nonzero"/>
	<path id="path" d="M33.24 26.51L46.09 26.51L46.09 39.08L33.24 39.08L33.24 26.51Z" fill="#96E1FF" fill-opacity="1.000000" fill-rule="nonzero"/>
	<path id="path" d="M49.24 35.79L46.09 39.08L46.09 26.51L49.24 23.21L49.24 35.79Z" fill="#FDF486" fill-opacity="1.000000" fill-rule="nonzero"/>
	<path id="path" d="M46.09 26.51L33.24 26.51L36.4 23.21L49.24 23.21L46.09 26.51Z" fill="#FD6DC3" fill-opacity="1.000000" fill-rule="nonzero"/>
	<path id="path" d="M37.94 47.83L39.43 46.37L38.22 44.67C38.49 44.22 38.69 43.75 38.82 43.25L40.88 42.89L40.87 40.82L38.8 40.45C38.67 39.94 38.47 39.47 38.2 39.02L39.39 37.33L37.89 35.86L36.18 37.03C35.72 36.77 35.23 36.57 34.72 36.44L34.34 34.41L32.23 34.4L31.87 36.43C31.36 36.56 30.88 36.75 30.42 37.01L28.7 35.83L27.21 37.29L28.42 38.99C28.15 39.43 27.95 39.91 27.82 40.41L25.76 40.77L25.77 42.84L27.83 43.21C27.97 43.72 28.17 44.19 28.44 44.64L27.25 46.33L28.74 47.8L30.46 46.63C30.92 46.89 31.4 47.09 31.92 47.22L32.3 49.25L34.4 49.26L34.77 47.23C35.28 47.1 35.76 46.91 36.22 46.64L37.94 47.83ZM31.45 43.66C30.41 42.64 30.41 40.99 31.44 39.97C32.47 38.96 34.15 38.96 35.19 39.98C36.24 41.01 36.24 42.66 35.21 43.67C34.18 44.69 32.5 44.68 31.45 43.66Z" fill="#7974E3" fill-opacity="1.000000" fill-rule="nonzero"/>
	<path id="path" d="M22.91 5.68C22.78 5.68 22.66 5.68 22.54 5.68C14.35 5.87 7.71 12.52 7.63 20.6C7.58 26.4 10.86 31.46 15.7 34.02L15.7 36.55C15.7 37.59 16.55 38.42 17.59 38.42L22.91 38.42L22.91 5.68Z" fill="#FDF486" fill-opacity="1.000000" fill-rule="nonzero"/>
	<path id="path" d="M22.91 38.42L17.59 38.42L17.59 42.55C17.59 44.4 19.12 45.91 21.01 45.91L22.91 45.91L22.91 38.42Z" fill="#CFCFFF" fill-opacity="1.000000" fill-rule="nonzero"/>
	<path id="path" d="M38.82 43.25L40.88 42.89L40.87 40.82L38.8 40.45C38.67 39.94 38.47 39.47 38.2 39.02L39.39 37.33L37.89 35.86L36.18 37.03C35.74 36.78 35.27 36.58 34.78 36.45C36.42 37.77 37.47 39.78 37.47 42.02C37.47 43.97 36.68 45.73 35.41 47.03C35.69 46.92 35.96 46.79 36.22 46.64L37.94 47.83L39.43 46.37L38.22 44.67C38.49 44.22 38.69 43.75 38.82 43.25Z" fill="#6B64E8" fill-opacity="1.000000" fill-rule="nonzero"/>
	<path id="path" d="M49.99 23.17C49.97 22.79 49.64 22.47 49.24 22.47L40.6 22.47L42 19.33C42.08 19.14 42.09 18.95 42.01 18.76L41.3 16.95C41.7 16.81 42.08 16.63 42.45 16.42L44.25 17.52C44.59 17.7 44.9 17.66 45.21 17.39L46.95 15.51C47.01 15.44 47.05 15.37 47.09 15.29C47.12 15.21 47.14 15.13 47.14 15.04C47.14 14.95 47.13 14.87 47.11 14.79C47.08 14.7 47.04 14.63 46.98 14.56L45.69 12.93C45.85 12.58 45.98 12.22 46.08 11.86L48.15 11.39C48.23 11.37 48.31 11.33 48.39 11.29C48.46 11.24 48.53 11.18 48.58 11.11C48.63 11.04 48.67 10.97 48.7 10.88C48.72 10.8 48.73 10.72 48.73 10.63L48.6 8.1C48.59 8.02 48.58 7.93 48.54 7.85C48.51 7.77 48.46 7.7 48.4 7.64C48.34 7.57 48.27 7.52 48.19 7.48C48.11 7.44 48.03 7.42 47.94 7.41L45.84 7.15C45.7 6.79 45.53 6.45 45.34 6.12L46.46 4.37C46.51 4.29 46.54 4.21 46.56 4.13C46.58 4.04 46.58 3.96 46.57 3.87C46.55 3.79 46.53 3.71 46.49 3.63C46.44 3.55 46.39 3.48 46.32 3.43L44.4 1.73C44.33 1.67 44.26 1.63 44.18 1.59C44.1 1.56 44.01 1.54 43.93 1.54C43.84 1.54 43.75 1.55 43.67 1.58C43.59 1.6 43.51 1.64 43.44 1.69L41.76 2.96C41.4 2.8 41.03 2.68 40.66 2.58L40.18 0.57C40.1 0.22 39.77 -0.02 39.41 0L36.82 0.12C36.73 0.13 36.64 0.15 36.56 0.18C36.48 0.22 36.41 0.26 36.34 0.32C36.28 0.38 36.23 0.45 36.19 0.52C36.15 0.6 36.12 0.68 36.11 0.77L35.84 2.81C35.47 2.95 35.12 3.12 34.78 3.31L32.98 2.21C32.9 2.17 32.82 2.14 32.74 2.12C32.65 2.1 32.57 2.1 32.48 2.11C32.39 2.12 32.31 2.15 32.23 2.19C32.16 2.23 32.09 2.28 32.03 2.34L30.29 4.22C30.23 4.29 30.18 4.36 30.15 4.44C30.11 4.52 30.1 4.6 30.09 4.69C30.09 4.78 30.1 4.86 30.13 4.95C30.15 5.03 30.2 5.1 30.25 5.17L31.54 6.8C31.42 7.07 31.31 7.35 31.22 7.63L27.71 6.12C27.27 5.98 26.94 6.1 26.72 6.5L23.73 13.19L23.73 1.72C23.73 0.77 22.23 0.77 22.23 1.72L22.23 4.96C17.08 5.17 12.33 7.84 9.48 12.15C8.97 12.93 10.18 13.8 10.74 12.96C13.31 9.07 17.59 6.65 22.23 6.43L22.23 37.68L17.59 37.68C16.96 37.68 16.45 37.18 16.45 36.55L16.45 34.02C16.45 33.89 16.41 33.76 16.34 33.64C16.27 33.53 16.17 33.44 16.05 33.37C11.27 30.84 8.33 25.95 8.39 20.6C8.4 19.2 8.62 17.83 9.04 16.5C9.33 15.58 7.9 15.14 7.61 16.06C7.14 17.53 6.9 19.04 6.88 20.59C6.83 26.34 9.91 31.61 14.95 34.46L14.95 36.55C14.95 37.73 15.75 38.73 16.84 39.05L16.84 42.55C16.84 44.81 18.71 46.65 21.01 46.65L22.23 46.65L22.23 49.26C22.23 50.21 23.73 50.21 23.73 49.26L23.73 31.59L31.38 34.89L31.21 35.85C30.96 35.94 30.71 36.04 30.47 36.15L29.12 35.23C29.05 35.18 28.97 35.14 28.89 35.12C28.8 35.1 28.72 35.09 28.63 35.1C28.54 35.1 28.46 35.13 28.38 35.16C28.3 35.2 28.23 35.25 28.16 35.31L26.68 36.77C26.62 36.83 26.57 36.9 26.53 36.98C26.49 37.06 26.47 37.14 26.46 37.23C26.46 37.31 26.46 37.4 26.49 37.48C26.51 37.57 26.54 37.64 26.6 37.71L27.54 39.04C27.42 39.27 27.32 39.52 27.23 39.76L25.63 40.04C25.54 40.06 25.46 40.09 25.38 40.13C25.3 40.17 25.24 40.23 25.18 40.3C25.12 40.36 25.08 40.44 25.05 40.52C25.02 40.6 25.01 40.69 25.01 40.77L25.01 42.84C25.01 42.93 25.03 43.01 25.06 43.09C25.09 43.17 25.13 43.25 25.19 43.31C25.25 43.38 25.31 43.43 25.39 43.48C25.46 43.52 25.54 43.55 25.63 43.57L27.25 43.86C27.34 44.11 27.44 44.35 27.56 44.59L26.63 45.91C26.58 45.98 26.54 46.06 26.52 46.14C26.5 46.22 26.49 46.31 26.5 46.39C26.51 46.48 26.53 46.56 26.57 46.64C26.61 46.72 26.66 46.79 26.72 46.85L28.21 48.32C28.28 48.38 28.35 48.43 28.43 48.47C28.51 48.5 28.59 48.52 28.68 48.53C28.77 48.54 28.85 48.53 28.94 48.51C29.02 48.49 29.1 48.45 29.17 48.4L30.51 47.49C30.75 47.61 31 47.71 31.26 47.8L31.56 49.38C31.57 49.47 31.6 49.55 31.65 49.62C31.69 49.7 31.75 49.76 31.81 49.82C31.88 49.87 31.96 49.91 32.04 49.94C32.12 49.97 32.21 49.99 32.29 49.99L34.4 50C34.49 50 34.58 49.98 34.66 49.95C34.74 49.92 34.82 49.88 34.89 49.82C34.95 49.77 35.01 49.7 35.05 49.63C35.1 49.55 35.13 49.47 35.14 49.38L35.43 47.81C35.68 47.72 35.92 47.62 36.16 47.51L37.51 48.43C37.59 48.48 37.66 48.52 37.75 48.54C37.83 48.56 37.92 48.57 38.01 48.56C38.1 48.55 38.18 48.53 38.26 48.49C38.34 48.46 38.41 48.41 38.47 48.35L39.96 46.89C40.02 46.83 40.07 46.76 40.11 46.68C40.14 46.6 40.17 46.52 40.17 46.43C40.18 46.34 40.17 46.26 40.15 46.18C40.13 46.09 40.09 46.01 40.04 45.94L39.1 44.62C39.22 44.38 39.32 44.14 39.4 43.89L41.01 43.61C41.1 43.6 41.18 43.57 41.26 43.53C41.33 43.48 41.4 43.43 41.46 43.36C41.51 43.29 41.56 43.22 41.59 43.14C41.62 43.06 41.63 42.97 41.63 42.88L41.62 40.81C41.62 40.73 41.61 40.64 41.58 40.56C41.55 40.48 41.5 40.41 41.45 40.34C41.39 40.28 41.33 40.22 41.25 40.18C41.17 40.14 41.09 40.11 41.01 40.09L39.49 39.82C41.64 39.81 43.82 39.81 45.94 39.81C46.19 39.85 46.42 39.78 46.63 39.59L49.79 36.29C49.93 36.15 50 35.98 50 35.79L50 23.21C50 23.2 49.99 23.18 49.99 23.17ZM47.51 23.95L45.79 25.74L35.02 25.74L36.73 23.95L47.51 23.95ZM39.03 11.23C38.95 11.04 38.82 10.91 38.63 10.82L35.78 9.59C35.91 8.25 37.05 7.16 38.47 7.09C40.05 7.02 41.39 8.19 41.47 9.72C41.53 10.98 40.72 12.11 39.53 12.5L39.03 11.23ZM38.28 13.42L39.1 15.47L39.95 17.63L36.97 16.34L38.28 13.42ZM33.02 6.26L31.82 4.76L32.72 3.79L34.38 4.8C34.51 4.88 34.64 4.91 34.79 4.91C34.93 4.91 35.07 4.87 35.19 4.79C35.67 4.48 36.19 4.24 36.75 4.07C36.89 4.02 37.01 3.95 37.1 3.84C37.2 3.73 37.25 3.6 37.27 3.46L37.52 1.57L38.86 1.5L39.3 3.36C39.33 3.5 39.4 3.62 39.51 3.72C39.61 3.82 39.74 3.88 39.88 3.91C40.45 4.03 40.99 4.21 41.51 4.48C41.64 4.54 41.77 4.57 41.92 4.56C42.06 4.54 42.2 4.49 42.31 4.41L43.86 3.24L44.85 4.11L43.82 5.72C43.74 5.85 43.7 5.98 43.7 6.13C43.71 6.27 43.75 6.4 43.83 6.52C44.15 7 44.4 7.5 44.57 8.04C44.61 8.18 44.69 8.3 44.8 8.39C44.92 8.48 45.05 8.54 45.19 8.55L47.13 8.79L47.2 10.09L45.29 10.52C45.15 10.55 45.03 10.62 44.92 10.72C44.82 10.83 44.76 10.95 44.73 11.09C44.61 11.64 44.42 12.17 44.15 12.67C44.08 12.8 44.05 12.94 44.06 13.08C44.08 13.23 44.13 13.36 44.22 13.47L45.41 14.98L44.51 15.94L42.85 14.93C42.73 14.86 42.59 14.82 42.45 14.82C42.3 14.82 42.17 14.86 42.05 14.94C41.64 15.2 41.21 15.41 40.75 15.58L40.07 13.87C41.86 13.25 43.06 11.55 42.97 9.65C42.85 7.31 40.8 5.5 38.4 5.62C36.39 5.72 34.76 7.14 34.36 8.98L32.61 8.23C32.73 7.82 32.89 7.43 33.09 7.06C33.16 6.93 33.18 6.79 33.17 6.65C33.16 6.5 33.11 6.37 33.02 6.26ZM21.01 45.17C19.54 45.17 18.35 43.99 18.35 42.55L18.35 39.16L22.23 39.16L22.23 45.17L21.01 45.17ZM23.73 16.87L27.79 7.77L37.34 11.88L35.29 16.42C35.15 16.85 35.28 17.17 35.68 17.39L40.33 19.41L38.96 22.47L36.4 22.47C36.19 22.47 36 22.55 35.85 22.7L32.7 26C32.54 26.16 32.46 26.59 32.48 26.83L32.48 33.66L32.28 33.66L23.73 29.98L23.73 16.87ZM40.13 42.27L38.69 42.52C38.54 42.54 38.41 42.61 38.31 42.7C38.2 42.8 38.12 42.92 38.09 43.06C37.98 43.5 37.8 43.91 37.57 44.3C37.5 44.42 37.47 44.56 37.47 44.7C37.48 44.84 37.52 44.98 37.61 45.09L38.45 46.28L37.86 46.87L36.64 46.04C36.52 45.96 36.39 45.91 36.24 45.91C36.1 45.9 35.96 45.93 35.83 46.01C35.44 46.23 35.02 46.4 34.58 46.51C34.44 46.55 34.31 46.62 34.21 46.73C34.11 46.83 34.05 46.96 34.03 47.1L33.77 48.52L32.92 48.51L32.66 47.09C32.63 46.95 32.57 46.82 32.47 46.72C32.37 46.61 32.25 46.54 32.11 46.51C31.66 46.39 31.24 46.22 30.84 45.99C30.72 45.92 30.58 45.88 30.43 45.89C30.29 45.89 30.15 45.94 30.03 46.02L28.83 46.84L28.22 46.24L29.06 45.06C29.14 44.94 29.18 44.81 29.19 44.67C29.2 44.52 29.16 44.39 29.09 44.26C28.85 43.87 28.68 43.46 28.56 43.02C28.52 42.89 28.45 42.77 28.34 42.67C28.24 42.57 28.11 42.51 27.97 42.48L26.51 42.22L26.51 41.39L27.95 41.14C28.1 41.11 28.22 41.05 28.33 40.95C28.44 40.85 28.51 40.74 28.55 40.59C28.66 40.16 28.83 39.75 29.06 39.36C29.14 39.24 29.17 39.1 29.17 38.96C29.16 38.81 29.12 38.68 29.03 38.56L28.19 37.38L28.78 36.79L29.99 37.62C30.11 37.7 30.25 37.75 30.39 37.75C30.54 37.76 30.68 37.72 30.8 37.65C31.2 37.42 31.61 37.25 32.06 37.14C32.2 37.11 32.32 37.04 32.42 36.93C32.52 36.82 32.59 36.7 32.61 36.56L32.86 35.14L33.71 35.14L33.98 36.57C34.01 36.71 34.07 36.83 34.17 36.94C34.27 37.04 34.39 37.12 34.53 37.15C34.98 37.27 35.4 37.44 35.79 37.67C35.92 37.74 36.06 37.78 36.2 37.77C36.35 37.76 36.48 37.72 36.6 37.64L37.81 36.82L38.41 37.42L37.58 38.6C37.5 38.72 37.45 38.85 37.45 38.99C37.44 39.13 37.48 39.27 37.55 39.39C37.79 39.78 37.96 40.2 38.08 40.63C38.11 40.77 38.19 40.89 38.29 40.99C38.4 41.09 38.53 41.15 38.67 41.17L40.12 41.43L40.13 42.27ZM46.84 37.22C46.84 36.49 46.84 34.7 46.84 34.7C46.84 33.74 45.33 33.74 45.33 34.7L45.33 38.33C43.44 38.33 41.5 38.33 39.59 38.34L40.01 37.75C40.06 37.68 40.09 37.6 40.12 37.52C40.14 37.43 40.14 37.35 40.14 37.26C40.13 37.18 40.11 37.09 40.07 37.02C40.03 36.94 39.98 36.87 39.92 36.81L38.42 35.34C38.36 35.28 38.29 35.23 38.21 35.19C38.13 35.16 38.05 35.13 37.96 35.13C37.87 35.12 37.79 35.13 37.7 35.15C37.62 35.17 37.54 35.21 37.46 35.25L36.13 36.17C35.88 36.05 35.63 35.95 35.38 35.86L35.08 34.27C34.99 33.77 34.44 33.6 33.99 33.67C33.98 32.85 34.07 28.56 33.99 27.25L45.33 27.25L45.33 30.84C45.33 31.8 46.84 31.8 46.84 30.84C46.84 30.84 46.84 28.07 46.84 26.8L48.49 25.07L48.49 35.49L46.84 37.22Z" fill="#060606" fill-opacity="1.000000" fill-rule="nonzero"/>
	<path id="path" d="M33.32 38.48L33.3 38.48C32.4 38.48 31.55 38.82 30.91 39.45C30.27 40.08 29.91 40.92 29.92 41.82C29.92 42.71 30.28 43.55 30.92 44.18C31.57 44.82 32.42 45.17 33.33 45.17L33.34 45.17C34.25 45.17 35.1 44.82 35.74 44.2C36.38 43.56 36.74 42.72 36.73 41.83C36.73 40.94 36.37 40.09 35.73 39.46C35.08 38.83 34.22 38.48 33.32 38.48ZM34.68 43.15C34.32 43.5 33.84 43.7 33.34 43.69C32.83 43.69 32.35 43.5 31.99 43.14C31.62 42.78 31.42 42.31 31.42 41.81C31.42 41.31 31.61 40.85 31.97 40.49C32.34 40.13 32.79 39.95 33.31 39.95C33.82 39.95 34.3 40.15 34.66 40.51C35.03 40.86 35.23 41.33 35.23 41.83C35.23 42.33 35.04 42.8 34.68 43.15ZM9.74 8.49C10.37 8.49 10.71 7.67 10.27 7.23L7.71 4.71C7.02 4.04 5.96 5.08 6.64 5.76L9.2 8.27C9.35 8.42 9.53 8.49 9.74 8.49ZM4.35 20.12L0.72 20.12C-0.25 20.12 -0.25 21.6 0.72 21.6L4.35 21.6C5.32 21.6 5.32 20.12 4.35 20.12ZM9.43 33.35L6.87 35.87C6.19 36.54 7.25 37.58 7.93 36.91L10.5 34.39C11.18 33.72 10.12 32.67 9.43 33.35Z" fill="#060606" fill-opacity="1.000000" fill-rule="nonzero"/>
</svg>
