<svg width="50.000000" height="50.000595" viewBox="0 0 50 50.0006" fill="none" xmlns="http://www.w3.org/2000/svg" xmlns:xlink="http://www.w3.org/1999/xlink">
	<desc>
			Created with Pixso.
	</desc>
	<defs/>
	<path id="path" d="M42.24 5.17C47.41 5.17 50 8.26 50 12.07L50 43.1C50 44.01 49.82 44.89 49.47 45.74C49.12 46.58 48.62 47.33 47.98 47.98C47.33 48.62 46.58 49.12 45.74 49.47C44.89 49.82 44.01 50 43.1 50L6.89 50C5.98 50 5.1 49.82 4.25 49.47C3.41 49.12 2.66 48.62 2.01 47.98C1.37 47.33 0.87 46.58 0.52 45.74C0.17 44.89 0 44.01 0 43.1L0 12.07C0 11.15 0.17 10.27 0.52 9.43C0.87 8.58 1.37 7.84 2.01 7.19C2.66 6.54 3.41 6.05 4.25 5.7C5.1 5.35 5.98 5.17 6.89 5.17L42.24 5.17Z" fill="#ECF0F1" fill-opacity="1.000000" fill-rule="nonzero"/>
	<path id="path" d="M45.66 23.85C45.58 23.42 45.36 23.07 45.03 22.8C44.69 22.53 44.3 22.4 43.87 22.41L43.1 22.41C42.62 22.41 42.22 22.24 41.88 21.91C41.54 21.57 41.37 21.16 41.37 20.69L41.37 12.36C41.38 10.56 40.89 8.9 39.89 7.39C38.9 5.88 37.57 4.77 35.9 4.07C35.53 3.93 35.35 3.66 35.34 3.26L35.34 2.73C35.36 2.03 35.13 1.41 34.66 0.88C34.18 0.36 33.6 0.06 32.89 0C32.15 -0.04 31.51 0.2 30.97 0.71C30.43 1.22 30.17 1.84 30.17 2.59L30.17 3.25C30.16 3.65 29.97 3.92 29.6 4.06C27.95 4.7 26.63 5.76 25.63 7.22C24.63 8.68 24.13 10.3 24.13 12.07L24.13 20.69C24.13 21.16 23.96 21.57 23.63 21.91C23.29 22.24 22.88 22.41 22.41 22.41L21.64 22.41C21.21 22.4 20.82 22.53 20.48 22.8C20.14 23.07 19.93 23.42 19.85 23.85C19.76 24.37 19.88 24.84 20.23 25.25C20.57 25.66 21.01 25.86 21.55 25.86L43.96 25.86C44.49 25.86 44.93 25.66 45.28 25.25C45.62 24.84 45.75 24.37 45.66 23.85Z" fill="#F0C419" fill-opacity="1.000000" fill-rule="nonzero"/>
	<path id="path" d="M27.58 12.93C27.01 12.93 26.72 12.64 26.72 12.07C26.72 10.83 27.06 9.7 27.76 8.67C28.46 7.65 29.39 6.91 30.54 6.46C30.77 6.37 30.99 6.37 31.22 6.46C31.44 6.56 31.6 6.72 31.68 6.94C31.77 7.17 31.77 7.39 31.67 7.61C31.57 7.83 31.4 7.99 31.18 8.07C30.35 8.39 29.69 8.91 29.19 9.64C28.69 10.37 28.44 11.18 28.44 12.07C28.44 12.64 28.16 12.93 27.58 12.93Z" fill="#F3D55B" fill-opacity="1.000000" fill-rule="nonzero"/>
	<path id="path" d="M35.34 25.86L35.34 26.72C35.34 27.44 35.09 28.05 34.58 28.55C34.08 29.06 33.47 29.31 32.75 29.31C32.04 29.31 31.43 29.06 30.92 28.55C30.42 28.05 30.17 27.44 30.17 26.72L30.17 25.86L35.34 25.86Z" fill="#F29C1F" fill-opacity="1.000000" fill-rule="nonzero"/>
	<ellipse id="circle" cx="8.620667" cy="13.796402" rx="1.724138" ry="1.724009" fill="#4482C3" fill-opacity="1.000000"/>
	<ellipse id="circle" cx="8.620667" cy="27.588470" rx="1.724138" ry="1.724009" fill="#E64C3C" fill-opacity="1.000000"/>
	<ellipse id="circle" cx="8.620667" cy="41.380547" rx="1.724138" ry="1.724009" fill="#F29C1F" fill-opacity="1.000000"/>
	<path id="path" d="M20.68 12.93L13.79 12.93C13.21 12.93 12.93 12.64 12.93 12.07C12.93 11.49 13.21 11.21 13.79 11.21L20.68 11.21C21.26 11.21 21.55 11.49 21.55 12.07C21.55 12.64 21.26 12.93 20.68 12.93ZM20.68 16.38L13.79 16.38C13.21 16.38 12.93 16.09 12.93 15.52C12.93 14.94 13.21 14.65 13.79 14.65L20.68 14.65C21.26 14.65 21.55 14.94 21.55 15.52C21.55 16.09 21.26 16.38 20.68 16.38ZM16.37 26.72L13.79 26.72C13.21 26.72 12.93 26.43 12.93 25.86C12.93 25.28 13.21 25 13.79 25L16.37 25C16.95 25 17.24 25.28 17.24 25.86C17.24 26.43 16.95 26.72 16.37 26.72ZM25 30.17L13.79 30.17C13.21 30.17 12.93 29.88 12.93 29.31C12.93 28.73 13.21 28.45 13.79 28.45L25 28.45C25.57 28.45 25.86 28.73 25.86 29.31C25.86 29.88 25.57 30.17 25 30.17ZM43.96 40.51L13.79 40.51C13.21 40.51 12.93 40.23 12.93 39.65C12.93 39.08 13.21 38.79 13.79 38.79L43.96 38.79C44.54 38.79 44.82 39.08 44.82 39.65C44.82 40.23 44.54 40.51 43.96 40.51ZM43.96 43.96L13.79 43.96C13.21 43.96 12.93 43.67 12.93 43.1C12.93 42.52 13.21 42.24 13.79 42.24L43.96 42.24C44.54 42.24 44.82 42.52 44.82 43.1C44.82 43.67 44.54 43.96 43.96 43.96Z" fill="#547580" fill-opacity="1.000000" fill-rule="nonzero"/>
</svg>
