<svg width="50.000000" height="50.000000" viewBox="0 0 50 50" fill="none" xmlns="http://www.w3.org/2000/svg" xmlns:xlink="http://www.w3.org/1999/xlink">
	<desc>
			Created with Pixso.
	</desc>
	<defs/>
	<g opacity="0.000000">
		<rect id="Прямоугольник 36" width="50.000000" height="50.000000" fill="#C4C4C4" fill-opacity="1.000000"/>
	</g>
	<path id="path" d="M40.8 21.52L40.77 31.44L26.54 39.28L0.54 25.05C0.17 24.85 0 24.59 0 24.34L0.02 14.42C0.02 14.17 0.19 13.91 0.55 13.72L12.21 7.29C12.92 6.9 14.09 6.9 14.8 7.29L40.8 21.52Z" fill="#CC104A" fill-opacity="1.000000" fill-rule="nonzero"/>
	<path id="path" d="M26.56 29.37L26.53 39.28L0.53 25.05C0.17 24.85 -0.01 24.59 0 24.33L0.02 14.42C0.02 14.68 0.2 14.94 0.56 15.14L26.56 29.37Z" fill="#E93565" fill-opacity="1.000000" fill-rule="nonzero"/>
	<path id="path" d="M40.8 21.52L40.77 31.43L26.53 39.28L26.56 29.37L40.8 21.52Z" fill="#CC104A" fill-opacity="1.000000" fill-rule="nonzero"/>
	<path id="path" d="M40.8 21.52L26.56 29.37L0.56 15.13C-0.16 14.74 -0.16 14.11 0.55 13.72L12.21 7.29C12.93 6.9 14.08 6.9 14.8 7.29L40.8 21.52Z" fill="#F45170" fill-opacity="1.000000" fill-rule="nonzero"/>
	<path id="path" d="M42.97 31.78L31.02 38.33L27.78 36.54L27.76 31.1L39.71 24.56L42.96 26.35L42.97 31.78Z" fill="#CC104A" fill-opacity="1.000000" fill-rule="nonzero"/>
	<path id="path" d="M31.02 38.33L27.78 36.54L27.76 31.1L31 32.89L31.02 38.33Z" fill="#E93565" fill-opacity="1.000000" fill-rule="nonzero"/>
	<path id="path" d="M31.01 32.89L27.76 31.1L39.71 24.56L42.96 26.35L31.01 32.89Z" fill="#F45170" fill-opacity="1.000000" fill-rule="nonzero"/>
	<path id="path" d="M42.96 26.35L42.98 31.78L31.02 38.33L31 32.89L42.96 26.35Z" fill="#CC104A" fill-opacity="1.000000" fill-rule="nonzero"/>
	<path id="path" d="M50 32.79L49.98 36.7L40.38 42L40.39 38.08L50 32.79Z" fill="#D4DAEA" fill-opacity="1.000000" fill-rule="nonzero"/>
	<path id="path" d="M40.39 38.08L40.38 42L31.9 37.35L31.91 33.44C35.79 34.44 39.43 35.56 40.39 38.08Z" fill="#F1F6FA" fill-opacity="1.000000" fill-rule="nonzero"/>
	<path id="path" d="M49.99 32.79L40.39 38.08L31.91 33.44L41.52 28.15L49.99 32.79Z" fill="#E3E7F0" fill-opacity="1.000000" fill-rule="nonzero"/>
	<path id="path" d="M49.59 36.49L49.6 33.44L46.81 34.97L49.59 36.49Z" fill="#B0B8CF" fill-opacity="1.000000" fill-rule="nonzero"/>
	<path id="path" d="M40.77 41.35L49.59 36.49L46.81 34.97L40.78 38.29L40.77 41.35Z" fill="#EDEEF2" fill-opacity="1.000000" fill-rule="nonzero"/>
	<path id="path" d="M40.77 40.3L40.78 38.29L47.54 34.59L49.36 35.59L40.77 40.3Z" fill="#4C5C75" fill-opacity="1.000000" fill-rule="nonzero"/>
	<path id="path" d="M49.36 35.59L49.37 36.37L40.77 41.07L40.77 40.3L49.36 35.59Z" fill="#1D2943" fill-opacity="1.000000" fill-rule="nonzero"/>
	<path id="path" d="M41.93 29.33L41.93 29.72L43.8 30.75L44.16 30.56L41.93 29.33Z" fill="#F1F6FA" fill-opacity="1.000000" fill-rule="nonzero"/>
	<path id="path" d="M39.7 30.56L40.05 30.75L41.93 29.72L41.93 29.33L39.7 30.56Z" fill="#D4DAEA" fill-opacity="1.000000" fill-rule="nonzero"/>
	<path id="path" d="M36.88 32.1L36.88 32.49L38.74 33.52L39.1 33.33L36.88 32.1Z" fill="#F1F6FA" fill-opacity="1.000000" fill-rule="nonzero"/>
	<path id="path" d="M34.64 33.33L34.99 33.52L36.88 32.49L36.88 32.1L34.64 33.33Z" fill="#D4DAEA" fill-opacity="1.000000" fill-rule="nonzero"/>
	<path id="path" d="M43.8 30.75L41.93 29.72L40.82 30.33L42.68 31.36L43.8 30.75Z" fill="#1D2943" fill-opacity="1.000000" fill-rule="nonzero"/>
	<path id="path" d="M42.68 31.36L40.82 30.33L40.05 30.75L41.92 31.78L42.68 31.36Z" fill="#FEBC1F" fill-opacity="1.000000" fill-rule="nonzero"/>
	<path id="path" d="M35.76 33.1L37.63 34.13L38.74 33.52L36.88 32.49L35.76 33.1Z" fill="#1D2943" fill-opacity="1.000000" fill-rule="nonzero"/>
	<path id="path" d="M37.63 34.13L36.86 34.55L34.99 33.52L35.76 33.1L37.63 34.13Z" fill="#FEBC1F" fill-opacity="1.000000" fill-rule="nonzero"/>
	<path id="path" d="M13.73 12.08L13.5 12.21L10.39 13.92C9.73 14.28 8.66 14.28 8 13.92L7.17 13.46L6.94 13.34C6.27 12.97 6.27 12.38 6.93 12.02L10.27 10.18C10.93 9.82 12 9.82 12.66 10.18L13.72 10.76C14.39 11.12 14.39 11.72 13.73 12.08Z" fill="#FE90A9" fill-opacity="1.000000" fill-rule="nonzero"/>
	<path id="path" d="M13.5 12.21L10.39 13.92C9.73 14.28 8.66 14.28 8 13.92L7.17 13.46L10.27 11.75C10.93 11.39 12 11.39 12.66 11.75L13.5 12.21Z" fill="#CC104A" fill-opacity="1.000000" fill-rule="nonzero"/>
	<path id="path" d="M27.35 23.34L28.42 22.75L22.89 19.73L21.96 20.71C21.6 21.1 21.73 21.56 22.29 21.87L23.11 22.31L23.6 22.04L25.36 23L23.61 23.96L21.86 22.99L22.36 22.73L21.54 22.27C20.66 21.79 20.44 21.06 21.01 20.45L22.11 19.29L18.1 17.1C17.52 17.25 16.79 17.19 16.3 16.92C15.68 16.58 15.68 16.04 16.3 15.7C16.91 15.36 17.91 15.36 18.53 15.7C19.02 15.96 19.12 16.36 18.85 16.68L20.42 17.54L22.53 16.94C23.64 16.62 24.97 16.74 25.86 17.23L26.69 17.68C27.16 17.58 27.72 17.63 28.11 17.85C28.37 17.99 28.5 18.17 28.5 18.36C28.5 18.54 28.38 18.73 28.12 18.88C27.61 19.15 26.76 19.15 26.25 18.88C25.98 18.73 25.86 18.54 25.86 18.36C25.86 18.26 25.89 18.17 25.95 18.1L25.12 17.64C24.56 17.34 23.71 17.26 23.03 17.46L21.2 17.98L29.17 22.33L30.24 21.74L31.58 24.06L27.35 23.34ZM11.21 20.15C10.42 20.15 9.72 20.44 9.21 20.93C8.66 21.45 8.38 22.08 8.39 22.83C8.39 22.09 8.11 21.46 7.56 20.93C7.01 20.41 6.34 20.15 5.56 20.15C6.34 20.15 7.05 19.84 7.57 19.37C8.11 18.84 8.38 18.2 8.39 17.47C8.39 18.2 8.7 18.88 9.21 19.37C9.72 19.84 10.42 20.15 11.21 20.15Z" fill="#FFFFFF" fill-opacity="1.000000" fill-rule="nonzero"/>
</svg>
