<svg width="50.000000" height="50.000000" viewBox="0 0 50 50" fill="none" xmlns="http://www.w3.org/2000/svg" xmlns:xlink="http://www.w3.org/1999/xlink">
	<desc>
			Created with Pixso.
	</desc>
	<defs/>
	<g opacity="0.000000">
		<rect id="Прямоугольник 72" width="50.000000" height="50.000000" fill="#C4C4C4" fill-opacity="1.000000"/>
	</g>
	<path id="path" d="M36.95 49.99L13.04 49.99C12.43 49.99 12.07 49.28 12.39 48.74C15.07 44.34 19.71 41.43 24.99 41.43C30.28 41.43 34.92 44.34 37.59 48.74C37.92 49.28 37.55 49.99 36.95 49.99Z" fill="#60B7FF" fill-opacity="1.000000" fill-rule="nonzero"/>
	<path id="path" d="M28.54 41.88C24.31 42.97 20.78 45.98 18.8 50L13.04 50C12.43 50 12.07 49.28 12.4 48.74C15.07 44.34 19.71 41.43 24.99 41.43C26.19 41.43 27.38 41.58 28.54 41.88Z" fill="#26A6FE" fill-opacity="1.000000" fill-rule="nonzero"/>
	<path id="path" d="M40 25.16C40 27.58 38.46 29.6 36.37 30.19C35.8 34.83 32.8 38.66 28.77 40.16L28.77 41.23C28.77 43.47 27.05 45.29 24.93 45.25C22.86 45.22 21.22 43.37 21.22 41.16L21.22 40.16C17.19 38.66 14.19 34.83 13.62 30.19C12.58 29.9 11.67 29.24 11.03 28.36C10.38 27.48 10 26.37 10 25.16C10 23.3 11.41 21.79 13.16 21.79L13.53 21.79L13.53 18.37C13.53 11.61 18.66 6.14 25 6.14C31.33 6.14 36.46 11.61 36.46 18.37L36.46 21.79L36.83 21.79C37.7 21.79 38.49 22.17 39.07 22.78C39.64 23.39 40 24.23 40 25.16Z" fill="#FFDFCF" fill-opacity="1.000000" fill-rule="nonzero"/>
	<path id="path" d="M28.91 40.11C28.86 40.12 28.82 40.14 28.77 40.16L28.77 41.23C28.77 43.47 27.05 45.29 24.93 45.25C22.86 45.22 21.22 43.37 21.22 41.16L21.22 40.16C17.19 38.66 14.19 34.84 13.62 30.19C12.58 29.9 11.67 29.24 11.03 28.36C10.38 27.48 10 26.37 10 25.16C10 23.3 11.41 21.79 13.16 21.79L13.53 21.79L13.53 18.37C13.53 11.61 18.66 6.14 25 6.14C25.86 6.14 26.69 6.24 27.5 6.43C22.64 7.61 19.02 12.25 19.02 17.79L19.02 28.5C19.02 34.57 23.36 39.55 28.91 40.11Z" fill="#FFCEBF" fill-opacity="1.000000" fill-rule="nonzero"/>
	<path id="path" d="M19.79 29.34C18.78 29.34 17.77 28.93 16.99 28.1C16.93 28.03 16.88 27.95 16.84 27.86C16.81 27.77 16.79 27.67 16.79 27.57C16.79 27.47 16.81 27.37 16.84 27.28C16.88 27.19 16.93 27.11 16.99 27.04C17.06 26.97 17.14 26.91 17.22 26.87C17.31 26.83 17.4 26.82 17.49 26.82C17.59 26.82 17.68 26.83 17.77 26.87C17.85 26.91 17.93 26.97 17.99 27.04C18.99 28.09 20.6 28.09 21.59 27.04C21.86 26.74 22.31 26.74 22.59 27.04C22.86 27.33 22.86 27.81 22.59 28.1C21.82 28.93 20.8 29.34 19.79 29.34ZM30.2 29.34C29.14 29.34 28.15 28.9 27.4 28.1C27.34 28.03 27.29 27.95 27.25 27.86C27.22 27.77 27.2 27.67 27.2 27.57C27.2 27.47 27.22 27.37 27.25 27.28C27.29 27.19 27.34 27.11 27.4 27.04C27.47 26.97 27.55 26.91 27.63 26.87C27.72 26.83 27.81 26.82 27.9 26.82C28 26.82 28.09 26.83 28.18 26.87C28.26 26.91 28.34 26.97 28.4 27.04C28.88 27.55 29.52 27.83 30.2 27.83C30.88 27.83 31.52 27.55 32 27.04C32.06 26.97 32.14 26.91 32.23 26.87C32.31 26.83 32.4 26.81 32.5 26.81C32.59 26.81 32.68 26.83 32.77 26.87C32.85 26.91 32.93 26.97 33 27.04C33.06 27.11 33.11 27.19 33.15 27.28C33.19 27.37 33.2 27.47 33.2 27.57C33.2 27.67 33.19 27.77 33.15 27.86C33.11 27.95 33.06 28.03 33 28.1C32.25 28.9 31.26 29.34 30.2 29.34Z" fill="#FFA78F" fill-opacity="1.000000" fill-rule="nonzero"/>
	<path id="path" d="M25.74 35.15L24.25 35.15C24.16 35.15 24.07 35.13 23.98 35.09C23.89 35.05 23.82 35 23.75 34.93C23.68 34.86 23.63 34.78 23.6 34.68C23.56 34.59 23.54 34.5 23.54 34.4C23.54 34.3 23.56 34.2 23.6 34.11C23.63 34.01 23.68 33.93 23.75 33.86C23.82 33.79 23.89 33.74 23.98 33.7C24.07 33.66 24.16 33.64 24.25 33.64L25.74 33.64C25.83 33.64 25.92 33.66 26.01 33.7C26.1 33.74 26.17 33.79 26.24 33.86C26.31 33.93 26.36 34.01 26.39 34.11C26.43 34.2 26.45 34.3 26.45 34.4C26.45 34.5 26.43 34.59 26.39 34.68C26.36 34.78 26.31 34.86 26.24 34.93C26.17 35 26.1 35.05 26.01 35.09C25.92 35.13 25.83 35.15 25.74 35.15Z" fill="#FE93BB" fill-opacity="1.000000" fill-rule="nonzero"/>
	<path id="path" d="M36.74 27.67C36.36 27.67 36.05 27.34 36.03 26.94C36.03 26.88 36 25.47 36.99 24.41C37.06 24.34 37.14 24.29 37.22 24.25C37.31 24.21 37.4 24.19 37.49 24.19C37.59 24.19 37.68 24.21 37.76 24.25C37.85 24.29 37.93 24.34 37.99 24.41C38.06 24.48 38.11 24.56 38.15 24.66C38.18 24.75 38.2 24.84 38.2 24.95C38.2 25.04 38.18 25.14 38.15 25.23C38.11 25.33 38.06 25.41 37.99 25.48C37.44 26.07 37.45 26.88 37.45 26.89C37.46 27.31 37.16 27.65 36.76 27.67C36.76 27.67 36.75 27.67 36.74 27.67Z" fill="#FFCEBF" fill-opacity="1.000000" fill-rule="nonzero"/>
	<path id="path" d="M13.25 27.66C13.16 27.66 13.06 27.64 12.98 27.6C12.89 27.57 12.81 27.51 12.74 27.44C12.68 27.36 12.63 27.28 12.59 27.18C12.56 27.09 12.54 26.99 12.54 26.89C12.54 26.86 12.54 26.06 12 25.48C11.93 25.41 11.88 25.33 11.84 25.23C11.81 25.14 11.79 25.04 11.79 24.95C11.79 24.84 11.81 24.75 11.84 24.66C11.88 24.56 11.93 24.48 12 24.41C12.06 24.34 12.14 24.29 12.23 24.25C12.31 24.21 12.4 24.19 12.5 24.19C12.59 24.19 12.68 24.21 12.77 24.25C12.85 24.29 12.93 24.34 13 24.41C13.99 25.47 13.96 26.88 13.96 26.94C13.95 27.03 13.93 27.13 13.9 27.22C13.86 27.31 13.81 27.38 13.74 27.45C13.68 27.52 13.6 27.57 13.52 27.61C13.43 27.65 13.34 27.66 13.25 27.66Z" fill="#FFA78F" fill-opacity="1.000000" fill-rule="nonzero"/>
	<path id="path" d="M18.07 0C17.23 0 16.55 0.72 16.55 1.61L16.55 20.89C16.55 21.79 17.23 22.51 18.07 22.51C18.91 22.51 19.59 21.79 19.59 20.89L19.59 1.61C19.59 0.72 18.91 0 18.07 0ZM25 0C24.16 0 23.48 0.72 23.48 1.61L23.48 20.89C23.48 21.79 24.16 22.51 25 22.51C25.83 22.51 26.51 21.79 26.51 20.89L26.51 1.61C26.51 0.72 25.83 0 25 0ZM31.92 0C31.08 0 30.4 0.72 30.4 1.61L30.4 20.89C30.4 21.79 31.08 22.51 31.92 22.51C32.76 22.51 33.44 21.79 33.44 20.89L33.44 1.61C33.44 0.72 32.76 0 31.92 0Z" fill="#554E56" fill-opacity="1.000000" fill-rule="nonzero"/>
	<ellipse id="circle" cx="31.925537" cy="10.584717" rx="2.270302" ry="2.420996" fill="#FD4755" fill-opacity="1.000000"/>
	<ellipse id="circle" cx="31.925537" cy="10.584717" rx="2.270302" ry="2.420996" stroke="#FE646F" stroke-opacity="1.000000" stroke-width="1.000000"/>
	<path id="path" d="M32.76 12.83C32.49 12.94 32.21 13 31.92 13C30.67 13 29.65 11.92 29.65 10.58C29.65 9.24 30.67 8.16 31.92 8.16C32.22 8.16 32.5 8.22 32.76 8.33C31.92 8.69 31.33 9.56 31.33 10.58C31.33 11.6 31.92 12.48 32.76 12.83Z" fill="#FB2B3A" fill-opacity="1.000000" fill-rule="nonzero"/>
	<ellipse id="circle" cx="25.000000" cy="5.842773" rx="2.270301" ry="2.420996" fill="#FEE45A" fill-opacity="1.000000"/>
	<path id="path" d="M25.83 8.09C25.56 8.2 25.29 8.26 25 8.26C23.74 8.26 22.72 7.17 22.72 5.84C22.72 4.5 23.74 3.42 25 3.42C25.29 3.42 25.57 3.48 25.83 3.59C25 3.94 24.4 4.82 24.4 5.84C24.4 6.86 25 7.73 25.83 8.09Z" fill="#FFD15B" fill-opacity="1.000000" fill-rule="nonzero"/>
	<ellipse id="circle" cx="18.074219" cy="16.672607" rx="2.270300" ry="2.420996" fill="#6FD7A3" fill-opacity="1.000000"/>
	<path id="path" d="M18.91 18.92C18.64 19.03 18.36 19.09 18.07 19.09C16.81 19.09 15.8 18.01 15.8 16.67C15.8 15.33 16.81 14.25 18.07 14.25C18.37 14.25 18.65 14.31 18.91 14.42C18.07 14.77 17.48 15.65 17.48 16.67C17.48 17.69 18.07 18.56 18.91 18.92Z" fill="#3EC3A4" fill-opacity="1.000000" fill-rule="nonzero"/>
</svg>
