<svg width="50.000000" height="50.000000" viewBox="0 0 50 50" fill="none" xmlns="http://www.w3.org/2000/svg" xmlns:xlink="http://www.w3.org/1999/xlink">
	<desc>
			Created with Pixso.
	</desc>
	<defs/>
	<path id="path" d="M18.99 0.72L19.55 3C17.34 3.54 15.23 4.42 13.28 5.6L12.08 3.59C14.22 2.29 16.56 1.32 18.99 0.72ZM31 0.72L30.44 3C32.65 3.54 34.76 4.42 36.71 5.6L37.93 3.59C35.78 2.29 33.44 1.32 31 0.72ZM3.59 12.07C2.29 14.22 1.32 16.55 0.72 18.99L3 19.55C3.54 17.34 4.42 15.23 5.6 13.28L3.59 12.07ZM2.34 25C2.34 23.86 2.42 22.72 2.59 21.6L0.28 21.24C-0.1 23.73 -0.1 26.25 0.28 28.74L2.59 28.39C2.42 27.27 2.34 26.13 2.34 25ZM37.91 46.4L36.71 44.39C34.77 45.57 32.65 46.45 30.44 46.99L31 49.27C33.44 48.66 35.77 47.7 37.91 46.4ZM47.65 25C47.65 26.13 47.57 27.27 47.4 28.39L49.71 28.74C50.09 26.25 50.09 23.73 49.71 21.24L47.4 21.6C47.57 22.72 47.65 23.86 47.65 25ZM49.27 30.99L46.99 30.43C46.45 32.64 45.57 34.76 44.39 36.71L46.4 37.92C47.7 35.77 48.67 33.43 49.27 30.99ZM28.39 47.4C26.14 47.74 23.85 47.74 21.6 47.4L21.25 49.71C23.73 50.09 26.26 50.09 28.74 49.71L28.39 47.4ZM43.24 38.43C41.88 40.26 40.27 41.88 38.43 43.23L39.83 45.12C41.84 43.63 43.63 41.85 45.12 39.84L43.24 38.43ZM38.43 6.76C40.27 8.1 41.89 9.72 43.24 11.56L45.12 10.15C43.64 8.14 41.85 6.35 39.84 4.87L38.43 6.76ZM6.76 11.56C8.1 9.72 9.72 8.1 11.56 6.76L10.15 4.87C8.14 6.35 6.35 8.14 4.87 10.15L6.76 11.56ZM46.4 12.07L44.39 13.28C45.57 15.22 46.45 17.34 46.99 19.55L49.27 18.99C48.67 16.55 47.7 14.22 46.4 12.07ZM21.6 2.59C23.85 2.25 26.14 2.25 28.39 2.59L28.74 0.28C26.26 -0.1 23.73 -0.1 21.25 0.28L21.6 2.59ZM7.96 45.74L3.12 46.86L4.25 42.03L1.97 41.49L0.84 46.33C0.77 46.63 0.76 46.94 0.81 47.25C0.86 47.55 0.97 47.84 1.13 48.1C1.29 48.37 1.5 48.59 1.75 48.77C2 48.95 2.29 49.08 2.59 49.15C2.94 49.23 3.3 49.23 3.65 49.15L8.49 48.04L7.96 45.74ZM2.45 39.41L4.74 39.93L5.52 36.58C4.38 34.67 3.53 32.59 3 30.43L0.72 30.99C1.24 33.06 2.01 35.06 3.03 36.93L2.45 39.41ZM13.39 44.48L10.04 45.26L10.57 47.55L13.03 46.97C14.91 47.99 16.91 48.76 18.98 49.27L19.54 47C17.38 46.46 15.32 45.61 13.41 44.46L13.39 44.48ZM25 4.68C13.77 4.69 4.69 13.79 4.69 25C4.69 28.82 5.77 32.56 7.81 35.8L5.85 44.14L14.18 42.18C23.68 48.16 36.22 45.31 42.2 35.82C48.17 26.33 45.33 13.79 35.84 7.81C32.59 5.76 28.83 4.68 25 4.68Z" fill="#FFFFFF" fill-opacity="1.000000" fill-rule="nonzero"/>
</svg>
