<svg width="50" height="50" viewBox="0 0 50 50" fill="none" xmlns="http://www.w3.org/2000/svg">
<path d="M11.8421 36.1111H2.63158C1.18421 36.1111 0 34.8611 0 33.3333V16.6667C0 15.1389 1.18421 13.8889 2.63158 13.8889H11.8421V36.1111Z" fill="#546E7A"/>
<path d="M27.6316 50L11.8421 36.1111V13.8889L27.6316 0V50Z" fill="#78909C"/>
<path d="M36.8421 25C36.8421 28.4444 35.1842 31.375 32.6711 33.0972L30.7895 31.1111C32.8684 29.9167 34.2105 27.6944 34.2105 25C34.2105 22.3055 32.8684 20.0833 30.7895 18.8889L32.6711 16.9028C35.1842 18.625 36.8421 21.5555 36.8421 25Z" fill="#03A9F4"/>
<path d="M43.4211 25C43.4211 30.2917 41.0526 35.0139 37.3553 38.0417L35.5263 36.1111C38.7368 33.5833 40.7895 29.5139 40.7895 25C40.7895 20.4861 38.7368 16.4167 35.5263 13.8889L37.3947 11.9167C41.0789 14.9583 43.4211 19.7222 43.4211 25Z" fill="#29B6F6"/>
<path d="M50 25C50 32.2083 46.9079 38.6667 42.0658 43.0139L40.1974 41.0417C44.5658 37.2222 47.3684 31.4444 47.3684 25C47.3684 18.5556 44.5658 12.7778 40.1974 8.95833L42.0658 6.98611C46.9079 11.3333 50 17.7917 50 25Z" fill="#4FC3F7"/>
</svg>
