<svg width="50.000000" height="50.000000" viewBox="0 0 50 50" fill="none" xmlns="http://www.w3.org/2000/svg" xmlns:xlink="http://www.w3.org/1999/xlink">
	<desc>
			Created with Pixso.
	</desc>
	<defs>
		<linearGradient x1="10.000000" y1="2.000000" x2="40.578552" y2="2.000000" id="paint_linear_71_5_0" gradientUnits="userSpaceOnUse">
			<stop stop-color="#FF8AA6"/>
			<stop offset="1.000000" stop-color="#1253FF"/>
		</linearGradient>
	</defs>
	<g opacity="0.000000">
		<rect id="Прямоугольник 10" width="50.000000" height="50.000000" fill="#000000" fill-opacity="1.000000"/>
	</g>
	<path id="path" d="M20.62 30.31C20.62 30.54 20.45 30.72 20.25 30.74C18.94 30.89 17.66 30.75 16.41 30.33C15.16 29.91 14.05 29.23 13.07 28.31C12.09 27.39 11.34 26.3 10.8 25.04C10.26 23.78 10 22.47 10 21.09C10 18.4 11.03 15.98 12.71 14.22L22.57 3.89C23.77 2.62 25.23 1.99 26.94 2C28.64 1.99 30.1 2.62 31.3 3.89C32.51 5.15 33.11 6.68 33.11 8.47C33.11 10.26 32.42 11.88 31.3 13.05L19.99 24.9C19.39 25.53 19.09 26.3 19.09 27.19C19.09 28.09 19.39 28.85 19.99 29.48L20.5 30.01C20.58 30.09 20.62 30.19 20.62 30.31ZM30.32 17.13C31.63 16.98 32.91 17.11 34.16 17.53C35.41 17.96 36.53 18.63 37.5 19.55C38.48 20.47 39.24 21.56 39.77 22.82C40.31 24.08 40.58 25.4 40.57 26.78C40.58 29.47 39.67 31.76 37.86 33.65L26.94 45.1C25.73 46.37 24.27 47 22.56 47C20.86 47 19.4 46.37 18.2 45.1C16.99 43.84 16.39 42.31 16.38 40.52C16.38 38.73 17.08 37.11 18.19 35.94L30.58 22.97C31.18 22.34 31.48 21.57 31.48 20.68C31.48 19.79 31.18 19.02 30.58 18.39L30.07 17.86C29.95 17.73 29.92 17.58 29.97 17.41C30.03 17.24 30.15 17.15 30.32 17.13Z" fill="url(#paint_linear_71_5_0)" fill-opacity="1.000000" fill-rule="nonzero"/>
</svg>
