<svg width="50.000000" height="50.000000" viewBox="0 0 50 50" fill="none" xmlns="http://www.w3.org/2000/svg" xmlns:xlink="http://www.w3.org/1999/xlink">
	<desc>
			Created with Pixso.
	</desc>
	<defs/>
	<path id="path" d="M47.22 50L2.77 50C1.25 50 0 48.75 0 47.22L0 2.77C0 1.25 1.25 0 2.77 0L47.22 0C48.75 0 50 1.25 50 2.77L50 47.22C50 48.75 48.75 50 47.22 50Z" fill="#FF9800" fill-opacity="1.000000" fill-rule="nonzero"/>
	<path id="path" d="M20.83 0L29.16 0L29.16 9.72L20.83 9.72L20.83 0Z" fill="#FFB74D" fill-opacity="1.000000" fill-rule="nonzero"/>
	<path id="path" d="M31.94 43.05L44.44 43.05L44.44 44.44L31.94 44.44L31.94 43.05ZM40.27 36.11L43.05 36.11L43.05 41.66L40.27 41.66L40.27 36.11Z" fill="#B86D00" fill-opacity="1.000000" fill-rule="nonzero"/>
	<path id="path" d="M41.66 33.33L38.88 37.5L44.44 37.5L41.66 33.33ZM33.33 36.11L36.11 36.11L36.11 41.66L33.33 41.66L33.33 36.11Z" fill="#B86D00" fill-opacity="1.000000" fill-rule="nonzero"/>
	<path id="path" d="M34.72 33.33L31.94 37.5L37.5 37.5L34.72 33.33Z" fill="#B86D00" fill-opacity="1.000000" fill-rule="nonzero"/>
</svg>
