<svg width="50" height="50" viewBox="0 0 50 50" fill="none" xmlns="http://www.w3.org/2000/svg">
<path d="M29.4479 21.5747H27.5798C24.2597 21.5747 21.5746 24.2996 21.5746 27.6186V43.6084C21.5746 44.3959 21.7301 45.1757 22.0322 45.903C22.3342 46.6304 22.7769 47.2909 23.3349 47.8467C23.8928 48.4025 24.555 48.8427 25.2834 49.1421C26.0118 49.4414 26.7922 49.594 27.5798 49.591H43.5695C46.8886 49.591 49.4888 46.9325 49.4888 43.6084V27.6186C49.4888 24.2996 46.8886 21.5747 43.5695 21.5747H29.4479Z" fill="#A6DCF7"/>
<path opacity="0.2" d="M21.5746 44.3252C21.5746 44.3252 22.1881 48.0573 28.0164 48.0573H42.7065C42.7065 48.0573 48.2618 48.2618 49.4346 44.3252C49.4346 44.3252 49.1278 49.5654 42.6125 49.5654H27.5051C27.5051 49.5654 22.2904 49.4888 21.5746 44.3252Z" fill="#3F456B"/>
<path opacity="0.3" d="M49.4346 26.6616C49.4346 26.6616 48.8211 22.9295 42.9928 22.9295H28.3027C28.3027 22.9295 22.7474 22.725 21.5746 26.6616C21.5746 26.6616 21.8814 21.4213 28.3967 21.4213H43.5041C43.5041 21.4213 48.7188 21.498 49.4346 26.6616Z" fill="white"/>
<path opacity="0.3" d="M47.7567 23.3691L35.5828 35.5828L23.3303 47.7965C22.7723 47.2387 22.3299 46.5761 22.0286 45.8469C21.7274 45.1176 21.5731 44.3361 21.5747 43.547V27.6186C21.5745 26.8293 21.7299 26.0477 22.0319 25.3185C22.3339 24.5892 22.7766 23.9266 23.3347 23.3685C23.8928 22.8103 24.5555 22.3676 25.2847 22.0656C26.014 21.7636 26.7956 21.6083 27.5849 21.6084H43.5072C44.2966 21.6074 45.0784 21.7625 45.8076 22.0647C46.5369 22.3668 47.1993 22.8102 47.7567 23.3691Z" fill="white"/>
<path d="M8.38444 0.511284H6.51634C3.1963 0.511284 0.51123 3.23623 0.51123 6.55525V22.545C0.511225 23.3326 0.666712 24.1123 0.968773 24.8397C1.27083 25.567 1.71352 26.2275 2.27144 26.7833C2.82937 27.3392 3.49154 27.7794 4.21999 28.0787C4.94843 28.378 5.7288 28.5306 6.51634 28.5276H22.5061C25.8251 28.5276 28.4253 25.8691 28.4253 22.545V6.55525C28.4253 3.23623 25.8251 0.511284 22.5061 0.511284H8.38444Z" fill="#FFCF8A"/>
<path opacity="0.3" d="M26.6932 2.30576L14.5194 14.5195L2.26687 26.7331C1.70885 26.1753 1.26651 25.5127 0.965226 24.7835C0.663948 24.0543 0.509667 23.2727 0.511242 22.4837V6.55525C0.510971 4.96204 1.1434 3.43393 2.26949 2.30689C3.39558 1.17984 4.92315 0.54611 6.51636 0.545025H22.4438C23.2332 0.544065 24.015 0.699125 24.7442 1.00129C25.4735 1.30346 26.1359 1.74678 26.6932 2.30576Z" fill="white"/>
<path opacity="0.2" d="M0.51123 23.364C0.51123 23.364 1.12473 27.0961 6.95295 27.0961H21.6431C21.6431 27.0961 27.1983 27.3006 28.3711 23.364C28.3711 23.364 28.0644 28.6043 21.5491 28.6043H6.4417C6.4417 28.6043 1.22698 28.5276 0.51123 23.364Z" fill="#3F456B"/>
<path opacity="0.3" d="M28.3711 5.70044C28.3711 5.70044 27.7577 1.96834 21.9294 1.96834H7.23925C7.23925 1.96834 1.68403 1.76384 0.51123 5.70044C0.51123 5.70044 0.817979 0.460159 7.33332 0.460159H22.4407C22.4407 0.460159 27.6554 0.536846 28.3711 5.70044Z" fill="white"/>
<path opacity="0.2" d="M28.3967 21.6258V22.8017C28.3967 22.8017 28.2423 28.5276 22.5061 28.5276H21.5746V30.2147H22.5971C22.5971 30.2147 30.0951 30.1636 30.0951 23.0062V21.5747L28.3967 21.6258Z" fill="#3F456B"/>
<path d="M43.4785 50H27.5849C25.8559 49.9981 24.1982 49.3104 22.9756 48.0878C21.753 46.8652 21.0653 45.2076 21.0634 43.4785V28.5276C21.0634 28.392 21.1173 28.262 21.2132 28.1661C21.309 28.0702 21.4391 28.0164 21.5747 28.0164C21.7103 28.0164 21.8403 28.0702 21.9362 28.1661C22.032 28.262 22.0859 28.392 22.0859 28.5276V43.4785C22.0878 44.9364 22.6678 46.334 23.6986 47.3648C24.7295 48.3956 26.127 48.9756 27.5849 48.9775H43.4785C44.9364 48.9756 46.334 48.3956 47.3648 47.3648C48.3957 46.334 48.9756 44.9364 48.9775 43.4785V27.5849C48.9756 26.127 48.3957 24.7295 47.3648 23.6986C46.334 22.6678 44.9364 22.0878 43.4785 22.0859H28.4939C28.3583 22.0859 28.2283 22.032 28.1324 21.9362C28.0365 21.8403 27.9826 21.7103 27.9826 21.5747C27.9826 21.4391 28.0365 21.309 28.1324 21.2132C28.2283 21.1173 28.3583 21.0634 28.4939 21.0634H43.4785C45.2076 21.0653 46.8652 21.753 48.0878 22.9756C49.3104 24.1982 49.9981 25.8559 50 27.5849V43.4785C49.9981 45.2076 49.3104 46.8652 48.0878 48.0878C46.8652 49.3104 45.2076 49.9981 43.4785 50Z" fill="#3F456B"/>
<path d="M22.5061 29.0389H6.51636C4.79167 29.04 3.13699 28.3569 1.91534 27.1394C0.693699 25.922 0.00487394 24.2697 0 22.545V6.55525C0 2.94073 2.92331 3.69543e-05 6.51636 3.69543e-05H22.5061C23.3589 -0.00287927 24.2035 0.166832 24.989 0.498951C25.7745 0.83107 26.4846 1.31872 27.0767 1.93255C28.2776 3.17076 28.9453 4.83035 28.9366 6.55525V22.545C28.9473 24.2625 28.2779 25.9145 27.0746 27.1401C26.4785 27.7456 25.7671 28.2256 24.9825 28.5517C24.1978 28.8778 23.3558 29.0434 22.5061 29.0389ZM6.51636 1.02253C3.48671 1.02253 1.02249 3.50412 1.02249 6.55525V22.545C1.0271 23.9986 1.60811 25.391 2.63806 26.4167C3.668 27.4424 5.06277 28.0177 6.51636 28.0164H22.5061C25.5389 28.0164 27.9141 25.6135 27.9141 22.545V6.55525C27.9227 5.09654 27.3588 3.69266 26.3436 2.64523C25.8466 2.12976 25.2503 1.72025 24.5908 1.44137C23.9313 1.16249 23.2222 1.02001 22.5061 1.02253H6.51636Z" fill="#3F456B"/>
<path d="M41.5828 19.0184C41.4472 19.0184 41.3172 18.9646 41.2213 18.8687C41.1254 18.7728 41.0715 18.6428 41.0715 18.5072V12.6657C41.0715 12.637 41.1523 9.64727 39.2259 7.65545C38.0552 6.44175 36.3701 5.82826 34.2178 5.82826H31.4928C31.3572 5.82826 31.2272 5.77439 31.1313 5.67852C31.0354 5.58264 30.9816 5.4526 30.9816 5.31701C30.9816 5.18142 31.0354 5.05138 31.1313 4.9555C31.2272 4.85963 31.3572 4.80576 31.4928 4.80576H34.2178C36.6625 4.80576 38.5971 5.52764 39.9683 6.953C42.1554 9.22396 42.1012 12.4489 42.094 12.6964V18.5072C42.094 18.6428 42.0402 18.7728 41.9443 18.8687C41.8484 18.9646 41.7184 19.0184 41.5828 19.0184Z" fill="#3F456B"/>
<path d="M41.5828 19.0031C41.5157 19.0032 41.4491 18.9901 41.387 18.9645C41.3249 18.9389 41.2684 18.9013 41.2209 18.8538L38.1585 15.7914C38.0625 15.6956 38.0085 15.5655 38.0084 15.4298C38.0083 15.2942 38.0621 15.164 38.158 15.068C38.2539 14.972 38.3839 14.918 38.5196 14.9179C38.6553 14.9178 38.7854 14.9716 38.8814 15.0675L41.5828 17.7689L44.2832 15.0675C44.3792 14.9715 44.5094 14.9176 44.6452 14.9176C44.781 14.9176 44.9112 14.9715 45.0072 15.0675C45.1032 15.1635 45.1571 15.2937 45.1571 15.4295C45.1571 15.5652 45.1032 15.6954 45.0072 15.7914L41.9397 18.8538C41.8449 18.9484 41.7167 19.002 41.5828 19.0031Z" fill="#3F456B"/>
<path d="M18.3671 45.1943H15.6442C13.1994 45.1943 11.2648 44.4724 9.89368 43.047C7.70452 40.7781 7.75871 37.5532 7.77098 37.3057V31.4929C7.77098 31.3573 7.82485 31.2272 7.92072 31.1314C8.0166 31.0355 8.14664 30.9816 8.28223 30.9816C8.41782 30.9816 8.54786 31.0355 8.64374 31.1314C8.73962 31.2272 8.79348 31.3573 8.79348 31.4929V37.3344C8.79348 37.363 8.7127 40.3528 10.634 42.3446C11.8047 43.5583 13.4898 44.1718 15.6442 44.1718H18.3691C18.5047 44.1718 18.6348 44.2257 18.7306 44.3215C18.8265 44.4174 18.8804 44.5474 18.8804 44.683C18.8804 44.8186 18.8265 44.9487 18.7306 45.0445C18.6348 45.1404 18.5047 45.1943 18.3691 45.1943H18.3671Z" fill="#3F456B"/>
<path d="M11.3395 35.0818C11.2041 35.0818 11.0743 35.0281 10.9785 34.9325L8.2822 32.2311L5.57668 34.9325C5.52914 34.9801 5.47271 35.0178 5.41061 35.0435C5.3485 35.0692 5.28194 35.0825 5.21471 35.0825C5.14749 35.0825 5.08093 35.0692 5.01882 35.0435C4.95671 35.0178 4.90028 34.9801 4.85275 34.9325C4.80522 34.885 4.76751 34.8286 4.74179 34.7665C4.71606 34.7044 4.70282 34.6378 4.70282 34.5706C4.70282 34.5033 4.71606 34.4368 4.74179 34.3747C4.76751 34.3126 4.80522 34.2561 4.85275 34.2086L7.92023 31.1462C8.01611 31.0504 8.14612 30.9965 8.28169 30.9965C8.41725 30.9965 8.54727 31.0504 8.64314 31.1462L11.7106 34.2086C11.7823 34.2801 11.8311 34.3713 11.8509 34.4706C11.8708 34.5699 11.8606 34.6728 11.8219 34.7663C11.7831 34.8599 11.7174 34.9398 11.6332 34.9959C11.5489 35.0521 11.4499 35.082 11.3487 35.0818H11.3395Z" fill="#3F456B"/>
<path d="M27.5941 44.1779C27.5087 44.1779 27.4247 44.1565 27.3498 44.1157C27.2748 44.0749 27.2112 44.016 27.1649 43.9443C27.1185 43.8727 27.0908 43.7905 27.0844 43.7054C27.0779 43.6203 27.0928 43.5349 27.1278 43.4571L34.8671 26.1677C34.9064 26.0775 34.971 26.0006 35.053 25.9462C35.1349 25.8918 35.2309 25.8622 35.3293 25.861C35.4265 25.8609 35.5217 25.8886 35.6037 25.9408C35.6858 25.9929 35.7512 26.0674 35.7925 26.1554L43.9008 43.4448C43.9585 43.5676 43.9649 43.7083 43.9188 43.836C43.8727 43.9636 43.7778 44.0676 43.6549 44.1253C43.5321 44.1829 43.3914 44.1894 43.2638 44.1432C43.1362 44.0971 43.0321 44.0022 42.9745 43.8794L35.3456 27.6074L28.0614 43.8753C28.0211 43.9655 27.9555 44.0421 27.8725 44.0958C27.7896 44.1495 27.6929 44.178 27.5941 44.1779Z" fill="#3F456B"/>
<path d="M40.6953 38.9571H30.3681C30.2325 38.9571 30.1025 38.9032 30.0066 38.8073C29.9107 38.7114 29.8569 38.5814 29.8569 38.4458C29.8569 38.3102 29.9107 38.1802 30.0066 38.0843C30.1025 37.9884 30.2325 37.9346 30.3681 37.9346H40.6953C40.8309 37.9346 40.9609 37.9884 41.0568 38.0843C41.1527 38.1802 41.2066 38.3102 41.2066 38.4458C41.2066 38.5814 41.1527 38.7114 41.0568 38.8073C40.9609 38.9032 40.8309 38.9571 40.6953 38.9571Z" fill="#3F456B"/>
<path d="M21.8814 9.91823H6.85072C6.71513 9.91823 6.5851 9.86437 6.48922 9.76849C6.39334 9.67261 6.33948 9.54257 6.33948 9.40698C6.33948 9.27139 6.39334 9.14135 6.48922 9.04548C6.5851 8.9496 6.71513 8.89574 6.85072 8.89574H21.8814C22.017 8.89574 22.147 8.9496 22.2429 9.04548C22.3388 9.14135 22.3926 9.27139 22.3926 9.40698C22.3926 9.54257 22.3388 9.67261 22.2429 9.76849C22.147 9.86437 22.017 9.91823 21.8814 9.91823Z" fill="#3F456B"/>
<path d="M7.60018 23.3538C7.47711 23.3538 7.35818 23.3094 7.26521 23.2288C7.17224 23.1481 7.11147 23.0367 7.09407 22.9149C7.07666 22.793 7.10379 22.669 7.17046 22.5656C7.23714 22.4621 7.33889 22.3862 7.45703 22.3518C12.0583 21.0062 15.2904 18.4724 17.0501 14.8231C18.3568 12.1135 18.319 9.79451 18.318 9.77099C18.3164 9.70385 18.3281 9.63707 18.3524 9.57445C18.3767 9.51183 18.413 9.4546 18.4594 9.40604C18.5058 9.35747 18.5613 9.31852 18.6227 9.2914C18.6841 9.26428 18.7503 9.24953 18.8175 9.24798C18.8846 9.24644 18.9514 9.25813 19.014 9.2824C19.0766 9.30667 19.1338 9.34303 19.1824 9.38941C19.231 9.43579 19.2699 9.49129 19.297 9.55272C19.3242 9.61416 19.3389 9.68033 19.3405 9.74747C19.3405 9.84972 19.3834 12.3375 17.9713 15.2689C16.6718 17.9653 13.8425 21.5532 7.74639 23.3354C7.69883 23.3487 7.64956 23.3549 7.60018 23.3538Z" fill="#3F456B"/>
<path d="M21.41 23.3538C21.3616 23.354 21.3133 23.3471 21.2669 23.3334C14.5061 21.3579 11.6933 17.1984 10.5235 14.0573C10.4786 13.9308 10.4852 13.7917 10.5419 13.67C10.5987 13.5484 10.701 13.4539 10.8268 13.407C10.9526 13.3602 11.0918 13.3647 11.2143 13.4196C11.3368 13.4745 11.4328 13.5754 11.4816 13.7004C12.5695 16.6227 15.2004 20.4949 21.5532 22.3518C21.6713 22.3862 21.7731 22.4621 21.8397 22.5656C21.9064 22.669 21.9335 22.793 21.9161 22.9149C21.8987 23.0367 21.838 23.1481 21.745 23.2288C21.652 23.3094 21.5331 23.3538 21.41 23.3538Z" fill="#3F456B"/>
<path d="M14.4172 9.91823C14.2816 9.91823 14.1516 9.86437 14.0557 9.76849C13.9598 9.67262 13.9059 9.54258 13.9059 9.40699V5.52151C13.9059 5.38592 13.9598 5.25588 14.0557 5.16C14.1516 5.06412 14.2816 5.01026 14.4172 5.01026C14.5528 5.01026 14.6828 5.06412 14.7787 5.16C14.8746 5.25588 14.9284 5.38592 14.9284 5.52151V9.40699C14.9284 9.54258 14.8746 9.67262 14.7787 9.76849C14.6828 9.86437 14.5528 9.91823 14.4172 9.91823Z" fill="#3F456B"/>
</svg>
