<svg width="50.000000" height="50.000000" viewBox="0 0 50 50" fill="none" xmlns="http://www.w3.org/2000/svg" xmlns:xlink="http://www.w3.org/1999/xlink">
	<desc>
			Created with Pixso.
	</desc>
	<defs/>
	<path id="path" d="M3.12 1.56L37.5 1.56C39.22 1.56 40.62 2.96 40.62 4.68L40.62 46.87C40.62 48.6 39.22 50 37.5 50L3.12 50C1.39 50 0 48.6 0 46.87L0 4.68C0 2.96 1.39 1.56 3.12 1.56Z" fill="#ECCE93" fill-opacity="1.000000" fill-rule="nonzero"/>
	<path id="path" d="M3.12 36.58L3.12 4.68L37.5 4.68L37.5 46.87L13.41 46.87L3.12 36.58Z" fill="#EFEFEF" fill-opacity="1.000000" fill-rule="nonzero"/>
	<path id="path" d="M13.41 36.58L13.41 46.87L3.12 36.58L13.41 36.58ZM12.5 6.25L12.5 0L28.12 0L28.12 6.25C28.12 7.97 26.72 9.37 25 9.37L15.62 9.37C13.89 9.37 12.5 7.97 12.5 6.25Z" fill="#E76E54" fill-opacity="1.000000" fill-rule="nonzero"/>
	<path id="path" d="M50 35.93C50 43.7 43.7 50 35.93 50C28.17 50 21.87 43.7 21.87 35.93C21.87 28.17 28.17 21.87 35.93 21.87C43.7 21.87 50 28.17 50 35.93Z" fill="#48C8EF" fill-opacity="1.000000" fill-rule="nonzero"/>
	<path id="path" d="M32.71 41.95L29.68 38.92C29.07 38.31 29.07 37.32 29.68 36.71C30.29 36.1 31.28 36.1 31.89 36.71L32.9 37.72L39.98 31.83C40.64 31.27 41.63 31.36 42.18 32.03C42.74 32.69 42.65 33.68 41.98 34.23L32.71 41.95Z" fill="#FFFFFF" fill-opacity="1.000000" fill-rule="nonzero"/>
	<path id="path" d="M17.18 12.5L29.68 12.5C30.55 12.5 31.25 13.19 31.25 14.06C31.25 14.92 30.55 15.62 29.68 15.62L17.18 15.62C16.32 15.62 15.62 14.92 15.62 14.06C15.62 13.19 16.32 12.5 17.18 12.5ZM9.37 12.5L12.5 12.5L12.5 15.62L9.37 15.62L9.37 12.5ZM9.37 18.75L12.5 18.75L12.5 21.87L9.37 21.87L9.37 18.75ZM9.37 25L12.5 25L12.5 28.12L9.37 28.12L9.37 25ZM9.37 31.25L12.5 31.25L12.5 34.37L9.37 34.37L9.37 31.25ZM17.18 18.75L26.56 18.75C27.42 18.75 28.12 19.44 28.12 20.31C28.12 21.17 27.42 21.87 26.56 21.87L17.18 21.87C16.32 21.87 15.62 21.17 15.62 20.31C15.62 19.44 16.32 18.75 17.18 18.75ZM17.18 25L20.31 25C21.17 25 21.87 25.69 21.87 26.56C21.87 27.42 21.17 28.12 20.31 28.12L17.18 28.12C16.32 28.12 15.62 27.42 15.62 26.56C15.62 25.69 16.32 25 17.18 25Z" fill="#77959E" fill-opacity="1.000000" fill-rule="nonzero"/>
</svg>
