<svg width="50" height="50" viewBox="0 0 50 50" fill="none" xmlns="http://www.w3.org/2000/svg">
<path d="M4.79847 10.3904C3.80528 10.3904 3.00012 9.5541 3.00012 8.52246C3.00012 6.79463 3.81854 5.13174 5.24571 3.95996C6.56936 2.87314 8.305 2.27461 10.1329 2.27461C13.1967 2.27461 15.9111 3.97324 16.8877 6.50156C17.2575 7.45898 16.81 8.54658 15.8882 8.93076C14.9665 9.31484 13.9194 8.8501 13.5495 7.89258C13.0723 6.65703 11.4696 6.01064 10.1329 6.01064C8.21616 6.01064 6.59691 7.16094 6.59691 8.52246C6.59682 9.5541 5.79175 10.3904 4.79847 10.3904ZM4.79847 26.868C3.80528 26.868 3.00012 26.0316 3.00012 25C3.00012 23.2722 3.81854 21.6093 5.24571 20.4375C6.56936 19.3507 8.305 18.7521 10.1329 18.7521C13.1967 18.7521 15.9111 20.4508 16.8877 22.9791C17.2575 23.9365 16.81 25.0242 15.8882 25.4083C14.9665 25.7924 13.9194 25.3276 13.5495 24.3701C13.0723 23.1346 11.4696 22.4882 10.1329 22.4882C8.21616 22.4882 6.59691 23.6385 6.59691 25C6.59682 26.0316 5.79175 26.868 4.79847 26.868ZM4.79847 43.3456C3.80528 43.3456 3.00012 42.5093 3.00012 41.4776C3.00012 39.7498 3.81854 38.0869 5.24571 36.9151C6.56936 35.8283 8.305 35.2298 10.1329 35.2298C13.1967 35.2298 15.9111 36.9284 16.8877 39.4567C17.2575 40.4142 16.81 41.5018 15.8882 41.8859C14.9665 42.27 13.9194 41.8053 13.5495 40.8478C13.0723 39.6122 11.4696 38.9658 10.1329 38.9658C8.21616 38.9658 6.59691 40.1161 6.59691 41.4776C6.59682 42.5093 5.79175 43.3456 4.79847 43.3456Z" fill="#687DA9"/>
<path d="M10.1328 35.2298C9.0809 35.2298 8.06017 35.429 7.13025 35.8044V40.1721C7.76082 39.4547 8.88337 38.9657 10.1328 38.9657C11.4694 38.9657 13.0722 39.6122 13.5494 40.8477C13.9192 41.8052 14.9664 42.2699 15.8881 41.8858C16.8099 41.5017 17.2574 40.4141 16.8876 39.4566C15.9111 36.9284 13.1966 35.2298 10.1328 35.2298ZM10.1328 18.7522C9.0809 18.7522 8.06017 18.9514 7.13025 19.3269V23.6946C7.76082 22.9771 8.88337 22.4883 10.1328 22.4883C11.4694 22.4883 13.0722 23.1348 13.5494 24.3702C13.9192 25.3277 14.9664 25.7925 15.8881 25.4084C16.8099 25.0243 17.2574 23.9367 16.8876 22.9792C15.9111 20.4508 13.1966 18.7522 10.1328 18.7522ZM10.1328 2.27451C9.18489 2.27451 8.2624 2.43682 7.40873 2.74336C7.2241 3.42989 7.13042 4.13934 7.13025 4.85215V7.2169C7.76082 6.49942 8.88337 6.01055 10.1328 6.01055C11.4694 6.01055 13.0722 6.65703 13.5494 7.89248C13.9192 8.85 14.9664 9.31475 15.8881 8.93067C16.8099 8.54658 17.2574 7.45889 16.8876 6.50147C15.9111 3.97324 13.1966 2.27451 10.1328 2.27451Z" fill="#4A669F"/>
<path d="M42.3287 0H30.0503C18.0199 7.42666 18.0199 41.1202 31.4624 50H42.3287C44.9086 50 47 47.8276 47 45.1479V4.85215C47 2.17236 44.9086 0 42.3287 0Z" fill="#EEECFF"/>
<path d="M30.0503 0H14.4167C11.8368 0 9.74536 2.17236 9.74536 4.85215V45.1478C9.74536 47.8275 11.8368 49.9999 14.4167 49.9999H31.4624C24.2608 40.2324 25.7546 10.05 30.0503 0Z" fill="#D3D3FF"/>
<path d="M10.1327 14.7702C8.30497 14.7702 6.56924 14.1717 5.24558 13.0849C3.81851 11.9132 3 10.2502 3 8.52236C3 7.49072 3.80516 6.6544 4.79835 6.6544C5.79154 6.6544 6.5967 7.49072 6.5967 8.52236C6.5967 9.88389 8.21594 11.0342 10.1327 11.0342C11.4681 11.0342 12.6824 10.4883 13.3018 9.60938C13.8884 8.77695 15.0137 8.59619 15.8152 9.20557C16.6166 9.81494 16.7907 10.9838 16.204 11.8163C14.9005 13.666 12.6309 14.7702 10.1327 14.7702ZM10.1327 31.2479C8.30497 31.2479 6.56924 30.6493 5.24558 29.5625C3.81851 28.3907 3.00009 26.7278 3.00009 25C3.00009 23.9684 3.80525 23.132 4.79844 23.132C5.79163 23.132 6.59679 23.9684 6.59679 25C6.59679 26.3615 8.21603 27.5118 10.1327 27.5118C11.4682 27.5118 12.6825 26.9659 13.3019 26.087C13.8885 25.2545 15.0138 25.0738 15.8153 25.6832C16.6167 26.2926 16.7908 27.4614 16.2041 28.2939C14.9005 30.1436 12.6309 31.2479 10.1327 31.2479ZM10.1327 47.7255C8.30497 47.7255 6.56924 47.127 5.24558 46.0401C3.81851 44.8684 3 43.2055 3 41.4776C3 40.446 3.80516 39.6097 4.79835 39.6097C5.79154 39.6097 6.5967 40.446 6.5967 41.4776C6.5967 42.8392 8.21594 43.9895 10.1327 43.9895C11.4681 43.9895 12.6824 43.4436 13.3018 42.5647C13.8884 41.7321 15.0137 41.5514 15.8152 42.1608C16.6166 42.7702 16.7907 43.9391 16.204 44.7716C14.9005 46.6212 12.6309 47.7255 10.1327 47.7255ZM42.1465 21.4845H34.9041C34.7171 21.4845 34.5378 21.4073 34.4055 21.27C34.2733 21.1326 34.199 20.9463 34.199 20.7521C34.199 20.5578 34.2733 20.3715 34.4055 20.2342C34.5378 20.0968 34.7171 20.0196 34.9041 20.0196H42.1465C42.3335 20.0196 42.5129 20.0968 42.6451 20.2342C42.7773 20.3715 42.8516 20.5578 42.8516 20.7521C42.8516 20.9463 42.7773 21.1326 42.6451 21.27C42.5129 21.4073 42.3335 21.4845 42.1465 21.4845ZM39.5397 25.8559H34.9041C34.7171 25.8559 34.5378 25.7787 34.4055 25.6413C34.2733 25.504 34.199 25.3177 34.199 25.1234C34.199 24.9292 34.2733 24.7429 34.4055 24.6055C34.5378 24.4682 34.7171 24.391 34.9041 24.391H39.5397C39.7267 24.391 39.9061 24.4682 40.0383 24.6055C40.1705 24.7429 40.2448 24.9292 40.2448 25.1234C40.2448 25.3177 40.1705 25.504 40.0383 25.6413C39.9061 25.7787 39.7267 25.8559 39.5397 25.8559Z" fill="#687DA9"/>
<path d="M28.0861 28.1862H22.9746C21.6798 28.1862 20.6301 27.096 20.6301 25.7511V20.4417C20.6301 19.0968 21.6798 18.0065 22.9746 18.0065H28.0861C29.3809 18.0065 30.4305 19.0968 30.4305 20.4417V25.7511C30.4306 27.096 29.3809 28.1862 28.0861 28.1862Z" fill="#72D98B"/>
<path d="M24.8929 24.7116C24.8003 24.7118 24.7086 24.6929 24.623 24.656C24.5374 24.6192 24.4597 24.5652 24.3943 24.4971L23.3917 23.4557C23.2595 23.3183 23.1852 23.132 23.1852 22.9378C23.1852 22.7436 23.2595 22.5573 23.3917 22.4199C23.524 22.2826 23.7033 22.2054 23.8903 22.2054C24.0773 22.2054 24.2566 22.2826 24.3889 22.4199L24.8929 22.9435L26.3996 21.3785C26.5318 21.2412 26.7112 21.164 26.8982 21.164C27.0852 21.164 27.2646 21.2412 27.3968 21.3785C27.5291 21.5159 27.6034 21.7022 27.6034 21.8964C27.6034 22.0907 27.5291 22.277 27.3968 22.4144L25.3916 24.4973C25.3261 24.5653 25.2484 24.6193 25.1628 24.656C25.0772 24.6928 24.9855 24.7117 24.8929 24.7116Z" fill="white"/>
<path d="M42.1465 37.4812H34.9042C34.7171 37.4812 34.5378 37.4041 34.4056 37.2667C34.2733 37.1294 34.199 36.9431 34.199 36.7488C34.199 36.5546 34.2733 36.3683 34.4056 36.2309C34.5378 36.0936 34.7171 36.0164 34.9042 36.0164H42.1465C42.3335 36.0164 42.5129 36.0936 42.6451 36.2309C42.7774 36.3683 42.8517 36.5546 42.8517 36.7488C42.8517 36.9431 42.7774 37.1294 42.6451 37.2667C42.5129 37.4041 42.3335 37.4812 42.1465 37.4812ZM39.5397 41.8526H34.9042C34.7171 41.8526 34.5378 41.7755 34.4056 41.6381C34.2733 41.5008 34.199 41.3145 34.199 41.1202C34.199 40.926 34.2733 40.7397 34.4056 40.6023C34.5378 40.465 34.7171 40.3878 34.9042 40.3878H39.5397C39.7267 40.3878 39.9061 40.465 40.0383 40.6023C40.1706 40.7397 40.2449 40.926 40.2449 41.1202C40.2449 41.3145 40.1706 41.5008 40.0383 41.6381C39.9061 41.7755 39.7267 41.8526 39.5397 41.8526Z" fill="#687DA9"/>
<path d="M28.0861 44.183H22.9746C21.6798 44.183 20.6301 43.0928 20.6301 41.7478V36.4385C20.6301 35.0936 21.6798 34.0033 22.9746 34.0033H28.0861C29.3809 34.0033 30.4305 35.0936 30.4305 36.4385V41.7478C30.4306 43.0928 29.3809 44.183 28.0861 44.183Z" fill="#72D98B"/>
<path d="M24.8928 40.7084C24.8003 40.7084 24.7086 40.6895 24.623 40.6526C24.5375 40.6158 24.4597 40.5619 24.3943 40.4938L23.3917 39.4524C23.2604 39.3149 23.1869 39.1289 23.1873 38.9352C23.1877 38.7415 23.262 38.5559 23.3938 38.4189C23.5257 38.2819 23.7044 38.2048 23.8909 38.2044C24.0773 38.2039 24.2564 38.2802 24.3888 38.4166L24.8928 38.9401L26.3996 37.3752C26.532 37.2388 26.711 37.1625 26.8975 37.1629C27.084 37.1633 27.2627 37.2405 27.3946 37.3774C27.5264 37.5144 27.6007 37.7 27.6011 37.8937C27.6015 38.0874 27.5281 38.2734 27.3968 38.4109L25.3915 40.4938C25.326 40.5619 25.2483 40.6158 25.1627 40.6526C25.0772 40.6895 24.9855 40.7084 24.8928 40.7084Z" fill="white"/>
<path d="M23.6744 13.1955C25.2464 13.1955 26.5207 12.1414 26.5207 10.8411C26.5207 9.54082 25.2464 8.48672 23.6744 8.48672C22.1025 8.48672 20.8282 9.54082 20.8282 10.8411C20.8282 12.1414 22.1025 13.1955 23.6744 13.1955Z" fill="#FFA1AC"/>
<path d="M39.1022 13.1955C40.6742 13.1955 41.9485 12.1414 41.9485 10.8411C41.9485 9.54082 40.6742 8.48672 39.1022 8.48672C37.5303 8.48672 36.256 9.54082 36.256 10.8411C36.256 12.1414 37.5303 13.1955 39.1022 13.1955Z" fill="#FFA1AC"/>
<path d="M33.6831 9.03213C33.6831 7.55898 32.6557 7.4206 31.3883 7.4206C30.121 7.4206 29.0934 7.55898 29.0934 9.03213C29.0934 10.5053 30.1209 11.6994 31.3883 11.6994C32.6557 11.6994 33.6831 10.5053 33.6831 9.03213Z" fill="#425460"/>
<path d="M24.1503 8.7627C23.9632 8.7627 23.7839 8.68553 23.6517 8.54818C23.5194 8.41082 23.4451 8.22453 23.4451 8.03027V6.82305C23.4451 6.6288 23.5194 6.4425 23.6517 6.30515C23.7839 6.16779 23.9632 6.09063 24.1503 6.09063C24.3373 6.09063 24.5166 6.16779 24.6489 6.30515C24.7811 6.4425 24.8554 6.6288 24.8554 6.82305V8.03027C24.8554 8.22453 24.7811 8.41082 24.6489 8.54818C24.5166 8.68553 24.3373 8.7627 24.1503 8.7627ZM38.6264 8.7627C38.4394 8.7627 38.2601 8.68553 38.1278 8.54818C37.9956 8.41082 37.9213 8.22453 37.9213 8.03027V6.82305C37.9213 6.6288 37.9956 6.4425 38.1278 6.30515C38.2601 6.16779 38.4394 6.09063 38.6264 6.09063C38.8135 6.09063 38.9928 6.16779 39.125 6.30515C39.2573 6.4425 39.3316 6.6288 39.3316 6.82305V8.03027C39.3316 8.22453 39.2573 8.41082 39.125 8.54818C38.9928 8.68553 38.8135 8.7627 38.6264 8.7627Z" fill="#425460"/>
</svg>
