<svg width="46" height="50" viewBox="0 0 46 50" fill="none" xmlns="http://www.w3.org/2000/svg">
<path d="M45.5898 12.1129L34.7245 0.458065C34.5895 0.313138 34.4277 0.197898 34.2488 0.119204C34.07 0.0405106 33.8777 -2.81987e-05 33.6834 8.64442e-07H6.1583C5.96777 -0.000211091 5.77907 0.0385563 5.60299 0.114087C5.42691 0.189617 5.2669 0.300429 5.1321 0.440187C4.99731 0.579945 4.89038 0.745909 4.81742 0.92859C4.74446 1.11127 4.70691 1.30709 4.70691 1.50484V19.1726H7.60502V3.00645H32.2351V13.1581C32.2351 13.9887 32.8847 14.6613 33.6834 14.6613H43.1019V46.9935H7.60658V39.85H4.70691V48.4952C4.70691 49.3274 5.35646 50 6.1583 50H44.5486C44.7391 50.0002 44.9278 49.9614 45.1039 49.8859C45.28 49.8104 45.44 49.6996 45.5748 49.5598C45.7096 49.4201 45.8165 49.2541 45.8895 49.0714C45.9624 48.8887 46 48.6929 46 48.4952V13.1581C46.0002 12.7674 45.8529 12.3922 45.5898 12.1129Z" fill="#374150"/>
<path d="M35.1348 22.1806H2.89501C2.12706 22.1811 1.39071 22.498 0.847834 23.0618C0.304959 23.6256 -1.10512e-07 24.39 0 25.1871V33.8339C0 35.4935 1.29599 36.8403 2.89501 36.8403H35.1348C35.9027 36.8399 36.6391 36.523 37.182 35.9592C37.7248 35.3954 38.0298 34.631 38.0298 33.8339V25.1871C38.0298 24.39 37.7248 23.6256 37.182 23.0618C36.6391 22.498 35.9027 22.1811 35.1348 22.1806ZM9.29417 26.7661H7.1233V33.7823H5.20884V26.7661H3.05662V25.2419H9.29417V26.7661ZM16.3771 26.7661H12.5621V28.6032H15.7912V30.1274H12.5621V32.2581H16.3646V33.7806H10.6461V25.2403H16.3771V26.7661ZM26.585 33.7806H24.6674V31.6629L24.8492 27.7629L24.8135 27.7565L22.8322 33.779H21.5455L19.5844 27.8081L19.5487 27.8129L19.7305 31.6629V33.7806H17.816V25.2403H20.3225L22.1686 31.2177H22.2013L24.0645 25.2403H26.5865L26.585 33.7806ZM34.1138 30.0823C33.5435 30.5968 32.7666 30.8548 31.7922 30.8548H30.3688V33.7806H28.4513V25.2403H31.7922C32.7666 25.2403 33.5435 25.4984 34.1138 26.0161C34.6841 26.5339 34.9732 27.2113 34.9732 28.0484C34.9732 28.8919 34.6857 29.5677 34.1138 30.0823Z" fill="#2878C8"/>
<path d="M31.7922 26.7661H30.3688V29.329H31.7922C32.2087 29.329 32.521 29.2129 32.7385 28.9742C32.8472 28.8517 32.9315 28.7081 32.9867 28.5518C33.0419 28.3954 33.0669 28.2293 33.0602 28.0629C33.074 27.7205 32.9586 27.3861 32.7385 27.1306C32.521 26.8871 32.2087 26.7661 31.7922 26.7661Z" fill="#2878C8"/>
</svg>
