<svg width="50" height="50" viewBox="0 0 50 50" fill="none" xmlns="http://www.w3.org/2000/svg">
<path d="M11.9736 9.91748H4.86826L3.68359 29.9593H13.1569L11.9736 9.91748Z" fill="url(#paint0_radial_246_445)"/>
<path d="M4.51984 15.812L4.38086 18.1708H12.4604L12.3214 15.812H4.51984Z" fill="#BA2B00"/>
<path d="M4.8675 9.91748L4.72852 12.2763H12.1118L11.9728 9.91748H4.8675Z" fill="#BA2B00"/>
<path d="M12.8083 24.0648L12.6694 21.7061H4.17156L4.03125 24.0648H12.8083Z" fill="#BA2B00"/>
<path d="M47.5 19.5281L32.4607 29.0621V19.5281L17.4757 29.0621V19.5281L2.5 29.0621V50H47.4974L47.5 19.5281Z" fill="url(#paint1_radial_246_445)"/>
<path d="M28.4311 34.4397H6.98145V46.3628H28.4311V34.4397Z" fill="url(#paint2_linear_246_445)"/>
<g opacity="0.28">
<path d="M6.98145 34.4399V46.3631H28.4311V34.4399H6.98145Z" fill="black"/>
<path d="M6.98633 46.3574V34.4448H28.4267V46.3574H6.98633Z" fill="#000101"/>
<path d="M6.99023 46.3512V34.4504H28.4214V46.3512H6.99023Z" fill="#010101"/>
<path d="M6.99609 46.3457V34.4556H28.418V46.3457H6.99609Z" fill="#010202"/>
<path d="M7 46.3393V34.4609H28.4139V46.3393H7Z" fill="#020203"/>
<path d="M7.00391 46.3341V34.4663H28.4086V46.3341H7.00391Z" fill="#020303"/>
<path d="M7.00977 46.3271V34.4712H28.4052V46.3271H7.00977Z" fill="#030404"/>
<path d="M7.01367 46.3222V34.4768H28.3998V46.3222H7.01367Z" fill="#030405"/>
<path d="M7.01855 46.3155V34.4807H28.3954V46.3155H7.01855Z" fill="#040505"/>
<path d="M7.02246 46.31V34.4871H28.3914V46.31H7.02246Z" fill="#040506"/>
<path d="M7.02637 46.3051V34.4927H28.386V46.3051H7.02637Z" fill="#040607"/>
<path d="M7.03125 46.2981V34.4976H28.3817V46.2981H7.03125Z" fill="#050708"/>
<path d="M7.03516 46.2932V34.5032H28.3763V46.2932H7.03516Z" fill="#050708"/>
<path d="M7.04102 46.2865V34.5083H28.3729V46.2865H7.04102Z" fill="#060809"/>
<path d="M7.04492 46.2813V34.5137H28.3689V46.2813H7.04492Z" fill="#06080A"/>
<path d="M7.04883 46.2748V34.519H28.3635V46.2748H7.04883Z" fill="#07090A"/>
<path d="M7.05371 46.2694V34.5242H28.3591V46.2694H7.05371Z" fill="#07090B"/>
<path d="M7.05664 46.2625V34.5278H28.3528V46.2625H7.05664Z" fill="#080A0C"/>
<path d="M7.0625 46.2575V34.5347H28.3494V46.2575H7.0625Z" fill="#080B0C"/>
<path d="M7.06836 46.2523V34.54H28.3473V46.2523H7.06836Z" fill="#090B0D"/>
<path d="M7.07324 46.2458V34.5454H28.3429V46.2458H7.07324Z" fill="#090C0E"/>
<path d="M7.07715 46.2404V34.5505H28.3376V46.2404H7.07715Z" fill="#090C0E"/>
<path d="M7.08105 46.2337V34.5557H28.3335V46.2337H7.08105Z" fill="#0A0D0F"/>
<path d="M7.08594 46.2285V34.561H28.3278V46.2285H7.08594Z" fill="#0A0E10"/>
<path d="M7.08984 46.2219V34.5649H28.3238V46.2219H7.08984Z" fill="#0B0E10"/>
<path d="M7.0957 46.2169V34.5718H28.3204V46.2169H7.0957Z" fill="#0B0F11"/>
<path d="M7.09961 46.2102V34.5757H28.315V46.2102H7.09961Z" fill="#0C0F12"/>
<path d="M7.10352 46.2047V34.582H28.3097V46.2047H7.10352Z" fill="#0C1013"/>
<path d="M7.10742 46.1983V34.5862H28.3043V46.1983H7.10742Z" fill="#0D1113"/>
<path d="M7.11133 46.193V34.5928H28.3003V46.193H7.11133Z" fill="#0D1114"/>
<path d="M7.11719 46.1879V34.5981H28.2968V46.1879H7.11719Z" fill="#0D1215"/>
<path d="M7.12207 46.1811V34.6033H28.2925V46.1811H7.12207Z" fill="#0E1215"/>
<path d="M7.12598 46.1757V34.6084H28.2871V46.1757H7.12598Z" fill="#0E1316"/>
<path d="M7.13086 46.1693V34.6125H28.2827V46.1693H7.13086Z" fill="#0F1417"/>
<path d="M7.13477 46.1641V34.6191H28.2787V46.1641H7.13477Z" fill="#0F1417"/>
<path d="M7.14062 46.1574V34.623H28.2753V46.1574H7.14062Z" fill="#101518"/>
<path d="M7.14453 46.1522V34.6296H28.2699V46.1522H7.14453Z" fill="#101519"/>
<path d="M7.14844 46.1455V34.6335H28.2646V46.1455H7.14844Z" fill="#111619"/>
<path d="M7.15332 46.1403V34.6401H28.2602V46.1403H7.15332Z" fill="#11161A"/>
<path d="M7.15625 46.1336V34.644H28.2552V46.1336H7.15625Z" fill="#11171B"/>
<path d="M7.16211 46.1281V34.6504H28.2518V46.1281H7.16211Z" fill="#12181B"/>
<path d="M7.16602 46.1232V34.656H28.2464V46.1232H7.16602Z" fill="#12181C"/>
<path d="M7.16992 46.1165V34.6599H28.241V46.1165H7.16992Z" fill="#13191D"/>
<path d="M7.17676 46.1113V34.6665H28.2386V46.1113H7.17676Z" fill="#13191E"/>
<path d="M7.18066 46.1046V34.6704H28.2346V46.1046H7.18066Z" fill="#141A1E"/>
<path d="M7.18555 46.0991V34.6768H28.2302V46.0991H7.18555Z" fill="#141B1F"/>
<path d="M7.18945 46.093V34.6812H28.2248V46.093H7.18945Z" fill="#151B20"/>
<path d="M7.19336 46.0875V34.6875H28.2195V46.0875H7.19336Z" fill="#151C20"/>
<path d="M7.19922 46.0808V34.6914H28.2161V46.0808H7.19922Z" fill="#151C21"/>
<path d="M7.20312 46.0758V34.6982H28.212V46.0758H7.20312Z" fill="#161D22"/>
<path d="M7.20703 46.0701V34.7031H28.2067V46.0701H7.20703Z" fill="#161E22"/>
<path d="M7.21094 46.0635V34.707H28.2013V46.0635H7.21094Z" fill="#171E23"/>
<path d="M7.21484 46.0585V34.7139H28.196V46.0585H7.21484Z" fill="#171F24"/>
<path d="M7.2207 46.0519V34.7178H28.1926V46.0519H7.2207Z" fill="#181F24"/>
<path d="M7.22461 46.0468V34.7246H28.1885V46.0468H7.22461Z" fill="#182025"/>
<path d="M7.23047 46.0402V34.7285H28.1851V46.0402H7.23047Z" fill="#192126"/>
<path d="M7.23438 46.0345V34.7334H28.1797V46.0332L7.23438 46.0345Z" fill="#192126"/>
<path d="M7.23828 46.0283V34.739H28.1744V46.0283H7.23828Z" fill="#1A2227"/>
<path d="M7.24414 46.0229V34.7441H28.171V46.0229H7.24414Z" fill="#1A2228"/>
<path d="M7.24805 46.0164V34.7495H28.1669V46.0164H7.24805Z" fill="#1A2329"/>
<path d="M7.25195 46.0112V34.7549H28.1603V46.0112H7.25195Z" fill="#1B2429"/>
<path d="M7.25586 46.0056V34.7598H28.1562V46.0042L7.25586 46.0056Z" fill="#1B242A"/>
<path d="M7.25977 45.9993V34.7654H28.1509V45.9993H7.25977Z" fill="#1C252B"/>
<path d="M7.26562 45.994V34.772H28.1475V45.994H7.26562Z" fill="#1C252B"/>
<path d="M7.26953 45.9872V34.7756H28.1434V45.9872H7.26953Z" fill="#1D262C"/>
<path d="M7.27441 45.9821V34.7825H28.139V45.9821H7.27441Z" fill="#1D262D"/>
<path d="M7.2793 45.9753V34.7861H28.1347V45.9753H7.2793Z" fill="#1E272D"/>
<path d="M7.2832 45.9703V34.7917H28.1293V45.9703H7.2832Z" fill="#1E282E"/>
<path d="M7.28906 45.9636V34.7969H28.1259V45.9636H7.28906Z" fill="#1E282F"/>
<path d="M7.29297 45.9584V34.8022H28.1219V45.9584H7.29297Z" fill="#1F292F"/>
<path d="M7.29883 45.9532V34.8088H28.1185V45.9532H7.29883Z" fill="#1F2930"/>
<path d="M7.30273 45.9465V34.8127H28.1131V45.9465H7.30273Z" fill="#202A31"/>
<path d="M7.30664 45.9413V34.8193H28.1077V45.9413H7.30664Z" fill="#202B31"/>
<path d="M7.31055 45.9346V34.8232H28.1024V45.9346H7.31055Z" fill="#212B32"/>
<path d="M7.31445 45.9291V34.8296H28.097V45.9291H7.31445Z" fill="#212C33"/>
<path d="M7.32031 45.923V34.834H28.0949V45.923H7.32031Z" fill="#222C33"/>
<path d="M7.32422 45.9175V34.8391H28.0896V45.9175H7.32422Z" fill="#222D34"/>
<path d="M7.32812 45.9108V34.8442H28.0842V45.9108H7.32812Z" fill="#222E35"/>
<path d="M7.33301 45.9056V34.8496H28.0798V45.9056H7.33301Z" fill="#232E36"/>
<path d="M7.33691 45.8992V34.855H28.0745V45.8992H7.33691Z" fill="#232F36"/>
<path d="M7.34375 45.894V34.8604H28.0734V45.894H7.34375Z" fill="#242F37"/>
<path d="M7.34766 45.8886V34.8655H28.068V45.8872L7.34766 45.8886Z" fill="#243038"/>
<path d="M7.35156 45.8818V34.8706H28.0627V45.8818H7.35156Z" fill="#253138"/>
<path d="M7.35547 45.8768V34.8774H28.0573V45.8768H7.35547Z" fill="#253139"/>
<path d="M7.35938 45.8702V34.8813H28.0519V45.8702H7.35938Z" fill="#26323A"/>
<path d="M7.36523 45.865V34.8867H28.0499V45.865H7.36523Z" fill="#26323A"/>
<path d="M7.36914 45.8583V34.8918H28.0445V45.8583H7.36914Z" fill="#27333B"/>
<path d="M7.37305 45.8529V34.897H28.0391V45.8529H7.37305Z" fill="#27343C"/>
<path d="M7.37793 45.8464V34.9023H28.0348V45.8464H7.37793Z" fill="#27343C"/>
<path d="M7.38184 45.8412V34.9077H28.0294V45.8412H7.38184Z" fill="#28353D"/>
<path d="M7.38672 45.8359V34.9143H28.0263V45.8359H7.38672Z" fill="#28353E"/>
<path d="M7.39062 45.8293V34.9182H28.021V45.8293H7.39062Z" fill="#29363E"/>
<path d="M7.39648 45.8239V34.9233H28.0176V45.8239H7.39648Z" fill="#29363F"/>
<path d="M7.40234 45.8174V34.9287H28.0142V45.8174H7.40234Z" fill="#2A3740"/>
<path d="M7.40527 45.8122V34.9341H28.0078V45.8122H7.40527Z" fill="#2A3841"/>
<path d="M7.41016 45.8052V34.939H28.0048V45.8052H7.41016Z" fill="#2B3841"/>
<path d="M7.41406 45.8003V34.9446H27.9994V45.8003H7.41406Z" fill="#2B3942"/>
<path d="M7.41797 45.7936V34.9497H27.994V45.7936H7.41797Z" fill="#2B3943"/>
<path d="M7.42383 45.7884V34.9551H27.9906V45.7884H7.42383Z" fill="#2C3A43"/>
<path d="M7.42773 45.7819V34.9604H27.9853V45.7819H7.42773Z" fill="#2C3B44"/>
<path d="M7.43262 45.7763V34.9653H27.9822V45.7763H7.43262Z" fill="#2D3B45"/>
<path d="M7.43652 45.7713V34.9709H27.9769V45.7713H7.43652Z" fill="#2D3C45"/>
<path d="M7.44043 45.7646V34.9761H27.9715V45.7646H7.44043Z" fill="#2E3C46"/>
<path d="M7.44531 45.7594V34.9814H27.9671V45.7594H7.44531Z" fill="#2E3D47"/>
<path d="M7.44922 45.7529V34.9868H27.9618V45.7529H7.44922Z" fill="#2F3E47"/>
<path d="M7.45508 45.7475V34.9919H27.9597V45.7475H7.45508Z" fill="#2F3E48"/>
<path d="M7.45898 45.741V34.9973H27.9543V45.741H7.45898Z" fill="#2F3F49"/>
<path d="M7.46289 45.7356V35.0024H27.949V45.7356H7.46289Z" fill="#303F49"/>
<path d="M7.46875 45.7291V35.0078H27.9456V45.7291H7.46875Z" fill="#30404A"/>
<path d="M7.47266 45.724V35.0132H27.9402V45.724H7.47266Z" fill="#31414B"/>
<path d="M7.47754 45.7173V35.0171H27.9358V45.7173H7.47754Z" fill="#31414C"/>
<path d="M7.48145 45.7121V35.0237H27.9318V45.7121H7.48145Z" fill="#32424C"/>
<path d="M7.48535 45.7066V35.0288H27.9264V45.7066H7.48535Z" fill="#32424D"/>
<path d="M7.49023 45.7002V35.0342H27.922V45.7002H7.49023Z" fill="#33434E"/>
<path d="M7.49414 45.695V35.0396H27.9167V45.695H7.49414Z" fill="#33434E"/>
<path d="M7.5 45.6882V35.0447H27.9146V45.6882H7.5Z" fill="#33444F"/>
<path d="M7.50391 45.6828V35.0498H27.9092V45.6828H7.50391Z" fill="#344550"/>
<path d="M7.50879 45.6764V35.054H27.9049V45.6764H7.50879Z" fill="#344550"/>
<path d="M7.51367 45.6712V35.0605H27.9005V45.6712H7.51367Z" fill="#354651"/>
<path d="M7.51758 45.6645V35.0645H27.8964V45.6645H7.51758Z" fill="#354652"/>
<path d="M7.52344 45.6593V35.071H27.893V45.6593H7.52344Z" fill="#364752"/>
<path d="M7.52734 45.6539V35.0762H27.8877V45.6539H7.52734Z" fill="#364853"/>
<path d="M7.53125 45.6474V35.0815H27.8823V45.6474H7.53125Z" fill="#374854"/>
<path d="M7.53613 45.6422V35.0869H27.8779V45.6422H7.53613Z" fill="#374954"/>
<path d="M7.54004 45.6357V35.0923H27.8726V45.6357H7.54004Z" fill="#384955"/>
<path d="M7.54492 45.6303V35.0974H27.8695V45.6303H7.54492Z" fill="#384A56"/>
<path d="M7.54883 45.6236V35.1025H27.8641V45.6249L7.54883 45.6236Z" fill="#384B57"/>
<path d="M7.55273 45.6184V35.1079H27.8588V45.6184H7.55273Z" fill="#394B57"/>
<path d="M7.55762 45.6118V35.1118H27.8544V45.6118H7.55762Z" fill="#394C58"/>
<path d="M7.5625 45.6062V35.1182H27.85V45.6062H7.5625Z" fill="#3A4C59"/>
<path d="M7.56836 45.6001V35.1226H27.8466V45.6001H7.56836Z" fill="#3A4D59"/>
<path d="M7.57227 45.5946V35.1289H27.8426V45.5946H7.57227Z" fill="#3B4E5A"/>
<path d="M7.57617 45.5894V35.1343H27.8372V45.5894H7.57617Z" fill="#3B4E5B"/>
<path d="M7.58105 45.5829V35.1396H27.8328V45.5829H7.58105Z" fill="#3C4F5B"/>
<path d="M7.58496 45.5773V35.1445H27.8275V45.5773H7.58496Z" fill="#3C4F5C"/>
<path d="M7.58984 45.5711V35.1489H27.8231V45.5711H7.58984Z" fill="#3C505D"/>
<path d="M7.59375 45.5656V35.1553H27.8191V45.5656H7.59375Z" fill="#3D515D"/>
<path d="M7.59766 45.559V35.1592H27.8137V45.559H7.59766Z" fill="#3D515E"/>
<path d="M7.60352 45.5539V35.166H27.8103V45.5539H7.60352Z" fill="#3E525F"/>
<path d="M7.60742 45.5473V35.1699H27.8049V45.5473H7.60742Z" fill="#3E525F"/>
<path d="M7.6123 45.542V35.1765H27.8006V45.542H7.6123Z" fill="#3F5360"/>
<path d="M7.61719 45.5366V35.1816H27.7975V45.5366H7.61719Z" fill="#3F5361"/>
<path d="M7.62109 45.5301V35.187H27.7921V45.5301H7.62109Z" fill="#405461"/>
<path d="M7.62695 45.525V35.1924H27.7887V45.525H7.62695Z" fill="#405562"/>
<path d="M7.63086 45.5183V35.1963H27.7834V45.5183H7.63086Z" fill="#405563"/>
<path d="M7.63574 45.5131V35.2029H27.779V45.5131H7.63574Z" fill="#415664"/>
<path d="M7.63867 45.5063V35.208H27.774V45.5076L7.63867 45.5063Z" fill="#415664"/>
<path d="M7.64453 45.5012V35.2134H27.7706V45.5012H7.64453Z" fill="#425765"/>
<path d="M7.64844 45.4945V35.2173H27.7652V45.4945H7.64844Z" fill="#425866"/>
<path d="M7.65234 45.4892V35.2239H27.7599V45.4892H7.65234Z" fill="#435866"/>
<path d="M7.65723 45.4824V35.2275H27.7555V45.4824H7.65723Z" fill="#435967"/>
<path d="M7.66113 45.4773V35.2344H27.7514V45.4787L7.66113 45.4773Z" fill="#445968"/>
<path d="M7.66602 45.4722V35.2397H27.7471V45.4722H7.66602Z" fill="#445A68"/>
<path d="M7.67188 45.4655V35.2437H27.7436V45.4655H7.67188Z" fill="#455B69"/>
<path d="M7.67578 45.4603V35.2502H27.7383V45.4603H7.67578Z" fill="#455B6A"/>
<path d="M7.68066 45.4536V35.2542H27.7339V45.4536H7.68066Z" fill="#455C6A"/>
<path d="M7.68457 45.4484V35.2607H27.7299V45.4484H7.68457Z" fill="#465C6B"/>
<path d="M7.68945 45.4417V35.2646H27.7242V45.4417H7.68945Z" fill="#465D6C"/>
<path d="M7.69336 45.4367V35.2715H27.7201V45.4367H7.69336Z" fill="#475E6C"/>
<path d="M7.69727 45.4301V35.2754H27.7148V45.4301H7.69727Z" fill="#475E6D"/>
<path d="M7.70312 45.4247V35.2805H27.7114V45.4247H7.70312Z" fill="#485F6E"/>
<path d="M7.70703 45.4194V35.2871H27.7073V45.4194H7.70703Z" fill="#485F6F"/>
<path d="M7.71094 45.4128V35.291H27.702V45.4128H7.71094Z" fill="#49606F"/>
<path d="M7.71484 45.4072V35.2974H27.6966V45.4072H7.71484Z" fill="#496170"/>
<path d="M7.71973 45.4011V35.3018H27.6922V45.4011H7.71973Z" fill="#496171"/>
<path d="M7.72461 45.3956V35.3081H27.6878V45.3956H7.72461Z" fill="#4A6271"/>
<path d="M7.73047 45.3894V35.3125H27.6858V45.3894H7.73047Z" fill="#4A6272"/>
<path d="M7.73535 45.3839V35.3188H27.6814V45.3839H7.73535Z" fill="#4B6373"/>
<path d="M7.73828 45.3773V35.3228H27.675V45.3773H7.73828Z" fill="#4B6373"/>
<path d="M7.74219 45.3721V35.3281H27.671V45.3721H7.74219Z" fill="#4C6474"/>
<path d="M7.74805 45.3654V35.3333H27.6663V45.3654H7.74805Z" fill="#4C6575"/>
<path d="M7.75195 45.36V35.3384H27.6622V45.36H7.75195Z" fill="#4D6575"/>
<path d="M7.75684 45.3549V35.3452H27.6579V45.3549H7.75684Z" fill="#4D6676"/>
<path d="M7.76074 45.3483V35.3491H27.6525V45.3483H7.76074Z" fill="#4D6677"/>
<path d="M7.76465 45.343V35.3557H27.6471V45.343H7.76465Z" fill="#4E6777"/>
<path d="M7.76953 45.3364V35.3596H27.6428V45.3364H7.76953Z" fill="#4E6878"/>
<path d="M7.77344 45.3311V35.3662H27.6387V45.3311H7.77344Z" fill="#4F6879"/>
<path d="M7.7793 45.3245V35.3701H27.6353V45.3245H7.7793Z" fill="#4F697A"/>
<path d="M7.78418 45.3193V35.3755H27.6309V45.3193H7.78418Z" fill="#50697A"/>
<path d="M7.78809 45.3128V35.3809H27.6256V45.3128H7.78809Z" fill="#506A7B"/>
<path d="M7.79297 45.3074V35.386H27.6212V45.3074H7.79297Z" fill="#516B7C"/>
<path d="M7.79688 45.3007V35.3911H27.6172V45.3007H7.79688Z" fill="#516B7C"/>
<path d="M7.80273 45.2955V35.3965H27.6137V45.2955H7.80273Z" fill="#516C7D"/>
<path d="M7.80566 45.2903V35.4031H27.6074V45.2903H7.80566Z" fill="#526C7E"/>
<path d="M7.80957 45.2834V35.4067H27.6021V45.2834H7.80957Z" fill="#526D7E"/>
<path d="M7.81445 45.2784V35.4124H27.5977V45.2784H7.81445Z" fill="#536E7F"/>
<path d="M7.81836 45.2717V35.4175H27.5936V45.2717H7.81836Z" fill="#536E80"/>
<path d="M7.82422 45.2665V35.4229H27.5902V45.2665H7.82422Z" fill="#546F80"/>
<path d="M7.82812 45.2601V35.4282H27.5849V45.2601H7.82812Z" fill="#546F81"/>
<path d="M7.83203 45.2546V35.4333H27.5795V45.2546H7.83203Z" fill="#557082"/>
<path d="M7.83789 45.2481V35.4387H27.5761V45.2481H7.83789Z" fill="#557082"/>
<path d="M7.8418 45.2427V35.4438H27.5721V45.2427H7.8418Z" fill="#567183"/>
<path d="M7.84766 45.2377V35.4507H27.5687V45.2377H7.84766Z" fill="#567284"/>
<path d="M7.85156 45.2311V35.4546H27.5633V45.2311H7.85156Z" fill="#567285"/>
<path d="M7.85547 45.2257V35.4597H27.5579V45.2257H7.85547Z" fill="#577385"/>
<path d="M7.86035 45.2192V35.4651H27.5536V45.2192H7.86035Z" fill="#577386"/>
<path d="M7.86426 45.2138V35.4702H27.5482V45.2138H7.86426Z" fill="#587487"/>
<path d="M7.86914 45.2073V35.4756H27.5451V45.2073H7.86914Z" fill="#587587"/>
<path d="M7.87305 45.2021V35.481H27.5398V45.2021H7.87305Z" fill="#597588"/>
<path d="M7.87695 45.1954V35.4861H27.5344V45.1954H7.87695Z" fill="#597689"/>
<path d="M7.88281 45.1904V35.4917H27.531V45.1904H7.88281Z" fill="#5A7689"/>
<path d="M27.5257 35.4966H7.88672V45.1835H27.5257V35.4966Z" fill="#5A778A"/>
</g>
<path d="M14.8372 46.3671H13.4023V34.4374H14.8372V46.3671ZM22.014 34.436H20.5792V46.3657H22.014V34.436Z" fill="#162433"/>
<path d="M28.4221 34.436H26.9873V46.3657H28.4221V34.436Z" fill="#162433"/>
<path d="M8.3821 34.436H6.94727V46.3657H8.3821V34.436Z" fill="#162433"/>
<path d="M28.4209 41.1155V39.687H6.97518V41.1155H28.4209Z" fill="#162433"/>
<path d="M28.4209 35.926V34.4976H6.97518V35.926H28.4209Z" fill="#162433"/>
<path d="M28.4209 46.3625V44.9341H6.97518V46.3625H28.4209Z" fill="#162433"/>
<path d="M42.0308 34.9023H33.4668V49.5888H42.0308V34.9023Z" fill="url(#paint3_radial_246_445)"/>
<path d="M42.3908 49.9988H33.1055V34.4927H42.3908V49.9988ZM33.8269 49.1805H41.6695V35.311H33.8269V49.1805Z" fill="#611600"/>
<path d="M40.2226 43.05C40.7081 43.05 41.1016 42.6583 41.1016 42.175C41.1016 41.6918 40.7081 41.3 40.2226 41.3C39.7372 41.3 39.3438 41.6918 39.3438 42.175C39.3438 42.6583 39.7372 43.05 40.2226 43.05Z" fill="url(#paint4_radial_246_445)"/>
<path d="M35.6597 2.6487C33.7312 2.28895 31.9614 2.90567 30.6881 4.05607C30.4842 1.78689 28.5901 0 26.2578 0C24.234 0 22.5437 1.34807 21.9931 3.18372C21.3577 2.44313 20.4245 1.96478 19.3709 1.96478C17.7918 1.96478 16.4748 3.02295 16.0578 4.46063C11.797 4.98378 9.90287 6.77198 9.09545 7.97247C8.9194 8.2347 9.20134 8.46926 9.49916 8.35989C12.8228 7.13173 14.9407 8.96474 14.9407 9.18349C14.9407 11.4869 16.8163 13.3529 19.1287 13.3529C19.9996 13.3529 20.8084 13.088 21.4782 12.6347C22.2803 14.5178 24.1532 15.8395 26.3373 15.8395C28.4233 15.8395 30.2089 14.6245 31.0653 12.8759C32.0395 13.6178 33.2427 14.075 34.5637 14.075C38.1561 14.075 40.9847 10.8175 40.2303 7.1067C39.7762 4.85991 37.9218 3.07039 35.6597 2.6487ZM16.03 6.27651C16.038 6.30681 16.0486 6.3358 16.0578 6.36611C16.0472 6.37797 16.038 6.39115 16.0274 6.40301L16.03 6.27651Z" fill="url(#paint5_radial_246_445)"/>
<defs>
<radialGradient id="paint0_radial_246_445" cx="0" cy="0" r="1" gradientUnits="userSpaceOnUse" gradientTransform="translate(8.42092 19.9391) scale(14.8804 14.8143)">
<stop stop-color="#F5F5F5"/>
<stop offset="0.136" stop-color="#ECECEB"/>
<stop offset="0.364" stop-color="#D3D2D1"/>
<stop offset="0.657" stop-color="#AAA9A6"/>
<stop offset="1" stop-color="#73706C"/>
</radialGradient>
<radialGradient id="paint1_radial_246_445" cx="0" cy="0" r="1" gradientUnits="userSpaceOnUse" gradientTransform="translate(24.9993 34.7642) scale(30.6781 24.3846)">
<stop stop-color="#EB4B1A"/>
<stop offset="0.295" stop-color="#E14515"/>
<stop offset="0.789" stop-color="#C73407"/>
<stop offset="1" stop-color="#BA2B00"/>
</radialGradient>
<linearGradient id="paint2_linear_246_445" x1="17.7069" y1="46.2982" x2="17.7069" y2="35.067" gradientUnits="userSpaceOnUse">
<stop offset="0.005" stop-color="#2688C7"/>
<stop offset="0.155" stop-color="#2585C3"/>
<stop offset="0.303" stop-color="#237DB7"/>
<stop offset="0.452" stop-color="#1F6FA3"/>
<stop offset="0.6" stop-color="#1A5B87"/>
<stop offset="0.748" stop-color="#134263"/>
<stop offset="0.862" stop-color="#0D2A42"/>
</linearGradient>
<radialGradient id="paint3_radial_246_445" cx="0" cy="0" r="1" gradientUnits="userSpaceOnUse" gradientTransform="translate(37.7529 42.2469) scale(7.93291 10.5287)">
<stop stop-color="#B36A34"/>
<stop offset="0.436" stop-color="#834923"/>
<stop offset="0.801" stop-color="#613217"/>
<stop offset="1" stop-color="#542913"/>
</radialGradient>
<radialGradient id="paint4_radial_246_445" cx="0" cy="0" r="1" gradientUnits="userSpaceOnUse" gradientTransform="translate(40.2227 42.175) scale(0.877577 0.873679)">
<stop stop-color="#FF9E00"/>
<stop offset="1" stop-color="#9E4F00"/>
</radialGradient>
<radialGradient id="paint5_radial_246_445" cx="0" cy="0" r="1" gradientUnits="userSpaceOnUse" gradientTransform="translate(26.0302 7.8042) scale(17.9447 11.2835)">
<stop stop-color="#F7F7F7"/>
<stop offset="0.144" stop-color="#F2F3F4"/>
<stop offset="0.314" stop-color="#E4E8EA"/>
<stop offset="0.497" stop-color="#CCD5D9"/>
<stop offset="0.687" stop-color="#ABBBC3"/>
<stop offset="0.82" stop-color="#90A5B0"/>
</radialGradient>
</defs>
</svg>
