<svg width="50" height="50" viewBox="0 0 50 50" fill="none" xmlns="http://www.w3.org/2000/svg">
<path d="M0.657898 5.92105H44.079V49.3421H0.657898V5.92105Z" fill="#C2E8FF"/>
<path d="M43.4211 6.57895V48.6842H1.31579V6.57895H43.4211ZM44.7368 5.26316H0V50H44.7368V5.26316Z" fill="#7496C4"/>
<path d="M44.7368 13.8895V22.3684H41.6671V13.8895H44.7368Z" fill="#C2E8FF"/>
<path d="M27.6316 5.26316H36.1105V8.33289H27.6316V5.26316Z" fill="#C2E8FF"/>
<path d="M23.2987 19.7368L36.4566 6.57895L30.5355 0.657894H49.3421V19.4645L43.421 13.5434L30.2631 26.7013L23.2987 19.7368Z" fill="#8BB7F0"/>
<path d="M48.6842 1.31579V17.8763L44.3513 13.5434L43.421 12.6132L42.4908 13.5434L30.2631 25.7711L24.2289 19.7368L36.4566 7.50921L37.3868 6.57895L36.4566 5.64868L32.1237 1.31579H48.6842ZM50 0H28.9474L35.5263 6.57895L22.3684 19.7368L30.2631 27.6316L43.421 14.4737L50 21.0526V0Z" fill="#4E7AB5"/>
</svg>
