<svg width="50" height="50" viewBox="0 0 50 50" fill="none" xmlns="http://www.w3.org/2000/svg">
<path d="M49.1667 10.8333V15.8333H0.833374V10.8333C0.833374 9.50725 1.36016 8.23548 2.29784 7.29779C3.23552 6.36011 4.50729 5.83333 5.83337 5.83333H44.1667C45.4928 5.83333 46.7646 6.36011 47.7022 7.29779C48.6399 8.23548 49.1667 9.50725 49.1667 10.8333Z" fill="#F44335"/>
<path d="M44.1666 5.83333H41.6666C42.9927 5.83333 44.2645 6.36011 45.2022 7.29779C46.1398 8.23548 46.6666 9.50725 46.6666 10.8333V15.8333H49.1666V10.8333C49.1666 9.50725 48.6398 8.23548 47.7022 7.29779C46.7645 6.36011 45.4927 5.83333 44.1666 5.83333Z" fill="#C81E1E"/>
<path d="M49.1667 15.8333V44.1667C49.1667 45.4927 48.6399 46.7645 47.7022 47.7022C46.7646 48.6399 45.4928 49.1667 44.1667 49.1667H5.83337C4.50729 49.1667 3.23552 48.6399 2.29784 47.7022C1.36016 46.7645 0.833374 45.4927 0.833374 44.1667V15.8333H49.1667Z" fill="#F5F5F5"/>
<path d="M46.6666 15.8333V44.1667C46.6666 45.4927 46.1398 46.7645 45.2022 47.7022C44.2645 48.6399 42.9927 49.1667 41.6666 49.1667H44.1666C45.4927 49.1667 46.7645 48.6399 47.7022 47.7022C48.6398 46.7645 49.1666 45.4927 49.1666 44.1667V15.8333H46.6666Z" fill="#CFD8DC"/>
<path d="M34.6233 26.6667L24.0333 42.2392C23.8334 42.5332 23.5731 42.7813 23.2697 42.9668C22.9664 43.1523 22.6269 43.2709 22.274 43.3147C21.9212 43.3586 21.563 43.3267 21.2235 43.2211C20.8839 43.1155 20.5708 42.9387 20.305 42.7025L13.405 36.5692C12.9198 36.1258 12.6288 35.5093 12.5948 34.853C12.5608 34.1966 12.7866 33.5533 13.2233 33.0622C13.6601 32.5712 14.2727 32.2718 14.9285 32.229C15.5843 32.1861 16.2306 32.4032 16.7275 32.8333L21.5 37.0742L32.9333 20.2617C33.308 19.7179 33.8825 19.3445 34.5315 19.2229C35.1806 19.1012 35.8513 19.2413 36.3974 19.6126C36.9435 19.9838 37.3206 20.556 37.4463 21.2042C37.572 21.8524 37.4361 22.5241 37.0683 23.0725L34.6233 26.6667Z" fill="#60A917"/>
<path d="M14.2275 32.8333L19 37.0742L19.9425 35.6892L16.7275 32.8333C16.3357 32.4865 15.8446 32.2719 15.3239 32.2198C14.8032 32.1678 14.2794 32.281 13.8267 32.5433C13.9692 32.6267 14.1033 32.7242 14.2275 32.8333ZM36.4058 19.6C36.0156 19.3362 35.5587 19.1884 35.0879 19.1736C34.6171 19.1589 34.1518 19.2778 33.7458 19.5167C33.7983 19.5475 33.8542 19.5683 33.9058 19.6C34.454 19.9728 34.8316 20.5481 34.9557 21.1993C35.0798 21.8504 34.9401 22.5243 34.5675 23.0725L32.1233 26.6667L21.5333 42.2392C21.3208 42.5493 21.0407 42.8071 20.7142 42.9933C21.1845 43.268 21.7319 43.381 22.2725 43.315C22.6254 43.2711 22.9648 43.1524 23.2682 42.9669C23.5715 42.7814 23.8318 42.5333 24.0317 42.2392L34.6233 26.6667L37.0675 23.0725C37.4401 22.5243 37.5798 21.8504 37.4557 21.1993C37.3316 20.5481 36.954 19.9728 36.4058 19.6Z" fill="#549414"/>
<path d="M40 46.6667H34.1667C33.9457 46.6667 33.7337 46.5789 33.5775 46.4226C33.4212 46.2663 33.3334 46.0543 33.3334 45.8333C33.3334 45.6123 33.4212 45.4004 33.5775 45.2441C33.7337 45.0878 33.9457 45 34.1667 45H40C40.2211 45 40.433 45.0878 40.5893 45.2441C40.7456 45.4004 40.8334 45.6123 40.8334 45.8333C40.8334 46.0543 40.7456 46.2663 40.5893 46.4226C40.433 46.5789 40.2211 46.6667 40 46.6667ZM45 46.6667H43.3334C43.1124 46.6667 42.9004 46.5789 42.7441 46.4226C42.5878 46.2663 42.5 46.0543 42.5 45.8333C42.5 45.6123 42.5878 45.4004 42.7441 45.2441C42.9004 45.0878 43.1124 45 43.3334 45H45C45.2211 45 45.433 45.0878 45.5893 45.2441C45.7456 45.4004 45.8334 45.6123 45.8334 45.8333C45.8334 46.0543 45.7456 46.2663 45.5893 46.4226C45.433 46.5789 45.2211 46.6667 45 46.6667Z" fill="#9E9E9E"/>
<path d="M5.83333 50H44.1667C45.7132 49.9982 47.1959 49.3831 48.2895 48.2895C49.3831 47.1959 49.9982 45.7132 50 44.1667V10.8333C49.9982 9.28678 49.3831 7.80407 48.2895 6.71049C47.1959 5.61691 45.7132 5.00176 44.1667 5H41.6667V0.833333C41.6667 0.61232 41.5789 0.400358 41.4226 0.244078C41.2663 0.0877974 41.0543 0 40.8333 0C40.6123 0 40.4004 0.0877974 40.2441 0.244078C40.0878 0.400358 40 0.61232 40 0.833333V5H10V0.833333C10 0.61232 9.9122 0.400358 9.75592 0.244078C9.59964 0.0877974 9.38768 0 9.16667 0C8.94565 0 8.73369 0.0877974 8.57741 0.244078C8.42113 0.400358 8.33333 0.61232 8.33333 0.833333V5H5.83333C4.28678 5.00176 2.80407 5.61691 1.71049 6.71049C0.616913 7.80407 0.00176447 9.28678 0 10.8333L0 44.1667C0.00176447 45.7132 0.616913 47.1959 1.71049 48.2895C2.80407 49.3831 4.28678 49.9982 5.83333 50ZM1.66667 16.6667H3.33333C3.55435 16.6667 3.76631 16.5789 3.92259 16.4226C4.07887 16.2663 4.16667 16.0543 4.16667 15.8333C4.16667 15.6123 4.07887 15.4004 3.92259 15.2441C3.76631 15.0878 3.55435 15 3.33333 15H1.66667V10.8333C1.66799 9.72867 2.1074 8.66963 2.88852 7.88852C3.66963 7.1074 4.72867 6.66799 5.83333 6.66667H8.33333C8.33333 6.88768 8.42113 7.09964 8.57741 7.25592C8.73369 7.4122 8.94565 7.5 9.16667 7.5C9.38768 7.5 9.59964 7.4122 9.75592 7.25592C9.9122 7.09964 10 6.88768 10 6.66667H40C40 6.88768 40.0878 7.09964 40.2441 7.25592C40.4004 7.4122 40.6123 7.5 40.8333 7.5C41.0543 7.5 41.2663 7.4122 41.4226 7.25592C41.5789 7.09964 41.6667 6.88768 41.6667 6.66667H44.1667C45.2713 6.66799 46.3304 7.1074 47.1115 7.88852C47.8926 8.66963 48.332 9.72867 48.3333 10.8333V15H7.5C7.27899 15 7.06702 15.0878 6.91074 15.2441C6.75446 15.4004 6.66667 15.6123 6.66667 15.8333C6.66667 16.0543 6.75446 16.2663 6.91074 16.4226C7.06702 16.5789 7.27899 16.6667 7.5 16.6667H48.3333V44.1667C48.332 45.2713 47.8926 46.3304 47.1115 47.1115C46.3304 47.8926 45.2713 48.332 44.1667 48.3333H5.83333C4.72867 48.332 3.66963 47.8926 2.88852 47.1115C2.1074 46.3304 1.66799 45.2713 1.66667 44.1667V16.6667Z" fill="black"/>
<path d="M9.16671 11.6667C9.38772 11.6667 9.59968 11.5789 9.75596 11.4226C9.91224 11.2663 10 11.0544 10 10.8333V10C10 9.77899 9.91224 9.56703 9.75596 9.41075C9.59968 9.25447 9.38772 9.16667 9.16671 9.16667C8.94569 9.16667 8.73373 9.25447 8.57745 9.41075C8.42117 9.56703 8.33337 9.77899 8.33337 10V10.8333C8.33337 11.0544 8.42117 11.2663 8.57745 11.4226C8.73373 11.5789 8.94569 11.6667 9.16671 11.6667ZM40.8334 11.6667C41.0544 11.6667 41.2664 11.5789 41.4226 11.4226C41.5789 11.2663 41.6667 11.0544 41.6667 10.8333V10C41.6667 9.77899 41.5789 9.56703 41.4226 9.41075C41.2664 9.25447 41.0544 9.16667 40.8334 9.16667C40.6124 9.16667 40.4004 9.25447 40.2441 9.41075C40.0878 9.56703 40 9.77899 40 10V10.8333C40 11.0544 40.0878 11.2663 40.2441 11.4226C40.4004 11.5789 40.6124 11.6667 40.8334 11.6667ZM19.75 43.325C20.1044 43.6407 20.5222 43.8769 20.9754 44.0178C21.4286 44.1587 21.9067 44.2009 22.3775 44.1417C22.8479 44.0831 23.3004 43.9249 23.7048 43.6776C24.1091 43.4303 24.4561 43.0995 24.7225 42.7075L35.3125 27.1358C35.3741 27.0453 35.4172 26.9436 35.4395 26.8364C35.4617 26.7293 35.4626 26.6188 35.4421 26.5112C35.4217 26.4037 35.3802 26.3013 35.3202 26.2098C35.2601 26.1183 35.1826 26.0395 35.0921 25.9779C35.0016 25.9164 34.8999 25.8732 34.7927 25.851C34.6855 25.8288 34.575 25.8279 34.4675 25.8483C34.36 25.8688 34.2576 25.9102 34.1661 25.9703C34.0745 26.0303 33.9958 26.1078 33.9342 26.1983L23.3442 41.7708C23.2119 41.9664 23.0393 42.1314 22.8382 42.255C22.637 42.3786 22.4118 42.4578 22.1775 42.4875C21.9417 42.5167 21.7024 42.4954 21.4754 42.4251C21.2485 42.3549 21.039 42.2373 20.8609 42.08L13.9609 35.9467C13.6302 35.6531 13.4298 35.2401 13.4036 34.7987C13.3774 34.3573 13.5277 33.9236 13.8213 33.5929C14.1149 33.2623 14.5278 33.0618 14.9693 33.0357C15.4107 33.0095 15.8444 33.1597 16.175 33.4533L20.9475 37.695C21.0361 37.7738 21.1404 37.8327 21.2535 37.868C21.3666 37.9032 21.4859 37.9139 21.6035 37.8994C21.7211 37.8849 21.8342 37.8455 21.9353 37.7838C22.0365 37.7221 22.1233 37.6396 22.19 37.5417L33.6234 20.7292C33.7437 20.5421 33.9003 20.3811 34.0839 20.2555C34.2674 20.1299 34.4743 20.0423 34.6922 19.9979C34.9101 19.9534 35.1348 19.9531 35.3528 19.9969C35.5709 20.0406 35.778 20.1276 35.962 20.2526C36.1459 20.3776 36.303 20.5382 36.4239 20.7249C36.5448 20.9116 36.6271 21.1206 36.666 21.3396C36.7049 21.5586 36.6995 21.7831 36.6503 22C36.601 22.2169 36.5089 22.4218 36.3792 22.6025C36.3177 22.6931 36.2745 22.7949 36.2523 22.9021C36.2301 23.0093 36.2292 23.1198 36.2497 23.2274C36.2702 23.335 36.3117 23.4374 36.3718 23.529C36.4319 23.6205 36.5095 23.6993 36.6 23.7608C36.6906 23.8224 36.7924 23.8655 36.8996 23.8877C37.0068 23.9099 37.1174 23.9108 37.2249 23.8903C37.3325 23.8698 37.435 23.8283 37.5265 23.7682C37.618 23.7081 37.6968 23.6306 37.7584 23.54C38.0046 23.1779 38.1771 22.7709 38.266 22.3422C38.355 21.9135 38.3586 21.4714 38.2767 21.0413C38.1948 20.6111 38.0289 20.2014 37.7887 19.8353C37.5484 19.4693 37.2384 19.1542 36.8763 18.9079C36.5142 18.6617 36.1072 18.4892 35.6785 18.4003C35.2497 18.3113 34.8077 18.3077 34.3776 18.3896C33.9474 18.4715 33.5377 18.6374 33.1716 18.8776C32.8056 19.1179 32.4904 19.4279 32.2442 19.79L21.3442 35.8208L17.2809 32.2092C16.9542 31.9152 16.5727 31.6888 16.1582 31.5429C15.7437 31.3969 15.3044 31.3344 14.8657 31.3589C14.4269 31.3834 13.9973 31.4943 13.6016 31.6854C13.2059 31.8765 12.8519 32.144 12.56 32.4724C12.268 32.8009 12.0439 33.1838 11.9004 33.5991C11.757 34.0145 11.6971 34.4541 11.7243 34.8927C11.7514 35.3313 11.8649 35.7602 12.0584 36.1548C12.2519 36.5493 12.5215 36.9017 12.8517 37.1917L19.75 43.325Z" fill="black"/>
</svg>
