<svg width="50.000000" height="50.000000" viewBox="0 0 50 50" fill="none" xmlns="http://www.w3.org/2000/svg" xmlns:xlink="http://www.w3.org/1999/xlink">
	<desc>
			Created with Pixso.
	</desc>
	<defs/>
	<path id="path" d="M18.42 8.31L18.86 9.05L8.96 19.06L0 10.1L10.1 0L18.42 8.31Z" fill="#C5C5C5" fill-opacity="1.000000" fill-rule="evenodd"/>
	<path id="path" d="M4.18 5.91L5.03 5.06L6.06 6.09L6.44 5.71C6.67 5.47 7.05 5.47 7.29 5.71L8.9 7.32C9.13 7.55 9.13 7.93 8.9 8.17L8.52 8.55L11.36 11.39L11.8 10.92C12.03 10.69 12.41 10.69 12.65 10.92L14.23 12.5C14.47 12.74 14.47 13.12 14.23 13.35C14 13.59 13.62 13.59 13.38 13.35L12.24 12.21L11.77 12.65C11.54 12.88 11.15 12.88 10.92 12.65L7.26 8.99C7.03 8.75 7.03 8.37 7.26 8.14L7.64 7.76L6.85 6.97L6.47 7.35C6.23 7.58 5.85 7.58 5.62 7.35L4.18 5.91Z" fill="#727A7D" fill-opacity="1.000000" fill-rule="evenodd"/>
	<path id="path" d="M5.33 11.68C5.09 11.92 4.74 11.92 4.51 11.68C4.27 11.45 4.27 11.07 4.51 10.83L5.38 9.95C5.62 9.72 6 9.72 6.23 9.95C6.47 10.19 6.47 10.54 6.23 10.77L5.33 11.68ZM10.54 6.47C10.31 6.7 9.92 6.7 9.69 6.47C9.46 6.23 9.46 5.85 9.69 5.62L10.6 4.74C10.83 4.51 11.21 4.51 11.45 4.74C11.68 4.97 11.68 5.36 11.45 5.59L10.54 6.47Z" fill="#404042" fill-opacity="1.000000" fill-rule="nonzero"/>
	<path id="path" d="M22.02 9.84L9.69 21.47L7.49 19.24L19.24 7.49L22.02 9.84Z" fill="#34495E" fill-opacity="1.000000" fill-rule="evenodd"/>
	<path id="path" d="M22.02 9.84L9.69 21.47L8.31 20.09L20.15 8.26L22.02 9.84Z" fill="#2F4255" fill-opacity="1.000000" fill-rule="evenodd"/>
	<path id="path" d="M22.55 7.29L7.29 22.55L32.86 48.15C35.32 50.61 39.33 50.61 41.79 48.15L48.15 41.79C50.61 39.33 50.61 35.32 48.15 32.86L22.55 7.29Z" fill="#34495E" fill-opacity="1.000000" fill-rule="evenodd"/>
	<path id="path" d="M44.55 45.4L45.4 44.55L20.32 19.47C20.09 19.24 19.71 19.24 19.47 19.47C19.24 19.71 19.24 20.09 19.47 20.32L44.55 45.4Z" fill="#FF8E30" fill-opacity="1.000000" fill-rule="evenodd"/>
	<path id="path" d="M18.16 27.03C17.92 26.8 17.92 26.42 18.16 26.18C18.39 25.95 18.77 25.95 19.01 26.18L24.1 31.28L27.68 27.68C27.91 27.44 28.29 27.44 28.52 27.68C28.76 27.91 28.76 28.29 28.52 28.52L24.51 32.54C24.28 32.77 23.9 32.77 23.66 32.54L18.16 27.03ZM32.6 25.39C32.36 25.16 32.36 24.78 32.6 24.54C32.83 24.31 33.21 24.31 33.45 24.54L39.22 30.31C39.45 30.55 39.45 30.93 39.22 31.16L35.17 35.17C34.94 35.41 34.56 35.41 34.32 35.17C34.09 34.94 34.09 34.56 34.32 34.32L37.93 30.75L32.6 25.39Z" fill="#FF8E30" fill-opacity="1.000000" fill-rule="evenodd"/>
	<circle id="circle" r="1.953968" transform="matrix(0.707107 -0.707107 0.707107 0.707107 17.2041 25.2358)" fill="#FF8E30" fill-opacity="1.000000"/>
	<path id="path" d="M17.66 17.66L21.7 18.13L18.13 21.7L17.66 17.66ZM29.63 23.85L31.88 21.6L34.14 23.85L31.88 26.1L29.63 23.85Z" fill="#FF8E30" fill-opacity="1.000000" fill-rule="evenodd"/>
</svg>
