<svg width="50.000000" height="50.000000" viewBox="0 0 50 50" fill="none" xmlns="http://www.w3.org/2000/svg" xmlns:xlink="http://www.w3.org/1999/xlink">
	<desc>
			Created with Pixso.
	</desc>
	<defs/>
	<path id="path" d="M29.5 50C19.63 50 9.81 50 0 50C0 33.33 0 16.67 0 0C16.65 0 33.32 0 50 0C50 16.66 50 33.33 50 50C43.19 50 36.36 50 29.5 50ZM23.28 29C25.53 30.05 28.36 29.57 29.79 28.11C29.49 28.17 29.24 28.22 28.99 28.27C26.32 28.84 24.08 28.19 22.35 25.99C22.1 25.67 21.98 25.44 22.36 25.11C22.63 24.87 22.83 24.53 23 24.2C23.77 22.63 22.76 20.69 21.03 20.53C19.94 20.42 18.83 20.51 17.67 20.51C17.67 22.88 17.67 25.23 17.69 27.58C17.69 27.69 17.87 27.88 17.97 27.89C18.55 27.92 19.13 27.9 19.73 27.9C19.73 27.18 19.73 26.54 19.73 25.89C19.77 25.86 19.8 25.83 19.84 25.8C19.97 25.91 20.14 26 20.22 26.14C20.93 27.39 21.92 28.35 23.28 29ZM36.06 27.26C36.18 27.44 36.28 27.63 36.4 27.8C36.68 28.24 37.09 28.1 37.45 28C37.81 27.9 38.19 27.75 38.19 27.28C38.2 25.15 38.2 23.02 38.18 20.89C38.18 20.75 37.99 20.51 37.87 20.51C37.31 20.47 36.74 20.49 36.13 20.49C36.13 21.73 36.13 22.92 36.13 24.11C35.48 23.14 34.92 22.15 34.35 21.17C33.95 20.47 33.1 20.23 32.41 20.67C32.23 20.79 32.06 21.08 32.06 21.29C32.03 23.27 32.05 25.26 32.04 27.24C32.03 27.65 32.22 27.87 32.6 27.89C33.11 27.92 33.63 27.9 34.2 27.9C34.2 26.68 34.2 25.5 34.2 24.33C34.23 24.32 34.27 24.31 34.3 24.3C34.88 25.26 35.45 26.23 36.06 27.26ZM27.5 20.4C25.32 20.49 23.68 22.2 23.74 24.32C23.8 26.38 25.5 28.02 27.57 28.02C29.62 28.01 31.33 26.36 31.36 24.34C31.39 22.14 29.79 20.47 27.5 20.4ZM41.51 26.77C41.9 26.77 42.3 26.8 42.68 26.76C43.21 26.7 43.49 26.86 43.57 27.41C43.6 27.6 43.82 27.91 43.97 27.92C44.61 27.98 45.25 27.95 45.93 27.95C45.86 27.74 45.82 27.6 45.77 27.46C45.08 25.52 44.37 23.59 43.68 21.65C43.28 20.53 43.11 20.43 41.94 20.48C41.45 20.51 41.17 20.71 41.01 21.18C40.57 22.44 40.09 23.68 39.63 24.93C39.33 25.73 39.04 26.54 38.75 27.35C38.65 27.63 38.65 27.95 38.96 28C39.46 28.09 40.01 28.14 40.5 28.03C40.72 27.98 40.84 27.5 41.02 27.22C41.14 27.06 41.29 26.92 41.51 26.77ZM9.54 20.48C9.4 20.49 9.26 20.5 9.21 20.51C8.73 22.13 8.27 23.68 7.81 25.24C7.64 25.04 7.58 24.86 7.52 24.67C7.13 23.45 6.75 22.22 6.35 21.01C6.17 20.46 5.84 20.26 5.3 20.42C4.87 20.56 4.47 20.81 4.08 21C4.25 21.41 4.39 21.7 4.5 22.01C5.15 23.83 5.8 25.65 6.43 27.47C6.55 27.8 6.7 27.95 7.06 27.91C7.43 27.88 7.81 27.88 8.18 27.91C8.52 27.94 8.7 27.8 8.87 27.51C10.04 25.49 10.66 23.27 11.19 21.02C11.26 20.68 11.12 20.48 10.76 20.48C10.38 20.48 10.01 20.48 9.54 20.48ZM13.33 20.48C12.86 20.48 12.39 20.48 11.9 20.48C11.9 22.48 11.86 24.43 11.92 26.37C11.95 27.29 12.7 27.88 13.63 27.9C14.35 27.91 15.06 27.9 15.78 27.9C16.15 27.9 16.51 27.9 16.9 27.9C16.9 27.5 16.88 27.17 16.91 26.85C16.94 26.46 16.82 26.3 16.4 26.32C15.81 26.35 15.23 26.34 14.64 26.32C14.2 26.31 13.93 26.12 13.97 25.63C13.98 25.46 13.97 25.29 13.97 25.07C14.75 25.07 15.48 25.07 16.26 25.07C16.26 24.64 16.25 24.25 16.26 23.87C16.27 23.52 16.12 23.41 15.79 23.42C15.2 23.44 14.6 23.43 14 23.43C14 23 14 22.64 14 22.24C14.57 22.24 15.1 22.24 15.64 22.24C16.87 22.24 16.86 22.24 16.85 21C16.85 20.59 16.7 20.47 16.3 20.47C15.34 20.49 14.38 20.48 13.33 20.48Z" fill="#E95821" fill-opacity="1.000000" fill-rule="nonzero"/>
	<path id="path" d="M42.68 26.76C42.3 26.8 41.9 26.77 41.51 26.77C41.29 26.92 41.14 27.06 41.02 27.22C40.84 27.5 40.72 27.98 40.5 28.03C40.01 28.14 39.46 28.09 38.96 28C38.65 27.95 38.65 27.63 38.75 27.35C39.04 26.54 39.33 25.73 39.63 24.93C40.09 23.68 40.57 22.44 41.01 21.18C41.17 20.71 41.45 20.51 41.94 20.48C43.11 20.43 43.28 20.53 43.68 21.65C44.37 23.59 45.08 25.52 45.77 27.46C45.82 27.6 45.86 27.74 45.93 27.95C45.25 27.95 44.61 27.98 43.97 27.92C43.82 27.91 43.6 27.6 43.57 27.41C43.49 26.86 43.21 26.7 42.68 26.76Z" fill="#FFFFFF" fill-opacity="1.000000" fill-rule="evenodd"/>
	<path id="path" d="M0 50C0 33.33 0 16.67 0 0C16.65 0 33.32 0 50 0C50 16.66 50 33.33 50 50C43.19 50 36.36 50 29.5 50C19.63 50 9.81 50 0 50ZM29.79 28.11C29.49 28.17 29.24 28.22 28.99 28.27C26.32 28.84 24.08 28.19 22.35 25.99C22.1 25.67 21.98 25.44 22.36 25.11C22.63 24.87 22.83 24.53 23 24.2C23.77 22.63 22.76 20.69 21.03 20.53C19.94 20.42 18.83 20.51 17.67 20.51C17.67 22.88 17.67 25.23 17.69 27.58C17.69 27.69 17.87 27.88 17.97 27.89C18.55 27.92 19.13 27.9 19.73 27.9C19.73 27.18 19.73 26.54 19.73 25.89C19.77 25.86 19.8 25.83 19.84 25.8C19.97 25.91 20.14 26 20.22 26.14C20.93 27.39 21.92 28.35 23.28 29C25.53 30.05 28.36 29.57 29.79 28.11ZM36.4 27.8C36.68 28.24 37.09 28.1 37.45 28C37.81 27.9 38.19 27.75 38.19 27.28C38.2 25.15 38.2 23.02 38.18 20.89C38.18 20.75 37.99 20.51 37.87 20.51C37.31 20.47 36.74 20.49 36.13 20.49C36.13 21.73 36.13 22.92 36.13 24.11C35.48 23.14 34.92 22.15 34.35 21.17C33.95 20.47 33.1 20.23 32.41 20.67C32.23 20.79 32.06 21.08 32.06 21.29C32.03 23.27 32.05 25.26 32.04 27.24C32.03 27.65 32.22 27.87 32.6 27.89C33.11 27.92 33.63 27.9 34.2 27.9C34.2 26.68 34.2 25.5 34.2 24.33C34.23 24.32 34.27 24.31 34.3 24.3C34.88 25.26 35.45 26.23 36.06 27.26C36.18 27.44 36.28 27.63 36.4 27.8ZM23.74 24.32C23.8 26.38 25.5 28.02 27.57 28.02C29.62 28.01 31.33 26.36 31.36 24.34C31.39 22.14 29.79 20.47 27.5 20.4C25.32 20.49 23.68 22.2 23.74 24.32ZM42.68 26.76C43.21 26.7 43.49 26.86 43.57 27.41C43.6 27.6 43.82 27.91 43.97 27.92C44.61 27.98 45.25 27.95 45.93 27.95C45.86 27.74 45.82 27.6 45.77 27.46C45.08 25.52 44.37 23.59 43.68 21.65C43.28 20.53 43.11 20.43 41.94 20.48C41.45 20.51 41.17 20.71 41.01 21.18C40.57 22.44 40.09 23.68 39.63 24.93C39.33 25.73 39.04 26.54 38.75 27.35C38.65 27.63 38.65 27.95 38.96 28C39.46 28.09 40.01 28.14 40.5 28.03C40.72 27.98 40.84 27.5 41.02 27.22C41.14 27.06 41.29 26.92 41.51 26.77C41.9 26.77 42.3 26.8 42.68 26.76ZM9.21 20.51C8.73 22.13 8.27 23.68 7.81 25.24C7.64 25.04 7.58 24.86 7.52 24.67C7.13 23.45 6.75 22.22 6.35 21.01C6.17 20.46 5.84 20.26 5.3 20.42C4.87 20.56 4.47 20.81 4.08 21C4.25 21.41 4.39 21.7 4.5 22.01C5.15 23.83 5.8 25.65 6.43 27.47C6.55 27.8 6.7 27.95 7.06 27.91C7.43 27.88 7.81 27.88 8.18 27.91C8.52 27.94 8.7 27.8 8.87 27.51C10.04 25.49 10.66 23.27 11.19 21.02C11.26 20.68 11.12 20.48 10.76 20.48C10.38 20.48 10.01 20.48 9.54 20.48C9.4 20.49 9.26 20.5 9.21 20.51ZM11.9 20.48C11.9 22.48 11.86 24.43 11.92 26.37C11.95 27.29 12.7 27.88 13.63 27.9C14.35 27.91 15.06 27.9 15.78 27.9C16.15 27.9 16.51 27.9 16.9 27.9C16.9 27.5 16.88 27.17 16.91 26.85C16.94 26.46 16.82 26.3 16.4 26.32C15.81 26.35 15.23 26.34 14.64 26.32C14.2 26.31 13.93 26.12 13.97 25.63C13.98 25.46 13.97 25.29 13.97 25.07C14.75 25.07 15.48 25.07 16.26 25.07C16.26 24.64 16.25 24.25 16.26 23.87C16.27 23.52 16.12 23.41 15.79 23.42C15.2 23.44 14.6 23.43 14 23.43C14 23 14 22.64 14 22.24C14.57 22.24 15.1 22.24 15.64 22.24C16.87 22.24 16.86 22.24 16.85 21C16.85 20.59 16.7 20.47 16.3 20.47C15.34 20.49 14.38 20.48 13.33 20.48C12.86 20.48 12.39 20.48 11.9 20.48Z" stroke="#FFFFFF" stroke-opacity="0" stroke-width="1.000000"/>
	<path id="path" d="M23.25 28.99C21.92 28.35 20.93 27.39 20.22 26.14C20.14 26 19.97 25.91 19.84 25.8C19.8 25.83 19.77 25.86 19.73 25.89C19.73 26.54 19.73 27.18 19.73 27.9C19.13 27.9 18.55 27.92 17.97 27.89C17.87 27.88 17.69 27.69 17.69 27.58C17.67 25.23 17.67 22.88 17.67 20.51C18.83 20.51 19.94 20.42 21.03 20.53C22.76 20.69 23.77 22.63 23 24.2C22.83 24.53 22.63 24.87 22.36 25.11C21.98 25.44 22.1 25.67 22.35 25.99C24.08 28.19 26.32 28.84 28.99 28.27C29.24 28.22 29.49 28.17 29.79 28.11C28.36 29.57 25.53 30.05 23.25 28.99ZM19.79 24.21C20.03 24.22 20.3 24.29 20.51 24.22C20.73 24.14 21.01 23.95 21.08 23.75C21.17 23.44 21.17 23.06 21.08 22.75C21.01 22.54 20.74 22.35 20.51 22.26C20.29 22.18 20.01 22.24 19.74 22.24C19.74 22.91 19.74 23.52 19.79 24.21Z" fill="#FFFDFC" fill-opacity="1.000000" fill-rule="nonzero"/>
	<path id="path" d="M20.51 24.22C20.3 24.29 20.03 24.22 19.79 24.21C19.74 23.52 19.74 22.91 19.74 22.24C20.01 22.24 20.29 22.18 20.51 22.26C20.74 22.35 21.01 22.54 21.08 22.75C21.17 23.06 21.17 23.44 21.08 23.75C21.01 23.95 20.73 24.14 20.51 24.22Z" fill="#E95821" fill-opacity="1.000000" fill-rule="evenodd"/>
	<path id="path" d="M20.22 26.14C20.14 26 19.97 25.91 19.84 25.8C19.8 25.83 19.77 25.86 19.73 25.89C19.73 26.54 19.73 27.18 19.73 27.9C19.13 27.9 18.55 27.92 17.97 27.89C17.87 27.88 17.69 27.69 17.69 27.58C17.67 25.23 17.67 22.88 17.67 20.51C18.83 20.51 19.94 20.42 21.03 20.53C22.76 20.69 23.77 22.63 23 24.2C22.83 24.53 22.63 24.87 22.36 25.11C21.98 25.44 22.1 25.67 22.35 25.99C24.08 28.19 26.32 28.84 28.99 28.27C29.24 28.22 29.49 28.17 29.79 28.11C28.36 29.57 25.53 30.05 23.25 28.99C21.92 28.35 20.93 27.39 20.22 26.14ZM20.51 24.22C20.73 24.14 21.01 23.95 21.08 23.75C21.17 23.44 21.17 23.06 21.08 22.75C21.01 22.54 20.74 22.35 20.51 22.26C20.29 22.18 20.01 22.24 19.74 22.24C19.74 22.91 19.74 23.52 19.79 24.21C20.03 24.22 20.3 24.29 20.51 24.22Z" stroke="#000000" stroke-opacity="0" stroke-width="1.000000"/>
	<path id="path" d="M36.05 27.23C35.45 26.23 34.88 25.26 34.3 24.3C34.27 24.31 34.23 24.32 34.2 24.33C34.2 25.5 34.2 26.68 34.2 27.9C33.63 27.9 33.11 27.92 32.6 27.89C32.22 27.87 32.03 27.65 32.04 27.24C32.05 25.26 32.03 23.27 32.06 21.29C32.06 21.08 32.23 20.79 32.41 20.67C33.1 20.23 33.95 20.47 34.35 21.17C34.92 22.15 35.48 23.14 36.13 24.11C36.13 22.92 36.13 21.73 36.13 20.49C36.74 20.49 37.31 20.47 37.87 20.51C37.99 20.51 38.18 20.75 38.18 20.89C38.2 23.02 38.2 25.15 38.19 27.28C38.19 27.75 37.81 27.9 37.45 28C37.09 28.1 36.68 28.24 36.4 27.8C36.28 27.63 36.18 27.44 36.05 27.23Z" fill="#FFFEFD" fill-opacity="1.000000" fill-rule="nonzero"/>
	<path id="path" d="M34.3 24.3C34.27 24.31 34.23 24.32 34.2 24.33C34.2 25.5 34.2 26.68 34.2 27.9C33.63 27.9 33.11 27.92 32.6 27.89C32.22 27.87 32.03 27.65 32.04 27.24C32.05 25.26 32.03 23.27 32.06 21.29C32.06 21.08 32.23 20.79 32.41 20.67C33.1 20.23 33.95 20.47 34.35 21.17C34.92 22.15 35.48 23.14 36.13 24.11C36.13 22.92 36.13 21.73 36.13 20.49C36.74 20.49 37.31 20.47 37.87 20.51C37.99 20.51 38.18 20.75 38.18 20.89C38.2 23.02 38.2 25.15 38.19 27.28C38.19 27.75 37.81 27.9 37.45 28C37.09 28.1 36.68 28.24 36.4 27.8C36.28 27.63 36.18 27.44 36.05 27.23C35.45 26.23 34.88 25.26 34.3 24.3Z" stroke="#000000" stroke-opacity="0" stroke-width="1.000000"/>
	<path id="path" d="M27.54 20.4C29.79 20.47 31.39 22.14 31.36 24.34C31.33 26.36 29.62 28.01 27.57 28.02C25.5 28.02 23.8 26.38 23.74 24.32C23.68 22.2 25.32 20.49 27.54 20.4ZM29.27 23.44C29.21 23.31 29.16 23.17 29.09 23.04C28.78 22.47 28.33 22.07 27.65 22.03C26.94 21.99 26.43 22.34 26.09 22.92C25.65 23.67 25.62 24.46 25.97 25.26C26.27 25.95 26.79 26.4 27.57 26.4C28.34 26.39 28.82 25.94 29.14 25.28C29.41 24.71 29.44 24.12 29.27 23.44Z" fill="#FFFDFC" fill-opacity="1.000000" fill-rule="nonzero"/>
	<path id="path" d="M31.36 24.34C31.33 26.36 29.62 28.01 27.57 28.02C25.5 28.02 23.8 26.38 23.74 24.32C23.68 22.2 25.32 20.49 27.54 20.4C29.79 20.47 31.39 22.14 31.36 24.34ZM29.09 23.04C28.78 22.47 28.33 22.07 27.65 22.03C26.94 21.99 26.43 22.34 26.09 22.92C25.65 23.67 25.62 24.46 25.97 25.26C26.27 25.95 26.79 26.4 27.57 26.4C28.34 26.39 28.82 25.94 29.14 25.28C29.41 24.71 29.44 24.12 29.27 23.44C29.21 23.31 29.16 23.17 29.09 23.04Z" stroke="#000000" stroke-opacity="0" stroke-width="1.000000"/>
	<path id="path" d="M9.59 20.48C10.01 20.48 10.38 20.48 10.76 20.48C11.12 20.48 11.26 20.68 11.19 21.02C10.66 23.27 10.04 25.49 8.87 27.51C8.7 27.8 8.52 27.94 8.18 27.91C7.81 27.88 7.43 27.88 7.06 27.91C6.7 27.95 6.55 27.8 6.43 27.47C5.8 25.65 5.15 23.83 4.5 22.01C4.39 21.7 4.25 21.41 4.08 21C4.47 20.81 4.87 20.56 5.3 20.42C5.84 20.26 6.17 20.46 6.35 21.01C6.75 22.22 7.13 23.45 7.52 24.67C7.58 24.86 7.64 25.04 7.81 25.24C8.27 23.68 8.73 22.13 9.21 20.51C9.26 20.5 9.4 20.49 9.59 20.48Z" fill="#FFFDFC" fill-opacity="1.000000" fill-rule="nonzero"/>
	<path id="path" d="M10.76 20.48C11.12 20.48 11.26 20.68 11.19 21.02C10.66 23.27 10.04 25.49 8.87 27.51C8.7 27.8 8.52 27.94 8.18 27.91C7.81 27.88 7.43 27.88 7.06 27.91C6.7 27.95 6.55 27.8 6.43 27.47C5.8 25.65 5.15 23.83 4.5 22.01C4.39 21.7 4.25 21.41 4.08 21C4.47 20.81 4.87 20.56 5.3 20.42C5.84 20.26 6.17 20.46 6.35 21.01C6.75 22.22 7.13 23.45 7.52 24.67C7.58 24.86 7.64 25.04 7.81 25.24C8.27 23.68 8.73 22.13 9.21 20.51C9.26 20.5 9.4 20.49 9.59 20.48C10.01 20.48 10.38 20.48 10.76 20.48Z" stroke="#000000" stroke-opacity="0" stroke-width="1.000000"/>
	<path id="path" d="M13.38 20.48C14.38 20.48 15.34 20.49 16.3 20.47C16.7 20.47 16.85 20.59 16.85 21C16.86 22.24 16.87 22.24 15.64 22.24C15.1 22.24 14.57 22.24 14 22.24C14 22.64 14 23 14 23.43C14.6 23.43 15.2 23.44 15.79 23.42C16.12 23.41 16.27 23.52 16.26 23.87C16.25 24.25 16.26 24.64 16.26 25.07C15.48 25.07 14.75 25.07 13.97 25.07C13.97 25.29 13.98 25.46 13.97 25.63C13.93 26.12 14.2 26.31 14.64 26.32C15.23 26.34 15.81 26.35 16.4 26.32C16.82 26.3 16.94 26.46 16.91 26.85C16.88 27.17 16.9 27.5 16.9 27.9C16.51 27.9 16.15 27.9 15.78 27.9C15.06 27.9 14.35 27.91 13.63 27.9C12.7 27.88 11.95 27.29 11.92 26.37C11.86 24.43 11.9 22.48 11.9 20.48C12.39 20.48 12.86 20.48 13.38 20.48Z" fill="#FFFEFD" fill-opacity="1.000000" fill-rule="nonzero"/>
	<path id="path" d="M16.3 20.47C16.7 20.47 16.85 20.59 16.85 21C16.86 22.24 16.87 22.24 15.64 22.24C15.1 22.24 14.57 22.24 14 22.24C14 22.64 14 23 14 23.43C14.6 23.43 15.2 23.44 15.79 23.42C16.12 23.41 16.27 23.52 16.26 23.87C16.25 24.25 16.26 24.64 16.26 25.07C15.48 25.07 14.75 25.07 13.97 25.07C13.97 25.29 13.98 25.46 13.97 25.63C13.93 26.12 14.2 26.31 14.64 26.32C15.23 26.34 15.81 26.35 16.4 26.32C16.82 26.3 16.94 26.46 16.91 26.85C16.88 27.17 16.9 27.5 16.9 27.9C16.51 27.9 16.15 27.9 15.78 27.9C15.06 27.9 14.35 27.91 13.63 27.9C12.7 27.88 11.95 27.29 11.92 26.37C11.86 24.43 11.9 22.48 11.9 20.48C12.39 20.48 12.86 20.48 13.38 20.48C14.38 20.48 15.34 20.49 16.3 20.47Z" stroke="#000000" stroke-opacity="0" stroke-width="1.000000"/>
	<path id="path" d="M29.28 23.48C29.44 24.12 29.41 24.71 29.14 25.28C28.82 25.94 28.34 26.39 27.57 26.4C26.79 26.4 26.27 25.95 25.97 25.26C25.62 24.46 25.65 23.67 26.09 22.92C26.43 22.34 26.94 21.99 27.65 22.03C28.33 22.07 28.78 22.47 29.09 23.04C29.16 23.17 29.21 23.31 29.28 23.48Z" fill="#E95A24" fill-opacity="1.000000" fill-rule="nonzero"/>
	<path id="path" d="M29.14 25.28C28.82 25.94 28.34 26.39 27.57 26.4C26.79 26.4 26.27 25.95 25.97 25.26C25.62 24.46 25.65 23.67 26.09 22.92C26.43 22.34 26.94 21.99 27.65 22.03C28.33 22.07 28.78 22.47 29.09 23.04C29.16 23.17 29.21 23.31 29.28 23.48C29.44 24.12 29.41 24.71 29.14 25.28Z" stroke="#000000" stroke-opacity="0" stroke-width="1.000000"/>
	<path id="path" d="M42.74 24.55C42.81 24.77 42.86 24.96 42.92 25.17C42.47 25.17 42.07 25.17 41.61 25.17C41.81 24.46 42 23.76 42.22 22.95C42.42 23.56 42.57 24.04 42.74 24.55Z" fill="#EA5F2A" fill-opacity="1.000000" fill-rule="nonzero"/>
	<path id="path" d="M42.92 25.17C42.47 25.17 42.07 25.17 41.61 25.17C41.81 24.46 42 23.76 42.22 22.95C42.42 23.56 42.57 24.04 42.74 24.55C42.81 24.77 42.86 24.96 42.92 25.17Z" stroke="#000000" stroke-opacity="0" stroke-width="1.000000"/>
</svg>
