<svg width="50.000000" height="50.000000" viewBox="0 0 50 50" fill="none" xmlns="http://www.w3.org/2000/svg" xmlns:xlink="http://www.w3.org/1999/xlink">
	<desc>
			Created with Pixso.
	</desc>
	<defs>
		<linearGradient x1="-0.414049" y1="4.018736" x2="28.817986" y2="43.668282" id="paint_linear_182_2_0" gradientUnits="userSpaceOnUse">
			<stop stop-color="#41D1FF"/>
			<stop offset="1.000000" stop-color="#BD34FE"/>
		</linearGradient>
		<linearGradient x1="23.667366" y1="0.935822" x2="28.955284" y2="37.164890" id="paint_linear_182_3_0" gradientUnits="userSpaceOnUse">
			<stop stop-color="#FFEA83"/>
			<stop offset="0.083333" stop-color="#FFDD35"/>
			<stop offset="1.000000" stop-color="#FFA800"/>
		</linearGradient>
	</defs>
	<path id="path" d="M49.83 7.4L26.34 49.34C25.86 50.21 24.61 50.21 24.12 49.35L0.17 7.4C-0.37 6.46 0.43 5.32 1.5 5.51L25.01 9.71C25.16 9.74 25.32 9.74 25.47 9.71L48.49 5.52C49.55 5.33 50.36 6.45 49.83 7.4Z" fill="url(#paint_linear_182_2_0)" fill-opacity="1.000000" fill-rule="nonzero"/>
	<path id="path" d="M36.21 0.01L18.83 3.41C18.54 3.46 18.33 3.71 18.32 4L17.25 22.03C17.22 22.46 17.61 22.79 18.03 22.69L22.87 21.58C23.32 21.47 23.73 21.87 23.64 22.32L22.2 29.36C22.1 29.83 22.55 30.23 23.01 30.09L26 29.19C26.46 29.05 26.91 29.45 26.81 29.93L24.52 40.97C24.38 41.66 25.3 42.04 25.68 41.45L25.94 41.05L40.1 12.82C40.34 12.35 39.93 11.81 39.41 11.91L34.43 12.87C33.96 12.96 33.57 12.52 33.7 12.07L36.95 0.81C37.08 0.35 36.68 -0.08 36.21 0.01Z" fill="url(#paint_linear_182_3_0)" fill-opacity="1.000000" fill-rule="nonzero"/>
</svg>
