<svg width="50.000000" height="50.046722" viewBox="0 0 50 50.0467" fill="none" xmlns="http://www.w3.org/2000/svg" xmlns:xlink="http://www.w3.org/1999/xlink">
	<desc>
			Created with Pixso.
	</desc>
	<defs/>
	<path id="path" d="M12.14 42.15C11.74 42.15 11.39 42.01 11.11 41.72C8.67 39.28 7.32 36.04 7.32 32.59C7.32 29.14 8.67 25.9 11.11 23.46C11.68 22.89 12.61 22.89 13.18 23.46C13.75 24.03 13.75 24.96 13.18 25.54C11.29 27.42 10.26 29.93 10.26 32.59C10.26 35.26 11.29 37.76 13.18 39.65C13.75 40.22 13.75 41.15 13.18 41.72C12.89 42.01 12.55 42.15 12.14 42.15ZM17.64 37.63C17.24 37.63 16.89 37.49 16.61 37.2C14.07 34.66 14.07 30.53 16.61 27.98C17.18 27.41 18.11 27.41 18.68 27.98C19.25 28.56 19.25 29.49 18.68 30.06C17.28 31.46 17.28 33.73 18.68 35.13C19.25 35.7 19.25 36.63 18.68 37.2C18.39 37.49 18.05 37.63 17.64 37.63Z" fill="#00DDC1" fill-opacity="1.000000" fill-rule="nonzero"/>
	<path id="path" d="M6.63 46.55C6.22 46.55 5.88 46.41 5.59 46.12C-1.87 38.66 -1.87 26.52 5.59 19.06C6.16 18.49 7.09 18.49 7.66 19.06C8.24 19.63 8.24 20.56 7.66 21.14C1.35 27.45 1.35 37.73 7.66 44.05C8.24 44.62 8.24 45.55 7.66 46.12C7.38 46.41 7.03 46.55 6.63 46.55Z" fill="#00DDC1" fill-opacity="1.000000" fill-rule="nonzero"/>
	<path id="path" d="M48.53 50.04L44.72 50.04C44.44 50.04 44.17 49.96 43.93 49.81C43.69 49.65 43.51 49.44 43.39 49.18L41.41 44.8C41.11 44.12 40.42 43.69 39.68 43.71C37.08 43.75 33.88 43.8 32.25 43.77C30.49 43.73 29.47 42.99 28.92 42.37C28.16 41.51 27.81 40.34 27.94 39.07C28.01 38.33 27.81 38.08 27.42 37.58C27.12 37.21 26.74 36.74 26.56 36.07C26.29 35.05 26.69 33.94 27.58 33.25C27.62 33.21 27.66 33.18 27.7 33.16L28.99 32.35C29.67 31.92 29.57 30.89 28.82 30.61L26.25 29.63C26.21 29.62 26.17 29.6 26.14 29.59C25.09 29.09 24.5 27.94 24.72 26.79L25.29 23.8C25.35 23.48 25.29 23.18 25.09 22.92C24.91 22.67 24.62 22.52 24.31 22.47L21.5 22.06C20.8 21.95 20.15 21.57 19.77 20.97C19.26 20.19 19.24 19.2 19.71 18.41L25.23 9.03C26.07 7.61 26.4 5.92 26.17 4.28L25.79 1.71C25.75 1.39 25.79 1.07 25.94 0.79C26.06 0.54 26.24 0.35 26.48 0.21C26.71 0.07 26.96 0 27.24 0L48.53 0C49.34 0 50 0.65 50 1.46L50 48.58C50 49.39 49.34 50.04 48.53 50.04Z" fill="#FFBDA8" fill-opacity="1.000000" fill-rule="nonzero"/>
	<path id="path" d="M11.11 41.72C11.39 42.01 11.77 42.15 12.14 42.15C12.52 42.15 12.89 42.01 13.18 41.72C13.75 41.15 13.75 40.22 13.18 39.65C11.29 37.76 10.26 35.26 10.26 32.59L7.32 32.59C7.32 36.04 8.67 39.28 11.11 41.72ZM17.63 32.59L14.7 32.59C14.7 34.26 15.34 35.93 16.61 37.2C16.89 37.49 17.27 37.63 17.64 37.63C18.02 37.63 18.39 37.49 18.68 37.2C19.25 36.63 19.25 35.7 18.68 35.13C17.98 34.43 17.63 33.51 17.63 32.59ZM5.59 46.12C5.88 46.41 6.25 46.55 6.63 46.55C7 46.55 7.38 46.41 7.66 46.12C8.24 45.55 8.24 44.62 7.66 44.05C4.51 40.89 2.93 36.74 2.93 32.59L0 32.59C0 37.49 1.86 42.39 5.59 46.12Z" fill="#00B4BC" fill-opacity="1.000000" fill-rule="nonzero"/>
	<path id="path" d="M28.6 32.59L27.7 33.16C27.66 33.18 27.62 33.21 27.58 33.25C26.69 33.94 26.29 35.05 26.56 36.07C26.74 36.74 27.12 37.21 27.42 37.58C27.81 38.08 28.01 38.33 27.94 39.07C27.81 40.34 28.16 41.51 28.92 42.37C29.47 42.99 30.49 43.73 32.25 43.77C33.88 43.8 37.08 43.75 39.68 43.71C40.42 43.69 41.11 44.12 41.41 44.8L43.39 49.18C43.51 49.44 43.69 49.65 43.93 49.81C44.17 49.96 44.44 50.04 44.72 50.04L48.53 50.04C49.34 50.04 50 49.39 50 48.58L50 32.59L28.6 32.59Z" fill="#FAA68C" fill-opacity="1.000000" fill-rule="nonzero"/>
</svg>
