<svg width="50.000000" height="50.000000" viewBox="0 0 50 50" fill="none" xmlns="http://www.w3.org/2000/svg" xmlns:xlink="http://www.w3.org/1999/xlink">
	<desc>
			Created with Pixso.
	</desc>
	<defs/>
	<g opacity="0.000000">
		<rect id="Прямоугольник 1" width="50.000000" height="50.000000" fill="#C4C4C4" fill-opacity="1.000000"/>
	</g>
	<path id="path" d="M25.69 28.24C25.7 28.23 25.71 28.21 25.73 28.19C26.26 27.38 26.81 26.56 27.36 25.73C28.9 23.42 30.47 21.07 31.63 18.98C33.94 14.83 32.26 9.4 27.94 7.55C23.32 5.56 18.04 8.63 17.39 13.9C17.17 15.64 17.51 17.45 18.36 18.98C19.53 21.07 21.09 23.42 22.63 25.73L25 29.33C25.22 28.97 25.46 28.61 25.69 28.24ZM25 10.34C27.43 10.34 29.41 12.4 29.41 14.94C29.41 17.49 27.43 19.55 25 19.55C22.56 19.55 20.58 17.49 20.58 14.94C20.58 12.4 22.56 10.34 25 10.34ZM32.66 1.1C32.38 0.94 32.29 0.57 32.45 0.29C32.61 0.01 32.96 -0.09 33.23 0.08C36.99 2.34 39.77 6.1 40.9 10.5C40.98 10.81 40.8 11.14 40.5 11.23C40.42 11.25 40.35 11.25 40.27 11.24C40.2 11.23 40.13 11.21 40.06 11.17C40 11.13 39.94 11.08 39.9 11.01C39.85 10.95 39.82 10.88 39.8 10.81C38.75 6.71 36.16 3.22 32.66 1.1Z" fill="#FF695A" fill-opacity="1.000000" fill-rule="nonzero"/>
	<path id="path" d="M31.33 3.49C31.06 3.33 30.97 2.96 31.13 2.68C31.16 2.61 31.21 2.56 31.27 2.51C31.33 2.46 31.4 2.42 31.47 2.4C31.54 2.38 31.62 2.38 31.69 2.39C31.77 2.4 31.84 2.43 31.9 2.47C35.06 4.37 37.4 7.52 38.34 11.21C38.42 11.53 38.24 11.86 37.94 11.94C37.64 12.02 37.32 11.84 37.24 11.52C36.37 8.13 34.23 5.24 31.33 3.49ZM12.75 11.52C12.67 11.84 12.35 12.02 12.05 11.94C11.75 11.86 11.57 11.53 11.65 11.21C12.59 7.52 14.93 4.37 18.09 2.47C18.15 2.43 18.22 2.4 18.3 2.39C18.37 2.38 18.45 2.38 18.52 2.4C18.59 2.42 18.66 2.46 18.72 2.51C18.78 2.56 18.83 2.61 18.86 2.68C19.02 2.96 18.93 3.33 18.66 3.49C15.76 5.24 13.62 8.13 12.75 11.52ZM30.07 5.78C30 5.74 29.94 5.69 29.9 5.63C29.85 5.57 29.82 5.5 29.8 5.42C29.78 5.34 29.78 5.27 29.79 5.19C29.8 5.11 29.82 5.04 29.86 4.97C29.9 4.9 29.95 4.84 30.01 4.8C30.07 4.75 30.13 4.71 30.21 4.69C30.28 4.67 30.35 4.67 30.43 4.68C30.5 4.69 30.57 4.71 30.64 4.75C33.22 6.31 35.12 8.88 35.89 11.9C35.98 12.21 35.79 12.54 35.49 12.62C35.19 12.71 34.87 12.52 34.79 12.2C34.1 9.49 32.38 7.18 30.07 5.78ZM15.2 12.2C15.12 12.52 14.8 12.71 14.5 12.62C14.2 12.54 14.01 12.21 14.1 11.9C14.87 8.88 16.77 6.31 19.35 4.75C19.42 4.71 19.49 4.69 19.56 4.68C19.64 4.67 19.71 4.67 19.78 4.69C19.86 4.71 19.92 4.75 19.98 4.8C20.04 4.84 20.09 4.9 20.13 4.97C20.17 5.04 20.19 5.11 20.2 5.19C20.21 5.27 20.21 5.34 20.19 5.42C20.17 5.5 20.14 5.57 20.09 5.63C20.04 5.69 19.99 5.74 19.92 5.78C17.61 7.18 15.89 9.49 15.2 12.2ZM27.31 12.53C26.03 11.19 23.96 11.19 22.68 12.53C21.4 13.86 21.4 16.02 22.68 17.36C23.96 18.69 26.03 18.69 27.31 17.36C28.59 16.02 28.59 13.86 27.31 12.53ZM23.53 29.18C22.3 29.32 21.24 29.62 20.47 30.03C18.81 30.93 19.13 31.89 20.84 32.64C23.11 33.65 26.88 33.65 29.15 32.64C30.86 31.89 31.18 30.93 29.52 30.03C28.75 29.62 27.69 29.32 26.46 29.18C26.13 29.69 25.8 30.2 25.48 30.72C25.25 31.1 24.74 31.09 24.52 30.73C24.19 30.21 23.86 29.69 23.53 29.18Z" fill="#FF695A" fill-opacity="1.000000" fill-rule="nonzero"/>
	<path id="path" d="M16.77 20.76C17.35 21.07 17.95 21.35 18.56 21.59C18.14 20.9 17.65 20.09 17.3 19.43C17.11 19.87 16.93 20.31 16.77 20.76ZM19.58 23.2C18.48 22.87 17.42 22.43 16.39 21.89C15.55 24.63 15.12 27.63 15.07 30.65L18.33 30.65C18.85 29.09 21.16 28.34 22.81 28.08C21.74 26.47 20.62 24.82 19.58 23.2ZM31.43 21.59C32.04 21.35 32.64 21.07 33.22 20.76C33.06 20.31 32.88 19.87 32.69 19.43C32.34 20.09 31.85 20.91 31.43 21.59ZM33.6 21.89C32.57 22.43 31.51 22.87 30.41 23.2C29.72 24.27 29.01 25.34 28.3 26.41C27.92 26.96 27.55 27.52 27.18 28.08C28.83 28.34 31.14 29.09 31.66 30.65L34.92 30.65C34.87 27.63 34.44 24.63 33.6 21.89ZM24.42 39.68C21.79 39.77 19.17 40.45 16.77 41.74C18.16 45.62 20.79 49.6 24.42 49.99L24.42 39.68ZM33.22 41.74C30.82 40.45 28.2 39.77 25.57 39.68L25.57 50C29.2 49.6 31.83 45.62 33.22 41.74ZM25.57 38.49C28.33 38.58 31.07 39.28 33.6 40.6C34.39 38.01 34.87 35.03 34.92 31.84L31.66 31.84C31.4 32.61 30.66 33.26 29.6 33.74C28.54 34.21 27.12 34.51 25.57 34.58L25.57 38.49ZM16.39 40.6C18.92 39.28 21.66 38.58 24.42 38.49L24.42 34.58C22.87 34.51 21.45 34.21 20.39 33.74C19.33 33.26 18.59 32.61 18.33 31.84L15.07 31.84C15.12 35.03 15.6 38.01 16.39 40.6ZM37.41 17.64C36.32 16.56 35.12 15.63 33.8 14.86C33.81 15.94 33.65 16.99 33.3 18.01C33.64 18.69 33.94 19.41 34.22 20.17C35.38 19.46 36.44 18.61 37.41 17.64ZM43 30.65C42.86 26.04 41.12 21.77 38.22 18.49C37.13 19.57 35.92 20.53 34.61 21.32C35.54 24.23 36.01 27.45 36.06 30.65L43 30.65ZM38.21 44C41.07 40.79 42.85 36.53 43 31.84L36.06 31.84C36.01 35.24 35.49 38.41 34.61 41.18C35.92 41.97 37.12 42.91 38.21 44ZM29.65 49.4C32.61 48.57 35.26 46.98 37.41 44.85C36.44 43.88 35.38 43.04 34.22 42.32C33.22 45.05 31.71 47.68 29.65 49.4ZM12.58 44.85C14.73 46.98 17.38 48.57 20.34 49.4C18.28 47.68 16.77 45.05 15.77 42.32C14.64 43.02 13.57 43.87 12.58 44.85ZM7 31.84C7.14 36.53 8.92 40.79 11.78 44C12.87 42.91 14.07 41.97 15.38 41.18C14.5 38.41 13.98 35.24 13.93 31.84L7 31.84ZM11.77 18.49C8.87 21.77 7.13 26.04 7 30.65L13.93 30.65C13.98 27.45 14.45 24.23 15.38 21.32C14.07 20.52 12.87 19.58 11.77 18.49ZM16.19 14.86C14.87 15.63 13.67 16.56 12.58 17.64C13.55 18.61 14.61 19.46 15.77 20.17C16.05 19.41 16.35 18.69 16.69 18.01C16.34 16.99 16.18 15.94 16.19 14.86Z" fill="#2E3760" fill-opacity="1.000000" fill-rule="nonzero"/>
	<path id="path" d="M10.19 10.81C10.17 10.88 10.14 10.95 10.09 11.01C10.05 11.08 9.99 11.13 9.93 11.17C9.86 11.21 9.79 11.23 9.72 11.24C9.64 11.25 9.57 11.25 9.49 11.23C9.19 11.14 9.01 10.81 9.09 10.5C10.22 6.1 13 2.35 16.76 0.08C17.03 -0.09 17.38 0.01 17.54 0.29C17.7 0.57 17.61 0.94 17.33 1.1C13.83 3.22 11.24 6.71 10.19 10.81Z" fill="#FF695A" fill-opacity="1.000000" fill-rule="nonzero"/>
</svg>
