<svg width="50.000000" height="50.000000" viewBox="0 0 50 50" fill="none" xmlns="http://www.w3.org/2000/svg" xmlns:xlink="http://www.w3.org/1999/xlink">
	<desc>
			Created with Pixso.
	</desc>
	<defs/>
	<circle id="Эллипс 9" cx="25.000000" cy="25.000000" r="25.000000" fill="#FFFFFF" fill-opacity="1.000000"/>
	<path id="path" d="M14.09 10C16.35 10 18.18 12.17 18.18 14.86L18.18 18.51C18.18 19.4 18.79 20.13 19.54 20.13C20.29 20.13 20.9 19.4 20.9 18.51L20.9 14.86C20.9 12.17 22.74 10 25 10C27.25 10 29.09 12.17 29.09 14.86L29.09 18.51C29.09 19.4 29.7 20.13 30.45 20.13C31.2 20.13 31.81 19.4 31.81 18.51L31.81 14.86C31.81 12.17 33.64 10 35.9 10C38.16 10 40 12.17 40 14.86L40 30.27C40 35.64 36.33 40 31.81 40L18.18 40C13.66 40 10 35.64 10 30.27L10 14.86C10 12.17 11.83 10 14.09 10ZM25 21.35C25.19 21.35 25.37 21.51 25.42 21.74L25.98 24.42C26.1 24.98 26.14 25.14 26.21 25.27C26.27 25.4 26.36 25.5 26.47 25.58C26.57 25.66 26.71 25.71 27.18 25.85L29.44 26.52C29.63 26.58 29.77 26.79 29.77 27.02C29.77 27.26 29.63 27.47 29.44 27.52L27.18 28.19C26.71 28.33 26.57 28.38 26.47 28.46C26.36 28.54 26.27 28.65 26.21 28.77C26.14 28.9 26.1 29.06 25.98 29.62L25.42 32.31C25.37 32.54 25.19 32.7 25 32.7C24.8 32.7 24.62 32.54 24.57 32.31L24.01 29.62C23.89 29.06 23.85 28.9 23.78 28.77C23.72 28.65 23.63 28.54 23.52 28.46C23.42 28.38 23.28 28.33 22.81 28.19L20.55 27.52C20.36 27.47 20.22 27.26 20.22 27.02C20.22 26.79 20.36 26.58 20.55 26.52L22.81 25.85C23.28 25.71 23.42 25.66 23.52 25.58C23.63 25.5 23.72 25.4 23.78 25.27C23.85 25.14 23.89 24.98 24.01 24.42L24.57 21.74C24.62 21.51 24.8 21.35 25 21.35Z" fill="#000000" fill-opacity="1.000000" fill-rule="evenodd"/>
</svg>
