<svg width="50.000000" height="50.000000" viewBox="0 0 50 50" fill="none" xmlns="http://www.w3.org/2000/svg" xmlns:xlink="http://www.w3.org/1999/xlink">
	<desc>
			Created with Pixso.
	</desc>
	<defs>
		<linearGradient x1="24.682526" y1="6.657792" x2="24.890614" y2="41.866623" id="paint_linear_370_32_0" gradientUnits="userSpaceOnUse">
			<stop stop-color="#57D163"/>
			<stop offset="1.000000" stop-color="#23B33A"/>
		</linearGradient>
	</defs>
	<path id="path" d="M0 50L3.53 37.16C1.35 33.39 0.2 29.12 0.2 24.77C0.21 11.11 11.38 0 25.1 0C31.76 0 38.01 2.58 42.71 7.26C47.41 11.94 50 18.17 50 24.79C49.99 38.45 38.82 49.57 25.1 49.57C20.93 49.56 16.83 48.52 13.19 46.55L0 50Z" fill="#FFFFFF" fill-opacity="1.000000" fill-rule="nonzero"/>
	<path id="path" d="M25.11 4.18C13.69 4.18 4.41 13.42 4.41 24.77C4.4 28.65 5.5 32.45 7.57 35.73L8.06 36.51L5.97 44.11L13.8 42.06L14.56 42.51C17.74 44.39 21.38 45.38 25.09 45.38C36.5 45.38 45.79 36.14 45.79 24.79C45.8 22.08 45.27 19.4 44.23 16.9C43.19 14.4 41.66 12.13 39.74 10.22C37.82 8.3 35.54 6.78 33.03 5.74C30.52 4.7 27.83 4.17 25.11 4.18Z" fill="url(#paint_linear_370_32_0)" fill-opacity="1.000000" fill-rule="nonzero"/>
	<path id="path" d="M18.88 14.41C18.41 13.38 17.92 13.36 17.48 13.34L16.29 13.33C15.87 13.33 15.2 13.48 14.63 14.1C14.06 14.72 12.45 16.22 12.45 19.27C12.45 22.31 14.68 25.26 14.99 25.67C15.3 26.09 19.29 32.54 25.62 35.02C30.87 37.08 31.94 36.67 33.08 36.57C34.22 36.47 36.76 35.07 37.28 33.62C37.8 32.18 37.8 30.94 37.64 30.68C37.49 30.42 37.07 30.27 36.45 29.96C35.83 29.65 32.77 28.15 32.2 27.94C31.63 27.74 31.21 27.63 30.8 28.25C30.38 28.87 29.19 30.27 28.83 30.68C28.47 31.09 28.1 31.15 27.48 30.84C26.86 30.53 24.86 29.87 22.48 27.76C20.63 26.12 19.38 24.09 19.02 23.47C18.65 22.86 18.98 22.52 19.29 22.21C19.57 21.93 19.91 21.49 20.23 21.13C20.54 20.77 20.64 20.51 20.85 20.09C21.05 19.68 20.95 19.32 20.79 19.01C20.64 18.7 19.43 15.64 18.88 14.41Z" fill="#FFFFFF" fill-opacity="1.000000" fill-rule="evenodd"/>
</svg>
