<svg width="50" height="50" viewBox="0 0 50 50" fill="none" xmlns="http://www.w3.org/2000/svg">
<path d="M50 25C50 38.8071 38.8071 50 25 50C11.1929 50 0 38.8071 0 25C0 11.1929 11.1929 0 25 0C38.8071 0 50 11.1929 50 25Z" fill="#AAD400"/>
<path d="M21.2875 2.80382C20.4948 2.80382 19.8569 3.44185 19.8569 4.23443V9.09845C19.8569 9.89103 20.4948 10.5291 21.2875 10.5291H25.5078C26.2422 14.2494 25.9239 15.8925 24.5511 19.837C23.5211 18.5664 22.1183 17.7081 20.5007 17.0741C19.1107 16.5294 17.919 15.7402 17.4606 14.7673C17.5481 14.582 17.6044 14.3783 17.6044 14.1592V9.29519C17.6044 8.50268 16.9662 7.86459 16.1737 7.86459H11.3097C10.5171 7.86459 9.87903 8.50268 9.87903 9.29519V14.1592C9.87903 14.9518 10.5171 15.5898 11.3097 15.5898H16.1737C16.5654 15.5898 16.9172 15.432 17.1752 15.1786C17.451 16.4867 18.4958 17.3056 20.2151 18.1649C21.7676 18.9409 22.9855 20.7746 23.586 22.5551C23.2832 23.4079 22.965 24.3147 22.6024 25.3717C21.9225 27.4022 21.0657 29.7557 20.4566 32.3369C19.7729 31.9413 19.0317 31.6671 18.2571 31.5232C17.9263 31.3048 17.6809 31.1012 17.5059 30.8527C16.9592 30.0758 17.3383 28.578 17.1662 27.5175H19.0618C19.8544 27.5175 20.4923 26.8795 20.4923 26.0869V21.2229C20.4923 20.4304 19.8544 19.7923 19.0618 19.7923H14.2066C13.4141 19.7923 12.7761 20.4304 12.7761 21.2229V26.0869C12.7761 26.8795 13.4141 27.5175 14.2066 27.5175H16.8174C16.7721 28.6323 15.9432 30.3481 16.6566 31.3623C16.6566 31.3701 16.6722 31.3809 16.6738 31.3891C16.6253 31.3892 16.5784 31.3891 16.53 31.3891C13.6257 31.4473 11.9861 30.9958 10.3069 29.9495C10.5603 29.6916 10.7181 29.3309 10.7181 28.9391V24.084C10.7181 23.2914 10.0802 22.6533 9.28757 22.6533H4.42345C3.63095 22.6533 2.99274 23.2914 2.99274 24.084V28.9391C2.99274 29.7316 3.63095 30.3698 4.42345 30.3698H9.28757C9.38913 30.3698 9.49566 30.3635 9.5916 30.3431C11.1172 31.8129 13.2641 32.9238 16.2797 33.3204C18.175 33.5697 19.2949 33.9601 20.017 34.5097C19.3859 38.3802 19.506 42.6759 21.6266 47.1438C21.9872 47.1983 22.3423 47.2675 22.7084 47.3047C23.4623 47.3813 24.2232 47.421 24.9973 47.421C25.7713 47.421 26.5413 47.3813 27.2952 47.3047C27.5708 47.2768 28.4088 47.1369 28.6813 47.099C25.0154 40.6987 24.4591 34.9674 25.5874 29.5294C25.9983 29.1195 26.4834 28.8123 27.045 28.5547C28.3858 27.9397 30.4887 27.5067 32.052 27.3656C35.1238 27.1287 38.3039 26.1675 38.9815 23.7443C39.2378 23.9873 39.5915 24.1377 39.9741 24.1377H44.8293C45.6218 24.1377 46.2598 23.4998 46.2598 22.7072V17.8431C46.2598 17.0505 45.6218 16.4125 44.8293 16.4125H39.9741C39.1816 16.4125 38.5434 17.0505 38.5434 17.8431V22.7072C38.5434 22.8492 38.5685 22.9802 38.606 23.1095C38.2465 24.7778 36.1331 25.1815 34.2069 25.3269C34.8217 24.6509 35.1466 23.9854 35.4854 23.2615C36.1538 21.8327 35.8285 20.0039 35.6822 19.1574C35.3335 18.0336 35.0973 16.1966 35.3603 14.5169H37.3096C38.1021 14.5169 38.7401 13.8789 38.7401 13.0863V8.22221C38.7401 7.42965 38.1021 6.79161 37.3096 6.79161H32.4454C31.6528 6.79161 31.0147 7.42965 31.0147 8.22221V13.0863C31.0147 13.8789 31.6528 14.5169 32.4454 14.5169H34.9221C34.3657 15.9521 34.4294 17.6176 34.7343 19.3184C34.8624 20.0603 34.6954 21.5699 34.189 22.6535C33.7133 23.6702 33.1918 24.3408 30.9344 25.5325C29.5534 25.6318 27.8779 25.7604 26.4457 26.3194C28.8524 18.5574 27.5915 13.4611 26.5269 10.4755C27.1333 10.3095 27.5821 9.7589 27.5821 9.09845V4.23443C27.5821 3.44185 26.9441 2.80382 26.1516 2.80382H21.2875Z" fill="black"/>
<path d="M29.7191 3.20616C29.8175 3.53471 29.8705 3.87826 29.8705 4.23442V5.57566C30.5444 4.91966 31.4537 4.50268 32.4458 4.50268H33.7869C32.4897 3.94414 31.1285 3.51138 29.7191 3.20616ZM17.5767 3.97511C16.3524 4.40855 15.1794 4.94473 14.0628 5.57566H16.1729C16.6653 5.57566 17.1335 5.67998 17.5678 5.86167V4.23442C17.5678 4.14723 17.5678 4.06095 17.5834 3.97511H17.5767ZM41.0299 9.50976V13.0863C41.0299 13.447 40.961 13.7912 40.8599 14.1234H44.4633C43.5178 12.4393 42.3633 10.8888 41.0299 9.50976ZM7.58928 11.0834C5.40303 13.8108 3.84042 17.055 3.12761 20.6059C3.53417 20.4496 3.96919 20.3645 4.42403 20.3645H7.88434C8.187 19.2373 8.59375 18.1533 9.10047 17.1277C8.19094 16.4432 7.58928 15.3592 7.58928 14.1592V11.0834ZM47.2976 25.461C46.6357 26.057 45.7696 26.4267 44.8299 26.4267H42.6572C42.035 34.2595 36.37 40.631 28.8875 42.2976C29.3576 43.4837 29.9433 44.7001 30.6669 45.9635C30.7637 46.1334 30.8406 46.3196 30.8904 46.5089C40.191 43.9536 47.0898 35.5089 47.2976 25.461ZM4.0397 32.6409C6.47392 39.2895 11.9921 44.4645 18.8464 46.4374C18.1644 44.6261 17.7737 42.8431 17.5857 41.1083C13.8987 39.4146 10.8948 36.5031 9.10047 32.8733C9.00672 32.8026 8.91364 32.7315 8.82333 32.6589H4.42422C4.29454 32.6589 4.16595 32.6527 4.0397 32.6409Z" fill="black"/>
<path d="M50 25C50 38.8071 38.8071 50 25 50C11.1929 50 0 38.8071 0 25C0 11.1929 11.1929 0 25 0C38.8071 0 50 11.1929 50 25Z" fill="url(#paint0_radial_7_40)"/>
<defs>
<radialGradient id="paint0_radial_7_40" cx="0" cy="0" r="1" gradientUnits="userSpaceOnUse" gradientTransform="translate(12.7755 22.7685) rotate(-0.379031) scale(37.1042 25)">
<stop stop-opacity="0"/>
<stop offset="1" stop-opacity="0.12549"/>
</radialGradient>
</defs>
</svg>
