<svg width="50.000000" height="50.000000" viewBox="0 0 50 50" fill="none" xmlns="http://www.w3.org/2000/svg" xmlns:xlink="http://www.w3.org/1999/xlink">
	<desc>
			Created with Pixso.
	</desc>
	<defs/>
	<path id="path" d="M22.91 0L1.04 0C0.9 0 0.77 0.02 0.64 0.07C0.51 0.13 0.4 0.2 0.3 0.3C0.2 0.4 0.13 0.51 0.07 0.64C0.02 0.77 -9.16e-5 0.9 0 1.04L0 22.91C-9.16e-5 23.05 0.02 23.18 0.07 23.31C0.13 23.44 0.2 23.55 0.3 23.65C0.4 23.75 0.51 23.82 0.64 23.87C0.77 23.93 0.9 23.95 1.04 23.95L22.91 23.95C23.05 23.95 23.18 23.93 23.31 23.87C23.44 23.82 23.55 23.75 23.65 23.65C23.75 23.55 23.82 23.44 23.87 23.31C23.93 23.18 23.95 23.05 23.95 22.91L23.95 1.04C23.95 0.9 23.93 0.77 23.87 0.64C23.82 0.51 23.75 0.4 23.65 0.3C23.55 0.2 23.44 0.13 23.31 0.07C23.18 0.02 23.05 0 22.91 0Z" fill="#314E55" fill-opacity="1.000000" fill-rule="nonzero"/>
	<path id="path" d="M2.08 2.08L21.87 2.08L21.87 21.87L2.08 21.87L2.08 2.08Z" fill="#E65F58" fill-opacity="1.000000" fill-rule="nonzero"/>
	<path id="path" d="M22.91 26.04L1.04 26.04C0.9 26.04 0.77 26.06 0.64 26.12C0.51 26.17 0.4 26.24 0.3 26.34C0.2 26.44 0.13 26.55 0.07 26.68C0.02 26.81 -9.16e-5 26.94 0 27.08L0 48.95C-9.16e-5 49.09 0.02 49.22 0.07 49.35C0.13 49.48 0.2 49.59 0.3 49.69C0.4 49.79 0.51 49.86 0.64 49.92C0.77 49.97 0.9 50 1.04 50L22.91 50C23.05 50 23.18 49.97 23.31 49.92C23.44 49.86 23.55 49.79 23.65 49.69C23.75 49.59 23.82 49.48 23.87 49.35C23.93 49.22 23.95 49.09 23.95 48.95L23.95 27.08C23.95 26.94 23.93 26.81 23.87 26.68C23.82 26.55 23.75 26.44 23.65 26.34C23.55 26.24 23.44 26.17 23.31 26.12C23.18 26.06 23.05 26.04 22.91 26.04Z" fill="#314E55" fill-opacity="1.000000" fill-rule="nonzero"/>
	<path id="path" d="M2.08 28.12L21.87 28.12L21.87 47.91L2.08 47.91L2.08 28.12Z" fill="#81A4E3" fill-opacity="1.000000" fill-rule="nonzero"/>
	<path id="path" d="M48.95 26.04L27.08 26.04C26.94 26.04 26.81 26.06 26.68 26.12C26.55 26.17 26.44 26.24 26.34 26.34C26.24 26.44 26.17 26.55 26.12 26.68C26.06 26.81 26.04 26.94 26.04 27.08L26.04 48.95C26.04 49.09 26.06 49.22 26.12 49.35C26.17 49.48 26.24 49.59 26.34 49.69C26.44 49.79 26.55 49.86 26.68 49.92C26.81 49.97 26.94 50 27.08 50L48.95 50C49.09 50 49.22 49.97 49.35 49.92C49.48 49.86 49.59 49.79 49.69 49.69C49.79 49.59 49.86 49.48 49.92 49.35C49.97 49.22 50 49.09 50 48.95L50 27.08C50 26.94 49.97 26.81 49.92 26.68C49.86 26.55 49.79 26.44 49.69 26.34C49.59 26.24 49.48 26.17 49.35 26.12C49.22 26.06 49.09 26.04 48.95 26.04Z" fill="#314E55" fill-opacity="1.000000" fill-rule="nonzero"/>
	<path id="path" d="M28.12 28.12L47.91 28.12L47.91 47.91L28.12 47.91L28.12 28.12Z" fill="#E4AD40" fill-opacity="1.000000" fill-rule="nonzero"/>
	<path id="path" d="M48.95 0L27.08 0C26.94 0 26.81 0.02 26.68 0.07C26.55 0.13 26.44 0.2 26.34 0.3C26.24 0.4 26.17 0.51 26.12 0.64C26.06 0.77 26.04 0.9 26.04 1.04L26.04 22.91C26.04 23.05 26.06 23.18 26.12 23.31C26.17 23.44 26.24 23.55 26.34 23.65C26.44 23.75 26.55 23.82 26.68 23.87C26.81 23.93 26.94 23.95 27.08 23.95L48.95 23.95C49.09 23.95 49.22 23.93 49.35 23.87C49.48 23.82 49.59 23.75 49.69 23.65C49.79 23.55 49.86 23.44 49.92 23.31C49.97 23.18 50 23.05 50 22.91L50 1.04C50 0.9 49.97 0.77 49.92 0.64C49.86 0.51 49.79 0.4 49.69 0.3C49.59 0.2 49.48 0.13 49.35 0.07C49.22 0.02 49.09 0 48.95 0Z" fill="#314E55" fill-opacity="1.000000" fill-rule="nonzero"/>
	<path id="path" d="M28.12 2.08L47.91 2.08L47.91 21.87L28.12 21.87L28.12 2.08Z" fill="#5ECB66" fill-opacity="1.000000" fill-rule="nonzero"/>
</svg>
