<svg width="50.000000" height="50.000000" viewBox="0 0 50 50" fill="none" xmlns="http://www.w3.org/2000/svg" xmlns:xlink="http://www.w3.org/1999/xlink">
	<desc>
			Created with Pixso.
	</desc>
	<defs/>
	<g opacity="0.000000">
		<rect id="Прямоугольник 59" width="50.000000" height="50.000000" fill="#C4C4C4" fill-opacity="1.000000"/>
	</g>
	<path id="path" d="M38.31 12.29L17.62 0.62C16.31 -0.11 15.13 -0.18 14.27 0.3L8.43 3.62C7.59 4.1 7.07 5.11 7.06 6.56L7 29.78C6.99 32.69 9.09 36.24 11.68 37.7L32.37 49.37C33.72 50.12 34.93 50.17 35.79 49.64C35.76 49.66 35.74 49.67 35.72 49.69L41.56 46.37C42.4 45.89 42.92 44.88 42.93 43.43L42.99 20.21C43 17.3 40.9 13.75 38.31 12.29Z" fill="#3D99E2" fill-opacity="1.000000" fill-rule="nonzero"/>
	<path id="path" d="M41.56 46.37L35.72 49.69C36.56 49.21 37.08 48.19 37.09 46.74L42.93 43.43C42.92 44.88 42.4 45.89 41.56 46.37Z" fill="#5AAAE7" fill-opacity="1.000000" fill-rule="nonzero"/>
	<path id="path" d="M8.43 3.62L14.27 0.3C15.13 -0.18 16.31 -0.11 17.62 0.62L11.78 3.94C10.47 3.2 9.29 3.13 8.43 3.62ZM37.16 23.53L43 20.21L42.93 43.43L37.09 46.74L37.16 23.53Z" fill="#78BAEC" fill-opacity="1.000000" fill-rule="nonzero"/>
	<path id="path" d="M11.78 3.94L17.62 0.62L38.31 12.29L32.47 15.6L11.78 3.94Z" fill="#97C7EF" fill-opacity="1.000000" fill-rule="nonzero"/>
	<path id="path" d="M32.47 15.6L38.31 12.29C40.91 13.75 43 17.3 43 20.21L37.16 23.53C37.16 20.61 35.07 17.07 32.47 15.6Z" fill="#B3D8F5" fill-opacity="1.000000" fill-rule="nonzero"/>
	<path id="path" d="M21.77 36.49C20.91 36 20.09 35.4 19.31 34.7L21.95 27.64L24.61 37.39C24.63 37.45 24.65 37.51 24.67 37.56C23.76 37.41 22.79 37.06 21.77 36.49ZM17.97 33.36C15.06 30.13 13.06 25.65 13.07 21.78C13.08 20.36 13.35 19.16 13.84 18.22L17.97 33.36ZM26.16 37.63L28.85 30.49C29.35 29.37 29.52 28.35 29.53 27.36C29.53 27.01 29.51 26.66 29.47 26.31C30.15 28.09 30.53 29.91 30.53 31.61C30.51 35.23 28.76 37.39 26.16 37.63ZM15.09 17.54C14.9 17.43 14.71 17.32 14.53 17.21C16.09 15.43 18.78 15.19 21.83 16.9C24.1 18.19 26.17 20.33 27.71 22.8C27.68 22.77 27.64 22.75 27.6 22.73C26.74 22.24 26.13 22.74 26.13 23.64C26.13 24.44 26.54 25.36 26.98 26.41C27.31 27.25 27.69 28.31 27.69 29.52C27.69 30.36 27.46 31.29 27.02 32.31L26.14 35.08L23.01 22.78C23.34 22.95 23.68 23.1 24.01 23.25C24.48 23.45 24.43 22.68 23.99 22.43C23.98 22.42 23.97 22.42 23.96 22.41C23.96 22.41 22.55 21.74 21.63 21.23C20.78 20.74 19.34 19.81 19.34 19.81C19.33 19.8 19.32 19.8 19.31 19.79C18.86 19.54 18.82 20.29 19.28 20.58C19.28 20.58 19.72 20.9 20.19 21.19L21.54 26.14L19.61 31.49L16.47 19.09C16.79 19.26 17.13 19.41 17.46 19.56C17.93 19.76 17.88 18.99 17.44 18.74C17.43 18.73 17.42 18.73 17.41 18.72C17.41 18.72 16 18.05 15.09 17.54ZM21.83 15.18C16.16 11.98 11.55 14.55 11.53 20.91C11.52 27.27 16.1 35.02 21.77 38.21C27.43 41.41 32.05 38.84 32.06 32.48C32.08 26.12 27.5 18.37 21.83 15.18Z" fill="#FFFFFF" fill-opacity="1.000000" fill-rule="nonzero"/>
</svg>
