<svg width="50.000000" height="50.000000" viewBox="0 0 50 50" fill="none" xmlns="http://www.w3.org/2000/svg" xmlns:xlink="http://www.w3.org/1999/xlink">
	<desc>
			Created with Pixso.
	</desc>
	<defs/>
	<path id="path" d="M25 4.51C36.11 4.51 45.13 13.53 45.13 24.65C45.13 35.77 36.11 44.78 25 44.78C13.88 44.78 4.86 35.77 4.86 24.65C4.86 13.53 13.88 4.51 25 4.51ZM25 19.03C28.1 19.03 30.61 21.55 30.61 24.65C30.61 27.75 28.1 30.26 25 30.26C21.89 30.26 19.38 27.75 19.38 24.65C19.38 21.55 21.89 19.03 25 19.03Z" fill="#8AC1DF" fill-opacity="1.000000" fill-rule="evenodd"/>
	<path id="path" d="M25 4.38C36.19 4.38 45.26 13.45 45.26 24.65C45.26 35.84 36.19 44.92 25 44.92C13.8 44.92 4.73 35.84 4.73 24.65C4.73 13.45 13.8 4.38 25 4.38ZM25 8.71C33.8 8.71 40.93 15.84 40.93 24.65C40.93 33.45 33.8 40.59 25 40.59C16.19 40.59 9.06 33.45 9.06 24.65C9.06 15.84 16.19 8.71 25 8.71Z" fill="#A2D9F7" fill-opacity="1.000000" fill-rule="evenodd"/>
	<path id="path" d="M25 8.71L25 0L31.86 5.57L25 8.71ZM13.48 13.48L7.32 7.32L16.12 6.4L13.48 13.48ZM14.37 37.4L8.21 43.56L7.29 34.76L14.37 37.4ZM35.62 12.59L41.78 6.43L42.7 15.23L35.62 12.59ZM38.29 34.73L44.45 40.9L35.65 41.81L38.29 34.73ZM8.71 26.25L0 26.25L5.57 19.38L8.71 26.25ZM41.28 23.74L50 23.74L44.42 30.61L41.28 23.74ZM27.51 41.28L27.51 50L20.64 44.42L27.51 41.28ZM30.55 9.68L33.52 1.49L38.08 9.08L30.55 9.68ZM18.1 10.24L14.41 2.35L22.99 4.49L18.1 10.24ZM10.77 33.03L2.88 36.72L5.02 28.14L10.77 33.03ZM39.22 16.96L47.11 13.27L44.97 21.85L39.22 16.96ZM34.17 38.68L37.86 46.58L29.28 44.44L34.17 38.68ZM9.26 20.62L1.07 17.65L8.65 13.1L9.26 20.62ZM40.73 29.37L48.92 32.34L41.34 36.89L40.73 29.37ZM21.8 41.16L18.83 49.35L14.28 41.77L21.8 41.16Z" fill="#A2D9F7" fill-opacity="1.000000" fill-rule="evenodd"/>
	<path id="path" d="M24.97 16.55C29.35 16.55 32.91 20.1 32.91 24.49C32.91 28.88 29.35 32.43 24.97 32.43C20.58 32.43 17.02 28.88 17.02 24.49C17.02 20.1 20.58 16.55 24.97 16.55ZM24.97 17.78C28.67 17.78 31.68 20.78 31.68 24.49C31.68 28.2 28.67 31.2 24.97 31.2C21.26 31.2 18.26 28.2 18.26 24.49C18.26 20.78 21.26 17.78 24.97 17.78Z" fill="#7AACC8" fill-opacity="1.000000" fill-rule="evenodd"/>
	<path id="path" d="M24.97 8.08C34.03 8.08 41.37 15.43 41.37 24.49C41.37 33.55 34.03 40.89 24.97 40.89C15.9 40.89 8.56 33.55 8.56 24.49C8.56 15.43 15.9 8.08 24.97 8.08ZM24.97 10.63C32.62 10.63 38.83 16.83 38.83 24.49C38.83 32.14 32.62 38.35 24.97 38.35C17.31 38.35 11.11 32.14 11.11 24.49C11.11 16.83 17.31 10.63 24.97 10.63Z" fill="#BBE3F9" fill-opacity="1.000000" fill-rule="evenodd"/>
</svg>
