<svg width="107" height="129" xmlns="http://www.w3.org/2000/svg">

 <g>
  <title>background</title>
  <rect fill="#7c3025" id="canvas_background" height="131" width="109" y="-1" x="-1"/>
 </g>
 <g>
  <title>Layer 1</title>
  <path id="svg_1" d="m106.5275,114.26c-0.54568,-0.74253 -5.2686,-4.031 -7.5434,-6.5386s-4.9743,-5.9166 -10.745,-8.1442c-6.9444,-2.4254 -19.293,-4.7547 -19.293,-4.7547l3.3177,-12.542l2.0526,0c9.8421,0 18.699,-4.4555 18.699,-13.193c0,-2.8066 -0.24622,-4.4074 -0.24622,-4.4074s11.958,-9.0169 11.958,-24.303c0,-12.768 -14.459,-21.491 -14.459,-28.864c0,-1.8372 1.5649,-3.6454 4.6896,-3.9492l5.7418,-0.72811c1.3668,-0.17345 1.4536,-2.1217 0.10644,-2.411l-5.4911,-1.1958c-0.6906,-0.14941 -1.3424,-0.44844 -1.9124,-0.87277l-0.56011,-0.41949c-1.2847,-1.003 -2.1539,-1.9915 -5.5828,-1.9915c-3.453,0 -6.6934,2.1747 -6.6934,9.1424c0,11.549 14.121,18.733 14.121,29.366c0,4.0746 -3.1151,8.5158 -9.6199,8.5158c-7.9685,0 -14.377,-9.8562 -31.434,-9.8562c-5.7178,0 -11.136,1.1093 -15.565,3.4042c-8.2775,-4.007 -35.1,2.7775 -35.1,25.937c0,3.814 1.3329,7.1557 4.4575,7.1557c1.1301,0 2.4147,-0.59794 2.8638,-0.82462c0.55536,-0.27957 2.2118,-1.1138 2.2118,-1.1138s2.0573,2.7967 5.6359,2.7967c7.3937,0 11.141,-6.0323 11.141,-6.0323l5.1578,4.0166l-10.171,7.0547c-0.84997,0.58832 -1.4923,1.4274 -1.84,2.4062l-8.8232,24.105c-0.37188,1.0269 -0.84516,1.244 -1.6227,1.5236c-1.0576,0.37127 -5.9353,1.6781 -4.67,5.7624c-3.3612,-1.1523 -5.6407,4.3206 -6.4858,6.9919c-0.84996,2.6713 -1.188,6.5818 -0.83548,7.5703c0,0 0.74372,1.6492 2.1394,1.1622c0.18352,-0.0628 0.33805,-0.17858 0.48294,-0.30875c1.9221,-1.6826 2.4098,-2.2036 5.916,-5.3523c5.5055,-4.9522 10.919,-6.982 15.034,-16.457c3.7235,-8.5783 8.2099,-18.246 8.2099,-18.246c0.66174,-1.3065 1.8688,-2.2468 3.2936,-2.5796l23.973,-5.5309l-1.1443,18.14c-0.13049,2.0445 1.2892,3.8624 3.3033,4.2337l22.963,3.9782c1.5938,4.6534 3.9022,5.6466 6.4905,3.9733c-0.25585,1.379 -0.19782,2.705 2.4681,4.176c2.6656,1.4706 5.4956,1.8804 7.7655,2.0686c1.328,0.11061 2.4097,0.10099 3.2693,-0.01c1.0336,-0.1353 2.1298,-0.5739 2.5453,-1.5287c0.15935,-0.3905 0.18339,-0.84866 -0.16928,-1.326l-0.00069,0.00044zm49.262,-63.695c-0.15389,4.661 -0.37287,8.7963 -0.68066,12.397c-0.30009,3.6091 -0.68098,6.7649 -1.1266,9.468c-0.37287,2.7028 -0.82653,5.0333 -1.3536,6.9912c-0.52676,1.8775 -1.0939,3.496 -1.6938,4.8473l25.521,0l0,-55.871l-19.872,0l-0.79434,22.1675zm-23.819,60.65l0,-26.947l5.3084,0c1.8073,-3.0102 3.0878,-7.3314 3.8416,-12.964c0.82686,-5.713 1.4264,-13.231 1.8073,-22.544l1.1266,-30.955l46.066,0l0,66.471l7.3426,0l0,26.947l-12.756,0l0,-16.346l-39.972,0l0,16.346l-12.765,0l0.0005,-0.008zm94.004,-63.575c-3.2417,0 -5.6892,1.1654 -7.3426,3.496c-1.6534,2.3305 -2.561,5.7534 -2.7149,10.261l18.754,0l0,-1.125c0,-1.8044 -0.15389,-3.4552 -0.45399,-4.9605c-0.22667,-1.5777 -0.68065,-2.9291 -1.3533,-4.0622c-0.68066,-1.1247 -1.5803,-1.9907 -2.7149,-2.5896c-1.1266,-0.6797 -2.5126,-1.0196 -4.174,-1.0196l-0.00031,-0.0001zm-10.05,23.677c0.227,4.7338 1.394,8.2702 3.5011,10.601c2.1074,2.3305 5.6489,3.496 10.617,3.496c3.3148,0 6.5485,-0.52612 9.7174,-1.578c3.2417,-1.0519 5.9082,-2.2901 8.0233,-3.7223l0,10.932c-1.9612,1.3514 -4.5222,2.5168 -7.6831,3.496c-3.1606,0.97915 -6.8887,1.4646 -11.184,1.4646c-8.6636,0 -15.326,-2.4033 -19.994,-7.2179c-4.5953,-4.8069 -6.889,-12.179 -6.889,-22.1c0,-4.2805 0.48637,-8.2294 1.4671,-11.839c0.98043,-3.6091 2.4475,-6.7245 4.4087,-9.3545c2.0343,-2.7028 4.5546,-4.7746 7.5696,-6.1987c3.0878,-1.505 6.662,-2.2578 10.73,-2.2578c3.3879,0 6.4433,0.48573 9.1502,1.4649c2.7149,0.97915 5.0086,2.5569 6.8887,4.7338c1.9615,2.1766 3.4607,5.0009 4.5226,8.4561c1.0535,3.3825 1.5803,7.5501 1.5803,12.511l0,7.1048l-32.426,0l0.0001,0.008zm37.37,11.944c0.227,0.22667 0.48637,0.41262 0.79416,0.56652c0.29977,0.15357 0.59986,0.26707 0.90765,0.33984c0.37287,0.0728 0.82686,0.11318 1.3536,0.11318c1.1263,0 2.0343,-0.26707 2.7149,-0.79287c0.68066,-0.52613 1.2077,-1.3921 1.5803,-2.5896c0.37288,-1.2058 0.64027,-2.8159 0.79448,-4.8473c0.22667,-2.0311 0.41327,-4.5476 0.56716,-7.5498l1.1266,-30.329l38.521,0l0,56.709l-13.445,0l0,-46.117l-13.786,0l-0.68065,20.295c-0.1539,4.7342 -0.48637,8.7963 -1.0131,12.179c-0.52676,3.3824 -1.3533,6.1663 -2.4879,8.343c-1.1346,2.177 -2.6342,3.7951 -4.5222,4.8473c-1.8804,1.0519 -4.2552,1.5777 -7.116,1.5777c-1.5803,0 -2.8608,-0.18596 -3.8416,-0.5662c-0.52676,-0.1539 -1.0131,-0.34017 -1.4668,-0.56652l-0.0006,-11.61225zm72.259,-45.089l0,35.168l20.561,-35.168l11.972,0l0,56.701l-12.991,0l0,-35.055l-20.561,35.055l-11.971,0l0,-56.701l12.99,0zm67.107,0c12.584,0 18.996,4.7883 18.996,14.459c0,6.1327 -3.4081,10.911 -9.9902,12.877c7.653,1.1138 12.081,5.654 12.081,12.942c0,12.184 -9.7851,16.431 -20.269,16.431l-24.475,0l0,-56.71l23.6572,0.001zm-10.545,9.9524l0,12.863l8.6116,0c4.3764,0 7.9768,-1.8631 7.9768,-6.2907c0,-4.319 -2.4751,-6.5722 -7.7332,-6.5722l-8.8552,-0.0001zm-0.0128,36.924l9.0573,0c5.9762,0 9.0412,-2.2408 9.0412,-7.8178c0,-5.1333 -4.4405,-6.4202 -9.1342,-6.4202l-8.9643,0l0,14.238zm61.942,-37.404c-3.2414,0 -5.6876,1.1651 -7.342,3.4956c-1.6512,2.3305 -2.5617,5.7537 -2.7156,10.261l18.756,0l0,-1.1247c0,-1.8047 -0.15389,-3.4556 -0.45527,-4.9605c-0.22763,-1.578 -0.67969,-2.9294 -1.353,-4.0622c-0.67969,-1.125 -1.5806,-1.9907 -2.7156,-2.5896c-1.1253,-0.67969 -2.52,-1.0195 -4.1744,-1.0195l-0.00013,-0.0001zm-10.058,23.677c0.22763,4.7338 1.3947,8.2702 3.5011,10.601c2.1096,2.3305 5.6492,3.4956 10.619,3.4956c3.3151,0 6.5469,-0.52612 9.7177,-1.578c3.2414,-1.0519 5.9089,-2.2898 8.0217,-3.7223l0,10.933c-1.9589,1.3514 -4.5206,2.5165 -7.6819,3.4956s-6.8899,1.4649 -11.183,1.4649c-8.6661,0 -15.328,-2.4033 -19.997,-7.2182c-4.5944,-4.8066 -6.8867,-12.179 -6.8867,-22.099c0,-4.2808 0.48412,-8.2298 1.4652,-11.839c0.98107,-3.6091 2.4495,-6.7245 4.4084,-9.3545c2.0359,-2.7028 4.5559,-4.7742 7.5696,-6.1984c3.0875,-1.5053 6.6623,-2.2578 10.731,-2.2578c3.3889,0 6.4443,0.48541 9.1502,1.4646c2.7156,0.97915 5.008,2.5572 6.8899,4.7338c1.9621,2.177 3.4594,5.0009 4.5206,8.4564c1.0548,3.3824 1.5806,7.5498 1.5806,12.51l0,7.1048l-32.427,0l0.0006,0.0075zm113.32,-33.15l0,35.168l20.561,-35.168l11.978,0l0,56.701l-12.991,0l0,-35.055l-20.561,35.055l-11.981,0l0,-56.701l12.994,0zm-47.508,47.229c3.9115,0 6.813,-1.5053 8.695,-4.5072c1.9621,-3.0105 2.9336,-7.8172 2.9336,-14.428c0,-6.611 -0.90734,-11.386 -2.7156,-14.315c-1.8082,-3.0106 -4.5527,-4.5075 -8.2493,-4.5075c-3.7704,0 -6.5886,1.4242 -8.4706,4.2808c-1.8788,2.8563 -2.8598,7.4366 -2.9336,13.756l0,0.89836c0,6.611 0.86886,11.426 2.6034,14.428c1.8147,2.9294 4.5206,4.394 8.1371,4.394l0,0.00054zm-11.071,-39.91c1.7313,-2.7836 3.8794,-4.8874 6.4411,-6.3116c2.6354,-1.4245 5.537,-2.1446 8.6982,-2.1446c3.158,0 6.0596,0.6393 8.695,1.9179c2.6322,1.2786 4.8957,3.1962 6.7745,5.7534c1.882,2.4761 3.3568,5.5594 4.4084,9.2413c1.0548,3.6091 1.5806,7.7764 1.5806,12.51c0,4.7338 -0.56749,8.9419 -1.6928,12.624c-1.0548,3.6819 -2.5617,6.8053 -4.5238,9.3545c-1.8788,2.4761 -4.2128,4.3616 -7.0022,5.6402c-2.7156,1.2786 -5.6876,1.9179 -8.9226,1.9179c-5.9473,0 -10.657,-2.5896 -14.117,-7.7768l0,22.998l-13.446,0l0,-73.056l12.424,0l0.6826,7.3318z"/>
  <path id="svg_2" fill="#ffe033" d="m44.64084,44l-28.049,14.032l2.0138,7.503l21.017,-10.579l-5.7858,8.5783l6.6261,5.1448l14.662,-8.9204c-1.6999,2.4302 -5.3026,8.0525 -0.3671,12.657c7.6206,7.1076 23.282,-5.14 30.956,-11.548l-3.8249,-5.2657c-8.099,6.4472 -18.975,12.769 -21.09,10.883c-2.1006,-1.8708 3.9599,-8.6697 7.8668,-13.053l0.06284,-0.0673l-6.5969,-6.5674l-17.009,10.854l5.3751,-7.7537l-5.85694,-5.8976z"/>
 </g>
</svg>