<svg width="50.000000" height="50.000000" viewBox="0 0 50 50" fill="none" xmlns="http://www.w3.org/2000/svg" xmlns:xlink="http://www.w3.org/1999/xlink">
	<desc>
			Created with Pixso.
	</desc>
	<defs/>
	<circle id="circle" cx="25.000000" cy="25.000000" r="25.000000" fill="#E5E5E5" fill-opacity="1.000000"/>
	<path id="path" d="M39.84 12.48L41.4 14.59L28.77 23.85C28.95 24.45 28.99 25.05 28.88 25.67C28.77 26.28 28.53 26.84 28.16 27.34C27.79 27.84 27.32 28.23 26.77 28.51C26.21 28.79 25.62 28.93 25 28.93C24.37 28.93 23.78 28.79 23.23 28.52C22.67 28.24 22.2 27.85 21.83 27.35C21.46 26.85 21.21 26.29 21.1 25.68C20.99 25.07 21.03 24.46 21.21 23.86L12.76 17.73L14.31 15.6L22.76 21.75C24.24 20.72 25.73 20.72 27.22 21.75L39.84 12.48Z" fill="#000000" fill-opacity="1.000000" fill-rule="evenodd"/>
	<path id="path" d="M24.99 23.02C25.51 23.02 25.96 23.19 26.34 23.53C26.72 23.88 26.94 24.31 26.98 24.82C27.03 25.34 26.89 25.8 26.58 26.21C26.26 26.61 25.85 26.86 25.34 26.94L20.59 45L18.99 44.57L23.73 26.52C23.01 25.93 22.81 25.2 23.13 24.32C23.44 23.45 24.06 23.02 24.99 23.02Z" fill="#FF3A30" fill-opacity="1.000000" fill-rule="nonzero"/>
</svg>
