<svg xmlns:xlink="http://www.w3.org/1999/xlink" xmlns="http://www.w3.org/2000/svg" width="140" height="36" viewBox="0 0 140 36" fill="none">
<g clip-path="url(#clip0_690_8110)">
<path d="M2.34534 30.8203V32.3672H0.680502V30.8203H0V34.8058H0.680502V33.0453H2.34534V34.8058H3.02792V30.8203H2.34534Z" fill="#173583"/>
<path d="M5.54091 31.9687C5.36194 31.8857 5.14967 31.8442 4.90619 31.8442C4.73554 31.8442 4.55866 31.8691 4.37552 31.921C4.19239 31.9728 4.01758 32.0578 3.8511 32.1781L4.03215 32.6986C4.14869 32.6053 4.27355 32.5368 4.40882 32.4933C4.54201 32.4497 4.67727 32.4269 4.81254 32.4269C4.9603 32.4269 5.08308 32.4518 5.17673 32.4995C5.27037 32.5472 5.34113 32.6156 5.38691 32.7048C5.43269 32.7919 5.45559 32.8976 5.45559 33.0179V33.078C5.18505 33.0552 4.94573 33.0552 4.74179 33.078C4.50455 33.1071 4.31101 33.161 4.15909 33.2439C4.00718 33.3269 3.8948 33.4306 3.82197 33.555C3.74913 33.6794 3.71167 33.8225 3.71167 33.9821C3.71167 34.1688 3.75121 34.3284 3.83029 34.4653C3.90937 34.6021 4.01758 34.7058 4.15493 34.7805C4.29228 34.8551 4.45044 34.8904 4.62733 34.8904C4.81879 34.8904 4.99359 34.8551 5.14551 34.7846C5.29951 34.7141 5.42021 34.6125 5.50761 34.4819V34.8074H6.09863V33.0075C6.09863 32.7442 6.05077 32.5265 5.95296 32.3543C5.85723 32.1822 5.7178 32.0557 5.53883 31.9707M5.4535 33.7354C5.4535 33.8577 5.42437 33.9655 5.36818 34.0547C5.30991 34.1459 5.23291 34.2144 5.13302 34.2641C5.03521 34.3139 4.92284 34.3388 4.80006 34.3388C4.65438 34.3388 4.53993 34.3056 4.45668 34.2372C4.37344 34.1708 4.33182 34.0734 4.33182 33.949C4.33182 33.866 4.35679 33.7914 4.40882 33.7292C4.46085 33.6669 4.53784 33.6172 4.6419 33.5819C4.74595 33.5446 4.87706 33.5259 5.03522 33.5218C5.158 33.5176 5.29743 33.528 5.4535 33.5487V33.7354Z" fill="#173583"/>
<path d="M9.34986 31.9585H8.67769V34.2125H7.54143V31.9585H6.87134V34.8056H9.03563H9.34986H9.41646V35.6599H10.0304V34.2125H9.34986V31.9585Z" fill="#173583"/>
<path d="M11.1839 33.7563V31.9585H10.5388V34.8056H11.1236L12.4534 32.9829V34.8056H13.0985V31.9585H12.5054L11.1839 33.7563Z" fill="#173583"/>
<path d="M15.8479 32.0788C15.6315 31.942 15.3859 31.8735 15.1071 31.8735C14.8969 31.8735 14.7054 31.9129 14.5306 31.9938C14.3558 32.0747 14.2039 32.1846 14.0769 32.3235C13.9479 32.4624 13.8501 32.6242 13.7793 32.8067C13.7107 32.9891 13.6753 33.1799 13.6753 33.381C13.6753 33.6548 13.7356 33.9057 13.8584 34.1338C13.9812 34.3619 14.1498 34.5443 14.3662 34.6833C14.5826 34.8201 14.8303 34.8906 15.1091 34.8906C15.3193 34.8906 15.5108 34.8512 15.6856 34.7704C15.8604 34.6895 16.0123 34.5796 16.1393 34.4386C16.2662 34.2976 16.3661 34.1379 16.4368 33.9554C16.5076 33.775 16.543 33.5822 16.543 33.381C16.543 33.1073 16.4805 32.8564 16.3578 32.6263C16.235 32.3961 16.0664 32.2136 15.85 32.0767M15.7771 33.8435C15.7106 33.9741 15.619 34.0736 15.5025 34.1462C15.3859 34.2167 15.2548 34.252 15.1091 34.252C14.9635 34.252 14.8282 34.2167 14.7137 34.1462C14.5993 34.0757 14.5077 33.9741 14.4411 33.8435C14.3745 33.7128 14.3412 33.5594 14.3412 33.381C14.3412 33.2027 14.3745 33.0472 14.439 32.9166C14.5056 32.7859 14.5951 32.6864 14.7117 32.6159C14.8282 32.5454 14.9593 32.5101 15.1091 32.5101C15.259 32.5101 15.3901 32.5454 15.5045 32.6159C15.619 32.6864 15.7106 32.7859 15.7771 32.9166C15.8437 33.0472 15.877 33.2027 15.877 33.381C15.877 33.5594 15.8437 33.7128 15.7771 33.8435Z" fill="#173583"/>
<path d="M19.0017 33.0306H17.7947V31.9585H17.1226V34.8056H17.7947V33.6236H19.0017V34.8056H19.6718V31.9585H19.0017V33.0306Z" fill="#173583"/>
<path d="M22.1095 31.9687C21.9305 31.8857 21.7183 31.8442 21.4748 31.8442C21.3041 31.8442 21.1273 31.8691 20.9441 31.921C20.761 31.9728 20.5862 32.0578 20.4197 32.1781L20.6008 32.6986C20.7173 32.6053 20.8422 32.5368 20.9774 32.4933C21.1106 32.4497 21.2459 32.4269 21.3811 32.4269C21.5289 32.4269 21.6517 32.4518 21.7453 32.4995C21.839 32.5472 21.9097 32.6156 21.9555 32.7048C22.0013 32.7919 22.0242 32.8976 22.0242 33.0179V33.078C21.7537 33.0552 21.5143 33.0552 21.3104 33.078C21.0732 33.1071 20.8796 33.161 20.7277 33.2439C20.5758 33.3269 20.4634 33.4306 20.3906 33.555C20.3177 33.6794 20.2803 33.8225 20.2803 33.9821C20.2803 34.1688 20.3198 34.3284 20.3989 34.4653C20.478 34.6021 20.5862 34.7058 20.7235 34.7805C20.8609 34.8551 21.019 34.8904 21.1959 34.8904C21.3874 34.8904 21.5622 34.8551 21.7141 34.7846C21.8681 34.7141 21.9888 34.6125 22.0762 34.4819V34.8074H22.6672V33.0075C22.6672 32.7442 22.6194 32.5265 22.5216 32.3543C22.4258 32.1822 22.2864 32.0557 22.1074 31.9707M22.0221 33.7354C22.0221 33.8577 21.993 33.9655 21.9368 34.0547C21.8785 34.1459 21.8015 34.2144 21.7016 34.2641C21.6038 34.3139 21.4914 34.3388 21.3687 34.3388C21.223 34.3388 21.1085 34.3056 21.0253 34.2372C20.942 34.1708 20.9004 34.0734 20.9004 33.949C20.9004 33.866 20.9254 33.7914 20.9774 33.7292C21.0294 33.6669 21.1064 33.6172 21.2105 33.5819C21.3146 33.5446 21.4457 33.5259 21.6038 33.5218C21.7266 33.5176 21.866 33.528 22.0221 33.5487V33.7354Z" fill="#173583"/>
<path d="M23.7297 32.8661C23.7297 33.1481 23.7193 33.3783 23.6964 33.5587C23.6735 33.7391 23.6215 33.8801 23.5382 33.9838C23.455 34.0854 23.3259 34.1621 23.147 34.2119L23.3759 34.8651C23.5736 34.8112 23.7359 34.7345 23.8608 34.6308C23.9877 34.5292 24.0855 34.3965 24.1563 34.2347C24.227 34.073 24.277 33.8801 24.304 33.6541C24.3311 33.4281 24.3457 33.1668 24.3457 32.8682V32.553H25.2467V34.807H25.9168V31.96H23.7276V32.8682L23.7297 32.8661Z" fill="#173583"/>
<path d="M27.9292 32.8502H27.384V31.9585H26.7139V34.8056H27.9021C28.1331 34.8056 28.3329 34.7662 28.5036 34.6894C28.6742 34.6106 28.8074 34.4987 28.901 34.3535C28.9947 34.2084 29.0426 34.0321 29.0426 33.8289C29.0426 33.5075 28.9427 33.2649 28.745 33.099C28.5452 32.9331 28.2726 32.8502 27.9271 32.8502M28.2185 34.1586C28.1311 34.2333 28 34.2706 27.8293 34.2706H27.3819V33.3789H27.873C28.027 33.3789 28.1456 33.4183 28.2268 33.4971C28.31 33.5759 28.3496 33.6858 28.3496 33.8289C28.3496 33.972 28.3059 34.0819 28.2164 34.1586" fill="#173583"/>
<path d="M31.5303 33.0306H30.3212V31.9585H29.6511V34.8056H30.3212V33.6236H31.5303V34.8056H32.2004V31.9585H31.5303V33.0306Z" fill="#173583"/>
<path d="M34.64 31.9687C34.4611 31.8857 34.2488 31.8442 34.0053 31.8442C33.8347 31.8442 33.6578 31.8691 33.4746 31.921C33.2915 31.9728 33.1167 32.0578 32.9502 32.1781L33.1313 32.6986C33.2478 32.6053 33.3727 32.5368 33.5079 32.4933C33.6411 32.4497 33.7764 32.4269 33.9117 32.4269C34.0594 32.4269 34.1822 32.4518 34.2758 32.4995C34.3695 32.5472 34.4403 32.6156 34.486 32.7048C34.5318 32.7919 34.5547 32.8976 34.5547 33.0179V33.078C34.2842 33.0552 34.0449 33.0552 33.8409 33.078C33.6037 33.1071 33.4101 33.161 33.2582 33.2439C33.1063 33.3269 32.9939 33.4306 32.9211 33.555C32.8482 33.6794 32.8108 33.8225 32.8108 33.9821C32.8108 34.1688 32.8503 34.3284 32.9294 34.4653C33.0085 34.6021 33.1167 34.7058 33.2541 34.7805C33.3914 34.8551 33.5496 34.8904 33.7285 34.8904C33.92 34.8904 34.0948 34.8551 34.2467 34.7846C34.4007 34.7141 34.5214 34.6125 34.6088 34.4819V34.8074H35.1998V33.0075C35.1998 32.7442 35.152 32.5265 35.0542 32.3543C34.9584 32.1822 34.819 32.0557 34.64 31.9707M34.5547 33.7354C34.5547 33.8577 34.5256 33.9655 34.4694 34.0547C34.4111 34.1459 34.3341 34.2144 34.2342 34.2641C34.1364 34.3139 34.024 34.3388 33.9013 34.3388C33.7556 34.3388 33.6411 34.3056 33.5579 34.2372C33.4746 34.1708 33.433 34.0734 33.433 33.949C33.433 33.866 33.458 33.7914 33.51 33.7292C33.562 33.6669 33.639 33.6172 33.7431 33.5819C33.8472 33.5446 33.9783 33.5259 34.1364 33.5218C34.2592 33.5176 34.3986 33.528 34.5547 33.5487V33.7354Z" fill="#173583"/>
<path d="M36.3979 32.0705C36.2314 32.1451 36.1044 32.2529 36.0149 32.396C35.9255 32.537 35.8797 32.7071 35.8797 32.9041C35.8797 33.0865 35.9213 33.2441 36.0045 33.3769C36.0878 33.5096 36.2064 33.6112 36.3604 33.6837C36.3999 33.7024 36.4436 33.7169 36.4873 33.7314L35.7798 34.8056H36.529L37.1866 33.7957H37.5154V34.8056H38.1563V31.9585H36.9805C36.7579 31.9585 36.5623 31.9958 36.3958 32.0705M37.5133 32.4935V33.2815H37.0055C36.8557 33.2815 36.7412 33.2462 36.6621 33.1757C36.5831 33.1052 36.5435 33.0077 36.5435 32.8833C36.5435 32.7589 36.5872 32.6573 36.6726 32.5909C36.76 32.5246 36.8848 32.4935 37.0513 32.4935H37.5154H37.5133Z" fill="#173583"/>
<path d="M42.5877 34.0813C42.4192 34.1394 42.2464 34.1684 42.0695 34.1684C41.8073 34.1684 41.5805 34.1145 41.3911 34.0067C41.1997 33.8988 41.054 33.7433 40.9499 33.5422C40.848 33.341 40.7959 33.0963 40.7959 32.8102C40.7959 32.6007 40.8251 32.4141 40.8833 32.2462C40.9395 32.0803 41.0228 31.9372 41.1331 31.8169C41.2413 31.6987 41.3724 31.6075 41.5264 31.5453C41.6804 31.4831 41.8531 31.452 42.0467 31.452C42.2277 31.452 42.3942 31.4789 42.5419 31.5349C42.6918 31.5909 42.8229 31.6759 42.9332 31.792L43.2807 31.1845C43.1226 31.0393 42.9394 30.9294 42.7355 30.8506C42.5315 30.7718 42.2839 30.7324 41.9967 30.7324C41.7095 30.7324 41.4619 30.7822 41.2288 30.8838C40.9957 30.9854 40.7918 31.1285 40.6211 31.3151C40.4484 31.5017 40.3173 31.7215 40.2237 31.9766C40.13 32.2296 40.0842 32.5095 40.0842 32.8143C40.0842 33.2332 40.1633 33.5982 40.3215 33.9092C40.4817 34.2202 40.7044 34.4608 40.9895 34.6308C41.2767 34.8008 41.6096 34.8859 41.9905 34.8859C42.2818 34.8859 42.5419 34.8444 42.7729 34.7635C43.0019 34.6827 43.2037 34.5665 43.3785 34.4193L43.0643 33.7972C42.9144 33.9258 42.7542 34.0191 42.5856 34.0792" fill="#173583"/>
<path d="M43.5312 32.5495H44.3553V34.8056H45.0254V32.5495H45.8516V31.9585H43.5312V32.5495Z" fill="#173583"/>
<path d="M48.6188 32.0664C48.4211 31.9378 48.1964 31.8735 47.9425 31.8735C47.7177 31.8735 47.5242 31.915 47.366 32C47.2058 32.085 47.0768 32.1949 46.9748 32.3339V31.9586H46.3838V36H47.0518V34.4904C47.1579 34.6149 47.2849 34.7102 47.4306 34.7828C47.5762 34.8533 47.7448 34.8886 47.9321 34.8886C48.1194 34.8886 48.3046 34.8492 48.4648 34.7724C48.6272 34.6936 48.7645 34.5879 48.8831 34.449C48.9997 34.3121 49.0912 34.1524 49.1557 33.97C49.2203 33.7875 49.2515 33.5905 49.2515 33.381C49.2515 33.0866 49.1953 32.8274 49.0829 32.5993C48.9705 32.3733 48.8145 32.1949 48.6188 32.0664ZM48.4877 33.8435C48.4211 33.9741 48.3296 34.0736 48.2151 34.1462C48.1007 34.2167 47.9675 34.252 47.8197 34.252C47.672 34.252 47.5388 34.2167 47.4222 34.1462C47.3057 34.0757 47.2162 33.9741 47.1496 33.8435C47.083 33.7128 47.0518 33.5594 47.0518 33.381C47.0518 33.2027 47.0851 33.0472 47.1517 32.9166C47.2183 32.7859 47.3099 32.6864 47.4243 32.6138C47.5388 32.5433 47.672 32.5081 47.8197 32.5081C47.9675 32.5081 48.0986 32.5433 48.213 32.6138C48.3296 32.6843 48.4211 32.7859 48.4877 32.9166C48.5543 33.0472 48.5876 33.2027 48.5876 33.381C48.5876 33.5594 48.5543 33.7128 48.4877 33.8435Z" fill="#173583"/>
<path d="M51.4713 31.9687C51.2924 31.8857 51.0801 31.8442 50.8366 31.8442C50.666 31.8442 50.4891 31.8691 50.3059 31.921C50.1228 31.9728 49.948 32.0578 49.7815 32.1781L49.9626 32.6986C50.0791 32.6053 50.204 32.5368 50.3392 32.4933C50.4724 32.4497 50.6077 32.4269 50.743 32.4269C50.8907 32.4269 51.0135 32.4518 51.1071 32.4995C51.2008 32.5472 51.2715 32.6156 51.3173 32.7048C51.3631 32.7919 51.386 32.8976 51.386 33.0179V33.078C51.1155 33.0552 50.8761 33.0552 50.6722 33.078C50.435 33.1071 50.2414 33.161 50.0895 33.2439C49.9376 33.3269 49.8252 33.4306 49.7524 33.555C49.6795 33.6794 49.6421 33.8225 49.6421 33.9821C49.6421 34.1688 49.6816 34.3284 49.7607 34.4653C49.8398 34.6021 49.948 34.7058 50.0854 34.7805C50.2227 34.8551 50.3809 34.8904 50.5598 34.8904C50.7513 34.8904 50.9261 34.8551 51.078 34.7846C51.232 34.7141 51.3527 34.6125 51.4401 34.4819V34.8074H52.0311V33.0075C52.0311 32.7442 51.9833 32.5265 51.8855 32.3543C51.7897 32.1822 51.6503 32.0557 51.4713 31.9707M51.386 33.7354C51.386 33.8577 51.3569 33.9655 51.3007 34.0547C51.2424 34.1459 51.1654 34.2144 51.0655 34.2641C50.9677 34.3139 50.8553 34.3388 50.7326 34.3388C50.5869 34.3388 50.4724 34.3056 50.3892 34.2372C50.3059 34.1708 50.2643 34.0734 50.2643 33.949C50.2643 33.866 50.2893 33.7914 50.3413 33.7292C50.3933 33.6669 50.4703 33.6172 50.5744 33.5819C50.6784 33.5446 50.8096 33.5259 50.9677 33.5218C51.0905 33.5176 51.2299 33.528 51.386 33.5487V33.7354Z" fill="#173583"/>
<path d="M55.216 31.9585H54.3919L53.8967 32.873L53.3847 31.9585H52.5398L53.4326 33.3851L52.4878 34.8097L53.3098 34.7993L53.8738 33.8724L54.4273 34.8056H55.2868L54.3482 33.3665L55.216 31.9585Z" fill="#173583"/>
<path d="M57.6837 32.0788C57.4673 31.942 57.2217 31.8735 56.9449 31.8735C56.7348 31.8735 56.5433 31.9129 56.3685 31.9938C56.1937 32.0747 56.0418 32.1846 55.9148 32.3235C55.7858 32.4624 55.688 32.6242 55.6172 32.8067C55.5465 32.9891 55.5132 33.1799 55.5132 33.381C55.5132 33.6548 55.5735 33.9057 55.6963 34.1338C55.8191 34.3619 55.9877 34.5443 56.202 34.6833C56.4184 34.8201 56.6661 34.8906 56.9449 34.8906C57.1551 34.8906 57.3466 34.8512 57.5214 34.7704C57.6962 34.6895 57.8481 34.5796 57.9751 34.4386C58.102 34.2976 58.2019 34.1379 58.2726 33.9554C58.3434 33.775 58.3788 33.5822 58.3788 33.381C58.3788 33.1073 58.3184 32.8564 58.1936 32.6263C58.0708 32.3961 57.9022 32.2136 57.6858 32.0767M57.613 33.8435C57.5464 33.9741 57.4548 34.0736 57.3383 34.1462C57.2217 34.2167 57.0906 34.252 56.9449 34.252C56.7993 34.252 56.664 34.2167 56.5495 34.1462C56.4351 34.0757 56.3435 33.9741 56.2769 33.8435C56.2103 33.7128 56.177 33.5594 56.177 33.381C56.177 33.2027 56.2103 33.0472 56.2748 32.9166C56.3414 32.7859 56.4309 32.6864 56.5475 32.6159C56.664 32.5454 56.7951 32.5101 56.9449 32.5101C57.0948 32.5101 57.2259 32.5454 57.3403 32.6159C57.4548 32.6864 57.5464 32.7859 57.613 32.9166C57.6796 33.0472 57.7128 33.2027 57.7128 33.381C57.7128 33.5594 57.6796 33.7128 57.613 33.8435Z" fill="#173583"/>
<path d="M60.863 33.2634C60.8818 33.253 60.9026 33.2447 60.9192 33.2323C61.0149 33.1742 61.0919 33.0996 61.1481 33.0104C61.2043 32.9213 61.2314 32.8134 61.2314 32.6932C61.2314 32.4485 61.1419 32.2639 60.965 32.1416C60.7881 32.0192 60.5488 31.957 60.247 31.957H58.9568V34.8041H60.2928C60.5155 34.8041 60.7049 34.7688 60.8609 34.7004C61.0191 34.632 61.1377 34.5345 61.221 34.408C61.3042 34.2815 61.3458 34.1302 61.3458 33.9539C61.3458 33.7445 61.2792 33.5744 61.144 33.4397C61.0691 33.365 60.9733 33.3049 60.8651 33.2634M59.6019 32.4775H60.1409C60.2866 32.4775 60.399 32.5024 60.4801 32.5542C60.5613 32.6061 60.6029 32.6869 60.6029 32.7989C60.6029 32.9109 60.5634 32.9897 60.4822 33.0395C60.401 33.0892 60.2887 33.1141 60.1409 33.1141H59.6019V32.4754V32.4775ZM60.5634 34.2007C60.4801 34.2587 60.3594 34.2878 60.2054 34.2878H59.6019V33.6097H60.2054C60.3636 33.6097 60.4822 33.6387 60.5654 33.6947C60.6487 33.7507 60.6903 33.8357 60.6903 33.9456C60.6903 34.0555 60.6487 34.1426 60.5654 34.2007" fill="#173583"/>
<path d="M63.6311 31.9687C63.4521 31.8857 63.2399 31.8442 62.9964 31.8442C62.8257 31.8442 62.6489 31.8691 62.4657 31.921C62.2826 31.9728 62.1078 32.0578 61.9413 32.1781L62.1224 32.6986C62.2389 32.6053 62.3638 32.5368 62.499 32.4933C62.6322 32.4497 62.7675 32.4269 62.9027 32.4269C63.0505 32.4269 63.1733 32.4518 63.2669 32.4995C63.3606 32.5472 63.4313 32.6156 63.4792 32.7048C63.525 32.7919 63.5479 32.8976 63.5479 33.0179V33.078C63.2773 33.0552 63.038 33.0552 62.8341 33.078C62.5968 33.1071 62.4033 33.161 62.2514 33.2439C62.0995 33.3269 61.9871 33.4306 61.9143 33.555C61.8414 33.6794 61.804 33.8225 61.804 33.9821C61.804 34.1688 61.8435 34.3284 61.9226 34.4653C62.0016 34.6021 62.1099 34.7058 62.2472 34.7805C62.3846 34.8551 62.5427 34.8904 62.7217 34.8904C62.9131 34.8904 63.0859 34.8551 63.2399 34.7846C63.3939 34.7141 63.5146 34.6125 63.602 34.4819V34.8074H64.193V33.0075C64.193 32.7442 64.1451 32.5265 64.0473 32.3543C63.9516 32.1822 63.8122 32.0557 63.6332 31.9707M63.5479 33.7354C63.5479 33.8577 63.5187 33.9655 63.4625 34.0547C63.4043 34.1459 63.3273 34.2144 63.2274 34.2641C63.1296 34.3139 63.0172 34.3388 62.8944 34.3388C62.7487 34.3388 62.6343 34.3056 62.551 34.2372C62.4678 34.1708 62.4262 34.0734 62.4262 33.949C62.4262 33.866 62.4512 33.7914 62.5032 33.7292C62.5552 33.6669 62.6322 33.6172 62.7363 33.5819C62.8403 33.5446 62.9714 33.5259 63.1296 33.5218C63.2524 33.5176 63.3918 33.528 63.5479 33.5487V33.7354Z" fill="#173583"/>
<path d="M65.3874 32.0705C65.2209 32.1451 65.0939 32.2529 65.0044 32.396C64.915 32.537 64.8692 32.7071 64.8692 32.9041C64.8692 33.0865 64.9108 33.2441 64.994 33.3769C65.0773 33.5096 65.1959 33.6112 65.3499 33.6837C65.3894 33.7024 65.4331 33.7169 65.4768 33.7314L64.7693 34.8056H65.5185L66.1761 33.7957H66.5049V34.8056H67.1458V31.9585H65.97C65.7474 31.9585 65.5518 31.9958 65.3874 32.0705ZM66.5049 32.4935V33.2815H65.9971C65.8473 33.2815 65.7328 33.2462 65.6516 33.1757C65.5726 33.1052 65.533 33.0077 65.533 32.8833C65.533 32.7589 65.5767 32.6573 65.6621 32.5909C65.7495 32.5246 65.8743 32.4935 66.0408 32.4935H66.5049Z" fill="#173583"/>
<path d="M69.9809 33.6135V30.8203H69.3066V34.8058H69.9663L71.6894 31.9898V34.8058H72.3637V30.8203H71.6998L69.9809 33.6135Z" fill="#173583"/>
<path d="M75.1159 33.0306H73.9089V31.9585H73.2388V34.8056H73.9089V33.6236H75.1159V34.8056H75.786V31.9585H75.1159V33.0306Z" fill="#173583"/>
<path d="M79.2318 32.056C79.0362 31.9751 78.8135 31.9233 78.5659 31.9005V30.7061H77.8958V31.9025C77.6564 31.9274 77.44 31.9772 77.2486 32.056C76.9676 32.17 76.7512 32.3401 76.5993 32.5619C76.4474 32.7859 76.3704 33.0575 76.3704 33.381C76.3704 33.7045 76.4453 33.9741 76.5951 34.1959C76.7449 34.4199 76.9593 34.5879 77.2361 34.704C77.4317 34.7849 77.6523 34.8367 77.8958 34.8616V36H78.5659V34.8616C78.7178 34.845 78.8614 34.818 78.9966 34.7807C79.2276 34.7143 79.4253 34.619 79.5897 34.4945C79.7541 34.3681 79.8811 34.2125 79.9685 34.0259C80.0559 33.8393 80.1017 33.6257 80.1017 33.3831C80.1017 33.0575 80.0268 32.7838 79.8769 32.5619C79.7271 32.3401 79.5127 32.17 79.2339 32.056M77.8978 34.2623C77.7771 34.2457 77.6669 34.2188 77.5711 34.1835C77.3922 34.1151 77.2569 34.0155 77.1674 33.8828C77.0758 33.7501 77.0321 33.5822 77.0321 33.381C77.0321 33.1799 77.0758 33.0119 77.1674 32.8792C77.2569 32.7465 77.3922 32.6449 77.569 32.5785C77.6669 32.5433 77.7771 32.5163 77.8999 32.4997V34.2623H77.8978ZM79.3046 33.8828C79.2152 34.0155 79.082 34.1151 78.9051 34.1835C78.8073 34.2208 78.6949 34.2478 78.57 34.2644V32.5018C78.6907 32.5184 78.7989 32.5433 78.8967 32.5806C79.0757 32.647 79.211 32.7465 79.3026 32.8813C79.3941 33.0161 79.4399 33.1819 79.4399 33.3831C79.4399 33.5842 79.3941 33.7501 79.3067 33.8849" fill="#173583"/>
<path d="M82.6581 32.0788C82.4416 31.942 82.1961 31.8735 81.9193 31.8735C81.7091 31.8735 81.5177 31.9129 81.3429 31.9938C81.168 32.0747 81.0161 32.1846 80.8892 32.3235C80.7602 32.4624 80.6624 32.6242 80.5916 32.8067C80.5208 32.9891 80.4875 33.1799 80.4875 33.381C80.4875 33.6548 80.5479 33.9057 80.6707 34.1338C80.7935 34.3619 80.962 34.5443 81.1764 34.6833C81.3928 34.8201 81.6404 34.8906 81.9193 34.8906C82.1295 34.8906 82.3209 34.8512 82.4958 34.7704C82.6706 34.6895 82.8225 34.5796 82.9494 34.4386C83.0764 34.2976 83.1763 34.1379 83.247 33.9554C83.3178 33.775 83.3531 33.5822 83.3531 33.381C83.3531 33.1073 83.2907 32.8564 83.1679 32.6263C83.0452 32.3961 82.8766 32.2136 82.6602 32.0767M82.5873 33.8435C82.5207 33.9741 82.4292 34.0736 82.3126 34.1462C82.1961 34.2167 82.065 34.252 81.9193 34.252C81.7736 34.252 81.6384 34.2167 81.5239 34.1462C81.4095 34.0757 81.3179 33.9741 81.2513 33.8435C81.1847 33.7128 81.1514 33.5594 81.1514 33.381C81.1514 33.2027 81.1847 33.0472 81.2492 32.9166C81.3158 32.7859 81.4053 32.6864 81.5218 32.6159C81.6384 32.5454 81.7695 32.5101 81.9193 32.5101C82.0691 32.5101 82.2002 32.5454 82.3147 32.6159C82.4292 32.6864 82.5207 32.7859 82.5873 32.9166C82.6539 33.0472 82.6872 33.2027 82.6872 33.381C82.6872 33.5594 82.6539 33.7128 82.5873 33.8435Z" fill="#173583"/>
<path d="M86.1628 32.0664C85.9651 31.9378 85.7403 31.8735 85.4864 31.8735C85.2617 31.8735 85.0681 31.915 84.91 32C84.7497 32.085 84.6207 32.1949 84.5188 32.3339V31.9586H83.9277V36H84.5957V34.4904C84.7019 34.6149 84.8288 34.7102 84.9745 34.7828C85.1202 34.8533 85.2887 34.8886 85.476 34.8886C85.6633 34.8886 85.8485 34.8492 86.0088 34.7724C86.1711 34.6936 86.3085 34.5879 86.4271 34.449C86.5436 34.3121 86.6352 34.1524 86.6997 33.97C86.7642 33.7875 86.7954 33.5905 86.7954 33.381C86.7954 33.0866 86.7392 32.8274 86.6269 32.5993C86.5145 32.3733 86.3584 32.1949 86.1628 32.0664ZM86.0317 33.8435C85.9651 33.9741 85.8735 34.0736 85.7591 34.1462C85.6446 34.2167 85.5114 34.252 85.3637 34.252C85.2159 34.252 85.0827 34.2167 84.9662 34.1462C84.8496 34.0757 84.7602 33.9741 84.6936 33.8435C84.627 33.7128 84.5957 33.5594 84.5957 33.381C84.5957 33.2027 84.629 33.0472 84.6956 32.9166C84.7622 32.7859 84.8538 32.6864 84.9683 32.6138C85.0827 32.5433 85.2159 32.5081 85.3637 32.5081C85.5114 32.5081 85.6425 32.5433 85.757 32.6138C85.8735 32.6843 85.9651 32.7859 86.0317 32.9166C86.0983 33.0472 86.1316 33.2027 86.1316 33.381C86.1316 33.5594 86.0983 33.7128 86.0317 33.8435Z" fill="#173583"/>
<path d="M88.9546 33.5407L87.9641 31.9585H87.9474H87.373V34.8056H87.9308L87.9204 33.0389L88.7195 34.2664H89.1357L89.8849 33.0554L89.8786 34.8056H90.478V31.9585H89.889L88.9546 33.5407Z" fill="#173583"/>
<path d="M92.9207 31.9687C92.7417 31.8857 92.5294 31.8442 92.2859 31.8442C92.1153 31.8442 91.9384 31.8691 91.7553 31.921C91.5721 31.9728 91.3973 32.0578 91.2309 32.1781L91.4119 32.6986C91.5284 32.6053 91.6533 32.5368 91.7886 32.4933C91.9218 32.4497 92.057 32.4269 92.1923 32.4269C92.3401 32.4269 92.4628 32.4518 92.5565 32.4995C92.6501 32.5472 92.7209 32.6156 92.7687 32.7048C92.8145 32.7919 92.8374 32.8976 92.8374 33.0179V33.078C92.5669 33.0552 92.3276 33.0552 92.1236 33.078C91.8864 33.1071 91.6928 33.161 91.5409 33.2439C91.389 33.3269 91.2766 33.4306 91.2038 33.555C91.131 33.6794 91.0935 33.8225 91.0935 33.9821C91.0935 34.1688 91.133 34.3284 91.2121 34.4653C91.2912 34.6021 91.3994 34.7058 91.5368 34.7805C91.6741 34.8551 91.8323 34.8904 92.0112 34.8904C92.2027 34.8904 92.3754 34.8551 92.5294 34.7846C92.6834 34.7141 92.8041 34.6125 92.8915 34.4819V34.8074H93.4825V33.0075C93.4825 32.7442 93.4347 32.5265 93.3369 32.3543C93.2411 32.1822 93.1017 32.0557 92.9227 31.9707M92.8374 33.7354C92.8374 33.8577 92.8083 33.9655 92.7521 34.0547C92.6938 34.1459 92.6168 34.2144 92.5169 34.2641C92.4191 34.3139 92.3068 34.3388 92.184 34.3388C92.0383 34.3388 91.9238 34.3056 91.8406 34.2372C91.7574 34.1708 91.7157 34.0734 91.7157 33.949C91.7157 33.866 91.7407 33.7914 91.7927 33.7292C91.8448 33.6669 91.9218 33.6172 92.0258 33.5819C92.1299 33.5446 92.261 33.5259 92.4191 33.5218C92.5419 33.5176 92.6813 33.528 92.8374 33.5487V33.7354Z" fill="#173583"/>
<path d="M96.7263 31.9585H96.0541V34.2125H94.9179V31.9585H94.2478V34.8056H96.4121H96.7263H96.7929V35.6599H97.4068V34.2125H96.7263V31.9585Z" fill="#173583"/>
<path d="M98.5604 33.7563V31.9585H97.9153V34.8056H98.5001L99.8298 32.9829V34.8056H100.475V31.9585H99.8819L98.5604 33.7563Z" fill="#173583"/>
<path d="M103.226 32.0788C103.01 31.942 102.764 31.8735 102.487 31.8735C102.277 31.8735 102.086 31.9129 101.911 31.9938C101.736 32.0747 101.584 32.1846 101.457 32.3235C101.328 32.4624 101.23 32.6242 101.159 32.8067C101.089 32.9891 101.055 33.1799 101.055 33.381C101.055 33.6548 101.116 33.9057 101.239 34.1338C101.361 34.3619 101.53 34.5443 101.746 34.6833C101.963 34.8201 102.21 34.8906 102.489 34.8906C102.699 34.8906 102.891 34.8512 103.066 34.7704C103.241 34.6895 103.392 34.5796 103.519 34.4386C103.646 34.2976 103.746 34.1379 103.817 33.9554C103.888 33.775 103.923 33.5822 103.923 33.381C103.923 33.1073 103.861 32.8564 103.738 32.6263C103.615 32.3961 103.447 32.2136 103.23 32.0767M103.157 33.8435C103.091 33.9741 102.999 34.0736 102.883 34.1462C102.766 34.2167 102.635 34.252 102.489 34.252C102.344 34.252 102.208 34.2167 102.094 34.1462C101.979 34.0757 101.888 33.9741 101.821 33.8435C101.755 33.7128 101.721 33.5594 101.721 33.381C101.721 33.2027 101.755 33.0472 101.819 32.9166C101.886 32.7859 101.975 32.6864 102.092 32.6159C102.208 32.5454 102.339 32.5101 102.489 32.5101C102.639 32.5101 102.768 32.5454 102.885 32.6159C102.999 32.6864 103.091 32.7859 103.157 32.9166C103.224 33.0472 103.257 33.2027 103.257 33.381C103.257 33.5594 103.224 33.7128 103.157 33.8435Z" fill="#173583"/>
<path d="M106.38 33.0306H105.173V31.9585H104.502V34.8056H105.173V33.6236H106.38V34.8056H107.05V31.9585H106.38V33.0306Z" fill="#173583"/>
<path d="M109.726 33.0306H108.519V31.9585H107.849V34.8056H108.519V33.6236H109.726V34.8056H110.398V31.9585H109.726V33.0306Z" fill="#173583"/>
<path d="M112.836 31.9687C112.657 31.8857 112.444 31.8442 112.201 31.8442C112.03 31.8442 111.853 31.8691 111.67 31.921C111.487 31.9728 111.312 32.0578 111.146 32.1781L111.327 32.6986C111.443 32.6053 111.568 32.5368 111.704 32.4933C111.837 32.4497 111.972 32.4269 112.107 32.4269C112.255 32.4269 112.378 32.4518 112.472 32.4995C112.565 32.5472 112.636 32.6156 112.684 32.7048C112.73 32.7919 112.752 32.8976 112.752 33.0179V33.078C112.482 33.0552 112.243 33.0552 112.039 33.078C111.801 33.1071 111.608 33.161 111.456 33.2439C111.304 33.3269 111.192 33.4306 111.119 33.555C111.046 33.6794 111.009 33.8225 111.009 33.9821C111.009 34.1688 111.048 34.3284 111.127 34.4653C111.206 34.6021 111.314 34.7058 111.452 34.7805C111.589 34.8551 111.747 34.8904 111.926 34.8904C112.118 34.8904 112.29 34.8551 112.444 34.7846C112.598 34.7141 112.719 34.6125 112.807 34.4819V34.8074H113.398V33.0075C113.398 32.7442 113.35 32.5265 113.252 32.3543C113.156 32.1822 113.017 32.0557 112.838 31.9707M112.752 33.7354C112.752 33.8577 112.723 33.9655 112.667 34.0547C112.609 34.1459 112.532 34.2144 112.432 34.2641C112.334 34.3139 112.222 34.3388 112.099 34.3388C111.953 34.3388 111.839 34.3056 111.756 34.2372C111.672 34.1708 111.631 34.0734 111.631 33.949C111.631 33.866 111.656 33.7914 111.708 33.7292C111.76 33.6669 111.837 33.6172 111.941 33.5819C112.045 33.5446 112.176 33.5259 112.334 33.5218C112.457 33.5176 112.596 33.528 112.752 33.5487V33.7354Z" fill="#173583"/>
<path d="M114.592 32.0705C114.426 32.1451 114.299 32.2529 114.209 32.396C114.12 32.537 114.074 32.7071 114.074 32.9041C114.074 33.0865 114.116 33.2441 114.199 33.3769C114.282 33.5096 114.401 33.6112 114.555 33.6837C114.594 33.7024 114.638 33.7169 114.682 33.7314L113.974 34.8056H114.723L115.381 33.7957H115.71V34.8056H116.351V31.9585H115.175C114.952 31.9585 114.757 31.9958 114.592 32.0705ZM115.71 32.4935V33.2815H115.202C115.052 33.2815 114.938 33.2462 114.856 33.1757C114.777 33.1052 114.738 33.0077 114.738 32.8833C114.738 32.7589 114.782 32.6573 114.867 32.5909C114.954 32.5246 115.079 32.4935 115.246 32.4935H115.71Z" fill="#173583"/>
<path d="M120.785 34.0813C120.617 34.1394 120.444 34.1684 120.267 34.1684C120.005 34.1684 119.78 34.1145 119.589 34.0067C119.4 33.8988 119.252 33.7433 119.15 33.5422C119.046 33.341 118.994 33.0963 118.994 32.8102C118.994 32.6007 119.023 32.4141 119.081 32.2462C119.137 32.0803 119.221 31.9372 119.331 31.8169C119.439 31.6987 119.57 31.6075 119.724 31.5453C119.878 31.4831 120.051 31.452 120.244 31.452C120.425 31.452 120.592 31.4789 120.74 31.5349C120.89 31.5909 121.021 31.6759 121.131 31.792L121.478 31.1845C121.32 31.0393 121.137 30.9294 120.933 30.8506C120.729 30.7718 120.482 30.7324 120.194 30.7324C119.907 30.7324 119.66 30.7822 119.427 30.8838C119.193 30.9854 118.992 31.1285 118.819 31.3151C118.646 31.5017 118.515 31.7215 118.421 31.9766C118.328 32.2296 118.282 32.5095 118.282 32.8143C118.282 33.2332 118.361 33.5982 118.521 33.9092C118.679 34.2202 118.902 34.4608 119.189 34.6308C119.474 34.8008 119.809 34.8859 120.19 34.8859C120.482 34.8859 120.742 34.8444 120.973 34.7635C121.204 34.6827 121.404 34.5665 121.578 34.4193L121.264 33.7972C121.114 33.9258 120.954 34.0191 120.785 34.0792" fill="#173583"/>
<path d="M122.761 33.7563V31.9585H122.115V34.8056H122.7L124.03 32.9829V34.8056H124.675V31.9585H124.082L122.761 33.7563Z" fill="#173583"/>
<path d="M127.112 34.175C127 34.2268 126.879 34.2517 126.75 34.2517C126.494 34.2517 126.294 34.175 126.146 34.0195C125.999 33.864 125.926 33.6504 125.926 33.3767C125.926 33.1921 125.959 33.0366 126.026 32.9059C126.092 32.7774 126.186 32.6778 126.311 32.6094C126.434 32.541 126.581 32.5078 126.752 32.5078C126.866 32.5078 126.975 32.5265 127.079 32.5659C127.183 32.6053 127.276 32.6633 127.358 32.7442L127.67 32.1947C127.539 32.0848 127.395 32.0039 127.237 31.95C127.079 31.8961 126.91 31.8691 126.725 31.8691C126.513 31.8691 126.319 31.9065 126.14 31.9811C125.961 32.0558 125.805 32.1615 125.672 32.2963C125.539 32.4332 125.437 32.5908 125.364 32.7753C125.291 32.9578 125.254 33.1589 125.254 33.3767C125.254 33.6649 125.316 33.9241 125.439 34.1501C125.562 34.3761 125.732 34.5565 125.949 34.6872C126.165 34.8199 126.411 34.8842 126.688 34.8842C126.871 34.8842 127.052 34.851 127.226 34.7846C127.403 34.7183 127.564 34.627 127.705 34.5109L127.405 33.9593C127.322 34.0485 127.222 34.119 127.11 34.1708" fill="#173583"/>
<path d="M127.972 32.5495H128.798V34.8056H129.468V32.5495H130.295V31.9585H127.972V32.5495Z" fill="#173583"/>
<path d="M133.034 32.3552C132.919 32.2018 132.775 32.0836 132.603 31.9986C132.43 31.9135 132.232 31.8721 132.014 31.8721C131.812 31.8721 131.625 31.9094 131.456 31.984C131.285 32.0587 131.138 32.1624 131.011 32.2992C130.884 32.434 130.786 32.5958 130.717 32.7803C130.649 32.9649 130.613 33.166 130.613 33.3858C130.613 33.6865 130.674 33.9478 130.792 34.1738C130.911 34.3998 131.079 34.5761 131.294 34.7026C131.508 34.829 131.758 34.8913 132.043 34.8913C132.166 34.8913 132.297 34.8767 132.432 34.8477C132.567 34.8187 132.696 34.7793 132.819 34.7254C132.942 34.6715 133.044 34.6092 133.125 34.5367L132.89 34.0266C132.771 34.1199 132.642 34.1904 132.505 34.2381C132.368 34.2858 132.224 34.3086 132.074 34.3086C131.904 34.3086 131.758 34.2775 131.633 34.2132C131.508 34.1489 131.412 34.0618 131.344 33.9498C131.277 33.8379 131.244 33.7072 131.246 33.5579H133.294C133.329 33.3174 133.323 33.0955 133.277 32.8902C133.231 32.687 133.15 32.5087 133.036 32.3552M131.285 33.0395C131.304 32.8487 131.379 32.6974 131.508 32.5875C131.637 32.4796 131.802 32.4237 131.999 32.4237C132.197 32.4237 132.357 32.4796 132.467 32.5875C132.58 32.6974 132.638 32.8467 132.642 33.0395H131.283H131.285Z" fill="#173583"/>
<path d="M135.476 33.5407L134.486 31.9585H134.469H133.893V34.8056H134.452L134.442 33.0389L135.241 34.2664H135.657L136.406 33.0554L136.4 34.8056H137V31.9585H136.411L135.476 33.5407Z" fill="#173583"/>
<path d="M139.446 31.9693C139.267 31.8863 139.054 31.8428 138.811 31.8428C138.64 31.8428 138.463 31.8697 138.278 31.9195C138.095 31.9713 137.92 32.0564 137.754 32.1766L137.935 32.6971C138.051 32.6038 138.178 32.5354 138.311 32.4918C138.445 32.4483 138.58 32.4255 138.717 32.4255C138.865 32.4255 138.988 32.4503 139.081 32.498C139.175 32.5457 139.246 32.6142 139.292 32.7033C139.337 32.7904 139.362 32.8962 139.362 33.0164V33.0766C139.092 33.0538 138.852 33.0538 138.649 33.0766C138.411 33.1056 138.218 33.1595 138.066 33.2425C137.914 33.3254 137.802 33.4291 137.729 33.5535C137.656 33.6779 137.618 33.821 137.618 33.9807C137.618 34.1673 137.658 34.327 137.737 34.4638C137.816 34.6007 137.924 34.7044 138.062 34.779C138.199 34.8537 138.357 34.8889 138.536 34.8889C138.728 34.8889 138.9 34.8537 139.054 34.7811C139.208 34.7106 139.329 34.609 139.416 34.4783V34.8039H140.007V33.004C140.007 32.7406 139.96 32.5229 139.862 32.3508C139.766 32.1787 139.627 32.0501 139.448 31.9672M139.362 33.7318C139.362 33.8542 139.333 33.962 139.275 34.0512C139.217 34.1424 139.14 34.2108 139.042 34.2606C138.944 34.3104 138.832 34.3353 138.709 34.3353C138.563 34.3353 138.449 34.3021 138.365 34.2336C138.282 34.1673 138.241 34.0698 138.241 33.9454C138.241 33.8625 138.266 33.7878 138.318 33.7256C138.37 33.6634 138.447 33.6136 138.551 33.5784C138.655 33.5411 138.786 33.5224 138.946 33.5183C139.069 33.5162 139.208 33.5245 139.364 33.5452V33.7318H139.362Z" fill="#173583"/>
<path d="M24.2395 26.2001V0H19.7752V10.48H4.59662V0H0.132324V26.2001H4.59662V15.1374H19.7752V26.2001H24.2395Z" fill="#173583"/>
<path d="M73.8805 4.97252V26.2001H78.3448V0H71.9158L58.7039 21.2276V0H54.2375V26.2001H55.607H58.7039H60.6666L73.8805 4.97252Z" fill="#173583"/>
<path d="M51.0257 21.5428H38.9731C34.6837 21.5428 31.2059 17.7626 31.2059 13.1011C31.2059 8.43961 34.6837 4.65734 38.9731 4.65734H51.0257V0H38.7047C32.0488 0 26.6521 5.86625 26.6521 13.1011C26.6521 20.3359 32.0488 26.2001 38.7047 26.2001H51.0257V21.5428Z" fill="#173583"/>
<path d="M92.8101 26.2001H105.131V21.5428H93.0786C88.7891 21.5428 85.3114 17.7626 85.3114 13.1011C85.3114 8.43961 88.7891 4.65941 93.0786 4.65941H105.131V0H92.8101C86.1522 0 80.7576 5.86418 80.7576 13.099C80.7576 20.3339 86.1543 26.2001 92.8101 26.2001Z" fill="#173583"/>
<path d="M119.917 4.65819C120.778 4.65819 121.475 3.90132 121.475 2.96405V1.695C121.475 0.759798 120.778 0.00292969 119.917 0.00292969C119.055 0.00292969 118.358 0.759798 118.358 1.695V2.96405C118.358 3.90132 119.055 4.65819 119.917 4.65819ZM119.138 1.695C119.138 1.22844 119.488 0.848964 119.917 0.848964C120.345 0.848964 120.695 1.22844 120.695 1.695V2.96405C120.695 3.43269 120.345 3.81216 119.917 3.81216C119.488 3.81216 119.138 3.43269 119.138 2.96405V1.695Z" fill="#173583"/>
<path d="M114.959 0C114.098 0 113.401 0.756869 113.401 1.69207V2.96112C113.401 3.89839 114.098 4.65526 114.959 4.65526C115.821 4.65526 116.518 3.89839 116.518 2.96112V1.69207C116.518 0.756869 115.821 0 114.959 0ZM115.738 2.96319C115.738 3.43183 115.388 3.8113 114.959 3.8113C114.531 3.8113 114.181 3.43183 114.181 2.96319V1.69414C114.181 1.22758 114.531 0.848108 114.959 0.848108C115.388 0.848108 115.738 1.22758 115.738 1.69414V2.96319Z" fill="#173583"/>
<path d="M124.089 4.65734H124.867V0.848108V0H123.319V0.848108H124.089V4.65734Z" fill="#173583"/>
<path d="M135.051 4.65819C135.912 4.65819 136.61 3.90132 136.61 2.96405V1.695C136.61 0.759798 135.912 0.00292969 135.051 0.00292969C134.189 0.00292969 133.492 0.759798 133.492 1.695V2.96405C133.492 3.90132 134.189 4.65819 135.051 4.65819ZM134.273 1.695C134.273 1.22844 134.622 0.848964 135.051 0.848964C135.48 0.848964 135.829 1.22844 135.829 1.695V2.96405C135.829 3.43269 135.48 3.81216 135.051 3.81216C134.622 3.81216 134.273 3.43269 134.273 2.96405V1.695Z" fill="#173583"/>
<path d="M110.782 4.65734H111.56V0.848108V0H110.012V0.848108H110.782V4.65734Z" fill="#173583"/>
<path d="M127.481 4.65734H128.26V0.848108V0H126.709V0.848108H127.481V4.65734Z" fill="#173583"/>
<path d="M130.872 4.65734H131.65V0.848108V0H130.1V0.848108H130.872V4.65734Z" fill="#173583"/>
<path d="M139.221 4.65734H140V0.848108V0H138.449V0.848108H139.221V4.65734Z" fill="#173583"/>
<path d="M119.022 19.0195C119.884 19.0195 120.581 18.2627 120.581 17.3275V16.0563C120.581 15.1211 119.884 14.3643 119.022 14.3643C118.161 14.3643 117.463 15.1211 117.463 16.0563V17.3275C117.463 18.2627 118.161 19.0195 119.022 19.0195ZM118.244 16.0563C118.244 15.5898 118.593 15.2103 119.022 15.2103C119.451 15.2103 119.8 15.5898 119.8 16.0563V17.3275C119.8 17.794 119.451 18.1735 119.022 18.1735C118.593 18.1735 118.244 17.794 118.244 17.3275V16.0563Z" fill="#173583"/>
<path d="M114.515 14.3613C113.653 14.3613 112.956 15.1182 112.956 16.0534V17.3245C112.956 18.2597 113.653 19.0166 114.515 19.0166C115.376 19.0166 116.073 18.2597 116.073 17.3245V16.0534C116.073 15.1182 115.376 14.3613 114.515 14.3613ZM115.293 17.3245C115.293 17.7911 114.943 18.1706 114.515 18.1706C114.086 18.1706 113.736 17.7911 113.736 17.3245V16.0534C113.736 15.5868 114.086 15.2074 114.515 15.2074C114.943 15.2074 115.293 15.5868 115.293 16.0534V17.3245Z" fill="#173583"/>
<path d="M123.525 19.0187V15.2074V14.3613H122.746H121.974V15.2074H122.746V19.0187H123.525Z" fill="#173583"/>
<path d="M133.931 19.0195C134.792 19.0195 135.489 18.2627 135.489 17.3275V16.0563C135.489 15.1211 134.792 14.3643 133.931 14.3643C133.069 14.3643 132.372 15.1211 132.372 16.0563V17.3275C132.372 18.2627 133.069 19.0195 133.931 19.0195ZM133.152 16.0563C133.152 15.5898 133.502 15.2103 133.931 15.2103C134.359 15.2103 134.709 15.5898 134.709 16.0563V17.3275C134.709 17.794 134.359 18.1735 133.931 18.1735C133.502 18.1735 133.152 17.794 133.152 17.3275V16.0563Z" fill="#173583"/>
<path d="M129.42 19.0195C130.282 19.0195 130.979 18.2627 130.979 17.3275V16.0563C130.979 15.1211 130.282 14.3643 129.42 14.3643C128.558 14.3643 127.861 15.1211 127.861 16.0563V17.3275C127.861 18.2627 128.558 19.0195 129.42 19.0195ZM128.642 16.0563C128.642 15.5898 128.991 15.2103 129.42 15.2103C129.849 15.2103 130.198 15.5898 130.198 16.0563V17.3275C130.198 17.794 129.849 18.1735 129.42 18.1735C128.991 18.1735 128.642 17.794 128.642 17.3275V16.0563Z" fill="#173583"/>
<path d="M138.442 14.3613C137.58 14.3613 136.883 15.1182 136.883 16.0534V17.3245C136.883 18.2597 137.58 19.0166 138.442 19.0166C139.303 19.0166 140 18.2597 140 17.3245V16.0534C140 15.1182 139.303 14.3613 138.442 14.3613ZM139.22 17.3245C139.22 17.7911 138.87 18.1706 138.442 18.1706C138.013 18.1706 137.663 17.7911 137.663 17.3245V16.0534C137.663 15.5868 138.013 15.2074 138.442 15.2074C138.87 15.2074 139.22 15.5868 139.22 16.0534V17.3245Z" fill="#173583"/>
<path d="M110.782 19.0187H111.56V15.2074V14.3613H110.782H110.01V15.2074H110.782V19.0187Z" fill="#173583"/>
<path d="M126.469 19.0187V15.2074V14.3613H125.689H124.919V15.2074H125.689V19.0187H126.469Z" fill="#173583"/>
<path d="M114.515 7.18066C113.653 7.18066 112.956 7.93961 112.956 8.87481V10.1439C112.956 11.0811 113.653 11.838 114.515 11.838C115.376 11.838 116.073 11.0811 116.073 10.1439V8.87481C116.073 7.93961 115.376 7.18066 114.515 7.18066ZM115.293 10.1439C115.293 10.6125 114.943 10.992 114.515 10.992C114.086 10.992 113.736 10.6125 113.736 10.1439V8.87481C113.736 8.40617 114.086 8.02877 114.515 8.02877C114.943 8.02877 115.293 8.40824 115.293 8.87481V10.1439Z" fill="#173583"/>
<path d="M135.497 11.838C136.359 11.838 137.056 11.0811 137.056 10.1439V8.87481C137.056 7.93961 136.359 7.18066 135.497 7.18066C134.636 7.18066 133.938 7.93961 133.938 8.87481V10.1439C133.938 11.0811 134.636 11.838 135.497 11.838ZM134.719 8.87481C134.719 8.40617 135.068 8.02877 135.497 8.02877C135.926 8.02877 136.275 8.40824 136.275 8.87481V10.1439C136.275 10.6125 135.926 10.992 135.497 10.992C135.068 10.992 134.719 10.6125 134.719 10.1439V8.87481Z" fill="#173583"/>
<path d="M121.966 11.838C122.828 11.838 123.525 11.0811 123.525 10.1439V8.87481C123.525 7.93961 122.828 7.18066 121.966 7.18066C121.105 7.18066 120.408 7.93961 120.408 8.87481V10.1439C120.408 11.0811 121.105 11.838 121.966 11.838ZM121.188 8.87481C121.188 8.40617 121.538 8.02877 121.966 8.02877C122.395 8.02877 122.745 8.40824 122.745 8.87481V10.1439C122.745 10.6125 122.395 10.992 121.966 10.992C121.538 10.992 121.188 10.6125 121.188 10.1439V8.87481Z" fill="#173583"/>
<path d="M126.477 11.838C127.339 11.838 128.036 11.0811 128.036 10.1439V8.87481C128.036 7.93961 127.339 7.18066 126.477 7.18066C125.616 7.18066 124.919 7.93961 124.919 8.87481V10.1439C124.919 11.0811 125.616 11.838 126.477 11.838ZM125.699 8.87481C125.699 8.40617 126.049 8.02877 126.477 8.02877C126.906 8.02877 127.256 8.40824 127.256 8.87481V10.1439C127.256 10.6125 126.906 10.992 126.477 10.992C126.049 10.992 125.699 10.6125 125.699 10.1439V8.87481Z" fill="#173583"/>
<path d="M130.988 11.838C131.85 11.838 132.547 11.0811 132.547 10.1439V8.87481C132.547 7.93961 131.85 7.18066 130.988 7.18066C130.127 7.18066 129.429 7.93961 129.429 8.87481V10.1439C129.429 11.0811 130.127 11.838 130.988 11.838ZM130.21 8.87481C130.21 8.40617 130.559 8.02877 130.988 8.02877C131.417 8.02877 131.766 8.40824 131.766 8.87481V10.1439C131.766 10.6125 131.417 10.992 130.988 10.992C130.559 10.992 130.21 10.6125 130.21 10.1439V8.87481Z" fill="#173583"/>
<path d="M110.782 11.838H111.56V8.02877V7.18066H110.782H110.01V8.02877H110.782V11.838Z" fill="#173583"/>
<path d="M119.014 11.838V8.02877V7.18066H118.235H117.463V8.02877H118.235V11.838H119.014Z" fill="#173583"/>
<path d="M140 11.838V8.02877V7.18066H139.221H138.449V8.02877H139.221V11.838H140Z" fill="#173583"/>
<path d="M114.457 21.542C113.597 21.542 112.898 22.3009 112.898 23.2361V24.5052C112.898 25.4404 113.595 26.1993 114.457 26.1993C115.318 26.1993 116.015 25.4404 116.015 24.5052V23.2361C116.015 22.3009 115.318 21.542 114.457 21.542ZM115.235 24.5052C115.235 24.9738 114.887 25.3533 114.457 25.3533C114.026 25.3533 113.678 24.9738 113.678 24.5052V23.2361C113.678 22.7675 114.028 22.388 114.457 22.388C114.885 22.388 115.235 22.7675 115.235 23.2361V24.5052Z" fill="#173583"/>
<path d="M137.113 24.506V23.237C137.113 22.3018 136.415 21.5449 135.554 21.5449C134.692 21.5449 133.995 22.3018 133.995 23.237V24.506C133.995 25.4433 134.692 26.2002 135.554 26.2002C136.415 26.2002 137.113 25.4433 137.113 24.506ZM134.776 24.506V23.237C134.776 22.7704 135.125 22.391 135.554 22.391C135.983 22.391 136.332 22.7704 136.332 23.237V24.506C136.332 24.9747 135.983 25.3541 135.554 25.3541C135.125 25.3541 134.776 24.9747 134.776 24.506Z" fill="#173583"/>
<path d="M123.751 24.506V23.237C123.751 22.3018 123.054 21.5449 122.192 21.5449C121.331 21.5449 120.634 22.3018 120.634 23.237V24.506C120.634 25.4433 121.331 26.2002 122.192 26.2002C123.054 26.2002 123.751 25.4433 123.751 24.506ZM121.414 24.506V23.237C121.414 22.7704 121.764 22.391 122.192 22.391C122.621 22.391 122.971 22.7704 122.971 23.237V24.506C122.971 24.9747 122.621 25.3541 122.192 25.3541C121.764 25.3541 121.414 24.9747 121.414 24.506Z" fill="#173583"/>
<path d="M128.205 23.2361C128.205 22.3009 127.508 21.542 126.647 21.542C125.785 21.542 125.088 22.3009 125.088 23.2361V24.5052C125.088 25.4404 125.785 26.1993 126.647 26.1993C127.508 26.1993 128.205 25.4404 128.205 24.5052V23.2361ZM127.427 24.5052C127.427 24.9738 127.077 25.3533 126.649 25.3533C126.22 25.3533 125.87 24.9738 125.87 24.5052V23.2361C125.87 22.7675 126.22 22.388 126.649 22.388C127.077 22.388 127.427 22.7675 127.427 23.2361V24.5052Z" fill="#173583"/>
<path d="M131.099 26.2002C131.961 26.2002 132.658 25.4433 132.658 24.506V23.237C132.658 22.3018 131.961 21.5449 131.099 21.5449C130.238 21.5449 129.541 22.3018 129.541 23.237V24.506C129.541 25.4433 130.238 26.2002 131.099 26.2002ZM130.321 23.237C130.321 22.7704 130.671 22.391 131.099 22.391C131.528 22.391 131.878 22.7704 131.878 23.237V24.506C131.878 24.9747 131.528 25.3541 131.099 25.3541C130.671 25.3541 130.321 24.9747 130.321 24.506V23.237Z" fill="#173583"/>
<path d="M111.56 26.1993V22.388V21.542H110.782H110.01V22.388H110.782V26.1993H111.56Z" fill="#173583"/>
<path d="M118.518 26.1993H119.297V22.388V21.542H118.518H117.349V22.388H118.518V26.1993Z" fill="#173583"/>
<path d="M140 26.1993V22.388V21.542H139.221H138.449V22.388H139.221V26.1993H140Z" fill="#173583"/>
</g>
<defs>
<clipPath id="clip0_690_8110">
<rect width="140" height="36" fill="white"/>
</clipPath>
</defs>
</svg>