<svg width="50" height="50" viewBox="0 0 50 50" fill="none" xmlns="http://www.w3.org/2000/svg">
<g clip-path="url(#clip0_163_5)">
<path fill-rule="evenodd" clip-rule="evenodd" d="M39.389 4.54601C37.2124 10.1286 32.2573 11.2902 25.0794 11.2902C24.3091 11.2902 23.546 11.2781 22.8095 11.2672C22.0974 11.2575 21.4239 11.2466 20.7638 11.2466C20.1775 11.2466 19.5865 11.2539 19.0039 11.2793C20.0092 8.81078 21.6141 7.13322 23.8985 6.11577C27.0828 4.69862 31.2228 4.68409 34.8759 4.67319C36.4675 4.66714 37.9913 4.66108 39.389 4.54601Z" fill="#008F32"/>
<path fill-rule="evenodd" clip-rule="evenodd" d="M41.628 6.336C38.4084 13.3491 31.2331 14.0516 25.0824 14.0516C23.7318 14.0516 22.4382 14.0189 21.2403 14.0116L19.6911 20.0702C27.6248 13.6023 38.1165 20.0145 36.9949 29.7747C36.2391 36.3481 31.5528 40.6468 26.5952 41.8823C21.1943 43.2292 15.2108 41.2136 12.5278 35.7098C12.2432 35.1284 11.7478 33.9632 11.5589 33.3406L17.2541 31.8774C17.3547 32.2057 17.5255 32.5231 17.7047 32.8125C21.5177 38.9619 29.2442 35.8866 30.1162 29.507C31.0041 23.0172 21.8981 19.5603 17.7483 27.1451L12.6974 24.9927L12.6102 24.954L15.046 15.1757C15.1962 14.4803 15.7025 12.5388 15.7898 12.2202C18.5428 2.09666 27.4491 1.93677 34.5931 1.91013C31.6388 0.680717 28.4 0 25 0C11.1919 0 0 11.1919 0 25C0 38.8082 11.1919 50 25 50C38.8082 50 50 38.8082 50 25C50 17.5775 46.7635 10.9145 41.628 6.336Z" fill="#EB2316"/>
</g>
<defs>
<clipPath id="clip0_163_5">
<rect width="50" height="50" fill="white"/>
</clipPath>
</defs>
</svg>
