<svg width="50.000000" height="50.000736" viewBox="0 0 50 50.0007" fill="none" xmlns="http://www.w3.org/2000/svg" xmlns:xlink="http://www.w3.org/1999/xlink">
	<desc>
			Created with Pixso.
	</desc>
	<defs>
		<clipPath id="clip2_1">
			<rect id="adobe_acrobat_11.svg" width="44.000000" height="50.000732" transform="translate(3.000000 0.000000)" fill="white" fill-opacity="0"/>
		</clipPath>
		<linearGradient x1="15.685360" y1="18.726513" x2="56.475365" y2="59.653576" id="paint_linear_2_2_0" gradientUnits="userSpaceOnUse">
			<stop stop-color="#FFFFFF"/>
			<stop offset="1.000000" stop-color="#DFDFEC"/>
		</linearGradient>
		<linearGradient x1="43.827156" y1="8.860271" x2="4.487873" y2="48.331379" id="paint_linear_2_4_0" gradientUnits="userSpaceOnUse">
			<stop stop-color="#FFFFFF"/>
			<stop offset="0.317000" stop-color="#FCFCFC"/>
			<stop offset="0.512000" stop-color="#F4F4F4"/>
			<stop offset="0.674000" stop-color="#E6E6E6"/>
			<stop offset="0.817000" stop-color="#D1D1D1"/>
			<stop offset="0.948000" stop-color="#B7B7B7"/>
			<stop offset="1.000000" stop-color="#AAAAAA"/>
		</linearGradient>
		<linearGradient x1="-8.069954" y1="-11.133209" x2="49.447636" y2="57.106682" id="paint_linear_2_5_0" gradientUnits="userSpaceOnUse">
			<stop stop-color="#FFFFFF"/>
			<stop offset="0.517000" stop-color="#FF0000"/>
			<stop offset="1.000000" stop-color="#880000"/>
		</linearGradient>
	</defs>
	<g opacity="0.000000">
		<rect id="Прямоугольник 1" y="0.000004" width="50.000000" height="50.000000" fill="#C4C4C4" fill-opacity="1.000000"/>
	</g>
	<g clip-path="url(#clip2_1)">
		<path id="path" d="M46.51 49.51L3.48 49.51L3.48 6.33L46.51 6.33L46.51 49.51Z" fill="url(#paint_linear_2_2_0)" fill-opacity="1.000000" fill-rule="nonzero"/>
		<path id="path" d="M46.51 49.51L3.48 49.51L3.48 6.33L46.51 6.33L46.51 49.51Z" fill="#FF0000" fill-opacity="1.000000" fill-rule="nonzero"/>
		<path id="path" d="M44.43 47.42L5.56 47.42L5.56 8.43L44.43 8.43L44.43 47.42Z" fill="url(#paint_linear_2_4_0)" fill-opacity="1.000000" fill-rule="nonzero"/>
		<path id="path" d="M3.48 5.85C3.21 5.85 3 6.07 3 6.33L3 49.51C3 49.78 3.21 50 3.48 50L46.51 50C46.78 50 47 49.78 47 49.51L47 6.33C47 6.07 46.78 5.85 46.51 5.85L3.48 5.85ZM46.03 6.81L46.03 49.03C45.1 49.03 4.89 49.03 3.96 49.03C3.96 48.09 3.96 7.75 3.96 6.81L46.03 6.81Z" fill="url(#paint_linear_2_5_0)" fill-opacity="1.000000" fill-rule="nonzero"/>
		<g opacity="0.350000">
			<path id="path" d="M27.28 2.26C23.44 5.69 40.11 35.97 44.1 28.19C48.59 19.45 4.13 37.96 13.72 40.47C24.95 43.4 34.43 -4.13 27.28 2.26Z" fill="#000000" fill-opacity="0" fill-rule="nonzero"/>
			<g opacity="0.350000">
				<path id="path" d="M26.53 1.79C23.69 4.59 26.82 10.58 28.08 13.43C30.38 18.64 33.39 24.06 37.47 28.09C38.66 29.28 40.15 30.54 41.93 30.5C43.66 30.46 45.1 28.93 45.56 27.35C46.51 24.03 41.24 24.87 39.58 25.17C34.63 26.05 29.79 27.96 25.19 29.94C21 31.75 16.57 33.77 13.06 36.75C12.14 37.54 11.07 38.64 11.12 39.93C11.17 41.2 13 41.58 13.94 41.62C18.14 41.83 21.14 37.53 22.99 34.34C27.1 27.27 29.35 18.7 30.54 10.66C30.93 8.02 31.43 4.91 30.72 2.28C30.09 1.52e-5 27.98 0.54 26.53 1.79C25.12 3 26.96 3.65 28.03 2.73C28.29 2.51 27.76 2.64 27.91 2.75C28.1 2.88 28.29 3.56 28.36 3.94C28.71 5.76 28.5 7.7 28.3 9.52C27.68 15.17 26.26 20.8 24.38 26.15C22.9 30.38 20.94 36.08 17.17 38.84C16.18 39.58 14.83 39.88 13.76 39.13C13.55 38.99 13.59 38.83 13.64 38.71C13.78 38.41 14.25 37.96 14.7 37.57C18.16 34.63 22.83 32.77 26.97 31.05C31.27 29.27 35.93 27.41 40.59 26.95C41.4 26.87 43.01 26.78 43.16 27.45C43.22 27.71 43.06 28.21 42.84 28.45C42.52 28.46 42.11 28.25 41.83 28.11C39.83 27.1 38.31 25.06 37 23.31C35.16 20.88 33.59 18.24 32.16 15.54C30.81 12.97 29.59 10.29 28.71 7.51C28.38 6.45 28.11 5.36 27.99 4.26C27.95 3.9 27.94 3.54 27.98 3.18C28 2.95 28.24 2.52 28.03 2.73C29.34 1.43 27.55 0.78 26.53 1.79Z" fill="#000000" fill-opacity="1.000000" fill-rule="nonzero"/>
			</g>
		</g>
		<path id="path" d="M25.75 1.55C21.91 4.97 38.58 35.25 42.57 27.48C47.06 18.73 2.6 37.25 12.19 39.75C23.42 42.69 32.91 -4.85 25.75 1.55Z" fill="#000000" fill-opacity="0" fill-rule="nonzero"/>
		<path id="path" d="M25 1.07C22.17 3.87 25.29 9.87 26.55 12.72C28.85 17.93 31.86 23.34 35.93 27.38C37.14 28.56 38.62 29.82 40.4 29.78C42.13 29.74 43.57 28.22 44.03 26.64C44.99 23.32 39.71 24.16 38.05 24.45C33.09 25.34 28.26 27.25 23.66 29.23C19.46 31.03 15.04 33.05 11.54 36.04C10.62 36.82 9.54 37.93 9.59 39.23C9.64 40.49 11.47 40.86 12.42 40.91C16.61 41.12 19.61 36.82 21.46 33.63C25.57 26.55 27.82 17.99 29.01 9.95C29.4 7.31 29.91 4.19 29.19 1.56C28.57 -0.71 26.45 -0.18 25 1.07C23.6 2.29 25.43 2.94 26.5 2.02C26.76 1.79 26.23 1.93 26.38 2.04C26.57 2.17 26.76 2.85 26.83 3.23C27.18 5.05 26.97 6.99 26.77 8.81C26.16 14.45 24.73 20.09 22.85 25.44C21.37 29.67 19.41 35.36 15.64 38.14C14.66 38.86 13.3 39.16 12.23 38.41C12.03 38.27 12.06 38.12 12.12 38C12.25 37.7 12.73 37.24 13.17 36.86C16.62 33.91 21.3 32.06 25.45 30.34C29.74 28.55 34.41 26.69 39.08 26.23C39.87 26.15 41.48 26.07 41.63 26.74C41.69 26.99 41.53 27.5 41.31 27.74C40.99 27.74 40.58 27.54 40.3 27.4C38.31 26.38 36.79 24.34 35.47 22.6C33.63 20.16 32.06 17.52 30.64 14.83C29.28 12.26 28.06 9.58 27.18 6.8C26.85 5.74 26.58 4.65 26.46 3.55C26.42 3.19 26.41 2.83 26.45 2.47C26.47 2.23 26.71 1.81 26.5 2.02C27.82 0.72 26.02 0.07 25 1.07Z" fill="#FF0000" fill-opacity="1.000000" fill-rule="nonzero"/>
	</g>
</svg>
