<svg width="51" height="51" viewBox="0 0 51 51" fill="none" xmlns="http://www.w3.org/2000/svg">
<path d="M0.29688 14.6765V34.611C0.29688 37.5723 0.29688 39.0528 0.546523 40.2833C1.54499 45.2038 5.39056 49.0493 10.311 50.0477C11.5414 50.2974 13.022 50.2974 15.9831 50.2974H21.0761H34.063H34.2838C38.7176 50.2974 40.9347 50.2974 42.7192 49.6811C45.9855 48.5531 48.5525 45.9863 49.6806 42.7197C50.2969 40.9352 50.2969 38.7183 50.2969 34.2843V14.6765C50.2969 12.9313 50.2969 12.0587 50.2098 11.325C49.5293 5.58814 45.0062 1.06495 39.2692 0.384456C38.5357 0.29742 37.663 0.29742 35.9176 0.29742H34.063H14.5826C10.2991 0.29742 8.15742 0.29742 6.45599 0.962818C3.93846 1.94738 1.94681 3.93903 0.962251 6.45657C0.29688 8.15801 0.29688 10.3308 0.29688 14.6765Z" fill="#E1E1E1"/>
<path d="M35.9199 1.54703H10.9199C5.74222 1.54703 1.54489 5.74436 1.54489 10.922V35.9221C1.54489 41.0998 5.74222 45.2971 10.9199 45.2971H35.9199C41.0975 45.2971 45.2949 41.0998 45.2949 35.9221V10.922C45.2949 5.74436 41.0975 1.54703 35.9199 1.54703Z" fill="white"/>
<path d="M24.1525 39.481C29.6347 39.481 33.3277 36.8122 34.1934 32.7005L28.5092 32.3256C27.8891 34.0135 26.3021 34.8934 24.2535 34.8934C21.1807 34.8934 19.2331 32.8592 19.2331 29.5556V29.5411H34.3232V27.8532C34.3232 20.3227 29.7643 16.6007 23.9072 16.6007C17.3865 16.6007 13.1595 21.2314 13.1595 28.0696C13.1595 35.0954 17.3288 39.481 24.1525 39.481ZM19.2331 25.7327C19.3629 23.2079 21.2817 21.1882 24.0082 21.1882C26.677 21.1882 28.5237 23.0925 28.5381 25.7327H19.2331ZM21.5556 14.0328H25.8981L30.2981 7.4687H24.6142L21.5556 14.0328Z" fill="black"/>
</svg>
