<svg viewBox="0 0 50 50" xmlns="http://www.w3.org/2000/svg" xmlns:xlink="http://www.w3.org/1999/xlink" width="50.000004" height="50.000000" fill="none" customFrame="#000000">
	<g id="ai">
		<path id="Форма 1" d="M43.4712 35.7529C44.5439 36.9258 45.9062 38.6924 45.9062 40.1562C45.9062 43.5937 43.0989 46.3828 39.6325 46.3906L39.6177 46.3906C38.9538 46.3906 38.3145 46.2871 37.7137 46.0976C37.5137 46.0351 37.3 46.1279 37.2143 46.3173C36.2282 48.4824 34.0356 49.9912 31.4853 50C28.0052 50.0117 25.1575 47.1064 25.1575 43.6552L20.8104 12.1672L25.1575 4.67091C25.1575 2.14064 27.2457 -0.00681855 29.798 1.73453e-05C31.9571 0.00587671 33.7676 1.47853 34.272 3.46486C34.3301 3.69533 34.5734 3.83009 34.799 3.75001C35.4077 3.53517 36.0598 3.41115 36.7395 3.39845C36.9227 3.39455 37.1089 3.39943 37.297 3.41212C40.3851 3.62599 42.8526 6.13575 42.9925 9.20216C43.0279 9.97657 42.9176 10.7197 42.6851 11.4092C42.6054 11.6465 42.761 11.8984 43.0112 11.9336C46.1574 12.3818 48.5756 15.0635 48.5756 18.3066C48.5756 19.7539 48.093 21.0898 47.2793 22.165C47.1523 22.334 47.1838 22.5713 47.3453 22.709C48.9706 24.1006 50 26.1562 50 28.4521C50 31.8027 46.8203 34.1562 43.6564 35.0986C43.3707 35.1836 43.2712 35.5342 43.4712 35.7529L43.4712 35.7529Z" fill="rgb(254,153,160)" fill-rule="nonzero" />
		<path id="Форма 2" d="M34.6601 8.92491C34.6325 8.83171 34.5881 8.74727 34.5266 8.6716C34.4652 8.59593 34.3916 8.53478 34.3056 8.48817C34.2197 8.44155 34.128 8.41301 34.0306 8.40254C33.9332 8.39207 33.8375 8.40047 33.7435 8.42775C33.4618 8.50948 32.9886 8.24152 32.5834 7.90822C32.8194 7.61837 33.0369 7.29493 33.2349 6.938C33.2832 6.85283 33.313 6.76173 33.3245 6.6647C33.336 6.56768 33.3282 6.4722 33.3011 6.37827C33.2741 6.28434 33.2298 6.19918 33.1684 6.1228C33.107 6.04642 33.0331 5.98469 32.9468 5.93762C32.8604 5.89054 32.7683 5.86175 32.6703 5.85123C32.5724 5.84071 32.4761 5.84927 32.3816 5.87693C32.2871 5.90458 32.2016 5.9492 32.1251 6.01077C32.0486 6.07234 31.987 6.14613 31.9403 6.23214C31.4005 7.20509 30.7203 7.8173 29.8684 8.09806C30.0172 7.02872 29.945 5.4633 28.5998 4.45285C28.5217 4.39419 28.4352 4.35258 28.3404 4.32801C28.2457 4.30345 28.1497 4.29779 28.0527 4.31106C27.9556 4.32432 27.8648 4.35549 27.7803 4.40457C27.6958 4.45364 27.6239 4.51689 27.5647 4.5943C27.5056 4.67172 27.4636 4.75741 27.4388 4.85138C27.414 4.94535 27.4083 5.04044 27.4217 5.13666C27.4351 5.23288 27.4665 5.32289 27.516 5.40671C27.5655 5.49053 27.6293 5.56177 27.7074 5.62042C28.6108 6.29894 28.4911 7.56447 28.339 8.26017C26.5959 8.11974 25.0055 7.05822 24.9846 7.04396C24.9038 6.98965 24.8157 6.95266 24.7201 6.93299C24.6246 6.91331 24.5289 6.91244 24.433 6.93037C24.3371 6.9483 24.2482 6.98368 24.1665 7.0365C24.0847 7.08933 24.0162 7.15561 23.961 7.23535C23.9057 7.31509 23.8679 7.40226 23.8475 7.49686C23.827 7.59147 23.8256 7.68636 23.8431 7.78153C23.8606 7.87671 23.8958 7.96498 23.9486 8.04634C24.0013 8.12771 24.0678 8.19602 24.1479 8.25128C24.2511 8.32169 26.3615 9.74005 28.7162 9.74005C29.1154 9.74005 29.5219 9.69923 29.9265 9.60421C30.4942 9.47209 31.0181 9.24191 31.4982 8.91368C31.9967 9.35118 32.7958 9.90577 33.6447 9.90577C33.8146 9.90577 33.9867 9.88351 34.1585 9.8337C34.2525 9.80641 34.3377 9.76231 34.414 9.70143C34.4904 9.64054 34.5521 9.56749 34.5991 9.48228C34.6461 9.39706 34.6749 9.30617 34.6855 9.20961C34.696 9.11304 34.6876 9.01814 34.6601 8.92491ZM33.7241 20.2981C33.6386 20.2981 33.5517 20.2966 33.4632 20.2936C33.3653 20.2902 33.2718 20.2683 33.1827 20.228C33.0935 20.1877 33.0156 20.1321 32.9488 20.061C32.882 19.99 32.8314 19.909 32.7971 19.818C32.7629 19.727 32.7474 19.633 32.7509 19.5359C32.7652 19.1316 33.108 18.8172 33.5151 18.8296C34.3629 18.8597 35.0019 18.7083 35.3156 18.4052C35.5021 18.2251 35.591 17.9658 35.5877 17.6127C35.5868 17.5156 35.6046 17.422 35.6413 17.3319C35.678 17.2418 35.7306 17.1621 35.7992 17.0928C35.8679 17.0235 35.9473 16.9699 36.0374 16.9319C36.1276 16.8939 36.2217 16.8744 36.3196 16.8735L36.3266 16.8735C36.424 16.8736 36.5177 16.8919 36.6077 16.9287C36.6977 16.9654 36.7773 17.0178 36.8465 17.0857C36.9156 17.1536 36.9692 17.2321 37.007 17.321C37.0449 17.4099 37.0643 17.5026 37.0652 17.5991C37.0723 18.3626 36.8307 18.9867 36.3469 19.4543C35.7667 20.0147 34.885 20.2981 33.7241 20.2981L33.7241 20.2981Z" fill="rgb(254,100,111)" fill-rule="nonzero" />
		<path id="Форма 3" d="M43.4712 35.7529C44.5439 36.9258 45.9062 38.6924 45.9062 40.1562C45.9062 43.5937 43.0989 46.3828 39.6325 46.3906C42.0025 45.4551 43.6771 43.1611 43.6771 40.4775C43.6771 38.9844 42.2872 37.1806 41.1908 35.9844C40.9869 35.7617 41.0884 35.4043 41.381 35.3164C44.6099 34.3545 47.8536 31.9531 47.8536 28.5332C47.8536 26.1904 46.8026 24.0928 45.1448 22.6728C44.9803 22.5322 44.9487 22.29 45.0778 22.1182C45.9082 21.0205 46.4017 19.6582 46.4017 18.1807C46.4017 14.8711 43.9332 12.1338 40.722 11.6768C40.4678 11.6406 40.3083 11.3838 40.39 11.1416C40.6264 10.4385 40.7397 9.67872 40.7033 8.88966C40.59 6.40431 38.9775 4.27736 36.7395 3.39846C36.9227 3.39455 37.1089 3.39943 37.297 3.41213C40.3851 3.62599 42.8526 6.13576 42.9925 9.20216C43.0279 9.97657 42.9176 10.7197 42.6851 11.4092C42.6054 11.6465 42.761 11.8984 43.0112 11.9336C46.1574 12.3818 48.5756 15.0635 48.5756 18.3066C48.5756 19.7539 48.093 21.0898 47.2793 22.165C47.1523 22.334 47.1838 22.5713 47.3453 22.709C48.9706 24.1006 50 26.1562 50 28.4521C50 31.8027 46.8203 34.1562 43.6564 35.0986C43.3707 35.1836 43.2712 35.5342 43.4712 35.7529L43.4712 35.7529Z" fill="rgb(253,128,135)" fill-rule="nonzero" />
		<path id="Форма 4" d="M28.9651 16.3273C28.8282 16.3272 28.7012 16.2921 28.584 16.222C28.4668 16.152 28.3763 16.0569 28.3124 15.9369C28.2485 15.8169 28.2204 15.6892 28.2281 15.5537C28.2358 15.4182 28.2782 15.2944 28.3553 15.1823C29.319 13.7806 31.168 12.1173 34.4866 12.1684C34.584 12.1699 34.6774 12.1898 34.7668 12.228C34.8563 12.2662 34.935 12.3198 35.0031 12.3889C35.0711 12.458 35.1234 12.5373 35.1598 12.6268C35.1962 12.7164 35.2141 12.8094 35.2134 12.906C35.2127 13.0025 35.1935 13.0953 35.1557 13.1843C35.118 13.2733 35.0647 13.3519 34.9956 13.42C34.9266 13.4881 34.847 13.5406 34.757 13.5775C34.667 13.6144 34.5734 13.6329 34.476 13.6331L34.4649 13.633C32.329 13.6014 30.681 14.4006 29.5762 16.0074C29.4295 16.2211 29.2258 16.3277 28.9651 16.3273L28.9651 16.3273ZM34.8677 43.3228C34.8118 42.9221 34.4383 42.6417 34.0348 42.6976C32.1881 42.9503 30.9676 42.3377 30.3948 40.8757C31.2161 40.6314 31.9556 40.1912 32.594 39.5583C32.6627 39.4895 32.7157 39.4103 32.7527 39.3207C32.7898 39.2311 32.8082 39.1379 32.808 39.041C32.8078 38.9442 32.789 38.8511 32.7515 38.7616C32.714 38.6722 32.6607 38.5933 32.5916 38.5248C32.5225 38.4563 32.4429 38.4035 32.3527 38.3663C32.2625 38.3292 32.1685 38.3105 32.0708 38.3103C31.9732 38.3101 31.8791 38.3284 31.7888 38.3651C31.6984 38.4019 31.6185 38.4544 31.5491 38.5225C30.502 39.5606 29.108 39.8764 27.4047 39.4612C26.0521 39.1314 25.0058 38.4501 24.9786 38.4323C24.8973 38.3781 24.8086 38.3415 24.7125 38.3223C24.6165 38.3031 24.5204 38.3028 24.4243 38.3216C24.3281 38.3403 24.2393 38.3765 24.1577 38.4303C24.0761 38.484 24.008 38.5512 23.9533 38.6318C23.8987 38.7124 23.8617 38.8004 23.8424 38.8956C23.823 38.9908 23.8228 39.086 23.8416 39.1813C23.8605 39.2766 23.8971 39.3647 23.9513 39.4456C24.0055 39.5265 24.0733 39.5941 24.1546 39.6482C24.2047 39.6817 25.4017 40.4722 27.0072 40.8727C27.624 41.0265 28.218 41.103 28.785 41.103C28.8264 41.103 28.867 41.1011 28.9081 41.1003C29.5696 43.1182 31.1132 44.2172 33.2711 44.2172C33.5807 44.2172 33.9031 44.1945 34.2371 44.1487C34.3341 44.1354 34.4249 44.1041 34.5094 44.055C34.5939 44.0059 34.6657 43.9426 34.7248 43.8652C34.784 43.7878 34.8259 43.702 34.8507 43.6081C34.8754 43.5141 34.8811 43.419 34.8677 43.3228ZM37.2263 39.1083C37.0901 39.1084 36.9635 39.0738 36.8466 39.0045C36.7297 38.9353 36.6391 38.8411 36.5747 38.7221C35.4609 36.6651 35.8139 35.1705 36.3062 34.279C36.8361 33.3193 37.6233 32.8626 37.7114 32.8137C37.7969 32.7662 37.8882 32.7367 37.9855 32.7252C38.0828 32.7138 38.1786 32.7212 38.2729 32.7475C38.3672 32.7738 38.4529 32.8171 38.5298 32.8772C38.6068 32.9373 38.6692 33.0097 38.7171 33.0944C38.7648 33.1787 38.7945 33.2689 38.8062 33.3649C38.8179 33.4609 38.8107 33.5554 38.7846 33.6486C38.7585 33.7418 38.7155 33.8265 38.6555 33.9027C38.5956 33.979 38.5233 34.0411 38.4386 34.089C38.2241 34.2135 36.4304 35.3586 37.8766 38.0295C37.9068 38.0852 37.9293 38.1439 37.9442 38.2055C37.9591 38.267 37.9658 38.3295 37.9643 38.3927C37.9628 38.456 37.9533 38.5181 37.9356 38.5789C37.9179 38.6397 37.8927 38.6973 37.8599 38.7516C37.8271 38.806 37.7879 38.8553 37.7423 38.8995C37.6966 38.9438 37.6461 38.9815 37.5905 39.0128C37.535 39.0441 37.4764 39.0678 37.4146 39.084C37.3529 39.1001 37.2901 39.1082 37.2263 39.1083L37.2263 39.1083ZM38.5106 42.6567C38.4448 42.6567 38.3784 42.6559 38.3111 42.6542C38.2132 42.6517 38.1194 42.6308 38.0299 42.5913C37.9404 42.5519 37.8618 42.497 37.7943 42.4266C37.7268 42.3562 37.6755 42.2757 37.6403 42.185C37.6051 42.0944 37.5888 42.0005 37.5912 41.9034C37.6017 41.499 37.9391 41.1784 38.3485 41.1898C39.3121 41.2143 40.0082 41.0254 40.3666 40.6445C40.6685 40.3234 40.6523 39.9403 40.652 39.9366C40.6427 39.8399 40.6524 39.7451 40.6811 39.6523C40.7099 39.5594 40.7554 39.4755 40.8178 39.4006C40.8802 39.3257 40.9547 39.2655 41.0412 39.22C41.1277 39.1745 41.2198 39.1471 41.3173 39.1379C41.7228 39.099 42.0841 39.3947 42.1229 39.7974C42.133 39.9021 42.1996 40.8435 41.4472 41.6435C40.8144 42.3163 39.8269 42.6567 38.5106 42.6567Z" fill="rgb(254,100,111)" fill-rule="nonzero" />
		<path id="Форма 5" d="M25.1575 4.58791L25.1575 43.7471C25.1575 47.2002 22.3343 50 18.8503 50C18.5587 50 18.2711 49.9804 17.9894 49.9424C15.6775 49.6289 13.7636 48.0722 12.9568 45.9736C12.2298 46.2521 11.4766 46.3911 10.6972 46.3906C7.22394 46.3906 4.40871 43.5986 4.40871 40.1562C4.40871 38.4736 6.20738 36.3916 7.29979 35.2705C3.93885 34.4697 0.3159 32.0293 0.3159 28.4521C0.3159 26.0166 1.4743 23.8506 3.27395 22.4619C2.31749 21.3398 1.73927 19.8906 1.73927 18.3066C1.73927 14.8906 4.42152 12.0986 7.81102 11.8818C7.48 11.1164 7.31485 10.3172 7.31555 9.48439C7.31555 6.12209 10.0648 3.3965 13.4562 3.3965C14.3447 3.3965 15.1889 3.58595 15.9523 3.92287C16.2311 2.0176 17.6899 0.492207 19.5703 0.0986533C19.8806 0.0342002 20.2017 2.05351e-05 20.5308 2.05351e-05C23.0859 2.05351e-05 25.1575 2.05471 25.1575 4.58791L25.1575 4.58791Z" fill="rgb(153,230,252)" fill-rule="nonzero" />
		<path id="Форма 6" d="M25.1575 4.58791L25.1575 43.7471C25.1575 47.2002 22.3343 50 18.8503 50C18.5587 50 18.2711 49.9804 17.9894 49.9424C20.715 49.2363 22.7274 46.7803 22.7274 43.8574L22.7274 4.46779C22.7274 2.44045 21.4064 0.715839 19.5703 0.0986521C19.8806 0.0341991 20.2017 1.94175e-05 20.5308 1.94175e-05C23.0859 1.94175e-05 25.1575 2.0547 25.1575 4.58791Z" fill="rgb(98,219,251)" fill-rule="nonzero" />
		<g id="Сочетание 2">
			<ellipse id="Эллипс 1" rx="3.246078" ry="3.218162" cx="12.9122086" cy="46.4537849" fill="rgb(111,215,163)" />
			<path id="Форма 7" d="M19.281 20.8584C19.1138 20.8585 18.9641 20.808 18.8317 20.7067L7.01127 11.7055C6.93537 11.6457 6.87373 11.5739 6.82634 11.4901C6.77894 11.4062 6.74934 11.3166 6.73752 11.2212C6.7257 11.1259 6.73255 11.0318 6.75806 10.9391C6.78358 10.8464 6.82586 10.7619 6.8849 10.6857C6.94395 10.6095 7.01536 10.5472 7.09913 10.4989C7.1829 10.4505 7.27278 10.4197 7.36879 10.4064C7.46479 10.3932 7.55975 10.3984 7.65367 10.4222C7.74759 10.446 7.83346 10.4865 7.9113 10.5438L19.7317 19.545C19.8571 19.6406 19.9428 19.7635 19.9886 19.9137C20.0344 20.0639 20.0318 20.2132 19.9808 20.3617C19.9299 20.5102 19.8401 20.6302 19.7114 20.7215C19.5827 20.8128 19.4393 20.8584 19.281 20.8584ZM6.37051 35.9538C6.19996 35.954 6.0476 35.9019 5.91344 35.7976C5.77927 35.6932 5.69203 35.5588 5.65171 35.3945C5.61139 35.2303 5.62662 35.0712 5.69741 34.9174C5.7682 34.7635 5.87938 34.6479 6.03096 34.5704L17.8514 28.5192C17.9382 28.4766 18.03 28.4518 18.1266 28.4449C18.2233 28.4381 18.3177 28.4496 18.4098 28.4796C18.5019 28.5095 18.5848 28.5557 18.6586 28.618C18.7324 28.6803 18.7915 28.7541 18.8359 28.8395C18.8804 28.9249 18.9069 29.0154 18.9154 29.1111C18.924 29.2069 18.9139 29.3006 18.8852 29.3924C18.8565 29.4842 18.8114 29.5671 18.7497 29.6413C18.6881 29.7155 18.6146 29.7753 18.5293 29.8208L6.70887 35.872C6.60278 35.9265 6.49 35.9538 6.37051 35.9538L6.37051 35.9538ZM17.9797 25.095C17.9464 25.095 17.9128 25.0928 17.8791 25.0883L3.10364 23.0936C3.00657 23.0805 2.91572 23.0495 2.83109 23.0006C2.74647 22.9517 2.6745 22.8886 2.6152 22.8112C2.55591 22.7339 2.51379 22.6483 2.48885 22.5544C2.4639 22.4605 2.45804 22.3654 2.47125 22.2691C2.52641 21.8683 2.90004 21.5878 3.30292 21.6422L18.0784 23.6368C18.1712 23.6493 18.2584 23.6782 18.3401 23.7236C18.4218 23.7689 18.4923 23.8276 18.5515 23.8995C18.6107 23.9714 18.6545 24.0516 18.683 24.14C18.7114 24.2285 18.7225 24.319 18.7163 24.4116C18.71 24.5043 18.6868 24.5925 18.6467 24.6764C18.6066 24.7603 18.5523 24.8339 18.484 24.8974C18.4156 24.9608 18.3379 25.0096 18.2508 25.0437C18.1637 25.0778 18.0734 25.0949 17.9797 25.095ZM13.5768 45.8206C13.4394 45.8205 13.3119 45.7851 13.1944 45.7144C13.0769 45.6438 12.9863 45.5481 12.9226 45.4273C12.859 45.3066 12.8315 45.1782 12.8401 45.0422C12.8487 44.9062 12.8922 44.7823 12.9706 44.6704L21.3434 32.7152C21.576 32.3829 22.0365 32.3007 22.3716 32.5313C22.7067 32.762 22.7898 33.2184 22.5571 33.5507L14.1843 45.5058C14.0373 45.716 13.8348 45.821 13.5768 45.8206L13.5768 45.8206ZM22.3217 17.6225C22.1806 17.6226 22.0502 17.5856 21.9304 17.5116C21.8107 17.4376 21.7198 17.3378 21.6577 17.2121L15.7475 5.25041C15.7045 5.16319 15.68 5.07114 15.6739 4.97426C15.6678 4.87737 15.6807 4.78301 15.7124 4.69119C15.7442 4.59936 15.7924 4.51704 15.8572 4.44424C15.922 4.37144 15.9983 4.31369 16.0863 4.27098C16.1742 4.22828 16.267 4.20387 16.3647 4.19775C16.4625 4.19164 16.5577 4.20429 16.6503 4.2357C16.743 4.2671 16.826 4.31488 16.8995 4.37903C16.973 4.44319 17.0313 4.51883 17.0745 4.60597L22.9847 16.5677C23.0123 16.6235 23.0324 16.6818 23.045 16.7427C23.0576 16.8036 23.0623 16.8651 23.0591 16.9272C23.0559 16.9893 23.045 17.05 23.0262 17.1093C23.0074 17.1686 22.9815 17.2246 22.9483 17.2774C22.9152 17.3301 22.8759 17.3779 22.8304 17.4208C22.785 17.4636 22.7349 17.5001 22.6801 17.5303C22.6253 17.5605 22.5675 17.5834 22.5068 17.599C22.4461 17.6146 22.3844 17.6224 22.3217 17.6225Z" fill="rgb(111,215,163)" fill-rule="nonzero" />
		</g>
		<path id="Форма 8" d="M16.1582 46.4541C16.1582 48.2314 14.7053 49.6719 12.9125 49.6719C12.5924 49.6719 12.2831 49.626 11.9905 49.54C13.1903 49.0195 14.0285 47.834 14.0285 46.4541C14.0285 45.0732 13.1893 43.8867 11.9876 43.3681C12.2893 43.2791 12.5976 43.2348 12.9125 43.2353C14.7053 43.2353 16.1582 44.6767 16.1582 46.4541Z" fill="rgb(62,195,164)" fill-rule="nonzero" />
		<path id="Форма 9" d="M41.5886 27.1958C40.4411 26.6269 39.3653 27.4412 38.7706 28.0539C37.7097 27.4784 36.2557 27.2404 35.0016 27.1508C34.9041 27.1442 34.8091 27.1564 34.7165 27.1872C34.6238 27.218 34.5407 27.2652 34.4669 27.3287C34.3932 27.3923 34.3345 27.4674 34.2908 27.554C34.2471 27.6406 34.2218 27.7322 34.2147 27.8288C34.2077 27.9254 34.2195 28.0197 34.2502 28.1117C34.2809 28.2036 34.3282 28.2863 34.3919 28.3596C34.4557 28.433 34.5312 28.4915 34.6184 28.5352C34.7056 28.5789 34.7979 28.6044 34.8953 28.6118C36.9825 28.761 38.4899 29.3003 38.7354 29.9855C38.7877 30.1316 38.8777 30.2493 39.0054 30.3388C39.1331 30.4282 39.2751 30.473 39.4315 30.473C39.4906 30.473 39.549 30.4661 39.6064 30.4522C39.6639 30.4384 39.7189 30.4179 39.7714 30.391C39.824 30.364 39.8725 30.3312 39.9171 30.2927C39.9617 30.2541 40.0011 30.2109 40.0352 30.163C40.0693 30.1151 40.0972 30.0638 40.1189 30.0093C40.1406 29.9547 40.1555 29.8984 40.1635 29.8403C40.1716 29.7822 40.1726 29.7239 40.1665 29.6656C40.1605 29.6073 40.1475 29.5505 40.1277 29.4952C40.067 29.3272 39.9869 29.1689 39.8873 29.0202C40.2304 28.6833 40.6674 28.3767 40.9276 28.5058C41.0153 28.5493 41.1079 28.5745 41.2057 28.5814C41.3034 28.5883 41.3987 28.5764 41.4917 28.5457C41.5846 28.5149 41.6681 28.4678 41.7421 28.4041C41.8161 28.3405 41.875 28.2652 41.9188 28.1783C41.9626 28.0915 41.988 27.9996 41.995 27.9027C42.002 27.8059 41.99 27.7114 41.959 27.6192C41.928 27.5271 41.8805 27.4443 41.8163 27.371C41.7521 27.2976 41.6762 27.2392 41.5886 27.1958L41.5886 27.1958Z" fill="rgb(254,100,111)" fill-rule="nonzero" />
		<path id="Форма 10" d="M35.652 25C35.652 30.7461 30.9534 35.4043 25.1575 35.4043C25.0491 35.4043 24.9417 35.4023 24.8344 35.3994C19.1882 35.2305 14.6639 30.6387 14.6639 25C14.6639 19.3594 19.1901 14.7686 24.8383 14.6016C24.9447 14.5986 25.0511 14.5967 25.1575 14.5967C30.9534 14.5967 35.652 19.2539 35.652 25Z" fill="rgb(223,246,253)" fill-rule="nonzero" />
		<path id="Форма 11" d="M35.652 25C35.652 30.7461 30.9534 35.4043 25.1575 35.4043C25.0491 35.4043 24.9417 35.4023 24.8344 35.3994C29.6236 34.3223 33.1983 30.0752 33.1983 25C33.1983 19.9258 29.6256 15.6807 24.8383 14.6016C24.9447 14.5986 25.0511 14.5967 25.1575 14.5967C30.9534 14.5967 35.652 19.2539 35.652 25Z" fill="rgb(216,236,254)" fill-rule="nonzero" />
		<ellipse id="Эллипс 2" rx="3.246079" ry="3.218162" cx="5.58159256" cy="35.624691" fill="rgb(111,215,163)" />
		<path id="Форма 12" d="M8.82757 35.625C8.82757 37.4023 7.37465 38.8428 5.58189 38.8428C5.26175 38.8428 4.95245 38.7969 4.6599 38.7109C5.85967 38.1904 6.69793 37.0049 6.69793 35.625C6.69793 34.2441 5.85868 33.0576 4.65694 32.539C4.95871 32.45 5.26702 32.4057 5.58189 32.4062C7.37465 32.4062 8.82757 33.8476 8.82757 35.625Z" fill="rgb(62,195,164)" fill-rule="nonzero" />
		<ellipse id="Эллипс 3" rx="3.246079" ry="3.218162" cx="3.24607897" cy="22.3743172" fill="rgb(111,215,163)" />
		<path id="Форма 13" d="M6.49206 22.374C6.49206 24.1514 5.03914 25.5928 3.24637 25.5928C2.92525 25.5928 2.61497 25.5469 2.32241 25.46C3.52317 24.9424 4.36242 23.7549 4.36242 22.374C4.36242 20.9941 3.52317 19.8076 2.32241 19.2891C2.61497 19.2022 2.92525 19.1563 3.24637 19.1563C5.03914 19.1563 6.49206 20.5967 6.49206 22.374L6.49206 22.374Z" fill="rgb(62,195,164)" fill-rule="nonzero" />
		<ellipse id="Эллипс 4" rx="3.246078" ry="3.218161" cx="7.13410282" cy="10.8764744" fill="rgb(111,215,163)" />
		<path id="Форма 14" d="M10.38 10.876C10.38 12.6533 8.92706 14.0947 7.1343 14.0947C6.81318 14.0947 6.50289 14.0488 6.21034 13.9619C7.4111 13.4443 8.25034 12.2568 8.25034 10.876C8.25034 9.49708 7.41109 8.30958 6.21034 7.79103C6.50289 7.70411 6.81318 7.65822 7.1343 7.65822C8.92706 7.65822 10.38 9.09864 10.38 10.876L10.38 10.876Z" fill="rgb(62,195,164)" fill-rule="nonzero" />
		<ellipse id="Эллипс 5" rx="3.246078" ry="3.218161" cx="15.7956982" cy="3.68556333" fill="rgb(111,215,163)" />
		<path id="Форма 15" d="M19.0414 3.68556C19.0414 5.46291 17.5885 6.90333 15.7957 6.90333C15.4746 6.90333 15.1653 6.85744 14.8727 6.7715C16.0725 6.25294 16.9117 5.06545 16.9117 3.68459C16.9117 2.30568 16.0725 1.11818 14.8727 0.599629C15.1653 0.513691 15.4746 0.467793 15.7957 0.467793C17.5885 0.467793 19.0414 1.90822 19.0414 3.68556L19.0414 3.68556Z" fill="rgb(62,195,164)" fill-rule="nonzero" />
		<path id="Форма 16" d="M27.1806 28.9595L24.0603 20.7625C24.0579 20.7558 24.0551 20.7491 24.0524 20.7425C23.9812 20.5696 23.8673 20.4311 23.7108 20.3272C23.5543 20.2232 23.3818 20.1714 23.1934 20.1719L23.1925 20.1719C23.0007 20.1716 22.8256 20.2253 22.6674 20.3329C22.5093 20.4405 22.3958 20.5832 22.3271 20.7607L19.1782 28.9573C19.1433 29.0481 19.1273 29.142 19.1301 29.2391C19.133 29.3362 19.1544 29.429 19.1945 29.5177C19.2346 29.6063 19.2903 29.6839 19.3615 29.7506C19.4328 29.8173 19.5142 29.8679 19.6057 29.9024C19.9863 30.0464 20.4137 29.8567 20.559 29.4787L21.1621 27.9091L25.2016 27.9091L25.7983 29.4767C25.8526 29.6192 25.9429 29.7339 26.0694 29.8206C26.1958 29.9073 26.3359 29.9506 26.4896 29.9507C26.5494 29.9507 26.6082 29.9436 26.6663 29.9294C26.7243 29.9152 26.7797 29.8943 26.8326 29.8668C26.8856 29.8393 26.9344 29.8059 26.9791 29.7666C27.0239 29.7274 27.0632 29.6834 27.0972 29.6346C27.1312 29.5859 27.1588 29.5339 27.18 29.4785C27.2012 29.4231 27.2155 29.366 27.2227 29.3072C27.23 29.2484 27.2301 29.1896 27.223 29.1308C27.2158 29.072 27.2017 29.0149 27.1806 28.9595L27.1806 28.9595ZM21.7247 26.4442L23.1909 22.6275L24.6439 26.4442L21.7247 26.4442ZM29.2292 29.8275C29.1312 29.8275 29.037 29.8089 28.9465 29.7718C28.856 29.7346 28.7761 29.6817 28.7068 29.613C28.6375 29.5443 28.5841 29.4651 28.5466 29.3754C28.5092 29.2857 28.4904 29.1922 28.4904 29.0951L28.4904 20.7814C28.4904 20.377 28.8211 20.049 29.2292 20.049C29.6373 20.049 29.968 20.377 29.968 20.7814L29.968 29.0951C29.968 29.1922 29.9492 29.2857 29.9117 29.3754C29.8742 29.4651 29.8209 29.5443 29.7516 29.613C29.6823 29.6817 29.6024 29.7346 29.5119 29.7718C29.4214 29.8089 29.3272 29.8275 29.2292 29.8275Z" fill="rgb(159,172,186)" fill-rule="nonzero" />
		<path id="Форма 17" d="M43.7691 18.5058C43.743 18.4121 43.6999 18.327 43.6396 18.2504C43.5794 18.1738 43.5066 18.1115 43.4213 18.0636C43.3361 18.0157 43.2448 17.9859 43.1476 17.974C43.0503 17.9621 42.9545 17.9692 42.8601 17.9951C42.7657 18.021 42.6798 18.0638 42.6026 18.1236C42.5253 18.1833 42.4626 18.2554 42.4143 18.3399C42.366 18.4244 42.3358 18.5149 42.3238 18.6113C42.3118 18.7077 42.3189 18.8027 42.345 18.8963C42.4342 19.2161 42.4163 19.4735 42.2902 19.6832C42.171 19.8817 41.9437 20.0629 41.6349 20.2129C41.322 18.998 40.3602 18.4488 40.249 18.3893C40.1628 18.3431 40.0709 18.315 39.9735 18.305C39.876 18.295 39.7804 18.3039 39.6865 18.3317C39.5926 18.3595 39.5077 18.404 39.4316 18.4652C39.3556 18.5265 39.2943 18.5999 39.2477 18.6853C39.2011 18.7707 39.1728 18.8618 39.1627 18.9584C39.1527 19.055 39.1617 19.1499 39.1897 19.2429C39.2177 19.336 39.2626 19.4202 39.3244 19.4956C39.3862 19.571 39.4601 19.6317 39.5463 19.6779C39.5516 19.6807 40.0721 19.9847 40.2155 20.6167C40.3629 21.2667 40.0742 22.106 39.3805 23.0438C39.3219 23.1221 39.2806 23.2086 39.2567 23.3032C39.2329 23.3978 39.2283 23.4934 39.2429 23.5898C39.2576 23.6863 39.2904 23.7762 39.3413 23.8597C39.3922 23.9431 39.4573 24.0137 39.5366 24.0714C39.616 24.1291 39.7034 24.1694 39.799 24.1925C39.8946 24.2155 39.991 24.2194 40.0882 24.2043C40.1854 24.1892 40.2759 24.1561 40.3598 24.1051C40.4436 24.0541 40.5144 23.9891 40.572 23.9101C41.1188 23.1709 41.4729 22.4611 41.6329 21.7866C42.3417 21.5611 43.1247 21.1567 43.5596 20.433C43.8934 19.8773 43.9658 19.211 43.7691 18.5058L43.7691 18.5058ZM40.6546 15.6239C40.8098 15.6239 40.9509 15.5798 41.0781 15.4916C41.2052 15.4034 41.2954 15.287 41.3486 15.1425C41.3823 15.0513 41.397 14.9571 41.3928 14.8601C41.3886 14.763 41.3659 14.6705 41.3246 14.5824C41.2832 14.4944 41.2265 14.4175 41.1543 14.3518C41.0822 14.2861 41.0001 14.2366 40.908 14.2033C39.9576 13.8593 39.3853 13.3464 39.2071 12.6789C39.0735 12.1782 39.2037 11.7452 39.2102 11.7244C39.2411 11.6326 39.2531 11.5384 39.2463 11.4418C39.2395 11.3453 39.2144 11.2536 39.171 11.1669C39.1275 11.0803 39.069 11.0051 38.9955 10.9414C38.922 10.8777 38.839 10.8303 38.7465 10.7992C38.654 10.7681 38.5591 10.7557 38.4616 10.762C38.3642 10.7682 38.2717 10.7927 38.184 10.8353C38.0963 10.8779 38.0202 10.9355 37.9556 11.0081C37.8909 11.0807 37.8427 11.1627 37.8109 11.2542C37.4493 12.295 37.5254 14.5385 40.4012 15.5794C40.485 15.6096 40.5705 15.6239 40.6546 15.6239L40.6546 15.6239Z" fill="rgb(254,100,111)" fill-rule="nonzero" />
	</g>
</svg>
