<svg width="50.000000" height="50.000000" viewBox="0 0 50 50" fill="none" xmlns="http://www.w3.org/2000/svg" xmlns:xlink="http://www.w3.org/1999/xlink">
	<desc>
			Created with Pixso.
	</desc>
	<defs/>
	<path id="path" d="M14.01 47.42C6.28 43.41 1.72 37.18 0.33 28.85C-1.87 15.65 6.99 2.64 20.98 0.37C29.64 -1.05 37.11 1.6 43.14 7.84C47.55 12.39 49.81 17.89 49.98 24.12C50.23 33.03 46.67 40.27 39.23 45.47C32.33 50.3 24.7 51.16 16.66 48.53C15.76 48.24 14.92 47.81 14.01 47.42ZM24.31 17.24C25.56 13.82 26.8 10.39 28.06 6.94C18.98 5.44 10.3 10.71 7.52 19.41C4.75 28.1 8.82 36.83 15.7 40.69C18.56 32.9 21.41 25.12 24.31 17.24ZM23.62 38.78C23.12 40.18 22.61 41.57 22.08 43.06C26.96 43.74 31.38 42.85 35.34 40.13C38.9 37.69 41.31 34.42 42.62 30.28C42.3 30.28 42.13 30.28 41.95 30.28C37.12 30.28 32.28 30.29 27.45 30.27C26.82 30.27 26.55 30.49 26.35 31.06C25.48 33.61 24.56 36.14 23.62 38.78ZM31.98 15.91C31.14 18.19 30.3 20.48 29.46 22.76C29.14 23.63 29.23 23.75 30.18 23.75C34.34 23.75 38.49 23.75 42.65 23.75C42.86 23.75 43.08 23.73 43.26 23.73C43.29 23.6 43.32 23.55 43.31 23.51C42.83 17.67 40.06 13.1 35.19 9.71C34.59 9.29 34.39 9.37 34.13 10.07C33.42 11.98 32.72 13.9 31.98 15.91Z" fill="#FF028A" fill-opacity="1.000000" fill-rule="nonzero"/>
	<path id="path" d="M0.33 28.85C-1.87 15.65 6.99 2.64 20.98 0.37C29.64 -1.05 37.11 1.6 43.14 7.84C47.55 12.39 49.81 17.89 49.98 24.12C50.23 33.03 46.67 40.27 39.23 45.47C32.33 50.3 24.7 51.16 16.66 48.53C15.76 48.24 14.92 47.81 14.01 47.42C6.28 43.41 1.72 37.18 0.33 28.85ZM28.06 6.94C18.98 5.44 10.3 10.71 7.52 19.41C4.75 28.1 8.82 36.83 15.7 40.69C18.56 32.9 21.41 25.12 24.31 17.24C25.56 13.82 26.8 10.39 28.06 6.94ZM22.08 43.06C26.96 43.74 31.38 42.85 35.34 40.13C38.9 37.69 41.31 34.42 42.62 30.28C42.3 30.28 42.13 30.28 41.95 30.28C37.12 30.28 32.28 30.29 27.45 30.27C26.82 30.27 26.55 30.49 26.35 31.06C25.48 33.61 24.56 36.14 23.62 38.78C23.12 40.18 22.61 41.57 22.08 43.06ZM29.46 22.76C29.14 23.63 29.23 23.75 30.18 23.75C34.34 23.75 38.49 23.75 42.65 23.75C42.86 23.75 43.08 23.73 43.26 23.73C43.29 23.6 43.32 23.55 43.31 23.51C42.83 17.67 40.06 13.1 35.19 9.71C34.59 9.29 34.39 9.37 34.13 10.07C33.42 11.98 32.72 13.9 31.98 15.91C31.14 18.19 30.3 20.48 29.46 22.76Z" stroke="#000000" stroke-opacity="0" stroke-width="1.000000"/>
</svg>
