<svg width="50" height="50" viewBox="0 0 50 50" fill="none" xmlns="http://www.w3.org/2000/svg">
<path fill-rule="evenodd" clip-rule="evenodd" d="M0 25C0 11.2021 11.2021 0 25 0C38.7979 0 50 11.2021 50 25C50 38.7978 38.7979 50 25 50C11.2021 50 0 38.7978 0 25Z" fill="url(#paint0_linear_103_173)"/>
<path fill-rule="evenodd" clip-rule="evenodd" d="M22.9741 12.5C22.9741 10.5968 21.429 9.05168 19.5258 9.05168H12.6293C10.7261 9.05168 9.18098 10.5968 9.18098 12.5V19.3965C9.18098 21.2996 10.7261 22.8448 12.6293 22.8448H19.5258C21.429 22.8448 22.9741 21.2996 22.9741 19.3965V12.5Z" fill="white"/>
<path fill-rule="evenodd" clip-rule="evenodd" d="M37.393 9.05174L37.4152 9.05198L37.4374 9.05235L37.4597 9.05285L37.4818 9.05346L37.5039 9.0542L37.5259 9.05512L37.548 9.05617L37.57 9.05734L37.592 9.05869L37.6139 9.06017L37.6358 9.06177L37.6577 9.0635L37.6795 9.06534L37.7013 9.06737L37.723 9.06953L37.7448 9.0718L37.7664 9.07421L37.788 9.07673L37.8096 9.07944L37.8311 9.08221L37.8527 9.08516L37.8741 9.08824L37.8955 9.09144L37.9169 9.09476L37.9382 9.09827L37.9595 9.10184L37.9808 9.1056L38.0019 9.10948L38.0231 9.11342L38.0442 9.11754L38.0653 9.12179L38.0863 9.12616L38.1073 9.13065L38.1282 9.13533L38.1491 9.14007L38.1699 9.14493L38.1906 9.14992L38.2113 9.15509L38.232 9.16032L38.2526 9.16574L38.2732 9.17121L38.2938 9.17682L38.3143 9.1826L38.3346 9.18845L38.355 9.19448L38.3753 9.20057L38.3956 9.20685L38.4158 9.21319L38.436 9.21966L38.4561 9.22624L38.4761 9.23301L38.4962 9.23985L38.5161 9.2468L38.536 9.25388L38.5558 9.26108L38.5756 9.26841L38.5953 9.27579L38.615 9.28336L38.6345 9.29106L38.6541 9.29881L38.6736 9.30669L38.693 9.31469L38.7124 9.32288L38.7317 9.33107L38.7509 9.33944L38.7701 9.34793L38.7892 9.35649L38.8083 9.36517L38.8273 9.37397L38.8462 9.3829L38.8651 9.39194L38.8839 9.40105L38.9027 9.41035L38.9214 9.41971L38.94 9.42918L38.9585 9.43872L38.977 9.44845L38.9954 9.45824L39.0138 9.46815L39.032 9.47812L39.0503 9.48828L39.0684 9.49849L39.0865 9.50883L39.1045 9.51924L39.1225 9.52982L39.1404 9.54047L39.1582 9.55118L39.1759 9.56208L39.1936 9.57303L39.2112 9.58411L39.2287 9.59526L39.2462 9.60652L39.2635 9.61791L39.2808 9.62936L39.2981 9.64093L39.3152 9.65262L39.3324 9.66438L39.3493 9.67626L39.3663 9.68826L39.3831 9.70033L39.3999 9.71245L39.4167 9.72476L39.4333 9.73714L39.4499 9.74957L39.4664 9.76213L39.4827 9.77481L39.499 9.78755L39.5153 9.80041L39.5315 9.81334L39.5475 9.82639L39.5636 9.8395L39.5795 9.85273L39.5954 9.86609L39.6111 9.87951L39.6268 9.89299L39.6424 9.90659L39.6579 9.92026L39.6734 9.93405L39.6887 9.94796L39.704 9.96193L39.7192 9.97596L39.7343 9.99012L39.7493 10.0043L39.7642 10.0186L39.7791 10.0331L39.7938 10.0476L39.8085 10.0621L39.8231 10.0768L39.8376 10.0916L39.852 10.1064L39.8663 10.1214L39.8806 10.1364L39.8947 10.1515L39.9087 10.1667L39.9227 10.1819L39.9366 10.1973L39.9504 10.2127L39.9641 10.2283L39.9777 10.2438L39.9912 10.2595L40.0046 10.2753L40.0179 10.2911L40.0311 10.3071L40.0443 10.3231L40.0703 10.3553L40.0831 10.3716L40.0959 10.3879L40.1085 10.4043L40.121 10.4208L40.1335 10.4374L40.1459 10.454L40.1582 10.4707L40.1703 10.4875L40.1824 10.5043L40.1944 10.5213L40.2062 10.5383L40.2181 10.5554L40.2297 10.5725L40.2413 10.5898L40.2528 10.6071L40.2642 10.6245L40.2754 10.642L40.2866 10.6595L40.2976 10.6771L40.3086 10.6947L40.3194 10.7125L40.3302 10.7303L40.3408 10.7482L40.3514 10.7661L40.3618 10.7841L40.3722 10.8022L40.3824 10.8204L40.3925 10.8386L40.4025 10.8569L40.4124 10.8753L40.4222 10.8937L40.4319 10.9121L40.4415 10.9307L40.451 10.9493L40.4603 10.968L40.4696 10.9867L40.4787 11.0056L40.4877 11.0244L40.4966 11.0434L40.5054 11.0624L40.5141 11.0814L40.5227 11.1005L40.5312 11.1198L40.5395 11.139L40.5478 11.1583L40.5559 11.1777L40.5639 11.1971L40.5719 11.2166L40.5796 11.2361L40.5872 11.2557L40.5948 11.2754L40.6023 11.2951L40.6096 11.3148L40.6168 11.3347L40.6239 11.3546L40.6308 11.3745L40.6377 11.3945L40.6444 11.4145L40.651 11.4347L40.6575 11.4548L40.6638 11.475L40.67 11.4953L40.6762 11.5156L40.6822 11.536L40.6881 11.5564L40.6938 11.5769L40.6995 11.5974L40.7049 11.618L40.7103 11.6386L40.7156 11.6593L40.7207 11.68L40.7257 11.7008L40.7306 11.7216L40.7353 11.7425L40.74 11.7634L40.7445 11.7843L40.7488 11.8054L40.7531 11.8264L40.7572 11.8476L40.7612 11.8687L40.7651 11.8899L40.7688 11.9111L40.7724 11.9324L40.7758 11.9537L40.7792 11.9751L40.7824 11.9965L40.7855 12.018L40.7884 12.0395L40.7912 12.061L40.7939 12.0826L40.7965 12.1042L40.7989 12.1259L40.8011 12.1476L40.8033 12.1694L40.8053 12.1911L40.8072 12.2129L40.8089 12.2348L40.8105 12.2567L40.812 12.2787L40.8133 12.3006L40.8144 12.3226L40.8155 12.3447L40.8164 12.3668L40.8172 12.3889L40.8178 12.411L40.8183 12.4332L40.8187 12.4554L40.8189 12.4777L40.8189 12.5V19.3965L40.8189 19.4188L40.8187 19.441L40.8183 19.4633L40.8178 19.4855L40.8172 19.5076L40.8164 19.5297L40.8155 19.5518L40.8144 19.5739L40.8133 19.5958L40.812 19.6178L40.8105 19.6398L40.8089 19.6616L40.8072 19.6835L40.8053 19.7054L40.8033 19.7271L40.8011 19.7489L40.7989 19.7706L40.7965 19.7923L40.7939 19.8139L40.7912 19.8355L40.7884 19.857L40.7855 19.8785L40.7824 19.8999L40.7792 19.9213L40.7758 19.9428L40.7724 19.9641L40.7688 19.9854L40.7651 20.0066L40.7612 20.0278L40.7572 20.0489L40.7531 20.0701L40.7488 20.0911L40.7445 20.1121L40.74 20.1331L40.7353 20.154L40.7306 20.1749L40.7257 20.1957L40.7207 20.2165L40.7156 20.2372L40.7103 20.2579L40.7049 20.2785L40.6995 20.2991L40.6938 20.3196L40.6881 20.3401L40.6822 20.3605L40.6762 20.3809L40.67 20.4012L40.6638 20.4215L40.6575 20.4417L40.651 20.4618L40.6444 20.4819L40.6377 20.502L40.6308 20.522L40.6239 20.5419L40.6168 20.5618L40.6096 20.5816L40.6023 20.6014L40.5948 20.6211L40.5872 20.6408L40.5796 20.6604L40.5719 20.6799L40.5639 20.6994L40.5559 20.7188L40.5478 20.7382L40.5395 20.7575L40.5312 20.7767L40.5227 20.796L40.5141 20.815L40.5054 20.8341L40.4966 20.8531L40.4877 20.872L40.4787 20.8909L40.4696 20.9098L40.4603 20.9285L40.451 20.9472L40.4415 20.9658L40.4319 20.9844L40.4222 21.0028L40.4124 21.0212L40.4025 21.0396L40.3925 21.0579L40.3824 21.0761L40.3722 21.0942L40.3618 21.1123L40.3514 21.1304L40.3408 21.1483L40.3302 21.1662L40.3194 21.184L40.3086 21.2018L40.2976 21.2194L40.2866 21.237L40.2754 21.2545L40.2642 21.272L40.2528 21.2894L40.2413 21.3067L40.2297 21.3239L40.2181 21.3411L40.2062 21.3582L40.1944 21.3752L40.1824 21.3921L40.1703 21.409L40.1582 21.4258L40.1459 21.4425L40.1335 21.4591L40.121 21.4757L40.1085 21.4922L40.0959 21.5086L40.0831 21.5249L40.0703 21.5411L40.0573 21.5573L40.0443 21.5734L40.0311 21.5894L40.0179 21.6053L40.0046 21.6212L39.9912 21.637L39.9777 21.6527L39.9641 21.6682L39.9504 21.6837L39.9366 21.6992L39.9227 21.7146L39.9087 21.7298L39.8947 21.745L39.8806 21.7601L39.8663 21.7751L39.852 21.79L39.8376 21.8049L39.8231 21.8197L39.8085 21.8344L39.7938 21.8489L39.7791 21.8634L39.7642 21.8778L39.7493 21.8922L39.7343 21.9064L39.7192 21.9205L39.704 21.9346L39.6887 21.9485L39.6734 21.9624L39.6579 21.9762L39.6424 21.9899L39.6268 22.0035L39.6111 22.017L39.5954 22.0304L39.5795 22.0438L39.5636 22.0569L39.5475 22.0701L39.5315 22.0832L39.5153 22.0961L39.499 22.109L39.4827 22.1217L39.4664 22.1344L39.4499 22.1469L39.4333 22.1594L39.4167 22.1717L39.3999 22.184L39.3831 22.1962L39.3663 22.2082L39.3493 22.2202L39.3324 22.2321L39.3152 22.2439L39.2981 22.2556L39.2808 22.2671L39.2635 22.2786L39.2462 22.29L39.2287 22.3012L39.2112 22.3124L39.1936 22.3235L39.1759 22.3344L39.1582 22.3453L39.1404 22.356L39.1225 22.3667L39.1045 22.3772L39.0865 22.3877L39.0684 22.398L39.0503 22.4082L39.032 22.4183L39.0138 22.4284L38.9954 22.4383L38.977 22.448L38.9585 22.4577L38.94 22.4673L38.9214 22.4768L38.9027 22.4862L38.8839 22.4954L38.8651 22.5046L38.8462 22.5135L38.8273 22.5225L38.8083 22.5313L38.7892 22.54L38.7701 22.5486L38.7509 22.5571L38.7317 22.5654L38.7124 22.5736L38.693 22.5817L38.6736 22.5897L38.6541 22.5977L38.6345 22.6054L38.615 22.6131L38.5953 22.6206L38.5756 22.6281L38.5558 22.6354L38.536 22.6426L38.5161 22.6497L38.4962 22.6567L38.4761 22.6635L38.4561 22.6702L38.436 22.6768L38.4158 22.6833L38.3956 22.6896L38.3753 22.6959L38.355 22.702L38.3346 22.708L38.3143 22.7139L38.2938 22.7196L38.2732 22.7253L38.2526 22.7308L38.232 22.7362L38.2113 22.7414L38.1906 22.7465L38.1699 22.7516L38.1491 22.7564L38.1282 22.7612L38.1073 22.7658L38.0863 22.7703L38.0653 22.7747L38.0442 22.779L38.0231 22.783L38.0019 22.787L37.9808 22.7909L37.9595 22.7946L37.9382 22.7982L37.9169 22.8017L37.8955 22.8051L37.8741 22.8083L37.8527 22.8113L37.8311 22.8142L37.8096 22.8171L37.788 22.8198L37.7664 22.8223L37.7448 22.8247L37.723 22.827L37.7013 22.8291L37.6795 22.8311L37.6577 22.833L37.6358 22.8347L37.6139 22.8363L37.592 22.8378L37.57 22.8391L37.548 22.8403L37.5259 22.8414L37.5039 22.8422L37.4818 22.843L37.4597 22.8437L37.4374 22.8441L37.4152 22.8445L37.393 22.8447L37.3707 22.8448H30.4741L30.4519 22.8447L30.4296 22.8445L30.4074 22.8441L30.3852 22.8437L30.363 22.843L30.3409 22.8422L30.3188 22.8414L30.2968 22.8403L30.2748 22.8391L30.2528 22.8378L30.2309 22.8363L30.209 22.8347L30.1871 22.833L30.1653 22.8311L30.1435 22.8291L30.1217 22.827L30.1001 22.8247L30.0784 22.8223L30.0568 22.8198L30.0352 22.8171L30.0137 22.8142L29.9922 22.8113L29.9707 22.8083L29.9493 22.8051L29.9279 22.8017L29.9066 22.7982L29.8853 22.7946L29.8641 22.7909L29.8428 22.787L29.8217 22.783L29.8006 22.779L29.7796 22.7747L29.7585 22.7703L29.7376 22.7658L29.7167 22.7612L29.6958 22.7564L29.6749 22.7516L29.6542 22.7465L29.6334 22.7414L29.6128 22.7362L29.5921 22.7308L29.5716 22.7253L29.551 22.7196L29.5306 22.7139L29.5101 22.708L29.4898 22.702L29.4695 22.6959L29.4492 22.6896L29.429 22.6833L29.4088 22.6768L29.3887 22.6702L29.3686 22.6635L29.3487 22.6567L29.3287 22.6497L29.3088 22.6426L29.289 22.6354L29.2692 22.6281L29.2495 22.6206L29.2298 22.6131L29.2103 22.6054L29.1907 22.5977L29.1712 22.5897L29.1518 22.5817L29.1325 22.5736L29.1131 22.5654L29.0939 22.5571L29.0747 22.5486L29.0556 22.54L29.0365 22.5313L29.0175 22.5225L28.9986 22.5135L28.9797 22.5046L28.9609 22.4954L28.9421 22.4862L28.9235 22.4768L28.9048 22.4673L28.8863 22.4577L28.8678 22.448L28.8494 22.4383L28.831 22.4284L28.8127 22.4183L28.7945 22.4082L28.7764 22.398L28.7583 22.3877L28.7403 22.3772L28.7223 22.3667L28.7045 22.356L28.6866 22.3453L28.6689 22.3344L28.6512 22.3235L28.6336 22.3124L28.6161 22.3012L28.5987 22.29L28.5812 22.2786L28.5639 22.2671L28.5467 22.2556L28.5295 22.2439L28.5125 22.2321L28.4954 22.2202L28.4785 22.2082L28.4616 22.1962L28.4448 22.184L28.4282 22.1717L28.4115 22.1594L28.395 22.1469L28.3785 22.1344L28.3621 22.1217L28.3457 22.109L28.3295 22.0961L28.3133 22.0832L28.2972 22.0701L28.2812 22.0569L28.2653 22.0438L28.2495 22.0304L28.2337 22.017L28.218 22.0035L28.2024 21.9899L28.1869 21.9762L28.1714 21.9624L28.1561 21.9485L28.1408 21.9346L28.1256 21.9205L28.1105 21.9064L28.0955 21.8922L28.0806 21.8778L28.0657 21.8634L28.051 21.8489L28.0363 21.8344L28.0217 21.8197L28.0072 21.8049L27.9928 21.79L27.9785 21.7751L27.9642 21.7601L27.936 21.7298L27.9221 21.7146L27.9082 21.6992L27.8944 21.6837L27.8808 21.6682L27.8672 21.6527L27.8536 21.637L27.8402 21.6212L27.8269 21.6053L27.8137 21.5894L27.8006 21.5734L27.7875 21.5573L27.7746 21.5411L27.7617 21.5249L27.749 21.5086L27.7363 21.4922L27.7237 21.4757L27.7112 21.4591L27.6989 21.4425L27.6866 21.4258L27.6744 21.409L27.6624 21.3921L27.6504 21.3752L27.6386 21.3582L27.6268 21.3411L27.6151 21.3239L27.6035 21.3067L27.5921 21.2894L27.5807 21.272L27.5694 21.2545L27.5582 21.237L27.5472 21.2194L27.5363 21.2018L27.5254 21.184L27.5146 21.1662L27.504 21.1483L27.4934 21.1304L27.483 21.1123L27.4727 21.0942L27.4625 21.0761L27.4523 21.0579L27.4423 21.0396L27.4324 21.0212L27.4226 21.0028L27.4129 20.9844L27.4034 20.9658L27.3939 20.9472L27.3845 20.9285L27.3752 20.9098L27.3661 20.8909L27.3571 20.872L27.3481 20.8531L27.3393 20.8341L27.3307 20.815L27.3221 20.796L27.3136 20.7767L27.3052 20.7575L27.297 20.7382L27.2889 20.7188L27.2809 20.6994L27.273 20.6799L27.2652 20.6604L27.2575 20.6408L27.25 20.6211L27.2426 20.6014L27.2353 20.5816L27.2281 20.5618L27.221 20.5419L27.214 20.522L27.2072 20.502L27.2004 20.4819L27.1938 20.4618L27.1874 20.4417L27.181 20.4215L27.1747 20.4012L27.1687 20.3809L27.1626 20.3605L27.1568 20.3401L27.151 20.3196L27.1454 20.2991L27.1398 20.2785L27.1345 20.2579L27.1293 20.2372L27.1241 20.2165L27.1191 20.1957L27.1142 20.1749L27.1094 20.154L27.1048 20.1331L27.1003 20.1121L27.096 20.0911L27.0917 20.0701L27.0876 20.0489L27.0836 20.0278L27.0798 20.0066L27.076 19.9854L27.0724 19.9641L27.0689 19.9428L27.0656 19.9213L27.0624 19.8999L27.0593 19.8785L27.0564 19.857L27.0536 19.8355L27.0509 19.8139L27.0484 19.7923L27.0459 19.7706L27.0436 19.7489L27.0415 19.7271L27.0395 19.7054L27.0377 19.6835L27.0359 19.6616L27.0343 19.6398L27.0329 19.6178L27.0315 19.5958L27.0303 19.5739L27.0293 19.5518L27.0284 19.5297L27.0276 19.5076L27.027 19.4855L27.0265 19.4633L27.0262 19.441L27.0259 19.4188L27.0259 19.3965V12.5L27.0259 12.4777L27.0262 12.4554L27.0265 12.4332L27.027 12.411L27.0276 12.3889L27.0284 12.3668L27.0293 12.3447L27.0303 12.3226L27.0315 12.3006L27.0329 12.2787L27.0343 12.2567L27.0359 12.2348L27.0377 12.2129L27.0395 12.1911L27.0415 12.1694L27.0436 12.1476L27.0459 12.1259L27.0484 12.1042L27.0509 12.0826L27.0536 12.061L27.0564 12.0395L27.0593 12.018L27.0624 11.9965L27.0656 11.9751L27.0689 11.9537L27.0724 11.9324L27.076 11.9111L27.0798 11.8899L27.0836 11.8687L27.0876 11.8476L27.0917 11.8264L27.096 11.8054L27.1003 11.7843L27.1048 11.7634L27.1094 11.7425L27.1142 11.7216L27.1191 11.7008L27.1241 11.68L27.1293 11.6593L27.1345 11.6386L27.1398 11.618L27.1454 11.5974L27.151 11.5769L27.1568 11.5564L27.1626 11.536L27.1687 11.5156L27.1747 11.4953L27.181 11.475L27.1874 11.4548L27.1938 11.4347L27.2004 11.4145L27.2072 11.3945L27.214 11.3745L27.221 11.3546L27.2281 11.3347L27.2353 11.3148L27.2426 11.2951L27.25 11.2754L27.2575 11.2557L27.2652 11.2361L27.273 11.2166L27.2809 11.1971L27.2889 11.1777L27.297 11.1583L27.3052 11.139L27.3136 11.1198L27.3221 11.1005L27.3307 11.0814L27.3393 11.0624L27.3481 11.0434L27.3571 11.0244L27.3661 11.0056L27.3752 10.9867L27.3845 10.968L27.3939 10.9493L27.4034 10.9307L27.4129 10.9121L27.4226 10.8937L27.4324 10.8753L27.4423 10.8569L27.4523 10.8386L27.4625 10.8204L27.4727 10.8022L27.483 10.7841L27.4934 10.7661L27.504 10.7482L27.5146 10.7303L27.5254 10.7125L27.5363 10.6947L27.5472 10.6771L27.5582 10.6595L27.5694 10.642L27.5807 10.6245L27.5921 10.6071L27.6035 10.5898L27.6151 10.5725L27.6268 10.5554L27.6386 10.5383L27.6504 10.5213L27.6624 10.5043L27.6744 10.4875L27.6866 10.4707L27.6989 10.454L27.7112 10.4374L27.7237 10.4208L27.7363 10.4043L27.749 10.3879L27.7617 10.3716L27.7746 10.3553L27.7875 10.3392L27.8006 10.3231L27.8137 10.3071L27.8269 10.2911L27.8402 10.2753L27.8536 10.2595L27.8672 10.2438L27.8808 10.2283L27.8944 10.2127L27.9082 10.1973L27.9221 10.1819L27.936 10.1667L27.9501 10.1515L27.9642 10.1364L27.9785 10.1214L27.9928 10.1064L28.0072 10.0916L28.0217 10.0768L28.0363 10.0621L28.051 10.0476L28.0657 10.0331L28.0806 10.0186L28.0955 10.0043L28.1105 9.99012L28.1256 9.97596L28.1408 9.96193L28.1561 9.94796L28.1714 9.93405L28.1869 9.92026L28.2024 9.90659L28.218 9.89299L28.2337 9.87951L28.2495 9.86609L28.2653 9.85273L28.2812 9.8395L28.2972 9.82639L28.3133 9.81334L28.3295 9.80041L28.3457 9.78755L28.3621 9.77481L28.3785 9.76213L28.395 9.74957L28.4115 9.73714L28.4282 9.72476L28.4448 9.71245L28.4616 9.70033L28.4785 9.68826L28.4954 9.67626L28.5125 9.66438L28.5295 9.65262L28.5467 9.64093L28.5639 9.62936L28.5812 9.61791L28.5987 9.60652L28.6161 9.59526L28.6336 9.58411L28.6512 9.57303L28.6689 9.56208L28.6866 9.55118L28.7045 9.54047L28.7223 9.52982L28.7403 9.51924L28.7583 9.50883L28.7764 9.49849L28.7945 9.48828L28.8127 9.47812L28.831 9.46815L28.8494 9.45824L28.8678 9.44845L28.8863 9.43872L28.9048 9.42918L28.9235 9.41971L28.9421 9.41035L28.9609 9.40105L28.9797 9.39194L28.9986 9.3829L29.0175 9.37397L29.0365 9.36517L29.0556 9.35649L29.0747 9.34793L29.0939 9.33944L29.1131 9.33107L29.1518 9.31469L29.1712 9.30669L29.1907 9.29881L29.2103 9.29106L29.2298 9.28336L29.2495 9.27579L29.2692 9.26841L29.289 9.26108L29.3088 9.25388L29.3287 9.2468L29.3487 9.23985L29.3686 9.23301L29.3887 9.22624L29.4088 9.21966L29.429 9.21319L29.4492 9.20685L29.4695 9.20057L29.4898 9.19448L29.5101 9.18845L29.5306 9.1826L29.551 9.17682L29.5716 9.17121L29.5921 9.16574L29.6128 9.16032L29.6334 9.15509L29.6542 9.14992L29.6749 9.14493L29.6958 9.14007L29.7167 9.13533L29.7376 9.13065L29.7585 9.12616L29.7796 9.12179L29.8006 9.11754L29.8217 9.11342L29.8428 9.10948L29.8641 9.1056L29.8853 9.10184L29.9066 9.09827L29.9279 9.09476L29.9493 9.09144L29.9707 9.08824L29.9922 9.08516L30.0137 9.08221L30.0352 9.07944L30.0568 9.07673L30.0784 9.07421L30.1001 9.0718L30.1217 9.06953L30.1435 9.06737L30.1653 9.06534L30.1871 9.0635L30.209 9.06177L30.2309 9.06017L30.2528 9.05869L30.2748 9.05734L30.2968 9.05617L30.3188 9.05512L30.3409 9.0542L30.363 9.05346L30.3852 9.05285L30.4074 9.05235L30.4296 9.05198L30.4519 9.05174L30.4741 9.05168H37.3707L37.393 9.05174ZM37.3849 10.3341H30.46L30.4458 10.3343L30.4318 10.3345L30.4177 10.3348L30.4037 10.3352L30.3897 10.3357L30.3757 10.3362L30.3618 10.3369L30.3479 10.3377L30.334 10.3385L30.3202 10.3394L30.3064 10.3404L30.2926 10.3415L30.2789 10.3427L30.2652 10.3439L30.2515 10.3453L30.2378 10.3467L30.2242 10.3482L30.2107 10.3498L30.1971 10.3515L30.1836 10.3533L30.1701 10.3551L30.1566 10.357L30.1432 10.3591L30.1298 10.3612L30.1164 10.3633L30.1031 10.3656L30.0898 10.3679L30.0765 10.3703L30.0633 10.3729L30.05 10.3754L30.0369 10.3781L30.0238 10.3808L30.0106 10.3836L29.9975 10.3865L29.9845 10.3895L29.9715 10.3926L29.9585 10.3957L29.9455 10.3989L29.9326 10.4022L29.9197 10.4055L29.9069 10.409L29.8941 10.4125L29.8812 10.4161L29.8685 10.4198L29.8557 10.4235L29.843 10.4273L29.8303 10.4312L29.8177 10.4352L29.8051 10.4393L29.7926 10.4434L29.7801 10.4476L29.7551 10.4562L29.7426 10.4606L29.7303 10.4651L29.7178 10.4697L29.7055 10.4744L29.6933 10.4791L29.681 10.4839L29.6688 10.4888L29.6566 10.4937L29.6444 10.4987L29.6323 10.5038L29.6202 10.509L29.6081 10.5142L29.5961 10.5195L29.5842 10.5248L29.5723 10.5303L29.5603 10.5359L29.5484 10.5414L29.5367 10.5471L29.5249 10.5528L29.5131 10.5586L29.5014 10.5645L29.4898 10.5704L29.4781 10.5764L29.4549 10.5886L29.4434 10.5948L29.4319 10.6011L29.4205 10.6074L29.4091 10.6138L29.3978 10.6204L29.3864 10.627L29.3752 10.6335L29.364 10.6402L29.3528 10.647L29.3416 10.6539L29.3305 10.6607L29.3195 10.6676L29.2974 10.6818L29.2865 10.6889L29.2756 10.6961L29.2648 10.7034L29.254 10.7107L29.2433 10.7182L29.2325 10.7257L29.2218 10.7332L29.2112 10.7408L29.2007 10.7485L29.1901 10.7562L29.1797 10.764L29.1692 10.7718L29.1589 10.7797L29.1485 10.7877L29.1382 10.7957L29.128 10.8039L29.1177 10.812L29.1077 10.8202L29.0976 10.8285L29.0875 10.8369L29.0776 10.8452L29.0676 10.8537L29.0577 10.8622L29.0478 10.8708L29.038 10.8794L29.0283 10.8881L29.0186 10.8969L29.009 10.9057L28.9994 10.9145L28.9899 10.9235L28.9805 10.9324L28.971 10.9415L28.9616 10.9506L28.9524 10.9597L28.9431 10.9689L28.9339 10.9782L28.9247 10.9875L28.9157 10.9968L28.9066 11.0062L28.8976 11.0157L28.8887 11.0253L28.8798 11.0348L28.871 11.0445L28.8622 11.0542L28.8536 11.0639L28.8449 11.0737L28.8364 11.0836L28.8279 11.0934L28.8194 11.1034L28.811 11.1133L28.8027 11.1234L28.7943 11.1335L28.7862 11.1436L28.778 11.1539L28.7699 11.1641L28.7619 11.1743L28.7539 11.1847L28.746 11.1951L28.7381 11.2055L28.7303 11.216L28.7226 11.2265L28.7149 11.2371L28.7074 11.2477L28.6998 11.2583L28.6923 11.2691L28.6849 11.2798L28.6776 11.2906L28.6703 11.3015L28.663 11.3124L28.6559 11.3233L28.6488 11.3343L28.6419 11.3452L28.6349 11.3563L28.628 11.3674L28.6212 11.3786L28.6144 11.3898L28.6077 11.401L28.6011 11.4123L28.5945 11.4236L28.5881 11.435L28.5816 11.4464L28.5753 11.4577L28.569 11.4693L28.5628 11.4808L28.5566 11.4923L28.5506 11.5039L28.5446 11.5155L28.5386 11.5272L28.5327 11.5389L28.527 11.5507L28.5212 11.5626L28.5156 11.5743L28.51 11.5861L28.499 11.61L28.4937 11.622L28.4884 11.634L28.4831 11.6461L28.478 11.6581L28.4729 11.6702L28.4679 11.6824L28.4629 11.6946L28.458 11.7068L28.4532 11.7191L28.4485 11.7313L28.4439 11.7437L28.4393 11.7561L28.4348 11.7685L28.4304 11.781L28.4261 11.7933L28.4218 11.8059L28.4175 11.8185L28.4094 11.8435L28.4054 11.8562L28.4015 11.8689L28.3977 11.8815L28.3939 11.8943L28.3902 11.9071L28.3867 11.9198L28.3832 11.9326L28.3797 11.9456L28.3763 11.9585L28.3731 11.9713L28.3699 11.9843L28.3667 11.9973L28.3637 12.0104L28.3607 12.0234L28.3578 12.0365L28.355 12.0496L28.3523 12.0627L28.3496 12.076L28.347 12.0892L28.3445 12.1024L28.3421 12.1156L28.3398 12.1289L28.3375 12.1423L28.3353 12.1556L28.3332 12.1691L28.3312 12.1825L28.3293 12.1959L28.3275 12.2094L28.3257 12.2229L28.324 12.2365L28.3224 12.2501L28.3209 12.2637L28.3195 12.2773L28.3181 12.2911L28.3156 12.3185L28.3146 12.3322L28.3135 12.346L28.3126 12.3599L28.3118 12.3737L28.3111 12.3876L28.3104 12.4015L28.3099 12.4156L28.3094 12.4296L28.3089 12.4435L28.3086 12.4576L28.3084 12.4717L28.3083 12.4858L28.3082 12.502V19.3945L28.3083 19.4106L28.3084 19.4247L28.3086 19.4389L28.3089 19.453L28.3094 19.4669L28.3099 19.4809L28.3104 19.495L28.3111 19.5089L28.3118 19.5228L28.3126 19.5366L28.3135 19.5504L28.3146 19.5643L28.3156 19.578L28.3181 19.6054L28.3195 19.6191L28.3209 19.6328L28.3224 19.6464L28.324 19.66L28.3257 19.6736L28.3275 19.6871L28.3293 19.7005L28.3312 19.714L28.3332 19.7274L28.3353 19.7409L28.3375 19.7542L28.3398 19.7676L28.3421 19.7808L28.3445 19.7941L28.347 19.8073L28.3496 19.8205L28.3523 19.8338L28.355 19.8469L28.3578 19.86L28.3607 19.8731L28.3637 19.8861L28.3667 19.8992L28.3699 19.9122L28.3731 19.9251L28.3763 19.938L28.3797 19.9509L28.3832 19.9639L28.3867 19.9767L28.3902 19.9894L28.3939 20.0022L28.3977 20.015L28.4015 20.0276L28.4054 20.0403L28.4094 20.0529L28.4134 20.0655L28.4175 20.078L28.4218 20.0906L28.4261 20.1032L28.4304 20.1155L28.4348 20.128L28.4393 20.1404L28.4439 20.1528L28.4485 20.1652L28.4532 20.1773L28.458 20.1897L28.4629 20.2019L28.4679 20.214L28.4729 20.2263L28.478 20.2384L28.4831 20.2504L28.4884 20.2625L28.4937 20.2745L28.499 20.2864L28.5045 20.2984L28.51 20.3103L28.5156 20.3222L28.5212 20.3339L28.527 20.3458L28.5327 20.3576L28.5446 20.381L28.5506 20.3926L28.5566 20.4041L28.5627 20.4156L28.569 20.4272L28.5753 20.4388L28.5816 20.4501L28.5881 20.4615L28.5945 20.4729L28.6011 20.4842L28.6077 20.4955L28.6144 20.5067L28.6212 20.5179L28.628 20.529L28.6349 20.5402L28.6419 20.5513L28.6488 20.5622L28.6559 20.5732L28.663 20.5841L28.6703 20.595L28.6776 20.6059L28.6849 20.6166L28.6923 20.6274L28.6999 20.6382L28.7074 20.6488L28.7149 20.6594L28.7226 20.67L28.7303 20.6805L28.7381 20.6909L28.746 20.7014L28.7539 20.7118L28.7619 20.7222L28.7699 20.7324L28.778 20.7426L28.7862 20.7529L28.7943 20.763L28.8027 20.7731L28.811 20.7832L28.8194 20.7931L28.8279 20.8031L28.8364 20.8129L28.8449 20.8228L28.8536 20.8326L28.8622 20.8423L28.871 20.852L28.8798 20.8616L28.8887 20.8712L28.8976 20.8808L28.9066 20.8902L28.9247 20.909L28.9339 20.9183L28.9431 20.9276L28.9524 20.9368L28.9616 20.9459L28.971 20.955L28.9804 20.9641L28.9899 20.973L28.9994 20.982L29.009 20.9908L29.0186 20.9996L29.0283 21.0084L29.038 21.0171L29.0478 21.0257L29.0577 21.0343L29.0676 21.0428L29.0776 21.0512L29.0875 21.0596L29.0976 21.068L29.1077 21.0763L29.1177 21.0845L29.128 21.0926L29.1382 21.1008L29.1485 21.1088L29.1588 21.1167L29.1693 21.1246L29.1797 21.1325L29.1901 21.1403L29.2006 21.148L29.2112 21.1557L29.2218 21.1633L29.2325 21.1708L29.2433 21.1783L29.254 21.1857L29.2647 21.193L29.2756 21.2004L29.2866 21.2076L29.2975 21.2147L29.3084 21.2218L29.3194 21.2288L29.3305 21.2358L29.3416 21.2426L29.3527 21.2495L29.364 21.2563L29.3752 21.2629L29.3864 21.2695L29.3978 21.2761L29.4091 21.2826L29.4205 21.289L29.4319 21.2953L29.4434 21.3017L29.455 21.3079L29.4665 21.314L29.4781 21.3201L29.4897 21.3261L29.5014 21.332L29.513 21.3379L29.5248 21.3437L29.5367 21.3494L29.5484 21.355L29.5603 21.3606L29.5723 21.3662L29.5842 21.3717L29.5962 21.377L29.6081 21.3823L29.6203 21.3875L29.6323 21.3927L29.6443 21.3978L29.6566 21.4028L29.6688 21.4077L29.681 21.4126L29.6933 21.4174L29.7055 21.4221L29.7178 21.4268L29.7303 21.4314L29.7426 21.4358L29.7551 21.4403L29.7675 21.4446L29.7801 21.4489L29.7926 21.4531L29.8051 21.4572L29.8177 21.4613L29.8304 21.4652L29.843 21.4692L29.8557 21.473L29.8685 21.4767L29.894 21.484L29.9068 21.4875L29.9197 21.491L29.9327 21.4943L29.9455 21.4976L29.9585 21.5008L29.9715 21.5039L29.9845 21.507L29.9975 21.51L30.0106 21.5129L30.0238 21.5157L30.0369 21.5184L30.0502 21.5211L30.0633 21.5236L30.0765 21.5262L30.0898 21.5286L30.103 21.5309L30.1164 21.5331L30.1298 21.5353L30.1432 21.5374L30.1701 21.5414L30.1836 21.5432L30.1971 21.5449L30.2106 21.5467L30.2242 21.5483L30.2379 21.5497L30.2515 21.5512L30.279 21.5538L30.2927 21.555L30.3063 21.5561L30.3202 21.5571L30.334 21.558L30.3479 21.5588L30.3618 21.5596L30.3757 21.5603L30.3897 21.5608L30.4038 21.5613L30.4177 21.5617L30.4317 21.562L30.4459 21.5622L30.46 21.5624L30.4762 21.5624H37.3687L37.3848 21.5624L37.3989 21.5622L37.4131 21.562L37.4272 21.5617L37.4411 21.5613L37.4551 21.5608L37.4691 21.5603L37.483 21.5596L37.497 21.5588L37.5108 21.558L37.5246 21.5571L37.5384 21.5561L37.5522 21.555L37.5658 21.5538L37.5796 21.5525L37.5933 21.5512L37.607 21.5497L37.6206 21.5483L37.6342 21.5467L37.6478 21.5449L37.6612 21.5432L37.6747 21.5414L37.6882 21.5394L37.7016 21.5374L37.715 21.5353L37.7284 21.5331L37.7418 21.5309L37.755 21.5286L37.7683 21.5262L37.7815 21.5236L37.7947 21.5211L37.8079 21.5184L37.821 21.5156L37.8342 21.5129L37.8473 21.51L37.8602 21.507L37.8733 21.5039L37.8863 21.5008L37.8993 21.4976L37.9122 21.4943L37.9251 21.491L37.938 21.4875L37.9508 21.484L37.9636 21.4804L37.9763 21.4767L37.9891 21.473L38.0018 21.4692L38.0271 21.4613L38.0397 21.4572L38.0522 21.4531L38.0648 21.4489L38.0773 21.4446L38.0897 21.4403L38.1022 21.4358L38.1146 21.4314L38.127 21.4268L38.1393 21.4221L38.1515 21.4174L38.1638 21.4126L38.176 21.4077L38.1882 21.4028L38.2005 21.3978L38.2126 21.3927L38.2246 21.3875L38.2366 21.3823L38.2486 21.377L38.2606 21.3717L38.2726 21.3662L38.2963 21.3551L38.3081 21.3494L38.32 21.3437L38.3317 21.3379L38.3434 21.332L38.3551 21.3261L38.3667 21.3201L38.3783 21.314L38.3898 21.3079L38.4014 21.3017L38.4129 21.2953L38.4243 21.289L38.4357 21.2826L38.447 21.2761L38.4584 21.2695L38.4696 21.2629L38.4808 21.2563L38.492 21.2495L38.5032 21.2426L38.5143 21.2358L38.5254 21.2288L38.5364 21.2218L38.5474 21.2147L38.5583 21.2076L38.5692 21.2004L38.5801 21.193L38.5908 21.1857L38.6015 21.1783L38.6123 21.1708L38.623 21.1633L38.6335 21.1557L38.6442 21.148L38.6547 21.1403L38.6651 21.1325L38.6756 21.1246L38.686 21.1167L38.6963 21.1088L38.7066 21.1008L38.7168 21.0926L38.727 21.0845L38.7371 21.0763L38.7472 21.068L38.7573 21.0596L38.7673 21.0512L38.7772 21.0428L38.7871 21.0343L38.797 21.0257L38.8068 21.0171L38.8165 21.0084L38.8262 20.9996L38.8358 20.9908L38.8453 20.982L38.8644 20.964L38.8738 20.955L38.8831 20.946L38.8924 20.9368L38.9017 20.9276L38.911 20.9183L38.9201 20.909L38.9292 20.8996L38.9472 20.8808L38.9561 20.8712L38.965 20.8616L38.9737 20.852L38.9912 20.8326L38.9998 20.8228L39.0085 20.8129L39.017 20.8031L39.0338 20.7832L39.0422 20.7731L39.0504 20.763L39.0586 20.7529L39.0668 20.7426L39.0749 20.7324L39.0829 20.7221L39.0909 20.7118L39.0988 20.7015L39.1067 20.6909L39.1145 20.6805L39.1222 20.67L39.1299 20.6594L39.1375 20.6487L39.145 20.6382L39.1599 20.6166L39.1672 20.6059L39.1745 20.595L39.1817 20.5841L39.1889 20.5732L39.196 20.5622L39.203 20.5512L39.2099 20.5402L39.2168 20.5291L39.2237 20.5179L39.2304 20.5067L39.2371 20.4954L39.2437 20.4842L39.2502 20.4729L39.2568 20.4615L39.2632 20.4501L39.2695 20.4387L39.2758 20.4272L39.282 20.4157L39.2882 20.4041L39.2943 20.3926L39.3002 20.381L39.3062 20.3693L39.3121 20.3575L39.3178 20.3458L39.3236 20.3341L39.3292 20.3222L39.3348 20.3103L39.3404 20.2984L39.3458 20.2864L39.3512 20.2745L39.3565 20.2625L39.3617 20.2504L39.3668 20.2384L39.3719 20.2262L39.377 20.214L39.3818 20.202L39.3868 20.1897L39.3916 20.1773L39.3962 20.1651L39.4009 20.1528L39.4055 20.1404L39.41 20.128L39.4144 20.1156L39.4188 20.103L39.4231 20.0906L39.4273 20.0781L39.4314 20.0655L39.4354 20.0529L39.4394 20.0403L39.4433 20.0276L39.4472 20.015L39.4509 20.0022L39.4545 19.9894L39.4581 19.9767L39.4617 19.9638L39.4651 19.9509L39.4685 19.9381L39.4718 19.9251L39.475 19.9122L39.4781 19.8992L39.4811 19.8861L39.4841 19.8731L39.487 19.86L39.4898 19.8469L39.4926 19.8337L39.4952 19.8206L39.4978 19.8074L39.5027 19.7808L39.505 19.7676L39.5073 19.7542L39.5095 19.7409L39.5116 19.7274L39.5136 19.714L39.5155 19.7005L39.5174 19.6871L39.5191 19.6736L39.5208 19.6599L39.5224 19.6464L39.5239 19.6328L39.5253 19.6191L39.5267 19.6054L39.528 19.5917L39.5291 19.578L39.5303 19.5643L39.5312 19.5504L39.5322 19.5366L39.533 19.5228L39.5338 19.5089L39.5344 19.4948L39.535 19.481L39.5355 19.467L39.5359 19.4529L39.5362 19.4389L39.5364 19.4248L39.5365 19.4106L39.5366 19.3945V12.502L39.5365 12.4858L39.5364 12.4716L39.5362 12.4576L39.5359 12.4436L39.5355 12.4295L39.535 12.4155L39.5344 12.4016L39.5338 12.3876L39.533 12.3737L39.5322 12.3599L39.5312 12.346L39.5303 12.3322L39.5291 12.3185L39.528 12.3048L39.5267 12.2911L39.5253 12.2773L39.5239 12.2637L39.5224 12.2501L39.5208 12.2365L39.5191 12.2229L39.5174 12.2094L39.5155 12.1959L39.5136 12.1825L39.5116 12.1691L39.5095 12.1556L39.5073 12.1423L39.505 12.1289L39.5027 12.1156L39.5003 12.1024L39.4978 12.0891L39.4952 12.0759L39.4926 12.0628L39.4898 12.0496L39.487 12.0365L39.4841 12.0234L39.4781 11.9973L39.475 11.9843L39.4718 11.9713L39.4685 11.9584L39.4651 11.9456L39.4617 11.9327L39.4581 11.9198L39.4545 11.9071L39.4509 11.8943L39.4472 11.8815L39.4433 11.8689L39.4394 11.8562L39.4354 11.8435L39.4314 11.831L39.4273 11.8184L39.4231 11.8059L39.4188 11.7934L39.4144 11.7808L39.41 11.7685L39.4055 11.7561L39.4009 11.7437L39.3962 11.7313L39.3916 11.7191L39.3868 11.7068L39.3818 11.6945L39.377 11.6824L39.3719 11.6703L39.3668 11.6581L39.3617 11.6461L39.3565 11.634L39.3512 11.622L39.3458 11.61L39.3404 11.5981L39.3348 11.5861L39.3292 11.5743L39.3236 11.5624L39.3178 11.5507L39.312 11.539L39.3062 11.5272L39.3002 11.5155L39.2943 11.5039L39.2882 11.4923L39.282 11.4808L39.2758 11.4693L39.2696 11.4578L39.2632 11.4464L39.2568 11.435L39.2502 11.4236L39.2437 11.4123L39.2371 11.401L39.2304 11.3898L39.2237 11.3786L39.2168 11.3674L39.2099 11.3563L39.203 11.3453L39.196 11.3343L39.1889 11.3233L39.1817 11.3124L39.1745 11.3015L39.1672 11.2906L39.1599 11.2798L39.1524 11.269L39.145 11.2583L39.1375 11.2477L39.1299 11.2371L39.1222 11.2265L39.1145 11.216L39.1067 11.2055L39.0988 11.195L39.0829 11.1743L39.0749 11.1641L39.0668 11.1539L39.0586 11.1436L39.0504 11.1335L39.0422 11.1234L39.0338 11.1133L39.017 11.0934L39.0085 11.0836L38.9998 11.0737L38.9912 11.0639L38.9825 11.0541L38.9737 11.0445L38.965 11.0349L38.9561 11.0253L38.9472 11.0157L38.9382 11.0062L38.9292 10.9968L38.9201 10.9875L38.911 10.9782L38.8925 10.9597L38.8831 10.9505L38.8738 10.9415L38.8644 10.9324L38.8549 10.9235L38.8454 10.9145L38.8358 10.9057L38.8262 10.8969L38.8165 10.8881L38.8068 10.8794L38.797 10.8708L38.7871 10.8622L38.7772 10.8537L38.7673 10.8452L38.7573 10.8369L38.7472 10.8285L38.7371 10.8202L38.727 10.812L38.7168 10.8039L38.7066 10.7957L38.6963 10.7877L38.6859 10.7797L38.6756 10.7718L38.6652 10.764L38.6547 10.7562L38.6336 10.7408L38.623 10.7332L38.6123 10.7257L38.6016 10.7182L38.5908 10.7107L38.5801 10.7034L38.5692 10.6961L38.5583 10.6889L38.5474 10.6818L38.5364 10.6747L38.5254 10.6676L38.5032 10.6539L38.492 10.647L38.4696 10.6335L38.4471 10.6204L38.4357 10.6139L38.4243 10.6074L38.4129 10.6011L38.4014 10.5948L38.3899 10.5886L38.3783 10.5825L38.3667 10.5764L38.3551 10.5704L38.3434 10.5645L38.3317 10.5586L38.3199 10.5528L38.3082 10.5471L38.2963 10.5414L38.2726 10.5303L38.2607 10.5248L38.2487 10.5195L38.2366 10.5142L38.2246 10.509L38.2125 10.5038L38.1883 10.4937L38.176 10.4888L38.1638 10.4839L38.1516 10.4791L38.1393 10.4744L38.127 10.4697L38.1146 10.4651L38.1022 10.4606L38.0898 10.4562L38.0648 10.4476L38.0522 10.4434L38.0397 10.4393L38.0271 10.4352L38.0144 10.4312L38.0018 10.4273L37.9891 10.4235L37.9763 10.4198L37.9636 10.4161L37.9508 10.4125L37.9379 10.409L37.9251 10.4055L37.9122 10.4022L37.8993 10.3989L37.8863 10.3957L37.8733 10.3926L37.8603 10.3895L37.8473 10.3865L37.8341 10.3836L37.821 10.3808L37.8079 10.3781L37.7948 10.3754L37.7815 10.3729L37.7683 10.3703L37.755 10.3679L37.7417 10.3656L37.7284 10.3633L37.715 10.3612L37.7016 10.3591L37.6882 10.357L37.6747 10.3551L37.6612 10.3533L37.6477 10.3515L37.6342 10.3498L37.6206 10.3482L37.607 10.3467L37.5934 10.3453L37.5796 10.3439L37.5659 10.3427L37.5522 10.3415L37.5384 10.3404L37.5246 10.3394L37.5108 10.3385L37.4969 10.3377L37.483 10.3369L37.4691 10.3362L37.4551 10.3357L37.4411 10.3352L37.4271 10.3348L37.4131 10.3345L37.3849 10.3341Z" fill="white"/>
<path fill-rule="evenodd" clip-rule="evenodd" d="M40.8189 30.6034C40.8189 28.7003 39.2738 27.1552 37.3707 27.1552H30.4741C28.571 27.1552 27.0259 28.7003 27.0259 30.6034V37.5C27.0259 39.4031 28.571 40.9482 30.4741 40.9482H37.3707C39.2738 40.9482 40.8189 39.4031 40.8189 37.5V30.6034Z" fill="white"/>
<path fill-rule="evenodd" clip-rule="evenodd" d="M19.5481 27.1552L19.5703 27.1554L19.5926 27.1558L19.6148 27.1563L19.6369 27.1569L19.659 27.1577L19.6811 27.1586L19.7032 27.1597L19.7252 27.1608L19.7471 27.1621L19.7691 27.1636L19.791 27.1652L19.8128 27.1669L19.8347 27.1688L19.8564 27.1708L19.8782 27.173L19.8999 27.1752L19.9216 27.1776L19.9432 27.1802L19.9648 27.1829L19.9863 27.1857L20.0078 27.1886L20.0292 27.1917L20.0506 27.1949L20.0721 27.1983L20.0934 27.2017L20.1147 27.2053L20.1359 27.209L20.1571 27.2129L20.1782 27.2169L20.1994 27.221L20.2204 27.2253L20.2414 27.2296L20.2624 27.2341L20.2833 27.2388L20.3042 27.2435L20.325 27.2484L20.3458 27.2534L20.3665 27.2585L20.3872 27.2638L20.4078 27.2692L20.4284 27.2746L20.4489 27.2803L20.4694 27.286L20.4898 27.2919L20.5102 27.2979L20.5305 27.3041L20.5508 27.3103L20.571 27.3166L20.5911 27.3231L20.6112 27.3297L20.6313 27.3364L20.6513 27.3433L20.6712 27.3502L20.6911 27.3573L20.7109 27.3645L20.7308 27.3718L20.7504 27.3793L20.7701 27.3868L20.7897 27.3945L20.8092 27.4022L20.8287 27.4102L20.8481 27.4182L20.8675 27.4263L20.8868 27.4346L20.9061 27.4429L20.9253 27.4514L20.9443 27.4599L20.9634 27.4687L20.9824 27.4775L21.0013 27.4864L21.0202 27.4954L21.0391 27.5045L21.0578 27.5138L21.0765 27.5231L21.0951 27.5326L21.1137 27.5422L21.1321 27.5519L21.1505 27.5617L21.1689 27.5716L21.1872 27.5816L21.2055 27.5917L21.2235 27.6019L21.2416 27.6123L21.2597 27.6227L21.2777 27.6333L21.2955 27.6439L21.3133 27.6547L21.3311 27.6655L21.3487 27.6765L21.3663 27.6875L21.3838 27.6987L21.4013 27.7099L21.4187 27.7213L21.436 27.7328L21.4532 27.7444L21.4704 27.7561L21.4875 27.7678L21.5045 27.7797L21.5214 27.7917L21.5383 27.8038L21.5551 27.8159L21.5718 27.8282L21.5884 27.8406L21.605 27.8531L21.6215 27.8656L21.6379 27.8782L21.6542 27.891L21.6704 27.9038L21.6866 27.9168L21.7027 27.9298L21.7187 27.943L21.7346 27.9562L21.7505 27.9695L21.7663 27.9829L21.782 27.9964L21.7975 28.01L21.813 28.0237L21.8285 28.0375L21.8439 28.0514L21.8592 28.0654L21.8743 28.0794L21.8894 28.0935L21.9045 28.1078L21.9193 28.1221L21.9342 28.1365L21.949 28.151L21.9637 28.1656L21.9783 28.1803L21.9927 28.195L22.0071 28.2099L22.0215 28.2248L22.0357 28.2398L22.0498 28.2549L22.0639 28.2701L22.0779 28.2853L22.0917 28.3007L22.1055 28.3162L22.1192 28.3317L22.1328 28.3473L22.1463 28.363L22.1597 28.3787L22.1731 28.3946L22.1862 28.4105L22.1994 28.4266L22.2125 28.4426L22.2254 28.4588L22.2383 28.4751L22.251 28.4914L22.2637 28.5077L22.2762 28.5242L22.2887 28.5408L22.301 28.5574L22.3133 28.5742L22.3255 28.591L22.3375 28.6078L22.3495 28.6248L22.3614 28.6417L22.3732 28.6589L22.3849 28.676L22.3965 28.6933L22.4079 28.7106L22.4193 28.7279L22.4306 28.7454L22.4417 28.7629L22.4528 28.7805L22.4637 28.7982L22.4746 28.8159L22.4853 28.8337L22.496 28.8516L22.5065 28.8696L22.517 28.8876L22.5273 28.9057L22.5375 28.9238L22.5476 28.9421L22.5577 28.9603L22.5676 28.9787L22.5774 28.9971L22.587 29.0156L22.5966 29.0341L22.6061 29.0527L22.6155 29.0714L22.6247 29.0902L22.6339 29.109L22.6428 29.1279L22.6518 29.1468L22.6606 29.1658L22.6693 29.1849L22.6779 29.204L22.6864 29.2232L22.6947 29.2424L22.7029 29.2617L22.7111 29.2811L22.7191 29.3005L22.727 29.32L22.7347 29.3396L22.7424 29.3591L22.75 29.3788L22.7574 29.3985L22.7647 29.4183L22.7719 29.4381L22.779 29.458L22.786 29.4779L22.7928 29.498L22.7995 29.518L22.8061 29.5381L22.8126 29.5583L22.819 29.5785L22.8252 29.5987L22.8313 29.6191L22.8373 29.6395L22.8432 29.6598L22.8489 29.6803L22.8546 29.7008L22.8601 29.7215L22.8655 29.7421L22.8707 29.7628L22.8758 29.7834L22.8809 29.8042L22.8857 29.825L22.8905 29.8459L22.8951 29.8668L22.8996 29.8878L22.904 29.9088L22.9083 29.9299L22.9123 29.951L22.9163 29.9722L22.9202 29.9933L22.924 30.0146L22.9275 30.0359L22.931 30.0572L22.9344 30.0786L22.9376 30.1L22.9406 30.1214L22.9435 30.143L22.9464 30.1645L22.9491 30.1861L22.9516 30.2077L22.954 30.2293L22.9563 30.2511L22.9584 30.2728L22.9604 30.2946L22.9623 30.3164L22.964 30.3383L22.9656 30.3602L22.9671 30.3821L22.9684 30.4041L22.9696 30.4261L22.9707 30.4482L22.9715 30.4702L22.9723 30.4923L22.973 30.5144L22.9735 30.5367L22.9738 30.5589L22.974 30.5811L22.9741 30.6034V37.5L22.974 37.5222L22.9738 37.5445L22.9735 37.5668L22.973 37.5889L22.9723 37.6111L22.9715 37.6332L22.9707 37.6553L22.9696 37.6773L22.9684 37.6993L22.9671 37.7213L22.9656 37.7432L22.964 37.7651L22.9623 37.787L22.9604 37.8088L22.9584 37.8306L22.9563 37.8523L22.954 37.874L22.9516 37.8957L22.9491 37.9173L22.9464 37.9389L22.9435 37.9604L22.9406 37.9819L22.9376 38.0034L22.9344 38.0248L22.931 38.0462L22.9275 38.0675L22.924 38.0888L22.9202 38.11L22.9163 38.1313L22.9123 38.1524L22.9083 38.1735L22.904 38.1945L22.8996 38.2156L22.8951 38.2365L22.8905 38.2574L22.8857 38.2783L22.8809 38.2991L22.8758 38.3199L22.8707 38.3407L22.8655 38.3613L22.8601 38.382L22.8546 38.4025L22.8489 38.423L22.8432 38.4435L22.8373 38.464L22.8313 38.4843L22.8252 38.5046L22.819 38.5249L22.8126 38.5451L22.8061 38.5653L22.7995 38.5854L22.7928 38.6055L22.786 38.6254L22.779 38.6454L22.7719 38.6652L22.7647 38.6851L22.7574 38.7049L22.75 38.7246L22.7424 38.7443L22.7347 38.7638L22.727 38.7834L22.7191 38.8029L22.7111 38.8223L22.7029 38.8416L22.6947 38.861L22.6864 38.8802L22.6779 38.8994L22.6693 38.9185L22.6606 38.9375L22.6518 38.9566L22.6428 38.9755L22.6339 38.9944L22.6247 39.0132L22.6155 39.032L22.6061 39.0506L22.5966 39.0693L22.587 39.0878L22.5774 39.1063L22.5676 39.1247L22.5577 39.1431L22.5476 39.1614L22.5375 39.1796L22.5273 39.1977L22.517 39.2158L22.5065 39.2338L22.496 39.2518L22.4853 39.2696L22.4746 39.2875L22.4637 39.3052L22.4528 39.3229L22.4417 39.3405L22.4306 39.358L22.4193 39.3754L22.4079 39.3929L22.3965 39.4102L22.3849 39.4274L22.3732 39.4446L22.3614 39.4616L22.3495 39.4787L22.3375 39.4956L22.3255 39.5125L22.3133 39.5293L22.301 39.5459L22.2887 39.5626L22.2762 39.5791L22.2637 39.5956L22.251 39.612L22.2383 39.6284L22.2254 39.6446L22.2125 39.6607L22.1994 39.6769L22.1862 39.6929L22.1731 39.7088L22.1597 39.7246L22.1463 39.7404L22.1328 39.7561L22.1192 39.7717L22.1055 39.7872L22.0917 39.8027L22.0779 39.818L22.0639 39.8333L22.0498 39.8485L22.0357 39.8636L22.0215 39.8786L22.0071 39.8935L21.9927 39.9084L21.9783 39.9231L21.9637 39.9378L21.949 39.9524L21.9342 39.9668L21.9193 39.9813L21.9045 39.9956L21.8894 40.0098L21.8743 40.024L21.8592 40.0381L21.8439 40.052L21.8285 40.0659L21.813 40.0797L21.7975 40.0933L21.782 40.1069L21.7663 40.1205L21.7505 40.1338L21.7346 40.1472L21.7187 40.1604L21.7027 40.1735L21.6866 40.1866L21.6704 40.1995L21.6542 40.2124L21.6379 40.2251L21.6215 40.2378L21.605 40.2504L21.5884 40.2628L21.5718 40.2752L21.5551 40.2875L21.5383 40.2996L21.5214 40.3117L21.5045 40.3237L21.4875 40.3355L21.4704 40.3473L21.4532 40.359L21.436 40.3706L21.4187 40.382L21.4013 40.3934L21.3838 40.4047L21.3663 40.4159L21.3487 40.4269L21.3311 40.4378L21.3133 40.4487L21.2955 40.4595L21.2777 40.4701L21.2597 40.4807L21.2416 40.4911L21.2235 40.5014L21.2055 40.5117L21.1872 40.5218L21.1689 40.5318L21.1505 40.5417L21.1321 40.5515L21.1137 40.5612L21.0951 40.5707L21.0765 40.5802L21.0578 40.5896L21.0391 40.5989L21.0202 40.608L21.0013 40.617L20.9824 40.626L20.9634 40.6348L20.9443 40.6434L20.9253 40.652L20.9061 40.6605L20.8868 40.6689L20.8675 40.6771L20.8481 40.6852L20.8287 40.6932L20.8092 40.7011L20.7897 40.7089L20.7701 40.7166L20.7504 40.7241L20.7308 40.7315L20.7109 40.7388L20.6911 40.746L20.6712 40.7531L20.6513 40.7601L20.6313 40.7669L20.6112 40.7737L20.5911 40.7803L20.571 40.7867L20.5508 40.7931L20.5305 40.7994L20.5102 40.8054L20.4898 40.8115L20.4694 40.8173L20.4489 40.8231L20.4284 40.8287L20.4078 40.8343L20.3872 40.8396L20.3665 40.8448L20.3458 40.85L20.325 40.855L20.3042 40.8599L20.2833 40.8647L20.2624 40.8693L20.2414 40.8738L20.2204 40.8781L20.1994 40.8824L20.1782 40.8865L20.1571 40.8905L20.1359 40.8943L20.1147 40.8981L20.0934 40.9017L20.0721 40.9052L20.0506 40.9085L20.0292 40.9117L20.0078 40.9148L19.9863 40.9177L19.9648 40.9205L19.9432 40.9232L19.9216 40.9257L19.8999 40.9281L19.8782 40.9304L19.8564 40.9326L19.8347 40.9346L19.8128 40.9364L19.791 40.9382L19.7691 40.9398L19.7471 40.9412L19.7252 40.9426L19.7032 40.9438L19.6811 40.9448L19.659 40.9457L19.6369 40.9465L19.6148 40.9471L19.5926 40.9476L19.5703 40.9479L19.5481 40.9482L19.5258 40.9482H12.6293L12.607 40.9482L12.5847 40.9479L12.5625 40.9476L12.5403 40.9471L12.5182 40.9465L12.4961 40.9457L12.474 40.9448L12.4519 40.9438L12.43 40.9426L12.408 40.9412L12.386 40.9398L12.3641 40.9382L12.3422 40.9364L12.3205 40.9346L12.2987 40.9326L12.2769 40.9304L12.2552 40.9281L12.2335 40.9257L12.2119 40.9232L12.1903 40.9205L12.1688 40.9177L12.1473 40.9148L12.1258 40.9117L12.1044 40.9085L12.083 40.9052L12.0617 40.9017L12.0404 40.8981L12.0192 40.8943L11.998 40.8905L11.9769 40.8865L11.9558 40.8824L11.9347 40.8781L11.9136 40.8738L11.8927 40.8693L11.8718 40.8647L11.8509 40.8599L11.8301 40.855L11.8093 40.85L11.7886 40.8448L11.7679 40.8396L11.7473 40.8343L11.7267 40.8287L11.7062 40.8231L11.6857 40.8173L11.6653 40.8115L11.6449 40.8054L11.6246 40.7994L11.6043 40.7931L11.5841 40.7867L11.564 40.7803L11.5438 40.7737L11.5238 40.7669L11.5038 40.7601L11.4839 40.7531L11.464 40.746L11.4442 40.7388L11.4244 40.7315L11.4047 40.7241L11.385 40.7166L11.3654 40.7089L11.3459 40.7011L11.3264 40.6932L11.307 40.6852L11.2876 40.6771L11.2683 40.6689L11.2491 40.6605L11.2299 40.652L11.2107 40.6434L11.1917 40.6348L11.1727 40.626L11.1537 40.617L11.1349 40.608L11.116 40.5989L11.0973 40.5896L11.0786 40.5802L11.06 40.5707L11.0414 40.5612L11.023 40.5515L11.0046 40.5417L10.9862 40.5318L10.9679 40.5218L10.9497 40.5117L10.9315 40.5014L10.9135 40.4911L10.8954 40.4807L10.8775 40.4701L10.8596 40.4595L10.8418 40.4487L10.824 40.4378L10.8064 40.4269L10.7888 40.4159L10.7713 40.4047L10.7538 40.3934L10.7364 40.382L10.7191 40.3706L10.7018 40.359L10.6847 40.3473L10.6676 40.3355L10.6506 40.3237L10.6336 40.3117L10.6168 40.2996L10.6 40.2875L10.5833 40.2752L10.5667 40.2628L10.5501 40.2504L10.5336 40.2378L10.5172 40.2251L10.5009 40.2124L10.4846 40.1995L10.4685 40.1866L10.4524 40.1735L10.4364 40.1604L10.4204 40.1472L10.4046 40.1338L10.3888 40.1205L10.3732 40.1069L10.3576 40.0933L10.342 40.0797L10.3266 40.0659L10.3112 40.052L10.296 40.0381L10.2808 40.024L10.2657 40.0098L10.2507 39.9956L10.2357 39.9813L10.2209 39.9668L10.2061 39.9524L10.1914 39.9378L10.1769 39.9231L10.1624 39.9084L10.148 39.8935L10.1336 39.8786L10.1194 39.8636L10.1053 39.8485L10.0912 39.8333L10.0773 39.818L10.0634 39.8027L10.0496 39.7872L10.0359 39.7717L10.0223 39.7561L10.0088 39.7404L9.9954 39.7246L9.98204 39.7088L9.96881 39.6929L9.9557 39.6769L9.94265 39.6607L9.92972 39.6446L9.91686 39.6284L9.90411 39.612L9.89143 39.5956L9.87888 39.5791L9.86644 39.5626L9.85407 39.5459L9.84176 39.5293L9.82963 39.5125L9.81757 39.4956L9.80557 39.4787L9.79369 39.4616L9.78193 39.4446L9.77023 39.4274L9.75866 39.4102L9.74721 39.3929L9.73583 39.3754L9.72456 39.358L9.71342 39.3405L9.70234 39.3229L9.69138 39.3052L9.68049 39.2875L9.66978 39.2696L9.65913 39.2518L9.64854 39.2338L9.63814 39.2158L9.6278 39.1977L9.61758 39.1796L9.60743 39.1614L9.59745 39.1431L9.58754 39.1247L9.57776 39.1063L9.56803 39.0878L9.55849 39.0693L9.54901 39.0506L9.53966 39.032L9.53042 39.0132L9.52125 38.9944L9.5122 38.9755L9.50328 38.9566L9.49448 38.9375L9.4858 38.9185L9.47724 38.8994L9.46875 38.8802L9.46037 38.861L9.45219 38.8416L9.44406 38.8223L9.436 38.8029L9.42812 38.7834L9.42036 38.7638L9.41267 38.7443L9.4051 38.7246L9.39771 38.7049L9.39039 38.6851L9.38319 38.6652L9.37611 38.6454L9.36915 38.6254L9.36232 38.6055L9.35561 38.5854L9.34896 38.5653L9.3425 38.5451L9.33616 38.5249L9.32988 38.5046L9.32379 38.4843L9.31776 38.464L9.31191 38.4435L9.30612 38.423L9.30052 38.4025L9.29504 38.382L9.28963 38.3613L9.28439 38.3407L9.27922 38.3199L9.27424 38.2991L9.26937 38.2783L9.26463 38.2574L9.25996 38.2365L9.25546 38.2156L9.25109 38.1945L9.24685 38.1735L9.24272 38.1524L9.23878 38.1313L9.2349 38.11L9.23115 38.0888L9.22758 38.0675L9.22407 38.0462L9.22075 38.0248L9.21755 38.0034L9.21447 37.9819L9.21151 37.9604L9.20874 37.9389L9.20604 37.9173L9.20351 37.8957L9.20111 37.874L9.19883 37.8523L9.19668 37.8306L9.19465 37.8088L9.1928 37.787L9.19108 37.7651L9.18948 37.7432L9.188 37.7213L9.18665 37.6993L9.18548 37.6773L9.18443 37.6553L9.18351 37.6332L9.18277 37.6111L9.18215 37.5889L9.18166 37.5668L9.18129 37.5445L9.18104 37.5222L9.18098 37.5V30.6034L9.18104 30.5811L9.18129 30.5589L9.18166 30.5367L9.18215 30.5144L9.18277 30.4923L9.18351 30.4702L9.18443 30.4482L9.18548 30.4261L9.18665 30.4041L9.188 30.3821L9.18948 30.3602L9.19108 30.3383L9.1928 30.3164L9.19465 30.2946L9.19668 30.2728L9.19883 30.2511L9.20111 30.2293L9.20351 30.2077L9.20604 30.1861L9.20874 30.1645L9.21151 30.143L9.21447 30.1214L9.21755 30.1L9.22075 30.0786L9.22407 30.0572L9.22758 30.0359L9.23115 30.0146L9.2349 29.9933L9.23878 29.9722L9.24272 29.951L9.24685 29.9299L9.25109 29.9088L9.25546 29.8878L9.25996 29.8668L9.26463 29.8459L9.26937 29.825L9.27424 29.8042L9.27922 29.7834L9.28439 29.7628L9.28963 29.7421L9.29504 29.7215L9.30052 29.7008L9.30612 29.6803L9.31191 29.6598L9.31776 29.6395L9.32379 29.6191L9.32988 29.5987L9.33616 29.5785L9.3425 29.5583L9.34896 29.5381L9.35561 29.518L9.36232 29.498L9.36915 29.4779L9.37611 29.458L9.38319 29.4381L9.39039 29.4183L9.39771 29.3985L9.4051 29.3788L9.41267 29.3591L9.42036 29.3396L9.42812 29.32L9.436 29.3005L9.44406 29.2811L9.45219 29.2617L9.46037 29.2424L9.46875 29.2232L9.47724 29.204L9.4858 29.1849L9.49448 29.1658L9.50328 29.1468L9.5122 29.1279L9.52125 29.109L9.53042 29.0902L9.53966 29.0714L9.54901 29.0527L9.55849 29.0341L9.56803 29.0156L9.57776 28.9971L9.58754 28.9787L9.59745 28.9603L9.60743 28.9421L9.61758 28.9238L9.6278 28.9057L9.63814 28.8876L9.64854 28.8696L9.65913 28.8516L9.66978 28.8337L9.68049 28.8159L9.69138 28.7982L9.70234 28.7805L9.71342 28.7629L9.72456 28.7454L9.73583 28.7279L9.74721 28.7106L9.75866 28.6933L9.77023 28.676L9.78193 28.6589L9.79369 28.6417L9.80557 28.6248L9.81757 28.6078L9.82963 28.591L9.84176 28.5742L9.85407 28.5574L9.86644 28.5408L9.87888 28.5242L9.89143 28.5077L9.90411 28.4914L9.91686 28.4751L9.92972 28.4588L9.94265 28.4426L9.9557 28.4266L9.96881 28.4105L9.98204 28.3946L9.9954 28.3787L10.0088 28.363L10.0223 28.3473L10.0359 28.3317L10.0496 28.3162L10.0634 28.3007L10.0773 28.2853L10.0912 28.2701L10.1053 28.2549L10.1194 28.2398L10.1336 28.2248L10.148 28.2099L10.1624 28.195L10.1769 28.1803L10.1914 28.1656L10.2061 28.151L10.2209 28.1365L10.2357 28.1221L10.2507 28.1078L10.2657 28.0935L10.2808 28.0794L10.296 28.0654L10.3112 28.0514L10.3266 28.0375L10.342 28.0237L10.3576 28.01L10.3732 27.9964L10.3888 27.9829L10.4046 27.9695L10.4204 27.9562L10.4364 27.943L10.4524 27.9298L10.4685 27.9168L10.4846 27.9038L10.5009 27.891L10.5172 27.8782L10.5336 27.8656L10.5501 27.8531L10.5667 27.8406L10.5833 27.8282L10.6 27.8159L10.6168 27.8038L10.6336 27.7917L10.6506 27.7797L10.6676 27.7678L10.6847 27.7561L10.7018 27.7444L10.7191 27.7328L10.7364 27.7213L10.7538 27.7099L10.7713 27.6987L10.7888 27.6875L10.8064 27.6765L10.824 27.6655L10.8418 27.6547L10.8596 27.6439L10.8775 27.6333L10.8954 27.6227L10.9135 27.6123L10.9315 27.6019L10.9497 27.5917L10.9679 27.5816L10.9862 27.5716L11.0046 27.5617L11.023 27.5519L11.0414 27.5422L11.06 27.5326L11.0786 27.5231L11.0973 27.5138L11.116 27.5045L11.1349 27.4954L11.1537 27.4864L11.1727 27.4775L11.1917 27.4687L11.2107 27.4599L11.2299 27.4514L11.2491 27.4429L11.2683 27.4346L11.2876 27.4263L11.307 27.4182L11.3264 27.4102L11.3459 27.4022L11.3654 27.3945L11.385 27.3868L11.4047 27.3793L11.4244 27.3718L11.4442 27.3645L11.464 27.3573L11.4839 27.3502L11.5038 27.3433L11.5238 27.3364L11.5438 27.3297L11.564 27.3231L11.5841 27.3166L11.6043 27.3103L11.6246 27.3041L11.6449 27.2979L11.6653 27.2919L11.6857 27.286L11.7062 27.2803L11.7267 27.2746L11.7473 27.2692L11.7679 27.2638L11.7886 27.2585L11.8093 27.2534L11.8301 27.2484L11.8509 27.2435L11.8718 27.2388L11.8927 27.2341L11.9136 27.2296L11.9347 27.2253L11.9558 27.221L11.9769 27.2169L11.998 27.2129L12.0192 27.209L12.0404 27.2053L12.0617 27.2017L12.083 27.1983L12.1044 27.1949L12.1258 27.1917L12.1473 27.1886L12.1688 27.1857L12.1903 27.1829L12.2119 27.1802L12.2335 27.1776L12.2552 27.1752L12.2769 27.173L12.2987 27.1708L12.3205 27.1688L12.3422 27.1669L12.3641 27.1652L12.386 27.1636L12.408 27.1621L12.43 27.1608L12.4519 27.1597L12.474 27.1586L12.4961 27.1577L12.5182 27.1569L12.5403 27.1563L12.5625 27.1558L12.5847 27.1554L12.607 27.1552L12.6293 27.1552H19.5258L19.5481 27.1552ZM12.6313 28.4375L12.6151 28.4376L12.601 28.4377L12.5869 28.4379L12.5729 28.4382L12.5589 28.4386L12.5448 28.4391L12.5309 28.4397L12.5169 28.4403L12.503 28.4411L12.4892 28.4419L12.4753 28.4429L12.4615 28.4438L12.4478 28.445L12.4341 28.4461L12.4204 28.4474L12.4066 28.4488L12.393 28.4502L12.3794 28.4517L12.3658 28.4533L12.3522 28.455L12.3387 28.4567L12.3253 28.4586L12.3118 28.4605L12.2984 28.4625L12.2849 28.4646L12.2582 28.469L12.2449 28.4714L12.2317 28.4738L12.2184 28.4763L12.2052 28.4789L12.1921 28.4815L12.1789 28.4843L12.1658 28.4871L12.1527 28.49L12.1266 28.496L12.1136 28.4991L12.1006 28.5023L12.0877 28.5056L12.0749 28.509L12.062 28.5124L12.0491 28.5159L12.0236 28.5232L12.0108 28.5269L11.9982 28.5308L11.9855 28.5347L11.9729 28.5387L11.9603 28.5427L11.9477 28.5468L11.9352 28.551L11.9227 28.5553L11.9102 28.5597L11.8978 28.5641L11.8854 28.5686L11.873 28.5732L11.8607 28.5778L11.8484 28.5825L11.8362 28.5873L11.8238 28.5922L11.8118 28.5971L11.7996 28.6022L11.7874 28.6073L11.7754 28.6124L11.7633 28.6176L11.7513 28.6229L11.7393 28.6283L11.7274 28.6337L11.7036 28.6448L11.6917 28.6505L11.68 28.6563L11.6683 28.662L11.6565 28.6679L11.6448 28.6739L11.6332 28.6798L11.6216 28.6859L11.6101 28.6921L11.5986 28.6983L11.5871 28.7046L11.5757 28.7109L11.5643 28.7173L11.5529 28.7239L11.5416 28.7304L11.5304 28.737L11.5191 28.7437L11.5079 28.7504L11.4967 28.7573L11.4856 28.7642L11.4746 28.7711L11.4636 28.7781L11.4526 28.7852L11.4417 28.7924L11.4308 28.7996L11.4199 28.8069L11.4091 28.8142L11.3983 28.8217L11.3877 28.8291L11.377 28.8366L11.3664 28.8442L11.3558 28.8519L11.3453 28.8596L11.3348 28.8674L11.3243 28.8753L11.3139 28.8832L11.3037 28.8912L11.2934 28.8992L11.2832 28.9073L11.2729 28.9155L11.2628 28.9237L11.2527 28.9319L11.2426 28.9403L11.2327 28.9487L11.2228 28.9571L11.2129 28.9656L11.203 28.9743L11.1932 28.9829L11.1834 28.9916L11.1738 29.0004L11.1642 29.0091L11.1546 29.018L11.145 29.0269L11.1356 29.0359L11.1261 29.0449L11.1168 29.054L11.1075 29.0631L11.0982 29.0724L11.0798 29.091L11.0617 29.1097L11.0528 29.1192L11.0438 29.1287L11.035 29.1383L11.0262 29.1479L11.0174 29.1576L11.0088 29.1673L11.0001 29.1771L10.9915 29.187L10.983 29.1969L10.9745 29.2068L10.9662 29.2168L10.9578 29.2269L10.9413 29.2471L10.9332 29.2572L10.925 29.2675L10.917 29.2778L10.909 29.2881L10.8933 29.3089L10.8855 29.3194L10.8778 29.3299L10.8701 29.3405L10.8625 29.3511L10.855 29.3618L10.8475 29.3725L10.8327 29.394L10.8254 29.4049L10.8182 29.4158L10.8111 29.4267L10.804 29.4377L10.7969 29.4487L10.79 29.4598L10.7832 29.4709L10.7763 29.4821L10.7628 29.5045L10.7563 29.5157L10.7497 29.527L10.7432 29.5384L10.7367 29.5498L10.7305 29.5612L10.7241 29.5727L10.7179 29.5842L10.7118 29.5958L10.6997 29.619L10.6938 29.6307L10.6879 29.6424L10.6821 29.6542L10.6764 29.6659L10.6707 29.6778L10.6596 29.7015L10.6541 29.7135L10.6488 29.7254L10.6435 29.7375L10.6383 29.7495L10.6331 29.7616L10.628 29.7737L10.623 29.7858L10.6181 29.7981L10.6132 29.8103L10.6084 29.8225L10.6037 29.8348L10.5991 29.8471L10.5944 29.8595L10.5899 29.8719L10.5855 29.8843L10.5769 29.9093L10.5727 29.9219L10.5686 29.9344L10.5645 29.947L10.5605 29.9597L10.5566 29.9723L10.5528 29.985L10.5491 29.9977L10.5454 30.0105L10.5418 30.0233L10.5383 30.0361L10.5349 30.049L10.5315 30.0619L10.5282 30.0748L10.525 30.0878L10.5219 30.1007L10.5188 30.1138L10.5158 30.1268L10.5129 30.1399L10.5101 30.153L10.5074 30.1662L10.5048 30.1793L10.5022 30.1926L10.4996 30.2058L10.4972 30.2191L10.4949 30.2324L10.4926 30.2457L10.4905 30.2591L10.4884 30.2725L10.4863 30.286L10.4844 30.2994L10.4826 30.3129L10.4808 30.3264L10.4791 30.3399L10.4775 30.3535L10.476 30.3671L10.4746 30.3808L10.4732 30.3945L10.472 30.4081L10.4708 30.4219L10.4697 30.4357L10.4687 30.4495L10.4678 30.4634L10.467 30.4772L10.4662 30.4911L10.4655 30.505L10.465 30.5189L10.4645 30.533L10.4641 30.547L10.4638 30.561L10.4636 30.5751L10.4634 30.5893V37.5141L10.4638 37.5423L10.4641 37.5564L10.4645 37.5704L10.465 37.5844L10.4655 37.5983L10.4662 37.6123L10.467 37.6262L10.4678 37.6401L10.4687 37.6538L10.4697 37.6677L10.4708 37.6815L10.472 37.6952L10.4732 37.7089L10.4746 37.7226L10.4761 37.7363L10.4775 37.7499L10.4791 37.7634L10.4808 37.777L10.4826 37.7905L10.4844 37.804L10.4863 37.8175L10.4884 37.8309L10.4905 37.8443L10.4926 37.8577L10.4949 37.871L10.4972 37.8843L10.4996 37.8975L10.5022 37.9108L10.5048 37.924L10.5074 37.9372L10.5101 37.9504L10.5129 37.9635L10.5158 37.9765L10.5188 37.9896L10.5219 38.0026L10.525 38.0156L10.5282 38.0286L10.5315 38.0415L10.5349 38.0544L10.5383 38.0672L10.5418 38.08L10.5454 38.0929L10.5491 38.1057L10.5528 38.1183L10.5566 38.1311L10.5605 38.1438L10.5645 38.1564L10.5686 38.169L10.5727 38.1815L10.5769 38.194L10.5855 38.219L10.5899 38.2315L10.5944 38.2438L10.5991 38.2563L10.6037 38.2686L10.6084 38.2808L10.6132 38.2931L10.6181 38.3053L10.623 38.3175L10.628 38.3296L10.6331 38.3418L10.6383 38.3539L10.6435 38.3659L10.6488 38.378L10.6541 38.3899L10.6596 38.4018L10.6652 38.4138L10.6707 38.4257L10.6764 38.4374L10.6821 38.4492L10.6879 38.461L10.6997 38.4844L10.7057 38.496L10.7118 38.5076L10.7179 38.5192L10.7241 38.5307L10.7305 38.5422L10.7367 38.5536L10.7431 38.565L10.7497 38.5763L10.7563 38.5877L10.7628 38.5989L10.7696 38.6101L10.7763 38.6213L10.7832 38.6325L10.79 38.6436L10.7969 38.6546L10.8111 38.6767L10.8182 38.6876L10.8254 38.6984L10.8327 38.7093L10.8401 38.7201L10.8475 38.7308L10.8625 38.7523L10.8778 38.7734L10.8855 38.784L10.8933 38.7944L10.9012 38.8049L10.909 38.8152L10.917 38.8256L10.925 38.8359L10.9332 38.8461L10.9413 38.8563L10.9495 38.8665L10.9578 38.8765L10.9662 38.8866L10.9745 38.8966L10.983 38.9065L10.9915 38.9164L11.0088 38.9361L11.0174 38.9458L11.0262 38.9555L11.035 38.9651L11.0438 38.9747L11.0528 38.9842L11.0617 38.9936L11.0708 39.0031L11.0799 39.0125L11.089 39.0218L11.0982 39.031L11.1075 39.0402L11.1168 39.0494L11.1261 39.0584L11.1356 39.0675L11.145 39.0765L11.1546 39.0854L11.1641 39.0943L11.1738 39.1031L11.1835 39.1119L11.1932 39.1205L11.203 39.1292L11.2129 39.1377L11.2227 39.1462L11.2327 39.1547L11.2427 39.1631L11.2527 39.1714L11.2628 39.1798L11.2729 39.1879L11.2832 39.1961L11.2934 39.2042L11.3036 39.2122L11.3139 39.2202L11.3244 39.2281L11.3348 39.236L11.3453 39.2438L11.3558 39.2515L11.3664 39.2592L11.377 39.2667L11.3984 39.2818L11.4091 39.2891L11.4199 39.2965L11.4308 39.3038L11.4417 39.3111L11.4526 39.3182L11.4636 39.3253L11.4745 39.3322L11.4856 39.3392L11.4968 39.3461L11.5079 39.3529L11.5191 39.3597L11.5303 39.3664L11.5416 39.373L11.5529 39.3796L11.5643 39.386L11.5757 39.3925L11.587 39.3988L11.5986 39.4051L11.6102 39.4114L11.6216 39.4175L11.6332 39.4235L11.6448 39.4295L11.6682 39.4414L11.68 39.4471L11.6918 39.4529L11.7036 39.4585L11.7155 39.4641L11.7274 39.4696L11.7393 39.4751L11.7513 39.4804L11.7633 39.4857L11.7754 39.491L11.7874 39.4961L11.7995 39.5012L11.8118 39.5062L11.8239 39.5112L11.8484 39.5209L11.8606 39.5256L11.873 39.5302L11.8854 39.5348L11.8978 39.5393L11.9103 39.5437L11.9226 39.548L11.9352 39.5523L11.9477 39.5566L11.9729 39.5647L11.9855 39.5687L11.9982 39.5726L12.0108 39.5764L12.0236 39.5802L12.0364 39.5839L12.0491 39.5874L12.0619 39.5909L12.0749 39.5944L12.0878 39.5978L12.1006 39.601L12.1136 39.6042L12.1266 39.6074L12.1397 39.6104L12.1527 39.6134L12.1658 39.6163L12.1789 39.6191L12.1921 39.6218L12.2053 39.6245L12.2185 39.6271L12.2317 39.6296L12.2449 39.632L12.2582 39.6343L12.2716 39.6366L12.2849 39.6388L12.2984 39.6409L12.3118 39.6429L12.3253 39.6448L12.3387 39.6466L12.3522 39.6484L12.3658 39.6501L12.3794 39.6517L12.393 39.6532L12.4066 39.6546L12.4204 39.656L12.4341 39.6572L12.4478 39.6584L12.4615 39.6595L12.4753 39.6606L12.4892 39.6615L12.503 39.6623L12.5169 39.663L12.5308 39.6637L12.5449 39.6642L12.5589 39.6647L12.5728 39.6652L12.5869 39.6655L12.6011 39.6657L12.6151 39.6658L12.6313 39.6659H19.5238L19.5399 39.6658L19.554 39.6657L19.5683 39.6655L19.5823 39.6652L19.5962 39.6647L19.6102 39.6642L19.6243 39.6637L19.6382 39.663L19.6521 39.6623L19.6659 39.6615L19.6798 39.6606L19.6936 39.6595L19.7073 39.6584L19.721 39.6572L19.7348 39.656L19.7484 39.6546L19.7621 39.6532L19.7757 39.6517L19.7894 39.6501L19.8029 39.6484L19.8164 39.6466L19.8299 39.6448L19.8433 39.6429L19.8568 39.6409L19.8702 39.6388L19.8835 39.6366L19.8969 39.6343L19.9101 39.632L19.9234 39.6296L19.9367 39.6271L19.9498 39.6245L19.9631 39.6218L19.9762 39.6191L19.9893 39.6163L20.0025 39.6134L20.0154 39.6104L20.0285 39.6074L20.0415 39.6042L20.0544 39.601L20.0673 39.5978L20.0803 39.5944L20.0932 39.5909L20.106 39.5874L20.1187 39.5839L20.1315 39.5802L20.1443 39.5764L20.1569 39.5726L20.1696 39.5687L20.1822 39.5647L20.1948 39.5607L20.2073 39.5566L20.2199 39.5523L20.2325 39.548L20.2448 39.5437L20.2573 39.5393L20.2697 39.5348L20.2821 39.5302L20.2945 39.5256L20.3066 39.5209L20.319 39.516L20.3311 39.5112L20.3433 39.5062L20.3556 39.5012L20.3677 39.4961L20.3797 39.491L20.3918 39.4857L20.4038 39.4804L20.4158 39.4751L20.4277 39.4696L20.4396 39.4641L20.4515 39.4585L20.4632 39.4529L20.4751 39.4471L20.4869 39.4413L20.4986 39.4355L20.5103 39.4295L20.5334 39.4175L20.5449 39.4114L20.5566 39.4051L20.5681 39.3988L20.5795 39.3925L20.6022 39.3796L20.6135 39.373L20.6248 39.3664L20.636 39.3597L20.6472 39.3529L20.6584 39.3461L20.6695 39.3392L20.6806 39.3322L20.6915 39.3253L20.7025 39.3182L20.7134 39.3111L20.7243 39.3038L20.7352 39.2965L20.746 39.2891L20.7567 39.2818L20.7675 39.2742L20.7781 39.2667L20.7887 39.2592L20.7993 39.2515L20.8098 39.2438L20.8203 39.236L20.8307 39.2281L20.8411 39.2202L20.8515 39.2122L20.8617 39.2042L20.872 39.1961L20.8822 39.1879L20.8923 39.1798L20.9024 39.1714L20.9125 39.1631L20.9224 39.1547L20.9323 39.1463L20.9423 39.1377L20.9521 39.1292L20.9619 39.1205L20.9716 39.1118L20.9813 39.1031L20.9909 39.0943L21.0005 39.0854L21.0101 39.0765L21.0196 39.0675L21.0383 39.0494L21.0476 39.0402L21.0569 39.031L21.0661 39.0218L21.0752 39.0125L21.0843 39.0031L21.0934 38.9936L21.1023 38.9842L21.1113 38.9747L21.1201 38.9651L21.1289 38.9555L21.1376 38.9458L21.1464 38.9361L21.1636 38.9164L21.1721 38.9065L21.1805 38.8966L21.189 38.8866L21.1973 38.8765L21.2056 38.8664L21.2138 38.8564L21.2219 38.8461L21.2301 38.8359L21.2381 38.8256L21.2461 38.8152L21.254 38.8049L21.2618 38.7944L21.2696 38.784L21.2773 38.7734L21.285 38.7629L21.2926 38.7522L21.3001 38.7416L21.3076 38.7309L21.315 38.7201L21.3223 38.7094L21.3297 38.6984L21.3369 38.6875L21.344 38.6766L21.3511 38.6657L21.3581 38.6546L21.3651 38.6436L21.372 38.6325L21.3788 38.6214L21.3856 38.6101L21.3923 38.5989L21.3989 38.5877L21.4054 38.5763L21.4119 38.565L21.4183 38.5536L21.431 38.5307L21.4372 38.5192L21.4494 38.496L21.4554 38.4844L21.4613 38.4727L21.4672 38.4609L21.473 38.4492L21.4788 38.4375L21.4844 38.4257L21.49 38.4138L21.4955 38.4018L21.501 38.3899L21.5063 38.3779L21.5116 38.3659L21.5169 38.3538L21.522 38.3418L21.5271 38.3296L21.5321 38.3175L21.537 38.3054L21.5419 38.2931L21.5467 38.2808L21.5514 38.2686L21.5561 38.2563L21.5607 38.2438L21.5695 38.2191L21.5739 38.2065L21.5782 38.194L21.5824 38.1815L21.5865 38.169L21.5906 38.1564L21.5945 38.1437L21.5985 38.1311L21.6023 38.1184L21.606 38.1056L21.6133 38.0801L21.6168 38.0672L21.6203 38.0544L21.6236 38.0415L21.6269 38.0286L21.6301 38.0156L21.6332 38.0026L21.6363 37.9896L21.6393 37.9765L21.6422 37.9635L21.645 37.9504L21.6477 37.9372L21.6504 37.924L21.6529 37.9108L21.6555 37.8975L21.6579 37.8843L21.6602 37.8711L21.6624 37.8577L21.6646 37.8443L21.6667 37.8309L21.6707 37.804L21.6725 37.7905L21.6742 37.777L21.676 37.7634L21.6776 37.7499L21.679 37.7363L21.6805 37.7226L21.6831 37.6952L21.6843 37.6814L21.6854 37.6678L21.6864 37.6539L21.6873 37.64L21.6882 37.6262L21.6889 37.6123L21.6896 37.5983L21.6901 37.5844L21.6906 37.5704L21.691 37.5563L21.6914 37.5424L21.6915 37.5283L21.6917 37.5141L21.6917 37.4979V30.6054L21.6917 30.5893L21.6915 30.5751L21.6914 30.561L21.691 30.547L21.6906 30.533L21.6901 30.5189L21.6896 30.5051L21.6889 30.4911L21.6882 30.4771L21.6873 30.4634L21.6864 30.4495L21.6854 30.4357L21.6843 30.4219L21.6831 30.4082L21.6818 30.3945L21.6805 30.3808L21.679 30.3671L21.6776 30.3535L21.676 30.34L21.6742 30.3263L21.6725 30.3129L21.6707 30.2994L21.6687 30.2859L21.6667 30.2725L21.6646 30.2591L21.6602 30.2323L21.6579 30.2191L21.6555 30.2058L21.6529 30.1925L21.6504 30.1793L21.6477 30.1662L21.6449 30.153L21.6422 30.1399L21.6393 30.1269L21.6363 30.1139L21.6332 30.1007L21.6301 30.0878L21.6269 30.0748L21.6236 30.0618L21.6203 30.049L21.6168 30.0362L21.6133 30.0233L21.6097 30.0105L21.606 29.9978L21.6023 29.985L21.5985 29.9723L21.5906 29.947L21.5865 29.9344L21.5824 29.9219L21.5782 29.9093L21.5739 29.8969L21.5695 29.8843L21.5651 29.8719L21.5607 29.8595L21.5561 29.8471L21.5514 29.8348L21.5467 29.8226L21.5419 29.8103L21.537 29.798L21.5321 29.7859L21.5271 29.7737L21.522 29.7615L21.5169 29.7495L21.5116 29.7375L21.5063 29.7255L21.501 29.7135L21.4955 29.7015L21.4844 29.6778L21.4788 29.6659L21.473 29.6541L21.4672 29.6424L21.4613 29.6307L21.4554 29.619L21.4494 29.6074L21.4434 29.5958L21.4372 29.5842L21.431 29.5727L21.4246 29.5612L21.4183 29.5498L21.4119 29.5384L21.4054 29.527L21.3989 29.5157L21.3923 29.5045L21.3856 29.4933L21.3788 29.482L21.372 29.4709L21.3651 29.4598L21.3581 29.4487L21.3511 29.4377L21.344 29.4267L21.3369 29.4158L21.3297 29.4049L21.3223 29.394L21.315 29.3833L21.3076 29.3725L21.3001 29.3618L21.2926 29.3512L21.285 29.3406L21.2773 29.3299L21.2696 29.3194L21.2618 29.309L21.254 29.2985L21.2461 29.2881L21.2381 29.2778L21.2301 29.2675L21.2219 29.2573L21.2138 29.2471L21.2056 29.237L21.1973 29.2269L21.189 29.2168L21.1805 29.2068L21.1721 29.1969L21.1636 29.187L21.155 29.1771L21.1464 29.1673L21.1376 29.1576L21.1289 29.1479L21.1201 29.1383L21.1113 29.1287L21.1023 29.1192L21.0933 29.1097L21.0843 29.1003L21.0753 29.091L21.0661 29.0817L21.0569 29.0724L21.0476 29.0631L21.0383 29.054L21.0289 29.0449L21.0196 29.0359L21.0101 29.0269L21.0005 29.018L20.9909 29.0091L20.9813 29.0004L20.9717 28.9916L20.9619 28.9829L20.9521 28.9743L20.9423 28.9656L20.9323 28.9571L20.9224 28.9487L20.9125 28.9403L20.9024 28.9319L20.8923 28.9237L20.8822 28.9155L20.872 28.9073L20.8617 28.8992L20.8514 28.8912L20.8411 28.8832L20.8308 28.8753L20.8203 28.8674L20.8098 28.8596L20.7993 28.8519L20.7887 28.8442L20.778 28.8366L20.7675 28.8291L20.746 28.8142L20.7352 28.8069L20.7243 28.7996L20.7134 28.7924L20.7025 28.7852L20.6915 28.7781L20.6805 28.7711L20.6695 28.7642L20.6584 28.7573L20.6472 28.7504L20.636 28.7437L20.6247 28.737L20.6135 28.7304L20.6023 28.7239L20.5908 28.7173L20.5795 28.7109L20.568 28.7046L20.5566 28.6983L20.5334 28.6859L20.5218 28.6798L20.5103 28.6739L20.4986 28.6679L20.4868 28.662L20.4751 28.6563L20.4515 28.6448L20.4277 28.6337L20.4158 28.6283L20.4038 28.6229L20.3918 28.6176L20.3797 28.6124L20.3677 28.6073L20.3555 28.6022L20.3433 28.5971L20.3312 28.5922L20.319 28.5873L20.3066 28.5825L20.2944 28.5778L20.2821 28.5732L20.2697 28.5686L20.2573 28.5641L20.2449 28.5597L20.2324 28.5553L20.2199 28.551L20.2074 28.5468L20.1948 28.5427L20.1822 28.5387L20.1696 28.5347L20.1569 28.5308L20.1443 28.5269L20.1315 28.5232L20.106 28.5159L20.0931 28.5124L20.0803 28.509L20.0674 28.5056L20.0544 28.5023L20.0415 28.4991L20.0285 28.496L20.0024 28.49L19.9893 28.4871L19.9762 28.4843L19.963 28.4815L19.9499 28.4789L19.9367 28.4763L19.9101 28.4714L19.8969 28.469L19.8702 28.4646L19.8568 28.4625L19.8433 28.4605L19.8299 28.4586L19.8164 28.4567L19.8029 28.455L19.7892 28.4533L19.7757 28.4517L19.7621 28.4502L19.7484 28.4488L19.7348 28.4474L19.721 28.4461L19.7073 28.445L19.6936 28.4438L19.6798 28.4429L19.6659 28.4419L19.6521 28.4411L19.6382 28.4403L19.6241 28.4397L19.6103 28.4391L19.5963 28.4386L19.5822 28.4382L19.5683 28.4379L19.5542 28.4377L19.5399 28.4376L19.5238 28.4375H12.6313Z" fill="white"/>
<defs>
<linearGradient id="paint0_linear_103_173" x1="25" y1="50" x2="25" y2="0" gradientUnits="userSpaceOnUse">
<stop stop-color="#B81E1E"/>
<stop offset="1" stop-color="#FD877E"/>
</linearGradient>
</defs>
</svg>
