<svg width="50" height="50" viewBox="0 0 50 50" fill="none" xmlns="http://www.w3.org/2000/svg">
<g clip-path="url(#clip0_276_33)">
<path d="M15.2 14.0185C18.0351 11.3286 21.5519 9.57596 25.3167 8.97662L28.8208 2.80106L28.75 8.9281C29.4851 9.01474 30.2106 9.17575 30.9167 9.40891L40.4583 2.00265L40.4875 1.79091L36.4125 0.441112L34.1667 2.44817C33.6167 2.37318 33.0542 2.32466 32.5 2.29819L31.8083 0L27.0458 0.529334L25.5 3.08778C24.9 3.24658 24.2958 3.42303 23.6958 3.62594L22.0833 2.01588L17.3417 4.34936L16.75 7.0225C16.1958 7.38421 15.6417 7.76798 15.0833 8.1738L12.7917 7.52536L10.7625 9.4442L15.2 14.0185Z" fill="url(#paint0_linear_276_33)"/>
<path d="M2.22083 32.682L0.0791667 34.8478L1.09167 39.1001L3.7 38.9149C3.91111 39.3824 4.14444 39.8368 4.4 40.2779L10.9042 33.8509C9.34013 31.7644 8.59818 29.1187 8.83333 26.4667L3.94583 25.6109L9.425 23.1187C10.0963 20.885 11.1515 18.8018 12.5375 16.974L9.30833 10.8337L8.80417 11.3101L9.25833 13.7053C8.84167 14.2303 8.425 14.7596 8.00833 15.2978L5.3625 15.6948L2.7125 20.3573L4.14583 22.1217C3.9 22.7128 3.68333 23.3083 3.4875 23.9082L0.895833 25.2845L0 30.1103L2.2 30.966C2.18333 31.5439 2.1875 32.1173 2.22083 32.682Z" fill="url(#paint1_linear_276_33)"/>
<path d="M12.5375 16.974L12.0792 16.0918C10.404 18.3511 9.11646 20.9042 8.275 23.6348L9.425 23.1098C10.0972 20.8793 11.1524 18.7992 12.5375 16.974Z" fill="url(#paint2_linear_276_33)"/>
<path d="M8.83333 26.4667L7.7375 26.277C7.51158 28.9193 8.25791 31.552 9.82083 33.6259L3.95417 39.3913C4.09583 39.6824 4.23333 39.9779 4.4 40.2735L10.9042 33.8509C9.34013 31.7644 8.59818 29.1187 8.83333 26.4667Z" fill="url(#paint3_linear_276_33)"/>
<path d="M31.4917 31.9453L31.275 32.1614C28.4748 34.8723 24.9928 36.6663 21.25 37.3269L16.2833 45.4345L16.6667 37.296C15.3866 37.0536 14.1611 36.5582 13.0542 35.8359L3.2875 43.1539L5.7875 45.9197L8.41667 44.7287C8.8334 45.0286 9.26453 45.3054 9.70833 45.558L9.33333 48.2047L13.4083 49.5677L15.6667 47.5518C16.2167 47.6268 16.775 47.6753 17.3333 47.7062L17.9958 50L22.7708 49.4707L24.3125 46.9343C24.9125 46.7755 25.5125 46.599 26.1125 46.3961L27.7167 47.9885L32.5 45.6506L33.0917 43.004C33.6458 42.6378 34.2 42.2541 34.7583 41.8483L37.0583 42.4923L39.0083 40.6484L31.4917 31.9453Z" fill="url(#paint4_linear_276_33)"/>
<path d="M16.5875 38.584L16.6417 37.296C15.3629 37.0535 14.1388 36.5582 13.0333 35.8359L11.9 36.6873C13.3617 37.5695 14.9426 38.2092 16.5875 38.584Z" fill="url(#paint5_linear_276_33)"/>
<path d="M32.3833 32.9775L31.4917 31.9453L31.275 32.1614C28.4748 34.8723 24.9928 36.6663 21.25 37.3269L20.3292 38.8178C24.7582 38.0124 28.9126 35.9996 32.3833 32.9775Z" fill="url(#paint6_linear_276_33)"/>
<path d="M27.05 5.91972L28.8208 2.80106L28.7958 5.61535C31.0936 5.27852 33.4259 5.30379 35.7167 5.69034L40.4583 2.00265L40.4875 1.79091L36.4125 0.441112L34.1667 2.44817C33.6167 2.37318 33.0542 2.32466 32.5 2.29819L31.8083 0L27.0458 0.529334L25.5 3.08778C24.9 3.24658 24.2958 3.42303 23.6958 3.62594L22.0833 2.01588L17.3417 4.34936L16.75 7.0225C16.1958 7.38421 15.6417 7.76798 15.0833 8.1738L12.7917 7.52536L10.7625 9.4442L13.65 12.4305C17.5968 9.22012 22.1774 6.99452 27.05 5.91972Z" fill="url(#paint7_linear_276_33)"/>
<path d="M27.8292 4.54786L28.8208 2.78341V4.50375C31.1751 4.4642 33.5181 4.85672 35.7458 5.66387L40.6625 1.84826L36.4125 0.441112L34.1667 2.44817C33.6167 2.37318 33.0542 2.32466 32.5 2.29819L31.8083 0L27.0458 0.529334L25.5 3.08778C24.9 3.24658 24.2958 3.42303 23.6958 3.62594L22.0833 2.01588L17.3417 4.34936L16.75 7.0225C16.1958 7.38421 15.6417 7.76798 15.0833 8.1738L12.7917 7.52536L10.7625 9.4442L11.8458 10.5602C16.9583 6.84605 22.5958 4.80812 27.8292 4.54786Z" fill="url(#paint8_linear_276_33)"/>
<path d="M12.7625 11.4601L23.9 17.4151L22.925 21.9806L12.7625 11.4601Z" fill="url(#paint9_linear_276_33)"/>
<path d="M28.4708 36.8813C25.2972 39.4664 21.7271 41.4539 17.9167 42.7569L16.2917 45.4036L16.3875 43.1981C11.6833 44.4949 7.11667 44.4685 3.37917 43.0613L3.29583 43.1231L5.79583 45.8888L8.425 44.6978C8.84173 44.9977 9.27287 45.2745 9.71667 45.5271L9.34167 48.1738L13.4167 49.5368L15.675 47.521C16.225 47.5959 16.7833 47.6445 17.3417 47.6753L18.0042 49.9691L22.7792 49.4398L24.3208 46.9034C24.9208 46.7446 25.5208 46.5682 26.1208 46.3652L27.725 47.9577L32.5 45.6506L33.0917 43.004C33.6458 42.6378 34.2 42.2541 34.7583 41.8483L37.0583 42.4923L39.0083 40.6484L32.5 33.0834C31.2508 34.4567 29.9037 35.7264 28.4708 36.8813Z" fill="url(#paint10_linear_276_33)"/>
<path d="M3.75 37.8562C2.66685 36.6602 1.78219 35.2793 1.13333 33.7715L0.0791667 34.8478L1.09167 39.1001L3.7 38.9149C3.91111 39.3824 4.14444 39.8368 4.4 40.2779L5.32917 39.3604C4.76772 38.9018 4.23982 38.399 3.75 37.8562Z" fill="url(#paint11_linear_276_33)"/>
<path d="M17.9167 42.7525L16.2875 45.3992L16.4 42.8275C13.0822 42.9733 9.79069 42.1476 6.8875 40.4411L3.2875 43.1539L5.7875 45.9197L8.41667 44.7287C8.8334 45.0286 9.26453 45.3054 9.70833 45.558L9.33333 48.2047L13.4083 49.5677L15.6667 47.5518C16.2167 47.6268 16.775 47.6753 17.3333 47.7062L17.9958 50L22.7708 49.4707L24.3125 46.9343C24.9125 46.7755 25.5125 46.599 26.1125 46.3961L27.7167 47.9885L32.5 45.6506L33.0917 43.004C33.6458 42.6378 34.2 42.2541 34.7583 41.8483L37.0583 42.4923L39.0083 40.6484L34.3542 35.2625C29.2792 39.7 23.3958 42.2497 17.9167 42.7525Z" fill="url(#paint12_linear_276_33)"/>
<path d="M34.3542 35.2625C29.2875 39.7 23.4125 42.2408 17.9375 42.7481H17.9083L16.2833 45.3948L16.3792 43.1892C11.675 44.4861 7.10833 44.4596 3.37083 43.0525L3.29167 43.1142L5.79167 45.88L8.42083 44.689C8.83757 44.9889 9.2687 45.2657 9.7125 45.5183L9.3375 48.165L13.4125 49.528L15.6708 47.5121C16.2208 47.5871 16.7792 47.6356 17.3375 47.6665L18 49.9603L22.775 49.431L24.3167 46.8946C24.9167 46.7358 25.5167 46.5593 26.1167 46.3564L27.7208 47.9488L32.5 45.6506L33.0917 43.004C33.6458 42.6378 34.2 42.2541 34.7583 41.8483L37.0583 42.4923L39.0083 40.6484L34.3542 35.2625Z" fill="url(#paint13_linear_276_33)"/>
<path d="M12.7625 11.4601L23.3792 19.8588L22.925 21.9806L12.7625 11.4601Z" fill="url(#paint14_linear_276_33)"/>
<path d="M6.62083 38.0591L18.5083 22.3644L22.925 21.9806L6.62083 38.0591Z" fill="url(#paint15_linear_276_33)"/>
<path d="M6.62083 38.0591L21.0833 22.1394L22.925 21.9806L6.62083 38.0591Z" fill="url(#paint16_linear_276_33)"/>
<path d="M37.9167 39.356L21.95 26.5461L22.925 21.9806L37.9167 39.356Z" fill="url(#paint17_linear_276_33)"/>
<path d="M37.9167 39.356L22.5667 23.6612L22.925 21.9806L37.9167 39.356Z" fill="url(#paint18_linear_276_33)"/>
<path d="M49.7625 15.1654L48.75 10.9043L46.1333 11.0895C45.9167 10.6176 45.6792 10.1456 45.4167 9.70446L46.775 7.11954L42.6083 2.88928C40.6667 4.80371 42.45 3.03926 40.6667 4.80371L34.1042 11.1645C34.4067 11.4165 34.6935 11.6891 34.9625 11.9806C36.2674 13.4434 37.1067 15.3023 37.3625 17.296C37.5317 18.4632 37.5945 19.6449 37.55 20.8249L44.3208 21.7512C44.3208 21.7512 43.3083 22.2673 37.6208 25.0948C36.7875 27.4813 36.1292 28.4517 34.3667 30.622L40.4167 39.7794L45.4167 34.1994L44.2667 31.5218L45.9917 28.09L48.3708 27.8121L50 21.7733L47.7417 19.9735L47.6417 17.296L49.7625 15.1654Z" fill="url(#paint19_linear_276_33)"/>
<path d="M35.0208 10.2735L34.1042 11.1557C37.6208 14.2744 37.5667 18.3017 37.55 20.8602L38.9042 21.0454C38.9042 16.2814 38.2625 13.3436 35.0208 10.2735Z" fill="url(#paint20_linear_276_33)"/>
<path d="M42.0125 3.48037C44.625 6.85046 49.6417 23.4363 36.6375 34.0759C40.7083 40.2514 39.4208 38.2841 40.3875 39.7794C42.0875 37.8871 45.3875 34.1994 45.3875 34.1994L44.2375 31.5218L45.9625 28.09L48.3417 27.8121L50 21.7733L47.7417 19.9735L47.6417 17.296L49.7625 15.1654L48.75 10.9043L46.1333 11.0895C45.9167 10.6176 45.6792 10.1456 45.4167 9.70446L46.775 7.11954L42.6083 2.88928L42.0083 3.48037" fill="url(#paint21_linear_276_33)"/>
<path d="M45 10.5867C47.4375 25.064 39.4333 31.3939 36.6167 34.0406C37.7708 35.805 37.8667 35.9197 39.4292 38.2929C43.5208 32.8055 51.8 23.326 45.2125 10.8072C45.1512 10.724 45.0798 10.6499 45 10.5867Z" fill="url(#paint22_linear_276_33)"/>
<path d="M11.25 14.5567L9.3 10.8558L8.79583 11.3322L9.25 13.7274C8.83333 14.2523 8.41667 14.7816 8 15.3198L5.35417 15.7168L2.7125 20.3573L4.14583 22.1217C3.9 22.7128 3.68333 23.3083 3.4875 23.9082L0.895833 25.2845L0 30.1103L1.6 30.7322C2.975 25.0728 6.25 19.303 11.25 14.5567Z" fill="url(#paint23_linear_276_33)"/>
<path d="M38.9042 24.4773L37.6208 25.1125C36.6375 27.7283 36.1792 28.412 34.3667 30.644L34.9625 31.5262C37.5 28.6723 38.175 27.1504 38.9042 24.4773Z" fill="url(#paint24_linear_276_33)"/>
<path d="M22.925 21.9806L42.8 2.72166L27.3333 21.6012" fill="url(#paint25_linear_276_33)"/>
<path d="M22.925 21.9806L42.8 2.72166L24.7042 21.8262" fill="url(#paint26_linear_276_33)"/>
</g>
<defs>
<linearGradient id="paint0_linear_276_33" x1="25.6333" y1="0.0661667" x2="25.6333" y2="50.0088" gradientUnits="userSpaceOnUse">
<stop stop-color="#2891C9"/>
<stop offset="1" stop-color="#1B4584"/>
</linearGradient>
<linearGradient id="paint1_linear_276_33" x1="6.27083" y1="0.0661673" x2="6.27083" y2="50.0044" gradientUnits="userSpaceOnUse">
<stop stop-color="#2891C9"/>
<stop offset="1" stop-color="#1B4584"/>
</linearGradient>
<linearGradient id="paint2_linear_276_33" x1="10.4083" y1="13.3392" x2="10.4083" y2="26.1403" gradientUnits="userSpaceOnUse">
<stop stop-color="#242F69"/>
<stop offset="1" stop-color="#1E3C70"/>
</linearGradient>
<linearGradient id="paint3_linear_276_33" x1="7.42917" y1="21.1469" x2="7.42917" y2="44.8963" gradientUnits="userSpaceOnUse">
<stop stop-color="#242F69"/>
<stop offset="1" stop-color="#1E3C70"/>
</linearGradient>
<linearGradient id="paint4_linear_276_33" x1="2.20417" y1="46.9299" x2="32.0746" y2="39.675" gradientUnits="userSpaceOnUse">
<stop stop-color="#2891C9"/>
<stop offset="1" stop-color="#1B4584"/>
</linearGradient>
<linearGradient id="paint5_linear_276_33" x1="11.9625" y1="37.9885" x2="15.742" y2="37.0693" gradientUnits="userSpaceOnUse">
<stop stop-color="#242F69"/>
<stop offset="1" stop-color="#1E3C70"/>
</linearGradient>
<linearGradient id="paint6_linear_276_33" x1="19.975" y1="32.232" x2="43.1838" y2="43.1974" gradientUnits="userSpaceOnUse">
<stop stop-color="#242F69"/>
<stop offset="1" stop-color="#1E3C70"/>
</linearGradient>
<linearGradient id="paint7_linear_276_33" x1="13.3792" y1="7.62682" x2="42.2189" y2="3.40091" gradientUnits="userSpaceOnUse">
<stop stop-color="#4FC5F1"/>
<stop offset="1" stop-color="#051939"/>
</linearGradient>
<linearGradient id="paint8_linear_276_33" x1="15.7" y1="-0.846934" x2="40.4893" y2="13.9203" gradientUnits="userSpaceOnUse">
<stop stop-color="#B1DEEB"/>
<stop offset="0.26" stop-color="#4DC7EB"/>
<stop offset="1" stop-color="#1B4584"/>
</linearGradient>
<linearGradient id="paint9_linear_276_33" x1="18.3333" y1="8.85752" x2="18.3333" y2="38.7252" gradientUnits="userSpaceOnUse">
<stop stop-color="#2891C9"/>
<stop offset="1" stop-color="#1B4584"/>
</linearGradient>
<linearGradient id="paint10_linear_276_33" x1="33.0833" y1="32.7569" x2="7.57737" y2="50.4684" gradientUnits="userSpaceOnUse">
<stop stop-color="#151D42"/>
<stop offset="1" stop-color="#1E3C70"/>
</linearGradient>
<linearGradient id="paint11_linear_276_33" x1="-3.8" y1="13.1098" x2="12.2735" y2="66.527" gradientUnits="userSpaceOnUse">
<stop stop-color="#242F69"/>
<stop offset="1" stop-color="#1E3C70"/>
</linearGradient>
<linearGradient id="paint12_linear_276_33" x1="10.6833" y1="2.94663" x2="26.7523" y2="56.373" gradientUnits="userSpaceOnUse">
<stop stop-color="#242F69"/>
<stop offset="1" stop-color="#1E3C70"/>
</linearGradient>
<linearGradient id="paint13_linear_276_33" x1="35.0542" y1="39.4618" x2="1.18792" y2="48.8824" gradientUnits="userSpaceOnUse">
<stop stop-color="#202F60"/>
<stop offset="1" stop-color="#375CA9"/>
</linearGradient>
<linearGradient id="paint14_linear_276_33" x1="13.1333" y1="10.8249" x2="31.2969" y2="27.1522" gradientUnits="userSpaceOnUse">
<stop stop-color="#B1DEEB"/>
<stop offset="0.26" stop-color="#4DC7EB"/>
<stop offset="1" stop-color="#1B4584"/>
</linearGradient>
<linearGradient id="paint15_linear_276_33" x1="14.7708" y1="8.85752" x2="14.7708" y2="38.7296" gradientUnits="userSpaceOnUse">
<stop stop-color="#375CA9"/>
<stop offset="1" stop-color="#1E3C70"/>
</linearGradient>
<linearGradient id="paint16_linear_276_33" x1="25.0375" y1="18.1562" x2="9.85153" y2="33.8217" gradientUnits="userSpaceOnUse">
<stop stop-color="#4DC7EB"/>
<stop offset="1" stop-color="#1B4584"/>
</linearGradient>
<linearGradient id="paint17_linear_276_33" x1="17.975" y1="17.1151" x2="39.1593" y2="42.1428" gradientUnits="userSpaceOnUse">
<stop stop-color="#2891C9"/>
<stop offset="1" stop-color="#1B4584"/>
</linearGradient>
<linearGradient id="paint18_linear_276_33" x1="21.1667" y1="21.416" x2="33.7082" y2="32.6073" gradientUnits="userSpaceOnUse">
<stop stop-color="#375CA9"/>
<stop offset="1" stop-color="#1E3C70"/>
</linearGradient>
<linearGradient id="paint19_linear_276_33" x1="37.1792" y1="8.91487" x2="54.2407" y2="50.1383" gradientUnits="userSpaceOnUse">
<stop stop-color="#CD3428"/>
<stop offset="0.26" stop-color="#D44E26"/>
<stop offset="0.82" stop-color="#E69022"/>
<stop offset="1" stop-color="#ECA720"/>
</linearGradient>
<linearGradient id="paint20_linear_276_33" x1="34.1042" y1="15.6551" x2="45.6417" y2="15.6551" gradientUnits="userSpaceOnUse">
<stop stop-color="#EBA438"/>
<stop offset="1" stop-color="#EBA438"/>
</linearGradient>
<linearGradient id="paint21_linear_276_33" x1="43.3167" y1="6.46229" x2="43.3167" y2="85.5139" gradientUnits="userSpaceOnUse">
<stop stop-color="#ECA720"/>
<stop offset="1" stop-color="#CD3428"/>
</linearGradient>
<linearGradient id="paint22_linear_276_33" x1="41.2417" y1="22.9334" x2="59.9601" y2="72.9995" gradientUnits="userSpaceOnUse">
<stop stop-color="#ECA720"/>
<stop offset="1" stop-color="#CD3428"/>
</linearGradient>
<linearGradient id="paint23_linear_276_33" x1="-0.0208336" y1="7.73269" x2="17.3989" y2="47.8823" gradientUnits="userSpaceOnUse">
<stop stop-color="#B1DEEB"/>
<stop offset="0.26" stop-color="#4DC7EB"/>
<stop offset="1" stop-color="#1B4584"/>
</linearGradient>
<linearGradient id="paint24_linear_276_33" x1="31.9746" y1="27.5876" x2="48.2555" y2="25.1393" gradientUnits="userSpaceOnUse">
<stop stop-color="#EAA138"/>
<stop offset="0.93" stop-color="#EAA038"/>
</linearGradient>
<linearGradient id="paint25_linear_276_33" x1="32.8625" y1="6.2285" x2="32.8625" y2="23.1672" gradientUnits="userSpaceOnUse">
<stop stop-color="#ECA720"/>
<stop offset="1" stop-color="#CD5628"/>
</linearGradient>
<linearGradient id="paint26_linear_276_33" x1="32.8625" y1="4.70225" x2="32.8625" y2="36.3432" gradientUnits="userSpaceOnUse">
<stop stop-color="#FDD300"/>
<stop offset="1" stop-color="#CC6D28"/>
</linearGradient>
<clipPath id="clip0_276_33">
<rect width="50" height="50" fill="white"/>
</clipPath>
</defs>
</svg>
