<svg width="50" height="50" viewBox="0 0 50 50" fill="none" xmlns="http://www.w3.org/2000/svg">
<path d="M25 0C21.3766 0 18.4425 2.92533 18.4425 6.53789C18.4425 10.1504 21.3766 13.0758 25 13.0758C28.6234 13.0758 31.5575 10.1504 31.5575 6.53789C31.5575 2.92533 28.6234 0 25 0ZM25 14.3016C20.3241 14.3016 15.3501 16.2704 15.3501 16.2704V16.3076C13.7526 16.6233 12.4672 17.7842 11.9968 19.3165H11.9595L8.04739 29.4948C8.04739 29.4948 2.36547 34.4446 1.00554 35.5498C-0.354399 36.6549 -0.26591 38.5912 0.856501 39.5988C1.97891 40.6018 3.51117 40.3 5.06671 39.0788C6.18912 38.2012 10.9815 34.4586 11.6615 33.8039C12.3414 33.1491 12.8491 32.3412 13.1891 31.6865C13.4266 31.2314 15.6202 27.1685 16.6541 25.26V35.1783C16.6541 36.8035 12.6209 39.1066 10.3202 40.5275C7.43728 42.3152 5.17849 43.5225 5.17849 45.9881C5.17849 48.7974 8.16382 50 10.7673 50H14.3068C13.8877 49.401 13.6362 48.6627 13.6362 47.734C13.6362 42.9838 19.2342 42.0273 22.5782 41.4562C27.473 40.6204 30.9986 40.0492 31.0359 40.0446C31.1011 40.0353 31.1942 40.0492 31.2594 40.0446C31.2827 40.0399 31.2734 40.0446 31.2967 40.0446C31.306 40.0446 31.3246 40.0446 31.3339 40.0446C31.3619 40.0446 31.3805 40.0446 31.4085 40.0446C31.4178 40.0446 31.4364 40.0399 31.4457 40.0446C32.0372 40.1142 32.489 40.6204 32.489 41.2333C32.489 41.8509 32.0139 42.3245 31.4085 42.3848C31.4085 42.3895 31.4085 42.422 31.4085 42.422C31.4085 42.422 27.9248 42.9513 22.988 43.7964C19.0899 44.4651 16.0207 45.2545 16.0207 47.734C16.0207 49.401 17.674 49.8839 19.2995 50H21.9448C21.9588 50 21.9681 50 21.9821 50H36.4384C38.3199 50 44.8215 49.9211 44.8215 46.3224C44.8215 44.0797 42.9819 42.8956 40.7603 41.419C36.5455 38.6191 33.3459 36.6224 33.3459 35.104V25.2972C34.3798 27.2056 36.5734 31.2268 36.8109 31.6865C37.1509 32.3412 37.6586 33.1491 38.3385 33.8039C39.0185 34.4586 43.8155 38.2012 44.9333 39.0788C46.4935 40.3 48.0211 40.6018 49.1435 39.5988C50.2659 38.5912 50.3544 36.6549 48.9945 35.5498C47.6345 34.4446 41.9526 29.4948 41.9526 29.4948L38.0405 19.3165H38.0032C37.5328 17.7749 36.2241 16.5769 34.6127 16.2704C33.7977 15.9593 29.2428 14.3016 25 14.3016Z" fill="white"/>
<path d="M3.21875 0L1.03125 2.53125C0.375 3.28516 0 4.25 0 5.25V5.5625C0 6.92969 1.13281 8.0625 2.5 8.0625H3.5C4.86719 8.0625 6 6.92969 6 5.5625C6 4.19531 4.86719 3.0625 3.5 3.0625H3.21875L4.71875 1.3125L3.21875 0ZM2.0625 5.0625H3.5C3.78516 5.0625 4 5.27734 4 5.5625C4 5.84766 3.78516 6.0625 3.5 6.0625H2.5C2.21484 6.0625 2 5.84766 2 5.5625V5.25C2 5.18359 2.05469 5.12891 2.0625 5.0625Z" fill="white"/>
<path d="M48 0V3H47V0.03125H45V5H48V8H50V0H48Z" fill="white"/>
</svg>
