<svg width="50.000000" height="50.000000" viewBox="0 0 50 50" fill="none" xmlns="http://www.w3.org/2000/svg" xmlns:xlink="http://www.w3.org/1999/xlink">
	<desc>
			Created with Pixso.
	</desc>
	<defs/>
	<path id="path" d="M49 28L29 28C28.45 28 28 28.45 28 29L28 49C28 49.55 28.45 50 29 50L49 50C49.55 50 50 49.55 50 49L50 29C50 28.45 49.55 28 49 28ZM1 22L21 22C21.55 22 22 21.55 22 21L22 1C22 0.44 21.55 0 21 0L1 0C0.44 0 0 0.44 0 1L0 21C0 21.55 0.44 22 1 22ZM49 0L29 0C28.45 0 28 0.44 28 1L28 21C28 21.55 28.45 22 29 22L49 22C49.55 22 50 21.55 50 21L50 1C50 0.44 49.55 0 49 0ZM1 50L21 50C21.55 50 22 49.55 22 49L22 29C22 28.45 21.55 28 21 28L1 28C0.44 28 0 28.45 0 29L0 49C0 49.55 0.44 50 1 50Z" fill="#FE9901" fill-opacity="1.000000" fill-rule="nonzero"/>
</svg>
