<svg width="50.000000" height="50.000000" viewBox="0 0 50 50" fill="none" xmlns="http://www.w3.org/2000/svg" xmlns:xlink="http://www.w3.org/1999/xlink">
	<desc>
			Created with Pixso.
	</desc>
	<defs/>
	<rect id="Прямоугольник 49" width="50.000000" height="50.000000" fill="#000000" fill-opacity="1.000000"/>
	<path id="path" d="M35.57 29.23L35.57 17L38.46 17L38.46 29.23L35.57 29.23Z" fill="#F7A600" fill-opacity="1.000000" fill-rule="nonzero"/>
	<path id="path" d="M5.55 33L0 33L0 20.76L5.32 20.76C7.92 20.76 9.42 22.1 9.42 24.2C9.42 25.55 8.46 26.43 7.78 26.72C8.59 27.07 9.61 27.84 9.61 29.47C9.61 31.76 7.92 33 5.55 33ZM5.12 22.89L2.59 22.89L2.59 25.71L5.12 25.71C6.22 25.71 6.83 25.14 6.83 24.3C6.83 23.46 6.22 22.89 5.12 22.89ZM5.29 27.86L2.59 27.86L2.59 30.86L5.29 30.86C6.46 30.86 7.02 30.18 7.02 29.35C7.02 28.53 6.46 27.86 5.29 27.86Z" fill="#FFFFFF" fill-opacity="1.000000" fill-rule="nonzero"/>
	<path id="path" d="M17.15 27.98L17.15 33L14.57 33L14.57 27.98L10.57 20.76L13.39 20.76L15.88 25.69L18.33 20.76L21.15 20.76L17.15 27.98Z" fill="#FFFFFF" fill-opacity="1.000000" fill-rule="nonzero"/>
	<path id="path" d="M28.63 33L23.07 33L23.07 20.76L28.4 20.76C30.99 20.76 32.5 22.1 32.5 24.2C32.5 25.55 31.53 26.43 30.86 26.72C31.66 27.07 32.69 27.84 32.69 29.47C32.69 31.76 30.99 33 28.63 33ZM28.2 22.89L25.66 22.89L25.66 25.71L28.2 25.71C29.3 25.71 29.91 25.14 29.91 24.3C29.91 23.46 29.3 22.89 28.2 22.89ZM28.36 27.86L25.66 27.86L25.66 30.86L28.36 30.86C29.54 30.86 30.1 30.18 30.1 29.35C30.1 28.53 29.54 27.86 28.36 27.86Z" fill="#FFFFFF" fill-opacity="1.000000" fill-rule="nonzero"/>
	<path id="path" d="M46.5 22.89L46.5 33L43.88 33L43.88 22.89L40.38 22.89L40.38 20.76L50 20.76L50 22.89L46.5 22.89Z" fill="#FFFFFF" fill-opacity="1.000000" fill-rule="nonzero"/>
</svg>
