<svg width="51" height="51" viewBox="0 0 51 51" fill="none" xmlns="http://www.w3.org/2000/svg">
<path d="M42.5108 0.125H7.73921C3.534 0.125 0.125 3.534 0.125 7.73921V42.5108C0.125 46.716 3.534 50.125 7.73921 50.125H42.5108C46.716 50.125 50.125 46.716 50.125 42.5108V7.73921C50.125 3.534 46.716 0.125 42.5108 0.125Z" fill="#0A467E" stroke="black" stroke-width="0.25"/>
<path d="M41.8425 7.51516C41.902 7.53502 41.902 7.53502 41.9239 7.5648C41.9457 7.61047 41.9676 7.65415 41.9874 7.69982L42.0112 7.75144C42.3845 8.57347 42.2912 9.47095 41.9815 10.295C41.9338 10.4161 41.8802 10.5352 41.8226 10.6524L41.7948 10.708C41.4315 11.4406 40.945 12.1118 40.391 12.7134C40.3533 12.7531 40.3176 12.7948 40.2838 12.8365C40.2183 12.9119 40.1488 12.9795 40.0793 13.0489C40.0416 13.0867 40.0078 13.1244 39.9721 13.1661C39.8291 13.3329 39.6703 13.4897 39.5035 13.6307C39.4558 13.6724 39.4082 13.7161 39.3605 13.7598C39.2334 13.8829 39.1004 13.998 38.9634 14.1073C38.9396 14.1271 38.9138 14.147 38.8899 14.1668C38.7073 14.3177 38.5206 14.4627 38.328 14.6036L38.2883 14.6314C37.8713 14.9372 37.4286 15.2053 36.9778 15.4574L36.9341 15.4813C36.126 15.938 35.2345 16.1961 34.337 16.4105L34.3489 16.4562C34.3648 16.5257 34.3807 16.5952 34.3966 16.6647L34.4145 16.7381L34.4303 16.8076L34.4462 16.8712C34.4562 16.9268 34.4562 16.9268 34.4562 17.0062C35.6415 16.7381 36.7594 16.3529 37.8515 15.8148L37.915 15.7831C38.2049 15.6421 38.4888 15.4932 38.7668 15.3304C38.8244 15.2966 38.884 15.2629 38.9416 15.2291C39.3148 15.0147 39.6822 14.7903 40.0376 14.5481C40.0813 14.5183 40.123 14.4905 40.1667 14.4607C40.3513 14.3356 40.532 14.2085 40.7107 14.0755C40.7544 14.0437 40.7981 14.0119 40.8417 13.9802C41.0363 13.8392 41.225 13.6923 41.4116 13.5394C41.4612 13.4997 41.5089 13.46 41.5585 13.4183C41.6816 13.317 41.8008 13.2157 41.9219 13.1125L41.9576 13.0827C42.1185 12.9457 42.2733 12.8067 42.4262 12.6618C42.4858 12.6042 42.5474 12.5486 42.6109 12.495C42.7062 12.4116 42.7936 12.3242 42.8829 12.2349L42.9345 12.1832C42.9881 12.1296 43.0418 12.076 43.0954 12.0224C43.1311 11.9867 43.1688 11.9489 43.2046 11.9132C43.2919 11.8238 43.3813 11.7345 43.4706 11.6451L43.5302 11.665C43.5521 11.7166 43.5719 11.7663 43.5878 11.8199L43.6037 11.8675C43.6613 12.0482 43.697 12.2329 43.7288 12.4195L43.7407 12.485C43.7764 12.8067 43.7586 13.1363 43.6891 13.452L43.6791 13.4977C43.5262 14.1847 43.1669 14.8042 42.7161 15.3383C42.6983 15.3602 42.6804 15.382 42.6625 15.4018C42.46 15.6461 42.2396 15.8764 41.9894 16.073C41.9418 16.1107 41.8961 16.1524 41.8524 16.1941C41.4315 16.5753 40.9271 16.891 40.4307 17.165L40.3771 17.1948C38.7053 18.128 36.7554 18.7058 34.6547 18.7138L34.6666 18.7634L34.6825 18.8329L34.6984 18.9004C34.7262 19.0354 34.7381 19.1724 34.756 19.3095C35.2226 19.3015 35.6832 19.2817 36.1459 19.23L36.1915 19.2241C37.3213 19.097 38.4333 18.8587 39.5194 18.5152L39.5611 18.5013C40.2361 18.2869 40.9013 18.0407 41.5446 17.7409L41.6062 17.7111C42.4123 17.3338 43.1867 16.901 43.9095 16.3787C44.0008 16.3152 44.0921 16.2537 44.1854 16.1921C44.1954 16.2358 44.2053 16.2795 44.2132 16.3232L44.2291 16.3966C44.253 16.5197 44.2669 16.6389 44.2688 16.7639V16.8076C44.2688 16.8374 44.2688 16.8692 44.2688 16.899C44.2688 16.9446 44.2688 16.9903 44.2708 17.036C44.2728 17.308 44.2371 17.5721 44.1517 17.8322L44.1358 17.8798C43.7705 18.9659 42.8015 19.6688 41.8167 20.1593C40.804 20.6537 39.704 20.9317 38.5861 21.0568L38.5246 21.0647C37.2975 21.1997 35.7309 21.1421 34.5753 20.6596L34.5693 20.7371C34.5574 20.8542 34.5316 20.9654 34.5018 21.0786C34.4859 21.1461 34.476 21.2037 34.476 21.2752C35.0081 21.4142 35.5403 21.5512 36.0843 21.6326L36.128 21.6385C36.3484 21.6723 36.5708 21.7001 36.7932 21.7259C36.823 21.7299 36.8527 21.7318 36.8825 21.7358C37.9051 21.855 38.9753 21.8331 39.9959 21.712L40.0495 21.706C41.2984 21.5571 42.6069 21.2911 43.7546 20.753C43.7883 20.7391 43.7883 20.7391 43.828 20.7391C43.7367 21.5948 43.3952 22.2977 42.732 22.8597C41.9378 23.501 40.8934 23.7909 39.8966 23.916L39.841 23.9239C37.8435 24.1662 35.6773 23.6003 33.9796 22.5459C33.9339 22.5896 33.9022 22.6313 33.8724 22.6869L33.8466 22.7346L33.8188 22.7822L33.791 22.8299C33.7513 22.9053 33.7116 22.9808 33.6818 23.0622C33.795 23.1297 33.9061 23.1952 34.0193 23.2607L34.059 23.2846C34.752 23.6876 35.4867 24.0093 36.2432 24.2734L36.3107 24.2972C36.7316 24.4422 37.1605 24.5494 37.5934 24.6506L37.6351 24.6606C37.9468 24.734 38.2625 24.7876 38.5782 24.8353L38.6278 24.8432C38.8701 24.879 39.1143 24.9068 39.3605 24.9286L39.432 24.9346C40.1766 25.0001 40.9291 24.9882 41.6717 24.9167C41.769 24.9088 41.8623 24.9048 41.9596 24.9068C41.775 25.568 41.2111 26.112 40.6293 26.4416C40.4744 26.525 40.3195 26.5965 40.1528 26.6541L40.1091 26.67C39.9304 26.7315 39.7517 26.7831 39.565 26.8189L39.5174 26.8288C39.2096 26.8844 38.9038 26.9023 38.5921 26.9003H38.5365C38.2446 26.9003 37.9587 26.8844 37.6688 26.8348L37.6073 26.8248C36.7316 26.6819 35.8897 26.3523 35.1114 25.9214L35.0717 25.8996C34.5872 25.6295 34.1246 25.3039 33.7016 24.9485C33.6798 24.9306 33.6599 24.9147 33.6381 24.8968C33.4475 24.74 33.2747 24.5653 33.102 24.3905C33.0385 24.327 32.9749 24.2635 32.9094 24.1999C32.8677 24.1542 32.8677 24.1542 32.8677 24.1145H32.828L32.8141 24.1483C32.7327 24.2972 32.6056 24.4302 32.4706 24.5315H32.4309C32.6016 24.7281 32.7744 24.9187 32.959 25.1014L33.0126 25.155C33.1139 25.2562 33.2152 25.3515 33.3244 25.4449C33.3482 25.4667 33.374 25.4885 33.3978 25.5084C34.0471 26.0743 34.756 26.5568 35.5085 26.9738L35.5661 27.0055C36.4874 27.5198 37.5517 28.04 38.606 28.2048C38.602 28.2703 38.5842 28.2862 38.5325 28.3319C38.5087 28.3498 38.4849 28.3676 38.461 28.3835L38.4213 28.4113C38.1612 28.596 37.8872 28.7568 37.5934 28.8799L37.5556 28.8958C37.2399 29.0288 36.8944 29.1202 36.5509 29.1241H36.4953C35.7686 29.1301 35.7686 29.1301 35.4271 29.0387C35.3914 29.0308 35.3536 29.0209 35.3179 29.0129C34.9525 28.9216 34.611 28.7786 34.2775 28.6019L34.2377 28.5821C33.8506 28.3776 33.4951 28.1115 33.1735 27.8137C33.1318 27.7739 33.0881 27.7362 33.0444 27.6985C32.8935 27.5655 32.7585 27.4225 32.6334 27.2656C32.5917 27.214 32.548 27.1644 32.5023 27.1167C32.1191 26.6958 31.8094 26.2053 31.5096 25.7248C31.4679 25.6573 31.4242 25.5898 31.3785 25.5243L31.3428 25.558C31.039 25.842 31.039 25.842 30.9218 25.842C31.3249 26.668 31.8014 27.4364 32.411 28.1254L32.4487 28.1691C32.5679 28.3041 32.693 28.4312 32.82 28.5582C32.8558 28.594 32.8895 28.6277 32.9253 28.6635C33.0444 28.7846 33.1655 28.8978 33.2986 29.003C33.3581 29.0507 33.4117 29.1003 33.4634 29.1579V29.1976C33.2886 29.2433 33.1159 29.2452 32.9372 29.2452H32.8915C31.8153 29.2413 30.8166 28.8243 30.0601 28.0658L30.0303 28.036C29.8655 27.8712 29.7206 27.7005 29.5915 27.5099L29.6153 27.4741C30.1097 26.7136 30.4334 25.8737 30.5763 24.9802C30.5823 24.9366 30.5902 24.8949 30.5982 24.8512C30.7213 24.0232 30.62 23.1615 30.4652 22.3474L30.4532 22.2799C30.2666 21.3149 29.9608 20.3638 29.5498 19.4723C29.4446 19.2459 29.4009 18.9957 29.4744 18.7495C29.5041 18.6741 29.5359 18.6046 29.5716 18.5351L29.6054 18.4696C29.8159 18.0824 30.0819 17.7131 30.3639 17.3735C30.4036 17.3239 30.4433 17.2742 30.483 17.2246C30.5605 17.1273 30.6439 17.038 30.7272 16.9466C30.767 16.9029 30.8067 16.8593 30.8444 16.8136C30.9337 16.7103 31.031 16.615 31.1263 16.5177C31.1581 16.486 31.1899 16.4542 31.2217 16.4224C31.3309 16.3172 31.4401 16.212 31.5572 16.1127C31.5771 16.0948 31.5989 16.0769 31.6188 16.0591C32.1628 15.5964 32.7466 15.2172 33.3641 14.8618C33.4058 14.8379 33.4495 14.8121 33.4912 14.7883C33.6619 14.689 33.8347 14.5897 34.0054 14.4925C34.4641 14.2284 34.9208 13.9643 35.3655 13.6784C35.4112 13.6486 35.4569 13.6208 35.5025 13.593C35.7269 13.452 35.9473 13.3051 36.1637 13.1542L36.2134 13.1204C36.535 12.898 36.8527 12.6677 37.1625 12.4275C37.2022 12.3957 37.2439 12.3659 37.2836 12.3341C37.4444 12.211 37.6013 12.0859 37.7542 11.9529C37.8098 11.9053 37.8654 11.8596 37.921 11.8159C38.1036 11.667 38.2843 11.5121 38.4591 11.3533C38.5008 11.3155 38.5425 11.2798 38.5842 11.2441C38.6695 11.1706 38.7509 11.0932 38.8324 11.0157C38.9296 10.9224 39.0289 10.8311 39.1282 10.7417C39.2215 10.6563 39.3109 10.569 39.4002 10.4816L39.4379 10.4459C39.5114 10.3724 39.5789 10.2969 39.6464 10.2195C39.708 10.148 39.7755 10.0805 39.839 10.011C39.9482 9.89586 40.0535 9.7807 40.1587 9.66156L40.1925 9.62384C40.2739 9.5325 40.3493 9.43918 40.4268 9.34586C40.4804 9.28033 40.538 9.21481 40.5936 9.14928C40.7028 9.02419 40.806 8.89513 40.9073 8.76408C40.9331 8.73033 40.9609 8.69459 40.9887 8.66083C41.1138 8.50199 41.2369 8.34116 41.358 8.17834C41.3937 8.13069 41.4315 8.08105 41.4672 8.03339C41.5903 7.85866 41.7174 7.6879 41.8425 7.51516ZM8.34589 7.4953C8.43524 7.5787 8.50673 7.67401 8.57821 7.77328C8.60203 7.80704 8.62785 7.84079 8.65366 7.87455L8.6894 7.92419C8.76485 8.02744 8.84229 8.1287 8.92171 8.22997L8.94752 8.26173C9.08651 8.43845 9.22749 8.61517 9.36846 8.78791C9.39428 8.82167 9.42009 8.85343 9.4459 8.8852C9.56106 9.02618 9.67623 9.16517 9.79536 9.30217L9.82713 9.33791C9.96811 9.50073 10.1111 9.66156 10.258 9.82041C10.2858 9.85019 10.3116 9.87997 10.3394 9.90976C10.4665 10.0507 10.5975 10.1858 10.7306 10.3188C10.7504 10.3386 10.7703 10.3585 10.7921 10.3803C10.8338 10.422 10.8755 10.4637 10.9172 10.5054C10.9708 10.559 11.0244 10.6127 11.078 10.6663C11.1197 10.708 11.1614 10.7497 11.2031 10.7914C11.223 10.8112 11.2428 10.8311 11.2627 10.8509C11.362 10.9522 11.4632 11.0495 11.5724 11.1428C11.6221 11.1845 11.6697 11.2302 11.7174 11.2738C11.8385 11.385 11.9616 11.4903 12.0867 11.5975C12.1225 11.6273 12.1582 11.659 12.1939 11.6888C12.3309 11.808 12.4719 11.9271 12.6149 12.0423L12.6605 12.078C12.9504 12.3123 13.2463 12.5367 13.5481 12.7571L13.5938 12.7908C13.8201 12.9556 14.0504 13.1165 14.2828 13.2733L14.3483 13.317C14.793 13.6168 15.2497 13.9008 15.7124 14.1708C15.7799 14.2105 15.8474 14.2502 15.9129 14.2899C16.1273 14.415 16.3418 14.5421 16.5582 14.6652C17.0903 14.967 17.6126 15.2787 18.095 15.656L18.1487 15.6977C18.3452 15.8526 18.5339 16.0134 18.7165 16.1842C18.7701 16.2338 18.8238 16.2834 18.8793 16.3311C18.9866 16.4244 19.0878 16.5277 19.1891 16.6289C19.2229 16.6627 19.2566 16.6964 19.2904 16.7302C19.4095 16.8473 19.5187 16.9665 19.6239 17.0975C19.6696 17.1551 19.7173 17.2067 19.7689 17.2603C20.1759 17.6972 20.7954 18.404 20.8034 19.0275L20.8054 19.0712C20.8093 19.2479 20.7398 19.4067 20.6763 19.5676L20.6604 19.6113C20.6267 19.6986 20.5909 19.786 20.5552 19.8734C20.0687 21.0826 19.6259 22.393 19.62 23.7095V23.773C19.62 23.8405 19.62 23.908 19.62 23.9775V24.047C19.62 24.3786 19.6259 24.7023 19.6835 25.0279L19.6934 25.0894C19.7709 25.5322 19.894 25.9611 20.0608 26.3781L20.0766 26.4178C20.2117 26.7534 20.3844 27.0988 20.6048 27.3868C20.6286 27.4185 20.6286 27.4185 20.6564 27.4701C20.5413 27.9348 19.8483 28.4173 19.4591 28.6555C18.9965 28.9276 18.4862 29.1182 17.9541 29.1976L17.8885 29.2075C17.7079 29.2353 17.5311 29.2433 17.3465 29.2413C17.3008 29.2413 17.2552 29.2413 17.2095 29.2413C17.0606 29.2433 16.9136 29.2373 16.7647 29.1976V29.1579C16.7945 29.1281 16.7945 29.1281 16.8362 29.0943C16.8918 29.0487 16.9434 29.001 16.9931 28.9494C17.0387 28.9017 17.0864 28.8581 17.136 28.8144C17.2194 28.7409 17.3008 28.6674 17.3802 28.59L17.42 28.5523C17.5867 28.3954 17.5867 28.3954 17.7436 28.2267C17.7952 28.1651 17.8488 28.1055 17.9044 28.046C17.9918 27.9487 18.0732 27.8494 18.1546 27.7461L18.1983 27.6905C18.9191 26.8308 18.9191 26.8308 19.3062 25.842C19.2685 25.8162 19.2685 25.8162 19.2189 25.7904C19.0918 25.7169 18.9727 25.6295 18.8694 25.5243L18.8456 25.562C18.5517 26.0366 18.2499 26.4992 17.8965 26.934L17.8568 26.9837C17.5669 27.347 17.2313 27.7005 16.864 27.9864C16.8402 28.0043 16.8183 28.0241 16.7945 28.044C15.8593 28.8124 14.7255 29.2135 13.5143 29.1122C13.3912 29.0983 13.2721 29.0725 13.151 29.0387L13.1013 29.0249C12.5732 28.8779 12.051 28.6099 11.6419 28.2445C11.6618 28.2048 11.6618 28.2048 11.7015 28.1909L11.7531 28.179L11.8127 28.1631L11.8802 28.1472C12.601 27.9606 13.288 27.6826 13.9651 27.3709L14.0226 27.3451C14.2947 27.22 14.5568 27.081 14.8189 26.934L14.8725 26.9043C15.1127 26.7692 15.345 26.6303 15.5734 26.4774L15.625 26.4436C15.9566 26.2212 16.2882 25.9949 16.59 25.7328C16.6416 25.6891 16.6932 25.6474 16.7449 25.6057C16.8362 25.5342 16.9216 25.4548 17.007 25.3754C17.0626 25.3237 17.1181 25.2721 17.1757 25.2225C17.273 25.1391 17.3624 25.0497 17.4537 24.9584C17.4835 24.9306 17.5113 24.9008 17.5411 24.873C17.6423 24.7718 17.7357 24.6705 17.8171 24.5514L17.7853 24.5236C17.6483 24.4064 17.5133 24.2893 17.42 24.1344C17.279 24.2496 17.1519 24.3806 17.0228 24.5116C16.9077 24.6288 16.7905 24.742 16.6654 24.8492L16.6079 24.9008C16.4153 25.0656 16.2147 25.2165 16.0102 25.3654L15.9606 25.4012C15.5436 25.705 15.1008 25.9512 14.6402 26.1795L14.5846 26.2073C13.9134 26.5369 13.1748 26.7494 12.4362 26.8546L12.3905 26.8626C11.3401 27.0155 10.1746 26.8427 9.29897 26.2192C9.20168 26.1438 9.11034 26.0644 9.02099 25.981L8.97135 25.9353C8.68146 25.6593 8.47099 25.3118 8.30618 24.9485V24.9088C8.41539 24.9048 8.52261 24.9088 8.63182 24.9227C9.65439 25.0358 10.6869 24.9763 11.7015 24.8293L11.7432 24.8234C12.3468 24.736 12.9425 24.601 13.5282 24.4322L13.5898 24.4144C14.6004 24.1225 15.6051 23.6896 16.4986 23.1337C16.582 23.082 16.582 23.082 16.6257 23.082C16.584 23.0066 16.5403 22.9331 16.4967 22.8577L16.4709 22.814C16.453 22.7842 16.4351 22.7544 16.4172 22.7246L16.3914 22.681L16.3676 22.6412C16.3477 22.6035 16.3358 22.5678 16.3279 22.5261L16.2921 22.5459C15.0532 23.2647 13.703 23.7492 12.2773 23.916L12.2217 23.9239C11.5744 24.0053 10.8993 23.9755 10.252 23.8961L10.1845 23.8882C9.03489 23.7412 7.75221 23.2865 7.01358 22.3434C6.65022 21.8629 6.49137 21.3308 6.41989 20.7391C6.48939 20.751 6.55094 20.7688 6.61646 20.7966L6.67404 20.8205L6.73957 20.8443C8.0838 21.3685 9.50348 21.6683 10.941 21.7676C10.9847 21.7716 11.0264 21.7735 11.0701 21.7775C11.2389 21.7914 11.4057 21.7954 11.5744 21.7954C11.6022 21.7954 11.628 21.7954 11.6558 21.7954C11.7134 21.7954 11.769 21.7954 11.8266 21.7954C11.8842 21.7954 11.9398 21.7954 11.9974 21.7954C12.4957 21.7974 12.9921 21.7755 13.4885 21.7179L13.5302 21.712C14.2748 21.6246 15.0134 21.4856 15.7362 21.2831C15.7719 21.2752 15.7719 21.2752 15.8116 21.2752L15.7977 21.2255C15.7461 21.0448 15.6985 20.8622 15.6528 20.6795L15.6091 20.6914C15.0849 20.8403 14.5548 20.9555 14.0127 21.023L13.9432 21.0309C13.8638 21.0409 13.7844 21.0488 13.7069 21.0568L13.6513 21.0627C13.3118 21.0925 12.9723 21.1044 12.6308 21.1024H12.5553C12.182 21.1024 11.8147 21.0925 11.4434 21.0369C11.4156 21.0329 11.3878 21.029 11.36 21.025C10.7187 20.9317 10.0932 20.7867 9.47767 20.5802L9.4181 20.5604C8.71918 20.3221 8.04409 19.9945 7.4504 19.5557C7.41665 19.5299 7.38091 19.506 7.34517 19.4802C7.01159 19.236 6.68 18.9084 6.4596 18.5549L6.43776 18.5212C6.13992 18.0367 5.97909 17.5165 5.97909 16.9486V16.889C5.98108 16.762 5.98704 16.6349 6.00093 16.5098L6.00491 16.4661C6.01682 16.3787 6.03668 16.2973 6.06249 16.212C6.14588 16.2398 6.20148 16.2795 6.26899 16.3351C6.46159 16.488 6.67007 16.617 6.87657 16.7481L6.93018 16.7818C7.75817 17.31 8.64174 17.7428 9.55709 18.0983L9.59879 18.1141C11.0641 18.682 12.599 19.0891 14.1636 19.2499L14.2113 19.2539C14.5051 19.2856 14.799 19.3015 15.0949 19.3114C15.1385 19.3134 15.1802 19.3154 15.2239 19.3174C15.3272 19.3214 15.4304 19.3253 15.5337 19.3293L15.5535 18.7336L15.4185 18.7277C14.5726 18.684 13.7367 18.6006 12.9127 18.3961L12.8353 18.3782C11.9576 18.1618 11.1336 17.8461 10.3275 17.443C10.2937 17.4271 10.26 17.4093 10.2262 17.3934C9.67821 17.1174 9.16792 16.7838 8.68344 16.4105L8.64572 16.3807C8.5107 16.2775 8.37965 16.1703 8.25456 16.0551C8.20492 16.0094 8.15131 15.9677 8.0977 15.926C7.92694 15.787 7.77405 15.6262 7.63109 15.4574L7.58343 15.4018C6.88054 14.5977 6.4457 13.6168 6.49931 12.5387C6.50924 12.4175 6.53108 12.3004 6.55888 12.1813L6.57079 12.1356C6.61249 11.9648 6.66014 11.802 6.73758 11.6451C6.79913 11.6729 6.84083 11.7027 6.8865 11.7504L6.92621 11.7921C6.94805 11.8139 6.94805 11.8139 6.96989 11.8358L7.01556 11.8814C7.06322 11.9291 7.11087 11.9787 7.15852 12.0264C7.20618 12.074 7.25383 12.1217 7.30148 12.1693C7.33127 12.1991 7.36105 12.2289 7.38885 12.2587C7.46827 12.3381 7.54769 12.4136 7.63307 12.487C7.69463 12.5406 7.75221 12.5962 7.80979 12.6518C7.93885 12.773 8.07189 12.8901 8.20889 13.0053C8.25853 13.0489 8.30817 13.0906 8.35979 13.1343C8.49283 13.2495 8.62586 13.3627 8.76286 13.4719C8.78471 13.4897 8.80655 13.5076 8.82839 13.5255C9.14806 13.7836 9.47966 14.0278 9.81522 14.2661L9.86287 14.2999C10.0853 14.4587 10.3116 14.6096 10.5439 14.7526C10.5896 14.7804 10.6353 14.8101 10.6789 14.8379C10.941 15.0087 11.2111 15.1636 11.4831 15.3185L11.5327 15.3463C11.8743 15.5389 12.2217 15.7215 12.5732 15.8923C12.601 15.9062 12.6308 15.9201 12.6586 15.934C13.5898 16.3926 14.5687 16.7242 15.5793 16.9506L15.625 16.9605C15.6985 16.9804 15.6985 16.9804 15.7719 16.9863L15.9109 16.3907L15.6131 16.3311C15.5634 16.3192 15.5138 16.3073 15.4662 16.2934L15.3907 16.2735C15.3649 16.2656 15.3391 16.2596 15.3133 16.2517L15.2716 16.2398C14.4257 15.9995 13.6176 15.6699 12.8651 15.2132C12.8154 15.1834 12.7658 15.1537 12.7161 15.1239C12.2595 14.8499 11.8266 14.5361 11.4176 14.1966C11.3679 14.1549 11.3183 14.1132 11.2667 14.0735C11.1813 14.004 11.0999 13.9305 11.0185 13.8571C10.9728 13.8154 10.9252 13.7777 10.8755 13.7399C10.7067 13.6029 10.5558 13.4461 10.401 13.2912C10.3473 13.2376 10.2937 13.184 10.2401 13.1304C9.93038 12.8206 9.93038 12.8206 9.80727 12.6618C9.76955 12.6141 9.72785 12.5684 9.68615 12.5228C9.57893 12.4017 9.47767 12.2726 9.37839 12.1415L9.34265 12.0959C9.18182 11.8834 9.02496 11.671 8.882 11.4466L8.84229 11.3831C8.72911 11.2044 8.62586 11.0177 8.5246 10.8311L8.50275 10.7914C8.07586 9.99315 7.81773 9.01824 8.07586 8.12473C8.14535 7.90433 8.2347 7.69783 8.34589 7.4953ZM21.9471 28.7012C22.0344 28.7628 22.1138 28.8263 22.1913 28.8998C22.4137 29.1023 22.6678 29.277 22.924 29.4339C22.9478 29.4478 22.9716 29.4637 22.9954 29.4776C23.5216 29.8072 24.1014 30.0514 24.707 30.1904L24.7487 30.2003C24.9532 30.248 25.1359 30.2638 25.3424 30.2281L25.3881 30.2202C26.4265 30.0315 27.3617 29.5252 28.144 28.8243C28.2493 28.731 28.2493 28.731 28.3188 28.7032C28.4657 28.862 28.6126 29.0209 28.7516 29.1857C28.8509 29.3008 28.9482 29.416 29.0574 29.5212C29.105 29.5689 29.1467 29.6185 29.1904 29.6682C29.3135 29.8091 29.4426 29.9481 29.5776 30.0792C29.6253 30.1268 29.6689 30.1785 29.7126 30.2301C29.7563 30.2797 29.804 30.3254 29.8496 30.3711C29.8814 30.4048 29.9132 30.4386 29.9429 30.4743C30.0541 30.6034 30.1772 30.7225 30.2984 30.8416C30.3242 30.8675 30.352 30.8953 30.3778 30.9211C30.4334 30.9767 30.489 31.0323 30.5446 31.0879C30.6161 31.1593 30.6856 31.2288 30.757 31.3003C30.8126 31.3559 30.8662 31.4095 30.9218 31.4651C30.9476 31.4909 30.9735 31.5167 30.9993 31.5426C31.176 31.7213 31.176 31.7213 31.3626 31.888C31.4222 31.9397 31.4798 31.9933 31.5354 32.0469C31.5612 32.0707 31.587 32.0945 31.6128 32.1204L31.6525 32.1581C31.869 32.3606 31.869 32.3606 32.0894 32.5592C32.135 32.5989 32.1807 32.6406 32.2264 32.6823C32.3912 32.8292 32.5579 32.9742 32.7247 33.1171C32.7605 33.1469 32.7962 33.1787 32.832 33.2084C33.1099 33.4487 33.1099 33.4487 33.3959 33.683C33.4773 33.7485 33.5567 33.816 33.6361 33.8835C33.7255 33.961 33.8148 34.0344 33.9101 34.1079C33.9598 34.1456 34.0074 34.1853 34.0551 34.2251C34.2596 34.3938 34.4661 34.5567 34.6765 34.7175C34.7659 34.785 34.8553 34.8545 34.9426 34.924C35.0836 35.0332 35.2246 35.1404 35.3695 35.2437C35.4192 35.2794 35.4688 35.3151 35.5184 35.3509C35.7031 35.4859 35.8917 35.6169 36.0843 35.744L36.1201 35.7678C36.1538 35.7897 36.1876 35.8135 36.2213 35.8354L36.2809 35.8751C36.3246 35.9029 36.3663 35.9267 36.4119 35.9485C36.404 36.0379 36.3424 36.0836 36.2789 36.1392L36.2432 36.1709C35.5919 36.7606 34.7877 37.1716 33.8803 37.1399C33.4812 37.1101 33.1238 37.0009 32.7883 36.7825L32.7505 36.7587C32.554 36.6296 32.3892 36.4688 32.2224 36.304L32.1926 36.2742C32.0715 36.1531 31.9583 36.0299 31.8531 35.8949C31.8193 35.8532 31.7836 35.8155 31.7458 35.7798C31.6724 35.7103 31.6108 35.6328 31.5473 35.5534C31.4917 35.4859 31.4361 35.4184 31.3785 35.3529C31.2931 35.2536 31.2097 35.1523 31.1263 35.0511C31.0747 34.9875 31.0211 34.926 30.9695 34.8644C30.896 34.779 30.8265 34.6917 30.759 34.6023C30.7213 34.5527 30.6796 34.503 30.6399 34.4554C30.5426 34.3382 30.4493 34.2171 30.354 34.098C30.3281 34.0642 30.3004 34.0305 30.2745 33.9947C30.1494 33.8359 30.0263 33.677 29.9032 33.5182C29.8556 33.4566 29.8079 33.3951 29.7603 33.3355C29.6193 33.1548 29.4803 32.9742 29.3433 32.7895C29.3135 32.7498 29.2857 32.7121 29.2559 32.6723C29.1189 32.4897 28.9839 32.305 28.8509 32.1204C28.8191 32.0747 28.7854 32.029 28.7536 31.9853C28.6067 31.7868 28.4637 31.5843 28.3207 31.3817L28.287 31.3321C28.144 31.1315 28.003 30.929 27.8641 30.7265C27.7568 30.8059 27.6516 30.8893 27.5483 30.9747C27.5067 31.0045 27.5067 31.0045 27.4669 31.0045C27.6039 31.2546 27.7509 31.5009 27.8958 31.7451C27.9494 31.8364 28.005 31.9278 28.0586 32.0211C28.2175 32.2911 28.3783 32.5592 28.5471 32.8232C28.5928 32.8967 28.6404 32.9702 28.6861 33.0436C28.7377 33.1251 28.7893 33.2065 28.839 33.2899C28.8608 33.3256 28.8846 33.3613 28.9065 33.3971C29.2718 33.9848 29.665 34.5567 30.0641 35.1225L30.0939 35.1642C30.4413 35.6547 30.8007 36.1372 31.1641 36.6137C31.2336 36.7031 31.3011 36.7944 31.3686 36.8857C31.5393 37.1121 31.7141 37.3365 31.8928 37.5568C31.9186 37.5906 31.9464 37.6224 31.9722 37.6561L32.0119 37.7058C32.0377 37.7395 32.0635 37.7713 32.0913 37.805C32.1747 37.9103 32.2601 38.0135 32.3455 38.1188C32.3753 38.1545 32.4051 38.1902 32.4329 38.226C32.5977 38.4305 32.7684 38.6291 32.9451 38.8236C32.9848 38.8673 33.0226 38.911 33.0603 38.9547C33.1 39.0004 33.1397 39.044 33.1834 39.0857C33.2251 39.1254 33.2251 39.1254 33.2251 39.1652C33.1933 39.191 33.1933 39.191 33.1477 39.2188L33.096 39.2505C32.3971 39.6774 31.587 39.9773 30.761 39.7966C30.1435 39.6477 29.6828 39.2426 29.3532 38.7144C29.0236 38.1664 28.8012 37.5509 28.559 36.9612L28.5411 36.9155C28.4458 36.6872 28.3525 36.4568 28.2612 36.2265L28.2473 36.1908C27.9296 35.3946 27.6139 34.5964 27.3081 33.7942C27.2863 33.7346 27.2624 33.6751 27.2406 33.6155C27.1334 33.3355 27.0301 33.0556 26.9249 32.7756C26.8514 32.579 26.7779 32.3825 26.7045 32.1879C26.6906 32.1521 26.6767 32.1144 26.6628 32.0787C26.6211 31.9714 26.5794 31.8642 26.5337 31.759L26.5 31.7749C26.4483 31.7987 26.3987 31.8245 26.3471 31.8483L26.2935 31.8741L26.2418 31.898L26.1942 31.9198C26.1565 31.9377 26.1565 31.9377 26.1168 31.9377C26.3054 32.6684 26.502 33.3971 26.7124 34.1218L26.7343 34.1953C27.0559 35.3092 27.4074 36.4132 27.7886 37.5072C27.8144 37.5807 27.8402 37.6561 27.866 37.7296C28.3009 38.9904 28.7556 40.2612 29.3393 41.4625L29.3711 41.526C29.391 41.5657 29.4108 41.6054 29.4307 41.6451L29.4565 41.6987L29.4803 41.7464C29.4922 41.7861 29.4922 41.7861 29.4724 41.8457C29.4366 41.8715 29.4366 41.8715 29.391 41.8993L29.3393 41.9311L29.2818 41.9628L29.2222 41.9966C28.5054 42.4096 27.6059 42.9119 26.7482 42.7074C26.4384 42.6081 26.1942 42.4374 26.0314 42.1534C25.6521 41.385 25.7216 40.3267 25.6819 39.4868C25.6779 39.4114 25.676 39.3359 25.672 39.2605C25.6561 38.9011 25.6402 38.5417 25.6243 38.1823C25.5965 37.5072 25.5608 36.8321 25.5251 36.157C25.4992 35.6825 25.4734 35.2059 25.4496 34.7314L25.4476 34.6917C25.4337 34.4177 25.4198 34.1417 25.4059 33.8677C25.4019 33.7704 25.396 33.6731 25.392 33.5758C25.3881 33.5083 25.3861 33.4427 25.3821 33.3752C25.3702 33.1469 25.3583 32.9205 25.3444 32.6922H24.9075L24.8996 32.861C24.8102 34.7294 24.8102 34.7294 24.7765 35.339C24.7527 35.7857 24.7308 36.2325 24.709 36.6772L24.707 36.7289C24.6792 37.2828 24.6534 37.8368 24.6315 38.3908C24.6216 38.633 24.6117 38.8753 24.5958 39.1175C24.5879 39.2327 24.5859 39.3498 24.5839 39.467C24.5184 41.4883 24.5184 41.4883 24.2702 42.0045L24.2444 42.0601C24.0915 42.3719 23.8214 42.5883 23.4958 42.6995C23.1841 42.7948 22.8286 42.7571 22.5229 42.6598L22.4752 42.6459C22.233 42.5664 21.9987 42.4711 21.7684 42.3619L21.7128 42.3361C21.3851 42.1852 21.0555 42.0264 20.7557 41.8258C20.7815 41.7583 20.8113 41.6928 20.8431 41.6273C21.3474 40.6027 21.7644 39.5345 22.1476 38.4583C22.1714 38.3908 22.1972 38.3213 22.2211 38.2538C22.511 37.4516 22.783 36.6435 23.0391 35.8294L23.057 35.7718C23.3469 34.8505 23.605 33.9193 23.8592 32.9861L23.877 32.9205C23.9406 32.6902 24.0001 32.4599 24.0597 32.2296L24.0756 32.168L24.0895 32.1104L24.1014 32.0608C24.1133 32.0111 24.1133 32.0111 24.1093 31.9357L23.7122 31.757C23.6209 31.9675 23.5435 32.1839 23.464 32.4003C22.8664 34.0503 22.2429 35.6924 21.5579 37.3067C21.538 37.3543 21.5182 37.4 21.4983 37.4476C20.714 39.3101 20.714 39.3101 19.8026 39.7013C19.1673 39.9534 18.4564 39.8641 17.8369 39.602C17.553 39.4769 17.281 39.3379 17.0228 39.1652C17.0546 39.0917 17.1003 39.0401 17.1559 38.9805C17.1737 38.9606 17.1916 38.9408 17.2095 38.9229L17.2611 38.8673C17.2968 38.8276 17.3306 38.7879 17.3663 38.7462C17.4021 38.7045 17.4398 38.6628 17.4775 38.6211C17.551 38.5397 17.6205 38.4543 17.688 38.3689C17.7416 38.3034 17.7972 38.2379 17.8548 38.1744C17.9441 38.0711 18.0295 37.9639 18.1129 37.8567C18.1745 37.7772 18.238 37.6998 18.3035 37.6244C18.4008 37.5112 18.4922 37.394 18.5815 37.2749C18.6391 37.2034 18.6947 37.1319 18.7503 37.0605C18.8555 36.9274 18.9588 36.7924 19.062 36.6574C19.0799 36.6336 19.0978 36.6097 19.1176 36.5859C19.9972 35.4402 20.8292 34.2628 21.5877 33.0337C21.6294 32.9662 21.6711 32.8987 21.7128 32.8332C21.9768 32.4102 22.227 31.9754 22.4752 31.5426C22.5209 31.4651 22.5666 31.3857 22.6122 31.3083L22.644 31.2546C22.6638 31.2229 22.6817 31.1891 22.7016 31.1574C22.7453 31.0839 22.7453 31.0839 22.7611 31.0045C22.7274 30.9727 22.7274 30.9727 22.6837 30.9409L22.6341 30.9032L22.5824 30.8655C22.5487 30.8397 22.5149 30.8138 22.4812 30.788L22.4355 30.7523L22.4037 30.7265C22.3064 30.8436 22.2171 30.9648 22.1337 31.0918C21.8855 31.4691 21.6155 31.8305 21.3514 32.1958L21.3097 32.2534C21.135 32.4936 20.9602 32.7319 20.7815 32.9702C20.7478 33.0139 20.716 33.0575 20.6822 33.1012C20.5433 33.2879 20.4003 33.4745 20.2553 33.6572C20.2077 33.7187 20.16 33.7803 20.1124 33.8418C19.9913 33.9967 19.8721 34.1516 19.749 34.3045C19.7212 34.3402 19.6934 34.374 19.6676 34.4097C19.5544 34.5547 19.4413 34.6956 19.3261 34.8366C19.2963 34.8724 19.2685 34.9081 19.2387 34.9438C19.1633 35.0352 19.0858 35.1265 19.0104 35.2178C18.9508 35.2873 18.8952 35.3568 18.8377 35.4263C18.7662 35.5157 18.6907 35.5991 18.6133 35.6845C18.5756 35.7262 18.5378 35.7678 18.5021 35.8095C18.4346 35.887 18.3651 35.9624 18.2976 36.0399C18.2618 36.0816 18.2261 36.1213 18.1904 36.163C17.7059 36.713 17.1082 37.0942 16.3616 37.1438C15.6051 37.1657 14.8228 36.8599 14.243 36.3854L14.2073 36.3556C14.0663 36.2424 13.9333 36.1193 13.8062 35.9882C13.8479 35.9446 13.8896 35.9128 13.9392 35.881L13.9849 35.8532L14.0326 35.8234C14.2232 35.7043 14.4078 35.5772 14.5925 35.4462C14.6382 35.4144 14.6819 35.3826 14.7275 35.3509C14.9142 35.2198 15.0949 35.0848 15.2755 34.9458C15.3232 34.9101 15.3689 34.8743 15.4165 34.8366C15.4483 34.8128 15.4801 34.789 15.5118 34.7632C15.5535 34.7314 15.5932 34.6996 15.6349 34.6678C15.768 34.5666 15.899 34.4613 16.0301 34.3561C16.1174 34.2846 16.2048 34.2151 16.2921 34.1476C16.4053 34.0603 16.5145 33.9669 16.6237 33.8736C16.7329 33.7803 16.8441 33.6909 16.9553 33.5996C17.0824 33.4964 17.2055 33.3911 17.3286 33.2859C17.3941 33.2303 17.4597 33.1727 17.5272 33.1171C17.7337 32.9424 17.9382 32.7657 18.1367 32.583C18.1804 32.5433 18.2261 32.5036 18.2698 32.4639C18.3532 32.3944 18.4326 32.3209 18.512 32.2454C18.5895 32.172 18.6689 32.0985 18.7503 32.027C18.8297 31.9575 18.9032 31.8841 18.9786 31.8086C19.0501 31.7352 19.1216 31.6637 19.199 31.5982C19.3023 31.5088 19.3976 31.4135 19.4929 31.3162C19.5127 31.2963 19.5326 31.2765 19.5505 31.2586C19.5902 31.2189 19.6319 31.1772 19.6716 31.1375C19.7232 31.0859 19.7748 31.0342 19.8265 30.9826C19.8662 30.9429 19.9059 30.9032 19.9476 30.8615C19.9754 30.8337 20.0032 30.8059 20.033 30.7781C20.1223 30.6888 20.2077 30.5974 20.2911 30.5021C20.3288 30.4584 20.3705 30.4167 20.4122 30.375L20.4599 30.3274L20.5572 30.2301C20.6425 30.1447 20.7259 30.0593 20.8054 29.968C20.851 29.9144 20.8987 29.8628 20.9463 29.8111L20.9761 29.7794C21.0456 29.7059 21.1131 29.6324 21.1826 29.557C21.2878 29.4458 21.3911 29.3346 21.4904 29.2175C21.5321 29.1698 21.5738 29.1202 21.6155 29.0725L21.6492 29.0328C21.7465 28.9216 21.8458 28.8104 21.9471 28.7012Z" fill="#FDFDFD"/>
<path d="M27.0629 12.7811L27.1165 12.8248C27.4699 13.1266 27.6665 13.5575 27.8571 13.9725L27.8809 14.0241L27.9028 14.0718L27.9226 14.1154C27.9365 14.1512 27.9365 14.1512 27.9365 14.1909L27.9782 14.2068C28.0418 14.2326 28.0993 14.2663 28.1569 14.3001L28.1927 14.32C28.2304 14.3418 28.2681 14.3636 28.3058 14.3855L28.3456 14.4093C28.562 14.5384 28.7784 14.6694 28.9889 14.8064L29.0246 14.8302C29.3006 15.007 29.5786 15.2095 29.7434 15.5014L29.7235 15.5609H29.658C29.39 15.5589 29.1199 15.5589 28.8499 15.5609H28.7844C28.6533 15.5609 28.5223 15.5629 28.3912 15.5649C28.3495 15.5649 28.3078 15.5649 28.2661 15.5669C27.9425 15.5689 27.6526 15.5848 27.3806 15.7793L27.327 15.8151C27.051 16.0831 26.9676 16.4624 26.9557 16.8337C26.9517 17.064 26.9854 17.2824 27.043 17.5068L27.0629 17.5803C27.2853 18.3507 27.6586 19.0813 28.0199 19.7942C28.2066 20.1655 28.3853 20.5407 28.5521 20.922L28.5719 20.9657C28.836 21.5693 29.0862 22.1967 29.2073 22.848L29.2152 22.8897C29.2649 23.1617 29.2768 23.4278 29.2768 23.7038V23.7653C29.2748 24.087 29.2569 24.3987 29.1874 24.7144L29.1735 24.776C29.0107 25.5146 28.7049 26.2155 28.2741 26.8389C28.2636 26.8546 28.2566 26.8649 28.2463 26.8806C28.1093 27.0812 27.9643 27.2718 27.8095 27.4565C27.7797 27.4922 27.7519 27.5259 27.7241 27.5617C27.4858 27.8496 27.2197 28.1216 26.9239 28.348C26.902 28.3658 26.8802 28.3837 26.8584 28.4016C26.5963 28.62 26.3123 28.8047 26.0085 28.9635L25.9589 28.9893C25.6531 29.1482 25.1584 29.1496 24.8248 29.0443C24.243 28.8418 23.9594 28.5267 23.4967 28.1276C23.4531 28.0898 23.4094 28.0541 23.3657 28.0164C23.2029 27.8814 23.052 27.7384 22.903 27.5875C22.8673 27.5518 22.8316 27.516 22.7958 27.4803C22.6588 27.3453 22.5337 27.2083 22.4166 27.0573C22.3987 27.0335 22.3789 27.0117 22.361 26.9879C21.672 26.1281 21.2669 25.1333 21.1458 24.0393L21.1399 23.9937C21.1279 23.8745 21.122 23.7574 21.122 23.6382V23.5807C21.122 23.5211 21.122 23.4615 21.122 23.4V23.3384C21.122 23.0386 21.1319 22.7467 21.1855 22.4509C21.1915 22.4092 21.1994 22.3695 21.2054 22.3278C21.3563 21.4541 21.6839 20.6361 22.0354 19.8279C22.4245 18.9285 22.6926 18.0091 22.7899 17.0322L22.7978 16.9627C22.8455 16.4465 22.8415 15.9283 22.8455 15.412C22.8475 15.3068 22.8475 15.2035 22.8494 15.0983C22.8494 15.0506 22.8494 15.003 22.8514 14.9553C22.8534 14.8005 22.8574 14.6476 22.8653 14.4927L22.8673 14.447C22.8733 14.3438 22.8852 14.2465 22.909 14.1472L22.9189 14.1035C23.0341 13.6349 23.3002 13.2458 23.6278 12.9003L23.6615 12.8625C23.9554 12.5468 24.3863 12.3284 24.7993 12.2252L24.8529 12.2113C25.6313 12.0326 26.4593 12.2788 27.0629 12.7811ZM25.5141 13.8533C25.4129 14.0162 25.3851 14.1889 25.4248 14.3775C25.4824 14.5364 25.5638 14.6337 25.7127 14.7071C25.8616 14.7548 26.0145 14.7429 26.1555 14.6793C26.3242 14.584 26.4156 14.449 26.4752 14.2663C26.5069 14.1214 26.4752 13.9983 26.3997 13.8752C26.3024 13.7501 26.1614 13.6707 26.0026 13.6488C25.8159 13.6389 25.6372 13.7104 25.5141 13.8533Z" fill="#FEFEFE"/>
</svg>
