<svg width="50.000000" height="50.000000" viewBox="0 0 50 50" fill="none" xmlns="http://www.w3.org/2000/svg" xmlns:xlink="http://www.w3.org/1999/xlink">
	<desc>
			Created with Pixso.
	</desc>
	<defs>
		<linearGradient x1="3.351318" y1="15.625042" x2="46.647041" y2="15.625042" id="paint_linear_151_4_0" gradientUnits="userSpaceOnUse">
			<stop stop-color="#D93025"/>
			<stop offset="1.000000" stop-color="#EA4335"/>
		</linearGradient>
		<linearGradient x1="21.585274" y1="49.665672" x2="43.233192" y2="12.170460" id="paint_linear_151_6_0" gradientUnits="userSpaceOnUse">
			<stop stop-color="#FCC934"/>
			<stop offset="1.000000" stop-color="#FBBC04"/>
		</linearGradient>
		<linearGradient x1="27.706440" y1="48.439030" x2="6.058506" y2="10.943732" id="paint_linear_151_7_0" gradientUnits="userSpaceOnUse">
			<stop stop-color="#1E8E3E"/>
			<stop offset="1.000000" stop-color="#34A853"/>
		</linearGradient>
	</defs>
	<ellipse id="circle" cx="25.000000" cy="24.994507" rx="12.500000" ry="12.499998" fill="#FFFFFF" fill-opacity="1.000000"/>
	<g>
	<path id="path" d="M3.34 37.5C4.17 38.92 5.12 40.24 6.2 41.48C7.28 42.71 8.47 43.83 9.78 44.83C11.08 45.83 12.47 46.69 13.94 47.42C15.41 48.14 16.94 48.72 18.52 49.14C20.11 49.57 21.72 49.83 23.36 49.94C25 50.05 26.63 50 28.26 49.78C29.89 49.57 31.48 49.2 33.03 48.67C34.59 48.14 36.07 47.47 37.5 46.65C38.92 45.82 40.24 44.87 41.48 43.79C42.71 42.71 43.83 41.52 44.83 40.21C45.83 38.91 46.69 37.52 47.42 36.05C48.14 34.58 48.72 33.05 49.14 31.47C49.57 29.88 49.83 28.27 49.94 26.63C50.05 24.99 50 23.36 49.78 21.73C49.57 20.1 49.2 18.51 48.67 16.96C48.14 15.4 47.47 13.92 46.65 12.5C45.82 11.07 44.87 9.75 43.79 8.51C42.71 7.28 41.52 6.16 40.21 5.16C38.91 4.16 37.52 3.3 36.05 2.57C34.58 1.85 33.05 1.27 31.47 0.85C29.88 0.42 28.27 0.16 26.63 0.05C24.99 -0.06 23.36 -0.01 21.73 0.21C20.1 0.42 18.51 0.79 16.96 1.32C15.4 1.85 13.92 2.52 12.5 3.34C11.07 4.17 9.75 5.12 8.51 6.2C7.28 7.28 6.16 8.47 5.16 9.78C4.16 11.08 3.3 12.47 2.57 13.94C1.85 15.41 1.27 16.94 0.85 18.52C0.42 20.11 0.16 21.72 0.05 23.36C-0.06 25 -0.01 26.63 0.21 28.26C0.42 29.89 0.79 31.48 1.32 33.03C1.85 34.59 2.52 36.07 3.34 37.5ZM35.82 18.75C36.65 20.18 37.17 21.72 37.39 23.36C37.6 25.01 37.5 26.63 37.07 28.23C36.64 29.83 35.92 31.29 34.91 32.6C33.9 33.92 32.68 34.99 31.25 35.82C29.81 36.65 28.27 37.17 26.63 37.39C24.98 37.6 23.36 37.5 21.76 37.07C20.16 36.64 18.7 35.92 17.39 34.91C16.07 33.9 15 32.68 14.17 31.25C13.34 29.81 12.82 28.27 12.6 26.63C12.39 24.98 12.49 23.36 12.92 21.76C13.35 20.16 14.07 18.7 15.08 17.39C16.09 16.07 17.31 15 18.75 14.17C20.18 13.34 21.72 12.82 23.36 12.6C25.01 12.39 26.63 12.49 28.23 12.92C29.83 13.35 31.29 14.07 32.6 15.08C33.92 16.09 34.99 17.31 35.82 18.75Z" fill="#000000" fill-opacity="0" fill-rule="nonzero"/>
	<path id="path" d="M25 12.5L46.64 12.5C44.41 8.63 41.36 5.58 37.49 3.34C33.63 1.11 29.46 0 25 0C20.53 0 16.36 1.11 12.49 3.35C8.63 5.58 5.58 8.63 3.35 12.5L14.17 31.25C13.05 29.31 12.5 27.23 12.5 24.99C12.49 22.76 13.05 20.68 14.17 18.74C15.28 16.81 16.81 15.28 18.74 14.16C20.68 13.05 22.76 12.49 25 12.5Z" fill="url(#paint_linear_151_4_0)" fill-opacity="1.000000" fill-rule="nonzero"/>
	<circle id="circle" cx="25.000000" cy="25.000000" r="9.895833" fill="#1A73E8" fill-opacity="1.000000"/>
	<path id="path" d="M35.82 31.25L25 50C29.46 50 33.63 48.88 37.5 46.65C41.36 44.41 44.41 41.36 46.65 37.5C48.88 33.63 49.99 29.46 49.99 25C49.99 20.53 48.87 16.36 46.64 12.5L24.99 12.5C27.23 12.49 29.31 13.06 31.25 14.17C33.18 15.29 34.71 16.81 35.83 18.75C36.94 20.68 37.5 22.76 37.5 25C37.5 27.23 36.94 29.31 35.82 31.25Z" fill="url(#paint_linear_151_6_0)" fill-opacity="1.000000" fill-rule="nonzero"/>
	<path id="path" d="M14.17 31.25L3.35 12.5C1.11 16.37 0 20.53 0 25C0 29.47 1.11 33.63 3.35 37.5C5.58 41.37 8.63 44.42 12.5 46.65C16.37 48.88 20.53 50 25 50L35.82 31.25C34.71 33.18 33.18 34.71 31.24 35.82C29.31 36.94 27.23 37.5 24.99 37.5C22.76 37.5 20.68 36.95 18.74 35.83C16.81 34.71 15.29 33.18 14.17 31.25Z" fill="url(#paint_linear_151_7_0)" fill-opacity="1.000000" fill-rule="nonzero"/>
	<animateTransform
attributeName="transform"
type="rotate"
values="360 25 25; 0 25 25;"
dur="5s"
keyTimes="0; 1"
repeatCount="indefinite"
/>
	</g>
</svg>
