<svg width="50.000000" height="50.000000" viewBox="0 0 50 50" fill="none" xmlns="http://www.w3.org/2000/svg" xmlns:xlink="http://www.w3.org/1999/xlink">
	<desc>
			Created with Pixso.
	</desc>
	<defs/>
	<g opacity="0.000000">
		<rect id="Прямоугольник 39" width="50.000000" height="50.000000" fill="#C4C4C4" fill-opacity="1.000000"/>
	</g>
	<path id="path" d="M48.34 13C48.88 13 49.42 13 49.96 13C49.97 13 49.98 13.01 50 13.01C50 21 50 28.98 50 36.96C49.88 37 0.3 37.01 0 36.98C0 36.46 0 35.94 0.01 35.4C0.3 35.39 0.57 35.39 0.83 35.39C1.1 35.39 1.37 35.39 1.66 35.39C1.66 35.02 1.66 34.67 1.66 34.33C1.66 33.98 1.66 33.63 1.66 33.29C1.66 32.94 1.66 32.6 1.66 32.25C1.66 31.9 1.66 31.56 1.66 31.21C1.66 30.87 1.66 30.53 1.66 30.18C1.66 29.84 1.66 29.49 1.66 29.15C1.66 28.8 1.66 28.45 1.66 28.11C1.66 27.76 1.66 27.41 1.66 27.07C1.66 26.72 1.66 26.37 1.66 26.03C1.66 25.68 1.66 25.33 1.66 24.99C1.66 24.64 1.66 24.29 1.66 23.95C1.66 23.6 1.66 23.25 1.66 22.91C1.66 22.56 1.66 22.21 1.66 21.87C1.66 21.52 1.66 21.17 1.66 20.83C1.66 20.49 1.66 20.14 1.66 19.8C1.66 19.46 1.66 19.11 1.66 18.76C1.66 18.42 1.66 18.07 1.66 17.72C1.66 17.38 1.66 17.03 1.66 16.68C1.66 16.34 1.66 15.99 1.66 15.64C1.67 15.3 1.66 14.96 1.67 14.63C1.7 14.61 1.7 14.6 1.7 14.6C1.71 14.6 1.72 14.6 1.72 14.6C1.73 14.6 1.73 14.6 1.74 14.59C1.74 14.59 1.75 14.59 1.75 14.59C1.76 14.59 1.76 14.59 1.77 14.59C1.78 14.59 1.78 14.59 1.79 14.59C1.79 14.59 1.8 14.59 1.8 14.59C1.81 14.59 1.81 14.59 1.82 14.59C1.83 14.59 1.83 14.59 1.84 14.59C1.84 14.59 1.85 14.59 1.85 14.59C17.28 14.59 32.7 14.59 48.13 14.59C48.14 14.59 48.15 14.59 48.16 14.59C48.17 14.59 48.17 14.59 48.18 14.59C48.18 14.59 48.19 14.59 48.2 14.59C48.2 14.59 48.21 14.59 48.21 14.59C48.22 14.59 48.22 14.59 48.23 14.59C48.23 14.59 48.24 14.59 48.25 14.59C48.25 14.59 48.26 14.59 48.26 14.59C48.27 14.59 48.27 14.59 48.28 14.59C48.28 14.59 48.29 14.58 48.29 14.58C48.3 14.58 48.31 14.58 48.31 14.58C48.31 14.57 48.32 14.57 48.34 14.55C48.34 14.04 48.34 13.52 48.34 13ZM3.33 27.42C3.33 27.94 3.34 28.47 3.33 29.02C3.33 29.54 3.33 30.07 3.33 30.62C3.33 31.14 3.33 31.66 3.33 32.22C3.33 32.74 3.34 33.27 3.33 33.82C3.33 34.34 3.33 34.86 3.33 35.38C18.34 35.38 33.33 35.38 48.34 35.38C48.34 35.32 48.34 35.27 48.34 35.23C48.34 28.89 48.33 22.56 48.33 16.23C48.33 16.22 48.33 16.22 48.32 16.21C48.32 16.21 48.31 16.21 48.3 16.19C47.77 16.19 47.22 16.19 46.65 16.19C46.45 16.19 46.26 16.19 46.07 16.19C45.71 16.19 45.36 16.2 44.98 16.19C44.43 16.2 43.88 16.2 43.3 16.2C42.76 16.2 42.22 16.19 41.65 16.19C41.45 16.19 41.26 16.19 41.07 16.19C40.71 16.19 40.36 16.2 39.97 16.19C39.43 16.2 38.88 16.2 38.3 16.2C37.76 16.2 37.22 16.19 36.64 16.19C36.45 16.19 36.26 16.19 36.06 16.19C35.71 16.19 35.36 16.2 34.97 16.19C34.43 16.2 33.88 16.2 33.3 16.2C32.76 16.2 32.22 16.19 31.64 16.19C31.45 16.19 31.26 16.19 31.06 16.19C30.71 16.19 30.36 16.2 29.97 16.19C29.43 16.2 28.88 16.2 28.3 16.2C27.76 16.2 27.22 16.19 26.64 16.19C26.45 16.19 26.26 16.19 26.06 16.19C25.71 16.19 25.36 16.2 24.97 16.19C24.42 16.2 23.88 16.2 23.3 16.2C22.76 16.2 22.22 16.19 21.64 16.19C21.45 16.19 21.25 16.19 21.06 16.19C20.71 16.19 20.35 16.2 19.97 16.19C19.42 16.2 18.88 16.2 18.3 16.2C17.76 16.2 17.21 16.19 16.64 16.19C16.45 16.19 16.25 16.19 16.06 16.19C15.71 16.19 15.35 16.2 14.97 16.19C14.42 16.2 13.88 16.2 13.3 16.2C12.76 16.2 12.21 16.19 11.64 16.19C11.45 16.19 11.25 16.19 11.06 16.19C10.71 16.19 10.35 16.2 9.97 16.19C9.42 16.2 8.87 16.2 8.3 16.2C7.75 16.2 7.21 16.19 6.64 16.19C6.44 16.19 6.25 16.19 6.06 16.19C5.7 16.19 5.35 16.2 4.97 16.19C4.78 16.19 4.6 16.19 4.42 16.19C4.24 16.19 4.06 16.19 3.88 16.19C3.7 16.2 3.52 16.18 3.34 16.2C3.34 16.75 3.34 17.27 3.33 17.82C3.33 18.34 3.34 18.87 3.33 19.42C3.33 19.95 3.33 20.47 3.33 21.02C3.33 21.54 3.33 22.07 3.33 22.62C3.33 23.14 3.34 23.67 3.33 24.22C3.33 24.75 3.33 25.27 3.33 25.82C3.33 26.34 3.34 26.86 3.33 27.42Z" fill="#FE758C" fill-opacity="1.000000" fill-rule="nonzero"/>
	<path id="path" d="M49.96 13C49.97 13 49.98 13.01 50 13.01C50 21 50 28.98 50 36.96C49.88 37 0.3 37.01 0 36.98C0 36.46 0 35.94 0.01 35.4C0.3 35.39 0.57 35.39 0.83 35.39C1.1 35.39 1.37 35.39 1.66 35.39C1.66 35.02 1.66 34.67 1.66 34.33C1.66 33.98 1.66 33.63 1.66 33.29C1.66 32.94 1.66 32.6 1.66 32.25C1.66 31.9 1.66 31.56 1.66 31.21C1.66 30.87 1.66 30.53 1.66 30.18C1.66 29.84 1.66 29.49 1.66 29.15C1.66 28.8 1.66 28.45 1.66 28.11C1.66 27.76 1.66 27.41 1.66 27.07C1.66 26.72 1.66 26.37 1.66 26.03C1.66 25.68 1.66 25.33 1.66 24.99C1.66 24.64 1.66 24.29 1.66 23.95C1.66 23.6 1.66 23.25 1.66 22.91C1.66 22.56 1.66 22.21 1.66 21.87C1.66 21.52 1.66 21.17 1.66 20.83C1.66 20.49 1.66 20.14 1.66 19.8C1.66 19.46 1.66 19.11 1.66 18.76C1.66 18.42 1.66 18.07 1.66 17.72C1.66 17.38 1.66 17.03 1.66 16.68C1.66 16.34 1.66 15.99 1.66 15.64C1.67 15.3 1.66 14.96 1.67 14.63C1.7 14.61 1.7 14.6 1.7 14.6C1.71 14.6 1.72 14.6 1.72 14.6C1.73 14.6 1.73 14.6 1.74 14.59C1.74 14.59 1.75 14.59 1.75 14.59C1.76 14.59 1.76 14.59 1.77 14.59C1.78 14.59 1.78 14.59 1.79 14.59C1.79 14.59 1.8 14.59 1.8 14.59C1.81 14.59 1.81 14.59 1.82 14.59C1.83 14.59 1.83 14.59 1.84 14.59C1.84 14.59 1.85 14.59 1.85 14.59C17.28 14.59 32.7 14.59 48.13 14.59C48.14 14.59 48.15 14.59 48.16 14.59C48.17 14.59 48.17 14.59 48.18 14.59C48.18 14.59 48.19 14.59 48.2 14.59C48.2 14.59 48.21 14.59 48.21 14.59C48.22 14.59 48.22 14.59 48.23 14.59C48.23 14.59 48.24 14.59 48.25 14.59C48.25 14.59 48.26 14.59 48.26 14.59C48.27 14.59 48.27 14.59 48.28 14.59C48.28 14.59 48.29 14.58 48.29 14.58C48.3 14.58 48.31 14.58 48.31 14.58C48.31 14.57 48.32 14.57 48.34 14.55C48.34 14.04 48.34 13.52 48.34 13C48.88 13 49.42 13 49.96 13ZM3.33 29.02C3.33 29.54 3.33 30.07 3.33 30.62C3.33 31.14 3.33 31.66 3.33 32.22C3.33 32.74 3.34 33.27 3.33 33.82C3.33 34.34 3.33 34.86 3.33 35.38C18.34 35.38 33.33 35.38 48.34 35.38C48.34 35.32 48.34 35.27 48.34 35.23C48.34 28.89 48.33 22.56 48.33 16.23C48.33 16.22 48.33 16.22 48.32 16.21C48.32 16.21 48.31 16.21 48.3 16.19C47.77 16.19 47.22 16.19 46.65 16.19C46.45 16.19 46.26 16.19 46.07 16.19C45.71 16.19 45.36 16.2 44.98 16.19C44.43 16.2 43.88 16.2 43.3 16.2C42.76 16.2 42.22 16.19 41.65 16.19C41.45 16.19 41.26 16.19 41.07 16.19C40.71 16.19 40.36 16.2 39.97 16.19C39.43 16.2 38.88 16.2 38.3 16.2C37.76 16.2 37.22 16.19 36.64 16.19C36.45 16.19 36.26 16.19 36.06 16.19C35.71 16.19 35.36 16.2 34.97 16.19C34.43 16.2 33.88 16.2 33.3 16.2C32.76 16.2 32.22 16.19 31.64 16.19C31.45 16.19 31.26 16.19 31.06 16.19C30.71 16.19 30.36 16.2 29.97 16.19C29.43 16.2 28.88 16.2 28.3 16.2C27.76 16.2 27.22 16.19 26.64 16.19C26.45 16.19 26.26 16.19 26.06 16.19C25.71 16.19 25.36 16.2 24.97 16.19C24.42 16.2 23.88 16.2 23.3 16.2C22.76 16.2 22.22 16.19 21.64 16.19C21.45 16.19 21.25 16.19 21.06 16.19C20.71 16.19 20.35 16.2 19.97 16.19C19.42 16.2 18.88 16.2 18.3 16.2C17.76 16.2 17.21 16.19 16.64 16.19C16.45 16.19 16.25 16.19 16.06 16.19C15.71 16.19 15.35 16.2 14.97 16.19C14.42 16.2 13.88 16.2 13.3 16.2C12.76 16.2 12.21 16.19 11.64 16.19C11.45 16.19 11.25 16.19 11.06 16.19C10.71 16.19 10.35 16.2 9.97 16.19C9.42 16.2 8.87 16.2 8.3 16.2C7.75 16.2 7.21 16.19 6.64 16.19C6.44 16.19 6.25 16.19 6.06 16.19C5.7 16.19 5.35 16.2 4.97 16.19C4.78 16.19 4.6 16.19 4.42 16.19C4.24 16.19 4.06 16.19 3.88 16.19C3.7 16.2 3.52 16.18 3.34 16.2C3.34 16.75 3.34 17.27 3.33 17.82C3.33 18.34 3.34 18.87 3.33 19.42C3.33 19.95 3.33 20.47 3.33 21.02C3.33 21.54 3.33 22.07 3.33 22.62C3.33 23.14 3.34 23.67 3.33 24.22C3.33 24.75 3.33 25.27 3.33 25.82C3.33 26.34 3.34 26.86 3.33 27.42C3.33 27.94 3.34 28.47 3.33 29.02Z" stroke="#000000" stroke-opacity="0" stroke-width="1.000000"/>
	<path id="path" d="M48.32 13C48.34 13.52 48.34 14.04 48.34 14.55C48.32 14.57 48.31 14.57 48.31 14.58C48.31 14.58 48.3 14.58 48.29 14.58C48.29 14.58 48.28 14.59 48.28 14.59C48.27 14.59 48.27 14.59 48.26 14.59C48.26 14.59 48.25 14.59 48.25 14.59C48.24 14.59 48.23 14.59 48.23 14.59C48.22 14.59 48.22 14.59 48.21 14.59C48.21 14.59 48.2 14.59 48.2 14.59C48.19 14.59 48.18 14.59 48.18 14.59C48.17 14.59 48.17 14.59 48.16 14.59C48.15 14.59 48.14 14.59 48.13 14.59C32.7 14.59 17.28 14.59 1.85 14.59C1.85 14.59 1.84 14.59 1.84 14.59C1.83 14.59 1.83 14.59 1.82 14.59C1.81 14.59 1.81 14.59 1.8 14.59C1.8 14.59 1.79 14.59 1.79 14.59C1.78 14.59 1.78 14.59 1.77 14.59C1.76 14.59 1.76 14.59 1.75 14.59C1.75 14.59 1.74 14.59 1.74 14.59C1.73 14.6 1.73 14.6 1.72 14.6C1.72 14.6 1.71 14.6 1.7 14.6C1.7 14.6 1.7 14.61 1.67 14.63C1.66 14.96 1.67 15.3 1.66 15.64C1.66 15.99 1.66 16.34 1.66 16.68C1.66 17.03 1.66 17.38 1.66 17.72C1.66 18.07 1.66 18.42 1.66 18.76C1.66 19.11 1.66 19.46 1.66 19.8C1.66 20.14 1.66 20.49 1.66 20.83C1.66 21.17 1.66 21.52 1.66 21.87C1.66 22.21 1.66 22.56 1.66 22.91C1.66 23.25 1.66 23.6 1.66 23.95C1.66 24.29 1.66 24.64 1.66 24.99C1.66 25.33 1.66 25.68 1.66 26.03C1.66 26.37 1.66 26.72 1.66 27.07C1.66 27.41 1.66 27.76 1.66 28.11C1.66 28.45 1.66 28.8 1.66 29.15C1.66 29.49 1.66 29.84 1.66 30.18C1.66 30.53 1.66 30.87 1.66 31.21C1.66 31.56 1.66 31.9 1.66 32.25C1.66 32.59 1.66 32.94 1.66 33.29C1.66 33.63 1.66 33.98 1.66 34.33C1.66 34.67 1.66 35.02 1.66 35.39C1.37 35.39 1.1 35.39 0.83 35.39C0.57 35.39 0.3 35.39 0.02 35.39C0 35.33 0 35.27 0 35.21C0 27.87 0 20.54 0 13.2C0 13.14 0 13.08 0 13C0.07 13 0.14 13 0.2 13C3.43 13 6.66 13 9.89 13C22.63 13 35.37 13 48.11 13C48.18 13 48.24 13 48.32 13Z" fill="#FFC4DA" fill-opacity="1.000000" fill-rule="nonzero"/>
	<path id="path" d="M48.34 14.55C48.32 14.57 48.31 14.57 48.31 14.58C48.31 14.58 48.3 14.58 48.29 14.58C48.29 14.58 48.28 14.59 48.28 14.59C48.27 14.59 48.27 14.59 48.26 14.59C48.26 14.59 48.25 14.59 48.25 14.59C48.24 14.59 48.23 14.59 48.23 14.59C48.22 14.59 48.22 14.59 48.21 14.59C48.21 14.59 48.2 14.59 48.2 14.59C48.19 14.59 48.18 14.59 48.18 14.59C48.17 14.59 48.17 14.59 48.16 14.59C48.15 14.59 48.14 14.59 48.13 14.59C32.7 14.59 17.28 14.59 1.85 14.59C1.85 14.59 1.84 14.59 1.84 14.59C1.83 14.59 1.83 14.59 1.82 14.59C1.81 14.59 1.81 14.59 1.8 14.59C1.8 14.59 1.79 14.59 1.79 14.59C1.78 14.59 1.78 14.59 1.77 14.59C1.76 14.59 1.76 14.59 1.75 14.59C1.75 14.59 1.74 14.59 1.74 14.59C1.73 14.6 1.73 14.6 1.72 14.6C1.72 14.6 1.71 14.6 1.7 14.6C1.7 14.6 1.7 14.61 1.67 14.63C1.66 14.96 1.67 15.3 1.66 15.64C1.66 15.99 1.66 16.34 1.66 16.68C1.66 17.03 1.66 17.38 1.66 17.72C1.66 18.07 1.66 18.42 1.66 18.76C1.66 19.11 1.66 19.46 1.66 19.8C1.66 20.14 1.66 20.49 1.66 20.83C1.66 21.17 1.66 21.52 1.66 21.87C1.66 22.21 1.66 22.56 1.66 22.91C1.66 23.25 1.66 23.6 1.66 23.95C1.66 24.29 1.66 24.64 1.66 24.99C1.66 25.33 1.66 25.68 1.66 26.03C1.66 26.37 1.66 26.72 1.66 27.07C1.66 27.41 1.66 27.76 1.66 28.11C1.66 28.45 1.66 28.8 1.66 29.15C1.66 29.49 1.66 29.84 1.66 30.18C1.66 30.53 1.66 30.87 1.66 31.21C1.66 31.56 1.66 31.9 1.66 32.25C1.66 32.59 1.66 32.94 1.66 33.29C1.66 33.63 1.66 33.98 1.66 34.33C1.66 34.67 1.66 35.02 1.66 35.39C1.37 35.39 1.1 35.39 0.83 35.39C0.57 35.39 0.3 35.39 0.02 35.39C0 35.33 0 35.27 0 35.21C0 27.87 0 20.54 0 13.2C0 13.14 0 13.08 0 13C0.07 13 0.14 13 0.2 13C3.43 13 6.66 13 9.89 13C22.63 13 35.37 13 48.11 13C48.18 13 48.24 13 48.32 13C48.34 13.52 48.34 14.04 48.34 14.55Z" stroke="#000000" stroke-opacity="0" stroke-width="1.000000"/>
	<path id="path" d="M11.67 16.19C12.21 16.19 12.76 16.2 13.31 16.21C13.33 16.34 13.33 16.45 13.33 16.56C13.33 16.97 13.34 17.38 13.34 17.8C13.33 18.34 13.33 18.86 13.33 19.38C14.45 19.38 15.55 19.38 16.67 19.38C16.67 19.32 16.67 19.26 16.67 19.2C16.67 18.26 16.66 17.32 16.67 16.38C16.67 16.32 16.67 16.26 16.67 16.19C17.21 16.19 17.76 16.2 18.32 16.21C18.33 16.34 18.33 16.45 18.33 16.56C18.33 16.97 18.34 17.38 18.34 17.8C18.33 18.34 18.33 18.86 18.33 19.38C19.45 19.38 20.55 19.38 21.67 19.38C21.67 19.32 21.67 19.26 21.67 19.2C21.67 18.26 21.67 17.32 21.67 16.38C21.67 16.32 21.67 16.26 21.67 16.19C22.22 16.19 22.76 16.2 23.32 16.21C23.33 16.34 23.33 16.45 23.33 16.56C23.34 16.97 23.34 17.38 23.34 17.8C23.33 18.34 23.33 18.86 23.33 19.38C24.45 19.38 25.55 19.38 26.67 19.38C26.67 19.32 26.67 19.26 26.67 19.2C26.67 18.26 26.67 17.32 26.67 16.38C26.67 16.32 26.67 16.26 26.67 16.19C27.22 16.19 27.76 16.2 28.32 16.21C28.33 16.34 28.33 16.45 28.33 16.56C28.34 16.97 28.34 17.38 28.34 17.8C28.33 18.34 28.33 18.86 28.33 19.38C29.45 19.38 30.55 19.38 31.67 19.38C31.67 19.32 31.67 19.26 31.67 19.2C31.67 18.26 31.67 17.32 31.67 16.38C31.67 16.32 31.67 16.26 31.67 16.19C32.22 16.19 32.76 16.2 33.32 16.21C33.33 16.34 33.33 16.45 33.34 16.56C33.34 16.97 33.34 17.38 33.34 17.8C33.34 18.34 33.34 18.86 33.34 19.38C34.45 19.38 35.56 19.38 36.67 19.38C36.67 19.32 36.67 19.26 36.67 19.2C36.67 18.26 36.67 17.32 36.67 16.38C36.67 16.32 36.67 16.26 36.68 16.19C37.22 16.19 37.76 16.2 38.32 16.21C38.34 16.34 38.34 16.45 38.34 16.56C38.34 16.97 38.34 17.38 38.34 17.8C38.34 18.34 38.34 18.86 38.34 19.38C39.45 19.38 40.56 19.38 41.67 19.38C41.67 19.32 41.67 19.26 41.67 19.2C41.67 18.26 41.67 17.32 41.67 16.38C41.67 16.32 41.67 16.26 41.68 16.19C42.22 16.19 42.76 16.2 43.32 16.21C43.34 16.34 43.34 16.45 43.34 16.56C43.34 16.97 43.34 17.38 43.34 17.8C43.34 18.34 43.34 18.86 43.34 19.38C44.46 19.38 45.56 19.38 46.67 19.38C46.67 19.32 46.67 19.26 46.67 19.2C46.67 18.26 46.67 17.32 46.67 16.38C46.67 16.32 46.68 16.26 46.68 16.19C47.22 16.19 47.77 16.19 48.3 16.19C48.31 16.21 48.32 16.21 48.32 16.21C48.33 16.22 48.33 16.22 48.33 16.23C48.33 22.56 48.34 28.89 48.34 35.23C48.34 35.27 48.34 35.32 48.34 35.38C33.33 35.38 18.34 35.38 3.33 35.38C3.33 34.86 3.33 34.34 3.35 33.8C5.51 33.79 7.64 33.79 9.78 33.79C9.84 33.79 9.9 33.79 9.96 33.78C9.97 33.78 9.97 33.78 9.98 33.78C9.98 33.77 9.99 33.77 9.99 33.77C9.99 32.71 9.99 31.66 9.99 30.61C9.97 30.6 9.96 30.59 9.95 30.59C9.41 30.6 8.87 30.6 8.32 30.6C6.65 30.59 4.99 30.59 3.34 30.59C3.33 30.07 3.33 29.54 3.35 29.01C3.73 28.99 4.1 28.99 4.47 28.99C4.83 28.99 5.2 28.99 5.57 28.99C5.93 28.99 6.29 28.99 6.66 28.99C6.66 28.44 6.66 27.91 6.66 27.37C6.66 26.84 6.66 26.33 6.66 25.82C6.66 25.82 6.65 25.81 6.65 25.81C6.64 25.81 6.64 25.8 6.63 25.79C5.54 25.79 4.44 25.79 3.34 25.79C3.33 25.27 3.33 24.75 3.35 24.21C5.5 24.19 7.63 24.19 9.76 24.19C9.83 24.19 9.9 24.19 9.96 24.19C9.97 24.19 9.97 24.18 9.98 24.18C9.98 24.18 9.99 24.17 9.99 24.17C9.99 23.11 9.99 22.06 9.99 21.01C9.97 21 9.96 21 9.95 21C9.41 21 8.87 21 8.32 21C6.65 20.99 4.99 20.99 3.34 20.99C3.33 20.47 3.33 19.95 3.35 19.41C3.73 19.39 4.1 19.39 4.47 19.39C4.83 19.39 5.2 19.39 5.56 19.39C5.93 19.39 6.29 19.39 6.66 19.39C6.66 19.31 6.66 19.25 6.66 19.2C6.66 18.26 6.66 17.32 6.66 16.38C6.66 16.32 6.67 16.26 6.67 16.19C7.21 16.19 7.75 16.2 8.31 16.21C8.33 16.34 8.33 16.45 8.33 16.56C8.33 16.97 8.34 17.38 8.33 17.8C8.33 18.34 8.33 18.86 8.33 19.38C9.45 19.38 10.55 19.38 11.66 19.38C11.66 19.32 11.66 19.26 11.66 19.2C11.66 18.26 11.66 17.32 11.66 16.38C11.66 16.32 11.67 16.26 11.67 16.19ZM13.31 20.99C12.76 20.99 12.22 20.99 11.68 20.99C11.67 21.02 11.67 21.03 11.67 21.04C11.67 21.55 11.67 22.07 11.66 22.62C11.66 23.14 11.66 23.66 11.66 24.18C12.78 24.18 13.88 24.18 14.99 24.18C14.99 23.12 14.99 22.06 14.99 21.01C14.97 21 14.96 21 14.95 21C14.41 21 13.87 21 13.31 20.99ZM18.31 20.99C17.76 20.99 17.22 20.99 16.69 20.99C16.68 21.02 16.67 21.03 16.67 21.04C16.67 21.55 16.67 22.07 16.67 22.62C16.67 23.14 16.67 23.66 16.67 24.18C17.78 24.18 18.88 24.18 19.99 24.18C19.99 23.12 19.99 22.06 19.99 21.01C19.97 21 19.96 21 19.95 21C19.41 21 18.87 21 18.31 20.99ZM36.67 32.22C36.67 32.74 36.67 33.26 36.67 33.78C37.79 33.78 38.89 33.78 39.99 33.78C39.99 32.72 39.99 31.66 39.99 30.61C39.97 30.6 39.96 30.59 39.95 30.59C39.42 30.6 38.88 30.6 38.31 30.59C37.77 30.59 37.23 30.59 36.69 30.59C36.68 30.62 36.67 30.63 36.67 30.64C36.67 31.15 36.67 31.67 36.67 32.22ZM13.31 30.59C12.76 30.59 12.22 30.59 11.68 30.59C11.67 30.62 11.67 30.63 11.67 30.64C11.67 31.15 11.67 31.67 11.66 32.22C11.66 32.74 11.66 33.26 11.66 33.78C12.78 33.78 13.88 33.78 14.99 33.78C14.99 32.72 14.99 31.66 14.99 30.61C14.97 30.6 14.96 30.59 14.95 30.59C14.41 30.6 13.87 30.6 13.31 30.59ZM34.98 25.79C34.43 25.79 33.89 25.79 33.36 25.79C33.35 25.82 33.34 25.83 33.34 25.84C33.34 26.35 33.34 26.87 33.34 27.42C33.34 27.94 33.34 28.46 33.34 28.98C34.45 28.98 35.55 28.98 36.66 28.98C36.66 27.92 36.66 26.86 36.66 25.81C36.64 25.8 36.63 25.8 36.62 25.8C36.08 25.8 35.54 25.8 34.98 25.79ZM28.33 27.42C28.33 27.94 28.33 28.46 28.33 28.98C29.45 28.98 30.55 28.98 31.66 28.98C31.66 27.92 31.66 26.86 31.66 25.81C31.64 25.8 31.63 25.8 31.62 25.8C31.08 25.8 30.54 25.8 29.98 25.79C29.43 25.79 28.89 25.79 28.35 25.79C28.34 25.82 28.34 25.83 28.34 25.84C28.34 26.35 28.34 26.87 28.33 27.42ZM19.97 25.79C19.43 25.79 18.89 25.79 18.35 25.79C18.34 25.82 18.34 25.83 18.34 25.84C18.34 26.35 18.34 26.87 18.33 27.42C18.33 27.94 18.33 28.46 18.33 28.98C19.45 28.98 20.55 28.98 21.66 28.98C21.66 27.92 21.66 26.86 21.66 25.81C21.64 25.8 21.63 25.8 21.62 25.8C21.08 25.8 20.54 25.8 19.97 25.79ZM14.97 25.79C14.43 25.79 13.89 25.79 13.35 25.79C13.34 25.82 13.33 25.83 13.33 25.84C13.34 26.35 13.34 26.87 13.33 27.42C13.33 27.94 13.33 28.46 13.33 28.98C14.45 28.98 15.55 28.98 16.66 28.98C16.66 27.92 16.66 26.86 16.66 25.81C16.64 25.8 16.63 25.8 16.62 25.8C16.08 25.8 15.54 25.8 14.97 25.79ZM8.33 27.42C8.33 27.94 8.33 28.46 8.33 28.98C9.45 28.98 10.55 28.98 11.65 28.98C11.65 27.92 11.65 26.86 11.65 25.81C11.64 25.8 11.63 25.8 11.62 25.8C11.08 25.8 10.54 25.8 9.97 25.79C9.43 25.79 8.89 25.79 8.35 25.79C8.34 25.82 8.33 25.83 8.33 25.84C8.33 26.35 8.34 26.87 8.33 27.42ZM38.31 20.99C37.77 20.99 37.23 20.99 36.69 20.99C36.68 21.02 36.67 21.03 36.67 21.04C36.67 21.55 36.67 22.07 36.67 22.62C36.67 23.14 36.67 23.66 36.67 24.18C37.79 24.18 38.89 24.18 39.99 24.18C39.99 23.12 39.99 22.06 39.99 21.01C39.97 21 39.96 21 39.95 21C39.42 21 38.88 21 38.31 20.99ZM33.31 20.99C32.77 20.99 32.22 20.99 31.69 20.99C31.68 21.02 31.67 21.03 31.67 21.04C31.67 21.55 31.67 22.07 31.67 22.62C31.67 23.14 31.67 23.66 31.67 24.18C32.78 24.18 33.89 24.18 34.99 24.18C34.99 23.12 34.99 22.06 34.99 21.01C34.97 21 34.96 21 34.95 21C34.42 21 33.88 21 33.31 20.99ZM28.31 20.99C27.77 20.99 27.22 20.99 26.69 20.99C26.68 21.02 26.67 21.03 26.67 21.04C26.67 21.55 26.67 22.07 26.67 22.62C26.67 23.14 26.67 23.66 26.67 24.18C27.78 24.18 28.88 24.18 29.99 24.18C29.99 23.12 29.99 22.06 29.99 21.01C29.97 21 29.96 21 29.95 21C29.41 21 28.88 21 28.31 20.99ZM21.67 22.62C21.67 23.14 21.67 23.66 21.67 24.18C22.78 24.18 23.88 24.18 24.99 24.18C24.99 23.12 24.99 22.06 24.99 21.01C24.97 21 24.96 21 24.95 21C24.41 21 23.88 21 23.31 20.99C22.77 20.99 22.22 20.99 21.69 20.99C21.68 21.02 21.67 21.03 21.67 21.04C21.67 21.55 21.67 22.07 21.67 22.62ZM23.33 27.42C23.33 27.94 23.33 28.46 23.33 28.98C24.45 28.98 25.55 28.98 26.66 28.98C26.66 27.92 26.66 26.86 26.66 25.81C26.64 25.8 26.63 25.8 26.62 25.8C26.08 25.8 25.54 25.8 24.97 25.79C24.43 25.79 23.89 25.79 23.35 25.79C23.34 25.82 23.34 25.83 23.34 25.84C23.34 26.35 23.34 26.87 23.33 27.42ZM41.67 32.22C41.67 32.74 41.67 33.26 41.67 33.78C43.34 33.78 45 33.78 46.66 33.78C46.66 32.72 46.66 31.66 46.66 30.61C46.64 30.6 46.63 30.59 46.62 30.59C46.08 30.6 45.55 30.6 44.98 30.59C43.88 30.59 42.78 30.59 41.69 30.59C41.68 30.62 41.67 30.63 41.67 30.64C41.67 31.15 41.68 31.67 41.67 32.22ZM43.31 20.99C42.77 20.99 42.23 20.99 41.69 20.99C41.68 21.02 41.67 21.03 41.67 21.04C41.67 21.55 41.68 22.07 41.67 22.62C41.67 23.14 41.67 23.66 41.67 24.18C43.34 24.18 45 24.18 46.66 24.18C46.66 23.12 46.66 22.06 46.66 21C46.61 21 46.56 20.99 46.52 20.99C45.5 20.99 44.48 20.99 43.46 20.99C43.42 20.99 43.38 21 43.31 20.99ZM44.98 25.79C42.77 25.79 40.56 25.79 38.36 25.79C38.35 25.82 38.34 25.83 38.34 25.84C38.34 26.35 38.34 26.87 38.34 27.42C38.34 27.94 38.34 28.46 38.34 28.98C38.61 29.01 46.55 29 46.66 28.97C46.66 27.91 46.66 26.86 46.66 25.81C46.64 25.8 46.63 25.8 46.62 25.8C46.09 25.8 45.55 25.8 44.98 25.79ZM16.67 32.22C16.67 32.74 16.67 33.26 16.67 33.77C16.94 33.81 34.88 33.8 34.99 33.77C34.99 32.71 34.99 31.66 34.99 30.61C34.97 30.6 34.96 30.59 34.95 30.59C34.42 30.6 33.88 30.6 33.31 30.59C33.3 30.59 33.29 30.59 33.28 30.59C27.79 30.59 22.31 30.59 16.83 30.59C16.78 30.59 16.73 30.6 16.68 30.6C16.68 30.62 16.67 30.63 16.67 30.63C16.67 31.15 16.67 31.67 16.67 32.22Z" fill="#010101" fill-opacity="1.000000" fill-rule="nonzero"/>
	<path id="path" d="M13.31 16.21C13.33 16.34 13.33 16.45 13.33 16.56C13.33 16.97 13.34 17.38 13.34 17.8C13.33 18.34 13.33 18.86 13.33 19.38C14.45 19.38 15.55 19.38 16.67 19.38C16.67 19.32 16.67 19.26 16.67 19.2C16.67 18.26 16.66 17.32 16.67 16.38C16.67 16.32 16.67 16.26 16.67 16.19C17.21 16.19 17.76 16.2 18.32 16.21C18.33 16.34 18.33 16.45 18.33 16.56C18.33 16.97 18.34 17.38 18.34 17.8C18.33 18.34 18.33 18.86 18.33 19.38C19.45 19.38 20.55 19.38 21.67 19.38C21.67 19.32 21.67 19.26 21.67 19.2C21.67 18.26 21.67 17.32 21.67 16.38C21.67 16.32 21.67 16.26 21.67 16.19C22.22 16.19 22.76 16.2 23.32 16.21C23.33 16.34 23.33 16.45 23.33 16.56C23.34 16.97 23.34 17.38 23.34 17.8C23.33 18.34 23.33 18.86 23.33 19.38C24.45 19.38 25.55 19.38 26.67 19.38C26.67 19.32 26.67 19.26 26.67 19.2C26.67 18.26 26.67 17.32 26.67 16.38C26.67 16.32 26.67 16.26 26.67 16.19C27.22 16.19 27.76 16.2 28.32 16.21C28.33 16.34 28.33 16.45 28.33 16.56C28.34 16.97 28.34 17.38 28.34 17.8C28.33 18.34 28.33 18.86 28.33 19.38C29.45 19.38 30.55 19.38 31.67 19.38C31.67 19.32 31.67 19.26 31.67 19.2C31.67 18.26 31.67 17.32 31.67 16.38C31.67 16.32 31.67 16.26 31.67 16.19C32.22 16.19 32.76 16.2 33.32 16.21C33.33 16.34 33.33 16.45 33.34 16.56C33.34 16.97 33.34 17.38 33.34 17.8C33.34 18.34 33.34 18.86 33.34 19.38C34.45 19.38 35.56 19.38 36.67 19.38C36.67 19.32 36.67 19.26 36.67 19.2C36.67 18.26 36.67 17.32 36.67 16.38C36.67 16.32 36.67 16.26 36.68 16.19C37.22 16.19 37.76 16.2 38.32 16.21C38.34 16.34 38.34 16.45 38.34 16.56C38.34 16.97 38.34 17.38 38.34 17.8C38.34 18.34 38.34 18.86 38.34 19.38C39.45 19.38 40.56 19.38 41.67 19.38C41.67 19.32 41.67 19.26 41.67 19.2C41.67 18.26 41.67 17.32 41.67 16.38C41.67 16.32 41.67 16.26 41.68 16.19C42.22 16.19 42.76 16.2 43.32 16.21C43.34 16.34 43.34 16.45 43.34 16.56C43.34 16.97 43.34 17.38 43.34 17.8C43.34 18.34 43.34 18.86 43.34 19.38C44.46 19.38 45.56 19.38 46.67 19.38C46.67 19.32 46.67 19.26 46.67 19.2C46.67 18.26 46.67 17.32 46.67 16.38C46.67 16.32 46.68 16.26 46.68 16.19C47.22 16.19 47.77 16.19 48.3 16.19C48.31 16.21 48.32 16.21 48.32 16.21C48.33 16.22 48.33 16.22 48.33 16.23C48.33 22.56 48.34 28.89 48.34 35.23C48.34 35.27 48.34 35.32 48.34 35.38C33.33 35.38 18.34 35.38 3.33 35.38C3.33 34.86 3.33 34.34 3.35 33.8C5.51 33.79 7.64 33.79 9.78 33.79C9.84 33.79 9.9 33.79 9.96 33.78C9.97 33.78 9.97 33.78 9.98 33.78C9.98 33.77 9.99 33.77 9.99 33.77C9.99 32.71 9.99 31.66 9.99 30.61C9.97 30.6 9.96 30.59 9.95 30.59C9.41 30.6 8.87 30.6 8.32 30.6C6.65 30.59 4.99 30.59 3.34 30.59C3.33 30.07 3.33 29.54 3.35 29.01C3.73 28.99 4.1 28.99 4.47 28.99C4.83 28.99 5.2 28.99 5.57 28.99C5.93 28.99 6.29 28.99 6.66 28.99C6.66 28.44 6.66 27.91 6.66 27.37C6.66 26.84 6.66 26.33 6.66 25.82C6.66 25.82 6.65 25.81 6.65 25.81C6.64 25.81 6.64 25.8 6.63 25.79C5.54 25.79 4.44 25.79 3.34 25.79C3.33 25.27 3.33 24.75 3.35 24.21C5.5 24.19 7.63 24.19 9.76 24.19C9.83 24.19 9.9 24.19 9.96 24.19C9.97 24.19 9.97 24.18 9.98 24.18C9.98 24.18 9.99 24.17 9.99 24.17C9.99 23.11 9.99 22.06 9.99 21.01C9.97 21 9.96 21 9.95 21C9.41 21 8.87 21 8.32 21C6.65 20.99 4.99 20.99 3.34 20.99C3.33 20.47 3.33 19.95 3.35 19.41C3.73 19.39 4.1 19.39 4.47 19.39C4.83 19.39 5.2 19.39 5.56 19.39C5.93 19.39 6.29 19.39 6.66 19.39C6.66 19.31 6.66 19.25 6.66 19.2C6.66 18.26 6.66 17.32 6.66 16.38C6.66 16.32 6.67 16.26 6.67 16.19C7.21 16.19 7.75 16.2 8.31 16.21C8.33 16.34 8.33 16.45 8.33 16.56C8.33 16.97 8.34 17.38 8.33 17.8C8.33 18.34 8.33 18.86 8.33 19.38C9.45 19.38 10.55 19.38 11.66 19.38C11.66 19.32 11.66 19.26 11.66 19.2C11.66 18.26 11.66 17.32 11.66 16.38C11.66 16.32 11.67 16.26 11.67 16.19C12.21 16.19 12.76 16.2 13.31 16.21ZM11.68 20.99C11.67 21.02 11.67 21.03 11.67 21.04C11.67 21.55 11.67 22.07 11.66 22.62C11.66 23.14 11.66 23.66 11.66 24.18C12.78 24.18 13.88 24.18 14.99 24.18C14.99 23.12 14.99 22.06 14.99 21.01C14.97 21 14.96 21 14.95 21C14.41 21 13.87 21 13.31 20.99C12.76 20.99 12.22 20.99 11.68 20.99ZM16.69 20.99C16.68 21.02 16.67 21.03 16.67 21.04C16.67 21.55 16.67 22.07 16.67 22.62C16.67 23.14 16.67 23.66 16.67 24.18C17.78 24.18 18.88 24.18 19.99 24.18C19.99 23.12 19.99 22.06 19.99 21.01C19.97 21 19.96 21 19.95 21C19.41 21 18.87 21 18.31 20.99C17.76 20.99 17.22 20.99 16.69 20.99ZM36.67 33.78C37.79 33.78 38.89 33.78 39.99 33.78C39.99 32.72 39.99 31.66 39.99 30.61C39.97 30.6 39.96 30.59 39.95 30.59C39.42 30.6 38.88 30.6 38.31 30.59C37.77 30.59 37.23 30.59 36.69 30.59C36.68 30.62 36.67 30.63 36.67 30.64C36.67 31.15 36.67 31.67 36.67 32.22C36.67 32.74 36.67 33.26 36.67 33.78ZM11.68 30.59C11.67 30.62 11.67 30.63 11.67 30.64C11.67 31.15 11.67 31.67 11.66 32.22C11.66 32.74 11.66 33.26 11.66 33.78C12.78 33.78 13.88 33.78 14.99 33.78C14.99 32.72 14.99 31.66 14.99 30.61C14.97 30.6 14.96 30.59 14.95 30.59C14.41 30.6 13.87 30.6 13.31 30.59C12.76 30.59 12.22 30.59 11.68 30.59ZM33.36 25.79C33.35 25.82 33.34 25.83 33.34 25.84C33.34 26.35 33.34 26.87 33.34 27.42C33.34 27.94 33.34 28.46 33.34 28.98C34.45 28.98 35.55 28.98 36.66 28.98C36.66 27.92 36.66 26.86 36.66 25.81C36.64 25.8 36.63 25.8 36.62 25.8C36.08 25.8 35.54 25.8 34.98 25.79C34.43 25.79 33.89 25.79 33.36 25.79ZM28.33 28.98C29.45 28.98 30.55 28.98 31.66 28.98C31.66 27.92 31.66 26.86 31.66 25.81C31.64 25.8 31.63 25.8 31.62 25.8C31.08 25.8 30.54 25.8 29.98 25.79C29.43 25.79 28.89 25.79 28.35 25.79C28.34 25.82 28.34 25.83 28.34 25.84C28.34 26.35 28.34 26.87 28.33 27.42C28.33 27.94 28.33 28.46 28.33 28.98ZM18.35 25.79C18.34 25.82 18.34 25.83 18.34 25.84C18.34 26.35 18.34 26.87 18.33 27.42C18.33 27.94 18.33 28.46 18.33 28.98C19.45 28.98 20.55 28.98 21.66 28.98C21.66 27.92 21.66 26.86 21.66 25.81C21.64 25.8 21.63 25.8 21.62 25.8C21.08 25.8 20.54 25.8 19.97 25.79C19.43 25.79 18.89 25.79 18.35 25.79ZM13.35 25.79C13.34 25.82 13.33 25.83 13.33 25.84C13.34 26.35 13.34 26.87 13.33 27.42C13.33 27.94 13.33 28.46 13.33 28.98C14.45 28.98 15.55 28.98 16.66 28.98C16.66 27.92 16.66 26.86 16.66 25.81C16.64 25.8 16.63 25.8 16.62 25.8C16.08 25.8 15.54 25.8 14.97 25.79C14.43 25.79 13.89 25.79 13.35 25.79ZM8.33 28.98C9.45 28.98 10.55 28.98 11.65 28.98C11.65 27.92 11.65 26.86 11.65 25.81C11.64 25.8 11.63 25.8 11.62 25.8C11.08 25.8 10.54 25.8 9.97 25.79C9.43 25.79 8.89 25.79 8.35 25.79C8.34 25.82 8.33 25.83 8.33 25.84C8.33 26.35 8.34 26.87 8.33 27.42C8.33 27.94 8.33 28.46 8.33 28.98ZM36.69 20.99C36.68 21.02 36.67 21.03 36.67 21.04C36.67 21.55 36.67 22.07 36.67 22.62C36.67 23.14 36.67 23.66 36.67 24.18C37.79 24.18 38.89 24.18 39.99 24.18C39.99 23.12 39.99 22.06 39.99 21.01C39.97 21 39.96 21 39.95 21C39.42 21 38.88 21 38.31 20.99C37.77 20.99 37.23 20.99 36.69 20.99ZM31.69 20.99C31.68 21.02 31.67 21.03 31.67 21.04C31.67 21.55 31.67 22.07 31.67 22.62C31.67 23.14 31.67 23.66 31.67 24.18C32.78 24.18 33.89 24.18 34.99 24.18C34.99 23.12 34.99 22.06 34.99 21.01C34.97 21 34.96 21 34.95 21C34.42 21 33.88 21 33.31 20.99C32.77 20.99 32.22 20.99 31.69 20.99ZM26.69 20.99C26.68 21.02 26.67 21.03 26.67 21.04C26.67 21.55 26.67 22.07 26.67 22.62C26.67 23.14 26.67 23.66 26.67 24.18C27.78 24.18 28.88 24.18 29.99 24.18C29.99 23.12 29.99 22.06 29.99 21.01C29.97 21 29.96 21 29.95 21C29.41 21 28.88 21 28.31 20.99C27.77 20.99 27.22 20.99 26.69 20.99ZM21.67 24.18C22.78 24.18 23.88 24.18 24.99 24.18C24.99 23.12 24.99 22.06 24.99 21.01C24.97 21 24.96 21 24.95 21C24.41 21 23.88 21 23.31 20.99C22.77 20.99 22.22 20.99 21.69 20.99C21.68 21.02 21.67 21.03 21.67 21.04C21.67 21.55 21.67 22.07 21.67 22.62C21.67 23.14 21.67 23.66 21.67 24.18ZM23.33 28.98C24.45 28.98 25.55 28.98 26.66 28.98C26.66 27.92 26.66 26.86 26.66 25.81C26.64 25.8 26.63 25.8 26.62 25.8C26.08 25.8 25.54 25.8 24.97 25.79C24.43 25.79 23.89 25.79 23.35 25.79C23.34 25.82 23.34 25.83 23.34 25.84C23.34 26.35 23.34 26.87 23.33 27.42C23.33 27.94 23.33 28.46 23.33 28.98ZM41.67 33.78C43.34 33.78 45 33.78 46.66 33.78C46.66 32.72 46.66 31.66 46.66 30.61C46.64 30.6 46.63 30.59 46.62 30.59C46.08 30.6 45.55 30.6 44.98 30.59C43.88 30.59 42.78 30.59 41.69 30.59C41.68 30.62 41.67 30.63 41.67 30.64C41.67 31.15 41.68 31.67 41.67 32.22C41.67 32.74 41.67 33.26 41.67 33.78ZM41.69 20.99C41.68 21.02 41.67 21.03 41.67 21.04C41.67 21.55 41.68 22.07 41.67 22.62C41.67 23.14 41.67 23.66 41.67 24.18C43.34 24.18 45 24.18 46.66 24.18C46.66 23.12 46.66 22.06 46.66 21C46.61 21 46.56 20.99 46.52 20.99C45.5 20.99 44.48 20.99 43.46 20.99C43.42 20.99 43.38 21 43.31 20.99C42.77 20.99 42.23 20.99 41.69 20.99ZM38.36 25.79C38.35 25.82 38.34 25.83 38.34 25.84C38.34 26.35 38.34 26.87 38.34 27.42C38.34 27.94 38.34 28.46 38.34 28.98C38.61 29.01 46.55 29 46.66 28.97C46.66 27.91 46.66 26.86 46.66 25.81C46.64 25.8 46.63 25.8 46.62 25.8C46.09 25.8 45.55 25.8 44.98 25.79C42.77 25.79 40.56 25.79 38.36 25.79ZM16.67 33.77C16.94 33.81 34.88 33.8 34.99 33.77C34.99 32.71 34.99 31.66 34.99 30.61C34.97 30.6 34.96 30.59 34.95 30.59C34.42 30.6 33.88 30.6 33.31 30.59C33.3 30.59 33.29 30.59 33.28 30.59C27.79 30.59 22.31 30.59 16.83 30.59C16.78 30.59 16.73 30.6 16.68 30.6C16.68 30.62 16.67 30.63 16.67 30.63C16.67 31.15 16.67 31.67 16.67 32.22C16.67 32.74 16.67 33.26 16.67 33.77Z" stroke="#000000" stroke-opacity="0" stroke-width="1.000000"/>
	<path id="path" d="M8.33 30.6C8.87 30.6 9.41 30.6 9.95 30.59C9.96 30.59 9.97 30.6 9.99 30.61C9.99 31.66 9.99 32.71 9.99 33.77C9.98 33.77 9.98 33.77 9.98 33.78C9.97 33.78 9.97 33.78 9.96 33.78C9.9 33.79 9.84 33.79 9.78 33.79C7.64 33.79 5.51 33.79 3.35 33.79C3.34 33.27 3.33 32.74 3.35 32.2C5 32.18 6.63 32.18 8.26 32.18C8.27 32.18 8.28 32.18 8.29 32.18C8.29 32.17 8.3 32.17 8.3 32.17C8.31 32.17 8.31 32.16 8.33 32.14C8.33 31.64 8.33 31.12 8.33 30.6Z" fill="#FDA7C1" fill-opacity="1.000000" fill-rule="nonzero"/>
	<path id="path" d="M9.95 30.59C9.96 30.59 9.97 30.6 9.99 30.61C9.99 31.66 9.99 32.71 9.99 33.77C9.98 33.77 9.98 33.77 9.98 33.78C9.97 33.78 9.97 33.78 9.96 33.78C9.9 33.79 9.84 33.79 9.78 33.79C7.64 33.79 5.51 33.79 3.35 33.79C3.34 33.27 3.33 32.74 3.35 32.2C5 32.18 6.63 32.18 8.26 32.18C8.27 32.18 8.28 32.18 8.29 32.18C8.29 32.17 8.3 32.17 8.3 32.17C8.31 32.17 8.31 32.16 8.33 32.14C8.33 31.64 8.33 31.12 8.33 30.6C8.87 30.6 9.41 30.6 9.95 30.59Z" stroke="#000000" stroke-opacity="0" stroke-width="1.000000"/>
	<path id="path" d="M8.33 21C8.87 21 9.41 21 9.95 21C9.96 21 9.97 21 9.99 21.01C9.99 22.06 9.99 23.11 9.99 24.17C9.98 24.17 9.98 24.18 9.98 24.18C9.97 24.18 9.97 24.19 9.96 24.19C9.9 24.19 9.83 24.19 9.76 24.19C7.63 24.19 5.5 24.19 3.35 24.19C3.34 23.67 3.33 23.14 3.35 22.6C5 22.59 6.63 22.59 8.26 22.58C8.27 22.58 8.28 22.58 8.29 22.58C8.29 22.58 8.3 22.57 8.3 22.57C8.31 22.57 8.31 22.56 8.33 22.54C8.33 22.04 8.33 21.52 8.33 21Z" fill="#FDA7C1" fill-opacity="1.000000" fill-rule="nonzero"/>
	<path id="path" d="M9.95 21C9.96 21 9.97 21 9.99 21.01C9.99 22.06 9.99 23.11 9.99 24.17C9.98 24.17 9.98 24.18 9.98 24.18C9.97 24.18 9.97 24.19 9.96 24.19C9.9 24.19 9.83 24.19 9.76 24.19C7.63 24.19 5.5 24.19 3.35 24.19C3.34 23.67 3.33 23.14 3.35 22.6C5 22.59 6.63 22.59 8.26 22.58C8.27 22.58 8.28 22.58 8.29 22.58C8.29 22.58 8.3 22.57 8.3 22.57C8.31 22.57 8.31 22.56 8.33 22.54C8.33 22.04 8.33 21.52 8.33 21C8.87 21 9.41 21 9.95 21Z" stroke="#000000" stroke-opacity="0" stroke-width="1.000000"/>
	<path id="path" d="M16.66 16.19C16.67 16.26 16.67 16.32 16.67 16.38C16.66 17.32 16.66 18.26 16.66 19.2C16.66 19.26 16.66 19.32 16.66 19.38C15.55 19.38 14.45 19.38 13.33 19.38C13.33 18.86 13.33 18.34 13.35 17.8C13.55 17.79 13.73 17.79 13.92 17.79C14.09 17.79 14.27 17.79 14.45 17.79C14.63 17.79 14.81 17.8 15 17.78C15 17.24 15 16.72 15 16.2C15.35 16.2 15.71 16.19 16.06 16.19C16.25 16.19 16.45 16.19 16.66 16.19Z" fill="#FFA8C2" fill-opacity="1.000000" fill-rule="nonzero"/>
	<path id="path" d="M16.67 16.38C16.66 17.32 16.66 18.26 16.66 19.2C16.66 19.26 16.66 19.32 16.66 19.38C15.55 19.38 14.45 19.38 13.33 19.38C13.33 18.86 13.33 18.34 13.35 17.8C13.55 17.79 13.73 17.79 13.92 17.79C14.09 17.79 14.27 17.79 14.45 17.79C14.63 17.79 14.81 17.8 15 17.78C15 17.24 15 16.72 15 16.2C15.35 16.2 15.71 16.19 16.06 16.19C16.25 16.19 16.45 16.19 16.66 16.19C16.67 16.26 16.67 16.32 16.67 16.38Z" stroke="#000000" stroke-opacity="0" stroke-width="1.000000"/>
	<path id="path" d="M26.66 16.19C26.67 16.26 26.67 16.32 26.67 16.38C26.67 17.32 26.67 18.26 26.67 19.2C26.67 19.26 26.67 19.32 26.67 19.38C25.55 19.38 24.45 19.38 23.33 19.38C23.33 18.86 23.33 18.34 23.35 17.8C23.55 17.79 23.74 17.79 23.92 17.79C24.1 17.79 24.27 17.79 24.45 17.79C24.63 17.79 24.81 17.8 25 17.78C25 17.24 25 16.72 25 16.2C25.36 16.2 25.71 16.19 26.06 16.19C26.26 16.19 26.45 16.19 26.66 16.19Z" fill="#FFA8C2" fill-opacity="1.000000" fill-rule="nonzero"/>
	<path id="path" d="M26.67 16.38C26.67 17.32 26.67 18.26 26.67 19.2C26.67 19.26 26.67 19.32 26.67 19.38C25.55 19.38 24.45 19.38 23.33 19.38C23.33 18.86 23.33 18.34 23.35 17.8C23.55 17.79 23.74 17.79 23.92 17.79C24.1 17.79 24.27 17.79 24.45 17.79C24.63 17.79 24.81 17.8 25 17.78C25 17.24 25 16.72 25 16.2C25.36 16.2 25.71 16.19 26.06 16.19C26.26 16.19 26.45 16.19 26.66 16.19C26.67 16.26 26.67 16.32 26.67 16.38Z" stroke="#000000" stroke-opacity="0" stroke-width="1.000000"/>
	<path id="path" d="M11.65 16.19C11.67 16.26 11.66 16.32 11.66 16.38C11.66 17.32 11.66 18.26 11.66 19.2C11.66 19.26 11.66 19.32 11.66 19.38C10.55 19.38 9.45 19.38 8.33 19.38C8.33 18.86 8.33 18.34 8.35 17.8C8.55 17.79 8.73 17.79 8.92 17.79C9.09 17.79 9.27 17.79 9.45 17.79C9.63 17.79 9.81 17.8 10 17.78C10 17.24 10 16.72 10 16.2C10.35 16.2 10.71 16.19 11.06 16.19C11.25 16.19 11.45 16.19 11.65 16.19Z" fill="#FFA8C2" fill-opacity="1.000000" fill-rule="nonzero"/>
	<path id="path" d="M11.66 16.38C11.66 17.32 11.66 18.26 11.66 19.2C11.66 19.26 11.66 19.32 11.66 19.38C10.55 19.38 9.45 19.38 8.33 19.38C8.33 18.86 8.33 18.34 8.35 17.8C8.55 17.79 8.73 17.79 8.92 17.79C9.09 17.79 9.27 17.79 9.45 17.79C9.63 17.79 9.81 17.8 10 17.78C10 17.24 10 16.72 10 16.2C10.35 16.2 10.71 16.19 11.06 16.19C11.25 16.19 11.45 16.19 11.65 16.19C11.67 16.26 11.66 16.32 11.66 16.38Z" stroke="#000000" stroke-opacity="0" stroke-width="1.000000"/>
	<path id="path" d="M8.32 30.6C8.33 31.12 8.33 31.64 8.33 32.14C8.31 32.16 8.31 32.17 8.3 32.17C8.3 32.17 8.29 32.17 8.29 32.18C8.28 32.18 8.27 32.18 8.26 32.18C6.63 32.18 5 32.18 3.35 32.19C3.33 31.66 3.33 31.14 3.33 30.61C4.99 30.59 6.65 30.59 8.32 30.6Z" fill="#FFC4DA" fill-opacity="1.000000" fill-rule="nonzero"/>
	<path id="path" d="M8.33 32.14C8.31 32.16 8.31 32.17 8.3 32.17C8.3 32.17 8.29 32.17 8.29 32.18C8.28 32.18 8.27 32.18 8.26 32.18C6.63 32.18 5 32.18 3.35 32.19C3.33 31.66 3.33 31.14 3.33 30.61C4.99 30.59 6.65 30.59 8.32 30.6C8.33 31.12 8.33 31.64 8.33 32.14Z" stroke="#000000" stroke-opacity="0" stroke-width="1.000000"/>
	<path id="path" d="M6.65 16.19C6.67 16.26 6.66 16.32 6.66 16.38C6.66 17.32 6.66 18.26 6.66 19.2C6.66 19.25 6.66 19.31 6.66 19.39C6.29 19.39 5.93 19.39 5.56 19.39C5.2 19.39 4.83 19.39 4.47 19.39C4.1 19.39 3.73 19.39 3.35 19.39C3.34 18.87 3.33 18.34 3.35 17.8C3.55 17.79 3.73 17.79 3.91 17.79C4.09 17.79 4.27 17.79 4.45 17.79C4.63 17.79 4.81 17.8 5 17.78C5 17.24 5 16.72 5 16.2C5.35 16.2 5.7 16.19 6.06 16.19C6.25 16.19 6.44 16.19 6.65 16.19Z" fill="#FFA8C2" fill-opacity="1.000000" fill-rule="nonzero"/>
	<path id="path" d="M6.66 16.38C6.66 17.32 6.66 18.26 6.66 19.2C6.66 19.25 6.66 19.31 6.66 19.39C6.29 19.39 5.93 19.39 5.56 19.39C5.2 19.39 4.83 19.39 4.47 19.39C4.1 19.39 3.73 19.39 3.35 19.39C3.34 18.87 3.33 18.34 3.35 17.8C3.55 17.79 3.73 17.79 3.91 17.79C4.09 17.79 4.27 17.79 4.45 17.79C4.63 17.79 4.81 17.8 5 17.78C5 17.24 5 16.72 5 16.2C5.35 16.2 5.7 16.19 6.06 16.19C6.25 16.19 6.44 16.19 6.65 16.19C6.67 16.26 6.66 16.32 6.66 16.38Z" stroke="#000000" stroke-opacity="0" stroke-width="1.000000"/>
	<path id="path" d="M41.66 16.19C41.67 16.26 41.67 16.32 41.67 16.38C41.67 17.32 41.67 18.26 41.67 19.2C41.67 19.26 41.67 19.32 41.67 19.38C40.56 19.38 39.45 19.38 38.34 19.38C38.34 18.86 38.34 18.34 38.36 17.8C38.56 17.79 38.74 17.79 38.92 17.79C39.1 17.79 39.28 17.79 39.45 17.79C39.63 17.79 39.81 17.8 40 17.78C40 17.24 40 16.72 40 16.2C40.36 16.2 40.71 16.19 41.07 16.19C41.26 16.19 41.45 16.19 41.66 16.19Z" fill="#FFA8C2" fill-opacity="1.000000" fill-rule="nonzero"/>
	<path id="path" d="M41.67 16.38C41.67 17.32 41.67 18.26 41.67 19.2C41.67 19.26 41.67 19.32 41.67 19.38C40.56 19.38 39.45 19.38 38.34 19.38C38.34 18.86 38.34 18.34 38.36 17.8C38.56 17.79 38.74 17.79 38.92 17.79C39.1 17.79 39.28 17.79 39.45 17.79C39.63 17.79 39.81 17.8 40 17.78C40 17.24 40 16.72 40 16.2C40.36 16.2 40.71 16.19 41.07 16.19C41.26 16.19 41.45 16.19 41.66 16.19C41.67 16.26 41.67 16.32 41.67 16.38Z" stroke="#000000" stroke-opacity="0" stroke-width="1.000000"/>
	<path id="path" d="M36.66 16.19C36.67 16.26 36.67 16.32 36.67 16.38C36.67 17.32 36.67 18.26 36.67 19.2C36.67 19.26 36.67 19.32 36.67 19.38C35.56 19.38 34.45 19.38 33.34 19.38C33.34 18.86 33.34 18.34 33.35 17.8C33.56 17.79 33.74 17.79 33.92 17.79C34.1 17.79 34.28 17.79 34.45 17.79C34.63 17.79 34.81 17.8 35 17.78C35 17.24 35 16.72 35 16.2C35.36 16.2 35.71 16.19 36.06 16.19C36.26 16.19 36.45 16.19 36.66 16.19Z" fill="#FFA8C2" fill-opacity="1.000000" fill-rule="nonzero"/>
	<path id="path" d="M36.67 16.38C36.67 17.32 36.67 18.26 36.67 19.2C36.67 19.26 36.67 19.32 36.67 19.38C35.56 19.38 34.45 19.38 33.34 19.38C33.34 18.86 33.34 18.34 33.35 17.8C33.56 17.79 33.74 17.79 33.92 17.79C34.1 17.79 34.28 17.79 34.45 17.79C34.63 17.79 34.81 17.8 35 17.78C35 17.24 35 16.72 35 16.2C35.36 16.2 35.71 16.19 36.06 16.19C36.26 16.19 36.45 16.19 36.66 16.19C36.67 16.26 36.67 16.32 36.67 16.38Z" stroke="#000000" stroke-opacity="0" stroke-width="1.000000"/>
	<path id="path" d="M31.66 16.19C31.67 16.26 31.67 16.32 31.67 16.38C31.67 17.32 31.67 18.26 31.67 19.2C31.67 19.26 31.67 19.32 31.67 19.38C30.55 19.38 29.45 19.38 28.33 19.38C28.33 18.86 28.33 18.34 28.35 17.8C28.55 17.79 28.74 17.79 28.92 17.79C29.1 17.79 29.27 17.79 29.45 17.79C29.63 17.79 29.81 17.8 30 17.78C30 17.24 30 16.72 30 16.2C30.36 16.2 30.71 16.19 31.06 16.19C31.26 16.19 31.45 16.19 31.66 16.19Z" fill="#FFA8C2" fill-opacity="1.000000" fill-rule="nonzero"/>
	<path id="path" d="M31.67 16.38C31.67 17.32 31.67 18.26 31.67 19.2C31.67 19.26 31.67 19.32 31.67 19.38C30.55 19.38 29.45 19.38 28.33 19.38C28.33 18.86 28.33 18.34 28.35 17.8C28.55 17.79 28.74 17.79 28.92 17.79C29.1 17.79 29.27 17.79 29.45 17.79C29.63 17.79 29.81 17.8 30 17.78C30 17.24 30 16.72 30 16.2C30.36 16.2 30.71 16.19 31.06 16.19C31.26 16.19 31.45 16.19 31.66 16.19C31.67 16.26 31.67 16.32 31.67 16.38Z" stroke="#000000" stroke-opacity="0" stroke-width="1.000000"/>
	<path id="path" d="M46.66 16.19C46.68 16.26 46.67 16.32 46.67 16.38C46.67 17.32 46.67 18.26 46.67 19.2C46.67 19.26 46.67 19.32 46.67 19.38C45.56 19.38 44.46 19.38 43.34 19.38C43.34 18.86 43.34 18.34 43.36 17.8C43.56 17.79 43.74 17.79 43.92 17.79C44.1 17.79 44.28 17.79 44.45 17.79C44.63 17.79 44.81 17.8 45.01 17.78C45.01 17.24 45.01 16.72 45.01 16.2C45.36 16.2 45.71 16.19 46.07 16.19C46.26 16.19 46.45 16.19 46.66 16.19Z" fill="#FFA8C2" fill-opacity="1.000000" fill-rule="nonzero"/>
	<path id="path" d="M46.67 16.38C46.67 17.32 46.67 18.26 46.67 19.2C46.67 19.26 46.67 19.32 46.67 19.38C45.56 19.38 44.46 19.38 43.34 19.38C43.34 18.86 43.34 18.34 43.36 17.8C43.56 17.79 43.74 17.79 43.92 17.79C44.1 17.79 44.28 17.79 44.45 17.79C44.63 17.79 44.81 17.8 45.01 17.78C45.01 17.24 45.01 16.72 45.01 16.2C45.36 16.2 45.71 16.19 46.07 16.19C46.26 16.19 46.45 16.19 46.66 16.19C46.68 16.26 46.67 16.32 46.67 16.38Z" stroke="#000000" stroke-opacity="0" stroke-width="1.000000"/>
	<path id="path" d="M8.32 21C8.33 21.52 8.33 22.04 8.33 22.54C8.31 22.56 8.31 22.57 8.3 22.57C8.3 22.57 8.29 22.58 8.29 22.58C8.28 22.58 8.27 22.58 8.26 22.58C6.63 22.59 5 22.59 3.35 22.59C3.33 22.07 3.33 21.54 3.33 21.01C4.99 20.99 6.65 20.99 8.32 21Z" fill="#FFC4DA" fill-opacity="1.000000" fill-rule="nonzero"/>
	<path id="path" d="M8.33 22.54C8.31 22.56 8.31 22.57 8.3 22.57C8.3 22.57 8.29 22.58 8.29 22.58C8.28 22.58 8.27 22.58 8.26 22.58C6.63 22.59 5 22.59 3.35 22.59C3.33 22.07 3.33 21.54 3.33 21.01C4.99 20.99 6.65 20.99 8.32 21C8.33 21.52 8.33 22.04 8.33 22.54Z" stroke="#000000" stroke-opacity="0" stroke-width="1.000000"/>
	<path id="path" d="M21.66 16.19C21.67 16.26 21.67 16.32 21.67 16.38C21.67 17.32 21.67 18.26 21.67 19.2C21.67 19.26 21.67 19.32 21.67 19.38C20.55 19.38 19.45 19.38 18.33 19.38C18.33 18.86 18.33 18.34 18.35 17.8C18.55 17.79 18.74 17.79 18.92 17.79C19.1 17.79 19.27 17.79 19.45 17.79C19.63 17.79 19.81 17.8 20 17.78C20 17.24 20 16.72 20 16.2C20.35 16.2 20.71 16.19 21.06 16.19C21.25 16.19 21.45 16.19 21.66 16.19Z" fill="#FFA8C2" fill-opacity="1.000000" fill-rule="nonzero"/>
	<path id="path" d="M21.67 16.38C21.67 17.32 21.67 18.26 21.67 19.2C21.67 19.26 21.67 19.32 21.67 19.38C20.55 19.38 19.45 19.38 18.33 19.38C18.33 18.86 18.33 18.34 18.35 17.8C18.55 17.79 18.74 17.79 18.92 17.79C19.1 17.79 19.27 17.79 19.45 17.79C19.63 17.79 19.81 17.8 20 17.78C20 17.24 20 16.72 20 16.2C20.35 16.2 20.71 16.19 21.06 16.19C21.25 16.19 21.45 16.19 21.66 16.19C21.67 16.26 21.67 16.32 21.67 16.38Z" stroke="#000000" stroke-opacity="0" stroke-width="1.000000"/>
	<path id="path" d="M6.66 27.39C6.66 27.91 6.66 28.44 6.66 28.99C6.29 28.99 5.93 28.99 5.57 28.99C5.2 28.99 4.83 28.99 4.47 28.99C4.1 28.99 3.73 28.99 3.35 28.99C3.34 28.47 3.33 27.94 3.35 27.4C4.46 27.39 5.56 27.39 6.66 27.39Z" fill="#FFA8C2" fill-opacity="1.000000" fill-rule="nonzero"/>
	<path id="path" d="M6.66 28.99C6.29 28.99 5.93 28.99 5.57 28.99C5.2 28.99 4.83 28.99 4.47 28.99C4.1 28.99 3.73 28.99 3.35 28.99C3.34 28.47 3.33 27.94 3.35 27.4C4.46 27.39 5.56 27.39 6.66 27.39C6.66 27.91 6.66 28.44 6.66 28.99Z" stroke="#000000" stroke-opacity="0" stroke-width="1.000000"/>
	<path id="path" d="M6.66 27.37C5.56 27.39 4.46 27.39 3.35 27.39C3.33 26.86 3.33 26.34 3.33 25.81C4.43 25.79 5.54 25.79 6.63 25.79C6.64 25.8 6.64 25.81 6.65 25.81C6.65 25.81 6.66 25.82 6.66 25.82C6.66 26.33 6.66 26.84 6.66 27.37Z" fill="#FFC4DA" fill-opacity="1.000000" fill-rule="nonzero"/>
	<path id="path" d="M3.35 27.39C3.33 26.86 3.33 26.34 3.33 25.81C4.43 25.79 5.54 25.79 6.63 25.79C6.64 25.8 6.64 25.81 6.65 25.81C6.65 25.81 6.66 25.82 6.66 25.82C6.66 26.33 6.66 26.84 6.66 27.37C5.56 27.39 4.46 27.39 3.35 27.39Z" stroke="#000000" stroke-opacity="0" stroke-width="1.000000"/>
	<path id="path" d="M39.99 16.2C40 16.72 40 17.24 40 17.78C39.81 17.8 39.63 17.79 39.45 17.79C39.28 17.79 39.1 17.79 38.92 17.79C38.74 17.79 38.56 17.79 38.36 17.79C38.34 17.38 38.34 16.97 38.34 16.56C38.34 16.45 38.34 16.34 38.33 16.21C38.88 16.2 39.43 16.2 39.99 16.2Z" fill="#FFC4DA" fill-opacity="1.000000" fill-rule="nonzero"/>
	<path id="path" d="M40 17.78C39.81 17.8 39.63 17.79 39.45 17.79C39.28 17.79 39.1 17.79 38.92 17.79C38.74 17.79 38.56 17.79 38.36 17.79C38.34 17.38 38.34 16.97 38.34 16.56C38.34 16.45 38.34 16.34 38.33 16.21C38.88 16.2 39.43 16.2 39.99 16.2C40 16.72 40 17.24 40 17.78Z" stroke="#000000" stroke-opacity="0" stroke-width="1.000000"/>
	<path id="path" d="M14.98 16.2C15 16.72 15 17.24 15 17.78C14.81 17.8 14.63 17.79 14.45 17.79C14.27 17.79 14.09 17.79 13.92 17.79C13.73 17.79 13.55 17.79 13.35 17.79C13.34 17.38 13.33 16.97 13.33 16.56C13.33 16.45 13.33 16.34 13.33 16.21C13.88 16.2 14.42 16.2 14.98 16.2Z" fill="#FFC4DA" fill-opacity="1.000000" fill-rule="nonzero"/>
	<path id="path" d="M15 17.78C14.81 17.8 14.63 17.79 14.45 17.79C14.27 17.79 14.09 17.79 13.92 17.79C13.73 17.79 13.55 17.79 13.35 17.79C13.34 17.38 13.33 16.97 13.33 16.56C13.33 16.45 13.33 16.34 13.33 16.21C13.88 16.2 14.42 16.2 14.98 16.2C15 16.72 15 17.24 15 17.78Z" stroke="#000000" stroke-opacity="0" stroke-width="1.000000"/>
	<path id="path" d="M34.99 16.2C35 16.72 35 17.24 35 17.78C34.81 17.8 34.63 17.79 34.45 17.79C34.28 17.79 34.1 17.79 33.92 17.79C33.74 17.79 33.56 17.79 33.36 17.79C33.34 17.38 33.34 16.97 33.34 16.56C33.33 16.45 33.33 16.34 33.33 16.21C33.88 16.2 34.43 16.2 34.99 16.2Z" fill="#FFC4DA" fill-opacity="1.000000" fill-rule="nonzero"/>
	<path id="path" d="M35 17.78C34.81 17.8 34.63 17.79 34.45 17.79C34.28 17.79 34.1 17.79 33.92 17.79C33.74 17.79 33.56 17.79 33.36 17.79C33.34 17.38 33.34 16.97 33.34 16.56C33.33 16.45 33.33 16.34 33.33 16.21C33.88 16.2 34.43 16.2 34.99 16.2C35 16.72 35 17.24 35 17.78Z" stroke="#000000" stroke-opacity="0" stroke-width="1.000000"/>
	<path id="path" d="M9.98 16.2C10 16.72 10 17.24 10 17.78C9.81 17.8 9.63 17.79 9.45 17.79C9.27 17.79 9.09 17.79 8.92 17.79C8.73 17.79 8.55 17.79 8.35 17.79C8.33 17.38 8.33 16.97 8.33 16.56C8.33 16.45 8.33 16.34 8.33 16.21C8.87 16.2 9.42 16.2 9.98 16.2Z" fill="#FFC4DA" fill-opacity="1.000000" fill-rule="nonzero"/>
	<path id="path" d="M10 17.78C9.81 17.8 9.63 17.79 9.45 17.79C9.27 17.79 9.09 17.79 8.92 17.79C8.73 17.79 8.55 17.79 8.35 17.79C8.33 17.38 8.33 16.97 8.33 16.56C8.33 16.45 8.33 16.34 8.33 16.21C8.87 16.2 9.42 16.2 9.98 16.2C10 16.72 10 17.24 10 17.78Z" stroke="#000000" stroke-opacity="0" stroke-width="1.000000"/>
	<path id="path" d="M29.99 16.2C30 16.72 30 17.24 30 17.78C29.81 17.8 29.63 17.79 29.45 17.79C29.27 17.79 29.1 17.79 28.92 17.79C28.74 17.79 28.55 17.79 28.36 17.79C28.34 17.38 28.34 16.97 28.33 16.56C28.33 16.45 28.33 16.34 28.33 16.21C28.88 16.2 29.43 16.2 29.99 16.2Z" fill="#FFC4DA" fill-opacity="1.000000" fill-rule="nonzero"/>
	<path id="path" d="M30 17.78C29.81 17.8 29.63 17.79 29.45 17.79C29.27 17.79 29.1 17.79 28.92 17.79C28.74 17.79 28.55 17.79 28.36 17.79C28.34 17.38 28.34 16.97 28.33 16.56C28.33 16.45 28.33 16.34 28.33 16.21C28.88 16.2 29.43 16.2 29.99 16.2C30 16.72 30 17.24 30 17.78Z" stroke="#000000" stroke-opacity="0" stroke-width="1.000000"/>
	<path id="path" d="M4.98 16.2C5 16.72 5 17.24 5 17.78C4.81 17.8 4.63 17.79 4.45 17.79C4.27 17.79 4.09 17.79 3.91 17.79C3.73 17.79 3.55 17.79 3.35 17.79C3.34 17.27 3.34 16.75 3.34 16.2C3.52 16.18 3.7 16.2 3.88 16.19C4.06 16.19 4.24 16.19 4.42 16.19C4.6 16.19 4.78 16.19 4.98 16.2Z" fill="#FFC4DA" fill-opacity="1.000000" fill-rule="nonzero"/>
	<path id="path" d="M5 17.78C4.81 17.8 4.63 17.79 4.45 17.79C4.27 17.79 4.09 17.79 3.91 17.79C3.73 17.79 3.55 17.79 3.35 17.79C3.34 17.27 3.34 16.75 3.34 16.2C3.52 16.18 3.7 16.2 3.88 16.19C4.06 16.19 4.24 16.19 4.42 16.19C4.6 16.19 4.78 16.19 4.98 16.2C5 16.72 5 17.24 5 17.78Z" stroke="#000000" stroke-opacity="0" stroke-width="1.000000"/>
	<path id="path" d="M24.99 16.2C25 16.72 25 17.24 25 17.78C24.81 17.8 24.63 17.79 24.45 17.79C24.27 17.79 24.1 17.79 23.92 17.79C23.74 17.79 23.55 17.79 23.36 17.79C23.34 17.38 23.34 16.97 23.33 16.56C23.33 16.45 23.33 16.34 23.33 16.21C23.88 16.2 24.42 16.2 24.99 16.2Z" fill="#FFC4DA" fill-opacity="1.000000" fill-rule="nonzero"/>
	<path id="path" d="M25 17.78C24.81 17.8 24.63 17.79 24.45 17.79C24.27 17.79 24.1 17.79 23.92 17.79C23.74 17.79 23.55 17.79 23.36 17.79C23.34 17.38 23.34 16.97 23.33 16.56C23.33 16.45 23.33 16.34 23.33 16.21C23.88 16.2 24.42 16.2 24.99 16.2C25 16.72 25 17.24 25 17.78Z" stroke="#000000" stroke-opacity="0" stroke-width="1.000000"/>
	<path id="path" d="M44.99 16.2C45.01 16.72 45.01 17.24 45.01 17.78C44.81 17.8 44.63 17.79 44.45 17.79C44.28 17.79 44.1 17.79 43.92 17.79C43.74 17.79 43.56 17.79 43.36 17.79C43.34 17.38 43.34 16.97 43.34 16.56C43.34 16.45 43.34 16.34 43.34 16.21C43.88 16.2 44.43 16.2 44.99 16.2Z" fill="#FFC4DA" fill-opacity="1.000000" fill-rule="nonzero"/>
	<path id="path" d="M45.01 17.78C44.81 17.8 44.63 17.79 44.45 17.79C44.28 17.79 44.1 17.79 43.92 17.79C43.74 17.79 43.56 17.79 43.36 17.79C43.34 17.38 43.34 16.97 43.34 16.56C43.34 16.45 43.34 16.34 43.34 16.21C43.88 16.2 44.43 16.2 44.99 16.2C45.01 16.72 45.01 17.24 45.01 17.78Z" stroke="#000000" stroke-opacity="0" stroke-width="1.000000"/>
	<path id="path" d="M19.99 16.2C20 16.72 20 17.24 20 17.78C19.81 17.8 19.63 17.79 19.45 17.79C19.27 17.79 19.1 17.79 18.92 17.79C18.74 17.79 18.55 17.79 18.35 17.79C18.34 17.38 18.33 16.97 18.33 16.56C18.33 16.45 18.33 16.34 18.33 16.21C18.88 16.2 19.42 16.2 19.99 16.2Z" fill="#FFC4DA" fill-opacity="1.000000" fill-rule="nonzero"/>
	<path id="path" d="M20 17.78C19.81 17.8 19.63 17.79 19.45 17.79C19.27 17.79 19.1 17.79 18.92 17.79C18.74 17.79 18.55 17.79 18.35 17.79C18.34 17.38 18.33 16.97 18.33 16.56C18.33 16.45 18.33 16.34 18.33 16.21C18.88 16.2 19.42 16.2 19.99 16.2C20 16.72 20 17.24 20 17.78Z" stroke="#000000" stroke-opacity="0" stroke-width="1.000000"/>
	<path id="path" d="M33.34 30.6C33.88 30.6 34.42 30.6 34.95 30.59C34.96 30.59 34.97 30.6 34.99 30.61C34.99 31.66 34.99 32.71 34.99 33.77C34.88 33.8 16.94 33.81 16.67 33.77C16.67 33.26 16.67 32.74 16.68 32.2C22.22 32.18 27.74 32.18 33.26 32.18C33.27 32.18 33.28 32.18 33.29 32.18C33.29 32.18 33.3 32.17 33.3 32.17C33.31 32.17 33.31 32.16 33.34 32.13C33.34 31.64 33.34 31.12 33.34 30.6Z" fill="#FEA8C1" fill-opacity="1.000000" fill-rule="nonzero"/>
	<path id="path" d="M34.95 30.59C34.96 30.59 34.97 30.6 34.99 30.61C34.99 31.66 34.99 32.71 34.99 33.77C34.88 33.8 16.94 33.81 16.67 33.77C16.67 33.26 16.67 32.74 16.68 32.2C22.22 32.18 27.74 32.18 33.26 32.18C33.27 32.18 33.28 32.18 33.29 32.18C33.29 32.18 33.3 32.17 33.3 32.17C33.31 32.17 33.31 32.16 33.34 32.13C33.34 31.64 33.34 31.12 33.34 30.6C33.88 30.6 34.42 30.6 34.95 30.59Z" stroke="#000000" stroke-opacity="0" stroke-width="1.000000"/>
	<path id="path" d="M33.32 30.6C33.34 31.12 33.34 31.64 33.34 32.13C33.31 32.16 33.31 32.17 33.3 32.17C33.3 32.17 33.29 32.18 33.29 32.18C33.28 32.18 33.27 32.18 33.26 32.18C27.74 32.18 22.22 32.19 16.69 32.19C16.67 31.67 16.67 31.15 16.67 30.64C16.67 30.63 16.68 30.62 16.68 30.6C16.73 30.6 16.78 30.59 16.83 30.59C22.31 30.59 27.79 30.59 33.28 30.59C33.29 30.59 33.3 30.59 33.32 30.6Z" fill="#FFC4DA" fill-opacity="1.000000" fill-rule="nonzero"/>
	<path id="path" d="M33.34 32.13C33.31 32.16 33.31 32.17 33.3 32.17C33.3 32.17 33.29 32.18 33.29 32.18C33.28 32.18 33.27 32.18 33.26 32.18C27.74 32.18 22.22 32.19 16.69 32.19C16.67 31.67 16.67 31.15 16.67 30.64C16.67 30.63 16.68 30.62 16.68 30.6C16.73 30.6 16.78 30.59 16.83 30.59C22.31 30.59 27.79 30.59 33.28 30.59C33.29 30.59 33.3 30.59 33.32 30.6C33.34 31.12 33.34 31.64 33.34 32.13Z" stroke="#000000" stroke-opacity="0" stroke-width="1.000000"/>
	<path id="path" d="M45.01 25.8C45.55 25.8 46.09 25.8 46.62 25.8C46.63 25.8 46.64 25.8 46.66 25.81C46.66 26.86 46.66 27.91 46.66 28.97C46.55 29 38.61 29.01 38.34 28.98C38.34 28.46 38.34 27.94 38.36 27.4C40.56 27.39 42.74 27.39 44.93 27.38C44.94 27.38 44.95 27.38 44.96 27.38C44.96 27.38 44.97 27.38 44.97 27.37C44.98 27.37 44.98 27.36 45.01 27.34C45.01 26.84 45.01 26.32 45.01 25.8Z" fill="#FEA7C1" fill-opacity="1.000000" fill-rule="nonzero"/>
	<path id="path" d="M46.62 25.8C46.63 25.8 46.64 25.8 46.66 25.81C46.66 26.86 46.66 27.91 46.66 28.97C46.55 29 38.61 29.01 38.34 28.98C38.34 28.46 38.34 27.94 38.36 27.4C40.56 27.39 42.74 27.39 44.93 27.38C44.94 27.38 44.95 27.38 44.96 27.38C44.96 27.38 44.97 27.38 44.97 27.37C44.98 27.37 44.98 27.36 45.01 27.34C45.01 26.84 45.01 26.32 45.01 25.8C45.55 25.8 46.09 25.8 46.62 25.8Z" stroke="#000000" stroke-opacity="0" stroke-width="1.000000"/>
	<path id="path" d="M43.34 21C43.38 21 43.42 20.99 43.46 20.99C44.48 20.99 45.5 20.99 46.52 20.99C46.56 20.99 46.61 21 46.66 21C46.66 22.06 46.66 23.12 46.66 24.18C45 24.18 43.34 24.18 41.67 24.18C41.67 23.66 41.67 23.14 41.69 22.6C41.98 22.59 42.24 22.59 42.51 22.59C42.78 22.59 43.05 22.59 43.34 22.58C43.34 22.04 43.34 21.52 43.34 21Z" fill="#FEA7C1" fill-opacity="1.000000" fill-rule="nonzero"/>
	<path id="path" d="M43.46 20.99C44.48 20.99 45.5 20.99 46.52 20.99C46.56 20.99 46.61 21 46.66 21C46.66 22.06 46.66 23.12 46.66 24.18C45 24.18 43.34 24.18 41.67 24.18C41.67 23.66 41.67 23.14 41.69 22.6C41.98 22.59 42.24 22.59 42.51 22.59C42.78 22.59 43.05 22.59 43.34 22.58C43.34 22.04 43.34 21.52 43.34 21C43.38 21 43.42 20.99 43.46 20.99Z" stroke="#000000" stroke-opacity="0" stroke-width="1.000000"/>
	<path id="path" d="M45.01 30.6C45.55 30.6 46.08 30.6 46.62 30.59C46.63 30.59 46.64 30.6 46.66 30.61C46.66 31.66 46.66 32.72 46.66 33.78C45 33.78 43.34 33.78 41.67 33.78C41.67 33.26 41.67 32.74 41.69 32.2C42.78 32.18 43.85 32.18 44.93 32.18C44.94 32.18 44.95 32.18 44.96 32.18C44.96 32.18 44.97 32.17 44.97 32.17C44.98 32.17 44.98 32.16 45.01 32.14C45.01 31.64 45.01 31.12 45.01 30.6Z" fill="#FDA7C1" fill-opacity="1.000000" fill-rule="nonzero"/>
	<path id="path" d="M46.62 30.59C46.63 30.59 46.64 30.6 46.66 30.61C46.66 31.66 46.66 32.72 46.66 33.78C45 33.78 43.34 33.78 41.67 33.78C41.67 33.26 41.67 32.74 41.69 32.2C42.78 32.18 43.85 32.18 44.93 32.18C44.94 32.18 44.95 32.18 44.96 32.18C44.96 32.18 44.97 32.17 44.97 32.17C44.98 32.17 44.98 32.16 45.01 32.14C45.01 31.64 45.01 31.12 45.01 30.6C45.55 30.6 46.08 30.6 46.62 30.59Z" stroke="#000000" stroke-opacity="0" stroke-width="1.000000"/>
	<path id="path" d="M44.99 25.8C45.01 26.32 45.01 26.84 45.01 27.34C44.98 27.36 44.98 27.37 44.97 27.37C44.97 27.37 44.96 27.38 44.96 27.38C44.95 27.38 44.94 27.38 44.92 27.38C42.74 27.39 40.56 27.39 38.36 27.39C38.34 26.87 38.34 26.35 38.34 25.84C38.34 25.83 38.35 25.82 38.36 25.79C40.56 25.79 42.77 25.79 44.99 25.8Z" fill="#FFC4DA" fill-opacity="1.000000" fill-rule="nonzero"/>
	<path id="path" d="M45.01 27.34C44.98 27.36 44.98 27.37 44.97 27.37C44.97 27.37 44.96 27.38 44.96 27.38C44.95 27.38 44.94 27.38 44.92 27.38C42.74 27.39 40.56 27.39 38.36 27.39C38.34 26.87 38.34 26.35 38.34 25.84C38.34 25.83 38.35 25.82 38.36 25.79C40.56 25.79 42.77 25.79 44.99 25.8C45.01 26.32 45.01 26.84 45.01 27.34Z" stroke="#000000" stroke-opacity="0" stroke-width="1.000000"/>
	<path id="path" d="M25 25.8C25.54 25.8 26.08 25.8 26.62 25.8C26.63 25.8 26.64 25.8 26.66 25.81C26.66 26.86 26.66 27.92 26.66 28.98C25.55 28.98 24.45 28.98 23.33 28.98C23.33 28.46 23.33 27.94 23.35 27.4C23.64 27.39 23.9 27.39 24.17 27.39C24.44 27.39 24.71 27.39 25 27.38C25 26.84 25 26.32 25 25.8Z" fill="#FDA7C1" fill-opacity="1.000000" fill-rule="nonzero"/>
	<path id="path" d="M26.62 25.8C26.63 25.8 26.64 25.8 26.66 25.81C26.66 26.86 26.66 27.92 26.66 28.98C25.55 28.98 24.45 28.98 23.33 28.98C23.33 28.46 23.33 27.94 23.35 27.4C23.64 27.39 23.9 27.39 24.17 27.39C24.44 27.39 24.71 27.39 25 27.38C25 26.84 25 26.32 25 25.8C25.54 25.8 26.08 25.8 26.62 25.8Z" stroke="#000000" stroke-opacity="0" stroke-width="1.000000"/>
	<path id="path" d="M23.34 21C23.88 21 24.41 21 24.95 21C24.96 21 24.97 21 24.99 21.01C24.99 22.06 24.99 23.12 24.99 24.18C23.88 24.18 22.78 24.18 21.67 24.18C21.67 23.66 21.67 23.14 21.69 22.6C21.97 22.59 22.24 22.59 22.5 22.59C22.77 22.59 23.04 22.59 23.34 22.58C23.34 22.04 23.34 21.52 23.34 21Z" fill="#FDA7C1" fill-opacity="1.000000" fill-rule="nonzero"/>
	<path id="path" d="M24.95 21C24.96 21 24.97 21 24.99 21.01C24.99 22.06 24.99 23.12 24.99 24.18C23.88 24.18 22.78 24.18 21.67 24.18C21.67 23.66 21.67 23.14 21.69 22.6C21.97 22.59 22.24 22.59 22.5 22.59C22.77 22.59 23.04 22.59 23.34 22.58C23.34 22.04 23.34 21.52 23.34 21C23.88 21 24.41 21 24.95 21Z" stroke="#000000" stroke-opacity="0" stroke-width="1.000000"/>
	<path id="path" d="M28.34 21C28.88 21 29.41 21 29.95 21C29.96 21 29.97 21 29.99 21.01C29.99 22.06 29.99 23.12 29.99 24.18C28.88 24.18 27.78 24.18 26.67 24.18C26.67 23.66 26.67 23.14 26.69 22.6C26.97 22.59 27.24 22.59 27.51 22.59C27.78 22.59 28.05 22.59 28.34 22.58C28.34 22.04 28.34 21.52 28.34 21Z" fill="#FDA7C1" fill-opacity="1.000000" fill-rule="nonzero"/>
	<path id="path" d="M29.95 21C29.96 21 29.97 21 29.99 21.01C29.99 22.06 29.99 23.12 29.99 24.18C28.88 24.18 27.78 24.18 26.67 24.18C26.67 23.66 26.67 23.14 26.69 22.6C26.97 22.59 27.24 22.59 27.51 22.59C27.78 22.59 28.05 22.59 28.34 22.58C28.34 22.04 28.34 21.52 28.34 21C28.88 21 29.41 21 29.95 21Z" stroke="#000000" stroke-opacity="0" stroke-width="1.000000"/>
	<path id="path" d="M33.34 21C33.88 21 34.42 21 34.95 21C34.96 21 34.97 21 34.99 21.01C34.99 22.06 34.99 23.12 34.99 24.18C33.89 24.18 32.78 24.18 31.67 24.18C31.67 23.66 31.67 23.14 31.69 22.6C31.97 22.59 32.24 22.59 32.51 22.59C32.78 22.59 33.05 22.59 33.34 22.58C33.34 22.04 33.34 21.52 33.34 21Z" fill="#FDA7C1" fill-opacity="1.000000" fill-rule="nonzero"/>
	<path id="path" d="M34.95 21C34.96 21 34.97 21 34.99 21.01C34.99 22.06 34.99 23.12 34.99 24.18C33.89 24.18 32.78 24.18 31.67 24.18C31.67 23.66 31.67 23.14 31.69 22.6C31.97 22.59 32.24 22.59 32.51 22.59C32.78 22.59 33.05 22.59 33.34 22.58C33.34 22.04 33.34 21.52 33.34 21C33.88 21 34.42 21 34.95 21Z" stroke="#000000" stroke-opacity="0" stroke-width="1.000000"/>
	<path id="path" d="M38.34 21C38.88 21 39.42 21 39.95 21C39.96 21 39.97 21 39.99 21.01C39.99 22.06 39.99 23.12 39.99 24.18C38.89 24.18 37.79 24.18 36.67 24.18C36.67 23.66 36.67 23.14 36.69 22.6C36.97 22.59 37.24 22.59 37.51 22.59C37.78 22.59 38.05 22.59 38.34 22.58C38.34 22.04 38.34 21.52 38.34 21Z" fill="#FDA7C1" fill-opacity="1.000000" fill-rule="nonzero"/>
	<path id="path" d="M39.95 21C39.96 21 39.97 21 39.99 21.01C39.99 22.06 39.99 23.12 39.99 24.18C38.89 24.18 37.79 24.18 36.67 24.18C36.67 23.66 36.67 23.14 36.69 22.6C36.97 22.59 37.24 22.59 37.51 22.59C37.78 22.59 38.05 22.59 38.34 22.58C38.34 22.04 38.34 21.52 38.34 21C38.88 21 39.42 21 39.95 21Z" stroke="#000000" stroke-opacity="0" stroke-width="1.000000"/>
	<path id="path" d="M10 25.8C10.54 25.8 11.08 25.8 11.62 25.8C11.63 25.8 11.63 25.8 11.65 25.81C11.65 26.86 11.65 27.92 11.65 28.98C10.55 28.98 9.45 28.98 8.33 28.98C8.33 28.46 8.33 27.94 8.35 27.4C8.63 27.39 8.9 27.39 9.17 27.39C9.44 27.39 9.71 27.39 10 27.38C10 26.84 10 26.32 10 25.8Z" fill="#FDA7C1" fill-opacity="1.000000" fill-rule="nonzero"/>
	<path id="path" d="M11.62 25.8C11.63 25.8 11.63 25.8 11.65 25.81C11.65 26.86 11.65 27.92 11.65 28.98C10.55 28.98 9.45 28.98 8.33 28.98C8.33 28.46 8.33 27.94 8.35 27.4C8.63 27.39 8.9 27.39 9.17 27.39C9.44 27.39 9.71 27.39 10 27.38C10 26.84 10 26.32 10 25.8C10.54 25.8 11.08 25.8 11.62 25.8Z" stroke="#000000" stroke-opacity="0" stroke-width="1.000000"/>
	<path id="path" d="M15 25.8C15.54 25.8 16.08 25.8 16.62 25.8C16.63 25.8 16.64 25.8 16.66 25.81C16.66 26.86 16.66 27.92 16.66 28.98C15.55 28.98 14.45 28.98 13.33 28.98C13.33 28.46 13.33 27.94 13.35 27.4C13.64 27.39 13.9 27.39 14.17 27.39C14.44 27.39 14.71 27.39 15 27.38C15 26.84 15 26.32 15 25.8Z" fill="#FDA7C1" fill-opacity="1.000000" fill-rule="nonzero"/>
	<path id="path" d="M16.62 25.8C16.63 25.8 16.64 25.8 16.66 25.81C16.66 26.86 16.66 27.92 16.66 28.98C15.55 28.98 14.45 28.98 13.33 28.98C13.33 28.46 13.33 27.94 13.35 27.4C13.64 27.39 13.9 27.39 14.17 27.39C14.44 27.39 14.71 27.39 15 27.38C15 26.84 15 26.32 15 25.8C15.54 25.8 16.08 25.8 16.62 25.8Z" stroke="#000000" stroke-opacity="0" stroke-width="1.000000"/>
	<path id="path" d="M20 25.8C20.54 25.8 21.08 25.8 21.62 25.8C21.63 25.8 21.64 25.8 21.66 25.81C21.66 26.86 21.66 27.92 21.66 28.98C20.55 28.98 19.45 28.98 18.33 28.98C18.33 28.46 18.33 27.94 18.35 27.4C18.64 27.39 18.9 27.39 19.17 27.39C19.44 27.39 19.71 27.39 20 27.38C20 26.84 20 26.32 20 25.8Z" fill="#FDA7C1" fill-opacity="1.000000" fill-rule="nonzero"/>
	<path id="path" d="M21.62 25.8C21.63 25.8 21.64 25.8 21.66 25.81C21.66 26.86 21.66 27.92 21.66 28.98C20.55 28.98 19.45 28.98 18.33 28.98C18.33 28.46 18.33 27.94 18.35 27.4C18.64 27.39 18.9 27.39 19.17 27.39C19.44 27.39 19.71 27.39 20 27.38C20 26.84 20 26.32 20 25.8C20.54 25.8 21.08 25.8 21.62 25.8Z" stroke="#000000" stroke-opacity="0" stroke-width="1.000000"/>
	<path id="path" d="M30.01 25.8C30.54 25.8 31.08 25.8 31.62 25.8C31.63 25.8 31.64 25.8 31.66 25.81C31.66 26.86 31.66 27.92 31.66 28.98C30.55 28.98 29.45 28.98 28.33 28.98C28.33 28.46 28.33 27.94 28.35 27.4C28.64 27.39 28.91 27.39 29.17 27.39C29.44 27.39 29.71 27.39 30.01 27.38C30.01 26.84 30.01 26.32 30.01 25.8Z" fill="#FDA7C1" fill-opacity="1.000000" fill-rule="nonzero"/>
	<path id="path" d="M31.62 25.8C31.63 25.8 31.64 25.8 31.66 25.81C31.66 26.86 31.66 27.92 31.66 28.98C30.55 28.98 29.45 28.98 28.33 28.98C28.33 28.46 28.33 27.94 28.35 27.4C28.64 27.39 28.91 27.39 29.17 27.39C29.44 27.39 29.71 27.39 30.01 27.38C30.01 26.84 30.01 26.32 30.01 25.8C30.54 25.8 31.08 25.8 31.62 25.8Z" stroke="#000000" stroke-opacity="0" stroke-width="1.000000"/>
	<path id="path" d="M35.01 25.8C35.54 25.8 36.08 25.8 36.62 25.8C36.63 25.8 36.64 25.8 36.66 25.81C36.66 26.86 36.66 27.92 36.66 28.98C35.55 28.98 34.45 28.98 33.34 28.98C33.34 28.46 33.34 27.94 33.35 27.4C33.64 27.39 33.91 27.39 34.17 27.39C34.44 27.39 34.71 27.39 35.01 27.38C35.01 26.84 35.01 26.32 35.01 25.8Z" fill="#FDA7C1" fill-opacity="1.000000" fill-rule="nonzero"/>
	<path id="path" d="M36.62 25.8C36.63 25.8 36.64 25.8 36.66 25.81C36.66 26.86 36.66 27.92 36.66 28.98C35.55 28.98 34.45 28.98 33.34 28.98C33.34 28.46 33.34 27.94 33.35 27.4C33.64 27.39 33.91 27.39 34.17 27.39C34.44 27.39 34.71 27.39 35.01 27.38C35.01 26.84 35.01 26.32 35.01 25.8C35.54 25.8 36.08 25.8 36.62 25.8Z" stroke="#000000" stroke-opacity="0" stroke-width="1.000000"/>
	<path id="path" d="M13.34 30.6C13.87 30.6 14.41 30.6 14.95 30.59C14.96 30.59 14.97 30.6 14.99 30.61C14.99 31.66 14.99 32.72 14.99 33.78C13.88 33.78 12.78 33.78 11.66 33.78C11.66 33.26 11.66 32.74 11.68 32.2C11.97 32.19 12.24 32.19 12.5 32.19C12.77 32.18 13.04 32.19 13.34 32.18C13.34 31.64 13.34 31.12 13.34 30.6Z" fill="#FDA7C1" fill-opacity="1.000000" fill-rule="nonzero"/>
	<path id="path" d="M14.95 30.59C14.96 30.59 14.97 30.6 14.99 30.61C14.99 31.66 14.99 32.72 14.99 33.78C13.88 33.78 12.78 33.78 11.66 33.78C11.66 33.26 11.66 32.74 11.68 32.2C11.97 32.19 12.24 32.19 12.5 32.19C12.77 32.18 13.04 32.19 13.34 32.18C13.34 31.64 13.34 31.12 13.34 30.6C13.87 30.6 14.41 30.6 14.95 30.59Z" stroke="#000000" stroke-opacity="0" stroke-width="1.000000"/>
	<path id="path" d="M38.34 30.6C38.88 30.6 39.42 30.6 39.95 30.59C39.96 30.59 39.97 30.6 39.99 30.61C39.99 31.66 39.99 32.72 39.99 33.78C38.89 33.78 37.79 33.78 36.67 33.78C36.67 33.26 36.67 32.74 36.69 32.2C36.97 32.19 37.24 32.19 37.51 32.19C37.78 32.18 38.05 32.19 38.34 32.18C38.34 31.64 38.34 31.12 38.34 30.6Z" fill="#FDA7C1" fill-opacity="1.000000" fill-rule="nonzero"/>
	<path id="path" d="M39.95 30.59C39.96 30.59 39.97 30.6 39.99 30.61C39.99 31.66 39.99 32.72 39.99 33.78C38.89 33.78 37.79 33.78 36.67 33.78C36.67 33.26 36.67 32.74 36.69 32.2C36.97 32.19 37.24 32.19 37.51 32.19C37.78 32.18 38.05 32.19 38.34 32.18C38.34 31.64 38.34 31.12 38.34 30.6C38.88 30.6 39.42 30.6 39.95 30.59Z" stroke="#000000" stroke-opacity="0" stroke-width="1.000000"/>
	<path id="path" d="M18.34 21C18.87 21 19.41 21 19.95 21C19.96 21 19.97 21 19.99 21.01C19.99 22.06 19.99 23.12 19.99 24.18C18.88 24.18 17.78 24.18 16.67 24.18C16.67 23.66 16.67 23.14 16.68 22.6C16.97 22.59 17.24 22.59 17.5 22.59C17.77 22.59 18.04 22.59 18.34 22.58C18.34 22.04 18.34 21.52 18.34 21Z" fill="#FDA7C1" fill-opacity="1.000000" fill-rule="nonzero"/>
	<path id="path" d="M19.95 21C19.96 21 19.97 21 19.99 21.01C19.99 22.06 19.99 23.12 19.99 24.18C18.88 24.18 17.78 24.18 16.67 24.18C16.67 23.66 16.67 23.14 16.68 22.6C16.97 22.59 17.24 22.59 17.5 22.59C17.77 22.59 18.04 22.59 18.34 22.58C18.34 22.04 18.34 21.52 18.34 21C18.87 21 19.41 21 19.95 21Z" stroke="#000000" stroke-opacity="0" stroke-width="1.000000"/>
	<path id="path" d="M13.34 21C13.87 21 14.41 21 14.95 21C14.96 21 14.97 21 14.99 21.01C14.99 22.06 14.99 23.12 14.99 24.18C13.88 24.18 12.78 24.18 11.66 24.18C11.66 23.66 11.66 23.14 11.68 22.6C11.97 22.59 12.24 22.59 12.5 22.59C12.77 22.59 13.04 22.59 13.34 22.58C13.34 22.04 13.34 21.52 13.34 21Z" fill="#FDA7C1" fill-opacity="1.000000" fill-rule="nonzero"/>
	<path id="path" d="M14.95 21C14.96 21 14.97 21 14.99 21.01C14.99 22.06 14.99 23.12 14.99 24.18C13.88 24.18 12.78 24.18 11.66 24.18C11.66 23.66 11.66 23.14 11.68 22.6C11.97 22.59 12.24 22.59 12.5 22.59C12.77 22.59 13.04 22.59 13.34 22.58C13.34 22.04 13.34 21.52 13.34 21C13.87 21 14.41 21 14.95 21Z" stroke="#000000" stroke-opacity="0" stroke-width="1.000000"/>
	<path id="path" d="M44.99 30.6C45.01 31.12 45.01 31.64 45.01 32.14C44.98 32.16 44.98 32.17 44.97 32.17C44.97 32.17 44.96 32.18 44.96 32.18C44.95 32.18 44.94 32.18 44.93 32.18C43.85 32.18 42.78 32.18 41.69 32.19C41.68 31.67 41.67 31.15 41.67 30.64C41.67 30.63 41.68 30.62 41.69 30.59C42.78 30.59 43.88 30.59 44.99 30.6Z" fill="#FFC4DA" fill-opacity="1.000000" fill-rule="nonzero"/>
	<path id="path" d="M45.01 32.14C44.98 32.16 44.98 32.17 44.97 32.17C44.97 32.17 44.96 32.18 44.96 32.18C44.95 32.18 44.94 32.18 44.93 32.18C43.85 32.18 42.78 32.18 41.69 32.19C41.68 31.67 41.67 31.15 41.67 30.64C41.67 30.63 41.68 30.62 41.69 30.59C42.78 30.59 43.88 30.59 44.99 30.6C45.01 31.12 45.01 31.64 45.01 32.14Z" stroke="#000000" stroke-opacity="0" stroke-width="1.000000"/>
	<path id="path" d="M13.32 30.6C13.34 31.12 13.34 31.64 13.34 32.18C13.04 32.19 12.77 32.19 12.5 32.19C12.24 32.19 11.97 32.19 11.69 32.19C11.67 31.67 11.67 31.15 11.67 30.64C11.67 30.63 11.67 30.62 11.68 30.59C12.22 30.59 12.76 30.59 13.32 30.6Z" fill="#FFC4DA" fill-opacity="1.000000" fill-rule="nonzero"/>
	<path id="path" d="M13.34 32.18C13.04 32.19 12.77 32.19 12.5 32.19C12.24 32.19 11.97 32.19 11.69 32.19C11.67 31.67 11.67 31.15 11.67 30.64C11.67 30.63 11.67 30.62 11.68 30.59C12.22 30.59 12.76 30.59 13.32 30.6C13.34 31.12 13.34 31.64 13.34 32.18Z" stroke="#000000" stroke-opacity="0" stroke-width="1.000000"/>
	<path id="path" d="M38.33 30.6C38.34 31.12 38.34 31.64 38.34 32.18C38.05 32.19 37.78 32.19 37.51 32.19C37.24 32.19 36.97 32.19 36.69 32.19C36.67 31.67 36.67 31.15 36.67 30.64C36.67 30.63 36.68 30.62 36.69 30.59C37.23 30.59 37.77 30.59 38.33 30.6Z" fill="#FFC4DA" fill-opacity="1.000000" fill-rule="nonzero"/>
	<path id="path" d="M38.34 32.18C38.05 32.19 37.78 32.19 37.51 32.19C37.24 32.19 36.97 32.19 36.69 32.19C36.67 31.67 36.67 31.15 36.67 30.64C36.67 30.63 36.68 30.62 36.69 30.59C37.23 30.59 37.77 30.59 38.33 30.6C38.34 31.12 38.34 31.64 38.34 32.18Z" stroke="#000000" stroke-opacity="0" stroke-width="1.000000"/>
	<path id="path" d="M23.32 21C23.34 21.52 23.34 22.04 23.34 22.58C23.05 22.59 22.77 22.59 22.5 22.59C22.24 22.59 21.97 22.59 21.69 22.59C21.67 22.07 21.67 21.55 21.67 21.04C21.67 21.03 21.68 21.02 21.69 20.99C22.22 20.99 22.77 20.99 23.32 21Z" fill="#FFC4DA" fill-opacity="1.000000" fill-rule="nonzero"/>
	<path id="path" d="M23.34 22.58C23.05 22.59 22.77 22.59 22.5 22.59C22.24 22.59 21.97 22.59 21.69 22.59C21.67 22.07 21.67 21.55 21.67 21.04C21.67 21.03 21.68 21.02 21.69 20.99C22.22 20.99 22.77 20.99 23.32 21C23.34 21.52 23.34 22.04 23.34 22.58Z" stroke="#000000" stroke-opacity="0" stroke-width="1.000000"/>
	<path id="path" d="M34.99 25.8C35.01 26.32 35.01 26.84 35.01 27.38C34.71 27.39 34.44 27.39 34.17 27.39C33.91 27.39 33.64 27.39 33.36 27.39C33.34 26.87 33.34 26.35 33.34 25.84C33.34 25.83 33.35 25.82 33.36 25.79C33.89 25.79 34.43 25.79 34.99 25.8Z" fill="#FFC4DA" fill-opacity="1.000000" fill-rule="nonzero"/>
	<path id="path" d="M35.01 27.38C34.71 27.39 34.44 27.39 34.17 27.39C33.91 27.39 33.64 27.39 33.36 27.39C33.34 26.87 33.34 26.35 33.34 25.84C33.34 25.83 33.35 25.82 33.36 25.79C33.89 25.79 34.43 25.79 34.99 25.8C35.01 26.32 35.01 26.84 35.01 27.38Z" stroke="#000000" stroke-opacity="0" stroke-width="1.000000"/>
	<path id="path" d="M29.99 25.8C30.01 26.32 30.01 26.84 30.01 27.38C29.71 27.39 29.44 27.39 29.17 27.39C28.91 27.39 28.64 27.39 28.36 27.39C28.34 26.87 28.34 26.35 28.34 25.84C28.34 25.83 28.34 25.82 28.35 25.79C28.89 25.79 29.43 25.79 29.99 25.8Z" fill="#FFC4DA" fill-opacity="1.000000" fill-rule="nonzero"/>
	<path id="path" d="M30.01 27.38C29.71 27.39 29.44 27.39 29.17 27.39C28.91 27.39 28.64 27.39 28.36 27.39C28.34 26.87 28.34 26.35 28.34 25.84C28.34 25.83 28.34 25.82 28.35 25.79C28.89 25.79 29.43 25.79 29.99 25.8C30.01 26.32 30.01 26.84 30.01 27.38Z" stroke="#000000" stroke-opacity="0" stroke-width="1.000000"/>
	<path id="path" d="M24.99 25.8C25 26.32 25 26.84 25 27.38C24.71 27.39 24.44 27.39 24.17 27.39C23.9 27.39 23.64 27.39 23.36 27.39C23.34 26.87 23.34 26.35 23.34 25.84C23.34 25.83 23.34 25.82 23.35 25.79C23.89 25.79 24.43 25.79 24.99 25.8Z" fill="#FFC4DA" fill-opacity="1.000000" fill-rule="nonzero"/>
	<path id="path" d="M25 27.38C24.71 27.39 24.44 27.39 24.17 27.39C23.9 27.39 23.64 27.39 23.36 27.39C23.34 26.87 23.34 26.35 23.34 25.84C23.34 25.83 23.34 25.82 23.35 25.79C23.89 25.79 24.43 25.79 24.99 25.8C25 26.32 25 26.84 25 27.38Z" stroke="#000000" stroke-opacity="0" stroke-width="1.000000"/>
	<path id="path" d="M19.99 25.8C20 26.32 20 26.84 20 27.38C19.71 27.39 19.44 27.39 19.17 27.39C18.9 27.39 18.64 27.39 18.35 27.39C18.34 26.87 18.34 26.35 18.34 25.84C18.34 25.83 18.34 25.82 18.35 25.79C18.89 25.79 19.43 25.79 19.99 25.8Z" fill="#FFC4DA" fill-opacity="1.000000" fill-rule="nonzero"/>
	<path id="path" d="M20 27.38C19.71 27.39 19.44 27.39 19.17 27.39C18.9 27.39 18.64 27.39 18.35 27.39C18.34 26.87 18.34 26.35 18.34 25.84C18.34 25.83 18.34 25.82 18.35 25.79C18.89 25.79 19.43 25.79 19.99 25.8C20 26.32 20 26.84 20 27.38Z" stroke="#000000" stroke-opacity="0" stroke-width="1.000000"/>
	<path id="path" d="M14.99 25.8C15 26.32 15 26.84 15 27.38C14.71 27.39 14.44 27.39 14.17 27.39C13.9 27.39 13.64 27.39 13.35 27.39C13.34 26.87 13.33 26.35 13.33 25.84C13.33 25.83 13.34 25.82 13.35 25.79C13.89 25.79 14.43 25.79 14.99 25.8Z" fill="#FFC4DA" fill-opacity="1.000000" fill-rule="nonzero"/>
	<path id="path" d="M15 27.38C14.71 27.39 14.44 27.39 14.17 27.39C13.9 27.39 13.64 27.39 13.35 27.39C13.34 26.87 13.33 26.35 13.33 25.84C13.33 25.83 13.34 25.82 13.35 25.79C13.89 25.79 14.43 25.79 14.99 25.8C15 26.32 15 26.84 15 27.38Z" stroke="#000000" stroke-opacity="0" stroke-width="1.000000"/>
	<path id="path" d="M9.99 25.8C10 26.32 10 26.84 10 27.38C9.71 27.39 9.44 27.39 9.17 27.39C8.9 27.39 8.63 27.39 8.35 27.39C8.34 26.87 8.33 26.35 8.33 25.84C8.33 25.83 8.34 25.82 8.35 25.79C8.89 25.79 9.43 25.79 9.99 25.8Z" fill="#FFC4DA" fill-opacity="1.000000" fill-rule="nonzero"/>
	<path id="path" d="M10 27.38C9.71 27.39 9.44 27.39 9.17 27.39C8.9 27.39 8.63 27.39 8.35 27.39C8.34 26.87 8.33 26.35 8.33 25.84C8.33 25.83 8.34 25.82 8.35 25.79C8.89 25.79 9.43 25.79 9.99 25.8C10 26.32 10 26.84 10 27.38Z" stroke="#000000" stroke-opacity="0" stroke-width="1.000000"/>
	<path id="path" d="M43.33 21C43.34 21.52 43.34 22.04 43.34 22.58C43.05 22.59 42.78 22.59 42.51 22.59C42.24 22.59 41.98 22.59 41.69 22.59C41.68 22.07 41.67 21.55 41.67 21.04C41.67 21.03 41.68 21.02 41.69 20.99C42.23 20.99 42.77 20.99 43.33 21Z" fill="#FFC4DA" fill-opacity="1.000000" fill-rule="nonzero"/>
	<path id="path" d="M43.34 22.58C43.05 22.59 42.78 22.59 42.51 22.59C42.24 22.59 41.98 22.59 41.69 22.59C41.68 22.07 41.67 21.55 41.67 21.04C41.67 21.03 41.68 21.02 41.69 20.99C42.23 20.99 42.77 20.99 43.33 21C43.34 21.52 43.34 22.04 43.34 22.58Z" stroke="#000000" stroke-opacity="0" stroke-width="1.000000"/>
	<path id="path" d="M13.32 21C13.34 21.52 13.34 22.04 13.34 22.58C13.04 22.59 12.77 22.59 12.5 22.59C12.24 22.59 11.97 22.59 11.69 22.59C11.67 22.07 11.67 21.55 11.67 21.04C11.67 21.03 11.67 21.02 11.68 20.99C12.22 20.99 12.76 20.99 13.32 21Z" fill="#FFC4DA" fill-opacity="1.000000" fill-rule="nonzero"/>
	<path id="path" d="M13.34 22.58C13.04 22.59 12.77 22.59 12.5 22.59C12.24 22.59 11.97 22.59 11.69 22.59C11.67 22.07 11.67 21.55 11.67 21.04C11.67 21.03 11.67 21.02 11.68 20.99C12.22 20.99 12.76 20.99 13.32 21C13.34 21.52 13.34 22.04 13.34 22.58Z" stroke="#000000" stroke-opacity="0" stroke-width="1.000000"/>
	<path id="path" d="M38.33 21C38.34 21.52 38.34 22.04 38.34 22.58C38.05 22.59 37.78 22.59 37.51 22.59C37.24 22.59 36.97 22.59 36.69 22.59C36.67 22.07 36.67 21.55 36.67 21.04C36.67 21.03 36.68 21.02 36.69 20.99C37.23 20.99 37.77 20.99 38.33 21Z" fill="#FFC4DA" fill-opacity="1.000000" fill-rule="nonzero"/>
	<path id="path" d="M38.34 22.58C38.05 22.59 37.78 22.59 37.51 22.59C37.24 22.59 36.97 22.59 36.69 22.59C36.67 22.07 36.67 21.55 36.67 21.04C36.67 21.03 36.68 21.02 36.69 20.99C37.23 20.99 37.77 20.99 38.33 21C38.34 21.52 38.34 22.04 38.34 22.58Z" stroke="#000000" stroke-opacity="0" stroke-width="1.000000"/>
	<path id="path" d="M33.32 21C33.34 21.52 33.34 22.04 33.34 22.58C33.05 22.59 32.78 22.59 32.51 22.59C32.24 22.59 31.97 22.59 31.69 22.59C31.67 22.07 31.67 21.55 31.67 21.04C31.67 21.03 31.68 21.02 31.69 20.99C32.22 20.99 32.77 20.99 33.32 21Z" fill="#FFC4DA" fill-opacity="1.000000" fill-rule="nonzero"/>
	<path id="path" d="M33.34 22.58C33.05 22.59 32.78 22.59 32.51 22.59C32.24 22.59 31.97 22.59 31.69 22.59C31.67 22.07 31.67 21.55 31.67 21.04C31.67 21.03 31.68 21.02 31.69 20.99C32.22 20.99 32.77 20.99 33.32 21C33.34 21.52 33.34 22.04 33.34 22.58Z" stroke="#000000" stroke-opacity="0" stroke-width="1.000000"/>
	<path id="path" d="M18.32 21C18.34 21.52 18.34 22.04 18.34 22.58C18.04 22.59 17.77 22.59 17.5 22.59C17.24 22.59 16.97 22.59 16.69 22.59C16.67 22.07 16.67 21.55 16.67 21.04C16.67 21.03 16.68 21.02 16.69 20.99C17.22 20.99 17.76 20.99 18.32 21Z" fill="#FFC4DA" fill-opacity="1.000000" fill-rule="nonzero"/>
	<path id="path" d="M18.34 22.58C18.04 22.59 17.77 22.59 17.5 22.59C17.24 22.59 16.97 22.59 16.69 22.59C16.67 22.07 16.67 21.55 16.67 21.04C16.67 21.03 16.68 21.02 16.69 20.99C17.22 20.99 17.76 20.99 18.32 21C18.34 21.52 18.34 22.04 18.34 22.58Z" stroke="#000000" stroke-opacity="0" stroke-width="1.000000"/>
	<path id="path" d="M28.32 21C28.34 21.52 28.34 22.04 28.34 22.58C28.05 22.59 27.78 22.59 27.51 22.59C27.24 22.59 26.97 22.59 26.69 22.59C26.67 22.07 26.67 21.55 26.67 21.04C26.67 21.03 26.68 21.02 26.69 20.99C27.22 20.99 27.77 20.99 28.32 21Z" fill="#FFC4DA" fill-opacity="1.000000" fill-rule="nonzero"/>
	<path id="path" d="M28.34 22.58C28.05 22.59 27.78 22.59 27.51 22.59C27.24 22.59 26.97 22.59 26.69 22.59C26.67 22.07 26.67 21.55 26.67 21.04C26.67 21.03 26.68 21.02 26.69 20.99C27.22 20.99 27.77 20.99 28.32 21C28.34 21.52 28.34 22.04 28.34 22.58Z" stroke="#000000" stroke-opacity="0" stroke-width="1.000000"/>
</svg>
