<svg width="50" height="50" viewBox="0 0 50 50" fill="none" xmlns="http://www.w3.org/2000/svg">
<path fill-rule="evenodd" clip-rule="evenodd" d="M40.004 16.1056C39.1441 19.3679 38.2842 22.6303 37.4423 25.9109C37.0123 27.5512 36.6003 29.1733 36.1166 30.7954C35.6509 32.381 35.0597 34.0577 34.2177 35.4793C33.34 36.9738 32.2114 38.1403 30.6349 38.8875C29.99 39.1791 29.3451 39.3796 28.6823 39.5254C27.715 39.7441 26.7476 39.817 25.7623 39.8717C23.3439 40.0175 18.2205 39.9993 15.8021 39.9993L17.2711 34.404C18.3997 34.404 19.5283 34.404 20.6389 34.3676C21.7317 34.3493 22.914 34.2947 23.9888 34.0213C25.1533 33.7479 26.031 33.274 26.8193 32.3081C27.5179 31.415 27.9837 30.3215 28.3778 29.2826C29.0764 27.3872 29.8109 24.6716 30.3125 22.7214C30.9037 20.5161 31.459 18.3109 32.0143 16.1056H40.004ZM41.9924 16.1056L37.6931 32.3628H45.6827L50 16.1056H41.9924ZM31.6023 10H23.6126L22.2154 15.3036L20.8181 20.6073C20.3344 22.3752 19.8865 24.143 19.367 25.9109C19.2416 26.3666 19.1162 26.8222 18.9192 27.2596C18.8475 27.4419 18.7759 27.6059 18.6505 27.7699C18.4713 27.9886 18.2564 28.098 17.9876 28.1527C17.6294 28.2438 17.289 28.262 16.9128 28.262C16.3933 28.2985 15.8738 28.2985 15.3543 28.2985C14.2197 28.3106 13.0852 28.3106 11.9506 28.2985C11.5326 28.2985 11.1206 28.2924 10.7146 28.2802C10.4638 28.2802 10.213 28.262 9.94425 28.2256C9.72928 28.1891 9.4964 28.1527 9.35309 27.9339C9.20977 27.7152 9.20977 27.4236 9.2456 27.1867C9.26352 26.9862 9.29934 26.7675 9.33517 26.567C9.40683 26.2633 9.47849 25.9656 9.55014 25.674C9.75317 24.8721 9.96216 24.0762 10.1771 23.2864C10.3204 22.7761 10.4458 22.2476 10.6071 21.7373C10.6966 21.4092 10.7862 21.0629 10.9295 20.7531C11.037 20.5344 11.1624 20.3886 11.3953 20.2974C11.5744 20.2245 11.7536 20.2245 11.9506 20.2063C12.4701 20.1699 12.9896 20.1699 13.5271 20.1699C15.3185 20.1699 17.1278 20.1699 18.9192 20.1699L19.994 16.1056H16.9665H13.9391C12.7209 16.1056 11.5207 16.1056 10.3025 16.142C9.44266 16.142 8.58278 16.1785 7.74082 16.2331C7.22132 16.2696 6.71973 16.3243 6.21813 16.4336C5.5374 16.5612 4.92832 16.7799 4.35508 17.1809C3.29815 17.8734 2.74281 18.9852 2.33079 20.097C1.79337 21.5186 1.11264 24.2342 0.754357 25.6922C0.557302 26.4577 0.360248 27.2232 0.199022 28.0069C0.0915379 28.5536 -0.0159463 29.0822 0.0019677 29.6472C0.0377957 30.6496 0.50356 31.4515 1.41718 31.8707C1.68589 31.98 1.97251 32.0529 2.27705 32.1258C2.70699 32.1987 3.13692 32.2352 3.58477 32.2716C4.24759 32.3081 4.91041 32.3263 5.57323 32.3445C6.48087 32.3567 7.39449 32.3628 8.31407 32.3628C10.8579 32.381 15.4797 32.381 18.0056 32.3445C19.1162 32.3263 20.2269 32.2899 21.3197 32.1987C22.09 32.1441 22.8423 32.0529 23.5947 31.816C24.168 31.6337 24.6517 31.3786 25.1174 30.9594C25.7265 30.3944 26.049 29.7383 26.3535 28.991C26.7118 28.0615 26.9984 27.0956 27.2671 26.1478C27.912 23.9426 28.5032 21.7373 29.0943 19.532C29.9363 16.3607 30.7783 13.1712 31.6023 10Z" fill="white"/>
</svg>
