<svg width="50" height="50" viewBox="0 0 50 50" fill="none" xmlns="http://www.w3.org/2000/svg">
<g clip-path="url(#clip0_126_67)">
<path d="M25 50C38.8071 50 50 38.8071 50 25C50 11.1929 38.8071 0 25 0C11.1929 0 0 11.1929 0 25C0 38.8071 11.1929 50 25 50Z" fill="white"/>
<path fill-rule="evenodd" clip-rule="evenodd" d="M21.8828 18.1523C21.8766 17.7368 21.9523 17.3241 22.1056 16.9379C22.2589 16.5516 22.4868 16.1994 22.7763 15.9012C23.0658 15.603 23.4111 15.3648 23.7927 15.2001C24.1742 15.0354 24.5845 14.9475 25 14.9414C25.4155 14.9475 25.8258 15.0354 26.2073 15.2001C26.5889 15.3648 26.9342 15.603 27.2237 15.9012C27.5132 16.1994 27.7411 16.5516 27.8944 16.9379C28.0477 17.3241 28.1234 17.7368 28.1172 18.1523V28.5156H21.8828V18.1523ZM14.8438 28.5156V18.1523C14.8438 12.4688 19.3633 7.8125 25 7.8125C30.6367 7.8125 35.1562 12.4688 35.1562 18.1523V28.5156H36.3555C37.1732 28.5125 37.9588 28.8341 38.5396 29.4098C39.1204 29.9855 39.449 30.7682 39.4531 31.5859V38.3359C39.449 39.1537 39.1204 39.9364 38.5396 40.5121C37.9588 41.0878 37.1732 41.4094 36.3555 41.4062C35.5377 41.4094 34.7521 41.0878 34.1713 40.5121C33.5905 39.9364 33.2619 39.1537 33.2578 38.3359V34.6523H16.7422V38.3359C16.7381 39.1537 16.4095 39.9364 15.8287 40.5121C15.2479 41.0878 14.4623 41.4094 13.6445 41.4062C12.8268 41.4094 12.0412 41.0878 11.4604 40.5121C10.8796 39.9364 10.551 39.1537 10.5469 38.3359V31.5859C10.551 30.7682 10.8796 29.9855 11.4604 29.4098C12.0412 28.8341 12.8268 28.5125 13.6445 28.5156H14.8438Z" fill="black"/>
</g>
<defs>
<clipPath id="clip0_126_67">
<rect width="50" height="50" fill="white"/>
</clipPath>
</defs>
</svg>
