<svg width="50" height="50" viewBox="0 0 50 50" fill="none" xmlns="http://www.w3.org/2000/svg">
<path d="M22.929 14.789V9.96809C22.929 9.1997 22.5627 8.84445 21.806 8.84445H20.5679V15.91H21.806C22.5654 15.91 22.929 15.5547 22.929 14.789ZM18.9127 31.8937L18.2389 33.5463H19.5785L18.9127 31.8937Z" fill="white"/>
<path fill-rule="evenodd" clip-rule="evenodd" d="M7.02431 0H42.9757C45.9251 0 47 1.05523 47 3.91566V38.7619C47 39.2092 46.9198 40.0171 46.77 40.3645C46.6512 40.6947 46.4594 40.9949 46.2085 41.2434C45.9251 41.5039 45.4331 41.7749 45.1978 41.8802L26.1378 49.7747C25.7775 49.9234 25.3907 50 25 50C24.6093 50 24.2225 49.9234 23.8622 49.7747L4.80492 41.8802C4.4401 41.7138 4.09931 41.5006 3.79149 41.246C3.54023 40.9968 3.34843 40.6956 3.22996 40.3645C3.08289 40.0197 3 39.2119 3 38.7645V3.91566C3 1.05523 4.07761 0 7.02431 0ZM30.3065 6.27085H27.2956V25.4413H30.3065V6.27085ZM29.1995 30.0253H27.4507L26.0228 32.2753L24.6002 30.0253H22.8488V35.8357H24.4719V32.5147L25.9907 34.7725H26.0255L27.5523 32.4989V35.8357H29.1995V30.0253ZM22.2819 6.27085H17.5597V25.4439H20.5679V18.4862H22.2819C24.7286 18.4862 25.9399 17.31 25.9399 14.9258V9.83125C25.9399 7.44712 24.7286 6.27085 22.2819 6.27085ZM16.0516 6.27085H9.356V25.4439H16.1051V22.7861H12.3669V17.0073H15.9072V14.3495H12.3669V8.92865H16.0489L16.0516 6.27085ZM13.9285 35.7015C14.3617 35.5295 14.7369 35.3164 15.0542 35.062V32.4463H12.3107V33.6305H13.4873V34.3331C13.1998 34.5033 12.8678 34.5865 12.5327 34.5725C12.3174 34.5779 12.1033 34.5407 11.903 34.4629C11.7027 34.3851 11.5203 34.2685 11.3668 34.1199C11.2219 33.9729 11.1075 33.7995 11.0299 33.6094C10.9506 33.4025 10.9099 33.1832 10.9096 32.9621V32.9463C10.9077 32.5284 11.0662 32.1252 11.3534 31.8174C11.4904 31.669 11.6576 31.5507 11.8443 31.4705C12.0309 31.3902 12.2327 31.3497 12.4364 31.3516C12.7323 31.3516 12.9926 31.399 13.2172 31.4937C13.4572 31.5961 13.6806 31.7327 13.8803 31.8989L14.851 30.7648C14.5371 30.5012 14.1812 30.2904 13.7974 30.1411C13.3592 29.9832 12.8949 29.9074 12.4284 29.9174C11.9649 29.9174 11.5371 29.9946 11.1449 30.149C10.7658 30.298 10.4191 30.5168 10.1234 30.7937C9.8382 31.0674 9.61537 31.3867 9.45494 31.7516C9.2945 32.1182 9.21339 32.5138 9.21161 32.9384V32.9568C9.21161 33.3954 9.29361 33.7971 9.45761 34.162C9.6234 34.5304 9.85157 34.848 10.1421 35.1146C10.4309 35.3795 10.7732 35.5865 11.1689 35.7357C11.5665 35.8848 11.9979 35.9593 12.4631 35.9593C13.0086 35.9593 13.498 35.8734 13.9311 35.7015M18.1293 29.9832L15.5837 35.8357H17.3271L17.7549 34.7989H20.0572L20.4957 35.8357H22.2686L19.7256 29.9832H18.1293ZM32.2291 42.3144L32.2638 42.267L32.2745 42.2065C32.2739 42.1661 32.2577 42.1275 32.2291 42.0986C32.2158 42.0837 32.1993 42.072 32.1808 42.0642C32.1622 42.0565 32.1422 42.0529 32.1221 42.0539H17.902C17.861 42.0545 17.8217 42.0705 17.7923 42.0986L17.7576 42.146L17.7442 42.2065C17.7455 42.2472 17.7628 42.2859 17.7923 42.3144C17.8048 42.3284 17.8209 42.339 17.8405 42.346L24.7393 45.2275C24.8158 45.2597 24.8981 45.2763 24.9813 45.2763C25.0645 45.2763 25.1468 45.2597 25.2233 45.2275L32.1756 42.346L32.2291 42.3144ZM30.3065 35.8357H35.1544V34.4673H31.9456V33.5463H34.8121V32.2753H31.9456V31.3963H35.1116V30.028H30.3091L30.3065 35.8357ZM31.8948 9.66547V22.0466C31.8948 24.4308 33.1061 25.607 35.5528 25.607H37.0422C39.4888 25.607 40.6975 24.4281 40.6975 22.0466V17.5784H37.7454V21.9072C37.7454 22.6729 37.3791 23.0282 36.6224 23.0282H36.0608C35.272 23.0282 34.9057 22.6729 34.9057 21.9072V9.80231C34.9057 9.03391 35.2693 8.67866 36.0582 8.67866H36.5662C37.3229 8.67866 37.6893 9.03391 37.6893 9.79968V13.5522H40.6413V9.63916C40.6413 7.25502 39.4594 6.10506 37.0128 6.10506H35.5501C33.1061 6.10506 31.8948 7.28397 31.8948 9.66547ZM40.6387 34.8462C40.7564 34.5966 40.8158 34.3241 40.8125 34.0489V34.0305C40.8239 33.7964 40.7753 33.5634 40.6711 33.3527C40.5669 33.1421 40.4104 32.9607 40.2162 32.8252C39.9998 32.6748 39.7619 32.5568 39.5102 32.4752C39.2073 32.372 38.8984 32.2868 38.585 32.22C38.4137 32.1852 38.2441 32.1422 38.077 32.091C37.9693 32.0564 37.8639 32.0151 37.7615 31.9674C37.6962 31.9361 37.6401 31.889 37.5984 31.8305C37.5665 31.7782 37.5507 31.7178 37.5529 31.6568V31.6411C37.5529 31.5358 37.6019 31.4472 37.7 31.3753C37.8357 31.2967 37.9919 31.2592 38.1492 31.2674C38.4166 31.2674 38.6929 31.3156 38.9781 31.4121C39.2669 31.5086 39.5477 31.6516 39.8204 31.8411L40.6493 30.7043C40.3247 30.4488 39.9561 30.2527 39.561 30.1253C39.1599 29.9937 38.7027 29.9288 38.1893 29.9306C37.831 29.9306 37.5101 29.9762 37.2267 30.0674C36.96 30.1483 36.7121 30.2797 36.4967 30.4543C36.2958 30.6152 36.1354 30.8195 36.0278 31.0513C35.9202 31.2832 35.8684 31.5363 35.8763 31.7911V31.8095C35.8714 32.07 35.932 32.3276 36.0528 32.5595C36.1705 32.7612 36.33 32.9296 36.5314 33.0647C36.7329 33.2015 36.9709 33.3129 37.2454 33.3989C37.5164 33.4831 37.8114 33.562 38.1305 33.6357C38.3355 33.6796 38.5022 33.7217 38.6305 33.762C38.7374 33.7952 38.8405 33.8393 38.938 33.8936C38.999 33.9277 39.0526 33.9733 39.0958 34.0278C39.1243 34.0752 39.1386 34.1296 39.1386 34.191V34.2068C39.141 34.2674 39.1257 34.3274 39.0944 34.3797C39.0631 34.432 39.0172 34.4742 38.9621 34.5015C38.8041 34.5771 38.6296 34.6133 38.454 34.6068C37.7606 34.6068 37.1153 34.3734 36.5181 33.9068L35.5956 34.9778C35.9681 35.2988 36.3933 35.5401 36.871 35.7015C37.3524 35.8611 37.8604 35.9409 38.3952 35.9409C38.7296 35.945 39.0628 35.9016 39.3846 35.812C39.6615 35.7389 39.9206 35.6119 40.1466 35.4383C40.35 35.2767 40.5167 35.075 40.636 34.8462" fill="white"/>
</svg>
