<svg width="50" height="50" viewBox="0 0 50 50" fill="none" xmlns="http://www.w3.org/2000/svg">
<path fill-rule="evenodd" clip-rule="evenodd" d="M39.2751 44.1225L39.9266 45.2503L35.4616 47.8241L33.6096 44.6106C31.7905 45.4144 29.8402 45.9727 27.8004 46.2413L27.8011 50L22.6472 49.9975L22.6497 46.2966C20.603 46.0709 18.6403 45.5568 16.807 44.7921L14.9251 48.0516L10.4644 45.4729L12.3258 42.2544C10.7013 41.0564 9.24961 39.6358 8.02052 38.0374L4.74914 39.9268L2.17594 35.4618L5.39011 33.6098C4.5875 31.7901 4.02922 29.8411 3.76189 27.8013L0 27.802L0.00310849 22.6488L3.70656 22.6513L8.93255 22.6811C8.78893 23.452 8.7566 24.1924 8.7566 24.9994C8.7566 33.9461 16.0535 41.2423 25.0003 41.2423C28.9325 41.2423 32.5458 39.8304 35.3621 37.4904L39.2751 44.1225ZM27.3485 3.709C29.3951 3.93405 31.3572 4.44881 33.1899 5.21224L35.073 1.94837L39.5356 4.52776L37.6717 7.74936C39.2956 8.94611 40.7454 10.3667 41.9764 11.9644L45.2496 10.0732L47.8241 14.5376L44.608 16.3915C45.4106 18.2105 45.9695 20.1595 46.2381 22.1993L50 22.1987L49.9969 27.0224H41.1166C41.2005 26.3596 41.244 25.6845 41.244 25.0006C41.244 16.0545 33.9472 8.75836 25.0009 8.75836C21.0762 8.75836 17.4684 10.1621 14.6553 12.4947L10.1144 4.79944H10.1013L10.0734 4.75033L14.5371 2.17591L16.3917 5.39253C18.2101 4.58931 20.1604 4.03228 22.1989 3.76371L22.1983 0L27.3522 0.00373014L27.3485 3.709Z" fill="#E3000F"/>
<path fill-rule="evenodd" clip-rule="evenodd" d="M33.1545 22.609C32.5838 20.4965 31.5897 18.8596 30.1753 17.7082C28.7616 16.5475 27.078 15.9681 25.1072 15.9681C23.0898 15.9681 21.3416 16.5637 19.8564 17.7474C19.4392 18.0843 19.0569 18.4567 18.7112 18.8627L16.3115 14.7956C17.3541 13.8357 18.4936 13.0835 19.7296 12.5364C21.3267 11.8295 23.0749 11.4795 24.9649 11.4795C27.2136 11.4795 29.3025 12.0042 31.2409 13.053C33.1713 14.1018 34.7603 15.5634 36.0236 17.4384C36.7622 18.6059 37.3186 19.8767 37.6755 21.2674C38.033 22.6581 38.207 24.2465 38.207 26.0258V26.7488H16.654C17.0438 28.8856 18.0137 30.6257 19.5542 31.9524C21.0954 33.279 22.9301 33.938 25.0594 33.938C26.5763 33.938 27.959 33.5731 29.2142 32.842C29.9901 32.3931 30.6665 31.8237 31.2471 31.1367L33.6823 35.2622C33.2894 35.6253 32.8785 35.9591 32.447 36.2656C30.3264 37.7676 27.8632 38.5217 25.0594 38.5217C23.1601 38.5217 21.4361 38.1885 19.8638 37.5208C18.2984 36.8538 16.8841 35.8522 15.6052 34.5181C14.4134 33.2623 13.4765 31.8013 12.8014 30.1327C12.1262 28.4647 11.7924 26.7644 11.7924 25.0242C11.7924 24.198 11.8576 23.3967 11.9869 22.6208L20.9288 22.6202L20.9226 22.609H33.1545Z" fill="#203981"/>
</svg>
