<svg width="50" height="50" viewBox="0 0 50 50" fill="none" xmlns="http://www.w3.org/2000/svg">
<path fill-rule="evenodd" clip-rule="evenodd" d="M50 24.8957C49.9858 18.4254 47.4515 12.2141 42.9327 7.57416L42.6301 7.27214C41.3987 6.04587 40.0422 4.9515 38.5827 4.00688C36.0953 2.39171 33.3375 1.23549 30.4405 0.593293C28.7069 0.208224 26.937 0.00932824 25.161 0L24.8411 0C23.0318 0.0118229 21.2623 0.213887 19.5595 0.593293C16.6626 1.23554 13.9047 2.39175 11.4173 4.00688C9.95956 4.95343 8.6036 6.04765 7.37103 7.27214L7.06947 7.57416C3.73334 10.9984 1.45301 15.3069 0.499731 19.9871C0.173142 21.6031 0.00576756 23.2472 0 24.8957L0 25.5073C0.0301562 27.1518 0.226171 28.7543 0.557889 30.3042C1.22197 33.3785 2.46456 36.2992 4.21971 38.9112C5.07748 40.1887 6.05086 41.3849 7.12763 42.485C7.32256 42.6806 7.51858 42.8762 7.71998 43.0729C11.143 46.3576 15.436 48.5967 20.0926 49.526C21.5347 49.8098 23.0242 49.9764 24.5428 50H25.4335C26.9282 49.9752 28.4176 49.8162 29.8837 49.5249C33.0351 48.9008 36.0343 47.669 38.713 45.8985C40.2084 44.9095 41.5947 43.7653 42.8487 42.485C43.9255 41.385 44.8988 40.1887 45.7566 38.9112C47.5118 36.2992 48.7543 33.3785 49.4184 30.3042C49.7501 28.7543 49.9462 27.1518 49.9763 25.5073V24.8957H50ZM27.3129 4.28633C31.2835 4.72536 35.0424 6.30048 38.1368 8.82201C37.8169 9.384 37.4081 9.89069 36.9262 10.3224C35.8457 11.291 34.4443 11.8262 32.9919 11.825C29.7286 11.825 27.0878 9.17777 27.0878 5.91789C27.0878 5.35469 27.1642 4.80868 27.3129 4.28633ZM22.6904 4.28633C22.839 4.80224 22.9165 5.34824 22.9165 5.91789C22.9175 6.69272 22.7656 7.46017 22.4693 8.17639C22.1731 8.89261 21.7384 9.54358 21.19 10.0921C20.6416 10.6407 19.9904 11.076 19.2734 11.3734C18.5564 11.6707 17.7877 11.8242 17.0113 11.825C16.178 11.8264 15.3539 11.6508 14.5939 11.3098C13.8338 10.9688 13.1552 10.4703 12.6031 9.84738C12.3204 9.52992 12.0714 9.18414 11.86 8.81556C14.9544 6.29403 18.7132 4.71892 22.6839 4.27988L22.6904 4.28633ZM10.1292 37.1303C9.76339 37.5411 9.34179 37.8989 8.87668 38.1933C6.36035 35.1216 4.77731 31.3954 4.31449 27.4549C4.76467 27.342 5.24071 27.2883 5.71998 27.2883C8.98331 27.2883 11.6241 29.9355 11.6241 33.1943C11.6241 34.7087 11.0555 36.0856 10.1239 37.1303H10.1292ZM5.72644 23.1148C5.2384 23.1165 4.75208 23.0569 4.27894 22.9374C4.6652 18.9731 6.18736 15.2036 8.66344 12.0798C9.21348 12.3935 9.70858 12.7946 10.1292 13.2674C11.1022 14.3503 11.6393 15.7542 11.637 17.2087C11.6379 17.9835 11.4858 18.7508 11.1895 19.4669C10.8932 20.183 10.4585 20.8338 9.91013 21.3823C9.36178 21.9307 8.71055 22.366 7.99364 22.6632C7.27672 22.9605 6.50816 23.1139 5.73183 23.1148H5.72644ZM22.7927 45.7137C18.8584 45.2972 15.1253 43.7671 12.0334 41.3037C12.2048 41.0355 12.3975 40.7814 12.6096 40.5439C13.1617 39.9228 13.8397 39.4259 14.5987 39.086C15.3577 38.7462 16.1805 38.5712 17.0124 38.5727C20.2757 38.5727 22.9176 41.221 22.9176 44.4798C22.9176 44.9011 22.8745 45.316 22.7862 45.7083L22.7927 45.7137ZM27.2127 45.7137C27.0282 44.8541 27.0384 43.9642 27.2428 43.1091C27.4471 42.2539 27.8404 41.4552 28.3938 40.7712C28.9472 40.0873 29.6468 39.5354 30.4415 39.1559C31.2361 38.7765 32.1056 38.579 32.9865 38.578C33.82 38.577 34.6441 38.7528 35.4042 39.0938C36.1644 39.4347 36.8432 39.933 37.3958 40.5557C37.6037 40.7868 37.7997 41.0426 37.9666 41.3091C34.8777 43.7777 31.1431 45.3088 27.2073 45.7201L27.2127 45.7137ZM34.21 33.189C34.21 33.6285 34.2391 34.0617 34.2929 34.4895C32.5416 34.2595 30.7604 34.4953 29.1297 35.1728C27.4989 35.8504 26.0764 36.9457 25.0059 38.348C23.935 36.9463 22.5124 35.8514 20.8817 35.1739C19.2511 34.4964 17.4702 34.2603 15.7189 34.4895C15.7728 34.0617 15.8018 33.6285 15.8018 33.189C15.8038 31.6447 15.4494 30.1207 14.7662 28.7351C14.083 27.3495 13.0893 26.1395 11.8621 25.1988C13.0894 24.2582 14.0831 23.0482 14.7663 21.6626C15.4495 20.277 15.8039 18.753 15.8018 17.2087C15.8018 16.7691 15.7728 16.336 15.7189 15.9082C17.4703 16.1382 19.2515 15.9026 20.8822 15.225C22.513 14.5474 23.9356 13.4521 25.0059 12.0497C26.0769 13.4514 27.4995 14.5463 29.1301 15.2238C30.7607 15.9013 32.5416 16.1374 34.2929 15.9082C34.0625 17.6582 34.2976 19.4379 34.9746 21.0685C35.6516 22.6991 36.7466 24.1232 38.1497 25.1978C36.9221 26.1384 35.9281 27.3485 35.2447 28.7343C34.5613 30.1201 34.208 31.6444 34.21 33.189ZM41.1287 38.1868C40.6636 37.8928 40.242 37.5354 39.8761 37.1249C38.9075 36.0419 38.373 34.6406 38.3748 33.189C38.3737 32.2948 38.5762 31.4121 38.9671 30.6075C39.3581 29.8029 39.9271 29.0976 40.6313 28.5447C41.3355 27.9919 42.1565 27.606 43.032 27.4162C43.9076 27.2265 44.815 27.2379 45.6855 27.4495C45.2222 31.3898 43.6388 35.1155 41.1222 38.1868H41.1287ZM44.2843 23.1148C41.021 23.1148 38.3813 20.4675 38.3813 17.2087C38.3795 16.3774 38.5542 15.5551 38.8937 14.796C39.2332 14.0369 39.7299 13.358 40.3511 12.8042C40.6591 12.5312 40.9973 12.2818 41.3538 12.0798C43.8279 15.2049 45.3501 18.9736 45.7394 22.9374C45.2763 23.0557 44.7894 23.1148 44.2908 23.1148H44.2843Z" fill="#CD4B0F"/>
</svg>
