<svg width="50" height="50" viewBox="0 0 50 50" fill="none" xmlns="http://www.w3.org/2000/svg">
<path d="M25.056 25C25.056 20.3977 28.6252 16.6667 33.028 16.6667C37.4308 16.6667 41 20.3978 41 25C41 29.6024 37.4307 33.3333 33.028 33.3333C28.6251 33.3333 25.056 29.6023 25.056 25Z" fill="#00BCFF"/>
<path d="M9.11191 41.6667C9.11191 37.0644 12.6811 33.3334 17.0839 33.3334L21.3323 30.9888L25.0559 33.3334V41.6667C25.0559 46.2691 21.4867 50 17.0839 50C12.6811 50 9.11191 46.269 9.11191 41.6667Z" fill="#00CF7F"/>
<path d="M25.056 0L20.718 7.87793L25.056 16.6666H32.9162C37.3191 16.6666 40.8882 12.9356 40.8882 8.3333C40.8882 3.73096 37.319 0 32.9162 0H25.056Z" fill="#FF7361"/>
<path d="M9 8.3333C9 12.9356 12.5692 16.6666 16.972 16.6666L21.2009 18.374L25.0558 16.6666V0H16.9719C12.5692 0 9 3.73096 9 8.3333Z" fill="#FF4D12"/>
<path d="M9.11191 25C9.11191 29.6024 12.6811 33.3333 17.0839 33.3333H25.0559V16.6666H17.0839C12.6811 16.6666 9.11191 20.3977 9.11191 25Z" fill="#B659FF"/>
</svg>
