<svg width="50" height="50" viewBox="0 0 50 50" fill="none" xmlns="http://www.w3.org/2000/svg">
<path d="M50 25C50 38.8636 38.8636 50 25 50C11.1364 50 0 38.8636 0 25C0 11.25 11.1364 0 25 0C38.8636 0 50 11.25 50 25Z" fill="#0F4188"/>
<path d="M48.0681 25C48.0681 37.7273 37.7273 48.0682 25 48.0682C12.2727 48.0682 1.93176 37.7273 1.93176 25C1.93176 12.2727 12.2727 1.93182 25 1.93182C37.7273 1.93182 48.0681 12.2727 48.0681 25Z" fill="#81BB3C"/>
<path d="M25 43.2955C35.1043 43.2955 43.2955 35.1043 43.2955 25C43.2955 14.8957 35.1043 6.70455 25 6.70455C14.8957 6.70455 6.70457 14.8957 6.70457 25C6.70457 35.1043 14.8957 43.2955 25 43.2955Z" fill="white"/>
<path d="M22.7273 27.8409V36.4773C22.7273 36.7045 22.7273 36.8182 22.6136 36.9318C22.5 37.0455 22.3864 37.1591 22.1591 37.1591H16.7045C16.4773 37.1591 16.3636 37.0455 16.25 36.9318C16.1364 36.8182 16.0227 36.5909 16.0227 36.4773V13.5227C16.0227 13.2955 16.1364 13.1818 16.25 13.0682C16.3636 12.9545 16.4773 12.8409 16.7045 12.8409H23.5227C23.75 12.8409 23.8636 12.9545 23.9773 13.0682C24.0909 13.1818 24.2045 13.4091 24.2045 13.5227V17.9545C24.2045 18.1818 24.0909 18.2955 23.9773 18.4091C23.8636 18.5227 23.75 18.6364 23.5227 18.6364H22.7273V22.1591H23.5227C23.9773 22.1591 24.2045 22.3864 24.2045 22.8409V27.2727C24.2045 27.7273 23.9773 27.9545 23.5227 27.9545L22.7273 27.8409Z" fill="#0F4188"/>
<path d="M25.5682 27.8409C25.3409 27.8409 25.2273 27.7273 25.1136 27.6136C25 27.6136 25 27.3864 25 27.2727V22.7273C25 22.5 25.1136 22.3864 25.2273 22.2727C25.3409 22.1591 25.4545 22.0455 25.6818 22.0455H32.6136C33.0682 22.0455 33.2955 22.2727 33.2955 22.7273V27.1591C33.2955 27.6136 33.0682 27.8409 32.6136 27.8409H25.5682Z" fill="#0F4188"/>
<path d="M33.9773 16.5909V13.6364C33.9773 13.4091 33.8636 13.2955 33.75 13.1818C33.6364 13.0682 33.5227 12.9545 33.2955 12.9545H32.2727H31.25H25.5682C25.3409 12.9545 25.2273 13.0682 25.1136 13.1818C25 13.2955 25 13.4091 25 13.5227V13.6364V15V17.9545C25 18.1818 25.1136 18.2955 25.2273 18.4091C25.3409 18.5227 25.4545 18.6364 25.6818 18.6364H26.7045H27.7273H33.4091C33.6364 18.6364 33.75 18.5227 33.8636 18.4091C33.9773 18.2955 33.9773 18.1818 33.9773 18.0682V17.9545V16.5909Z" fill="#0F4188"/>
</svg>
