<svg width="50" height="50" viewBox="0 0 50 50" fill="none" xmlns="http://www.w3.org/2000/svg">
<path d="M29.5744 45.1234C29.5744 47.0692 28.0695 48.6606 26.2299 48.6606H4.92382C3.08445 48.6606 1.57913 49.1564 1.57913 47.2106L0 25.6613C0 23.7153 1.50551 22.1229 3.34528 22.1229H24.6514C26.4909 22.1229 27.9963 23.7153 27.9963 25.6613L29.5744 45.1234Z" fill="url(#paint0_linear_318_44)"/>
<path d="M14.6646 18.5509L10.7215 17.6649C10.0992 17.5245 9.48169 17.9493 9.34921 18.6076L8.48504 22.9088L6.11122 34.7238L5.24705 39.0253C5.11457 39.6833 5.51575 40.3366 6.13858 40.4765L10.0817 41.3634H10.0823L30.5327 45.9614C31.0935 46.0871 31.6484 45.7556 31.8498 45.2077C31.8724 45.1467 31.8917 45.0845 31.9063 45.0182H31.9057L36.0071 24.6016C36.1398 23.9421 35.7382 23.2889 35.1154 23.1497L14.6646 18.5509Z" fill="url(#paint1_linear_318_44)"/>
<path d="M14.6646 18.5509L10.7215 17.6649C10.0992 17.5245 9.48169 17.9493 9.34921 18.6076L8.48504 22.9088L6.11122 34.7238L5.24705 39.0253C5.11457 39.6833 5.51575 40.3366 6.13858 40.4765L10.0817 41.3634H10.0823L30.5327 45.9614C31.0935 46.0871 31.6484 45.7556 31.8498 45.2077C31.8724 45.1467 31.8917 45.0845 31.9063 45.0182H31.9057L36.0071 24.6016C36.1398 23.9421 35.7382 23.2889 35.1154 23.1497L14.6646 18.5509Z" fill="url(#paint2_linear_318_44)"/>
<path d="M12.6571 33.409C12.7937 33.4398 12.8817 33.5831 12.8526 33.7274L12.3587 36.1857C12.3444 36.2552 12.3048 36.316 12.2484 36.3548C12.192 36.3936 12.1233 36.4072 12.0575 36.3927L10.3976 36.0193C10.3319 36.0043 10.2744 35.9625 10.2377 35.9028C10.201 35.8431 10.1882 35.7705 10.202 35.7009L10.6959 33.243C10.71 33.1734 10.7497 33.1126 10.8061 33.0738C10.8625 33.035 10.9312 33.0214 10.997 33.036L12.6571 33.409Z" fill="url(#paint3_linear_318_44)"/>
<path d="M10.7195 35.9545C10.6538 35.9395 10.5963 35.8976 10.5597 35.838C10.5231 35.7783 10.5102 35.7057 10.524 35.6361L10.965 33.4398C10.9791 33.3707 11.0185 33.3103 11.0744 33.2717C11.1304 33.233 11.1985 33.2192 11.264 33.2332L11.1423 33.2059C11.0765 33.1914 11.0079 33.205 10.9515 33.2436C10.8951 33.2823 10.8555 33.343 10.8411 33.4125L10.4002 35.6084C10.3864 35.6781 10.3993 35.7507 10.4359 35.8103C10.4726 35.87 10.5301 35.9119 10.5959 35.9268L12.1608 36.2783H12.1614L10.7195 35.9545Z" fill="#B8EDFF"/>
<path d="M13.6215 28.6059C13.7581 28.6365 13.8463 28.78 13.8171 28.9243L13.3238 31.3826C13.3095 31.4521 13.2699 31.5129 13.2135 31.5516C13.1571 31.5904 13.0885 31.604 13.0226 31.5896L11.3628 31.2162C11.2971 31.2012 11.2396 31.1593 11.2029 31.0997C11.1663 31.04 11.1534 30.9674 11.1671 30.8978L11.6604 28.4399C11.6745 28.3703 11.7141 28.3094 11.7706 28.2706C11.827 28.2318 11.8957 28.2182 11.9616 28.2329L13.6215 28.6059Z" fill="url(#paint4_linear_318_44)"/>
<path d="M14.5872 23.803C14.7238 23.8338 14.812 23.9769 14.7829 24.1214L14.289 26.5797C14.2748 26.6493 14.2352 26.7101 14.1787 26.7488C14.1223 26.7875 14.0536 26.801 13.9878 26.7863L12.3274 26.4133C12.2616 26.3984 12.2041 26.3565 12.1674 26.2968C12.1308 26.2372 12.1179 26.1646 12.1317 26.0949L12.6256 23.6368C12.6398 23.5672 12.6794 23.5064 12.7358 23.4676C12.7923 23.4288 12.8609 23.4153 12.9268 23.4298L14.5872 23.803Z" fill="url(#paint5_linear_318_44)"/>
<path d="M11.6789 31.1802C11.6131 31.1653 11.5556 31.1234 11.5189 31.0637C11.4823 31.004 11.4694 30.9314 11.4833 30.8618L11.9248 28.6659C11.9391 28.5965 11.9787 28.5359 12.035 28.4971C12.0912 28.4584 12.1596 28.4446 12.2254 28.4589L12.1008 28.4312C12.035 28.4165 11.9664 28.43 11.91 28.4687C11.8535 28.5074 11.8139 28.5682 11.7998 28.6377L11.3591 30.8337C11.3301 30.9784 11.4181 31.1217 11.5549 31.1525L12.1524 31.2868L11.6789 31.1802ZM12.6388 26.4052C12.573 26.3903 12.5154 26.3485 12.4787 26.2888C12.442 26.2291 12.4292 26.1564 12.4431 26.0868L12.8837 23.8915C12.8977 23.8219 12.9373 23.761 12.9937 23.7222C13.0501 23.6834 13.1188 23.6699 13.1846 23.6845L14.6274 24.0092C14.6268 24.0092 14.6264 24.0085 14.6256 24.0085L13.0606 23.6564C12.9948 23.6417 12.9262 23.6553 12.8698 23.694C12.8133 23.7327 12.7737 23.7934 12.7594 23.863L12.3185 26.0593C12.3047 26.129 12.3175 26.2016 12.3542 26.2613C12.3908 26.3209 12.4484 26.3628 12.5142 26.3777L14.0791 26.7296H14.0805L12.6388 26.4052Z" fill="#B8EDFF"/>
<path d="M19.0547 22.8303L18.2262 22.6437C18.1604 22.6292 18.0918 22.6429 18.0354 22.6816C17.979 22.7203 17.9393 22.781 17.925 22.8505L16.9217 27.845C16.8927 27.9893 16.9807 28.133 17.1173 28.1634L17.9459 28.3497C18.0117 28.3643 18.0802 28.3507 18.1367 28.312C18.1931 28.2734 18.2327 28.2127 18.247 28.1432L19.2502 23.1485C19.2641 23.0789 19.2513 23.0063 19.2147 22.9466C19.178 22.887 19.1205 22.8452 19.0547 22.8303ZM25.5974 24.3013L24.7687 24.1154C24.7028 24.1008 24.6342 24.1144 24.5778 24.1532C24.5213 24.1919 24.4817 24.2528 24.4675 24.3224L23.4644 29.316C23.4505 29.3857 23.4634 29.4583 23.5 29.5179C23.5367 29.5776 23.5942 29.6195 23.66 29.6344L24.4886 29.8208C24.5544 29.8354 24.6229 29.8219 24.6794 29.7832C24.7358 29.7446 24.7755 29.6839 24.7898 29.6144L25.7931 24.6197C25.8069 24.5501 25.7941 24.4774 25.7574 24.4178C25.7208 24.3581 25.6632 24.3162 25.5974 24.3013ZM28.8274 25.0279L27.998 24.8413C27.9322 24.8267 27.8636 24.8402 27.8072 24.8789C27.7508 24.9177 27.7112 24.9785 27.697 25.0481L26.6939 30.0421C26.6802 30.1118 26.693 30.1843 26.7297 30.244C26.7664 30.3036 26.8238 30.3455 26.8896 30.3605L27.7185 30.5469C27.7843 30.5614 27.8528 30.5479 27.9091 30.5092C27.9655 30.4705 28.0051 30.4098 28.0193 30.3403L29.023 25.3465C29.0369 25.2768 29.0241 25.2042 28.9874 25.1444C28.9507 25.0847 28.8932 25.0428 28.8274 25.0279ZM20.8533 31.1098L19.86 30.8866C19.7942 30.872 19.7257 30.8856 19.6693 30.9243C19.6128 30.9629 19.5732 31.0236 19.5589 31.0931L19.0132 33.8092C18.9994 33.8789 19.0122 33.9516 19.0489 34.0113C19.0856 34.071 19.1431 34.113 19.2089 34.128L20.2028 34.3513C20.2685 34.366 20.3371 34.3526 20.3935 34.314C20.4499 34.2753 20.4896 34.2146 20.5037 34.1451L21.0492 31.4282C21.0629 31.3585 21.05 31.2859 21.0133 31.2263C20.9766 31.1666 20.9191 31.1247 20.8533 31.1098ZM30.7915 33.3438L29.7972 33.1202C29.7314 33.1057 29.6629 33.1194 29.6065 33.1582C29.5502 33.1969 29.5105 33.2577 29.4963 33.3271L28.9508 36.0432C28.9371 36.1129 28.9499 36.1854 28.9866 36.2451C29.0232 36.3047 29.0807 36.3466 29.1465 36.3616L30.1411 36.5855C30.2069 36.6 30.2755 36.5864 30.3319 36.5476C30.3882 36.5089 30.4279 36.4482 30.4421 36.3787L30.987 33.6622C31.0007 33.5926 30.9878 33.5201 30.9512 33.4604C30.9146 33.4008 30.8572 33.3589 30.7915 33.3438Z" fill="#FCFCFC"/>
<path d="M13.563 39.7891L14.6516 34.3748L30.6923 37.9836L29.6037 43.3979L13.563 39.7891Z" fill="#DDE6ED"/>
<path d="M26.8394 42.707L27.9171 37.3435L27.3124 37.2073L26.2354 42.5708L26.8394 42.707ZM23.6612 41.9925L24.7394 36.6294L24.1341 36.4928L23.0565 41.8569L23.6612 41.9925ZM20.4825 41.2782L21.5606 35.9135L20.9557 35.7781L19.8783 41.1424L20.4825 41.2782ZM16.7 40.4278L17.3041 40.5635L18.3821 35.2001L17.7774 35.0635L16.7 40.4278Z" fill="#EDEDED"/>
<path d="M16.7 40.4278L17.3041 40.5635L21.0049 22.1421L20.4002 22.0061L16.7 40.4278ZM20.4825 41.2782L24.1835 22.857L23.5785 22.721L19.8783 41.1422L20.4825 41.2782ZM23.6612 41.9925L27.3614 23.5716L26.7573 23.4357L23.0565 41.8569L23.6612 41.9925ZM26.8394 42.707L30.5404 24.2855L29.9352 24.1493L26.2354 42.5706L26.8394 42.707Z" fill="#EAEAEA"/>
<path d="M17.4132 21.5592C17.4305 21.5592 17.4482 21.5611 17.4659 21.565L33.428 25.1532C33.5644 25.1836 33.6528 25.3273 33.6236 25.4721L30.1106 42.9594C30.0966 43.0291 30.057 43.0902 30.0004 43.1291C29.9439 43.168 29.875 43.1815 29.8091 43.1668L13.8465 39.5767C13.7806 39.5619 13.7231 39.5201 13.6864 39.4604C13.6497 39.4007 13.6369 39.3281 13.6508 39.2585L17.164 21.772C17.1764 21.7118 17.2079 21.658 17.2532 21.6193C17.2985 21.5806 17.355 21.5594 17.4132 21.5592ZM17.4134 21.0217C17.239 21.0225 17.0701 21.0862 16.9346 21.2022C16.799 21.3182 16.705 21.4797 16.6679 21.66L13.1545 39.1462C13.1335 39.2499 13.1321 39.3569 13.1504 39.4612C13.1687 39.5654 13.2064 39.6647 13.2612 39.7535C13.3156 39.8424 13.3861 39.919 13.4686 39.9789C13.5512 40.0388 13.6441 40.0808 13.7421 40.1025L29.7035 43.6922C29.7563 43.704 29.8093 43.7096 29.862 43.7096C30.0366 43.7089 30.2057 43.6452 30.3413 43.5289C30.477 43.4126 30.571 43.2509 30.6079 43.0703L34.1205 25.5841C34.1622 25.3748 34.1238 25.1566 34.0136 24.9772C33.9034 24.7979 33.7304 24.6722 33.5327 24.6276L17.5717 21.0392C17.5196 21.0276 17.4666 21.0217 17.4134 21.0217Z" fill="#EAEAEA"/>
<path d="M17.1654 21.5032C17.1827 21.5032 17.2004 21.5051 17.2181 21.509L33.1801 25.0983C33.3169 25.1287 33.4051 25.2719 33.376 25.4171L29.863 42.9027C29.8488 42.9724 29.8091 43.0332 29.7526 43.072C29.6961 43.1108 29.6273 43.1244 29.5614 43.1097L13.5988 39.5215C13.533 39.5065 13.4755 39.4645 13.4388 39.4048C13.4021 39.3451 13.3893 39.2724 13.4031 39.2027L16.9163 21.7166C16.9285 21.6563 16.9599 21.6022 17.0052 21.5634C17.0505 21.5245 17.107 21.5033 17.1654 21.5032ZM17.1654 20.9655C16.991 20.9663 16.8221 21.0299 16.6865 21.146C16.551 21.262 16.4569 21.4235 16.4199 21.6038L12.9065 39.09C12.8854 39.1937 12.884 39.3007 12.9023 39.4049C12.9207 39.5092 12.9583 39.6085 13.0132 39.6973C13.0676 39.7862 13.138 39.8629 13.2206 39.9229C13.3031 39.9829 13.3961 40.0249 13.4941 40.0467L29.4559 43.6347C29.5085 43.6466 29.5612 43.6522 29.6142 43.6522C29.7888 43.6515 29.9579 43.5878 30.0936 43.4715C30.2292 43.3552 30.3232 43.1934 30.36 43.0129L33.8726 25.5283C33.9144 25.3191 33.876 25.1009 33.7657 24.9216C33.6555 24.7423 33.4826 24.6167 33.2848 24.5722L17.3236 20.9832C17.2716 20.9715 17.2185 20.9656 17.1654 20.9655Z" fill="#91A7BE"/>
<path d="M20.7571 22.086L17.0557 40.5079L16.451 40.3711L20.1518 21.9505L20.7571 22.086Z" fill="#91A7BE"/>
<path d="M14.4884 33.5668L31.438 37.3801L31.3095 38.0203L14.3596 34.2067L14.4884 33.5668ZM15.1839 28.5359L32.1335 32.3492L32.0045 32.9904L15.0549 29.1769L15.1839 28.5359Z" fill="#91A7BE"/>
<path d="M23.936 22.8009L20.2344 41.222L19.6297 41.0862L23.3301 22.665L23.936 22.8009ZM27.1154 23.511L23.4126 41.929L22.8079 41.793L26.5106 23.3751L27.1154 23.511ZM30.2967 24.2214L26.5935 42.6412L25.989 42.5052L29.6921 24.0854L30.2967 24.2214Z" fill="#91A7BE"/>
<path d="M18.9301 22.8024C19.0667 22.8332 19.1549 22.9763 19.1258 23.1208L18.1232 28.1155C18.109 28.185 18.0693 28.2457 18.0129 28.2844C17.9565 28.3231 17.8879 28.3366 17.822 28.3221L16.9935 28.1357C16.9277 28.1207 16.8702 28.0788 16.8336 28.0192C16.7969 27.9595 16.7841 27.8869 16.7978 27.8173L17.8018 22.8234C17.816 22.7539 17.8556 22.6931 17.9121 22.6543C17.9685 22.6155 18.0371 22.6019 18.103 22.6164L18.9301 22.8024ZM25.4732 24.2736C25.6096 24.3042 25.6982 24.4475 25.6689 24.592L24.6654 29.5857C24.6512 29.6553 24.6115 29.7161 24.5551 29.7549C24.4987 29.7937 24.43 29.8072 24.3642 29.7927L23.5356 29.6063C23.4699 29.5915 23.4123 29.5497 23.3757 29.4901C23.339 29.4305 23.3261 29.3579 23.34 29.2883L24.3425 24.2936C24.3567 24.2241 24.3964 24.1633 24.4528 24.1245C24.5092 24.0858 24.5779 24.0722 24.6437 24.0868L25.4732 24.2736ZM28.703 24.9996C28.8394 25.03 28.928 25.1734 28.8986 25.318L27.8963 30.3118C27.8822 30.3814 27.8426 30.4422 27.7862 30.4809C27.7297 30.5197 27.6611 30.5331 27.5953 30.5184L26.7659 30.3318C26.7002 30.3167 26.6427 30.2748 26.6061 30.2151C26.5694 30.1554 26.5565 30.0829 26.5703 30.0132L27.574 25.0193C27.5882 24.9498 27.6278 24.8891 27.6841 24.8504C27.7405 24.8116 27.809 24.798 27.8748 24.8126L28.703 24.9996ZM20.7293 31.0813C20.8659 31.1117 20.9541 31.2553 20.925 31.3997L20.3793 34.1157C20.3651 34.1853 20.3255 34.2461 20.269 34.2849C20.2126 34.3237 20.144 34.3373 20.0781 34.3227L19.0843 34.0995C19.0185 34.0845 18.961 34.0426 18.9244 33.983C18.8877 33.9233 18.8749 33.8508 18.8886 33.7811L19.4348 31.065C19.4491 30.9954 19.4887 30.9347 19.5451 30.8959C19.6015 30.8571 19.6702 30.8435 19.736 30.858L20.7293 31.0813ZM30.6675 33.3163C30.8039 33.3467 30.8925 33.49 30.863 33.6343L30.3173 36.3508C30.3031 36.4203 30.2635 36.4811 30.2071 36.5198C30.1507 36.5585 30.0821 36.572 30.0163 36.5574L29.0228 36.3346C28.957 36.3197 28.8994 36.2779 28.8628 36.2182C28.8261 36.1585 28.8133 36.0858 28.8272 36.0162L29.3722 33.3005C29.3863 33.2309 29.4258 33.1701 29.4822 33.1313C29.5386 33.0925 29.6072 33.079 29.673 33.0937L30.6675 33.3163Z" fill="#9CAAAF"/>
<path d="M34.6663 25.3623C34.7417 24.631 34.2388 23.9654 33.5476 23.884L10.8232 21.2183L8.87047 20.9894L8.48504 22.9086L6.11122 34.7238L5.24705 39.0253C5.11457 39.6833 5.51575 40.3366 6.13858 40.4765L10.0817 41.3632H10.0823L30.5327 45.9612C31.0935 46.0871 31.6484 45.7554 31.8498 45.2075C31.8724 45.1465 31.8917 45.0843 31.9063 45.018H31.9057L33.3693 37.7325L34.6663 25.3623Z" fill="#2C2C2C" fill-opacity="0.063"/>
<path d="M10.8232 21.8237L6.44134 21.3095C5.7498 21.2289 5.12087 21.7608 5.04429 22.4925L4.5435 27.2717L3.16713 40.4003L2.66595 45.18C2.58917 45.911 3.09252 46.5767 3.78484 46.6577L8.16595 47.1715L30.8902 49.8382C31.513 49.9107 32.0835 49.4865 32.2476 48.867C32.2657 48.7987 32.2803 48.7279 32.2876 48.6543L34.6667 25.9685C34.7417 25.2357 34.2388 24.5712 33.5478 24.4896L10.8232 21.823V21.8237Z" fill="url(#paint6_linear_318_44)"/>
<path d="M10.1555 38.2221C10.2286 38.2309 10.2955 38.2699 10.3414 38.3306C10.3874 38.3914 10.4088 38.4689 10.401 38.5463L10.1146 41.2765C10.1064 41.354 10.0695 41.4248 10.012 41.4735C9.95449 41.5222 9.8811 41.5449 9.80788 41.5364L7.96358 41.3197C7.89044 41.311 7.82354 41.272 7.77753 41.2112C7.73152 41.1504 7.71015 41.0728 7.71811 40.9954L8.00453 38.2652C8.01274 38.1877 8.04963 38.1169 8.10712 38.0682C8.16461 38.0195 8.238 37.9969 8.31122 38.0053L10.1555 38.2221Z" fill="url(#paint7_linear_318_44)"/>
<path d="M8.30768 41.2126C8.23451 41.2037 8.16763 41.1646 8.12164 41.1037C8.07566 41.0429 8.05429 40.9652 8.0622 40.8878L8.31811 38.4486C8.32642 38.3712 8.36334 38.3005 8.4208 38.2518C8.47826 38.2031 8.5516 38.1804 8.6248 38.1887L9.61713 38.3058L8.48661 38.1721C8.41343 38.1639 8.34015 38.1866 8.28271 38.2353C8.22528 38.2839 8.18833 38.3546 8.17992 38.432L7.92402 40.8719C7.91615 40.9494 7.93754 41.027 7.98352 41.0878C8.0295 41.1487 8.09634 41.1878 8.16949 41.1968L9.90846 41.4007H9.90945L8.30768 41.2126Z" fill="#B8EDFF"/>
<path d="M10.715 32.8838C10.7881 32.8927 10.8549 32.9318 10.9009 32.9926C10.9469 33.0534 10.9683 33.131 10.9604 33.2084L10.674 35.9404C10.6657 36.0177 10.6288 36.0885 10.5713 36.1372C10.5139 36.1859 10.4405 36.2086 10.3673 36.2002L8.52283 35.9835C8.44968 35.9746 8.38281 35.9355 8.33682 35.8747C8.29082 35.8139 8.26945 35.7363 8.27736 35.6588L8.56378 32.9273C8.57209 32.85 8.60902 32.7792 8.6665 32.7306C8.72397 32.682 8.79731 32.6594 8.87047 32.6678L10.715 32.8838Z" fill="url(#paint8_linear_318_44)"/>
<path d="M11.2742 27.5476C11.3474 27.5564 11.4142 27.5956 11.4602 27.6564C11.5062 27.7172 11.5276 27.7948 11.5197 27.8723L11.2333 30.6025C11.2249 30.6799 11.188 30.7506 11.1305 30.7993C11.0731 30.848 10.9998 30.8706 10.9266 30.8624L9.08228 30.6456C9.00913 30.6367 8.94227 30.5976 8.89631 30.5367C8.85036 30.4758 8.82904 30.3982 8.83701 30.3208L9.12343 27.5911C9.13179 27.5137 9.16875 27.443 9.22624 27.3943C9.28373 27.3456 9.35709 27.3229 9.43031 27.3312L11.2742 27.5476Z" fill="url(#paint9_linear_318_44)"/>
<path d="M8.61831 35.5828L8.87402 33.1437C8.88234 33.0665 8.91911 32.9959 8.97636 32.9472C9.0336 32.8986 9.10668 32.8758 9.17972 32.8838L9.04272 32.868C8.96956 32.8595 8.89622 32.8821 8.83874 32.9307C8.78127 32.9794 8.74434 33.0501 8.73602 33.1274L8.48012 35.5666C8.47226 35.644 8.49365 35.7216 8.53963 35.7824C8.58562 35.8432 8.65246 35.8823 8.72559 35.8912L9.3128 35.9604L8.86339 35.9075C8.79028 35.8986 8.72348 35.8594 8.67756 35.7986C8.63164 35.7378 8.61034 35.6602 8.61831 35.5828ZM10.7817 33.0723L9.76811 32.9531L10.7835 33.0731C10.7829 33.0731 10.7823 33.0723 10.7817 33.0723Z" fill="#B8EDFF"/>
<path d="M16.0374 25.9785L15.1169 25.8702C15.0437 25.8618 14.9704 25.8844 14.9129 25.9331C14.8554 25.9817 14.8185 26.0525 14.8102 26.1299L14.2281 31.6783C14.2203 31.7557 14.2418 31.8332 14.2877 31.894C14.3337 31.9548 14.4005 31.994 14.4736 32.0029L15.3943 32.1114C15.4675 32.1197 15.5408 32.0971 15.5983 32.0484C15.6558 31.9997 15.6927 31.9289 15.701 31.8515L16.2831 26.3027C16.2908 26.2253 16.2693 26.1478 16.2233 26.0871C16.1773 26.0264 16.1105 25.9874 16.0374 25.9785ZM23.3065 26.8315L22.387 26.7232C22.3139 26.7148 22.2405 26.7374 22.1831 26.786C22.1256 26.8346 22.0887 26.9053 22.0803 26.9826L21.4982 32.5308C21.4903 32.6083 21.5117 32.6859 21.5577 32.7467C21.6037 32.8075 21.6705 32.8466 21.7437 32.8555L22.6636 32.9636C22.7368 32.9718 22.8101 32.9491 22.8675 32.9004C22.925 32.8518 22.9619 32.781 22.9703 32.7037L23.5518 27.1561C23.5597 27.0787 23.5384 27.0011 23.4925 26.9403C23.4465 26.8794 23.3796 26.8403 23.3065 26.8315ZM26.8957 27.2519L25.9758 27.1438C25.9026 27.1356 25.8292 27.1582 25.7718 27.2069C25.7143 27.2556 25.6773 27.3263 25.6689 27.4037L25.0866 32.9525C25.0788 33.03 25.1002 33.1076 25.1463 33.1685C25.1923 33.2293 25.2593 33.2684 25.3325 33.2772L26.253 33.385C26.3262 33.3935 26.3996 33.3708 26.4571 33.3221C26.5145 33.2734 26.5514 33.2026 26.5596 33.1251L27.1411 27.5765C27.149 27.4991 27.1276 27.4215 27.0816 27.3607C27.0356 27.2999 26.9688 27.2608 26.8957 27.2519ZM18.8402 34.7825L17.7362 34.6532C17.6631 34.6449 17.5898 34.6674 17.5323 34.7161C17.4748 34.7647 17.4379 34.8354 17.4295 34.9127L17.1134 37.9293C17.1055 38.0067 17.1268 38.0843 17.1728 38.1452C17.2188 38.206 17.2857 38.2451 17.3589 38.2539L18.4622 38.3841C18.5354 38.3924 18.6087 38.3697 18.6662 38.321C18.7237 38.2723 18.7606 38.2016 18.7689 38.1242L19.0856 35.107C19.0936 35.0295 19.0723 34.9519 19.0263 34.8911C18.9803 34.8303 18.9133 34.7912 18.8402 34.7825ZM29.8829 36.0778L28.7787 35.9485C28.7055 35.9402 28.6322 35.9628 28.5747 36.0115C28.5172 36.0602 28.4802 36.131 28.4718 36.2084L28.1561 39.2241C28.1482 39.3016 28.1695 39.3793 28.2155 39.4402C28.2615 39.5011 28.3284 39.5402 28.4016 39.5492L29.5057 39.6789C29.5789 39.6873 29.6523 39.6647 29.7098 39.6161C29.7673 39.5675 29.8043 39.4968 29.8128 39.4195L30.1285 36.4025C30.1364 36.325 30.115 36.2474 30.069 36.1866C30.0229 36.1258 29.956 36.0867 29.8829 36.0778Z" fill="#FCFCFC"/>
<path d="M11.7937 45.0461L12.4246 39.0303L30.251 41.1208L29.6195 47.1375L11.7937 45.0461Z" fill="#DDE6ED"/>
<path d="M26.5378 46.7185L27.1642 40.758L26.4913 40.6791L25.8665 46.6392L26.5378 46.7185ZM23.0069 46.3041L23.6321 40.3436L22.9596 40.2647L22.3356 46.2248L23.0069 46.3041ZM19.4754 45.8895L20.1006 39.9299L19.4283 39.8501L18.8031 45.811L19.4754 45.8895ZM15.2717 45.3966L15.9441 45.4755L16.5693 39.5159L15.8968 39.4365L15.2717 45.3966Z" fill="#EDEDED"/>
<path d="M15.2717 45.3966L15.9441 45.4755L18.0896 25.006L17.4179 24.9279L15.2717 45.3966ZM19.4754 45.8895L21.6209 25.4204L20.9486 25.3415L18.8031 45.8112L19.4754 45.8895ZM23.0069 46.3041L25.153 25.8354L24.4813 25.7561L22.3358 46.2248L23.0069 46.3041ZM26.5378 46.7185L28.685 26.2486L28.0126 26.1705L25.8665 46.6392L26.5378 46.7185Z" fill="#EAEAEA"/>
<path d="M14.1492 24.7809C14.1593 24.7809 14.1695 24.7815 14.1797 24.7828L31.9155 26.8635C31.9887 26.8723 32.0557 26.9114 32.1017 26.9722C32.1477 27.0331 32.1691 27.1107 32.1612 27.1882L30.1244 46.6182C30.1161 46.6955 30.0792 46.7662 30.0218 46.8149C29.9644 46.8636 29.8911 46.8863 29.8179 46.878L12.0813 44.7965C12.0082 44.7877 11.9413 44.7487 11.8953 44.6879C11.8493 44.6272 11.8279 44.5496 11.8358 44.4722L13.8732 25.0427C13.8809 24.9708 13.9133 24.9045 13.9641 24.8562C14.015 24.808 14.0809 24.7812 14.1492 24.7809ZM14.1492 24.1932C13.9439 24.193 13.7458 24.273 13.5929 24.4179C13.44 24.5628 13.3431 24.7624 13.3209 24.9783L11.2835 44.4075C11.2595 44.6397 11.3235 44.8725 11.4615 45.0549C11.5995 45.2373 11.8002 45.3543 12.0197 45.3804L29.7563 47.462C29.8651 47.4748 29.9753 47.4648 30.0804 47.4326C30.1856 47.4003 30.2837 47.3464 30.3692 47.274C30.4547 47.2016 30.5258 47.1121 30.5785 47.0105C30.6312 46.909 30.6645 46.7975 30.6764 46.6823L32.7134 27.2521C32.7256 27.137 32.7162 27.0206 32.6856 26.9094C32.655 26.7982 32.6038 26.6946 32.535 26.6045C32.467 26.5139 32.3826 26.4385 32.2867 26.3826C32.1909 26.3268 32.0855 26.2917 31.9768 26.2792L14.2411 24.1982C14.2106 24.1949 14.1799 24.1933 14.1492 24.1932Z" fill="#EAEAEA"/>
<path d="M13.8728 24.7484C13.8829 24.7484 13.8931 24.749 13.9031 24.7503L31.6396 26.8317C31.7128 26.8405 31.7797 26.8796 31.8257 26.9405C31.8718 27.0014 31.8931 27.079 31.8852 27.1565L29.8488 46.5861C29.8405 46.6633 29.8036 46.734 29.7462 46.7826C29.6888 46.8312 29.6156 46.8538 29.5425 46.8456L11.8055 44.7652C11.7324 44.7563 11.6655 44.7172 11.6196 44.6564C11.5736 44.5956 11.5522 44.518 11.56 44.4406L13.5967 25.0102C13.6043 24.9383 13.6367 24.8719 13.6876 24.8237C13.7386 24.7754 13.8045 24.7486 13.8728 24.7484ZM13.8728 24.1608C13.6676 24.1605 13.4695 24.2405 13.3166 24.3854C13.1637 24.5302 13.0668 24.7298 13.0445 24.9456L11.0079 44.3754C10.9839 44.6077 11.0479 44.8405 11.1859 45.023C11.3239 45.2054 11.5246 45.3225 11.7441 45.3487L29.4813 47.4291C29.5901 47.4419 29.7002 47.4319 29.8053 47.3996C29.9104 47.3674 30.0085 47.3136 30.0939 47.2412C30.1793 47.1688 30.2504 47.0793 30.3031 46.9778C30.3558 46.8764 30.3891 46.7649 30.401 46.6498L32.4374 27.2202C32.4497 27.1052 32.4403 26.9887 32.4098 26.8775C32.3793 26.7663 32.3282 26.6626 32.2594 26.5724C32.1914 26.4818 32.1069 26.4064 32.0111 26.3506C31.9153 26.2948 31.8099 26.2596 31.7012 26.2471L13.9648 24.1658C13.9342 24.1625 13.9035 24.1608 13.8728 24.1608Z" fill="#91A7BE"/>
<path d="M17.8142 24.9739L15.6679 45.4435L14.9963 45.3641L17.1413 24.8952L17.8142 24.9739Z" fill="#91A7BE"/>
<path d="M12.1843 38.1906L31.0215 40.3959L30.9469 41.1077L12.1098 38.9024L12.1843 38.1906ZM12.4236 32.6358L31.2606 34.8411L31.1862 35.5528L12.3492 33.3475L12.4236 32.6358Z" fill="#91A7BE"/>
<path d="M21.3451 25.3875L19.199 45.857L18.5278 45.779L20.6734 25.3094L21.3451 25.3875ZM24.876 25.8132L22.7348 46.2833L22.0624 46.2046L24.2039 25.7344L24.876 25.8132ZM28.4083 26.2261L26.2667 46.6965L25.5943 46.6177L27.7356 26.1474L28.4083 26.2261Z" fill="#91A7BE"/>
<path d="M15.899 25.9627C15.9722 25.9715 16.039 26.0106 16.085 26.0715C16.131 26.1323 16.1524 26.2099 16.1445 26.2873L15.563 31.8357C15.5547 31.9131 15.5177 31.9838 15.4603 32.0324C15.4028 32.0809 15.3294 32.1035 15.2563 32.095L14.3358 31.9875C14.2627 31.9786 14.1959 31.9395 14.1499 31.8787C14.1039 31.8179 14.0825 31.7403 14.0904 31.6629L14.6724 26.1141C14.6808 26.0367 14.7177 25.9659 14.7751 25.9172C14.8326 25.8685 14.9059 25.8459 14.9791 25.8542L15.899 25.9627ZM23.1687 26.8148C23.2418 26.8237 23.3087 26.8628 23.3547 26.9236C23.4006 26.9844 23.422 27.062 23.4142 27.1394L22.8327 32.6883C22.8244 32.7657 22.7875 32.8365 22.73 32.8852C22.6726 32.9339 22.5992 32.9565 22.526 32.9481L21.6059 32.8396C21.5328 32.8307 21.4659 32.7916 21.4199 32.7308C21.374 32.67 21.3526 32.5924 21.3604 32.515L21.9419 26.9664C21.9501 26.889 21.987 26.8181 22.0445 26.7694C22.102 26.7207 22.1754 26.6981 22.2486 26.7065L23.1687 26.8148ZM26.7579 27.2361C26.8311 27.2448 26.898 27.2839 26.944 27.3447C26.99 27.4056 27.0114 27.4833 27.0033 27.5607L26.4219 33.1089C26.4135 33.1863 26.3765 33.257 26.319 33.3056C26.2615 33.3542 26.1881 33.3768 26.115 33.3684L25.1945 33.2605C25.1214 33.2518 25.0545 33.2128 25.0085 33.152C24.9625 33.0912 24.9412 33.0137 24.9492 32.9363L25.5317 27.3875C25.54 27.31 25.577 27.2392 25.6345 27.1905C25.692 27.1418 25.7653 27.1192 25.8386 27.1276L26.7579 27.2361ZM18.7028 34.7657C18.7759 34.7746 18.8428 34.8138 18.8888 34.8747C18.9348 34.9356 18.9561 35.0133 18.9482 35.0907L18.6313 38.1082C18.6229 38.1855 18.5859 38.2562 18.5284 38.3048C18.4709 38.3534 18.3976 38.376 18.3244 38.3676L17.2199 38.2379C17.1467 38.229 17.0798 38.1898 17.0339 38.129C16.9879 38.0681 16.9665 37.9905 16.9744 37.913L17.2913 34.8954C17.2996 34.8181 17.3366 34.7473 17.3941 34.6987C17.4515 34.6501 17.5249 34.6275 17.598 34.6359L18.7028 34.7657ZM29.7451 36.0611C29.8183 36.0699 29.8852 36.109 29.9312 36.1699C29.9773 36.2307 29.9987 36.3083 29.9907 36.3858L29.6738 39.4036C29.6655 39.4811 29.6285 39.5519 29.5709 39.6006C29.5134 39.6493 29.44 39.6719 29.3667 39.6635L28.2628 39.5334C28.1897 39.5246 28.1228 39.4855 28.0768 39.4248C28.0308 39.3641 28.0093 39.2865 28.0171 39.2091L28.3337 36.1917C28.342 36.1143 28.379 36.0435 28.4365 35.9949C28.494 35.9462 28.5673 35.9235 28.6406 35.9318L29.7451 36.0611Z" fill="#9CAAAF"/>
<path d="M36.1846 9.77251L30.6937 0.638198C30.1272 -0.303262 29.452 -0.189979 29.1911 0.891212L28.2378 4.84385C13.8669 0.568021 10.5165 13.2343 10.5165 13.2343C10.5165 13.2343 11.8797 10.2036 14.7833 10.1986C21.3287 10.4672 24.66 11.8489 26.2908 12.9172L25.2431 17.264C24.9815 18.3452 25.5126 18.7665 26.4203 18.2017L35.5608 12.5119C35.7758 12.3794 35.9633 12.2022 36.1118 11.991C36.2604 11.7798 36.3671 11.539 36.4253 11.283C36.4836 11.0271 36.4923 10.7613 36.451 10.5017C36.4096 10.2421 36.319 9.99409 36.1846 9.77251Z" fill="url(#paint10_linear_318_44)"/>
<path d="M1.67874 46.8551C1.20846 48.4759 1.97402 50 5.20217 50H40.8531C42.7533 50 43.7764 48.6606 44.3085 46.3443L50 23.0646C50 21.054 48.4453 19.4087 46.5447 19.4087H36.3862C34.4854 19.4087 31.9874 20.7179 30.836 22.317L27.7411 26.6163C26.589 28.2156 24.0913 29.524 22.1904 29.524H10.8937C8.99311 29.524 8.2498 30.7052 7.24055 33.1807C7.24055 33.1803 2.25886 44.8554 1.67874 46.8551Z" fill="url(#paint11_linear_318_44)"/>
<path d="M44.3085 45.4366C43.7764 47.7537 42.7539 49.0927 40.8531 49.0927H5.20217C2.84882 49.0927 1.80866 48.2816 1.59724 47.2143C1.33858 48.6939 2.21437 50 5.20217 50H40.8531C42.7533 50 43.7764 48.6606 44.3085 46.3443V45.4366Z" fill="#2C2C2C" fill-opacity="0.063"/>
<defs>
<linearGradient id="paint0_linear_318_44" x1="14.7872" y1="19.7764" x2="14.7872" y2="36.5934" gradientUnits="userSpaceOnUse">
<stop stop-color="#F9AA2D"/>
<stop offset="1" stop-color="#E09115"/>
</linearGradient>
<linearGradient id="paint1_linear_318_44" x1="5.22175" y1="17.6381" x2="36.0324" y2="17.6381" gradientUnits="userSpaceOnUse">
<stop stop-color="#FEFEFE"/>
<stop offset="1" stop-color="#E2E2E2"/>
</linearGradient>
<linearGradient id="paint2_linear_318_44" x1="14.2383" y1="31.8117" x2="49.4776" y2="31.8156" gradientUnits="userSpaceOnUse">
<stop stop-color="#F5F5F5"/>
<stop offset="0.475" stop-color="#EAEAEA"/>
<stop offset="1" stop-color="#E2E2E2"/>
</linearGradient>
<linearGradient id="paint3_linear_318_44" x1="10.1966" y1="33.0303" x2="12.8581" y2="33.0303" gradientUnits="userSpaceOnUse">
<stop stop-color="#62B1DD"/>
<stop offset="1" stop-color="#2A7CA0"/>
</linearGradient>
<linearGradient id="paint4_linear_318_44" x1="11.1618" y1="28.2271" x2="13.8227" y2="28.2271" gradientUnits="userSpaceOnUse">
<stop stop-color="#62B1DD"/>
<stop offset="1" stop-color="#2A7CA0"/>
</linearGradient>
<linearGradient id="paint5_linear_318_44" x1="12.1263" y1="23.4241" x2="14.7884" y2="23.4241" gradientUnits="userSpaceOnUse">
<stop stop-color="#62B1DD"/>
<stop offset="1" stop-color="#2A7CA0"/>
</linearGradient>
<linearGradient id="paint6_linear_318_44" x1="2.65821" y1="21.3014" x2="34.6741" y2="21.3014" gradientUnits="userSpaceOnUse">
<stop stop-color="#FEFEFE"/>
<stop offset="1" stop-color="#E2E2E2"/>
</linearGradient>
<linearGradient id="paint7_linear_318_44" x1="7.71648" y1="38.0036" x2="10.4026" y2="38.0036" gradientUnits="userSpaceOnUse">
<stop stop-color="#62B1DD"/>
<stop offset="1" stop-color="#2A7CA0"/>
</linearGradient>
<linearGradient id="paint8_linear_318_44" x1="8.27575" y1="32.6661" x2="10.962" y2="32.6661" gradientUnits="userSpaceOnUse">
<stop stop-color="#62B1DD"/>
<stop offset="1" stop-color="#2A7CA0"/>
</linearGradient>
<linearGradient id="paint9_linear_318_44" x1="7.8021" y1="29.0953" x2="12.3408" y2="29.094" gradientUnits="userSpaceOnUse">
<stop stop-color="#54BDF1"/>
<stop offset="1" stop-color="#3AA5D9"/>
</linearGradient>
<linearGradient id="paint10_linear_318_44" x1="8.78141" y1="9.21943" x2="25.4308" y2="9.22485" gradientUnits="userSpaceOnUse">
<stop stop-color="#5AE050"/>
<stop offset="1" stop-color="#40D437"/>
</linearGradient>
<linearGradient id="paint11_linear_318_44" x1="25.7758" y1="8.77941" x2="25.7758" y2="47.939" gradientUnits="userSpaceOnUse">
<stop stop-color="#FED52F"/>
<stop offset="1" stop-color="#F2C719"/>
</linearGradient>
</defs>
</svg>
