<svg width="50" height="50" viewBox="0 0 50 50" fill="none" xmlns="http://www.w3.org/2000/svg">
<path fill-rule="evenodd" clip-rule="evenodd" d="M0 10.4167H50V41.6667H0V10.4167Z" fill="#DDEEFF"/>
<path fill-rule="evenodd" clip-rule="evenodd" d="M50 10.4167H0V4.15625C0 1.86084 1.86885 0 4.17695 0H45.823C48.1299 0 50 1.85859 50 4.15625V10.4167Z" fill="#BBDDFF"/>
<path fill-rule="evenodd" clip-rule="evenodd" d="M12.5 7.2917C11.3494 7.2917 10.4167 6.35889 10.4167 5.2083C10.4167 4.05772 11.3493 3.125 12.5 3.125C13.6507 3.125 14.5833 4.05772 14.5833 5.2083C14.5833 6.35889 13.6507 7.2917 12.5 7.2917ZM5.2083 7.2917C4.05771 7.2917 3.125 6.35889 3.125 5.2083C3.125 4.05772 4.05771 3.125 5.2083 3.125C6.35889 3.125 7.2917 4.05772 7.2917 5.2083C7.2917 6.35889 6.35889 7.2917 5.2083 7.2917Z" fill="white"/>
<path fill-rule="evenodd" clip-rule="evenodd" d="M8.3333 41.6667H0C0 35.2687 2.44082 28.8705 7.32227 23.989C17.0854 14.2259 32.9145 14.2259 42.6777 23.989L36.7852 29.8816C33.769 26.8655 29.6023 25 25 25C15.7952 25 8.3333 32.4619 8.3333 41.6667Z" fill="#0066FF"/>
<path fill-rule="evenodd" clip-rule="evenodd" d="M41.6667 41.6667H50C50 35.2687 47.5592 28.8705 42.6777 23.989L36.7852 29.8816C39.8012 32.8977 41.6667 37.0643 41.6667 41.6667Z" fill="#CC66FF"/>
<path fill-rule="evenodd" clip-rule="evenodd" d="M19.1074 47.5592C15.853 44.3049 15.853 39.0285 19.1074 35.774C22.3618 32.5197 40.468 26.1987 40.468 26.1987C40.468 26.1987 34.147 44.3049 30.8926 47.5592C27.6382 50.8136 22.3618 50.8136 19.1074 47.5592Z" fill="#66CCFF"/>
<path fill-rule="evenodd" clip-rule="evenodd" d="M25 45.8333C22.6988 45.8333 20.8333 43.9679 20.8333 41.6667C20.8333 39.3655 22.6988 37.5 25 37.5C27.3012 37.5 29.1667 39.3655 29.1667 41.6667C29.1667 43.9679 27.3012 45.8333 25 45.8333Z" fill="#0066FF"/>
</svg>
