<svg width="50" height="50" viewBox="0 0 50 50" fill="none" xmlns="http://www.w3.org/2000/svg">
<path d="M50.0001 25.5502C50.0001 23.7877 49.8251 22.0877 49.5251 20.4502H25.5V30.1252H39.225C38.625 33.2502 36.8125 35.8752 34.1 37.6502V43.9502H42.3875C47.2001 39.5877 50.0001 33.1752 50.0001 25.5502Z" fill="#4285F4"/>
<path d="M25.4999 50.0002C32.3874 50.0002 38.1624 47.7627 42.3875 43.9502L34.0999 37.6502C31.8374 39.1502 28.9374 40.0502 25.4999 40.0502C18.8624 40.0502 13.2374 35.6752 11.2124 29.7627H2.72485V36.2127C6.92486 44.3752 15.5249 50.0002 25.4999 50.0002Z" fill="#34A853"/>
<path d="M11.2125 29.7376C10.7 28.2501 10.4 26.6376 10.4 25.0001C10.4 23.3376 10.7 21.7376 11.2125 20.2376V13.7876H2.72501C0.987502 17.1376 0 20.9501 0 25.0001C0 29.0376 0.987502 32.8376 2.72501 36.2001L9.33752 31.1376L11.2125 29.7376Z" fill="#FBBC05"/>
<path d="M25.4999 9.95C29.2499 9.95 32.5999 11.2125 35.2624 13.675L42.5625 6.5125C38.1374 2.4625 32.3874 0 25.4999 0C15.5249 0 6.92486 5.6 2.72485 13.7875L11.2124 20.25C13.2374 14.3375 18.8624 9.95 25.4999 9.95Z" fill="#EA4335"/>
</svg>
