<svg width="50" height="50" viewBox="0 0 50 50" fill="none" xmlns="http://www.w3.org/2000/svg">
<path d="M39.2045 10.1429H49.9999V41.5714C49.9999 43.4649 48.4735 45 46.5908 45H40.909C40.6852 45 40.4635 44.9557 40.2567 44.8695C40.0499 44.7834 39.862 44.6571 39.7037 44.4979C39.5455 44.3387 39.4199 44.1497 39.3343 43.9417C39.2486 43.7338 39.2045 43.5108 39.2045 43.2857V10.1429Z" fill="url(#paint0_linear_311_13)"/>
<path d="M10.7955 10.1429H6.10352e-05V41.5714C6.10352e-05 43.4649 1.52648 45 3.40914 45H9.09095C9.31479 45 9.53644 44.9557 9.74325 44.8695C9.95005 44.7834 10.138 44.6571 10.2962 44.4979C10.4545 44.3387 10.5801 44.1497 10.6657 43.9417C10.7514 43.7338 10.7955 43.5108 10.7955 43.2857V10.1429Z" fill="#FC413D"/>
<path d="M8.87105 6.27322C6.58896 4.34408 3.18414 4.64065 1.26596 6.93579C-0.652218 9.23064 -0.357332 12.6549 1.92476 14.5843L23.5378 32.8555C23.9473 33.2016 24.4651 33.3915 25.0001 33.3915C25.5351 33.3915 26.053 33.2016 26.4625 32.8555L48.0755 14.5841C50.3573 12.6549 50.6522 9.23064 48.734 6.9355C46.8158 4.64065 43.411 4.34408 41.1292 6.27322L25 19.9086L8.87105 6.27322Z" fill="url(#paint1_linear_311_13)"/>
<defs>
<linearGradient id="paint0_linear_311_13" x1="44.6022" y1="10.1429" x2="44.6022" y2="45" gradientUnits="userSpaceOnUse">
<stop stop-color="#60D673"/>
<stop offset="0.17" stop-color="#42C868"/>
<stop offset="0.39" stop-color="#0EBC5F"/>
<stop offset="0.62" stop-color="#00A9BB"/>
<stop offset="0.86" stop-color="#3C90FF"/>
<stop offset="1" stop-color="#3186FF"/>
</linearGradient>
<linearGradient id="paint1_linear_311_13" x1="5.3553e-05" y1="10.7515" x2="49.9999" y2="10.7515" gradientUnits="userSpaceOnUse">
<stop offset="0.08" stop-color="#FF63A0"/>
<stop offset="0.3" stop-color="#FC413D"/>
<stop offset="0.5" stop-color="#FC413D"/>
<stop offset="0.65" stop-color="#FC413D"/>
<stop offset="0.72" stop-color="#FC5C30"/>
<stop offset="0.86" stop-color="#FEB10C"/>
<stop offset="0.91" stop-color="#FEC700"/>
<stop offset="0.96" stop-color="#FFDB0F"/>
</linearGradient>
</defs>
</svg>
