<svg width="50" height="50" viewBox="0 0 50 50" fill="none" xmlns="http://www.w3.org/2000/svg">
<path d="M3.78 40.708L5.98 44.4568C6.44 45.2488 7.1 45.8648 7.87 46.3224L15.75 32.8936H3.05176e-05C3.05176e-05 33.7648 0.22 34.6448 0.68 35.428L3.78 40.708Z" fill="#0066DA"/>
<path d="M25 17.0976L17.12 3.6688C16.35 4.1264 15.69 4.7424 15.23 5.5344L0.68 30.3504C0.22 31.1424 0 31.9872 0 32.8936H15.75L25 17.0976Z" fill="#00AC47"/>
<path d="M42.12 46.3224C42.89 45.8648 43.55 45.2488 44.01 44.4568L44.93 42.908L49.31 35.428C49.77 34.6448 50 33.7648 50 32.8936H34.24L37.6 39.3792L42.12 46.3224Z" fill="#EA4335"/>
<path d="M25 17.0976L32.87 3.6688C32.1 3.22 31.21 3 30.29 3H19.7C18.78 3 17.89 3.2464 17.12 3.6688L25 17.0976Z" fill="#00832D"/>
<path d="M34.24 32.8936H15.75L7.87 46.3224C8.63999 46.7712 9.52999 47 10.45 47H39.54C40.46 47 41.35 46.7448 42.12 46.3224L34.24 32.8936Z" fill="#2684FC"/>
<path d="M42.03 17.9424L34.76 5.5344C34.3 4.7424 33.64 4.1264 32.87 3.6688L25 17.0976L34.24 32.8936H49.97C49.97 32.0224 49.74 31.1424 49.28 30.3504L42.03 17.9424Z" fill="#FFBA00"/>
</svg>
