<svg width="50" height="50" viewBox="0 0 50 50" fill="none" xmlns="http://www.w3.org/2000/svg">
<path d="M3.4 45H11.35V24.3898L0 15.3112V41.3606C0 43.3736 1.5125 45 3.4 45Z" fill="#4285F4"/>
<path d="M38.625 45H46.5875C48.4625 45 50 43.3736 50 41.3606V15.3112L38.625 24.3898V45Z" fill="#34A853"/>
<path d="M38.625 8.64554V24.3898L50 15.3112V10.4719C50 5.96594 45.175 3.40633 41.8 6.09926L38.625 8.64554Z" fill="#FBBC04"/>
<path d="M11.35 24.3898V8.64553L25 19.5505L38.625 8.64553V24.3898L25 35.3081L11.35 24.3898Z" fill="#EA4335"/>
<path d="M0 10.4719V15.3112L11.35 24.3898V8.64554L8.175 6.09926C4.8 3.40633 0 5.96594 0 10.4719Z" fill="#C5221F"/>
</svg>
