<svg width="50" height="50" viewBox="0 0 50 50" fill="none" xmlns="http://www.w3.org/2000/svg">
<path d="M17.3726 37.0454C18.8799 38.9658 20.4099 41.3977 21.2146 42.8636C22.1892 44.7613 22.5972 46.0454 23.3226 48.3522C23.7419 49.6136 24.1499 49.9999 24.9999 49.9999C25.9292 49.9999 26.3486 49.3522 26.6772 48.3522C27.3572 46.1931 27.8786 44.5454 28.7059 42.9772C31.9132 36.7954 37.1266 32.409 40.0619 26.3863C40.0619 26.3863 41.9999 22.7045 41.9999 17.5568C41.9999 12.75 40.0846 9.42041 40.0846 9.42041L17.3839 37.0795L17.3726 37.0454Z" fill="#34A853"/>
<path d="M9.6318 25.7156C11.4565 29.9884 14.9471 33.727 17.3271 37.0224L29.9185 21.6929C29.9185 21.6929 28.1391 24.0906 24.9318 24.0906C21.3505 24.0906 18.4378 21.1588 18.4378 17.4656C18.4378 14.9202 19.9111 13.1475 19.9111 13.1475C10.6405 14.5679 11.1505 16.8747 9.60913 25.7156H9.6318Z" fill="#FBBC04"/>
<path d="M30.1569 0.852051C34.3615 2.23841 37.9429 5.15887 40.0849 9.42023L29.9982 21.7157C29.9982 21.7157 31.4829 19.9543 31.4829 17.4202C31.4829 13.6475 28.3662 10.7952 25.0115 10.7952C21.8155 10.7952 20.0022 13.1589 20.0022 13.1589C20.7842 11.352 28.7742 1.46569 30.1682 0.852051H30.1569Z" fill="#4285F4"/>
<path d="M11.9326 6.20454C14.4373 3.14772 18.8346 0 24.898 0C27.822 0 30.0433 0.795454 30.0433 0.795454L19.9453 13.0909C19.254 12.7159 12.6126 7.40908 11.9326 6.19318V6.20454Z" fill="#1A73E8"/>
<path d="M9.64333 25.7613C9.64333 25.7613 8 22.3863 8 17.534C8 12.9318 9.74533 8.90904 11.9553 6.29541L19.9453 13.2159L9.65467 25.7613H9.64333Z" fill="#EA4335"/>
</svg>
