<svg width="50" height="50" viewBox="0 0 50 50" fill="none" xmlns="http://www.w3.org/2000/svg">
<path d="M45.1613 0H4.83871C2.16636 0 0 2.16636 0 4.83871V45.1613C0 47.8336 2.16636 50 4.83871 50H45.1613C47.8336 50 50 47.8336 50 45.1613V4.83871C50 2.16636 47.8336 0 45.1613 0Z" fill="#E5E6E8"/>
<path d="M45.1613 0H4.83871C3.5554 0 2.32466 0.509791 1.41723 1.41723C0.509791 2.32466 0 3.5554 0 4.83871V12.9032C0 17.6087 1.86923 22.1214 5.19649 25.4487C8.52375 28.7759 13.0365 30.6452 17.7419 30.6452H32.2581C36.9635 30.6452 41.4763 28.7759 44.8035 25.4487C48.1308 22.1214 50 17.6087 50 12.9032V4.83871C50 3.5554 49.4902 2.32466 48.5828 1.41723C47.6753 0.509791 46.4446 0 45.1613 0Z" fill="#F2F2F2"/>
<path d="M45.1613 0H4.83871C3.5554 0 2.32466 0.509791 1.41723 1.41723C0.509791 2.32466 0 3.5554 0 4.83871V8.06452C0 6.78121 0.509791 5.55047 1.41723 4.64303C2.32466 3.7356 3.5554 3.22581 4.83871 3.22581H45.1613C46.4446 3.22581 47.6753 3.7356 48.5828 4.64303C49.4902 5.55047 50 6.78121 50 8.06452V4.83871C50 3.5554 49.4902 2.32466 48.5828 1.41723C47.6753 0.509791 46.4446 0 45.1613 0Z" fill="#FAFAFA"/>
<path d="M45.1613 46.7742H4.83871C3.5554 46.7742 2.32466 46.2644 1.41723 45.357C0.509791 44.4495 0 43.2188 0 41.9355V45.1613C0 46.4446 0.509791 47.6753 1.41723 48.5828C2.32466 49.4902 3.5554 50 4.83871 50H45.1613C46.4446 50 47.6753 49.4902 48.5828 48.5828C49.4902 47.6753 50 46.4446 50 45.1613V41.9355C50 43.2188 49.4902 44.4495 48.5828 45.357C47.6753 46.2644 46.4446 46.7742 45.1613 46.7742Z" fill="#B8B8BA"/>
<path d="M20.9677 11.2903L25 17L14.2339 32.2581L9.67742 38.7097L6.45161 32.2581L20.9677 11.2903Z" fill="#28BE77"/>
<path d="M43.5484 32.2581L40.3226 38.7097H9.67742L14.2339 32.2581H35.7661H43.5484Z" fill="#4A9BF6"/>
<path d="M29.0323 11.2903L43.5484 32.2581H35.7661L25 17L20.9677 11.2903H29.0323Z" fill="#FFDF64"/>
<path d="M25 17L20.9677 11.2903L23.2145 19.5298L25 17Z" fill="#1FA463"/>
<path d="M14.2339 32.2581L9.67742 38.7097L17.7419 32.2581H14.2339Z" fill="#3B7CC4"/>
<path d="M35.7661 32.2581H43.5484L33.6081 29.1992L35.7661 32.2581Z" fill="#FFB844"/>
<path d="M34.0589 32.2581H35.7661L25 17L14.2339 32.2581H15.9411L25 19.4194L34.0589 32.2581ZM40.3226 38.7097H9.67742L7.15403 33.6629L6.45161 34.6774L9.67742 41.129H40.3226L43.5484 34.6774L42.846 33.6629L40.3226 38.7097Z" fill="#B8B8BA"/>
</svg>
