<svg width="50" height="50" viewBox="0 0 50 50" fill="none" xmlns="http://www.w3.org/2000/svg">
<path d="M42.6776 7.32237C38.1533 2.79803 31.9039 0 25 0V25L42.6776 7.32237Z" fill="#B53838"/>
<path d="M50 25C50 18.602 47.5592 12.2039 42.6776 7.32237L25 25H50Z" fill="#B86E3E"/>
<path d="M42.6776 42.6776C47.202 38.1533 50 31.9039 50 25H25L42.6776 42.6776Z" fill="#B88F28"/>
<path d="M25 50C31.398 50 37.7961 47.5592 42.6776 42.6776L25 25V50Z" fill="#51966C"/>
<path d="M7.32237 42.6776C11.8467 47.202 18.0961 50 25 50V25L7.32237 42.6776Z" fill="#5682BA"/>
<path d="M0 25C0 31.398 2.44079 37.7961 7.32237 42.6776L25 25H0Z" fill="#4965A8"/>
<path d="M7.32237 7.32237C2.79803 11.8467 0 18.0961 0 25H25L7.32237 7.32237Z" fill="#7E5D9E"/>
<path d="M25 0C18.602 0 12.2039 2.44079 7.32237 7.32237L25 25V0Z" fill="#914683"/>
<path d="M42.2125 7.7875C37.8072 3.38224 31.7217 0.657895 25 0.657895V25L42.2125 7.7875Z" fill="#EB6060"/>
<path d="M49.3421 25C49.3421 18.7704 46.9658 12.5408 42.2125 7.7875L25 25H49.3421Z" fill="#F08A48"/>
<path d="M42.2125 42.2125C46.6178 37.8072 49.3421 31.7217 49.3421 25H25L42.2125 42.2125Z" fill="#FFDF59"/>
<path d="M25 49.3421C31.2296 49.3421 37.4592 46.9658 42.2125 42.2125L25 25V49.3421Z" fill="#76D67D"/>
<path d="M7.7875 42.2125C12.1928 46.6178 18.2783 49.3421 25 49.3421V25L7.7875 42.2125Z" fill="#669FED"/>
<path d="M0.657895 25C0.657895 31.2296 3.03421 37.4592 7.7875 42.2125L25 25H0.657895Z" fill="#6F85E8"/>
<path d="M7.7875 7.7875C3.38224 12.1928 0.657895 18.2783 0.657895 25H25L7.7875 7.7875Z" fill="#B05DE3"/>
<path d="M25 0.657895C18.7704 0.657895 12.5408 3.03421 7.7875 7.7875L25 25V0.657895Z" fill="#DC5DE3"/>
</svg>
