<svg width="50" height="50" viewBox="0 0 50 50" fill="none" xmlns="http://www.w3.org/2000/svg">
<path d="M19.3105 32.0948L35.9331 19.2978C36.748 18.6705 37.9128 18.9152 38.3011 19.8897C40.3448 25.0289 39.4317 31.205 35.3656 35.4455C31.2996 39.6858 25.6421 40.6158 20.4711 38.4978L14.8221 41.2255C22.9244 47.0009 32.7631 45.5727 38.9112 39.1564C43.7879 34.0705 45.2983 27.138 43.886 20.8864L43.8988 20.8997C41.8508 11.7158 44.4024 8.04486 49.6289 0.5384C49.7525 0.360417 49.8762 0.182433 50 0L43.1222 7.17273V7.15049L19.3063 32.0994" fill="#F4F4F5"/>
<path d="M15.8803 35.2052C10.0649 29.4117 11.0675 20.4458 16.0295 15.2755C19.6987 11.4488 25.7104 9.88698 30.9582 12.183L36.5944 9.46872C35.579 8.70339 34.2776 7.88022 32.7843 7.30177C26.0347 4.40509 17.9537 5.84675 12.4669 11.5645C7.18919 17.0686 5.52948 25.5317 8.37956 32.7534C10.5086 38.1508 7.01851 41.9684 3.50286 45.8219C2.25701 47.1878 1.00691 48.5539 0 50L15.8759 35.2095" fill="#F4F4F5"/>
</svg>
