<svg width="50" height="50" viewBox="0 0 50 50" fill="none" xmlns="http://www.w3.org/2000/svg">
<path fill-rule="evenodd" clip-rule="evenodd" d="M25.8299 25.8299L43.4647 30.4979L39.4191 34.3361L42.4274 37.7593L37.7593 42.7386L34.4398 39.5228L29.668 43.2573L25.8299 25.8299Z" fill="white"/>
<path fill-rule="evenodd" clip-rule="evenodd" d="M49.1701 33.0913L50 30.083L45.0207 28.7344L40.4564 11.6183L43.9834 8.09129L41.805 5.91286L38.1743 9.54357L21.2656 4.97925L19.917 0L16.9087 0.829876L18.2573 5.80913L5.80913 18.2573L0.829875 16.9087L0 19.917L4.97925 21.2656L9.54357 38.1743L5.80913 41.805L7.98755 43.9834L11.6183 40.3527L28.527 44.917L29.8755 50L32.9875 49.0664L31.639 44.0871L34.3361 41.39L37.7593 44.917L44.6058 37.9668L41.1826 34.5436L43.9834 31.7427L49.1701 33.0913ZM35.5809 12.0332L32.6763 14.9378L23.1328 12.3444L22.0954 8.40249L35.5809 12.0332ZM23.9627 28.0083L25.6224 34.0249L19.6058 32.3651L23.9627 28.0083ZM17.5311 30.1867L15.8714 24.0664L21.9917 25.7261L17.5311 30.1867ZM24.1701 15.7676L30.2905 17.4274L25.8299 21.9917L24.1701 15.7676ZM32.4689 19.6058L34.1286 25.8299L28.0083 24.1701L32.4689 19.6058ZM22.8216 22.7178L16.5975 21.0581L21.1618 16.4938L22.8216 22.7178ZM19.1909 9.23237L20.2282 13.1743L13.1743 20.2282L9.23236 19.1909L19.1909 9.23237ZM8.50622 22.0954L12.4481 23.1328L15.0415 32.5726L12.1369 35.4772L8.50622 22.0954ZM14.2116 37.8631L17.1162 34.9585L26.556 37.5519L27.5934 41.4938L14.2116 37.8631ZM40.8714 30.9129L37.1369 34.6473L40.5602 38.0705L37.9668 40.6639L34.5436 37.2407L30.8091 41.0788L27.0747 27.2822V27.1784L40.8714 30.9129ZM37.5519 26.6598L34.9585 17.0124L37.9668 14.1079L41.5975 27.8008L37.5519 26.6598Z" fill="#96B5C6"/>
</svg>
