<svg width="50" height="50" viewBox="0 0 50 50" fill="none" xmlns="http://www.w3.org/2000/svg">
<path d="M23.3166 14.9558C26.5902 17.9208 29.2284 21.0981 30.9262 24.0925C33.8422 18.7571 35.7908 12.4172 35.8154 8.37926C35.8154 8.35066 35.8154 8.32466 35.8154 8.30039C35.8154 2.32536 29.9892 0 24.9703 0C19.9515 0 14.1252 2.32536 14.1252 8.30039C14.1252 8.38186 14.1252 8.49106 14.1252 8.6228C16.9227 9.89512 20.2387 12.1685 23.3166 14.9558Z" fill="#FA2921"/>
<path d="M5.45922 31.2497C7.50522 28.9209 10.6441 26.397 14.1863 24.2632C17.9546 21.9942 21.7239 20.409 25.0322 19.6836C20.9732 15.1975 15.6816 11.3425 11.9344 10.071C11.9081 10.0623 11.8836 10.0545 11.8615 10.0467C6.30643 8.20066 2.34405 13.1504 0.793665 18.0334C-0.756719 22.9164 -0.395809 29.3039 5.15931 31.15C5.23471 31.1752 5.33638 31.209 5.45922 31.2497Z" fill="#ED79B5"/>
<path d="M49.2063 17.9511C47.656 13.0681 43.6936 8.11839 38.1385 9.96446C38.0622 9.98959 37.9606 10.0234 37.8386 10.0641C37.5209 13.1782 36.4322 17.1078 34.792 20.9638C33.0476 25.065 30.9084 28.6141 28.6489 31.1908C34.5099 32.3799 41.0063 32.3158 44.7678 31.092C44.7941 31.0833 44.8187 31.0747 44.8407 31.0677C50.3958 29.2208 50.7567 22.8332 49.2063 17.9511Z" fill="#FFB400"/>
<path d="M20.0176 36.0235C19.073 31.6562 18.7638 27.4987 19.1111 24.0562C13.6865 26.619 8.46768 30.5763 6.12685 33.8291C6.11076 33.8516 6.09551 33.8733 6.08195 33.8923C2.64908 38.7268 6.02604 44.1116 10.0867 47.1286C14.1465 50.1464 20.1964 51.7689 23.6301 46.9344C23.6775 46.8686 23.7402 46.7802 23.8156 46.6736C22.283 43.9634 20.9055 40.1291 20.0176 36.0235Z" fill="#1E83F7"/>
<path d="M43.8265 33.5803C40.8334 34.2337 36.8439 34.3889 32.7519 33.9841C28.3998 33.5543 24.4399 32.5697 21.3459 31.1674C22.0517 37.2369 24.1188 43.5378 26.419 46.82C26.4351 46.8425 26.4504 46.8642 26.4639 46.8832C29.8968 51.7177 35.9467 50.0952 40.0073 47.0774C44.0671 44.0595 47.4449 38.6747 44.0121 33.8411C43.9646 33.7753 43.9019 33.6869 43.8265 33.5803Z" fill="#18C249"/>
</svg>
