<svg width="64" height="63" viewBox="0 0 64 63" fill="none" xmlns="http://www.w3.org/2000/svg">
<g opacity="0.783251">
<g filter="url(#filter0_f_98_38)">
<path d="M27.5205 8.17393L9.13203 26.9738C2.1694 33.9235 13.6399 33.3444 17.7907 35.9728C19.7099 37.2202 11.6314 38.8239 13.2828 40.4723C14.8896 42.1206 22.968 43.6353 24.5748 45.239C26.1815 46.8874 21.3166 48.6248 22.9234 50.2731C24.4855 51.9215 28.2346 50.3622 28.9041 54.1044C29.3951 56.8665 35.7775 55.4854 38.6339 53.1243C40.4192 51.6096 35.5543 51.6096 37.1611 49.9613C41.178 45.9073 44.7485 48.1348 46.2214 44.3926C47.0248 42.3879 40.1514 40.9623 41.9814 39.6704C46.3553 36.5965 62.4229 35.0372 55.014 27.642L35.956 8.17393C33.5905 5.94645 29.7075 5.94645 27.5205 8.17393ZM48.6316 44.3926C48.6316 45.3281 55.9066 45.8627 55.5049 44.1699C54.9247 41.3187 49.4349 41.5414 48.6316 44.3926ZM17.6122 49.3376C19.2635 50.7632 21.763 49.0258 22.5663 47.021C20.9596 44.9272 15.0235 47.1547 17.6122 49.3376ZM47.7389 46.3528C45.6858 48.2239 48.096 50.184 50.1044 48.8921C50.64 48.5357 50.0598 46.7983 47.7389 46.3528Z" fill="black"/>
</g>
<g opacity="0.576355" filter="url(#filter1_f_98_38)">
<path d="M27.5205 8.609L9.13203 27.4089C2.1694 34.3586 13.6399 33.7794 17.7907 36.4078C19.7099 37.6552 11.6314 39.259 13.2828 40.9073C14.8896 42.5557 22.968 44.0703 24.5748 45.6741C26.1815 47.3225 21.3166 49.0599 22.9234 50.7082C24.4855 52.3565 28.2346 50.7973 28.9041 54.5395C29.3951 57.3015 35.7775 55.9205 38.6339 53.5594C40.4192 52.0447 35.5543 52.0447 37.1611 50.3964C41.178 46.3424 44.7485 48.5698 46.2214 44.8277C47.0248 42.823 40.1514 41.3974 41.9814 40.1054C46.3553 37.0315 62.4229 35.4723 55.014 28.0771L35.956 8.609C33.5905 6.38153 29.7075 6.38153 27.5205 8.609ZM48.6316 44.8277C48.6316 45.7632 55.9066 46.2978 55.5049 44.6049C54.9247 41.7538 49.4349 41.9765 48.6316 44.8277ZM17.6122 49.7727C19.2635 51.1983 21.763 49.4608 22.5663 47.4561C20.9596 45.3623 15.0235 47.5898 17.6122 49.7727ZM47.7389 46.7879C45.6858 48.6589 48.096 50.6191 50.1044 49.3272C50.64 48.9708 50.0598 47.2334 47.7389 46.7879Z" fill="black"/>
</g>
</g>
<path d="M27.5205 7.73885L9.13203 26.5387C2.1694 33.4884 13.6399 32.9093 17.7907 35.5377C19.7099 36.7851 11.6314 38.3889 13.2828 40.0372C14.8896 41.6855 22.968 43.2002 24.5748 44.804C26.1815 46.4523 21.3166 48.1897 22.9234 49.8381C24.4855 51.4864 28.2346 49.9272 28.9041 53.6693C29.3951 56.4314 35.7775 55.0503 38.6339 52.6892C40.4192 51.1745 35.5543 51.1745 37.1611 49.5262C41.178 45.4722 44.7485 47.6997 46.2214 43.9575C47.0248 41.9528 40.1514 40.5272 41.9814 39.2353C46.3553 36.1614 62.4229 34.6022 55.014 27.2069L35.956 7.73885C33.5905 5.51138 29.7075 5.51138 27.5205 7.73885ZM48.6316 43.9575C48.6316 44.8931 55.9066 45.4277 55.5049 43.7348C54.9247 40.8836 49.4349 41.1064 48.6316 43.9575ZM17.6122 48.9025C19.2635 50.3281 21.763 48.5907 22.5663 46.5859C20.9596 44.4921 15.0235 46.7196 17.6122 48.9025ZM47.7389 45.9177C45.6858 47.7888 48.096 49.749 50.1044 48.457C50.64 48.1006 50.0598 46.3632 47.7389 45.9177Z" fill="black"/>
<path opacity="0.505263" d="M10.7679 27.5809C5.76822 32.5263 14.5514 31.1326 21.3078 33.7852L35.2708 9.28275C33.1538 7.12474 30.4513 7.30457 28.5145 9.28275L10.7679 27.5809Z" fill="url(#paint0_linear_98_38)"/>
<path d="M34.8402 9.07533L42.1152 16.4705C42.7847 17.1388 42.7847 18.5198 42.383 18.9208L38.7678 15.9805L38.0537 20.3018L35.0634 18.698L30.1984 21.7719L28.5917 15.3123L26.003 20.9255L19.5313 20.8809C18.2816 20.8809 18.4602 19.589 19.7545 18.2971C22.2985 15.4904 27.2527 10.7237 28.8148 9.07533C30.4216 7.427 33.2334 7.47155 34.8402 9.07533Z" fill="url(#paint1_linear_98_38)"/>
<path opacity="0.216749" fill-rule="evenodd" clip-rule="evenodd" d="M24.8551 44.0107C24.8551 44.0107 25.6447 45.2142 25.5643 45.7803C25.4063 46.8914 23.009 47.4458 23.5401 48.4348C24.0649 49.412 25.9564 48.8582 27.5441 49.8801C29.1249 50.8976 28.6999 52.9714 29.8489 53.4931C32.0897 54.5106 37.9749 51.7382 37.6794 51.7972C37.384 51.8562 31.8712 52.9995 30.6301 51.9967C29.2151 50.8533 28.8094 50.0547 27.7657 49.3787C26.7876 48.7451 25.4136 48.4867 25.0938 47.968C24.7741 47.4493 25.7343 46.78 25.8007 45.7803C25.8405 45.18 24.8551 44.0107 24.8551 44.0107Z" fill="url(#paint2_radial_98_38)"/>
<g opacity="0.275862" filter="url(#filter2_f_98_38)">
<path fill-rule="evenodd" clip-rule="evenodd" d="M24.8551 44.0107C24.8551 44.0107 25.6447 45.2142 25.5643 45.7803C25.4063 46.8914 23.009 47.4458 23.5401 48.4348C24.0649 49.412 25.9564 48.8582 27.5441 49.8801C29.1249 50.8976 28.6999 52.9714 29.8489 53.4931C32.0897 54.5106 37.9749 51.7382 37.6794 51.7972C27.907 51.8343 29.7307 49.3209 25.9632 47.668C25.4187 47.4291 25.7343 46.78 25.8007 45.7803C25.8405 45.18 24.8551 44.0107 24.8551 44.0107Z" fill="url(#paint3_radial_98_38)"/>
</g>
<path opacity="0.453202" fill-rule="evenodd" clip-rule="evenodd" d="M41.4617 38.8787C50.2328 35.6568 53.0506 35.2141 55.9409 32.3309C52.5934 35.1514 45.5163 36.6644 39.7479 39.1736L41.4617 38.8787Z" fill="url(#paint4_radial_98_38)"/>
<g opacity="0.512315" filter="url(#filter3_f_98_38)">
<path fill-rule="evenodd" clip-rule="evenodd" d="M41.4617 38.4657C55.9063 33.3562 53.4643 33.3855 55.9409 31.918C51.3483 33.6727 42.7656 33.8598 39.7479 38.7607L41.4617 38.4657Z" fill="url(#paint5_radial_98_38)"/>
</g>
<path opacity="0.285714" d="M54.0793 42.5507C54.0793 42.7032 53.8816 42.8495 53.5297 42.9574C53.1778 43.0653 52.7005 43.1258 52.2029 43.1258C51.7052 43.1258 51.228 43.0653 50.8761 42.9574C50.5242 42.8495 50.3265 42.7032 50.3265 42.5507C50.3265 42.3982 50.5242 42.2519 50.8761 42.144C51.228 42.0362 51.7052 41.9756 52.2029 41.9756C52.7005 41.9756 53.1778 42.0362 53.5297 42.144C53.8816 42.2519 54.0793 42.3982 54.0793 42.5507Z" fill="url(#paint6_linear_98_38)"/>
<g opacity="0.620689" filter="url(#filter4_f_98_38)">
<path d="M54.7293 43.2143C54.7293 43.5429 54.4632 43.858 53.9894 44.0903C53.5156 44.3226 52.8729 44.4531 52.2029 44.4531C51.5328 44.4531 50.8902 44.3226 50.4164 44.0903C49.9426 43.858 49.6764 43.5429 49.6764 43.2143C49.6764 42.8858 49.9426 42.5707 50.4164 42.3384C50.8902 42.1061 51.5328 41.9756 52.2029 41.9756C52.8729 41.9756 53.5156 42.1061 53.9894 42.3384C54.4632 42.5707 54.7293 42.8858 54.7293 43.2143Z" fill="url(#paint7_linear_98_38)"/>
</g>
<g filter="url(#filter5_f_98_38)">
<path fill-rule="evenodd" clip-rule="evenodd" d="M48.7604 43.9028C49.6515 44.7249 54.6125 45.1468 55.4238 43.6669C53.8313 44.7956 50.29 44.3989 48.7604 43.9028Z" fill="url(#paint8_radial_98_38)"/>
</g>
<path opacity="0.285714" d="M48.778 46.6468C48.8213 46.732 48.8489 46.8242 48.8592 46.918C48.8694 47.0119 48.8621 47.1056 48.8376 47.1937C48.8131 47.2819 48.772 47.3629 48.7165 47.432C48.6611 47.5011 48.5924 47.5569 48.5145 47.5964C48.4365 47.6359 48.3508 47.6581 48.2622 47.6619C48.1736 47.6657 48.0838 47.651 47.9981 47.6186C47.9124 47.5862 47.8323 47.5367 47.7625 47.473C47.6927 47.4093 47.6345 47.3327 47.5913 47.2474C47.548 47.1622 47.5204 47.07 47.5101 46.9762C47.4999 46.8823 47.5072 46.7886 47.5317 46.7005C47.5562 46.6123 47.5973 46.5313 47.6528 46.4622C47.7082 46.3931 47.7769 46.3373 47.8548 46.2978C47.9328 46.2584 48.0185 46.2361 48.1071 46.2323C48.1957 46.2285 48.2855 46.2432 48.3712 46.2756C48.4569 46.308 48.537 46.3575 48.6068 46.4212C48.6766 46.4849 48.7348 46.5616 48.778 46.6468Z" fill="url(#paint9_linear_98_38)"/>
<g opacity="0.620689" filter="url(#filter6_f_98_38)">
<path d="M49.1297 46.8058C49.1945 46.9332 49.2363 47.0707 49.2526 47.2104C49.269 47.3502 49.2595 47.4895 49.2249 47.6204C49.1903 47.7512 49.1311 47.871 49.0508 47.973C48.9704 48.075 48.8705 48.1571 48.7568 48.2147C48.643 48.2723 48.5176 48.3042 48.3877 48.3086C48.2578 48.313 48.126 48.2898 47.9997 48.2404C47.8735 48.1909 47.7554 48.1162 47.6521 48.0205C47.5488 47.9247 47.4623 47.8098 47.3977 47.6823C47.3328 47.5549 47.2911 47.4174 47.2748 47.2776C47.2584 47.1379 47.2678 46.9986 47.3025 46.8677C47.3371 46.7369 47.3963 46.6171 47.4766 46.5151C47.5569 46.4131 47.6569 46.331 47.7706 46.2734C47.8844 46.2158 48.0098 46.1839 48.1397 46.1795C48.2696 46.1751 48.4014 46.1983 48.5276 46.2477C48.6539 46.2971 48.772 46.3719 48.8753 46.4676C48.9786 46.5634 49.0651 46.6783 49.1297 46.8058Z" fill="url(#paint10_linear_98_38)"/>
</g>
<g filter="url(#filter7_f_98_38)">
<path fill-rule="evenodd" clip-rule="evenodd" d="M47.5436 48.3088C48.2597 48.8681 50.9549 48.9398 49.9324 47.314C50.1991 48.5874 48.3582 48.4527 47.5436 48.3088Z" fill="url(#paint11_radial_98_38)"/>
</g>
<path fill-rule="evenodd" clip-rule="evenodd" d="M14.2765 39.8815C14.2765 39.735 23.4595 42.6748 25.0324 44.2466C23.739 42.987 17.1936 40.09 16.1972 40.0584C15.2007 40.0268 14.3946 39.9404 14.2765 39.8815Z" fill="url(#paint12_radial_98_38)"/>
<path opacity="0.285714" d="M21.175 46.1787C21.2107 46.2849 21.0712 46.4248 20.7872 46.5676C20.5031 46.7105 20.0978 46.8446 19.6604 46.9404C19.2229 47.0363 18.7892 47.0861 18.4546 47.0788C18.12 47.0715 17.912 47.0078 17.8763 46.9016C17.8405 46.7955 17.98 46.6556 18.2641 46.5127C18.5481 46.3699 18.9534 46.2358 19.3909 46.1399C19.8283 46.0441 20.262 45.9943 20.5966 46.0016C20.9312 46.0088 21.1392 46.0726 21.175 46.1787Z" fill="url(#paint13_linear_98_38)"/>
<g opacity="0.620689" filter="url(#filter8_f_98_38)">
<path d="M21.9019 46.5153C21.9788 46.744 21.8187 47.0145 21.4566 47.2675C21.0946 47.5204 20.5603 47.735 19.9713 47.8641C19.3823 47.9932 18.7869 48.0261 18.316 47.9557C17.8451 47.8853 17.5373 47.7173 17.4603 47.4887C17.3833 47.2601 17.5435 46.9895 17.9055 46.7366C18.2676 46.4836 18.8019 46.269 19.3909 46.1399C19.9799 46.0108 20.5753 45.9779 21.0462 46.0483C21.5171 46.1187 21.8249 46.2867 21.9019 46.5153Z" fill="url(#paint14_linear_98_38)"/>
</g>
<g opacity="0.615764" filter="url(#filter9_f_98_38)">
<path fill-rule="evenodd" clip-rule="evenodd" d="M17.2166 47.668C17.2166 47.668 17.7138 49.0013 19.0782 49.069C20.4585 49.1374 22.0339 47.4156 22.1661 46.7979C21.9297 47.3288 20.6082 48.9293 18.9009 48.9067C17.9317 48.8939 17.2166 47.668 17.2166 47.668Z" fill="url(#paint15_radial_98_38)"/>
</g>
<g filter="url(#filter10_f_98_38)">
<path d="M31.6741 6.72256C30.2913 6.72256 28.9361 7.22243 27.978 8.19826L9.59509 26.9926C7.91441 28.6701 7.51066 29.7683 7.61453 30.3894C7.66647 30.7 7.81922 30.9699 8.14454 31.2526C8.46987 31.5352 8.96198 31.8123 9.55325 32.0601C10.7358 32.5555 12.3285 32.9546 13.8909 33.3826C15.4534 33.8106 16.9839 34.2623 18.145 34.9975C18.322 35.1126 18.4882 35.2543 18.6052 35.4569C18.7222 35.6595 18.7633 35.9274 18.7168 36.153C18.6238 36.6042 18.3455 36.8422 18.0613 37.0579C17.4929 37.4894 16.7119 37.8479 15.9273 38.2274C15.1427 38.6068 14.354 38.9951 13.9607 39.3133C13.764 39.4724 13.6928 39.6154 13.6957 39.6056C13.6985 39.5959 13.6435 39.4839 13.7375 39.5778C13.9838 39.8304 14.7525 40.263 15.732 40.6497C16.7116 41.0365 17.9104 41.4274 19.1213 41.8192C20.3322 42.2109 21.5571 42.5988 22.5942 43.0025C23.6314 43.4063 24.4767 43.7816 25.0351 44.339C25.313 44.6241 25.5093 44.9787 25.5511 45.3413C25.5929 45.704 25.4945 46.0444 25.3558 46.3298C25.0785 46.9007 24.6327 47.3398 24.2261 47.7637C23.8195 48.1876 23.4512 48.5925 23.3195 48.8635C23.2537 48.9991 23.2435 49.0874 23.2498 49.142C23.2561 49.1966 23.2655 49.2517 23.3892 49.3786C23.394 49.3832 23.3986 49.3879 23.4032 49.3926C23.9359 49.9547 25.0934 50.0337 26.4019 50.3392C27.0562 50.492 27.7404 50.7232 28.3267 51.2302C28.913 51.7372 29.353 52.5091 29.5401 53.5551C29.6189 53.9982 29.8538 54.2139 30.4188 54.3905C30.9839 54.567 31.8445 54.5978 32.7899 54.4601C34.6807 54.1845 36.9229 53.2593 38.2155 52.1908C38.2958 52.1227 38.2735 52.1407 38.2992 52.1073C38.2122 52.0452 38.0083 51.9128 37.6716 51.7453C37.2736 51.5474 36.8036 51.3624 36.4442 50.91C36.2645 50.6838 36.1407 50.3267 36.1931 49.9773C36.2455 49.6278 36.4372 49.3371 36.6952 49.0724C38.8134 46.9347 40.9004 46.4243 42.4695 46.0096C43.2541 45.8022 43.9108 45.6126 44.4082 45.2996C44.9056 44.9866 45.2942 44.5584 45.6217 43.7264C45.6578 43.6364 45.6567 43.6102 45.6077 43.5037C45.5587 43.3971 45.4272 43.2267 45.2172 43.0443C44.7972 42.6794 44.0967 42.2873 43.404 41.9027C42.7113 41.5181 42.038 41.1595 41.549 40.7054C41.3044 40.4784 41.0482 40.1924 41.019 39.7587C40.9897 39.3251 41.2745 38.9339 41.6048 38.7007C42.8302 37.8395 44.6827 37.1838 46.6956 36.4872C48.7085 35.7905 50.8737 35.0695 52.6373 34.2458C54.4009 33.422 55.6979 32.4733 56.1102 31.5171C56.3164 31.039 56.3542 30.5555 56.1381 29.93C55.9221 29.3046 55.4287 28.5397 54.5481 27.6608L35.5097 8.21219C35.5049 8.20769 35.5005 8.20275 35.4957 8.19826C34.4434 7.21473 33.0506 6.72256 31.6741 6.72256ZM52.177 42.3621C51.0009 42.4045 49.9188 42.9419 49.4572 43.7821C49.5884 43.8314 49.7065 43.8868 49.9175 43.9353C50.5315 44.0762 51.3883 44.1672 52.2328 44.1858C53.0773 44.2045 53.9218 44.1335 54.4365 43.9909C54.6619 43.9285 54.7813 43.8654 54.841 43.8239C54.7268 43.3378 54.455 42.9943 53.9902 42.738C53.5088 42.4725 52.8491 42.3379 52.177 42.3621ZM20.7113 46.3994C19.7785 46.3346 18.6062 46.7053 18.0334 47.1651C17.747 47.395 17.6258 47.6081 17.6149 47.7498C17.6041 47.8915 17.6494 48.0804 18.0334 48.4041C18.0334 48.4088 18.0334 48.4134 18.0334 48.418C18.6372 48.9392 19.3198 48.8849 20.0976 48.4598C20.7497 48.1034 21.3282 47.4348 21.7155 46.7335C21.4544 46.5654 21.1422 46.4293 20.7113 46.3994ZM47.937 46.6778C47.7373 46.9311 47.6286 47.167 47.6162 47.3322C47.599 47.5601 47.6638 47.7363 47.8393 47.9029C48.1684 48.2152 48.8833 48.3497 49.6107 47.9586C49.5963 47.8744 49.569 47.7466 49.4572 47.5827C49.2341 47.2557 48.7125 46.9033 47.937 46.6778Z" stroke="url(#paint16_radial_98_38)" stroke-width="0.485348"/>
</g>
<g opacity="0.325123" filter="url(#filter11_f_98_38)">
<path fill-rule="evenodd" clip-rule="evenodd" d="M21.5946 36.1545C20.4852 36.4812 16.8888 37.8376 17.3992 38.8737C17.8882 39.8663 26.2502 40.2662 27.5336 43.2245C28.0932 44.5145 26.2494 45.4876 26.7163 46.8138C27.0758 47.8351 29.8572 50.4012 31.6169 51.6144C32.9972 52.566 34.81 50.8482 34.0718 49.4243C32.8958 47.1559 38.0913 44.3776 40.4466 43.1157C41.8208 42.3795 37.6134 38.7649 37.6134 38.7649L21.5946 36.1545Z" fill="url(#paint17_linear_98_38)"/>
</g>
<path fill-rule="evenodd" clip-rule="evenodd" d="M22.0049 37.1562C23.0011 37.8865 24.9671 37.446 26.1478 37.9767C28.9817 39.2504 32.4654 40.6699 31.8243 38.1569L31.1032 38.7548L31.0891 37.6154L29.4145 38.0236C29.4145 38.0236 28.1174 36.9844 27.5228 36.6417C27.3986 36.5701 26.7606 37.2176 26.7606 37.2176L26.6459 36.5299C25.8169 36.4418 24.9962 36.403 24.2736 36.4088C22.5415 36.4227 21.3729 36.6929 22.0049 37.1562Z" fill="url(#paint18_linear_98_38)"/>
<g opacity="0.477832" filter="url(#filter12_f_98_38)">
<path fill-rule="evenodd" clip-rule="evenodd" d="M40.6101 39.4719C40.2266 40.8812 45.3237 42.7959 44.9417 43.7683C44.1007 45.9092 39.4984 44.4508 35.9788 48.9348C35.4747 49.5771 36.6871 51.8716 36.5237 51.5997C36.3602 51.3277 35.1147 49.4324 35.434 48.4998C36.4352 45.5749 46.1159 44.4845 44.3424 43.0885C43.3224 42.2857 39.6554 40.0675 40.6101 39.4719Z" fill="url(#paint19_radial_98_38)"/>
</g>
<path opacity="0.586207" d="M52.0793 42.3679C52.0793 42.4292 52.0205 42.488 51.9157 42.5313C51.811 42.5747 51.6689 42.599 51.5208 42.599C51.3727 42.599 51.2306 42.5747 51.1259 42.5313C51.0212 42.488 50.9623 42.4292 50.9623 42.3679C50.9623 42.3066 51.0212 42.2478 51.1259 42.2045C51.2306 42.1611 51.3727 42.1368 51.5208 42.1368C51.6689 42.1368 51.811 42.1611 51.9157 42.2045C52.0205 42.2478 52.0793 42.3066 52.0793 42.3679Z" fill="white"/>
<path opacity="0.586207" d="M48.347 46.6371C48.347 46.6984 48.3097 46.7572 48.2433 46.8005C48.1769 46.8439 48.0868 46.8682 47.9929 46.8682C47.899 46.8682 47.8089 46.8439 47.7425 46.8005C47.676 46.7572 47.6387 46.6984 47.6387 46.6371C47.6387 46.5758 47.676 46.517 47.7425 46.4736C47.8089 46.4303 47.899 46.4059 47.9929 46.4059C48.0868 46.4059 48.1769 46.4303 48.2433 46.4736C48.3097 46.517 48.347 46.5758 48.347 46.6371Z" fill="white"/>
<path opacity="0.586207" d="M20.0963 46.4331C20.0963 46.4944 20.0303 46.5532 19.9128 46.5966C19.7953 46.6399 19.6359 46.6643 19.4697 46.6643C19.3035 46.6643 19.1441 46.6399 19.0266 46.5966C18.9091 46.5532 18.8431 46.4944 18.8431 46.4331C18.8431 46.3718 18.9091 46.3131 19.0266 46.2697C19.1441 46.2264 19.3035 46.202 19.4697 46.202C19.6359 46.202 19.7953 46.2264 19.9128 46.2697C20.0303 46.3131 20.0963 46.3718 20.0963 46.4331Z" fill="white"/>
<path opacity="0.251232" d="M19.7421 36.2632C16.5496 38.2342 11.586 38.9515 17.0179 40.2605C16.3708 38.8224 18.4187 38.981 19.7421 36.2632Z" fill="url(#paint20_linear_98_38)"/>
<g opacity="0.363158" filter="url(#filter13_f_98_38)">
<path d="M31.0751 54.2101C31.0751 54.2101 35.9988 53.7472 37.1378 52.3292C37.8042 51.4996 34.4895 50.5315 35.2051 49.7187C37.8967 46.6614 40.1591 46.7891 43.2799 45.5086C46.4007 44.2281 45.2491 43.601 44.2397 43.0388C42.5108 42.0759 38.6631 41.05 39.936 38.7649C41.2168 36.4656 52.4335 33.2721 52.4335 33.2721C55.8325 32.113 55.406 30.0168 53.7411 28.2687L43.7158 18.3164C43.7158 18.3164 44.2133 27.7551 42.1902 31.8037C39.6901 36.8069 26.3798 42.3895 31.9469 43.0069C33.9084 43.2245 34.85 43.8924 35.6519 45.3998C37.3031 48.5039 31.0751 54.2101 31.0751 54.2101Z" fill="url(#paint21_linear_98_38)"/>
</g>
<defs>
<filter id="filter0_f_98_38" x="5.33723" y="4.90215" width="53.2023" height="52.3322" filterUnits="userSpaceOnUse" color-interpolation-filters="sRGB">
<feFlood flood-opacity="0" result="BackgroundImageFix"/>
<feBlend mode="normal" in="SourceGraphic" in2="BackgroundImageFix" result="shape"/>
<feGaussianBlur stdDeviation="0.800584" result="effect1_foregroundBlur_98_38"/>
</filter>
<filter id="filter1_f_98_38" x="1.19209e-07" y="0" width="63.8768" height="63.0066" filterUnits="userSpaceOnUse" color-interpolation-filters="sRGB">
<feFlood flood-opacity="0" result="BackgroundImageFix"/>
<feBlend mode="normal" in="SourceGraphic" in2="BackgroundImageFix" result="shape"/>
<feGaussianBlur stdDeviation="3.4692" result="effect1_foregroundBlur_98_38"/>
</filter>
<filter id="filter2_f_98_38" x="21.402" y="41.9492" width="18.3496" height="13.83" filterUnits="userSpaceOnUse" color-interpolation-filters="sRGB">
<feFlood flood-opacity="0" result="BackgroundImageFix"/>
<feBlend mode="normal" in="SourceGraphic" in2="BackgroundImageFix" result="shape"/>
<feGaussianBlur stdDeviation="1.03072" result="effect1_foregroundBlur_98_38"/>
</filter>
<filter id="filter3_f_98_38" x="37.5162" y="29.6863" width="20.6563" height="11.306" filterUnits="userSpaceOnUse" color-interpolation-filters="sRGB">
<feFlood flood-opacity="0" result="BackgroundImageFix"/>
<feBlend mode="normal" in="SourceGraphic" in2="BackgroundImageFix" result="shape"/>
<feGaussianBlur stdDeviation="1.11582" result="effect1_foregroundBlur_98_38"/>
</filter>
<filter id="filter4_f_98_38" x="48.6631" y="40.9622" width="7.07958" height="4.5042" filterUnits="userSpaceOnUse" color-interpolation-filters="sRGB">
<feFlood flood-opacity="0" result="BackgroundImageFix"/>
<feBlend mode="normal" in="SourceGraphic" in2="BackgroundImageFix" result="shape"/>
<feGaussianBlur stdDeviation="0.506666" result="effect1_foregroundBlur_98_38"/>
</filter>
<filter id="filter5_f_98_38" x="47.8965" y="42.803" width="8.39118" height="2.71048" filterUnits="userSpaceOnUse" color-interpolation-filters="sRGB">
<feFlood flood-opacity="0" result="BackgroundImageFix"/>
<feBlend mode="normal" in="SourceGraphic" in2="BackgroundImageFix" result="shape"/>
<feGaussianBlur stdDeviation="0.431956" result="effect1_foregroundBlur_98_38"/>
</filter>
<filter id="filter6_f_98_38" x="46.6007" y="45.5126" width="3.32608" height="3.46281" filterUnits="userSpaceOnUse" color-interpolation-filters="sRGB">
<feFlood flood-opacity="0" result="BackgroundImageFix"/>
<feBlend mode="normal" in="SourceGraphic" in2="BackgroundImageFix" result="shape"/>
<feGaussianBlur stdDeviation="0.333159" result="effect1_foregroundBlur_98_38"/>
</filter>
<filter id="filter7_f_98_38" x="46.9755" y="46.746" width="3.75373" height="2.49105" filterUnits="userSpaceOnUse" color-interpolation-filters="sRGB">
<feFlood flood-opacity="0" result="BackgroundImageFix"/>
<feBlend mode="normal" in="SourceGraphic" in2="BackgroundImageFix" result="shape"/>
<feGaussianBlur stdDeviation="0.284033" result="effect1_foregroundBlur_98_38"/>
</filter>
<filter id="filter8_f_98_38" x="16.6177" y="45.1883" width="6.12673" height="3.62734" filterUnits="userSpaceOnUse" color-interpolation-filters="sRGB">
<feFlood flood-opacity="0" result="BackgroundImageFix"/>
<feBlend mode="normal" in="SourceGraphic" in2="BackgroundImageFix" result="shape"/>
<feGaussianBlur stdDeviation="0.41184" result="effect1_foregroundBlur_98_38"/>
</filter>
<filter id="filter9_f_98_38" x="16.5169" y="46.0982" width="6.34895" height="3.67251" filterUnits="userSpaceOnUse" color-interpolation-filters="sRGB">
<feFlood flood-opacity="0" result="BackgroundImageFix"/>
<feBlend mode="normal" in="SourceGraphic" in2="BackgroundImageFix" result="shape"/>
<feGaussianBlur stdDeviation="0.349863" result="effect1_foregroundBlur_98_38"/>
</filter>
<filter id="filter10_f_98_38" x="6.70836" y="5.83163" width="50.4661" height="49.6054" filterUnits="userSpaceOnUse" color-interpolation-filters="sRGB">
<feFlood flood-opacity="0" result="BackgroundImageFix"/>
<feBlend mode="normal" in="SourceGraphic" in2="BackgroundImageFix" result="shape"/>
<feGaussianBlur stdDeviation="0.324131" result="effect1_foregroundBlur_98_38"/>
</filter>
<filter id="filter11_f_98_38" x="13.7712" y="32.5757" width="30.5301" height="22.8919" filterUnits="userSpaceOnUse" color-interpolation-filters="sRGB">
<feFlood flood-opacity="0" result="BackgroundImageFix"/>
<feBlend mode="normal" in="SourceGraphic" in2="BackgroundImageFix" result="shape"/>
<feGaussianBlur stdDeviation="1.7894" result="effect1_foregroundBlur_98_38"/>
</filter>
<filter id="filter12_f_98_38" x="34.1773" y="38.2674" width="11.9894" height="14.5592" filterUnits="userSpaceOnUse" color-interpolation-filters="sRGB">
<feFlood flood-opacity="0" result="BackgroundImageFix"/>
<feBlend mode="normal" in="SourceGraphic" in2="BackgroundImageFix" result="shape"/>
<feGaussianBlur stdDeviation="0.602285" result="effect1_foregroundBlur_98_38"/>
</filter>
<filter id="filter13_f_98_38" x="27.91" y="15.6279" width="29.7794" height="41.2708" filterUnits="userSpaceOnUse" color-interpolation-filters="sRGB">
<feFlood flood-opacity="0" result="BackgroundImageFix"/>
<feBlend mode="normal" in="SourceGraphic" in2="BackgroundImageFix" result="shape"/>
<feGaussianBlur stdDeviation="1.34425" result="effect1_foregroundBlur_98_38"/>
</filter>
<linearGradient id="paint0_linear_98_38" x1="18.0647" y1="17.735" x2="29.3043" y2="28.9955" gradientUnits="userSpaceOnUse">
<stop stop-color="white"/>
<stop offset="1" stop-color="white" stop-opacity="0"/>
</linearGradient>
<linearGradient id="paint1_linear_98_38" x1="30.1538" y1="11.0801" x2="43.5186" y2="24.4697" gradientUnits="userSpaceOnUse">
<stop stop-color="white"/>
<stop offset="1" stop-color="white" stop-opacity="0"/>
</linearGradient>
<radialGradient id="paint2_radial_98_38" cx="0" cy="0" r="1" gradientUnits="userSpaceOnUse" gradientTransform="translate(23.4635 52.9958) scale(11.3571 7.58786)">
<stop stop-color="white"/>
<stop offset="1" stop-color="white" stop-opacity="0"/>
</radialGradient>
<radialGradient id="paint3_radial_98_38" cx="0" cy="0" r="1" gradientUnits="userSpaceOnUse" gradientTransform="translate(29.4516 53.2677) scale(14.4906 9.68146)">
<stop stop-color="white"/>
<stop offset="1" stop-color="white" stop-opacity="0"/>
</radialGradient>
<radialGradient id="paint4_radial_98_38" cx="0" cy="0" r="1" gradientUnits="userSpaceOnUse" gradientTransform="translate(47.8444 35.7522) scale(8.09649 3.42135)">
<stop stop-color="white"/>
<stop offset="1" stop-color="white" stop-opacity="0"/>
</radialGradient>
<radialGradient id="paint5_radial_98_38" cx="0" cy="0" r="1" gradientUnits="userSpaceOnUse" gradientTransform="translate(49.5582 36.6961) scale(8.09649 3.42135)">
<stop stop-color="white"/>
<stop offset="1" stop-color="white" stop-opacity="0"/>
</radialGradient>
<linearGradient id="paint6_linear_98_38" x1="52.6018" y1="41.6364" x2="52.6312" y2="43.1258" gradientUnits="userSpaceOnUse">
<stop stop-color="white"/>
<stop offset="1" stop-color="white" stop-opacity="0"/>
</linearGradient>
<linearGradient id="paint7_linear_98_38" x1="52.6609" y1="41.4655" x2="52.6609" y2="43.7271" gradientUnits="userSpaceOnUse">
<stop stop-color="white"/>
<stop offset="1" stop-color="white" stop-opacity="0"/>
</linearGradient>
<radialGradient id="paint8_radial_98_38" cx="0" cy="0" r="1" gradientUnits="userSpaceOnUse" gradientTransform="translate(52.0921 44.1582) scale(3.33168 0.491327)">
<stop stop-color="white"/>
<stop offset="1" stop-color="white" stop-opacity="0"/>
</radialGradient>
<linearGradient id="paint9_linear_98_38" x1="47.9242" y1="46.0538" x2="48.6567" y2="47.3503" gradientUnits="userSpaceOnUse">
<stop stop-color="white"/>
<stop offset="1" stop-color="white" stop-opacity="0"/>
</linearGradient>
<linearGradient id="paint10_linear_98_38" x1="47.648" y1="45.5948" x2="48.6696" y2="47.6135" gradientUnits="userSpaceOnUse">
<stop stop-color="white"/>
<stop offset="1" stop-color="white" stop-opacity="0"/>
</linearGradient>
<radialGradient id="paint11_radial_98_38" cx="0" cy="0" r="1" gradientTransform="matrix(1.28481 -0.650224 0.2226 0.438218 48.8702 48.4025)" gradientUnits="userSpaceOnUse">
<stop stop-color="white"/>
<stop offset="1" stop-color="white" stop-opacity="0"/>
</radialGradient>
<radialGradient id="paint12_radial_98_38" cx="0" cy="0" r="1" gradientUnits="userSpaceOnUse" gradientTransform="translate(19.3885 41.3535) scale(5.37796 2.18522)">
<stop stop-color="white" stop-opacity="0.330049"/>
<stop offset="1" stop-color="white" stop-opacity="0"/>
</radialGradient>
<linearGradient id="paint13_linear_98_38" x1="19.6621" y1="45.827" x2="19.9124" y2="46.8873" gradientUnits="userSpaceOnUse">
<stop stop-color="white"/>
<stop offset="1" stop-color="white" stop-opacity="0"/>
</linearGradient>
<linearGradient id="paint14_linear_98_38" x1="19.674" y1="45.6967" x2="20.0274" y2="47.3093" gradientUnits="userSpaceOnUse">
<stop stop-color="white"/>
<stop offset="1" stop-color="white" stop-opacity="0"/>
</linearGradient>
<radialGradient id="paint15_radial_98_38" cx="0" cy="0" r="1" gradientTransform="matrix(2.93276 -0.811096 0.304037 1.09526 19.5288 48.9815)" gradientUnits="userSpaceOnUse">
<stop stop-color="white"/>
<stop offset="1" stop-color="white" stop-opacity="0"/>
</radialGradient>
<radialGradient id="paint16_radial_98_38" cx="0" cy="0" r="1" gradientUnits="userSpaceOnUse" gradientTransform="translate(33.9029 11.9261) scale(42.1085 41.3671)">
<stop stop-color="white"/>
<stop offset="1" stop-color="white" stop-opacity="0"/>
</radialGradient>
<linearGradient id="paint17_linear_98_38" x1="21.5946" y1="44.0216" x2="34.2322" y2="47.3693" gradientUnits="userSpaceOnUse">
<stop stop-color="white"/>
<stop offset="1" stop-color="white" stop-opacity="0"/>
</linearGradient>
<linearGradient id="paint18_linear_98_38" x1="28.2954" y1="36.3516" x2="26.88" y2="39.6008" gradientUnits="userSpaceOnUse">
<stop stop-color="#EEEEEC"/>
<stop offset="1" stop-color="#EEEEEC" stop-opacity="0"/>
</linearGradient>
<radialGradient id="paint19_radial_98_38" cx="0" cy="0" r="1" gradientUnits="userSpaceOnUse" gradientTransform="translate(40.2782 45.411) scale(6.61757 8.39427)">
<stop stop-color="white"/>
<stop offset="1" stop-color="white" stop-opacity="0"/>
</radialGradient>
<linearGradient id="paint20_linear_98_38" x1="16.9089" y1="37.4597" x2="18.8947" y2="39.0405" gradientUnits="userSpaceOnUse">
<stop stop-color="white"/>
<stop offset="1" stop-color="white" stop-opacity="0"/>
</linearGradient>
<linearGradient id="paint21_linear_98_38" x1="40.1879" y1="46.0525" x2="34.2982" y2="30.1651" gradientUnits="userSpaceOnUse">
<stop stop-color="#729FCF"/>
<stop offset="1" stop-color="#729FCF" stop-opacity="0"/>
</linearGradient>
</defs>
</svg>
