<svg width="50" height="50" viewBox="0 0 50 50" fill="none" xmlns="http://www.w3.org/2000/svg">
<path fill-rule="evenodd" clip-rule="evenodd" d="M0 25.0182C0.481403 25.8388 9.61145 34.8406 10.5079 35.1902C12.035 35.7833 13.2634 34.8082 13.471 33.6382C13.7864 31.8997 10.7735 29.7061 8.85615 27.813C8.00124 26.9681 6.78113 26.0257 6.29974 25.01C7.31234 23.564 10.1675 21.0697 11.5952 19.6804C12.2841 19.0142 13.7034 17.9986 13.6536 16.6418C13.6038 15.2688 12.3007 14.2938 10.6905 14.7407C9.66125 15.0332 0.805105 23.8321 0 25.0182Z" fill="#F26651"/>
<path fill-rule="evenodd" clip-rule="evenodd" d="M28.0463 9.25222C26.5774 9.97529 26.76 10.6009 26.1043 12.8595L22.4937 25.6637C21.6887 28.5154 20.9416 31.1884 20.1033 34.1375C19.8211 35.1206 18.9661 37.7285 18.933 38.5816C18.8749 40.3039 20.4851 41.6121 22.2115 40.7021C23.6475 39.9384 26.8015 26.6386 27.5236 24.2094C28.3702 21.3821 29.0425 18.6604 29.9305 15.7437C30.1961 14.8662 31.0593 12.0714 31.0593 11.3077C31.0593 9.56907 29.6068 8.48039 28.0463 9.25222Z" fill="#F26651"/>
<path fill-rule="evenodd" clip-rule="evenodd" d="M43.6755 25.0101C42.9034 26.4807 39.982 28.8774 38.6041 30.2179C37.8655 30.9329 36.3631 31.8915 36.471 33.3782C36.5789 34.8163 37.9649 35.8238 39.5254 35.1902C40.1645 34.9302 49.3443 25.8388 50 25.0019C49.2282 23.694 40.4134 15.0494 39.3178 14.7326C37.7243 14.2695 36.4212 15.2526 36.3381 16.6418C36.2137 18.7298 41.1937 21.8578 43.6755 25.0101Z" fill="#F26651"/>
</svg>
