<svg width="50" height="50" viewBox="0 0 50 50" fill="none" xmlns="http://www.w3.org/2000/svg">
<path d="M16.8139 34.138C15.7362 31.9741 22.8041 19.1583 24.9999 19.1583C27.1992 19.1597 34.2518 31.9977 33.1859 34.138C32.1199 36.2777 17.891 36.3013 16.8132 34.138H16.8139Z" fill="url(#paint0_linear_277_116)"/>
<path fill-rule="evenodd" clip-rule="evenodd" d="M0.334388 45.137C-2.91208 38.616 18.3876 0 25.0006 0C31.6207 0 52.8842 38.691 49.6717 45.137C46.4593 51.5831 3.58364 51.6588 0.335777 45.137M8.84605 39.4785C10.9745 43.7509 39.0664 43.7036 41.1705 39.4785C43.2746 35.2519 29.3422 9.90313 25.0076 9.90313C20.6729 9.90313 6.71623 35.2054 8.84397 39.4785H8.84605Z" fill="url(#paint1_linear_277_116)"/>
<defs>
<linearGradient id="paint0_linear_277_116" x1="8.33352" y1="20.8334" x2="50.0005" y2="43.749" gradientUnits="userSpaceOnUse">
<stop stop-color="#AA5CC3"/>
<stop offset="1" stop-color="#00A4DC"/>
</linearGradient>
<linearGradient id="paint1_linear_277_116" x1="8.33356" y1="20.8334" x2="50.0005" y2="43.749" gradientUnits="userSpaceOnUse">
<stop stop-color="#AA5CC3"/>
<stop offset="1" stop-color="#00A4DC"/>
</linearGradient>
</defs>
</svg>
