<svg width="50" height="50" viewBox="0 0 50 50" fill="none" xmlns="http://www.w3.org/2000/svg">
<path d="M47.9994 19.4717C47.9994 29.7893 37.3306 41.4153 29.696 49.2085C22.3889 41.7505 11.3926 29.7898 11.3926 19.4717C11.3926 9.15416 19.5873 0.790039 29.696 0.790039C39.8046 0.790039 47.9994 9.15416 47.9994 19.4717Z" fill="url(#paint0_linear_184_77)"/>
<path opacity="0.3" d="M11.4221 19.21C11.4031 19.5586 11.3926 19.9095 11.3926 20.2629C11.3926 30.5806 22.3894 42.5418 29.6963 49.9997C37.3311 42.2072 47.9997 30.581 47.9997 20.2629C47.9997 19.9116 47.9893 19.5627 47.9705 19.2161C47.3621 29.2961 37.1022 40.4626 29.6962 48.0214C22.6065 40.7852 12.0439 29.3102 11.422 19.2102L11.4221 19.21Z" fill="black"/>
<path opacity="0.4" d="M29.6963 3.96079e-05C19.5875 3.98056e-05 11.3926 8.36396 11.3926 18.6817C11.3926 18.9885 11.403 19.2968 11.4221 19.6064C11.9572 9.77877 19.9339 1.97771 29.6964 1.97771C39.4608 1.97771 47.4386 9.78194 47.9706 19.6125C47.9894 19.3011 47.9998 18.9909 47.9998 18.6816C47.9998 8.36392 39.8051 3.96079e-05 29.6963 3.96079e-05Z" fill="white"/>
<path opacity="0.5" d="M31.9834 15.1013C31.1013 14.8154 29.9964 14.5055 29.2443 14.5055C28.3937 14.5055 28.0161 14.415 27.2859 14.0364C26.6414 13.702 26.287 13.4064 26.0707 12.999C25.8546 12.5917 25.7635 12.0237 25.7635 11.1281V9.48658L24.3699 8.92799C20.3218 7.30604 16.1864 6.7623 8.42978 6.81164C7.32806 6.81718 6.50109 6.82268 5.91811 6.82817C5.33515 6.83372 5.01656 6.83921 4.85326 6.85577C4.83282 6.85726 4.81476 6.86017 4.78959 6.8668C4.77672 6.86973 4.76299 6.87118 4.73936 6.87784C4.71573 6.88339 4.68328 6.88224 4.60689 6.95787C4.56871 6.9965 4.51289 7.07267 4.50631 7.17918C4.49917 7.28515 4.54892 7.37677 4.58657 7.42091C4.66168 7.50921 4.69716 7.50701 4.7212 7.51639C4.76927 7.53292 4.78472 7.53292 4.8049 7.53847C4.88516 7.555 4.97322 7.56054 5.11753 7.57158C5.40617 7.59366 5.87513 7.62125 6.50209 7.66099C13.9276 8.1152 18.5393 8.83927 22.3786 10.1396L22.7187 10.255L21.2804 10.3113C14.6339 10.5724 9.64019 11.0564 5.29255 11.8639C3.97665 12.1084 3.19401 12.2607 2.73729 12.3727C2.50893 12.429 2.36935 12.4666 2.24032 12.5345C2.17579 12.5676 2.09014 12.6029 2.02732 12.7525C1.99601 12.827 1.99082 12.9335 2.01586 13.0107C2.0403 13.088 2.07981 13.136 2.11185 13.1686C2.19168 13.2503 2.23546 13.2503 2.26458 13.258C2.29378 13.269 2.31194 13.269 2.32838 13.269C2.36142 13.2734 2.38675 13.2734 2.41509 13.2734C2.47188 13.274 2.5377 13.272 2.61913 13.2679C2.78186 13.2568 3.00308 13.2403 3.27206 13.2127C3.81001 13.1575 4.53626 13.0758 5.32551 12.9726C9.46525 12.4334 13.3491 12.0771 16.6245 11.9353C18.121 11.8707 20.1669 11.8801 21.8306 11.9408C22.0127 11.9464 22.1166 11.9574 22.2883 11.9684C18.8117 12.549 13.1698 14.4223 9.62043 16.2137C8.5939 16.7319 7.58669 17.3105 6.84911 17.788C6.48031 18.0269 6.18045 18.2383 5.96921 18.4147C5.86363 18.503 5.781 18.5786 5.71082 18.6702C5.67578 18.7143 5.63971 18.764 5.61468 18.854C5.58964 18.9439 5.6061 19.125 5.7061 19.2276C5.82742 19.3512 5.90793 19.3275 5.94748 19.3275C5.98711 19.3273 6.00728 19.3231 6.02602 19.3165C6.06339 19.3109 6.08969 19.2999 6.12031 19.2889C6.1814 19.2668 6.25278 19.2392 6.34201 19.2039C6.52027 19.1305 6.76472 19.0218 7.0626 18.8855C7.65835 18.6123 8.46523 18.2258 9.34347 17.7912C14.4701 15.4527 18.8077 13.7626 24.9496 13.5004C25.0377 13.6898 25.1455 13.9348 25.2623 14.2173L25.7968 15.4675C20.6923 18.7614 22.2968 26.3474 27.93 27.3093C28.6712 27.4329 29.5152 27.5069 30.486 27.546C33.4386 27.6658 34.5017 27.9605 36.4633 29.202C37.9367 30.1343 39.2169 31.5027 40.2259 33.236C40.6256 33.9228 41.1121 35.0496 41.4894 36.102C41.6781 36.6279 41.8406 37.1376 41.9546 37.5649C42.0687 37.992 42.1305 38.35 42.1309 38.5076C42.1314 38.7019 42.1548 38.8785 42.2055 39.0341C42.2309 39.112 42.2611 39.1859 42.3196 39.2626C42.378 39.3393 42.4912 39.4387 42.6531 39.4387C42.7604 39.4387 42.8698 39.379 42.9275 39.3183C42.9851 39.2571 43.01 39.2008 43.0285 39.15C43.0658 39.049 43.0761 38.9585 43.0833 38.8542C43.0977 38.6456 43.0861 38.3862 43.0579 38.079C42.9996 37.4642 42.8655 36.6677 42.6735 35.881C42.0263 33.2296 40.325 30.4883 38.1993 28.6203C40.9641 29.5567 43.2026 31.6718 44.0239 34.136C44.0667 34.2635 44.1155 34.3705 44.2069 34.4704C44.2523 34.5201 44.3106 34.5769 44.4211 34.6067C44.5317 34.6343 44.7023 34.5901 44.7859 34.5063C44.9528 34.3358 44.9217 34.1923 44.9135 34.0681C44.9048 33.9439 44.8794 33.8148 44.8418 33.6685C44.7666 33.3755 44.6418 33.0193 44.4872 32.6381C44.1781 31.8756 43.7574 31.0271 43.36 30.4762C41.8823 28.4273 38.7553 26.742 35.2337 26.0033C34.3938 25.8272 32.4899 25.5303 30.9157 25.5303C30.8011 25.5303 29.2648 25.3984 28.7087 25.3493C23.1071 24.8498 23.4835 16.6401 29.2086 16.6401C30.0225 16.6401 30.5259 16.6787 31.2795 16.899C32.033 17.1203 33.039 17.5347 34.7782 18.2877C35.5369 18.6161 35.9648 18.8214 36.1824 18.9734C36.3999 19.1258 36.4193 19.1776 36.4837 19.399C36.5622 19.6683 36.5783 20.0502 36.8056 20.2669C37.0329 20.4838 37.9881 20.8138 38.4116 21.0538C39.1338 21.4854 39.5 21.7459 40.1304 22.5871C40.8016 21.7031 41.0853 21.6773 41.8808 21.4068C40.6945 21.2715 39.1206 20.042 39.9235 19.9118C39.1983 19.2482 39.0334 18.0819 38.6805 17.8813C38.5986 17.8096 38.5063 17.7588 38.4109 17.718L36.9572 17.5679C35.395 16.6248 33.1275 15.4706 31.9844 15.0966L31.9834 15.1013ZM38.4759 17.4709C38.4759 17.3483 38.4408 17.3009 38.4158 17.2556C38.391 17.2115 38.3645 17.1739 38.3355 17.1358C38.2767 17.0597 38.2041 16.9802 38.1159 16.8897C36.1229 14.9577 33.6527 13.4716 31.0972 12.5545C30.9079 12.4872 30.7534 12.4391 30.6152 12.4154C30.5461 12.4044 30.4848 12.3933 30.386 12.4099C30.3368 12.4209 30.2702 12.4375 30.1984 12.4993C30.1266 12.5627 30.075 12.6847 30.075 12.7758C30.075 12.8994 30.1166 12.9447 30.1376 12.9745C30.1581 13.0021 30.1727 13.0186 30.1852 13.0302C30.2101 13.0523 30.2263 13.0688 30.2443 13.0799C30.28 13.1075 30.3172 13.1296 30.3636 13.1594C30.4562 13.2168 30.5812 13.2885 30.7346 13.374C32.7246 14.3466 34.2961 14.9976 35.8831 16.3297C36.4259 16.7348 36.5638 17.1721 37.189 17.2702L38.4759 17.4709Z" fill="black"/>
<path d="M9.84269 5.40426C9.38534 5.40259 8.9147 5.4031 8.42994 5.40619C7.32822 5.4117 6.50115 5.41725 5.91815 5.4228C5.33518 5.42831 5.0165 5.43364 4.85319 5.45022C4.83277 5.45172 4.81478 5.45484 4.78961 5.46142C4.77676 5.46435 4.76291 5.46562 4.73928 5.47224C4.71562 5.47776 4.68321 5.47697 4.60682 5.55258C4.56863 5.59121 4.51311 5.66741 4.50653 5.77391C4.49938 5.87988 4.54911 5.97117 4.58676 6.01533C4.66187 6.10363 4.69707 6.10174 4.72111 6.11112C4.76918 6.12767 4.78495 6.12762 4.80513 6.13314C4.88539 6.14969 4.97344 6.15489 5.11773 6.16598C5.40636 6.18804 5.87516 6.21585 6.50209 6.25559C13.9276 6.70981 18.539 7.43389 22.3785 8.73425L22.7187 8.84936L21.2803 8.90576C14.6337 9.16685 9.64035 9.65109 5.29262 10.4586C3.97674 10.7031 3.19414 10.8552 2.73723 10.9673C2.50888 11.0236 2.36935 11.0613 2.24032 11.1291C2.1758 11.1623 2.09008 11.1974 2.02726 11.347C1.99594 11.4215 1.99087 11.5282 2.0159 11.6054C2.04034 11.6827 2.07998 11.7305 2.11203 11.763C2.19186 11.8447 2.23543 11.8449 2.26454 11.8526C2.29376 11.8636 2.31207 11.8634 2.3285 11.8634C2.36154 11.8678 2.38684 11.8681 2.41517 11.8681C2.47196 11.8686 2.53773 11.8664 2.61915 11.8623C2.78187 11.8513 3.003 11.8347 3.27196 11.8071C3.80988 11.7519 4.53619 11.6704 5.3255 11.5672C9.46512 11.028 13.349 10.6718 16.6244 10.53C18.1208 10.4655 20.1662 10.4747 21.8299 10.5355C22.012 10.541 22.1161 10.5518 22.2878 10.5629C18.8115 11.1435 13.1694 13.0166 9.61999 14.808C8.59346 15.3263 7.58642 15.905 6.84894 16.3825C6.48013 16.6214 6.18028 16.8327 5.96905 17.009C5.86347 17.0973 5.78076 17.1731 5.71057 17.2647C5.67552 17.3089 5.63948 17.3582 5.61444 17.4482C5.58937 17.5382 5.60602 17.7194 5.70603 17.8221C5.82735 17.9457 5.90793 17.9218 5.94748 17.9218C5.98711 17.9215 6.00707 17.9175 6.02582 17.9109C6.06317 17.9054 6.08944 17.8945 6.12005 17.8835C6.18115 17.8615 6.2526 17.8335 6.34182 17.7982C6.52007 17.7247 6.7645 17.6162 7.0624 17.4799C7.65811 17.2066 8.46509 16.8202 9.34322 16.3856C14.4699 14.0471 18.8075 12.3574 24.9489 12.0953C25.0371 12.2846 25.1447 12.5294 25.2615 12.8118L25.7959 14.0622C20.6915 17.3561 22.2961 24.9418 27.9293 25.9037C28.6705 26.0273 29.5142 26.1013 30.4849 26.1405C33.4375 26.2603 34.5009 26.555 36.4625 27.7965C37.9359 28.7287 39.2162 30.0969 40.2251 31.8302C40.6248 32.5169 41.1111 33.6439 41.4884 34.6963C41.677 35.2222 41.8394 35.7318 41.9535 36.1591C42.0675 36.5862 42.1294 36.944 42.1298 37.1016C42.1303 37.2959 42.1538 37.4728 42.2044 37.6285C42.2299 37.7063 42.2602 37.78 42.3187 37.8568C42.377 37.9335 42.4903 38.0329 42.6521 38.0329C42.7594 38.0329 42.8689 37.973 42.9265 37.9124C42.9841 37.8511 43.0091 37.7951 43.0275 37.7443C43.0649 37.6434 43.0748 37.5528 43.082 37.4485C43.0964 37.2399 43.085 36.9804 43.0566 36.6732C42.9984 36.0585 42.8641 35.2621 42.6721 34.4754C42.025 31.8241 40.3237 29.0826 38.1981 27.2146C40.9627 28.151 43.2011 30.266 44.0225 32.7303C44.0652 32.8578 44.1139 32.9648 44.2053 33.0648C44.2507 33.1144 44.3093 33.1713 44.4199 33.2011C44.5304 33.2287 44.7008 33.1843 44.7843 33.1007C44.9512 32.9302 44.9201 32.7865 44.9119 32.6623C44.9031 32.5381 44.8779 32.4092 44.8403 32.2629C44.7652 31.9698 44.6403 31.6135 44.4857 31.2323C44.1766 30.4698 43.756 29.6216 43.3587 29.0707C41.8812 27.0218 38.754 25.3366 35.2325 24.5977C34.3927 24.4216 32.4886 24.1249 30.9148 24.1249C30.8003 24.1249 29.2642 23.9929 28.708 23.9438C23.1065 23.4443 23.4829 15.2345 29.208 15.2345C30.0218 15.2345 30.5254 15.2731 31.2789 15.4933C32.0325 15.7146 33.0382 16.129 34.7774 16.882C35.536 17.2104 35.9639 17.416 36.1814 17.568C36.399 17.7203 36.4186 17.772 36.4831 17.9933C36.5615 18.2626 36.5774 18.6446 36.8047 18.8612C37.0321 19.0781 37.9874 19.4081 38.4109 19.6481C39.1331 20.0797 39.499 20.3404 40.1294 21.1816C40.8006 20.2976 41.0843 20.2717 41.8798 20.0011C40.6936 19.8659 39.1199 18.6364 39.9227 18.5062C39.1975 17.8426 39.0323 16.6762 38.6795 16.4755C38.5975 16.4038 38.5054 16.3534 38.4101 16.3125L36.9564 16.1623C35.3943 15.2192 33.1266 14.0649 31.9836 13.6909L31.9825 13.6956C31.1004 13.4097 29.9956 13.0999 29.2436 13.0999C28.393 13.0999 28.0153 13.0096 27.2852 12.631C26.6407 12.2965 26.2862 12.0009 26.07 11.5935C25.8538 11.1862 25.7627 10.6184 25.7627 9.72276V8.0811L24.3693 7.52256C20.5742 6.00202 16.7027 5.42936 9.84242 5.40424L9.84269 5.40426ZM30.5117 10.997C30.4754 10.9949 30.4355 10.9961 30.3861 11.0044C30.3369 11.0154 30.2701 11.0321 30.1984 11.094C30.1265 11.1574 30.075 11.2795 30.075 11.3705C30.075 11.4942 30.1168 11.5393 30.1378 11.5691C30.1585 11.5967 30.1731 11.6131 30.1855 11.6247C30.2104 11.6468 30.2266 11.6635 30.2445 11.6745C30.28 11.7021 30.3174 11.7243 30.3637 11.7541C30.4563 11.8115 30.5812 11.8829 30.7346 11.9685C32.7246 12.941 34.2962 13.5921 35.8834 14.9242C36.4261 15.3293 36.5638 15.7667 37.189 15.8647L38.4758 16.0652C38.4758 15.9427 38.4404 15.8953 38.4156 15.8501C38.3907 15.8059 38.3644 15.7684 38.3354 15.7303C38.2766 15.6542 38.2041 15.5744 38.1159 15.4839C36.1228 13.5519 33.6526 12.066 31.0971 11.1491C30.9078 11.0818 30.7536 11.0338 30.6153 11.0101C30.5808 11.0046 30.548 10.9991 30.5117 10.997ZM38.2897 16.956C38.4272 16.9843 38.7125 17.6088 38.9357 17.8916C38.9465 17.9561 38.9644 17.9953 38.8165 17.9642C38.804 17.8979 38.7824 17.8789 38.7824 17.8789C38.7824 17.8789 38.4253 17.6619 38.3158 17.508C38.2062 17.3542 38.1871 17.0851 38.2405 16.9831C38.2535 16.9601 38.27 16.952 38.2897 16.956Z" fill="white"/>
<defs>
<linearGradient id="paint0_linear_184_77" x1="16.1993" y1="11.9295" x2="34.9424" y2="43.7341" gradientUnits="userSpaceOnUse">
<stop stop-color="#23BAC2"/>
<stop offset="1" stop-color="#2777FF"/>
</linearGradient>
</defs>
</svg>
