<svg viewBox="0 0 50 50" xmlns="http://www.w3.org/2000/svg" xmlns:xlink="http://www.w3.org/1999/xlink" width="50.000000" height="50.000000" fill="none" customFrame="#000000">
	<path id="Kling" d="M42.7689 7.18032L42.9421 7.34933L42.947 7.3445C46.2815 10.6409 45.3253 17.2643 40.4904 24.773L50 34.1407L49.5914 34.9246C47.9792 38.022 45.8516 40.7261 43.2086 43.0369C39.703 46.1187 35.6635 48.1918 31.0902 49.2563L30.9268 49.2949L30.693 49.3496L30.5247 49.3867L30.523 49.3867L30.1536 49.4671C30.0515 49.4882 29.949 49.5081 29.8464 49.5267L29.6159 49.5702C29.3707 49.6184 29.1141 49.6635 28.864 49.7054L28.6548 49.7359L28.4962 49.7553C28.269 49.7858 28.0484 49.8132 27.8228 49.839C24.0271 50.26 20.3243 49.8555 16.7144 48.6257C13.1046 47.3958 9.93969 45.4605 7.21968 42.8196L7.06277 42.6699C3.7218 39.3735 4.66819 32.7452 9.50964 25.2317L0 15.864L0.40863 15.0801C2.01821 11.9811 4.14745 9.27914 6.79634 6.9743C9.5043 4.60187 12.5641 2.81309 15.9758 1.60797C16.7604 1.32951 17.5809 1.08646 18.3867 0.880436C19.0512 0.7056 19.7219 0.558055 20.3988 0.437802C20.6277 0.392734 20.8859 0.346056 21.136 0.304207C25.0911 -0.303003 28.9733 -0.00120115 32.7826 1.20961C36.5919 2.42042 39.9207 4.41066 42.7689 7.18032ZM39.5538 7.58272L39.544 7.58272L39.5538 7.58755C36.3223 6.60248 31.1948 8.19436 25.7748 11.7113C29.8987 10.5798 33.8869 11.1656 36.4645 13.7056C38.9065 16.1151 39.575 19.772 38.6499 23.6141C38.6074 23.8201 38.5518 24.0262 38.4864 24.237C42.9111 17.6458 44.3266 11.4795 41.525 8.72552C41.4781 8.67666 41.4291 8.62998 41.3779 8.58549L41.3567 8.56617L41.3256 8.53881C41.2939 8.51603 41.2628 8.49243 41.2324 8.46799C41.1916 8.43579 41.1507 8.4036 41.1066 8.37463L41.0379 8.32634C40.5874 7.99294 40.0927 7.74507 39.5538 7.58272ZM37.3357 22.3989C36.7653 25.75 34.884 29.1366 32.0317 31.9421C29.1876 34.7492 25.7421 36.6034 22.3341 37.17C19.1451 37.7011 16.3942 37.009 14.5914 35.2385C12.7934 33.4663 12.0906 30.7671 12.6299 27.6107C13.2004 24.2628 15.0768 20.8746 17.916 18.0723C17.916 18.0723 17.9209 18.0723 17.9323 18.0562L17.9421 18.0401C20.7911 15.2524 24.2236 13.4029 27.6234 12.8428C30.8124 12.3117 33.5567 13.0006 35.3661 14.7743C37.1641 16.5448 37.867 19.2489 37.3276 22.4005L37.3374 22.4005L37.3357 22.3989ZM8.4374 8.78185C6.25116 10.6872 4.44938 12.8967 3.03204 15.4101L3.01569 15.4149L11.2668 23.5208C11.9402 22.5888 12.6561 21.6665 13.4243 20.7555C13.6924 20.4416 13.9686 20.1165 14.2514 19.793L14.3593 19.6723L14.7516 19.2409C14.763 19.2312 14.7744 19.2103 14.7744 19.2103L14.8464 19.1298L14.8839 19.0864C14.952 19.0128 15.0196 18.9388 15.0866 18.8642C15.1912 18.75 15.2958 18.6325 15.407 18.5214C15.407 18.5101 15.4233 18.494 15.4233 18.494L15.5999 18.3041C15.6432 18.2625 15.6852 18.2196 15.7257 18.1753C15.7306 18.1657 15.7355 18.1657 15.7355 18.1657C15.747 18.1593 15.747 18.1496 15.747 18.1496C15.7535 18.1415 15.7633 18.1319 15.7699 18.1206C15.7769 18.111 15.7845 18.1019 15.7927 18.0933C15.813 18.0784 15.831 18.0613 15.8467 18.0418C15.8567 18.0307 15.867 18.02 15.8777 18.0096C15.9448 17.9436 16.0248 17.8663 16.0968 17.789C16.1327 17.7424 16.1801 17.6973 16.2275 17.6506L16.2945 17.583C16.306 17.5669 16.337 17.5363 16.337 17.5363L16.4629 17.414L16.7081 17.1758L16.7898 17.0905L16.8813 16.9955C18.651 15.2484 20.5345 13.6297 22.5319 12.1394L22.7934 11.9511L22.795 11.9511L22.795 11.9495L22.7983 11.9479L23.0598 11.758C23.354 11.5423 23.645 11.3314 23.9425 11.1254C24.2579 10.9145 24.5767 10.7021 24.8905 10.4977C29.1762 7.68412 33.3736 5.99567 36.7996 5.66088C32.0696 2.85078 26.9754 1.86357 21.5168 2.69926C21.288 2.73467 21.069 2.77169 20.8336 2.81837C20.6849 2.84412 20.5557 2.86987 20.425 2.89563L20.3465 2.91172C19.1439 3.15659 17.9643 3.48226 16.8078 3.88874C13.6963 4.98598 10.9068 6.61701 8.43902 8.78185L8.4374 8.78185ZM8.8918 41.6301C9.34783 41.9746 9.87087 42.2321 10.456 42.4124L10.4446 42.4124C13.6973 43.391 18.8052 41.7943 24.2056 38.287C20.0866 39.4137 16.1066 38.8278 13.5289 36.2879C11.0984 33.8897 10.4299 30.2214 11.3501 26.3794C11.3975 26.1733 11.4482 25.9673 11.5119 25.7565C7.08892 32.3493 5.67669 38.514 8.47499 41.2696C8.5371 41.3307 8.60575 41.3919 8.67767 41.4547C8.74632 41.5158 8.81497 41.5722 8.8918 41.6301L8.8918 41.6301ZM46.9631 34.5963L46.9631 34.5995C45.544 37.1091 43.7433 39.3169 41.561 41.2229C38.2653 44.1072 34.4667 46.0258 30.1651 46.9787L30.1128 46.9916L29.9722 47.0238C29.8131 47.0657 29.6524 47.1 29.49 47.1268C29.3838 47.1494 29.2775 47.1703 29.1664 47.1864C28.9386 47.2303 28.7098 47.2678 28.4799 47.299L28.2887 47.3312L28.0713 47.3586C27.8964 47.3811 27.7198 47.4053 27.5351 47.423C22.4049 47.9924 17.6283 46.966 13.2053 44.3439C16.5038 44.0236 20.5198 42.4381 24.6388 39.8161L24.8741 39.6648L25.1095 39.5119L25.4299 39.2995L25.4315 39.2995L25.4315 39.2978L26.051 38.8842C26.3485 38.6782 26.646 38.4673 26.9336 38.2516C27.1167 38.1229 27.29 37.9989 27.4665 37.8701C29.4622 36.3769 31.3463 34.7577 33.1187 33.0124C33.1612 32.9706 33.2004 32.9271 33.238 32.8869L33.287 32.8322C33.3753 32.7517 33.4537 32.6728 33.5322 32.5956L33.6564 32.4732C33.6564 32.4732 33.6891 32.441 33.694 32.4249C33.7104 32.4121 33.7267 32.396 33.7414 32.3799C33.7478 32.3728 33.7543 32.3658 33.761 32.359L33.9032 32.2205L34.0127 32.1079C34.0487 32.0741 34.0863 32.037 34.1223 31.9984C34.1325 31.988 34.1423 31.9773 34.1517 31.9662C34.1675 31.9473 34.1855 31.9307 34.2056 31.9163C34.2145 31.9072 34.2226 31.8976 34.2301 31.8873C34.2372 31.8777 34.2448 31.8686 34.253 31.86C34.253 31.86 34.2694 31.8439 34.2792 31.8391C34.2942 31.8238 34.3089 31.8083 34.3233 31.7924L34.3674 31.7457L34.4099 31.7055C34.3625 31.7521 34.3217 31.802 34.2792 31.8535L34.3805 31.7489L34.3822 31.7457C34.4541 31.6717 34.5227 31.5992 34.593 31.53C34.593 31.53 34.593 31.5139 34.6093 31.5139C34.7058 31.4125 34.7973 31.3111 34.8889 31.2081L35.0736 31.0053C35.0969 30.9881 35.116 30.9672 35.1308 30.9425L35.2354 30.8186L35.2615 30.788C35.3907 30.6544 35.5116 30.5176 35.6358 30.3808L35.7633 30.2359C35.9676 30.0025 36.172 29.7627 36.3746 29.5261L36.6198 29.238L36.6966 29.1446C36.7947 29.0239 36.8911 28.9048 36.9876 28.7905C37.0693 28.6939 37.1494 28.5942 37.2279 28.4944C37.7505 27.8425 38.2572 27.1788 38.748 26.5033L46.9631 34.5947L46.9631 34.5963ZM46.9631 34.5963C46.9631 34.5914 46.9663 34.5866 46.9729 34.5834L46.9729 34.6091L46.9614 34.5995L46.9663 34.5995L46.9631 34.5947L46.9631 34.5963Z" fill="rgb(255,255,255)" fill-rule="evenodd" />
</svg>
