<svg width="50" height="50" viewBox="0 0 50 50" fill="none" xmlns="http://www.w3.org/2000/svg">
<path d="M4 34.7855C5.91625 39.2964 9.11261 43.1428 13.1915 45.8462C17.2704 48.5496 22.0517 49.9908 26.9409 49.9903C25.0254 45.4788 21.8292 41.6319 17.7502 38.9284C13.6711 36.2249 8.88935 34.7841 4 34.7855ZM26.9457 49.9976C30.5368 49.9985 34.0522 48.9621 37.0715 47.0123C40.0908 45.0625 42.4863 42.2818 43.9714 39.0027C40.3802 39.0027 36.8649 40.0397 33.8456 41.9899C30.8264 43.94 28.431 46.7184 26.9457 49.9976Z" fill="#12B36A"/>
<path fill-rule="evenodd" clip-rule="evenodd" d="M26.9385 37.4937C29.424 37.5426 31.8943 37.0938 34.2048 36.1737C36.5153 35.2536 38.6196 33.8805 40.3945 32.1349C42.1695 30.3893 43.5795 28.3062 44.542 26.0075C45.5045 23.7087 46.0002 21.2406 46 18.7474C45.9998 16.2543 45.5039 13.7862 44.5411 11.4876C43.5783 9.18896 42.168 7.10602 40.3928 5.36064C38.6176 3.61526 36.5131 2.24249 34.2025 1.32266C31.8919 0.402828 29.4216 -0.045585 26.936 0.00365757C22.0426 0.100606 17.3822 2.11828 13.9558 5.62335C10.5294 9.12842 8.61026 13.8413 8.61057 18.7498C8.61089 23.6584 10.5306 28.371 13.9575 31.8756C17.3843 35.3803 22.045 37.3973 26.9385 37.4937ZM26.9385 28.1218C28.166 28.1218 29.3815 27.8793 30.5155 27.4082C31.6496 26.9371 32.6801 26.2466 33.548 25.3761C34.416 24.5056 35.1045 23.4722 35.5743 22.3348C36.044 21.1975 36.2858 19.9785 36.2858 18.7474C36.2858 17.5164 36.044 16.2974 35.5743 15.16C35.1045 14.0227 34.416 12.9893 33.548 12.1188C32.6801 11.2483 31.6496 10.5578 30.5155 10.0867C29.3815 9.6156 28.166 9.37313 26.9385 9.37313C24.4594 9.37313 22.0819 10.3608 20.3289 12.1188C18.5759 13.8768 17.5911 16.2612 17.5911 18.7474C17.5911 21.2337 18.5759 23.6181 20.3289 25.3761C22.0819 27.1341 24.4594 28.1218 26.9385 28.1218Z" fill="#FEBE10"/>
</svg>
