<svg width="50.000000" height="50.000000" viewBox="0 0 50 50" fill="none" xmlns="http://www.w3.org/2000/svg" xmlns:xlink="http://www.w3.org/1999/xlink">
	<desc>
			Created with Pixso.
	</desc>
	<defs/>
	<rect id="rect" width="50.000004" height="50.000004" fill="#0077FF" fill-opacity="1.000000"/>
	<path id="path" d="M25 6.11C35.4 6.11 43.88 14.59 43.88 25C43.88 31.48 40.86 34.54 37.03 34.54C34.81 34.54 32.88 33.38 31.78 31.65C30.05 33.41 27.66 34.51 25 34.51C19.74 34.51 15.48 30.25 15.48 25C15.48 19.74 19.74 15.48 25 15.48C30.25 15.48 34.51 19.74 34.51 25L34.51 28.09C34.51 29.65 35.6 30.75 37.03 30.75C38.73 30.75 40.13 29.32 40.13 25C40.13 16.65 33.34 9.86 25 9.86C16.65 9.86 9.86 16.65 9.86 25C9.86 33.34 16.65 40.13 25 40.13C29.82 40.13 33.14 37.73 33.14 37.73L35.64 40.59C35.64 40.59 31.38 43.88 25 43.88C14.59 43.88 6.11 35.4 6.11 25C6.11 14.59 14.59 6.11 25 6.11ZM19.24 25C19.24 28.15 21.8 30.75 25 30.75C28.15 30.75 30.75 28.15 30.75 25C30.75 21.8 28.15 19.24 25 19.24C21.8 19.24 19.24 21.8 19.24 25Z" fill="#FFFFFF" fill-opacity="1.000000" fill-rule="nonzero"/>
</svg>
