<svg width="50" height="50" viewBox="0 0 50 50" fill="none" xmlns="http://www.w3.org/2000/svg">
<path d="M14.4714 49.883C14.4483 49.8728 14.4272 49.8587 14.4089 49.8413C14.3727 49.8155 14.341 49.7838 14.3152 49.7476C14.3568 49.7997 14.4089 49.8413 14.4714 49.883Z" fill="#1D2943"/>
<path d="M34.0514 3.25087C34.041 2.76132 33.8641 2.42801 33.5624 2.2926C33.5832 2.2926 33.604 2.30302 33.6248 2.31343L29.9106 0.105256C29.6401 -0.0613992 29.276 -0.0301513 28.8703 0.198999L11.7246 10.115C10.9131 10.5837 10.2681 11.7086 10.2681 12.6356L10.3513 46.7478C10.3617 47.2061 10.5177 47.529 10.7882 47.6852L14.4088 49.8413C14.3726 49.8155 14.3409 49.7838 14.3152 49.7476C14.3568 49.7996 14.4088 49.8413 14.4712 49.883C14.7313 50.06 15.1059 50.0392 15.5324 49.7997L32.6781 39.8837C33.4896 39.415 34.145 38.29 34.1346 37.363L34.0514 3.25087ZM32.5845 2.41759C32.8966 2.23011 33.1775 2.17803 33.4168 2.24052C33.1775 2.17803 32.8862 2.24052 32.5845 2.41759Z" fill="#4C5C75"/>
<path d="M14.4714 49.883C14.4483 49.8728 14.4272 49.8587 14.4089 49.8413C14.3727 49.8155 14.341 49.7838 14.3152 49.7476C14.3568 49.7997 14.4089 49.8413 14.4714 49.883Z" fill="#4C5C75"/>
<path d="M14.4714 49.883C14.4483 49.8728 14.4272 49.8587 14.4089 49.8413C14.3727 49.8155 14.341 49.7838 14.3152 49.7476C14.3568 49.7997 14.4089 49.8413 14.4714 49.883Z" fill="#1D2943"/>
<path d="M34.0514 3.25087C34.041 2.76132 33.8641 2.42801 33.5624 2.2926C33.5832 2.2926 33.604 2.30302 33.6248 2.31343L29.9106 0.105256C29.6401 -0.0613992 29.276 -0.0301513 28.8703 0.198999L11.7246 10.115C10.9131 10.5837 10.2681 11.7086 10.2681 12.6356L10.3513 46.7478C10.3617 47.2061 10.5177 47.529 10.7882 47.6852L14.4088 49.8413C14.3726 49.8155 14.3409 49.7838 14.3152 49.7476C14.3568 49.7996 14.4088 49.8413 14.4712 49.883C14.7313 50.06 15.1059 50.0392 15.5324 49.7997L32.6781 39.8837C33.4896 39.415 34.145 38.29 34.1346 37.363L34.0514 3.25087ZM32.5845 2.41759C32.8966 2.23011 33.1775 2.17803 33.4168 2.24052C33.1775 2.17803 32.8862 2.24052 32.5845 2.41759Z" fill="#1D2943"/>
<path d="M14.4714 49.883C14.4483 49.8728 14.4272 49.8587 14.4089 49.8413C14.3727 49.8155 14.341 49.7838 14.3152 49.7476C14.3568 49.7997 14.4089 49.8413 14.4714 49.883Z" fill="#4C5C75"/>
<path d="M33.6249 2.31031C33.3523 2.16032 32.9913 2.17803 32.5772 2.41551L15.4346 12.3242C14.6242 12.7908 13.9729 13.9199 13.9812 14.8542L14.0697 48.9622C14.0697 49.4205 14.2278 49.7465 14.492 49.8965L10.7841 47.6883C10.5198 47.529 10.3617 47.203 10.3523 46.7447L10.2649 12.6367C10.2649 11.7107 10.9162 10.5826 11.7267 10.116L28.8692 0.199C29.275 -0.0301504 29.6443 -0.057232 29.9086 0.102132L33.6249 2.31031Z" fill="#1D2943"/>
<path d="M32.5803 2.41759C33.3908 1.94887 34.0441 2.32281 34.0473 3.25399L34.1378 37.3589C34.1409 38.2901 33.4906 39.4171 32.6812 39.8847L15.5356 49.7955C14.7261 50.2642 14.0717 49.8903 14.0686 48.9591L13.9781 14.8542C13.975 13.922 14.6252 12.795 15.4346 12.3273L32.5803 2.41759Z" fill="#4C5C75"/>
<path d="M33.1338 37.3651C33.1338 37.9422 32.6927 38.7296 32.1787 39.0233L16.1775 48.2727C16.0649 48.337 15.9374 48.3708 15.8078 48.3705C15.6781 48.3703 15.5508 48.3361 15.4385 48.2713C15.3261 48.2065 15.2327 48.1135 15.1674 48.0013C15.1021 47.8892 15.0673 47.7619 15.0663 47.6321L14.9831 14.6459L33.0589 4.2008L33.1338 37.3651Z" fill="white"/>
<path d="M13.0355 17.5415L13.0251 21.6142C13.0251 21.8433 12.9419 22.0204 12.7962 22.0933L12.2552 22.4162C12.1199 22.4995 11.9223 22.4891 11.7142 22.3641C11.298 22.1245 10.9547 21.5308 10.9547 21.0517L10.9651 16.9895C10.9755 16.7395 11.0692 16.5624 11.2252 16.4895C11.2044 16.4895 11.194 16.4895 11.1836 16.4999L11.7454 16.177C11.8807 16.1041 12.0679 16.1145 12.2864 16.2395C12.7026 16.4791 13.0355 17.0624 13.0355 17.5415ZM13.0147 25.5305V27.9679C13.0043 28.2074 12.9315 28.3741 12.7858 28.4574L12.2344 28.7803C12.0991 28.8636 11.9119 28.8532 11.7038 28.7282C11.2772 28.4782 10.9443 27.895 10.9443 27.4158V24.9785C10.9443 24.7389 11.0275 24.5619 11.1732 24.4889C11.1836 24.4785 11.2044 24.4785 11.2148 24.4681C11.2148 24.4577 11.2252 24.4577 11.2356 24.4577L11.7246 24.1661C11.8599 24.0827 12.0471 24.0931 12.2656 24.2181C12.6714 24.4577 13.0251 25.0514 13.0147 25.5305Z" fill="#9EA9C9"/>
<path d="M13.0147 25.5305V27.9679C13.0043 28.2074 12.9315 28.3741 12.7858 28.4574L12.2344 28.7803C12.0991 28.8636 11.9119 28.8532 11.7038 28.7282C11.2772 28.4782 10.9443 27.895 10.9443 27.4158V24.9785C10.9443 24.7389 11.0275 24.5619 11.1732 24.4889C11.1836 24.4785 11.2044 24.4785 11.2148 24.4681C11.2148 24.4577 11.2252 24.4577 11.2356 24.4577L11.7246 24.1661C11.8599 24.0827 12.0471 24.0931 12.2656 24.2181C12.6714 24.4577 13.0251 25.0514 13.0147 25.5305ZM13.0355 17.5415L13.0251 21.6142C13.0251 21.8433 12.9419 22.0204 12.7962 22.0933L12.2552 22.4162C12.1199 22.4995 11.9223 22.4891 11.7142 22.3641C11.298 22.1245 10.9547 21.5308 10.9547 21.0517L10.9651 16.9895C10.9755 16.7395 11.0692 16.5624 11.2252 16.4895C11.2044 16.4895 11.194 16.4895 11.1836 16.4999L11.7454 16.177C11.8807 16.1041 12.0679 16.1145 12.2864 16.2395C12.7026 16.4791 13.0355 17.0624 13.0355 17.5415Z" fill="#9EA9C9"/>
<path d="M13.0355 17.5446L13.0282 21.6079C13.0282 21.8433 12.9419 22.0162 12.8014 22.0954L12.2531 22.4162C12.3863 22.3381 12.4716 22.1662 12.4716 21.9225L12.4883 17.8665C12.4883 17.3874 12.1512 16.7999 11.736 16.5572C11.5165 16.4322 11.3282 16.4228 11.1867 16.502L11.7433 16.1802C11.8765 16.102 12.0721 16.1177 12.2843 16.2354C12.6995 16.4781 13.0365 17.0666 13.0365 17.5446H13.0355Z" fill="#9EA9C9"/>
<path d="M11.7319 16.5572C12.148 16.7968 12.4862 17.3853 12.4851 17.8634L12.4737 21.9256C12.4716 22.4099 12.1304 22.6047 11.7152 22.3641C11.2949 22.1214 10.9558 21.5339 10.9578 21.0496L10.9682 16.9874C10.9703 16.5093 11.3116 16.3145 11.7319 16.5572Z" fill="#F3F1FC"/>
<path d="M13.0126 25.5285V27.9679C13.0053 28.2116 12.9263 28.3762 12.7858 28.4543L12.2375 28.7761C12.3707 28.698 12.456 28.5251 12.456 28.2897L12.4643 25.8503C12.4643 25.3712 12.1272 24.7837 11.7121 24.54C11.5009 24.415 11.3043 24.4067 11.1711 24.4848L11.7194 24.164C11.8609 24.0848 12.0492 24.0931 12.2604 24.2181C12.6766 24.4619 13.0199 25.0504 13.0126 25.5285Z" fill="#9EA9C9"/>
<path d="M11.7111 24.54C12.1262 24.7795 12.4654 25.368 12.4633 25.8513L12.457 28.2918C12.455 28.7688 12.1137 28.9636 11.6986 28.7241C11.2783 28.4803 10.9391 27.8929 10.9412 27.4148L10.9485 24.9754C10.9485 24.4921 11.2908 24.2973 11.7111 24.54Z" fill="#F3F1FC"/>
<path d="M11.7267 10.116L28.8692 0.198999Z" fill="#1D2943"/>
<path d="M39.94 8.18801V10.0108C39.94 11.1566 39.1389 12.5523 38.1402 13.1252C37.6408 13.4168 37.183 13.4376 36.8501 13.2502L36.3715 12.9793C36.3082 12.9491 36.2543 12.9024 36.2154 12.8439C35.9761 13.7918 35.3103 14.75 34.53 15.2084C34.0202 15.5 33.552 15.5208 33.2295 15.3333L33.1359 15.2708L32.7613 15.0521C32.6989 15.0209 32.6469 14.9688 32.5949 14.9167C32.366 15.875 31.7001 16.8437 30.9094 17.2915C30.41 17.5832 29.9523 17.604 29.6297 17.4165C29.5937 17.398 29.559 17.3772 29.5257 17.354L29.1512 17.1353C29.0866 17.1027 29.0298 17.0565 28.9847 16.9999C28.7558 17.9582 28.0796 18.9268 27.2993 19.3747C26.7895 19.6664 26.3213 19.6872 25.9988 19.4997L25.9051 19.4372L25.5306 19.2185C25.4683 19.1824 25.4121 19.1367 25.3641 19.0831C25.1353 20.0309 24.4694 20.9996 23.6787 21.4579C23.1585 21.76 22.6903 21.7704 22.3574 21.5516L21.9204 21.3017C21.5875 21.1142 21.3898 20.708 21.3898 20.1455L21.3794 18.8748L14.981 15.1667V14.6146C15.0851 14.5532 34.2772 3.49251 33.0526 4.19871L39.4615 7.9172L39.94 8.18801Z" fill="#F45170"/>
<path d="M29.4425 6.2819L29.4446 6.83394L35.8482 10.5472L35.8471 9.99518L29.4425 6.2819Z" fill="#AFB2B9"/>
<path d="M39.4614 7.9172V8.46925L35.8513 10.5524V10.0004L29.4425 6.2819L33.0526 4.19872L39.4614 7.9172Z" fill="#F45170"/>
<path d="M35.8471 9.99518L35.8482 10.5472L39.4614 8.46612L39.4604 7.91408L35.8471 9.99518Z" fill="#7A7C81"/>
<path d="M29.4425 6.2819L35.8471 9.99518L39.4604 7.91408L33.0568 4.2008L29.4425 6.2819Z" fill="#F45170"/>
<path d="M25.8261 8.36509L25.8271 8.91817L32.2307 12.6304L32.2297 12.0784L25.8261 8.36509Z" fill="#3B475A"/>
<path d="M32.2297 12.0784L32.2307 12.6304L35.8482 10.5472L35.8471 9.99518L32.2297 12.0784Z" fill="#29313F"/>
<path d="M25.8261 8.36508L32.2297 12.0784L35.8471 9.99518L29.4435 6.2819L25.8261 8.36508Z" fill="#FFD06C"/>
<path d="M22.2117 10.4472L22.2138 10.9993L28.6174 14.7115L28.6164 14.1595L22.2117 10.4472Z" fill="#AFB2B9"/>
<path d="M28.6164 14.1595L28.6174 14.7115L32.2307 12.6304L32.2297 12.0784L28.6164 14.1595Z" fill="#7A7C81"/>
<path d="M22.2117 10.4472L28.6164 14.1595L32.2297 12.0784L25.8261 8.36613L22.2117 10.4472Z" fill="#F45170"/>
<path d="M18.5995 12.5283L18.6006 13.0804L25.0042 16.7926L25.0031 16.2406L18.5995 12.5283Z" fill="#3B475A"/>
<path d="M25.0031 16.2406L25.0042 16.7926L28.6174 14.7115L28.6164 14.1595L25.0031 16.2406Z" fill="#29313F"/>
<path d="M18.5995 12.5283L25.0031 16.2406L28.6164 14.1595L22.2128 10.4472L18.5995 12.5283Z" fill="#FFD06C"/>
<path d="M25 16.2395V16.7916L21.3898 18.8748L14.981 15.1667V14.6146L18.6016 12.5315L25 16.2395Z" fill="#CC104A"/>
<path d="M14.981 14.6115L14.9831 15.1636L21.3867 18.8768L21.3857 18.3248L14.981 14.6115ZM21.3857 18.3248L21.3867 18.8768L25.0042 16.7926L25.0031 16.2406L21.3857 18.3248Z" fill="#DF3260"/>
<path d="M14.981 14.6115L21.3857 18.3238L25.0031 16.2406L18.5995 12.5283L14.981 14.6115Z" fill="#F45170"/>
<path d="M36.8521 13.2512L36.3736 12.9741C36.0479 12.7856 35.8471 12.3856 35.845 11.818L36.3236 12.095C36.3257 12.6627 36.5275 13.0637 36.8521 13.2512Z" fill="#DF3260"/>
<path d="M36.3242 12.094L35.8451 11.8169L35.8398 9.99726L36.319 10.2754L36.3242 12.094Z" fill="#8FABFE"/>
<path d="M36.3195 10.2754L35.8409 9.99726L39.4573 7.91408L39.9359 8.19114L36.3195 10.2754Z" fill="#E93565"/>
<path d="M39.9359 8.19114L39.9411 10.0108C39.9452 11.1545 39.1358 12.5523 38.1391 13.1262C37.1403 13.7012 36.3267 13.2387 36.3236 12.095L36.3184 10.2754L39.9359 8.19114Z" fill="#CC104A"/>
<path d="M33.2389 15.3333L32.7603 15.0552C32.4346 14.8667 32.2338 14.4667 32.2318 13.8991L32.7103 14.1761C32.7124 14.7438 32.9143 15.1459 33.2389 15.3333Z" fill="#FEBC1F"/>
<path d="M32.7109 14.1761L32.2318 13.898L32.2266 12.0784L32.7057 12.3565L32.7109 14.1761Z" fill="#FFD06C"/>
<path d="M32.7051 12.3565L32.2266 12.0784L35.8398 9.99726L36.3184 10.2754L32.7051 12.3565Z" fill="#FEBC1F"/>
<path d="M36.3195 10.2754L36.3236 12.095C36.3267 13.2387 35.5225 14.6334 34.5258 15.2073C33.527 15.7823 32.7135 15.3198 32.7103 14.1761L32.7051 12.3565L36.3195 10.2754Z" fill="#F9A83D"/>
<path d="M29.6256 17.4165L29.147 17.1384C28.8214 16.9509 28.6206 16.5489 28.6185 15.9791L29.0971 16.2572C29.0991 16.8259 29.301 17.228 29.6256 17.4165Z" fill="#DF3260"/>
<path d="M29.0976 16.2572L28.6185 15.9791L28.6133 14.1595L29.0924 14.4376L29.0976 16.2572Z" fill="#8FABFE"/>
<path d="M29.0919 14.4376L28.6133 14.1595L32.2266 12.0784L32.7051 12.3565L29.0919 14.4376Z" fill="#E93565"/>
<path d="M32.7052 12.3565L32.7104 14.1761C32.7135 15.3198 31.9051 16.7166 30.9074 17.2905C29.9096 17.8655 29.1002 17.4009 29.0971 16.2572L29.0919 14.4376L32.7052 12.3565Z" fill="#CC104A"/>
<path d="M26.0092 19.4997L25.5264 19.2216C25.207 19.031 25.0031 18.631 25.0031 18.0623L24.9958 16.2458L25.4723 16.5239L25.4786 18.3404C25.4786 18.9091 25.6825 19.3101 26.0092 19.4997Z" fill="#FEBC1F"/>
<path d="M21.8611 18.6019L21.3826 18.3238L24.9958 16.2427L25.4744 16.5208L21.8611 18.6019Z" fill="#E93565"/>
<path d="M29.0919 14.4376L29.0971 16.2572C29.1002 17.4009 28.2918 18.7977 27.2941 19.3716C26.2963 19.9466 25.4838 19.4841 25.4796 18.3404L25.4744 16.5208L29.0919 14.4376Z" fill="#F9A83D"/>
<path d="M25.4744 16.5208L24.9958 16.2427L28.6133 14.1595L29.0919 14.4376L25.4744 16.5208Z" fill="#FEBC1F"/>
<path d="M22.3938 21.5798L21.9184 21.3017C21.5927 21.1121 21.3878 20.7121 21.3878 20.1434L21.3815 18.3269L21.8643 18.6039V20.4205C21.8715 20.9902 22.0671 21.3892 22.3938 21.5798Z" fill="#DF3260"/>
<path d="M25.4744 16.5208L25.4796 18.3404C25.4827 19.4841 24.6785 20.8788 23.6808 21.4537C22.683 22.0277 21.8705 21.5652 21.8663 20.4226L21.8611 18.6019L25.4744 16.5208Z" fill="#CC104A"/>
<path d="M14.9987 22.01L14.9831 15.1636L21.3867 18.8768V20.3226L14.9987 22.01Z" fill="#E93565"/>
<path d="M22.5551 38.338C22.6893 38.4421 22.7704 38.6327 22.7715 38.8921C22.7736 39.4681 22.372 40.167 21.8684 40.4586C21.368 40.7472 20.9612 40.5159 20.9591 39.9399C20.9591 39.6795 21.0392 39.3962 21.1734 39.1358L22.5551 38.338ZM28.7735 34.7434C28.9088 34.8476 28.9899 35.0382 28.9909 35.2976C28.992 35.8725 28.5914 36.5725 28.0879 36.8631C27.5875 37.1526 27.1796 36.9204 27.1786 36.3444C27.1786 36.085 27.2587 35.8017 27.3929 35.5413L28.7735 34.7434Z" fill="#4C5C75"/>
<path d="M30.1759 24.3827C30.4517 24.2233 30.6681 24.3702 30.641 24.7046L30.1166 30.9208C30.0917 31.2072 29.894 31.527 29.6547 31.6655L20.5596 36.9224C20.5596 36.9047 20.5586 36.8881 20.5554 36.8704L19.6659 30.4583L30.1759 24.3827ZM22.9379 33.6581L22.9296 30.4583C22.9286 30.2562 22.784 30.174 22.6092 30.275C22.5154 30.3349 22.4372 30.4163 22.3811 30.5125C22.3251 30.6087 22.2927 30.7169 22.2867 30.8281L22.2971 34.0289C22.2971 34.2372 22.4386 34.3174 22.6196 34.2133C22.7129 34.1527 22.7904 34.0707 22.8458 33.9742C22.9011 33.8776 22.9327 33.7693 22.9379 33.6581ZM25.3256 32.278L25.3163 29.0782C25.3163 28.8761 25.1717 28.7938 24.9969 28.8949C24.9032 28.9552 24.8252 29.0369 24.7692 29.1332C24.7131 29.2295 24.6806 29.3377 24.6744 29.449L24.6848 32.6488C24.6848 32.8571 24.8294 32.9363 25.0073 32.8331C25.1006 32.7726 25.1781 32.6906 25.2335 32.5941C25.2888 32.4975 25.3204 32.3892 25.3256 32.278ZM27.7165 30.8958L27.7071 27.696C27.7071 27.4939 27.5614 27.4117 27.3867 27.5127C27.294 27.5732 27.2169 27.6547 27.1616 27.7506C27.1063 27.8465 27.0743 27.9542 27.0683 28.0647L27.0777 31.2655C27.0777 31.4739 27.2233 31.553 27.3981 31.451C27.4914 31.3904 27.5689 31.3084 27.6243 31.2119C27.6796 31.1153 27.7112 31.007 27.7165 30.8958Z" fill="#B28AFD"/>
<path d="M30.8137 32.9019C30.7357 32.8561 30.6327 32.8623 30.5276 32.9227L20.1944 38.8963C20.1008 38.9504 20.028 38.9473 19.9864 38.8838C19.977 38.8733 19.9104 38.7723 19.9968 38.5588L20.5669 37.1693C20.5996 37.091 20.6172 37.0073 20.6189 36.9224C20.6194 36.9026 20.6183 36.8827 20.6158 36.8631L19.7252 30.4489L19.719 30.4C19.7154 30.3638 19.7056 30.3286 19.6898 30.2958L19.1707 29.274C19.1455 29.2183 19.1088 29.1686 19.0631 29.128C19.0174 29.0875 18.9636 29.057 18.9054 29.0386C18.7566 28.9917 18.5808 29.0251 18.406 29.1272L17.1835 29.8334C17.0813 29.8987 16.9963 29.9877 16.9356 30.0928C16.875 30.198 16.8405 30.3162 16.835 30.4375C16.835 30.5593 16.8787 30.651 16.9599 30.6968C17.0379 30.7437 17.1409 30.7343 17.246 30.6739L18.4799 29.9636L18.973 30.9458L19.8428 37.213L19.3434 38.4348C19.1457 38.9108 19.1405 39.3598 19.3257 39.6358C19.437 39.7993 19.5962 39.8806 19.7856 39.8806C19.9525 39.8746 20.115 39.8251 20.2569 39.7368L30.59 33.7633C30.6922 33.6979 30.7773 33.6089 30.8379 33.5038C30.8986 33.3987 30.9331 33.2805 30.9386 33.1592C30.9386 33.0394 30.8938 32.9477 30.8137 32.9019Z" fill="#E3E7F0"/>
<path d="M42 14.5209V19.2602C42 19.7289 41.6671 20.2913 41.2717 20.5309L35.4351 23.8536L34.0202 27.2179L33.0214 26.6555L33.0942 25.1972L32.9486 25.2806C32.7509 25.3951 32.5741 25.4055 32.4388 25.3326L31.4296 24.7598C31.3048 24.6868 31.2215 24.5202 31.2215 24.291V19.5518C31.2215 19.0727 31.5441 18.5102 31.9498 18.2915L40.2625 13.5418C40.4706 13.4272 40.6579 13.4168 40.7931 13.4897L41.7399 14.0418C41.896 14.1043 41.9896 14.2709 42 14.5209Z" fill="#497BFE"/>
<path d="M42 14.5209V19.2602C42 19.7289 41.6671 20.2913 41.2717 20.5309L35.4351 23.8536L34.0202 27.2179L33.0214 26.6555L33.0942 25.1972L32.9486 25.2806C32.7509 25.3951 32.5741 25.4055 32.4388 25.3326L31.4296 24.7598C31.3048 24.6868 31.2215 24.5202 31.2215 24.291V19.5518C31.2215 19.0727 31.5441 18.5102 31.9498 18.2915L40.2625 13.5418C40.4706 13.4272 40.6579 13.4168 40.7931 13.4897L41.7399 14.0418C41.896 14.1043 41.9896 14.2709 42 14.5209Z" fill="#57B3FE"/>
<path d="M34.0192 27.2148L33.0225 26.6534L33.1598 24.0244L34.1565 24.5869L34.0192 27.2148Z" fill="#497BFE"/>
<path d="M41.7774 14.0584C41.6442 13.9751 41.4684 13.9855 41.2624 14.1001L32.9496 18.8435C32.547 19.081 32.2172 19.6382 32.2172 20.1038V24.8535C32.2172 25.0899 32.3004 25.2451 32.4336 25.3274L31.4348 24.7598C31.2996 24.6868 31.2174 24.5223 31.2174 24.2952V19.5455C31.2174 19.0716 31.5472 18.5144 31.9498 18.2863L40.2625 13.5418C40.4685 13.4283 40.6548 13.4189 40.789 13.4897L41.7774 14.0584Z" fill="#5094FF"/>
<path d="M32.9465 18.8435L41.2624 14.1043C41.664 13.872 41.9938 14.0605 41.9958 14.5219V19.2643C41.9969 19.7257 41.6692 20.2955 41.2676 20.5278L35.4341 23.8484L34.0192 27.2148L34.1565 24.5869L32.9517 25.2743C32.5501 25.5076 32.2193 25.3191 32.2182 24.8577V20.108C32.2162 19.6382 32.5449 19.0758 32.9465 18.8435Z" fill="#57B3FE"/>
<path d="M34.1409 19.8257L34.4457 20.7215L35.4258 20.1549L34.633 21.2767L34.9409 22.1745L34.1471 21.9662L33.3564 23.089L33.6561 21.8402L32.8622 21.6371L33.8423 21.0704L34.1409 19.8257ZM37.1039 18.1394L37.4088 19.0352L38.3888 18.4685L37.595 19.5903L37.904 20.4882L37.1102 20.2799L36.3195 21.4027L36.6191 20.1538L35.8253 19.9507L36.8053 19.3841L37.1039 18.1394ZM40.0659 16.4531L40.3708 17.3488L41.3508 16.7822L40.558 17.903L40.866 18.8008L40.0722 18.5925L39.2825 19.7174L39.5811 18.4675L38.7873 18.2633L39.7673 17.6978L40.0659 16.4531Z" fill="white"/>
<path d="M18.1231 34.6445C18.1231 34.6341 18.1126 34.6445 18.1126 34.6445C18.1022 34.6341 18.0918 34.6341 18.0814 34.6236L18.1231 34.6445Z" fill="#78E75A"/>
<path d="M18.3623 40.5086C18.3623 40.9044 18.0814 41.394 17.7381 41.5919L17.2387 41.8731L17.4884 43.6647L16.3335 42.9876L15.8966 42.6543L9.5814 46.2582C9.36291 46.3832 9.17564 46.3624 9.0612 46.2374C9.08201 46.2582 9.10282 46.2791 9.13403 46.2999L8.19767 45.7374C8.08323 45.6749 8.02081 45.5395 8.0104 45.3416L8 39.8941C8 39.4983 8.2705 39.0087 8.62424 38.8108L16.7809 34.1445C16.9474 34.0403 17.1034 34.0404 17.2179 34.1028L18.0814 34.6236C18.0502 34.6132 18.019 34.6132 17.9878 34.6132C18.0294 34.6132 18.071 34.6236 18.1126 34.6445C18.1126 34.6445 18.123 34.6341 18.123 34.6445C18.2583 34.6966 18.3415 34.8424 18.3415 35.0611L18.3623 40.5086Z" fill="#78E75A"/>
<path d="M18.3623 40.5086C18.3623 40.9044 18.0814 41.394 17.7381 41.5919L17.2387 41.8731L17.4884 43.6647L16.3335 42.9876L15.8966 42.6543L9.5814 46.2582C9.36291 46.3832 9.17564 46.3624 9.0612 46.2374C9.08201 46.2582 9.10282 46.2791 9.13403 46.2999L8.19767 45.7374C8.08323 45.6749 8.02081 45.5395 8.0104 45.3416L8 39.8941C8 39.4983 8.2705 39.0087 8.62424 38.8108L16.7809 34.1445C16.9474 34.0403 17.1034 34.0404 17.2179 34.1028L18.0814 34.6236L18.123 34.6445C18.2583 34.6966 18.3415 34.8424 18.3415 35.0611L18.3623 40.5086Z" fill="#78E75A"/>
<path d="M17.4842 43.6678L16.3315 42.9845L14.8863 41.8877L16.0391 42.571L17.4842 43.6678ZM18.1625 34.6622C18.0481 34.5914 17.8889 34.5997 17.7121 34.6976L9.56371 39.3639C9.2183 39.5597 8.93531 40.0555 8.93531 40.4451L8.953 45.8989C8.953 46.0937 9.02374 46.2353 9.13923 46.2968L8.19559 45.7406C8.08115 45.6781 8.01872 45.5364 8.0104 45.3416L8.00104 39.8889C8.00104 39.4993 8.2757 39.0035 8.62007 38.8088L16.7767 34.1403C16.9453 34.0435 17.1045 34.0341 17.2199 34.1049L18.1625 34.6622Z" fill="#5EC363"/>
<path d="M17.7131 34.6997C18.0575 34.5018 18.3415 34.6622 18.3425 35.059L18.3581 40.5086C18.3581 40.9044 18.0772 41.3919 17.7339 41.5919L17.2418 41.8752L17.4842 43.6668L16.0391 42.571L9.58244 46.2562C9.23703 46.4541 8.95404 46.2936 8.953 45.8968L8.93739 40.4472C8.93739 40.0514 9.2183 39.5639 9.56163 39.3639L17.7131 34.6997Z" fill="#78E75A"/>
<path d="M14.0967 37.2735C14.2132 37.213 14.3703 37.2016 14.4941 37.4516C14.5035 37.4724 14.6741 37.8682 14.336 39.0671C14.3227 39.1131 14.3098 39.1593 14.2975 39.2056L15.8154 38.3286C15.9871 38.2286 16.1307 38.3078 16.1317 38.5057C16.1273 38.6384 16.0882 38.7677 16.0183 38.8806C15.9543 38.9967 15.8615 39.0942 15.7488 39.1639C15.96 39.0421 16.1338 39.141 16.1338 39.3806C16.1291 39.5158 16.0905 39.6476 16.0214 39.7639C15.9559 39.8812 15.8622 39.9804 15.7488 40.0524C15.9632 39.9285 16.1359 40.0274 16.1369 40.2743C16.1369 40.3857 16.0953 40.5118 16.0329 40.6222C15.9725 40.7283 15.8867 40.8178 15.7832 40.8826L15.5397 41.0232C15.7343 40.9107 15.8935 41.0024 15.8955 41.2263C15.8955 41.3419 15.8539 41.4669 15.7915 41.5773C15.7311 41.6835 15.6453 41.773 15.5418 41.8377L13.357 43.1012C13.1333 43.2303 12.9159 43.2699 12.7369 43.2157L12.6454 43.1866L12.6381 40.5024C12.7015 40.4399 13.923 39.2348 13.9511 37.5234C13.9547 37.4734 13.9697 37.4249 13.995 37.3816C14.0202 37.3382 14.055 37.3013 14.0967 37.2735Z" fill="white"/>
<path d="M12.4737 40.4097C12.5621 40.3587 12.637 40.4014 12.6381 40.5024L12.6454 43.3251C12.6454 43.4293 12.5715 43.5553 12.4841 43.6063L11.3293 44.273C11.2387 44.325 11.167 44.2844 11.167 44.1792L11.1586 41.3565C11.1586 41.2565 11.2294 41.1284 11.3209 41.0753L12.4737 40.4097ZM11.9036 43.4543C11.9757 43.408 12.0358 43.345 12.0787 43.2707C12.1216 43.1964 12.1461 43.1129 12.1501 43.0272C12.1501 42.871 12.0419 42.8054 11.9025 42.8856C11.8306 42.9322 11.7708 42.9952 11.728 43.0694C11.6851 43.1436 11.6604 43.227 11.6559 43.3126C11.6559 43.4699 11.7673 43.5334 11.9036 43.4543Z" fill="#4C5C75"/>
<path d="M11.9017 42.8856C12.0424 42.8054 12.1496 42.8699 12.1507 43.0272C12.1507 43.1845 12.0444 43.3741 11.9038 43.4543C11.7674 43.5334 11.6559 43.4699 11.6559 43.3126C11.6559 43.1564 11.7653 42.9647 11.9028 42.8856H11.9017Z" fill="white"/>
</svg>
