<svg width="50" height="50" viewBox="0 0 50 50" fill="none" xmlns="http://www.w3.org/2000/svg">
<path d="M50 9.03862V34.4106C50 37.1889 47.3418 39.4493 44.0765 39.4493H32.3305L24.9982 46L17.6678 39.4493H5.92347C2.65645 39.4475 0 37.1889 0 34.4089V9.03862C0 6.26041 2.65645 4 5.92347 4H44.0748C47.3418 4 49.9965 6.25869 50 9.03862ZM37.0275 19.6595C37.0275 16.157 34.1073 13.3169 30.5023 13.3169C28.1874 13.3169 26.1574 14.4918 25 16.2602C23.8408 14.4918 21.8126 13.3169 19.4977 13.3169C15.8927 13.3169 12.9725 16.157 12.9725 19.6595C12.9725 21.3298 13.6397 22.8437 14.7246 23.9773L24.531 32.8194L34.7002 24.5089C36.1213 23.346 37.0257 21.6068 37.0275 19.6595Z" fill="#3498DB"/>
</svg>
