<svg width="50" height="50" viewBox="0 0 50 50" fill="none" xmlns="http://www.w3.org/2000/svg">
<path d="M46.7578 42H3.24216C1.45505 42 0 40.5443 0 38.7466V11.2534C0 9.46548 1.45505 8.00976 3.24216 8.00976H46.748C48.5449 8.00976 49.9999 9.46548 49.9999 11.2534V38.7466C50 40.5443 48.545 42 46.7578 42Z" fill="#505278"/>
<path d="M46.7578 8.00976H25V42H46.7578C48.5546 42 49.9999 40.5443 49.9999 38.7563V11.2534C50 9.46548 48.545 8.00976 46.7578 8.00976Z" fill="#424566"/>
<path d="M26.084 8.00976C25.7519 18.0437 17.4902 26.0942 7.3828 26.0942C4.76559 26.0942 2.26563 25.5569 0 24.5701V20.2029C2.17773 21.4632 4.69729 22.1765 7.3828 22.1765C15.332 22.1765 21.8359 15.8747 22.1679 8H26.0839V8.00976H26.084Z" fill="#575982"/>
<path d="M25 8.00976V13.6862C25.6348 11.8983 26.0156 9.9931 26.0839 8.00976H25ZM50 27.8822V31.8489C47.6562 31.3994 45.3711 31.204 43.1055 31.4288C39.0137 31.8391 35.2148 33.7541 31.1425 37.457C30.487 38.0546 29.8359 38.6571 29.1894 39.2644C28.2129 40.1731 27.2362 41.0914 26.2108 41.9903H19.8827C22.2265 40.4271 24.3261 38.4633 26.5233 36.4116C27.1776 35.8059 27.8417 35.1708 28.5155 34.565C33.2421 30.2759 37.7538 28.0385 42.7147 27.5403C45.166 27.296 47.6465 27.4914 50 27.8822Z" fill="#505278"/>
<path d="M19.8828 42H25V37.8282C23.3301 39.3621 21.6797 40.7983 19.8828 42Z" fill="#575982"/>
<path d="M10.4688 24.5506H5.67383C4.94139 24.5506 4.34571 23.9546 4.34571 23.2219V20.0368C4.34571 19.304 4.94139 18.708 5.67383 18.708H10.4688C11.2012 18.708 11.7969 19.304 11.7969 20.0368V23.2219C11.7871 23.9644 11.2011 24.5506 10.4688 24.5506Z" fill="#424566"/>
<path d="M10.4688 24.4724H5.66408C4.9805 24.4724 4.42385 23.9155 4.42385 23.2316V20.0368C4.42385 19.3529 4.9805 18.796 5.66408 18.796H10.4688C11.1524 18.796 11.709 19.3529 11.709 20.0368V23.2316C11.709 23.9155 11.1524 24.4724 10.4688 24.4724Z" fill="#FEBD55"/>
<path d="M11.709 21.7368V21.5414H9.16993V20.6816L9.82423 20.027H11.709C11.709 19.9586 11.6992 19.8903 11.6895 19.8316H9.77544C9.74617 19.8316 9.72658 19.8414 9.70706 19.8609L9.02349 20.5448H8.16404V18.8057H7.96873V20.5448H7.11912L6.43555 19.8609C6.41706 19.8432 6.39275 19.8328 6.36716 19.8316H4.44337C4.43361 19.8903 4.42385 19.9586 4.42385 20.027H6.32814L6.97268 20.6719V21.5414H4.42385V21.7368H6.97268V22.6063L6.32814 23.2511H4.42385C4.42385 23.3196 4.43361 23.3879 4.44337 23.4465H6.36716C6.39644 23.4465 6.41603 23.4368 6.43555 23.4173L7.11912 22.7334H7.96873V24.4724H8.16404V22.7334H9.02341L9.70698 23.4173C9.72649 23.4368 9.74601 23.4465 9.77536 23.4465H11.6894C11.6992 23.3879 11.7089 23.3196 11.7089 23.2511H9.82415L9.16984 22.5965V21.7368H11.709ZM8.97462 22.5379H7.16799V20.7304H8.97462V22.5379Z" fill="#B5613C"/>
<path d="M44.7657 24.4138C44.7216 24.4145 44.678 24.4045 44.6387 24.3845C44.4922 24.3161 44.4337 24.1402 44.5118 23.9937C45.2638 22.4988 45.2638 20.7891 44.5118 19.2942C44.4434 19.1476 44.5021 18.9719 44.6387 18.9034C44.7853 18.835 44.961 18.8937 45.0293 19.0304C45.8692 20.6914 45.8692 22.5965 45.0293 24.2574C44.9707 24.3552 44.8731 24.4138 44.7657 24.4138ZM43.7598 23.8569C44.5508 22.45 44.5508 20.8281 43.7598 19.4212C43.6816 19.2845 43.5058 19.2258 43.3594 19.3138C43.2227 19.3919 43.1641 19.5678 43.252 19.7143C43.9453 20.9453 43.9453 22.3523 43.252 23.5735C43.1739 23.7103 43.2227 23.8959 43.3594 23.9741C43.4036 24.0005 43.4544 24.0141 43.5059 24.0131C43.6035 24.0035 43.7012 23.9448 43.7598 23.8569ZM42.5098 23.4563C43.2813 22.3327 43.2813 20.9356 42.5098 19.8023C42.4219 19.6655 42.2363 19.6361 42.0997 19.7241C41.963 19.812 41.9336 19.9976 42.0215 20.1344C42.6466 21.0528 42.6466 22.2057 42.0215 23.1241C41.9336 23.2608 41.9629 23.4367 42.0997 23.5344C42.1485 23.5734 42.2071 23.5832 42.2657 23.5832C42.3633 23.5931 42.4512 23.5442 42.5098 23.4563ZM41.1914 23.085C41.6212 22.6942 41.8555 22.1764 41.8555 21.6391C41.8555 21.1018 41.6212 20.5839 41.1914 20.1931C41.0743 20.0857 40.8887 20.0857 40.7813 20.2127C40.6739 20.3299 40.6739 20.5155 40.8008 20.623C41.1035 20.9063 41.2696 21.2678 41.2696 21.6391C41.2696 22.0104 41.1035 22.3719 40.8008 22.6552C40.6836 22.7627 40.6739 22.9483 40.7813 23.0655C40.8399 23.1242 40.918 23.1632 40.9961 23.1632C41.0644 23.1632 41.1328 23.1339 41.1914 23.085Z" fill="#CAD4FF"/>
<path d="M24.5996 37.0759H4.71681C4.55078 37.0759 4.42385 36.9489 4.42385 36.7828C4.42385 36.6167 4.55078 36.4897 4.71681 36.4897H24.5996C24.7656 36.4897 24.8926 36.6167 24.8926 36.7828C24.8926 36.9489 24.7559 37.0759 24.5996 37.0759Z" fill="#E6EAFF"/>
<path d="M45.3613 37.0759H41.5918C41.4258 37.0759 41.2988 36.9489 41.2988 36.7828C41.2988 36.6167 41.4258 36.4897 41.5918 36.4897H45.3613C45.5274 36.4897 45.6543 36.6167 45.6543 36.7828C45.6543 36.9489 45.5176 37.0759 45.3613 37.0759ZM39.9902 36.7828C39.9902 36.6167 39.8633 36.4897 39.6973 36.4897H35.9277C35.7617 36.4897 35.6348 36.6167 35.6348 36.7828C35.6348 36.9489 35.7617 37.0759 35.9277 37.0759H39.6973C39.8633 37.0759 39.9902 36.9391 39.9902 36.7828Z" fill="#CAD4FF"/>
<path d="M4.71681 14.6729C4.55078 14.6729 4.42385 14.546 4.42385 14.3799V13.227C4.42385 13.0609 4.55078 12.9339 4.71681 12.9339C4.88285 12.9339 5.00977 13.0609 5.00977 13.227V14.3701C5.00977 14.5362 4.88285 14.6729 4.71681 14.6729ZM6.60158 14.3799V13.227C6.60158 13.0609 6.47466 12.9339 6.30862 12.9339C6.14259 12.9339 6.01566 13.0609 6.01566 13.227V14.3701C6.01566 14.5362 6.14259 14.6632 6.30862 14.6632C6.47458 14.673 6.60158 14.5362 6.60158 14.3799ZM8.20315 14.3799V13.227C8.20315 13.0609 8.07622 12.9339 7.91019 12.9339C7.74415 12.9339 7.61723 13.0609 7.61723 13.227V14.3701C7.61723 14.5362 7.74415 14.6632 7.91019 14.6632C8.06638 14.673 8.20315 14.5362 8.20315 14.3799ZM9.79496 14.3799V13.227C9.79496 13.0609 9.66803 12.9339 9.502 12.9339C9.33596 12.9339 9.20904 13.0609 9.20904 13.227V14.3701C9.20904 14.5362 9.33596 14.6632 9.502 14.6632C9.66795 14.673 9.79496 14.5362 9.79496 14.3799ZM5.32225 32.1029H5.27338C4.78511 32.1029 4.38474 31.7024 4.38474 31.2139V29.8265C4.38474 29.338 4.78511 28.9374 5.27338 28.9374H5.32225C5.81051 28.9374 6.21089 29.338 6.21089 29.8265V31.2139C6.2113 31.3307 6.18859 31.4465 6.14408 31.5546C6.09957 31.6626 6.03413 31.7608 5.95153 31.8434C5.86893 31.9261 5.7708 31.9915 5.6628 32.0361C5.5548 32.0806 5.43906 32.1033 5.32225 32.1029ZM5.27346 29.5235C5.1933 29.5239 5.11652 29.556 5.05984 29.6127C5.00315 29.6694 4.97113 29.7462 4.97074 29.8264V31.2138C4.97113 31.294 5.00315 31.3708 5.05984 31.4275C5.11652 31.4842 5.1933 31.5163 5.27346 31.5166H5.32233C5.4025 31.5163 5.47927 31.4842 5.53595 31.4275C5.59264 31.3708 5.62466 31.294 5.62505 31.2138V29.8264C5.62466 29.7462 5.59264 29.6694 5.53595 29.6127C5.47927 29.556 5.4025 29.5239 5.32233 29.5235H5.27346ZM7.69528 32.1029H7.64642C7.15815 32.1029 6.75778 31.7024 6.75778 31.2139V29.8265C6.75778 29.338 7.15815 28.9374 7.64642 28.9374H7.69528C8.18355 28.9374 8.58392 29.338 8.58392 29.8265V31.2139C8.58434 31.3307 8.56163 31.4465 8.51712 31.5546C8.47261 31.6626 8.40717 31.7608 8.32457 31.8434C8.24197 31.9261 8.14384 31.9915 8.03584 32.0361C7.92784 32.0806 7.8121 32.1033 7.69528 32.1029ZM7.6465 29.5235C7.56633 29.5239 7.48956 29.556 7.43287 29.6127C7.37619 29.6694 7.34417 29.7462 7.34378 29.8264V31.2138C7.34417 31.294 7.37619 31.3708 7.43287 31.4275C7.48956 31.4842 7.56633 31.5163 7.6465 31.5166H7.69537C7.77553 31.5163 7.85231 31.4842 7.90899 31.4275C7.96568 31.3708 7.9977 31.294 7.99808 31.2138V29.8264C7.9977 29.7462 7.96568 29.6694 7.90899 29.6127C7.85231 29.556 7.77553 29.5239 7.69537 29.5235H7.6465ZM10.0684 32.1029H10.0195C9.53127 32.1029 9.1309 31.7024 9.1309 31.2139V29.8265C9.1309 29.338 9.53127 28.9374 10.0195 28.9374H10.0684C10.5567 28.9374 10.957 29.338 10.957 29.8265V31.2139C10.957 31.7023 10.5567 32.1029 10.0684 32.1029ZM10.0195 29.5235C9.93937 29.5239 9.8626 29.556 9.80591 29.6127C9.74923 29.6694 9.71721 29.7462 9.71682 29.8264V31.2138C9.71721 31.294 9.74923 31.3708 9.80591 31.4275C9.8626 31.4842 9.93937 31.5163 10.0195 31.5166H10.0684C10.1486 31.5163 10.2253 31.4842 10.282 31.4275C10.3387 31.3708 10.3707 31.294 10.3711 31.2138V29.8264C10.3707 29.7462 10.3387 29.6694 10.282 29.6127C10.2253 29.556 10.1486 29.5239 10.0684 29.5235H10.0195ZM12.4414 32.1029H12.3926C11.9043 32.1029 11.5039 31.7024 11.5039 31.2139V29.8265C11.5039 29.338 11.9043 28.9374 12.3926 28.9374H12.4414C12.9297 28.9374 13.3301 29.338 13.3301 29.8265V31.2139C13.3301 31.7023 12.9297 32.1029 12.4414 32.1029ZM12.3926 29.5235C12.3124 29.5239 12.2356 29.556 12.179 29.6127C12.1223 29.6694 12.0902 29.7462 12.0899 29.8264V31.2138C12.0902 31.294 12.1223 31.3708 12.179 31.4275C12.2356 31.4842 12.3124 31.5163 12.3926 31.5166H12.4414C12.5216 31.5163 12.5984 31.4842 12.6551 31.4275C12.7118 31.3708 12.7438 31.294 12.7442 31.2138V29.8264C12.7438 29.7462 12.7118 29.6694 12.6551 29.6127C12.5984 29.556 12.5216 29.5239 12.4414 29.5235H12.3926ZM16.084 32.1029H16.0351C15.5468 32.1029 15.1465 31.7024 15.1465 31.2139V29.8265C15.1465 29.338 15.5468 28.9374 16.0351 28.9374H16.084C16.5722 28.9374 16.9726 29.338 16.9726 29.8265V31.2139C16.9727 31.7023 16.5722 32.1029 16.084 32.1029ZM16.0352 29.5235C15.955 29.5239 15.8783 29.556 15.8216 29.6127C15.7649 29.6694 15.7329 29.7462 15.7325 29.8264V31.2138C15.7329 31.294 15.7649 31.3708 15.8216 31.4275C15.8783 31.4842 15.955 31.5163 16.0352 31.5166H16.0841C16.1642 31.5163 16.241 31.4842 16.2977 31.4275C16.3544 31.3708 16.3864 31.294 16.3868 31.2138V29.8264C16.3864 29.7462 16.3544 29.6694 16.2977 29.6127C16.241 29.556 16.1642 29.5239 16.0841 29.5235H16.0352ZM18.457 32.1029H18.4081C17.9199 32.1029 17.5195 31.7024 17.5195 31.2139V29.8265C17.5195 29.338 17.9199 28.9374 18.4081 28.9374H18.457C18.9453 28.9374 19.3457 29.338 19.3457 29.8265V31.2139C19.3457 31.7023 18.9453 32.1029 18.457 32.1029ZM18.4082 29.5235C18.3281 29.5239 18.2513 29.556 18.1946 29.6127C18.1379 29.6694 18.1059 29.7462 18.1055 29.8264V31.2138C18.1059 31.294 18.1379 31.3708 18.1946 31.4275C18.2513 31.4842 18.3281 31.5163 18.4082 31.5166H18.4571C18.5373 31.5163 18.614 31.4842 18.6707 31.4275C18.7274 31.3708 18.7594 31.294 18.7598 31.2138V29.8264C18.7594 29.7462 18.7274 29.6694 18.6707 29.6127C18.614 29.556 18.5373 29.5239 18.4571 29.5235H18.4082ZM20.8301 32.1029H20.7812C20.2929 32.1029 19.8925 31.7024 19.8925 31.2139V29.8265C19.8925 29.338 20.2929 28.9374 20.7812 28.9374H20.8301C21.3183 28.9374 21.7187 29.338 21.7187 29.8265V31.2139C21.7188 31.7023 21.3184 32.1029 20.8301 32.1029ZM20.7813 29.5235C20.7011 29.5239 20.6243 29.556 20.5676 29.6127C20.511 29.6694 20.4789 29.7462 20.4785 29.8264V31.2138C20.4789 31.294 20.511 31.3708 20.5676 31.4275C20.6243 31.4842 20.7011 31.5163 20.7813 31.5166H20.8301C20.9103 31.5163 20.9871 31.4842 21.0438 31.4275C21.1004 31.3708 21.1325 31.294 21.1329 31.2138V29.8264C21.1325 29.7462 21.1004 29.6694 21.0438 29.6127C20.9871 29.556 20.9103 29.5239 20.8301 29.5235H20.7813ZM23.2031 32.1029H23.1542C22.666 32.1029 22.2656 31.7024 22.2656 31.2139V29.8265C22.2656 29.338 22.666 28.9374 23.1542 28.9374H23.2031C23.6914 28.9374 24.0917 29.338 24.0917 29.8265V31.2139C24.0918 31.7023 23.6914 32.1029 23.2031 32.1029ZM23.1543 29.5235C23.0741 29.5239 22.9974 29.556 22.9407 29.6127C22.884 29.6694 22.852 29.7462 22.8516 29.8264V31.2138C22.852 31.294 22.884 31.3708 22.9407 31.4275C22.9974 31.4842 23.0741 31.5163 23.1543 31.5166H23.2032C23.2833 31.5163 23.3601 31.4842 23.4168 31.4275C23.4735 31.3708 23.5055 31.294 23.5059 31.2138V29.8264C23.5055 29.7462 23.4735 29.6694 23.4168 29.6127C23.3601 29.556 23.2833 29.5239 23.2032 29.5235H23.1543Z" fill="#E6EAFF"/>
<path d="M26.8457 32.1029H26.7968C26.3086 32.1029 25.9082 31.7024 25.9082 31.2139V29.8265C25.9082 29.338 26.3086 28.9374 26.7968 28.9374H26.8457C27.334 28.9374 27.7343 29.338 27.7343 29.8265V31.2139C27.7343 31.7023 27.334 32.1029 26.8457 32.1029ZM26.7968 29.5235C26.7167 29.5239 26.6399 29.556 26.5832 29.6127C26.5265 29.6694 26.4945 29.7462 26.4941 29.8264V31.2138C26.4945 31.294 26.5265 31.3708 26.5832 31.4275C26.6399 31.4842 26.7167 31.5163 26.7968 31.5166H26.8457C26.9259 31.5163 27.0026 31.4842 27.0593 31.4275C27.116 31.3708 27.148 31.294 27.1484 31.2138V29.8264C27.148 29.7462 27.116 29.6694 27.0593 29.6127C27.0026 29.556 26.9259 29.5239 26.8457 29.5235H26.7968ZM29.2187 32.1029H29.17C28.6817 32.1029 28.2813 31.7024 28.2813 31.2139V29.8265C28.2813 29.338 28.6817 28.9374 29.17 28.9374H29.2187C29.707 28.9374 30.1074 29.338 30.1074 29.8265V31.2139C30.1074 31.7023 29.707 32.1029 29.2187 32.1029ZM29.17 29.5235C29.0898 29.5239 29.013 29.556 28.9563 29.6127C28.8996 29.6694 28.8676 29.7462 28.8672 29.8264V31.2138C28.8676 31.294 28.8996 31.3708 28.9563 31.4275C29.013 31.4842 29.0898 31.5163 29.17 31.5166H29.2187C29.2989 31.5163 29.3757 31.4842 29.4324 31.4275C29.4891 31.3708 29.5211 31.294 29.5215 31.2138V29.8264C29.5211 29.7462 29.4891 29.6694 29.4324 29.6127C29.3757 29.556 29.2989 29.5239 29.2187 29.5235H29.17ZM31.5918 32.1029H31.5429C31.0546 32.1029 30.6543 31.7024 30.6543 31.2139V29.8265C30.6543 29.338 31.0546 28.9374 31.5429 28.9374H31.5918C32.0801 28.9374 32.4804 29.338 32.4804 29.8265V31.2139C32.4805 31.7023 32.0801 32.1029 31.5918 32.1029ZM31.543 29.5235C31.4628 29.5239 31.3861 29.556 31.3294 29.6127C31.2727 29.6694 31.2407 29.7462 31.2403 29.8264V31.2138C31.2407 31.294 31.2727 31.3708 31.3294 31.4275C31.3861 31.4842 31.4628 31.5163 31.543 31.5166H31.5919C31.672 31.5163 31.7488 31.4842 31.8055 31.4275C31.8622 31.3708 31.8942 31.294 31.8946 31.2138V29.8264C31.8942 29.7462 31.8622 29.6694 31.8055 29.6127C31.7488 29.556 31.672 29.5239 31.5919 29.5235H31.543ZM33.9648 32.1029H33.916C33.4277 32.1029 33.0273 31.7024 33.0273 31.2139V29.8265C33.0273 29.338 33.4277 28.9374 33.916 28.9374H33.9648C34.4531 28.9374 34.8535 29.338 34.8535 29.8265V31.2139C34.8535 31.7023 34.4531 32.1029 33.9648 32.1029ZM33.916 29.5235C33.8359 29.5239 33.7591 29.556 33.7024 29.6127C33.6457 29.6694 33.6137 29.7462 33.6133 29.8264V31.2138C33.6137 31.294 33.6457 31.3708 33.7024 31.4275C33.7591 31.4842 33.8359 31.5163 33.916 31.5166H33.9649C34.0451 31.5163 34.1218 31.4842 34.1785 31.4275C34.2352 31.3708 34.2672 31.294 34.2676 31.2138V29.8264C34.2672 29.7462 34.2352 29.6694 34.1785 29.6127C34.1218 29.556 34.0451 29.5239 33.9649 29.5235H33.916ZM37.6074 32.1029H37.5586C37.0703 32.1029 36.6699 31.7024 36.6699 31.2139V29.8265C36.6699 29.338 37.0703 28.9374 37.5586 28.9374H37.6074C38.0957 28.9374 38.4961 29.338 38.4961 29.8265V31.2139C38.4961 31.7023 38.0957 32.1029 37.6074 32.1029ZM37.5586 29.5235C37.4784 29.5239 37.4016 29.556 37.3449 29.6127C37.2883 29.6694 37.2562 29.7462 37.2559 29.8264V31.2138C37.2562 31.294 37.2883 31.3708 37.3449 31.4275C37.4016 31.4842 37.4784 31.5163 37.5586 31.5166H37.6074C37.6876 31.5163 37.7644 31.4842 37.8211 31.4275C37.8777 31.3708 37.9098 31.294 37.9102 31.2138V29.8264C37.9098 29.7462 37.8777 29.6694 37.8211 29.6127C37.7644 29.556 37.6876 29.5239 37.6074 29.5235H37.5586ZM39.9805 32.1029H39.9317C39.4434 32.1029 39.0431 31.7024 39.0431 31.2139V29.8265C39.0431 29.338 39.4434 28.9374 39.9317 28.9374H39.9805C40.4687 28.9374 40.8691 29.338 40.8691 29.8265V31.2139C40.8691 31.7023 40.4687 32.1029 39.9805 32.1029ZM39.9316 29.5235C39.8514 29.5239 39.7747 29.556 39.718 29.6127C39.6613 29.6694 39.6293 29.7462 39.6289 29.8264V31.2138C39.6293 31.294 39.6613 31.3708 39.718 31.4275C39.7747 31.4842 39.8514 31.5163 39.9316 31.5166H39.9804C40.0606 31.5163 40.1373 31.4842 40.194 31.4275C40.2507 31.3708 40.2827 31.294 40.2831 31.2138V29.8264C40.2827 29.7462 40.2507 29.6694 40.194 29.6127C40.1373 29.556 40.0606 29.5239 39.9804 29.5235H39.9316ZM42.3535 32.1029H42.3046C41.8164 32.1029 41.416 31.7024 41.416 31.2139V29.8265C41.416 29.338 41.8164 28.9374 42.3046 28.9374H42.3535C42.8418 28.9374 43.2422 29.338 43.2422 29.8265V31.2139C43.2422 31.7023 42.8418 32.1029 42.3535 32.1029ZM42.3047 29.5235C42.2246 29.5239 42.1478 29.556 42.0911 29.6127C42.0344 29.6694 42.0024 29.7462 42.002 29.8264V31.2138C42.0024 31.294 42.0344 31.3708 42.0911 31.4275C42.1478 31.4842 42.2246 31.5163 42.3047 31.5166H42.3536C42.4338 31.5163 42.5105 31.4842 42.5672 31.4275C42.6239 31.3708 42.6559 31.294 42.6563 31.2138V29.8264C42.6559 29.7462 42.6239 29.6694 42.5672 29.6127C42.5105 29.556 42.4338 29.5239 42.3536 29.5235H42.3047ZM44.7266 32.1029H44.6777C44.1894 32.1029 43.789 31.7024 43.789 31.2139V29.8265C43.789 29.338 44.1894 28.9374 44.6777 28.9374H44.7266C45.2148 28.9374 45.6152 29.338 45.6152 29.8265V31.2139C45.6153 31.7023 45.2148 32.1029 44.7266 32.1029ZM44.6778 29.5235C44.5976 29.5239 44.5208 29.556 44.4641 29.6127C44.4075 29.6694 44.3754 29.7462 44.375 29.8264V31.2138C44.3754 31.294 44.4075 31.3708 44.4641 31.4275C44.5208 31.4842 44.5976 31.5163 44.6778 31.5166H44.7266C44.8068 31.5163 44.8836 31.4842 44.9403 31.4275C44.9969 31.3708 45.029 31.294 45.0293 31.2138V29.8264C45.029 29.7462 44.9969 29.6694 44.9403 29.6127C44.8836 29.556 44.8068 29.5239 44.7266 29.5235H44.6778Z" fill="#CAD4FF"/>
</svg>
