<svg width="50" height="50" viewBox="0 0 50 50" fill="none" xmlns="http://www.w3.org/2000/svg">
<path d="M13.697 38C18.3836 38 20.848 33.1901 22.9989 26.6816H23.3455C22.479 32.3045 22.7544 38 27.9276 38C32.5786 38 34.8009 33.1538 36.7429 26.6816H37.0895C36.1873 32.2004 36.4295 38 41.7405 38C46.3914 38 48.9936 33.2603 50 26.7155H46.7383C46.3559 28.1647 45.6957 29.5801 44.4826 29.5801C41.9494 29.5801 43.3382 25.2638 44.4471 19.8538L46.0448 12H38.2362C38.2362 12 34.1052 29.5801 30.8431 29.5801C28.4476 29.5801 29.6276 24.7702 30.6342 19.7811L32.1988 12H24.3901C22.9325 17.8358 19.8437 29.5801 16.9615 29.5801C16.0237 29.5801 15.7815 28.9777 15.7815 28.201C15.7815 27.705 15.9192 27.1752 16.0949 26.7155H8.94397C8.56173 28.2712 8.35281 29.7568 8.35281 31.2787C8.35281 35.0991 9.74168 38 13.697 38Z" fill="#E31235"/>
<path d="M3.68021 38C5.72889 38 7.36012 36.3718 7.36012 34.2861C7.36012 32.2004 5.72889 30.5722 3.68021 30.5722C1.63124 30.5722 0 32.198 0 34.2861C0 36.3741 1.63124 38 3.68021 38Z" fill="#E31235"/>
</svg>
