<svg width="50" height="50" viewBox="0 0 50 50" fill="none" xmlns="http://www.w3.org/2000/svg">
<path d="M25.5154 41.8472C21.8331 41.9494 18.2019 41.0012 15.081 39.1223C11.9602 37.2435 9.48987 34.5185 7.98251 31.2919C6.47516 28.0654 5.99847 24.4822 6.61273 20.9956C7.22698 17.509 8.90459 14.2756 11.4334 11.7042C13.9622 9.13284 17.2286 7.33906 20.8195 6.54973C24.4104 5.7604 28.1645 6.01097 31.6071 7.26975C35.0496 8.52853 38.026 10.739 40.1597 13.6215C42.2934 16.5041 43.4887 19.9293 43.5943 23.464C43.6653 25.8107 43.2539 28.1478 42.3837 30.3418C41.5135 32.5358 40.2014 34.5438 38.5225 36.2509C36.8436 37.9581 34.8308 39.331 32.599 40.2912C30.3672 41.2514 27.9601 41.7802 25.5154 41.8472ZM49.989 23.2872C49.8428 18.5449 48.2354 13.9507 45.37 10.0851C42.5046 6.2194 38.5098 3.25576 33.8903 1.56863C29.2708 -0.118509 24.2341 -0.453426 19.4164 0.606195C14.5987 1.66581 10.2163 4.07242 6.82301 7.52191C3.4297 10.9714 1.17773 15.309 0.351664 19.9866C-0.474405 24.6641 0.162495 29.4718 2.18189 33.8021C4.20128 38.1323 7.51254 41.7908 11.6973 44.3153C15.882 46.8398 20.7524 48.117 25.693 47.9855C28.9787 47.898 32.2142 47.1895 35.2144 45.9003C38.2145 44.6112 40.9203 42.7669 43.177 40.4728C45.4337 38.1787 47.1969 35.48 48.3658 32.5311C49.5347 29.5822 50.0863 26.4409 49.989 23.2872Z" fill="#0066B3"/>
<path d="M24.9562 41.4241C20.2074 41.3841 15.6636 39.5618 12.2966 36.3471C8.92971 33.1324 7.00707 28.7805 6.94002 24.2225C6.87298 19.6645 8.66684 15.2623 11.9379 11.9577C15.2089 8.65298 19.6973 6.70826 24.443 6.53954H24.9759C29.755 6.53326 34.3443 8.33449 37.7497 11.5531C41.1552 14.7717 43.1025 19.1485 43.17 23.7355C43.2375 28.3225 41.4197 32.7503 38.1103 36.06C34.8009 39.3696 30.2665 41.2945 25.4891 41.4178H24.9562M24.9562 41.8472H25.5022C30.4002 41.7225 35.0496 39.7501 38.4431 36.3576C41.8366 32.965 43.7006 28.4256 43.6314 23.7229C43.5622 19.0201 41.5652 14.533 38.0732 11.2339C34.5812 7.93474 29.8756 6.0893 24.9759 6.09748H24.4298C19.4902 6.16447 14.7806 8.1123 11.3371 11.5124C7.89355 14.9126 5.99822 19.4866 6.06801 24.2281C6.1378 28.9697 8.16701 33.4904 11.7092 36.7958C15.2514 40.1012 20.0165 41.9205 24.9562 41.8535" fill="white"/>
<path d="M24.9891 6.96896H24.4693C19.767 7.03093 15.2828 8.88345 12.0034 12.119C8.72401 15.3545 6.91792 19.708 6.98248 24.2218C7.04704 28.7356 8.97696 33.0398 12.3477 36.1877C15.7184 39.3356 20.2538 41.0693 24.9562 41.0073H25.4759C30.1017 40.8411 34.4762 38.9442 37.6641 35.7224C40.8519 32.5005 42.6 28.2093 42.5347 23.7663C42.4694 19.3233 40.5958 15.0812 37.3146 11.947C34.0333 8.81271 29.6048 7.03511 24.9759 6.99422L24.9891 6.96896ZM24.9562 42.2703C21.2392 42.2552 17.6078 41.1983 14.5081 39.2293C11.4084 37.2603 8.97535 34.4651 7.50788 31.1871C6.04041 27.909 5.60243 24.2909 6.24775 20.7772C6.89307 17.2635 8.59358 14.0072 11.1404 11.4085C12.851 9.65734 14.9062 8.24897 17.1873 7.26476C19.4683 6.28055 21.9299 5.74001 24.4298 5.67437H24.9891C30.0491 5.60654 34.93 7.47096 38.5579 10.8575C42.1859 14.244 44.2638 18.8753 44.3344 23.7324C44.4051 28.5895 42.4628 33.2746 38.9348 36.7571C35.4067 40.2395 30.582 42.2341 25.522 42.3019H24.9562" fill="#0066B3"/>
<path d="M42.6469 37.6098L41.8509 36.4415L41.2785 37.1362L42.6469 37.6098ZM39.8509 37.3067L39.7127 37.2498C39.7127 37.2498 39.6667 37.2119 39.6667 37.1867C39.6545 37.1562 39.6545 37.1225 39.6667 37.092C39.7027 37.041 39.7422 36.9925 39.7851 36.9467C39.8231 36.8935 39.8649 36.8428 39.9101 36.7951C39.9349 36.7681 39.9637 36.7447 39.9956 36.7257C40.0039 36.7222 40.0129 36.7204 40.0219 36.7204C40.031 36.7204 40.04 36.7222 40.0483 36.7257H40.1009L40.7588 36.953L41.5219 36.031L41.1535 35.5005C41.1514 35.4817 41.1514 35.4626 41.1535 35.4437C41.1469 35.4231 41.1469 35.4011 41.1535 35.3806L41.2062 35.2922L41.3114 35.1595L41.4298 35.0269C41.4403 35.0144 41.4533 35.0041 41.4679 34.9965C41.4826 34.9889 41.4988 34.9842 41.5154 34.9827C41.5154 34.9827 41.5614 34.9827 41.5877 35.0143C41.6203 35.0492 41.649 35.0873 41.6733 35.128L43.3114 37.6098C43.3138 37.6308 43.3138 37.652 43.3114 37.6729C43.3144 37.6981 43.3144 37.7235 43.3114 37.7487L43.2456 37.8498C43.2073 37.9028 43.1656 37.9534 43.1206 38.0013L42.9759 38.1781L42.8706 38.2729C42.847 38.2797 42.8219 38.2797 42.7983 38.2729C42.7701 38.2785 42.7409 38.2785 42.7127 38.2729L39.8509 37.3067ZM42.8772 34.4964C42.9349 34.5314 43.0002 34.553 43.068 34.5596C43.1265 34.5721 43.1871 34.5721 43.2456 34.5596C43.3084 34.5365 43.3647 34.4998 43.4101 34.4522C43.481 34.3895 43.5391 34.3145 43.5812 34.2312L43.7917 33.8776L42.9693 33.4292L42.7588 33.7892C42.7133 33.8646 42.678 33.9452 42.6535 34.0291C42.6443 34.0899 42.6443 34.1516 42.6535 34.2123C42.6668 34.2709 42.6913 34.3266 42.7259 34.3765C42.7676 34.4298 42.8217 34.473 42.8838 34.5028M42.5943 35.0901C42.4725 35.0243 42.3652 34.9364 42.2785 34.8312C42.1947 34.7342 42.1361 34.6194 42.1075 34.4964C42.0749 34.3571 42.0749 34.2126 42.1075 34.0733C42.1501 33.8806 42.228 33.6967 42.3377 33.5302L42.7654 32.7977C42.7756 32.7735 42.7908 32.7516 42.81 32.7332C42.8292 32.7147 42.8521 32.7002 42.8772 32.6903C42.9069 32.6849 42.9374 32.6854 42.9669 32.6919C42.9964 32.6985 43.0241 32.7108 43.0483 32.7282L45.5154 34.0607C45.5426 34.0708 45.5669 34.0869 45.5863 34.1078C45.6058 34.1286 45.6198 34.1536 45.6272 34.1807C45.646 34.2274 45.646 34.2792 45.6272 34.3259L44.693 35.8731L44.6601 35.9047H44.6075H44.5219L44.4167 35.8542L44.3114 35.791C44.2885 35.7754 44.2685 35.7562 44.2522 35.7342C44.2472 35.7199 44.2472 35.7043 44.2522 35.69C44.2487 35.6831 44.2469 35.6756 44.2469 35.6679C44.2469 35.6602 44.2487 35.6527 44.2522 35.6458L44.9101 34.4964L44.1996 34.1112L43.9364 34.5659C43.8549 34.7131 43.7531 34.849 43.6338 34.9701C43.538 35.0563 43.4265 35.1248 43.3048 35.1722C43.1921 35.215 43.07 35.2302 42.9496 35.2164C42.8175 35.2048 42.6896 35.1661 42.5746 35.1027M43.3114 32.0715C43.2986 32.0758 43.2847 32.0758 43.2719 32.0715C43.2719 32.0715 43.2719 32.0399 43.2719 32.0146C43.2691 31.981 43.2691 31.9472 43.2719 31.9136C43.2854 31.8598 43.303 31.807 43.3246 31.7557C43.334 31.6805 43.3517 31.6064 43.3772 31.5347C43.3893 31.5006 43.4071 31.4686 43.4298 31.4399C43.4427 31.4222 43.4612 31.409 43.4825 31.4021H43.5483H44.318C44.412 31.4129 44.5069 31.4129 44.6009 31.4021C44.6722 31.3926 44.7412 31.3712 44.8048 31.3389C44.8596 31.3093 44.9069 31.2683 44.943 31.2189C44.9809 31.1646 45.0097 31.1049 45.0285 31.0421L45.0746 30.9221L43.8377 30.5306C43.8377 30.5306 43.8377 30.5306 43.7983 30.5306C43.7906 30.5123 43.7906 30.492 43.7983 30.4737C43.7963 30.4422 43.7963 30.4106 43.7983 30.379L43.8443 30.2338L43.8969 30.0948L43.9496 30.0064L43.9956 29.9685H44.0351L45.2654 30.3601L45.3114 30.2464C45.3234 30.1774 45.3234 30.107 45.3114 30.038C45.3148 29.9767 45.3011 29.9157 45.2719 29.8612C45.2432 29.8 45.2031 29.7443 45.1535 29.697C45.0895 29.6379 45.0213 29.5831 44.9496 29.5328L44.2917 29.097L44.3312 29.0086C44.3268 28.9857 44.3268 28.9621 44.3312 28.9392C44.3291 28.9055 44.3291 28.8718 44.3312 28.8381C44.3429 28.7846 44.3583 28.7319 44.3772 28.6803C44.396 28.6285 44.418 28.5779 44.443 28.5287C44.4558 28.496 44.4712 28.4643 44.489 28.434L44.5351 28.3961C44.552 28.3897 44.5708 28.3897 44.5877 28.3961C44.5877 28.3961 44.5877 28.3961 44.6272 28.3961H44.6733L44.739 28.4466L45.2851 28.8508C45.3753 28.9122 45.4591 28.982 45.5351 29.0592C45.5949 29.1125 45.646 29.1742 45.6864 29.2423C45.7268 29.2953 45.7558 29.3554 45.7719 29.4191C45.7756 29.4843 45.7756 29.5497 45.7719 29.6149C45.8066 29.5669 45.8488 29.5243 45.8969 29.4886C45.9452 29.4491 46.0011 29.4191 46.0614 29.4002C46.1344 29.3775 46.2092 29.3606 46.2851 29.3497C46.388 29.3423 46.4914 29.3423 46.5943 29.3497H47.3443H47.4167C47.4294 29.3453 47.4434 29.3453 47.4561 29.3497C47.4561 29.3497 47.4561 29.3812 47.4561 29.4065C47.4586 29.438 47.4586 29.4697 47.4561 29.5012C47.4451 29.5529 47.4297 29.6035 47.4101 29.6528C47.3948 29.7048 47.375 29.7555 47.3509 29.8043C47.3509 29.8422 47.3509 29.8801 47.2983 29.8927C47.2861 29.9125 47.2676 29.928 47.2456 29.937H47.1798H46.4627C46.3774 29.93 46.2915 29.93 46.2062 29.937C46.1418 29.9414 46.079 29.9586 46.0219 29.9875C45.9708 30.0168 45.9262 30.0554 45.8904 30.1011C45.8502 30.1551 45.8191 30.2148 45.7983 30.278L45.7588 30.398L46.9167 30.7642C46.9295 30.7604 46.9433 30.7604 46.9562 30.7642C46.9562 30.7642 46.9562 30.7642 46.9562 30.8211C46.9614 30.8524 46.9614 30.8844 46.9562 30.9158C46.9469 30.9658 46.9315 31.0146 46.9101 31.061C46.8958 31.1084 46.8782 31.1548 46.8575 31.2C46.8443 31.2317 46.8266 31.2614 46.8048 31.2884C46.7948 31.306 46.7784 31.3195 46.7588 31.3263H46.7127L45.614 31.0926L45.5746 31.2063C45.5494 31.2688 45.536 31.3351 45.5351 31.4021C45.5348 31.459 45.5483 31.5152 45.5746 31.5662C45.6053 31.6244 45.6453 31.6777 45.693 31.7241C45.7496 31.7822 45.8137 31.8332 45.8838 31.8757L46.4693 32.2735C46.4873 32.2829 46.503 32.2958 46.5154 32.3114C46.522 32.332 46.522 32.354 46.5154 32.3746C46.5207 32.4081 46.5207 32.4421 46.5154 32.4756C46.5067 32.5298 46.4913 32.5829 46.4693 32.6335C46.4541 32.6835 46.4343 32.7321 46.4101 32.7787C46.3974 32.8094 46.382 32.839 46.364 32.8672C46.3522 32.8832 46.3364 32.8962 46.318 32.905H46.2719H46.193L46.0943 32.7977L45.614 32.444C45.5336 32.3874 45.4567 32.3263 45.3838 32.2609C45.3297 32.2089 45.2812 32.1517 45.239 32.0904C45.207 32.0392 45.1826 31.9839 45.1667 31.9262C45.1567 31.8655 45.1567 31.8037 45.1667 31.7431C45.1191 31.7963 45.0662 31.845 45.0088 31.8883C44.9518 31.9273 44.8899 31.9591 44.8246 31.983C44.748 32.0101 44.6686 32.0292 44.5877 32.0399C44.4782 32.0471 44.3683 32.0471 44.2588 32.0399H43.3246M45.5483 27.2467C45.3946 27.169 45.2473 27.0804 45.1075 26.9815C45.0076 26.9139 44.9227 26.8281 44.8575 26.7289C44.7941 26.6504 44.7554 26.5562 44.7456 26.4573C44.7258 26.3508 44.7258 26.2418 44.7456 26.1353V26.009C44.7456 25.9711 44.7456 25.9332 44.7917 25.8953C44.803 25.864 44.8185 25.8343 44.8377 25.8069L44.8838 25.75H44.9233H44.9825H45.0746H45.2062C45.2765 25.752 45.3457 25.767 45.4101 25.7943C45.4496 25.7943 45.4693 25.8385 45.4627 25.8637C45.4683 25.8801 45.4683 25.8978 45.4627 25.9142C45.442 25.9302 45.4242 25.9494 45.4101 25.9711C45.392 25.9969 45.3766 26.0244 45.364 26.0532C45.3595 26.0909 45.3595 26.1291 45.364 26.1668C45.3575 26.1981 45.3575 26.2303 45.364 26.2616C45.3585 26.2908 45.3585 26.3208 45.364 26.35C45.3865 26.3805 45.4131 26.4081 45.443 26.4321C45.4853 26.4702 45.5316 26.5041 45.5812 26.5331L47.8904 25.7943C47.9339 25.7869 47.9784 25.7869 48.0219 25.7943C48.0333 25.7892 48.0456 25.7865 48.0581 25.7865C48.0706 25.7865 48.083 25.7892 48.0943 25.7943C48.1038 25.8273 48.1038 25.8622 48.0943 25.8953C48.0992 25.9563 48.0992 26.0175 48.0943 26.0784C48.0943 26.1542 48.0943 26.211 48.0943 26.2553C48.0903 26.2936 48.0768 26.3304 48.0548 26.3626C48.0446 26.3868 48.026 26.4069 48.0022 26.4194L47.9167 26.451L46.8772 26.7605L46.5483 26.8615L46.2127 26.9436L46.5285 27.0888L46.8443 27.2467L47.7851 27.7267C47.8055 27.7379 47.8234 27.7529 47.8377 27.7709C47.84 27.7898 47.84 27.8088 47.8377 27.8277C47.8409 27.8634 47.8409 27.8993 47.8377 27.9351C47.8377 27.9793 47.8377 28.0424 47.8377 28.1119C47.8413 28.1687 47.8413 28.2256 47.8377 28.2824C47.8306 28.316 47.8173 28.3481 47.7983 28.3771C47.7893 28.3821 47.779 28.3847 47.7687 28.3847C47.7583 28.3847 47.748 28.3821 47.739 28.3771C47.6894 28.3892 47.6374 28.3892 47.5877 28.3771L45.5483 27.2467ZM45.0088 24.7207H44.9627C44.9567 24.7043 44.9567 24.6865 44.9627 24.6702C44.9577 24.6388 44.9577 24.6068 44.9627 24.5754C44.9583 24.525 44.9583 24.4743 44.9627 24.4239V24.266C44.9627 24.2281 44.9627 24.1965 44.9627 24.1713C44.9603 24.1524 44.9603 24.1333 44.9627 24.1144H45.0088L47.6404 24.0387V23.3693C47.2522 23.3314 46.9167 23.2998 46.6338 23.2556C46.3833 23.2299 46.1349 23.1877 45.8904 23.1293C45.7165 23.0928 45.5468 23.0399 45.3838 22.9714C45.2676 22.9186 45.161 22.8482 45.068 22.763C44.9891 22.687 44.9305 22.5938 44.8969 22.4915C44.8674 22.3777 44.8498 22.2613 44.8443 22.1441C44.8411 22.1232 44.8411 22.1019 44.8443 22.081C44.8537 22.0635 44.8672 22.0484 44.8838 22.0368H44.9627H45.0877C45.1468 22.0304 45.2063 22.0304 45.2654 22.0368H45.364C45.3613 22.0459 45.3569 22.0545 45.3509 22.062C45.3548 22.0765 45.3548 22.0917 45.3509 22.1062C45.3538 22.1547 45.3672 22.202 45.3904 22.2452C45.4184 22.2996 45.4617 22.3455 45.5154 22.3778C45.6007 22.425 45.6911 22.4631 45.7851 22.4915C45.9319 22.5355 46.0813 22.5713 46.2325 22.5988L46.8904 22.6872C47.1535 22.7188 47.4693 22.7441 47.8377 22.7756C47.9006 22.7771 47.9618 22.7945 48.0154 22.8262C48.0505 22.8599 48.0715 22.9048 48.0746 22.9525L48.1206 24.487C48.1241 24.511 48.1217 24.5355 48.1137 24.5585C48.1057 24.5815 48.0923 24.6024 48.0746 24.6196C48.0535 24.6387 48.0287 24.6536 48.0016 24.6634C47.9745 24.6731 47.9456 24.6776 47.9167 24.6765L45.0088 24.7207ZM45.2456 21.5189H45.1404H45.068H45.0088H44.9496C44.9155 21.4929 44.8846 21.4632 44.8575 21.4305C44.818 21.3863 44.7785 21.3295 44.7325 21.2663C44.6864 21.2032 44.6535 21.1211 44.614 21.0327C44.58 20.9353 44.5514 20.8362 44.5285 20.7359C44.4893 20.5419 44.4893 20.3425 44.5285 20.1486C44.5593 19.9721 44.6338 19.8054 44.7456 19.6623C44.8649 19.5101 45.0176 19.385 45.193 19.296C45.3988 19.1882 45.6207 19.1115 45.8509 19.0687C46.0977 19.0213 46.3507 19.0106 46.6009 19.0371C46.8083 19.0618 47.0079 19.1285 47.1864 19.2329C47.3552 19.3297 47.4973 19.464 47.6009 19.6244C47.717 19.79 47.7954 19.9772 47.8311 20.1738C47.8406 20.2578 47.8406 20.3425 47.8311 20.4264C47.8311 20.5085 47.8311 20.5843 47.8311 20.6601C47.8228 20.7267 47.8074 20.7923 47.7851 20.8558C47.7717 20.9004 47.7518 20.943 47.7259 20.9822L47.6798 21.039C47.6624 21.0413 47.6447 21.0413 47.6272 21.039C47.6011 21.0435 47.5744 21.0435 47.5483 21.039H47.4364H47.3048C47.2764 21.0422 47.2477 21.0422 47.2193 21.039C47.2024 21.0453 47.1836 21.0453 47.1667 21.039C47.1632 21.0332 47.1614 21.0267 47.1614 21.02C47.1614 21.0134 47.1632 21.0069 47.1667 21.0011C47.1539 20.9707 47.1539 20.9367 47.1667 20.9064L47.2325 20.7422C47.266 20.6999 47.2968 20.6556 47.3246 20.6096C47.3405 20.5133 47.3405 20.4153 47.3246 20.3191C47.3037 20.2041 47.254 20.0957 47.1798 20.0033C47.1065 19.9177 47.0144 19.8487 46.9101 19.8012C46.7882 19.7536 46.6596 19.7238 46.5285 19.7128C46.3696 19.7076 46.2106 19.7203 46.0548 19.7507C45.8903 19.7762 45.7306 19.8251 45.5812 19.896C45.4648 19.9507 45.36 20.0257 45.2719 20.117C45.2018 20.1999 45.1523 20.2971 45.1272 20.4012C45.1009 20.5134 45.1009 20.6299 45.1272 20.7422C45.143 20.8416 45.1764 20.9377 45.2259 21.0264C45.2643 21.0928 45.3084 21.1562 45.3575 21.2158C45.3919 21.2601 45.4316 21.3004 45.4759 21.3358C45.5014 21.3589 45.5216 21.3868 45.5351 21.4179C45.5351 21.4179 45.5351 21.4495 45.5351 21.4558C45.5351 21.4621 45.5351 21.4558 45.5351 21.4874H45.4496H45.3114M45.1864 14.0798L44.9562 13.8524C44.9098 13.7605 44.85 13.6754 44.7785 13.5998C44.7307 13.5566 44.675 13.5223 44.614 13.4988C44.5555 13.4864 44.4949 13.4864 44.4364 13.4988C44.3721 13.5109 44.31 13.5322 44.2522 13.5619C44.1966 13.5931 44.1457 13.6313 44.1009 13.6756C44.0654 13.7291 44.043 13.7895 44.0351 13.8524C44.0216 13.9149 44.0216 13.9794 44.0351 14.0419C44.0586 14.1381 44.0986 14.2298 44.1535 14.3134L44.318 14.6102L45.1864 14.0798ZM43.1667 15.8543C43.1498 15.8606 43.131 15.8606 43.114 15.8543C43.114 15.8543 43.114 15.8543 43.0614 15.8227L43.0022 15.7469C42.9702 15.7049 42.9416 15.6606 42.9167 15.6143L42.8509 15.4817C42.8451 15.4504 42.8451 15.4183 42.8509 15.387C42.8443 15.3664 42.8443 15.3444 42.8509 15.3238C42.8474 15.3136 42.8474 15.3025 42.8509 15.2923L43.9167 14.7365L43.8048 14.5281C43.77 14.4618 43.7232 14.402 43.6667 14.3513C43.6249 14.3126 43.5723 14.2863 43.5154 14.2755C43.4522 14.265 43.3877 14.265 43.3246 14.2755H43.0877L42.2851 14.4839C42.266 14.4907 42.245 14.4907 42.2259 14.4839C42.2259 14.4839 42.1864 14.4839 42.1667 14.4523C42.1394 14.4277 42.1151 14.4002 42.0943 14.3702C42.0943 14.3324 42.0417 14.2818 42.0088 14.225C41.9796 14.1738 41.9532 14.1211 41.9298 14.0671C41.9231 14.0359 41.9231 14.0036 41.9298 13.9724C41.9258 13.9537 41.9258 13.9343 41.9298 13.9156H41.989H42.1009L42.7588 13.8272H42.9956C43.0614 13.8234 43.1273 13.8234 43.193 13.8272C43.2525 13.8384 43.31 13.8576 43.3641 13.884C43.4181 13.9036 43.4674 13.9337 43.5088 13.9724C43.4991 13.8779 43.4991 13.7827 43.5088 13.6882C43.5123 13.6039 43.5301 13.5207 43.5614 13.4419C43.5972 13.3652 43.6461 13.2947 43.7062 13.2335C43.7745 13.166 43.8547 13.1104 43.943 13.0693C44.0619 13.0031 44.1943 12.9622 44.3312 12.9494C44.4585 12.9377 44.587 12.955 44.7061 12.9999C44.8362 13.054 44.9545 13.1311 45.0548 13.2272C45.1986 13.3769 45.3203 13.5448 45.4167 13.7261L45.7917 14.4018C45.8107 14.4463 45.8107 14.4962 45.7917 14.5408C45.7829 14.5665 45.7684 14.59 45.749 14.6096C45.7297 14.6293 45.7061 14.6446 45.6798 14.6544L43.1667 15.8543ZM42.818 10.7391L41.4035 11.2632L41.943 11.9579L42.818 10.7391ZM41.8509 13.2651C41.8267 13.3056 41.7955 13.3419 41.7588 13.3725C41.7503 13.3834 41.7394 13.3925 41.7269 13.399C41.7144 13.4056 41.7006 13.4094 41.6864 13.4104C41.6533 13.3988 41.6238 13.3792 41.6009 13.3535L41.4035 13.2841L41.2851 13.1325C41.2626 13.1037 41.2449 13.0717 41.2325 13.0378C41.2278 13.029 41.2254 13.0192 41.2254 13.0093C41.2254 12.9995 41.2278 12.9897 41.2325 12.9809C41.2289 12.973 41.227 12.9644 41.227 12.9557C41.227 12.947 41.2289 12.9384 41.2325 12.9304L41.6075 12.381L40.8904 11.4527L40.2325 11.6737H40.1667H40.1075C40.0777 11.6569 40.0511 11.6356 40.0285 11.6106L39.9167 11.4779L39.8377 11.3264C39.8272 11.2956 39.8272 11.2624 39.8377 11.2316C39.8469 11.2068 39.8658 11.1865 39.8904 11.1748L40.0285 11.118L42.9167 10.177H42.9956C43.0195 10.1719 43.0442 10.1719 43.068 10.177C43.0997 10.2011 43.1284 10.2287 43.1535 10.2591C43.193 10.297 43.2325 10.3475 43.2851 10.4107L43.4298 10.5938C43.4565 10.629 43.4786 10.6672 43.4956 10.7075C43.5047 10.7342 43.5047 10.7629 43.4956 10.7896C43.4863 10.8146 43.4729 10.838 43.4562 10.8591L41.8509 13.2651ZM40.5351 8.66772C40.5767 8.62399 40.6121 8.57515 40.6404 8.52247C40.6532 8.4727 40.6532 8.42068 40.6404 8.37091C40.6324 8.31684 40.6122 8.2651 40.5812 8.21935C40.5374 8.15176 40.4842 8.09016 40.4233 8.03621L40.0877 7.89728L39.5154 8.48458L39.7851 8.73087C39.8404 8.78348 39.905 8.82624 39.9759 8.85717C40.0322 8.86938 40.0906 8.86938 40.1469 8.85717C40.1999 8.85666 40.2518 8.84364 40.2983 8.81928C40.349 8.79476 40.3938 8.76035 40.4298 8.71824M39.6075 9.80444C39.6516 9.75427 39.6891 9.69913 39.7193 9.64025C39.7319 9.58192 39.7319 9.52174 39.7193 9.46342C39.7101 9.39592 39.6853 9.33122 39.6469 9.27397C39.595 9.19169 39.5282 9.11898 39.4496 9.05926L39.1996 8.80034L38.5417 9.43185L38.8904 9.74129C38.9451 9.79615 39.0098 9.84108 39.0812 9.8739C39.1362 9.90212 39.1966 9.91931 39.2588 9.92442C39.3173 9.93636 39.3779 9.93636 39.4364 9.92442C39.4963 9.89961 39.5501 9.86304 39.5943 9.81707M40.1075 10.2528C40.0361 10.3267 39.9542 10.3905 39.8641 10.4423C39.7807 10.4866 39.689 10.5145 39.5943 10.5244C39.5029 10.5401 39.4094 10.5401 39.318 10.5244C39.223 10.51 39.1302 10.4846 39.0417 10.4486C38.9488 10.4102 38.8587 10.3659 38.7719 10.316C38.6761 10.249 38.5838 10.1773 38.4956 10.1012L37.8706 9.53289C37.8503 9.51763 37.8334 9.49857 37.821 9.47686C37.8085 9.45515 37.8008 9.43124 37.7983 9.40659C37.7971 9.37826 37.8024 9.35003 37.8138 9.32387C37.8252 9.2977 37.8423 9.27421 37.8641 9.25503L39.7983 7.26577C39.8163 7.24389 39.8393 7.22626 39.8655 7.21422C39.8918 7.20218 39.9205 7.19605 39.9496 7.1963C40.0016 7.19702 40.0513 7.21745 40.0877 7.25314L40.6798 7.78361C40.8088 7.89263 40.9216 8.01797 41.0154 8.1562C41.092 8.25582 41.1458 8.36989 41.1733 8.4909C41.1995 8.59677 41.1995 8.70709 41.1733 8.81297C41.1353 8.92845 41.0674 9.03276 40.9759 9.11609C40.9254 9.1693 40.8679 9.216 40.8048 9.25503C40.7446 9.29203 40.6777 9.31774 40.6075 9.33081C40.5398 9.34022 40.4712 9.34022 40.4035 9.33081C40.3313 9.32297 40.2605 9.30598 40.193 9.28029C40.2449 9.35046 40.2869 9.4269 40.318 9.50763C40.3439 9.58736 40.3572 9.67039 40.3575 9.75392C40.3504 9.8404 40.3304 9.92546 40.2983 10.0065C40.2569 10.0977 40.199 10.1811 40.1272 10.2528M37.4562 7.22788C37.5412 7.102 37.6139 6.96881 37.6733 6.83003C37.7282 6.71728 37.7574 6.59454 37.7588 6.47007C37.7608 6.35731 37.7312 6.2461 37.6733 6.148C37.5988 6.03428 37.4973 5.93907 37.3772 5.87014C37.2716 5.79517 37.1474 5.74814 37.0169 5.73373C36.8865 5.71932 36.7543 5.73805 36.6338 5.78804C36.5163 5.84134 36.4094 5.91401 36.318 6.00275C36.2141 6.10259 36.1215 6.21266 36.0417 6.33114C35.9533 6.45836 35.8783 6.59376 35.818 6.7353C35.763 6.84805 35.7339 6.97079 35.7325 7.09526C35.7281 7.20829 35.7578 7.32012 35.818 7.41733C35.8943 7.52964 35.9954 7.6245 36.1141 7.6952C36.2292 7.77205 36.3627 7.81983 36.5022 7.83413C36.6236 7.84104 36.745 7.82162 36.8575 7.77729C36.978 7.72575 37.0874 7.65291 37.1798 7.56258C37.2822 7.45918 37.3747 7.34717 37.4562 7.22788ZM38.0548 7.56258C37.9224 7.76085 37.7607 7.93955 37.5746 8.09305C37.4144 8.22074 37.2285 8.31534 37.0285 8.37091C36.8316 8.41507 36.6268 8.41507 36.4298 8.37091C36.1948 8.32755 35.9711 8.23952 35.7719 8.11199C35.5825 7.99534 35.4137 7.85037 35.2719 7.68257C35.1558 7.53813 35.0768 7.36933 35.0417 7.18999C35.0138 6.99916 35.0318 6.80475 35.0943 6.62163C35.1698 6.39628 35.2807 6.18332 35.4233 5.99012C35.5494 5.79297 35.7096 5.61786 35.8969 5.47228C36.0535 5.34437 36.2378 5.2516 36.4364 5.20074C36.6329 5.15342 36.8386 5.15342 37.0351 5.20074C37.2706 5.24274 37.4946 5.33088 37.693 5.45965C37.8816 5.57234 38.0486 5.71549 38.1864 5.88277C38.3051 6.02574 38.3843 6.19517 38.4167 6.37534C38.4478 6.56315 38.4343 6.75528 38.3772 6.93739C38.3033 7.16219 38.1946 7.37506 38.0548 7.5689M35.4825 4.55028C35.4669 4.58806 35.4471 4.62406 35.4233 4.65764C35.4108 4.68219 35.3929 4.70377 35.3706 4.72079C35.3555 4.72428 35.3397 4.72428 35.3246 4.72079C35.3097 4.72611 35.2934 4.72611 35.2785 4.72079L34.2983 4.29136L33.1996 6.57743C33.2036 6.58976 33.2036 6.60298 33.1996 6.61532H33.1404H33.0417L32.8904 6.55217L32.7522 6.4827C32.7197 6.47007 32.6905 6.45066 32.6667 6.42586C32.6495 6.41232 32.6359 6.39499 32.6272 6.37534C32.6272 6.37534 32.6272 6.37534 32.6272 6.33114L33.8509 3.74826C33.8714 3.69788 33.9115 3.65711 33.9627 3.63459C34.0113 3.61597 34.0655 3.61597 34.1141 3.63459L35.5219 4.2661C35.5219 4.2661 35.5614 4.30399 35.5614 4.3482C35.5545 4.41725 35.532 4.48404 35.4956 4.54397M31.6075 4.37977C31.6532 4.23598 31.6819 4.08769 31.693 3.93772C31.7062 3.81473 31.6951 3.69044 31.6601 3.57144C31.6254 3.46481 31.5618 3.36893 31.4759 3.29358C31.3709 3.20899 31.2471 3.14851 31.1141 3.11676C30.9764 3.07952 30.8307 3.07952 30.693 3.11676C30.5753 3.14227 30.4665 3.19666 30.3772 3.27463C30.2797 3.35607 30.1993 3.45468 30.1404 3.56513C30.0759 3.69096 30.0231 3.82197 29.9825 3.95666C29.9402 4.09514 29.9094 4.23662 29.8904 4.37977C29.866 4.50075 29.866 4.62507 29.8904 4.74605C29.924 4.85496 29.9877 4.95313 30.0746 5.03023C30.1819 5.11511 30.3079 5.17556 30.443 5.20705C30.5789 5.24074 30.7215 5.24074 30.8575 5.20705C30.9762 5.1791 31.0866 5.12505 31.1798 5.04917C31.2761 4.96172 31.3562 4.85923 31.4167 4.74605C31.4917 4.62973 31.5555 4.50714 31.6075 4.37977ZM32.2654 4.53134C32.2003 4.75492 32.1005 4.96781 31.9693 5.16285C31.8648 5.35263 31.7162 5.51683 31.5351 5.64279C31.3628 5.74288 31.1696 5.8054 30.9693 5.82593C30.7474 5.84239 30.5243 5.81883 30.3114 5.75646C30.0935 5.70132 29.8867 5.61168 29.6996 5.49123C29.5414 5.38863 29.4125 5.24969 29.3246 5.08706C29.2382 4.91578 29.1932 4.72797 29.193 4.53765C29.1957 4.29596 29.2333 4.05579 29.3048 3.82405C29.3694 3.60135 29.4669 3.38868 29.5943 3.19254C29.7079 3.02658 29.8556 2.88473 30.0285 2.77574C30.2 2.67388 30.3936 2.61122 30.5943 2.5926C30.8162 2.57359 31.0399 2.59721 31.2522 2.66207C31.4672 2.71634 31.6717 2.80378 31.8575 2.92099C32.0138 3.02378 32.1405 3.1628 32.2259 3.32515C32.3136 3.49401 32.3608 3.67959 32.3641 3.86825C32.368 4.10787 32.3325 4.34658 32.2588 4.57554M28.0614 5.11232C28.0651 5.12471 28.0651 5.13783 28.0614 5.15022C28.042 5.15477 28.0217 5.15477 28.0022 5.15022H27.9035H27.7391H27.5812H27.4825C27.4631 5.14294 27.4469 5.12958 27.4364 5.11232C27.4316 5.10588 27.429 5.09815 27.429 5.09022C27.429 5.08229 27.4316 5.07456 27.4364 5.06812L27.6864 2.54208L26.9891 2.47893C26.9035 2.84521 26.8246 3.15465 26.7522 3.42619C26.6798 3.69774 26.6009 3.92509 26.522 4.12086C26.4643 4.28157 26.3893 4.43607 26.2983 4.58186C26.232 4.68755 26.1448 4.77979 26.0417 4.85341C25.9536 4.9195 25.8495 4.96297 25.7391 4.97971C25.6188 4.99296 25.4974 4.99296 25.3772 4.97971H25.3114L25.272 4.94182C25.2677 4.9146 25.2677 4.88694 25.272 4.85972C25.2686 4.81979 25.2686 4.77966 25.272 4.73973C25.272 4.67027 25.272 4.61343 25.272 4.57554C25.2626 4.5446 25.2626 4.51176 25.272 4.48082C25.2708 4.45869 25.2773 4.43681 25.2903 4.41855C25.3034 4.4003 25.3224 4.38667 25.3443 4.37977H25.3969C25.4469 4.38914 25.4983 4.38914 25.5483 4.37977C25.6051 4.35312 25.6564 4.31674 25.6996 4.27242C25.7577 4.19833 25.8063 4.11775 25.8443 4.03244C25.9151 3.89982 25.9703 3.76002 26.0088 3.61565C26.068 3.45146 26.1272 3.23674 26.193 2.98414C26.2588 2.73153 26.3246 2.43473 26.3969 2.09371C26.4086 2.0316 26.4357 1.9731 26.4759 1.9232C26.5202 1.906 26.5697 1.906 26.6141 1.9232L28.2062 2.06845C28.2316 2.06892 28.2566 2.07483 28.2794 2.08575C28.3021 2.09668 28.3221 2.11234 28.3377 2.1316C28.349 2.1554 28.3548 2.18124 28.3548 2.20738C28.3548 2.23352 28.349 2.25936 28.3377 2.28316L28.0614 5.11232ZM23.1798 2.48525L22.8246 3.83668L23.7456 3.77352L23.1798 2.48525ZM24.8509 4.65764C24.8509 4.71447 24.8904 4.76499 24.897 4.79657C24.9039 4.80809 24.9075 4.82116 24.9075 4.83446C24.9075 4.84776 24.9039 4.86083 24.897 4.87235C24.8727 4.89615 24.8396 4.90977 24.8048 4.91024H24.6075H24.4101H24.2983H24.2456C24.2444 4.89342 24.2444 4.87654 24.2456 4.85972L23.9825 4.22821L22.7193 4.37977L22.5614 5.01128C22.5651 5.03219 22.5651 5.05353 22.5614 5.07443C22.551 5.09169 22.5347 5.10505 22.5154 5.11232H22.4101H22.2391H22.0548C22.0211 5.11355 21.9881 5.10224 21.9627 5.08075C21.9569 5.06891 21.9539 5.05597 21.9539 5.04286C21.9539 5.02975 21.9569 5.01681 21.9627 5.00497C21.9554 4.95892 21.9554 4.91208 21.9627 4.86604L22.7259 2.04319C22.7211 2.02026 22.7211 1.99665 22.7259 1.97372C22.7412 1.95425 22.7617 1.939 22.7851 1.92952C22.8244 1.92455 22.8642 1.92455 22.9035 1.92952H23.1141H23.3443H23.4891C23.5168 1.93438 23.5422 1.94766 23.5614 1.96741C23.5787 1.98817 23.5921 2.01168 23.6009 2.03687L24.8509 4.65764ZM21.2456 5.13758C21.2522 5.15383 21.2522 5.17186 21.2456 5.18811L21.2062 5.23231L21.1075 5.2702C21.0597 5.29226 21.0087 5.30717 20.9562 5.31441C20.9047 5.32972 20.8518 5.34029 20.7983 5.34598H20.6996C20.6781 5.35231 20.6552 5.35231 20.6338 5.34598C20.6307 5.33353 20.6307 5.32055 20.6338 5.30809L20.2851 4.08296L19.1075 4.37977L19.4233 5.6049C19.4263 5.6119 19.4279 5.61941 19.4279 5.627C19.4279 5.6346 19.4263 5.64211 19.4233 5.64911L19.3772 5.69331L19.2851 5.73752L19.1338 5.78172H18.9759C18.941 5.78684 18.9055 5.78684 18.8706 5.78172C18.8512 5.78628 18.8309 5.78628 18.8114 5.78172C18.8085 5.7758 18.807 5.76933 18.807 5.76278C18.807 5.75623 18.8085 5.74975 18.8114 5.74383L18.0351 2.8831C18.0324 2.86848 18.0324 2.85351 18.0351 2.83889L18.0746 2.79469L18.1733 2.75679L18.3246 2.70627H18.4825H18.5877C18.6067 2.6989 18.628 2.6989 18.647 2.70627V2.74416L18.9364 3.85562L20.1141 3.57144L19.8246 2.45999C19.8215 2.45299 19.8199 2.44548 19.8199 2.43788C19.8199 2.43029 19.8215 2.42277 19.8246 2.41578C19.8338 2.39816 19.8473 2.38298 19.8641 2.37157L19.9562 2.32737L20.1141 2.28316L20.272 2.25159H20.3706C20.3896 2.24421 20.4109 2.24421 20.4298 2.25159H20.4627L21.2456 5.13758ZM13.1798 5.44702L12.897 5.64279C12.8015 5.69243 12.7148 5.75638 12.6404 5.83225C12.5959 5.87876 12.5642 5.9352 12.5483 5.99644C12.532 6.0522 12.532 6.11118 12.5483 6.16695C12.569 6.22601 12.5954 6.28309 12.6272 6.33745C12.6622 6.39082 12.7068 6.43785 12.7588 6.47638C12.8078 6.51063 12.8639 6.53433 12.9233 6.54585C12.9884 6.55827 13.0555 6.55827 13.1206 6.54585C13.2178 6.51477 13.3106 6.47235 13.397 6.41955L13.693 6.23641L13.1798 5.44702ZM15.1535 7.26577C15.1566 7.27277 15.1582 7.28028 15.1582 7.28787C15.1582 7.29547 15.1566 7.30298 15.1535 7.30998C15.1596 7.32632 15.1596 7.34415 15.1535 7.3605L15.0812 7.42996L14.9496 7.51837L14.8114 7.59416L14.7127 7.63205H14.647C14.6434 7.62179 14.6434 7.61073 14.647 7.60047L13.9891 6.61532L13.7851 6.74162C13.7168 6.77878 13.6566 6.82807 13.6075 6.88687C13.573 6.92985 13.5483 6.97934 13.5351 7.03211C13.5251 7.09278 13.5251 7.15458 13.5351 7.21525C13.5429 7.2918 13.5561 7.36775 13.5746 7.44259L13.7456 8.13725V8.2004C13.736 8.22333 13.7227 8.24464 13.7062 8.26356L13.6272 8.33302L13.4825 8.42143C13.4324 8.45487 13.3796 8.48444 13.3246 8.50984L13.2259 8.54773H13.1141H13.0812V8.4909C13.0675 8.45593 13.0565 8.42005 13.0483 8.38354L12.9167 7.75203C12.8974 7.67758 12.8864 7.60137 12.8838 7.52469C12.8772 7.45959 12.8772 7.39402 12.8838 7.32892C12.8953 7.27326 12.9107 7.2184 12.9298 7.16473C12.9515 7.1129 12.9803 7.06405 13.0154 7.01948C12.9213 7.04738 12.8242 7.06434 12.7259 7.07C12.639 7.08588 12.5497 7.08588 12.4627 7.07C12.3802 7.04258 12.3041 6.99964 12.2391 6.9437C12.1624 6.88381 12.0978 6.81106 12.0483 6.72899C11.9728 6.62014 11.9213 6.49765 11.897 6.36903C11.8747 6.24626 11.886 6.12005 11.9299 6.00275C11.977 5.87355 12.0484 5.7537 12.1404 5.64911C12.2872 5.50297 12.453 5.37562 12.6338 5.2702L13.2917 4.86604C13.3365 4.8516 13.385 4.8516 13.4298 4.86604C13.4586 4.87162 13.4855 4.8837 13.5084 4.90127C13.5313 4.91884 13.5495 4.9414 13.5614 4.96708L15.1535 7.26577ZM9.89038 7.93517L10.4693 9.19819L11.1404 8.63615L9.89038 7.93517ZM12.5877 8.69298C12.633 8.71491 12.675 8.74252 12.7127 8.77508C12.7245 8.78292 12.7342 8.79328 12.741 8.80534C12.7479 8.81739 12.7517 8.83082 12.7522 8.84454C12.7433 8.8762 12.725 8.9047 12.6996 8.92664C12.6996 8.96453 12.6206 9.00242 12.5614 9.05926C12.5119 9.10285 12.4591 9.14295 12.4035 9.17924L12.318 9.24239C12.2964 9.24774 12.2738 9.24774 12.2522 9.24239H12.1996L11.6009 8.91401L10.693 9.69077L10.9627 10.2781C10.9652 10.2991 10.9652 10.3202 10.9627 10.3412C10.9674 10.35 10.9698 10.3598 10.9698 10.3696C10.9698 10.3795 10.9674 10.3892 10.9627 10.3981C10.9457 10.4287 10.9234 10.4564 10.897 10.4802C10.897 10.5117 10.8246 10.5496 10.772 10.6001L10.6338 10.7075C10.6074 10.7271 10.5751 10.7382 10.5417 10.7391C10.5167 10.7324 10.4954 10.7165 10.4825 10.6949C10.4553 10.6555 10.4332 10.6131 10.4167 10.5686L9.24564 7.85939C9.23294 7.83827 9.22625 7.81431 9.22625 7.78992C9.22625 7.76554 9.23294 7.74158 9.24564 7.72046L9.32459 7.62573L9.4759 7.49311L9.65354 7.34787C9.68861 7.31679 9.72858 7.29121 9.77196 7.27209C9.798 7.26698 9.82486 7.26698 9.8509 7.27209L9.92985 7.30366L12.5877 8.69298ZM10.0285 11.1811C10.0315 11.187 10.033 11.1935 10.033 11.2001C10.033 11.2066 10.0315 11.2131 10.0285 11.219C10.0347 11.2396 10.0347 11.2615 10.0285 11.2822L9.98248 11.3643C9.95541 11.4087 9.9246 11.4509 9.89038 11.4906L9.77854 11.6042C9.75806 11.6288 9.73363 11.6502 9.70617 11.6674C9.68706 11.6742 9.66606 11.6742 9.64696 11.6674C9.63978 11.6707 9.63191 11.6725 9.62393 11.6725C9.61595 11.6725 9.60808 11.6707 9.6009 11.6674L8.56143 10.8843L7.80485 11.8L8.83117 12.5894C8.83409 12.5953 8.83561 12.6018 8.83561 12.6083C8.83561 12.6149 8.83409 12.6214 8.83117 12.6273C8.83117 12.6273 8.83117 12.6589 8.83117 12.6841C8.81984 12.7154 8.80436 12.7451 8.78511 12.7725C8.75804 12.817 8.72724 12.8592 8.69301 12.8988C8.65901 12.9396 8.62161 12.9776 8.58117 13.0125C8.56014 13.039 8.53316 13.0606 8.50222 13.0757C8.48519 13.0814 8.46662 13.0814 8.44959 13.0757C8.4423 13.0786 8.43447 13.0801 8.42656 13.0801C8.41865 13.0801 8.41082 13.0786 8.40354 13.0757L6.02196 11.2443C6.0077 11.2347 5.99635 11.2216 5.98906 11.2064C5.98349 11.1857 5.98349 11.1639 5.98906 11.1432C5.98906 11.1432 5.98906 11.0927 6.03512 11.0548L6.12722 10.9348L6.23248 10.8149C6.25895 10.7914 6.28758 10.7702 6.31801 10.7517H6.37064H6.41669L7.3509 11.4716L8.10748 10.5559L7.19301 9.83601C7.19301 9.83601 7.19301 9.83601 7.19301 9.79812C7.1868 9.7775 7.1868 9.7556 7.19301 9.73497C7.20594 9.70642 7.22134 9.67895 7.23906 9.65288C7.26708 9.60746 7.30017 9.56511 7.33775 9.52657L7.44301 9.40659L7.51538 9.34344H7.58117H7.62722L10.0285 11.1811ZM6.87064 13.7893C6.80479 13.7541 6.73383 13.7285 6.66011 13.7135C6.59758 13.6977 6.53186 13.6977 6.46933 13.7135C6.39926 13.7333 6.33578 13.7703 6.28512 13.8208C6.20507 13.8986 6.13844 13.9882 6.08775 14.0861L5.87722 14.4271L6.78512 14.9133L6.9759 14.5786C7.03815 14.4813 7.08265 14.3746 7.10748 14.2629C7.12504 14.1944 7.12504 14.1229 7.10748 14.0545C7.08913 13.9947 7.05516 13.9403 7.0088 13.8966C6.97069 13.8523 6.92371 13.8158 6.87064 13.7893ZM7.15354 13.1893C7.27741 13.2602 7.39035 13.3473 7.48906 13.4482C7.57917 13.5487 7.64439 13.6675 7.67985 13.7956C7.71293 13.9433 7.71293 14.0962 7.67985 14.2439C7.62928 14.466 7.5427 14.6791 7.42327 14.8755L7.02854 15.5575L6.9759 15.6206C6.9568 15.6274 6.9358 15.6274 6.91669 15.6206C6.89077 15.6268 6.86367 15.6268 6.83775 15.6206C6.80732 15.6263 6.77606 15.6263 6.74564 15.6206L4.16012 14.2313V14.1745C4.16851 14.1393 4.18179 14.1053 4.19959 14.0734C4.21993 14.0274 4.24413 13.9831 4.27196 13.9408C4.295 13.8949 4.32138 13.8506 4.35091 13.8082L4.41669 13.7324C4.43372 13.7266 4.4523 13.7266 4.46933 13.7324C4.48625 13.7261 4.50504 13.7261 4.52196 13.7324L5.48248 14.2503L5.70617 13.865C5.7989 13.6978 5.9139 13.5428 6.04827 13.404C6.14647 13.307 6.26544 13.2316 6.39696 13.183C6.51838 13.1381 6.64899 13.1208 6.77854 13.1325C6.92187 13.1441 7.06096 13.185 7.18643 13.2525M6.43643 16.5111C6.43643 16.5111 6.43643 16.5111 6.4759 16.5111C6.51538 16.5111 6.4759 16.5426 6.4759 16.5679C6.47796 16.6016 6.47796 16.6353 6.4759 16.6689C6.46122 16.7183 6.44365 16.7668 6.42327 16.8142C6.40693 16.8638 6.38715 16.9123 6.36406 16.9594C6.35152 16.9882 6.3361 17.0157 6.31801 17.0415C6.3039 17.058 6.28584 17.071 6.26538 17.0794C6.2582 17.0828 6.25033 17.0845 6.24235 17.0845C6.23437 17.0845 6.2265 17.0828 6.21933 17.0794L3.73906 16.2521L3.5088 16.8837C3.85748 17.0542 4.1667 17.2057 4.40354 17.3383C4.64038 17.471 4.87064 17.6036 5.06143 17.7172C5.20795 17.8166 5.3465 17.9264 5.47591 18.0456C5.56598 18.1325 5.6375 18.2355 5.68643 18.3488C5.73191 18.4479 5.75003 18.5567 5.73906 18.6645C5.72933 18.7811 5.70276 18.8959 5.66012 19.0055C5.65065 19.0232 5.63965 19.0401 5.62722 19.056C5.62183 19.0651 5.61421 19.0727 5.60503 19.0782C5.59585 19.0837 5.58539 19.0869 5.57459 19.0876C5.5487 19.094 5.52153 19.094 5.49564 19.0876L5.37064 19.0497L5.21933 18.9866C5.18513 18.9764 5.15368 18.9592 5.12722 18.9361C5.11553 18.9353 5.10415 18.9321 5.09391 18.9267C5.08367 18.9212 5.07482 18.9136 5.06801 18.9045C5.06482 18.8899 5.06482 18.8749 5.06801 18.8603C5.07761 18.8123 5.07761 18.763 5.06801 18.715C5.06012 18.6549 5.03508 18.5981 4.99564 18.5508C4.93659 18.4757 4.86809 18.4078 4.79169 18.3488C4.67313 18.2561 4.54781 18.1717 4.41669 18.0962C4.2588 18.0035 4.06143 17.8962 3.82459 17.7741C3.58775 17.6478 3.30485 17.5152 2.98248 17.3573C2.92223 17.3364 2.86964 17.2991 2.83117 17.2499C2.8214 17.228 2.81636 17.2043 2.81636 17.1805C2.81636 17.1566 2.8214 17.133 2.83117 17.111L3.37064 15.6648C3.37838 15.6413 3.39116 15.6196 3.40816 15.6011C3.42515 15.5827 3.44599 15.5678 3.46933 15.5575C3.49412 15.5467 3.52104 15.5411 3.54827 15.5411C3.57551 15.5411 3.60243 15.5467 3.62722 15.5575L6.43643 16.5111ZM2.62722 20.4391L3.90354 21.1085L4.06143 20.237L2.62722 20.4391ZM5.2588 19.4223C5.3091 19.4173 5.35981 19.4173 5.41012 19.4223C5.41012 19.4223 5.46933 19.4223 5.48248 19.4539C5.49564 19.4855 5.48248 19.5044 5.48248 19.5486C5.48248 19.5928 5.48248 19.656 5.48248 19.7318C5.48248 19.8075 5.44959 19.877 5.44301 19.9212C5.43643 19.9654 5.44301 20.0033 5.44301 20.0286L5.40354 20.0665C5.38434 20.0727 5.36352 20.0727 5.34433 20.0665L4.68643 20.1612L4.47591 21.3232L5.06801 21.62H5.12064C5.12538 21.6386 5.12538 21.6581 5.12064 21.6768C5.12723 21.7102 5.12723 21.7445 5.12064 21.7779C5.12556 21.8325 5.12556 21.8874 5.12064 21.942C5.11179 21.9997 5.0986 22.0567 5.08117 22.1126C5.07997 22.1286 5.07525 22.1442 5.06731 22.1583C5.05938 22.1725 5.0484 22.1849 5.03512 22.1947C5.00749 22.2043 4.97721 22.2043 4.94959 22.1947L4.81801 22.1315L2.05485 20.7548L1.98906 20.7106C1.98321 20.6878 1.98321 20.664 1.98906 20.6411C1.98311 20.6035 1.98311 20.5651 1.98906 20.5275C1.98906 20.4769 1.98906 20.4138 1.98906 20.3317C1.98906 20.2496 1.98906 20.1612 2.03512 20.1044C2.04552 20.0615 2.0587 20.0193 2.07459 19.9781C2.08869 19.9564 2.10648 19.9372 2.12722 19.9212C2.15523 19.914 2.18474 19.914 2.21275 19.9212L5.2588 19.4223ZM2.73248 23.0598C2.63511 23.0508 2.53706 23.0683 2.44959 23.1103C2.38421 23.1408 2.32771 23.1864 2.28512 23.243C2.24595 23.2975 2.22112 23.3603 2.21275 23.4261C2.20563 23.4891 2.20563 23.5526 2.21275 23.6155V23.8871H3.31143V23.6029C3.30246 23.5222 3.28026 23.4433 3.24564 23.3693C3.22348 23.3063 3.18499 23.2498 3.1338 23.2051C3.08166 23.1563 3.01867 23.1196 2.94959 23.0977C2.87581 23.072 2.79782 23.0592 2.71933 23.0598M2.71933 22.3904C2.88408 22.3937 3.04683 22.4258 3.19959 22.4851C3.33379 22.5436 3.45286 22.6299 3.54827 22.7377C3.64797 22.8516 3.7199 22.9853 3.7588 23.1293C3.80735 23.3042 3.82733 23.4853 3.81801 23.6661V23.9566H4.85748C4.87025 23.9522 4.88419 23.9522 4.89696 23.9566C4.90302 23.9751 4.90302 23.9949 4.89696 24.0134C4.89943 24.0449 4.89943 24.0766 4.89696 24.1081C4.9003 24.1586 4.9003 24.2092 4.89696 24.2597C4.90102 24.3122 4.90102 24.365 4.89696 24.4176C4.90131 24.449 4.90131 24.4809 4.89696 24.5123C4.90017 24.529 4.90017 24.5461 4.89696 24.5628H4.85091L1.92327 24.487C1.89178 24.4883 1.86034 24.4834 1.83092 24.4725C1.8015 24.4616 1.77471 24.4451 1.75222 24.4239C1.7128 24.3801 1.6917 24.3238 1.69301 24.266V23.5271V23.3187C1.70174 23.2381 1.71492 23.158 1.73249 23.0788C1.76031 22.982 1.80006 22.8887 1.85091 22.8009C1.90228 22.7091 1.97151 22.6277 2.05485 22.5609C2.13652 22.4912 2.23307 22.4395 2.33775 22.4094C2.45542 22.3775 2.57736 22.3626 2.69959 22.3652M4.67327 25.4027H4.79827H4.87722C4.89236 25.3992 4.90814 25.3992 4.92327 25.4027C4.92635 25.4097 4.92793 25.4172 4.92793 25.4248C4.92793 25.4324 4.92635 25.4399 4.92327 25.4469L5.11406 27.0004C5.11852 27.0498 5.10453 27.099 5.07459 27.1394C5.05825 27.1619 5.03667 27.1805 5.01155 27.1937C4.98642 27.2068 4.95845 27.2142 4.92985 27.2151L2.10749 27.5246C2.079 27.5325 2.04886 27.5332 2.02003 27.5265C1.99119 27.5199 1.96465 27.5062 1.94301 27.4867C1.90734 27.4552 1.8841 27.4128 1.87722 27.3667L1.72591 25.8511C1.72283 25.8386 1.72283 25.8257 1.72591 25.8132C1.73593 25.7995 1.74955 25.7886 1.76538 25.7816C1.79147 25.777 1.81823 25.777 1.84433 25.7816H1.96933H2.08775H2.1667C2.18164 25.7768 2.19781 25.7768 2.21275 25.7816C2.21726 25.7939 2.21726 25.8073 2.21275 25.8195L2.35091 26.9247L3.1338 26.8362L3.04827 25.889C3.04326 25.8746 3.04326 25.8591 3.04827 25.8448L3.08775 25.8132C3.11152 25.8076 3.13635 25.8076 3.16012 25.8132H3.27854H3.47591H3.52196V25.8511L3.6338 26.7857L4.56143 26.6721L4.42985 25.5543C4.42666 25.5397 4.42666 25.5246 4.42985 25.5101C4.43988 25.4964 4.45349 25.4855 4.46933 25.4785C4.49542 25.4739 4.52218 25.4739 4.54827 25.4785H4.66669M2.92327 29.6401L3.1338 30.3411L3.7917 30.2464L4.30485 30.1959H4.69301H4.98248L5.21933 30.2085L5.39038 30.2653L5.02196 29.0465L2.92327 29.6401ZM5.98906 27.7456H6.02854C6.0436 27.7416 6.05953 27.7416 6.07459 27.7456C6.09171 27.7688 6.10502 27.7943 6.11406 27.8214L6.16012 27.9477C6.16012 28.0045 6.16011 28.0424 6.19301 28.0803C6.19584 28.1097 6.19584 28.1393 6.19301 28.1687C6.19674 28.1854 6.19674 28.2026 6.19301 28.2192H6.15354L5.41669 28.4213L6.0088 30.4169L6.73906 30.2717H6.78512C6.80347 30.2805 6.81929 30.2935 6.83117 30.3095L6.87064 30.3853L6.91669 30.5116C6.91669 30.5685 6.91669 30.6127 6.94959 30.6506C6.9524 30.6779 6.9524 30.7054 6.94959 30.7327C6.95435 30.7492 6.95435 30.7666 6.94959 30.7832H6.91011L5.78512 31.0926C5.76936 31.1022 5.75111 31.1072 5.73248 31.1072C5.71386 31.1072 5.69561 31.1022 5.67985 31.0926C5.66514 31.0845 5.65231 31.0736 5.64213 31.0606C5.63195 31.0475 5.62464 31.0327 5.62064 31.0168L5.57459 30.9032C5.50881 30.8776 5.44047 30.8585 5.37064 30.8463C5.29449 30.8201 5.21463 30.8052 5.1338 30.8021H4.82459H4.39038C4.22591 30.8021 4.02854 30.84 3.79827 30.8716C3.56801 30.9032 3.30485 30.9411 3.00222 30.9916C2.9462 31.0061 2.88719 31.0061 2.83117 30.9916C2.8082 30.9827 2.78814 30.968 2.77309 30.9491C2.75804 30.9303 2.74856 30.9078 2.74564 30.8842L2.28512 29.3497C2.27358 29.3282 2.26756 29.3044 2.26756 29.2802C2.26756 29.256 2.27358 29.2322 2.28512 29.2107C2.31606 29.1666 2.36295 29.1351 2.4167 29.1223L4.83117 28.4908L4.75222 28.2382C4.74358 28.2226 4.73906 28.2053 4.73906 28.1877C4.73906 28.1701 4.74358 28.1527 4.75222 28.1372C4.75222 28.1372 4.79827 28.0993 4.83775 28.0866L5.98906 27.7456ZM6.15354 31.5347L6.26538 31.4905H6.34433H6.39696H6.42985L7.12722 32.9114C7.14326 32.9564 7.14326 33.0053 7.12722 33.0503C7.11874 33.0771 7.1035 33.1015 7.08284 33.1214C7.06219 33.1412 7.03675 33.1558 7.0088 33.164L4.44301 34.3259C4.4162 34.3378 4.38702 34.344 4.35748 34.344C4.32795 34.344 4.29877 34.3378 4.27196 34.3259C4.22618 34.3044 4.18916 34.2688 4.1667 34.2249L3.5088 32.8103C3.50572 32.7979 3.50572 32.7849 3.5088 32.7724C3.50664 32.7578 3.50664 32.7429 3.5088 32.7282L3.57459 32.6777L3.68643 32.6209L3.79827 32.5767H3.87722H3.90354L4.40354 33.5808L5.12064 33.2587L4.69959 32.4062C4.69596 32.3916 4.69596 32.3765 4.69959 32.362V32.3177L4.76538 32.2672L4.87064 32.2167L4.98248 32.1725H5.05485H5.10748C5.10979 32.1829 5.10979 32.1937 5.10748 32.2041L5.52196 33.0629L6.3509 32.684L5.8509 31.6673C5.84783 31.6603 5.84624 31.6528 5.84624 31.6452C5.84624 31.6376 5.84783 31.6301 5.8509 31.6231C5.8509 31.6231 5.8509 31.6231 5.8509 31.5789L5.91669 31.5284L6.15354 31.5347ZM6.67327 36.7067C6.74689 36.7869 6.83354 36.8552 6.92985 36.9088C7.00721 36.9557 7.09525 36.9839 7.18643 36.9909C7.26677 37.0064 7.34951 37.0064 7.42985 36.9909C7.51221 36.9645 7.58987 36.9262 7.66012 36.8772C7.74347 36.8219 7.81871 36.7561 7.8838 36.6815C7.94088 36.6202 7.98153 36.5465 8.00222 36.4668C8.02196 36.3836 8.02196 36.2973 8.00222 36.2142C7.98116 36.1073 7.9411 36.0048 7.8838 35.911L6.67327 36.7067ZM6.53512 35.229C6.45427 35.2801 6.3812 35.3417 6.31801 35.4121C6.26093 35.4734 6.22028 35.5471 6.19959 35.6269C6.17962 35.71 6.17962 35.7963 6.19959 35.8795C6.22065 35.9863 6.26071 36.0888 6.31801 36.1826L7.54169 35.3679C7.46989 35.2842 7.38298 35.2137 7.28512 35.1595C7.20841 35.1192 7.12411 35.094 7.03713 35.0853C6.95014 35.0766 6.86223 35.0847 6.77854 35.109C6.69388 35.1376 6.61408 35.1781 6.54169 35.229M6.12722 34.6922C6.26485 34.5956 6.42154 34.5268 6.58775 34.4901C6.73949 34.4585 6.89653 34.4585 7.04827 34.4901C7.21118 34.5238 7.36549 34.5882 7.50222 34.6796C7.66789 34.7892 7.81633 34.9211 7.94301 35.0711L8.24564 34.8627C8.26256 34.8564 8.28135 34.8564 8.29827 34.8627C8.3153 34.8569 8.33388 34.8569 8.3509 34.8627L8.42327 34.9259L8.51538 35.0522C8.54827 35.1027 8.58117 35.1406 8.6009 35.1785C8.61699 35.2045 8.63022 35.232 8.64038 35.2606C8.64595 35.2813 8.64595 35.303 8.64038 35.3237C8.63372 35.3393 8.62223 35.3525 8.60748 35.3616L8.29827 35.57C8.40756 35.7286 8.49388 35.9007 8.55485 36.0815C8.60496 36.2302 8.62068 36.3875 8.6009 36.5425C8.58063 36.6899 8.52427 36.8306 8.43643 36.953C8.3313 37.0928 8.20229 37.2145 8.05485 37.313C7.92044 37.4042 7.76831 37.4687 7.60748 37.5024C7.45797 37.5341 7.30305 37.5341 7.15354 37.5024C6.99101 37.471 6.83667 37.4088 6.69959 37.3193C6.53271 37.2111 6.38406 37.0791 6.2588 36.9278L5.96275 37.1235H5.91669C5.89926 37.1262 5.88149 37.1262 5.86406 37.1235C5.83907 37.1032 5.81695 37.0799 5.79827 37.0541C5.76044 37.0181 5.7273 36.9778 5.69959 36.9341L5.61406 36.8078C5.59654 36.7803 5.58324 36.7505 5.57459 36.7194C5.56996 36.7105 5.56755 36.7008 5.56755 36.6909C5.56755 36.6811 5.56996 36.6713 5.57459 36.6625L5.87722 36.4541C5.77923 36.2976 5.70189 36.13 5.64696 35.9552C5.59685 35.8066 5.58113 35.6493 5.6009 35.4942C5.61573 35.3466 5.67013 35.2052 5.7588 35.0838C5.85724 34.9339 5.98188 34.8014 6.12722 34.6922Z" fill="white"/>
<path d="M35.2654 39.0749L35.1667 38.9612C34.971 38.7791 34.7352 38.6415 34.4768 38.5584C34.2183 38.4753 33.9437 38.449 33.6733 38.4813C33.2824 38.4869 32.8936 38.5378 32.5154 38.6328C32.1404 38.7212 31.6733 38.8665 31.1141 39.0496C31.0552 38.9295 30.9775 38.8188 30.8838 38.7212C30.5954 38.479 30.2572 38.2977 29.8911 38.1889C29.5251 38.0801 29.1393 38.0463 28.7588 38.0897C26.9497 38.1825 25.1701 38.5689 23.4956 39.2328C22.3397 39.6916 21.1076 39.9483 19.8575 39.9906C18.6178 39.9631 17.4149 39.5805 16.4035 38.8918L15.9496 38.6328L15.3772 38.3044L15.272 38.936L14.0877 45.6047L14.5154 45.7815L14.7193 44.6259L15.6864 39.0054L16.1404 39.2643C16.9099 39.7531 17.7696 40.096 18.6733 40.2748C19.0684 40.3431 19.4692 40.3769 19.8706 40.3758C21.1729 40.3327 22.4564 40.0653 23.6601 39.5864C25.2852 38.9456 27.0111 38.572 28.7654 38.4813C29.0544 38.4763 29.3431 38.4996 29.6272 38.5507C29.9803 38.5926 30.3089 38.7459 30.5614 38.9865C30.7145 39.1477 30.8031 39.3558 30.8114 39.5738C31.5022 39.3528 32.1272 39.138 32.6272 39.0307C32.9692 38.946 33.3202 38.8994 33.6733 38.8918H33.9825L34.1798 38.9233C34.3274 38.9497 34.4696 38.9987 34.6009 39.0686C34.7391 39.138 35.0154 38.8918 35.0154 38.8918L33.8114 46.4699L34.2127 46.3057C34.2456 46.1225 34.2719 45.9331 34.3048 45.731C34.4364 44.9542 34.5417 44.3922 34.5417 44.3859V44.2406V44.0638C34.6338 43.527 34.7193 42.9966 34.8048 42.4977C35.0483 41.0073 35.2588 39.7948 35.2851 39.618V39.4727V39.277L35.2654 39.0749Z" fill="#0066B3"/>
<path d="M24.9562 41.4241C20.2074 41.3841 15.6636 39.5618 12.2966 36.3471C8.92971 33.1324 7.00707 28.7805 6.94002 24.2225C6.87298 19.6645 8.66684 15.2623 11.9379 11.9577C15.2089 8.65298 19.6973 6.70826 24.443 6.53954H24.9759C29.755 6.53326 34.3443 8.33449 37.7497 11.5531C41.1552 14.7717 43.1025 19.1485 43.17 23.7355C43.2375 28.3225 41.4197 32.7503 38.1103 36.06C34.8009 39.3696 30.2665 41.2945 25.4891 41.4178H24.9562M24.9562 41.8472H25.5022C30.4002 41.7225 35.0496 39.7501 38.4431 36.3576C41.8366 32.965 43.7006 28.4256 43.6314 23.7229C43.5622 19.0201 41.5652 14.533 38.0732 11.2339C34.5812 7.93474 29.8756 6.0893 24.9759 6.09748H24.4298C19.4902 6.16447 14.7806 8.1123 11.3371 11.5124C7.89355 14.9126 5.99822 19.4866 6.06801 24.2281C6.1378 28.9697 8.16701 33.4904 11.7092 36.7958C15.2514 40.1012 20.0165 41.9205 24.9562 41.8535" fill="white"/>
<path d="M28.7654 38.4813C29.0823 38.4441 29.4037 38.4692 29.7102 38.5549C30.0167 38.6407 30.3018 38.7854 30.5483 38.9802C30.7043 39.1446 30.793 39.3577 30.7983 39.5801C31.4956 39.3528 32.1141 39.138 32.6272 39.0307C32.9692 38.946 33.3202 38.8994 33.6733 38.8918C34.4759 38.8918 34.6667 39.0496 34.7259 39.1065L35.0154 38.9044L33.3969 48.7812L32.9627 48.5475C32.7251 48.4298 32.4604 48.3712 32.193 48.377C31.1338 48.4915 30.102 48.7754 29.1404 49.2169C28.4332 49.537 27.6921 49.7826 26.9298 49.9495C26.7252 49.9801 26.5185 49.997 26.3114 50C25.3575 50 25.2062 49.5074 25.1864 49.2611L25.2456 48.7496L24.4825 49.0275C23.9759 49.2169 23.4956 49.3937 23.0746 49.5327C22.2254 49.7992 21.3363 49.9294 20.443 49.9179C18.2566 49.9513 16.1074 49.3719 14.2588 48.2507L14.0877 48.1307L15.6601 39.0054L16.1141 39.2643C17.2251 39.9914 18.5392 40.3788 19.8838 40.3758C21.186 40.3327 22.4696 40.0653 23.6733 39.5864C25.2944 38.9476 27.0156 38.574 28.7654 38.4813Z" fill="white"/>
<path d="M26.0614 45.4847L25.5417 49.0717C25.4035 49.7032 26.1996 49.7032 26.8575 49.6211C28.5614 49.3748 31.5417 47.4171 33.1075 48.257C33.3377 46.4699 33.7654 44.1838 33.7654 44.1838C33.7654 44.1838 33.3772 43.666 31.9101 44.007C30.443 44.348 27.1667 45.6994 26.068 45.4847" fill="#ED1C24"/>
<path d="M33.5943 45.2132C33.7588 44.2154 33.9298 43.1481 34.0877 42.2009C33.79 42.0579 33.4655 41.9737 33.1333 41.9531C32.8011 41.9325 32.4679 41.9759 32.1535 42.0809C30.7259 42.4156 27.6009 43.6912 26.4233 43.5712L25.9891 46.2425C26.1206 46.6783 26.6469 46.7856 27.3443 46.7288C29.0483 46.5962 32.0219 44.4301 33.5943 45.2132Z" fill="#0066B3"/>
<path d="M25.5022 49.3053C25.6075 48.6233 26.5877 48.598 27.2325 48.6296C27.8772 48.6612 29.0746 48.6296 29.1733 48.1434C29.2917 47.474 29.3443 46.653 29.3443 46.653L25.9364 46.6909L25.5022 49.3053Z" fill="#BE1E2D"/>
<path d="M14.4825 47.9855L15.272 43.4513C16.647 44.2343 18.8048 45.3458 23.2127 43.7228C26.7456 42.4219 30.0285 42.1882 29.8706 43.5333L29.1469 48.1749C29.4101 46.5835 25.1996 48.4844 22.9693 49.2296C20.568 50.0316 16.6009 49.4506 14.4825 47.9665" fill="#ED1C24"/>
<path d="M23.3706 42.7818C19.1075 44.348 16.8706 42.9524 15.4759 42.1503L14.9627 45.0869C16.1965 45.8602 17.6075 46.3344 19.0743 46.4686C20.5412 46.6028 22.0201 46.393 23.3838 45.8573C25.3575 45.1247 29.2193 43.8491 29.6469 44.9921C29.7983 44.0322 29.9496 43.0155 30.0812 42.1314C29.5351 41.2662 26.4891 41.6262 23.3575 42.7629" fill="#0066B3"/>
<path d="M33.3048 26.8362C33.3048 26.7984 33.2259 26.6531 33.1338 26.4573C33.21 26.5003 33.2891 26.5382 33.3706 26.571L33.5154 26.8173C33.446 26.8253 33.3776 26.8401 33.3114 26.8615M31.6272 26.8615C31.6272 26.5268 31.5417 26.3121 31.4364 25.5985C31.6159 26.0505 31.7675 26.5123 31.8904 26.9815C31.8052 26.9454 31.7172 26.9159 31.6272 26.8931M30.8772 30.9663C30.8772 30.9663 30.8772 30.9663 30.8772 31.0168ZM30.8772 31.4652C30.8798 31.44 30.8798 31.4146 30.8772 31.3894C30.8735 31.4103 30.8735 31.4317 30.8772 31.4526M33.2325 33.7071L32.8509 34.5091L32.4101 34.307L32.7062 33.6755C32.8918 33.6986 33.0797 33.6986 33.2654 33.6755M33.6733 33.5618L33.568 33.7765L33.3246 33.6692C33.4448 33.6467 33.5619 33.6107 33.6733 33.5618ZM20.3509 35.6458C20.3722 35.5671 20.4181 35.4966 20.4825 35.4437C20.4743 35.4897 20.4743 35.5367 20.4825 35.5826L20.3509 35.6458ZM19.0614 31.4147C19.0651 31.3938 19.0651 31.3724 19.0614 31.3515C19.065 31.3767 19.065 31.4022 19.0614 31.4273M17.2654 28.314L16.7654 28.0929C16.7388 27.9774 16.6861 27.8689 16.6111 27.7751C16.5361 27.6813 16.4405 27.6044 16.3312 27.5498C16.3724 27.4726 16.3893 27.3855 16.38 27.2992C16.3706 27.2129 16.3354 27.1311 16.2785 27.0636C16.5417 26.7415 16.9891 25.8006 17.4891 25.0428C17.3772 25.8574 15.9298 26.9373 17.0746 27.7267C17.8246 27.6193 18.2259 26.7605 18.522 25.5795C18.6667 25.8574 17.7654 27.0762 18.9891 27.4741C19.5285 27.3793 19.9233 26.3752 19.7851 25.6237C19.8452 25.6618 19.9024 25.704 19.9562 25.75C20.1206 25.5795 20.4496 25.5795 20.568 25.3585L20.6798 25.428C21.0483 26.0153 21.0746 27.1267 20.568 27.5309C20.7184 27.5383 20.8687 27.5146 21.0088 27.4614C21.0088 27.4614 21.0088 27.4614 20.943 27.5625L20.897 27.6319C20.6141 27.8909 20.5351 27.9603 19.7127 27.8467C19.7232 27.9336 19.7523 28.0174 19.7983 28.0929C19.3904 28.2571 18.7259 28.2319 18.5417 29.3054C18.5317 29.2918 18.518 29.2809 18.5022 29.2739H18.4693C18.4693 29.2739 18.4167 29.2739 18.4101 29.2297C18.4035 29.1855 18.4101 29.1791 18.3641 29.1665H18.1996L18.0746 29.2486C17.9693 29.2928 17.9825 29.1918 17.7983 29.4444C17.7983 29.4444 17.7983 29.4444 17.7983 29.5454H17.7522L17.5812 29.4633C17.5282 29.4484 17.4773 29.4272 17.4298 29.4002L17.2259 29.3433L17.3246 29.3875L17.5548 29.4886L17.693 29.5454L17.7193 29.6401L17.1667 29.3939H17.1338C17.0927 29.3694 17.0485 29.3503 17.0022 29.337L16.7983 29.2802L17.2654 28.314ZM34.6864 26.0469C34.6734 26.0815 34.6734 26.1195 34.6864 26.1542L34.6272 26.0721C34.6392 26.0092 34.6637 25.9492 34.6996 25.8953L34.7391 25.9395C34.7124 25.9705 34.6943 26.0074 34.6864 26.0469ZM32.943 26.0469L33.1141 26.11L33.2193 26.2995H33.068L32.943 26.0342M29.3706 27.8719C29.1836 27.7889 29.0324 27.646 28.943 27.4678C29.0831 27.5209 29.2334 27.5446 29.3838 27.5372C28.8772 27.133 28.9035 26.0216 29.2719 25.4343L29.3838 25.3648C29.5022 25.5859 29.8312 25.5859 29.9956 25.7564C30.0494 25.7103 30.1066 25.6681 30.1667 25.6301C30.1718 26.0776 30.2026 26.5245 30.2588 26.9689C29.8682 27.169 29.5563 27.4861 29.3706 27.8719ZM31.1733 34.5659L30.3048 34.1807L30.8772 32.9492C31.1281 33.1453 31.4019 33.3127 31.693 33.4481L31.1733 34.5659ZM19.0877 31.2252V31.2947C19.0901 31.2779 19.0901 31.2609 19.0877 31.2442M34.2193 25.5038L34.4233 25.5606L34.4759 25.6237L34.2654 25.5669C34.2539 25.5435 34.2383 25.5221 34.2193 25.5038ZM32.6667 25.5038L32.7851 25.5669L32.9167 25.7943H32.8048C32.761 25.6932 32.7149 25.5985 32.6667 25.5101M30.2654 31.2884C30.2623 31.3178 30.2623 31.3474 30.2654 31.3768C30.269 31.3474 30.269 31.3177 30.2654 31.2884ZM27.8509 35.1216L28.2456 35.3237C28.2456 35.3237 28.1272 35.4753 27.7193 35.4753C27.7163 35.3691 27.7031 35.2634 27.6798 35.1595H27.8246M23.8772 34.3638L24.2456 34.187C24.1722 34.4931 24.1172 34.8031 24.0812 35.1153C23.9607 35.1248 23.8397 35.1248 23.7193 35.1153C23.7465 34.8584 23.7994 34.6047 23.8772 34.3575M21.7391 35.3237L21.9496 35.2227C21.9457 35.2963 21.9457 35.3701 21.9496 35.4437C21.9099 35.4376 21.872 35.4238 21.838 35.4032C21.8041 35.3826 21.7749 35.3555 21.7522 35.3237M24.2127 33.4734L24.4035 33.5555C24.4004 33.587 24.4004 33.6187 24.4035 33.6502L24.1009 33.7955C24.1404 33.6881 24.1864 33.5808 24.2325 33.4734M28.1141 29.8991C27.5084 29.8353 26.8999 29.9932 26.4101 30.3411C26.475 30.1896 26.5753 30.0544 26.7033 29.9461C26.8314 29.8378 26.9837 29.7592 27.1484 29.7164C27.3132 29.6737 27.486 29.6679 27.6534 29.6996C27.8209 29.7313 27.9785 29.7995 28.1141 29.8991ZM27.0614 32.343C26.8306 32.2435 26.6103 32.123 26.4035 31.983H26.4364H26.5877C26.8274 31.9985 27.0514 32.1027 27.2127 32.2735L27.0614 32.343ZM24.0351 32.343H23.9759C24.0417 32.2735 24.1075 32.2041 24.1667 32.1283C24.1206 32.1978 24.0812 32.2672 24.0351 32.3304M24.6469 32.3304C24.6469 32.2609 24.693 32.1914 24.7062 32.122C24.7062 32.1914 24.7062 32.2609 24.7062 32.3304M26.5417 33.0377L26.7719 32.9303C27.0424 33.11 27.2879 33.3223 27.5022 33.5618C27.1955 33.4496 26.9003 33.31 26.6206 33.145L26.5417 33.0503M26.3772 32.6524V32.6714ZM25.2785 32.1662C25.3066 32.29 25.3418 32.4123 25.3838 32.5325H25.3312C25.3312 32.4188 25.2917 32.3051 25.2785 32.1851M27.318 30.859C27.4562 31.301 27.7193 31.7052 28.6864 31.2884C28.6854 31.3754 28.7156 31.4602 28.7719 31.5284L27.2983 32.2293C27.2983 31.7873 26.943 31.5978 26.6404 31.3957C26.7456 31.2568 26.6404 31.1937 27.2983 30.8274M27.2983 30.8274C27.544 30.7644 27.8026 30.7644 28.0483 30.8274C27.9349 30.8925 27.8053 30.9269 27.6733 30.9269C27.5412 30.9269 27.4116 30.8925 27.2983 30.8274ZM29.0154 31.2505L29.1075 31.32H29.1469L28.9233 31.4273C28.9503 31.3728 28.9811 31.3201 29.0154 31.2694M28.9035 33.3913C28.4889 33.0819 28.0489 32.8052 27.5877 32.564L29.4562 31.6673C29.4968 31.9758 29.4685 32.2892 29.3732 32.5864C29.2779 32.8837 29.1178 33.158 28.9035 33.3913ZM23.2522 32.0715H23.2193L23.1535 32.0399L23.3114 31.9957C23.3772 31.9957 23.3706 31.9957 23.6272 31.9578C23.5499 32.0175 23.4686 32.0724 23.3838 32.122H23.318M22.5943 31.7999L22.5022 31.7557C22.5022 31.7557 22.5022 31.7557 22.443 31.7557C22.443 31.7557 22.443 31.7557 22.3772 31.7557L22.2917 31.7115H22.2325L21.9891 31.5347H21.9562H21.8904C22.2325 31.4715 22.3904 31.5347 22.6667 30.9032C21.7983 31.3389 21.147 29.7601 22.8772 29.798C23.693 30.2022 24.0285 31.2631 22.772 31.9515H22.7062H22.647H22.5877H22.522M21.6667 34.9953C21.6629 34.9723 21.6629 34.9489 21.6667 34.9259L21.7127 34.9638L21.6667 34.9953ZM18.1535 29.7412C18.152 29.7643 18.152 29.7875 18.1535 29.8106C18.1535 29.8106 18.1535 29.8106 18.1141 29.8106V29.7728H18.147M24.068 36.2773C23.9202 36.1744 23.8152 36.0245 23.772 35.8542H24.0483C24.0346 35.9928 24.0346 36.1324 24.0483 36.271M25.8048 34.749C25.8883 34.6169 25.963 34.4798 26.0285 34.3386H26.0614C26.0088 34.7806 26.6272 35.1911 25.8838 36.2331C25.9223 35.7246 25.8958 35.2135 25.8048 34.7112M31.7719 29.7538V29.7917C31.7719 29.7917 31.7719 29.9306 31.7719 30.0127L31.318 30.2401C31.3112 30.194 31.3112 30.1472 31.318 30.1011H31.3509C31.3748 30.1057 31.3994 30.1057 31.4233 30.1011C31.4956 30.1011 31.4627 30.1327 31.6996 29.9243C31.7333 29.8948 31.7544 29.8543 31.7588 29.8106M33.3772 24.4618C33.4496 24.5186 33.6667 24.7649 33.9298 25.0933L33.7851 25.0428C33.6377 24.8677 33.5015 24.6842 33.3772 24.4933M32.4364 25.1248C32.4671 25.1643 32.4935 25.2066 32.5154 25.2512C32.4938 25.2107 32.4762 25.1684 32.4627 25.1248M15.443 25.8953C15.3818 25.8892 15.32 25.8892 15.2588 25.8953C15.7127 25.3711 16.4167 24.5502 16.5746 24.4428C16.5154 24.5628 15.9167 25.3206 15.4627 25.9206M14.4035 29.8612H14.1798C14.1716 29.9642 14.1265 30.0614 14.0521 30.1362C13.9778 30.211 13.8788 30.2589 13.772 30.2717L13.6996 30.2338L13.6404 30.1832L13.5877 30.1201C13.5445 30.0382 13.5262 29.9463 13.5351 29.8549C13.5415 29.7628 13.581 29.6757 13.647 29.6086C13.5975 29.5632 13.5514 29.5147 13.5088 29.4633C13.4699 29.4109 13.4347 29.3561 13.4035 29.2991C13.256 29.013 13.2232 28.6849 13.3114 28.3771C13.4179 28.1253 13.5997 27.9093 13.8339 27.7565C14.068 27.6036 14.3441 27.5208 14.6272 27.5183C14.6798 27.4172 14.6272 27.3793 15.1272 27.2088C15.1272 27.2972 15.3838 27.3225 15.1798 27.7961C15.3293 27.967 15.429 28.1729 15.4686 28.3927C15.5083 28.6126 15.4866 28.8386 15.4057 29.0478C15.3248 29.257 15.1877 29.4418 15.0081 29.5836C14.8286 29.7254 14.6132 29.819 14.3838 29.8549M24.4298 13.2209C24.7936 13.2415 25.1582 13.2415 25.522 13.2209C26.1647 13.7565 26.9391 14.126 27.7719 14.2945C27.2462 14.3273 26.7186 14.2717 26.2127 14.1303C26.2127 14.446 26.943 14.8123 27.4101 14.907C27.0591 14.9505 26.7023 14.9025 26.3772 14.7681C26.5298 15.0038 26.762 15.1821 27.0351 15.2733C26.8236 15.4807 26.5653 15.6386 26.2801 15.735C25.995 15.8313 25.6906 15.8635 25.3904 15.829C25.4762 15.9291 25.5868 16.007 25.7121 16.0555C25.8374 16.1041 25.9733 16.1217 26.1075 16.1069C25.4675 16.9676 25.0709 17.9728 24.9562 19.0245C24.8397 17.9791 24.448 16.9795 23.818 16.1195C23.9532 16.1349 24.0902 16.1175 24.2167 16.0689C24.3431 16.0204 24.4548 15.9423 24.5417 15.8417C24.2424 15.8781 23.9384 15.8468 23.6539 15.7503C23.3695 15.6538 23.1125 15.4948 22.9035 15.2859C23.1746 15.1913 23.4057 15.0138 23.5614 14.7807C23.2363 14.9151 22.8796 14.9631 22.5285 14.9197C22.9956 14.8249 23.7062 14.4587 23.7259 14.1429C23.2179 14.2847 22.688 14.3402 22.1601 14.3071C23.0023 14.1408 23.7846 13.7664 24.4298 13.2209ZM30.8772 31.1179C30.8718 31.0823 30.8718 31.0461 30.8772 31.0105C30.8708 31.0233 30.8675 31.0374 30.8675 31.0516C30.8675 31.0658 30.8708 31.0798 30.8772 31.0926M30.8772 31.1494C30.8686 31.165 30.8641 31.1823 30.8641 31.2C30.8641 31.2176 30.8686 31.2349 30.8772 31.2505C30.8706 31.2065 30.8706 31.1619 30.8772 31.1179V31.1494ZM39.0088 20.3191C38.5398 20.1058 38.0167 20.0268 37.5022 20.0917C37.8837 20.0007 38.2317 19.8105 38.508 19.542C38.7842 19.2735 38.978 18.9371 39.068 18.5698C38.6058 18.4588 38.1223 18.4588 37.6601 18.5698C37.9832 18.4005 38.2554 18.1541 38.4501 17.8542C38.6449 17.5544 38.7558 17.2114 38.7719 16.8584C38.2337 16.8458 37.6998 16.9539 37.2127 17.1742C38.2785 16.6121 38.6601 15.2796 38.0943 14.5218C37.7719 14.7049 36.2654 16.1764 36.0219 16.3406C36.9759 15.1154 38.2983 13.7324 36.7983 12.2294C36.1025 13.5883 35.2765 14.8822 34.3312 16.0943C34.2712 16.015 34.1891 15.9537 34.0943 15.9174C33.8533 16.5444 33.4422 17.0982 32.9035 17.5215C32.8643 17.4185 32.8112 17.3208 32.7456 17.231C28.9035 19.4855 32.193 23.325 28.943 21.8536C29.0978 21.829 29.2427 21.7642 29.362 21.6663C29.4812 21.5684 29.5704 21.441 29.6198 21.2981C29.6693 21.1551 29.6771 21.0019 29.6424 20.8549C29.6078 20.708 29.532 20.5729 29.4233 20.4643C29.1272 20.6348 28.9298 21.1905 27.8641 20.4201C27.978 20.4755 28.1058 20.4995 28.2331 20.4894C28.3604 20.4793 28.4824 20.4355 28.5853 20.3628C28.6882 20.2902 28.7682 20.1916 28.8162 20.0779C28.8643 19.9643 28.8786 19.8401 28.8575 19.7191C27.3443 20.458 27.1535 17.9256 28.5483 16.8773C28.6996 17.1678 30.3443 16.2964 30.4825 17.6478C31.0943 17.3131 30.8706 16.7763 30.0877 16.5679C30.7456 16.6753 32.4825 18.1088 32.6075 16.2774C32.318 16.9405 31.1864 16.4163 30.0154 16.2774C30.2763 16.1207 30.5849 16.0536 30.8908 16.0868C31.1966 16.1201 31.4817 16.2518 31.6996 16.4605C31.8661 16.319 31.981 16.13 32.0273 15.9212C32.0736 15.7124 32.0489 15.4949 31.9569 15.3005C31.8649 15.1062 31.7103 14.9453 31.516 14.8415C31.3217 14.7377 31.0978 14.6965 30.8772 14.7239C30.8821 14.687 30.8769 14.6495 30.8622 14.6151C30.8475 14.5807 30.8237 14.5506 30.7932 14.5277C30.7627 14.5048 30.7265 14.4899 30.6882 14.4844C30.6498 14.4789 30.6107 14.4831 30.5746 14.4966C30.5764 14.4666 30.5708 14.4367 30.5582 14.4092C30.5456 14.3818 30.5264 14.3576 30.5022 14.3387C31.7325 14.446 32.8114 13.3093 32.2062 11.7116C32.526 11.8984 32.878 12.0288 33.2456 12.0968C33.693 12.8483 32.4233 13.7577 33.3904 14.8502C33.4029 14.948 33.3896 15.0473 33.3517 15.1389C33.3137 15.2305 33.2524 15.3115 33.1733 15.3743C33.5877 15.2796 34.2391 15.0333 33.6075 13.9156C33.7127 14.5913 34.6733 13.5303 34.7325 14.5471C36.0483 13.5303 33.8246 13.8714 34.3443 13.1641C34.7654 12.5957 35.1009 12.04 33.5943 11.7305C33.2588 10.5938 30.5154 10.4675 31.3969 12.5641C31.6469 13.063 31.9233 13.9219 30.3904 14.1997V14.0545C30.6206 13.6566 31.193 12.5326 29.9693 12.3242C29.8969 12.2863 29.9693 12.3242 29.6996 12.3242V12.4252H29.6206V12.2863C29.6206 12.2357 29.7917 12.1979 29.6206 11.8884H29.7127C29.6467 11.8269 29.5872 11.7592 29.5351 11.6863C29.61 11.7352 29.6804 11.7902 29.7456 11.8505V11.219C29.6795 11.2803 29.6092 11.3373 29.5351 11.3895C29.5853 11.3153 29.6449 11.2474 29.7127 11.1874H29.0548C29.1207 11.2491 29.1802 11.3168 29.2325 11.3895C29.157 11.3364 29.0845 11.2795 29.0154 11.219V11.8505C29.081 11.7862 29.1538 11.729 29.2325 11.68C29.1781 11.7512 29.1188 11.8187 29.0548 11.8821H29.1469C29.1469 11.9453 28.9759 11.9768 29.1469 12.28V12.4189H29.0614V12.3178C28.943 12.2863 29.0614 12.3178 28.7983 12.3178C28.2325 12.5704 27.6404 12.8294 28.3706 14.0482V14.1429C27.6058 13.8643 26.9109 13.4339 26.3312 12.8799V12.4694C26.7917 11.8884 27.5812 10.0318 25.8114 9.78549C25.7612 9.75184 25.703 9.73076 25.6421 9.72414C25.5812 9.71752 25.5196 9.72559 25.4627 9.7476V9.90548H25.2785V9.70971H25.1798C25.1798 9.65288 25.5812 9.53289 25.2456 9.04031H25.3904C25.2844 8.94464 25.1974 8.83122 25.1338 8.70561C25.2641 8.76492 25.3822 8.8462 25.4825 8.94559V8.16883C25.3868 8.27052 25.2704 8.35221 25.1404 8.4088C25.2008 8.28303 25.2857 8.16945 25.3904 8.0741H24.5614C24.6661 8.16945 24.7509 8.28303 24.8114 8.4088C24.6804 8.35075 24.5621 8.26932 24.4627 8.16883V8.96453C24.5656 8.86799 24.6832 8.78706 24.8114 8.72456C24.7526 8.85124 24.6675 8.96511 24.5614 9.05926H24.7062C24.7062 9.14767 24.3246 9.26766 24.772 9.72866H24.6667V9.92442H24.4759V9.76655C24.4191 9.74453 24.3574 9.73647 24.2966 9.74308C24.2357 9.7497 24.1775 9.77079 24.1272 9.80444C22.9364 10.0381 22.6206 11.0675 23.6075 12.4884V12.9051C23.0382 13.4684 22.3431 13.9003 21.5746 14.1682V14.0734C21.8048 13.6756 22.3772 12.5515 21.147 12.3431C21.0812 12.3052 21.147 12.3431 20.8838 12.3431V12.4441H20.8048V12.3052C20.8048 12.2547 20.9693 12.2168 20.8048 11.9074H20.897C20.8331 11.8439 20.7737 11.7764 20.7193 11.7053C20.7967 11.756 20.8693 11.8131 20.9364 11.8758V11.2443C20.8688 11.3065 20.7962 11.3635 20.7193 11.4148C20.7695 11.3405 20.8291 11.2726 20.897 11.2127H20.2391C20.307 11.2726 20.3667 11.3405 20.4167 11.4148C20.3398 11.3635 20.2672 11.3065 20.1996 11.2443V11.8758L20.4167 11.7116C20.3647 11.7845 20.3052 11.8522 20.2391 11.9137H20.3509C20.3509 11.9768 20.1864 12.0084 20.3509 12.3115V12.4505H20.272V12.3494C20.147 12.3178 20.272 12.3494 20.0022 12.3494C19.4364 12.602 18.8377 12.8673 19.5746 14.0798V14.225C17.2983 14.5913 20.1272 8.72456 16.3706 11.7558C14.5088 11.6106 16.1996 13.7008 15.3312 13.5745C15.0351 13.5367 14.522 13.9661 15.2325 14.5723C15.0483 14.1176 15.6272 14.3639 16.3575 13.9408C16.2588 14.3892 15.5614 14.9828 16.7917 15.3996C16.7157 15.3344 16.6565 15.2531 16.6188 15.1621C16.5811 15.0711 16.566 14.973 16.5746 14.8755C17.2917 14.0545 16.6601 13.3661 16.7193 12.1221C17.0746 12.041 17.4128 11.9021 17.7193 11.7116C17.9233 12.9746 16.7127 14.0166 19.4233 14.3387C19.3991 14.3576 19.3799 14.3818 19.3673 14.4092C19.3547 14.4367 19.3491 14.4666 19.3509 14.4966C19.3148 14.4831 19.2756 14.4789 19.2373 14.4844C19.199 14.4899 19.1628 14.5048 19.1323 14.5277C19.1018 14.5506 19.078 14.5807 19.0633 14.6151C19.0486 14.6495 19.0434 14.687 19.0483 14.7239C18.5746 14.7555 17.2851 15.3554 18.2456 16.4416C18.4635 16.2329 18.7486 16.1011 19.0544 16.0679C19.3603 16.0346 19.6689 16.1018 19.9298 16.2585C19.272 15.9743 18.272 17.3257 17.3377 16.2585C17.2983 17.0605 18.1733 17.6225 19.8575 16.549C19.0746 16.7574 18.8509 17.2941 19.4627 17.6288C19.5746 16.8837 19.7325 16.89 21.3904 16.8584C22.0154 17.2626 23.4627 20.1044 21.0877 19.7002C21.0667 19.8211 21.0809 19.9453 21.129 20.059C21.177 20.1726 21.257 20.2712 21.3599 20.3439C21.4629 20.4165 21.5848 20.4603 21.7121 20.4704C21.8394 20.4806 21.9672 20.4566 22.0812 20.4012C22.022 20.4517 21.1601 21.2095 20.522 20.4454C20.4132 20.554 20.3374 20.6891 20.3028 20.836C20.2681 20.9829 20.276 21.1361 20.3254 21.2791C20.3748 21.4221 20.464 21.5494 20.5833 21.6473C20.7025 21.7452 20.8474 21.81 21.0022 21.8347C18.6272 22.9209 19.318 21.5126 19.4364 19.536C19.1272 19.1066 17.943 18.1088 17.1864 17.212C17.1209 17.3019 17.0678 17.3995 17.0285 17.5025C16.4879 17.0809 16.0764 16.5266 15.8377 15.8985C15.744 15.9364 15.6623 15.9974 15.6009 16.0753C14.6555 14.8632 13.8296 13.5694 13.1338 12.2105C11.818 13.2904 12.5548 14.7365 13.9364 16.3216C13.6996 16.1574 12.193 14.686 11.8641 14.5029C11.3049 15.267 11.6864 16.5932 12.7456 17.1552C12.2611 16.9344 11.7292 16.8262 11.193 16.8395C11.2027 17.1949 11.3085 17.5419 11.4999 17.8463C11.6914 18.1508 11.9619 18.4022 12.2851 18.5761C11.8229 18.4651 11.3394 18.4651 10.8772 18.5761C10.9687 18.9442 11.1647 19.2807 11.4434 19.5483C11.7221 19.8158 12.0727 20.0039 12.4562 20.0917C11.9438 20.0273 11.4229 20.1063 10.9562 20.3191C11.0599 20.6686 11.2748 20.9782 11.5709 21.2047C11.867 21.4311 12.2294 21.5631 12.6075 21.5821C12.0874 21.6156 11.6014 21.8421 11.2522 22.2136C11.4216 22.4352 11.6453 22.6134 11.9035 22.7324C12.1616 22.8513 12.4464 22.9074 12.7325 22.8956C12.5266 22.9621 12.3373 23.0688 12.1765 23.209C12.0157 23.3492 11.8869 23.5199 11.7983 23.7103C12.1996 24.0197 12.7062 24.2155 13.8706 23.8176C12.5548 24.3481 12.7983 24.607 12.5943 25.1564C13.1075 25.4911 14.1272 25.3269 15.147 24.3923C14.9364 24.7902 13.3114 25.1817 13.7917 26.3689H13.9825C13.9647 26.387 13.9512 26.4085 13.943 26.4321C13.6733 26.3689 13.0154 26.331 12.6272 27.2215C12.5285 27.1583 12.2851 27.2215 11.9167 27.7456C11.9148 27.7793 11.9148 27.813 11.9167 27.8467C11.9167 27.8845 11.9167 27.8467 11.9167 27.9477V28.0361L11.9627 28.1245L12.0154 28.194L12.0877 28.2571C12.0241 28.3476 11.9774 28.4481 11.9496 28.5539C11.9507 28.5666 11.9507 28.5792 11.9496 28.5918C11.9423 28.6653 11.9423 28.7394 11.9496 28.8129C11.9519 28.8275 11.9519 28.8424 11.9496 28.8571C11.9437 28.8841 11.9437 28.9121 11.9496 28.9392C11.9496 28.9392 11.9496 28.9897 11.9496 29.0655C11.9509 29.0802 11.9509 29.095 11.9496 29.1097C11.9496 29.1412 11.9825 29.1855 12.0285 29.2612C12.0297 29.2738 12.0297 29.2865 12.0285 29.2991V29.337L12.0877 29.3939C12.1388 29.4447 12.1962 29.4893 12.2588 29.5265H12.2983C12.2574 29.6113 12.2414 29.7052 12.2522 29.798V29.8359C12.2535 29.8506 12.2535 29.8654 12.2522 29.8801V29.918C12.2813 29.97 12.3216 30.0154 12.3703 30.0514C12.4191 30.0873 12.4753 30.1129 12.5351 30.1264C12.4951 30.2053 12.4727 30.2913 12.4693 30.379C12.4693 30.379 12.4693 30.379 12.4693 30.4737C12.4747 30.5232 12.4857 30.5719 12.5022 30.619C12.5022 30.619 12.5022 30.619 12.5022 30.6695C12.5678 30.7838 12.6723 30.873 12.7983 30.9221H12.8312H12.8904H12.9496H13.4825H13.5154H13.772H13.8246C13.8246 30.9221 13.8246 30.9221 13.9233 30.8463C13.9718 30.8061 14.0139 30.7593 14.0483 30.7074H14.1667H14.2391H14.2851C14.2851 30.7074 14.2851 30.7074 14.3706 30.7074C14.4432 30.7039 14.5135 30.6821 14.5746 30.6442H14.6075H14.6404H14.6733C14.6922 30.6199 14.7098 30.5946 14.7259 30.5685C14.7674 30.5727 14.8094 30.5727 14.8509 30.5685H14.9035H14.9891H15.0746C15.1507 30.5621 15.2257 30.5473 15.2983 30.5243H15.3443L15.7456 30.9032H15.9891L16.4562 29.9559C16.5614 30.019 16.4562 29.9559 16.7522 30.0885C16.7454 30.1176 16.7454 30.1478 16.7522 30.1769L18.1798 30.8084C18.1768 30.8273 18.1768 30.8464 18.1798 30.8653V30.9032C18.1798 30.9032 18.1798 30.9032 18.1798 30.9411C18.1689 30.9593 18.1631 30.98 18.1631 31.001C18.1631 31.0221 18.1689 31.0428 18.1798 31.061C18.1764 31.0668 18.1746 31.0733 18.1746 31.08C18.1746 31.0866 18.1764 31.0932 18.1798 31.0989C18.2522 31.2252 18.1798 31.3515 18.5614 31.3452C18.6272 31.2947 18.6404 31.3452 18.7259 30.9916C18.772 31.1052 18.693 31.0484 18.6733 31.421C18.6905 31.4458 18.7128 31.4669 18.7388 31.4832C18.7648 31.4995 18.794 31.5105 18.8246 31.5157C18.8246 31.5157 18.8641 31.5157 18.9825 31.5157C19.022 31.5157 19.0943 31.5157 19.0812 31.4147C19.0812 31.4147 19.0483 31.5157 19.1864 31.6231C19.1864 31.6231 19.2259 31.6231 19.3641 31.6231H19.397C19.4627 31.6231 19.4364 31.661 19.5548 31.5536C19.6733 31.4463 19.5548 31.5536 19.5943 31.3326L22.2654 32.5261C22.0285 32.4504 20.0877 34.4522 20.4891 32.7598C20.2062 32.7977 19.693 33.1387 19.693 33.8713C19.0351 33.966 18.2062 35.8731 18.8048 35.9363C18.8851 35.529 19.1195 35.1647 19.4627 34.9132C19.4627 35.2795 19.3706 35.2606 19.8312 35.911C19.7917 36.0626 18.3377 36.3847 18.3312 36.833C18.5483 37.0793 19.2785 36.4541 19.8706 36.252V36.3468C20.0746 36.2836 20.0022 36.3468 20.2917 36.0689L20.6009 35.9173C20.6794 36.1117 20.8164 36.2792 20.9945 36.3985C21.1727 36.5177 21.3838 36.5832 21.6009 36.5867C21.3349 36.8844 20.9734 37.0887 20.5733 37.1676C20.1731 37.2464 19.757 37.1954 19.3904 37.0225C19.3904 37.7424 21.943 38.2855 22.4825 36.5741C22.9035 36.7509 22.818 37.3824 24.2456 36.8772C24.4051 37.2101 24.6495 37.499 24.9562 37.7171C25.2733 37.5138 25.5277 37.2324 25.693 36.9025C25.8969 37.0035 27.2062 37.4519 27.6141 36.271C27.9759 36.4857 28.9956 36.953 29.4035 35.791L29.6469 35.8984C29.7522 35.9679 29.5088 36.0815 30.1075 36.3026C30.0699 36.2346 30.0518 36.1584 30.0548 36.0815L31.9562 36.9341C32.0417 36.9341 31.9562 36.9341 32.2851 36.9341H32.3706C32.3706 36.9341 32.3706 36.9341 32.4101 36.9341H32.4496C32.4496 36.9341 32.4496 36.9341 32.5154 36.8899L32.5746 36.8267L32.6206 36.7572C32.6178 36.7448 32.6178 36.7318 32.6206 36.7194C32.6196 36.7067 32.6196 36.6941 32.6206 36.6815C32.6181 36.6711 32.6181 36.6603 32.6206 36.6499C32.6206 36.6499 32.6206 36.5994 32.6206 36.5299C32.6206 36.5299 32.6206 36.5299 32.6206 36.4541C32.6131 36.4284 32.5996 36.4047 32.5812 36.3847C32.5635 36.3473 32.5363 36.3147 32.5022 36.2899C32.5022 36.2899 32.5022 36.2899 32.4298 36.2457L32.2785 36.1763L31.8114 35.9552L32.0154 35.5384L32.9825 35.9552L34.0548 33.7702V33.6692L33.7456 33.5302C34.5351 33.3597 35.2522 31.0547 33.9364 30.7579C33.729 30.808 33.5098 30.7856 33.318 30.6948C33.318 30.9095 33.7456 31.2757 33.7456 31.2757C33.8312 31.4021 33.8509 31.5915 33.1864 31.1558C35.2654 33.2903 31.5548 33.0882 30.7719 31.7052C30.8377 31.6483 30.8443 31.6547 30.8706 31.4968C30.8706 31.5726 30.9364 31.5852 30.9759 31.5978C31.0548 31.5978 30.9759 31.5978 31.1338 31.5978C31.2917 31.5978 31.1338 31.5978 31.3048 31.4841C31.3443 31.4021 31.2719 31.4147 31.2456 31.0737V30.9853C31.2456 31.181 31.1535 31.0863 31.3969 31.4021C31.3969 31.4021 31.7851 31.4589 31.7654 31.1179C31.7763 31.0996 31.7821 31.0789 31.7821 31.0579C31.7821 31.0368 31.7763 31.0161 31.7654 30.9979C31.7654 30.9979 31.7654 30.9979 31.7654 30.8653C31.8682 30.777 31.9396 30.6599 31.9693 30.5306H32.0219C32.0523 30.5369 32.0837 30.5369 32.1141 30.5306C32.1141 30.5306 32.1141 30.5306 32.1535 30.4864L32.2719 30.4295C32.306 30.4397 32.3428 30.4368 32.3747 30.4215C32.4065 30.4062 32.431 30.3796 32.443 30.3474L35.1469 29.0465L35.1864 29.116L35.9956 28.7118L35.9627 28.6613L36.2917 28.5034C36.1867 28.3615 36.1026 28.2064 36.0417 28.0424L35.7193 28.2003L35.6864 28.1371L34.8641 28.3771L34.9101 28.4529L32.2785 29.7159C32.2725 29.7126 32.2657 29.7108 32.2588 29.7108C32.2519 29.7108 32.2451 29.7126 32.2391 29.7159C32.2391 29.7159 32.2391 29.7159 32.2391 29.678C32.2391 29.6149 32.2391 29.6338 32.193 29.4949C32.1943 29.4781 32.1943 29.4612 32.193 29.4444C32.193 29.3496 32.193 29.3939 31.9101 29.2802L31.7851 29.1981C31.7851 29.1981 31.7851 29.1981 31.7456 29.1602C31.7062 29.1223 31.7456 29.1602 31.6338 29.1602H31.5812C31.5417 29.1602 31.5417 29.1602 31.5351 29.2233C31.5285 29.2865 31.4956 29.2233 31.4759 29.2675C31.3641 28.7876 31.3114 28.4024 30.3114 28.0866C30.5548 27.4551 31.9035 27.3983 32.0219 28.756C32.0548 28.5603 32.1338 27.493 32.4825 28.9202C32.5204 28.7189 32.6325 28.5373 32.7983 28.4087C32.7983 28.4087 33.0154 28.1308 32.7259 27.5877C32.7997 27.6025 32.8707 27.6281 32.9364 27.6635C33.0943 27.3793 33.443 27.2783 33.3904 26.9247C33.7843 27.1142 34.2138 27.2259 34.6535 27.253L34.5943 27.1962C34.5973 27.1795 34.5973 27.1624 34.5943 27.1457C34.6286 27.1864 34.6684 27.2225 34.7127 27.253C34.8114 27.253 34.2983 27.4551 34.7588 27.7393C34.8377 27.6951 34.4825 28.0172 34.8904 28.0677C34.8904 28.0677 34.8114 28.2192 34.8904 28.314L35.5483 27.9856C35.443 27.9351 34.3377 27.2783 35.6272 26.6784C35.7073 26.5936 35.7599 26.4883 35.7785 26.3752C35.8907 26.3484 36.0052 26.3315 36.1206 26.3247C36.3772 25.6932 35.6404 24.8722 34.7654 24.3481C35.4233 24.6765 36.2391 25.8069 37.318 25.1122C37.1141 24.5628 37.3706 24.3039 36.0417 23.7734C37.2062 24.1713 37.7127 23.9755 38.1141 23.6661C38.0313 23.4753 37.9086 23.3029 37.7535 23.1595C37.5985 23.0161 37.4144 22.9048 37.2127 22.8325C37.4989 22.8448 37.7839 22.789 38.0421 22.67C38.3004 22.551 38.524 22.3725 38.693 22.1504C38.3438 21.779 37.8578 21.5525 37.3377 21.5189C37.7158 21.4999 38.0782 21.368 38.3743 21.1415C38.6704 20.915 38.8853 20.6054 38.9891 20.2559" fill="#808D9C"/>
<path d="M36.9101 26.6847C36.7801 26.7472 36.6657 26.836 36.5748 26.945C36.4839 27.0541 36.4188 27.1807 36.3838 27.3162L36.318 27.3604L36.2851 27.4488C36.2622 27.4394 36.2376 27.4346 36.2127 27.4346C36.1879 27.4346 36.1632 27.4394 36.1404 27.4488C35.9496 27.5309 36.0548 27.7393 36.0548 27.7393C36.0548 27.7393 36.1404 27.9666 36.2062 28.0993C36.2743 28.2241 36.3512 28.3444 36.4364 28.4592C36.4364 28.4592 36.5877 28.6171 36.7259 28.5476C36.7554 28.532 36.7801 28.5092 36.7974 28.4815C36.8147 28.4537 36.8241 28.4221 36.8246 28.3898H36.8969H37.0285C37.1845 28.4426 37.3516 28.4574 37.515 28.433C37.6784 28.4086 37.833 28.3456 37.9648 28.2498C38.0967 28.154 38.2017 28.0283 38.2705 27.884C38.3393 27.7396 38.3698 27.5811 38.3591 27.4227C38.3485 27.2643 38.2971 27.1109 38.2095 26.9763C38.1219 26.8416 38.0009 26.7299 37.8574 26.6511C37.7138 26.5724 37.5521 26.529 37.3868 26.525C37.2215 26.5209 37.0577 26.5562 36.9101 26.6278" fill="#808D9C"/>
<path d="M34.8246 28.3771C34.7127 28.2066 34.7851 28.1372 34.7851 28.1372C34.7519 28.1355 34.7198 28.1245 34.693 28.1056L34.3312 28.2824C34.2654 28.3203 34.1404 28.3961 34.1206 28.4782C34.3604 28.5224 34.6088 28.4868 34.8246 28.3771Z" fill="#808D9C"/>
<path d="M34.6733 28.0929C34.6009 28.0361 34.5812 27.9919 34.5943 27.9288C34.6075 27.8656 34.5943 27.8151 34.6733 27.7835H34.6075C34.6075 27.7835 34.4101 27.7835 34.3772 27.7835C34.1572 27.8171 33.9505 27.9064 33.7785 28.0424C33.9825 28.2445 34.4364 28.1814 34.6733 28.1182" fill="#808D9C"/>
<path d="M34.5812 27.7456C34.548 27.7221 34.5207 27.6917 34.5014 27.6567C34.482 27.6218 34.4711 27.5831 34.4693 27.5435C34.4656 27.5042 34.4721 27.4646 34.4882 27.4283C34.5042 27.3919 34.5294 27.3599 34.5614 27.3351C34.1624 27.2857 33.757 27.3158 33.3706 27.4235C33.4817 27.531 33.6156 27.6143 33.7631 27.6677C33.9107 27.7211 34.0686 27.7434 34.2259 27.733H34.5812" fill="#808D9C"/>
<path d="M37.0614 29.3939C36.8246 29.3939 36.6798 29.577 36.4496 29.577C36.3559 29.5788 36.2633 29.5577 36.1804 29.5158C36.0976 29.4738 36.0272 29.4123 35.9759 29.337C35.8667 29.1321 35.8432 28.8949 35.9101 28.6739L35.2522 29.0086C35.2522 29.1413 35.4496 29.1728 35.4496 29.1728C35.4281 29.2072 35.4168 29.2465 35.4168 29.2865C35.4168 29.3265 35.4281 29.3658 35.4496 29.4002C35.5154 29.5075 35.6733 29.4633 35.6733 29.4633C35.6733 29.4633 35.6733 29.6907 35.7654 29.7791C35.8081 29.8035 35.857 29.8165 35.9068 29.8165C35.9566 29.8165 36.0055 29.8035 36.0483 29.7791C36.0462 29.8391 36.0574 29.8989 36.0812 29.9544C36.105 30.0099 36.1409 30.0599 36.1864 30.1011C36.229 30.1263 36.2779 30.1396 36.3279 30.1396C36.3778 30.1396 36.4268 30.1263 36.4693 30.1011C36.4693 30.1011 36.5219 30.2653 36.6075 30.3032C36.6585 30.3138 36.7116 30.3092 36.7598 30.29C36.808 30.2708 36.849 30.238 36.8772 30.1959C36.8929 30.2634 36.9225 30.3273 36.9643 30.3837C37.0061 30.4401 37.0593 30.4879 37.1206 30.5243C37.177 30.5448 37.2378 30.5516 37.2975 30.5438C37.3573 30.5361 37.4141 30.5142 37.4627 30.4801C37.6469 30.3474 37.5351 30.5495 37.5154 30.6C37.4364 30.8526 37.3443 31.0926 37.2588 31.3389C37.2148 31.4322 37.1921 31.5333 37.1921 31.6357C37.1921 31.7381 37.2148 31.8393 37.2588 31.9325C37.2588 31.9325 37.3641 32.0462 37.4496 32.0272C37.5219 31.7494 37.6206 31.4778 37.6996 31.2C37.815 30.8913 37.8816 30.5677 37.8969 30.2401C37.8979 30.0135 37.8243 29.7925 37.6864 29.6086C37.6218 29.5234 37.5347 29.4563 37.4341 29.4141C37.3335 29.372 37.2231 29.3562 37.1141 29.3686" fill="#808D9C"/>
<path d="M35.3509 29.2044C35.3509 29.2044 35.2588 29.2044 35.1733 29.0339C34.9535 29.1362 34.777 29.3079 34.6733 29.5202C34.7729 29.5362 34.8753 29.5183 34.9627 29.4696C35.0868 29.4174 35.2076 29.3584 35.3246 29.2928C35.3201 29.2635 35.3201 29.2337 35.3246 29.2044" fill="#808D9C"/>
<path d="M35.5746 29.577C35.5712 29.5561 35.5712 29.5348 35.5746 29.5138C35.5168 29.5317 35.4547 29.5317 35.3969 29.5138C35.3677 29.4985 35.3436 29.4755 35.3273 29.4476C35.311 29.4197 35.3032 29.3879 35.3048 29.356C35.1009 29.5138 34.7917 29.8106 34.8443 30.0885C35.0616 30.0389 35.2599 29.9317 35.4167 29.7791C35.4664 29.7229 35.5126 29.6638 35.5548 29.6023" fill="#808D9C"/>
<path d="M35.6864 29.8296C35.6241 29.7735 35.5865 29.6967 35.5812 29.6149C35.5812 29.6149 35.4035 29.8801 35.3838 29.8991C35.2818 30.0122 35.2071 30.1457 35.165 30.2897C35.123 30.4338 35.1145 30.5851 35.1404 30.7327C35.459 30.4992 35.7234 30.2046 35.9167 29.8675C35.8781 29.8802 35.8367 29.8834 35.7965 29.8768C35.7563 29.8702 35.7184 29.8539 35.6864 29.8296Z" fill="#808D9C"/>
<path d="M36.2654 30.2085C36.2253 30.2091 36.1858 30.2001 36.1502 30.1825C36.1146 30.1649 36.0841 30.1391 36.0614 30.1075C36.0289 30.0759 36.0035 30.0384 35.9865 29.9972C35.9695 29.9559 35.9615 29.9118 35.9627 29.8675C35.9627 29.8675 35.8575 30.0317 35.8509 30.0317C35.6038 30.3555 35.4744 30.7482 35.4825 31.1494C35.6109 31.0719 35.7244 30.9736 35.818 30.859C35.8575 30.859 36.2522 30.2274 36.2522 30.2274" fill="#808D9C"/>
<path d="M36.3838 30.8147L36.6535 30.379C36.6177 30.3826 36.5815 30.3775 36.5481 30.3643C36.5148 30.3511 36.4855 30.3301 36.4627 30.3032C36.4328 30.2678 36.4105 30.227 36.3969 30.1832C36.3709 30.1882 36.3441 30.1882 36.318 30.1832L36.1469 30.4485C35.9257 30.8371 35.7996 31.2691 35.7785 31.7115C35.8594 31.6413 35.9322 31.563 35.9956 31.4778C36.1075 31.32 36.3838 30.8463 36.3838 30.8463" fill="#808D9C"/>
<path d="M36.9627 30.5306C36.8868 30.4584 36.8304 30.3695 36.7983 30.2717C36.7736 30.3055 36.7394 30.3318 36.6996 30.3474C36.6535 30.4106 36.3772 30.9095 36.3772 30.9095C36.1601 31.2947 35.8443 32.1283 35.9891 32.3556C36.2382 32.0748 36.4341 31.7542 36.568 31.4084L36.9627 30.5306Z" fill="#808D9C"/>
<path d="M37.0614 31.5915L37.4759 30.5179C37.415 30.5728 37.3373 30.6073 37.2543 30.6164C37.1714 30.6255 37.0876 30.6087 37.0154 30.5685C37.0154 30.5685 36.7456 31.2 36.5943 31.5599C36.398 31.9749 36.3251 32.4339 36.3838 32.8861C36.4804 32.8207 36.5593 32.7341 36.6141 32.6335C36.6591 32.5605 36.6987 32.4846 36.7325 32.4062L37.0614 31.5915Z" fill="#808D9C"/>
<path d="M37.0812 31.7304C36.8919 32.1338 36.7549 32.558 36.6733 32.9935C36.6825 33.26 36.7404 33.5229 36.8443 33.7702L37.3706 32.1346C37.3706 32.1346 37.1141 32.1346 37.0812 31.7557" fill="#808D9C"/>
<path d="M24.9562 20.919H21.4693V27.8656C21.4693 28.7245 21.8377 29.1286 22.6075 29.1286H23.7588C24.0355 29.1435 24.3002 29.2419 24.5152 29.4097C24.7302 29.5776 24.8845 29.8063 24.9562 30.0633C25.0118 29.7991 25.158 29.5604 25.3714 29.3852C25.5849 29.2101 25.8533 29.1086 26.1338 29.097H27.2917C28.0548 29.097 28.4298 28.6929 28.4298 27.834V20.8874L24.9562 20.919Z" fill="white"/>
<path d="M24.9562 20.919H21.4693V27.8656C21.4693 28.7245 21.8377 29.1286 22.6075 29.1286H23.7588C24.0355 29.1435 24.3002 29.2419 24.5152 29.4097C24.7302 29.5776 24.8845 29.8063 24.9562 30.0633C25.0118 29.7991 25.158 29.5604 25.3714 29.3852C25.5849 29.2101 25.8533 29.1086 26.1338 29.097H27.2917C28.0548 29.097 28.4298 28.6929 28.4298 27.834V20.8874L24.9562 20.919Z" stroke="white" stroke-width="0.03" stroke-miterlimit="10"/>
<path d="M23.5351 27.5688H23.3443C23.3443 27.4804 23.272 27.4488 23.2654 27.3541C23.2654 27.0194 23.1272 27.152 23.4627 26.5268C23.7785 26.3121 23.5548 26.2995 24.3114 25.8953C24.4035 25.9584 24.3838 26.1605 24.3114 26.2363C24.3285 26.2707 24.3417 26.3066 24.3509 26.3437C24.4064 26.3719 24.4664 26.3912 24.5285 26.4005C24.6733 26.5205 24.6338 26.4637 25.0417 27.0952C25.0417 27.0952 25.0417 27.051 25.0417 27.0257L25.1141 27.0888H25.0548C25.0548 27.1331 25.0548 27.1962 25.0943 27.1962C25.1338 27.1962 24.9298 27.1962 24.8904 27.253C24.8339 27.257 24.7806 27.2793 24.7391 27.3162C24.6798 27.3162 24.6535 27.3162 24.6075 27.3604C24.9101 27.2404 23.7193 25.889 23.5154 27.493C23.5154 27.493 23.5154 27.493 23.4496 27.493C23.3838 27.493 23.5351 27.5309 23.5351 27.5814M25.2193 26.8678L24.9167 25.8258C24.9601 25.7479 24.9848 25.6615 24.9891 25.5732C25.0614 25.5732 25.1404 25.5732 25.2193 25.5732C25.272 25.648 25.3017 25.7356 25.3048 25.8258C25.3641 25.8258 25.2325 25.9206 25.3048 26.0911C25.4233 26.0911 25.3377 26.0911 25.5483 26.0405C25.7259 26.0405 25.647 26.0405 25.8772 26.3184C25.9397 26.5042 26.033 26.679 26.1535 26.8362C26.0351 26.8362 26.1535 26.8362 26.0614 26.9941C26.0614 26.9941 26.0614 26.8931 26.1667 26.9247C26.1667 26.9247 26.1667 26.9815 26.1667 27.0068C26.1667 27.032 26.1667 27.0068 26.0877 27.1394C26.0877 27.1394 26.0877 27.1078 26.0877 27.0888C26.0877 27.0699 26.0877 27.0888 26.1798 27.0888C26.1875 27.1264 26.1875 27.165 26.1798 27.2025C26.1798 27.2025 26.1206 27.2341 26.1075 27.2657C26.0783 27.2585 26.0478 27.2576 26.0183 27.263C25.9887 27.2685 25.9607 27.2802 25.9364 27.2972C25.9364 27.2972 25.9364 27.2972 26.0219 27.2972C26.1075 27.2972 26.0219 27.3288 26.0219 27.3604C26.0219 27.3604 25.9562 27.3604 25.9298 27.3604C25.9035 27.3604 25.7785 27.2341 25.6601 27.2467C25.5417 27.2594 25.6601 27.2467 25.5219 27.2467C25.568 27.2467 25.5219 27.2467 25.6272 27.2467C25.7325 27.2467 25.693 27.1899 25.7456 27.1836C25.7504 27.2001 25.7504 27.2176 25.7456 27.2341C25.7456 27.2972 25.9364 27.152 25.6996 27.0825C25.5689 27.1356 25.4504 27.2128 25.3509 27.3099C25.3509 27.2594 25.3969 27.1962 25.3509 27.152C25.4298 27.152 25.4298 27.0257 25.5285 27.0131C25.6272 27.0004 25.5285 27.0636 25.5285 27.0762C25.6206 27.0762 25.5285 27.0762 25.5877 26.9183C25.5483 26.9183 25.5877 26.8868 25.4562 26.9183C25.3246 26.9499 25.3904 26.8741 25.2983 27.0762C25.2654 27.0762 25.3641 27.0068 25.2391 26.8804C25.2391 26.8804 25.1864 26.8804 25.1535 26.912M23.6206 21.6516C23.5548 21.7526 23.5812 21.6516 23.6601 21.9736C23.6141 22.0557 23.5417 22.0241 23.568 22.2957C23.4101 22.3778 22.5417 22.2325 22.6864 22.7756C22.6864 22.7756 22.4233 23.0409 22.6864 23.1861C22.6864 23.2682 22.5812 23.3061 22.7522 23.4261C22.7659 23.4498 22.7859 23.4695 22.8102 23.4833C22.8345 23.497 22.8622 23.5043 22.8904 23.5043C22.9186 23.5043 22.9463 23.497 22.9706 23.4833C22.9949 23.4695 23.0149 23.4498 23.0285 23.4261C23.2325 23.3377 23.1601 23.9439 23.4562 23.584C23.5298 23.6 23.6062 23.6 23.6798 23.584L23.7654 23.6408C23.8443 23.584 23.7654 23.5777 23.9891 23.6408C24.0067 23.6186 24.0297 23.6007 24.056 23.5886C24.0823 23.5765 24.1112 23.5706 24.1404 23.5713L24.2062 23.805H24.1535C24.1535 24.0008 24.272 24.0955 24.2917 24.2786C23.9982 24.2727 23.7067 24.3265 23.4364 24.4365C23.1996 24.0071 22.2325 23.9944 22.2917 25.068C22.2786 25.0801 22.2688 25.095 22.2631 25.1115C22.2573 25.128 22.2559 25.1456 22.2588 25.1627C22.3008 25.1491 22.3406 25.1299 22.3772 25.1059C22.3499 25.2923 22.3499 25.4815 22.3772 25.6679C22.4634 25.6003 22.5236 25.5069 22.5483 25.4027C22.5831 25.5096 22.5831 25.6242 22.5483 25.7311C22.5943 25.6048 22.8312 25.6679 22.9364 25.2827C22.9364 25.409 22.9825 25.5606 22.8969 25.6364C22.9265 25.6248 22.9534 25.6076 22.9759 25.5859C23.3838 25.8637 22.7127 24.1776 23.3772 24.607C23.1141 24.9796 23.8377 25.7816 23.193 26.4637C23.1718 26.7519 23.0644 27.0282 22.8838 27.2594C22.8838 27.2594 22.8838 27.2594 22.9167 27.2594C22.9167 27.2594 22.9167 27.2594 22.9496 27.2594C22.9825 27.2594 22.9496 27.2594 22.9167 27.4551C22.693 27.6193 23.0154 26.8236 22.397 26.8236C22.8706 26.9247 22.318 28.2761 23.6733 27.973V28.0551C23.6218 28.1015 23.5615 28.138 23.4956 28.1624C23.9562 28.0614 24.9627 29.0023 25.6601 28.3077C25.6601 28.2066 25.9496 28.4087 25.8772 28.0298C25.9233 28.0298 25.8772 27.9603 26.068 27.9477H26.1141C26.1141 27.9477 26.1667 27.9477 26.2654 27.9477C26.3641 27.9477 26.2654 28.0361 26.5614 28.0866C26.5871 28.0554 26.6092 28.0215 26.6272 27.9856C26.8838 27.8845 27.3904 28.0993 27.4233 27.6193C27.4015 27.6565 27.3773 27.6924 27.3509 27.7267C27.3509 27.7267 27.3509 27.7267 27.4101 27.6698C27.4101 27.7204 27.3575 27.7772 27.3312 27.7835C27.3048 27.7898 27.4101 27.6193 27.3312 27.5372C27.3351 27.5833 27.3239 27.6294 27.2991 27.6691C27.2743 27.7087 27.2372 27.7399 27.193 27.7582C27.193 27.7582 27.2259 27.6319 27.193 27.6067C27.1938 27.6249 27.19 27.6429 27.182 27.6594C27.174 27.6759 27.162 27.6903 27.1469 27.7014C27.1469 27.7014 27.1469 27.6319 27.1469 27.6256C27.1409 27.6557 27.1267 27.6837 27.106 27.707C27.0852 27.7302 27.0585 27.7479 27.0285 27.7582C27.0285 27.7582 27.0285 27.7582 27.0285 27.7014C27.0285 27.6446 27.0285 27.7393 26.9693 27.7393C26.9101 27.7393 26.9693 27.6825 26.9364 27.6698C26.9035 27.6572 26.9364 27.714 26.8969 27.7267C26.8575 27.7393 26.8969 27.6761 26.8641 27.6635C26.8312 27.6509 26.8641 27.6635 26.8641 27.7014C26.849 27.643 26.8197 27.5889 26.7785 27.5435C26.8246 27.5435 26.7785 27.4804 26.8246 27.4614C26.8706 27.4425 26.8246 27.4614 26.8838 27.4614C26.943 27.4614 26.8838 27.4172 26.8838 27.4046C26.8838 27.392 26.8838 27.4046 26.9233 27.4046C26.9627 27.4046 26.9233 27.3667 26.9233 27.3478C26.9233 27.3288 26.9562 27.3478 26.9759 27.3099C26.9967 27.3166 27.0154 27.3282 27.0304 27.3436C27.0453 27.3591 27.056 27.3779 27.0614 27.3983C27.0777 27.3425 27.0777 27.2835 27.0614 27.2278C27.0614 27.2278 27.0614 27.2278 27.1075 27.2278C27.1535 27.2278 27.1601 27.3162 27.1535 27.3415C27.1469 27.3667 27.1535 27.253 27.1535 27.2088C27.1535 27.1646 27.193 27.2657 27.2193 27.2972C27.2193 27.0888 26.9627 27.1457 26.6404 27.392C26.6404 27.3351 26.5483 27.3099 26.5154 27.2467C26.5407 27.2057 26.5585 27.1609 26.568 27.1141C26.568 27.1141 26.5022 27.1141 26.4891 27.0573C26.4953 27.0366 26.4953 27.0147 26.4891 26.9941C26.4891 26.9941 26.4298 26.9941 26.4035 26.9941C26.3314 26.5661 26.2258 26.1439 26.0877 25.7311C26.0877 25.8132 26.0877 25.7311 26.0877 25.7311L26.2456 25.7943C26.3575 25.8258 26.6996 25.4027 27.1601 25.3143C27.2522 25.4153 27.0548 25.5669 26.9562 25.87C26.9167 25.87 26.9562 25.9332 26.9167 25.9711C26.7325 25.9711 26.7522 25.7816 26.6667 26.2363C26.8509 26.2363 26.6667 26.2363 27.0351 26.1732C27.318 25.9837 27.3312 25.7564 27.4693 25.1059C27.1996 24.7965 27.4233 24.9228 26.4891 25.1059C26.5812 24.8912 26.4496 24.967 26.318 24.1902C26.4101 24.2344 26.4101 24.2597 26.5877 24.0702C26.5548 24.0702 26.6667 24.2407 26.7983 24.1208C26.7983 24.1208 26.7983 24.1208 26.8377 24.1208C26.8772 24.1208 26.8377 24.1208 26.9298 24.1208C27.1733 24.0323 27.2522 23.9945 27.0219 23.2051C27.0219 23.2051 27.068 23.2051 27.0614 23.2051H27.1733C27.1338 23.1293 27.1733 23.0219 27.1206 22.9588L27.1996 22.883C27.1375 22.8558 27.0704 22.8408 27.0022 22.8388C27.0022 22.8388 27.0022 22.8072 26.8312 22.782C26.8312 22.7377 26.9035 22.6935 26.9364 22.643C26.8642 22.6359 26.7915 22.6359 26.7193 22.643C26.7193 22.643 26.7193 22.643 26.5483 22.6051C26.3772 22.5672 26.3904 22.4473 25.8904 22.6051C25.9194 22.6037 25.9483 22.6101 25.9739 22.6234C25.9994 22.6368 26.0206 22.6567 26.0351 22.6809C25.8377 22.6809 25.9035 22.5925 25.5877 22.782C25.5607 22.7905 25.5363 22.8053 25.5168 22.8252C25.4973 22.845 25.4832 22.8692 25.4759 22.8956H25.5548C25.5154 22.9461 25.2917 22.8956 25.2654 23.003C25.3575 23.003 25.318 23.003 25.4759 23.003C25.3575 23.0472 25.4759 23.003 25.2127 23.224C25.1982 23.1282 25.1594 23.0372 25.0997 22.959C25.0401 22.8809 24.9614 22.8179 24.8706 22.7756C24.8706 22.7756 24.8312 22.7756 24.8706 22.6493C24.9101 22.6493 24.9364 22.6872 25.0088 22.6114C25.3509 22.8514 25.4298 21.6516 24.6535 22.0683C24.943 21.7589 25.6733 22.4725 25.0154 22.6051L25.068 22.5609C25.068 22.5609 25.068 22.4536 25.1667 22.4346C25.1702 22.3968 25.1702 22.3588 25.1667 22.321C25.1749 22.3042 25.1792 22.2858 25.1792 22.2673C25.1792 22.2487 25.1749 22.2304 25.1667 22.2136C25.1667 22.2452 25.1667 22.2957 25.1272 22.3146C25.0877 22.3336 25.1272 22.2136 25.1272 22.1946C25.1404 22.2271 25.1404 22.2632 25.1272 22.2957C25.1272 22.2957 25.1272 22.2641 25.1272 22.2389C25.1272 22.2136 25.1272 22.2704 25.1272 22.2831C25.1272 22.2957 25.0877 22.2389 25.0483 22.2389C24.8969 22.2389 24.7851 22.4283 24.7522 22.5546C24.7522 22.5546 24.6206 22.5546 24.6733 22.422C24.6206 22.4788 24.5285 22.4978 24.6733 22.2831C24.6009 22.2831 24.568 22.3841 24.5285 22.4473C24.5285 22.3967 24.4233 22.3462 24.6141 22.2199C24.5483 22.2199 24.6141 22.2199 24.4825 22.2957C24.4101 22.2325 24.5219 22.1189 24.7917 22.0368C24.7917 22.0368 24.7917 22.0368 24.6404 22.0873C24.5548 22.0873 24.2983 22.3715 24.5614 22.4536C24.5614 22.5357 24.6469 22.4536 24.5285 22.6114C24.3213 22.4559 24.081 22.3459 23.8246 22.2894V22.2262C23.8575 22.1568 23.8838 22.1631 23.7588 22.0305C23.7588 22.0305 23.7588 22.0305 23.6667 22.0305C23.5746 22.0305 23.8312 21.8347 23.6864 21.5947L23.6206 21.6516Z" fill="#808D9C"/>
<path d="M34.0285 31.0295C33.943 31.0295 33.9233 31.2063 34.0812 31.1368C34.0812 31.0863 34.1272 31.0863 34.0285 31.0295ZM34.0285 31.2126C34.0285 31.2126 33.7654 31.0547 34.0285 30.9663C34.0351 30.9032 34.2917 31.1558 34.0285 31.2126ZM32.3706 27.9856C32.443 28.0487 32.443 27.9856 32.3706 27.9856C32.2983 27.9224 32.2851 28.2445 32.3706 27.9856ZM32.3706 28.175C32.2456 28.2445 32.1864 27.7267 32.5022 28.0424C32.5022 28.1119 32.5088 28.0487 32.3706 28.175ZM37.3509 32.0778L36.7983 33.726C36.6963 33.3896 36.6653 33.037 36.7071 32.6889C36.7489 32.3408 36.8627 32.0042 37.0417 31.6989C37.0746 32.103 37.3312 32.0778 37.3312 32.0778M36.6733 32.3809C36.5987 32.5687 36.4766 32.7358 36.318 32.8672C36.1864 32.3746 36.5417 31.4336 36.9759 30.5369C37.0501 30.5759 37.1352 30.5913 37.219 30.5811C37.3029 30.5709 37.3813 30.5356 37.443 30.4801C37.3114 30.859 37.0022 31.6673 36.7062 32.3809H36.6733ZM36.5219 31.4084C36.3854 31.7543 36.1872 32.0748 35.9364 32.3556C35.9606 31.6266 36.2102 30.9209 36.6535 30.3285C36.6807 30.3313 36.7081 30.3276 36.7334 30.3176C36.7586 30.3077 36.7809 30.2919 36.7983 30.2717C36.8357 30.3581 36.8892 30.4373 36.9562 30.5053L36.5219 31.4084ZM35.9298 31.4399C35.8633 31.5226 35.7883 31.5988 35.7062 31.6673C35.7405 31.1276 35.9295 30.6075 36.2522 30.1643C36.2783 30.1692 36.3051 30.1692 36.3312 30.1643C36.3312 30.1643 36.2983 30.3222 36.5943 30.3601C36.4101 30.6506 36.3904 30.6948 35.9364 31.4589M35.7654 30.8274C35.6718 30.9421 35.5583 31.0403 35.4298 31.1179C35.4153 30.7167 35.5428 30.3227 35.7917 30.0001L35.8969 29.8296C35.8969 29.7601 35.8969 30.158 36.2062 30.1769C36.2062 30.1769 35.8048 30.8084 35.7654 30.8084M35.8509 29.817C35.6557 30.1564 35.3891 30.4532 35.068 30.6884C35.0405 30.5384 35.0487 30.3844 35.092 30.2379C35.1353 30.0913 35.2126 29.9561 35.318 29.8422C35.318 29.8422 35.5154 29.558 35.5154 29.558C35.5154 29.558 35.4562 29.8233 35.8509 29.817ZM34.8246 30.0254C34.7785 29.7475 35.0877 29.4444 35.2983 29.2865C35.3509 29.3433 35.2259 29.4191 35.5614 29.4696C35.5571 29.4926 35.5571 29.5161 35.5614 29.5391C35.5163 29.5983 35.468 29.6552 35.4167 29.7096C35.2574 29.8637 35.0572 29.9729 34.8377 30.0254M35.3048 29.2486C35.1146 29.3866 34.8852 29.4659 34.6469 29.476C34.7539 29.2616 34.9354 29.0896 35.1601 28.9897C35.2391 29.1791 35.3377 29.1602 35.3377 29.1602C35.3205 29.1871 35.3093 29.2173 35.3048 29.2486ZM37.6469 29.5959C37.8246 29.7538 37.818 30.0064 37.864 30.2274C37.7983 30.6758 37.9693 30.0948 37.4035 32.0209C36.5812 31.7873 38.1141 30.9916 36.8312 30.1769C36.8312 30.1769 36.5877 30.48 36.4167 30.0885C36.4693 30.0127 36.0088 30.2906 35.9956 29.7601C36.0548 29.6843 35.5746 29.9559 35.6141 29.4317C35.6996 29.4317 35.2062 29.4823 35.4101 29.1349C35.4101 29.1349 35.2325 29.1349 35.2062 28.9707L35.9035 28.636C35.9035 28.7497 35.7917 29.9938 37.0614 29.356C37.1728 29.3458 37.285 29.3632 37.3874 29.4063C37.4899 29.4493 37.5792 29.5168 37.6469 29.6023M31.7851 24.2534L33.4956 24.8154C33.4956 24.8154 33.3246 25.0049 33.6469 25.2638C32.9496 24.9038 32.7785 25.4406 31.7851 24.2534ZM33.5088 25.7374C33.0366 25.6388 32.6005 25.4207 32.2456 25.1059C32.9035 24.9985 33.9956 25.4469 34.9298 25.6679C34.6601 25.7627 34.6404 25.8511 34.6075 25.9963L33.5088 25.7374ZM32.4496 25.7374C33.1844 25.7452 33.913 25.8667 34.6075 26.0974C34.623 26.1879 34.6589 26.2741 34.7127 26.35C34.6744 26.337 34.6326 26.337 34.5943 26.35C33.834 26.3243 33.0941 26.1065 32.4496 25.7185M34.1667 26.7289C33.7131 26.6711 33.2779 26.5203 32.8904 26.2868C33.4432 26.267 33.9967 26.303 34.5417 26.3942C34.5417 26.3942 34.4496 26.5079 34.5417 26.7036L34.4825 26.7605L34.1667 26.7289ZM34.3641 27.2215C33.943 27.2156 33.535 27.0806 33.1996 26.8362C33.3418 26.7806 33.4934 26.7507 33.6469 26.7478C33.6996 26.7478 34.4562 26.7984 34.4562 26.7984C34.4562 26.7984 34.2917 27.0257 34.568 27.2341L34.3641 27.2215ZM34.193 27.6635C34.0346 27.6744 33.8757 27.6524 33.7269 27.599C33.5782 27.5456 33.4432 27.4621 33.3312 27.3541C33.7243 27.2464 34.1361 27.2164 34.5417 27.2657C34.4956 27.3478 34.3377 27.4109 34.5417 27.6761C34.5417 27.6761 34.2127 27.6761 34.1798 27.6761M33.7259 27.9793C33.8414 27.8825 33.9762 27.809 34.122 27.7635C34.2679 27.7179 34.4218 27.7011 34.5746 27.714C34.5746 27.714 34.6141 27.714 34.6338 27.714C34.6535 27.714 34.4627 27.7898 34.6338 28.0235C34.3838 28.0929 33.9364 28.1498 33.7259 27.9477M34.0812 28.4213C34.1733 28.3203 34.0154 28.3519 34.6601 28.0424C34.6882 28.0602 34.7194 28.073 34.7522 28.0803C34.7522 28.0803 34.6864 28.1435 34.7983 28.314C34.5795 28.4287 34.3259 28.4666 34.0812 28.4213ZM33.5088 25.0301C33.5088 25.0301 33.5088 24.8786 33.5088 24.828C34.1246 25.0159 34.7232 25.2525 35.2983 25.5353C35.2654 25.7248 35.9562 25.7122 35.568 26.6657C35.568 26.8804 34.1864 27.1773 35.4956 27.9793C35.2588 28.0993 34.8377 28.2761 34.7983 28.314C34.6996 28.2192 34.7983 28.0614 34.7983 28.0614C34.7983 28.0614 34.3838 28.0108 34.6733 27.733C34.7983 27.7709 34.2127 27.4867 34.6206 27.2467C34.7456 27.2972 34.1798 26.9625 34.5877 26.7289C34.693 26.7289 34.2325 26.47 34.7588 26.35C34.5483 25.4596 35.2719 25.9079 33.4956 25.0301M33.1535 33.6565L32.7325 34.4964L32.193 34.2502L32.4825 33.6755C32.701 33.6999 32.9218 33.6999 33.1404 33.6755M33.5548 33.5492L33.443 33.7702L33.193 33.6629C33.3169 33.6354 33.438 33.5974 33.5548 33.5492ZM30.0219 34.1112L30.6798 32.8482C30.9667 33.099 31.2876 33.3115 31.6338 33.4797L31.0812 34.6038L30.0219 34.1112ZM29.7917 35.1027L28.4759 34.5028C28.6075 34.4649 28.568 34.5028 29.0746 34.2312L30.0483 34.667L29.7917 35.1027ZM24.1996 34.9701C23.9443 35.0596 23.6712 35.0919 23.4009 35.0645C23.1307 35.0371 22.8705 34.9508 22.6404 34.8122L24.7391 33.8144L25.0943 33.9723C24.9331 34.3986 24.6148 34.7536 24.1996 34.9701ZM24.2983 33.5934L22.568 34.4333C22.6267 34.1838 22.7374 33.9484 22.8934 33.7411C23.0494 33.5338 23.2476 33.3589 23.4759 33.2271L24.2983 33.5934ZM26.9693 30.9032C27.32 30.7736 27.7019 30.7428 28.0702 30.8144C28.4384 30.886 28.7778 31.057 29.0483 31.3073L26.1667 32.7156C26.2391 32.0209 26.4298 31.1305 26.9693 30.9032ZM26.3114 33.1008L29.3246 31.6673C29.443 32.9303 28.318 34.5217 26.3114 33.1008ZM14.3772 29.8422H14.1601C14.2522 30.1706 13.022 30.5495 13.3509 29.5202C13.1901 29.3374 13.0867 29.1145 13.0528 28.8775C13.0188 28.6405 13.0557 28.3991 13.1591 28.1814C13.2625 27.9638 13.4281 27.7787 13.6368 27.6479C13.8455 27.5171 14.0885 27.4459 14.3377 27.4425C14.3838 27.1078 15.397 26.9815 15.1667 27.834C15.303 28.0045 15.3918 28.2056 15.4245 28.4182C15.4573 28.6308 15.433 28.8479 15.354 29.0489C15.2749 29.25 15.1437 29.4284 14.9728 29.5672C14.8019 29.706 14.5969 29.8007 14.3772 29.8422ZM38.2522 27.051C38.1401 26.8929 37.9844 26.7679 37.8025 26.69C37.6206 26.6121 37.4196 26.5844 37.2222 26.61C37.0248 26.6355 36.8387 26.7134 36.6848 26.8348C36.5309 26.9562 36.4153 27.1163 36.3509 27.2972C36.0417 27.5309 35.9693 27.7267 35.9891 27.8782L30.068 30.7769C29.4825 30.2969 30.443 25.1691 31.8772 28.7434C31.8772 28.6424 31.9759 27.392 32.3443 28.9139C32.3856 28.7122 32.4998 28.5311 32.6667 28.4024C32.6667 25.7058 28.0943 26.3437 29.068 30.2969C27.2588 29.2044 25.3772 30.4737 25.2719 32.5261C24.7671 32.3496 24.2236 32.2996 23.693 32.3809L16.8838 29.337L16.5351 29.1918L17.0088 28.2445C16.943 28.2445 16.8114 28.1687 16.5022 28.0235C16.4754 27.9072 16.4219 27.7982 16.3456 27.7042C16.2694 27.6103 16.1723 27.5338 16.0614 27.4804C16.1272 27.2909 16.1535 27.3983 15.7851 26.8489C15.9759 26.5015 15.4693 25.4532 14.647 26.3373C14.3312 26.1858 14.647 26.2679 13.9891 26.5331C13.7259 26.47 13.0746 26.4321 12.7062 27.3036C12.7062 27.3036 11.6864 27.3036 12.2127 28.314C11.9364 28.7245 11.7785 29.0086 12.4035 29.7412C12.3377 29.9243 12.3114 29.8296 12.6864 30.3727C12.4956 30.7137 12.9956 31.7557 13.8246 30.8779C14.1338 31.0295 13.8246 30.9474 14.4825 30.6821C14.596 30.7321 14.7194 30.7579 14.8443 30.7579C14.9692 30.7579 15.0926 30.7321 15.2062 30.6821L15.7062 30.9095L16.1404 30.0317L22.5812 32.8924C22.1633 33.2928 21.895 33.8145 21.818 34.3765C21.068 33.265 17.5022 34.1175 18.5285 35.9868C18.6667 35.3553 19.6338 33.7892 21.5022 35.0017C14.8509 38.1592 19.4891 36.5362 21.7127 35.2858C21.6141 35.81 21.5614 37.9697 19.1206 37.0983C19.5877 38.2792 22.6667 38.0897 22.4101 35.5511C24.2983 36.2268 24.9167 35.791 25.8443 34.3512L31.8838 37.0351C31.8509 37.0351 32.9364 37.092 32.2719 36.252C32.2719 36.252 32.0351 36.1384 31.6141 35.9552L31.8312 35.5195L32.8443 35.9679L33.9627 33.6944L33.6535 33.5555C34.4759 33.3913 35.2062 31.0295 33.8641 30.7579C33.6575 30.8105 33.4381 30.7903 33.2456 30.7011C33.3575 30.9979 34.1864 31.8378 33.1141 31.1621C35.3443 33.9534 30.5483 32.5072 30.2259 31.2568L36.2259 28.4024C36.3377 28.5097 36.5219 28.5476 36.9167 28.4403C37.4101 28.5287 38.5483 28.4403 38.2325 27.1141" fill="#FABC42"/>
</svg>
