<svg width="50" height="50" viewBox="0 0 50 50" fill="none" xmlns="http://www.w3.org/2000/svg">
<path fill-rule="evenodd" clip-rule="evenodd" d="M8.86191 12.0402C8.83667 12.0599 8.67458 12.0878 8.48113 12.1057C8.1557 12.1359 7.68281 12.2041 7.64832 12.2259C7.6392 12.2317 7.51273 12.248 7.36739 12.2622C7.12257 12.2859 6.49947 12.3914 6.04982 12.4854C5.73282 12.5518 5.41547 12.6165 5.0978 12.6795C4.55193 12.7868 4.46182 12.8063 3.66339 12.989C3.47493 13.0322 3.28073 13.0745 3.23186 13.0831C3.183 13.0917 2.92594 13.1501 2.66062 13.2128C2.39531 13.2755 2.09263 13.3446 1.98791 13.3661L1.59438 13.447C1.48265 13.4698 1.2827 13.511 1.15011 13.5385C0.595111 13.6535 0.109476 13.7461 0.0602373 13.7461C-0.00774665 13.7461 -0.0244927 16.3651 0.0428664 16.4635C0.0622368 16.4919 0.0932295 16.5675 0.11185 16.6318C0.214451 16.9871 0.442522 17.3231 1.04638 18.0093C1.6861 18.7363 1.83557 19.028 2.08451 20.037C2.40856 21.3503 2.59589 21.9769 3.22324 23.8453C3.30902 24.0989 3.40077 24.3503 3.49843 24.5993C3.57817 24.7982 3.65699 24.9975 3.73487 25.1971C4.59129 27.4063 5.20177 28.1382 6.913 29.0078C8.02061 29.5705 9.48426 29.9905 10.7085 30.0968C10.8901 30.1127 11.1071 30.137 11.1909 30.1511C11.4328 30.1918 12.7442 30.2098 13.1965 30.1789C13.9007 30.1306 14.5095 30.0727 14.7198 30.0339C14.8548 30.0094 14.9902 29.9869 15.1259 29.9665C15.9432 29.8454 17.0126 29.4505 17.8109 28.9751C18.3608 28.6477 19.3512 27.8443 19.6215 27.5066C19.6761 27.4383 19.8306 27.263 19.9645 27.1171C20.7165 26.2983 21.5122 25.0297 22.3104 23.3775C22.6539 22.6664 22.7455 22.3989 23.0457 21.2328C23.3125 20.1964 23.4071 19.9021 23.6244 19.4342C23.8175 19.0183 23.8582 18.9867 24.1755 19.0069C24.926 19.0546 25.5406 19.072 25.9792 19.0578L26.4744 19.0417L26.5544 19.1107C26.7731 19.299 27.0985 19.9875 27.2871 20.6609C27.4803 21.3509 27.9739 22.8156 28.1805 23.3125C28.8422 24.9032 29.6585 26.2371 30.5278 27.1478C31.6004 28.2716 32.7534 29.0006 34.2682 29.5126C34.7765 29.6844 35.6588 29.91 36.0454 29.9671C36.1571 29.9836 36.3412 30.0133 36.4545 30.033C37.0969 30.145 39.0038 30.1526 39.663 30.046C39.8516 30.0155 40.08 29.9794 40.1708 29.9658C42.6888 29.5872 45.0225 28.0535 46.2012 26.0027C46.5609 25.3768 47.0408 24.1881 47.2295 23.4554C47.2552 23.3553 47.3116 23.139 47.3548 22.9745C47.3981 22.8101 47.5583 22.1726 47.711 21.5577C47.8637 20.943 48.0103 20.3639 48.0369 20.2709C48.0634 20.178 48.1383 19.9148 48.2031 19.686C48.5283 18.5385 48.9037 17.9091 49.5008 17.5102C49.7159 17.3665 49.8512 17.2327 49.896 17.1192C49.9143 17.0726 49.9443 17.0251 49.9626 17.0137C50.0151 16.9808 50.0111 14.3105 49.9585 14.2465C49.5959 13.8049 49.4306 13.7133 48.8442 13.629C48.6801 13.6046 48.5168 13.574 48.3548 13.5372C47.8146 13.4082 47.2715 13.2667 47.0128 13.1874C46.6577 13.0785 46.2362 12.9627 45.4974 12.7711C45.0917 12.6658 44.012 12.4677 43.3696 12.3806C43.2092 12.3588 42.4662 12.2404 42.075 12.1743C41.9065 12.1478 41.7373 12.1259 41.5677 12.1088C41.384 12.0905 41.2614 12.0658 41.2356 12.042C41.1767 11.9873 38.0214 11.9854 37.9164 12.0399C37.8787 12.0596 37.7051 12.0892 37.5305 12.1058C37.3559 12.1225 37.1104 12.1534 36.9846 12.1745C36.8591 12.1958 36.6649 12.2253 36.5531 12.2404C36.4414 12.2555 36.2414 12.2857 36.1089 12.3075C35.9761 12.3294 35.7591 12.3628 35.6265 12.3818C35.2167 12.4406 33.7747 12.7079 33.1131 12.8478C32.9525 12.8817 32.6669 12.9408 32.4783 12.9792C32.2899 13.0176 32.0043 13.0766 31.8437 13.1103C31.2801 13.2287 31.1422 13.2563 30.7394 13.3309C30.5159 13.3723 30.2417 13.4247 30.13 13.4474C29.6141 13.5522 29.3791 13.5947 28.8352 13.6813C27.9647 13.82 27.5494 13.874 27.2058 13.8928C26.8955 13.91 26.8348 13.9047 26.068 13.7962C25.0935 13.6583 24.2579 13.5906 23.5263 13.5903C22.8174 13.5901 22.6856 13.6045 22.4265 13.7106C22.2401 13.787 22.0094 13.7853 21.6505 13.7049C21.5528 13.683 21.3586 13.6428 21.219 13.6155C20.6835 13.5112 20.4163 13.4533 19.9623 13.3426C19.704 13.2798 19.4469 13.2205 19.3911 13.211C19.3352 13.2014 19.105 13.1486 18.8794 13.0936C18.6538 13.0384 18.3683 12.9755 18.2447 12.9537C18.1212 12.9318 17.9173 12.8911 17.7917 12.8631C17.2403 12.7404 16.9854 12.6965 16.1287 12.5767C15.9262 12.5484 15.5665 12.4968 15.329 12.4619C14.767 12.381 14.2042 12.3057 13.6408 12.2358C13.4757 12.2158 13.3106 12.1946 13.1458 12.1724C13.0061 12.1534 12.709 12.124 12.4857 12.1068C12.2151 12.0862 12.066 12.064 12.0394 12.0402C11.9814 11.9884 8.92852 11.9885 8.86191 12.0402ZM14.9101 13.7443C15.0847 13.7615 15.3589 13.7975 15.5195 13.8241C15.6801 13.8507 15.8743 13.8802 15.951 13.8895C16.0801 13.9051 16.2474 13.9403 16.8904 14.0871C17.023 14.1173 17.2458 14.1752 17.3854 14.2157C17.5251 14.2561 17.7669 14.3248 17.923 14.3682C21.7615 15.4357 22.7029 17.453 21.1958 21.3814C21.1178 21.5846 21.0539 21.757 21.0539 21.7644C21.0539 21.8209 20.4575 23.1803 20.2095 23.6893C19.2763 25.6035 17.8577 27.0241 16.1003 27.8036C15.6974 27.9824 14.848 28.2643 14.5156 28.3295C14.3626 28.3595 14.1668 28.4011 14.0804 28.4217C13.9942 28.4424 13.7485 28.4767 13.5347 28.4981C13.3207 28.5194 13.0339 28.5489 12.8973 28.5633C12.5818 28.5966 11.9041 28.5971 11.6014 28.5642C11.38 28.5407 11.1586 28.518 10.937 28.4962C10.4144 28.4443 9.17984 28.2191 9.05187 28.1522C9.0275 28.1394 8.92752 28.1078 8.82979 28.0817C8.11746 27.8918 6.87963 27.1639 6.91799 26.9573C6.93337 26.8742 7.15544 26.8862 7.48998 26.9886C8.88478 27.415 9.5385 27.4492 10.3284 27.1368C11.0486 26.8521 11.7437 26.1077 12.0668 25.2751C12.3073 24.6548 12.3445 24.3527 12.3453 23.0045C12.3461 21.8335 12.3175 21.9412 12.6885 21.7145C13.0975 21.4647 13.7159 21.2848 14.0343 21.3229C14.4482 21.3727 14.7898 21.4916 15.0552 21.6785C15.3199 21.865 15.3459 21.9617 15.2123 22.2637C15.169 22.3616 15.0141 22.7272 14.868 23.0763C14.7219 23.4253 14.5784 23.7587 14.5492 23.8172C14.3255 24.2647 13.8445 25.5173 13.6699 26.1069C13.5107 26.6448 13.4877 26.7308 13.4603 26.8917C13.4046 27.2198 13.4924 27.2138 13.8416 26.866C14.4981 26.2123 15.2721 25.981 16.2177 26.1562C16.3293 26.1769 16.4892 26.2016 16.5731 26.2112C16.6568 26.2207 16.7967 26.2453 16.8839 26.2657C17.1839 26.3363 17.1652 26.3565 17.7423 25.3401C18.2476 24.4499 18.2767 24.3814 18.1915 24.2782C18.0985 24.1657 18.0259 24.1785 17.8575 24.337C17.6752 24.5086 17.7213 24.5038 17.0731 24.4173C16.4649 24.3359 16.0455 24.3327 15.5878 24.4055C15.0262 24.4949 15.0105 24.4575 15.394 23.9467C15.8195 23.3802 16.8397 21.7323 16.8397 21.6115C16.8397 21.6024 16.9035 21.452 16.9817 21.2773C17.2001 20.7892 17.3985 20.2247 17.4359 19.985C17.4459 19.9207 17.4761 19.7744 17.503 19.66C17.5655 19.3945 17.5911 18.747 17.5545 18.3586C17.4168 16.8941 16.3743 15.7024 14.6056 14.9873C13.8211 14.6702 14.0183 14.6134 12.4222 15.6169C12.2199 15.7439 12.0168 15.8695 11.8128 15.9937C11.6662 16.0824 11.4492 16.2175 11.3305 16.2938C11.2119 16.3702 11.0233 16.4879 10.9116 16.5555C10.2097 16.9801 9.81606 17.2425 9.77769 17.3116C9.75333 17.3553 9.7402 17.5388 9.73108 17.9612C9.71396 18.7528 9.75058 18.7169 9.10935 18.5703C8.55561 18.4436 8.17882 18.4671 7.81428 18.651C7.46549 18.8271 7.48511 18.9386 7.87489 18.9958C8.68508 19.1148 9.29606 19.6184 9.57099 20.394C9.70096 20.7608 9.6471 20.8095 9.24482 20.6896C8.53449 20.4778 8.04285 20.5183 7.67219 20.8189C7.43225 21.0135 7.50773 21.1027 7.91263 21.1033C8.69832 21.1045 9.16971 21.4181 9.53938 22.1858C9.74733 22.6175 9.72958 22.6394 9.19121 22.619C8.61709 22.5972 8.30079 22.6883 8.03223 22.9524C7.8359 23.1456 7.89226 23.2023 8.31342 23.2357C9.06699 23.2953 9.53975 23.4765 9.89704 23.8428C10.6151 24.5788 10.3537 25.6245 9.41216 25.7824C9.14784 25.8267 8.45888 25.8126 8.00436 25.7538C7.24617 25.6554 6.86351 25.7117 6.42624 25.9864C6.11193 26.1836 6.08057 26.1728 5.83325 25.7827C5.02969 24.5147 4.20638 21.577 3.98994 19.2051C3.72312 16.2809 4.42458 15.1592 7.0121 14.3723C7.15731 14.328 7.29353 14.292 7.3149 14.292C7.33627 14.292 7.47449 14.2637 7.62208 14.2291C7.94738 14.1531 8.41114 14.0743 8.85516 14.0198C9.03674 13.9975 9.32805 13.9614 9.50263 13.9398C10.4598 13.821 11.0262 13.7681 11.9398 13.712C12.3075 13.6894 14.6081 13.7145 14.9101 13.7443ZM38.7619 13.7333C39.6856 13.7892 41.2137 13.9614 41.9861 14.0968C42.1816 14.131 42.4271 14.1718 42.5318 14.1874C42.9466 14.2493 43.8634 14.5165 43.9691 14.6064C44.0918 14.7106 43.9065 14.7908 43.3984 14.8528C42.746 14.9325 42.0043 14.8151 41.326 14.5247C40.9517 14.3645 40.8975 14.3686 40.6178 14.5779C39.897 15.1174 39.5102 15.4005 39.4092 15.4623C39.3463 15.5008 39.1995 15.5921 39.0829 15.665C38.5968 15.9693 37.8496 16.1721 36.9555 16.2425C36.4208 16.2847 36.4536 16.2309 36.4434 17.084C36.4338 17.8775 36.4377 17.8653 36.1882 17.8913C34.9201 18.0232 34.2082 18.3182 33.7075 18.9192C33.3625 19.3335 33.1449 19.9644 33.2795 20.1613C33.3338 20.2405 33.3439 20.2371 33.5115 20.0854C34.06 19.5886 34.5312 19.4432 35.4868 19.4763C36.1611 19.4996 36.3361 19.5228 36.3952 19.5976C36.4597 19.6792 36.4479 25.1353 36.3824 25.4831C36.2608 26.1292 36.0356 26.5745 35.7293 26.7743C35.5166 26.913 35.4651 26.8958 34.6368 26.4115C33.3751 25.6735 32.7279 25.5712 32.0852 26.0079C31.9143 26.1241 31.8444 26.1196 31.7006 25.984C30.9042 25.2323 29.9183 23.4765 29.2401 21.602C29.192 21.469 29.1361 21.3275 29.116 21.2876C28.9564 20.9716 28.5801 19.5917 28.5055 19.0491C28.1784 16.6666 29.3297 15.2944 32.4403 14.36C33.5648 14.0222 34.5603 13.8268 35.69 13.7223C36.0946 13.6848 38.0779 13.6919 38.7619 13.7333ZM24.3163 14.1595C24.5536 14.1735 24.8906 14.203 25.0652 14.2253C25.2398 14.2477 25.5196 14.283 25.6872 14.3037C26.9918 14.4657 26.9113 14.4183 26.9451 15.0441C26.9564 15.2524 26.9791 15.6509 26.9955 15.9296C27.0705 17.202 26.9961 18.1641 26.8089 18.3431C26.5967 18.5461 24.3658 18.5728 24.1904 18.3745C24.1627 18.3431 24.0559 17.9607 23.9092 17.3673C23.6004 16.1184 23.2925 15.1586 23.0231 14.6055C22.7679 14.0816 22.799 14.071 24.3163 14.1595ZM45.0702 15.1264C45.6916 15.5519 46.0966 16.1101 46.2622 16.7686C46.4899 17.6742 46.4226 19.3892 46.0955 21.0118C46.0465 21.255 45.9793 21.5883 45.9459 21.7527C45.9127 21.9172 45.8677 22.1028 45.8461 22.1654C45.8246 22.228 45.8068 22.3005 45.8068 22.3266C45.8068 22.3526 45.7737 22.4828 45.7332 22.6157C45.6927 22.7488 45.6346 22.9511 45.6041 23.0655C44.6415 26.6668 42.8768 28.2047 39.3585 28.5082C39.1839 28.5233 38.8921 28.5494 38.7099 28.5663C38.2131 28.6122 37.3047 28.5691 36.4769 28.4601C36.0416 28.4027 34.9029 28.0897 34.7139 27.9755C34.52 27.858 34.5918 27.8112 35.2457 27.6284C35.4752 27.5625 35.7038 27.4929 35.9311 27.4196C36.2097 27.3304 36.4889 27.2435 36.7688 27.1589C39.307 26.396 40.1929 25.5681 40.5089 23.6634C40.5975 23.1295 40.6234 22.616 40.6413 21.0378C40.6497 20.2943 40.6623 19.6655 40.6693 19.6406C40.6975 19.5392 40.7654 19.5305 41.6264 19.5171L42.46 19.504L42.532 19.4215C42.5815 19.3647 42.6327 19.2426 42.6956 19.0315C42.7458 18.8626 42.8274 18.5915 42.877 18.4294C43.0532 17.8522 43.1118 17.8808 41.7546 17.8799C40.8146 17.8794 40.785 17.8779 40.7201 17.8255L40.6532 17.7717V17.0886C40.6532 16.2056 40.6282 16.2365 41.1863 16.4348C42.5886 16.9334 43.917 16.4512 44.5119 15.2277C44.6702 14.9021 44.7276 14.8917 45.0702 15.1264ZM39.0073 16.4927C39.0829 16.5627 39.0787 23.0649 39.0027 23.6396C38.8185 25.0329 38.2312 25.8771 37.042 26.4582C36.4896 26.7281 36.437 26.6601 36.8438 26.2018C37.1245 25.8853 37.4899 25.3612 37.5859 25.137C37.8028 24.6309 37.9131 24.1982 38.0044 23.4944C38.0455 23.1782 38.0513 22.8246 38.0631 19.9243L38.0764 16.7051L38.1456 16.6439C38.1864 16.6082 38.2651 16.5757 38.3361 16.5656C38.4027 16.5561 38.5372 16.5272 38.6349 16.5014C38.8623 16.4412 38.9497 16.4392 39.0073 16.4927ZM13.1893 16.6036C14.2706 16.8869 15.1454 17.5411 15.5356 18.3584C15.6925 18.6871 15.6821 18.7245 15.36 18.9853C14.8259 19.4177 14.1792 19.5703 13.5874 19.4037C13.1963 19.2935 12.5864 18.9638 12.4244 18.7749L12.346 18.6834V17.6315C12.346 16.2891 12.2827 16.3662 13.1893 16.6036ZM11.9389 16.6558C11.9845 16.7431 11.9739 23.9569 11.9277 24.3133C11.8067 25.2455 11.3436 25.8308 10.6282 25.9558C10.1868 26.033 10.1036 25.9206 10.4142 25.667C10.7981 25.3534 11.0644 24.8985 11.1766 24.3652C11.2066 24.2223 11.2387 24.0819 11.248 24.0533C11.2571 24.0247 11.2708 22.4162 11.2786 20.479C11.2945 16.4291 11.2628 16.8519 11.562 16.6986C11.7676 16.5932 11.8984 16.5784 11.9389 16.6558ZM15.757 19.2642C15.9062 19.3759 15.8956 20.0947 15.7344 20.8022C15.5946 21.4157 15.5375 21.48 15.2503 21.3493C14.9146 21.1965 14.7068 21.1285 14.4597 21.0907C13.8455 20.9966 13.3265 21.064 12.7821 21.3087C12.3756 21.4914 12.3841 21.5115 12.3841 20.3619C12.3841 19.1782 12.3603 19.2203 12.8823 19.4772C13.7468 19.9024 14.7229 19.8658 15.4116 19.3823C15.508 19.3146 15.6606 19.2349 15.6987 19.2321C15.7064 19.2316 15.7328 19.2461 15.757 19.2642Z" fill="#FFCE3E"/>
<path d="M3.49367 37.9017H4.8471V37.61L4.47907 37.5613L4.38409 37.4519V34.6378L6.43798 37.9017H7.10282V34.2731L7.2038 34.1575L7.55397 34.1089V33.8233H6.20054V34.1089L6.5627 34.1575L6.66955 34.2731V36.8746L4.8531 33.9872V33.8231H3.4878V34.1209L3.86771 34.1514L3.95082 34.2365V37.4518L3.84397 37.5612L3.49367 37.6098V37.9017ZM8.5631 37.9017H11.7507V36.8138H11.3471L11.2462 37.4581L11.169 37.5553H9.79181V35.975H10.5635L10.6466 36.0601L10.706 36.4977H11.0563V35.0876H10.706L10.6466 35.5252L10.5635 35.6103H9.79181V34.1637H10.9732L11.0503 34.2426L11.1394 34.7775H11.5549V33.8233H8.5631V34.121L8.92514 34.1515L9.02012 34.2366V37.4762L8.92514 37.5735L8.5631 37.604V37.9017ZM12.8496 33.8233V34.121L13.1999 34.1515L13.2949 34.2366V37.4762L13.1999 37.5735L12.8497 37.604V37.9017H14.5237V37.604L14.1615 37.5735L14.0666 37.4762V36.1088H14.1675C14.767 36.1088 14.9214 36.3701 15.1054 36.9476C15.2004 37.2394 15.2538 37.5128 15.5625 37.756C15.7049 37.8715 15.9246 37.9445 16.1798 37.9445C16.3639 37.9445 16.5657 37.9262 16.7734 37.8958V37.6041H16.6963C16.2985 37.6041 16.1204 37.5128 15.9958 37.1786C15.883 36.8747 15.8355 36.5465 15.6516 36.279C15.515 36.0845 15.3131 35.969 15.0282 35.9022C15.699 35.7745 16.0492 35.4219 16.0492 34.8627C16.0492 34.1881 15.5743 33.8234 14.6543 33.8234H12.8497L12.8496 33.8233ZM14.0666 34.1697H14.3396C14.9155 34.1697 15.2182 34.4493 15.2182 34.9477C15.2182 35.5069 14.9155 35.7622 14.2803 35.7622C14.215 35.7622 14.1438 35.7622 14.0666 35.7562V34.1697ZM19.2981 33.8233H17.5647V34.121L17.9268 34.1515L18.0217 34.2488V37.4762L17.9268 37.5735L17.5647 37.604V37.9017H19.2981C19.8917 37.9017 20.3368 37.8106 20.7049 37.5189C21.1858 37.142 21.4351 36.5828 21.4351 35.8656C21.4351 34.5891 20.6752 33.8233 19.2981 33.8233ZM18.8053 34.1637H19.1496C20.0935 34.1637 20.5505 34.7167 20.5505 35.8594C20.5505 37.0021 20.0935 37.5613 19.1496 37.5613H18.8053V34.1637ZM25.0302 37.9017H26.7814V37.604L26.3659 37.5735L26.2649 37.4762V36.0602H27.0604L27.1435 36.1392L27.2028 36.5829H27.5531V35.1666H27.2028L27.1435 35.6104L27.0604 35.6894H26.2649V34.1759H27.4107L27.4878 34.2549L27.5769 34.8445H27.9864V33.8234H25.0065V34.1212L25.3864 34.1516L25.4814 34.2367V37.4764L25.3864 37.5736L25.0302 37.6041V37.9019V37.9017ZM29.1153 35.8413C29.1153 37.1359 29.9284 37.999 31.1573 37.999C31.6559 37.999 32.1308 37.8106 32.4928 37.4641C32.9084 37.0691 33.1281 36.522 33.1281 35.8777C33.1281 35.1908 32.8787 34.6073 32.4216 34.2061C32.0596 33.8901 31.6262 33.732 31.1157 33.732C30.5637 33.732 30.1006 33.9084 29.7266 34.2609C29.323 34.6438 29.1153 35.1787 29.1153 35.8413ZM31.1275 34.121C31.7746 34.121 32.2376 34.7715 32.2376 35.8959C32.2376 36.9718 31.7686 37.6283 31.1157 37.6283C30.4806 37.6283 29.9997 36.9718 29.9997 35.8534C29.9997 34.7653 30.4687 34.121 31.1275 34.121ZM34.2283 37.9017H35.5817V37.61L35.2138 37.5613L35.1188 37.4519V34.6378L37.1727 37.9017H37.8376V34.2731L37.9384 34.1575L38.2887 34.1089V33.8233H36.9353V34.1089L37.2973 34.1575L37.4042 34.2731V36.8746L35.5877 33.9873V33.8233H34.2224V34.121L34.6023 34.1515L34.6854 34.2366V37.4519L34.5786 37.5613L34.2284 37.61V37.9017H34.2283ZM39.2206 33.8233V34.8991H39.6301L39.7251 34.2488L39.8201 34.1697H40.5324V37.4762L40.4316 37.5735L40.0457 37.604V37.9017H41.8206V37.604L41.4347 37.5735L41.3339 37.4762V34.1697H42.0462L42.1352 34.2488L42.2362 34.8991H42.6457V33.8233H39.2206ZM43.7969 37.768C44.1651 37.9004 44.5524 37.9682 44.9426 37.9686C45.9162 37.9686 46.5157 37.4459 46.5157 36.7225C46.5157 36.364 46.3257 36.0358 45.9814 35.8108C45.6312 35.5798 45.3166 35.4887 45.1326 35.3732C44.8179 35.1787 44.6517 34.9963 44.6517 34.7167C44.6517 34.3825 44.9189 34.1393 45.3522 34.1393C45.5421 34.1393 45.6787 34.1697 45.7856 34.2244L45.8687 34.3095L45.9695 34.9417H46.3969V33.957C46.023 33.8233 45.649 33.7503 45.2809 33.7503C44.4321 33.7503 43.88 34.2731 43.88 34.9477C43.88 35.2456 44.0225 35.5434 44.2955 35.7805C44.5567 36.0053 44.8358 36.1087 45.0732 36.2303C45.4946 36.4491 45.7083 36.6679 45.7083 36.9961C45.7083 37.3304 45.4234 37.5735 44.9426 37.5735C44.7586 37.5735 44.5865 37.5432 44.4203 37.4884L44.343 37.3973L44.2481 36.6679H43.7969V37.768Z" fill="#6B6666"/>
</svg>
