<svg width="50" height="50" viewBox="0 0 50 50" fill="none" xmlns="http://www.w3.org/2000/svg">
<path d="M25.0411 9C19.8602 9 15.4605 12.4171 14.1036 17.0804C12.9112 14.6282 10.3618 12.8995 7.40132 12.8995C3.33059 12.8995 0 16.1558 0 20.1357C0 24.1156 3.33059 27.3719 7.40132 27.3719C10.3618 27.3719 12.9112 25.6432 14.1036 23.191C15.4605 27.8543 19.8602 31.2714 25.0411 31.2714C30.1809 31.2714 34.5395 27.8945 35.9375 23.3116C37.1299 25.7237 39.6793 27.4121 42.5987 27.4121C46.6694 27.4121 50 24.1558 50 20.1759C50 16.196 46.6694 12.9397 42.5987 12.9397C39.6793 12.9397 37.1711 14.6282 35.9375 17.0402C34.5395 12.3769 30.1809 9 25.0411 9ZM25.0411 13.2211C28.9474 13.2211 32.0724 16.2764 32.0724 20.0955C32.0724 23.9146 28.9474 26.9699 25.0411 26.9699C21.1349 26.9699 18.0099 23.9146 18.0099 20.0955C18.0099 16.2764 21.1349 13.2211 25.0411 13.2211ZM7.40132 17.1206C9.12829 17.1206 10.4441 18.4473 10.4441 20.0955C10.4441 21.7839 9.08717 23.0704 7.40132 23.0704C5.67434 23.0704 4.35855 21.7437 4.35855 20.0955C4.35855 18.4473 5.71546 17.1206 7.40132 17.1206ZM42.5987 17.1206C44.3257 17.1206 45.6414 18.4473 45.6414 20.0955C45.6414 21.7839 44.2845 23.0704 42.5987 23.0704C40.8717 23.0704 39.5559 21.7437 39.5559 20.0955C39.5148 18.4473 40.8717 17.1206 42.5987 17.1206Z" fill="white"/>
<path d="M5.22195 34.5679C5.05748 34.5679 5.01636 34.6483 5.01636 34.8091V40.6784C5.01636 40.8392 5.09859 40.8794 5.22195 40.8794H5.38642C5.5509 40.8794 5.59202 40.799 5.59202 40.6784V35.7739L8.84037 40.7186C8.84037 40.7588 8.88149 40.7588 8.88149 40.7588C8.88149 40.7588 8.92261 40.7588 8.92261 40.799C8.92261 40.799 8.92261 40.799 8.96373 40.799C9.00484 40.799 9.00484 40.799 9.04596 40.799H9.21044C9.37491 40.799 9.41603 40.7186 9.41603 40.598V34.8091C9.41603 34.6483 9.33379 34.5679 9.21044 34.5679H9.04596C8.88149 34.5679 8.79925 34.6483 8.79925 34.8091V39.6734L5.5509 34.7287L5.50978 34.6885C5.46866 34.6483 5.42754 34.6081 5.3453 34.6081L5.22195 34.5679ZM44.4489 34.6483C44.2844 34.6483 44.3667 34.7287 44.3667 34.8895V36.8995C44.3667 37.1005 44.3667 37.2613 44.3667 37.2613C44.3667 37.2613 43.9555 36.3769 42.8864 36.3769C41.694 36.3769 40.8305 37.3015 40.8716 38.6684C40.8716 40.0352 41.6529 41 42.8453 41C44.0377 41 44.4078 40.0754 44.4078 40.0754H44.4489C44.4489 40.0754 44.4078 40.196 44.4078 40.3568V40.7186C44.4078 40.8794 44.49 40.9196 44.6545 40.9196H44.819C44.9835 40.9196 45.0246 40.8392 45.0246 40.6784V34.8895C45.0246 34.7287 44.7779 34.6483 44.6545 34.6483H44.4489ZM28.4127 34.6885C28.2483 34.6885 28.3716 34.7689 28.3716 34.9297V39.8744C28.3716 40.8392 29.0295 40.9598 29.3996 40.9598C29.5641 40.9598 29.6463 40.8794 29.6463 40.7186V40.5578C29.6463 40.397 29.5641 40.3568 29.4407 40.3568C29.2351 40.3166 28.9473 40.2764 28.9473 39.7136V34.8895C28.9473 34.7287 28.7006 34.6483 28.5772 34.6483L28.4127 34.6885ZM21.0114 35.2111C20.8469 35.2111 20.7647 35.2915 20.7647 35.4523V36.4975V37.0201V39.3116C20.7647 40.3568 21.3815 40.9598 22.3683 40.9598C22.5739 40.9598 22.615 40.9196 22.615 40.7588V40.6382C22.615 40.4774 22.5739 40.4372 22.3683 40.397C21.9983 40.3568 21.3815 40.2362 21.3815 39.2312V37.0201H22.3272C22.4917 37.0201 22.5739 36.9799 22.5739 36.8191V36.7387C22.5739 36.5779 22.4917 36.4975 22.3272 36.4975H21.3815V35.4523C21.3815 35.2915 21.3404 35.2111 21.1759 35.2111H21.0114ZM12.7877 36.3367C11.5542 36.3367 10.5673 37.2211 10.5262 38.6684C10.5262 40.0352 11.5542 41 12.9111 41C13.6512 41 14.1858 40.6784 14.4325 40.5176C14.5558 40.4372 14.5558 40.3166 14.5147 40.2362L14.4325 40.1558C14.3502 40.0352 14.268 39.995 14.1446 40.0754C13.9391 40.2362 13.5279 40.4774 12.9522 40.4774C12.0065 40.4774 11.2252 39.8342 11.1841 38.7086H14.4736C14.5969 38.7086 14.7203 38.588 14.7203 38.4674C14.6792 37.1809 14.0213 36.3367 12.7877 36.3367ZM25.6167 36.3367C24.2598 36.3367 23.2318 37.3015 23.2318 38.6684C23.2318 40.0352 24.2598 41 25.6167 41C26.4391 41 27.0147 40.598 27.2203 40.4372C27.3437 40.3166 27.3437 40.2362 27.2614 40.1156L27.1792 40.0352C27.0969 39.9146 27.0147 39.8744 26.8914 39.9548C26.6858 40.1558 26.2746 40.4372 25.6167 40.4372C24.6298 40.4372 23.8486 39.7136 23.8486 38.6684C23.8486 37.583 24.6298 36.8593 25.6167 36.8593C26.1512 36.8593 26.5624 37.1407 26.768 37.2613C26.8914 37.3417 27.0147 37.3417 27.0969 37.2211L27.1792 37.1005C27.3025 36.9799 27.2614 36.8593 27.1381 36.7789C26.8914 36.6583 26.3979 36.3367 25.6167 36.3367ZM32.5657 36.3367C31.2499 36.3367 30.1808 37.3417 30.1808 38.6282C30.1808 39.9548 31.2499 40.9598 32.5657 40.9598C33.8815 40.9598 34.9506 39.9548 34.9506 38.6282C34.9917 37.3417 33.8815 36.3367 32.5657 36.3367ZM19.2433 36.4171C19.2022 36.4171 19.1611 36.4573 19.0789 36.4975L18.2565 37.4623L17.6397 38.186L16.694 37.1005L16.1594 36.4975C16.1183 36.4573 16.0772 36.4171 15.995 36.4171C15.9539 36.4171 15.8716 36.4171 15.8305 36.4975L15.7071 36.6181C15.5838 36.6985 15.5838 36.8191 15.7071 36.8995L16.5295 37.8644L17.2285 38.6684L16.2006 39.8342L15.7071 40.4372C15.6249 40.5578 15.6249 40.6784 15.7483 40.7588L15.8716 40.8794C15.995 40.9598 16.0772 40.9598 16.1594 40.8392L16.9818 39.8744L17.5986 39.1508L18.5443 40.2362L19.0377 40.8392C19.12 40.9598 19.2433 40.9598 19.3667 40.8794L19.49 40.7588C19.6134 40.6784 19.6134 40.5578 19.49 40.4774L18.6677 39.5126L17.9687 38.7086L18.9966 37.5428L19.49 36.9397C19.5723 36.8191 19.5723 36.6985 19.4489 36.6181L19.3256 36.4975C19.3256 36.4171 19.2844 36.3769 19.2433 36.4171ZM36.1841 36.4171C36.0196 36.4171 35.9785 36.4975 35.9785 36.6583V39.2714C35.9785 40.4372 36.842 41 37.9111 41C38.9802 41 39.8437 40.4372 39.8437 39.2714V36.6583C39.8848 36.4975 39.8025 36.4171 39.6381 36.4171H39.4736C39.3091 36.4171 39.2269 36.4975 39.2269 36.6583V39.1106C39.2269 39.794 38.7746 40.4372 37.87 40.4372C37.0065 40.4372 36.5131 39.794 36.5131 39.1106V36.6583C36.5131 36.4975 36.4308 36.4171 36.2664 36.4171H36.1841ZM12.7877 36.8191C13.4456 36.8191 14.0213 37.3015 14.0624 38.2262H11.2252C11.3486 37.3417 12.0065 36.8191 12.7877 36.8191ZM32.5657 36.8593C33.5525 36.8593 34.3338 37.6232 34.3338 38.6282C34.3338 39.6734 33.5525 40.4372 32.5657 40.4372C31.5789 40.4372 30.7976 39.6332 30.7976 38.6282C30.7976 37.6634 31.62 36.8593 32.5657 36.8593ZM42.9275 36.8593C43.9144 36.8593 44.3667 37.7438 44.3667 38.6282C44.3667 39.9146 43.6677 40.4372 42.8864 40.4372C42.0229 40.4372 41.4473 39.7136 41.4473 38.6282C41.4473 37.5428 42.1052 36.8593 42.9275 36.8593Z" fill="white"/>
</svg>
