<svg width="50.000000" height="50.000000" viewBox="0 0 50 50" fill="none" xmlns="http://www.w3.org/2000/svg" xmlns:xlink="http://www.w3.org/1999/xlink">
	<desc>
			Created with Pixso.
	</desc>
	<defs/>
	<path id="path" d="M15.69 27.66L15.95 38.19L13.35 36.07C10.45 40.8 9.52 45.38 10.9 48.77L11.38 49.96L10.19 49.44C7.47 48.25 5.02 46.57 2.97 44.41L2.86 44.3L2.82 44.11C2.67 42.81 2.75 41.39 3.08 39.94C3.57 38.12 4.27 36.26 5.17 34.43C5.72 33.28 6.39 32.12 7.14 31.01L4.87 29.15L15.69 27.66Z" fill="#B4762C" fill-opacity="1.000000" fill-rule="nonzero"/>
	<path id="path" d="M34.15 22.33L33.89 11.8L36.49 13.92C39.39 9.19 40.32 4.61 38.95 1.22L38.46 0.03L39.65 0.55C42.37 1.75 44.82 3.42 46.87 5.58L46.98 5.69L47.02 5.88C47.17 7.18 47.09 8.6 46.76 10.05C46.27 11.87 45.57 13.73 44.68 15.56C44.12 16.71 43.45 17.87 42.7 18.98L44.97 20.84L34.15 22.33Z" fill="#B4762C" fill-opacity="1.000000" fill-rule="nonzero"/>
	<path id="path" d="M27.67 33.99L38.2 33.73L36.08 36.33C40.81 39.24 45.38 40.17 48.77 38.79L49.96 38.3L49.44 39.5C48.25 42.21 46.57 44.67 44.41 46.72L44.3 46.83L44.12 46.87C42.81 47.02 41.4 46.94 39.95 46.61C38.13 46.12 36.27 45.42 34.44 44.52C33.29 43.96 32.14 43.29 31.02 42.55L29.16 44.82L27.67 33.99Z" fill="#B4762C" fill-opacity="1.000000" fill-rule="nonzero"/>
	<path id="path" d="M22.32 16.19L11.79 16.45L13.91 13.84C9.18 10.94 4.61 10.01 1.22 11.39L0.07 11.87L0.59 10.68C1.78 7.96 3.45 5.51 5.61 3.46L5.72 3.35L5.91 3.31C7.21 3.16 8.63 3.23 10.08 3.57C11.9 4.05 13.76 4.76 15.58 5.65C16.74 6.21 17.89 6.88 19.01 7.63L20.87 5.36L22.32 16.19Z" fill="#B4762C" fill-opacity="1.000000" fill-rule="nonzero"/>
	<ellipse id="circle" cx="25.037231" cy="24.832520" rx="22.507435" ry="22.524202" fill="#D98F40" fill-opacity="1.000000"/>
	<path id="path" d="M16.81 16.9C15.51 16.3 14.54 15.71 13.57 15C12.09 13.96 10.71 12.8 9.56 11.57C6.73 8.71 5.24 5.77 5.65 3.35L4.79 4.28C2.75 6.44 0.03 10.23 0 11.87C0.03 12.06 0.03 12.06 0.03 12.06C0.4 13.32 1 14.59 1.86 15.82C2.97 17.6 5.17 20.58 12.98 24.01L11.6 26.61L22.13 23.78L18.37 13.92L16.81 16.9Z" fill="#FFFFFF" fill-opacity="1.000000" fill-rule="nonzero"/>
	<path id="path" d="M33.18 33.28C34.48 33.87 35.45 34.47 36.42 35.18C37.9 36.22 39.28 37.37 40.43 38.6C43.26 41.47 44.75 44.41 44.34 46.83L45.2 45.94C47.24 43.78 49.96 39.98 50 38.34C49.96 38.16 49.96 38.16 49.96 38.16C49.59 36.89 48.99 35.62 48.13 34.4C47.02 32.61 44.82 29.63 37.01 26.21L38.39 23.6L27.86 26.43L31.65 36.18L33.18 33.28Z" fill="#FFFFFF" fill-opacity="1.000000" fill-rule="nonzero"/>
	<path id="path" d="M33.44 16.82C34.04 15.52 34.63 14.55 35.34 13.58C36.38 12.09 37.53 10.72 38.76 9.56C41.62 6.73 44.56 5.24 46.98 5.65L46.09 4.8C43.93 2.75 40.14 0.03 38.5 0C38.31 0.03 38.31 0.03 38.31 0.03C37.05 0.4 35.78 1 34.56 1.86C32.77 2.97 29.79 5.17 26.37 12.99L23.77 11.61L26.59 22.15L36.42 18.42L33.44 16.82Z" fill="#FFFFFF" fill-opacity="1.000000" fill-rule="nonzero"/>
	<path id="path" d="M16.4 33.17C15.81 34.47 15.21 35.44 14.5 36.41C13.46 37.9 12.31 39.27 11.08 40.43C8.22 43.26 5.28 44.75 2.86 44.34L3.75 45.19C5.91 47.24 9.7 49.96 11.34 50C11.53 49.96 11.53 49.96 11.53 49.96C12.79 49.59 14.06 48.99 15.29 48.13C17.07 47.02 20.05 44.82 23.47 37L26.07 38.38L23.25 27.84L13.46 31.57L16.4 33.17Z" fill="#FFFFFF" fill-opacity="1.000000" fill-rule="nonzero"/>
</svg>
