<svg width="50" height="50" viewBox="0 0 50 50" fill="none" xmlns="http://www.w3.org/2000/svg">
<path d="M5.92941 0.00822376C5.99154 0.00817073 6.05367 0.0081037 6.1158 0.00802401C6.28667 0.00784566 6.45753 0.00786676 6.6284 0.00792052C6.81424 0.00794403 7.00009 0.00778262 7.18594 0.00764514C7.53311 0.00741603 7.88028 0.00733273 8.22746 0.00731669C8.55556 0.00730006 8.88367 0.00720805 9.21177 0.00704965C9.24491 0.00703375 9.24491 0.00703375 9.27871 0.00701753C9.36868 0.00697417 9.45865 0.00693041 9.54862 0.00688611C10.6132 0.00636287 11.6778 0.00615751 12.7423 0.00600463C13.2725 0.00592806 13.8027 0.00580912 14.333 0.00568229C16.0342 0.0052756 17.7354 0.00492928 19.4366 0.00482032C19.5179 0.00481511 19.5992 0.0048098 19.6805 0.00480445C19.8435 0.00479373 20.0066 0.00478311 20.1696 0.00477251C20.3604 0.00476008 20.5513 0.00474757 20.7422 0.0047349C20.7968 0.00473129 20.8514 0.00472771 20.906 0.00472416C22.6601 0.00461019 24.4142 0.00412602 26.1683 0.00337735C27.4289 0.00283953 28.6895 0.00234265 29.9502 0.00219762C29.9891 0.00219312 29.9891 0.00219312 30.0288 0.00218852C30.5982 0.00212367 31.1677 0.00208655 31.7371 0.0020752C31.9409 0.00207083 32.1447 0.00206412 32.3485 0.00205615C32.3992 0.00205417 32.4499 0.0020523 32.5006 0.00205053C33.3076 0.00202102 34.1145 0.00170124 34.9215 0.00123298C35.7346 0.000763042 36.5478 0.00060201 37.3609 0.000861074C37.4734 0.00089689 37.5859 0.000929348 37.6984 0.000959804C37.7315 0.000968955 37.7315 0.000968955 37.7653 0.000978291C38.1347 0.00107117 38.5042 0.000783563 38.8736 0.000393321C39.1955 7.99455e-05 39.5175 0.000118297 39.8394 0.000439445C40.0226 0.000612414 40.2059 0.000636035 40.3892 0.00023042C40.5563 -0.000136354 40.7234 -4.97996e-05 40.8906 0.000380301C40.9503 0.000457753 41.01 0.000378057 41.0697 0.000110652C42.629 -0.00640729 44.0247 0.538424 45.1743 1.58606C45.2138 1.62201 45.2138 1.62201 45.254 1.65869C45.4657 1.86106 45.6419 2.09134 45.8176 2.3247C45.8381 2.35181 45.8587 2.37893 45.8799 2.40686C46.5832 3.37072 46.9173 4.51953 46.9152 5.70295C46.9152 5.7562 46.9152 5.80944 46.9153 5.86269C46.9154 6.00917 46.9153 6.15566 46.9152 6.30214C46.915 6.46144 46.9151 6.62074 46.9152 6.78003C46.9152 7.05927 46.9152 7.33851 46.915 7.61775C46.9149 8.03296 46.9148 8.44818 46.9149 8.8634C46.9149 9.56184 46.9148 10.2603 46.9146 10.9587C46.9144 11.6504 46.9143 12.342 46.9143 13.0337C46.9143 13.0552 46.9143 13.0767 46.9143 13.0988C46.9143 13.295 46.9142 13.4912 46.9142 13.6874C46.9142 14.1752 46.9142 14.6629 46.9142 15.1507C46.9141 15.1729 46.9141 15.1951 46.9141 15.218C46.9141 16.2983 46.9139 17.3787 46.9136 18.459C46.9136 18.8339 46.9135 19.2088 46.9134 19.5837C46.9134 19.6069 46.9134 19.6302 46.9134 19.6542C46.9132 20.7351 46.9131 21.816 46.913 22.897C46.913 22.9671 46.913 23.0373 46.913 23.1075C46.9129 23.5726 46.9129 24.0376 46.9128 24.5027C46.9128 25.4281 46.9127 26.3535 46.9126 27.2789C46.9126 27.3229 46.9126 27.367 46.9126 27.4111C46.9123 30.2547 46.9118 33.0983 46.9112 36.2056C46.8717 36.1968 46.8321 36.188 46.7914 36.1789C46.7389 36.1672 46.6863 36.1555 46.6338 36.1438C46.5948 36.1351 46.5948 36.1351 46.5551 36.1262C45.2676 35.8398 43.9786 35.8187 42.6854 36.0792C42.6556 36.0852 42.6258 36.0911 42.5951 36.0973C42.522 36.112 42.4489 36.1267 42.3758 36.1414C42.3758 36.1161 42.3758 36.0908 42.3758 36.0647C42.3744 33.3109 42.3729 30.5571 42.3707 27.8033C42.3707 27.7416 42.3707 27.7416 42.3706 27.6787C42.3699 26.8065 42.3692 25.9344 42.3685 25.0623C42.3681 24.6242 42.3678 24.1861 42.3674 23.7479C42.3674 23.6819 42.3673 23.6158 42.3673 23.5497C42.3664 22.5323 42.3657 21.5149 42.3652 20.4974C42.3652 20.4756 42.3652 20.4537 42.3652 20.4312C42.365 20.0786 42.3648 19.726 42.3646 19.3734C42.3639 17.8984 42.3629 16.4233 42.3615 14.9483C42.3613 14.7431 42.3611 14.5378 42.3609 14.3326C42.3609 14.2922 42.3608 14.2519 42.3608 14.2102C42.3602 13.56 42.3599 12.9097 42.3598 12.2594C42.3596 11.6057 42.3591 10.952 42.3583 10.2984C42.3578 9.90996 42.3575 9.52155 42.3577 9.13314C42.3578 8.87362 42.3575 8.61411 42.3569 8.35459C42.3566 8.20676 42.3565 8.05893 42.3567 7.9111C42.357 7.7764 42.3568 7.6417 42.3562 7.507C42.3561 7.45878 42.3561 7.41055 42.3564 7.36233C42.3583 6.89503 42.2918 6.47428 42.0863 6.04999C42.0725 6.02068 42.0586 5.99137 42.0444 5.96117C41.7141 5.30916 41.1315 4.89634 40.4509 4.66931C40.072 4.56822 39.6892 4.56346 39.3003 4.56464C39.244 4.56457 39.1876 4.56447 39.1313 4.56435C38.977 4.5641 38.8226 4.56425 38.6683 4.56447C38.5002 4.56463 38.3321 4.56442 38.164 4.56426C37.8695 4.56403 37.5751 4.56403 37.2806 4.5642C36.8428 4.56444 36.4049 4.56432 35.967 4.56412C35.2303 4.5638 34.4936 4.56379 33.7569 4.56397C33.7233 4.56397 33.7233 4.56397 33.689 4.56398C33.6665 4.56399 33.6441 4.56399 33.6209 4.564C32.9365 4.56416 32.2522 4.5642 31.5678 4.56412C31.5219 4.56412 31.4761 4.56411 31.4303 4.56411C31.246 4.56409 31.0618 4.56407 30.8775 4.56405C30.3625 4.56399 29.8475 4.56395 29.3324 4.56393C29.309 4.56393 29.2855 4.56393 29.2614 4.56393C28.5142 4.5639 27.767 4.56398 27.0199 4.56412C26.9956 4.56412 26.9714 4.56413 26.9464 4.56413C26.553 4.5642 26.1595 4.56428 25.766 4.56436C24.2055 4.56467 22.645 4.56466 21.0845 4.56435C20.6912 4.56427 20.298 4.56419 19.9047 4.56412C19.8684 4.56411 19.8684 4.56411 19.8313 4.5641C19.0849 4.56396 18.3385 4.5639 17.5921 4.56393C17.5687 4.56393 17.5452 4.56393 17.5211 4.56394C17.0066 4.56396 16.4922 4.564 15.9777 4.56406C15.7936 4.56408 15.6096 4.5641 15.4255 4.56412C15.3797 4.56412 15.3339 4.56413 15.2881 4.56413C14.6039 4.56421 13.9197 4.56414 13.2356 4.56398C13.2132 4.56398 13.1907 4.56397 13.1676 4.56397C13.1341 4.56396 13.1341 4.56396 13.0998 4.56395C12.3448 4.56377 11.5897 4.56384 10.8347 4.56418C10.3994 4.56436 9.96411 4.56438 9.52883 4.56413C9.23813 4.56399 8.94743 4.56408 8.65672 4.56436C8.49106 4.56451 8.32541 4.56456 8.15975 4.56433C8.00891 4.56412 7.85808 4.56421 7.70724 4.56454C7.65314 4.5646 7.59904 4.56456 7.54495 4.5644C6.71562 4.56206 5.97801 4.72876 5.37259 5.32277C5.34485 5.3508 5.31711 5.37882 5.28853 5.4077C5.26709 5.42877 5.24566 5.44984 5.22357 5.47155C4.67713 6.04667 4.57053 6.81697 4.57269 7.57586C4.57262 7.63215 4.57251 7.68845 4.57238 7.74474C4.57211 7.89911 4.57223 8.05347 4.57242 8.20783C4.57255 8.3759 4.57231 8.54397 4.57212 8.71203C4.57184 9.00649 4.5718 9.30094 4.57191 9.5954C4.57208 10.0333 4.57189 10.4711 4.57162 10.909C4.57114 11.7138 4.57107 12.5186 4.57115 13.3234C4.57116 13.4374 4.57117 13.5513 4.57118 13.6653C4.57118 13.6993 4.57118 13.6993 4.57119 13.7339C4.57123 14.236 4.57114 14.738 4.57103 15.24C4.57101 15.3547 4.57098 15.4694 4.57096 15.5841C4.57095 15.6301 4.57094 15.6761 4.57093 15.7221C4.57093 15.745 4.57092 15.7678 4.57092 15.7913C4.57091 15.8374 4.5709 15.8836 4.57089 15.9297C4.57061 17.239 4.57046 18.5482 4.5706 19.8575C4.5706 19.8817 4.5706 19.9059 4.5706 19.9309C4.57063 20.2012 4.57066 20.4714 4.57069 20.7417C4.57069 20.7661 4.5707 20.7905 4.5707 20.8156C4.57072 20.9637 4.57072 20.9637 4.57073 21.1117C4.57091 22.6723 4.57067 24.233 4.57007 25.7936C4.56991 26.1868 4.56976 26.5801 4.56962 26.9733C4.56961 26.9975 4.5696 27.0217 4.56959 27.0467C4.56932 27.7932 4.56917 28.5396 4.56915 29.2861C4.56915 29.3095 4.56915 29.333 4.56915 29.3571C4.56913 29.8717 4.56914 30.3863 4.56918 30.9009C4.56919 31.0851 4.5692 31.2692 4.56921 31.4534C4.56922 31.4992 4.56922 31.545 4.56922 31.5908C4.56927 32.3202 4.56904 33.0496 4.56868 33.7791C4.5683 34.5343 4.56828 35.2895 4.56867 36.0447C4.56888 36.48 4.56883 36.9153 4.5684 37.3505C4.56813 37.6414 4.56822 37.9322 4.56859 38.223C4.56879 38.3887 4.56884 38.5543 4.56846 38.72C4.56812 38.8709 4.56823 39.0218 4.56869 39.1728C4.56878 39.2268 4.56871 39.2808 4.56845 39.3349C4.56471 40.1788 4.77224 40.9512 5.38503 41.5688C5.86311 42.0073 6.49139 42.2788 7.14423 42.2795C7.20779 42.2796 7.20779 42.2796 7.27263 42.2798C7.31936 42.2798 7.36609 42.2798 7.41283 42.2797C7.4629 42.2798 7.51297 42.2799 7.56304 42.28C7.70102 42.2803 7.839 42.2803 7.97698 42.2803C8.12694 42.2804 8.2769 42.2806 8.42686 42.2808C8.68981 42.2812 8.95276 42.2814 9.21571 42.2816C9.6067 42.2818 9.9977 42.2822 10.3887 42.2827C11.0464 42.2835 11.7041 42.2841 12.3617 42.2846C13.0131 42.2851 13.6644 42.2857 14.3157 42.2864C14.3562 42.2865 14.3967 42.2865 14.4384 42.2865C14.6439 42.2868 14.8495 42.287 15.055 42.2872C16.5115 42.2887 17.9679 42.2901 19.4244 42.2914C19.7775 42.2917 20.1305 42.292 20.4835 42.2924C20.5054 42.2924 20.5273 42.2924 20.5499 42.2924C21.5678 42.2933 22.5856 42.2943 23.6035 42.2954C23.6696 42.2954 23.7356 42.2955 23.8017 42.2956C24.2396 42.296 24.6775 42.2964 25.1155 42.2969C26.0076 42.2978 26.8997 42.2987 27.7918 42.2996C27.8533 42.2996 27.8533 42.2996 27.9161 42.2997C30.6559 42.3024 33.3958 42.3049 36.1356 42.3074C36.1256 42.3627 36.1155 42.4181 36.1055 42.4734C36.0999 42.5042 36.0943 42.535 36.0885 42.5668C36.0724 42.6548 36.0558 42.7428 36.0391 42.8308C35.7948 44.1446 35.8755 45.3779 36.137 46.6817C36.1427 46.7105 36.1485 46.7394 36.1545 46.7691C36.1611 46.802 36.1611 46.802 36.1678 46.8355C33.2895 46.8372 30.4113 46.8387 27.3356 46.8396C27.2916 46.8396 27.2476 46.8397 27.2036 46.8397C26.2795 46.84 25.3555 46.8402 24.4315 46.8404C23.9673 46.8406 23.5031 46.8407 23.0389 46.8408C22.9688 46.8408 22.8988 46.8409 22.8288 46.8409C21.751 46.8412 20.6732 46.8415 19.5954 46.8422C19.5722 46.8422 19.5491 46.8422 19.5252 46.8422C19.1518 46.8424 18.7784 46.8426 18.405 46.8429C17.329 46.8435 16.253 46.8441 15.1771 46.8443C15.1549 46.8443 15.1328 46.8443 15.11 46.8443C14.6238 46.8445 14.1377 46.8445 13.6515 46.8446C13.4559 46.8446 13.2602 46.8447 13.0646 46.8447C13.0432 46.8447 13.0218 46.8447 12.9997 46.8447C12.2894 46.8448 11.579 46.8452 10.8687 46.8458C10.1761 46.8464 9.48358 46.8466 8.79103 46.8465C8.37966 46.8464 7.9683 46.8466 7.55693 46.8472C7.28191 46.8475 7.00689 46.8476 6.73186 46.8473C6.5753 46.8471 6.41875 46.8471 6.2622 46.8476C5.04687 46.8508 5.04687 46.8508 4.54871 46.7392C4.52199 46.7332 4.49527 46.7272 4.46773 46.7211C3.42956 46.4851 2.53045 45.9778 1.75028 45.2619C1.70967 45.2249 1.70967 45.2249 1.66823 45.187C0.636699 44.2011 0.0408886 42.7425 0.00235387 41.3277C0.000385305 41.1908 0.000606073 41.0539 0.0011769 40.917C0.00107591 40.8545 0.000932701 40.792 0.000751856 40.7295C0.000379538 40.5593 0.000598811 40.3891 0.00092315 40.2188C0.00116955 40.033 0.000853055 39.8473 0.000610502 39.6615C0.000263021 39.3364 0.000271589 39.0112 0.000518229 38.6861C0.000781917 38.3376 0.000839455 37.989 0.000640442 37.6405C0.000627977 37.6184 0.000615492 37.5963 0.000602649 37.5736C0.000551185 37.4836 0.000497969 37.3937 0.000443135 37.3037C-6.62462e-05 36.4675 -0.000102424 35.6312 0.000167789 34.795C0.000179773 34.7579 0.000180103 34.7579 0.00019233 34.72C0.000200332 34.6952 0.000208134 34.6705 0.00021638 34.6449C0.00046014 33.8892 0.000522705 33.1334 0.000407306 32.3777C0.000399829 32.327 0.000392143 32.2763 0.000384728 32.2257C0.000354767 32.0221 0.000324359 31.8184 0.000292456 31.6148C0.000203979 31.0457 0.000148991 30.4765 0.00012018 29.9074C0.000118863 29.8815 0.00011712 29.8555 0.000115763 29.8288C7.62857e-05 29.0034 0.000185227 28.178 0.000395035 27.3526C0.000401814 27.3259 0.000408665 27.2991 0.00041565 27.2715C0.000526126 26.837 0.000643876 26.4025 0.000762163 25.968C0.00123077 24.2447 0.00120869 22.5215 0.000739586 20.7983C0.000621738 20.364 0.000505056 19.9297 0.000395035 19.4954C0.000388238 19.4686 0.000381425 19.4419 0.000374421 19.4143C0.000166264 18.5897 7.82822e-05 17.7652 0.00012018 16.9406C0.000121491 16.9147 0.000122756 16.8888 0.000124107 16.8622C0.000154264 16.2936 0.000215157 15.7251 0.000304235 15.1566C0.000335994 14.9531 0.000366247 14.7497 0.000396017 14.5463C0.000403485 14.4957 0.000411358 14.4451 0.000419085 14.3945C0.000534129 13.639 0.000436331 12.8835 0.00019233 12.128C0.00018434 12.1032 0.000176021 12.0785 0.000167789 12.053C0.000155821 12.016 0.000155949 12.016 0.000143739 11.9782C-0.000122769 11.1443 -2.39503e-05 10.3104 0.000484363 9.47649C0.000537661 9.38682 0.00058983 9.29715 0.000640442 9.20748C0.000653007 9.18548 0.000665289 9.16348 0.000678234 9.1408C0.000879593 8.77222 0.000701647 8.40363 0.00042203 8.03505C0.000205295 7.71389 0.000340914 7.39274 0.0007602 7.07159C0.00098921 6.88876 0.00106976 6.70592 0.000721426 6.52309C0.000407046 6.35636 0.000545763 6.18965 0.00102818 6.02293C0.00112442 5.96337 0.0010635 5.90381 0.000815171 5.84425C-0.00318522 4.8105 0.227921 3.84372 0.72097 2.93487C0.737312 2.90464 0.737312 2.90464 0.753984 2.8738C0.941879 2.53165 1.17369 2.23415 1.42862 1.93932C1.44431 1.92104 1.46001 1.90277 1.47618 1.88394C1.67711 1.65169 1.89315 1.45263 2.13627 1.26491C2.16646 1.23995 2.19664 1.21499 2.22774 1.18927C3.29067 0.329072 4.58746 0.00682519 5.92941 0.00822376Z" fill="#3B41D4"/>
<path d="M31.7974 11.0562C31.8431 11.0562 31.8888 11.0562 31.9344 11.0562C32.0578 11.0561 32.1811 11.0563 32.3044 11.0566C32.4336 11.0568 32.5627 11.0568 32.6918 11.0568C32.9361 11.0569 33.1803 11.0572 33.4245 11.0575C33.7027 11.0579 33.9809 11.058 34.259 11.0582C34.831 11.0585 35.403 11.0591 35.9749 11.0598C35.9767 14.1931 35.9775 17.3263 35.9749 22.9101C35.9749 22.9396 35.9749 22.969 35.9749 22.9994C35.974 24.2801 35.9726 25.5608 35.9689 26.8416C35.9688 26.907 35.9686 26.9725 35.9684 27.0379C35.9683 27.0811 35.9681 27.1243 35.968 27.1674C35.9671 27.4859 35.9666 27.8043 35.9662 28.1228C35.9658 28.4798 35.965 28.8369 35.9635 29.1939C35.9628 29.3718 35.9623 29.5498 35.9623 29.7277C35.9623 30.6479 35.928 31.5059 35.6211 32.3839C35.6139 32.4048 35.6067 32.4257 35.5993 32.4472C35.3164 33.2511 34.8469 33.9432 34.238 34.5356C34.2215 34.5535 34.205 34.5714 34.1881 34.5898C33.7464 35.0581 33.1659 35.3794 32.5653 35.5954C32.5321 35.6076 32.4988 35.6198 32.4646 35.6324C31.5272 35.9495 30.4907 35.875 29.6038 35.4447C29.0467 35.16 28.5881 34.7534 28.1792 34.2837C28.0612 34.1482 27.9386 34.0175 27.8148 33.8873C27.6591 33.7228 27.5039 33.5581 27.3504 33.3915C27.213 33.2424 27.0749 33.0939 26.9363 32.9459C26.7806 32.7796 26.6256 32.6128 26.4711 32.4454C26.348 32.312 26.2241 32.1793 26.1 32.0467C25.9443 31.8804 25.7893 31.7136 25.6348 31.5462C25.5117 31.4128 25.3878 31.2801 25.2637 31.1475C25.108 30.9812 24.953 30.8144 24.7985 30.647C24.6753 30.5136 24.5514 30.3808 24.4274 30.2483C24.2717 30.082 24.1167 29.9152 23.9622 29.7478C23.839 29.6144 23.7151 29.4816 23.591 29.3491C23.4354 29.1828 23.2803 29.016 23.1259 28.8485C23.0027 28.7152 22.8788 28.5824 22.7547 28.4499C22.5991 28.2836 22.4441 28.1168 22.2896 27.9494C22.1658 27.8153 22.0412 27.6819 21.9164 27.5487C21.7534 27.3746 21.5918 27.1995 21.4308 27.0237C21.3076 26.8895 21.1829 26.7567 21.0584 26.6237C20.9371 26.4942 20.8164 26.3643 20.6961 26.234C20.5573 26.0835 20.4178 25.9338 20.278 25.7844C20.1217 25.6174 19.9659 25.45 19.8109 25.2819C19.7268 25.1907 19.6424 25.0998 19.5577 25.0091C19.3959 24.8358 19.2344 24.6627 19.0794 24.4833C19.0083 24.4021 18.9355 24.3225 18.8627 24.2429C18.7518 24.1215 18.6423 23.9991 18.5345 23.8751C18.4407 23.7684 18.3447 23.6637 18.2489 23.5588C18.1872 23.4882 18.1872 23.4882 18.1228 23.3918C18.1228 23.4227 18.1228 23.4227 18.1228 23.4542C18.1216 24.6755 18.1198 25.8968 18.1171 27.118C18.1168 27.2649 18.1165 27.4118 18.1162 27.5586C18.1161 27.6025 18.1161 27.6025 18.116 27.6472C18.115 28.1197 18.1144 28.5922 18.114 29.0647C18.1136 29.55 18.1128 30.0354 18.1114 30.5207C18.1106 30.8198 18.1102 31.1189 18.1102 31.4181C18.1102 31.6236 18.1098 31.8291 18.1089 32.0347C18.1085 32.153 18.1082 32.2713 18.1085 32.3896C18.1108 33.43 17.921 34.3473 17.1579 35.1137C16.4414 35.7848 15.6008 35.84 14.668 35.8332C14.5369 35.8324 14.4059 35.8323 14.2748 35.8322C14.0275 35.8318 13.7802 35.8307 13.5329 35.8294C13.251 35.828 12.9691 35.8273 12.6872 35.8266C12.108 35.8253 11.5289 35.8231 10.9498 35.8202C10.948 32.8178 10.9503 29.8154 10.9573 25.1593C10.9576 24.9582 10.958 24.7571 10.9583 24.556C10.9583 24.5339 10.9584 24.5117 10.9584 24.4888C10.9596 23.7606 10.9604 23.0325 10.961 22.3043C10.9617 21.5452 10.9627 20.7861 10.9642 20.0271C10.965 19.5427 10.9657 19.0583 10.9659 18.5739C10.9661 18.259 10.9666 17.9442 10.9674 17.6293C10.9678 17.4485 10.9681 17.2676 10.968 17.0867C10.9679 16.9209 10.9682 16.755 10.9689 16.5891C10.9691 16.5296 10.9691 16.4702 10.9689 16.4107C10.9654 15.0701 11.3541 13.759 12.2365 12.7298C12.2589 12.7034 12.2813 12.6771 12.3045 12.65C12.912 11.9561 13.7136 11.4582 14.6168 11.2525C14.6553 11.2436 14.6553 11.2436 14.6945 11.2346C14.9471 11.1823 15.1957 11.1759 15.4531 11.1762C15.475 11.1762 15.4969 11.1763 15.5195 11.1763C15.885 11.1776 16.2283 11.2084 16.5789 11.3167C16.6006 11.3233 16.6223 11.3298 16.6446 11.3366C17.4591 11.5905 18.1216 12.1105 18.6687 12.7517C18.7617 12.8577 18.8585 12.9602 18.9551 13.063C19.1062 13.2239 19.2558 13.3859 19.4031 13.5503C19.5284 13.6896 19.6555 13.8273 19.7824 13.9652C19.8565 14.0457 19.9305 14.1264 20.0045 14.207C20.034 14.2392 20.0635 14.2713 20.093 14.3034C20.2699 14.4961 20.4468 14.6888 20.6237 14.8815C20.6456 14.9053 20.6456 14.9053 20.668 14.9296C20.6974 14.9617 20.7268 14.9938 20.7563 15.0258C20.8307 15.107 20.9053 15.1881 20.9798 15.2691C21.1158 15.4169 21.2515 15.565 21.3857 15.7144C21.5291 15.874 21.6747 16.0314 21.8205 16.1887C21.957 16.3361 22.0928 16.4842 22.2285 16.6322C22.2873 16.6963 22.3461 16.7603 22.4049 16.8243C22.4343 16.8564 22.4638 16.8885 22.4932 16.9206C22.5677 17.0017 22.6422 17.0828 22.7168 17.1638C22.8528 17.3117 22.9884 17.4597 23.1226 17.6092C23.2661 17.7687 23.4117 17.9261 23.5575 18.0835C23.694 18.2309 23.8297 18.3789 23.9655 18.527C24.039 18.6071 24.1126 18.6872 24.1861 18.7673C24.2156 18.7994 24.2451 18.8316 24.2746 18.8637C24.2892 18.8796 24.3038 18.8955 24.3188 18.9118C24.363 18.96 24.4073 19.0082 24.4515 19.0564C24.4661 19.0723 24.4807 19.0882 24.4957 19.1045C24.5252 19.1366 24.5546 19.1687 24.584 19.2007C24.6585 19.2819 24.733 19.363 24.8076 19.444C24.9435 19.5918 25.0792 19.7399 25.2134 19.8893C25.3568 20.0489 25.5025 20.2063 25.6483 20.3636C25.7848 20.511 25.9205 20.6591 26.0563 20.8071C26.115 20.8712 26.1738 20.9352 26.2326 20.9992C26.2621 21.0313 26.2915 21.0634 26.321 21.0955C26.3955 21.1766 26.47 21.2577 26.5445 21.3387C26.6805 21.4866 26.8162 21.6346 26.9504 21.7841C27.0938 21.9436 27.2394 22.101 27.3852 22.2584C27.5217 22.4058 27.6575 22.5538 27.7932 22.7019C27.852 22.7659 27.9108 22.83 27.9696 22.894C27.999 22.9261 28.0284 22.9581 28.0579 22.9902C28.1327 23.0717 28.2076 23.1532 28.2826 23.2346C28.2979 23.2512 28.3131 23.2678 28.3289 23.2849C28.3707 23.3304 28.4126 23.3758 28.4545 23.4213C28.5301 23.5039 28.6045 23.5874 28.6789 23.671C28.702 23.6969 28.725 23.7229 28.7488 23.7496C28.7663 23.7693 28.7839 23.789 28.8019 23.8093C28.802 23.7883 28.802 23.7673 28.802 23.7457C28.8039 22.4997 28.8063 21.2538 28.8093 20.0078C28.8096 19.858 28.81 19.7082 28.8104 19.5584C28.8104 19.5286 28.8105 19.4988 28.8106 19.468C28.8117 18.986 28.8125 18.5039 28.8132 18.0219C28.8139 17.5268 28.815 17.0317 28.8164 16.5366C28.8172 16.2314 28.8178 15.9262 28.818 15.621C28.8182 15.4114 28.8187 15.2017 28.8195 14.9921C28.8199 14.8714 28.8202 14.7506 28.8201 14.6299C28.8192 13.491 28.8192 13.491 29.017 12.9646C29.0293 12.9312 29.0293 12.9312 29.0418 12.8971C29.1862 12.5195 29.4004 12.1959 29.6704 11.8948C29.6881 11.8745 29.7058 11.8541 29.7241 11.8332C30.2714 11.2435 31.021 11.0541 31.7974 11.0562Z" fill="#393DCE"/>
<path d="M15.7876 15.3168C15.8045 15.3321 15.8214 15.3474 15.8388 15.3632C15.8388 15.3844 15.8388 15.4056 15.8388 15.4275C15.8561 15.4343 15.8735 15.4412 15.8914 15.4483C15.9948 15.5073 16.0719 15.588 16.1544 15.6723C16.1703 15.6883 16.1863 15.7042 16.2027 15.7206C16.3137 15.8328 16.4179 15.9498 16.5214 16.0689C16.6137 16.1739 16.7097 16.2753 16.8058 16.3768C16.848 16.4217 16.8903 16.4666 16.9325 16.5114C16.9538 16.534 16.9751 16.5566 16.997 16.5798C17.5077 17.1217 17.5077 17.1217 17.6894 17.3336C17.7397 17.39 17.7928 17.4423 17.8471 17.4948C17.9296 17.5791 17.9296 17.5791 17.9296 17.6434C17.9508 17.6434 17.972 17.6434 17.9939 17.6434C18.0409 17.6905 18.0409 17.6905 18.0954 17.7558C18.2129 17.8937 18.3356 18.0257 18.4603 18.1572C18.6003 18.3047 18.7372 18.454 18.8707 18.6075C18.964 18.7133 19.0609 18.8155 19.1579 18.9179C19.2005 18.9631 19.2432 19.0084 19.2858 19.0536C19.3172 19.0869 19.3172 19.0869 19.3492 19.1209C19.4502 19.2286 19.5503 19.3372 19.6504 19.4458C19.737 19.5396 19.8239 19.6332 19.9113 19.7263C19.9311 19.7474 19.9509 19.7686 19.9713 19.7903C20.0093 19.8307 20.0472 19.8711 20.0852 19.9115C20.1773 20.0096 20.2677 20.1088 20.3559 20.2104C20.4738 20.3456 20.5964 20.4759 20.7199 20.6059C20.8974 20.7934 21.0732 20.982 21.2473 21.1726C21.3794 21.3167 21.5139 21.4586 21.6483 21.6005C21.7453 21.7033 21.8405 21.807 21.9332 21.9136C22.0506 22.0485 22.1729 22.1784 22.2961 22.308C22.5046 22.5283 22.7106 22.7506 22.9153 22.9744C23.1498 23.23 23.3869 23.4831 23.6251 23.7353C23.8033 23.9241 23.9799 24.1142 24.1557 24.3052C24.2512 24.4088 24.3469 24.5122 24.4426 24.6156C24.5263 24.7061 24.6099 24.7967 24.6934 24.8873C24.7108 24.9061 24.7281 24.9249 24.746 24.9443C24.779 24.9801 24.812 25.0159 24.845 25.0518C24.9115 25.1239 24.9783 25.1946 25.0493 25.2624C25.1026 25.3188 25.1026 25.3188 25.1026 25.383C25.1238 25.383 25.145 25.383 25.1669 25.383C25.2137 25.4299 25.2137 25.4299 25.2679 25.4949C25.388 25.6359 25.5137 25.7706 25.6413 25.9048C25.8498 26.1251 26.0561 26.3472 26.2605 26.5712C26.4708 26.8011 26.6823 27.0297 26.8953 27.2571C27.0654 27.4389 27.2346 27.6216 27.4034 27.8047C27.4835 27.8913 27.5636 27.9779 27.6437 28.0646C27.6758 28.0993 27.708 28.1341 27.7402 28.1689C27.7561 28.1861 27.772 28.2034 27.7884 28.2211C28.3191 28.7952 28.3191 28.7952 28.3674 28.8473C28.3996 28.8822 28.4318 28.917 28.464 28.9519C28.5437 29.038 28.6233 29.1242 28.7029 29.2104C28.8752 29.3971 29.0481 29.5832 29.2218 29.7686C29.3861 29.9441 29.5493 30.1206 29.7117 30.2979C29.8526 30.4517 29.9944 30.6047 30.1361 30.7578C30.2001 30.8269 30.264 30.8961 30.3279 30.9654C30.3599 30.9999 30.3918 31.0344 30.4239 31.0688C30.5079 31.1591 30.5907 31.2502 30.6722 31.3428C31.1684 31.9017 31.8292 32.3365 32.5929 32.3905C33.5347 32.4327 34.2537 32.166 34.9613 31.5425C35.4611 31.0722 35.7492 30.4409 35.9103 29.7827C35.9209 29.7827 35.9315 29.7827 35.9425 29.7827C35.9622 30.6855 35.922 31.5225 35.6208 32.384C35.6136 32.4049 35.6064 32.4258 35.599 32.4473C35.3161 33.2512 34.8466 33.9433 34.2377 34.5357C34.2212 34.5535 34.2047 34.5714 34.1878 34.5898C33.7462 35.0581 33.1656 35.3794 32.565 35.5954C32.5318 35.6076 32.4985 35.6199 32.4643 35.6324C31.5269 35.9496 30.4904 35.8751 29.6035 35.4448C29.0464 35.16 28.5878 34.7535 28.1789 34.2838C28.0609 34.1482 27.9383 34.0176 27.8145 33.8873C27.6589 33.7229 27.5036 33.5581 27.3501 33.3916C27.2127 33.2424 27.0746 33.094 26.936 32.946C26.7803 32.7797 26.6253 32.6128 26.4709 32.4454C26.3477 32.312 26.2238 32.1793 26.0997 32.0468C25.944 31.8805 25.789 31.7136 25.6345 31.5462C25.5114 31.4128 25.3875 31.2801 25.2634 31.1476C25.1077 30.9813 24.9527 30.8144 24.7982 30.647C24.675 30.5136 24.5512 30.3809 24.4271 30.2483C24.2714 30.0821 24.1164 29.9152 23.9619 29.7478C23.8387 29.6144 23.7148 29.4817 23.5908 29.3491C23.4351 29.1829 23.2801 29.016 23.1256 28.8486C23.0024 28.7152 22.8785 28.5825 22.7544 28.4499C22.5988 28.2837 22.4438 28.1169 22.2894 27.9495C22.1655 27.8153 22.0409 27.682 21.9161 27.5487C21.7531 27.3747 21.5915 27.1996 21.4305 27.0237C21.3073 26.8895 21.1826 26.7567 21.0581 26.6238C20.9368 26.4943 20.8161 26.3644 20.6958 26.234C20.557 26.0836 20.4175 25.9338 20.2777 25.7844C20.1214 25.6175 19.9657 25.4501 19.8106 25.282C19.7265 25.1908 19.6421 25.0998 19.5574 25.0092C19.3957 24.8359 19.2342 24.6628 19.0791 24.4834C19.008 24.4022 18.9352 24.3226 18.8624 24.2429C18.7515 24.1215 18.642 23.9992 18.5342 23.8751C18.4404 23.7684 18.3444 23.6637 18.2486 23.5588C18.1869 23.4882 18.1869 23.4882 18.1225 23.3919C18.1225 23.4227 18.1225 23.4227 18.1225 23.4542C18.1213 24.6755 18.1195 25.8968 18.1168 27.1181C18.1165 27.265 18.1162 27.4118 18.1159 27.5587C18.1158 27.6026 18.1158 27.6026 18.1157 27.6473C18.1147 28.1198 18.1141 28.5922 18.1138 29.0647C18.1134 29.5501 18.1125 30.0354 18.1111 30.5208C18.1103 30.8199 18.1099 31.119 18.11 31.4181C18.11 31.6237 18.1095 31.8292 18.1086 32.0347C18.1082 32.153 18.1079 32.2714 18.1082 32.3897C18.1105 33.4301 17.9207 34.3473 17.1576 35.1137C16.4411 35.7849 15.6005 35.84 14.6677 35.8333C14.5366 35.8324 14.4056 35.8324 14.2745 35.8322C14.0272 35.8318 13.7799 35.8308 13.5326 35.8295C13.2507 35.828 12.9688 35.8273 12.6869 35.8267C12.1078 35.8254 11.5287 35.8231 10.9495 35.8202C10.9491 34.4912 10.9492 33.1623 10.9495 31.8333C10.9495 31.6396 10.9496 31.446 10.9496 31.2524C10.95 29.4327 10.9511 27.6129 10.9536 25.7932C10.9539 25.5922 10.9542 25.3913 10.9545 25.1904C10.9545 25.1505 10.9546 25.1106 10.9546 25.0694C10.9555 24.4126 10.9558 23.7557 10.9559 23.0989C10.956 22.4152 10.9567 21.7315 10.9579 21.0478C10.9587 20.6304 10.959 20.2129 10.9587 19.7955C10.9585 19.512 10.9589 19.2286 10.9598 18.9451C10.9603 18.7822 10.9605 18.6193 10.9601 18.4564C10.9596 18.3072 10.96 18.158 10.9609 18.0087C10.961 17.9551 10.961 17.9015 10.9606 17.8478C10.9576 17.3848 11.0581 16.982 11.2612 16.5635C11.272 16.541 11.2829 16.5185 11.2941 16.4954C11.6891 15.7045 12.3718 15.1248 13.2072 14.8434C14.1109 14.581 15.0275 14.7738 15.7876 15.3168Z" fill="#3332BF"/>
<path d="M16.0862 21.1523C16.3869 21.3889 16.6473 21.6612 16.9006 21.9468C16.9224 21.9713 16.9442 21.9958 16.9666 22.021C17.0019 22.0612 17.037 22.1015 17.072 22.1419C17.1373 22.2169 17.2039 22.2905 17.2705 22.3642C17.3754 22.4803 17.4791 22.5973 17.5819 22.7152C17.6731 22.8188 17.766 22.9208 17.8588 23.0228C17.894 23.0625 17.894 23.0625 17.9299 23.1029C17.9575 23.1282 17.9851 23.1534 18.0135 23.1795C18.1362 23.3287 18.1128 23.5075 18.111 23.6916C18.1112 23.7319 18.1114 23.7721 18.1117 23.8136C18.1123 23.9252 18.1119 24.0368 18.1113 24.1484C18.1109 24.2689 18.1114 24.3893 18.1118 24.5098C18.1124 24.7458 18.1121 24.9818 18.1115 25.2178C18.111 25.4098 18.1109 25.6018 18.111 25.7938C18.111 25.8212 18.1111 25.8485 18.1111 25.8767C18.1111 25.9323 18.1111 25.9878 18.1112 26.0434C18.1115 26.535 18.1109 27.0265 18.11 27.5181C18.109 27.9941 18.1088 28.4702 18.1093 28.9462C18.1098 29.465 18.11 29.9839 18.1094 30.5027C18.1094 30.5582 18.1093 30.6137 18.1092 30.6691C18.1092 30.6964 18.1092 30.7237 18.1091 30.7518C18.109 30.9432 18.1091 31.1346 18.1093 31.326C18.1095 31.5598 18.1093 31.7937 18.1085 32.0275C18.1081 32.1466 18.1079 32.2657 18.1083 32.3848C18.1111 33.4272 17.9227 34.3457 17.158 35.1137C16.4415 35.7849 15.6009 35.8401 14.6681 35.8333C14.537 35.8325 14.406 35.8324 14.2749 35.8323C14.0276 35.8319 13.7803 35.8308 13.533 35.8295C13.2511 35.8281 12.9692 35.8274 12.6872 35.8267C12.1081 35.8254 11.529 35.8231 10.9499 35.8203C10.9489 35.2656 10.9483 34.711 10.9479 34.1563C10.9479 34.1342 10.9479 34.1121 10.9479 34.0893C10.9465 31.9174 10.9561 29.7457 10.9657 27.5739C10.966 27.5084 10.9663 27.4429 10.9666 27.3775C10.9716 26.2523 10.9768 25.1272 10.9821 24.0021C11.0033 24.0021 11.0246 24.0021 11.0464 24.0021C11.0469 23.9783 11.0473 23.9545 11.0478 23.93C11.0916 22.9646 11.6229 22.0475 12.311 21.3928C13.3681 20.4679 14.9319 20.2868 16.0862 21.1523Z" fill="#414EE4"/>
<path d="M35.9748 11.0599C35.9748 14.695 35.9748 18.33 35.9748 22.0752C35.9642 22.0752 35.9536 22.0752 35.9426 22.0752C35.9414 22.0938 35.9401 22.1123 35.9388 22.1314C35.8588 23.2442 35.5302 24.1757 34.7525 24.9977C34.7304 25.0218 34.7084 25.0458 34.6856 25.0707C34.0703 25.7192 33.1617 26.1079 32.2725 26.1347C31.3617 26.1452 30.6467 25.795 29.9977 25.1668C29.851 25.023 29.7096 24.8763 29.5762 24.7202C29.4631 24.5918 29.3451 24.4679 29.2276 24.3435C29.1912 24.3048 29.1551 24.2658 29.1193 24.2266C29.0608 24.1628 29.0608 24.1628 28.9999 24.1091C28.8733 23.9865 28.819 23.8948 28.806 23.7177C28.8049 23.6433 28.8051 23.5689 28.8062 23.4945C28.806 23.4534 28.8057 23.4122 28.8055 23.3698C28.8048 23.2561 28.8055 23.1424 28.8064 23.0287C28.8072 22.9059 28.8067 22.783 28.8063 22.6602C28.8058 22.4197 28.8065 22.1791 28.8076 21.9386C28.8088 21.6581 28.8089 21.3776 28.8089 21.0971C28.8089 20.5962 28.81 20.0952 28.8117 19.5943C28.8133 19.1091 28.8142 18.624 28.8143 18.1388C28.8143 18.109 28.8143 18.0791 28.8143 18.0484C28.8143 18.0186 28.8143 17.9888 28.8143 17.9581C28.8144 17.8981 28.8144 17.8381 28.8144 17.7781C28.8144 17.7485 28.8144 17.7189 28.8144 17.6884C28.8145 17.2251 28.8153 16.7617 28.8162 16.2983C28.8165 16.1308 28.8167 15.9634 28.8168 15.7959C28.817 15.53 28.8175 15.2641 28.8186 14.9981C28.8191 14.8768 28.8195 14.7554 28.8194 14.634C28.8192 13.4908 28.8192 13.4908 29.0169 12.9647C29.0251 12.9424 29.0333 12.9202 29.0417 12.8972C29.1861 12.5196 29.4003 12.196 29.6703 11.8949C29.688 11.8746 29.7057 11.8542 29.7239 11.8333C31.1531 10.2937 34.7844 11.0599 35.9748 11.0599Z" fill="#414EE5"/>
<path d="M44.5249 39.0497C44.562 39.0494 44.562 39.0494 44.5999 39.0491C45.7688 39.0431 46.9206 39.4426 47.844 40.1557C47.8735 40.178 47.903 40.2002 47.9334 40.2232C48.3405 40.5419 48.7086 40.9182 49.002 41.3439C49.015 41.3628 49.0281 41.3817 49.0415 41.4012C49.8881 42.6478 50.1699 44.1386 49.9026 45.6152C49.6274 46.9609 48.8475 48.1402 47.7475 48.9551C47.72 48.9756 47.72 48.9756 47.6919 48.9965C46.5711 49.8186 45.0964 50.1396 43.7268 49.9446C42.2927 49.7188 40.9699 48.9689 40.1028 47.7951C39.5454 47.0163 39.1713 46.1208 39.0627 45.1656C39.0592 45.1349 39.0556 45.1041 39.0519 45.0725C38.9143 43.687 39.3056 42.2862 40.1564 41.1834C40.1791 41.1535 40.2018 41.1236 40.2252 41.0928C41.0739 40.0163 42.3414 39.286 43.6998 39.086C43.9741 39.0534 44.2489 39.0508 44.5249 39.0497Z" fill="#F01B44"/>
</svg>
