<svg viewBox="0 0 50 50" xmlns="http://www.w3.org/2000/svg" xmlns:xlink="http://www.w3.org/1999/xlink" width="50.000000" height="50.000000" fill="none">
	<rect id="nodejs" width="50.000000" height="50.000000" x="0.000000" y="0.000000" />
	<path id="Форма 1" d="M50 25C50 38.8061 38.8061 50 25 50C12.261 50 1.74744 40.4735 0.197866 28.1547C0.0666968 27.1076 5.51257e-07 26.0538 5.51257e-07 25C5.51257e-07 23.0436 0.224545 21.1383 0.649178 19.3108C3.22588 8.24589 13.1503 0 25 0C36.8208 0 46.7252 8.20365 49.3286 19.2285C49.6754 20.6914 49.8866 22.1832 49.9644 23.6861C49.9889 24.1241 50 24.562 50 25L50 25Z" fill="rgb(242,242,242)" fill-rule="nonzero" />
	<path id="Форма 2" d="M23.7506 27.0076L23.7506 20.5069L18.1214 17.2588L12.4922 20.5069L12.4922 27.0076L18.1214 30.2579L23.7506 27.0076Z" fill="rgb(59,135,57)" fill-rule="nonzero" />
	<path id="Форма 3" d="M45.9182 26.0205L49.5865 28.1392L45.9182 30.2579L40.2891 27.0076L40.2891 20.5091L45.9182 17.2588L49.3286 19.2286C49.6755 20.6914 49.8867 22.1832 49.9645 23.6861L47.8791 24.8911L47.8791 22.6278L45.9182 21.4962L43.9574 22.6278L43.9574 24.8911L45.9182 26.0205Z" fill="rgb(51,51,51)" fill-rule="nonzero" />
	<path id="Форма 4" d="M47.012 24.3886L47.012 23.1258L45.9204 22.4944L44.8265 23.1258L44.8265 24.3886L45.9204 25.02L47.012 24.3886Z" fill="rgb(102,160,96)" fill-rule="nonzero" />
	<path id="Форма 5" d="M9.83326 20.5091L9.83326 29.0796L6.07826 26.9386L6.07826 22.5434L4.20409 21.4607L2.32992 22.5434L2.32992 26.9364L0.197865 28.1525C0.066696 27.1076 -2.96831e-07 26.0538 -2.96831e-07 25C-2.96831e-07 23.0436 0.224544 21.1383 0.649177 19.3108L4.20409 17.2588L9.83326 20.5091Z" fill="rgb(51,51,51)" fill-rule="nonzero" />
	<path id="Форма 6" d="M18.1191 17.2565L23.7483 27.0053L18.1191 30.2556L12.4922 20.5069L18.1191 17.2565Z" fill="rgb(109,167,93)" fill-rule="nonzero" />
	<path id="Форма 7" d="M12.4922 27.0076L14.4242 23.8551L12.4922 20.5069L12.4922 27.0076Z" fill="rgb(85,163,68)" fill-rule="nonzero" />
	<path id="Форма 8" d="M21.872 23.7572L23.7483 20.5069L18.1214 17.2588L21.872 23.7572Z" fill="rgb(99,157,87)" fill-rule="nonzero" />
	<path id="Форма 9" d="M33.8439 9.72433L33.8439 18.3482L31.9564 17.2588L26.3273 20.5091L26.3273 27.0098L31.9564 30.2601L37.5856 27.0098L37.5856 11.7274L33.8439 9.72433ZM33.8328 24.8399L31.9564 25.9226L30.08 24.8399L30.08 22.6745L31.9564 21.5918L33.8328 22.6745L33.8328 24.8399Z" fill="rgb(51,51,51)" fill-rule="nonzero" />
	<g id="Сочетание 1">
		<path id="Форма 10" d="M27.5544 35.0312C27.5544 35.0312 27.4433 34.0819 26.4273 34.0819C25.4112 34.0819 24.7154 34.2153 24.7154 34.7777C24.7154 35.3402 26.6918 35.3402 27.4433 35.5625C28.1947 35.7826 28.8572 36.3584 28.526 37.3744C28.1947 38.3904 27.1787 38.5016 25.6091 38.5016C24.0395 38.5016 23.686 37.1988 23.686 36.6897L24.5709 36.6897C24.5709 36.6897 24.4597 37.4856 25.498 37.6168C26.5362 37.7479 27.53 37.8235 27.6634 37.021C27.8412 35.9605 24.3041 36.4896 23.9951 35.4514C23.7327 34.5732 23.8839 33.4193 25.6514 33.2415C27.4188 33.0636 28.3903 33.8462 28.3903 35.0089L27.5544 35.0312Z" fill="rgb(102,160,96)" fill-rule="nonzero" />
		<path id="Форма 11" d="M19.0151 39.1729L20.9693 40.3001C21.952 40.867 23.1792 40.1578 23.1792 39.024L23.1792 33.4081L22.3833 33.4081L22.3833 38.8016C22.3833 39.4197 21.7141 39.8088 21.1761 39.4975L19.8133 38.7105L19.8133 32.9546L24.7977 30.0778L29.7821 32.9546L29.7821 38.7105L24.7977 41.5873L23.3615 40.7581L22.4233 41.136L24.7977 42.5055L30.5781 39.1685L30.5781 32.4944L24.7977 29.1573L19.0174 32.4944L19.0151 39.1729Z" fill="rgb(102,160,96)" fill-rule="nonzero" />
	</g>
</svg>
