<svg width="50.000000" height="50.001099" viewBox="0 0 50 50.0011" fill="none" xmlns="http://www.w3.org/2000/svg" xmlns:xlink="http://www.w3.org/1999/xlink">
	<desc>
			Created with Pixso.
	</desc>
	<defs/>
	<path id="path" d="M3.14 2.15L32.04 0.11C35.59 -0.18 36.51 0.01 38.74 1.57L47.97 7.79C49.49 8.86 49.99 9.15 49.99 10.32L49.99 44.44C49.99 46.58 49.18 47.84 46.34 48.03L12.78 49.98C10.65 50.08 9.63 49.78 8.51 48.42L1.72 39.97C0.5 38.41 0 37.24 0 35.88L0 5.55C0 3.8 0.81 2.35 3.14 2.15Z" fill="#000000" fill-opacity="1.000000" fill-rule="nonzero"/>
	<path id="path" d="M32.04 0.11L3.14 2.15C0.81 2.35 0 3.8 0 5.55L0 35.88C0 37.24 0.5 38.41 1.72 39.97L8.51 48.42C9.63 49.78 10.65 50.08 12.78 49.98L46.34 48.03C49.18 47.84 50 46.58 50 44.44L50 10.32C50 9.21 49.54 8.89 48.2 7.95L38.74 1.57C36.51 0.01 35.59 -0.18 32.04 0.11ZM13.54 9.76C10.79 9.93 10.17 9.97 8.62 8.76L4.66 5.75C4.26 5.36 4.46 4.87 5.47 4.78L33.26 2.83C35.59 2.64 36.81 3.42 37.72 4.1L42.49 7.4C42.69 7.5 43.2 8.08 42.59 8.08L13.89 9.73L13.54 9.76ZM10.34 44.15L10.34 15.18C10.34 13.91 10.75 13.33 11.96 13.23L44.92 11.39C46.04 11.29 46.54 11.97 46.54 13.23L46.54 42.01C46.54 43.27 46.34 44.34 44.52 44.44L12.97 46.19C11.15 46.28 10.34 45.7 10.34 44.15ZM41.47 16.73C41.68 17.61 41.47 18.48 40.56 18.58L39.04 18.87L39.04 40.26C37.72 40.94 36.5 41.33 35.49 41.33C33.87 41.33 33.46 40.84 32.25 39.38L22.3 24.41L22.3 38.9L25.45 39.58C25.45 39.58 25.45 41.33 22.91 41.33L15.92 41.72C15.71 41.33 15.92 40.35 16.63 40.16L18.45 39.68L18.45 20.53L15.92 20.33C15.71 19.45 16.22 18.19 17.64 18.09L25.15 17.61L35.49 32.77L35.49 19.36L32.85 19.07C32.65 18 33.46 17.22 34.47 17.12L41.47 16.73Z" fill="#FFFFFF" fill-opacity="1.000000" fill-rule="evenodd"/>
</svg>
