<svg width="50" height="50" viewBox="0 0 50 50" fill="none" xmlns="http://www.w3.org/2000/svg">
<path d="M37.0903 46.4238C36.7935 48.7087 34.6009 50.4859 32.4275 49.8707C29.3253 49.0016 25.7349 47.6444 22.5082 47.3905L17.5582 46.9999C16.7599 46.9432 16.01 46.5887 15.4518 46.0039L6.93044 37.0498C6.47334 36.5729 6.16767 35.9667 6.05325 35.3101C5.93882 34.6534 6.02096 33.9769 6.28894 33.3686C6.28894 33.3686 11.555 21.5535 11.756 20.9383C11.9475 20.3231 12.6752 14.9624 13.0965 12.0916C13.2113 11.3202 13.5752 10.6269 14.1497 10.1094L24.2317 0.852599C24.5641 0.548066 24.9543 0.31637 25.3781 0.171855C25.8019 0.0273395 26.2502 -0.0269175 26.6954 0.0124429C27.1406 0.0518033 27.5731 0.183943 27.9662 0.400681C28.3593 0.617419 28.7046 0.914141 28.9807 1.27248L37.4446 12.2478C37.9153 12.8761 38.1709 13.6445 38.1722 14.4351C38.1722 16.515 38.3446 20.7821 39.4744 23.5357C40.5754 26.2014 42.5861 29.1015 43.6393 30.5173C43.8397 30.7821 43.9586 31.1017 43.9807 31.4355C44.0029 31.7692 43.9274 32.1022 43.7638 32.3921C42.3973 34.7304 40.967 37.0292 39.4744 39.2859C38.0382 41.4634 37.3775 44.1584 37.0807 46.4238H37.0903Z" fill="#6C31E3"/>
<path d="M16.371 46.6874C20.3348 38.4852 20.2199 32.6069 18.5348 28.4277C16.9837 24.561 14.1018 22.1296 11.8326 20.6161C11.7752 20.8407 11.7081 21.0457 11.622 21.2508L6.28895 33.3784C6.01975 33.9857 5.93606 34.6617 6.04877 35.3183C6.16148 35.9748 6.46536 36.5816 6.92087 37.0596L15.4518 46.0137C15.7165 46.2948 16.0276 46.5262 16.371 46.6972V46.6874Z" fill="url(#paint0_radial_49_35)"/>
<path d="M27.1424 30.0389C28.2147 30.156 29.2679 30.3904 30.2828 30.781C33.5382 32.0211 36.5063 34.804 38.9478 40.1843C39.1201 39.8816 39.2925 39.5788 39.484 39.2859C40.9748 37.0281 42.4052 34.7293 43.7734 32.3921C43.9408 32.1034 44.0185 31.7697 43.9963 31.435C43.9741 31.1004 43.853 30.7804 43.6489 30.5173C42.5957 29.0917 40.585 26.2014 39.484 23.5357C38.3542 20.7821 38.1914 16.5052 38.1818 14.4351C38.1818 13.6442 37.9329 12.8728 37.4542 12.2478L28.9807 1.27248C28.9346 1.21553 28.8867 1.16017 28.837 1.10648C29.3946 2.80914 29.4611 4.63928 29.0285 6.37934C28.6183 7.78432 28.053 9.13724 27.3434 10.4121L26.654 11.7987C25.5488 13.9447 24.9149 16.3105 24.7966 18.7315C24.6817 21.6023 25.2562 25.2152 27.1424 30.0389Z" fill="url(#paint1_radial_49_35)"/>
<path d="M27.1423 30.0389C25.2562 25.2152 24.6721 21.6023 24.7966 18.7217C24.9149 16.3007 25.5488 13.935 26.654 11.7889C26.8743 11.3202 27.1136 10.8613 27.3434 10.4121C28.0232 9.05483 28.6838 7.77567 29.0285 6.36958C29.4611 4.62951 29.3946 2.79938 28.837 1.09671C28.2562 0.443874 27.4452 0.0525887 26.5819 0.00865775C25.7185 -0.0352732 24.8734 0.271735 24.2317 0.862365L14.1401 10.1192C13.5772 10.6364 13.2083 11.3372 13.0965 12.1014L11.8709 20.4013L11.823 20.6258C14.1018 22.1393 16.9933 24.5707 18.5348 28.4375C18.8534 29.2206 19.1033 30.031 19.2816 30.8591C21.9625 30.1951 24.6147 29.785 27.1423 30.0486V30.0389Z" fill="url(#paint2_radial_49_35)"/>
<path d="M32.4275 49.8805C34.6009 50.4859 36.7935 48.7087 37.0903 46.4238C37.3374 44.2471 37.9665 42.1336 38.9478 40.1842C36.4967 34.8137 33.5381 32.0211 30.2924 30.781C26.8455 29.4725 23.0923 29.9022 19.2816 30.8493C20.1338 34.7942 19.6263 39.9597 16.371 46.6874C16.7539 46.8632 17.1465 46.9804 17.5678 47.0097C17.5678 47.0097 19.904 47.205 22.6997 47.41C25.4764 47.6053 29.6317 49.0798 32.4275 49.8707V49.8805Z" fill="url(#paint3_radial_49_35)"/>
<path fill-rule="evenodd" clip-rule="evenodd" d="M24.8157 18.5362C24.6913 21.3875 25.0455 24.6684 26.9317 29.4823L26.3381 29.4335C24.6434 24.4047 24.2795 21.8171 24.404 18.9268C24.5495 16.4669 25.2159 14.0684 26.3572 11.8963C26.587 11.4179 27.1232 10.5195 27.3626 10.0606C28.0424 8.72283 28.5019 8.01002 28.8945 6.77969C29.4402 5.07089 29.3253 4.25067 29.2583 3.44997C29.6987 6.36958 28.0423 8.91813 26.7977 11.496C25.653 13.6685 24.9772 16.0656 24.8157 18.5265V18.5362Z" fill="url(#paint4_radial_49_35)"/>
<path fill-rule="evenodd" clip-rule="evenodd" d="M19.0901 28.6328C19.3199 29.1601 19.5306 29.5897 19.6646 30.2439L19.1572 30.3513C18.9561 29.5897 18.7933 29.0429 18.5061 28.3984C16.8018 24.2973 14.0731 22.1882 11.8326 20.6356C14.5327 22.1198 17.3093 24.4438 19.0806 28.6328H19.0901Z" fill="url(#paint5_radial_49_35)"/>
<path fill-rule="evenodd" clip-rule="evenodd" d="M19.6933 30.7517C20.6316 35.2434 19.5784 40.9264 16.4763 46.4629C19.071 40.9752 20.3253 35.7121 19.2816 30.8396L19.6933 30.7517Z" fill="url(#paint6_radial_49_35)"/>
<path fill-rule="evenodd" clip-rule="evenodd" d="M30.4073 30.3513C35.4914 32.2945 37.4542 36.5616 38.9191 40.1159C37.0999 36.3956 34.5914 32.275 30.2254 30.7419C26.8934 29.5897 24.0881 29.7264 19.2816 30.8396L19.1763 30.3513C24.27 29.1698 26.9317 29.0331 30.4073 30.3513Z" fill="url(#paint7_radial_49_35)"/>
<defs>
<radialGradient id="paint0_radial_49_35" cx="0" cy="0" r="1" gradientTransform="matrix(-5.64899 -21.9703 14.3618 -3.80818 15.9401 45.877)" gradientUnits="userSpaceOnUse">
<stop stop-color="white" stop-opacity="0.4"/>
<stop offset="1" stop-opacity="0.1"/>
</radialGradient>
<radialGradient id="paint1_radial_49_35" cx="0" cy="0" r="1" gradientTransform="matrix(4.78728 -37.0077 26.8088 3.61289 34.9552 36.5225)" gradientUnits="userSpaceOnUse">
<stop stop-color="white" stop-opacity="0.6"/>
<stop offset="1" stop-color="white" stop-opacity="0.1"/>
</radialGradient>
<radialGradient id="paint2_radial_49_35" cx="0" cy="0" r="1" gradientTransform="matrix(6.60645 -31.149 20.8725 4.58934 17.2805 29.9608)" gradientUnits="userSpaceOnUse">
<stop stop-color="white" stop-opacity="0.8"/>
<stop offset="1" stop-color="white" stop-opacity="0.4"/>
</radialGradient>
<radialGradient id="paint3_radial_49_35" cx="0" cy="0" r="1" gradientTransform="matrix(-9.19158 -15.9162 17.9044 -10.8387 32.5903 49.9976)" gradientUnits="userSpaceOnUse">
<stop stop-color="white" stop-opacity="0.3"/>
<stop offset="1" stop-opacity="0.3"/>
</radialGradient>
<radialGradient id="paint4_radial_49_35" cx="0" cy="0" r="1" gradientTransform="matrix(-3.44684 16.2092 -10.7235 -2.34349 30.1679 12.5017)" gradientUnits="userSpaceOnUse">
<stop stop-color="white" stop-opacity="0"/>
<stop offset="1" stop-color="white" stop-opacity="0.2"/>
</radialGradient>
<radialGradient id="paint5_radial_49_35" cx="0" cy="0" r="1" gradientTransform="matrix(8.42561 8.69046 -18.1917 18.2597 11.1145 21.4851)" gradientUnits="userSpaceOnUse">
<stop stop-color="white" stop-opacity="0.2"/>
<stop offset="1" stop-color="white" stop-opacity="0.4"/>
</radialGradient>
<radialGradient id="paint6_radial_49_35" cx="0" cy="0" r="1" gradientTransform="matrix(0.861711 12.6939 -26.4258 1.95291 21.0721 27.7149)" gradientUnits="userSpaceOnUse">
<stop stop-color="white" stop-opacity="0.2"/>
<stop offset="1" stop-color="white" stop-opacity="0.3"/>
</radialGradient>
<radialGradient id="paint7_radial_49_35" cx="0" cy="0" r="1" gradientTransform="matrix(-18.9576 -10.1551 31.3088 -60.8332 38.785 38.9637)" gradientUnits="userSpaceOnUse">
<stop stop-color="white" stop-opacity="0.2"/>
<stop offset="0.5" stop-color="white" stop-opacity="0.2"/>
<stop offset="1" stop-color="white" stop-opacity="0.3"/>
</radialGradient>
</defs>
</svg>
