<svg width="50" height="50" viewBox="0 0 50 50" fill="none" xmlns="http://www.w3.org/2000/svg">
<g clip-path="url(#clip0_175_6)">
<path d="M50 0H0V50H50V0Z" fill="#005BFF"/>
<path d="M13.901 17.4329C13.901 20.4164 11.6907 22.4749 8.67547 22.4749C5.65891 22.4749 3.44995 20.4164 3.44995 17.4329C3.44995 14.4494 5.66024 12.391 8.67547 12.391C11.692 12.391 13.901 14.4494 13.901 17.4329ZM34.2664 17.4329C34.2664 20.4164 32.0561 22.4749 29.0409 22.4749C26.0257 22.4749 23.8154 20.4164 23.8154 17.4329C23.8154 14.4494 26.0257 12.391 29.0409 12.391C32.0561 12.391 34.2664 14.4494 34.2664 17.4329ZM44.8981 16.3287V22.1471H42.3597V16.8662C42.3597 15.3453 41.6424 14.7175 40.4191 14.7175C39.1346 14.7175 38.2088 15.4329 38.2088 17.4926V22.1471H35.6704V12.6883H38.1795V14.1203H38.2394C38.8663 13.0466 39.9422 12.3896 41.3157 12.3896C43.3745 12.391 44.8981 13.5244 44.8981 16.3287ZM14.8268 12.6883V14.8369H19.8132L14.7072 20.1178V22.1471H23.1884V19.9983H17.8434L22.9493 14.687V12.6883H14.8268ZM6.10787 17.4329C6.10787 19.0733 7.12269 20.1483 8.67547 20.1483C10.2282 20.1483 11.243 19.0747 11.243 17.4329C11.243 15.7912 10.2282 14.7175 8.67547 14.7175C7.12269 14.7175 6.10787 15.7912 6.10787 17.4329ZM26.4733 17.4329C26.4733 19.0733 27.4881 20.1483 29.0409 20.1483C30.5937 20.1483 31.6085 19.0747 31.6085 17.4329C31.6085 15.7912 30.5937 14.7175 29.0409 14.7175C27.4881 14.7175 26.4733 15.7912 26.4733 17.4329Z" fill="white"/>
<path d="M35.6025 28.0522V37.2109H33.1445V33.5124H29.2115V37.2109H26.7535V28.0522H29.2115V31.374H33.1445V28.0522H35.6025ZM22.2148 28.0522V29.3809H22.1573C21.7238 28.457 20.5662 27.763 19.0924 27.763C16.6924 27.763 14.7257 29.4966 14.7257 32.6167C14.7257 35.7665 16.6344 37.5283 19.0924 37.5283C20.5958 37.5283 21.6658 36.8344 22.1573 35.9682H22.2148V37.2109H24.6727V28.0522H22.2148ZM9.20419 27.9661C7.70068 27.9661 6.54446 28.66 5.93739 29.7574H5.87947C5.96566 27.7347 6.66021 26.8686 9.03058 26.6373L12.7026 26.2903V23.9502L8.62545 24.2676C4.63576 24.585 3.44995 27.3017 3.44995 31.6349C3.44995 35.4773 5.67629 37.5283 8.56754 37.5283C11.4305 37.5283 13.6273 35.4773 13.6273 32.6167C13.6273 29.7574 11.6325 27.9661 9.20419 27.9661ZM19.7289 35.3038C18.2533 35.3038 17.3005 34.2064 17.3005 32.6746C17.3005 31.1145 18.255 29.9875 19.7289 29.9875C21.2028 29.9875 22.2148 31.0849 22.2148 32.645C22.2148 34.1768 21.2028 35.3038 19.7289 35.3038ZM8.53796 35.3038C7.12194 35.3038 6.02225 34.2346 6.02225 32.6463C6.02225 31.0284 7.12063 30.0749 8.53796 30.0749C9.95535 30.0749 11.0537 31.0284 11.0537 32.6463C11.0537 34.2346 9.95535 35.3038 8.53796 35.3038ZM43.4673 37.2109L40.143 32.8198V37.2109H37.685V28.0522H40.143V31.8367L43.2079 28.0522H46.2444L42.4849 32.2119L46.5902 37.2096H43.4673V37.2109Z" fill="white"/>
</g>
<defs>
<clipPath id="clip0_175_6">
<rect width="50" height="50" fill="white"/>
</clipPath>
</defs>
</svg>
