<svg width="50" height="50" viewBox="0 0 50 50" fill="none" xmlns="http://www.w3.org/2000/svg">
<path d="M39.4 49.1667H5.8V4.16667H28.2L39.4 15.8333V49.1667Z" fill="#FCF05A"/>
<path d="M44.2 44.1667H10.6V0.833333H33L44.2 12.5V44.1667Z" fill="#FDBD40"/>
<path d="M33 12.5H44.2L33 0.833333V12.5Z" fill="#F49E21"/>
<path d="M17 37.5H15.4C15.1878 37.5 14.9843 37.4122 14.8343 37.2559C14.6843 37.0996 14.6 36.8877 14.6 36.6667C14.6 36.4457 14.6843 36.2337 14.8343 36.0774C14.9843 35.9211 15.1878 35.8333 15.4 35.8333H17C17.2122 35.8333 17.4157 35.9211 17.5657 36.0774C17.7157 36.2337 17.8 36.4457 17.8 36.6667C17.8 36.8877 17.7157 37.0996 17.5657 37.2559C17.4157 37.4122 17.2122 37.5 17 37.5ZM39.4 37.5H20.2C19.9878 37.5 19.7843 37.4122 19.6343 37.2559C19.4843 37.0996 19.4 36.8877 19.4 36.6667C19.4 36.4457 19.4843 36.2337 19.6343 36.0774C19.7843 35.9211 19.9878 35.8333 20.2 35.8333H39.4C39.6122 35.8333 39.8157 35.9211 39.9657 36.0774C40.1157 36.2337 40.2 36.4457 40.2 36.6667C40.2 36.8877 40.1157 37.0996 39.9657 37.2559C39.8157 37.4122 39.6122 37.5 39.4 37.5ZM17 32.5H15.4C15.1878 32.5 14.9843 32.4122 14.8343 32.2559C14.6843 32.0996 14.6 31.8877 14.6 31.6667C14.6 31.4457 14.6843 31.2337 14.8343 31.0774C14.9843 30.9211 15.1878 30.8333 15.4 30.8333H17C17.2122 30.8333 17.4157 30.9211 17.5657 31.0774C17.7157 31.2337 17.8 31.4457 17.8 31.6667C17.8 31.8877 17.7157 32.0996 17.5657 32.2559C17.4157 32.4122 17.2122 32.5 17 32.5ZM39.4 32.5H20.2C19.9878 32.5 19.7843 32.4122 19.6343 32.2559C19.4843 32.0996 19.4 31.8877 19.4 31.6667C19.4 31.4457 19.4843 31.2337 19.6343 31.0774C19.7843 30.9211 19.9878 30.8333 20.2 30.8333H39.4C39.6122 30.8333 39.8157 30.9211 39.9657 31.0774C40.1157 31.2337 40.2 31.4457 40.2 31.6667C40.2 31.8877 40.1157 32.0996 39.9657 32.2559C39.8157 32.4122 39.6122 32.5 39.4 32.5ZM17 27.5H15.4C15.1878 27.5 14.9843 27.4122 14.8343 27.2559C14.6843 27.0996 14.6 26.8877 14.6 26.6667C14.6 26.4457 14.6843 26.2337 14.8343 26.0774C14.9843 25.9211 15.1878 25.8333 15.4 25.8333H17C17.2122 25.8333 17.4157 25.9211 17.5657 26.0774C17.7157 26.2337 17.8 26.4457 17.8 26.6667C17.8 26.8877 17.7157 27.0996 17.5657 27.2559C17.4157 27.4122 17.2122 27.5 17 27.5ZM39.4 27.5H20.2C19.9878 27.5 19.7843 27.4122 19.6343 27.2559C19.4843 27.0996 19.4 26.8877 19.4 26.6667C19.4 26.4457 19.4843 26.2337 19.6343 26.0774C19.7843 25.9211 19.9878 25.8333 20.2 25.8333H39.4C39.6122 25.8333 39.8157 25.9211 39.9657 26.0774C40.1157 26.2337 40.2 26.4457 40.2 26.6667C40.2 26.8877 40.1157 27.0996 39.9657 27.2559C39.8157 27.4122 39.6122 27.5 39.4 27.5ZM17 22.5H15.4C15.1878 22.5 14.9843 22.4122 14.8343 22.2559C14.6843 22.0996 14.6 21.8877 14.6 21.6667C14.6 21.4457 14.6843 21.2337 14.8343 21.0774C14.9843 20.9211 15.1878 20.8333 15.4 20.8333H17C17.2122 20.8333 17.4157 20.9211 17.5657 21.0774C17.7157 21.2337 17.8 21.4457 17.8 21.6667C17.8 21.8877 17.7157 22.0996 17.5657 22.2559C17.4157 22.4122 17.2122 22.5 17 22.5ZM39.4 22.5H20.2C19.9878 22.5 19.7843 22.4122 19.6343 22.2559C19.4843 22.0996 19.4 21.8877 19.4 21.6667C19.4 21.4457 19.4843 21.2337 19.6343 21.0774C19.7843 20.9211 19.9878 20.8333 20.2 20.8333H39.4C39.6122 20.8333 39.8157 20.9211 39.9657 21.0774C40.1157 21.2337 40.2 21.4457 40.2 21.6667C40.2 21.8877 40.1157 22.0996 39.9657 22.2559C39.8157 22.4122 39.6122 22.5 39.4 22.5ZM17 17.5H15.4C15.1878 17.5 14.9843 17.4122 14.8343 17.2559C14.6843 17.0996 14.6 16.8877 14.6 16.6667C14.6 16.4457 14.6843 16.2337 14.8343 16.0774C14.9843 15.9211 15.1878 15.8333 15.4 15.8333H17C17.2122 15.8333 17.4157 15.9211 17.5657 16.0774C17.7157 16.2337 17.8 16.4457 17.8 16.6667C17.8 16.8877 17.7157 17.0996 17.5657 17.2559C17.4157 17.4122 17.2122 17.5 17 17.5ZM39.4 17.5H20.2C19.9878 17.5 19.7843 17.4122 19.6343 17.2559C19.4843 17.0996 19.4 16.8877 19.4 16.6667C19.4 16.4457 19.4843 16.2337 19.6343 16.0774C19.7843 15.9211 19.9878 15.8333 20.2 15.8333H39.4C39.6122 15.8333 39.8157 15.9211 39.9657 16.0774C40.1157 16.2337 40.2 16.4457 40.2 16.6667C40.2 16.8877 40.1157 17.0996 39.9657 17.2559C39.8157 17.4122 39.6122 17.5 39.4 17.5ZM15.4 8.33333H20.2V13.3333H15.4V8.33333Z" fill="#E9686A"/>
<path d="M15.4 37.5H17C17.2122 37.5 17.4157 37.4122 17.5657 37.2559C17.7157 37.0996 17.8 36.8877 17.8 36.6667C17.8 36.4457 17.7157 36.2337 17.5657 36.0774C17.4157 35.9211 17.2122 35.8333 17 35.8333H15.4C15.1878 35.8333 14.9843 35.9211 14.8343 36.0774C14.6843 36.2337 14.6 36.4457 14.6 36.6667C14.6 36.8877 14.6843 37.0996 14.8343 37.2559C14.9843 37.4122 15.1878 37.5 15.4 37.5ZM39.4 35.8333H20.2C19.9878 35.8333 19.7843 35.9211 19.6343 36.0774C19.4843 36.2337 19.4 36.4457 19.4 36.6667C19.4 36.8877 19.4843 37.0996 19.6343 37.2559C19.7843 37.4122 19.9878 37.5 20.2 37.5H39.4C39.6122 37.5 39.8157 37.4122 39.9657 37.2559C40.1157 37.0996 40.2 36.8877 40.2 36.6667C40.2 36.4457 40.1157 36.2337 39.9657 36.0774C39.8157 35.9211 39.6122 35.8333 39.4 35.8333ZM15.4 32.5H17C17.2122 32.5 17.4157 32.4122 17.5657 32.2559C17.7157 32.0996 17.8 31.8877 17.8 31.6667C17.8 31.4457 17.7157 31.2337 17.5657 31.0774C17.4157 30.9211 17.2122 30.8333 17 30.8333H15.4C15.1878 30.8333 14.9843 30.9211 14.8343 31.0774C14.6843 31.2337 14.6 31.4457 14.6 31.6667C14.6 31.8877 14.6843 32.0996 14.8343 32.2559C14.9843 32.4122 15.1878 32.5 15.4 32.5ZM39.4 30.8333H20.2C19.9878 30.8333 19.7843 30.9211 19.6343 31.0774C19.4843 31.2337 19.4 31.4457 19.4 31.6667C19.4 31.8877 19.4843 32.0996 19.6343 32.2559C19.7843 32.4122 19.9878 32.5 20.2 32.5H39.4C39.6122 32.5 39.8157 32.4122 39.9657 32.2559C40.1157 32.0996 40.2 31.8877 40.2 31.6667C40.2 31.4457 40.1157 31.2337 39.9657 31.0774C39.8157 30.9211 39.6122 30.8333 39.4 30.8333ZM15.4 27.5H17C17.2122 27.5 17.4157 27.4122 17.5657 27.2559C17.7157 27.0996 17.8 26.8877 17.8 26.6667C17.8 26.4457 17.7157 26.2337 17.5657 26.0774C17.4157 25.9211 17.2122 25.8333 17 25.8333H15.4C15.1878 25.8333 14.9843 25.9211 14.8343 26.0774C14.6843 26.2337 14.6 26.4457 14.6 26.6667C14.6 26.8877 14.6843 27.0996 14.8343 27.2559C14.9843 27.4122 15.1878 27.5 15.4 27.5ZM39.4 25.8333H20.2C19.9878 25.8333 19.7843 25.9211 19.6343 26.0774C19.4843 26.2337 19.4 26.4457 19.4 26.6667C19.4 26.8877 19.4843 27.0996 19.6343 27.2559C19.7843 27.4122 19.9878 27.5 20.2 27.5H39.4C39.6122 27.5 39.8157 27.4122 39.9657 27.2559C40.1157 27.0996 40.2 26.8877 40.2 26.6667C40.2 26.4457 40.1157 26.2337 39.9657 26.0774C39.8157 25.9211 39.6122 25.8333 39.4 25.8333ZM15.4 22.5H17C17.2122 22.5 17.4157 22.4122 17.5657 22.2559C17.7157 22.0996 17.8 21.8877 17.8 21.6667C17.8 21.4457 17.7157 21.2337 17.5657 21.0774C17.4157 20.9211 17.2122 20.8333 17 20.8333H15.4C15.1878 20.8333 14.9843 20.9211 14.8343 21.0774C14.6843 21.2337 14.6 21.4457 14.6 21.6667C14.6 21.8877 14.6843 22.0996 14.8343 22.2559C14.9843 22.4122 15.1878 22.5 15.4 22.5ZM39.4 20.8333H20.2C19.9878 20.8333 19.7843 20.9211 19.6343 21.0774C19.4843 21.2337 19.4 21.4457 19.4 21.6667C19.4 21.8877 19.4843 22.0996 19.6343 22.2559C19.7843 22.4122 19.9878 22.5 20.2 22.5H39.4C39.6122 22.5 39.8157 22.4122 39.9657 22.2559C40.1157 22.0996 40.2 21.8877 40.2 21.6667C40.2 21.4457 40.1157 21.2337 39.9657 21.0774C39.8157 20.9211 39.6122 20.8333 39.4 20.8333ZM15.4 17.5H17C17.2122 17.5 17.4157 17.4122 17.5657 17.2559C17.7157 17.0996 17.8 16.8877 17.8 16.6667C17.8 16.4457 17.7157 16.2337 17.5657 16.0774C17.4157 15.9211 17.2122 15.8333 17 15.8333H15.4C15.1878 15.8333 14.9843 15.9211 14.8343 16.0774C14.6843 16.2337 14.6 16.4457 14.6 16.6667C14.6 16.8877 14.6843 17.0996 14.8343 17.2559C14.9843 17.4122 15.1878 17.5 15.4 17.5ZM19.4 16.6667C19.4 16.8877 19.4843 17.0996 19.6343 17.2559C19.7843 17.4122 19.9878 17.5 20.2 17.5H39.4C39.6122 17.5 39.8157 17.4122 39.9657 17.2559C40.1157 17.0996 40.2 16.8877 40.2 16.6667C40.2 16.4457 40.1157 16.2337 39.9657 16.0774C39.8157 15.9211 39.6122 15.8333 39.4 15.8333H20.2C19.9878 15.8333 19.7843 15.9211 19.6343 16.0774C19.4843 16.2337 19.4 16.4457 19.4 16.6667Z" fill="black"/>
<path d="M5.8 50H39.4C39.6122 50 39.8157 49.9122 39.9657 49.7559C40.1157 49.5996 40.2 49.3877 40.2 49.1667V45H44.2C44.4122 45 44.6157 44.9122 44.7657 44.7559C44.9157 44.5996 45 44.3877 45 44.1667V12.5C45 12.4817 44.9912 12.4658 44.9896 12.4475C44.9856 12.3745 44.9719 12.3024 44.9488 12.2333C44.94 12.2067 44.9336 12.1808 44.9224 12.155C44.8835 12.0643 44.8293 11.9816 44.7624 11.9108L33.5624 0.244167C33.4944 0.1745 33.415 0.118056 33.328 0.0775C33.3032 0.0658333 33.2784 0.0591667 33.2536 0.05C33.1867 0.0260352 33.117 0.0114626 33.0464 0.00666667C33.0328 0.00916667 33.0176 0 33 0H10.6C10.3878 0 10.1843 0.0877974 10.0343 0.244078C9.88429 0.400358 9.8 0.61232 9.8 0.833333V3.33333H5.8C5.58783 3.33333 5.38434 3.42113 5.23431 3.57741C5.08429 3.73369 5 3.94565 5 4.16667V49.1667C5 49.3877 5.08429 49.5996 5.23431 49.7559C5.38434 49.9122 5.58783 50 5.8 50ZM42.2688 11.6667H33.8V2.845L42.2688 11.6667ZM11.4 1.66667H32.2V12.5C32.2 12.721 32.2843 12.933 32.4343 13.0893C32.5843 13.2455 32.7878 13.3333 33 13.3333H43.4V43.3333H11.4V1.66667ZM6.6 5H9.8V44.1667C9.8 44.3877 9.88429 44.5996 10.0343 44.7559C10.1843 44.9122 10.3878 45 10.6 45H38.6V48.3333H6.6V5Z" fill="black"/>
<path d="M15.4 14.1667H20.2C20.4122 14.1667 20.6157 14.0789 20.7657 13.9226C20.9157 13.7663 21 13.5543 21 13.3333V8.33333C21 8.11232 20.9157 7.90036 20.7657 7.74408C20.6157 7.5878 20.4122 7.5 20.2 7.5H15.4C15.1878 7.5 14.9843 7.5878 14.8343 7.74408C14.6843 7.90036 14.6 8.11232 14.6 8.33333V13.3333C14.6 13.5543 14.6843 13.7663 14.8343 13.9226C14.9843 14.0789 15.1878 14.1667 15.4 14.1667ZM16.2 9.16667H19.4V12.5H16.2V9.16667Z" fill="black"/>
</svg>
