<svg width="50" height="50" viewBox="0 0 50 50" fill="none" xmlns="http://www.w3.org/2000/svg">
<g clip-path="url(#clip0_805_8)">
<path d="M15.7083 48.2292C15.4306 45.3819 15.6111 42.6528 16.25 40.0417L18.75 29.25C18.2915 27.8573 18.0457 26.4035 18.0208 24.9375C18.0208 21.4375 19.7083 18.9375 22.375 18.9375C24.2083 18.9375 25.5625 20.2292 25.5625 22.6875C25.5625 23.4792 25.4028 24.3681 25.0833 25.3542L24 28.9375C23.7917 29.6319 23.6875 30.2708 23.6875 30.8542C23.6875 33.3542 25.5833 34.75 28.0208 34.75C32.375 34.75 35.4583 30.25 35.4583 24.4167C35.4583 17.9167 31.2083 13.75 24.9375 13.75C17.9375 13.75 13.5 18.3125 13.5 24.6667C13.5 27.2083 14.2917 29.5833 15.8125 31.2083C15.3125 32.0625 14.7708 32.2083 13.9792 32.2083C11.4792 32.2083 9.10417 28.6875 9.10417 23.875C9.10417 15.5417 15.7708 8.9375 25.1042 8.9375C34.8958 8.9375 41.0625 15.7917 41.0625 24.2083C41.0625 32.625 35.0625 39.1042 28.6042 39.1042C27.3751 39.1204 26.1592 38.8502 25.0527 38.315C23.9462 37.7799 22.9795 36.9944 22.2292 36.0208L20.9375 41.2292C20.2907 43.9631 19.1467 46.5548 17.5625 48.875C21.3056 50.0507 25.2731 50.3274 29.1431 49.6827C33.0132 49.038 36.6767 47.49 39.8364 45.1643C42.9962 42.8386 45.5632 39.8008 47.3291 36.2973C49.0949 32.7938 50.01 28.9234 50 25C50 18.3696 47.3661 12.0107 42.6777 7.32233C37.9893 2.63392 31.6304 0 25 0C18.3696 0 12.0107 2.63392 7.32234 7.32233C2.63393 12.0107 8.00967e-06 18.3696 8.00967e-06 25C-0.00399233 29.9986 1.49054 34.8836 4.29063 39.0244C7.09073 43.1651 11.0678 46.3713 15.7083 48.2292Z" fill="#E60023"/>
</g>
<defs>
<clipPath id="clip0_805_8">
<rect width="50" height="50" fill="white"/>
</clipPath>
</defs>
</svg>
