<svg width="50" height="50" viewBox="0 0 50 50" fill="none" xmlns="http://www.w3.org/2000/svg">
<path d="M35.3452 10.1063L36.638 27.4001L35.3452 45L21.0004 41.4597C20.9336 41.4449 20.8718 41.4138 20.8205 41.3691C20.7692 41.3245 20.7302 41.2678 20.707 41.2043L20.0344 39.5616C20.0111 39.5004 19.9736 39.4455 19.925 39.4011C19.8764 39.3567 19.818 39.3241 19.7545 39.3059C19.6909 39.2878 19.6239 39.2846 19.5588 39.2965C19.4937 39.3084 19.4323 39.335 19.3795 39.3743L17.8365 40.5234C17.7853 40.5611 17.7261 40.5868 17.6634 40.5986C17.6006 40.6104 17.536 40.608 17.4744 40.5916L14.6553 39.8934L13.3622 22.8383L14.6553 5L25.552 7.68934C25.6254 7.70829 25.6925 7.7457 25.7469 7.79792C25.8012 7.85013 25.841 7.91536 25.8622 7.98724L26.4916 10.1658C26.5138 10.2404 26.5564 10.3075 26.6146 10.3599C26.6729 10.4122 26.7446 10.4477 26.8219 10.4625C26.8993 10.4775 26.9792 10.4712 27.0532 10.4445C27.1272 10.4177 27.1923 10.3715 27.2416 10.3108L28.5603 8.68505C28.6117 8.62167 28.6806 8.5743 28.7586 8.54864C28.8366 8.52298 28.9205 8.52013 29.0002 8.54044L35.3452 10.1063Z" fill="#B19046"/>
<path d="M12.6641 30.0381C12.712 30.221 12.8201 30.383 12.9715 30.4986C13.1229 30.6142 13.3089 30.6767 13.5003 30.6764C13.5727 30.6764 13.6453 30.6678 13.7158 30.6509C14.0347 30.5657 14.3449 30.4893 14.6553 30.4127V39.8933L1.14676 44.6C1.01707 44.6447 0.878425 44.6582 0.742381 44.6394C0.606337 44.6205 0.476829 44.5698 0.364645 44.4915C0.252461 44.4132 0.160847 44.3096 0.0974348 44.1893C0.0340222 44.069 0.000646048 43.9354 8.60998e-05 43.7998V40.3189C-0.00128329 40.2526 0.0137003 40.187 0.043745 40.1276C0.0737897 40.0683 0.117994 40.0171 0.172547 39.9785L2.02606 38.6084C2.14696 38.5209 2.21336 38.3775 2.20116 38.2299C2.18895 38.0823 2.09969 37.9516 1.96581 37.8849L0.24159 37.0338C0.169762 36.9978 0.109287 36.9431 0.0667167 36.8756C0.0241461 36.8081 0.00110369 36.7303 8.60998e-05 36.6508V10.7107C0.000782198 10.5337 0.0565617 10.3613 0.159868 10.2166C0.263173 10.072 0.409012 9.96226 0.577624 9.90221L9.30183 6.86378C9.37892 6.83928 9.46129 6.83583 9.54021 6.85381C9.61913 6.87178 9.69164 6.91051 9.75007 6.96588L10.6382 7.84252C10.6931 7.89601 10.7616 7.93396 10.8365 7.9524C10.9114 7.97084 10.9899 7.9691 11.0639 7.94737C11.1378 7.92563 11.2045 7.88469 11.257 7.82882C11.3095 7.77295 11.3458 7.7042 11.3622 7.62975L11.638 6.27665C11.6536 6.20431 11.6881 6.13724 11.738 6.08205C11.7879 6.02686 11.8515 5.98544 11.9225 5.96187L14.6553 5V28.668C14.2071 28.7615 13.7589 28.8808 13.2847 28.9999C13.1749 29.0277 13.0716 29.0766 12.9809 29.1439C12.8902 29.2112 12.8139 29.2954 12.7562 29.3919C12.6986 29.4883 12.6608 29.595 12.645 29.7059C12.6292 29.8168 12.6357 29.9297 12.6641 30.0381ZM50 6.20097V39.2892C49.9994 39.4662 49.9437 39.6388 49.8404 39.7834C49.7371 39.9281 49.5911 40.0378 49.4225 40.0978L46.6641 41.0611C46.5796 41.0905 46.4879 41.0932 46.4019 41.0688C46.3158 41.0443 46.2396 40.994 46.1838 40.9248L44.5889 38.9575C44.5364 38.8924 44.4657 38.844 44.3857 38.8182C44.3056 38.7924 44.2196 38.7903 44.1384 38.8122C44.0571 38.8341 43.9841 38.8791 43.9285 38.9415C43.8728 39.0039 43.8369 39.0811 43.8252 39.1634L43.425 41.9412C43.4138 42.0181 43.3814 42.0905 43.3314 42.1505C43.2815 42.2105 43.2158 42.2559 43.1416 42.2817L35.3451 44.9999V10.1063L48.8537 5.3999C48.9835 5.35523 49.1221 5.34181 49.2582 5.36077C49.3943 5.37972 49.5238 5.4305 49.6359 5.50888C49.7481 5.58726 49.8396 5.69096 49.903 5.81134C49.9663 5.93173 49.9996 6.06531 50 6.20097Z" fill="#E4C05C"/>
<path d="M27.7673 14.0383C26.7003 13.3229 25.4778 12.8652 24.1986 12.7021C24.086 12.6887 23.9717 12.6973 23.8624 12.7274C23.7532 12.7576 23.651 12.8087 23.5617 12.8778C23.4724 12.9469 23.3978 13.0328 23.3422 13.1304C23.2865 13.228 23.2509 13.3355 23.2373 13.4467C23.2237 13.5579 23.2324 13.6707 23.2629 13.7785C23.2934 13.8864 23.3452 13.9873 23.4152 14.0754C23.4853 14.1636 23.5722 14.2372 23.6711 14.2922C23.7699 14.3471 23.8788 14.3823 23.9915 14.3957C25.0005 14.5196 25.9644 14.8816 26.8017 15.4509C26.9437 15.5473 27.1125 15.5978 27.2847 15.5956C27.4261 15.5968 27.5656 15.5632 27.6906 15.4979C27.8155 15.4325 27.922 15.3375 28.0004 15.2213C28.0639 15.1286 28.1082 15.0244 28.1309 14.9147C28.1535 14.805 28.154 14.692 28.1323 14.5821C28.1107 14.4722 28.0673 14.3676 28.0047 14.2743C27.942 14.181 27.8613 14.1008 27.7673 14.0383ZM21.5172 13.7149C21.4639 13.6156 21.3911 13.5278 21.3031 13.4564C21.2152 13.3851 21.1138 13.3317 21.0048 13.2992C20.8958 13.2668 20.7813 13.256 20.6681 13.2675C20.5549 13.279 20.445 13.3125 20.345 13.3661C19.9493 13.5731 19.579 13.8243 19.2415 14.1148C18.5543 14.7175 18.0424 15.4902 17.7587 16.3533C17.6842 16.5655 17.6977 16.7982 17.7963 17.0006C17.8948 17.203 18.0703 17.3588 18.2846 17.4341C18.3758 17.4673 18.4721 17.4845 18.5692 17.485C18.7486 17.4847 18.9235 17.4298 19.0701 17.3278C19.2167 17.2257 19.3278 17.0815 19.3882 16.9148C19.5718 16.3364 19.9078 15.8167 20.3622 15.4084C20.6059 15.1994 20.8718 15.0168 21.1551 14.8639C21.2558 14.8125 21.3452 14.7418 21.418 14.656C21.4908 14.5702 21.5457 14.471 21.5794 14.3641C21.6131 14.2572 21.6249 14.1448 21.6143 14.0333C21.6036 13.9219 21.5706 13.8137 21.5172 13.7149ZM30.3365 16.864C30.2756 16.7195 30.1755 16.5944 30.0472 16.5024C29.9189 16.4104 29.7674 16.3552 29.6093 16.3427C29.4514 16.3302 29.293 16.3609 29.1515 16.4315C29.0101 16.502 28.8911 16.6097 28.8076 16.7427C28.7242 16.8758 28.6795 17.0289 28.6785 17.1853C28.6775 17.3418 28.7201 17.4955 28.8017 17.6296C29.1219 18.243 29.2903 18.9226 29.2931 19.6127C29.2917 19.8723 29.2687 20.1312 29.2245 20.3871C29.2032 20.4972 29.2041 20.6103 29.2273 20.7201C29.2504 20.8298 29.2953 20.9339 29.3594 21.0265C29.4234 21.119 29.5054 21.1981 29.6005 21.2593C29.6957 21.3204 29.8021 21.3624 29.9137 21.3828C29.9649 21.3929 30.0169 21.3987 30.069 21.4002C30.2702 21.3994 30.4648 21.3293 30.6191 21.2018C30.7735 21.0744 30.8778 20.8976 30.914 20.7023C31.163 19.3951 30.9596 18.0433 30.3365 16.864ZM19.7331 23.0342C19.427 22.1345 19.2076 21.2084 19.0778 20.268C19.0606 20.1573 19.0518 20.0383 19.0434 19.9193C19.0221 19.6959 18.9126 19.4898 18.7386 19.3455C18.5645 19.2012 18.34 19.1303 18.1134 19.1482C17.8869 19.1661 17.6766 19.2712 17.5279 19.441C17.3793 19.6107 17.3043 19.8314 17.3192 20.0553C17.3363 20.2085 17.3535 20.3618 17.3707 20.4978C17.5155 21.5418 17.758 22.5702 18.0951 23.57C18.152 23.7403 18.2618 23.8887 18.4087 23.9941C18.5557 24.0995 18.7325 24.1567 18.9141 24.1576C19.0075 24.1553 19.1002 24.141 19.1899 24.115C19.6392 23.9614 19.8811 23.4801 19.7331 23.0342ZM29.2245 22.9574C28.8148 22.7178 28.286 22.8511 28.0434 23.2553C27.5098 24.1627 26.8414 24.986 26.0605 25.6978C25.8909 25.8506 25.7894 26.0634 25.7781 26.2898C25.7668 26.5162 25.8467 26.7379 26.0003 26.9064C26.0823 26.9921 26.1812 27.0604 26.2908 27.1072C26.4005 27.154 26.5186 27.1783 26.6381 27.1786C26.8506 27.1806 27.0564 27.1048 27.2157 26.9659C28.127 26.1391 28.9061 25.1807 29.5262 24.1232C29.5854 24.0275 29.6246 23.9211 29.6415 23.8101C29.6584 23.6992 29.6526 23.5861 29.6244 23.4774C29.5963 23.3688 29.5464 23.2668 29.4777 23.1774C29.409 23.0881 29.3229 23.0133 29.2245 22.9574ZM24.4745 27.7149C24.4446 27.6069 24.3934 27.5059 24.3239 27.4175C24.2543 27.3292 24.1679 27.2552 24.0693 27.1999C23.9708 27.1445 23.8623 27.1089 23.7498 27.095C23.6373 27.0812 23.5232 27.0893 23.4139 27.1191C22.9029 27.2585 22.385 27.3722 21.8622 27.4596L20.026 27.7405C19.8215 27.8029 19.6478 27.9382 19.5387 28.1201C19.4297 28.302 19.3931 28.5175 19.4362 28.7245C19.4792 28.9316 19.5987 29.1154 19.7715 29.2402C19.9443 29.365 20.1579 29.4219 20.3709 29.3997C20.5865 29.3746 20.802 29.3403 21.0175 29.3147L22.8623 29.0085C23.1984 28.9316 23.5432 28.8552 23.8793 28.7615C24.3355 28.6338 24.6015 28.1661 24.4745 27.7149ZM16.6897 28.2255C16.008 28.3563 15.3296 28.5038 14.6553 28.6681V30.4129C15.4744 30.2171 16.2587 30.0468 17.0174 29.9022C17.1665 29.8738 17.3054 29.8072 17.4201 29.709C17.5348 29.6109 17.6213 29.4846 17.6709 29.343C17.7206 29.2014 17.7316 29.0493 17.7029 28.9022C17.6741 28.755 17.6067 28.6179 17.5073 28.5047C17.4078 28.3914 17.2799 28.3059 17.1364 28.2569C16.9929 28.2079 16.8388 28.1971 16.6897 28.2255ZM27.1211 33.6636C26.246 33.052 25.4574 32.3279 24.7761 31.5106C24.6279 31.3404 24.4176 31.2348 24.191 31.2168C23.9644 31.1988 23.7397 31.2699 23.5658 31.4145C23.392 31.5592 23.283 31.7658 23.2626 31.9894C23.2423 32.2129 23.3121 32.4354 23.457 32.6084C24.2382 33.5436 25.1427 34.3706 26.1467 35.068C26.2584 35.1421 26.386 35.1895 26.5195 35.2062C26.6529 35.2228 26.7885 35.2085 26.9153 35.1641C27.0421 35.1198 27.1567 35.0468 27.2498 34.9509C27.3429 34.855 27.4119 34.7389 27.4514 34.612C27.5052 34.4397 27.5021 34.2551 27.4428 34.0847C27.3834 33.9142 27.2707 33.7668 27.1211 33.6636ZM34.0348 35.5275C34.0129 35.4178 33.9691 35.3136 33.9058 35.2209C33.8425 35.1282 33.761 35.049 33.6663 34.9878C33.5714 34.9268 33.4651 34.8852 33.3537 34.8653C33.2423 34.8454 33.128 34.8477 33.0174 34.8721C32.4981 34.9775 31.9698 35.0345 31.4396 35.0424H31.3535C30.8864 35.0367 30.4213 34.9825 29.9657 34.8809C29.7458 34.839 29.5181 34.8833 29.3306 35.0042C29.1432 35.1252 29.0107 35.3133 28.9613 35.5289C28.9121 35.7447 28.9498 35.9709 29.0665 36.1597C29.1831 36.3484 29.3696 36.485 29.5865 36.5405C30.1659 36.6735 30.7586 36.7419 31.3535 36.7447H31.4656C32.1052 36.7299 32.7427 36.6614 33.3711 36.5405C33.4821 36.5172 33.5874 36.4725 33.681 36.4089C33.7745 36.3454 33.8544 36.2642 33.9161 36.1701C33.9777 36.076 34.02 35.9707 34.0403 35.8605C34.0607 35.7502 34.0589 35.637 34.0348 35.5275Z" fill="#805333"/>
<path d="M14.6553 28.6681V30.4129C14.3448 30.4893 14.0347 30.5658 13.7159 30.6509C13.6453 30.6679 13.5729 30.6764 13.5003 30.6765C13.2895 30.6778 13.0855 30.6028 12.9268 30.4658C12.7682 30.3287 12.666 30.139 12.6394 29.9325C12.6129 29.7261 12.6639 29.5172 12.7828 29.3453C12.9017 29.1735 13.0803 29.0506 13.2847 28.9999C13.759 28.8808 14.2071 28.7615 14.6553 28.6681ZM42.6724 19.7472C42.5557 19.7472 42.4403 19.7238 42.333 19.6784C42.2257 19.6331 42.1289 19.5667 42.0484 19.4832C41.683 19.1058 41.2862 18.7591 40.8624 18.4468C40.7718 18.3798 40.6954 18.2958 40.6377 18.1996C40.58 18.1034 40.5421 17.997 40.5261 17.8863C40.51 17.7757 40.5163 17.663 40.5444 17.5547C40.5725 17.4464 40.622 17.3446 40.6899 17.2552C40.8271 17.0747 41.0314 16.9553 41.2577 16.9234C41.4841 16.8915 41.714 16.9497 41.8969 17.0851C42.3961 17.4543 42.8634 17.8637 43.2942 18.309C43.4106 18.4296 43.4886 18.5812 43.5185 18.7452C43.5484 18.9091 43.5289 19.0781 43.4625 19.2312C43.396 19.3844 43.2856 19.5149 43.1447 19.6066C43.0038 19.6983 42.8388 19.7472 42.6701 19.7472H42.6724ZM36.2771 36.3913C36.0989 36.3917 35.925 36.3375 35.7793 36.2362C35.6337 36.1349 35.5234 35.9914 35.4637 35.8257C35.404 35.66 35.3977 35.4802 35.4458 35.3108C35.4938 35.1415 35.5938 34.991 35.732 34.8801C36.6112 34.1736 37.4631 33.4332 38.2642 32.6766C38.346 32.5993 38.4424 32.5387 38.5479 32.4982C38.6534 32.4577 38.766 32.4381 38.8791 32.4406C38.9923 32.443 39.1039 32.4674 39.2075 32.5125C39.3111 32.5575 39.4047 32.6222 39.483 32.703C39.5613 32.7837 39.6227 32.8789 39.6637 32.983C39.7047 33.0872 39.7245 33.1983 39.722 33.31C39.7196 33.4218 39.6948 33.5319 39.6492 33.6342C39.6036 33.7365 39.538 33.8289 39.4562 33.9062C38.6216 34.6944 37.732 35.4653 36.8199 36.2C36.6669 36.324 36.475 36.3916 36.2771 36.3913ZM41.2442 31.6903C41.0783 31.6903 40.9159 31.6431 40.7765 31.5543C40.6371 31.4655 40.5265 31.3389 40.4581 31.1897C40.3898 31.0405 40.3665 30.8749 40.3911 30.713C40.4157 30.551 40.4871 30.3995 40.5967 30.2766C40.738 30.1182 40.8777 29.9585 41.0157 29.7974C41.6116 29.1045 42.1968 28.4221 42.7037 27.7082C42.7686 27.6166 42.8511 27.5385 42.9466 27.4784C43.0421 27.4183 43.1486 27.3773 43.2602 27.3578C43.3717 27.3384 43.486 27.3408 43.5966 27.365C43.7071 27.3892 43.8118 27.4346 43.9046 27.4987C44.2948 27.7684 44.3894 28.299 44.1167 28.6843C43.5632 29.4638 42.9509 30.176 42.3596 30.8655C42.2057 31.0456 42.0497 31.224 41.8916 31.4006C41.8107 31.4915 41.7111 31.5644 41.5995 31.6144C41.4878 31.6643 41.3667 31.6902 41.2441 31.6903H41.2442ZM44.8536 25.9863C44.7957 25.9867 44.7379 25.981 44.6812 25.9694C44.5702 25.9472 44.4646 25.9037 44.3706 25.8412C44.2766 25.7788 44.196 25.6987 44.1334 25.6055C44.0072 25.4172 43.9615 25.1871 44.0072 24.9658C44.0686 24.6678 44.0999 24.3646 44.1003 24.0605V23.9124C44.0778 23.2878 43.9538 22.6708 43.7329 22.0851C43.6766 21.944 43.6596 21.7907 43.6835 21.6409C43.7075 21.4911 43.7716 21.3504 43.8691 21.2333C43.9666 21.1161 44.094 21.0268 44.2382 20.9746C44.3824 20.9224 44.538 20.9091 44.6891 20.9362C44.8402 20.9632 44.9813 21.0297 45.0977 21.1286C45.2141 21.2275 45.3016 21.3553 45.3511 21.4988C45.6369 22.2598 45.7966 23.0612 45.8241 23.8724V24.0604C45.8236 24.4782 45.7811 24.895 45.6974 25.3046C45.6579 25.4969 45.5524 25.6697 45.3986 25.7939C45.2449 25.9181 45.0524 25.9861 44.8537 25.9862L44.8536 25.9863Z" fill="#AF8066"/>
<path d="M6.89667 21.1704C6.74977 21.1703 6.60535 21.1331 6.4771 21.0623C6.34885 20.9916 6.24102 20.8897 6.16385 20.7663C6.08667 20.643 6.0427 20.5021 6.0361 20.3573C6.02951 20.2124 6.06051 20.0682 6.12616 19.9385L9.57421 13.1304C9.62389 13.0289 9.69349 12.9381 9.77899 12.8633C9.86449 12.7886 9.96417 12.7313 10.0723 12.6949C10.1803 12.6585 10.2947 12.6436 10.4086 12.6512C10.5226 12.6588 10.6339 12.6886 10.7361 12.739C10.8382 12.7894 10.9293 12.8593 11.0039 12.9446C11.0784 13.03 11.1351 13.1292 11.1706 13.2364C11.206 13.3435 11.2196 13.4566 11.2104 13.569C11.2012 13.6814 11.1695 13.7909 11.1172 13.8911L7.66913 20.6997C7.59748 20.8413 7.48722 20.9604 7.35076 21.0436C7.2143 21.1267 7.05704 21.1707 6.89667 21.1704Z" fill="#E64C3C"/>
<path d="M11.2069 20.3192C10.9784 20.3191 10.7593 20.2295 10.5977 20.07L5.42538 14.9632C5.34308 14.8847 5.27744 14.7908 5.23229 14.687C5.18713 14.5832 5.16337 14.4716 5.16239 14.3586C5.1614 14.2456 5.18321 14.1336 5.22655 14.029C5.26989 13.9245 5.33388 13.8295 5.4148 13.7496C5.49572 13.6697 5.59194 13.6065 5.69786 13.5637C5.80377 13.521 5.91725 13.4994 6.03169 13.5004C6.14612 13.5014 6.25921 13.5248 6.36436 13.5694C6.46951 13.614 6.56462 13.6788 6.64413 13.76L11.8165 18.8664C11.9371 18.9854 12.0192 19.137 12.0524 19.3021C12.0857 19.4672 12.0687 19.6384 12.0034 19.7939C11.9381 19.9494 11.8275 20.0822 11.6858 20.1757C11.544 20.2692 11.3774 20.3192 11.2069 20.3193V20.3192Z" fill="#E64C3C"/>
<path d="M5.05185 26.6732C4.93042 26.6732 4.81037 26.6478 4.69956 26.5988C4.58874 26.5498 4.48966 26.4782 4.40878 26.3888C4.02265 25.9633 3.64579 25.5472 3.27011 25.1762C3.11393 25.0155 3.02774 24.8009 3.03004 24.5782C3.03234 24.3555 3.12294 24.1426 3.28241 23.9852C3.44187 23.8277 3.6575 23.7382 3.88304 23.7358C4.10858 23.7335 4.32607 23.8185 4.48886 23.9726C4.88632 24.365 5.28534 24.8034 5.69589 25.2554C5.80677 25.3778 5.87936 25.5294 5.9049 25.6917C5.93044 25.8541 5.90783 26.0202 5.83982 26.1701C5.7718 26.3201 5.66127 26.4474 5.52159 26.5366C5.3819 26.6259 5.21903 26.6733 5.05263 26.6732H5.05185ZM10.5218 30.5616C10.4817 30.5616 10.4417 30.5589 10.402 30.5529L10.2296 30.5277C8.99513 30.295 7.84844 29.734 6.91318 28.9053C6.82616 28.8337 6.75429 28.746 6.70165 28.647C6.64901 28.548 6.61664 28.4397 6.6064 28.3284C6.59615 28.217 6.60822 28.1048 6.64192 27.998C6.67563 27.8913 6.7303 27.7921 6.80282 27.7063C7.10761 27.345 7.65165 27.2965 8.01747 27.5973C8.71787 28.2282 9.57806 28.6602 10.5069 28.8478L10.6434 28.8672C10.8603 28.8962 11.0578 29.0055 11.1961 29.1729C11.3343 29.3403 11.403 29.5533 11.3881 29.7688C11.3731 29.9844 11.2756 30.1863 11.1153 30.3336C10.9551 30.4808 10.7441 30.5623 10.5252 30.5616H10.5218Z" fill="#AF8066"/>
</svg>
