<svg width="50" height="50" viewBox="0 0 50 50" fill="none" xmlns="http://www.w3.org/2000/svg">
<path d="M48.2523 13.7153L50 15.3019V22.3533L46.9566 23.8018C46.8218 23.8669 46.7061 23.9654 46.6208 24.0877C46.5355 24.21 46.4833 24.3519 46.4693 24.5C46.4553 24.648 46.48 24.7971 46.5409 24.933C46.6019 25.0689 46.697 25.1869 46.8173 25.2758L49.9999 27.5863V28.5603L49.2607 29.0001C49.1432 29.0682 49.0436 29.1628 48.9698 29.2762C48.896 29.3896 48.8501 29.5186 48.836 29.6528C48.8216 29.787 48.8391 29.9226 48.8872 30.0488C48.9353 30.175 49.0127 30.2882 49.113 30.3794L49.9999 31.181V35.3191L49.5216 35.5603C49.3879 35.6278 49.2741 35.7285 49.1913 35.8526C49.1085 35.9767 49.0595 36.1199 49.0491 36.2683C49.0386 36.4166 49.0669 36.5652 49.1314 36.6995C49.196 36.8338 49.2945 36.9492 49.4173 37.0346C49.6001 37.164 49.7998 37.2933 49.9999 37.431V38.8104C49.9988 39.0721 49.9375 39.3301 49.8208 39.5649C49.7041 39.7997 49.535 40.0051 49.3263 40.1654C49.1177 40.3258 48.8749 40.4369 48.6165 40.4905C48.3581 40.544 48.0907 40.5385 47.8348 40.4743C33.1912 37.0518 18.5563 46.431 3.91283 41.681V7.19824C18.8348 12.0345 33.7649 2.19824 48.687 6.20684C49.0603 6.30481 49.3908 6.52144 49.6279 6.82351C49.8651 7.12559 49.9958 7.49644 49.9999 7.8792V11.3792L48.3911 12.3362C48.2742 12.4051 48.1753 12.5003 48.1023 12.614C48.0293 12.7277 47.9842 12.8569 47.9707 12.991C47.9572 13.1251 47.9756 13.2605 48.0245 13.3863C48.0734 13.5121 48.1514 13.6248 48.2522 13.7152L48.2523 13.7153Z" fill="#2C3E50"/>
<path d="M16.0707 32.6027C15.6363 33.0544 15.2014 33.4995 14.7662 33.9378C14.3298 34.3035 13.772 34.4956 13.2009 34.4769C12.9112 34.4622 12.6232 34.5281 12.3692 34.667C12.1152 34.8059 11.9054 35.0123 11.7633 35.263C11.6454 35.473 11.5835 35.7093 11.5835 35.9497C11.5835 36.19 11.6454 36.4263 11.7633 36.6363C11.8605 36.8291 11.998 36.9991 12.1667 37.135C12.3353 37.2709 12.5313 37.3696 12.7414 37.4245C12.9516 37.4794 13.1712 37.4893 13.3855 37.4534C13.5998 37.4176 13.804 37.3368 13.9843 37.2166C14.0709 37.1609 14.1518 37.0968 14.2252 37.0251C14.154 37.098 14.0881 37.1758 14.0278 37.2578C13.8393 37.5347 13.7519 37.8671 13.78 38.2C13.8082 38.5329 13.9502 38.8463 14.1826 39.0882C14.4149 39.3301 14.7237 39.4861 15.0577 39.5302C15.3917 39.5744 15.7309 39.5041 16.0191 39.3311C16.2958 39.1776 16.5213 38.9476 16.6682 38.6691C16.8151 38.3905 16.8769 38.0756 16.846 37.7628C16.8242 37.4946 16.8608 37.225 16.9534 36.9721C17.046 36.7192 17.1925 36.4891 17.3828 36.2973C17.8698 35.7769 18.3542 35.254 18.8357 34.7286C18.877 34.6834 18.9084 34.6301 18.9276 34.5722C18.9469 34.5142 18.9538 34.4529 18.9477 34.3922C18.9416 34.3315 18.9228 34.2728 18.8924 34.2198C18.862 34.1667 18.8208 34.1206 18.7714 34.0843L16.6348 32.5474C16.5497 32.4881 16.4459 32.461 16.3424 32.4712C16.2388 32.4813 16.1424 32.528 16.0707 32.6027ZM37.5122 29.0794C37.5498 29.0345 37.5962 28.9977 37.6486 28.9711C37.701 28.9446 37.7583 28.9288 37.817 28.9249C37.8757 28.9209 37.9346 28.9288 37.9902 28.9481C38.0457 28.9674 38.0967 28.9977 38.1401 29.0371C38.7191 29.5636 39.2922 30.0964 39.8594 30.6355C40.0515 30.818 40.2807 30.9578 40.5318 31.0455C40.7828 31.1332 41.0498 31.1668 41.315 31.1439C41.6303 31.1179 41.9462 31.1861 42.222 31.3398C42.4979 31.4935 42.721 31.7255 42.8625 32.0061C42.981 32.2159 43.0432 32.4523 43.0432 32.6927C43.0432 32.9332 42.981 33.1696 42.8625 33.3794C42.7544 33.5615 42.6099 33.7198 42.4379 33.8447C42.2659 33.9695 42.07 34.0582 41.8622 34.1053C41.6543 34.1524 41.4388 34.1569 41.2291 34.1184C41.0194 34.08 40.8198 33.9994 40.6427 33.8817C40.5559 33.8292 40.4751 33.7674 40.4018 33.6975C40.473 33.7681 40.5388 33.8439 40.5992 33.924C40.7174 34.1009 40.7965 34.3006 40.8312 34.5099C40.866 34.7193 40.8556 34.9336 40.8009 35.1387C40.7462 35.3438 40.6484 35.5351 40.5138 35.7001C40.3793 35.865 40.211 35.9999 40.0201 36.0958C39.8046 36.2122 39.5648 36.2773 39.3195 36.2861C39.0743 36.2949 38.8303 36.2472 38.6069 36.1466C38.3294 36.025 38.099 35.8176 37.9501 35.5556C37.8012 35.2935 37.7418 34.9907 37.7807 34.6924C37.8088 34.4373 37.7747 34.1793 37.6814 33.9401C37.588 33.7008 37.4382 33.4872 37.2443 33.3172C36.7179 32.8484 36.1878 32.3838 35.654 31.9233C35.5678 31.8489 35.5147 31.7439 35.506 31.631C35.4974 31.518 35.5339 31.4063 35.6078 31.3198L37.5122 29.0794Z" fill="#ECF0F1"/>
<path d="M2.55651 4.50859V50C1.61992 49.9646 0.876994 49.2051 0.869606 48.2758V4.50859H2.55651Z" fill="#F29C1F"/>
<path d="M4.34774 4.50859V48.2758C4.34498 49.2268 3.56816 49.9974 2.60882 50H2.55661V4.50859H4.34774Z" fill="#E57E25"/>
<path d="M5.21734 2.58633C5.21734 4.01455 4.04946 5.17227 2.60892 5.17227C1.16768 5.17236 0 4.01465 0 2.58643C0 1.15771 1.16778 0 2.60882 0C4.04946 0 5.21734 1.15771 5.21734 2.58633Z" fill="#E4C05C"/>
<path d="M36.8784 19.7498C36.2608 14.9826 32.5565 11.776 27.0086 12.836C21.4608 13.8966 17.7564 17.8966 17.1392 22.7241C16.5215 27.5947 19.6087 27.2671 18.9912 29.7241C18.3739 32.1983 19.6088 32.069 21.4522 31.7845C23.2958 31.4999 23.3042 33.2844 22.687 34.5863C22.0695 35.9051 27.0086 35.043 27.0086 35.0258C27.0086 35.0086 31.9392 34.1553 31.3217 33.0688C30.7045 31.9828 30.7045 30.164 32.5565 29.8794C34.4088 29.5948 35.6436 29.4742 35.026 27.1378C34.4089 24.8017 37.4955 24.4739 36.8784 19.7498ZM23.8783 26.5259C22.6347 27.1206 21.3999 26.8791 21.1129 26.0174C20.8262 25.1553 21.5911 24.0174 22.8259 23.4397C24.0608 22.8622 25.3043 23.0603 25.5914 23.914C25.8781 24.7673 25.113 25.9396 23.8783 26.5259ZM27.0086 31.8878C26.8152 31.936 26.6132 31.9392 26.4183 31.8972C26.2234 31.8552 26.041 31.769 25.8852 31.6455C25.7295 31.522 25.6047 31.3645 25.5205 31.1852C25.4364 31.006 25.3952 30.8099 25.4001 30.6122C25.4001 29.7501 26.1217 28.138 27.0086 27.9743C27.8956 27.8103 28.6174 29.1638 28.6174 30.0347C28.5968 30.4774 28.4272 30.9005 28.1355 31.2364C27.8439 31.5723 27.4472 31.8017 27.0086 31.8878ZM32.8001 24.0257C32.5637 24.5324 32.163 24.9461 31.6618 25.2008C31.1607 25.4555 30.588 25.5365 30.035 25.4311C28.8001 25.2674 28.0349 24.3705 28.3219 23.4139C28.7967 22.3583 29.9418 21.7654 31.0869 21.9826C32.3217 22.155 33.0956 23.0777 32.8001 24.0257ZM36.3477 12.7499C36.2819 12.6628 36.2524 12.554 36.2654 12.4459C36.2783 12.3379 36.3328 12.2389 36.4174 12.1696C36.6699 11.975 36.8699 11.7216 36.9996 11.4318C37.1293 11.142 37.1847 10.8249 37.1608 10.5087C37.1309 10.1963 37.1932 9.88199 37.34 9.60396C37.4868 9.32593 37.7118 9.09611 37.9877 8.94238C38.2755 8.77045 38.6138 8.70085 38.9469 8.74506C39.2799 8.78926 39.5878 8.94463 39.8198 9.18555C40.0519 9.42648 40.1942 9.73859 40.2233 10.0704C40.2524 10.4023 40.1667 10.7341 39.9801 11.0111C39.9246 11.0969 39.8601 11.1767 39.7877 11.2491C39.8616 11.1787 39.94 11.1131 40.0225 11.0527C40.2043 10.9343 40.4092 10.8553 40.6238 10.8207C40.8385 10.7861 41.0581 10.7968 41.2684 10.8521C41.4786 10.9075 41.6747 11.0063 41.8438 11.142C42.0129 11.2778 42.1512 11.4474 42.2496 11.6397C42.3648 11.8506 42.4251 12.0866 42.4251 12.3264C42.4251 12.5662 42.3648 12.8022 42.2496 13.0131C42.1087 13.2633 41.8997 13.4692 41.6465 13.6074C41.3933 13.7456 41.106 13.8105 40.8174 13.7947C40.2464 13.7766 39.6888 13.9686 39.2522 14.3338C39.0462 14.5414 38.8412 14.7499 38.6372 14.9594C38.5935 15.0045 38.5404 15.0396 38.4816 15.0622C38.4229 15.0849 38.3598 15.0946 38.2969 15.0907C38.2339 15.0868 38.1726 15.0693 38.1172 15.0395C38.0617 15.0097 38.0135 14.9683 37.9758 14.9182L36.3477 12.7499ZM17.993 16.1983C18.0589 16.1114 18.0886 16.0027 18.0758 15.8947C18.0631 15.7867 18.0089 15.6877 17.9245 15.6182C17.6719 15.4236 17.4716 15.1701 17.3417 14.8802C17.2118 14.5904 17.1562 14.2732 17.1799 13.9568C17.2097 13.6445 17.1475 13.3303 17.0009 13.0523C16.8543 12.7743 16.6296 12.5444 16.3539 12.3904C16.0661 12.2185 15.7277 12.1489 15.3947 12.1932C15.0616 12.2374 14.7537 12.3928 14.5217 12.6338C14.2897 12.8748 14.1474 13.187 14.1183 13.5189C14.0893 13.8507 14.1752 14.1825 14.3618 14.4596C14.4166 14.5455 14.4807 14.6252 14.553 14.6973C14.4792 14.6267 14.4008 14.561 14.3183 14.5008C14.1366 14.3822 13.9318 14.3031 13.7171 14.2685C13.5025 14.2339 13.2829 14.2447 13.0728 14.3002C12.8626 14.3556 12.6666 14.4544 12.4976 14.5901C12.3287 14.7259 12.1905 14.8955 12.0923 15.0879C11.9772 15.2988 11.9169 15.5348 11.9169 15.7746C11.9169 16.0144 11.9772 16.2504 12.0923 16.4612C12.2329 16.7115 12.4416 16.9175 12.6946 17.0558C12.9477 17.194 13.2348 17.259 13.5233 17.2432C14.0943 17.2247 14.6519 17.4166 15.0886 17.7818C15.2938 17.989 15.4992 18.1973 15.7042 18.4078C15.748 18.4527 15.8011 18.4876 15.8599 18.5101C15.9186 18.5326 15.9816 18.5422 16.0444 18.5383C16.1073 18.5343 16.1685 18.5169 16.2239 18.4872C16.2793 18.4575 16.3275 18.4162 16.3652 18.3662L17.993 16.1983Z" fill="#ECF0F1"/>
</svg>
