<svg width="50" height="50" viewBox="0 0 50 50" fill="none" xmlns="http://www.w3.org/2000/svg">
<path d="M31.6724 0.858594C33.2424 1.26906 34.1365 2.8125 33.8842 4.37125L32.6096 12.2434L38.9974 7.23688C40.2659 6.24281 42.096 6.22531 43.2462 7.34656C44.7901 8.85156 46.1604 10.5737 47.3065 12.4998C48.4686 14.4531 49.3281 16.4953 49.8995 18.5755C50.3181 20.1002 49.3878 21.6231 47.8705 22.1905L40.231 25.0469L47.8587 27.8989C49.3801 28.4677 50.3107 29.9969 49.8852 31.5241C49.3139 33.5741 48.4621 35.5867 47.316 37.5128C46.154 39.4661 44.7612 41.2097 43.1905 42.7298C42.0391 43.8441 40.2145 43.8236 38.9497 42.8322L32.6206 37.8717L33.8811 45.6275C34.1345 47.187 33.2404 48.7316 31.6697 49.142C29.5283 49.7016 27.2768 50 24.9536 50C22.6625 50 20.4413 49.7098 18.3269 49.1652C16.7505 48.7592 15.851 47.2113 16.1051 45.6478L17.3715 37.8547L11.0492 42.8161C9.7842 43.8088 7.95871 43.8297 6.80678 42.7148C5.23683 41.1952 3.84481 39.4523 2.68321 37.4998C1.53772 35.5745 0.686078 33.5628 0.114941 31.5138C-0.310958 29.9858 0.620705 28.4559 2.14299 27.8878L9.75474 25.0469L2.1314 22.2016C0.612977 21.6348 -0.318526 20.1111 0.10061 18.5858C0.671748 16.5066 1.53127 14.4653 2.69288 12.5128C3.83837 10.5875 5.20801 8.86609 6.75123 7.36141C7.90171 6.23969 9.733 6.25766 11.0012 7.25297L17.3826 12.2606L16.1022 4.35109C15.849 2.78812 16.7485 1.24141 18.3242 0.835469C20.4394 0.290469 22.6615 0 24.9536 0C27.2779 0 29.5302 0.29875 31.6724 0.858594Z" fill="#5C3BFE"/>
</svg>
