<svg width="50.000000" height="50.000000" viewBox="0 0 50 50" fill="none" xmlns="http://www.w3.org/2000/svg" xmlns:xlink="http://www.w3.org/1999/xlink">
	<desc>
			Created with Pixso.
	</desc>
	<defs>
		<linearGradient x1="17.006004" y1="0.000001" x2="38.186501" y2="38.402496" id="paint_linear_246_29_0" gradientUnits="userSpaceOnUse">
			<stop stop-color="#72B4F5"/>
			<stop offset="1.000000" stop-color="#356EBF"/>
		</linearGradient>
	</defs>
	<circle id="circle" cx="25.000000" cy="25.000000" r="25.000000" fill="url(#paint_linear_246_29_0)" fill-opacity="1.000000"/>
	<path id="path" d="M35.12 15.94C37.36 15.94 39.1 16.71 40.33 18.24C41.58 19.77 42.2 21.93 42.2 24.73C42.2 27.53 41.57 29.71 40.32 31.26C39.07 32.81 37.34 33.58 35.12 33.58C34.01 33.58 33 33.38 32.07 32.97C31.16 32.56 30.39 31.93 29.77 31.08L29.58 31.08L29.04 33.27L27.19 33.27L27.19 9.07L29.77 9.07L29.77 14.95C29.77 16.26 29.73 17.45 29.65 18.49L29.77 18.49C30.97 16.79 32.76 15.94 35.12 15.94ZM34.75 18.1C32.99 18.1 31.71 18.61 30.94 19.63C30.16 20.63 29.77 22.34 29.77 24.73C29.77 27.13 30.17 28.84 30.97 29.88C31.77 30.91 33.05 31.42 34.81 31.42C36.4 31.42 37.58 30.84 38.36 29.69C39.13 28.53 39.52 26.87 39.52 24.7C39.52 22.48 39.13 20.83 38.36 19.74C37.58 18.65 36.38 18.1 34.75 18.1Z" fill="#FFFFFF" fill-opacity="1.000000" fill-rule="evenodd"/>
	<path id="path" d="M15.18 31.42C16.9 31.42 18.16 30.96 18.94 30.03C19.73 29.11 20.15 27.56 20.2 25.37L20.2 24.79C20.2 22.41 19.8 20.69 18.99 19.64C18.18 18.6 16.9 18.07 15.15 18.07C13.64 18.07 12.47 18.66 11.66 19.85C10.87 21.02 10.47 22.68 10.47 24.82C10.47 26.97 10.86 28.61 11.65 29.74C12.45 30.86 13.62 31.42 15.18 31.42ZM14.79 33.58C12.59 33.58 10.88 32.81 9.64 31.26C8.41 29.72 7.79 27.56 7.79 24.79C7.79 22 8.41 19.83 9.66 18.26C10.9 16.69 12.63 15.91 14.85 15.91C17.19 15.91 18.98 16.79 20.24 18.56L20.38 18.56L20.75 16.22L22.79 16.22L22.79 40.92L20.2 40.92L20.2 33.63C20.2 32.59 20.26 31.71 20.38 30.98L20.17 30.98C18.98 32.72 17.19 33.58 14.79 33.58Z" fill="#C8E8FF" fill-opacity="1.000000" fill-rule="evenodd"/>
</svg>
