<svg width="50.000000" height="50.000000" viewBox="0 0 50 50" fill="none" xmlns="http://www.w3.org/2000/svg" xmlns:xlink="http://www.w3.org/1999/xlink">
	<desc>
			Created with Pixso.
	</desc>
	<defs>
		<linearGradient x1="0.000000" y1="0.000000" x2="50.000000" y2="0.000000" id="paint_linear_31_2_0" gradientUnits="userSpaceOnUse">
			<stop stop-color="#00055F" stop-opacity="0.839216"/>
			<stop offset="1.000000" stop-color="#6F69F7" stop-opacity="0.839216"/>
		</linearGradient>
	</defs>
	<path id="qwen" d="M26.37 0.77C27.26 2.34 28.15 3.91 29.04 5.48C29.12 5.62 29.23 5.69 29.39 5.69L42.01 5.69C42.41 5.69 42.74 5.94 43.03 6.43L46.33 12.27C46.76 13.04 46.88 13.36 46.38 14.18C45.79 15.15 45.22 16.14 44.66 17.13L43.82 18.63C43.58 19.07 43.32 19.26 43.73 19.79L49.76 30.33C50.15 31.01 50.01 31.45 49.66 32.08C48.67 33.86 47.66 35.63 46.63 37.4C46.27 38.02 45.83 38.25 45.08 38.24C43.32 38.2 41.55 38.22 39.79 38.27C37.76 41.88 35.53 45.58 33.46 49.16C33.08 49.83 32.6 49.99 31.81 49.99C29.55 49.99 27.26 50 24.96 49.99C24.49 49.99 24.13 49.79 23.9 49.38L20.87 44.1L9.05 43.99C8.4 44.05 7.79 43.98 7.22 43.78L3.57 37.48C3.34 37.07 3.34 36.66 3.57 36.25L6.31 31.44C6.4 31.29 6.4 31.14 6.31 30.99C4.88 28.51 3.46 26.04 2.05 23.55L0.26 20.38C-0.11 19.68 -0.14 19.25 0.47 18.19C1.53 16.34 2.58 14.5 3.62 12.65C3.92 12.12 4.31 11.89 4.95 11.89C6.91 11.88 8.87 11.88 10.83 11.89C10.94 11.89 11.02 11.84 11.08 11.75L17.45 0.62C17.67 0.25 17.99 0.06 18.41 0.06C19.61 0.06 20.81 0.06 22.01 0.05L24.32 0C25.1 -0.01 25.97 0.07 26.37 0.77ZM18.57 1.68L11.94 13.15C11.87 13.27 11.77 13.33 11.63 13.33L5.12 13.33L18.23 36.58L11.8 36.75C11.59 36.75 11.44 36.84 11.34 37.02L8.34 42.27C8.24 42.45 8.3 42.54 8.5 42.54L21.49 42.55C21.59 42.55 21.67 42.6 21.73 42.69L24.91 48.27C25.02 48.45 25.12 48.46 25.23 48.27L36.61 28.36L38.39 25.22L41.84 30.97C41.89 31.06 41.98 31.11 42.08 31.11L48.36 31.07L41.85 19.37C41.8 19.28 41.8 19.2 41.85 19.11L42.52 17.96L45.06 13.47L18.63 13.33L21.79 7.46C21.85 7.37 21.85 7.29 21.79 7.2L18.57 1.68ZM32.86 19.91L31.05 23.38L25.11 33.8C25.06 33.8 24.91 33.84 24.88 33.8L17.04 20.09L17.59 19.94L32.86 19.91Z" fill="url(#paint_linear_31_2_0)" fill-opacity="1.000000" fill-rule="nonzero"/>
</svg>
