<svg width="50" height="50" viewBox="0 0 50 50" fill="none" xmlns="http://www.w3.org/2000/svg">
<path d="M24.5 29.5828C26.9853 29.5828 29 27.531 29 25C29 22.469 26.9853 20.4172 24.5 20.4172C22.0147 20.4172 20 22.469 20 25C20 27.531 22.0147 29.5828 24.5 29.5828Z" fill="#58C4DC"/>
<path d="M24.5 15.6407C30.6081 15.6407 36.0917 16.7775 40.0127 18.5743C44.017 20.4094 46.0479 22.7517 46.0479 25.0001C46.0478 27.2485 44.0169 29.5908 40.0127 31.4259C36.0917 33.2227 30.608 34.3595 24.5 34.3595C18.392 34.3595 12.9083 33.2227 8.9873 31.4259C4.9831 29.5908 2.95222 27.2485 2.95215 25.0001C2.95215 22.7517 4.98303 20.4094 8.9873 18.5743C12.9083 16.7775 18.3919 15.6407 24.5 15.6407Z" stroke="#58C4DC" stroke-width="1.90476"/>
<path d="M32.4478 20.327C35.5042 25.7183 37.2816 31.1281 37.7146 35.4897C37.9312 37.6718 37.8059 39.5456 37.3729 41.0088C36.9418 42.4653 36.2246 43.46 35.2801 44.0154C34.3357 44.5707 33.1312 44.7059 31.6771 44.3578C30.2163 44.0082 28.5602 43.1817 26.8129 41.8997C23.3204 39.337 19.6088 35.0645 16.5524 29.6732C13.4961 24.282 11.7186 18.8721 11.2856 14.5105C11.069 12.3284 11.1938 10.4538 11.6269 8.99057C12.058 7.53419 12.7752 6.53927 13.7196 5.98398C14.664 5.4287 15.8687 5.29358 17.3227 5.64155C18.7835 5.9912 20.44 6.81844 22.1873 8.10053C25.6798 10.6632 29.3915 14.9358 32.4478 20.327Z" stroke="#58C4DC" stroke-width="1.90476"/>
<path d="M32.4477 29.6732C29.3913 35.0645 25.6797 39.3371 22.1871 41.8997C20.4399 43.1818 18.7838 44.0082 17.323 44.3579C15.8689 44.7059 14.6644 44.5707 13.7199 44.0154C12.7755 43.4601 12.0583 42.4654 11.6272 41.0088C11.1942 39.5457 11.0689 37.6719 11.2855 35.4898C11.7184 31.1281 13.4959 25.7184 16.5523 20.3271C19.6086 14.9359 23.3203 10.6633 26.8128 8.10058C28.5601 6.81849 30.2166 5.99125 31.6774 5.6416C33.1314 5.29364 34.3361 5.42873 35.2805 5.98403C36.2249 6.53933 36.9421 7.53422 37.3732 8.99061C37.8063 10.4538 37.931 12.3284 37.7144 14.5105C37.2814 18.8722 35.504 24.282 32.4477 29.6732Z" stroke="#58C4DC" stroke-width="1.90476"/>
</svg>
