<svg width="50" height="50" viewBox="0 0 50 50" fill="none" xmlns="http://www.w3.org/2000/svg">
<path d="M25 0C11.1921 0 0 11.1921 0 25C0 31.9028 2.79861 38.1528 7.32176 42.6782L2.56019 47.4398C1.61574 48.3843 2.28472 50 3.62037 50H25C38.8079 50 50 38.8079 50 25C50 11.1921 38.8079 0 25 0Z" fill="#FF4500"/>
<path d="M39.1713 30.6019C42.3955 30.6019 45.0093 27.9881 45.0093 24.7639C45.0093 21.5397 42.3955 18.9259 39.1713 18.9259C35.9471 18.9259 33.3333 21.5397 33.3333 24.7639C33.3333 27.9881 35.9471 30.6019 39.1713 30.6019Z" fill="url(#paint0_radial_21_31)"/>
<path d="M10.8287 30.6019C14.0529 30.6019 16.6667 27.9881 16.6667 24.7639C16.6667 21.5397 14.0529 18.9259 10.8287 18.9259C7.60449 18.9259 4.99074 21.5397 4.99074 24.7639C4.99074 27.9881 7.60449 30.6019 10.8287 30.6019Z" fill="url(#paint1_radial_21_31)"/>
<path d="M25.0139 42.2778C34.2186 42.2778 41.6806 36.6813 41.6806 29.7778C41.6806 22.8742 34.2186 17.2778 25.0139 17.2778C15.8091 17.2778 8.34722 22.8742 8.34722 29.7778C8.34722 36.6813 15.8091 42.2778 25.0139 42.2778Z" fill="url(#paint2_radial_21_31)"/>
<path d="M20.088 28.5833C19.9907 30.6852 18.5856 31.4491 16.9491 31.4491C15.3125 31.4491 14.0648 30.3079 14.162 28.206C14.2593 26.1042 15.6644 24.7292 17.3009 24.7292C18.9375 24.7292 20.1852 26.4838 20.088 28.5856V28.5833Z" fill="url(#paint3_radial_21_31)"/>
<path d="M29.9421 28.5833C30.0394 30.6852 31.4444 31.4491 33.081 31.4491C34.7176 31.4491 35.9653 30.3079 35.8681 28.206C35.7708 26.1042 34.3657 24.7292 32.7292 24.7292C31.0926 24.7292 29.8449 26.4838 29.9421 28.5856V28.5833Z" fill="url(#paint4_radial_21_31)"/>
<path d="M18.4329 27.6435C18.7908 27.6435 19.081 27.3274 19.081 26.9375C19.081 26.5476 18.7908 26.2315 18.4329 26.2315C18.0749 26.2315 17.7847 26.5476 17.7847 26.9375C17.7847 27.3274 18.0749 27.6435 18.4329 27.6435Z" fill="#FFC49C"/>
<path d="M33.8449 27.6435C34.2029 27.6435 34.4931 27.3274 34.4931 26.9375C34.4931 26.5476 34.2029 26.2315 33.8449 26.2315C33.4869 26.2315 33.1968 26.5476 33.1968 26.9375C33.1968 27.3274 33.4869 27.6435 33.8449 27.6435Z" fill="#FFC49C"/>
<path d="M25.0139 33.0833C22.9861 33.0833 21.0417 33.1829 19.2454 33.3657C18.9375 33.3958 18.7431 33.7153 18.8634 34C19.8704 36.4051 22.2454 38.0949 25.0139 38.0949C27.7824 38.0949 30.1597 36.4051 31.1644 34C31.2847 33.7153 31.088 33.3958 30.7824 33.3657C28.9838 33.1829 27.0417 33.0833 25.0139 33.0833Z" fill="url(#paint5_radial_21_31)"/>
<path d="M34.1412 15.5787C36.4258 15.5787 38.2778 13.7267 38.2778 11.4421C38.2778 9.15756 36.4258 7.30555 34.1412 7.30555C31.8566 7.30555 30.0046 9.15756 30.0046 11.4421C30.0046 13.7267 31.8566 15.5787 34.1412 15.5787Z" fill="url(#paint6_radial_21_31)"/>
<path d="M24.9537 17.8056C24.4583 17.8056 24.0579 17.5995 24.0579 17.2801C24.0579 13.5741 27.0741 10.5579 30.7801 10.5579C31.2755 10.5579 31.6759 10.9583 31.6759 11.4537C31.6759 11.9491 31.2755 12.3495 30.7801 12.3495C28.0625 12.3495 25.8519 14.5602 25.8519 17.2778C25.8519 17.5972 25.4514 17.8032 24.956 17.8032L24.9537 17.8056Z" fill="url(#paint7_radial_21_31)"/>
<path d="M14.5417 28.3912C14.6319 26.4097 15.9491 25.1134 17.4792 25.1134C18.9282 25.1134 20.0486 26.5926 20.0903 28.4306C20.1296 26.375 18.9028 24.7292 17.3009 24.7292C15.6991 24.7292 14.2593 26.1296 14.162 28.2477C14.0648 30.3657 15.3125 31.4491 16.9491 31.4491C16.9884 31.4491 17.0301 31.4491 17.0694 31.4491C15.5787 31.412 14.4537 30.3403 14.544 28.3935L14.5417 28.3912Z" fill="#842123"/>
<path d="M35.4861 28.3912C35.3958 26.4097 34.0787 25.1134 32.5486 25.1134C31.0995 25.1134 29.9792 26.5926 29.9375 28.4306C29.8981 26.375 31.125 24.7292 32.7269 24.7292C34.3634 24.7292 35.7685 26.1296 35.8657 28.2477C35.963 30.3657 34.7153 31.4491 33.0787 31.4491C33.0393 31.4491 32.9977 31.4491 32.9583 31.4491C34.4491 31.412 35.5741 30.3403 35.4838 28.3935L35.4861 28.3912Z" fill="#842123"/>
<defs>
<radialGradient id="paint0_radial_21_31" cx="0" cy="0" r="1" gradientUnits="userSpaceOnUse" gradientTransform="translate(39.294 21.2605) scale(11.8009 10.2668)">
<stop stop-color="#FEFFFF"/>
<stop offset="0.4" stop-color="#FEFFFF"/>
<stop offset="0.51" stop-color="#F9FCFC"/>
<stop offset="0.62" stop-color="#EDF3F5"/>
<stop offset="0.7" stop-color="#DEE9EC"/>
<stop offset="0.72" stop-color="#D8E4E8"/>
<stop offset="0.76" stop-color="#CCD8DF"/>
<stop offset="0.8" stop-color="#C8D5DD"/>
<stop offset="0.83" stop-color="#CCD6DE"/>
<stop offset="0.85" stop-color="#D8DBE2"/>
<stop offset="0.88" stop-color="#EDE3E9"/>
<stop offset="0.9" stop-color="#FFEBEF"/>
</radialGradient>
<radialGradient id="paint1_radial_21_31" cx="0" cy="0" r="1" gradientUnits="userSpaceOnUse" gradientTransform="translate(10.9514 2.79514) scale(11.8009 10.2668)">
<stop stop-color="#FEFFFF"/>
<stop offset="0.4" stop-color="#FEFFFF"/>
<stop offset="0.51" stop-color="#F9FCFC"/>
<stop offset="0.62" stop-color="#EDF3F5"/>
<stop offset="0.7" stop-color="#DEE9EC"/>
<stop offset="0.72" stop-color="#D8E4E8"/>
<stop offset="0.76" stop-color="#CCD8DF"/>
<stop offset="0.8" stop-color="#C8D5DD"/>
<stop offset="0.83" stop-color="#CCD6DE"/>
<stop offset="0.85" stop-color="#D8DBE2"/>
<stop offset="0.88" stop-color="#EDE3E9"/>
<stop offset="0.9" stop-color="#FFEBEF"/>
</radialGradient>
<radialGradient id="paint2_radial_21_31" cx="0" cy="0" r="1" gradientUnits="userSpaceOnUse" gradientTransform="translate(25.3727 19.7854) scale(35.5972 24.9181)">
<stop stop-color="#FEFFFF"/>
<stop offset="0.4" stop-color="#FEFFFF"/>
<stop offset="0.51" stop-color="#F9FCFC"/>
<stop offset="0.62" stop-color="#EDF3F5"/>
<stop offset="0.7" stop-color="#DEE9EC"/>
<stop offset="0.72" stop-color="#D8E4E8"/>
<stop offset="0.76" stop-color="#CCD8DF"/>
<stop offset="0.8" stop-color="#C8D5DD"/>
<stop offset="0.83" stop-color="#CCD6DE"/>
<stop offset="0.85" stop-color="#D8DBE2"/>
<stop offset="0.88" stop-color="#EDE3E9"/>
<stop offset="0.9" stop-color="#FFEBEF"/>
</radialGradient>
<radialGradient id="paint3_radial_21_31" cx="0" cy="0" r="1" gradientUnits="userSpaceOnUse" gradientTransform="translate(17.2799 29.5171) scale(3.18275 4.61053)">
<stop stop-color="#FF6600"/>
<stop offset="0.5" stop-color="#FF4500"/>
<stop offset="0.7" stop-color="#FC4301"/>
<stop offset="0.82" stop-color="#F43F07"/>
<stop offset="0.92" stop-color="#E53812"/>
<stop offset="1" stop-color="#D4301F"/>
</radialGradient>
<radialGradient id="paint4_radial_21_31" cx="0" cy="0" r="1" gradientUnits="userSpaceOnUse" gradientTransform="translate(32.7705 29.5171) rotate(180) scale(3.18275 4.61053)">
<stop stop-color="#FF6600"/>
<stop offset="0.5" stop-color="#FF4500"/>
<stop offset="0.7" stop-color="#FC4301"/>
<stop offset="0.82" stop-color="#F43F07"/>
<stop offset="0.92" stop-color="#E53812"/>
<stop offset="1" stop-color="#D4301F"/>
</radialGradient>
<radialGradient id="paint5_radial_21_31" cx="0" cy="0" r="1" gradientUnits="userSpaceOnUse" gradientTransform="translate(24.9838 38.7948) scale(10.4861 6.92084)">
<stop stop-color="#172E35"/>
<stop offset="0.29" stop-color="#0E1C21"/>
<stop offset="0.73" stop-color="#030708"/>
<stop offset="1"/>
</radialGradient>
<radialGradient id="paint6_radial_21_31" cx="0" cy="0" r="1" gradientUnits="userSpaceOnUse" gradientTransform="translate(34.2315 7.5975) scale(9.20602 9.0219)">
<stop stop-color="#FEFFFF"/>
<stop offset="0.4" stop-color="#FEFFFF"/>
<stop offset="0.51" stop-color="#F9FCFC"/>
<stop offset="0.62" stop-color="#EDF3F5"/>
<stop offset="0.7" stop-color="#DEE9EC"/>
<stop offset="0.72" stop-color="#D8E4E8"/>
<stop offset="0.76" stop-color="#CCD8DF"/>
<stop offset="0.8" stop-color="#C8D5DD"/>
<stop offset="0.83" stop-color="#CCD6DE"/>
<stop offset="0.85" stop-color="#D8DBE2"/>
<stop offset="0.88" stop-color="#EDE3E9"/>
<stop offset="0.9" stop-color="#FFEBEF"/>
</radialGradient>
<radialGradient id="paint7_radial_21_31" cx="0" cy="0" r="1" gradientUnits="userSpaceOnUse" gradientTransform="translate(30.3958 16.9167) scale(7.5463)">
<stop offset="0.48" stop-color="#7A9299"/>
<stop offset="0.67" stop-color="#172E35"/>
<stop offset="0.75"/>
<stop offset="0.82" stop-color="#172E35"/>
</radialGradient>
</defs>
</svg>
