<svg width="50" height="50" viewBox="0 0 50 50" fill="none" xmlns="http://www.w3.org/2000/svg">
<path d="M25 50C38.8071 50 50 38.8071 50 25C50 11.1929 38.8071 0 25 0C11.1929 0 0 11.1929 0 25C0 38.8071 11.1929 50 25 50Z" fill="black"/>
<path fill-rule="evenodd" clip-rule="evenodd" d="M36.6577 14.4511L26.0247 39.9645C25.9067 40.2478 25.5814 40.3817 25.2982 40.2636C25.1332 40.1949 25.0113 40.0509 24.9708 39.8768C24.0075 35.7385 21.8989 32.2917 19.5926 30C17.26 27.6823 14.3778 26.2051 9.99817 25.1048C9.7006 25.0301 9.51997 24.7282 9.59474 24.4307C9.63746 24.2606 9.75795 24.1207 9.91978 24.0532L35.5679 13.3614C35.9927 13.1843 36.4806 13.3851 36.6577 13.8099C36.7432 14.0151 36.7432 14.2459 36.6577 14.4511Z" fill="white"/>
</svg>
