<svg width="50" height="50" viewBox="0 0 50 50" fill="none" xmlns="http://www.w3.org/2000/svg">
<path d="M25 8.87444C26.2016 7.18609 27.779 5.81016 29.6034 4.8588C31.4278 3.90745 33.4477 3.4076 35.4984 3.40001C39.0006 3.42222 42.3508 4.85699 44.8119 7.38871C47.273 9.92043 48.6435 13.3417 48.6219 16.9001C48.6219 27.7001 38.1235 41.2002 25 46.6002C11.8765 41.2002 1.37809 27.7001 1.37809 16.9001C1.35651 13.3417 2.72701 9.92043 5.18812 7.38871C7.64924 4.85699 10.9994 3.42222 14.5016 3.40001C16.5523 3.4076 18.5722 3.90745 20.3966 4.8588C22.221 5.81016 23.7984 7.18609 25 8.87444Z" fill="#E26095"/>
<path d="M35.4984 2.00001C33.5247 1.99763 31.5721 2.41247 29.7647 3.21817C27.9573 4.02387 26.3347 5.2028 25 6.68003C23.6653 5.2028 22.0427 4.02387 20.2353 3.21817C18.4279 2.41247 16.4753 1.99763 14.5016 2.00001C10.6354 2.02688 6.9374 3.61062 4.21887 6.40388C1.50033 9.19713 -0.0168377 12.9718 0.000140986 16.9001C0.000140986 28.4401 10.9843 42.3434 24.4827 47.8986C24.8147 48.0338 25.1853 48.0338 25.5173 47.8986C39.0157 42.3434 49.9999 28.4401 49.9999 16.9001C50.0168 12.9718 48.4997 9.19713 45.7811 6.40388C43.0626 3.61062 39.3646 2.02688 35.4984 2.00001ZM25 45.085C12.889 39.8626 2.75603 27.0745 2.75603 16.9001C2.738 13.7141 3.96447 10.651 6.16641 8.3826C8.36834 6.11422 11.3659 4.82581 14.5016 4.80002C16.3369 4.80346 18.1452 5.24987 19.7774 6.10248C21.4096 6.95509 22.8191 8.18951 23.8898 9.70404C24.0179 9.88084 24.1851 10.0246 24.378 10.1236C24.5708 10.2227 24.7839 10.2743 25 10.2743C25.2161 10.2743 25.4292 10.2227 25.622 10.1236C25.8149 10.0246 25.9821 9.88084 26.1102 9.70404C27.1809 8.18951 28.5904 6.95509 30.2226 6.10248C31.8548 5.24987 33.6631 4.80346 35.4984 4.80002C38.6341 4.82581 41.6317 6.11422 43.8336 8.3826C46.0355 10.651 47.262 13.7141 47.244 16.9001C47.244 27.0745 37.111 39.8626 25 45.085Z" fill="black"/>
</svg>
