<svg width="50" height="50" viewBox="0 0 50 50" fill="none" xmlns="http://www.w3.org/2000/svg">
<path d="M12.5153 49.7572C12.5455 49.7708 12.5756 49.7815 12.6085 49.7952C12.6332 49.8035 12.6691 49.8144 12.7073 49.8224C13.0639 49.9344 13.4424 49.997 13.8376 50H31.4407C32.2994 50 32.7301 48.9685 32.1238 48.3629L20.6955 36.9666L20.6901 36.9721C18.2734 39.3622 16.6769 40.9389 15.5 42.1068C14.4548 43.1436 13.7415 43.8556 13.0777 44.524C12.2437 45.3508 11.6895 45.902 11.6868 45.9047C11.2809 46.3331 11.0313 46.9522 11.0313 47.5881C11.0313 48.5867 11.6459 49.3998 12.518 49.7572H12.5153Z" fill="#FF4F12"/>
<path d="M11.0281 47.5885C11.0281 46.9526 11.2777 46.3333 11.6839 45.9049C11.6839 45.9049 12.2406 45.351 13.0745 44.5244C13.7356 43.8561 14.4489 43.144 15.4968 42.1071C16.6737 40.9393 18.2702 39.3624 20.6869 36.9724C20.6926 36.9698 20.6926 36.9668 20.6926 36.9668C21.4029 36.263 22.1849 35.4909 23.049 34.6395C23.0654 34.6231 23.0791 34.6095 23.0956 34.5932C26.8016 30.9292 31.9947 25.7916 39.4725 18.3813C40.1722 17.6858 40.1775 16.5562 39.4783 15.8605L24.0695 0.521656C23.3698 -0.173885 22.2369 -0.173885 21.5375 0.521656L12.6438 9.37786C9.60714 12.3983 10.0187 14.3735 10.0187 18.4306V46.1861C10.0187 47.8258 11.0583 49.2172 12.5148 49.7575C11.6427 49.4001 11.0281 48.587 11.0281 47.5885Z" fill="#7800FF"/>
</svg>
