<svg width="50" height="50" viewBox="0 0 50 50" fill="none" xmlns="http://www.w3.org/2000/svg">
<g clip-path="url(#clip0_66_7)">
<path d="M50 0H0V50H50V0Z" fill="#CC0000"/>
<path d="M15.9585 8.94211L14.4156 10.4849L10.3014 14.5989L5.15859 19.7417L10.8156 25.3984L15.9585 20.2558L43.2156 47.5115C43.7612 48.0571 44.5011 48.3635 45.2727 48.3635C46.0442 48.3635 46.7842 48.0571 47.3298 47.5115C47.8753 46.966 48.1818 46.2261 48.1818 45.4545C48.1818 44.683 47.8753 43.9431 47.3298 43.3975L20.0728 16.1417L21.6157 14.5989L26.2443 9.9707L15.9585 8.94211Z" fill="#FFD700"/>
<path d="M24.9081 1.81818C24.9081 1.81818 40.1815 13.4545 40.1815 25.0909C40.1815 30.9091 35.0904 37.4545 26.3627 37.4545C20.5443 37.4545 16.8862 33.1124 16.8862 33.1124L15.8578 34.1408C15.585 33.868 15.215 33.7148 14.8292 33.7148C14.4435 33.7148 14.0735 33.868 13.8007 34.1408C13.7134 34.2285 13.6377 34.3269 13.5754 34.4338C13.0763 34.2899 12.5479 34.2823 12.0449 34.4116C11.5419 34.541 11.0827 34.8026 10.715 35.1694C10.1943 35.6912 9.89109 36.3912 9.86673 37.128C7.5547 38.3782 3.72448 40.8167 2.02403 44L2.0267 44.0026C1.77144 44.4443 1.63683 44.9454 1.63636 45.4555C1.6359 45.9656 1.76959 46.4669 2.02403 46.9091C2.21506 47.2399 2.46938 47.5299 2.77247 47.7625C3.07557 47.995 3.42151 48.1656 3.79054 48.2645C4.15956 48.3634 4.54446 48.3886 4.92323 48.3387C5.30201 48.2889 5.66726 48.1649 5.99812 47.9739C9.18226 46.2732 11.6213 42.4419 12.8713 40.1301C13.6076 40.1059 14.3073 39.8033 14.8291 39.2834C15.1636 38.948 15.4112 38.536 15.5502 38.0833C17.779 40.1791 22.0452 43.2727 27.8173 43.2727C36.545 43.2727 46 36.7273 46 25.0909C46 10.5455 24.9081 1.81818 24.9081 1.81818Z" fill="#FFD700"/>
</g>
<defs>
<clipPath id="clip0_66_7">
<rect width="50" height="50" fill="white"/>
</clipPath>
</defs>
</svg>
