<svg width="50" height="50" viewBox="0 0 50 50" fill="none" xmlns="http://www.w3.org/2000/svg">
<path d="M43.0424 27.8207C41.2942 27.8306 39.7804 28.2564 38.5108 28.8901C38.042 27.9494 37.5732 27.1275 37.495 26.5136C37.4071 25.8006 37.2997 25.3649 37.4071 24.5133C37.5146 23.6617 38.0029 22.4536 38.0029 22.3546C37.9931 22.2655 37.8955 21.8298 36.8895 21.8199C35.8836 21.81 35.0144 22.0179 34.9167 22.2853C34.819 22.5526 34.6237 23.1666 34.4967 23.8003C34.3209 24.7311 32.4848 28.0286 31.4398 29.7615C31.098 29.0882 30.805 28.494 30.7464 28.0187C30.6585 27.3057 30.5511 26.87 30.6585 26.0184C30.7659 25.1668 31.2543 23.9588 31.2543 23.8597C31.2445 23.7706 31.1468 23.3349 30.1409 23.325C29.1349 23.3151 28.2657 23.5231 28.1681 23.7904C28.0704 24.0578 27.963 24.6915 27.7481 25.3055C27.543 25.9194 25.1014 31.4251 24.4666 32.8609C24.1443 33.5937 23.861 34.178 23.6559 34.574C23.4508 34.9701 23.6462 34.6038 23.6266 34.6434C23.4508 34.98 23.3532 35.1682 23.3532 35.1682V35.1781C23.2164 35.4256 23.07 35.6633 23.0016 35.6633C22.9528 35.6633 22.8551 34.9998 23.0211 34.0888C23.3825 32.1777 24.2615 29.1971 24.2517 29.0882C24.2517 29.0387 24.4177 28.5138 23.6852 28.2465C22.9723 27.9791 22.7184 28.4247 22.6598 28.4247C22.6012 28.4247 22.5523 28.5831 22.5523 28.5831C22.5523 28.5831 23.3434 25.2263 21.0385 25.2263C19.5931 25.2263 17.6007 26.8205 16.6143 28.2762C15.9893 28.6228 14.661 29.3555 13.2546 30.1378C12.7175 30.4349 12.1608 30.7518 11.6334 31.0389L11.526 30.9201C8.73276 27.8999 3.56629 25.761 3.78116 21.701C3.85929 20.2256 4.36715 16.334 13.7039 11.6205C21.3511 7.75859 27.4746 8.81814 28.5392 11.1749C30.053 14.5417 25.2674 20.7999 17.3175 21.701C14.2899 22.0476 12.698 20.8593 12.2975 20.4137C11.8776 19.9483 11.819 19.9285 11.6627 20.0176C11.4088 20.1563 11.565 20.5722 11.6627 20.8197C11.8971 21.4436 12.8737 22.5526 14.534 23.1072C15.9893 23.5924 19.5443 23.8597 23.8415 22.1764C28.6564 20.285 32.4165 15.0368 31.3129 10.6501C30.1897 6.18412 22.8844 4.71858 15.9795 7.20406C11.8678 8.68941 7.41429 11.0065 4.21088 14.0466C0.401956 17.651 -0.203566 20.7999 0.0503623 22.107C0.939112 26.771 7.27756 29.811 9.81684 32.0589C9.68988 32.1282 9.57268 32.1975 9.46525 32.2569C8.19561 32.8907 3.3612 35.4554 2.15016 38.1686C0.782848 41.2383 2.36502 43.4465 3.4198 43.7436C6.6818 44.6645 10.0219 43.0108 11.8287 40.2877C13.6258 37.5645 13.4109 34.0294 12.5808 32.4153L12.5515 32.3559L13.5476 31.7618C14.1922 31.3756 14.827 31.0191 15.3837 30.7121C15.0712 31.5736 14.8466 32.5936 14.7294 34.0789C14.5926 35.8217 15.2958 38.0795 16.2236 38.9707C16.6338 39.3569 17.1222 39.3668 17.4249 39.3668C18.4992 39.3668 18.9876 38.4657 19.5247 37.3863C20.1888 36.0693 20.7748 34.5443 20.7748 34.5443C20.7748 34.5443 20.0423 38.6736 22.0445 38.6736C22.777 38.6736 23.5094 37.7131 23.8415 37.218V37.2279C23.8415 37.2279 23.861 37.1982 23.9001 37.1288C23.9782 37.01 24.0173 36.9407 24.0173 36.9407V36.9209C24.3103 36.406 24.9646 35.2276 25.9413 33.2768C27.2012 30.7617 28.4122 27.6127 28.4122 27.6127C28.4122 27.6127 28.5294 28.3851 28.8908 29.6526C29.1056 30.4052 29.5744 31.2271 29.9358 32.0292C29.6428 32.445 29.467 32.6827 29.467 32.6827L29.4768 32.6926C29.2424 33.0095 28.9787 33.3462 28.7052 33.6828C27.709 34.8909 26.5175 36.2673 26.3613 36.6634C26.1757 37.1288 26.2148 37.4754 26.5761 37.7527C26.8398 37.9507 27.3086 37.9903 27.8067 37.9507C28.7052 37.8913 29.3303 37.6636 29.6428 37.5249C30.1311 37.3467 30.6878 37.0793 31.225 36.6832C32.2016 35.9505 32.7974 34.9107 32.7388 33.5244C32.7095 32.7619 32.4653 32.0093 32.1625 31.2964C32.2504 31.1676 32.3383 31.0389 32.4262 30.9003C33.9693 28.6129 35.1609 26.0977 35.1609 26.0977C35.1609 26.0977 35.278 26.87 35.6394 28.1375C35.825 28.7812 36.1961 29.4843 36.5282 30.1774C35.0827 31.3756 34.1744 32.7619 33.8619 33.6729C33.2857 35.3563 33.7349 36.1188 34.5846 36.297C34.9655 36.3763 35.5124 36.198 35.9226 36.0198C36.4305 35.8514 37.0458 35.5643 37.6122 35.1385C38.5889 34.4057 39.5265 33.3858 39.4776 32.0093C39.4483 31.3756 39.2823 30.7518 39.0577 30.1576C40.2883 29.6427 41.8802 29.3456 43.9018 29.5932C48.2479 30.1081 49.1074 32.8609 48.9414 34.0096C48.7753 35.1583 47.867 35.792 47.5643 35.9901C47.2615 36.1782 47.1639 36.2475 47.1932 36.3862C47.2322 36.5941 47.3689 36.5842 47.6326 36.5446C47.994 36.4852 49.918 35.6039 49.9961 33.4848C50.1133 30.7617 47.5643 27.791 43.0424 27.8207ZM9.52385 39.2776C8.08817 40.8719 6.06651 41.476 5.20706 40.961C4.27925 40.4164 4.64061 38.0696 6.40834 36.3763C7.48265 35.3464 8.87926 34.3958 9.79731 33.8116C10.0024 33.6828 10.3149 33.4947 10.6861 33.2669C10.7447 33.2273 10.7837 33.2075 10.7837 33.2075C10.8521 33.1679 10.9302 33.1184 11.0084 33.0689C11.6627 35.4851 11.0376 37.6042 9.52385 39.2776ZM20.0228 32.0391C19.5247 33.2768 18.4699 36.4555 17.8351 36.2772C17.2882 36.1287 16.9561 33.7224 17.7277 31.3459C18.1183 30.1477 18.9485 28.7218 19.4368 28.1672C20.2279 27.276 21.0874 26.979 21.3022 27.3454C21.5561 27.8207 20.3353 31.2667 20.0228 32.0391ZM28.6857 36.2376C28.4708 36.3466 28.2755 36.4258 28.1876 36.3664C28.1192 36.3268 28.2755 36.1782 28.2755 36.1782C28.2755 36.1782 29.3596 34.9998 29.7893 34.4552C30.0334 34.1383 30.3264 33.772 30.639 33.3561V33.4749C30.639 34.9008 29.2912 35.8514 28.6857 36.2376ZM35.3659 34.6929C35.2097 34.574 35.2292 34.2077 35.7566 33.059C35.9617 32.6035 36.4305 31.841 37.2411 31.1181C37.3388 31.4152 37.3974 31.7024 37.3876 31.9697C37.3778 33.7522 36.1277 34.4156 35.3659 34.6929Z" fill="#CF649A"/>
</svg>
