<svg width="50.000000" height="50.000000" viewBox="0 0 50 50" fill="none" xmlns="http://www.w3.org/2000/svg" xmlns:xlink="http://www.w3.org/1999/xlink">
	<desc>
			Created with Pixso.
	</desc>
	<defs>
		<linearGradient x1="6.724903" y1="41.959003" x2="0.840039" y2="24.948391" id="paint_linear_164_676_0" gradientUnits="userSpaceOnUse">
			<stop offset="0.144400" stop-color="#F2E913"/>
			<stop offset="0.303700" stop-color="#E7E518"/>
			<stop offset="0.582300" stop-color="#CADB26"/>
			<stop offset="0.891000" stop-color="#A3CD39"/>
		</linearGradient>
		<linearGradient x1="8.982826" y1="6.738851" x2="23.922895" y2="1.045463" id="paint_linear_164_677_0" gradientUnits="userSpaceOnUse">
			<stop offset="0.059200" stop-color="#0FA8E0"/>
			<stop offset="0.538500" stop-color="#0099F9"/>
			<stop offset="0.923400" stop-color="#0291EB"/>
		</linearGradient>
		<linearGradient x1="23.356155" y1="45.098206" x2="41.166958" y2="41.072960" id="paint_linear_164_678_0" gradientUnits="userSpaceOnUse">
			<stop offset="0.122600" stop-color="#A3CD39"/>
			<stop offset="0.284600" stop-color="#86C339"/>
			<stop offset="0.869300" stop-color="#21A038"/>
		</linearGradient>
		<linearGradient x1="23.791157" y1="3.671082" x2="38.599583" y2="8.240179" id="paint_linear_164_679_0" gradientUnits="userSpaceOnUse">
			<stop offset="0.056600" stop-color="#0291EB"/>
			<stop offset="0.790000" stop-color="#0C8ACB"/>
		</linearGradient>
		<linearGradient x1="7.918649" y1="42.686375" x2="23.824535" y2="48.629509" id="paint_linear_164_681_0" gradientUnits="userSpaceOnUse">
			<stop offset="0.132400" stop-color="#F2E913"/>
			<stop offset="0.297700" stop-color="#EBE716"/>
			<stop offset="0.530600" stop-color="#D9E01F"/>
			<stop offset="0.802300" stop-color="#BBD62D"/>
			<stop offset="0.982900" stop-color="#A3CD39"/>
		</linearGradient>
		<linearGradient x1="4.416181" y1="25.720671" x2="10.778272" y2="9.170551" id="paint_linear_164_682_0" gradientUnits="userSpaceOnUse">
			<stop offset="0.069800" stop-color="#A3CD39"/>
			<stop offset="0.259900" stop-color="#81C55F"/>
			<stop offset="0.921600" stop-color="#0FA8E0"/>
		</linearGradient>
	</defs>
	<path id="path" d="M44.77 9.75C45.96 11.28 46.94 12.95 47.78 14.72L25.02 31.52L15.46 25.51L15.46 18.32L24.97 24.28L44.77 9.75Z" fill="#21A038" fill-opacity="1.000000" fill-rule="nonzero"/>
	<path id="path" d="M5.76 25.02C5.76 24.68 5.76 24.38 5.81 24.03L0.04 23.74C0.04 24.13 3.05e-5 24.58 3.05e-5 24.97C3.05e-5 31.87 2.8 38.12 7.33 42.66L11.42 38.57C7.93 35.12 5.76 30.34 5.76 25.02Z" fill="url(#paint_linear_164_676_0)" fill-opacity="1.000000" fill-rule="nonzero"/>
	<path id="path" d="M24.97 5.81C25.32 5.81 25.61 5.81 25.96 5.86L26.25 0.09C25.86 0.09 25.41 0.04 25.02 0.04C18.12 0.04 11.87 2.85 7.33 7.38L11.42 11.47C14.87 7.98 19.7 5.81 24.97 5.81Z" fill="url(#paint_linear_164_677_0)" fill-opacity="1.000000" fill-rule="nonzero"/>
	<path id="path" d="M24.97 44.23C24.63 44.23 24.33 44.23 23.99 44.18L23.69 49.95C24.08 49.95 24.53 49.99 24.92 49.99C31.82 49.99 38.07 47.19 42.61 42.66L38.52 38.57C35.07 42.11 30.29 44.23 24.97 44.23Z" fill="url(#paint_linear_164_678_0)" fill-opacity="1.000000" fill-rule="nonzero"/>
	<path id="path" d="M35.81 9.16L40.68 5.56C36.4 2.11 30.93 0 24.97 0L24.97 5.76C29.01 5.81 32.75 7.04 35.81 9.16Z" fill="url(#paint_linear_164_679_0)" fill-opacity="1.000000" fill-rule="nonzero"/>
	<path id="path" d="M50 25.02C50 23.49 49.85 22.02 49.6 20.54L44.23 24.53C44.23 24.68 44.23 24.87 44.23 25.02C44.23 30.68 41.77 35.76 37.88 39.26L41.77 43.54C46.79 39.01 50 32.36 50 25.02Z" fill="#21A038" fill-opacity="1.000000" fill-rule="nonzero"/>
	<path id="path" d="M24.97 44.23C19.31 44.23 14.23 41.77 10.73 37.88L6.45 41.77C11.03 46.84 17.63 49.99 24.97 49.99L24.97 44.23Z" fill="url(#paint_linear_164_681_0)" fill-opacity="1.000000" fill-rule="nonzero"/>
	<path id="path" d="M12.11 10.78L8.22 6.5C3.15 11.08 3.05e-5 17.68 3.05e-5 25.02L5.76 25.02C5.76 19.4 8.22 14.28 12.11 10.78Z" fill="url(#paint_linear_164_682_0)" fill-opacity="1.000000" fill-rule="nonzero"/>
</svg>
