<svg width="50.000000" height="50.000000" viewBox="0 0 50 50" fill="none" xmlns="http://www.w3.org/2000/svg" xmlns:xlink="http://www.w3.org/1999/xlink">
	<desc>
			Created with Pixso.
	</desc>
	<defs/>
	<path id="path" d="M22.41 0.04C20.96 2.15 22.26 3.1 26.32 2.89C27.94 2.79 29.36 3.01 30.57 3.53C32.82 4.49 35.02 5.52 37.19 6.64C38.06 7.09 38.67 7.64 39.03 8.31C39.08 8.39 39.1 8.49 39.09 8.59C39.08 8.68 39.04 8.78 38.98 8.85C38.92 8.93 38.83 8.98 38.73 9C38.64 9.03 38.54 9.02 38.45 8.98C33.11 7.06 27.87 7.42 22.71 10.05C17.92 9 12.39 12.97 12.94 18.29C12.99 18.84 12.88 19.35 12.61 19.82L9.77 24.68C9.59 25.01 9.31 25.27 8.99 25.45C8.66 25.62 8.29 25.71 7.92 25.69C7.55 25.67 7.19 25.55 6.88 25.34C6.58 25.14 6.33 24.85 6.18 24.51C4.64 21.15 3.85 16.94 3.8 11.87C7.7 5.26 13.9 1.32 22.41 0.04Z" fill="#E4ECF0" fill-opacity="1.000000" fill-rule="nonzero"/>
	<path id="path" d="M22.41 0.04C32.75 -0.45 40.46 3.18 45.54 10.92C61.94 35.87 29.4 63.36 7.76 42.78C14.92 44.75 20.61 44.63 24.84 42.42C28.23 40.64 28.6 39.78 25.94 39.82C28.15 38.2 29.59 35.74 30.24 32.43C30.87 32.65 31.44 32.37 31.96 31.58C31.34 37.09 36.76 38.42 31.86 43.33C30.12 45.07 30.45 45.67 32.85 45.11C41.36 43.16 41.33 32.39 36.52 25.91C35.59 24.65 34.97 23.21 34.65 21.6C34.6 21.36 34.49 21.13 34.32 20.95C34.16 20.77 33.94 20.64 33.7 20.57C33.31 20.45 32.87 20.4 32.4 20.42C32.38 19.49 31.71 18.91 30.41 18.67C24.91 17.63 23.37 23.25 21.13 26.92C19.98 28.81 18.5 28.84 16.71 27.02C16.38 26.68 16.18 26.28 16.11 25.82C15.89 24.56 15.43 23.32 14.74 22.12L22.71 10.05C27.87 7.42 33.11 7.06 38.45 8.98C38.54 9.02 38.64 9.03 38.73 9C38.83 8.98 38.92 8.93 38.98 8.85C39.04 8.78 39.08 8.68 39.09 8.59C39.1 8.49 39.08 8.39 39.03 8.31C38.67 7.64 38.06 7.09 37.19 6.64C35.02 5.52 32.82 4.49 30.57 3.53C29.36 3.01 27.94 2.79 26.32 2.89C22.26 3.1 20.96 2.15 22.41 0.04Z" fill="#075DA5" fill-opacity="1.000000" fill-rule="nonzero"/>
	<path id="path" d="M22.71 10.05L14.74 22.12C13.81 26.31 14.72 32.23 20.68 31.13C24.59 30.41 27.78 30.85 30.24 32.43C29.59 35.74 28.15 38.2 25.94 39.82C20.91 42.95 17.46 42.83 11.79 40.35C9.06 39.16 6.23 38.07 3.3 37.08C-1.27 28.81 -1.1 20.4 3.8 11.86C3.85 16.94 4.64 21.15 6.18 24.51C6.33 24.85 6.58 25.14 6.88 25.34C7.19 25.55 7.55 25.67 7.92 25.69C8.29 25.71 8.66 25.62 8.99 25.45C9.31 25.27 9.59 25.01 9.77 24.68L12.61 19.82C12.88 19.35 12.99 18.84 12.94 18.29C12.39 12.97 17.92 9 22.71 10.05Z" fill="#1CBAE7" fill-opacity="1.000000" fill-rule="nonzero"/>
	<path id="path" d="M32.4 20.42C32.87 20.4 33.31 20.45 33.7 20.57C33.94 20.64 34.16 20.77 34.32 20.95C34.49 21.13 34.6 21.36 34.65 21.6C34.97 23.21 35.59 24.65 36.52 25.91C41.33 32.39 41.36 43.16 32.85 45.11C30.45 45.67 30.12 45.07 31.86 43.33C36.76 38.42 31.34 37.09 31.96 31.58C35.5 26.95 28.58 24.76 32.4 20.42Z" fill="#34BEF3" fill-opacity="1.000000" fill-rule="nonzero"/>
	<path id="path" d="M3.3 37.08C6.23 38.07 9.06 39.16 11.79 40.35C17.46 42.83 20.91 42.95 25.94 39.82C28.6 39.78 28.23 40.64 24.84 42.42C20.61 44.63 14.92 44.75 7.76 42.78C6.14 41.56 4.65 39.66 3.3 37.08Z" fill="#013681" fill-opacity="1.000000" fill-rule="nonzero"/>
</svg>
