<svg width="50.000000" height="50.000000" viewBox="0 0 50 50" fill="none" xmlns="http://www.w3.org/2000/svg" xmlns:xlink="http://www.w3.org/1999/xlink">
	<desc>
			Created with Pixso.
	</desc>
	<defs/>
	<path id="path" d="M24.39 2.25C24.79 0.75 24.22 0 22.67 0L6.25 0C2.78 0 0 2.78 0 6.25L0 8.92C0 9.92 0.78 10.71 1.78 10.71L20.75 10.71C21.67 10.72 22.25 10.28 22.5 9.39L24.39 2.25ZM1.78 17.85C0.59 17.85 0 18.45 0 19.64L0 26.78C0 27.78 0.78 28.57 1.78 28.57L15.96 28.57C16.89 28.58 17.47 28.14 17.71 27.25L19.6 20.1C20 18.61 19.43 17.86 17.89 17.85L1.78 17.85ZM1.78 35.71C0.59 35.71 0 36.3 0 37.5L0 43.75C0 47.21 2.78 50 6.25 50L10.25 50C11.15 49.99 11.72 49.55 11.96 48.67L14.82 37.96C15.22 36.47 14.65 35.72 13.1 35.71L1.78 35.71ZM21.67 50C20.13 49.99 19.56 49.24 19.96 47.75L32.42 1.32C32.66 0.44 33.23 0 34.14 0L41.21 0C41.8 -0.01 42.28 0.22 42.64 0.68C43.01 1.15 43.11 1.67 42.96 2.25L30.5 48.67C30.26 49.55 29.69 49.99 28.78 50L21.67 50ZM38.53 47.75C38.13 49.24 38.7 49.99 40.25 50L43.75 50C47.21 50 50 47.21 50 43.75L50 12.5C50 10.82 48.46 10.6 48.03 12.25L38.53 47.75Z" fill="#888888" fill-opacity="1.000000" fill-rule="nonzero"/>
</svg>
