<svg width="50" height="50" viewBox="0 0 50 50" fill="none" xmlns="http://www.w3.org/2000/svg">
<path d="M25.7297 38.3C26.9993 32.9265 23.6746 27.5407 18.304 26.2704C12.9333 25.0002 7.55037 28.3265 6.28078 33.7C5.01119 39.0735 8.33572 44.4594 13.7065 45.7296C19.077 46.9998 24.4601 43.6735 25.7297 38.3Z" fill="#FF4155"/>
<path d="M19.307 39.3819C19.2801 39.0496 19.0353 38.7804 18.713 38.6957C18.4414 38.6243 18.2634 38.4561 18.1734 38.3494C18.1356 38.3043 18.1035 38.2545 18.0781 38.2014C17.9211 37.879 17.0161 36.1728 14.9603 35.0682C13.3731 34.2153 13.513 33.0221 13.7439 32.3767C13.794 32.2356 13.8023 32.0831 13.768 31.9374C13.7337 31.7916 13.6582 31.6587 13.5507 31.5548C11.598 29.6475 12.5284 27.6011 13.0765 26.7414C13.146 26.6314 13.1877 26.5061 13.1975 26.3764C9.03975 27.5864 6 31.4244 6 35.9748C6 41.4963 10.474 45.9725 15.9926 45.9725C18.9703 45.9725 21.642 44.6679 23.4728 42.6005C20.0314 42.7478 19.4008 40.5466 19.307 39.3819Z" fill="#E80054"/>
<path d="M21.3569 33.6719C20.4532 32.0159 18.332 31.468 16.6869 32.3903L16.2849 32.6156C16.1957 32.6657 16.0952 32.692 15.9928 32.692C15.8906 32.692 15.7901 32.6657 15.7008 32.6156L15.226 32.3495C13.5698 31.421 11.4742 32.0466 10.5972 33.7312C9.76993 35.3209 10.3266 37.2879 11.8757 38.1878C13.1821 38.9467 14.4205 39.8978 15.4614 41.034C15.7458 41.3445 16.2398 41.3445 16.5243 41.0338C17.5652 39.8978 18.8032 38.9469 20.11 38.1878C21.6781 37.2763 22.2297 35.2715 21.3569 33.6719Z" fill="#E9EFFF"/>
<path d="M11.8755 38.1876C13.1819 38.9466 14.4203 39.8976 15.4612 41.0338C15.7456 41.3443 16.2397 41.3443 16.5241 41.0336C17.2755 40.2135 18.1307 39.4913 19.0397 38.8667C18.9449 38.7858 18.8333 38.7273 18.713 38.6957C18.4414 38.6243 18.2634 38.4561 18.1734 38.3494C18.1356 38.3043 18.1035 38.2545 18.0781 38.2014C17.9211 37.879 17.0161 36.1728 14.9603 35.0682C13.3731 34.2153 13.513 33.0221 13.7439 32.3767C13.7954 32.2325 13.8027 32.0762 13.7649 31.9279C12.4899 31.8591 11.2281 32.5188 10.597 33.7309C9.76974 35.3208 10.3264 37.2877 11.8755 38.1876Z" fill="#BEC8F7"/>
<path d="M44.0711 29.0711C47.9763 25.1659 47.9763 18.8342 44.0711 14.929C40.1659 11.0237 33.8343 11.0237 29.9289 14.929C26.0237 18.8342 26.0237 25.1659 29.9289 29.0711C33.8343 32.9763 40.1659 32.9763 44.0711 29.0711Z" fill="#FFB332"/>
<path d="M38.9807 27.8985L36.5859 17.0854C33.0614 15.7724 34.4811 12.3313 34.4856 12.3199C30.1868 13.44 27.0136 17.3476 27.0136 21.997C27.0136 27.52 31.4908 31.997 37.0136 31.997C38.2775 31.9977 39.53 31.758 40.7043 31.2908C38.2219 30.4613 38.9807 27.8985 38.9807 27.8985Z" fill="#FF9100"/>
<path d="M32.5214 17.0854H41.5057C42.2996 17.0854 42.9491 17.7351 42.9491 18.529V24.9138C42.9491 25.7079 42.2996 26.3574 41.5057 26.3574H40.2208C40.0775 26.3574 39.9438 26.4295 39.8653 26.5493L38.9804 27.8985C38.7653 28.2265 38.2845 28.2265 38.0697 27.8985L37.1847 26.5493C37.146 26.4904 37.0934 26.4419 37.0312 26.4084C36.9691 26.3748 36.8997 26.3574 36.8293 26.3574H32.521C31.7273 26.3574 31.0776 25.7077 31.0776 24.9138V18.529C31.0779 17.7349 31.7275 17.0854 32.5214 17.0854Z" fill="#E9EFFF"/>
<path d="M35.1424 24.9136V18.529C35.1424 17.7349 35.7919 17.0854 36.5859 17.0854H32.5214C31.7275 17.0854 31.0779 17.7351 31.0779 18.529V24.9138C31.0779 25.7077 31.7275 26.3574 32.5214 26.3574H36.5859C35.7919 26.3574 35.1424 25.7077 35.1424 24.9136Z" fill="#BEC8F7"/>
<path d="M15 22C20.5228 22 25 17.5229 25 12C25 6.47715 20.5228 2 15 2C9.47716 2 5 6.47715 5 12C5 17.5229 9.47716 22 15 22Z" fill="#42C3FC"/>
<path d="M19.3765 20.9929C19.3037 20.9308 19.2201 20.8824 19.1301 20.8499C16.4978 19.9333 16.7146 17.8618 17.016 16.8246C17.1155 16.4824 16.9862 16.12 16.6963 15.9128C15.6648 15.1759 15.9903 14.0248 16.2141 13.5015C16.296 13.3127 16.3032 13.0999 16.2342 12.906L14.4024 7.84084C14.3267 7.63194 14.1676 7.46628 13.9663 7.37188C11.6982 6.30779 12.0459 3.78735 12.2931 2.77209C12.3247 2.64146 12.3229 2.50502 12.288 2.37524C8.08346 3.55769 5 7.41746 5 12C5 17.5229 9.47716 22 15 22C16.5165 22.0019 18.0133 21.6574 19.3765 20.9929Z" fill="#1AA9E8"/>
<path d="M15 7.47015C12.031 7.47015 9.44065 9.09066 8.06493 11.4953C7.97684 11.6489 7.93052 11.8229 7.93052 12C7.93052 12.1771 7.97684 12.3511 8.06493 12.5048C9.44065 14.9094 12.0311 16.5299 15 16.5299C17.969 16.5299 20.5593 14.9094 21.9352 12.5048C22.0233 12.3511 22.0697 12.1771 22.0697 12C22.0697 11.8229 22.0233 11.6489 21.9352 11.4953C20.5593 9.09066 17.969 7.47015 15 7.47015Z" fill="#E9EFFF"/>
<path d="M16.6963 15.913C15.6648 15.176 15.9903 14.025 16.2141 13.5016C16.296 13.3129 16.3032 13.1001 16.2342 12.9062L14.4024 7.84099C14.3565 7.71384 14.2767 7.60541 14.1783 7.51675C11.5582 7.7851 9.31205 9.31593 8.06493 11.4954C7.97684 11.6491 7.93052 11.8231 7.93052 12.0002C7.93052 12.1773 7.97684 12.3513 8.06493 12.5049C9.44065 14.9095 12.031 16.53 15 16.53C15.6855 16.53 16.3496 16.44 16.9842 16.2776C16.9244 16.1314 16.8247 16.005 16.6963 15.913Z" fill="#BEC8F7"/>
<path d="M12.4689 7.88C11.9193 8.49797 11.6159 9.29657 11.617 10.1237C11.617 11.9921 13.1315 13.5067 15 13.5067C16.8685 13.5067 18.383 11.9921 18.383 10.1237C18.3841 9.29662 18.0809 8.49808 17.5311 7.88018C16.715 7.60796 15.8602 7.46955 15 7.47032C14.1398 7.46941 13.285 7.60777 12.4689 7.88Z" fill="#47477F"/>
<path d="M15.9888 10.8552C16.6709 10.8552 17.2238 10.3023 17.2238 9.62025C17.2238 8.93819 16.6709 8.38528 15.9888 8.38528C15.3068 8.38528 14.7537 8.93819 14.7537 9.62025C14.7537 10.3023 15.3068 10.8552 15.9888 10.8552Z" fill="#5F5F9B"/>
</svg>
