<svg width="50" height="50" viewBox="0 0 50 50" fill="none" xmlns="http://www.w3.org/2000/svg">
<path d="M22.9031 2.14863C10.3229 2.14863 0.124671 12.8605 0.124671 26.0743C0.124671 27.4857 0.242003 28.8683 0.46514 30.2125L19.2418 49.6908C20.4524 49.8965 21.6767 49.9999 22.903 50C35.4832 50 45.6814 39.2882 45.6814 26.0744C45.6814 12.8606 35.4832 2.14863 22.9031 2.14863Z" fill="#746BF9"/>
<path d="M29.4024 11.5656C32.443 11.5656 34.9079 8.97657 34.9079 5.78281C34.9079 2.58905 32.443 0 29.4024 0C26.3618 0 23.8969 2.58905 23.8969 5.78281C23.8969 8.97657 26.3618 11.5656 29.4024 11.5656Z" fill="#42C3FC"/>
<path d="M31.8119 10.9832C31.7718 10.9473 31.7258 10.9193 31.6762 10.9005C30.227 10.3705 30.3464 9.17256 30.5123 8.57275C30.5671 8.3749 30.4959 8.16533 30.3363 8.04551C29.7684 7.61934 29.9476 6.95371 30.0708 6.65107C30.1159 6.54192 30.1199 6.41884 30.0819 6.30674L29.0734 3.37764C29.0317 3.25684 28.9441 3.16104 28.8333 3.10645C27.5846 2.49111 27.776 1.03359 27.9121 0.446484C27.9295 0.370942 27.9285 0.292046 27.9093 0.216992C25.5945 0.900781 23.8969 3.13281 23.8969 5.78281C23.8969 8.97656 26.3618 11.5656 29.4024 11.5656C30.2373 11.5667 31.0614 11.3675 31.8119 10.9832Z" fill="#1AA9E8"/>
<path d="M29.4024 3.16328C27.7678 3.16328 26.3417 4.10039 25.5843 5.49092C25.5358 5.57979 25.5103 5.68041 25.5103 5.78281C25.5103 5.88521 25.5358 5.98584 25.5843 6.07471C26.3417 7.46523 27.7679 8.40234 29.4024 8.40234C31.037 8.40234 32.4631 7.46523 33.2206 6.07471C33.2691 5.98584 33.2946 5.88521 33.2946 5.78281C33.2946 5.68041 33.2691 5.57979 33.2206 5.49092C32.4631 4.10039 31.037 3.16328 29.4024 3.16328Z" fill="#E9EFFF"/>
<path d="M30.3363 8.04561C29.7684 7.61943 29.9476 6.95381 30.0708 6.65117C30.1159 6.54201 30.1199 6.41894 30.0819 6.30684L29.0734 3.37773C29.0481 3.3042 29.0042 3.2415 28.95 3.19023C27.5075 3.34541 26.2709 4.23066 25.5843 5.49102C25.5358 5.57988 25.5103 5.68051 25.5103 5.78291C25.5103 5.88531 25.5358 5.98594 25.5843 6.0748C26.3417 7.46533 27.7678 8.40244 29.4024 8.40244C29.7798 8.40244 30.1454 8.35039 30.4948 8.25645C30.4619 8.17191 30.407 8.09883 30.3363 8.04561Z" fill="#BEC8F7"/>
<path d="M46.8802 15.2785C47.5797 12.1704 45.7479 9.05519 42.7889 8.32046C39.8298 7.58574 36.864 9.50974 36.1645 12.6178C35.465 15.7259 37.2967 18.8412 40.2558 19.5759C43.2148 20.3106 46.1807 18.3866 46.8802 15.2785Z" fill="#FF4155"/>
<path d="M43.3415 15.9043C43.3267 15.7121 43.1918 15.5564 43.0142 15.5074C42.8646 15.4661 42.7665 15.3688 42.7169 15.3071C42.6961 15.281 42.6784 15.2522 42.6644 15.2215C42.5779 15.035 42.0793 14.0481 40.9466 13.4092C40.0721 12.9159 40.1492 12.2257 40.2764 11.8524C40.304 11.7708 40.3086 11.6826 40.2897 11.5983C40.2708 11.514 40.2292 11.4371 40.17 11.377C39.0941 10.2738 39.6067 9.09014 39.9087 8.59287C39.947 8.52928 39.97 8.45679 39.9754 8.38174C37.6846 9.08164 36.0098 11.3016 36.0098 13.9336C36.0098 17.1273 38.4748 19.7164 41.5154 19.7164C43.156 19.7164 44.628 18.9618 45.6367 17.766C43.7406 17.8512 43.3932 16.578 43.3415 15.9043Z" fill="#E80054"/>
<path d="M44.4709 12.6016C43.973 11.6437 42.8043 11.3268 41.8979 11.8603L41.6764 11.9906C41.6273 12.0196 41.5719 12.0348 41.5155 12.0348C41.4592 12.0348 41.4038 12.0196 41.3546 11.9906L41.093 11.8367C40.1805 11.2996 39.0259 11.6615 38.5427 12.6359H38.5426C38.0868 13.5554 38.3936 14.6931 39.2471 15.2136C39.9669 15.6526 40.6492 16.2027 41.2227 16.8599C41.3794 17.0395 41.6516 17.0395 41.8083 16.8598C42.3818 16.2027 43.0639 15.6527 43.7839 15.2136C44.6479 14.6864 44.9518 13.5268 44.4709 12.6016Z" fill="#E9EFFF"/>
<path d="M39.247 15.2135C39.9668 15.6525 40.6491 16.2026 41.2226 16.8598C41.3793 17.0394 41.6515 17.0394 41.8082 16.8597C42.2222 16.3853 42.6934 15.9676 43.1942 15.6063C43.142 15.5595 43.0805 15.5257 43.0142 15.5074C42.8646 15.4661 42.7665 15.3688 42.7169 15.3071C42.6961 15.281 42.6784 15.2522 42.6644 15.2215C42.5779 15.035 42.0793 14.0481 40.9466 13.4092C40.0721 12.9159 40.1492 12.2257 40.2764 11.8524C40.3048 11.769 40.3088 11.6786 40.288 11.5928C39.5855 11.553 38.8903 11.9346 38.5426 12.6357H38.5425C38.0867 13.5553 38.3935 14.693 39.247 15.2135Z" fill="#BEC8F7"/>
<path d="M46.107 32.8775C48.257 30.6192 48.257 26.9577 46.107 24.6994C43.957 22.441 40.4711 22.441 38.321 24.6994C36.171 26.9577 36.171 30.6192 38.321 32.8775C40.4711 35.1358 43.957 35.1358 46.107 32.8775Z" fill="#FFB332"/>
<path d="M43.3045 32.1994L41.986 25.9464C40.0456 25.1871 40.8272 23.1972 40.8297 23.1906C38.463 23.8383 36.716 26.098 36.716 28.7867C36.716 31.9805 39.1809 34.5695 42.2215 34.5695C42.9173 34.5699 43.6069 34.4313 44.2534 34.1611C42.8867 33.6814 43.3045 32.1994 43.3045 32.1994Z" fill="#FF9100"/>
<path d="M39.7483 25.9464H44.6946C45.1317 25.9464 45.4893 26.3221 45.4893 26.7812V30.4734C45.4893 30.9326 45.1317 31.3082 44.6946 31.3082H43.9872C43.9083 31.3082 43.8347 31.3499 43.7915 31.4192L43.3043 32.1994C43.1859 32.3891 42.9212 32.3891 42.8029 32.1994L42.3157 31.4192C42.2944 31.3851 42.2654 31.3571 42.2312 31.3377C42.197 31.3183 42.1588 31.3082 42.12 31.3082H39.7481C39.3111 31.3082 38.9534 30.9325 38.9534 30.4734V26.7812C38.9536 26.322 39.3112 25.9464 39.7483 25.9464Z" fill="#E9EFFF"/>
<path d="M41.1913 30.4733V26.7812C41.1913 26.322 41.5489 25.9464 41.986 25.9464H39.7483C39.3112 25.9464 38.9536 26.3221 38.9536 26.7812V30.4734C38.9536 30.9325 39.3112 31.3082 39.7483 31.3082H41.986C41.5489 31.3082 41.1913 30.9325 41.1913 30.4733Z" fill="#BEC8F7"/>
<path d="M28.0089 3.40029C27.7063 3.75765 27.5393 4.21946 27.5399 4.69775C27.5399 5.77822 28.3737 6.6541 29.4024 6.6541C30.4311 6.6541 31.2649 5.77822 31.2649 4.69775C31.2655 4.21949 31.0986 3.75771 30.7959 3.40039C30.3466 3.24297 29.876 3.16293 29.4024 3.16338C28.9288 3.16285 28.4582 3.24286 28.0089 3.40029Z" fill="#47477F"/>
<path d="M13.7657 39.2149C13.2947 39.5006 12.6937 39.4211 12.3042 39.0216L12.22 38.9351L10.3678 40.0583L14.0457 44.105C14.1274 44.064 14.2077 44.0198 14.2864 43.9726C16.0216 42.9203 16.616 40.5898 15.6142 38.7674C15.5213 38.5983 15.4163 38.4369 15.3001 38.2846L13.7657 39.2149Z" fill="#D3DCFB"/>
<path d="M12.3042 39.0216L12.22 38.9351L10.3678 40.0583L14.0457 44.105C14.1275 44.064 14.2077 44.0198 14.2864 43.9726C14.8542 43.6293 15.3224 43.1302 15.6408 42.5287C13.068 41.8597 13.7658 39.2149 13.7658 39.2149C13.2946 39.5007 12.6937 39.4211 12.3042 39.0216Z" fill="#BEC8F7"/>
<path d="M10.4696 39.9337L6.30564 42.4588C9.69406 46.2442 14.2423 48.8705 19.3549 49.7105L10.4696 39.9337Z" fill="#E9EFFF"/>
<path d="M14.1906 44.028L10.4696 39.9336L6.30564 42.4587C7.762 44.0856 9.42712 45.4914 11.253 46.6354C11.1532 43.6513 14.1906 44.028 14.1906 44.028Z" fill="#D3DCFB"/>
<path d="M3.88415 28.2626L2.61134 25.947C2.22494 25.2439 1.36921 25.0031 0.699898 25.409C0.0305816 25.8148 -0.198691 26.7137 0.187707 27.4167L1.46051 29.7323L3.88415 28.2626Z" fill="#E9EFFF"/>
<path d="M2.74048 26.182C2.74541 26.2352 2.7482 26.289 2.7482 26.3434C2.7482 27.2439 2.05313 27.974 1.19573 27.974C0.894589 27.9742 0.599964 27.882 0.348086 27.7086L1.46042 29.7323L3.88406 28.2626L2.74048 26.182Z" fill="#D3DCFB"/>
<path d="M6.45171 42.6216L12.458 38.9792C12.3677 38.8872 12.2899 38.7826 12.2268 38.6684L5.93356 27.2194C5.87093 27.1048 5.8236 26.9817 5.79289 26.8536L0.446731 30.0957C1.22306 34.9136 3.36945 39.2417 6.45171 42.6216Z" fill="#FF7186"/>
<path d="M8.77772 33.0298L8.78227 32.4019L5.93366 27.2194C5.87103 27.1048 5.82369 26.9817 5.79299 26.8536L0.446731 30.0957C0.815475 32.3836 1.50128 34.6024 2.48229 36.6814C2.60855 35.4248 3.40868 35.0157 3.40868 35.0157C3.40868 35.0157 5.03572 34.0147 6.45236 33.196C7.8689 32.3773 8.77772 33.0298 8.77772 33.0298Z" fill="#FF4155"/>
<path d="M19.3587 35.3408C23.5962 33.566 28.1409 33.3102 32.369 34.3944L19.5282 11.0335C18.3082 15.4217 15.8249 19.4278 12.2428 22.3951C12.5161 22.5171 12.7441 22.7291 12.8925 22.9991L19.1855 34.4479C19.334 34.718 19.3947 35.0314 19.3587 35.3408Z" fill="#D3DCFB"/>
<path d="M24.0193 19.2041L19.5282 11.0335C18.3082 15.4217 15.8248 19.4278 12.2427 22.3951C12.516 22.5171 12.744 22.7291 12.8924 22.9991L15.9571 28.5746C19.5443 25.8486 22.3088 22.5653 24.0193 19.2041Z" fill="#BEC8F7"/>
<path d="M18.8615 36.3128L13.8434 39.356C13.1854 39.755 12.3442 39.5182 11.9643 38.8271L5.67119 27.3782C5.2913 26.6871 5.51676 25.8034 6.17474 25.4045L11.1929 22.3613C11.8509 21.9623 12.6922 22.1991 13.072 22.8901L19.365 34.339C19.7449 35.0302 19.5194 35.9138 18.8615 36.3128Z" fill="#FF4155"/>
<path d="M13.072 22.8902C12.6921 22.1991 11.8509 21.9624 11.1929 22.3614L6.17474 25.4046C5.51676 25.8036 5.2914 26.6873 5.67119 27.3783L8.77762 33.0299C9.13232 31.3831 10.4331 32.1231 10.4331 32.1231L14.603 29.5944C14.7956 28.0112 16.1255 28.4458 16.1255 28.4458L13.072 22.8902Z" fill="#E80054"/>
<path d="M8.46812 27.8145C8.31454 27.8146 8.16519 27.7616 8.04328 27.6635C7.92136 27.5654 7.83369 27.4277 7.79387 27.2719C7.75406 27.1161 7.76432 26.9509 7.82308 26.8018C7.88184 26.6528 7.98579 26.5283 8.11881 26.4477L11.0809 24.6514C11.241 24.5558 11.4306 24.5306 11.6083 24.5812C11.786 24.6319 11.9374 24.7544 12.0295 24.9219C12.1215 25.0894 12.1468 25.2883 12.0997 25.4753C12.0527 25.6623 11.9371 25.8221 11.7783 25.9199L8.81611 27.7162C8.71037 27.7806 8.59033 27.8145 8.46812 27.8145ZM9.75292 30.152C9.59934 30.1521 9.45 30.0991 9.32808 30.001C9.20616 29.9029 9.11849 29.7652 9.07867 29.6094C9.03886 29.4536 9.04912 29.2884 9.10788 29.1393C9.16664 28.9903 9.27059 28.8658 9.40361 28.7852L12.3658 26.9889C12.5258 26.8933 12.7154 26.8681 12.8931 26.9187C13.0708 26.9694 13.2222 27.0919 13.3143 27.2594C13.4063 27.4269 13.4316 27.6258 13.3845 27.8128C13.3375 27.9998 13.2219 28.1596 13.0631 28.2574L10.1009 30.0537C9.99517 30.1181 9.87513 30.152 9.75292 30.152ZM11.0377 32.4894C10.8841 32.4895 10.7348 32.4365 10.6129 32.3384C10.491 32.2403 10.4033 32.1026 10.3635 31.9468C10.3237 31.791 10.3339 31.6258 10.3927 31.4767C10.4514 31.3277 10.5554 31.2032 10.6884 31.1226L13.6506 29.3263C13.8106 29.2307 14.0002 29.2055 14.1779 29.2561C14.3556 29.3068 14.507 29.4293 14.5991 29.5968C14.6911 29.7643 14.7164 29.9632 14.6693 30.1502C14.6223 30.3372 14.5067 30.497 14.3479 30.5948L11.3857 32.3911C11.28 32.4555 11.1599 32.4894 11.0377 32.4894ZM12.3225 34.8268C12.1689 34.8269 12.0196 34.7739 11.8977 34.6758C11.7758 34.5777 11.6881 34.44 11.6483 34.2842C11.6085 34.1284 11.6187 33.9632 11.6775 33.8141C11.7362 33.6651 11.8402 33.5406 11.9732 33.46L14.9354 31.6637C15.0954 31.5681 15.285 31.5429 15.4627 31.5935C15.6404 31.6442 15.7918 31.7667 15.8839 31.9342C15.9759 32.1017 16.0012 32.3006 15.9541 32.4876C15.9071 32.6746 15.7915 32.8344 15.6327 32.9322L12.6705 34.7285C12.5648 34.7929 12.4447 34.8268 12.3225 34.8268ZM13.6073 37.1642C13.4537 37.1643 13.3044 37.1113 13.1825 37.0132C13.0606 36.9151 12.9729 36.7774 12.9331 36.6216C12.8933 36.4658 12.9035 36.3006 12.9623 36.1515C13.021 36.0025 13.125 35.878 13.258 35.7974L16.2202 34.0011C16.3802 33.9055 16.5698 33.8803 16.7475 33.9309C16.9252 33.9816 17.0766 34.1041 17.1687 34.2716C17.2607 34.4391 17.286 34.638 17.2389 34.825C17.1919 35.012 17.0763 35.1718 16.9175 35.2696L13.9553 37.0659C13.8496 37.1303 13.7295 37.1642 13.6073 37.1642Z" fill="#FF7186"/>
<path d="M34.1662 35.1153C33.497 35.5212 32.6411 35.2804 32.2547 34.5773L19.3203 11.0459C18.9339 10.3429 19.1632 9.44404 19.8325 9.03818C20.5017 8.63232 21.3575 8.87314 21.7439 9.57617L34.6783 33.1076C35.0648 33.8106 34.8355 34.7095 34.1662 35.1153Z" fill="#E9EFFF"/>
<path d="M24.7163 17.8063C25.198 17.5143 25.7617 17.5089 26.2303 17.7381L21.744 9.57607C21.3576 8.87305 20.5018 8.63223 19.8325 9.03809C19.1633 9.44394 18.934 10.3428 19.3204 11.0458L23.8982 19.3741C23.8728 18.753 24.1682 18.1388 24.7163 17.8063Z" fill="#D3DCFB"/>
<path d="M39.3389 42.6383C37.8927 40.3078 35.3619 37.6253 32.3124 38.0066C27.0967 38.6587 14.1728 39.3828 23.9725 49.9729C30.0045 49.68 35.4236 46.9233 39.3389 42.6383ZM1.88475 16.8383C3.61536 27.2062 16.0771 10.6607 16.7377 6.99219C17.034 5.34688 16.2704 4.24102 15.3034 3.51445C9.24035 5.76787 4.35636 10.6402 1.88475 16.8383Z" fill="#827DF9"/>
<path d="M29.9468 5.1208C30.3223 5.1208 30.6267 4.80106 30.6267 4.40664C30.6267 4.01222 30.3223 3.69248 29.9468 3.69248C29.5713 3.69248 29.2668 4.01222 29.2668 4.40664C29.2668 4.80106 29.5713 5.1208 29.9468 5.1208Z" fill="#5F5F9B"/>
</svg>
