<svg width="50" height="50" viewBox="0 0 50 50" fill="none" xmlns="http://www.w3.org/2000/svg">
<g clip-path="url(#clip0_322_21)">
<path d="M25.0881 45.2432C13.921 45.2432 4.83555 36.158 4.83555 24.9904C4.83555 13.8233 13.921 4.73828 25.0881 4.73828C36.2553 4.73828 45.3403 13.8232 45.3403 24.9904C45.3403 36.158 36.2553 45.2431 25.0881 45.2431V45.2432ZM25.0881 6.3873C14.83 6.3873 6.48496 14.7327 6.48496 24.9904C6.48496 35.2485 14.83 43.5936 25.0881 43.5936C35.3459 43.5936 43.6912 35.2485 43.6912 24.9904C43.6912 14.7327 35.3458 6.3873 25.0881 6.3873Z" fill="#FFD151"/>
<path d="M18.7752 9.33877C18.7752 14.4962 14.5938 18.6775 9.43633 18.6775C4.27861 18.6775 0.0976562 14.4961 0.0976562 9.33867C0.0976562 4.18125 4.27861 0 9.43642 0C14.5938 0 18.7752 4.18125 18.7752 9.33877Z" fill="#64E8FF"/>
<path d="M9.43643 0C8.89355 0 8.36182 0.046875 7.84414 0.135742C12.2433 0.891504 15.591 4.72373 15.591 9.33877C15.591 13.9538 12.2434 17.786 7.84414 18.5417C8.36182 18.6306 8.89355 18.6774 9.43643 18.6774C14.5938 18.6774 18.7752 14.4962 18.7752 9.33877C18.7752 4.18135 14.5938 0 9.43643 0Z" fill="#0FD9FF"/>
<path d="M50.079 9.33877C50.079 14.4962 45.898 18.6775 40.7401 18.6775C35.5827 18.6775 31.4019 14.4962 31.4019 9.33867C31.4019 4.18115 35.5827 0 40.7402 0C45.898 0 50.079 4.18125 50.079 9.33877Z" fill="#6193FF"/>
<path d="M50.0752 9.07131C49.9275 3.91594 45.6283 -0.143724 40.4731 0.00393184C39.9896 0.0176888 39.5078 0.0686861 39.032 0.156471C43.2671 0.94065 46.5294 4.59211 46.6575 9.07141C46.7915 13.7356 43.4811 17.6987 39.0312 18.5207C39.6828 18.6415 40.3453 18.6927 41.0076 18.6738C46.1632 18.5257 50.2228 14.2269 50.0752 9.07131Z" fill="#407BFF"/>
<path d="M18.7752 40.6612C18.7752 45.8191 14.5938 50 9.43633 50C4.27861 50 0.0976562 45.819 0.0976562 40.6612C0.0976562 35.5038 4.27861 31.3225 9.43642 31.3225C14.5938 31.3225 18.7752 35.5038 18.7752 40.6613V40.6612Z" fill="#FF6969"/>
<path d="M9.43643 31.3225C8.72851 31.3221 8.02283 31.4019 7.33291 31.5605C11.4776 32.5146 14.5683 36.2271 14.5683 40.6612C14.5683 45.0958 11.4776 48.8079 7.33291 49.7619C8.02286 49.9205 8.72857 50.0004 9.43652 50C14.5939 50 18.7753 45.819 18.7753 40.6612C18.7753 35.5038 14.5939 31.3225 9.43643 31.3225Z" fill="#FF4848"/>
<path d="M50.079 40.6612C50.079 45.8191 45.898 50 40.7401 50C35.5827 50 31.4019 45.819 31.4019 40.6612C31.4019 35.5038 35.5827 31.3225 40.7402 31.3225C45.898 31.3225 50.079 35.5038 50.079 40.6613V40.6612Z" fill="#FF95C2"/>
<path d="M40.7406 31.3225C40.1083 31.3222 39.4775 31.3858 38.858 31.5124C43.1133 32.3833 46.3143 36.1484 46.3143 40.6612C46.3143 45.174 43.1133 48.9392 38.858 49.8101C39.4775 49.9366 40.1083 50.0003 40.7406 50C45.898 50 50.079 45.819 50.079 40.6612C50.079 35.5038 45.898 31.3225 40.7406 31.3225Z" fill="#FF758E"/>
<path d="M13.8496 5.7041C13.493 5.91918 13.1109 6.08873 12.7121 6.20879C11.9689 5.3543 10.6743 5.26426 9.81982 6.00742C9.59509 6.2029 9.41565 6.44499 9.29397 6.71685C9.17229 6.98871 9.1113 7.28382 9.11523 7.58164V8.03906C8.3514 8.05898 7.59357 7.89915 6.90285 7.57244C6.21212 7.24574 5.60782 6.76131 5.13867 6.1582C5.07422 6.07539 4.94336 6.09639 4.90908 6.19521C4.59814 7.08516 3.74863 10.3437 7.28486 11.9153C6.49412 12.4519 5.57364 12.766 4.61982 12.8247C4.48105 12.8331 4.44404 13.0204 4.57031 13.0788C8.5875 14.9343 13.2339 12.6237 13.2339 7.56768C13.2333 7.44029 13.2211 7.31323 13.1973 7.18809C13.5747 6.81551 13.8636 6.36289 14.0426 5.86367C14.0842 5.74736 13.9557 5.64053 13.8495 5.7042L13.8496 5.7041ZM40.0821 15.2576C39.8634 15.2576 39.6537 15.1707 39.499 15.016C39.3443 14.8614 39.2574 14.6516 39.2574 14.4329V6.31377C39.2574 4.71807 40.5556 3.41992 42.1513 3.41992H43.1278C43.3465 3.41995 43.5563 3.50684 43.711 3.6615C43.8656 3.81616 43.9525 4.02591 43.9525 4.24463C43.9525 4.35291 43.9312 4.46013 43.8897 4.56016C43.8483 4.66019 43.7875 4.75107 43.7109 4.82762C43.6344 4.90417 43.5434 4.96488 43.4434 5.00628C43.3433 5.04769 43.2361 5.06898 43.1278 5.06895H42.1513C41.465 5.06895 40.9065 5.62744 40.9065 6.31367V14.4329C40.9065 14.8884 40.5373 15.2576 40.0821 15.2576Z" fill="white"/>
<path d="M42.0014 10.004H38.258C38.0415 10.0007 37.8349 9.91232 37.683 9.75802C37.5311 9.60372 37.4459 9.39585 37.4459 9.1793C37.4459 8.96274 37.5311 8.75488 37.683 8.60058C37.8349 8.44628 38.0415 8.35792 38.258 8.35459H42.0014C42.2179 8.35792 42.4244 8.44628 42.5764 8.60058C42.7283 8.75488 42.8135 8.96274 42.8135 9.1793C42.8135 9.39585 42.7283 9.60372 42.5764 9.75802C42.4244 9.91232 42.2179 10.0007 42.0014 10.004ZM7.44092 40.559V37.5928C7.44092 37.3742 7.67705 37.238 7.86631 37.3472L10.434 38.8303L13.0021 40.3135C13.1908 40.4229 13.1908 40.6957 13.0021 40.8052L10.434 42.2883L7.86621 43.7715C7.67695 43.8806 7.44082 43.744 7.44082 43.5258L7.44092 40.559ZM44.0186 46.0755H37.4622C36.2847 46.0755 35.3265 45.1172 35.3265 43.9396V37.3833C35.3265 36.2053 36.2847 35.2475 37.4622 35.2475H44.0186C45.1962 35.2475 46.1544 36.2053 46.1544 37.3832V43.9396C46.1544 45.1172 45.1962 46.0755 44.0186 46.0755ZM37.4622 36.8965C37.3331 36.8966 37.2094 36.9479 37.1181 37.0392C37.0269 37.1305 36.9756 37.2542 36.9755 37.3833V43.9396C36.9757 44.0685 37.027 44.1922 37.1183 44.2834C37.2095 44.3746 37.3332 44.4258 37.4622 44.4259H44.0186C44.1475 44.4257 44.2712 44.3744 44.3624 44.2833C44.4536 44.1921 44.505 44.0685 44.5053 43.9396V37.3833C44.5051 37.2542 44.4538 37.1305 44.3626 37.0392C44.2713 36.948 44.1476 36.8966 44.0186 36.8965H37.4622Z" fill="white"/>
<path d="M40.7402 43.0122C39.4439 43.0122 38.3896 41.9575 38.3896 40.6612C38.3896 39.365 39.4439 38.3106 40.7402 38.3106C42.0364 38.3106 43.0912 39.365 43.0912 40.6612C43.0912 41.9575 42.0365 43.0122 40.7402 43.0122ZM40.7402 39.9598C40.3534 39.9598 40.0387 40.2744 40.0387 40.6612C40.0387 41.048 40.3534 41.3628 40.7402 41.3628C40.9262 41.3626 41.1046 41.2886 41.2361 41.1571C41.3676 41.0256 41.4415 40.8472 41.4417 40.6612C41.4421 40.2745 41.1274 39.9598 40.7402 39.9598Z" fill="white"/>
<path d="M22.1733 32.5016L21.8746 26.7555C21.8599 26.5395 21.7609 26.338 21.599 26.1944C21.437 26.0508 21.2251 25.9766 21.009 25.9879C20.7928 25.9992 20.5898 26.095 20.4436 26.2546C20.2975 26.4143 20.22 26.625 20.2278 26.8413L20.5265 32.5874C20.5321 32.6955 20.5589 32.8015 20.6055 32.8993C20.6521 32.997 20.7175 33.0846 20.7979 33.1571C20.8784 33.2296 20.9723 33.2855 21.0744 33.3217C21.1764 33.3578 21.2846 33.3735 21.3928 33.3679C21.5009 33.3623 21.6069 33.3354 21.7046 33.2889C21.8024 33.2423 21.89 33.1769 21.9625 33.0965C22.035 33.016 22.0909 32.9221 22.1271 32.82C22.1633 32.718 22.179 32.6097 22.1733 32.5016Z" fill="#83A7C5"/>
<path d="M23.0987 26.7986H19.6441C19.5445 26.7986 19.4458 26.779 19.3537 26.7408C19.2616 26.7027 19.178 26.6468 19.1075 26.5763C19.037 26.5058 18.9811 26.4221 18.943 26.33C18.9049 26.2379 18.8853 26.1392 18.8854 26.0395V22.0768C18.8854 21.8755 18.9653 21.6825 19.1076 21.5402C19.2499 21.3979 19.4429 21.318 19.6441 21.318H23.0987C23.164 21.318 23.217 21.3711 23.217 21.4363V26.6804C23.217 26.7456 23.1639 26.7986 23.0987 26.7986Z" fill="#FF95C2"/>
<path d="M30.5481 29.4338C28.288 28.0488 25.8091 27.0577 23.2171 26.5026V21.6145C24.4153 21.3596 25.5914 21.0105 26.7346 20.5704C28.0608 20.0593 29.3373 19.4274 30.548 18.6829L30.5481 29.4338Z" fill="#E5F4FF"/>
<path d="M30.5481 31.0245C30.3294 31.0245 30.1196 30.9376 29.965 30.783C29.8103 30.6283 29.7234 30.4185 29.7233 30.1998V17.917C29.7267 17.7005 29.815 17.4939 29.9693 17.342C30.1236 17.19 30.3315 17.1049 30.548 17.1049C30.7646 17.1049 30.9725 17.19 31.1268 17.342C31.2811 17.4939 31.3694 17.7005 31.3728 17.917V30.1999C31.3727 30.4186 31.2858 30.6284 31.1312 30.783C30.9765 30.9377 30.7668 31.0246 30.548 31.0246L30.5481 31.0245Z" fill="#6464FF"/>
</g>
<defs>
<clipPath id="clip0_322_21">
<rect width="50" height="50" fill="white"/>
</clipPath>
</defs>
</svg>
