<svg width="50" height="50" viewBox="0 0 50 50" xmlns="http://www.w3.org/2000/svg">
  <g id="cd">
    <path d="M25 50C38.8071 50 50 38.8071 50 25C50 11.1929 38.8071 0 25 0C11.1929 0 0 11.1929 0 25C0 38.8071 11.1929 50 25 50Z" fill="#52AFFF"/>
    <path d="M42.6776 7.32244C40.4135 5.05833 37.8212 3.32628 35.0558 2.11218L27.0551 19.6891L30.3103 22.9442L47.8872 14.9436C46.6737 12.1788 44.9417 9.58654 42.6776 7.32244Z" fill="#A4E2F1"/>
    <path d="M2.11218 35.0558C3.32628 37.8212 5.05833 40.4135 7.32244 42.6776C9.58654 44.9417 12.1788 46.6737 14.9442 47.8878L22.9449 30.3109L19.6897 27.0558L2.11218 35.0558Z" fill="#A4E2F1"/>
    <path d="M25 34.6154C30.3104 34.6154 34.6154 30.3104 34.6154 25C34.6154 19.6896 30.3104 15.3846 25 15.3846C19.6896 15.3846 15.3846 19.6896 15.3846 25C15.3846 30.3104 19.6896 34.6154 25 34.6154Z" fill="#0037FF"/>
    <path d="M25 28.8462C27.1242 28.8462 28.8462 27.1242 28.8462 25C28.8462 22.8758 27.1242 21.1538 25 21.1538C22.8758 21.1538 21.1539 22.8758 21.1539 25C21.1539 27.1242 22.8758 28.8462 25 28.8462Z" fill="#52AFFF"/>
    <animateTransform
attributeName="transform"
type="rotate"
values="0 25 25; 360 25 25;"
dur="3s"
keyTimes="0; 1"
repeatCount="indefinite"
/>
  </g>
  <path d="M50 23H0V50H50V23Z" fill="#FFC400"/>
  <path opacity="0.35" d="M35.3277 29.0517H14.6723V34.1724H35.3277V29.0517Z" fill="black"/>
  <path d="M35.3277 27.1897H14.6723V32.3103H35.3277V27.1897Z" fill="#9C4000"/>
  </svg>