<svg width="50" height="50" viewBox="0 0 50 50" fill="none" xmlns="http://www.w3.org/2000/svg">
<g clip-path="url(#clip0_308_22)">
<path d="M42.6775 7.32255C38.1529 2.79804 31.9039 0 25 0C18.0961 0 11.8471 2.79804 7.32255 7.32255C2.79804 11.8471 0 18.0961 0 25C0 38.8069 11.1931 50 25 50C31.9039 50 38.1529 47.202 42.6775 42.6775C47.202 38.1529 50 31.9039 50 25C50 18.0961 47.202 11.8471 42.6775 7.32255ZM29.2287 29.2287C28.1466 30.3109 26.6506 30.9804 25 30.9804C21.6975 30.9804 19.0196 28.3025 19.0196 25C19.0196 23.3494 19.6891 21.8534 20.7713 20.7713C21.8534 19.6891 23.3494 19.0196 25 19.0196C26.6506 19.0196 28.1466 19.6891 29.2287 20.7713C30.3109 21.8534 30.9804 23.3494 30.9804 25C30.9804 26.6506 30.3109 28.1466 29.2287 29.2287Z" fill="url(#paint0_linear_308_22)"/>
<path d="M40.601 9.39902C36.6088 5.40588 31.0922 2.93627 25 2.93627C18.9078 2.93627 13.3912 5.40588 9.39902 9.39902C5.40588 13.3912 2.93627 18.9078 2.93627 25C2.93627 37.1853 12.8147 47.0637 25 47.0637C31.0922 47.0637 36.6088 44.5941 40.601 40.601C44.5941 36.6088 47.0637 31.0922 47.0637 25C47.0637 18.9078 44.5941 13.3912 40.601 9.39902ZM29.2287 29.2287C28.1466 30.3109 26.6506 30.9804 25 30.9804C21.6975 30.9804 19.0196 28.3025 19.0196 25C19.0196 23.3494 19.6891 21.8534 20.7713 20.7713C21.8534 19.6891 23.3494 19.0196 25 19.0196C26.6506 19.0196 28.1466 19.6891 29.2287 20.7713C30.3109 21.8534 30.9804 23.3494 30.9804 25C30.9804 26.6506 30.3109 28.1466 29.2287 29.2287Z" fill="url(#paint1_linear_308_22)"/>
<path d="M40.601 9.39902C36.6088 5.40588 31.0922 2.93627 25 2.93627C18.9078 2.93627 13.3912 5.40588 9.39902 9.39902C5.40588 13.3912 2.93627 18.9078 2.93627 25C2.93627 37.1853 12.8147 47.0637 25 47.0637C31.0922 47.0637 36.6088 44.5941 40.601 40.601C44.5941 36.6088 47.0637 31.0922 47.0637 25C47.0637 18.9078 44.5941 13.3912 40.601 9.39902ZM29.2287 29.2287C28.1466 30.3109 26.6506 30.9804 25 30.9804C21.6975 30.9804 19.0196 28.3025 19.0196 25C19.0196 23.3494 19.6891 21.8534 20.7713 20.7713C21.8534 19.6891 23.3494 19.0196 25 19.0196C26.6506 19.0196 28.1466 19.6891 29.2287 20.7713C30.3109 21.8534 30.9804 23.3494 30.9804 25C30.9804 26.6506 30.3109 28.1466 29.2287 29.2287Z" fill="url(#paint2_linear_308_22)"/>
<path d="M25 43.7304C30.1726 43.7304 34.8549 41.6333 38.2441 38.2441C41.6333 34.8549 43.7304 30.1726 43.7304 25C43.7304 19.8275 41.6333 15.1451 38.2441 11.7559C34.8549 8.36667 30.1726 6.26961 25 6.26961C19.8275 6.26961 15.1451 8.36667 11.7559 11.7559C8.36667 15.1451 6.26961 19.8275 6.26961 25C6.26961 35.3441 14.6559 43.7304 25 43.7304ZM20.7713 20.7713C21.8533 19.6891 23.3494 19.0196 25 19.0196C28.3025 19.0196 30.9804 21.6975 30.9804 25C30.9804 26.6506 30.3109 28.1466 29.2287 29.2287C28.1466 30.3109 26.6506 30.9804 25 30.9804C23.3494 30.9804 21.8533 30.3109 20.7713 29.2287C19.6891 28.1466 19.0196 26.6506 19.0196 25C19.0196 23.3494 19.6891 21.8534 20.7713 20.7713Z" fill="url(#paint3_linear_308_22)"/>
<path d="M25 6.26961C19.8275 6.26961 15.1451 8.36667 11.7559 11.7559C8.36667 15.1451 6.26961 19.8275 6.26961 25C6.26961 30.1726 8.36667 34.8549 11.7559 38.2441C15.1451 41.6333 19.8275 43.7304 25 43.7304C30.1726 43.7304 34.8549 41.6333 38.2441 38.2441C41.6333 34.8549 43.7304 30.1726 43.7304 25C43.7304 14.6559 35.3441 6.26961 25 6.26961ZM29.2287 29.2287C28.1466 30.3109 26.6506 30.9804 25 30.9804C21.6975 30.9804 19.0196 28.3025 19.0196 25C19.0196 23.3494 19.6891 21.8534 20.7713 20.7713C21.8534 19.6891 23.3494 19.0196 25 19.0196C26.6506 19.0196 28.1466 19.6891 29.2287 20.7713C30.3109 21.8534 30.9804 23.3494 30.9804 25C30.9804 26.6506 30.3109 28.1466 29.2287 29.2287Z" fill="url(#paint4_linear_308_22)"/>
<path d="M50 25C50 18.0961 47.202 11.8471 42.6775 7.32255C40.7284 5.37318 38.4712 3.75864 35.9967 2.54392L35.5181 2.63245C35.3337 2.66656 35.1671 2.76417 35.0471 2.90834C34.9272 3.0525 34.8615 3.23412 34.8615 3.42167V13.6789C33.6678 13.4253 32.2669 13.6975 31.0554 14.5318C28.9692 15.9683 28.2362 18.5243 29.418 20.2407C29.5896 20.4891 29.7959 20.7117 30.0308 20.9014L46.6452 37.5158C48.7783 33.8349 50 29.5606 50 25Z" fill="url(#paint5_linear_308_22)"/>
<path d="M42.6774 42.6775C43.4448 41.9093 44.1615 41.0923 44.8232 40.2316C41.5345 36.9218 15.117 10.328 15.0815 10.2879C14.994 10.1883 14.8821 10.1131 14.7568 10.0698C14.6315 10.0265 14.4971 10.0165 14.3668 10.0408L8.81823 11.0666C8.67234 11.0936 8.54052 11.1709 8.44569 11.285C8.35085 11.3992 8.29899 11.5429 8.29912 11.6913V19.8098C7.35392 19.6096 6.2451 19.8245 5.28588 20.4849C3.63529 21.6225 3.0549 23.6456 3.99 25.0035L28.7143 49.725C34.1311 48.9181 38.9802 46.3747 42.6774 42.6775Z" fill="url(#paint6_linear_308_22)"/>
<path d="M34.4941 15.5059C32.0647 13.0755 28.7078 11.5725 25 11.5725C21.2922 11.5725 17.9353 13.0755 15.5059 15.5059C13.0755 17.9353 11.5725 21.2922 11.5725 25C11.5725 32.4157 17.5843 38.4275 25 38.4275C28.7078 38.4275 32.0647 36.9245 34.4941 34.4941C36.9245 32.0647 38.4275 28.7078 38.4275 25C38.4275 21.2922 36.9245 17.9353 34.4941 15.5059ZM28.2582 28.2582C27.4244 29.092 26.2718 29.6078 25 29.6078C22.4555 29.6078 20.3922 27.5445 20.3922 25C20.3922 23.7282 20.908 22.5756 21.7418 21.7418C22.5755 20.9079 23.7282 20.3922 25 20.3922C26.2718 20.3922 27.4244 20.908 28.2582 21.7418C29.092 22.5756 29.6078 23.7282 29.6078 25C29.6078 26.2718 29.092 27.4244 28.2582 28.2582Z" fill="url(#paint7_linear_308_22)"/>
<path d="M25.9475 29.5098C25.6416 29.5738 25.3247 29.6078 25 29.6078C24.6751 29.6078 24.3582 29.5738 24.0524 29.5098H12.3497C14.2027 34.707 19.1666 38.4275 25 38.4275C28.7078 38.4275 32.0647 36.9245 34.4941 34.4941C35.8874 33.1014 36.975 31.4035 37.6503 29.5098H25.9475Z" fill="url(#paint8_linear_308_22)"/>
<path d="M36.53 31.8835L29.6057 24.9128C29.6063 24.942 29.6079 24.9708 29.6079 25.0001C29.6079 26.2719 29.0921 27.4245 28.2583 28.2583C27.4246 29.0922 26.2718 29.6078 25 29.6078C22.4555 29.6078 20.3922 27.5445 20.3922 25C20.3922 23.7282 20.908 22.5756 21.7418 21.7418C22.5756 20.9079 23.7282 20.3922 25 20.3922C25.0397 20.3922 25.0788 20.3941 25.1182 20.3952C22.8102 18.0716 20.5022 15.7478 18.1944 13.4239C17.2139 14.0016 16.3106 14.7012 15.5059 15.5059C13.0755 17.9353 11.5725 21.2922 11.5725 25C11.5725 32.4157 17.5843 38.4275 25 38.4275C28.7078 38.4275 32.0647 36.9245 34.4941 34.4941C35.2774 33.7109 35.9612 32.8341 36.53 31.8835Z" fill="url(#paint9_linear_308_22)"/>
<path d="M38.4275 25C38.4275 21.2922 36.9245 17.9353 34.4941 15.5059C33.872 14.8838 33.1906 14.324 32.4595 13.8346C31.9789 13.9913 31.5042 14.2226 31.0555 14.5317C28.9693 15.9682 28.2363 18.5242 29.4181 20.2406C29.5897 20.489 29.796 20.7116 30.0309 20.9013L37.8923 28.7626C38.2481 27.5401 38.4283 26.2732 38.4275 25Z" fill="url(#paint10_linear_308_22)"/>
<path d="M42.2059 17.7451L49.9937 25.5329C49.9975 25.3557 50 25.1781 50 25C50 21.5576 49.3041 18.2782 48.0457 15.2941H44.6569C43.3032 15.2941 42.2059 16.3915 42.2059 17.7451Z" fill="url(#paint11_linear_308_22)"/>
<path d="M34.7635 3.32373V13.581C33.5699 13.3274 32.1689 13.5996 30.9575 14.4338C28.8713 15.8704 28.1382 18.4264 29.3201 20.1428C30.5021 21.8591 33.1514 22.0859 35.2376 20.6492C36.6905 19.6486 37.4861 18.1053 37.4365 16.6806H37.4397V7.07442C37.4397 6.96763 37.4771 6.86422 37.5454 6.78214C37.6137 6.70005 37.7086 6.64449 37.8136 6.62511L46.7838 4.96628C46.8498 4.95408 46.9176 4.95654 46.9824 4.97349C47.0473 4.99043 47.1077 5.02144 47.1592 5.06433C47.2108 5.10721 47.2522 5.16091 47.2807 5.22161C47.3092 5.28232 47.3239 5.34855 47.3239 5.4156V10.7634C46.1303 10.5098 44.7293 10.7821 43.5178 11.6163C41.4317 13.0529 40.6986 15.6088 41.8805 17.3252C43.0625 19.0416 45.7118 19.2683 47.7979 17.8317C49.2509 16.8311 50.0465 15.2878 49.9969 13.863H50V0.803048C50 0.301382 49.5448 -0.0773438 49.0515 0.0138326L35.4201 2.53452C35.2357 2.56863 35.0691 2.66624 34.9491 2.81041C34.8292 2.95458 34.7635 3.1362 34.7635 3.32373Z" fill="url(#paint12_linear_308_22)"/>
<path d="M34.7634 13.5808C33.5698 13.3272 32.1688 13.5994 30.9574 14.4336C28.8712 15.8702 28.1381 18.4262 29.32 20.1425C30.5019 21.8589 33.1512 22.0856 35.2375 20.649C36.6904 19.6484 37.486 18.1051 37.4364 16.6804H37.4396V9.70274H34.7634V13.5808Z" fill="url(#paint13_linear_308_22)"/>
<path d="M50 9.70274H47.3238V10.7632C46.1302 10.5096 44.7292 10.7819 43.5177 11.6162C41.4316 13.0527 40.6985 15.6087 41.8804 17.3251C43.0624 19.0415 45.7116 19.2682 47.7978 17.8316C49.2508 16.831 50.0464 15.2876 49.9968 13.8629H50V9.70274Z" fill="url(#paint14_linear_308_22)"/>
<path d="M3.90912 38.4275C8.34814 45.3853 16.1351 50 25 50C31.9039 50 38.1529 47.202 42.6775 42.6775C43.966 41.3888 45.1106 39.9638 46.0908 38.4275H3.90912Z" fill="url(#paint15_linear_308_22)"/>
<path d="M15.1758 10.6974C15.1758 12.2418 14.0738 13.5663 12.5551 13.8472L10.6152 14.206C10.532 14.2214 10.4568 14.2655 10.4026 14.3305C10.3485 14.3956 10.3188 14.4775 10.3187 14.5622V22.1654H10.3164C10.356 23.2929 9.72588 24.5143 8.57578 25.3067C6.92441 26.4435 4.82774 26.2642 3.89186 24.9055C2.95676 23.5475 3.53725 21.5245 5.18774 20.3869C6.14686 19.7265 7.25578 19.5116 8.20098 19.7118V11.5932C8.20086 11.4449 8.25271 11.3011 8.34755 11.187C8.44238 11.0729 8.5742 10.9956 8.7201 10.9685L14.2686 9.94274C14.7405 9.85559 15.1758 10.2176 15.1758 10.6974Z" fill="url(#paint16_linear_308_22)"/>
<path d="M8.20078 19.7121C7.25598 19.5114 6.14716 19.7268 5.18823 20.3872C3.53696 21.5242 2.95676 23.5474 3.89225 24.9059C4.82774 26.2644 6.9247 26.4438 8.57598 25.3068C9.72598 24.5148 10.3557 23.2931 10.3165 22.1656H10.319V16.6426H8.20078V19.7121Z" fill="url(#paint17_linear_308_22)"/>
</g>
<defs>
<linearGradient id="paint0_linear_308_22" x1="10.1838" y1="10.1839" x2="39.4783" y2="39.4784" gradientUnits="userSpaceOnUse">
<stop stop-color="#5A5A5A"/>
<stop offset="1" stop-color="#464646"/>
</linearGradient>
<linearGradient id="paint1_linear_308_22" x1="39.4787" y1="39.4791" x2="4.09706" y2="4.09735" gradientUnits="userSpaceOnUse">
<stop stop-color="#464646" stop-opacity="0"/>
<stop offset="1" stop-color="#202020"/>
</linearGradient>
<linearGradient id="paint2_linear_308_22" x1="32.3035" y1="32.3039" x2="45.1185" y2="45.1189" gradientUnits="userSpaceOnUse">
<stop stop-color="#464646" stop-opacity="0"/>
<stop offset="1" stop-color="#202020"/>
</linearGradient>
<linearGradient id="paint3_linear_308_22" x1="21.7519" y1="21.7521" x2="51.7884" y2="51.7885" gradientUnits="userSpaceOnUse">
<stop stop-color="#464646" stop-opacity="0"/>
<stop offset="1" stop-color="#202020"/>
</linearGradient>
<linearGradient id="paint4_linear_308_22" x1="26.3654" y1="26.3653" x2="10.25" y2="10.2498" gradientUnits="userSpaceOnUse">
<stop stop-color="#464646" stop-opacity="0"/>
<stop offset="1" stop-color="#202020"/>
</linearGradient>
<linearGradient id="paint5_linear_308_22" x1="52.8708" y1="22.0007" x2="33.7205" y2="18.7327" gradientUnits="userSpaceOnUse">
<stop stop-color="#464646" stop-opacity="0"/>
<stop offset="0.177" stop-color="#3D3D3D" stop-opacity="0.177"/>
<stop offset="0.674" stop-color="#282828" stop-opacity="0.674"/>
<stop offset="1" stop-color="#202020"/>
</linearGradient>
<linearGradient id="paint6_linear_308_22" x1="19.3628" y1="28.9073" x2="6.66676" y2="23.6131" gradientUnits="userSpaceOnUse">
<stop stop-color="#464646" stop-opacity="0"/>
<stop offset="1" stop-color="#202020"/>
</linearGradient>
<linearGradient id="paint7_linear_308_22" x1="15.2939" y1="15.2944" x2="35.5419" y2="35.5424" gradientUnits="userSpaceOnUse">
<stop stop-color="#BCE097"/>
<stop offset="1" stop-color="#7DC03A"/>
</linearGradient>
<linearGradient id="paint8_linear_308_22" x1="25" y1="30.7843" x2="25" y2="38.3435" gradientUnits="userSpaceOnUse">
<stop stop-color="#8CC951" stop-opacity="0"/>
<stop offset="1" stop-color="#3E6E66"/>
</linearGradient>
<linearGradient id="paint9_linear_308_22" x1="20.9268" y1="26.3382" x2="8.86794" y2="20.5539" gradientUnits="userSpaceOnUse">
<stop stop-color="#8CC951" stop-opacity="0"/>
<stop offset="1" stop-color="#3E6E66"/>
</linearGradient>
<linearGradient id="paint10_linear_308_22" x1="42.8076" y1="28.7611" x2="33.063" y2="19.0166" gradientUnits="userSpaceOnUse">
<stop stop-color="#8CC951" stop-opacity="0"/>
<stop offset="1" stop-color="#3E6E66"/>
</linearGradient>
<linearGradient id="paint11_linear_308_22" x1="51.7419" y1="23.1357" x2="44.6325" y2="16.0263" gradientUnits="userSpaceOnUse">
<stop stop-color="#464646" stop-opacity="0"/>
<stop offset="0.177" stop-color="#3D3D3D" stop-opacity="0.177"/>
<stop offset="0.674" stop-color="#282828" stop-opacity="0.674"/>
<stop offset="1" stop-color="#202020"/>
</linearGradient>
<linearGradient id="paint12_linear_308_22" x1="31.3012" y1="1.98472" x2="52.0997" y2="22.7832" gradientUnits="userSpaceOnUse">
<stop stop-color="#BCE097"/>
<stop offset="1" stop-color="#7DC03A"/>
</linearGradient>
<linearGradient id="paint13_linear_308_22" x1="32.4453" y1="13.5753" x2="36.722" y2="19.7405" gradientUnits="userSpaceOnUse">
<stop stop-color="#8CC951" stop-opacity="0"/>
<stop offset="1" stop-color="#3E6E66"/>
</linearGradient>
<linearGradient id="paint14_linear_308_22" x1="44.5081" y1="11.4135" x2="48.6737" y2="17.5231" gradientUnits="userSpaceOnUse">
<stop stop-color="#8CC951" stop-opacity="0"/>
<stop offset="1" stop-color="#3E6E66"/>
</linearGradient>
<linearGradient id="paint15_linear_308_22" x1="25" y1="39.4118" x2="25" y2="51.7837" gradientUnits="userSpaceOnUse">
<stop stop-color="#464646" stop-opacity="0"/>
<stop offset="1" stop-color="#202020"/>
</linearGradient>
<linearGradient id="paint16_linear_308_22" x1="4.54314" y1="12.681" x2="15.2785" y2="23.4164" gradientUnits="userSpaceOnUse">
<stop stop-color="#BCE097"/>
<stop offset="1" stop-color="#7DC03A"/>
</linearGradient>
<linearGradient id="paint17_linear_308_22" x1="6.36588" y1="19.7077" x2="9.75098" y2="24.5875" gradientUnits="userSpaceOnUse">
<stop stop-color="#8CC951" stop-opacity="0"/>
<stop offset="1" stop-color="#3E6E66"/>
</linearGradient>
<clipPath id="clip0_308_22">
<rect width="50" height="50" fill="white"/>
</clipPath>
</defs>
</svg>
