<svg width="50" height="50" viewBox="0 0 50 50" fill="none" xmlns="http://www.w3.org/2000/svg">
<g clip-path="url(#clip0_310_5)">
<path d="M25.874 9.93903C16.6989 9.93903 8.48043 14.1093 3.01126 20.6527L0 18.14C0.648452 17.3641 1.33103 16.6173 2.04573 15.902C5.13991 12.8078 8.74357 10.3783 12.7565 8.68096C16.9123 6.92328 21.3256 6.03198 25.874 6.03198V9.93903ZM25.874 25.5672V21.6602C20.3087 21.6602 15.3238 24.1897 12.0064 28.1586L15.0049 30.6606C17.6049 27.5498 21.5121 25.5672 25.874 25.5672ZM25.874 13.8461C18.9601 13.8461 12.46 16.5384 7.57117 21.4274C7.02228 21.977 6.49793 22.5505 5.99966 23.1464L9.00798 25.6567C13.0427 20.8295 19.1054 17.7531 25.8739 17.7531V13.8461H25.874ZM50 13.6085L48.894 14.141C48.6794 14.2444 43.9088 16.4988 36.13 16.8328V39.7302C36.13 45.3854 31.5292 49.9862 25.874 49.9862C20.2189 49.9862 15.618 45.3854 15.618 39.7302C15.618 34.0751 20.2189 29.4742 25.874 29.4742C28.2694 29.4742 30.4754 30.2999 32.2229 31.6813V3.98079H34.1765C40.8837 3.98079 47.1966 1.24371 47.2596 1.21597L49.9983 0.0136719L50 13.6085ZM32.2229 39.7302C32.2229 36.2294 29.3748 33.3813 25.874 33.3813C22.3732 33.3813 19.5251 36.2294 19.5251 39.7302C19.5251 43.231 22.3732 46.0792 25.874 46.0792C29.3748 46.0792 32.2229 43.231 32.2229 39.7302ZM46.093 5.81661C43.7429 6.59372 40.1174 7.56843 36.13 7.82405V12.9213C40.9204 12.6926 44.4166 11.6624 46.093 11.0602V5.81661Z" fill="url(#paint0_linear_310_5)"/>
</g>
<defs>
<linearGradient id="paint0_linear_310_5" x1="25" y1="0.0137696" x2="25" y2="49.9862" gradientUnits="userSpaceOnUse">
<stop stop-color="#8DF49B"/>
<stop offset="1" stop-color="#589CF9"/>
</linearGradient>
<clipPath id="clip0_310_5">
<rect width="50" height="50" fill="white"/>
</clipPath>
</defs>
</svg>
