<svg width="50" height="50" viewBox="0 0 50 50" fill="none" xmlns="http://www.w3.org/2000/svg">
<g clip-path="url(#clip0_35_107)">
<path d="M25 50C38.8071 50 50 38.8071 50 25C50 11.1929 38.8071 0 25 0C11.1929 0 0 11.1929 0 25C0 38.8071 11.1929 50 25 50Z" fill="#12C64B"/>
<path d="M34.0313 34.2415C33.8332 34.5799 33.509 34.8259 33.1298 34.9255C32.7506 35.0251 32.3473 34.9702 32.0085 34.7727C28.1193 32.5 23.6279 32.1364 20.5426 32.2159C18.5385 32.2672 16.5455 32.53 14.5966 33C14.2338 33.0642 13.86 32.9908 13.5485 32.7941C13.2369 32.5974 13.0099 32.2915 12.9119 31.9363C12.8138 31.5811 12.8518 31.2022 13.0184 30.8735C13.1849 30.5448 13.4681 30.2901 13.8125 30.1591C15.9596 29.6254 18.1578 29.3244 20.3693 29.2614C22.4858 29.1832 24.6044 29.3366 26.6875 29.7188C29.0857 30.1528 31.3918 30.9946 33.5057 32.2074C33.6746 32.3056 33.8223 32.4364 33.9403 32.5922C34.0583 32.7479 34.1442 32.9255 34.1931 33.1147C34.242 33.3039 34.2529 33.5009 34.2251 33.6943C34.1973 33.8877 34.1314 34.0737 34.0313 34.2415ZM36.7813 28.5284C36.6271 28.7932 36.4061 29.0128 36.1403 29.1654C35.8746 29.318 35.5735 29.3981 35.2671 29.3977C34.9562 29.3982 34.651 29.3148 34.3835 29.1562C29.7784 26.4659 24.4602 26.0312 20.804 26.1449C18.4302 26.2049 16.0695 26.5163 13.7614 27.0739C13.3199 27.1778 12.8552 27.1065 12.4652 26.875C12.0751 26.6435 11.7899 26.2698 11.6697 25.8325C11.5494 25.3951 11.6033 24.9282 11.8202 24.5297C12.037 24.1313 12.3998 23.8325 12.8324 23.696C15.3759 23.0666 17.9801 22.7141 20.5995 22.6449C23.1071 22.5484 25.6177 22.7303 28.0852 23.1875C30.9234 23.702 33.6524 24.6994 36.1534 26.1364C36.5531 26.3711 36.8435 26.7545 36.9611 27.2028C37.0788 27.6511 37.0141 28.1277 36.7813 28.5284ZM40.3409 22.2699C40.1988 22.5139 40.0099 22.7275 39.7851 22.8984C39.5602 23.0692 39.3039 23.194 39.0307 23.2655C38.7575 23.3371 38.4728 23.3539 38.1931 23.3152C37.9134 23.2765 37.6441 23.1829 37.4006 23.0398C26.4517 16.642 12.25 20.446 12.1165 20.483C11.8405 20.5704 11.5497 20.6012 11.2615 20.5735C10.9733 20.5458 10.6937 20.4602 10.4394 20.3219C10.1851 20.1836 9.96133 19.9953 9.78154 19.7684C9.60174 19.5415 9.46961 19.2806 9.39306 19.0014C9.31652 18.7222 9.29713 18.4304 9.33607 18.1435C9.37501 17.8567 9.47147 17.5806 9.61966 17.3319C9.76786 17.0832 9.96475 16.867 10.1985 16.6962C10.4323 16.5254 10.6981 16.4036 10.9801 16.3381C14.0925 15.571 17.2785 15.1414 20.483 15.0568C23.5577 14.9422 26.6358 15.1651 29.662 15.7216C33.1421 16.3474 36.4896 17.5638 39.5597 19.3182C39.8056 19.4599 40.0211 19.6489 40.1936 19.8743C40.3662 20.0996 40.4924 20.3569 40.565 20.6313C40.6377 20.9057 40.6553 21.1918 40.6168 21.473C40.5783 21.7542 40.4846 22.0251 40.3409 22.2699Z" fill="white"/>
</g>
<defs>
<clipPath id="clip0_35_107">
<rect width="50" height="50" fill="white"/>
</clipPath>
</defs>
</svg>
