<svg viewBox="0 0 50 50" xmlns="http://www.w3.org/2000/svg" xmlns:xlink="http://www.w3.org/1999/xlink" width="50.000000" height="50.000000" fill="none" customFrame="#000000">
	<g id="stepik">
		<path id="Форма 9" d="M45.1866 13.1632L36.9709 4.9049C33.7647 1.75175 29.5566 0 25.048 0C20.5394 0 16.3313 1.75175 13.1752 4.9049L4.95951 13.1632C1.75336 16.3163 7.16629e-07 20.5205 7.16629e-07 25.025C7.16629e-07 29.5295 1.75336 33.7337 4.90941 36.8869L13.1252 45.0951C16.2812 48.2482 20.5394 50 24.9979 50C29.3563 50 33.5142 48.3483 36.6703 45.2953L45.0864 36.8869C48.2425 33.7337 49.9958 29.4795 49.9958 25.025C50.096 20.5205 48.3927 16.3163 45.1866 13.1632Z" fill="rgb(255,255,255)" fill-rule="nonzero" />
		<path id="Форма 10" d="M31.1096 39.4895C29.5566 40.991 27.4025 41.9419 25.0981 41.9419C22.6935 41.9419 20.5394 40.991 18.9363 39.3894L22.9941 35.3353C23.5451 35.8859 24.2465 36.1862 25.0981 36.1862C25.8996 36.1862 26.6511 35.8358 27.2021 35.3353L35.4179 27.1271C35.9689 26.5766 36.2695 25.8759 36.2695 25.025C36.2695 24.2242 35.9188 23.4735 35.4179 22.9229C34.8668 22.3724 34.1655 22.0721 33.3138 22.0721C32.4622 22.0721 31.7609 22.4224 31.2098 22.9229L22.9941 31.1812C21.4411 32.7327 19.2369 33.7337 16.8323 33.7337C14.4277 33.7337 12.2735 32.7327 10.6705 31.1812C9.11747 29.6296 8.11555 27.4274 8.11555 25.025C8.11555 22.6226 9.06738 20.4705 10.6705 18.8689L18.8862 10.6607C20.4392 9.10911 22.6434 8.10811 25.048 8.10811C27.4526 8.10811 29.6067 9.05906 31.2098 10.6607L27.152 14.7147C26.601 14.1642 25.8996 13.8639 25.048 13.8639C24.1964 13.8639 23.495 14.2142 22.944 14.7147L14.7282 22.9229C14.1772 23.4735 13.8766 24.1742 13.8766 25.025C13.8766 25.8258 14.2273 26.5766 14.7282 27.1271C15.2793 27.6777 15.9806 27.978 16.8323 27.978C17.6338 27.978 18.3852 27.6276 18.9363 27.1271L27.152 18.9189C28.705 17.3674 30.9092 16.3664 33.3138 16.3664C35.7185 16.3664 37.8726 17.3173 39.4757 18.9189C41.0286 20.4705 42.0306 22.6727 42.0306 25.0751C42.0306 27.4775 41.0787 29.6296 39.4757 31.2312L31.1096 39.4895Z" fill="rgb(34,34,34)" fill-rule="nonzero" />
	</g>
</svg>
