<svg width="50" height="50" viewBox="0 0 50 50" fill="none" xmlns="http://www.w3.org/2000/svg">
<path d="M48.7501 0H1.24992C0.918481 0 0.600544 0.122508 0.366112 0.340569C0.131696 0.558645 0 0.8544 0 1.16279V16.279C0 16.5875 0.131696 16.8833 0.366112 17.1013C0.600544 17.3194 0.918481 17.4419 1.24992 17.4419H48.7501C49.0816 17.4419 49.3995 17.3194 49.6339 17.1013C49.8683 16.8833 50 16.5875 50 16.279V1.16279C50 0.8544 49.8683 0.558645 49.6339 0.340569C49.3995 0.122508 49.0816 0 48.7501 0Z" fill="#7B7979"/>
<path d="M2.5 2.32558H47.5V15.1163H2.5V2.32558Z" fill="#918F90"/>
<path d="M22.5 19.7674H1.24992C0.918481 19.7674 0.600544 19.8899 0.366112 20.108C0.131696 20.326 0 20.6218 0 20.9302V48.8371C0 49.1457 0.131696 49.4414 0.366112 49.6595C0.600544 49.8775 0.918481 50 1.24992 50H22.5C22.8315 50 23.1494 49.8775 23.3838 49.6595C23.6182 49.4414 23.7501 49.1457 23.7501 48.8371V20.9302C23.7501 20.6218 23.6182 20.326 23.3838 20.108C23.1494 19.8899 22.8315 19.7674 22.5 19.7674Z" fill="#41CDE0"/>
<path d="M2.5 22.093H21.2499V47.6744H2.5V22.093Z" fill="#7BE1E8"/>
<path d="M48.7501 19.7674H27.5C27.1685 19.7674 26.8506 19.8899 26.6162 20.108C26.3818 20.326 26.2499 20.6218 26.2499 20.9302V32.5582C26.2499 32.8666 26.3818 33.1623 26.6162 33.3804C26.8506 33.5984 27.1685 33.7209 27.5 33.7209H48.7501C49.0816 33.7209 49.3995 33.5984 49.6339 33.3804C49.8683 33.1623 50 32.8666 50 32.5582V20.9302C50 20.6218 49.8683 20.326 49.6339 20.108C49.3995 19.8899 49.0816 19.7674 48.7501 19.7674Z" fill="#F7A840"/>
<path d="M28.7501 22.093H47.5V31.3953H28.7501V22.093Z" fill="#FFCD78"/>
<path d="M48.7501 36.0465H27.5C27.1685 36.0465 26.8506 36.169 26.6162 36.3871C26.3818 36.6051 26.2499 36.9008 26.2499 37.2094V48.8371C26.2499 49.1457 26.3818 49.4414 26.6162 49.6595C26.8506 49.8775 27.1685 50 27.5 50H48.7501C49.0816 50 49.3995 49.8775 49.6339 49.6595C49.8683 49.4414 50 49.1457 50 48.8371V37.2094C50 36.9008 49.8683 36.6051 49.6339 36.3871C49.3995 36.169 49.0816 36.0465 48.7501 36.0465Z" fill="#DE6B5D"/>
<path d="M28.7501 38.3721H47.5V47.6744H28.7501V38.3721Z" fill="#FF8C78"/>
</svg>
