<svg width="50" height="50" viewBox="0 0 50 50" fill="none" xmlns="http://www.w3.org/2000/svg">
<path d="M0.000126531 34.7995C0.000126531 36.0995 1.09965 37.3994 2.599 37.3994H12.5997V47.4001C12.5997 48.7001 13.6992 50 15.1986 50H23.7492V26.2499H0L0.000126531 34.7995ZM31.6992 0.000312493C21.2494 0.000312493 12.9009 8.29981 12.9009 18.5483V22.4995H23.3988V18.5483C23.3988 14.0997 27.0492 10.5001 31.6989 10.5001C36.2983 10.5001 39.4992 13.6988 39.4992 18.4483C39.4992 23.1495 36.0487 26.5991 31.4471 26.5991H27.4981V37.096H31.4471C41.6996 37.096 50 28.749 50 18.4468C50 7.74983 42.2503 0 31.6989 0" fill="#4ACBD6"/>
</svg>
