<svg width="50.000000" height="50.000000" viewBox="0 0 50 50" fill="none" xmlns="http://www.w3.org/2000/svg" xmlns:xlink="http://www.w3.org/1999/xlink">
	<desc>
			Created with Pixso.
	</desc>
	<defs/>
	<path id="polygon" d="M45.83 23.21L37.5 30.35L29.16 30.35L21.87 36.6L21.87 30.35L12.5 30.35L12.5 3.57L45.83 3.57L45.83 23.21Z" fill="#FFFFFF" fill-opacity="1.000000" fill-rule="nonzero"/>
	<path id="path" d="M10.41 0L0 8.92L0 41.07L12.5 41.07L12.5 50L22.91 41.07L31.25 41.07L50 25L50 0L10.41 0ZM45.83 23.21L37.5 30.35L29.16 30.35L21.87 36.6L21.87 30.35L12.5 30.35L12.5 3.57L45.83 3.57L45.83 23.21Z" fill="#9146FF" fill-opacity="1.000000" fill-rule="nonzero"/>
	<rect id="rect" x="35.416687" y="9.821533" width="4.166667" height="10.714286" fill="#9146FF" fill-opacity="1.000000"/>
	<rect id="rect" x="23.958313" y="9.821533" width="4.166667" height="10.714286" fill="#9146FF" fill-opacity="1.000000"/>
</svg>
