<svg width="50" height="50" viewBox="0 0 50 50" fill="none" xmlns="http://www.w3.org/2000/svg">
<path d="M12.4998 49.5087L21.8747 40.1335L9.86547 28.1246L0.490577 37.4999L12.4998 49.5087Z" fill="#B0C1D4"/>
<path d="M12.5 49.0181L0.98195 37.5L9.86598 28.616L21.384 40.134L12.5 49.0181ZM12.5 50L22.366 40.134L9.86598 27.634L4.45596e-06 37.5L12.5 50Z" fill="#66798F"/>
<path d="M11.6347 41.3222L13.1972 39.7597L14.7597 41.3222L13.1972 42.8847L11.6347 41.3222ZM8.67778 38.3653L10.2403 36.8028L8.67778 35.2403L7.11528 36.8028L8.67778 38.3653Z" fill="#66798F"/>
<path d="M36.7417 0.347226C40.1903 0.347226 43.4326 1.69028 45.8708 4.12848C48.3097 6.56736 49.6528 9.80972 49.6528 13.2583C49.6528 16.7069 48.3097 19.9493 45.8715 22.3875L25 43.259L6.74098 25L27.6125 4.12848C30.0507 1.69028 33.2931 0.347226 36.7417 0.347226Z" fill="#8BB7F0"/>
<path d="M25 42.7681L7.23195 25L27.8576 4.37431C30.2306 2.00139 33.3861 0.694446 36.7417 0.694446C40.0972 0.694446 43.2528 2.00139 45.6257 4.37431C47.9986 6.74723 49.3056 9.90208 49.3056 13.2583C49.3056 16.6146 47.9986 19.7694 45.6257 22.1424L25 42.7681ZM25 43.75L46.1167 22.6333C51.2944 17.4556 51.2944 9.06111 46.1167 3.88334C43.5278 1.29445 40.1347 1.66893e-06 36.7417 1.66893e-06C33.3486 1.66893e-06 29.9556 1.29445 27.3667 3.88334L6.25001 25L25 43.75Z" fill="#4E7AB5"/>
<path d="M35.9375 18.0556C33.7354 18.0556 31.9444 16.2646 31.9444 14.0625C31.9444 11.8604 33.7354 10.0694 35.9375 10.0694C38.1396 10.0694 39.9306 11.8604 39.9306 14.0625C39.9306 16.2646 38.1396 18.0556 35.9375 18.0556ZM35.9375 18.75C38.5264 18.75 40.625 16.6514 40.625 14.0625C40.625 11.4736 38.5264 9.375 35.9375 9.375C33.3486 9.375 31.25 11.4736 31.25 14.0625C31.25 16.6514 33.3486 18.75 35.9375 18.75Z" fill="#4E7AB5"/>
</svg>
