<svg width="50" height="50" viewBox="0 0 50 50" fill="none" xmlns="http://www.w3.org/2000/svg">
<path d="M38.8941 38.3334C38.8941 31.889 32.9889 26.6667 25.5784 26.6667C18.1679 26.6667 12.2627 31.889 12.2627 38.3334C12.2627 44.7779 18.1679 50.0001 25.5784 50.0001C32.9889 50.0001 38.8941 44.7779 38.8941 38.3334Z" fill="#47667F"/>
<path d="M38.3153 37.7778C38.3153 31.8889 32.6417 27.1111 25.5786 27.1111C18.5155 27.1111 12.8418 31.8889 12.8418 37.7778C12.8418 43.6666 18.5155 48.4444 25.5786 48.4444C32.6417 48.4444 38.3153 43.6666 38.3153 37.7778Z" fill="#C5CAD5"/>
<path d="M3 10L24.9999 22.2222V46.6667L4.15789 32.2222L3 10Z" fill="#C5CAD5"/>
<path d="M46.9999 10L25 22.2222V46.6667L45.842 32.2222L46.9999 10Z" fill="#6D83B3"/>
<path d="M25.5786 48.4446C25.9259 48.4446 26.1575 48.4446 26.5049 48.4446L37.8522 40.5557C38.0838 39.6668 38.3153 38.7779 38.3153 37.889C38.3153 37.7779 38.3153 37.6668 38.3153 37.5557L24.9996 46.6668L12.8418 38.2223C12.9576 39.3334 13.1892 40.4446 13.6523 41.5557L23.2628 48.2223C24.0733 48.3334 24.7681 48.4446 25.5786 48.4446Z" fill="#5A6E91"/>
<path d="M3 10L24.9999 22.2222L46.9998 10L24.9999 0L3 10Z" fill="#EAF4F8"/>
<path d="M10.6424 9.88881L25.0003 17.7777L39.3581 9.88881L25.0003 3.33325L10.6424 9.88881ZM43.5265 29.9999L44.2212 15.6666L28.4739 24.4444V40.4444L43.5265 29.9999ZM6.47403 29.9999L5.7793 15.6666L21.5266 24.4444V40.4444L6.47403 29.9999Z" fill="#34495E"/>
<path d="M31.5997 17.1112L28.0103 14.889L29.9787 10.6668L24.6524 12.4446L26.6208 8.33344L17.7051 11.1112L21.1787 6.55566L18.9788 5.44455L19.4419 4.55566L22.9156 6.11122L20.7156 9.00011L28.5892 6.44455L26.8524 10.5557L32.1787 8.77789L29.5155 14.4446L32.2945 16.2223L31.5997 17.1112Z" fill="#EAF4F8"/>
<path d="M30.5585 29.3334C30.6743 29.889 29.9796 32.4445 29.9796 32.7779C29.9796 33.1112 29.748 33.3334 29.4007 33.4445C29.2849 32.4445 29.1691 31.5556 29.0533 30.5556C29.0533 30.3334 29.2849 30.2223 29.5164 30.1112C29.6322 30.889 29.6322 31.6667 29.748 32.4445C29.748 32.4445 30.0954 30.7779 30.2112 29.889C30.2112 29.6667 30.327 29.4445 30.5585 29.3334ZM42.1374 23.7779C42.0216 24.1112 42.0216 24.6667 41.5585 24.889C41.5585 24.5556 41.6743 24.3334 41.7901 24.1112C42.0217 23.6667 42.0217 23.1112 41.7901 22.6667C41.6743 22.4445 41.9059 22.3334 42.0217 22.2223C42.2532 22.1112 42.1374 22.4445 42.369 22.4445C42.6006 22.2223 42.4848 21.7779 42.8322 21.6667C42.948 21.7779 42.8322 21.889 42.7164 22.0001C42.4848 22.5556 42.369 23.1112 42.7164 23.6667C42.8322 23.889 42.7164 24.0001 42.4848 24.1112C42.4848 24.1112 42.369 24.2223 42.2532 24.0001C42.1374 24.0001 42.1374 23.889 42.1374 23.7779ZM30.7901 32.2223C30.7901 31.5556 30.9059 30.889 30.9059 30.2223C30.9059 30.0001 31.0217 29.7779 31.2533 29.7779C31.2533 30.5556 31.1375 31.3334 31.1375 32.1112C31.1375 32.3334 31.0217 32.3334 30.9059 32.4445C30.7901 32.4445 30.7901 32.2223 30.7901 32.2223ZM31.3691 28.6667C31.6007 28.7779 31.3691 29.1112 31.3691 29.2223C31.3691 29.3334 31.2533 29.4445 31.1375 29.4445C31.0217 29.4445 31.0217 29.3334 31.0217 29.2223C30.9059 29.1112 31.1375 28.5556 31.3691 28.6667ZM20.1375 31.889C19.6744 31.5556 19.327 31.3334 18.7481 31.0001C18.8639 31.4445 18.9797 31.7779 19.327 32.0001C19.6744 32.2223 19.906 32.4445 20.2533 32.6667C20.3691 32.7779 20.4849 32.7779 20.3691 33.0001C20.2533 33.2223 20.1376 33.1112 20.0218 33.0001C18.9797 32.4445 18.4007 31.6667 18.2849 30.5556C18.2849 30.4445 18.2849 30.3334 18.2849 30.2223C18.2849 30.0001 18.2849 29.6667 18.6323 29.5556C18.8639 29.4445 19.0955 29.6667 19.2112 29.7779C19.4428 30.0001 19.7902 30.1112 20.0218 30.3334C20.1376 30.4445 20.2533 30.5556 20.1375 30.6667C20.0218 30.889 19.906 30.6667 19.7902 30.6667C19.5586 30.5556 19.4428 30.4445 19.2112 30.3334C19.0955 30.2223 18.7481 30.0001 18.7481 30.3334C18.7481 30.6667 18.7481 30.6667 18.9797 30.7779C19.327 31.0001 19.6744 31.2223 20.0218 31.5556C20.2533 31.5556 20.2533 31.5556 20.1375 31.889ZM18.4007 31.4445C18.5165 31.5556 18.2849 31.7779 18.1691 31.6667C17.706 31.3334 17.3586 31.1112 16.8955 30.7779C16.6639 30.6667 16.6639 30.4445 16.6639 30.3334C16.5481 29.5556 16.5481 28.7779 16.4323 28.0001C16.4323 27.889 16.4323 27.889 16.5481 27.889C16.6639 28.0001 16.7797 28.1112 16.7797 28.2223C16.7797 28.6667 16.8955 29.1112 16.8955 29.5556C17.0113 30.3334 17.127 30.5556 17.706 30.7779C17.9376 31.0001 18.0533 31.1112 18.4007 31.4445ZM31.7164 31.7779C31.7164 31.0001 31.8322 30.2223 31.8322 29.4445C31.8322 29.2223 31.8322 29.2223 32.1796 29.2223C32.2954 29.2223 32.4112 28.7779 32.6428 28.6667C32.6428 28.889 32.6427 29.1112 32.4112 29.3334C32.1796 29.5556 32.1796 29.7779 32.1796 30.0001C32.1796 30.4445 32.0638 30.7779 32.0638 31.2223C32.1796 31.5556 32.0638 31.6667 31.7164 31.7779ZM38.0848 27.0001C37.969 27.0001 37.8533 27.0001 37.969 26.889C37.969 26.3334 38.0848 24.6667 38.2006 24.3334C38.2006 24.2223 38.3164 24.0001 38.0848 24.0001C37.969 24.0001 37.8532 24.1112 37.8532 24.2223C37.7375 24.5556 37.5059 27.3334 37.7375 27.6667C37.8533 27.7779 38.0848 27.3334 38.0848 27.0001ZM33.8006 27.889C33.8006 27.889 33.5691 28.1112 33.5691 27.889C33.5691 27.6667 33.5691 27.5556 33.5691 27.3334C33.3375 27.3334 33.3375 27.4445 33.3375 27.6667C33.3375 28.0001 33.3375 28.2223 32.9901 28.5556C32.9901 28.5556 32.8743 28.7779 32.9901 28.7779C33.2217 29.2223 33.1059 29.5556 33.1059 30.0001C33.1059 30.2223 32.9901 30.6667 33.2217 30.7779C33.5691 30.889 33.8006 30.1112 33.8006 30.1112C33.5691 30.1112 33.5691 29.7779 33.5691 29.5556C33.5691 29.1112 33.4533 28.6667 33.9164 28.3334C33.9164 28.2223 33.8006 28.1112 33.8006 27.889ZM40.748 23.0001C40.169 23.4445 40.0532 24.2223 40.0532 25.0001C40.0532 25.3334 40.0532 25.889 40.6322 25.6667C41.5585 25.2223 41.4427 24.2223 41.4427 23.3334C41.4427 22.7779 41.2111 22.6667 40.748 23.0001ZM40.6322 25.0001C40.5164 25.0001 40.5164 24.6667 40.5164 24.5556C40.5164 24.1112 40.6322 23.3334 40.9795 23.3334C41.0953 23.3334 41.0953 23.4445 41.0953 23.5556C41.0953 24.0001 40.9796 25.0001 40.6322 25.0001ZM11.9165 27.3334C11.685 27.2223 11.5692 27.1112 11.4534 26.889C11.106 26.3334 10.8744 25.7779 10.5271 25.2223C10.8744 25.4445 11.3376 25.6667 11.4534 25.5556C11.685 25.3334 11.2218 24.889 11.106 24.7779C10.8744 24.6667 10.6429 24.4445 10.2955 24.2223C10.2955 24.5556 10.4113 25.6667 10.4113 26.1112C10.4113 26.2223 10.5271 26.3334 10.2955 26.3334C10.1797 26.3334 10.0639 26.2223 10.0639 26.1112C9.94813 25.6667 9.71655 23.5556 9.83234 23.4445C10.6429 24.0001 11.685 24.4445 11.8008 25.6667C11.8008 26.1112 11.685 26.3334 11.2218 26.3334C11.3376 26.6667 11.5692 26.889 11.685 27.2223C11.9165 27.1112 12.1481 27.2223 11.9165 27.3334ZM16.2007 29.7779C15.8534 29.5556 15.6218 29.3334 15.2744 29.1112C14.8113 28.6667 14.5797 28.1112 14.5797 27.5556C14.5797 27.2223 14.8113 27.1112 15.1586 27.3334C15.3902 27.4445 15.6218 27.6667 15.8534 27.7779C15.9692 27.7779 15.9691 28.0001 16.0849 27.7779C16.2007 27.6667 16.2007 27.5556 15.9692 27.4445C15.6218 27.2223 15.2744 27.0001 14.9271 26.7779C14.6955 26.6667 14.4639 26.5556 14.3481 26.889C14.1165 27.6667 14.3481 28.3334 14.6955 29.0001C15.0428 29.5556 15.506 29.7779 15.9692 30.2223C15.9692 30.2223 16.2007 30.4445 16.3165 30.2223C16.4323 30.0001 16.4323 29.889 16.2007 29.7779Z" fill="#ECF0F1"/>
<path d="M9.59953 23.4444C9.25217 22.7778 7.97849 22.1111 7.97849 22C7.51534 21.6667 7.28376 21.7778 7.16797 22.3333C7.16797 22.7778 7.28376 23.1111 7.39955 23.5556C7.63112 24.4444 8.32586 24.8889 9.02059 25.3333C9.59953 25.6667 9.83111 25.5556 9.83111 25C9.9469 24.4444 9.83111 23.6667 9.59953 23.4444ZM9.48375 24.7778C9.36796 24.8889 9.36796 25 9.13638 24.8889C8.32586 24.6667 7.51533 23.6667 7.51533 22.7778C7.51533 22.6667 7.51533 22.4444 7.63112 22.3333C7.8627 22.2222 7.97849 22.3333 8.09428 22.4444C8.78901 22.8889 9.36796 23.3333 9.48375 24.2222C9.59953 24.5556 9.59953 24.6667 9.48375 24.7778ZM39.8204 24.8889C39.5888 24.5556 39.7046 24.2222 39.8204 23.8889C39.8204 23.7778 40.052 23.1111 39.4731 23.1111C39.1257 23.1111 38.6625 23.5556 38.6625 23.8889C38.5467 24.4444 38.431 27 38.431 27C38.7783 26.7778 39.1257 26.5556 39.3573 26.2222C39.7046 25.8889 39.9362 25.3333 39.8204 24.8889ZM39.3573 25.4444C39.3573 25.7778 39.2415 26 38.8941 26.2222C38.8941 25.8889 38.8941 25.6667 38.8941 25.4444C38.8941 25.2222 39.0099 25.1111 39.2415 25.1111C39.3573 25.1111 39.3573 25.3333 39.3573 25.4444ZM39.3573 24C39.3573 24.2222 39.2415 24.4444 38.8941 24.6667C38.8941 24.3333 38.8941 24.1111 38.8941 23.8889C38.8941 23.7778 39.0099 23.6667 39.1257 23.6667C39.4731 23.7778 39.4731 23.8889 39.3573 24ZM35.4205 26.7778C35.0731 26.7778 35.0731 27.1111 35.0731 27.2222C35.0731 27.2222 34.9573 29 34.9573 29.1111C34.8415 29.2222 34.8415 29.3333 34.7257 29.3333C34.6099 29.3333 34.6099 29.1111 34.6099 29C34.6099 28.5556 34.6099 28.2222 34.7257 27.7778C34.7257 27.6667 34.8415 27.3333 34.6099 27.4444C34.2626 27.4444 34.2626 27.7778 34.2626 28C34.2626 28.5556 34.1468 29 34.1468 29.5556C34.1468 29.8889 34.2626 30.2222 34.6099 30C34.7257 29.8889 34.9573 29.6667 34.9573 29.4444C35.4204 29.5556 35.3047 29.1111 35.4205 28.8889C35.5362 28.3333 35.5362 27.7778 35.5362 27.2222C35.5362 27.1111 35.5362 26.8889 35.4205 26.7778ZM13.6521 26.7778C13.5364 26.4444 13.3048 26 13.189 25.6667C13.189 25.5556 13.0732 25.4444 12.9574 25.4444C12.8416 25.4444 12.8416 25.5556 12.7258 25.6667L12.0311 27.4444C12.0311 27.5556 12.2627 27.7778 12.4943 27.5556C12.61 27.4444 12.8416 26.4444 13.0732 26L13.6521 27.4444C13.3048 27.4444 12.9574 27 12.8416 27.1111C12.61 27.3333 13.3048 27.7778 13.6521 28C13.8837 28.1111 13.9995 28.5556 14.1153 28.6667C14.1153 28.7778 14.3469 29.1111 14.5785 28.8889C14.2311 28.2222 13.9995 27.5556 13.6521 26.7778ZM36.4626 25.8889C35.7678 26.3333 35.7678 26.7778 35.9994 26.7778C36.1152 26.6667 36.1152 26.5556 36.231 26.5556C36.3468 26.4444 36.4626 26.3333 36.5783 26.4444C36.6941 26.5556 36.6941 26.7778 36.5783 26.8889C36.4626 27 36.4626 27 36.3468 27.1111C35.9994 27.4444 35.7678 28 35.7678 28.4444C35.7678 28.5556 35.7678 28.7778 35.8836 28.7778C35.9994 28.7778 36.1152 28.7778 36.231 28.6667C36.3468 28.4444 36.5783 28.2222 36.9257 28.1111C36.9257 27.4444 37.0415 26.8889 37.0415 26C37.0415 25.6667 36.6941 25.7778 36.4626 25.8889ZM36.3468 28.1111C36.231 28.1111 36.231 28.1111 36.231 28.1111C36.231 27.7778 36.3468 27.6667 36.6941 27.4444C36.6941 27.6667 36.5783 27.8889 36.3468 28.1111Z" fill="#ECF0F1"/>
</svg>
