<svg viewBox="0 0 50 50" xmlns="http://www.w3.org/2000/svg" xmlns:xlink="http://www.w3.org/1999/xlink" width="50.000004" height="50.000000" fill="none" customFrame="#000000">
	<defs>
		<linearGradient id="paint_linear_0" x1="-0.414047241" x2="28.8179874" y1="4.01876068" y2="43.6683197" gradientUnits="userSpaceOnUse">
			<stop stop-color="rgb(65,209,255)" offset="0" stop-opacity="1" />
			<stop stop-color="rgb(189,52,254)" offset="1" stop-opacity="1" />
		</linearGradient>
		<linearGradient id="paint_linear_1" x1="23.6673965" x2="28.9553375" y1="0.935822487" y2="37.1649017" gradientUnits="userSpaceOnUse">
			<stop stop-color="rgb(255,234,131)" offset="0" stop-opacity="1" />
			<stop stop-color="rgb(255,221,53)" offset="0.0833332986" stop-opacity="1" />
			<stop stop-color="rgb(255,168,0)" offset="1" stop-opacity="1" />
		</linearGradient>
	</defs>
	<g id="vite">
		<path id="Форма 1" d="M49.8346 7.40041L26.347 49.3474C25.8621 50.2134 24.6162 50.2185 24.124 49.3567L0.170787 7.40445C-0.365452 6.46527 0.438663 5.32766 1.50428 5.51788L25.0169 9.71536C25.1669 9.74213 25.3205 9.74187 25.4705 9.71458L48.4914 5.5239C49.5535 5.33057 50.3614 6.45938 49.8346 7.40041Z" fill="url(#paint_linear_0)" fill-rule="nonzero" />
		<path id="Форма 2" d="M36.2173 0.0123096L18.8358 3.41386C18.5501 3.46976 18.3386 3.71156 18.3214 4.00174L17.2522 22.037C17.227 22.4618 17.6176 22.7915 18.0328 22.6959L22.872 21.5805C23.3248 21.4762 23.7339 21.8745 23.6408 22.3292L22.2031 29.3607C22.1064 29.8339 22.5512 30.2386 23.014 30.0982L26.0029 29.1913C26.4663 29.0508 26.9115 29.4566 26.8135 29.9302L24.5287 40.9751C24.3857 41.666 25.3058 42.0427 25.6895 41.4504L25.9458 41.0548L40.1092 12.8248C40.3464 12.3521 39.9374 11.8132 39.4176 11.9133L34.4364 12.8735C33.9683 12.9636 33.57 12.5283 33.7022 12.0709L36.9533 0.814542C37.0855 0.356373 36.6859 -0.079384 36.2173 0.0123096Z" fill="url(#paint_linear_1)" fill-rule="nonzero" />
	</g>
</svg>
