<svg width="50.000000" height="50.000000" viewBox="0 0 50 50" fill="none" xmlns="http://www.w3.org/2000/svg" xmlns:xlink="http://www.w3.org/1999/xlink">
	<desc>
			Created with Pixso.
	</desc>
	<defs/>
	<mask id="mask6_4" mask-type="alpha" maskUnits="userSpaceOnUse" x="0.000000" y="0.000000" width="50.000000" height="50.000000">
		<path id="path" d="M0 24C0 12.68 0 7.02 3.51 3.51C7.02 0 12.68 0 24 0L26 0C37.31 0 42.97 0 46.48 3.51C50 7.02 50 12.68 50 24L50 26C50 37.31 50 42.97 46.48 46.48C42.97 50 37.31 50 26 50L24 50C12.68 50 7.02 50 3.51 46.48C0 42.97 0 37.31 0 26L0 24Z" fill="#000000" fill-opacity="1.000000" fill-rule="nonzero"/>
	</mask>
	<g mask="url(#mask6_4)">
		<path id="path" d="M0 24C0 12.68 0 7.02 3.51 3.51C7.02 0 12.68 0 24 0L26 0C37.31 0 42.97 0 46.48 3.51C50 7.02 50 12.68 50 24L50 26C50 37.31 50 42.97 46.48 46.48C42.97 50 37.31 50 26 50L24 50C12.68 50 7.02 50 3.51 46.48C0 42.97 0 37.31 0 26L0 24Z" fill="#0077FF" fill-opacity="1.000000" fill-rule="nonzero"/>
		<path id="path" d="M25.2 0L23.13 0C21.66 0 20.29 0 19 0L19 19L50 19C49.94 10.73 49.54 6.26 46.37 3.33C42.73 0 36.89 0 25.2 0Z" fill="#11E605" fill-opacity="1.000000" fill-rule="nonzero"/>
		<path id="path" d="M0 19C0 20.29 0 21.66 0 23.13L0 25.2C0 36.89 0 42.74 3.33 46.37C6.25 49.55 10.73 49.94 19 50L19 19L0 19Z" fill="#F899FF" fill-opacity="1.000000" fill-rule="nonzero"/>
		<path id="path" d="M35.14 30.61L35.14 28L32.58 30.16L32.5 30.23C32.06 30.55 31.58 30.69 31.04 30.62C30.5 30.55 30.07 30.31 29.73 29.88C29.39 29.46 29.24 28.98 29.3 28.44C29.35 27.9 29.58 27.45 30 27.11L35.23 22.7L35.33 22.61C35.87 22.2 36.47 21.99 37.14 21.99C37.81 21.99 38.42 22.2 38.95 22.61L39.06 22.7L44.28 27.11L44.36 27.17C44.75 27.54 44.96 27.98 44.99 28.52C45.02 29.05 44.87 29.52 44.52 29.92C44.18 30.33 43.74 30.56 43.22 30.62C42.69 30.68 42.21 30.55 41.79 30.23L41.71 30.16L39.14 28L39.14 30.61C39.14 36.6 34.34 41.5 28.36 41.5L23 41.5C22.44 41.5 21.97 41.3 21.58 40.91C21.19 40.52 21 40.05 21 39.5C21 38.94 21.19 38.47 21.58 38.08C21.97 37.69 22.44 37.5 23 37.5L28.36 37.5C32.08 37.5 35.14 34.43 35.14 30.61Z" fill="#FFFFFF" fill-opacity="1.000000" fill-rule="nonzero"/>
	</g>
</svg>
