<svg width="50.000000" height="50.000000" viewBox="0 0 50 50" fill="none" xmlns="http://www.w3.org/2000/svg" xmlns:xlink="http://www.w3.org/1999/xlink">
	<desc>
			Created with Pixso.
	</desc>
	<defs>
		<clipPath id="clip77_32">
			<rect id="VK-mailru-notes" width="50.000000" height="50.000000" fill="white" fill-opacity="0"/>
		</clipPath>
	</defs>
	<g opacity="0.000000">
		<rect id="Прямоугольник 15" width="50.000000" height="50.000000" fill="#C4C4C4" fill-opacity="1.000000"/>
	</g>
	<g clip-path="url(#clip77_32)">
		<rect id="rect" width="50.000000" height="50.000000" fill="#000000" fill-opacity="0"/>
		<rect id="Прямоугольник 14" width="50.000000" height="50.000000" fill="#0077FF" fill-opacity="1.000000"/>
		<path id="path" d="M24.33 9.91C25.99 9.85 27.6 10.46 29.05 11.74L29.22 11.89L29.35 12.08C30.96 14.42 31.24 17.02 30.53 19.5C29.84 21.91 28.24 24.15 26.19 26.06C24.13 27.98 21.53 29.67 18.64 30.98C19.37 32.93 20.64 34.55 22.63 35.58C25.32 36.98 28.94 36.81 32.34 35.4C32.04 34.7 31.81 33.97 31.66 33.25C31.14 30.86 31.31 28.27 31.9 26.24C33.04 22.29 36.5 20.41 39.57 20.92C41.11 21.2 42.55 22.09 43.37 23.63C44.18 25.17 44.23 27.08 43.56 29.15C42.64 31.95 40.63 34.41 38.13 36.28C41.56 37.61 46.58 36.66 50.92 30.65L51.99 29.17L54.95 31.3L53.88 32.79C48.56 40.16 41.43 41.95 36.02 39.34C35.48 39.08 35 38.77 34.57 38.41C34.48 38.46 34.39 38.5 34.29 38.54C30.12 40.41 25.07 40.98 20.94 38.81C18.01 37.3 16.21 34.92 15.22 32.29C13.33 32.89 11.36 33.31 9.39 33.54L7.58 33.74L7.17 30.11L8.99 29.91C10.8 29.71 12.61 29.3 14.34 28.73C13.88 25.33 14.35 21.76 15.15 18.8C15.85 16.2 17.67 13.28 20.04 11.52C21.25 10.63 22.71 9.95 24.33 9.91ZM17.87 27.3C20.11 26.22 22.11 24.87 23.69 23.39C25.44 21.76 26.57 20.05 27.02 18.49C27.43 17.04 27.3 15.67 26.45 14.33C25.7 13.72 25.03 13.55 24.45 13.55C23.78 13.59 23.02 13.87 22.22 14.46C20.58 15.67 19.19 17.86 18.67 19.77C18.04 22.11 17.68 24.79 17.87 27.3ZM35.57 33.63C37.75 32.08 39.41 30.08 40.08 28.02C40.54 26.6 40.36 25.77 40.14 25.34C39.91 24.92 39.52 24.63 38.95 24.54C37.81 24.34 36.06 25.02 35.41 27.26C34.98 28.74 34.84 30.72 35.23 32.48C35.32 32.89 35.43 33.27 35.57 33.63Z" fill="#FFFFFF" fill-opacity="1.000000" fill-rule="evenodd"/>
	</g>
</svg>
