<svg width="50" height="50" viewBox="0 0 50 50" fill="none" xmlns="http://www.w3.org/2000/svg">
<path d="M25 0C38.7896 0 50 11.1849 50 25C50 38.7896 38.8152 50 25 50C11.2104 50 0 38.8152 0 25C0 11.1849 11.1849 0 25 0Z" fill="#FFDE52"/>
<path d="M15.4946 29.7811C15.3928 29.6792 15.3163 29.5519 15.2399 29.4246C15.189 29.2971 15.1636 29.1444 15.1636 28.9915C15.1636 28.8386 15.189 28.6858 15.2399 28.5584C15.2909 28.4311 15.3673 28.3038 15.4946 28.2019L29.836 13.8095C29.9379 13.7077 30.0652 13.6314 30.1926 13.5549C30.3199 13.5039 30.4728 13.4785 30.6256 13.4785C30.7785 13.4785 30.9313 13.5039 31.0587 13.5549C31.186 13.6058 31.3134 13.6822 31.4153 13.8095L39.9741 22.3939C40.076 22.4958 40.1524 22.6233 40.2289 22.7506C40.2799 22.878 40.3053 23.0308 40.3053 23.1837C40.3053 23.3364 40.2799 23.4893 40.2289 23.6166C40.178 23.7441 40.1016 23.8714 39.9741 23.9733L25.6329 38.3655C25.5311 38.4673 25.4036 38.5438 25.2763 38.5948C25.149 38.6457 24.9961 38.6712 24.8432 38.6712C24.6905 38.6712 24.563 38.6457 24.4102 38.5948C24.2828 38.5438 24.1555 38.4673 24.0536 38.3655L15.4946 29.7811Z" fill="white"/>
<path d="M15.4946 29.7811C15.3928 29.6792 15.3163 29.5519 15.2399 29.4246C15.189 29.2971 15.1636 29.1444 15.1636 28.9915C15.1636 28.8386 15.189 28.6858 15.2399 28.5584C15.2909 28.4311 15.3673 28.3038 15.4946 28.2019L29.836 13.8095C29.9379 13.7077 30.0652 13.6314 30.1926 13.5549C30.3199 13.5039 30.4728 13.4785 30.6256 13.4785C30.7785 13.4785 30.9313 13.5039 31.0587 13.5549C31.186 13.6058 31.3134 13.6822 31.4153 13.8095L39.9741 22.3939C40.076 22.4958 40.1524 22.6233 40.2289 22.7506C40.2799 22.878 40.3053 23.0308 40.3053 23.1837C40.3053 23.3364 40.2799 23.4893 40.2289 23.6166C40.178 23.7441 40.1016 23.8714 39.9741 23.9733L25.6329 38.3655C25.5311 38.4673 25.4036 38.5438 25.2763 38.5948C25.149 38.6457 24.9961 38.6712 24.8432 38.6712C24.6905 38.6712 24.563 38.6457 24.4102 38.5948C24.2828 38.5438 24.1555 38.4673 24.0536 38.3655L15.4946 29.7811Z" fill="white"/>
<path fill-rule="evenodd" clip-rule="evenodd" d="M30.4476 14.0958C30.3432 14.1594 30.2923 14.1945 30.2567 14.2302L15.8923 28.6455L15.8662 28.6665C15.8419 28.6858 15.8176 28.7162 15.7923 28.7793C15.7747 28.8234 15.7585 28.8988 15.7585 28.9913C15.7585 29.063 15.7682 29.1244 15.7808 29.1691C15.8445 29.2734 15.8796 29.3244 15.9153 29.3601L24.4741 37.9444C24.5059 37.9762 24.5552 38.0095 24.6165 38.0358C24.713 38.0669 24.7728 38.0757 24.8429 38.0757C24.9354 38.0757 25.0108 38.0595 25.0549 38.0419C25.1228 38.0147 25.1775 37.9788 25.2116 37.9445L39.5759 23.5292L39.602 23.5084C39.6263 23.4889 39.6507 23.4585 39.676 23.3954C39.6936 23.3513 39.7098 23.2759 39.7098 23.1835C39.7098 23.1118 39.7 23.0503 39.6874 23.0058C39.6239 22.9013 39.5886 22.8503 39.553 22.8147L30.9705 14.2066L30.9502 14.1812C30.9308 14.1569 30.9004 14.1327 30.8373 14.1074C30.7932 14.0897 30.7178 14.0736 30.6253 14.0736C30.5536 14.0736 30.4922 14.0832 30.4476 14.0958ZM29.9713 13.002C30.1818 12.9178 30.412 12.883 30.6253 12.883C30.8386 12.883 31.0688 12.9178 31.2795 13.002C31.463 13.0754 31.6766 13.1964 31.8562 13.409L40.3948 21.9728C40.3949 21.973 40.3947 21.9727 40.3948 21.9728C40.5494 22.1276 40.6591 22.3105 40.7286 22.4269C40.7322 22.4328 40.7357 22.4386 40.739 22.4442L40.7636 22.4851L40.7812 22.5293C40.8655 22.7399 40.9003 22.9702 40.9003 23.1835C40.9003 23.3967 40.8655 23.627 40.7812 23.8376C40.708 24.0208 40.5873 24.2341 40.3753 24.4136L26.0535 38.7863C25.884 38.9558 25.6838 39.0725 25.4971 39.1473C25.2864 39.2315 25.0562 39.2662 24.8429 39.2662C24.6117 39.2662 24.4199 39.2253 24.2217 39.1592L24.2051 39.1538L24.1889 39.1473C24.0022 39.0725 23.802 38.9558 23.6324 38.7863L15.0736 30.2019C14.9186 30.047 14.8093 29.8643 14.7396 29.7478C14.736 29.7419 14.7327 29.7361 14.7292 29.7306L14.7048 29.6897L14.687 29.6454C14.6028 29.4348 14.5681 29.2046 14.5681 28.9913C14.5681 28.778 14.6028 28.5478 14.687 28.3371C14.7603 28.1539 14.8811 27.9406 15.0931 27.7611L29.4147 13.3886C29.5697 13.2337 29.7523 13.1243 29.8688 13.0546C29.8747 13.0511 29.8805 13.0476 29.886 13.0443L29.9269 13.0197L29.9713 13.002Z" fill="#1D2431"/>
<path d="M25.4457 38.4845C25.3461 38.584 25.2215 38.6584 25.097 38.7329C24.9725 38.7827 24.8231 38.8075 24.6737 38.8075C24.5243 38.8075 24.3997 38.7827 24.2503 38.7329C24.1259 38.6832 24.0013 38.6087 23.9017 38.4845L9.88191 24.4432C9.68269 24.2445 9.55818 23.9711 9.55818 23.6728C9.55818 23.3747 9.68269 23.1013 9.88191 22.9025L18.2738 14.5275C18.3736 14.428 18.498 14.3535 18.6225 14.2789C18.747 14.2292 18.8964 14.2043 19.0458 14.2043C19.1952 14.2043 19.3198 14.2292 19.4692 14.2789C19.5936 14.3286 19.7182 14.4032 19.8178 14.5275L33.8376 28.5686C34.0369 28.7675 34.1614 29.0409 34.1614 29.339C34.1614 29.6373 34.0369 29.9107 33.8376 30.1094L25.4457 38.4845Z" fill="white"/>
<path fill-rule="evenodd" clip-rule="evenodd" d="M18.8767 14.8198C18.7757 14.8814 18.7276 14.9147 18.6941 14.9481L10.3021 23.3231C10.2071 23.4179 10.1531 23.5426 10.1531 23.6723C10.1531 23.8019 10.2071 23.9264 10.3021 24.0212L24.3455 38.0861L24.3659 38.1116C24.3815 38.1311 24.4059 38.1516 24.4564 38.1736C24.5494 38.2033 24.6065 38.2117 24.6734 38.2117C24.7416 38.2117 24.8 38.2025 24.8422 38.1907C24.9432 38.1293 24.9913 38.096 25.0249 38.0624L33.4169 29.6874C33.5119 29.5926 33.5659 29.4681 33.5659 29.3384C33.5659 29.2088 33.5119 29.0841 33.4169 28.9893L19.3734 14.9244L19.353 14.8991C19.3374 14.8796 19.313 14.859 19.2626 14.837C19.1697 14.8074 19.1124 14.799 19.0455 14.799C18.9773 14.799 18.9189 14.8081 18.8767 14.8198ZM18.4016 13.7254C18.6091 13.6425 18.8358 13.6085 19.0455 13.6085C19.2731 13.6085 19.462 13.6487 19.6568 13.7134L19.6734 13.7189L19.6896 13.7254C19.8701 13.7975 20.0809 13.9165 20.2584 14.1259L34.2578 28.1467C34.2579 28.1468 34.2577 28.1465 34.2578 28.1467C34.561 28.4494 34.7564 28.8718 34.7564 29.3384C34.7564 29.8052 34.5613 30.2273 34.2578 30.5301L25.8659 38.9052C25.7132 39.0575 25.5334 39.1649 25.4197 39.2328C25.4137 39.2363 25.4081 39.2397 25.4025 39.2431L25.3617 39.2675L25.3175 39.2851C25.1098 39.3681 24.8831 39.4022 24.6734 39.4022C24.4458 39.4022 24.2569 39.3618 24.0621 39.2971L24.0457 39.2916L24.0293 39.2851C23.8488 39.213 23.638 39.0941 23.4605 38.8847L9.46114 24.8639C9.46126 24.864 9.46101 24.8637 9.46114 24.8639C9.15791 24.5611 8.96265 24.1389 8.96265 23.6723C8.96265 23.2053 9.1577 22.7832 9.46114 22.4805L17.8532 14.1055C18.0058 13.9532 18.1856 13.8457 18.2993 13.7777C18.3052 13.7743 18.3108 13.7708 18.3165 13.7676L18.3572 13.7431L18.4016 13.7254Z" fill="#1D2431"/>
<path d="M27.8129 33.2515C28.2512 33.2515 28.6065 32.8961 28.6065 32.4578C28.6065 32.0195 28.2512 31.6642 27.8129 31.6642C27.3745 31.6642 27.0192 32.0195 27.0192 32.4578C27.0192 32.8961 27.3745 33.2515 27.8129 33.2515Z" fill="#1D2431"/>
<path d="M34.7678 16.9659L32.523 14.7211L26.3498 20.8943L28.5946 23.139L34.7678 16.9659Z" fill="#1D2431"/>
</svg>
