<svg width="50" height="50" viewBox="0 0 50 50" fill="none" xmlns="http://www.w3.org/2000/svg">
<g clip-path="url(#clip0_23_29)">
<mask id="mask0_23_29" style="mask-type:luminance" maskUnits="userSpaceOnUse" x="0" y="0" width="50" height="51">
<path d="M50 0H0V50.0004H50V0Z" fill="white"/>
</mask>
<g mask="url(#mask0_23_29)">
<path d="M50 0.000317892H0V50.0003H50V0.000317892Z" fill="black"/>
<path d="M25 40.625H6.25V43.7499H25V40.625Z" fill="white"/>
<path d="M23.9838 6.2238L21.195 17.1644L17.9994 6.2238H14.8231L11.6269 17.1644L8.83813 6.2238H4.46752L9.8225 24.9838H13.3425L16.4113 14.1294L19.4426 24.9838H23.0044L28.3544 6.2238H23.9838Z" fill="white"/>
<path d="M29.1318 22.3123L31.5777 19.3848C33.2689 20.7802 35.044 21.6677 37.1899 21.6677C38.8855 21.6677 39.9054 20.9965 39.9053 19.8926V19.8396C39.9052 18.7931 39.2605 18.2544 36.1166 17.4508C32.3281 16.4838 29.8818 15.4329 29.8815 11.7017V11.6444C29.8813 8.23557 32.6231 5.97479 36.4646 5.97479C39.0009 5.93391 41.4717 6.78042 43.4501 8.36802L41.3 11.4854C39.6354 10.3285 37.9971 9.63089 36.4119 9.63089C34.8267 9.63089 33.9923 10.3551 33.9923 11.269V11.322C33.9924 12.5583 34.8006 12.9646 38.0504 13.7947C41.8654 14.7882 44.0158 16.1615 44.0161 19.4378V19.4908C44.0164 23.2263 41.1686 25.3193 37.1107 25.3193C34.1721 25.3303 31.3322 24.2601 29.1318 22.3123Z" fill="white"/>
</g>
</g>
<defs>
<clipPath id="clip0_23_29">
<rect width="50" height="50" fill="white"/>
</clipPath>
</defs>
</svg>
