<svg width="50" height="50" viewBox="0 0 50 50" fill="none" xmlns="http://www.w3.org/2000/svg">
<g clip-path="url(#clip0_268_28)">
<path fill-rule="evenodd" clip-rule="evenodd" d="M30.9687 27.9229C30.0224 28.3096 29.4179 29.791 28.8047 30.5479C28.4902 30.9355 28.1152 30.9961 27.6318 30.8018C24.08 29.3867 21.3574 27.0166 19.3974 23.748C19.0654 23.2412 19.125 22.8408 19.5254 22.3701C20.1172 21.6729 20.8613 20.8809 21.0215 19.9414C21.3769 17.8633 18.6601 11.417 15.0722 14.3379C4.74802 22.751 32.2949 45.0645 37.2666 32.9961C38.6728 29.5752 32.5371 27.2803 30.9687 27.9229ZM25 45.6328C21.3486 45.6328 17.7558 44.6621 14.6103 42.8242C14.1054 42.5283 13.4951 42.4502 12.9306 42.6035L6.09567 44.4795L8.47653 39.2344C8.63577 38.8842 8.69959 38.4981 8.66152 38.1153C8.62344 37.7326 8.48483 37.3666 8.25973 37.0547C5.71286 33.5244 4.36618 29.3564 4.36618 25C4.36618 13.6221 13.622 4.36621 25 4.36621C36.3779 4.36621 45.6328 13.6221 45.6328 25C45.6328 36.377 36.3769 45.6328 25 45.6328ZM25 0C11.2148 0 -3.12556e-05 11.2148 -3.12556e-05 25C-3.12556e-05 29.8496 1.37692 34.5068 3.99313 38.5488L0.195281 46.9131C0.0236661 47.2909 -0.0367977 47.7098 0.0209656 48.1207C0.0787288 48.5316 0.25233 48.9175 0.521453 49.2334C0.726708 49.4736 0.981562 49.6665 1.26848 49.7989C1.55541 49.9312 1.86759 49.9998 2.18356 50C3.59177 50 11.2705 47.5869 13.2246 47.0508C16.8369 48.9834 20.8886 50 25 50C38.7841 50 50 38.7842 50 25C50 11.2148 38.7841 0 25 0Z" fill="#39AE41"/>
</g>
<defs>
<clipPath id="clip0_268_28">
<rect width="50" height="50" fill="white"/>
</clipPath>
</defs>
</svg>
