<svg width="50" height="44" viewBox="0 0 50 44" fill="none" xmlns="http://www.w3.org/2000/svg">
<path d="M23.3433 22.7024L18.4987 39.3082C14.2903 36.4867 9.71099 34.1603 0.000999451 38.167L4.73447 21.7427L4.79141 21.7166C14.4639 17.7483 19.1488 19.8645 23.3433 22.7024Z" fill="#03A9F4"/>
<path d="M25.8795 24.3098L21.0919 40.7313C25.2975 43.5762 29.9574 45.8436 39.6549 41.8382L44.2717 25.8292C34.3895 29.2048 30.0838 27.1299 25.8795 24.3098Z" fill="#FFC107"/>
<path d="M24.1489 19.7132L28.9282 3.2628C24.7225 0.42894 20.0585 -1.84805 10.3527 2.16693L5.5706 18.6861C9.42487 17.1007 12.4722 16.3734 15.0236 16.3954C18.8946 16.4201 21.6155 18.0151 24.1489 19.7132Z" fill="#FF5722"/>
<path d="M31.4491 4.99254L26.6712 21.5378C30.863 24.3744 35.9339 26.6968 45.2259 22.5526L50.001 6.07053C40.3077 10.0608 35.6464 7.8209 31.4491 4.99254Z" fill="#7CB342"/>
</svg>
