<svg width="50.000000" height="50.001221" viewBox="0 0 50 50.0012" fill="none" xmlns="http://www.w3.org/2000/svg" xmlns:xlink="http://www.w3.org/1999/xlink">
	<desc>
			Created with Pixso.
	</desc>
	<defs/>
	<path id="path" d="M19.65 3.98L0.9 6.52C0.78 6.54 0.66 6.58 0.55 6.64C0.43 6.71 0.34 6.79 0.25 6.89C0.17 6.99 0.1 7.1 0.06 7.22C0.02 7.35 -0.01 7.48 3.05e-5 7.61L3.05e-5 22.83C3.05e-5 23.43 0.46 23.91 1.04 23.91L19.79 23.91C20.36 23.91 20.83 23.43 20.83 22.83L20.83 5.06C20.83 4.73 20.71 4.46 20.47 4.24C20.24 4.03 19.96 3.94 19.65 3.98Z" fill="#F44336" fill-opacity="1.000000" fill-rule="nonzero"/>
	<path id="path" d="M49.64 0.28C49.41 0.06 49.13 -0.04 48.82 0L23.82 3.41C23.69 3.42 23.57 3.46 23.46 3.52C23.35 3.59 23.25 3.67 23.17 3.77C23.08 3.87 23.02 3.98 22.98 4.11C22.93 4.23 22.91 4.36 22.91 4.49L22.91 22.83C22.91 23.43 23.38 23.91 23.95 23.91L48.95 23.91C49.53 23.91 50 23.43 50 22.83L50 1.09C49.99 0.76 49.88 0.49 49.64 0.28Z" fill="#4CAF50" fill-opacity="1.000000" fill-rule="nonzero"/>
	<path id="path" d="M19.79 26.09L1.04 26.09C0.46 26.09 3.05e-5 26.57 3.05e-5 27.17L3.05e-5 42.39C-0.01 42.52 0.02 42.65 0.06 42.77C0.1 42.9 0.17 43.01 0.25 43.11C0.34 43.21 0.43 43.29 0.55 43.35C0.66 43.42 0.78 43.46 0.9 43.47L19.65 46.03C19.7 46.03 19.74 46.03 19.79 46.03C20.36 46.03 20.83 45.54 20.83 44.94L20.83 27.17C20.83 26.57 20.36 26.09 19.79 26.09Z" fill="#2196F3" fill-opacity="1.000000" fill-rule="nonzero"/>
	<path id="path" d="M48.95 26.09L23.95 26.09C23.38 26.09 22.91 26.57 22.91 27.17L22.91 45.51C22.91 45.64 22.93 45.77 22.98 45.89C23.02 46.02 23.08 46.13 23.17 46.23C23.25 46.33 23.35 46.41 23.46 46.47C23.57 46.54 23.69 46.58 23.82 46.59L48.82 49.99C48.86 50 48.91 50 48.95 49.99C49.53 49.99 49.99 49.51 49.99 48.91L49.99 27.17C49.99 26.57 49.53 26.09 48.95 26.09Z" fill="#FFC107" fill-opacity="1.000000" fill-rule="nonzero"/>
</svg>
