<svg width="50" height="50" viewBox="0 0 50 50" fill="none" xmlns="http://www.w3.org/2000/svg">
<g clip-path="url(#clip0_35_99)">
<path d="M22.9167 2.24613e-07H1.0417C0.904876 -8.96513e-05 0.769377 0.0267934 0.642952 0.0791118C0.516527 0.13143 0.401655 0.208158 0.304906 0.304906C0.208158 0.401655 0.13143 0.516527 0.0791118 0.642952C0.0267934 0.769377 -8.96513e-05 0.904876 2.24613e-07 1.0417V22.9167C-8.96513e-05 23.0535 0.0267934 23.189 0.0791118 23.3154C0.13143 23.4419 0.208158 23.5567 0.304906 23.6535C0.401655 23.7502 0.516527 23.827 0.642952 23.8793C0.769377 23.9316 0.904876 23.9585 1.0417 23.9584H22.9167C23.0535 23.9585 23.189 23.9316 23.3154 23.8793C23.4419 23.827 23.5567 23.7502 23.6535 23.6535C23.7502 23.5567 23.827 23.4419 23.8793 23.3154C23.9316 23.189 23.9585 23.0535 23.9584 22.9167V1.0417C23.9585 0.904883 23.9316 0.769396 23.8792 0.642982C23.8269 0.516569 23.7502 0.401707 23.6534 0.304964C23.5567 0.20822 23.4418 0.131492 23.3154 0.0791642C23.189 0.0268366 23.0535 -6.3951e-05 22.9167 2.24613e-07Z" fill="#314E55"/>
<path d="M2.0833 2.0833H21.875V21.875H2.0833V2.0833Z" fill="#E65F58"/>
<path d="M22.9167 26.0417H1.0417C0.904882 26.0416 0.769391 26.0685 0.642972 26.1208C0.516553 26.1731 0.401686 26.2498 0.304939 26.3466C0.208191 26.4433 0.131462 26.5582 0.0791376 26.6846C0.0268134 26.811 -7.91115e-05 26.9465 -2.07542e-06 27.0833V48.9583C-9.19513e-05 49.0951 0.0267911 49.2306 0.0791095 49.357C0.131428 49.4835 0.208156 49.5983 0.304904 49.6951C0.401653 49.7918 0.516524 49.8686 0.64295 49.9209C0.769375 49.9732 0.904874 50.0001 1.0417 50H22.9167C23.0535 50.0001 23.189 49.9732 23.3154 49.9209C23.4419 49.8686 23.5567 49.7918 23.6535 49.6951C23.7502 49.5983 23.827 49.4835 23.8793 49.357C23.9316 49.2306 23.9585 49.0951 23.9584 48.9583V27.0833C23.9584 26.9465 23.9315 26.811 23.8792 26.6846C23.8269 26.5582 23.7501 26.4434 23.6534 26.3466C23.5567 26.2499 23.4418 26.1732 23.3154 26.1209C23.189 26.0685 23.0535 26.0416 22.9167 26.0417Z" fill="#314E55"/>
<path d="M2.0833 28.125H21.875V47.9167H2.0833V28.125Z" fill="#81A4E3"/>
<path d="M48.9583 26.0417H27.0833C26.9465 26.0416 26.811 26.0685 26.6846 26.1208C26.5581 26.1731 26.4433 26.2499 26.3465 26.3466C26.2498 26.4434 26.173 26.5582 26.1207 26.6847C26.0684 26.8111 26.0415 26.9466 26.0416 27.0834V48.9584C26.0415 49.0952 26.0684 49.2307 26.1207 49.3571C26.173 49.4836 26.2498 49.5984 26.3465 49.6952C26.4433 49.7919 26.5581 49.8687 26.6846 49.921C26.811 49.9733 26.9465 50.0002 27.0833 50.0001H48.9583C49.0951 50.0002 49.2306 49.9733 49.357 49.921C49.4835 49.8687 49.5983 49.7919 49.6951 49.6952C49.7918 49.5984 49.8686 49.4836 49.9209 49.3571C49.9732 49.2307 50.0001 49.0952 50 48.9584V27.0834C50.0001 26.9466 49.9732 26.8111 49.9209 26.6847C49.8686 26.5582 49.7918 26.4434 49.6951 26.3466C49.5983 26.2499 49.4835 26.1731 49.357 26.1208C49.2306 26.0685 49.0951 26.0416 48.9583 26.0417Z" fill="#314E55"/>
<path d="M28.125 28.125H47.9167V47.9167H28.125V28.125Z" fill="#E4AD40"/>
<path d="M48.9583 -2.07542e-06H27.0833C26.9465 -9.19513e-05 26.811 0.0267911 26.6846 0.0791095C26.5581 0.131428 26.4433 0.208156 26.3465 0.304904C26.2498 0.401653 26.173 0.516524 26.1207 0.64295C26.0684 0.769375 26.0415 0.904874 26.0416 1.0417V22.9167C26.0415 23.0535 26.0684 23.189 26.1207 23.3154C26.173 23.4419 26.2498 23.5567 26.3465 23.6535C26.4433 23.7502 26.5581 23.827 26.6846 23.8793C26.811 23.9316 26.9465 23.9585 27.0833 23.9584H48.9583C49.0951 23.9585 49.2306 23.9316 49.357 23.8793C49.4835 23.827 49.5983 23.7502 49.6951 23.6535C49.7918 23.5567 49.8686 23.4419 49.9209 23.3154C49.9732 23.189 50.0001 23.0535 50 22.9167V1.0417C50.0001 0.904874 49.9732 0.769375 49.9209 0.64295C49.8686 0.516524 49.7918 0.401653 49.6951 0.304904C49.5983 0.208156 49.4835 0.131428 49.357 0.0791095C49.2306 0.0267911 49.0951 -9.19513e-05 48.9583 -2.07542e-06Z" fill="#314E55"/>
<path d="M28.125 2.0833H47.9167V21.875H28.125V2.0833Z" fill="#5ECB66"/>
</g>
<path d="M40 26.9789V23.0211C40 22.8016 39.9129 22.5911 39.7577 22.4359C39.6024 22.2808 39.3919 22.1936 39.1725 22.1936H36.2901C35.9283 22.1936 35.6122 21.9571 35.501 21.6126C35.3187 21.0486 35.0909 20.5002 34.8199 19.9729C34.6542 19.6504 34.71 19.259 34.9664 19.0026L37.0059 16.963C37.1612 16.8078 37.2483 16.5973 37.2483 16.3779C37.2483 16.1584 37.1612 15.9479 37.0059 15.7928L34.2073 12.994C34.0522 12.8388 33.8417 12.7517 33.6223 12.7517C33.4028 12.7517 33.1923 12.8388 33.0371 12.994L30.9973 15.0336C30.7409 15.29 30.3496 15.3457 30.0269 15.1801C29.4997 14.909 28.9513 14.6812 28.3873 14.4989C28.0428 14.3877 27.8064 14.0717 27.8064 13.7098V10.8275C27.8064 10.608 27.7191 10.3975 27.564 10.2424C27.4088 10.0872 27.1983 10 26.9788 10H23.021C22.8015 10 22.591 10.0872 22.4358 10.2424C22.2806 10.3975 22.1935 10.608 22.1935 10.8275V13.7098C22.1935 14.0717 21.9569 14.3877 21.6125 14.4989C21.0484 14.6812 20.4999 14.9091 19.9727 15.1801C19.6502 15.3457 19.2587 15.29 19.0025 15.0336L16.9627 12.994C16.8077 12.8388 16.5972 12.7517 16.3777 12.7517C16.1582 12.7517 15.9478 12.8388 15.7925 12.994L12.9941 15.7928C12.8388 15.9479 12.7515 16.1584 12.7515 16.3779C12.7515 16.5973 12.8388 16.8078 12.9941 16.963L15.0336 19.0026C15.2899 19.259 15.3456 19.6504 15.1801 19.9729C14.9091 20.5002 14.6811 21.0486 14.4988 21.6126C14.3876 21.9571 14.0717 22.1936 13.7097 22.1936H10.8274C10.6079 22.1936 10.3974 22.2808 10.2423 22.4359C10.0871 22.5911 10 22.8016 10 23.0211V26.9789C10 27.1984 10.0871 27.4089 10.2423 27.564C10.3974 27.7193 10.6079 27.8064 10.8274 27.8064H13.7099C14.0719 27.8064 14.3878 28.0429 14.499 28.3874C14.6813 28.9514 14.9092 29.4998 15.1802 30.0271C15.3458 30.3496 15.29 30.741 15.0338 30.9973L12.9941 33.0368C12.839 33.1921 12.7517 33.4026 12.7517 33.6219C12.7517 33.8414 12.839 34.0519 12.9941 34.2071L15.7927 37.0058C15.9479 37.1609 16.1584 37.2482 16.3779 37.2482C16.5973 37.2482 16.8078 37.1609 16.9629 37.0058L19.0027 34.9662C19.2589 34.7098 19.6504 34.6541 19.9729 34.8197C20.5001 35.0909 21.0485 35.3187 21.6127 35.501C21.9571 35.6121 22.1936 35.928 22.1936 36.2901V39.1725C22.1936 39.392 22.2807 39.6025 22.436 39.7576C22.5912 39.9128 22.8015 40 23.021 40H26.979C27.1985 40 27.4089 39.9128 27.5642 39.7576C27.7193 39.6025 27.8065 39.392 27.8065 39.1725V36.2901C27.8065 35.928 28.0429 35.6121 28.3875 35.501C28.9515 35.3185 29.4999 35.0907 30.0271 34.8197C30.3498 34.6541 30.7411 34.7098 30.9975 34.9662L33.0371 37.0058C33.1923 37.1609 33.4028 37.2482 33.6223 37.2482C33.8417 37.2482 34.0522 37.1609 34.2073 37.0058L37.0059 34.2071C37.1612 34.0519 37.2483 33.8414 37.2483 33.6219C37.2483 33.4026 37.1612 33.1921 37.0059 33.0368L34.9664 30.9973C34.71 30.741 34.6542 30.3494 34.8199 30.0271C35.0909 29.4998 35.3187 28.9514 35.501 28.3874C35.6122 28.0429 35.9283 27.8064 36.2901 27.8064H39.1725C39.3919 27.8064 39.6024 27.7193 39.7577 27.564C39.9129 27.4089 40 27.1984 40 26.9789Z" fill="#B6C4CF"/>
<path d="M19.4809 28.4477C18.8549 27.4478 18.4919 26.2666 18.4919 24.9999C18.4919 23.7333 18.8549 22.5521 19.4809 21.5521C20.7008 17.7428 23.8872 14.8138 27.8459 13.9585C27.8199 13.8781 27.8065 13.7942 27.8064 13.7096V10.8275C27.8064 10.608 27.7191 10.3975 27.564 10.2424C27.4088 10.0872 27.1983 10 26.9788 10H23.021C22.8015 10 22.591 10.0872 22.4358 10.2424C22.2806 10.3975 22.1935 10.608 22.1935 10.8275V13.7098C22.1935 14.0717 21.9569 14.3877 21.6125 14.4989C21.0484 14.6812 20.4999 14.9091 19.9727 15.1801C19.6502 15.3457 19.2587 15.29 19.0025 15.0336L16.9627 12.994C16.8077 12.8388 16.5972 12.7517 16.3777 12.7517C16.1582 12.7517 15.9478 12.8388 15.7925 12.994L12.9941 15.7928C12.8388 15.9479 12.7515 16.1584 12.7515 16.3779C12.7515 16.5973 12.8388 16.8078 12.9941 16.963L15.0336 19.0026C15.2899 19.259 15.3456 19.6504 15.1801 19.9729C14.9091 20.5002 14.6811 21.0486 14.4988 21.6126C14.3876 21.9571 14.0717 22.1936 13.7097 22.1936H10.8274C10.6079 22.1936 10.3974 22.2808 10.2423 22.4359C10.0871 22.5911 10 22.8016 10 23.0211V26.9789C10 27.1984 10.0871 27.4089 10.2423 27.564C10.3974 27.7193 10.6079 27.8064 10.8274 27.8064H13.7099C14.0719 27.8064 14.3878 28.0429 14.499 28.3874C14.6813 28.9514 14.9091 29.4996 15.1802 30.027C15.3458 30.3494 15.29 30.7408 15.0338 30.9972L12.9941 33.0366C12.839 33.1919 12.7517 33.4024 12.7517 33.6217C12.7517 33.8412 12.839 34.0517 12.9941 34.207L15.7927 37.0056C15.9479 37.1609 16.1584 37.248 16.3779 37.248C16.5973 37.248 16.8078 37.1609 16.9629 37.0056L19.0027 34.966C19.2589 34.7096 19.6504 34.6539 19.9729 34.8196C20.5001 35.0907 21.0485 35.3185 21.6127 35.5008C21.9571 35.6119 22.1936 35.9279 22.1936 36.2899V39.1723C22.1936 39.3918 22.2807 39.6023 22.436 39.7574C22.5912 39.9127 22.8015 39.9998 23.021 39.9998H26.979C27.1985 39.9998 27.4089 39.9127 27.5642 39.7574C27.7193 39.6023 27.8065 39.3918 27.8065 39.1723V36.2899C27.8065 36.2034 27.8208 36.12 27.8459 36.0412C23.887 35.186 20.7008 32.257 19.4809 28.4477Z" fill="#9FACBA"/>
<path d="M24.9999 31.5082C28.5942 31.5082 31.5081 28.5943 31.5081 25.0001C31.5081 21.4058 28.5942 18.492 24.9999 18.492C21.4056 18.492 18.4919 21.4058 18.4919 25.0001C18.4919 28.5943 21.4056 31.5082 24.9999 31.5082Z" fill="#8D9CA8"/>
<path d="M21.9543 25.0001C21.9543 22.0055 23.9775 19.485 26.7312 18.7267C26.1672 18.571 25.5849 18.4921 24.9999 18.492C21.4056 18.492 18.4919 21.4058 18.4919 25.0001C18.4919 28.5943 21.4056 31.5082 24.9999 31.5082C25.5997 31.5082 26.1798 31.4254 26.7312 31.2734C23.9775 30.5152 21.9543 27.9946 21.9543 25.0001Z" fill="#7A8C98"/>
<path d="M24.9999 27.1979C26.2138 27.1979 27.1978 26.2139 27.1978 25.0001C27.1978 23.7863 26.2138 22.8023 24.9999 22.8023C23.7862 22.8023 22.8022 23.7863 22.8022 25.0001C22.8022 26.2139 23.7862 27.1979 24.9999 27.1979Z" fill="#465A61"/>
<defs>
<clipPath id="clip0_35_99">
<rect width="50" height="50" fill="white"/>
</clipPath>
</defs>
</svg>
