<svg width="50" height="50" viewBox="0 0 50 50" fill="none" xmlns="http://www.w3.org/2000/svg">
<path fill-rule="evenodd" clip-rule="evenodd" d="M0.878185 9H4.86993C5.34894 9.6 5.7082 10.28 5.82795 11.04C6.3868 14.48 6.90573 17.92 7.46457 21.36C9.22094 17.8 10.9374 14.16 12.6938 10.56C13.0131 9.84 13.6119 9.36 14.2905 9H18.0826C18.5217 9.76 18.8411 10.6 18.9209 11.48C19.3201 14.76 19.7991 18.08 20.1983 21.36C22.1143 17.84 23.8307 14.24 25.667 10.68C26.0262 9.96 26.6649 9.36 27.3834 9H43.7097C45.8253 9.2 48.3002 9.88 49.338 11.96C50.5356 14.4 49.9368 17.28 48.8989 19.68C47.7812 22.32 45.1068 24.04 42.3125 24.4C39.3187 24.8 36.2451 24.52 33.2114 24.6C32.8122 26.08 33.1315 28.16 31.5348 29H27.9422C27.8225 28.8 27.4632 28.4 27.3036 28.16C28.1818 23.16 29.0599 18.16 29.9381 13.16C27.6229 17.56 25.2279 21.96 22.9126 26.36C22.3538 27.44 21.7151 28.6 20.4777 29H17.1645C16.6855 28.56 16.2065 28.04 16.1666 27.36C15.6077 23.88 15.1686 20.36 14.6497 16.88C12.9732 20.16 11.3366 23.44 9.77979 26.76C9.34069 27.76 8.58226 28.72 7.46457 29H4.39092C3.67241 28.52 3.23332 27.84 3.15348 27C2.11563 21.24 0.997937 15.44 0 9.68C0.239505 9.52 0.63868 9.16 0.878185 9ZM35.2472 13C37.3628 13.04 39.4385 12.92 41.5541 13.04C42.7117 13.08 44.1488 13.48 44.508 14.76C44.9471 16.96 43.9891 19.76 41.594 20.32C39.0792 20.88 36.4846 20.48 33.9299 20.6C34.369 18.08 34.8081 15.56 35.2472 13Z" fill="#BABA93"/>
<path fill-rule="evenodd" clip-rule="evenodd" d="M2.25406 31H4.19506C4.32029 31.3 4.40377 31.64 4.34116 31.96C4.19506 32.98 3.96548 33.98 3.79852 35C4.77945 34.96 5.92735 35.2 6.74132 34.54C7.82661 33.68 8.43186 32.44 9.39193 31.46C9.60064 31.24 9.89283 31.12 10.185 31H12.4808C11.8756 32.24 10.9155 33.24 10.1015 34.36C9.60064 35.06 8.89103 35.62 8.05619 35.94C9.39193 36.86 9.83022 38.42 10.519 39.76C11.3329 37.96 12.1886 36.16 13.0235 34.34C13.3783 33.54 13.7748 32.72 14.5053 32.16C15.4654 31.38 16.7594 31.1 17.9908 31H22.9998C23.0624 31.48 23.1041 31.96 22.9998 32.44C22.4989 35.02 22.0606 37.62 21.5597 40.22C21.5388 40.6 21.2258 40.82 20.9336 41H19.0969C18.9717 40.86 18.8465 40.74 18.7212 40.6C18.8465 39.94 18.9717 39.28 19.0969 38.6C17.3438 38.6 15.6115 38.6 13.8583 38.6C13.42 39.42 13.2531 40.56 12.2721 41H8.51535C7.03351 40.16 7.22135 38.08 5.80212 37.18C5.05077 36.86 4.21593 37.04 3.42284 37C3.19326 38.12 3.06803 39.28 2.77584 40.38C2.71322 40.68 2.42103 40.82 2.21232 41H0.354809C0.271325 40.9 0.0834838 40.68 0 40.58C0.521774 37.72 1.06442 34.86 1.58619 31.98C1.60706 31.56 1.85752 31.2 2.25406 31ZM16.3002 33.7C17.2811 32.66 18.8465 33.08 20.1196 33C19.9109 34.2 19.6813 35.4 19.4726 36.6C17.9073 36.6 16.342 36.6 14.7766 36.6C15.3193 35.64 15.5906 34.56 16.3002 33.7ZM24.9617 31H28.5723C28.8019 31.38 28.9898 31.78 29.0524 32.22C29.3654 34.02 29.6785 35.82 30.0333 37.6C30.9307 35.9 31.8908 34.22 32.7883 32.52C33.1013 31.94 33.3935 31.28 34.0614 31H37.4842C37.5677 31.1 37.7764 31.28 37.8599 31.38C37.4007 34.1 36.8581 36.82 36.3781 39.54C36.2946 40.08 36.2111 40.72 35.6476 41H33.8109C33.7275 40.9 33.5814 40.68 33.4979 40.58C33.8944 38.22 34.3745 35.88 34.7501 33.54C33.7066 35.46 32.6004 37.36 31.536 39.3C31.1812 39.94 30.8681 40.7 30.1168 41H28.468C27.9671 40.3 27.9045 39.44 27.7375 38.62C27.4244 36.92 27.0905 35.22 26.7566 33.52C26.3391 35.76 25.9426 38 25.5043 40.22C25.4834 40.58 25.1912 40.8 24.9408 41H23.1041C22.9998 40.9 22.8537 40.7 22.7493 40.6C23.2711 37.72 23.8138 34.86 24.3355 32C24.3564 31.58 24.6069 31.22 24.9617 31ZM44.9143 31H49.9233C49.9859 31.44 50.0485 31.88 49.9442 32.3C49.5059 34.66 49.0676 37.02 48.6502 39.38C48.525 39.98 48.525 40.72 47.8571 41H46.0204C45.8952 40.88 45.77 40.74 45.6448 40.6C45.77 39.94 45.8952 39.28 46.0204 38.6C44.2673 38.6 42.535 38.6 40.8027 38.6C40.3435 39.42 40.1766 40.56 39.1956 41H37.2338C37.192 40.9 37.1085 40.7 37.0668 40.6C38.1521 38.2 39.2374 35.78 40.4062 33.42C41.2201 31.78 43.1403 31.1 44.9143 31ZM43.349 33.6C44.3299 32.68 45.8117 33.08 47.0431 33C46.8344 34.2 46.6048 35.4 46.3961 36.6C44.8308 36.6 43.2655 36.6 41.7002 36.6C42.2637 35.62 42.535 34.44 43.349 33.6Z" fill="#BABA93"/>
</svg>
