<svg width="50" height="50" viewBox="0 0 50 50" fill="none" xmlns="http://www.w3.org/2000/svg">
<path fill-rule="evenodd" clip-rule="evenodd" d="M48.1019 50H1.89813C0.849776 50 0 49.1502 0 48.1019V1.89767C0 0.849302 0.849776 1.98994e-07 1.89813 1.98994e-07H48.1019C49.1502 1.98994e-07 50 0.849302 50 1.89767V48.1019C50 49.1502 49.1502 50 48.1019 50Z" fill="#FF6700"/>
<path d="M39.2068 15.726H35.2732C35.1048 15.726 34.9684 15.8599 34.9684 16.025V33.9726C34.9684 34.1363 35.1048 34.2702 35.2732 34.2702H39.2068C39.3738 34.2702 39.5121 34.1363 39.5121 33.9726V16.025C39.5121 15.8599 39.3738 15.726 39.2068 15.726Z" fill="white"/>
<path d="M25.7758 15.726H10.7922C10.6237 15.726 10.4883 15.8599 10.4883 16.025V33.9726C10.4883 34.1363 10.6237 34.2702 10.7922 34.2702H14.7267C14.8942 34.2702 15.033 34.1363 15.033 33.9726V19.8864C15.033 19.7237 15.1684 19.5888 15.3368 19.5888H23.8122C26.1955 19.5888 26.8721 21.4142 26.8721 22.5918V33.9726C26.8721 34.1363 27.0089 34.2702 27.1773 34.2702H31.1095C31.277 34.2702 31.4143 34.1363 31.4143 33.9726V21.2405C31.4143 20.1903 31.288 18.6801 29.9329 17.3509C28.5152 15.9633 27.2218 15.726 25.7758 15.726Z" fill="white"/>
<path d="M23.0198 22.8746H18.889C18.7206 22.8746 18.5823 23.0085 18.5823 23.1727V33.974C18.5823 34.1372 18.7206 34.2712 18.889 34.2712H23.0198C23.1868 34.2712 23.3236 34.1372 23.3236 33.974V23.1727C23.3236 23.0085 23.1868 22.8746 23.0198 22.8746Z" fill="white"/>
</svg>
