<svg width="50" height="50" viewBox="0 0 50 50" fill="none" xmlns="http://www.w3.org/2000/svg">
<path opacity="0.2" d="M17.2831 1.93106C17.034 1.94731 16.782 1.98971 16.5312 2.06156C14.5246 2.63639 13.3423 4.82832 13.8799 6.97363L15.3374 12.794C14.073 13.5988 12.9011 14.523 11.8097 15.5215L7.6571 10.8886C6.21954 9.28478 3.82112 9.31811 2.35217 10.8886C0.883228 12.4591 0.914309 14.9541 2.35217 16.5576L6.54631 21.2348C4.69238 23.4564 2.99163 25.5358 1.30486 26.8986C-0.434953 28.2643 -0.434953 31.6795 1.30486 33.0452C8.75025 37.9979 13.7499 50.0347 24.9976 49.9999H25.0024C36.2501 50.0347 41.2497 37.9979 48.6951 33.0452C50.435 31.6795 50.435 28.2643 48.6951 26.8986C47.009 25.5363 45.3092 23.458 43.4561 21.2374L47.6527 16.5576C49.0906 14.9541 49.1217 12.4591 47.6527 10.8886C46.1838 9.31811 43.7878 9.28481 42.3502 10.8886L38.1928 15.5267C37.1078 14.5338 35.9453 13.6116 34.6895 12.8097L36.1518 6.97363C36.6895 4.82832 35.5072 2.6364 33.5006 2.06156C31.494 1.48673 29.4462 2.75335 28.9085 4.89866L27.6049 9.91003C26.7707 9.78754 25.9044 9.71701 25 9.71689H24.9975C24.1045 9.717 23.2514 9.78791 22.4268 9.90742L21.1233 4.89866C20.6528 3.02152 19.0268 1.8173 17.2831 1.93106Z" fill="black"/>
<path d="M17.2831 0.00798481C17.034 0.0242348 16.782 0.0666308 16.5312 0.138485C14.5246 0.713318 13.3423 2.90525 13.8799 5.05056L15.3374 10.8709C14.073 11.6758 12.9011 12.6 11.8097 13.5984L7.6571 8.96551C6.21954 7.3617 3.82112 7.39504 2.35217 8.96551C0.883228 10.536 0.914309 13.031 2.35217 14.6345L6.54631 19.3117C4.69238 21.5333 2.99163 23.6127 1.30486 24.9755C-0.434953 26.3412 -0.434953 29.7564 1.30486 31.1221C8.75025 36.0749 13.7499 48.1116 24.9976 48.0769H25.0024C36.2501 48.1117 41.2497 36.0749 48.6951 31.1221C50.435 29.7564 50.435 26.3412 48.6951 24.9755C47.009 23.6133 45.3092 21.5349 43.4561 19.3144L47.6527 14.6345C49.0906 13.031 49.1217 10.536 47.6527 8.96551C46.1838 7.39504 43.7878 7.36173 42.3502 8.96551L38.1928 13.6036C37.1078 12.6107 35.9453 11.6885 34.6895 10.8866L36.1518 5.05056C36.6895 2.90525 35.5072 0.71332 33.5006 0.138486C31.494 -0.436347 29.4462 0.830277 28.9085 2.97559L27.6049 7.98696C26.7707 7.86447 25.9044 7.79393 25 7.79381H24.9975C24.1045 7.79393 23.2514 7.86484 22.4268 7.98435L21.1233 2.97558C20.6528 1.09844 19.0268 -0.10578 17.2831 0.00798481Z" fill="#EF9202"/>
<path opacity="0.2" d="M25 46.1538C32.8898 46.1538 39.2858 39.2659 39.2858 30.7692C39.2858 22.2725 32.8898 15.3846 25 15.3846C17.1102 15.3846 10.7143 22.2725 10.7143 30.7692C10.7143 39.2659 17.1102 46.1538 25 46.1538Z" fill="black"/>
<path d="M25 44.2308C32.8898 44.2308 39.2858 37.3428 39.2858 28.8462C39.2858 20.3495 32.8898 13.4615 25 13.4615C17.1102 13.4615 10.7143 20.3495 10.7143 28.8462C10.7143 37.3428 17.1102 44.2308 25 44.2308Z" fill="white"/>
<path d="M25 38.4615C29.9311 38.4615 33.9286 34.1566 33.9286 28.8462C33.9286 23.5357 29.9311 19.2308 25 19.2308C20.0689 19.2308 16.0714 23.5357 16.0714 28.8462C16.0714 34.1566 20.0689 38.4615 25 38.4615Z" fill="#FF5A2E"/>
<path opacity="0.2" d="M17.2817 0.00746746C17.0326 0.0237175 16.7827 0.067074 16.5318 0.138928C14.544 0.708372 13.3699 2.86578 13.8707 4.99169C14.1832 3.61412 15.1565 2.45598 16.5318 2.062C16.7827 1.99015 17.0326 1.94679 17.2817 1.93054C19.0254 1.81678 20.6512 3.02065 21.1217 4.89779L22.4261 9.90831C23.2506 9.7888 24.1035 9.71687 24.9965 9.71675H25C25.9044 9.71687 26.7711 9.78582 27.6054 9.90831L28.9098 4.89779C29.4474 2.75248 31.493 1.48717 33.4996 2.062C34.8749 2.45598 35.8482 3.61412 36.1608 4.99169C36.6615 2.86578 35.4874 0.708372 33.4996 0.138928C31.493 -0.435906 29.4474 0.829407 28.9098 2.97472L27.6054 7.98523C26.7711 7.86274 25.9044 7.79379 25 7.79368H24.9965C24.1035 7.79379 23.2506 7.86572 22.4261 7.98523L21.1217 2.97472C20.6512 1.09757 19.0254 -0.106297 17.2817 0.00746746ZM5.01535 7.77489C4.05243 7.77906 3.0852 8.18031 2.35073 8.96555C1.38539 9.99761 1.08082 11.4251 1.38463 12.7403C1.54117 12.065 1.85195 11.4219 2.35073 10.8886C3.81967 9.31815 6.218 9.28482 7.65556 10.8886L11.8094 15.5198C12.9008 14.5213 14.0747 13.5978 15.339 12.7929L14.931 11.1591C13.8259 11.8973 12.779 12.7097 11.8094 13.5967L7.65556 8.96555C6.93678 8.16365 5.97827 7.77073 5.01535 7.77489ZM44.9882 7.77489C44.0259 7.77073 43.0703 8.16366 42.3515 8.96555L38.1941 13.6042C37.231 12.7228 36.1934 11.9094 35.097 11.1741L34.6889 12.8079C35.9447 13.6099 37.1092 14.5344 38.1941 15.5273L42.3515 10.8886C43.7891 9.28485 46.1839 9.31815 47.6528 10.8886C48.1505 11.4207 48.462 12.0629 48.6189 12.7366C48.9214 11.4223 48.6173 9.9967 47.6528 8.96555C46.9183 8.18031 45.9505 7.77906 44.9882 7.77489ZM5.70592 20.3012C4.18014 22.1251 2.72684 23.8244 1.30441 24.9737C0.197705 25.8424 -0.200114 27.5391 0.101145 29.0114C0.273081 28.1678 0.670421 27.3944 1.30441 26.8967C2.99119 25.5339 4.69253 23.458 6.54646 21.2364L5.70592 20.3012ZM44.2976 20.3012L43.4571 21.2364C45.3101 23.457 47.0095 25.5345 48.6956 26.8967C49.3296 27.3944 49.727 28.1678 49.8989 29.0114C50.2002 27.5391 49.8023 25.8424 48.6956 24.9737C47.2736 23.8248 45.8229 22.1245 44.2976 20.3012Z" fill="white"/>
</svg>
