<svg width="50.000000" height="50.000000" viewBox="0 0 50 50" fill="none" xmlns="http://www.w3.org/2000/svg" xmlns:xlink="http://www.w3.org/1999/xlink">
	<desc>
			Created with Pixso.
	</desc>
	<defs>
		<linearGradient x1="214.966843" y1="-276.141602" x2="179.834305" y2="-90.871872" id="paint_linear_164_530_0" gradientUnits="userSpaceOnUse">
			<stop stop-color="#FB3F1C"/>
			<stop offset="1.000000" stop-color="#FD8973"/>
		</linearGradient>
		<linearGradient x1="167.675095" y1="10.075264" x2="216.947906" y2="-270.324524" id="paint_linear_164_662_0" gradientUnits="userSpaceOnUse">
			<stop stop-color="#AE2B13"/>
			<stop offset="0.601563" stop-color="#B32D15"/>
			<stop offset="1.000000" stop-color="#FB3F1C"/>
		</linearGradient>
	</defs>
	<path id="path14" d="M24.99 0.35C38.79 0.35 49.98 11.46 49.98 25.17C49.98 38.88 38.79 50 24.99 50C11.19 50 0 38.88 0 25.17C0 11.46 11.19 0.35 24.99 0.35Z" fill="#A9E6FD" fill-opacity="1.000000" fill-rule="evenodd"/>
	<path id="path14" d="M49.98 25.17C49.98 38.88 38.79 50 24.99 50C11.19 50 0 38.88 0 25.17C0 11.46 11.19 0.35 24.99 0.35C38.79 0.35 49.98 11.46 49.98 25.17Z" stroke="#000000" stroke-opacity="0" stroke-width="0.133333"/>
	<mask id="mask164_528" mask-type="alpha" maskUnits="userSpaceOnUse" x="0.434479" y="0.000000" width="49.565521" height="29.641968">
		<path id="path20" d="M25 0C38.81 0 50 11.25 50 25.14C50 26.25 49.92 27.35 49.79 28.42L49.78 28.42C49.78 28.44 49.78 28.46 49.77 28.47C49.28 30.4 34.05 29.7 24.45 28.09C13.91 26.33 0.45 23.01 0.44 20.41L0.43 20.41C2.63 8.79 12.8 0 25 0Z" fill="#000000" fill-opacity="1.000000" fill-rule="nonzero"/>
	</mask>
	<g mask="url(#mask164_528)">
		<path id="path30" d="M25 0C38.81 0 50 11.25 50 25.14C50 26.25 49.92 27.35 49.79 28.42L49.78 28.42C49.78 28.44 49.78 28.46 49.77 28.47C49.28 30.4 34.05 29.7 24.45 28.09C13.91 26.33 0.45 23.01 0.44 20.41L0.43 20.41C2.63 8.79 12.8 0 25 0Z" fill="url(#paint_linear_164_530_0)" fill-opacity="1.000000" fill-rule="nonzero"/>
		<path id="path30" d="M50 25.14C50 26.25 49.92 27.35 49.79 28.42L49.78 28.42C49.78 28.44 49.78 28.46 49.77 28.47C49.28 30.4 34.05 29.7 24.45 28.09C13.91 26.33 0.45 23.01 0.44 20.41L0.43 20.41C2.63 8.79 12.8 0 25 0C38.81 0 50 11.25 50 25.14Z" stroke="#000000" stroke-opacity="0" stroke-width="0.133333"/>
	</g>
	<path id="path32" d="M24.45 28.09C34.05 29.7 49.28 30.4 49.77 28.47C50.27 26.54 40.31 23.12 26.68 20.88C23.36 20.35 1 17.12 0.44 20.41C0.44 23.01 13.91 26.33 24.45 28.09Z" fill="#D12000" fill-opacity="1.000000" fill-rule="evenodd"/>
	<path id="path32" d="M49.77 28.47C50.27 26.54 40.31 23.12 26.68 20.88C23.36 20.35 1 17.12 0.44 20.41C0.44 23.01 13.91 26.33 24.45 28.09C34.05 29.7 49.28 30.4 49.77 28.47Z" stroke="#000000" stroke-opacity="0" stroke-width="0.133333"/>
	<path id="path34" d="M28.26 7.49C29.11 7.65 29.69 8.47 29.54 9.33L24.35 39.32C23.98 41.38 25.36 43.34 27.42 43.71C29.49 44.06 31.44 42.67 31.79 40.62L31.99 39.45C32.13 38.59 32.95 38.01 33.81 38.15C34.68 38.32 35.25 39.14 35.09 39.99L34.9 41.16C34.23 44.95 30.65 47.49 26.89 46.83C23.11 46.17 20.6 42.56 21.25 38.78L26.43 8.79C26.57 7.92 27.4 7.35 28.26 7.49Z" fill="#000000" fill-opacity="1.000000" fill-rule="evenodd"/>
	<path id="path34" d="M29.54 9.33L24.35 39.32C23.98 41.38 25.36 43.34 27.42 43.71C29.49 44.06 31.44 42.67 31.79 40.62L31.99 39.45C32.13 38.59 32.95 38.01 33.81 38.15C34.68 38.32 35.25 39.14 35.09 39.99L34.9 41.16C34.23 44.95 30.65 47.49 26.89 46.83C23.11 46.17 20.6 42.56 21.25 38.78L26.43 8.79C26.57 7.92 27.4 7.35 28.26 7.49C29.11 7.65 29.69 8.47 29.54 9.33Z" stroke="#000000" stroke-opacity="0" stroke-width="0.133333"/>
	<mask id="mask164_536" mask-type="alpha" maskUnits="userSpaceOnUse" x="0.434479" y="0.000000" width="49.565521" height="28.421509">
		<path id="path40" d="M25 0C38.81 0 50 11.25 50 25.14C50 26.25 49.92 27.35 49.79 28.42L49.78 28.42C50.09 26.49 40.19 23.09 26.68 20.88C23.36 20.35 1 17.12 0.44 20.41L0.43 20.41C2.63 8.79 12.8 0 25 0Z" fill="#000000" fill-opacity="1.000000" fill-rule="nonzero"/>
	</mask>
	<g mask="url(#mask164_536)">
		<path id="path44" d="M54.11 2.51L49.77 28.52L0.43 20.41L4.77 -5.6L54.11 2.51Z" fill="#FC3F1D" fill-opacity="1.000000" fill-rule="nonzero"/>
		<path id="path44" d="M49.77 28.52L0.43 20.41L4.77 -5.6L54.11 2.51L49.77 28.52Z" stroke="#000000" stroke-opacity="0" stroke-width="0.133333"/>
		<path id="path46" d="M25.2 29.66C23.8 29.43 22.86 28.12 23.09 26.74C23.32 25.35 24.64 24.42 26.03 24.65C27.43 24.87 28.37 26.18 28.14 27.57C27.91 28.95 26.59 29.89 25.2 29.66ZM25.13 30.03C26.74 30.3 28.25 29.22 28.52 27.63C28.78 26.04 27.7 24.53 26.1 24.27C24.49 24.01 22.98 25.08 22.71 26.67C22.45 28.27 23.53 29.77 25.13 30.03Z" fill="#FD4F30" fill-opacity="1.000000" fill-rule="nonzero"/>
		<path id="path46" d="M23.09 26.74C23.32 25.35 24.64 24.42 26.03 24.65C27.43 24.87 28.37 26.18 28.14 27.57C27.91 28.95 26.59 29.89 25.2 29.66C23.8 29.43 22.86 28.12 23.09 26.74ZM28.52 27.63C28.78 26.04 27.7 24.53 26.1 24.27C24.49 24.01 22.98 25.08 22.71 26.67C22.45 28.27 23.53 29.77 25.13 30.03C26.74 30.3 28.25 29.22 28.52 27.63Z" stroke="#000000" stroke-opacity="0" stroke-width="0.133333"/>
		<path id="path48" d="M25.16 29.91C23.62 29.66 22.58 28.22 22.84 26.7C23.09 25.17 24.54 24.14 26.07 24.39C27.61 24.65 28.64 26.09 28.39 27.61C28.14 29.13 26.69 30.16 25.16 29.91ZM25.09 30.28C26.84 30.57 28.48 29.4 28.77 27.67C29.06 25.94 27.88 24.31 26.14 24.02C24.39 23.73 22.75 24.9 22.46 26.63C22.17 28.36 23.35 30 25.09 30.28Z" fill="#FD4F30" fill-opacity="1.000000" fill-rule="nonzero"/>
		<path id="path48" d="M22.84 26.7C23.09 25.17 24.54 24.14 26.07 24.39C27.61 24.65 28.64 26.09 28.39 27.61C28.14 29.13 26.69 30.16 25.16 29.91C23.62 29.66 22.58 28.22 22.84 26.7ZM28.77 27.67C29.06 25.94 27.88 24.31 26.14 24.02C24.39 23.73 22.75 24.9 22.46 26.63C22.17 28.36 23.35 30 25.09 30.28C26.84 30.57 28.48 29.4 28.77 27.67Z" stroke="#000000" stroke-opacity="0" stroke-width="0.133333"/>
		<path id="path50" d="M25.11 30.16C23.44 29.88 22.31 28.31 22.59 26.65C22.86 24.99 24.44 23.87 26.12 24.14C27.79 24.42 28.92 25.99 28.64 27.65C28.37 29.31 26.79 30.43 25.11 30.16ZM25.05 30.54C26.93 30.84 28.71 29.58 29.02 27.71C29.33 25.84 28.06 24.08 26.18 23.77C24.3 23.46 22.52 24.72 22.21 26.59C21.9 28.46 23.17 30.23 25.05 30.54Z" fill="#FD4E30" fill-opacity="1.000000" fill-rule="nonzero"/>
		<path id="path50" d="M22.59 26.65C22.86 24.99 24.44 23.87 26.12 24.14C27.79 24.42 28.92 25.99 28.64 27.65C28.37 29.31 26.79 30.43 25.11 30.16C23.44 29.88 22.31 28.31 22.59 26.65ZM29.02 27.71C29.33 25.84 28.06 24.08 26.18 23.77C24.3 23.46 22.52 24.72 22.21 26.59C21.9 28.46 23.17 30.23 25.05 30.54C26.93 30.84 28.71 29.58 29.02 27.71Z" stroke="#000000" stroke-opacity="0" stroke-width="0.133333"/>
		<path id="path52" d="M25.07 30.41C23.26 30.11 22.03 28.41 22.33 26.61C22.63 24.81 24.35 23.6 26.16 23.89C27.97 24.19 29.2 25.89 28.9 27.69C28.6 29.49 26.88 30.71 25.07 30.41ZM25.01 30.79C27.03 31.12 28.94 29.76 29.27 27.75C29.61 25.75 28.24 23.85 26.22 23.52C24.2 23.18 22.29 24.54 21.96 26.55C21.62 28.56 22.99 30.45 25.01 30.79Z" fill="#FD4E30" fill-opacity="1.000000" fill-rule="nonzero"/>
		<path id="path52" d="M22.33 26.61C22.63 24.81 24.35 23.6 26.16 23.89C27.97 24.19 29.2 25.89 28.9 27.69C28.6 29.49 26.88 30.71 25.07 30.41C23.26 30.11 22.03 28.41 22.33 26.61ZM29.27 27.75C29.61 25.75 28.24 23.85 26.22 23.52C24.2 23.18 22.29 24.54 21.96 26.55C21.62 28.56 22.99 30.45 25.01 30.79C27.03 31.12 28.94 29.76 29.27 27.75Z" stroke="#000000" stroke-opacity="0" stroke-width="0.133333"/>
		<path id="path54" d="M25.03 30.66C23.08 30.34 21.76 28.51 22.08 26.57C22.4 24.63 24.25 23.32 26.2 23.64C28.15 23.96 29.47 25.79 29.15 27.73C28.83 29.67 26.98 30.98 25.03 30.66ZM24.97 31.04C27.13 31.39 29.17 29.94 29.53 27.79C29.88 25.65 28.42 23.62 26.26 23.27C24.1 22.91 22.06 24.36 21.7 26.51C21.35 28.65 22.81 30.68 24.97 31.04Z" fill="#FD4E30" fill-opacity="1.000000" fill-rule="nonzero"/>
		<path id="path54" d="M22.08 26.57C22.4 24.63 24.25 23.32 26.2 23.64C28.15 23.96 29.47 25.79 29.15 27.73C28.83 29.67 26.98 30.98 25.03 30.66C23.08 30.34 21.76 28.51 22.08 26.57ZM29.53 27.79C29.88 25.65 28.42 23.62 26.26 23.27C24.1 22.91 22.06 24.36 21.7 26.51C21.35 28.65 22.81 30.68 24.97 31.04C27.13 31.39 29.17 29.94 29.53 27.79Z" stroke="#000000" stroke-opacity="0" stroke-width="0.133333"/>
		<path id="path56" d="M24.99 30.91C22.9 30.57 21.48 28.61 21.83 26.53C22.18 24.45 24.15 23.05 26.24 23.39C28.33 23.74 29.75 25.7 29.4 27.77C29.05 29.85 27.08 31.26 24.99 30.91ZM24.93 31.29C27.23 31.67 29.4 30.12 29.78 27.84C30.16 25.55 28.6 23.39 26.3 23.02C24 22.64 21.83 24.18 21.45 26.47C21.07 28.75 22.63 30.91 24.93 31.29Z" fill="#FD4E30" fill-opacity="1.000000" fill-rule="nonzero"/>
		<path id="path56" d="M21.83 26.53C22.18 24.45 24.15 23.05 26.24 23.39C28.33 23.74 29.75 25.7 29.4 27.77C29.05 29.85 27.08 31.26 24.99 30.91C22.9 30.57 21.48 28.61 21.83 26.53ZM29.78 27.84C30.16 25.55 28.6 23.39 26.3 23.02C24 22.64 21.83 24.18 21.45 26.47C21.07 28.75 22.63 30.91 24.93 31.29C27.23 31.67 29.4 30.12 29.78 27.84Z" stroke="#000000" stroke-opacity="0" stroke-width="0.133333"/>
		<path id="path58" d="M24.95 31.16C22.72 30.8 21.21 28.7 21.58 26.49C21.95 24.27 24.05 22.77 26.28 23.14C28.51 23.51 30.02 25.6 29.65 27.82C29.28 30.03 27.18 31.53 24.95 31.16ZM24.88 31.54C27.32 31.94 29.63 30.3 30.03 27.88C30.44 25.46 28.79 23.17 26.35 22.77C23.91 22.36 21.6 24 21.2 26.43C20.79 28.85 22.44 31.14 24.88 31.54Z" fill="#FD4E2F" fill-opacity="1.000000" fill-rule="nonzero"/>
		<path id="path58" d="M21.58 26.49C21.95 24.27 24.05 22.77 26.28 23.14C28.51 23.51 30.02 25.6 29.65 27.82C29.28 30.03 27.18 31.53 24.95 31.16C22.72 30.8 21.21 28.7 21.58 26.49ZM30.03 27.88C30.44 25.46 28.79 23.17 26.35 22.77C23.91 22.36 21.6 24 21.2 26.43C20.79 28.85 22.44 31.14 24.88 31.54C27.32 31.94 29.63 30.3 30.03 27.88Z" stroke="#000000" stroke-opacity="0" stroke-width="0.133333"/>
		<path id="path60" d="M24.9 31.41C22.53 31.02 20.93 28.8 21.32 26.45C21.72 24.09 23.96 22.5 26.33 22.89C28.69 23.28 30.3 25.5 29.91 27.86C29.51 30.21 27.27 31.8 24.9 31.41ZM24.84 31.79C27.42 32.21 29.86 30.48 30.28 27.92C30.71 25.36 28.97 22.94 26.39 22.51C23.81 22.09 21.37 23.82 20.95 26.38C20.52 28.94 22.26 31.36 24.84 31.79Z" fill="#FD4E2F" fill-opacity="1.000000" fill-rule="nonzero"/>
		<path id="path60" d="M21.32 26.45C21.72 24.09 23.96 22.5 26.33 22.89C28.69 23.28 30.3 25.5 29.91 27.86C29.51 30.21 27.27 31.8 24.9 31.41C22.53 31.02 20.93 28.8 21.32 26.45ZM30.28 27.92C30.71 25.36 28.97 22.94 26.39 22.51C23.81 22.09 21.37 23.82 20.95 26.38C20.52 28.94 22.26 31.36 24.84 31.79C27.42 32.21 29.86 30.48 30.28 27.92Z" stroke="#000000" stroke-opacity="0" stroke-width="0.133333"/>
		<path id="path62" d="M24.86 31.66C22.35 31.25 20.66 28.9 21.07 26.4C21.49 23.91 23.86 22.23 26.37 22.64C28.88 23.05 30.57 25.41 30.16 27.9C29.74 30.39 27.37 32.08 24.86 31.66ZM24.8 32.04C27.52 32.49 30.09 30.66 30.54 27.96C30.99 25.26 29.15 22.71 26.43 22.26C23.71 21.82 21.14 23.64 20.69 26.34C20.24 29.04 22.08 31.59 24.8 32.04Z" fill="#FD4E2F" fill-opacity="1.000000" fill-rule="nonzero"/>
		<path id="path62" d="M21.07 26.4C21.49 23.91 23.86 22.23 26.37 22.64C28.88 23.05 30.57 25.41 30.16 27.9C29.74 30.39 27.37 32.08 24.86 31.66C22.35 31.25 20.66 28.9 21.07 26.4ZM30.54 27.96C30.99 25.26 29.15 22.71 26.43 22.26C23.71 21.82 21.14 23.64 20.69 26.34C20.24 29.04 22.08 31.59 24.8 32.04C27.52 32.49 30.09 30.66 30.54 27.96Z" stroke="#000000" stroke-opacity="0" stroke-width="0.133333"/>
		<path id="path64" d="M24.82 31.91C22.17 31.48 20.38 28.99 20.82 26.36C21.26 23.73 23.76 21.95 26.41 22.39C29.06 22.82 30.85 25.31 30.41 27.94C29.97 30.57 27.47 32.35 24.82 31.91ZM24.76 32.29C27.62 32.76 30.32 30.84 30.79 28C31.26 25.16 29.33 22.48 26.47 22.01C23.61 21.54 20.91 23.46 20.44 26.3C19.97 29.14 21.9 31.82 24.76 32.29Z" fill="#FD4D2F" fill-opacity="1.000000" fill-rule="nonzero"/>
		<path id="path64" d="M20.82 26.36C21.26 23.73 23.76 21.95 26.41 22.39C29.06 22.82 30.85 25.31 30.41 27.94C29.97 30.57 27.47 32.35 24.82 31.91C22.17 31.48 20.38 28.99 20.82 26.36ZM30.79 28C31.26 25.16 29.33 22.48 26.47 22.01C23.61 21.54 20.91 23.46 20.44 26.3C19.97 29.14 21.9 31.82 24.76 32.29C27.62 32.76 30.32 30.84 30.79 28Z" stroke="#000000" stroke-opacity="0" stroke-width="0.133333"/>
		<path id="path66" d="M24.78 32.16C21.99 31.71 20.11 29.09 20.57 26.32C21.03 23.55 23.66 21.68 26.45 22.14C29.24 22.6 31.12 25.21 30.66 27.98C30.2 30.75 27.57 32.62 24.78 32.16ZM24.72 32.54C27.71 33.03 30.55 31.02 31.04 28.04C31.54 25.07 29.51 22.26 26.51 21.76C23.52 21.27 20.68 23.28 20.19 26.26C19.69 29.24 21.72 32.05 24.72 32.54Z" fill="#FD4D2F" fill-opacity="1.000000" fill-rule="nonzero"/>
		<path id="path66" d="M20.57 26.32C21.03 23.55 23.66 21.68 26.45 22.14C29.24 22.6 31.12 25.21 30.66 27.98C30.2 30.75 27.57 32.62 24.78 32.16C21.99 31.71 20.11 29.09 20.57 26.32ZM31.04 28.04C31.54 25.07 29.51 22.26 26.51 21.76C23.52 21.27 20.68 23.28 20.19 26.26C19.69 29.24 21.72 32.05 24.72 32.54C27.71 33.03 30.55 31.02 31.04 28.04Z" stroke="#000000" stroke-opacity="0" stroke-width="0.133333"/>
		<path id="path68" d="M24.74 32.42C21.81 31.93 19.83 29.19 20.31 26.28C20.8 23.37 23.57 21.41 26.49 21.89C29.42 22.37 31.4 25.12 30.92 28.02C30.43 30.93 27.66 32.9 24.74 32.42ZM24.67 32.79C27.81 33.31 30.77 31.2 31.29 28.09C31.81 24.97 29.69 22.03 26.56 21.51C23.42 21 20.46 23.1 19.94 26.22C19.42 29.33 21.54 32.28 24.67 32.79Z" fill="#FD4D2F" fill-opacity="1.000000" fill-rule="nonzero"/>
		<path id="path68" d="M20.31 26.28C20.8 23.37 23.57 21.41 26.49 21.89C29.42 22.37 31.4 25.12 30.92 28.02C30.43 30.93 27.66 32.9 24.74 32.42C21.81 31.93 19.83 29.19 20.31 26.28ZM31.29 28.09C31.81 24.97 29.69 22.03 26.56 21.51C23.42 21 20.46 23.1 19.94 26.22C19.42 29.33 21.54 32.28 24.67 32.79C27.81 33.31 30.77 31.2 31.29 28.09Z" stroke="#000000" stroke-opacity="0" stroke-width="0.133333"/>
		<path id="path70" d="M24.7 32.67C21.63 32.16 19.55 29.28 20.06 26.24C20.57 23.19 23.47 21.13 26.53 21.64C29.6 22.14 31.68 25.02 31.17 28.06C30.66 31.11 27.76 33.17 24.7 32.67ZM24.63 33.04C27.91 33.58 31 31.38 31.55 28.13C32.09 24.87 29.87 21.8 26.6 21.26C23.32 20.72 20.23 22.92 19.68 26.18C19.14 29.43 21.36 32.5 24.63 33.04Z" fill="#FD4D2E" fill-opacity="1.000000" fill-rule="nonzero"/>
		<path id="path70" d="M20.06 26.24C20.57 23.19 23.47 21.13 26.53 21.64C29.6 22.14 31.68 25.02 31.17 28.06C30.66 31.11 27.76 33.17 24.7 32.67C21.63 32.16 19.55 29.28 20.06 26.24ZM31.55 28.13C32.09 24.87 29.87 21.8 26.6 21.26C23.32 20.72 20.23 22.92 19.68 26.18C19.14 29.43 21.36 32.5 24.63 33.04C27.91 33.58 31 31.38 31.55 28.13Z" stroke="#000000" stroke-opacity="0" stroke-width="0.133333"/>
		<path id="path72" d="M24.65 32.92C21.45 32.39 19.28 29.38 19.81 26.2C20.34 23.01 23.37 20.86 26.58 21.39C29.78 21.91 31.95 24.92 31.42 28.11C30.89 31.29 27.86 33.44 24.65 32.92ZM24.59 33.29C28.01 33.85 31.23 31.56 31.8 28.17C32.36 24.78 30.05 21.57 26.64 21.01C23.22 20.45 20 22.74 19.43 26.13C18.87 29.53 21.18 32.73 24.59 33.29Z" fill="#FD4D2E" fill-opacity="1.000000" fill-rule="nonzero"/>
		<path id="path72" d="M19.81 26.2C20.34 23.01 23.37 20.86 26.58 21.39C29.78 21.91 31.95 24.92 31.42 28.11C30.89 31.29 27.86 33.44 24.65 32.92C21.45 32.39 19.28 29.38 19.81 26.2ZM31.8 28.17C32.36 24.78 30.05 21.57 26.64 21.01C23.22 20.45 20 22.74 19.43 26.13C18.87 29.53 21.18 32.73 24.59 33.29C28.01 33.85 31.23 31.56 31.8 28.17Z" stroke="#000000" stroke-opacity="0" stroke-width="0.133333"/>
		<path id="path74" d="M24.61 33.17C21.27 32.62 19 29.48 19.56 26.16C20.11 22.83 23.27 20.59 26.62 21.14C29.96 21.69 32.23 24.83 31.67 28.15C31.12 31.47 27.96 33.72 24.61 33.17ZM24.55 33.54C28.1 34.13 31.46 31.74 32.05 28.21C32.64 24.68 30.23 21.34 26.68 20.76C23.13 20.18 19.77 22.56 19.18 26.09C18.59 29.62 21 32.96 24.55 33.54Z" fill="#FD4D2E" fill-opacity="1.000000" fill-rule="nonzero"/>
		<path id="path74" d="M19.56 26.16C20.11 22.83 23.27 20.59 26.62 21.14C29.96 21.69 32.23 24.83 31.67 28.15C31.12 31.47 27.96 33.72 24.61 33.17C21.27 32.62 19 29.48 19.56 26.16ZM32.05 28.21C32.64 24.68 30.23 21.34 26.68 20.76C23.13 20.18 19.77 22.56 19.18 26.09C18.59 29.62 21 32.96 24.55 33.54C28.1 34.13 31.46 31.74 32.05 28.21Z" stroke="#000000" stroke-opacity="0" stroke-width="0.133333"/>
		<path id="path76" d="M24.57 33.42C21.09 32.84 18.73 29.57 19.31 26.11C19.88 22.65 23.17 20.31 26.66 20.89C30.14 21.46 32.5 24.73 31.92 28.19C31.35 31.65 28.06 33.99 24.57 33.42ZM24.51 33.79C28.2 34.4 31.69 31.92 32.3 28.25C32.91 24.58 30.42 21.12 26.72 20.51C23.03 19.9 19.54 22.38 18.93 26.05C18.32 29.72 20.81 33.19 24.51 33.79Z" fill="#FD4D2E" fill-opacity="1.000000" fill-rule="nonzero"/>
		<path id="path76" d="M19.31 26.11C19.88 22.65 23.17 20.31 26.66 20.89C30.14 21.46 32.5 24.73 31.92 28.19C31.35 31.65 28.06 33.99 24.57 33.42C21.09 32.84 18.73 29.57 19.31 26.11ZM32.3 28.25C32.91 24.58 30.42 21.12 26.72 20.51C23.03 19.9 19.54 22.38 18.93 26.05C18.32 29.72 20.81 33.19 24.51 33.79C28.2 34.4 31.69 31.92 32.3 28.25Z" stroke="#000000" stroke-opacity="0" stroke-width="0.133333"/>
		<path id="path78" d="M24.53 33.67C20.9 33.07 18.45 29.67 19.05 26.07C19.65 22.47 23.08 20.04 26.7 20.63C30.33 21.23 32.78 24.63 32.18 28.23C31.58 31.83 28.15 34.26 24.53 33.67ZM24.47 34.04C28.3 34.67 31.92 32.1 32.56 28.29C33.19 24.49 30.6 20.89 26.76 20.26C22.93 19.63 19.31 22.2 18.67 26.01C18.04 29.82 20.63 33.41 24.47 34.04Z" fill="#FD4D2E" fill-opacity="1.000000" fill-rule="nonzero"/>
		<path id="path78" d="M19.05 26.07C19.65 22.47 23.08 20.04 26.7 20.63C30.33 21.23 32.78 24.63 32.18 28.23C31.58 31.83 28.15 34.26 24.53 33.67C20.9 33.07 18.45 29.67 19.05 26.07ZM32.56 28.29C33.19 24.49 30.6 20.89 26.76 20.26C22.93 19.63 19.31 22.2 18.67 26.01C18.04 29.82 20.63 33.41 24.47 34.04C28.3 34.67 31.92 32.1 32.56 28.29Z" stroke="#000000" stroke-opacity="0" stroke-width="0.133333"/>
		<path id="path80" d="M24.49 33.92C20.72 33.3 18.18 29.77 18.8 26.03C19.42 22.29 22.98 19.77 26.74 20.38C30.51 21 33.05 24.53 32.43 28.27C31.81 32.01 28.25 34.54 24.49 33.92ZM24.42 34.29C28.4 34.95 32.15 32.28 32.81 28.33C33.47 24.39 30.78 20.66 26.81 20.01C22.83 19.36 19.08 22.02 18.42 25.97C17.76 29.91 20.45 33.64 24.42 34.29Z" fill="#FD4C2E" fill-opacity="1.000000" fill-rule="nonzero"/>
		<path id="path80" d="M18.8 26.03C19.42 22.29 22.98 19.77 26.74 20.38C30.51 21 33.05 24.53 32.43 28.27C31.81 32.01 28.25 34.54 24.49 33.92C20.72 33.3 18.18 29.77 18.8 26.03ZM32.81 28.33C33.47 24.39 30.78 20.66 26.81 20.01C22.83 19.36 19.08 22.02 18.42 25.97C17.76 29.91 20.45 33.64 24.42 34.29C28.4 34.95 32.15 32.28 32.81 28.33Z" stroke="#000000" stroke-opacity="0" stroke-width="0.133333"/>
		<path id="path82" d="M24.44 34.17C20.54 33.53 17.9 29.87 18.55 25.99C19.19 22.11 22.88 19.49 26.79 20.13C30.69 20.78 33.33 24.44 32.68 28.31C32.04 32.19 28.35 34.81 24.44 34.17ZM24.38 34.55C28.49 35.22 32.38 32.46 33.06 28.38C33.74 24.29 30.96 20.43 26.85 19.76C22.74 19.08 18.85 21.84 18.17 25.93C17.49 30.01 20.27 33.87 24.38 34.55Z" fill="#FD4C2D" fill-opacity="1.000000" fill-rule="nonzero"/>
		<path id="path82" d="M18.55 25.99C19.19 22.11 22.88 19.49 26.79 20.13C30.69 20.78 33.33 24.44 32.68 28.31C32.04 32.19 28.35 34.81 24.44 34.17C20.54 33.53 17.9 29.87 18.55 25.99ZM33.06 28.38C33.74 24.29 30.96 20.43 26.85 19.76C22.74 19.08 18.85 21.84 18.17 25.93C17.49 30.01 20.27 33.87 24.38 34.55C28.49 35.22 32.38 32.46 33.06 28.38Z" stroke="#000000" stroke-opacity="0" stroke-width="0.133333"/>
		<path id="path84" d="M24.4 34.42C20.36 33.76 17.63 29.96 18.3 25.95C18.96 21.93 22.78 19.22 26.83 19.88C30.87 20.55 33.6 24.34 32.93 28.36C32.26 32.37 28.45 35.09 24.4 34.42ZM24.34 34.8C28.59 35.5 32.61 32.64 33.31 28.42C34.02 24.2 31.14 20.21 26.89 19.51C22.64 18.81 18.62 21.66 17.92 25.89C17.21 30.11 20.09 34.1 24.34 34.8Z" fill="#FD4C2D" fill-opacity="1.000000" fill-rule="nonzero"/>
		<path id="path84" d="M18.3 25.95C18.96 21.93 22.78 19.22 26.83 19.88C30.87 20.55 33.6 24.34 32.93 28.36C32.26 32.37 28.45 35.09 24.4 34.42C20.36 33.76 17.63 29.96 18.3 25.95ZM33.31 28.42C34.02 24.2 31.14 20.21 26.89 19.51C22.64 18.81 18.62 21.66 17.92 25.89C17.21 30.11 20.09 34.1 24.34 34.8C28.59 35.5 32.61 32.64 33.31 28.42Z" stroke="#000000" stroke-opacity="0" stroke-width="0.133333"/>
		<path id="path86" d="M24.36 34.67C20.18 33.98 17.35 30.06 18.04 25.91C18.74 21.75 22.69 18.94 26.87 19.63C31.05 20.32 33.88 24.24 33.19 28.4C32.49 32.55 28.54 35.36 24.36 34.67ZM24.3 35.05C28.69 35.77 32.84 32.82 33.56 28.46C34.29 24.1 31.32 19.98 26.93 19.26C22.54 18.53 18.39 21.48 17.66 25.84C16.94 30.21 19.91 34.33 24.3 35.05Z" fill="#FD4C2D" fill-opacity="1.000000" fill-rule="nonzero"/>
		<path id="path86" d="M18.04 25.91C18.74 21.75 22.69 18.94 26.87 19.63C31.05 20.32 33.88 24.24 33.19 28.4C32.49 32.55 28.54 35.36 24.36 34.67C20.18 33.98 17.35 30.06 18.04 25.91ZM33.56 28.46C34.29 24.1 31.32 19.98 26.93 19.26C22.54 18.53 18.39 21.48 17.66 25.84C16.94 30.21 19.91 34.33 24.3 35.05C28.69 35.77 32.84 32.82 33.56 28.46Z" stroke="#000000" stroke-opacity="0" stroke-width="0.133333"/>
		<path id="path88" d="M24.32 34.92C20 34.21 17.08 30.16 17.79 25.87C18.51 21.57 22.59 18.67 26.91 19.38C31.23 20.09 34.15 24.15 33.44 28.44C32.72 32.73 28.64 35.63 24.32 34.92ZM24.26 35.3C28.79 36.04 33.07 33 33.82 28.5C34.57 24 31.5 19.75 26.97 19.01C22.44 18.26 18.16 21.3 17.41 25.8C16.66 30.3 19.73 34.55 24.26 35.3Z" fill="#FD4C2D" fill-opacity="1.000000" fill-rule="nonzero"/>
		<path id="path88" d="M17.79 25.87C18.51 21.57 22.59 18.67 26.91 19.38C31.23 20.09 34.15 24.15 33.44 28.44C32.72 32.73 28.64 35.63 24.32 34.92C20 34.21 17.08 30.16 17.79 25.87ZM33.82 28.5C34.57 24 31.5 19.75 26.97 19.01C22.44 18.26 18.16 21.3 17.41 25.8C16.66 30.3 19.73 34.55 24.26 35.3C28.79 36.04 33.07 33 33.82 28.5Z" stroke="#000000" stroke-opacity="0" stroke-width="0.133333"/>
		<path id="path90" d="M24.28 35.17C19.82 34.44 16.8 30.25 17.54 25.82C18.28 21.39 22.49 18.4 26.95 19.13C31.41 19.86 34.43 24.05 33.69 28.48C32.95 32.91 28.74 35.91 24.28 35.17ZM24.22 35.55C28.88 36.32 33.3 33.18 34.07 28.54C34.84 23.9 31.68 19.52 27.01 18.75C22.35 17.99 17.93 21.12 17.16 25.76C16.39 30.4 19.55 34.78 24.22 35.55Z" fill="#FD4C2D" fill-opacity="1.000000" fill-rule="nonzero"/>
		<path id="path90" d="M17.54 25.82C18.28 21.39 22.49 18.4 26.95 19.13C31.41 19.86 34.43 24.05 33.69 28.48C32.95 32.91 28.74 35.91 24.28 35.17C19.82 34.44 16.8 30.25 17.54 25.82ZM34.07 28.54C34.84 23.9 31.68 19.52 27.01 18.75C22.35 17.99 17.93 21.12 17.16 25.76C16.39 30.4 19.55 34.78 24.22 35.55C28.88 36.32 33.3 33.18 34.07 28.54Z" stroke="#000000" stroke-opacity="0" stroke-width="0.133333"/>
		<path id="path92" d="M24.24 35.42C19.64 34.67 16.52 30.35 17.29 25.78C18.05 21.21 22.39 18.12 26.99 18.88C31.59 19.64 34.71 23.95 33.94 28.52C33.18 33.09 28.84 36.18 24.24 35.42ZM24.17 35.8C28.98 36.59 33.53 33.36 34.32 28.58C35.12 23.81 31.87 19.29 27.06 18.5C22.25 17.71 17.7 20.94 16.91 25.72C16.11 30.5 19.36 35.01 24.17 35.8Z" fill="#FD4C2D" fill-opacity="1.000000" fill-rule="nonzero"/>
		<path id="path92" d="M17.29 25.78C18.05 21.21 22.39 18.12 26.99 18.88C31.59 19.64 34.71 23.95 33.94 28.52C33.18 33.09 28.84 36.18 24.24 35.42C19.64 34.67 16.52 30.35 17.29 25.78ZM34.32 28.58C35.12 23.81 31.87 19.29 27.06 18.5C22.25 17.71 17.7 20.94 16.91 25.72C16.11 30.5 19.36 35.01 24.17 35.8C28.98 36.59 33.53 33.36 34.32 28.58Z" stroke="#000000" stroke-opacity="0" stroke-width="0.133333"/>
		<path id="path94" d="M24.19 35.67C19.45 34.89 16.25 30.45 17.03 25.74C17.82 21.03 22.3 17.85 27.04 18.63C31.77 19.41 34.98 23.86 34.2 28.56C33.41 33.27 28.93 36.45 24.19 35.67ZM24.13 36.05C29.08 36.86 33.76 33.54 34.57 28.62C35.39 23.71 32.05 19.07 27.1 18.25C22.15 17.44 17.47 20.76 16.66 25.68C15.84 30.59 19.18 35.24 24.13 36.05Z" fill="#FD4B2C" fill-opacity="1.000000" fill-rule="nonzero"/>
		<path id="path94" d="M17.03 25.74C17.82 21.03 22.3 17.85 27.04 18.63C31.77 19.41 34.98 23.86 34.2 28.56C33.41 33.27 28.93 36.45 24.19 35.67C19.45 34.89 16.25 30.45 17.03 25.74ZM34.57 28.62C35.39 23.71 32.05 19.07 27.1 18.25C22.15 17.44 17.47 20.76 16.66 25.68C15.84 30.59 19.18 35.24 24.13 36.05C29.08 36.86 33.76 33.54 34.57 28.62Z" stroke="#000000" stroke-opacity="0" stroke-width="0.133333"/>
		<path id="path96" d="M24.15 35.92C19.27 35.12 15.97 30.54 16.78 25.7C17.59 20.85 22.2 17.58 27.08 18.38C31.96 19.18 35.26 23.76 34.45 28.6C33.64 33.45 29.03 36.73 24.15 35.92ZM24.09 36.3C29.18 37.14 33.98 33.72 34.83 28.67C35.67 23.61 32.23 18.84 27.14 18C22.05 17.17 17.25 20.58 16.4 25.64C15.56 30.69 19 35.46 24.09 36.3Z" fill="#FD4B2C" fill-opacity="1.000000" fill-rule="nonzero"/>
		<path id="path96" d="M16.78 25.7C17.59 20.85 22.2 17.58 27.08 18.38C31.96 19.18 35.26 23.76 34.45 28.6C33.64 33.45 29.03 36.73 24.15 35.92C19.27 35.12 15.97 30.54 16.78 25.7ZM34.83 28.67C35.67 23.61 32.23 18.84 27.14 18C22.05 17.17 17.25 20.58 16.4 25.64C15.56 30.69 19 35.46 24.09 36.3C29.18 37.14 33.98 33.72 34.83 28.67Z" stroke="#000000" stroke-opacity="0" stroke-width="0.133333"/>
		<path id="path98" d="M24.11 36.17C19.09 35.35 15.7 30.64 16.53 25.66C17.36 20.67 22.1 17.3 27.12 18.13C32.14 18.95 35.53 23.66 34.7 28.65C33.87 33.63 29.13 37 24.11 36.17ZM24.05 36.55C29.28 37.41 34.21 33.9 35.08 28.71C35.94 23.52 32.41 18.61 27.18 17.75C21.95 16.89 17.02 20.4 16.15 25.6C15.29 30.79 18.82 35.69 24.05 36.55Z" fill="#FD4B2C" fill-opacity="1.000000" fill-rule="nonzero"/>
		<path id="path98" d="M16.53 25.66C17.36 20.67 22.1 17.3 27.12 18.13C32.14 18.95 35.53 23.66 34.7 28.65C33.87 33.63 29.13 37 24.11 36.17C19.09 35.35 15.7 30.64 16.53 25.66ZM35.08 28.71C35.94 23.52 32.41 18.61 27.18 17.75C21.95 16.89 17.02 20.4 16.15 25.6C15.29 30.79 18.82 35.69 24.05 36.55C29.28 37.41 34.21 33.9 35.08 28.71Z" stroke="#000000" stroke-opacity="0" stroke-width="0.133333"/>
		<path id="path100" d="M24.07 36.43C18.91 35.58 15.42 30.74 16.28 25.62C17.13 20.49 22 17.03 27.16 17.88C32.32 18.73 35.81 23.57 34.95 28.69C34.1 33.81 29.23 37.27 24.07 36.43ZM24.01 36.8C29.37 37.68 34.44 34.08 35.33 28.75C36.22 23.42 32.59 18.38 27.22 17.5C21.86 16.62 16.79 20.22 15.9 25.55C15.01 30.88 18.64 35.92 24.01 36.8Z" fill="#FD4B2C" fill-opacity="1.000000" fill-rule="nonzero"/>
		<path id="path100" d="M16.28 25.62C17.13 20.49 22 17.03 27.16 17.88C32.32 18.73 35.81 23.57 34.95 28.69C34.1 33.81 29.23 37.27 24.07 36.43C18.91 35.58 15.42 30.74 16.28 25.62ZM35.33 28.75C36.22 23.42 32.59 18.38 27.22 17.5C21.86 16.62 16.79 20.22 15.9 25.55C15.01 30.88 18.64 35.92 24.01 36.8C29.37 37.68 34.44 34.08 35.33 28.75Z" stroke="#000000" stroke-opacity="0" stroke-width="0.133333"/>
		<path id="path102" d="M24.03 36.68C18.73 35.81 15.15 30.83 16.02 25.57C16.9 20.31 21.91 16.76 27.2 17.63C32.5 18.5 36.08 23.47 35.21 28.73C34.33 33.99 29.32 37.55 24.03 36.68ZM23.96 37.05C29.47 37.96 34.67 34.26 35.58 28.79C36.5 23.32 32.77 18.16 27.27 17.25C21.76 16.35 16.56 20.04 15.65 25.51C14.73 30.98 18.46 36.15 23.96 37.05Z" fill="#FD4B2C" fill-opacity="1.000000" fill-rule="nonzero"/>
		<path id="path102" d="M16.02 25.57C16.9 20.31 21.91 16.76 27.2 17.63C32.5 18.5 36.08 23.47 35.21 28.73C34.33 33.99 29.32 37.55 24.03 36.68C18.73 35.81 15.15 30.83 16.02 25.57ZM35.58 28.79C36.5 23.32 32.77 18.16 27.27 17.25C21.76 16.35 16.56 20.04 15.65 25.51C14.73 30.98 18.46 36.15 23.96 37.05C29.47 37.96 34.67 34.26 35.58 28.79Z" stroke="#000000" stroke-opacity="0" stroke-width="0.133333"/>
		<path id="path104" d="M23.99 36.93C18.55 36.03 14.87 30.93 15.77 25.53C16.67 20.13 21.81 16.48 27.24 17.38C32.68 18.27 36.36 23.37 35.46 28.77C34.56 34.17 29.42 37.82 23.99 36.93ZM23.92 37.3C29.57 38.23 34.9 34.44 35.84 28.83C36.77 23.23 32.95 17.93 27.31 17C21.66 16.07 16.33 19.86 15.39 25.47C14.46 31.08 18.28 36.37 23.92 37.3Z" fill="#FD4B2C" fill-opacity="1.000000" fill-rule="nonzero"/>
		<path id="path104" d="M15.77 25.53C16.67 20.13 21.81 16.48 27.24 17.38C32.68 18.27 36.36 23.37 35.46 28.77C34.56 34.17 29.42 37.82 23.99 36.93C18.55 36.03 14.87 30.93 15.77 25.53ZM35.84 28.83C36.77 23.23 32.95 17.93 27.31 17C21.66 16.07 16.33 19.86 15.39 25.47C14.46 31.08 18.28 36.37 23.92 37.3C29.57 38.23 34.9 34.44 35.84 28.83Z" stroke="#000000" stroke-opacity="0" stroke-width="0.133333"/>
		<path id="path106" d="M23.94 37.18C18.37 36.26 14.6 31.03 15.52 25.49C16.44 19.95 21.71 16.21 27.29 17.13C32.86 18.04 36.63 23.27 35.71 28.81C34.79 34.35 29.52 38.09 23.94 37.18ZM23.88 37.55C29.67 38.5 35.13 34.62 36.09 28.87C37.05 23.13 33.13 17.7 27.35 16.75C21.56 15.8 16.1 19.68 15.14 25.43C14.18 31.17 18.1 36.6 23.88 37.55Z" fill="#FD4B2B" fill-opacity="1.000000" fill-rule="nonzero"/>
		<path id="path106" d="M15.52 25.49C16.44 19.95 21.71 16.21 27.29 17.13C32.86 18.04 36.63 23.27 35.71 28.81C34.79 34.35 29.52 38.09 23.94 37.18C18.37 36.26 14.6 31.03 15.52 25.49ZM36.09 28.87C37.05 23.13 33.13 17.7 27.35 16.75C21.56 15.8 16.1 19.68 15.14 25.43C14.18 31.17 18.1 36.6 23.88 37.55C29.67 38.5 35.13 34.62 36.09 28.87Z" stroke="#000000" stroke-opacity="0" stroke-width="0.133333"/>
		<path id="path108" d="M23.9 37.43C18.19 36.49 14.32 31.13 15.27 25.45C16.21 19.77 21.61 15.94 27.33 16.87C33.04 17.81 36.91 23.18 35.96 28.85C35.02 34.53 29.62 38.37 23.9 37.43ZM23.84 37.8C29.76 38.78 35.36 34.8 36.34 28.92C37.32 23.03 33.31 17.47 27.39 16.5C21.47 15.53 15.87 19.5 14.89 25.39C13.91 31.27 17.92 36.83 23.84 37.8Z" fill="#FD4B2B" fill-opacity="1.000000" fill-rule="nonzero"/>
		<path id="path108" d="M15.27 25.45C16.21 19.77 21.61 15.94 27.33 16.87C33.04 17.81 36.91 23.18 35.96 28.85C35.02 34.53 29.62 38.37 23.9 37.43C18.19 36.49 14.32 31.13 15.27 25.45ZM36.34 28.92C37.32 23.03 33.31 17.47 27.39 16.5C21.47 15.53 15.87 19.5 14.89 25.39C13.91 31.27 17.92 36.83 23.84 37.8C29.76 38.78 35.36 34.8 36.34 28.92Z" stroke="#000000" stroke-opacity="0" stroke-width="0.133333"/>
		<path id="path110" d="M23.86 37.68C18.01 36.72 14.05 31.22 15.01 25.41C15.98 19.59 21.52 15.66 27.37 16.62C33.22 17.59 37.18 23.08 36.22 28.89C35.25 34.71 29.71 38.64 23.86 37.68ZM23.8 38.05C29.86 39.05 35.59 34.98 36.59 28.96C37.6 22.93 33.5 17.25 27.43 16.25C21.37 15.25 15.64 19.32 14.64 25.35C13.63 31.37 17.73 37.06 23.8 38.05Z" fill="#FD4A2B" fill-opacity="1.000000" fill-rule="nonzero"/>
		<path id="path110" d="M15.01 25.41C15.98 19.59 21.52 15.66 27.37 16.62C33.22 17.59 37.18 23.08 36.22 28.89C35.25 34.71 29.71 38.64 23.86 37.68C18.01 36.72 14.05 31.22 15.01 25.41ZM36.59 28.96C37.6 22.93 33.5 17.25 27.43 16.25C21.37 15.25 15.64 19.32 14.64 25.35C13.63 31.37 17.73 37.06 23.8 38.05C29.86 39.05 35.59 34.98 36.59 28.96Z" stroke="#000000" stroke-opacity="0" stroke-width="0.133333"/>
		<path id="path112" d="M23.82 37.93C17.82 36.94 13.77 31.32 14.76 25.37C15.75 19.41 21.42 15.39 27.41 16.37C33.41 17.36 37.46 22.98 36.47 28.94C35.48 34.89 29.81 38.91 23.82 37.93ZM23.76 38.31C29.96 39.33 35.82 35.16 36.85 29C37.87 22.84 33.68 17.02 27.47 16C21.27 14.98 15.41 19.14 14.38 25.3C13.36 31.46 17.55 37.29 23.76 38.31Z" fill="#FD4A2B" fill-opacity="1.000000" fill-rule="nonzero"/>
		<path id="path112" d="M14.76 25.37C15.75 19.41 21.42 15.39 27.41 16.37C33.41 17.36 37.46 22.98 36.47 28.94C35.48 34.89 29.81 38.91 23.82 37.93C17.82 36.94 13.77 31.32 14.76 25.37ZM36.85 29C37.87 22.84 33.68 17.02 27.47 16C21.27 14.98 15.41 19.14 14.38 25.3C13.36 31.46 17.55 37.29 23.76 38.31C29.96 39.33 35.82 35.16 36.85 29Z" stroke="#000000" stroke-opacity="0" stroke-width="0.133333"/>
		<path id="path114" d="M23.78 38.18C17.64 37.17 13.49 31.42 14.51 25.33C15.53 19.23 21.32 15.11 27.45 16.12C33.59 17.13 37.74 22.89 36.72 28.98C35.7 35.07 29.91 39.19 23.78 38.18ZM23.71 38.56C30.06 39.6 36.05 35.34 37.1 29.04C38.15 22.74 33.86 16.79 27.52 15.75C21.17 14.7 15.18 18.96 14.13 25.26C13.08 31.56 17.37 37.51 23.71 38.56Z" fill="#FD4A2B" fill-opacity="1.000000" fill-rule="nonzero"/>
		<path id="path114" d="M14.51 25.33C15.53 19.23 21.32 15.11 27.45 16.12C33.59 17.13 37.74 22.89 36.72 28.98C35.7 35.07 29.91 39.19 23.78 38.18C17.64 37.17 13.49 31.42 14.51 25.33ZM37.1 29.04C38.15 22.74 33.86 16.79 27.52 15.75C21.17 14.7 15.18 18.96 14.13 25.26C13.08 31.56 17.37 37.51 23.71 38.56C30.06 39.6 36.05 35.34 37.1 29.04Z" stroke="#000000" stroke-opacity="0" stroke-width="0.133333"/>
		<path id="path116" d="M23.73 38.43C17.46 37.4 13.22 31.51 14.26 25.28C15.3 19.05 21.22 14.84 27.5 15.87C33.77 16.9 38.01 22.79 36.97 29.02C35.93 35.25 30.01 39.46 23.73 38.43ZM23.67 38.81C30.15 39.87 36.28 35.52 37.35 29.08C38.42 22.64 34.04 16.56 27.56 15.5C21.08 14.43 14.95 18.79 13.88 25.22C12.81 31.66 17.19 37.74 23.67 38.81Z" fill="#FD4A2B" fill-opacity="1.000000" fill-rule="nonzero"/>
		<path id="path116" d="M14.26 25.28C15.3 19.05 21.22 14.84 27.5 15.87C33.77 16.9 38.01 22.79 36.97 29.02C35.93 35.25 30.01 39.46 23.73 38.43C17.46 37.4 13.22 31.51 14.26 25.28ZM37.35 29.08C38.42 22.64 34.04 16.56 27.56 15.5C21.08 14.43 14.95 18.79 13.88 25.22C12.81 31.66 17.19 37.74 23.67 38.81C30.15 39.87 36.28 35.52 37.35 29.08Z" stroke="#000000" stroke-opacity="0" stroke-width="0.133333"/>
		<path id="path118" d="M23.69 38.68C17.28 37.63 12.94 31.61 14.01 25.24C15.07 18.87 21.13 14.57 27.54 15.62C33.95 16.68 38.29 22.69 37.22 29.06C36.16 35.43 30.1 39.74 23.69 38.68ZM23.63 39.06C30.25 40.15 36.51 35.7 37.6 29.12C38.7 22.55 34.22 16.33 27.6 15.25C20.98 14.16 14.72 18.61 13.63 25.18C12.53 31.76 17.01 37.97 23.63 39.06Z" fill="#FD4A2A" fill-opacity="1.000000" fill-rule="nonzero"/>
		<path id="path118" d="M14.01 25.24C15.07 18.87 21.13 14.57 27.54 15.62C33.95 16.68 38.29 22.69 37.22 29.06C36.16 35.43 30.1 39.74 23.69 38.68C17.28 37.63 12.94 31.61 14.01 25.24ZM37.6 29.12C38.7 22.55 34.22 16.33 27.6 15.25C20.98 14.16 14.72 18.61 13.63 25.18C12.53 31.76 17.01 37.97 23.63 39.06C30.25 40.15 36.51 35.7 37.6 29.12Z" stroke="#000000" stroke-opacity="0" stroke-width="0.133333"/>
		<path id="path120" d="M23.65 38.93C17.1 37.85 12.67 31.71 13.75 25.2C14.84 18.69 21.03 14.29 27.58 15.37C34.13 16.45 38.56 22.6 37.48 29.1C36.39 35.61 30.2 40.01 23.65 38.93ZM23.59 39.31C30.35 40.42 36.74 35.88 37.86 29.16C38.97 22.45 34.4 16.11 27.64 15C20.88 13.88 14.49 18.43 13.37 25.14C12.26 31.85 16.83 38.2 23.59 39.31Z" fill="#FD4A2A" fill-opacity="1.000000" fill-rule="nonzero"/>
		<path id="path120" d="M13.75 25.2C14.84 18.69 21.03 14.29 27.58 15.37C34.13 16.45 38.56 22.6 37.48 29.1C36.39 35.61 30.2 40.01 23.65 38.93C17.1 37.85 12.67 31.71 13.75 25.2ZM37.86 29.16C38.97 22.45 34.4 16.11 27.64 15C20.88 13.88 14.49 18.43 13.37 25.14C12.26 31.85 16.83 38.2 23.59 39.31C30.35 40.42 36.74 35.88 37.86 29.16Z" stroke="#000000" stroke-opacity="0" stroke-width="0.133333"/>
		<path id="path122" d="M23.61 39.18C16.92 38.08 12.39 31.8 13.5 25.16C14.61 18.52 20.93 14.02 27.62 15.12C34.31 16.22 38.84 22.5 37.73 29.14C36.62 35.79 30.3 40.28 23.61 39.18ZM23.55 39.56C30.45 40.69 36.97 36.06 38.11 29.21C39.25 22.35 34.58 15.88 27.68 14.74C20.78 13.61 14.26 18.24 13.12 25.1C11.98 31.95 16.65 38.42 23.55 39.56Z" fill="#FD4A2A" fill-opacity="1.000000" fill-rule="nonzero"/>
		<path id="path122" d="M13.5 25.16C14.61 18.52 20.93 14.02 27.62 15.12C34.31 16.22 38.84 22.5 37.73 29.14C36.62 35.79 30.3 40.28 23.61 39.18C16.92 38.08 12.39 31.8 13.5 25.16ZM38.11 29.21C39.25 22.35 34.58 15.88 27.68 14.74C20.78 13.61 14.26 18.24 13.12 25.1C11.98 31.95 16.65 38.42 23.55 39.56C30.45 40.69 36.97 36.06 38.11 29.21Z" stroke="#000000" stroke-opacity="0" stroke-width="0.133333"/>
		<path id="path124" d="M23.57 39.43C16.74 38.31 12.12 31.9 13.25 25.12C14.38 18.34 20.83 13.75 27.66 14.87C34.49 15.99 39.11 22.4 37.98 29.18C36.85 35.97 30.4 40.56 23.57 39.43ZM23.5 39.81C30.54 40.97 37.2 36.24 38.36 29.25C39.53 22.26 34.76 15.65 27.73 14.49C20.69 13.34 14.04 18.07 12.87 25.06C11.7 32.05 16.47 38.65 23.5 39.81Z" fill="#FD492A" fill-opacity="1.000000" fill-rule="nonzero"/>
		<path id="path124" d="M13.25 25.12C14.38 18.34 20.83 13.75 27.66 14.87C34.49 15.99 39.11 22.4 37.98 29.18C36.85 35.97 30.4 40.56 23.57 39.43C16.74 38.31 12.12 31.9 13.25 25.12ZM38.36 29.25C39.53 22.26 34.76 15.65 27.73 14.49C20.69 13.34 14.04 18.07 12.87 25.06C11.7 32.05 16.47 38.65 23.5 39.81C30.54 40.97 37.2 36.24 38.36 29.25Z" stroke="#000000" stroke-opacity="0" stroke-width="0.133333"/>
		<path id="path126" d="M23.53 39.68C16.56 38.54 11.84 32 13 25.08C14.15 18.16 20.73 13.47 27.7 14.62C34.67 15.77 39.39 22.31 38.23 29.23C37.08 36.15 30.5 40.83 23.53 39.68ZM23.46 40.06C30.64 41.24 37.42 36.42 38.61 29.29C39.8 22.16 34.95 15.42 27.77 14.24C20.59 13.06 13.81 17.89 12.62 25.01C11.43 32.14 16.28 38.88 23.46 40.06Z" fill="#FD492A" fill-opacity="1.000000" fill-rule="nonzero"/>
		<path id="path126" d="M13 25.08C14.15 18.16 20.73 13.47 27.7 14.62C34.67 15.77 39.39 22.31 38.23 29.23C37.08 36.15 30.5 40.83 23.53 39.68C16.56 38.54 11.84 32 13 25.08ZM38.61 29.29C39.8 22.16 34.95 15.42 27.77 14.24C20.59 13.06 13.81 17.89 12.62 25.01C11.43 32.14 16.28 38.88 23.46 40.06C30.64 41.24 37.42 36.42 38.61 29.29Z" stroke="#000000" stroke-opacity="0" stroke-width="0.133333"/>
		<path id="path128" d="M23.48 39.93C16.38 38.77 11.57 32.09 12.74 25.04C13.92 17.98 20.64 13.2 27.75 14.37C34.85 15.54 39.66 22.21 38.49 29.27C37.31 36.33 30.59 41.1 23.48 39.93ZM23.42 40.31C30.74 41.51 37.65 36.6 38.87 29.33C40.08 22.06 35.13 15.2 27.81 13.99C20.49 12.79 13.58 17.71 12.36 24.97C11.15 32.24 16.1 39.11 23.42 40.31Z" fill="#FD492A" fill-opacity="1.000000" fill-rule="nonzero"/>
		<path id="path128" d="M12.74 25.04C13.92 17.98 20.64 13.2 27.75 14.37C34.85 15.54 39.66 22.21 38.49 29.27C37.31 36.33 30.59 41.1 23.48 39.93C16.38 38.77 11.57 32.09 12.74 25.04ZM38.87 29.33C40.08 22.06 35.13 15.2 27.81 13.99C20.49 12.79 13.58 17.71 12.36 24.97C11.15 32.24 16.1 39.11 23.42 40.31C30.74 41.51 37.65 36.6 38.87 29.33Z" stroke="#000000" stroke-opacity="0" stroke-width="0.133333"/>
		<path id="path130" d="M23.44 40.19C16.19 38.99 11.29 32.19 12.49 24.99C13.69 17.8 20.54 12.93 27.79 14.12C35.04 15.31 39.94 22.11 38.74 29.31C37.54 36.51 30.69 41.38 23.44 40.19ZM23.38 40.56C30.84 41.79 37.88 36.78 39.12 29.37C40.35 21.97 35.31 14.97 27.85 13.74C20.39 12.52 13.35 17.53 12.11 24.93C10.88 32.34 15.92 39.34 23.38 40.56Z" fill="#FD4929" fill-opacity="1.000000" fill-rule="nonzero"/>
		<path id="path130" d="M12.49 24.99C13.69 17.8 20.54 12.93 27.79 14.12C35.04 15.31 39.94 22.11 38.74 29.31C37.54 36.51 30.69 41.38 23.44 40.19C16.19 38.99 11.29 32.19 12.49 24.99ZM39.12 29.37C40.35 21.97 35.31 14.97 27.85 13.74C20.39 12.52 13.35 17.53 12.11 24.93C10.88 32.34 15.92 39.34 23.38 40.56C30.84 41.79 37.88 36.78 39.12 29.37Z" stroke="#000000" stroke-opacity="0" stroke-width="0.133333"/>
		<path id="path132" d="M23.4 40.44C16.01 39.22 11.02 32.29 12.24 24.95C13.46 17.62 20.44 12.65 27.83 13.87C35.22 15.08 40.21 22.01 38.99 29.35C37.77 36.69 30.79 41.65 23.4 40.44ZM23.34 40.81C30.93 42.06 38.11 36.96 39.37 29.41C40.63 21.87 35.49 14.74 27.89 13.49C20.3 12.24 13.12 17.35 11.86 24.89C10.6 32.43 15.74 39.56 23.34 40.81Z" fill="#FD4929" fill-opacity="1.000000" fill-rule="nonzero"/>
		<path id="path132" d="M12.24 24.95C13.46 17.62 20.44 12.65 27.83 13.87C35.22 15.08 40.21 22.01 38.99 29.35C37.77 36.69 30.79 41.65 23.4 40.44C16.01 39.22 11.02 32.29 12.24 24.95ZM39.37 29.41C40.63 21.87 35.49 14.74 27.89 13.49C20.3 12.24 13.12 17.35 11.86 24.89C10.6 32.43 15.74 39.56 23.34 40.81C30.93 42.06 38.11 36.96 39.37 29.41Z" stroke="#000000" stroke-opacity="0" stroke-width="0.133333"/>
		<path id="path134" d="M23.36 40.69C15.83 39.45 10.74 32.39 11.99 24.91C13.23 17.44 20.34 12.38 27.87 13.62C35.4 14.85 40.49 21.92 39.24 29.39C38 36.87 30.89 41.92 23.36 40.69ZM23.3 41.06C31.03 42.33 38.34 37.14 39.62 29.45C40.9 21.77 35.67 14.51 27.93 13.24C20.2 11.97 12.89 17.17 11.61 24.85C10.33 32.53 15.56 39.79 23.3 41.06Z" fill="#FD4929" fill-opacity="1.000000" fill-rule="nonzero"/>
		<path id="path134" d="M11.99 24.91C13.23 17.44 20.34 12.38 27.87 13.62C35.4 14.85 40.49 21.92 39.24 29.39C38 36.87 30.89 41.92 23.36 40.69C15.83 39.45 10.74 32.39 11.99 24.91ZM39.62 29.45C40.9 21.77 35.67 14.51 27.93 13.24C20.2 11.97 12.89 17.17 11.61 24.85C10.33 32.53 15.56 39.79 23.3 41.06C31.03 42.33 38.34 37.14 39.62 29.45Z" stroke="#000000" stroke-opacity="0" stroke-width="0.133333"/>
		<path id="path136" d="M23.32 40.94C15.65 39.68 10.46 32.48 11.73 24.87C13 17.26 20.25 12.11 27.91 13.37C35.58 14.63 40.77 21.82 39.5 29.43C38.23 37.05 30.98 42.2 23.32 40.94ZM23.25 41.31C31.13 42.61 38.57 37.32 39.87 29.5C41.18 21.67 35.85 14.28 27.98 12.99C20.1 11.7 12.66 16.99 11.36 24.81C10.05 32.63 15.38 40.02 23.25 41.31Z" fill="#FD4929" fill-opacity="1.000000" fill-rule="nonzero"/>
		<path id="path136" d="M11.73 24.87C13 17.26 20.25 12.11 27.91 13.37C35.58 14.63 40.77 21.82 39.5 29.43C38.23 37.05 30.98 42.2 23.32 40.94C15.65 39.68 10.46 32.48 11.73 24.87ZM39.87 29.5C41.18 21.67 35.85 14.28 27.98 12.99C20.1 11.7 12.66 16.99 11.36 24.81C10.05 32.63 15.38 40.02 23.25 41.31C31.13 42.61 38.57 37.32 39.87 29.5Z" stroke="#000000" stroke-opacity="0" stroke-width="0.133333"/>
		<path id="path138" d="M23.27 41.19C15.47 39.9 10.19 32.58 11.48 24.83C12.77 17.08 20.15 11.83 27.95 13.12C35.76 14.4 41.04 21.72 39.75 29.48C38.46 37.23 31.08 42.47 23.27 41.19ZM23.21 41.56C31.23 42.88 38.8 37.5 40.13 29.54C41.45 21.58 36.03 14.06 28.02 12.74C20 11.42 12.43 16.81 11.1 24.77C9.78 32.73 15.2 40.25 23.21 41.56Z" fill="#FD4929" fill-opacity="1.000000" fill-rule="nonzero"/>
		<path id="path138" d="M11.48 24.83C12.77 17.08 20.15 11.83 27.95 13.12C35.76 14.4 41.04 21.72 39.75 29.48C38.46 37.23 31.08 42.47 23.27 41.19C15.47 39.9 10.19 32.58 11.48 24.83ZM40.13 29.54C41.45 21.58 36.03 14.06 28.02 12.74C20 11.42 12.43 16.81 11.1 24.77C9.78 32.73 15.2 40.25 23.21 41.56C31.23 42.88 38.8 37.5 40.13 29.54Z" stroke="#000000" stroke-opacity="0" stroke-width="0.133333"/>
		<path id="path140" d="M23.23 41.44C15.29 40.13 9.91 32.68 11.23 24.79C12.54 16.9 20.05 11.56 28 12.86C35.94 14.17 41.32 21.63 40 29.52C38.69 37.41 31.18 42.74 23.23 41.44ZM23.17 41.81C31.32 43.16 39.03 37.68 40.38 29.58C41.73 21.48 36.21 13.83 28.06 12.49C19.91 11.15 12.2 16.63 10.85 24.72C9.5 32.82 15.02 40.47 23.17 41.81Z" fill="#FD4829" fill-opacity="1.000000" fill-rule="nonzero"/>
		<path id="path140" d="M11.23 24.79C12.54 16.9 20.05 11.56 28 12.86C35.94 14.17 41.32 21.63 40 29.52C38.69 37.41 31.18 42.74 23.23 41.44C15.29 40.13 9.91 32.68 11.23 24.79ZM40.38 29.58C41.73 21.48 36.21 13.83 28.06 12.49C19.91 11.15 12.2 16.63 10.85 24.72C9.5 32.82 15.02 40.47 23.17 41.81C31.32 43.16 39.03 37.68 40.38 29.58Z" stroke="#000000" stroke-opacity="0" stroke-width="0.133333"/>
		<path id="path142" d="M23.19 41.69C15.11 40.36 9.64 32.77 10.98 24.74C12.32 16.72 19.95 11.28 28.04 12.61C36.12 13.94 41.59 21.53 40.25 29.56C38.91 37.59 31.28 43.02 23.19 41.69ZM23.13 42.07C31.42 43.43 39.26 37.86 40.63 29.62C42.01 21.38 36.39 13.6 28.1 12.24C19.81 10.87 11.97 16.45 10.6 24.68C9.23 32.92 14.84 40.7 23.13 42.07Z" fill="#FD4828" fill-opacity="1.000000" fill-rule="nonzero"/>
		<path id="path142" d="M10.98 24.74C12.32 16.72 19.95 11.28 28.04 12.61C36.12 13.94 41.59 21.53 40.25 29.56C38.91 37.59 31.28 43.02 23.19 41.69C15.11 40.36 9.64 32.77 10.98 24.74ZM40.63 29.62C42.01 21.38 36.39 13.6 28.1 12.24C19.81 10.87 11.97 16.45 10.6 24.68C9.23 32.92 14.84 40.7 23.13 42.07C31.42 43.43 39.26 37.86 40.63 29.62Z" stroke="#000000" stroke-opacity="0" stroke-width="0.133333"/>
		<path id="path144" d="M23.15 41.94C14.93 40.59 9.36 32.87 10.72 24.7C12.09 16.54 19.86 11.01 28.08 12.36C36.3 13.72 41.87 21.43 40.51 29.6C39.14 37.77 31.37 43.29 23.15 41.94ZM23.09 42.32C31.52 43.7 39.49 38.04 40.88 29.66C42.28 21.29 36.58 13.37 28.14 11.99C19.71 10.6 11.74 16.27 10.35 24.64C8.95 33.02 14.65 40.93 23.09 42.32Z" fill="#FD4828" fill-opacity="1.000000" fill-rule="nonzero"/>
		<path id="path144" d="M10.72 24.7C12.09 16.54 19.86 11.01 28.08 12.36C36.3 13.72 41.87 21.43 40.51 29.6C39.14 37.77 31.37 43.29 23.15 41.94C14.93 40.59 9.36 32.87 10.72 24.7ZM40.88 29.66C42.28 21.29 36.58 13.37 28.14 11.99C19.71 10.6 11.74 16.27 10.35 24.64C8.95 33.02 14.65 40.93 23.09 42.32C31.52 43.7 39.49 38.04 40.88 29.66Z" stroke="#000000" stroke-opacity="0" stroke-width="0.133333"/>
		<path id="path146" d="M23.11 42.19C14.74 40.82 9.09 32.97 10.47 24.66C11.86 16.36 19.76 10.74 28.12 12.11C36.49 13.49 42.14 21.34 40.76 29.64C39.37 37.95 31.47 43.57 23.11 42.19ZM23.05 42.57C31.62 43.98 39.72 38.22 41.14 29.7C42.56 21.19 36.76 13.15 28.18 11.74C19.61 10.33 11.51 16.09 10.09 24.6C8.67 33.11 14.47 41.16 23.05 42.57Z" fill="#FD4828" fill-opacity="1.000000" fill-rule="nonzero"/>
		<path id="path146" d="M10.47 24.66C11.86 16.36 19.76 10.74 28.12 12.11C36.49 13.49 42.14 21.34 40.76 29.64C39.37 37.95 31.47 43.57 23.11 42.19C14.74 40.82 9.09 32.97 10.47 24.66ZM41.14 29.7C42.56 21.19 36.76 13.15 28.18 11.74C19.61 10.33 11.51 16.09 10.09 24.6C8.67 33.11 14.47 41.16 23.05 42.57C31.62 43.98 39.72 38.22 41.14 29.7Z" stroke="#000000" stroke-opacity="0" stroke-width="0.133333"/>
		<path id="path148" d="M23.07 42.44C14.56 41.04 8.81 33.06 10.22 24.62C11.63 16.18 19.66 10.46 28.16 11.86C36.67 13.26 42.42 21.24 41.01 29.68C39.6 38.13 31.57 43.84 23.07 42.44ZM23 42.82C31.72 44.25 39.95 38.4 41.39 29.75C42.83 21.09 36.94 12.92 28.23 11.49C19.51 10.05 11.28 15.91 9.84 24.56C8.4 33.21 14.29 41.38 23 42.82Z" fill="#FD4828" fill-opacity="1.000000" fill-rule="nonzero"/>
		<path id="path148" d="M10.22 24.62C11.63 16.18 19.66 10.46 28.16 11.86C36.67 13.26 42.42 21.24 41.01 29.68C39.6 38.13 31.57 43.84 23.07 42.44C14.56 41.04 8.81 33.06 10.22 24.62ZM41.39 29.75C42.83 21.09 36.94 12.92 28.23 11.49C19.51 10.05 11.28 15.91 9.84 24.56C8.4 33.21 14.29 41.38 23 42.82C31.72 44.25 39.95 38.4 41.39 29.75Z" stroke="#000000" stroke-opacity="0" stroke-width="0.133333"/>
		<path id="path150" d="M23.02 42.69C14.38 41.27 8.54 33.16 9.97 24.58C11.4 16 19.56 10.19 28.21 11.61C36.85 13.03 42.69 21.14 41.26 29.72C39.83 38.31 31.67 44.11 23.02 42.69ZM22.96 43.07C31.81 44.52 40.18 38.58 41.64 29.79C43.11 21 37.12 12.69 28.27 11.24C19.42 9.78 11.05 15.73 9.59 24.52C8.12 33.31 14.11 41.61 22.96 43.07Z" fill="#FD4828" fill-opacity="1.000000" fill-rule="nonzero"/>
		<path id="path150" d="M9.97 24.58C11.4 16 19.56 10.19 28.21 11.61C36.85 13.03 42.69 21.14 41.26 29.72C39.83 38.31 31.67 44.11 23.02 42.69C14.38 41.27 8.54 33.16 9.97 24.58ZM41.64 29.79C43.11 21 37.12 12.69 28.27 11.24C19.42 9.78 11.05 15.73 9.59 24.52C8.12 33.31 14.11 41.61 22.96 43.07C31.81 44.52 40.18 38.58 41.64 29.79Z" stroke="#000000" stroke-opacity="0" stroke-width="0.133333"/>
		<path id="path152" d="M22.98 42.94C14.2 41.5 8.26 33.26 9.71 24.54C11.17 15.82 19.47 9.92 28.25 11.36C37.03 12.8 42.97 21.04 41.52 29.77C40.06 38.49 31.76 44.39 22.98 42.94ZM22.92 43.32C31.91 44.8 40.41 38.76 41.89 29.83C43.38 20.9 37.3 12.46 28.31 10.98C19.32 9.51 10.82 15.55 9.34 24.48C7.85 33.4 13.93 41.84 22.92 43.32Z" fill="#FD4828" fill-opacity="1.000000" fill-rule="nonzero"/>
		<path id="path152" d="M9.71 24.54C11.17 15.82 19.47 9.92 28.25 11.36C37.03 12.8 42.97 21.04 41.52 29.77C40.06 38.49 31.76 44.39 22.98 42.94C14.2 41.5 8.26 33.26 9.71 24.54ZM41.89 29.83C43.38 20.9 37.3 12.46 28.31 10.98C19.32 9.51 10.82 15.55 9.34 24.48C7.85 33.4 13.93 41.84 22.92 43.32C31.91 44.8 40.41 38.76 41.89 29.83Z" stroke="#000000" stroke-opacity="0" stroke-width="0.133333"/>
		<path id="path154" d="M22.94 43.19C14.02 41.73 7.99 33.36 9.46 24.5C10.94 15.64 19.37 9.64 28.29 11.11C37.21 12.58 43.24 20.95 41.77 29.81C40.29 38.67 31.86 44.66 22.94 43.19ZM22.88 43.57C32.01 45.07 40.63 38.94 42.15 29.87C43.66 20.8 37.48 12.24 28.35 10.73C19.22 9.23 10.6 15.37 9.08 24.43C7.57 33.5 13.75 42.07 22.88 43.57Z" fill="#FC4727" fill-opacity="1.000000" fill-rule="nonzero"/>
		<path id="path154" d="M9.46 24.5C10.94 15.64 19.37 9.64 28.29 11.11C37.21 12.58 43.24 20.95 41.77 29.81C40.29 38.67 31.86 44.66 22.94 43.19C14.02 41.73 7.99 33.36 9.46 24.5ZM42.15 29.87C43.66 20.8 37.48 12.24 28.35 10.73C19.22 9.23 10.6 15.37 9.08 24.43C7.57 33.5 13.75 42.07 22.88 43.57C32.01 45.07 40.63 38.94 42.15 29.87Z" stroke="#000000" stroke-opacity="0" stroke-width="0.133333"/>
		<path id="path156" d="M22.9 43.44C13.84 41.95 7.71 33.45 9.21 24.45C10.71 15.46 19.27 9.37 28.33 10.86C37.39 12.35 43.52 20.85 42.02 29.85C40.52 38.85 31.96 44.93 22.9 43.44ZM22.84 43.82C32.11 45.34 40.86 39.12 42.4 29.91C43.93 20.71 37.66 12.01 28.39 10.48C19.12 8.96 10.37 15.19 8.83 24.39C7.3 33.6 13.57 42.3 22.84 43.82Z" fill="#FC4727" fill-opacity="1.000000" fill-rule="nonzero"/>
		<path id="path156" d="M9.21 24.45C10.71 15.46 19.27 9.37 28.33 10.86C37.39 12.35 43.52 20.85 42.02 29.85C40.52 38.85 31.96 44.93 22.9 43.44C13.84 41.95 7.71 33.45 9.21 24.45ZM42.4 29.91C43.93 20.71 37.66 12.01 28.39 10.48C19.12 8.96 10.37 15.19 8.83 24.39C7.3 33.6 13.57 42.3 22.84 43.82C32.11 45.34 40.86 39.12 42.4 29.91Z" stroke="#000000" stroke-opacity="0" stroke-width="0.133333"/>
		<path id="path158" d="M22.86 43.69C13.66 42.18 7.43 33.55 8.96 24.41C10.48 15.28 19.17 9.1 28.37 10.61C37.57 12.12 43.8 20.75 42.27 29.89C40.75 39.03 32.06 45.21 22.86 43.69ZM22.79 44.07C32.2 45.62 41.09 39.3 42.65 29.95C44.21 20.61 37.84 11.78 28.44 10.23C19.03 8.69 10.14 15.01 8.58 24.35C7.02 33.69 13.39 42.52 22.79 44.07Z" fill="#FC4727" fill-opacity="1.000000" fill-rule="nonzero"/>
		<path id="path158" d="M8.96 24.41C10.48 15.28 19.17 9.1 28.37 10.61C37.57 12.12 43.8 20.75 42.27 29.89C40.75 39.03 32.06 45.21 22.86 43.69C13.66 42.18 7.43 33.55 8.96 24.41ZM42.65 29.95C44.21 20.61 37.84 11.78 28.44 10.23C19.03 8.69 10.14 15.01 8.58 24.35C7.02 33.69 13.39 42.52 22.79 44.07C32.2 45.62 41.09 39.3 42.65 29.95Z" stroke="#000000" stroke-opacity="0" stroke-width="0.133333"/>
		<path id="path160" d="M22.82 43.94C13.48 42.41 7.16 33.65 8.71 24.37C10.25 15.1 19.08 8.82 28.41 10.36C37.75 11.89 44.07 20.66 42.52 29.93C40.98 39.21 32.15 45.48 22.82 43.94ZM22.75 44.32C32.3 45.89 41.32 39.48 42.9 29.99C44.48 20.51 38.03 11.55 28.48 9.98C18.93 8.41 9.91 14.83 8.33 24.31C6.75 33.79 13.2 42.75 22.75 44.32Z" fill="#FC4727" fill-opacity="1.000000" fill-rule="nonzero"/>
		<path id="path160" d="M8.71 24.37C10.25 15.1 19.08 8.82 28.41 10.36C37.75 11.89 44.07 20.66 42.52 29.93C40.98 39.21 32.15 45.48 22.82 43.94C13.48 42.41 7.16 33.65 8.71 24.37ZM42.9 29.99C44.48 20.51 38.03 11.55 28.48 9.98C18.93 8.41 9.91 14.83 8.33 24.31C6.75 33.79 13.2 42.75 22.75 44.32C32.3 45.89 41.32 39.48 42.9 29.99Z" stroke="#000000" stroke-opacity="0" stroke-width="0.133333"/>
		<path id="path162" d="M22.77 44.2C13.3 42.64 6.88 33.74 8.45 24.33C10.02 14.92 18.98 8.55 28.46 10.11C37.93 11.67 44.35 20.56 42.78 29.97C41.21 39.39 32.25 45.75 22.77 44.2ZM22.71 44.57C32.4 46.16 41.55 39.66 43.16 30.04C44.76 20.41 38.21 11.32 28.52 9.73C18.83 8.14 9.68 14.65 8.07 24.27C6.47 33.89 13.02 42.98 22.71 44.57Z" fill="#FC4727" fill-opacity="1.000000" fill-rule="nonzero"/>
		<path id="path162" d="M8.45 24.33C10.02 14.92 18.98 8.55 28.46 10.11C37.93 11.67 44.35 20.56 42.78 29.97C41.21 39.39 32.25 45.75 22.77 44.2C13.3 42.64 6.88 33.74 8.45 24.33ZM43.16 30.04C44.76 20.41 38.21 11.32 28.52 9.73C18.83 8.14 9.68 14.65 8.07 24.27C6.47 33.89 13.02 42.98 22.71 44.57C32.4 46.16 41.55 39.66 43.16 30.04Z" stroke="#000000" stroke-opacity="0" stroke-width="0.133333"/>
		<path id="path164" d="M22.73 44.45C13.11 42.86 6.61 33.84 8.2 24.29C9.79 14.74 18.88 8.28 28.5 9.86C38.12 11.44 44.62 20.46 43.03 30.01C41.44 39.57 32.35 46.03 22.73 44.45ZM22.67 44.82C32.5 46.44 41.78 39.84 43.41 30.08C45.04 20.32 38.39 11.1 28.56 9.48C18.73 7.87 9.45 14.47 7.82 24.23C6.19 33.99 12.84 43.21 22.67 44.82Z" fill="#FC4727" fill-opacity="1.000000" fill-rule="nonzero"/>
		<path id="path164" d="M8.2 24.29C9.79 14.74 18.88 8.28 28.5 9.86C38.12 11.44 44.62 20.46 43.03 30.01C41.44 39.57 32.35 46.03 22.73 44.45C13.11 42.86 6.61 33.84 8.2 24.29ZM43.41 30.08C45.04 20.32 38.39 11.1 28.56 9.48C18.73 7.87 9.45 14.47 7.82 24.23C6.19 33.99 12.84 43.21 22.67 44.82C32.5 46.44 41.78 39.84 43.41 30.08Z" stroke="#000000" stroke-opacity="0" stroke-width="0.133333"/>
		<path id="path166" d="M22.69 44.7C12.93 43.09 6.33 33.94 7.95 24.25C9.56 14.56 18.78 8 28.54 9.61C38.3 11.21 44.9 20.37 43.28 30.06C41.67 39.75 32.45 46.3 22.69 44.7ZM22.63 45.07C32.59 46.71 42.01 40.02 43.66 30.12C45.31 20.22 38.57 10.87 28.6 9.23C18.64 7.59 9.22 14.29 7.57 24.18C5.92 34.08 12.66 43.43 22.63 45.07Z" fill="#FC4726" fill-opacity="1.000000" fill-rule="nonzero"/>
		<path id="path166" d="M7.95 24.25C9.56 14.56 18.78 8 28.54 9.61C38.3 11.21 44.9 20.37 43.28 30.06C41.67 39.75 32.45 46.3 22.69 44.7C12.93 43.09 6.33 33.94 7.95 24.25ZM43.66 30.12C45.31 20.22 38.57 10.87 28.6 9.23C18.64 7.59 9.22 14.29 7.57 24.18C5.92 34.08 12.66 43.43 22.63 45.07C32.59 46.71 42.01 40.02 43.66 30.12Z" stroke="#000000" stroke-opacity="0" stroke-width="0.133333"/>
		<path id="path168" d="M22.65 44.95C12.75 43.32 6.06 34.03 7.7 24.21C9.33 14.38 18.69 7.73 28.58 9.36C38.48 10.98 45.17 20.27 43.53 30.1C41.9 39.93 32.54 46.57 22.65 44.95ZM22.59 45.32C32.69 46.99 42.24 40.2 43.91 30.16C45.59 20.12 38.75 10.64 28.64 8.98C18.54 7.32 8.99 14.11 7.32 24.14C5.64 34.18 12.48 43.66 22.59 45.32Z" fill="#FC4626" fill-opacity="1.000000" fill-rule="nonzero"/>
		<path id="path168" d="M7.7 24.21C9.33 14.38 18.69 7.73 28.58 9.36C38.48 10.98 45.17 20.27 43.53 30.1C41.9 39.93 32.54 46.57 22.65 44.95C12.75 43.32 6.06 34.03 7.7 24.21ZM43.91 30.16C45.59 20.12 38.75 10.64 28.64 8.98C18.54 7.32 8.99 14.11 7.32 24.14C5.64 34.18 12.48 43.66 22.59 45.32C32.69 46.99 42.24 40.2 43.91 30.16Z" stroke="#000000" stroke-opacity="0" stroke-width="0.133333"/>
		<path id="path170" d="M22.61 45.2C12.57 43.55 5.78 34.13 7.44 24.16C9.1 14.2 18.59 7.45 28.62 9.1C38.66 10.76 45.45 20.17 43.79 30.14C42.13 40.11 32.64 46.85 22.61 45.2ZM22.54 45.57C32.79 47.26 42.47 40.38 44.17 30.2C45.86 20.03 38.93 10.41 28.69 8.73C18.44 7.04 8.76 13.93 7.06 24.1C5.37 34.28 12.3 43.89 22.54 45.57Z" fill="#FC4626" fill-opacity="1.000000" fill-rule="nonzero"/>
		<path id="path170" d="M7.44 24.16C9.1 14.2 18.59 7.45 28.62 9.1C38.66 10.76 45.45 20.17 43.79 30.14C42.13 40.11 32.64 46.85 22.61 45.2C12.57 43.55 5.78 34.13 7.44 24.16ZM44.17 30.2C45.86 20.03 38.93 10.41 28.69 8.73C18.44 7.04 8.76 13.93 7.06 24.1C5.37 34.28 12.3 43.89 22.54 45.57C32.79 47.26 42.47 40.38 44.17 30.2Z" stroke="#000000" stroke-opacity="0" stroke-width="0.133333"/>
		<path id="path172" d="M22.56 45.45C12.39 43.78 5.51 34.23 7.19 24.12C8.88 14.02 18.49 7.18 28.67 8.85C38.84 10.53 45.72 20.08 44.04 30.18C42.35 40.29 32.74 47.12 22.56 45.45ZM22.5 45.82C32.89 47.53 42.7 40.56 44.42 30.24C46.14 19.93 39.11 10.19 28.73 8.48C18.34 6.77 8.53 13.75 6.81 24.06C5.09 34.37 12.12 44.12 22.5 45.82Z" fill="#FC4626" fill-opacity="1.000000" fill-rule="nonzero"/>
		<path id="path172" d="M7.19 24.12C8.88 14.02 18.49 7.18 28.67 8.85C38.84 10.53 45.72 20.08 44.04 30.18C42.35 40.29 32.74 47.12 22.56 45.45C12.39 43.78 5.51 34.23 7.19 24.12ZM44.42 30.24C46.14 19.93 39.11 10.19 28.73 8.48C18.34 6.77 8.53 13.75 6.81 24.06C5.09 34.37 12.12 44.12 22.5 45.82C32.89 47.53 42.7 40.56 44.42 30.24Z" stroke="#000000" stroke-opacity="0" stroke-width="0.133333"/>
		<path id="path174" d="M22.52 45.7C12.21 44 5.23 34.32 6.94 24.08C8.65 13.84 18.39 6.91 28.71 8.6C39.02 10.3 46 19.98 44.29 30.22C42.58 40.47 32.84 47.4 22.52 45.7ZM22.46 46.08C32.98 47.81 42.93 40.74 44.67 30.28C46.41 19.83 39.29 9.96 28.77 8.23C18.25 6.5 8.3 13.57 6.56 24.02C4.82 34.47 11.94 44.35 22.46 46.08Z" fill="#FC4626" fill-opacity="1.000000" fill-rule="nonzero"/>
		<path id="path174" d="M6.94 24.08C8.65 13.84 18.39 6.91 28.71 8.6C39.02 10.3 46 19.98 44.29 30.22C42.58 40.47 32.84 47.4 22.52 45.7C12.21 44 5.23 34.32 6.94 24.08ZM44.67 30.28C46.41 19.83 39.29 9.96 28.77 8.23C18.25 6.5 8.3 13.57 6.56 24.02C4.82 34.47 11.94 44.35 22.46 46.08C32.98 47.81 42.93 40.74 44.67 30.28Z" stroke="#000000" stroke-opacity="0" stroke-width="0.133333"/>
		<path id="path176" d="M22.48 45.95C12.03 44.23 4.96 34.42 6.69 24.04C8.42 13.66 18.29 6.63 28.75 8.35C39.2 10.07 46.27 19.88 44.54 30.26C42.81 40.65 32.94 47.67 22.48 45.95ZM22.42 46.33C33.08 48.08 43.16 40.92 44.92 30.33C46.69 19.74 39.47 9.73 28.81 7.98C18.15 6.22 8.07 13.39 6.31 23.98C4.54 34.57 11.76 44.57 22.42 46.33Z" fill="#FC4626" fill-opacity="1.000000" fill-rule="nonzero"/>
		<path id="path176" d="M6.69 24.04C8.42 13.66 18.29 6.63 28.75 8.35C39.2 10.07 46.27 19.88 44.54 30.26C42.81 40.65 32.94 47.67 22.48 45.95C12.03 44.23 4.96 34.42 6.69 24.04ZM44.92 30.33C46.69 19.74 39.47 9.73 28.81 7.98C18.15 6.22 8.07 13.39 6.31 23.98C4.54 34.57 11.76 44.57 22.42 46.33C33.08 48.08 43.16 40.92 44.92 30.33Z" stroke="#000000" stroke-opacity="0" stroke-width="0.133333"/>
		<path id="path178" d="M22.44 46.2C11.85 44.46 4.68 34.52 6.43 24C8.19 13.48 18.2 6.36 28.79 8.1C39.38 9.84 46.55 19.78 44.8 30.31C43.04 40.83 33.03 47.94 22.44 46.2ZM22.38 46.58C33.18 48.35 43.39 41.1 45.17 30.37C46.96 19.64 39.66 9.5 28.85 7.73C18.05 5.95 7.84 13.21 6.06 23.94C4.27 34.66 11.57 44.8 22.38 46.58Z" fill="#FC4625" fill-opacity="1.000000" fill-rule="nonzero"/>
		<path id="path178" d="M6.43 24C8.19 13.48 18.2 6.36 28.79 8.1C39.38 9.84 46.55 19.78 44.8 30.31C43.04 40.83 33.03 47.94 22.44 46.2C11.85 44.46 4.68 34.52 6.43 24ZM45.17 30.37C46.96 19.64 39.66 9.5 28.85 7.73C18.05 5.95 7.84 13.21 6.06 23.94C4.27 34.66 11.57 44.8 22.38 46.58C33.18 48.35 43.39 41.1 45.17 30.37Z" stroke="#000000" stroke-opacity="0" stroke-width="0.133333"/>
		<path id="path180" d="M22.4 46.45C11.66 44.69 4.4 34.62 6.18 23.96C7.96 13.3 18.1 6.09 28.83 7.85C39.57 9.62 46.83 19.69 45.05 30.35C43.27 41.01 33.13 48.22 22.4 46.45ZM22.33 46.83C33.28 48.63 43.62 41.28 45.43 30.41C47.24 19.54 39.84 9.27 28.9 7.48C17.95 5.68 7.61 13.03 5.8 23.89C3.99 34.76 11.39 45.03 22.33 46.83Z" fill="#FC4625" fill-opacity="1.000000" fill-rule="nonzero"/>
		<path id="path180" d="M6.18 23.96C7.96 13.3 18.1 6.09 28.83 7.85C39.57 9.62 46.83 19.69 45.05 30.35C43.27 41.01 33.13 48.22 22.4 46.45C11.66 44.69 4.4 34.62 6.18 23.96ZM45.43 30.41C47.24 19.54 39.84 9.27 28.9 7.48C17.95 5.68 7.61 13.03 5.8 23.89C3.99 34.76 11.39 45.03 22.33 46.83C33.28 48.63 43.62 41.28 45.43 30.41Z" stroke="#000000" stroke-opacity="0" stroke-width="0.133333"/>
		<path id="path182" d="M22.36 46.7C11.48 44.91 4.13 34.71 5.93 23.91C7.73 13.12 18 5.81 28.87 7.6C39.75 9.39 47.1 19.59 45.3 30.39C43.5 41.19 33.23 48.49 22.36 46.7ZM22.29 47.08C33.37 48.9 43.84 41.46 45.68 30.45C47.51 19.45 40.02 9.05 28.94 7.23C17.86 5.4 7.39 12.85 5.55 23.85C3.72 34.86 11.21 45.26 22.29 47.08Z" fill="#FC4625" fill-opacity="1.000000" fill-rule="nonzero"/>
		<path id="path182" d="M5.93 23.91C7.73 13.12 18 5.81 28.87 7.6C39.75 9.39 47.1 19.59 45.3 30.39C43.5 41.19 33.23 48.49 22.36 46.7C11.48 44.91 4.13 34.71 5.93 23.91ZM45.68 30.45C47.51 19.45 40.02 9.05 28.94 7.23C17.86 5.4 7.39 12.85 5.55 23.85C3.72 34.86 11.21 45.26 22.29 47.08C33.37 48.9 43.84 41.46 45.68 30.45Z" stroke="#000000" stroke-opacity="0" stroke-width="0.133333"/>
		<path id="path184" d="M22.31 46.95C11.3 45.14 3.85 34.81 5.68 23.87C7.5 12.94 17.9 5.54 28.92 7.35C39.93 9.16 47.38 19.49 45.55 30.43C43.73 41.37 33.33 48.76 22.31 46.95ZM22.25 47.33C33.47 49.17 44.07 41.64 45.93 30.49C47.79 19.35 40.2 8.82 28.98 6.97C17.76 5.13 7.16 12.67 5.3 23.81C3.44 34.95 11.03 45.48 22.25 47.33Z" fill="#FC4525" fill-opacity="1.000000" fill-rule="nonzero"/>
		<path id="path184" d="M5.68 23.87C7.5 12.94 17.9 5.54 28.92 7.35C39.93 9.16 47.38 19.49 45.55 30.43C43.73 41.37 33.33 48.76 22.31 46.95C11.3 45.14 3.85 34.81 5.68 23.87ZM45.93 30.49C47.79 19.35 40.2 8.82 28.98 6.97C17.76 5.13 7.16 12.67 5.3 23.81C3.44 34.95 11.03 45.48 22.25 47.33C33.47 49.17 44.07 41.64 45.93 30.49Z" stroke="#000000" stroke-opacity="0" stroke-width="0.133333"/>
		<path id="path186" d="M22.27 47.2C11.12 45.37 3.58 34.91 5.42 23.83C7.27 12.76 17.81 5.27 28.96 7.1C40.11 8.93 47.65 19.4 45.81 30.47C43.96 41.55 33.42 49.04 22.27 47.2ZM22.21 47.58C33.57 49.45 44.3 41.82 46.18 30.53C48.07 19.25 40.38 8.59 29.02 6.72C17.66 4.86 6.93 12.49 5.05 23.77C3.16 35.05 10.85 45.71 22.21 47.58Z" fill="#FC4525" fill-opacity="1.000000" fill-rule="nonzero"/>
		<path id="path186" d="M5.42 23.83C7.27 12.76 17.81 5.27 28.96 7.1C40.11 8.93 47.65 19.4 45.81 30.47C43.96 41.55 33.42 49.04 22.27 47.2C11.12 45.37 3.58 34.91 5.42 23.83ZM46.18 30.53C48.07 19.25 40.38 8.59 29.02 6.72C17.66 4.86 6.93 12.49 5.05 23.77C3.16 35.05 10.85 45.71 22.21 47.58C33.57 49.45 44.3 41.82 46.18 30.53Z" stroke="#000000" stroke-opacity="0" stroke-width="0.133333"/>
		<path id="path188" d="M22.23 47.45C10.94 45.6 3.3 35 5.17 23.79C7.04 12.58 17.71 4.99 29 6.85C40.29 8.71 47.93 19.3 46.06 30.51C44.19 41.73 33.52 49.31 22.23 47.45ZM22.17 47.83C33.67 49.72 44.53 42 46.44 30.58C48.34 19.15 40.56 8.36 29.06 6.47C17.56 4.58 6.7 12.31 4.79 23.73C2.89 35.15 10.67 45.94 22.17 47.83Z" fill="#FC4525" fill-opacity="1.000000" fill-rule="nonzero"/>
		<path id="path188" d="M5.17 23.79C7.04 12.58 17.71 4.99 29 6.85C40.29 8.71 47.93 19.3 46.06 30.51C44.19 41.73 33.52 49.31 22.23 47.45C10.94 45.6 3.3 35 5.17 23.79ZM46.44 30.58C48.34 19.15 40.56 8.36 29.06 6.47C17.56 4.58 6.7 12.31 4.79 23.73C2.89 35.15 10.67 45.94 22.17 47.83C33.67 49.72 44.53 42 46.44 30.58Z" stroke="#000000" stroke-opacity="0" stroke-width="0.133333"/>
		<path id="path190" d="M22.19 47.7C10.76 45.83 3.03 35.1 4.92 23.75C6.81 12.4 17.61 4.72 29.04 6.6C40.47 8.48 48.2 19.2 46.31 30.55C44.42 41.91 33.62 49.58 22.19 47.7ZM22.13 48.08C33.76 49.99 44.76 42.18 46.69 30.62C48.62 19.06 40.74 8.14 29.1 6.22C17.47 4.31 6.47 12.13 4.54 23.69C2.61 35.25 10.49 46.17 22.13 48.08Z" fill="#FC4524" fill-opacity="1.000000" fill-rule="nonzero"/>
		<path id="path190" d="M4.92 23.75C6.81 12.4 17.61 4.72 29.04 6.6C40.47 8.48 48.2 19.2 46.31 30.55C44.42 41.91 33.62 49.58 22.19 47.7C10.76 45.83 3.03 35.1 4.92 23.75ZM46.69 30.62C48.62 19.06 40.74 8.14 29.1 6.22C17.47 4.31 6.47 12.13 4.54 23.69C2.61 35.25 10.49 46.17 22.13 48.08C33.76 49.99 44.76 42.18 46.69 30.62Z" stroke="#000000" stroke-opacity="0" stroke-width="0.133333"/>
		<path id="path192" d="M22.15 47.96C10.58 46.05 2.75 35.2 4.67 23.71C6.58 12.22 17.51 4.45 29.08 6.35C40.65 8.25 48.48 19.11 46.56 30.6C44.65 42.09 33.72 49.86 22.15 47.96ZM22.08 48.33C33.86 50.27 44.99 42.36 46.94 30.66C48.89 18.96 40.92 7.91 29.15 5.97C17.37 4.04 6.24 11.95 4.29 23.65C2.34 35.34 10.31 46.39 22.08 48.33Z" fill="#FC4524" fill-opacity="1.000000" fill-rule="nonzero"/>
		<path id="path192" d="M4.67 23.71C6.58 12.22 17.51 4.45 29.08 6.35C40.65 8.25 48.48 19.11 46.56 30.6C44.65 42.09 33.72 49.86 22.15 47.96C10.58 46.05 2.75 35.2 4.67 23.71ZM46.94 30.66C48.89 18.96 40.92 7.91 29.15 5.97C17.37 4.04 6.24 11.95 4.29 23.65C2.34 35.34 10.31 46.39 22.08 48.33C33.86 50.27 44.99 42.36 46.94 30.66Z" stroke="#000000" stroke-opacity="0" stroke-width="0.133333"/>
		<path id="path194" d="M22.11 48.21C10.4 46.28 2.48 35.29 4.41 23.67C6.35 12.04 17.42 4.17 29.13 6.1C40.83 8.02 48.75 19.01 46.82 30.64C44.88 42.27 33.81 50.13 22.11 48.21ZM22.04 48.58C33.96 50.54 45.22 42.54 47.19 30.7C49.17 18.86 41.11 7.68 29.19 5.72C17.27 3.76 6.01 11.77 4.04 23.6C2.06 35.44 10.12 46.62 22.04 48.58Z" fill="#FC4524" fill-opacity="1.000000" fill-rule="nonzero"/>
		<path id="path194" d="M4.41 23.67C6.35 12.04 17.42 4.17 29.13 6.1C40.83 8.02 48.75 19.01 46.82 30.64C44.88 42.27 33.81 50.13 22.11 48.21C10.4 46.28 2.48 35.29 4.41 23.67ZM47.19 30.7C49.17 18.86 41.11 7.68 29.19 5.72C17.27 3.76 6.01 11.77 4.04 23.6C2.06 35.44 10.12 46.62 22.04 48.58C33.96 50.54 45.22 42.54 47.19 30.7Z" stroke="#000000" stroke-opacity="0" stroke-width="0.133333"/>
		<path id="path196" d="M22.06 48.46C10.22 46.51 2.2 35.39 4.16 23.62C6.12 11.86 17.32 3.9 29.17 5.85C41.01 7.79 49.03 18.91 47.07 30.68C45.11 42.45 33.91 50.4 22.06 48.46ZM22 48.83C34.06 50.82 45.45 42.72 47.45 30.74C49.44 18.77 41.29 7.45 29.23 5.47C17.17 3.49 5.78 11.59 3.78 23.56C1.79 35.54 9.94 46.85 22 48.83Z" fill="#FC4524" fill-opacity="1.000000" fill-rule="nonzero"/>
		<path id="path196" d="M4.16 23.62C6.12 11.86 17.32 3.9 29.17 5.85C41.01 7.79 49.03 18.91 47.07 30.68C45.11 42.45 33.91 50.4 22.06 48.46C10.22 46.51 2.2 35.39 4.16 23.62ZM47.45 30.74C49.44 18.77 41.29 7.45 29.23 5.47C17.17 3.49 5.78 11.59 3.78 23.56C1.79 35.54 9.94 46.85 22 48.83C34.06 50.82 45.45 42.72 47.45 30.74Z" stroke="#000000" stroke-opacity="0" stroke-width="0.133333"/>
		<path id="path198" d="M22.02 48.71C10.03 46.74 1.93 35.49 3.91 23.58C5.89 11.68 17.22 3.62 29.21 5.6C41.2 7.57 49.3 18.82 47.32 30.72C45.34 42.63 34.01 50.68 22.02 48.71ZM21.96 49.08C34.16 51.09 45.68 42.9 47.7 30.78C49.72 18.67 41.47 7.23 29.27 5.22C17.07 3.21 5.55 11.41 3.53 23.52C1.51 35.63 9.76 47.08 21.96 49.08Z" fill="#FC4424" fill-opacity="1.000000" fill-rule="nonzero"/>
		<path id="path198" d="M3.91 23.58C5.89 11.68 17.22 3.62 29.21 5.6C41.2 7.57 49.3 18.82 47.32 30.72C45.34 42.63 34.01 50.68 22.02 48.71C10.03 46.74 1.93 35.49 3.91 23.58ZM47.7 30.78C49.72 18.67 41.47 7.23 29.27 5.22C17.07 3.21 5.55 11.41 3.53 23.52C1.51 35.63 9.76 47.08 21.96 49.08C34.16 51.09 45.68 42.9 47.7 30.78Z" stroke="#000000" stroke-opacity="0" stroke-width="0.133333"/>
		<path id="path200" d="M21.98 48.96C9.85 46.96 1.65 35.58 3.66 23.54C5.67 11.5 17.12 3.35 29.25 5.35C41.38 7.34 49.58 18.72 47.57 30.76C45.56 42.81 34.11 50.95 21.98 48.96ZM21.92 49.33C34.25 51.36 45.91 43.08 47.95 30.82C49.99 18.57 41.65 7 29.31 4.97C16.98 2.94 5.32 11.23 3.28 23.48C1.24 35.73 9.58 47.31 21.92 49.33Z" fill="#FC4424" fill-opacity="1.000000" fill-rule="nonzero"/>
		<path id="path200" d="M3.66 23.54C5.67 11.5 17.12 3.35 29.25 5.35C41.38 7.34 49.58 18.72 47.57 30.76C45.56 42.81 34.11 50.95 21.98 48.96C9.85 46.96 1.65 35.58 3.66 23.54ZM47.95 30.82C49.99 18.57 41.65 7 29.31 4.97C16.98 2.94 5.32 11.23 3.28 23.48C1.24 35.73 9.58 47.31 21.92 49.33C34.25 51.36 45.91 43.08 47.95 30.82Z" stroke="#000000" stroke-opacity="0" stroke-width="0.133333"/>
		<path id="path202" d="M21.94 49.21C9.67 47.19 1.37 35.68 3.41 23.5C5.44 11.32 17.03 3.08 29.29 5.09C41.56 7.11 49.86 18.62 47.82 30.8C45.79 42.99 34.2 51.23 21.94 49.21ZM21.88 49.58C34.35 51.64 46.14 43.26 48.2 30.87C50.27 18.48 41.83 6.77 29.35 4.72C16.88 2.67 5.09 11.05 3.03 23.44C0.96 35.83 9.4 47.53 21.88 49.58Z" fill="#FC4423" fill-opacity="1.000000" fill-rule="nonzero"/>
		<path id="path202" d="M3.41 23.5C5.44 11.32 17.03 3.08 29.29 5.09C41.56 7.11 49.86 18.62 47.82 30.8C45.79 42.99 34.2 51.23 21.94 49.21C9.67 47.19 1.37 35.68 3.41 23.5ZM48.2 30.87C50.27 18.48 41.83 6.77 29.35 4.72C16.88 2.67 5.09 11.05 3.03 23.44C0.96 35.83 9.4 47.53 21.88 49.58C34.35 51.64 46.14 43.26 48.2 30.87Z" stroke="#000000" stroke-opacity="0" stroke-width="0.133333"/>
		<path id="path204" d="M21.9 49.46C9.49 47.42 1.1 35.78 3.15 23.46C5.21 11.14 16.93 2.8 29.33 4.84C41.74 6.88 50.13 18.52 48.08 30.84C46.02 43.16 34.3 51.5 21.9 49.46ZM21.83 49.84C34.45 51.91 46.37 43.43 48.46 30.91C50.54 18.38 42.01 6.54 29.4 4.47C16.78 2.39 4.86 10.87 2.77 23.4C0.69 35.92 9.22 47.76 21.83 49.84Z" fill="#FC4423" fill-opacity="1.000000" fill-rule="nonzero"/>
		<path id="path204" d="M3.15 23.46C5.21 11.14 16.93 2.8 29.33 4.84C41.74 6.88 50.13 18.52 48.08 30.84C46.02 43.16 34.3 51.5 21.9 49.46C9.49 47.42 1.1 35.78 3.15 23.46ZM48.46 30.91C50.54 18.38 42.01 6.54 29.4 4.47C16.78 2.39 4.86 10.87 2.77 23.4C0.69 35.92 9.22 47.76 21.83 49.84C34.45 51.91 46.37 43.43 48.46 30.91Z" stroke="#000000" stroke-opacity="0" stroke-width="0.133333"/>
		<path id="path206" d="M21.85 49.71C9.31 47.65 0.82 35.88 2.9 23.42C4.98 10.96 16.83 2.53 29.38 4.59C41.92 6.66 50.41 18.43 48.33 30.89C46.25 43.34 34.4 51.77 21.85 49.71ZM21.79 50.09C34.55 52.18 46.6 43.61 48.71 30.95C50.82 18.28 42.19 6.31 29.44 4.22C16.68 2.12 4.63 10.69 2.52 23.35C0.41 36.02 9.04 47.99 21.79 50.09Z" fill="#FC4423" fill-opacity="1.000000" fill-rule="nonzero"/>
		<path id="path206" d="M2.9 23.42C4.98 10.96 16.83 2.53 29.38 4.59C41.92 6.66 50.41 18.43 48.33 30.89C46.25 43.34 34.4 51.77 21.85 49.71C9.31 47.65 0.82 35.88 2.9 23.42ZM48.71 30.95C50.82 18.28 42.19 6.31 29.44 4.22C16.68 2.12 4.63 10.69 2.52 23.35C0.41 36.02 9.04 47.99 21.79 50.09C34.55 52.18 46.6 43.61 48.71 30.95Z" stroke="#000000" stroke-opacity="0" stroke-width="0.133333"/>
		<path id="path208" d="M21.81 49.96C9.13 47.87 0.55 35.97 2.65 23.38C4.75 10.78 16.73 2.26 29.42 4.34C42.1 6.43 50.68 18.33 48.58 30.93C46.48 43.52 34.5 52.05 21.81 49.96ZM21.75 50.34C34.64 52.46 46.83 43.79 48.96 30.99C51.1 18.19 42.37 6.09 29.48 3.97C16.59 1.85 4.4 10.51 2.27 23.31C0.13 36.12 8.86 48.22 21.75 50.34Z" fill="#FC4423" fill-opacity="1.000000" fill-rule="nonzero"/>
		<path id="path208" d="M2.65 23.38C4.75 10.78 16.73 2.26 29.42 4.34C42.1 6.43 50.68 18.33 48.58 30.93C46.48 43.52 34.5 52.05 21.81 49.96C9.13 47.87 0.55 35.97 2.65 23.38ZM48.96 30.99C51.1 18.19 42.37 6.09 29.48 3.97C16.59 1.85 4.4 10.51 2.27 23.31C0.13 36.12 8.86 48.22 21.75 50.34C34.64 52.46 46.83 43.79 48.96 30.99Z" stroke="#000000" stroke-opacity="0" stroke-width="0.133333"/>
		<path id="path210" d="M21.77 50.21C8.95 48.1 0.27 36.07 2.4 23.33C4.52 10.6 16.64 1.98 29.46 4.09C42.28 6.2 50.96 18.23 48.83 30.97C46.71 43.7 34.59 52.32 21.77 50.21ZM21.71 50.59C34.74 52.73 47.06 43.97 49.21 31.03C51.37 18.09 42.55 5.86 29.52 3.72C16.49 1.57 4.17 10.33 2.02 23.27C-0.14 36.21 8.68 48.44 21.71 50.59Z" fill="#FC4423" fill-opacity="1.000000" fill-rule="nonzero"/>
		<path id="path210" d="M2.4 23.33C4.52 10.6 16.64 1.98 29.46 4.09C42.28 6.2 50.96 18.23 48.83 30.97C46.71 43.7 34.59 52.32 21.77 50.21C8.95 48.1 0.27 36.07 2.4 23.33ZM49.21 31.03C51.37 18.09 42.55 5.86 29.52 3.72C16.49 1.57 4.17 10.33 2.02 23.27C-0.14 36.21 8.68 48.44 21.71 50.59C34.74 52.73 47.06 43.97 49.21 31.03Z" stroke="#000000" stroke-opacity="0" stroke-width="0.133333"/>
		<path id="path212" d="M21.73 50.46C8.77 48.33 0 36.17 2.14 23.29C4.29 10.42 16.54 1.71 29.5 3.84C42.46 5.97 51.23 18.14 49.09 31.01C46.94 43.88 34.69 52.59 21.73 50.46ZM21.67 50.84C34.84 53 47.28 44.15 49.47 31.07C51.65 17.99 42.74 5.63 29.56 3.47C16.39 1.3 3.95 10.15 1.76 23.23C-0.42 36.31 8.49 48.67 21.67 50.84Z" fill="#FC4423" fill-opacity="1.000000" fill-rule="nonzero"/>
		<path id="path212" d="M2.14 23.29C4.29 10.42 16.54 1.71 29.5 3.84C42.46 5.97 51.23 18.14 49.09 31.01C46.94 43.88 34.69 52.59 21.73 50.46C8.77 48.33 0 36.17 2.14 23.29ZM49.47 31.07C51.65 17.99 42.74 5.63 29.56 3.47C16.39 1.3 3.95 10.15 1.76 23.23C-0.42 36.31 8.49 48.67 21.67 50.84C34.84 53 47.28 44.15 49.47 31.07Z" stroke="#000000" stroke-opacity="0" stroke-width="0.133333"/>
		<path id="path214" d="M21.69 50.71C8.58 48.56 -0.28 36.26 1.89 23.25C4.06 10.24 16.44 1.44 29.54 3.59C42.65 5.75 51.51 18.04 49.34 31.05C47.17 44.06 34.79 52.87 21.69 50.71ZM21.62 51.09C34.94 53.28 47.51 44.33 49.72 31.11C51.92 17.89 42.92 5.4 29.61 3.21C16.29 1.03 3.72 9.97 1.51 23.19C-0.69 36.41 8.31 48.9 21.62 51.09Z" fill="#FC4322" fill-opacity="1.000000" fill-rule="nonzero"/>
		<path id="path214" d="M1.89 23.25C4.06 10.24 16.44 1.44 29.54 3.59C42.65 5.75 51.51 18.04 49.34 31.05C47.17 44.06 34.79 52.87 21.69 50.71C8.58 48.56 -0.28 36.26 1.89 23.25ZM49.72 31.11C51.92 17.89 42.92 5.4 29.61 3.21C16.29 1.03 3.72 9.97 1.51 23.19C-0.69 36.41 8.31 48.9 21.62 51.09C34.94 53.28 47.51 44.33 49.72 31.11Z" stroke="#000000" stroke-opacity="0" stroke-width="0.133333"/>
		<path id="path216" d="M21.65 50.96C8.4 48.79 -0.55 36.36 1.64 23.21C3.83 10.06 16.34 1.16 29.58 3.34C42.83 5.52 51.78 17.94 49.59 31.09C47.4 44.24 34.89 53.14 21.65 50.96ZM21.58 51.34C35.03 53.55 47.74 44.51 49.97 31.16C52.2 17.8 43.1 5.18 29.65 2.96C16.2 0.75 3.49 9.79 1.26 23.15C-0.97 36.51 8.13 49.13 21.58 51.34Z" fill="#FC4322" fill-opacity="1.000000" fill-rule="nonzero"/>
		<path id="path216" d="M1.64 23.21C3.83 10.06 16.34 1.16 29.58 3.34C42.83 5.52 51.78 17.94 49.59 31.09C47.4 44.24 34.89 53.14 21.65 50.96C8.4 48.79 -0.55 36.36 1.64 23.21ZM49.97 31.16C52.2 17.8 43.1 5.18 29.65 2.96C16.2 0.75 3.49 9.79 1.26 23.15C-0.97 36.51 8.13 49.13 21.58 51.34C35.03 53.55 47.74 44.51 49.97 31.16Z" stroke="#000000" stroke-opacity="0" stroke-width="0.133333"/>
		<path id="path218" d="M21.6 51.21C8.22 49.01 -0.83 36.46 1.39 23.17C3.6 9.88 16.25 0.89 29.63 3.09C43.01 5.29 52.06 17.85 49.84 31.14C47.63 44.42 34.98 53.41 21.6 51.21ZM21.54 51.59C35.13 53.82 47.97 44.69 50.22 31.2C52.47 17.7 43.28 4.95 29.69 2.71C16.1 0.48 3.26 9.61 1.01 23.11C-1.24 36.6 7.95 49.36 21.54 51.59Z" fill="#FC4322" fill-opacity="1.000000" fill-rule="nonzero"/>
		<path id="path218" d="M1.39 23.17C3.6 9.88 16.25 0.89 29.63 3.09C43.01 5.29 52.06 17.85 49.84 31.14C47.63 44.42 34.98 53.41 21.6 51.21C8.22 49.01 -0.83 36.46 1.39 23.17ZM50.22 31.2C52.47 17.7 43.28 4.95 29.69 2.71C16.1 0.48 3.26 9.61 1.01 23.11C-1.24 36.6 7.95 49.36 21.54 51.59C35.13 53.82 47.97 44.69 50.22 31.2Z" stroke="#000000" stroke-opacity="0" stroke-width="0.133333"/>
		<path id="path220" d="M21.56 51.46C8.04 49.24 -1.1 36.55 1.13 23.13C3.37 9.7 16.15 0.62 29.67 2.84C43.19 5.06 52.33 17.75 50.1 31.18C47.86 44.6 35.08 53.69 21.56 51.46ZM21.5 51.84C35.23 54.1 48.2 44.87 50.47 31.24C52.75 17.6 43.46 4.72 29.73 2.46C16 0.21 3.03 9.43 0.76 23.06C-1.52 36.7 7.77 49.58 21.5 51.84Z" fill="#FC4322" fill-opacity="1.000000" fill-rule="nonzero"/>
		<path id="path220" d="M1.13 23.13C3.37 9.7 16.15 0.62 29.67 2.84C43.19 5.06 52.33 17.75 50.1 31.18C47.86 44.6 35.08 53.69 21.56 51.46C8.04 49.24 -1.1 36.55 1.13 23.13ZM50.47 31.24C52.75 17.6 43.46 4.72 29.73 2.46C16 0.21 3.03 9.43 0.76 23.06C-1.52 36.7 7.77 49.58 21.5 51.84C35.23 54.1 48.2 44.87 50.47 31.24Z" stroke="#000000" stroke-opacity="0" stroke-width="0.133333"/>
		<path id="path222" d="M21.52 51.72C7.86 49.47 -1.38 36.65 0.88 23.08C3.14 9.52 16.05 0.34 29.71 2.59C43.37 4.83 52.61 17.65 50.35 31.22C48.09 44.78 35.18 53.96 21.52 51.72ZM21.46 52.09C35.33 54.37 48.43 45.05 50.73 31.28C53.02 17.51 43.64 4.49 29.77 2.21C15.9 -0.07 2.8 9.25 0.5 23.02C-1.79 36.8 7.59 49.81 21.46 52.09Z" fill="#FC4322" fill-opacity="1.000000" fill-rule="nonzero"/>
		<path id="path222" d="M0.88 23.08C3.14 9.52 16.05 0.34 29.71 2.59C43.37 4.83 52.61 17.65 50.35 31.22C48.09 44.78 35.18 53.96 21.52 51.72C7.86 49.47 -1.38 36.65 0.88 23.08ZM50.73 31.28C53.02 17.51 43.64 4.49 29.77 2.21C15.9 -0.07 2.8 9.25 0.5 23.02C-1.79 36.8 7.59 49.81 21.46 52.09C35.33 54.37 48.43 45.05 50.73 31.28Z" stroke="#000000" stroke-opacity="0" stroke-width="0.133333"/>
		<path id="path224" d="M21.48 51.97C7.68 49.7 -1.66 36.75 0.63 23.04C2.91 9.34 15.95 0.07 29.75 2.34C43.55 4.61 52.89 17.56 50.6 31.26C48.32 44.96 35.28 54.23 21.48 51.97ZM21.42 52.34C35.42 54.64 48.66 45.23 50.98 31.32C53.3 17.41 43.82 4.26 29.81 1.96C15.81 -0.34 2.57 9.07 0.25 22.98C-2.07 36.89 7.41 50.04 21.42 52.34Z" fill="#FC4322" fill-opacity="1.000000" fill-rule="nonzero"/>
		<path id="path224" d="M0.63 23.04C2.91 9.34 15.95 0.07 29.75 2.34C43.55 4.61 52.89 17.56 50.6 31.26C48.32 44.96 35.28 54.23 21.48 51.97C7.68 49.7 -1.66 36.75 0.63 23.04ZM50.98 31.32C53.3 17.41 43.82 4.26 29.81 1.96C15.81 -0.34 2.57 9.07 0.25 22.98C-2.07 36.89 7.41 50.04 21.42 52.34C35.42 54.64 48.66 45.23 50.98 31.32Z" stroke="#000000" stroke-opacity="0" stroke-width="0.133333"/>
		<path id="path226" d="M21.44 52.22C7.5 49.92 -1.93 36.84 0.38 23C2.68 9.16 15.85 -0.21 29.79 2.09C43.73 4.38 53.16 17.46 50.85 31.3C48.55 45.14 35.38 54.51 21.44 52.22ZM21.37 52.59C35.52 54.92 48.89 45.41 51.23 31.36C53.57 17.31 44 4.04 29.86 1.71C15.71 -0.62 2.34 8.89 0 22.94C-2.34 36.99 7.23 50.27 21.37 52.59Z" fill="#FC4321" fill-opacity="1.000000" fill-rule="nonzero"/>
		<path id="path226" d="M0.38 23C2.68 9.16 15.85 -0.21 29.79 2.09C43.73 4.38 53.16 17.46 50.85 31.3C48.55 45.14 35.38 54.51 21.44 52.22C7.5 49.92 -1.93 36.84 0.38 23ZM51.23 31.36C53.57 17.31 44 4.04 29.86 1.71C15.71 -0.62 2.34 8.89 0 22.94C-2.34 36.99 7.23 50.27 21.37 52.59C35.52 54.92 48.89 45.41 51.23 31.36Z" stroke="#000000" stroke-opacity="0" stroke-width="0.133333"/>
		<path id="path228" d="M21.39 52.47C7.32 50.15 -2.21 36.94 0.12 22.96C2.46 8.98 15.76 -0.48 29.84 1.84C43.91 4.15 53.44 17.36 51.11 31.34C48.77 45.32 35.47 54.78 21.39 52.47ZM21.33 52.84C35.62 55.19 49.12 45.59 51.48 31.41C53.85 17.22 44.19 3.81 29.9 1.46C15.61 -0.89 2.11 8.71 -0.25 22.9C-2.62 37.09 7.04 50.49 21.33 52.84Z" fill="#FC4221" fill-opacity="1.000000" fill-rule="nonzero"/>
		<path id="path228" d="M0.12 22.96C2.46 8.98 15.76 -0.48 29.84 1.84C43.91 4.15 53.44 17.36 51.11 31.34C48.77 45.32 35.47 54.78 21.39 52.47C7.32 50.15 -2.21 36.94 0.12 22.96ZM51.48 31.41C53.85 17.22 44.19 3.81 29.9 1.46C15.61 -0.89 2.11 8.71 -0.25 22.9C-2.62 37.09 7.04 50.49 21.33 52.84C35.62 55.19 49.12 45.59 51.48 31.41Z" stroke="#000000" stroke-opacity="0" stroke-width="0.133333"/>
		<path id="path230" d="M21.35 52.72C7.14 50.38 -2.48 37.04 -0.13 22.92C2.23 8.8 15.66 -0.75 29.88 1.59C44.09 3.92 53.71 17.26 51.36 31.38C49 45.5 35.57 55.06 21.35 52.72ZM21.29 53.09C35.72 55.47 49.35 45.77 51.74 31.45C54.13 17.12 44.37 3.58 29.94 1.21C15.51 -1.16 1.88 8.53 -0.51 22.86C-2.9 37.18 6.86 50.72 21.29 53.09Z" fill="#FC4221" fill-opacity="1.000000" fill-rule="nonzero"/>
		<path id="path230" d="M-0.13 22.92C2.23 8.8 15.66 -0.75 29.88 1.59C44.09 3.92 53.71 17.26 51.36 31.38C49 45.5 35.57 55.06 21.35 52.72C7.14 50.38 -2.48 37.04 -0.13 22.92ZM51.74 31.45C54.13 17.12 44.37 3.58 29.94 1.21C15.51 -1.16 1.88 8.53 -0.51 22.86C-2.9 37.18 6.86 50.72 21.29 53.09C35.72 55.47 49.35 45.77 51.74 31.45Z" stroke="#000000" stroke-opacity="0" stroke-width="0.133333"/>
		<path id="path232" d="M21.31 52.97C6.95 50.61 -2.76 37.14 -0.38 22.88C2 8.62 15.56 -1.03 29.92 1.33C44.28 3.7 53.99 17.17 51.61 31.43C49.23 45.68 35.67 55.33 21.31 52.97ZM21.25 53.34C35.81 55.74 49.58 45.95 51.99 31.49C54.4 17.02 44.55 3.35 29.98 0.96C15.42 -1.44 1.65 8.35 -0.76 22.81C-3.17 37.28 6.68 50.95 21.25 53.34Z" fill="#FC4221" fill-opacity="1.000000" fill-rule="nonzero"/>
		<path id="path232" d="M-0.38 22.88C2 8.62 15.56 -1.03 29.92 1.33C44.28 3.7 53.99 17.17 51.61 31.43C49.23 45.68 35.67 55.33 21.31 52.97C6.95 50.61 -2.76 37.14 -0.38 22.88ZM51.99 31.49C54.4 17.02 44.55 3.35 29.98 0.96C15.42 -1.44 1.65 8.35 -0.76 22.81C-3.17 37.28 6.68 50.95 21.25 53.34C35.81 55.74 49.58 45.95 51.99 31.49Z" stroke="#000000" stroke-opacity="0" stroke-width="0.133333"/>
		<path id="path234" d="M21.27 53.22C6.77 50.84 -3.03 37.23 -0.63 22.84C1.77 8.44 15.46 -1.3 29.96 1.08C44.46 3.47 54.26 17.07 51.86 31.47C49.46 45.86 35.77 55.6 21.27 53.22ZM21.21 53.59C35.91 56.01 49.81 46.13 52.24 31.53C54.68 16.93 44.73 3.13 30.02 0.71C15.32 -1.71 1.42 8.17 -1.01 22.77C-3.45 37.38 6.5 51.18 21.21 53.59Z" fill="#FC4221" fill-opacity="1.000000" fill-rule="nonzero"/>
		<path id="path234" d="M-0.63 22.84C1.77 8.44 15.46 -1.3 29.96 1.08C44.46 3.47 54.26 17.07 51.86 31.47C49.46 45.86 35.77 55.6 21.27 53.22C6.77 50.84 -3.03 37.23 -0.63 22.84ZM52.24 31.53C54.68 16.93 44.73 3.13 30.02 0.71C15.32 -1.71 1.42 8.17 -1.01 22.77C-3.45 37.38 6.5 51.18 21.21 53.59C35.91 56.01 49.81 46.13 52.24 31.53Z" stroke="#000000" stroke-opacity="0" stroke-width="0.133333"/>
		<path id="path236" d="M21.23 53.47C6.59 51.06 -3.31 37.33 -0.89 22.79C1.54 8.26 15.37 -1.57 30 0.83C44.64 3.24 54.54 16.97 52.12 31.51C49.69 46.04 35.86 55.88 21.23 53.47ZM21.16 53.85C36.01 56.29 50.04 46.31 52.49 31.57C54.95 16.83 44.91 2.9 30.07 0.46C15.22 -1.98 1.19 7.99 -1.26 22.73C-3.72 37.47 6.32 51.4 21.16 53.85Z" fill="#FC4221" fill-opacity="1.000000" fill-rule="nonzero"/>
		<path id="path236" d="M-0.89 22.79C1.54 8.26 15.37 -1.57 30 0.83C44.64 3.24 54.54 16.97 52.12 31.51C49.69 46.04 35.86 55.88 21.23 53.47C6.59 51.06 -3.31 37.33 -0.89 22.79ZM52.49 31.57C54.95 16.83 44.91 2.9 30.07 0.46C15.22 -1.98 1.19 7.99 -1.26 22.73C-3.72 37.47 6.32 51.4 21.16 53.85C36.01 56.29 50.04 46.31 52.49 31.57Z" stroke="#000000" stroke-opacity="0" stroke-width="0.133333"/>
		<path id="path238" d="M21.19 53.72C6.41 51.29 -3.58 37.43 -1.14 22.75C1.31 8.08 15.27 -1.85 30.04 0.58C44.82 3.01 54.81 16.88 52.37 31.55C49.92 46.22 35.96 56.15 21.19 53.72ZM21.12 54.1C36.11 56.56 50.27 46.49 52.75 31.61C55.23 16.73 45.09 2.67 30.11 0.21C15.12 -2.26 0.96 7.81 -1.52 22.69C-4 37.57 6.14 51.63 21.12 54.1Z" fill="#FC4220" fill-opacity="1.000000" fill-rule="nonzero"/>
		<path id="path238" d="M-1.14 22.75C1.31 8.08 15.27 -1.85 30.04 0.58C44.82 3.01 54.81 16.88 52.37 31.55C49.92 46.22 35.96 56.15 21.19 53.72C6.41 51.29 -3.58 37.43 -1.14 22.75ZM52.75 31.61C55.23 16.73 45.09 2.67 30.11 0.21C15.12 -2.26 0.96 7.81 -1.52 22.69C-4 37.57 6.14 51.63 21.12 54.1C36.11 56.56 50.27 46.49 52.75 31.61Z" stroke="#000000" stroke-opacity="0" stroke-width="0.133333"/>
		<path id="path240" d="M21.14 53.97C6.23 51.52 -3.86 37.52 -1.39 22.71C1.08 7.9 15.17 -2.12 30.09 0.33C45 2.78 55.09 16.78 52.62 31.59C50.15 46.4 36.06 56.42 21.14 53.97ZM21.08 54.35C36.2 56.83 50.49 46.67 53 31.65C55.5 16.63 45.27 2.44 30.15 -0.04C15.03 -2.53 0.74 7.63 -1.77 22.65C-4.27 37.67 5.96 51.86 21.08 54.35Z" fill="#FC4220" fill-opacity="1.000000" fill-rule="nonzero"/>
		<path id="path240" d="M-1.39 22.71C1.08 7.9 15.17 -2.12 30.09 0.33C45 2.78 55.09 16.78 52.62 31.59C50.15 46.4 36.06 56.42 21.14 53.97C6.23 51.52 -3.86 37.52 -1.39 22.71ZM53 31.65C55.5 16.63 45.27 2.44 30.15 -0.04C15.03 -2.53 0.74 7.63 -1.77 22.65C-4.27 37.67 5.96 51.86 21.08 54.35C36.2 56.83 50.49 46.67 53 31.65Z" stroke="#000000" stroke-opacity="0" stroke-width="0.133333"/>
		<path id="path242" d="M21.1 54.22C6.05 51.75 -4.13 37.62 -1.64 22.67C0.85 7.72 15.07 -2.39 30.13 0.08C45.18 2.56 55.36 16.68 52.87 31.63C50.38 46.58 36.16 56.7 21.1 54.22ZM21.04 54.6C36.3 57.11 50.72 46.85 53.25 31.7C55.78 16.54 45.45 2.22 30.19 -0.29C14.93 -2.8 0.51 7.45 -2.02 22.61C-4.55 37.77 5.78 52.09 21.04 54.6Z" fill="#FC4220" fill-opacity="1.000000" fill-rule="nonzero"/>
		<path id="path242" d="M-1.64 22.67C0.85 7.72 15.07 -2.39 30.13 0.08C45.18 2.56 55.36 16.68 52.87 31.63C50.38 46.58 36.16 56.7 21.1 54.22C6.05 51.75 -4.13 37.62 -1.64 22.67ZM53.25 31.7C55.78 16.54 45.45 2.22 30.19 -0.29C14.93 -2.8 0.51 7.45 -2.02 22.61C-4.55 37.77 5.78 52.09 21.04 54.6C36.3 57.11 50.72 46.85 53.25 31.7Z" stroke="#000000" stroke-opacity="0" stroke-width="0.133333"/>
		<path id="path244" d="M21.06 54.47C5.87 51.97 -4.41 37.72 -1.89 22.63C0.62 7.54 14.98 -2.67 30.17 -0.17C45.36 2.33 55.64 16.59 53.12 31.67C50.61 46.76 36.25 56.97 21.06 54.47ZM21 54.85C36.4 57.38 50.95 47.03 53.5 31.74C56.05 16.44 45.63 1.99 30.23 -0.55C14.83 -3.08 0.28 7.27 -2.27 22.57C-4.82 37.86 5.6 52.32 21 54.85Z" fill="#FC4120" fill-opacity="1.000000" fill-rule="nonzero"/>
		<path id="path244" d="M-1.89 22.63C0.62 7.54 14.98 -2.67 30.17 -0.17C45.36 2.33 55.64 16.59 53.12 31.67C50.61 46.76 36.25 56.97 21.06 54.47C5.87 51.97 -4.41 37.72 -1.89 22.63ZM53.5 31.74C56.05 16.44 45.63 1.99 30.23 -0.55C14.83 -3.08 0.28 7.27 -2.27 22.57C-4.82 37.86 5.6 52.32 21 54.85C36.4 57.38 50.95 47.03 53.5 31.74Z" stroke="#000000" stroke-opacity="0" stroke-width="0.133333"/>
		<path id="path246" d="M21.02 54.72C5.69 52.2 -4.69 37.81 -2.15 22.59C0.39 7.36 14.88 -2.94 30.21 -0.42C45.54 2.1 55.92 16.49 53.38 31.72C50.84 46.94 36.35 57.24 21.02 54.72ZM20.96 55.1C36.5 57.65 51.18 47.21 53.76 31.78C56.33 16.34 45.82 1.76 30.27 -0.8C14.73 -3.35 0.05 7.09 -2.53 22.52C-5.1 37.96 5.41 52.54 20.96 55.1Z" fill="#FC4120" fill-opacity="1.000000" fill-rule="nonzero"/>
		<path id="path246" d="M-2.15 22.59C0.39 7.36 14.88 -2.94 30.21 -0.42C45.54 2.1 55.92 16.49 53.38 31.72C50.84 46.94 36.35 57.24 21.02 54.72C5.69 52.2 -4.69 37.81 -2.15 22.59ZM53.76 31.78C56.33 16.34 45.82 1.76 30.27 -0.8C14.73 -3.35 0.05 7.09 -2.53 22.52C-5.1 37.96 5.41 52.54 20.96 55.1C36.5 57.65 51.18 47.21 53.76 31.78Z" stroke="#000000" stroke-opacity="0" stroke-width="0.133333"/>
		<path id="path248" d="M20.98 54.97C5.5 52.43 -4.96 37.91 -2.4 22.55C0.16 7.18 14.78 -3.21 30.25 -0.67C45.73 1.87 56.19 16.39 53.63 31.76C51.07 47.12 36.45 57.52 20.98 54.97ZM20.91 55.35C36.6 57.93 51.41 47.39 54.01 31.82C56.6 16.25 46 1.53 30.32 -1.05C14.63 -3.62 -0.18 6.91 -2.78 22.48C-5.37 38.06 5.23 52.77 20.91 55.35Z" fill="#FC4120" fill-opacity="1.000000" fill-rule="nonzero"/>
		<path id="path248" d="M-2.4 22.55C0.16 7.18 14.78 -3.21 30.25 -0.67C45.73 1.87 56.19 16.39 53.63 31.76C51.07 47.12 36.45 57.52 20.98 54.97C5.5 52.43 -4.96 37.91 -2.4 22.55ZM54.01 31.82C56.6 16.25 46 1.53 30.32 -1.05C14.63 -3.62 -0.18 6.91 -2.78 22.48C-5.37 38.06 5.23 52.77 20.91 55.35C36.6 57.93 51.41 47.39 54.01 31.82Z" stroke="#000000" stroke-opacity="0" stroke-width="0.133333"/>
		<path id="path250" d="M20.94 55.22C5.32 52.66 -5.24 38.01 -2.65 22.5C-0.07 7 14.68 -3.49 30.29 -0.92C45.91 1.65 56.47 16.3 53.88 31.8C51.3 47.3 36.55 57.79 20.94 55.22ZM20.87 55.6C36.69 58.2 51.64 47.57 54.26 31.86C56.88 16.15 46.18 1.3 30.36 -1.3C14.54 -3.9 -0.41 6.73 -3.03 22.44C-5.65 38.15 5.05 53 20.87 55.6Z" fill="#FC411F" fill-opacity="1.000000" fill-rule="nonzero"/>
		<path id="path250" d="M-2.65 22.5C-0.07 7 14.68 -3.49 30.29 -0.92C45.91 1.65 56.47 16.3 53.88 31.8C51.3 47.3 36.55 57.79 20.94 55.22C5.32 52.66 -5.24 38.01 -2.65 22.5ZM54.26 31.86C56.88 16.15 46.18 1.3 30.36 -1.3C14.54 -3.9 -0.41 6.73 -3.03 22.44C-5.65 38.15 5.05 53 20.87 55.6C36.69 58.2 51.64 47.57 54.26 31.86Z" stroke="#000000" stroke-opacity="0" stroke-width="0.133333"/>
		<path id="path252" d="M20.89 55.47C5.14 52.88 -5.51 38.1 -2.9 22.46C-0.3 6.82 14.59 -3.76 30.34 -1.17C46.09 1.42 56.74 16.2 54.13 31.84C51.53 47.48 36.64 58.06 20.89 55.47ZM20.83 55.85C36.79 58.47 51.87 47.75 54.51 31.9C57.16 16.05 46.36 1.08 30.4 -1.55C14.44 -4.17 -0.64 6.55 -3.28 22.4C-5.93 38.25 4.87 53.23 20.83 55.85Z" fill="#FC411F" fill-opacity="1.000000" fill-rule="nonzero"/>
		<path id="path252" d="M-2.9 22.46C-0.3 6.82 14.59 -3.76 30.34 -1.17C46.09 1.42 56.74 16.2 54.13 31.84C51.53 47.48 36.64 58.06 20.89 55.47C5.14 52.88 -5.51 38.1 -2.9 22.46ZM54.51 31.9C57.16 16.05 46.36 1.08 30.4 -1.55C14.44 -4.17 -0.64 6.55 -3.28 22.4C-5.93 38.25 4.87 53.23 20.83 55.85C36.79 58.47 51.87 47.75 54.51 31.9Z" stroke="#000000" stroke-opacity="0" stroke-width="0.133333"/>
		<path id="path254" d="M20.85 55.73C4.96 53.11 -5.79 38.2 -3.16 22.42C-0.53 6.64 14.49 -4.04 30.38 -1.42C46.27 1.19 57.02 16.1 54.39 31.88C51.76 47.66 36.74 58.34 20.85 55.73ZM20.79 56.1C36.89 58.75 52.1 47.93 54.77 31.94C57.43 15.96 46.54 0.85 30.44 -1.8C14.34 -4.45 -0.87 6.37 -3.54 22.36C-6.2 38.35 4.69 53.45 20.79 56.1Z" fill="#FC411F" fill-opacity="1.000000" fill-rule="nonzero"/>
		<path id="path254" d="M-3.16 22.42C-0.53 6.64 14.49 -4.04 30.38 -1.42C46.27 1.19 57.02 16.1 54.39 31.88C51.76 47.66 36.74 58.34 20.85 55.73C4.96 53.11 -5.79 38.2 -3.16 22.42ZM54.77 31.94C57.43 15.96 46.54 0.85 30.44 -1.8C14.34 -4.45 -0.87 6.37 -3.54 22.36C-6.2 38.35 4.69 53.45 20.79 56.1C36.89 58.75 52.1 47.93 54.77 31.94Z" stroke="#000000" stroke-opacity="0" stroke-width="0.133333"/>
		<path id="path256" d="M20.81 55.98C4.78 53.34 -6.06 38.3 -3.41 22.38C-0.76 6.46 14.39 -4.31 30.42 -1.67C46.45 0.96 57.29 16 54.64 31.92C51.99 47.84 36.84 58.61 20.81 55.98ZM20.75 56.35C36.99 59.02 52.33 48.11 55.02 31.99C57.71 15.86 46.72 0.62 30.48 -2.05C14.24 -4.72 -1.1 6.19 -3.79 22.32C-6.48 38.44 4.51 53.68 20.75 56.35Z" fill="#FC411F" fill-opacity="1.000000" fill-rule="nonzero"/>
		<path id="path256" d="M-3.41 22.38C-0.76 6.46 14.39 -4.31 30.42 -1.67C46.45 0.96 57.29 16 54.64 31.92C51.99 47.84 36.84 58.61 20.81 55.98C4.78 53.34 -6.06 38.3 -3.41 22.38ZM55.02 31.99C57.71 15.86 46.72 0.62 30.48 -2.05C14.24 -4.72 -1.1 6.19 -3.79 22.32C-6.48 38.44 4.51 53.68 20.75 56.35C36.99 59.02 52.33 48.11 55.02 31.99Z" stroke="#000000" stroke-opacity="0" stroke-width="0.133333"/>
		<path id="path258" d="M20.77 56.23C4.6 53.57 -6.34 38.4 -3.66 22.34C-0.98 6.28 14.29 -4.58 30.46 -1.92C46.63 0.74 57.57 15.91 54.89 31.97C52.21 48.02 36.94 58.89 20.77 56.23ZM20.71 56.6C37.08 59.3 52.56 48.29 55.27 32.03C57.98 15.76 46.9 0.39 30.52 -2.3C14.15 -4.99 -1.33 6.01 -4.04 22.28C-6.75 38.54 4.33 53.91 20.71 56.6Z" fill="#FC401F" fill-opacity="1.000000" fill-rule="nonzero"/>
		<path id="path258" d="M-3.66 22.34C-0.98 6.28 14.29 -4.58 30.46 -1.92C46.63 0.74 57.57 15.91 54.89 31.97C52.21 48.02 36.94 58.89 20.77 56.23C4.6 53.57 -6.34 38.4 -3.66 22.34ZM55.27 32.03C57.98 15.76 46.9 0.39 30.52 -2.3C14.15 -4.99 -1.33 6.01 -4.04 22.28C-6.75 38.54 4.33 53.91 20.71 56.6C37.08 59.3 52.56 48.29 55.27 32.03Z" stroke="#000000" stroke-opacity="0" stroke-width="0.133333"/>
		<path id="path260" d="M20.73 56.48C4.42 53.8 -6.61 38.49 -3.91 22.3C-1.21 6.1 14.2 -4.86 30.5 -2.17C46.81 0.51 57.84 15.81 55.14 32.01C52.44 48.2 37.03 59.16 20.73 56.48ZM20.66 56.85C37.18 59.57 52.79 48.47 55.52 32.07C58.26 15.67 47.08 0.17 30.57 -2.55C14.05 -5.27 -1.56 5.83 -4.29 22.23C-7.03 38.64 4.15 54.14 20.66 56.85Z" fill="#FC401F" fill-opacity="1.000000" fill-rule="nonzero"/>
		<path id="path260" d="M-3.91 22.3C-1.21 6.1 14.2 -4.86 30.5 -2.17C46.81 0.51 57.84 15.81 55.14 32.01C52.44 48.2 37.03 59.16 20.73 56.48C4.42 53.8 -6.61 38.49 -3.91 22.3ZM55.52 32.07C58.26 15.67 47.08 0.17 30.57 -2.55C14.05 -5.27 -1.56 5.83 -4.29 22.23C-7.03 38.64 4.15 54.14 20.66 56.85C37.18 59.57 52.79 48.47 55.52 32.07Z" stroke="#000000" stroke-opacity="0" stroke-width="0.133333"/>
		<path id="path262" d="M20.68 56.73C4.24 54.02 -6.89 38.59 -4.17 22.25C-1.44 5.92 14.1 -5.13 30.55 -2.42C46.99 0.28 58.12 15.71 55.4 32.05C52.67 48.38 37.13 59.43 20.68 56.73ZM20.62 57.1C37.28 59.84 53.02 48.65 55.78 32.11C58.53 15.57 47.27 -0.06 30.61 -2.8C13.95 -5.54 -1.79 5.65 -4.54 22.19C-7.3 38.73 3.96 54.37 20.62 57.1Z" fill="#FC401E" fill-opacity="1.000000" fill-rule="nonzero"/>
		<path id="path262" d="M-4.17 22.25C-1.44 5.92 14.1 -5.13 30.55 -2.42C46.99 0.28 58.12 15.71 55.4 32.05C52.67 48.38 37.13 59.43 20.68 56.73C4.24 54.02 -6.89 38.59 -4.17 22.25ZM55.78 32.11C58.53 15.57 47.27 -0.06 30.61 -2.8C13.95 -5.54 -1.79 5.65 -4.54 22.19C-7.3 38.73 3.96 54.37 20.62 57.1C37.28 59.84 53.02 48.65 55.78 32.11Z" stroke="#000000" stroke-opacity="0" stroke-width="0.133333"/>
		<path id="path264" d="M20.64 56.98C4.06 54.25 -7.16 38.69 -4.42 22.21C-1.67 5.74 14 -5.4 30.59 -2.68C47.17 0.05 58.39 15.62 55.65 32.09C52.9 48.56 37.23 59.71 20.64 56.98ZM20.58 57.35C37.38 60.12 53.25 48.83 56.03 32.15C58.81 15.47 47.45 -0.29 30.65 -3.05C13.85 -5.81 -2.02 5.47 -4.8 22.15C-7.58 38.83 3.78 54.59 20.58 57.35Z" fill="#FC401E" fill-opacity="1.000000" fill-rule="nonzero"/>
		<path id="path264" d="M-4.42 22.21C-1.67 5.74 14 -5.4 30.59 -2.68C47.17 0.05 58.39 15.62 55.65 32.09C52.9 48.56 37.23 59.71 20.64 56.98C4.06 54.25 -7.16 38.69 -4.42 22.21ZM56.03 32.15C58.81 15.47 47.45 -0.29 30.65 -3.05C13.85 -5.81 -2.02 5.47 -4.8 22.15C-7.58 38.83 3.78 54.59 20.58 57.35C37.38 60.12 53.25 48.83 56.03 32.15Z" stroke="#000000" stroke-opacity="0" stroke-width="0.133333"/>
		<path id="path266" d="M20.6 57.23C3.87 54.48 -7.44 38.78 -4.67 22.17C-1.9 5.56 13.9 -5.68 30.63 -2.93C47.36 -0.18 58.67 15.52 55.9 32.13C53.13 48.74 37.33 59.98 20.6 57.23ZM20.54 57.61C37.47 60.39 53.48 49.01 56.28 32.19C59.08 15.37 47.63 -0.52 30.69 -3.3C13.76 -6.09 -2.25 5.29 -5.05 22.11C-7.85 38.93 3.6 54.82 20.54 57.61Z" fill="#FC401E" fill-opacity="1.000000" fill-rule="nonzero"/>
		<path id="path266" d="M-4.67 22.17C-1.9 5.56 13.9 -5.68 30.63 -2.93C47.36 -0.18 58.67 15.52 55.9 32.13C53.13 48.74 37.33 59.98 20.6 57.23C3.87 54.48 -7.44 38.78 -4.67 22.17ZM56.28 32.19C59.08 15.37 47.63 -0.52 30.69 -3.3C13.76 -6.09 -2.25 5.29 -5.05 22.11C-7.85 38.93 3.6 54.82 20.54 57.61C37.47 60.39 53.48 49.01 56.28 32.19Z" stroke="#000000" stroke-opacity="0" stroke-width="0.133333"/>
		<path id="path268" d="M20.56 57.48C3.69 54.71 -7.72 38.88 -4.92 22.13C-2.13 5.38 13.81 -5.95 30.67 -3.18C47.54 -0.4 58.95 15.42 56.15 32.17C53.36 48.92 37.42 60.25 20.56 57.48ZM20.5 57.86C37.57 60.66 53.71 49.19 56.53 32.24C59.36 15.28 47.81 -0.75 30.73 -3.55C13.66 -6.36 -2.48 5.11 -5.3 22.07C-8.13 39.03 3.42 55.05 20.5 57.86Z" fill="#FC401E" fill-opacity="1.000000" fill-rule="nonzero"/>
		<path id="path268" d="M-4.92 22.13C-2.13 5.38 13.81 -5.95 30.67 -3.18C47.54 -0.4 58.95 15.42 56.15 32.17C53.36 48.92 37.42 60.25 20.56 57.48C3.69 54.71 -7.72 38.88 -4.92 22.13ZM56.53 32.24C59.36 15.28 47.81 -0.75 30.73 -3.55C13.66 -6.36 -2.48 5.11 -5.3 22.07C-8.13 39.03 3.42 55.05 20.5 57.86C37.57 60.66 53.71 49.19 56.53 32.24Z" stroke="#000000" stroke-opacity="0" stroke-width="0.133333"/>
		<path id="path270" d="M20.52 57.73C3.51 54.93 -7.99 38.98 -5.18 22.09C-2.36 5.2 13.71 -6.22 30.71 -3.43C47.72 -0.63 59.22 15.33 56.41 32.21C53.59 49.1 37.52 60.53 20.52 57.73ZM20.45 58.11C37.67 60.94 53.93 49.37 56.78 32.28C59.63 15.18 47.99 -0.97 30.78 -3.8C13.56 -6.63 -2.7 4.93 -5.55 22.03C-8.4 39.12 3.24 55.28 20.45 58.11Z" fill="#FC401E" fill-opacity="1.000000" fill-rule="nonzero"/>
		<path id="path270" d="M-5.18 22.09C-2.36 5.2 13.71 -6.22 30.71 -3.43C47.72 -0.63 59.22 15.33 56.41 32.21C53.59 49.1 37.52 60.53 20.52 57.73C3.51 54.93 -7.99 38.98 -5.18 22.09ZM56.78 32.28C59.63 15.18 47.99 -0.97 30.78 -3.8C13.56 -6.63 -2.7 4.93 -5.55 22.03C-8.4 39.12 3.24 55.28 20.45 58.11C37.67 60.94 53.93 49.37 56.78 32.28Z" stroke="#000000" stroke-opacity="0" stroke-width="0.133333"/>
		<path id="path272" d="M20.48 57.98C3.33 55.16 -8.27 39.07 -5.43 22.05C-2.59 5.02 13.61 -6.5 30.75 -3.68C47.9 -0.86 59.5 15.23 56.66 32.26C53.82 49.28 37.62 60.8 20.48 57.98ZM20.41 58.36C37.77 61.21 54.16 49.55 57.04 32.32C59.91 15.08 48.17 -1.2 30.82 -4.05C13.46 -6.91 -2.93 4.75 -5.81 21.99C-8.68 39.22 3.06 55.5 20.41 58.36Z" fill="#FC401E" fill-opacity="1.000000" fill-rule="nonzero"/>
		<path id="path272" d="M-5.43 22.05C-2.59 5.02 13.61 -6.5 30.75 -3.68C47.9 -0.86 59.5 15.23 56.66 32.26C53.82 49.28 37.62 60.8 20.48 57.98C3.33 55.16 -8.27 39.07 -5.43 22.05ZM57.04 32.32C59.91 15.08 48.17 -1.2 30.82 -4.05C13.46 -6.91 -2.93 4.75 -5.81 21.99C-8.68 39.22 3.06 55.5 20.41 58.36C37.77 61.21 54.16 49.55 57.04 32.32Z" stroke="#000000" stroke-opacity="0" stroke-width="0.133333"/>
		<path id="path274" d="M20.43 58.23C3.15 55.39 -8.54 39.17 -5.68 22.01C-2.82 4.84 13.51 -6.77 30.8 -3.93C48.08 -1.09 59.77 15.13 56.91 32.3C54.05 49.46 37.72 61.07 20.43 58.23ZM20.37 58.61C37.86 61.48 54.39 49.73 57.29 32.36C60.19 14.99 48.35 -1.43 30.86 -4.3C13.37 -7.18 -3.16 4.57 -6.06 21.94C-8.96 39.32 2.88 55.73 20.37 58.61Z" fill="#FC3F1D" fill-opacity="1.000000" fill-rule="nonzero"/>
		<path id="path274" d="M-5.68 22.01C-2.82 4.84 13.51 -6.77 30.8 -3.93C48.08 -1.09 59.77 15.13 56.91 32.3C54.05 49.46 37.72 61.07 20.43 58.23C3.15 55.39 -8.54 39.17 -5.68 22.01ZM57.29 32.36C60.19 14.99 48.35 -1.43 30.86 -4.3C13.37 -7.18 -3.16 4.57 -6.06 21.94C-8.96 39.32 2.88 55.73 20.37 58.61C37.86 61.48 54.39 49.73 57.29 32.36Z" stroke="#000000" stroke-opacity="0" stroke-width="0.133333"/>
		<path id="path276" d="M20.39 58.48C2.97 55.62 -8.82 39.27 -5.93 21.96C-3.05 4.66 13.41 -7.04 30.84 -4.18C48.26 -1.31 60.05 15.04 57.16 32.34C54.28 49.64 37.82 61.35 20.39 58.48ZM20.33 58.86C37.96 61.76 54.62 49.91 57.54 32.4C60.46 14.89 48.53 -1.66 30.9 -4.56C13.27 -7.45 -3.39 4.39 -6.31 21.9C-9.23 39.41 2.7 55.96 20.33 58.86Z" fill="#FC3F1D" fill-opacity="1.000000" fill-rule="nonzero"/>
		<path id="path276" d="M-5.93 21.96C-3.05 4.66 13.41 -7.04 30.84 -4.18C48.26 -1.31 60.05 15.04 57.16 32.34C54.28 49.64 37.82 61.35 20.39 58.48C2.97 55.62 -8.82 39.27 -5.93 21.96ZM57.54 32.4C60.46 14.89 48.53 -1.66 30.9 -4.56C13.27 -7.45 -3.39 4.39 -6.31 21.9C-9.23 39.41 2.7 55.96 20.33 58.86C37.96 61.76 54.62 49.91 57.54 32.4Z" stroke="#000000" stroke-opacity="0" stroke-width="0.133333"/>
		<path id="path278" d="M20.35 58.73C2.79 55.85 -9.09 39.36 -6.19 21.92C-3.28 4.48 13.32 -7.32 30.88 -4.43C48.44 -1.54 60.32 14.94 57.42 32.38C54.51 49.82 37.91 61.62 20.35 58.73ZM20.29 59.11C38.06 62.03 54.85 50.09 57.79 32.44C60.74 14.79 48.71 -1.88 30.94 -4.81C13.17 -7.73 -3.62 4.21 -6.56 21.86C-9.51 39.51 2.52 56.19 20.29 59.11Z" fill="#FC3F1D" fill-opacity="1.000000" fill-rule="nonzero"/>
		<path id="path278" d="M-6.19 21.92C-3.28 4.48 13.32 -7.32 30.88 -4.43C48.44 -1.54 60.32 14.94 57.42 32.38C54.51 49.82 37.91 61.62 20.35 58.73C2.79 55.85 -9.09 39.36 -6.19 21.92ZM57.79 32.44C60.74 14.79 48.71 -1.88 30.94 -4.81C13.17 -7.73 -3.62 4.21 -6.56 21.86C-9.51 39.51 2.52 56.19 20.29 59.11C38.06 62.03 54.85 50.09 57.79 32.44Z" stroke="#000000" stroke-opacity="0" stroke-width="0.133333"/>
		<path id="path280" d="M20.31 58.98C2.61 56.07 -9.37 39.46 -6.44 21.88C-3.51 4.3 13.22 -7.59 30.92 -4.68C48.62 -1.77 60.6 14.84 57.67 32.42C54.74 50 38.01 61.89 20.31 58.98ZM20.27 59.23C38.11 62.17 54.97 50.18 57.92 32.46C60.87 14.74 48.81 -2 30.96 -4.93C13.12 -7.86 -3.74 4.12 -6.69 21.84C-9.64 39.56 2.42 56.3 20.27 59.23Z" fill="#FC3F1D" fill-opacity="1.000000" fill-rule="nonzero"/>
		<path id="path280" d="M-6.44 21.88C-3.51 4.3 13.22 -7.59 30.92 -4.68C48.62 -1.77 60.6 14.84 57.67 32.42C54.74 50 38.01 61.89 20.31 58.98C2.61 56.07 -9.37 39.46 -6.44 21.88ZM57.92 32.46C60.87 14.74 48.81 -2 30.96 -4.93C13.12 -7.86 -3.74 4.12 -6.69 21.84C-9.64 39.56 2.42 56.3 20.27 59.23C38.11 62.17 54.97 50.18 57.92 32.46Z" stroke="#000000" stroke-opacity="0" stroke-width="0.133333"/>
	</g>
	<mask id="mask164_660" mask-type="alpha" maskUnits="userSpaceOnUse" x="24.406464" y="7.477905" width="5.158691" height="13.550537">
		<path id="path286" d="M27.51 21.02L26.68 20.88C26.23 20.81 25.44 20.69 24.4 20.54L26.43 8.79C26.57 7.92 27.4 7.35 28.26 7.49C29.11 7.65 29.69 8.47 29.54 9.33L27.51 21.02Z" fill="#000000" fill-opacity="1.000000" fill-rule="nonzero"/>
	</mask>
	<g mask="url(#mask164_660)">
		<path id="path298" d="M27.51 21.02L26.68 20.88C26.23 20.81 25.44 20.69 24.4 20.54L26.43 8.79C26.57 7.92 27.4 7.35 28.26 7.49C29.11 7.65 29.69 8.47 29.54 9.33L27.51 21.02Z" fill="url(#paint_linear_164_662_0)" fill-opacity="1.000000" fill-rule="nonzero"/>
		<path id="path298" d="M26.68 20.88C26.23 20.81 25.44 20.69 24.4 20.54L26.43 8.79C26.57 7.92 27.4 7.35 28.26 7.49C29.11 7.65 29.69 8.47 29.54 9.33L27.51 21.02L26.68 20.88Z" stroke="#000000" stroke-opacity="0" stroke-width="0.133333"/>
	</g>
</svg>
