<svg width="50.000000" height="50.000000" viewBox="0 0 50 50" fill="none" xmlns="http://www.w3.org/2000/svg" xmlns:xlink="http://www.w3.org/1999/xlink">
	<desc>
			Created with Pixso.
	</desc>
	<defs>
		<clipPath id="clip16_8">
			<rect id="yandex.svg" width="50.000000" height="50.000000" fill="white" fill-opacity="0"/>
		</clipPath>
	</defs>
	<g clip-path="url(#clip16_8)">
		<path id="path" d="M50 25C50 11.19 38.8 0 25 0C11.19 0 0 11.19 0 25C0 38.8 11.19 50 25 50C38.8 50 50 38.8 50 25Z" fill="#F8604A" fill-opacity="1.000000" fill-rule="nonzero"/>
		<path id="path" d="M33.75 40.04L28.7 40.04L28.7 14L26.16 14C21.83 14 19.66 16.16 19.66 19.41C19.66 23.04 21.12 24.83 24.37 27L26.91 28.79L19.7 40L13.91 40L20.79 29.87C16.83 27 14.66 24.45 14.66 19.75C14.66 13.95 18.62 10 26.25 10L33.75 10L33.75 40.04Z" fill="#FFFFFF" fill-opacity="1.000000" fill-rule="nonzero"/>
	</g>
</svg>
