<svg viewBox="0 0 50 50" xmlns="http://www.w3.org/2000/svg" xmlns:xlink="http://www.w3.org/1999/xlink" width="50.000004" height="50.000004" fill="none" customFrame="#000000">
	<g id="yandex_internetometr">
		<circle id="Эллипс 1" cx="25.0000019" cy="25.0000019" r="25.0000019" fill="rgb(255,81,56)" />
		<path id="Форма 1" d="M19.1922 29.2944C19.6189 29.87 20.13 30.3811 20.7056 30.8089L12.7544 41.51C11.1224 40.2976 9.70013 38.8754 8.48778 37.2433L19.1922 29.2944ZM41.51 37.2444C40.2977 38.8765 38.8754 40.2988 37.2433 41.5111L29.2945 30.8089C29.8738 30.3786 30.3786 29.8738 30.8089 29.2944L41.51 37.2444ZM4.44444 25C4.44444 24.1126 4.49926 23.24 4.60889 22.3822L4.66444 21.9822L11.26 22.9522L17.8556 23.9233C17.7506 24.6411 17.7506 25.3589 17.8556 26.0767L11.2589 27.0467L4.76 28.0033L4.66444 28.0167C4.51889 27.0164 4.44556 26.0108 4.44444 25ZM45.3333 21.9822C45.6284 23.9933 45.6284 26.0044 45.3333 28.0156L45.24 28.0044L38.74 27.0478L32.1444 26.0767C32.2494 25.3589 32.2494 24.6411 32.1444 23.9233L45.3333 21.9822ZM20.7056 19.1922C20.1263 19.6222 19.6215 20.1266 19.1911 20.7056L8.48889 12.7544C9.70124 11.1224 11.1235 9.70013 12.7556 8.48778L20.7056 19.1922ZM37.2445 8.48889C38.8765 9.70124 40.2988 11.1235 41.5111 12.7556L30.8089 20.7056C30.3786 20.1262 29.8738 19.6214 29.2944 19.1911L37.2445 8.48889ZM25 4.44444C26.0252 4.44593 27.0307 4.51926 28.0167 4.66444L26.0767 17.8556C25.3589 17.7506 24.6411 17.7506 23.9233 17.8556L21.9822 4.66444C22.9682 4.51852 23.9741 4.44519 25 4.44444Z" fill="rgb(255,255,255)" fill-rule="nonzero" />
	</g>
</svg>
