<svg width="50.000000" height="50.000000" viewBox="0 0 50 50" fill="none" xmlns="http://www.w3.org/2000/svg" xmlns:xlink="http://www.w3.org/1999/xlink">
	<desc>
			Created with Pixso.
	</desc>
	<defs/>
	<path id="yandex_music" d="M49.52 19.05L49.33 18.08L41.08 16.64L45.87 10.16L45.32 9.55L38.27 12.93L39.16 3.96L38.44 3.54L34.15 10.8L29.33 0L28.49 0L29.63 10.44L17.52 0.74L16.49 1.05L25.82 12.77L7.35 6.62L6.51 7.56L23 16.95L0.25 18.83L0 20.24L23.64 22.82L3.92 39.14L4.76 40.27L28.24 27.5L23.59 50L25.01 50L34.01 28.83L39.49 45.4L40.47 44.65L38.21 27.81L46.76 37.5L47.32 36.62L40.78 24.59L49.91 27.97L50 26.95L41.81 20.91L49.52 19.05Z" fill="#FFBC0D" fill-opacity="1.000000" fill-rule="nonzero"/>
</svg>
