<svg width="50" height="50" viewBox="0 0 50 50" fill="none" xmlns="http://www.w3.org/2000/svg">
<path d="M35.608 1.68226C35.608 0.747664 36.3556 0 37.2901 0H48.3177C49.2523 0 50 0.747664 50 1.68226V14.3925H35.608V1.68226Z" fill="#339900"/>
<path d="M35.6044 17.8037H49.9965V30.514C49.9965 31.4485 49.2488 32.1963 48.3144 32.1963H35.6044V17.8037Z" fill="#339900"/>
<path d="M17.8023 19.4859C17.8023 18.5513 18.55 17.8037 19.4844 17.8037H32.1942V32.1963H17.8023V19.4859Z" fill="#339900"/>
<path d="M17.8023 35.6074H32.1942V48.3177C32.1942 49.2522 31.4465 50 30.512 50H17.8023V35.6074Z" fill="#FEBE00"/>
<path d="M0 37.2897C0 36.355 0.747635 35.6074 1.68218 35.6074H14.392V50H1.68218C0.747635 50 0 49.2522 0 48.3177V37.3363V37.2897Z" fill="#FF8900"/>
</svg>
