<svg width="50.000000" height="50.000000" viewBox="0 0 50 50" fill="none" xmlns="http://www.w3.org/2000/svg" xmlns:xlink="http://www.w3.org/1999/xlink">
	<desc>
			Created with Pixso.
	</desc>
	<defs/>
	<path id="path" d="M27.63 5.38C39.77 -0.42 49.65 4.23 49.69 15.79C49.73 27.35 39.92 41.42 27.77 47.23C15.64 53.03 5.77 48.37 5.73 36.81C5.69 25.26 15.49 11.19 27.63 5.38Z" fill="#B9E9F7" fill-opacity="1.000000" fill-rule="nonzero"/>
	<path id="path" d="M49.69 15.79C49.73 27.35 39.92 41.42 27.78 47.23C15.64 53.04 5.76 48.37 5.73 36.82C5.72 34.1 6.26 31.26 7.23 28.41C8.84 28.89 10.57 29.15 12.36 29.15C21.27 29.15 28.49 22.79 28.49 14.93C28.49 11.8 27.34 8.91 25.39 6.57C26.12 6.14 26.87 5.75 27.63 5.39C39.78 -0.42 49.65 4.23 49.69 15.79Z" fill="#A9DEEA" fill-opacity="1.000000" fill-rule="nonzero"/>
	<path id="path" d="M17.91 49.99C15.71 49.99 13.68 49.56 11.89 48.67C7.74 46.63 5.44 42.41 5.42 36.81C5.38 25.2 15.28 11 27.48 5.16C33.55 2.26 39.25 1.82 43.53 3.94C47.68 5.98 49.98 10.19 49.99 15.79C50.03 27.41 40.13 41.61 27.92 47.45C24.39 49.14 20.99 49.99 17.91 49.99ZM37.5 3.14C34.53 3.14 31.22 3.97 27.78 5.61C15.75 11.37 6 25.36 6.04 36.81C6.05 42.22 8.24 46.27 12.2 48.22C16.28 50.24 21.76 49.81 27.62 47C39.66 41.24 49.42 27.24 49.38 15.79C49.36 10.39 47.17 6.34 43.22 4.39C41.53 3.55 39.6 3.14 37.5 3.14Z" fill="#000000" fill-opacity="1.000000" fill-rule="nonzero"/>
	<path id="path" d="M18.84 44.67C14.07 44.67 11.21 41.36 11.19 35.82C11.16 26.45 19.46 14.55 29.32 9.83C31.9 8.6 34.41 7.94 36.58 7.94C41.35 7.94 44.21 11.25 44.22 16.78C44.26 26.16 35.95 38.06 26.09 42.78C23.5 44.01 21 44.67 18.84 44.67Z" fill="#F6977F" fill-opacity="1.000000" fill-rule="nonzero"/>
	<path id="path" d="M44.22 16.78C44.26 26.16 35.95 38.06 26.09 42.78C23.5 44.01 21 44.67 18.84 44.67C14.07 44.67 11.21 41.36 11.19 35.82C11.19 34.36 11.39 32.84 11.76 31.29C12.51 31.41 13.27 31.47 14.06 31.47C21.6 31.47 27.71 25.84 27.71 18.89C27.71 16.37 26.91 14.02 25.52 12.05C26.71 11.22 27.98 10.48 29.32 9.83C31.9 8.6 34.42 7.94 36.58 7.94C41.35 7.94 44.2 11.25 44.22 16.78Z" fill="#F28772" fill-opacity="1.000000" fill-rule="nonzero"/>
	<path id="path" d="M18.84 44.93C13.88 44.93 10.9 41.52 10.89 35.82C10.85 26.36 19.22 14.36 29.17 9.61C31.8 8.35 34.36 7.68 36.58 7.68C41.54 7.68 44.51 11.08 44.53 16.78C44.56 26.24 36.19 38.25 26.24 43.01C23.61 44.26 21.05 44.93 18.84 44.93ZM36.58 8.2C34.47 8.2 32.01 8.84 29.47 10.06C19.7 14.73 11.47 26.53 11.5 35.82C11.52 41.2 14.26 44.41 18.84 44.41C20.94 44.41 23.4 43.77 25.94 42.55C35.72 37.88 43.95 26.08 43.92 16.79C43.9 11.41 41.16 8.2 36.58 8.2Z" fill="#000000" fill-opacity="1.000000" fill-rule="nonzero"/>
	<path id="path" d="M27.63 5.38C33.74 2.46 39.28 2.19 43.28 4.12L37.84 1.49C33.86 -0.43 28.32 -0.16 22.2 2.77C18.29 4.64 14.63 7.37 11.45 10.6L16.88 13.22C20.06 9.99 23.72 7.25 27.63 5.38Z" fill="#FFFFFF" fill-opacity="1.000000" fill-rule="nonzero"/>
	<path id="path" d="M43.28 4.12C39.29 2.19 33.75 2.46 27.63 5.38C23.72 7.26 20.06 9.99 16.88 13.22L11.46 10.59C13.36 8.66 15.44 6.9 17.65 5.4C18.47 5.94 19.4 6.2 20.44 6.2C22.83 6.2 24.77 4.68 24.77 2.81C24.77 2.44 24.7 2.09 24.56 1.76C29.74 -0.19 34.38 -0.18 37.84 1.49L43.28 4.12Z" fill="#F0F5F7" fill-opacity="1.000000" fill-rule="nonzero"/>
	<path id="path" d="M16.88 13.48C16.83 13.48 16.78 13.47 16.73 13.44L11.3 10.82C11.09 10.72 11.06 10.59 11.22 10.43C14.52 7.08 18.26 4.35 22.05 2.54C28.07 -0.34 33.73 -0.79 38 1.26L43.44 3.89C43.61 3.98 43.65 4.1 43.55 4.25C43.45 4.4 43.31 4.43 43.13 4.34C39.05 2.38 33.6 2.83 27.78 5.61C24.05 7.39 20.37 10.08 17.12 13.38C17.06 13.45 16.98 13.48 16.88 13.48ZM11.93 10.52L16.81 12.88C20.07 9.61 23.75 6.94 27.48 5.16C31.98 3 36.28 2.21 39.96 2.81L37.69 1.72C33.63 -0.25 28.18 0.21 22.35 2.99C18.72 4.73 15.12 7.33 11.93 10.52Z" fill="#000000" fill-opacity="1.000000" fill-rule="nonzero"/>
	<path id="path" d="M11.45 10.6C4.77 17.38 0.27 26.36 0.3 34.19C0.31 39.94 2.76 43.97 6.7 45.88L12.14 48.5C8.19 46.6 5.75 42.55 5.73 36.81C5.7 28.98 10.2 20 16.88 13.22L11.45 10.6Z" fill="#000000" fill-opacity="1.000000" fill-rule="nonzero"/>
	<path id="path" d="M12.15 48.76C12.09 48.76 12.04 48.75 11.99 48.72L6.55 46.11C2.34 44.07 0.01 39.84 0 34.19C-0.03 26.6 4.27 17.49 11.22 10.43C11.33 10.32 11.46 10.3 11.6 10.37L17.03 12.99C17.25 13.09 17.27 13.22 17.12 13.38C10.25 20.36 6.01 29.33 6.04 36.81C6.06 42.26 8.27 46.33 12.27 48.26C12.41 48.32 12.48 48.43 12.44 48.56C12.4 48.69 12.3 48.76 12.15 48.76ZM11.52 10.93C4.76 17.88 0.58 26.77 0.61 34.19C0.62 39.64 2.84 43.71 6.86 45.65L9.13 46.75C6.74 44.44 5.44 41.02 5.42 36.81C5.39 29.3 9.6 20.32 16.41 13.29L11.52 10.93ZM31.74 23.96C34.05 24.23 34.13 26.26 33.79 27.91C33.64 28.6 33.33 29.33 32.83 30.09C32.3 30.94 31.74 31.56 31.13 32.02C30.68 32.35 29.34 33.11 29.12 33.25C29.12 33.31 29.13 34.59 29.12 34.71C29.1 35.19 28.73 35.71 28.27 35.93C27.8 36.15 27.42 35.97 27.41 35.52C27.4 35.26 27.4 34.14 27.4 34.08L26.44 34.55L26.44 35.87C26.44 36.42 26.09 36.99 25.58 37.24C25.07 37.48 24.71 37.27 24.7 36.71L24.69 35.4C24.58 35.45 22.39 36.51 22.24 36.56C21.8 36.69 21.5 36.47 21.54 36.02C21.56 35.57 21.93 35.08 22.39 34.83L23.15 34.46L23.11 22.45L22.41 22.79C21.86 23.04 21.49 22.88 21.48 22.41C21.48 21.93 21.86 21.4 22.39 21.14C22.91 20.88 23.41 20.63 23.96 20.37L24.64 20.04C24.64 19.9 24.63 18.97 24.65 18.64C24.65 18.29 24.83 17.91 25.1 17.63C25.22 17.5 25.36 17.4 25.5 17.33C25.62 17.27 25.76 17.23 25.91 17.24C26.22 17.25 26.38 17.44 26.38 17.78L26.39 19.19L27.34 18.73C27.35 18.31 27.34 17.46 27.35 17.33C27.35 16.82 27.72 16.25 28.2 16.02C28.69 15.78 29.05 15.98 29.07 16.48C29.07 16.69 29.08 17.82 29.08 17.88C31.03 17.2 32.28 17.57 32.8 18.96C33.34 20.42 32.99 22.1 31.74 23.96ZM30.57 30.71C31.63 29.82 32.2 28.65 32.18 27.35C32.16 25.96 31.09 25.44 29.64 26.14C29.39 26.26 29.06 26.42 28.67 26.61C27.14 27.35 25.03 28.39 24.91 28.44L24.93 33.59C25.12 33.5 28.64 31.79 29.92 31.17C30.13 31.06 30.35 30.88 30.57 30.71ZM24.9 21.61L24.91 26.73L25.02 26.7C25.19 26.62 28.34 25.09 29.02 24.74C29.55 24.47 30.06 24 30.53 23.34C31.08 22.57 31.3 21.81 31.27 20.87C31.23 19.63 30.29 19.09 29.07 19.61C28.41 19.89 26.94 20.61 25.93 21.1C25.45 21.33 25.03 21.55 24.9 21.61Z" fill="#000000" fill-opacity="1.000000" fill-rule="nonzero"/>
</svg>
