<svg width="50" height="50" viewBox="0 0 50 50" fill="none" xmlns="http://www.w3.org/2000/svg">
<path d="M37.5 0H12.5C5.59644 0 0 5.59644 0 12.5V37.5C0 44.4036 5.59644 50 12.5 50H37.5C44.4036 50 50 44.4036 50 37.5V12.5C50 5.59644 44.4036 0 37.5 0Z" fill="url(#paint0_linear_60_13)"/>
<path opacity="0.9" d="M17.5 31.875C17.2537 31.8751 17.0098 31.8267 16.7823 31.7326C16.5547 31.6384 16.3479 31.5003 16.1737 31.3263L11.1737 26.3263C10.9995 26.1521 10.8613 25.9454 10.767 25.7178C10.6727 25.4902 10.6241 25.2463 10.6241 25C10.6241 24.7537 10.6727 24.5098 10.767 24.2822C10.8613 24.0546 10.9995 23.8479 11.1737 23.6737L16.1737 18.6737C16.5255 18.322 17.0026 18.1244 17.5 18.1244C17.9974 18.1244 18.4745 18.322 18.8262 18.6737C19.178 19.0255 19.3756 19.5026 19.3756 20C19.3756 20.4974 19.178 20.9745 18.8262 21.3263L15.1512 25L18.8262 28.6737C19.0886 28.936 19.2674 29.2701 19.3398 29.634C19.4122 29.9978 19.3751 30.3749 19.2331 30.7176C19.0911 31.0604 18.8506 31.3533 18.5421 31.5593C18.2336 31.7653 17.871 31.8752 17.5 31.875ZM32.5 31.875C32.129 31.8752 31.7664 31.7653 31.4579 31.5593C31.1494 31.3533 30.9089 31.0604 30.7669 30.7176C30.6249 30.3749 30.5878 29.9978 30.6602 29.634C30.7326 29.2701 30.9113 28.936 31.1737 28.6737L34.8487 25L31.1737 21.3263C30.9996 21.1521 30.8614 20.9453 30.7672 20.7178C30.6729 20.4902 30.6244 20.2463 30.6244 20C30.6244 19.7537 30.6729 19.5098 30.7672 19.2822C30.8614 19.0547 30.9996 18.8479 31.1737 18.6737C31.5255 18.322 32.0026 18.1244 32.5 18.1244C32.7463 18.1244 32.9902 18.1729 33.2178 18.2672C33.4453 18.3614 33.6521 18.4996 33.8262 18.6737L38.8262 23.6737C39.0005 23.8479 39.1387 24.0546 39.233 24.2822C39.3273 24.5098 39.3758 24.7537 39.3758 25C39.3758 25.2463 39.3273 25.4902 39.233 25.7178C39.1387 25.9454 39.0005 26.1521 38.8262 26.3263L33.8262 31.3263C33.6521 31.5003 33.4453 31.6384 33.2177 31.7326C32.9901 31.8267 32.7463 31.8751 32.5 31.875Z" fill="white"/>
<path opacity="0.5" d="M22.5 35.625C22.3254 35.6248 22.1517 35.6004 21.9838 35.5525C21.5058 35.4158 21.1016 35.0949 20.8602 34.6603C20.6187 34.2257 20.5598 33.713 20.6963 33.235L25.6963 15.735C25.76 15.4939 25.8711 15.2679 26.0233 15.0703C26.1754 14.8727 26.3654 14.7075 26.5822 14.5842C26.7989 14.4609 27.0381 14.3821 27.2857 14.3524C27.5333 14.3227 27.7843 14.3427 28.0241 14.4112C28.2639 14.4798 28.4876 14.5954 28.6821 14.7514C28.8767 14.9074 29.0381 15.1007 29.157 15.3199C29.276 15.5391 29.35 15.7798 29.3747 16.0279C29.3995 16.2761 29.3745 16.5266 29.3013 16.765L24.3013 34.265C24.1894 34.6565 23.9531 35.001 23.6282 35.2464C23.3032 35.4917 22.9072 35.6246 22.5 35.625Z" fill="white"/>
<defs>
<linearGradient id="paint0_linear_60_13" x1="5.76125" y1="5.76125" x2="45.7738" y2="45.7738" gradientUnits="userSpaceOnUse">
<stop stop-color="#9B8DFF"/>
<stop offset="0.252" stop-color="#7D79FD"/>
<stop offset="0.555" stop-color="#5F65FB"/>
<stop offset="0.815" stop-color="#4D58F9"/>
<stop offset="1" stop-color="#4654F9"/>
</linearGradient>
</defs>
</svg>
