<svg width="50.000000" height="50.000000" viewBox="0 0 50 50" fill="none" xmlns="http://www.w3.org/2000/svg" xmlns:xlink="http://www.w3.org/1999/xlink">
	<desc>
			Created with Pixso.
	</desc>
	<defs/>
	<path id="path" d="M49.05 22.77L27.22 0.94C26.92 0.64 26.57 0.4 26.18 0.24C25.78 0.08 25.37 0 24.94 0C24.52 0 24.11 0.08 23.71 0.24C23.32 0.4 22.97 0.64 22.67 0.94L18.14 5.47L23.88 11.22C24.57 10.99 25.27 10.95 25.98 11.12C26.69 11.28 27.3 11.62 27.82 12.14C28.34 12.66 28.68 13.27 28.84 13.99C29.01 14.7 28.97 15.41 28.73 16.1L34.27 21.64C34.96 21.4 35.67 21.36 36.38 21.53C37.1 21.69 37.71 22.03 38.23 22.55C38.59 22.91 38.87 23.32 39.06 23.79C39.26 24.26 39.35 24.75 39.35 25.26C39.35 25.77 39.26 26.26 39.06 26.72C38.87 27.19 38.59 27.61 38.23 27.97C37.87 28.33 37.46 28.6 36.99 28.8C36.52 28.99 36.03 29.09 35.52 29.09C35.01 29.09 34.52 28.99 34.05 28.8C33.58 28.6 33.17 28.33 32.81 27.97C32.26 27.42 31.91 26.77 31.76 26.01C31.61 25.25 31.68 24.51 31.98 23.8L26.81 18.63L26.81 32.23C27.08 32.37 27.33 32.53 27.57 32.73C27.8 32.92 28.01 33.14 28.19 33.39C28.37 33.63 28.52 33.89 28.64 34.17C28.76 34.46 28.84 34.75 28.89 35.05C28.94 35.35 28.95 35.65 28.93 35.95C28.91 36.25 28.85 36.55 28.76 36.84C28.66 37.13 28.54 37.41 28.38 37.66C28.22 37.92 28.03 38.16 27.82 38.38C27.46 38.74 27.05 39.01 26.58 39.21C26.11 39.4 25.62 39.5 25.11 39.5C24.6 39.5 24.11 39.4 23.64 39.21C23.17 39.01 22.76 38.74 22.4 38.38C22.04 38.02 21.76 37.6 21.57 37.13C21.38 36.66 21.28 36.18 21.28 35.67C21.28 35.16 21.38 34.67 21.57 34.2C21.76 33.73 22.04 33.32 22.4 32.96C22.76 32.6 23.18 32.32 23.65 32.12L23.65 18.39C23.18 18.2 22.77 17.92 22.41 17.56C22.04 17.2 21.77 16.79 21.57 16.31C21.38 15.84 21.28 15.35 21.28 14.84C21.28 14.33 21.38 13.84 21.58 13.37L15.91 7.7L0.94 22.67C0.64 22.97 0.4 23.32 0.24 23.71C0.08 24.11 0 24.52 0 24.94C0 25.37 0.08 25.78 0.24 26.18C0.4 26.57 0.64 26.92 0.94 27.22L22.77 49.05C23.07 49.35 23.42 49.59 23.81 49.75C24.21 49.91 24.62 50 25.05 50C25.47 50 25.88 49.91 26.28 49.75C26.67 49.59 27.02 49.35 27.32 49.05L49.05 27.32C49.35 27.02 49.59 26.67 49.75 26.28C49.91 25.88 50 25.47 50 25.05C50 24.62 49.91 24.21 49.75 23.81C49.59 23.42 49.35 23.07 49.05 22.77Z" fill="#F03C2E" fill-opacity="1.000000" fill-rule="nonzero"/>
	<path id="path" d="M27.22 0.94C26.92 0.64 26.57 0.4 26.18 0.24C25.78 0.08 25.37 0 24.94 0C24.52 0 24.11 0.08 23.71 0.24C23.32 0.4 22.97 0.64 22.67 0.94L18.14 5.47L23.88 11.22C24.57 10.99 25.27 10.95 25.98 11.12C26.69 11.28 27.3 11.62 27.82 12.14C28.34 12.66 28.68 13.27 28.84 13.99C29.01 14.7 28.97 15.41 28.73 16.1L34.27 21.64C34.96 21.4 35.67 21.36 36.38 21.53C37.1 21.69 37.71 22.03 38.23 22.55C38.59 22.91 38.87 23.32 39.06 23.79C39.26 24.26 39.35 24.75 39.35 25.26C39.35 25.77 39.26 26.26 39.06 26.72C38.87 27.19 38.59 27.61 38.23 27.97C37.87 28.33 37.46 28.6 36.99 28.8C36.52 28.99 36.03 29.09 35.52 29.09C35.01 29.09 34.52 28.99 34.05 28.8C33.58 28.6 33.17 28.33 32.81 27.97C32.26 27.42 31.91 26.77 31.76 26.01C31.61 25.25 31.68 24.51 31.98 23.8L26.81 18.63L26.81 32.23C27.08 32.37 27.33 32.53 27.57 32.73C27.8 32.92 28.01 33.14 28.19 33.39C28.37 33.63 28.52 33.89 28.64 34.17C28.76 34.46 28.84 34.75 28.89 35.05C28.94 35.35 28.95 35.65 28.93 35.95C28.91 36.25 28.85 36.55 28.76 36.84C28.66 37.13 28.54 37.41 28.38 37.66C28.22 37.92 28.03 38.16 27.82 38.38C27.46 38.74 27.05 39.01 26.58 39.21C26.11 39.4 25.62 39.5 25.11 39.5C24.6 39.5 24.11 39.4 23.64 39.21C23.17 39.01 22.76 38.74 22.4 38.38C22.04 38.02 21.76 37.6 21.57 37.13C21.38 36.66 21.28 36.18 21.28 35.67C21.28 35.16 21.38 34.67 21.57 34.2C21.76 33.73 22.04 33.32 22.4 32.96C22.76 32.6 23.18 32.32 23.65 32.12L23.65 18.39C23.18 18.2 22.77 17.92 22.41 17.56C22.04 17.2 21.77 16.79 21.57 16.31C21.38 15.84 21.28 15.35 21.28 14.84C21.28 14.33 21.38 13.84 21.58 13.37L15.91 7.7L0.94 22.67C0.64 22.97 0.4 23.32 0.24 23.71C0.08 24.11 0 24.52 0 24.94C0 25.37 0.08 25.78 0.24 26.18C0.4 26.57 0.64 26.92 0.94 27.22L22.77 49.05C23.07 49.35 23.42 49.59 23.81 49.75C24.21 49.91 24.62 50 25.05 50C25.47 50 25.88 49.91 26.28 49.75C26.67 49.59 27.02 49.35 27.32 49.05L49.05 27.32C49.35 27.02 49.59 26.67 49.75 26.28C49.91 25.88 50 25.47 50 25.05C50 24.62 49.91 24.21 49.75 23.81C49.59 23.42 49.35 23.07 49.05 22.77L27.22 0.94Z" stroke="#000000" stroke-opacity="0" stroke-width="1.333333"/>
</svg>
