<svg width="50" height="50" viewBox="0 0 50 50" fill="none" xmlns="http://www.w3.org/2000/svg">
<g clip-path="url(#clip0_163_11)">
<path d="M16.3477 50H11.9591C10.6857 50 9.67849 48.8852 9.76536 47.5727L12.764 2.11818C12.8421 0.926137 13.8021 0 14.9577 0H19.3463C20.6197 0 21.6269 1.11477 21.5401 2.42727L18.5414 47.8818C18.4633 49.0739 17.5034 50 16.3477 50Z" fill="#24A0DB"/>
<path d="M0.0172567 37.2182L0.567065 32.6727C0.704517 31.5352 1.64029 30.6818 2.7498 30.6818H46.7004C48.0232 30.6818 49.047 31.8795 48.8831 33.2364L48.3333 37.7818C48.1948 38.9193 47.259 39.7727 46.1495 39.7727H2.2C0.877157 39.7727 -0.146586 38.575 0.0172567 37.2182Z" fill="#24A0DB"/>
<path d="M36.1408 50H31.7522C30.4788 50 29.4716 48.8852 29.5584 47.5727L32.5571 2.11818C32.6352 0.926137 33.5951 0 34.7508 0H39.1394C40.4128 0 41.42 1.11477 41.3331 2.42727L38.3345 47.8818C38.2564 49.0739 37.2965 50 36.1408 50Z" fill="#24A0DB"/>
<path d="M1.11687 16.7636L1.66667 12.2182C1.80413 11.0807 2.7399 10.2273 3.84941 10.2273H47.8C49.1228 10.2273 50.1466 11.425 49.9827 12.7818L49.4329 17.3273C49.2944 18.4648 48.3586 19.3182 47.2491 19.3182H3.29961C1.97677 19.3182 0.953023 18.1205 1.11687 16.7636Z" fill="#24A0DB"/>
<path opacity="0.3" d="M19.3474 0H14.9599C13.8053 0 12.8377 0.920454 12.7607 2.11364L12.2329 10.2273H3.85382C2.7432 10.2273 1.80853 11.0795 1.66558 12.2159L1.11577 16.7614C0.950827 18.125 1.97347 19.3182 3.30401 19.3182H4.64554C5.70117 18.5114 6.4709 17.3182 6.74581 15.9091H12.2329C15.1249 15.9091 17.5221 13.5909 17.72 10.6136L18.0389 5.63636C19.4024 5.44318 20.601 4.73864 21.4477 3.71591L21.5357 2.43182C21.6236 1.11364 20.623 0 19.3474 0Z" fill="white"/>
<path opacity="0.15" d="M46.6949 30.6818H45.3534C44.2977 31.4886 43.539 32.6818 43.2531 34.0909H38.8656C35.9736 34.0909 33.5765 36.4091 33.3785 39.3864L33.0596 44.3636C31.6961 44.5568 30.4975 45.2614 29.6508 46.2841L29.5629 47.5682C29.4749 48.8864 30.4755 50 31.7511 50H36.1386C37.2932 50 38.2608 49.0795 38.3378 47.8864L38.8656 39.7727H46.1451C47.2557 39.7727 48.1904 38.9205 48.3333 37.7841L48.8831 33.2386C49.0481 31.875 48.0254 30.6818 46.6949 30.6818Z" fill="black"/>
<path d="M16.2047 13.0682C16.1431 13.0682 16.0827 13.0648 16.02 13.0579C15.115 12.9534 14.4629 12.1102 14.563 11.175L15.1128 6.06136C15.2151 5.12613 16.0332 4.46022 16.9349 4.55568C17.8399 4.66022 18.4919 5.50341 18.3919 6.43863L17.842 11.5523C17.7475 12.4239 17.0338 13.0682 16.2047 13.0682Z" fill="white"/>
<path fill-rule="evenodd" clip-rule="evenodd" d="M11.3 24.72C18.58 21.56 23.43 19.46 25.87 18.44C32.8 15.54 34.26 15.05 35.19 15.02C35.4 15.02 35.86 15.07 36.17 15.32C36.42 15.52 36.49 15.79 36.53 16C36.57 16.21 36.61 16.65 36.57 16.98C36.19 20.94 34.57 30.53 33.74 34.95C33.38 36.82 32.7 37.44 32.03 37.51C30.57 37.63 29.47 36.55 28.08 35.63C25.87 34.2 24.64 33.3 22.5 31.89C20.02 30.26 21.62 29.37 23.04 27.91C23.41 27.53 29.8 21.71 29.93 21.19C29.95 21.12 29.95 20.87 29.8 20.75C29.66 20.62 29.45 20.67 29.28 20.71C29.05 20.75 25.56 23.08 18.75 27.68C17.75 28.37 16.86 28.7 16.04 28.68C15.15 28.66 13.44 28.18 12.15 27.76C10.59 27.26 9.34 26.99 9.45 26.12C9.51 25.66 10.13 25.2 11.3 24.72Z" fill="white"/>
</g>
<defs>
<clipPath id="clip0_163_11">
<rect width="50" height="50" fill="white"/>
</clipPath>
</defs>
</svg>
