<svg width="50.000000" height="50.000000" viewBox="0 0 50 50" fill="none" xmlns="http://www.w3.org/2000/svg" xmlns:xlink="http://www.w3.org/1999/xlink">
	<desc>
			Created with Pixso.
	</desc>
	<defs/>
	<path id="path" d="M14.99 15.43L12.23 15.43L19.76 36.71L23.97 24.66L20.71 15.43L17.79 15.43L17.79 13.4L30.69 13.4L30.69 15.43L27.67 15.43L35.2 36.71L37.91 28.97C41.46 19.07 35 15.98 35 13.77C35 11.56 36.79 9.77 39 9.77C39.12 9.77 39.24 9.77 39.35 9.78C35.6 6.25 30.55 4.08 24.99 4.08C17.73 4.08 11.33 7.78 7.58 13.4L14.99 13.4L14.99 15.43ZM4.08 25C4.08 33 8.58 39.96 15.19 43.48L5.75 16.79C4.67 19.31 4.08 22.08 4.08 25ZM43.2 14.69C43.5 16.45 43.41 18.43 42.95 20.42L43.03 20.42L42.72 21.32C42.53 21.97 42.29 22.64 42.02 23.3L34.83 43.46C41.42 39.94 45.91 32.99 45.91 25C45.91 21.25 44.93 17.73 43.2 14.69Z" fill="#00769D" fill-opacity="1.000000" fill-rule="nonzero"/>
	<path id="path" d="M18.54 44.9C20.58 45.56 22.74 45.91 25 45.91C27.14 45.91 29.21 45.59 31.16 44.99L25.05 27.69L18.54 44.9Z" fill="#00769D" fill-opacity="1.000000" fill-rule="nonzero"/>
	<path id="path" d="M42.67 7.32C37.95 2.6 31.67 0 25 0C18.32 0 12.04 2.6 7.32 7.32C2.6 12.04 0 18.32 0 25C0 31.67 2.6 37.95 7.32 42.67C12.04 47.39 18.32 50 25 50C31.67 50 37.95 47.39 42.67 42.67C47.39 37.95 50 31.67 50 25C50 18.32 47.39 12.04 42.67 7.32ZM25 48.23C12.18 48.23 1.76 37.81 1.76 25C1.76 12.18 12.18 1.76 25 1.76C37.81 1.76 48.23 12.18 48.23 25C48.23 37.81 37.81 48.23 25 48.23Z" fill="#00769D" fill-opacity="1.000000" fill-rule="nonzero"/>
</svg>
