<svg width="112.82052" height="112.82052" xmlns="http://www.w3.org/2000/svg">

 <mask height="33" width="34" y="18" x="22" maskUnits="userSpaceOnUse" id="a">
  <path id="path1623" fill="#ffffff" d="m30.202,18.015l1.412,-0.015l14.687,0.006c0.223,0.002 0.362,0.005 0.5,0.009c0.728,0.019 1.463,0.061 2.183,0.19a7.41,7.41 0 0 1 2.075,0.676c0.652,0.328 1.25,0.756 1.767,1.269a6.878,6.878 0 0 1 1.283,1.746c0.34,0.657 0.553,1.33 0.684,2.052c0.13,0.712 0.173,1.438 0.192,2.158c0.01,0.33 0.014,0.66 0.015,0.991l0.002,0.589l0,13.037c0,0.392 0,0.785 -0.002,1.178c-0.002,0.33 -0.005,0.66 -0.015,0.99c-0.02,0.72 -0.062,1.447 -0.192,2.158a7.202,7.202 0 0 1 -0.684,2.052a6.897,6.897 0 0 1 -1.283,1.747a6.975,6.975 0 0 1 -1.767,1.269a7.406,7.406 0 0 1 -2.075,0.676c-0.72,0.128 -1.455,0.17 -2.183,0.19l-2.194,0.017l-13.906,-0.008a27.229,27.229 0 0 1 -0.499,-0.01c-0.728,-0.018 -1.463,-0.061 -2.183,-0.189a7.405,7.405 0 0 1 -2.074,-0.676a6.963,6.963 0 0 1 -3.052,-3.016a7.236,7.236 0 0 1 -0.684,-2.052c-0.13,-0.711 -0.172,-1.438 -0.191,-2.157c-0.01,-0.33 -0.013,-0.661 -0.015,-0.991l-0.003,-0.591l0,-13.035c0,-0.392 0,-0.785 0.003,-1.177c0.002,-0.33 0.006,-0.66 0.015,-0.991c0.02,-0.72 0.062,-1.446 0.191,-2.158a7.231,7.231 0 0 1 0.684,-2.052a6.95,6.95 0 0 1 3.051,-3.016a7.409,7.409 0 0 1 2.075,-0.676c0.72,-0.128 1.455,-0.17 2.183,-0.19z" clip-rule="evenodd" fill-rule="evenodd"/>
 </mask>
 <g>
  <title>background</title>
  <rect fill="none" id="canvas_background" height="114.82052" width="114.82052" y="-1" x="-1"/>
 </g>
 <g>
  <title>Layer 1</title>
  <g stroke-width="0.2925" transform="matrix(3.4188035,0,0,3.4188035,-75.213677,-61.538463)" id="g1636" mask="url(#a)">
   <path stroke-width="0.08429" id="path1626" d="m22,17.998l33.003,0l0,33.003l-33.003,0l0,-33.003z" fill="#19aa1e"/>
   <path stroke-width="0.08429" id="path1628" fill="#ffb919" d="m22,17.998l33.003,0l0,10.828l-33.003,-5.156l0,-5.672z" clip-rule="evenodd" fill-rule="evenodd"/>
   <path stroke-width="0.08429" id="path1630" fill="#82d714" d="m22,47.39l33.003,-5.156l0,8.766l-33.003,0l0,-3.61z" clip-rule="evenodd" fill-rule="evenodd"/>
   <path stroke-width="0.08429" id="path1632" fill="#ffffff" d="m22,23.018l11.52,1.8c1.434,-0.908 3.14,-1.406 4.981,-1.406c2.55,0 4.842,0.955 6.51,2.631c0.21,0.212 0.408,0.433 0.595,0.663l9.397,1.468l0,1.305l-8.443,-1.32a8.472,8.472 0 0 1 0.965,3.914c0,1.768 -0.395,3.531 -1.213,5.301l-0.024,0.054l-0.348,0.744l-0.82,0c-1.696,0 -2.82,0.507 -3.556,1.406c-0.577,0.705 -0.911,1.657 -1.023,2.695l-0.004,0.032l-0.016,0.166l-0.007,0.072l-0.014,0.141c-0.043,0.464 -0.071,0.857 -0.086,1.177l14.589,-2.28l0,1.305l-33.003,5.157l0,-1.305l14.605,-2.282l-0.006,-0.293l-0.002,-0.082l-0.002,-0.043l-0.002,-0.065c-0.013,-0.355 -0.046,-0.81 -0.098,-1.362l-0.01,-0.105l-0.018,-0.181c-0.104,-1.044 -0.433,-2.007 -1.01,-2.723c-0.727,-0.905 -1.84,-1.42 -3.523,-1.43l-0.872,0l-0.347,-0.744c-0.834,-1.788 -1.238,-3.569 -1.238,-5.355c0,-2.246 0.911,-4.418 2.515,-6.03l0.14,-0.137l-10.132,-1.584l0,-1.304z" clip-rule="evenodd" fill-rule="evenodd"/>
   <path stroke-width="0.08429" id="path1634" fill="#0073fa" d="m38.501,24.701c4.608,0 7.735,3.546 7.735,7.372c0,1.536 -0.335,3.134 -1.117,4.81c-4.533,0 -5.652,3.246 -5.864,5.29l-0.014,0.135c-0.071,0.73 -0.113,1.315 -0.124,1.755l-1.228,0.192l0,-0.04a23.516,23.516 0 0 0 -0.132,-1.945l-0.003,-0.036c-0.196,-2.039 -1.291,-5.351 -5.87,-5.351c-0.783,-1.676 -1.118,-3.274 -1.118,-4.81c0,-3.826 3.128,-7.372 7.735,-7.372z" clip-rule="evenodd" fill-rule="evenodd"/>
  </g>
 </g>
</svg>