<svg xmlns="http://www.w3.org/2000/svg" xmlns:xlink="http://www.w3.org/1999/xlink" width="53" height="47"><defs><path id="a" d="M0 .5h15.884v13.75H0z"/><path id="c" d="M.884.25H37.56V32H.884z"/></defs><g fill="none" fill-rule="evenodd"><g transform="translate(0 .5)"><mask id="b" fill="#fff"><use xlink:href="#a"/></mask><path fill="#21B7EC" fill-opacity=".499" d="M11.342 11.24H4.885V9.38c3.614-2.548 3.957-2.844 3.957-3.437 0-.379-.402-.615-.912-.615-.841 0-1.481.307-2.085.817L4.542 4.557c.912-.97 2.239-1.339 3.34-1.339 2.05 0 3.389 1.138 3.389 2.725 0 1.078-.616 1.967-2.5 3.211h2.57v2.085zM11.884.5H0v9.75a4 4 0 0 0 4 4h11.884V4.5a4 4 0 0 0-4-4z" mask="url(#b)"/></g><path fill="#21B7EC" d="M40.272 25.532h-3.858v3.97h3.858c1.276 0 2.22-.723 2.22-1.972 0-1.276-.944-1.998-2.22-1.998"/><g transform="translate(15 14.5)"><mask id="d" fill="#fff"><use xlink:href="#c"/></mask><path fill="#53C4EB" d="M25.91 19.164h-4.495v6.217H16.64V6.87h9.27c4.163 0 6.439 2.803 6.439 6.161 0 3.331-2.276 6.134-6.44 6.134zM8.096 25.381h4.774V6.87H8.095v18.512zM32.56.251H.884V27a5 5 0 0 0 5 5H37.56V5.25a5 5 0 0 0-5-5z" mask="url(#d)"/></g></g></svg>