<?xml version="1.0"?>
<svg width="41" height="41" xmlns="http://www.w3.org/2000/svg" xmlns:svg="http://www.w3.org/2000/svg" class="h-12 w-12 ">

 <g class="layer">
  <title>Layer 1</title>
  <text id="svg_1" x="-9999" y="-9999">ChatGPT</text>
  <path d="m38.53,16.87c0.45,-1.35 0.61,-2.77 0.46,-4.18c-0.15,-1.42 -0.6,-2.78 -1.31,-4c-1.07,-1.86 -2.69,-3.32 -4.64,-4.19c-1.95,-0.87 -4.13,-1.1 -6.22,-0.65c-0.94,-1.06 -2.1,-1.91 -3.39,-2.49c-1.3,-0.57 -2.71,-0.87 -4.12,-0.86c-2.14,0 -4.22,0.67 -5.95,1.92c-1.73,1.26 -3.01,3.03 -3.67,5.06c-1.39,0.28 -2.7,0.86 -3.85,1.7c-1.15,0.83 -2.11,1.9 -2.81,3.13c-1.07,1.85 -1.53,3.99 -1.31,6.11c0.22,2.13 1.12,4.12 2.55,5.71c-0.45,1.35 -0.61,2.77 -0.46,4.18c0.15,1.42 0.6,2.78 1.31,4c1.07,1.86 2.69,3.32 4.64,4.19c1.95,0.87 4.13,1.1 6.22,0.65c0.94,1.06 2.1,1.91 3.39,2.49c1.3,0.57 2.71,0.87 4.12,0.86c2.14,0.01 4.22,-0.67 5.95,-1.92c1.73,-1.26 3.02,-3.03 3.67,-5.06c1.39,-0.29 2.71,-0.87 3.86,-1.7c1.15,-0.83 2.1,-1.9 2.81,-3.14c1.07,-1.84 1.52,-3.98 1.3,-6.11c-0.22,-2.12 -1.12,-4.12 -2.55,-5.7zm-15.03,21.01c-1.76,0.01 -3.45,-0.61 -4.8,-1.73c0.06,-0.03 0.17,-0.09 0.24,-0.13l7.96,-4.6c0.2,-0.12 0.37,-0.28 0.48,-0.48c0.12,-0.2 0.18,-0.43 0.17,-0.66l0,-11.23l3.37,1.95c0.02,0.01 0.03,0.02 0.05,0.04c0.01,0.01 0.01,0.03 0.02,0.05l0,9.3c-0.01,1.99 -0.8,3.89 -2.2,5.29c-1.4,1.41 -3.31,2.2 -5.29,2.2zm-16.11,-6.87c-0.88,-1.52 -1.19,-3.3 -0.89,-5.03c0.06,0.04 0.16,0.1 0.23,0.14l7.97,4.6c0.2,0.12 0.42,0.18 0.65,0.18c0.23,0 0.46,-0.06 0.66,-0.18l9.72,-5.61l0,3.89c0,0.02 0,0.04 -0.01,0.06c-0.01,0.01 -0.02,0.03 -0.04,0.04l-8.05,4.65c-1.72,0.99 -3.77,1.26 -5.69,0.75c-1.91,-0.52 -3.55,-1.77 -4.55,-3.49zm-2.09,-17.39c0.87,-1.52 2.25,-2.68 3.9,-3.29c0,0.07 -0.01,0.19 -0.01,0.28l0,9.2c0,0.23 0.06,0.45 0.18,0.65c0.11,0.2 0.28,0.37 0.48,0.48l9.72,5.61l-3.36,1.95c-0.02,0.01 -0.04,0.02 -0.06,0.02c-0.02,0 -0.04,0 -0.06,-0.01l-8.05,-4.65c-1.72,-1 -2.97,-2.64 -3.49,-4.56c-0.51,-1.91 -0.24,-3.96 0.75,-5.68zm27.65,6.44l-9.72,-5.62l3.37,-1.94c0.01,-0.01 0.03,-0.02 0.05,-0.02c0.02,0 0.04,0 0.06,0.01l8.05,4.65c1.24,0.71 2.24,1.76 2.9,3.02c0.66,1.26 0.94,2.69 0.82,4.11c-0.12,1.42 -0.64,2.77 -1.51,3.91c-0.86,1.13 -2.03,1.99 -3.37,2.48c0,-0.07 0,-0.19 0,-0.27l0,-9.2c0.01,-0.23 -0.05,-0.46 -0.17,-0.66c-0.11,-0.2 -0.28,-0.36 -0.48,-0.47zm3.36,-5.05c-0.06,-0.03 -0.17,-0.1 -0.24,-0.14l-7.97,-4.6c-0.19,-0.11 -0.42,-0.18 -0.65,-0.18c-0.23,0 -0.46,0.07 -0.65,0.18l-9.73,5.62l0,-3.89c0,-0.02 0.01,-0.04 0.01,-0.06c0.01,-0.02 0.02,-0.03 0.04,-0.05l8.05,-4.64c1.24,-0.71 2.65,-1.06 4.07,-1c1.42,0.07 2.8,0.53 3.96,1.35c1.17,0.81 2.08,1.94 2.63,3.25c0.55,1.32 0.72,2.76 0.48,4.16zm-21.07,6.93l-3.36,-1.94c-0.02,-0.01 -0.04,-0.02 -0.05,-0.04c-0.01,-0.02 -0.02,-0.03 -0.02,-0.05l0,-9.3c0,-1.43 0.41,-2.82 1.17,-4.02c0.77,-1.2 1.86,-2.16 3.15,-2.77c1.29,-0.6 2.72,-0.83 4.13,-0.64c1.42,0.18 2.75,0.76 3.84,1.67c-0.06,0.03 -0.16,0.09 -0.23,0.13l-7.97,4.61c-0.2,0.11 -0.36,0.27 -0.48,0.47c-0.11,0.2 -0.17,0.43 -0.17,0.66l-0.01,11.22zm1.83,-3.94l4.33,-2.5l4.33,2.5l0,5l-4.33,2.5l-4.33,-2.5l0,-5z" fill="#ffffff" id="svg_2"/>
 </g>
</svg>