<svg width="40" height="40" xmlns="http://www.w3.org/2000/svg">
 <defs>
  <clipPath id="a">
   <path id="svg_1" d="m0,0l38.942,0l0,40l-38.942,0l0,-40z" fill="#fff"/>
  </clipPath>
 </defs>
 <g>
  <title>background</title>
  <rect fill="none" id="canvas_background" height="14.34573" width="14.34573" y="-1" x="-1"/>
 </g>
 <g>
  <title>Layer 1</title>
  <g id="svg_2">
   <path id="svg_4" fill="#FF5044" d="m39.74482,19.97119a20.30424,20.30424 0 0 0 -0.38945,-3.8945a19.89201,19.89201 0 0 0 -5.20579,-9.78805l-0.22994,-0.24859a20.37882,20.37882 0 0 0 -3.20468,-2.56561a19.17836,19.17836 0 0 0 -6.42697,-2.70854a19.48288,19.48288 0 0 0 -4.19695,-0.53032l-0.22994,0a19.79982,19.79982 0 0 0 -10.62288,3.18604a20.37675,20.37675 0 0 0 -3.20468,2.56561l-0.23098,0.24859a19.47148,19.47148 0 0 0 -2.49621,3.14978a19.89097,19.89097 0 0 0 -2.70854,6.78017a20.3115,20.3115 0 0 0 -0.38945,3.89347l0,0.47749a20.50829,20.50829 0 0 0 0.44227,3.78782a19.99766,19.99766 0 0 0 2.90431,6.72631a19.46941,19.46941 0 0 0 2.30149,2.81419l0.47749,0.45988a18.71433,18.71433 0 0 0 2.78001,2.23105a19.35444,19.35444 0 0 0 6.99353,2.86702c1.16732,0.23098 2.3512,0.36148 3.54234,0.38945l0.68982,0a21.27166,21.27166 0 0 0 3.54131,-0.38945a19.48288,19.48288 0 0 0 6.97593,-2.86702a18.71641,18.71641 0 0 0 2.79659,-2.23105c0.16883,-0.14397 0.32834,-0.29727 0.47853,-0.45988a19.47873,19.47873 0 0 0 2.30149,-2.81419c1.38379,-2.07154 2.36881,-4.38132 2.90431,-6.81538a20.49793,20.49793 0 0 0 0.44227,-3.78678l0,-0.47749l-0.03522,0zm-3.41805,2.01768a16.38799,16.38799 0 0 1 -3.54027,8.4778a4.21145,4.21145 0 0 1 -0.76129,-0.60075l0,-0.08908a4.65373,4.65373 0 0 1 3.34554,-7.91226c0.32316,0.00725 0.64321,0.04868 0.95705,0.12429l-0.00104,0zm-16.34034,8.63627a7.94955,7.94955 0 0 0 -6.32132,-3.13321a9.98692,9.98692 0 0 0 -1.04406,0a6.73459,6.73459 0 0 0 0,-1.04406a7.89051,7.89051 0 0 0 -3.13425,-6.30164a7.94852,7.94852 0 0 0 3.13425,-6.31821a6.73252,6.73252 0 0 0 0,-1.04406c0.34698,0.02693 0.69707,0.02693 1.04406,0a7.95162,7.95162 0 0 0 6.32132,-3.13321a7.89569,7.89569 0 0 0 6.32132,3.13218c0.3418,0.02693 0.68465,0.02693 1.02645,0a10.03353,10.03353 0 0 0 0,1.04509a8.00031,8.00031 0 0 0 3.13425,6.31821a7.94955,7.94955 0 0 0 -3.13425,6.30164a10.03663,10.03663 0 0 0 0,1.04406a9.98692,9.98692 0 0 0 -1.02645,0a7.89673,7.89673 0 0 0 -6.32132,3.13321zm-12.0046,-0.76129a4.21352,4.21352 0 0 1 -0.76129,0.60178a16.38695,16.38695 0 0 1 -3.54131,-8.4778a4.52943,4.52943 0 0 1 1.09792,-0.12429a4.67444,4.67444 0 0 1 4.33678,6.41661c-0.22787,0.55932 -0.5645,1.06685 -0.9902,1.49566l-0.1419,0.08804zm-4.42689,-11.45046a16.29891,16.29891 0 0 1 3.54027,-8.56687c0.33766,0.19369 0.64632,0.43192 0.92184,0.70743l0.08804,0.08908a4.56568,4.56568 0 0 1 1.32786,3.25647a4.67133,4.67133 0 0 1 -4.67444,4.65476a4.73037,4.73037 0 0 1 -1.20357,-0.14087zm26.9653,-4.5139a4.65373,4.65373 0 0 1 1.36308,-3.25647l0,-0.08908a4.41239,4.41239 0 0 1 0.92184,-0.70743a16.33413,16.33413 0 0 1 3.54027,8.56584a4.99242,4.99242 0 0 1 -1.15074,0.1419a4.67444,4.67444 0 0 1 -4.63922,-4.65476l-0.03522,0zm-0.15951,-6.5844a4.77491,4.77491 0 0 1 -0.70847,0.95602l-0.10565,0a4.65683,4.65683 0 0 1 -7.91434,-3.34554a4.35335,4.35335 0 0 1 0.17608,-1.274a16.46878,16.46878 0 0 1 8.55237,3.66353zm-12.21693,-3.54027c0.1274,0.41327 0.19369,0.84208 0.19473,1.274a4.67133,4.67133 0 0 1 -5.53827,4.58744a4.67548,4.67548 0 0 1 -2.39367,-1.24189a0.21233,0.21233 0 0 1 -0.08804,0a4.26427,4.26427 0 0 1 -0.72608,-0.95498a16.46878,16.46878 0 0 1 8.55134,-3.66456zm-8.41047,29.15285c0.16469,-0.26619 0.36045,-0.5096 0.58521,-0.72608l0.08804,-0.08908a4.67444,4.67444 0 0 1 7.93194,3.34554c-0.00829,0.3273 -0.0435,0.65254 -0.10565,0.97363a16.27302,16.27302 0 0 1 -8.49955,-3.50402zm11.98699,3.53923a5.84383,5.84383 0 0 1 -0.08804,-0.97363a4.65373,4.65373 0 0 1 5.51031,-4.64855a4.6558,4.6558 0 0 1 2.40299,1.25018l0.10668,0.08908c0.2144,0.22166 0.40395,0.46506 0.56657,0.72504a16.22123,16.22123 0 0 1 -8.49851,3.52266l0,0.03522z"/>
  </g>
 </g>
</svg>