<?xml version="1.0" encoding="UTF-8" standalone="no"?>
<!-- Created with Inkscape (http://www.inkscape.org/) -->

<svg
   xmlns:dc="http://purl.org/dc/elements/1.1/"
   xmlns:cc="http://creativecommons.org/ns#"
   xmlns:rdf="http://www.w3.org/1999/02/22-rdf-syntax-ns#"
   xmlns:svg="http://www.w3.org/2000/svg"
   xmlns="http://www.w3.org/2000/svg"
   xmlns:sodipodi="http://sodipodi.sourceforge.net/DTD/sodipodi-0.dtd"
   xmlns:inkscape="http://www.inkscape.org/namespaces/inkscape"
   version="1.1"
   id="svg3873"
   width="256"
   height="256"
   viewBox="0 0 256 256"
   sodipodi:docname="fslightbox-white.svg"
   inkscape:version="0.92.4 (f8dce91, 2019-08-02)"
   inkscape:export-filename="/home/piotrzdziarski/projects/fslightbox.com/public/favicon.ico2.png"
   inkscape:export-xdpi="24.000002"
   inkscape:export-ydpi="24.000002">
  <metadata
     id="metadata3879">
    <rdf:RDF>
      <cc:Work
         rdf:about="">
        <dc:format>image/svg+xml</dc:format>
        <dc:type
           rdf:resource="http://purl.org/dc/dcmitype/StillImage" />
        <dc:title />
      </cc:Work>
    </rdf:RDF>
  </metadata>
  <defs
     id="defs3877">
    <inkscape:path-effect
       effect="spiro"
       id="path-effect3904"
       is_visible="true" />
    <inkscape:path-effect
       is_visible="true"
       id="path-effect3904-5"
       effect="spiro" />
  </defs>
  <sodipodi:namedview
     pagecolor="#ffffff"
     bordercolor="#666666"
     borderopacity="1"
     objecttolerance="10"
     gridtolerance="10"
     guidetolerance="10"
     inkscape:pageopacity="0"
     inkscape:pageshadow="2"
     inkscape:window-width="1853"
     inkscape:window-height="1025"
     id="namedview3875"
     showgrid="false"
     inkscape:zoom="2.7887233"
     inkscape:cx="33.677181"
     inkscape:cy="125.15922"
     inkscape:window-x="1433"
     inkscape:window-y="27"
     inkscape:window-maximized="1"
     inkscape:current-layer="svg3873"
     showguides="false" />
  <g
     id="g1094"
     transform="matrix(0.34555691,-0.11584552,0.12059614,0.35465312,116.80163,54.815627)"
     style="fill:#ffffff;fill-opacity:1"
     inkscape:export-filename="/home/piotrzdziarski/projects/fslightbox.com/public/g1094.png"
     inkscape:export-xdpi="24"
     inkscape:export-ydpi="24">
    <g
       id="g1033"
       style="fill:#ffffff;fill-opacity:1"
       transform="matrix(1.1122573,0.00301508,0.00322134,1.1040791,-27.37523,-55.413392)"
       inkscape:export-filename="/home/piotrzdziarski/projects/fslightbox.com/g1033.png"
       inkscape:export-xdpi="24"
       inkscape:export-ydpi="24">
      <g
         id="g1031"
         style="fill:#ffffff;fill-opacity:1">
        <g
           id="g1029"
           style="fill:#ffffff;fill-opacity:1">
          <polygon
             id="polygon1021"
             points="42.667,192 0,192 0,298.667 106.667,298.667 106.667,256 42.667,256 "
             style="fill:#ffffff;fill-opacity:1" />
          <polygon
             id="polygon1023"
             points="0,106.667 42.667,106.667 42.667,42.667 106.667,42.667 106.667,0 0,0 "
             style="fill:#ffffff;fill-opacity:1" />
          <polygon
             id="polygon1025"
             points="192,0 192,42.667 256,42.667 256,106.667 298.667,106.667 298.667,0 "
             style="fill:#ffffff;fill-opacity:1" />
          <polygon
             id="polygon1027"
             points="256,256 192,256 192,298.667 298.667,298.667 298.667,192 256,192 "
             style="fill:#ffffff;fill-opacity:1" />
        </g>
      </g>
    </g>
    <g
       id="g1035"
       style="fill:#ffffff;fill-opacity:1" />
    <g
       id="g1037"
       style="fill:#ffffff;fill-opacity:1" />
    <g
       id="g1039"
       style="fill:#ffffff;fill-opacity:1" />
    <g
       id="g1041"
       style="fill:#ffffff;fill-opacity:1" />
    <g
       id="g1043"
       style="fill:#ffffff;fill-opacity:1" />
    <g
       id="g1045"
       style="fill:#ffffff;fill-opacity:1" />
    <g
       id="g1047"
       style="fill:#ffffff;fill-opacity:1" />
    <g
       id="g1049"
       style="fill:#ffffff;fill-opacity:1" />
    <g
       id="g1051"
       style="fill:#ffffff;fill-opacity:1" />
    <g
       id="g1053"
       style="fill:#ffffff;fill-opacity:1" />
    <g
       id="g1055"
       style="fill:#ffffff;fill-opacity:1" />
    <g
       id="g1057"
       style="fill:#ffffff;fill-opacity:1" />
    <g
       id="g1059"
       style="fill:#ffffff;fill-opacity:1" />
    <g
       id="g1061"
       style="fill:#ffffff;fill-opacity:1" />
    <g
       id="g1063"
       style="fill:#ffffff;fill-opacity:1" />
  </g>
  <g
     id="g995"
     transform="matrix(0.47341518,0,0,0.46858553,-0.18648825,131.56171)"
     style="fill:#ffffff;fill-opacity:1">
    <path
       style="fill:#ffffff;fill-opacity:1;stroke:#000000;stroke-width:0.49063995px;stroke-linecap:butt;stroke-linejoin:miter;stroke-opacity:0"
       d="M 93.449219 161.96484 C 87.916491 162.01733 82.383592 162.54583 76.876953 163.12891 C 72.773719 163.56338 68.672889 164.02825 64.576172 164.51758 C 61.840195 164.84438 59.10603 165.18296 56.376953 165.56055 C 42.215891 167.51984 27.72959 170.76825 16.269531 179.10547 C 14.030834 180.73413 11.860713 182.63437 10.785156 185.14648 C 10.24738 186.40254 10.005639 187.79476 10.212891 189.14062 C 10.420143 190.48649 11.095329 191.77878 12.169922 192.64844 C 13.08801 193.39144 14.263639 193.80416 15.453125 193.90039 C 16.642611 193.99662 17.845669 193.78821 18.96875 193.39453 C 21.214912 192.60716 23.111762 191.11508 25.003906 189.69727 C 27.976218 187.47006 31.133093 185.32405 34.755859 184.38086 C 36.567242 183.90926 38.477755 183.75235 40.326172 184.05859 C 42.174589 184.36483 43.958109 185.14945 45.326172 186.39844 C 45.726773 186.76417 46.090365 187.16802 46.394531 187.61328 C 47.025822 188.53741 47.386521 189.62946 47.472656 190.73633 C 47.558791 191.8432 47.375665 192.96457 46.986328 194.00781 C 46.207653 196.0943 44.627972 197.82989 42.792969 199.14648 C 39.122961 201.77968 34.516079 202.82629 30.529297 204.97852 C 23.583936 208.7279 19.008081 215.52256 15.099609 222.25586 C 12.023857 227.55459 9.1461569 233.03538 5.0390625 237.62305 C 3.8171797 238.98791 2.4832098 240.27824 1.5117188 241.82227 C 1.0259733 242.59428 0.63470004 243.42911 0.421875 244.31055 C 0.20905015 245.19198 0.17915298 246.12148 0.40429688 247 C 0.6685233 248.03102 1.2839378 248.9693 2.109375 249.66406 C 2.9348122 250.35883 3.9643539 250.81187 5.0390625 250.99414 C 6.7467033 251.28375 8.5212105 250.89254 10.082031 250.1582 C 11.642853 249.42386 13.015357 248.36307 14.322266 247.25391 C 15.629174 246.14474 16.890231 244.97626 18.292969 243.98438 C 19.695706 242.99249 21.26453 242.17338 22.96875 241.86523 C 25.41467 241.42298 28.04991 242.11292 29.9375 243.69141 C 31.825089 245.26989 32.925941 247.70478 32.847656 250.12695 C 35.561553 253.69062 40.108299 255.8555 44.662109 255.75391 C 49.21592 255.65231 53.655633 253.28642 56.199219 249.60547 C 57.973912 247.03722 58.866665 243.90154 61.011719 241.61719 C 62.470171 240.06403 64.422583 239.01346 66.462891 238.32031 C 68.503199 237.62716 70.645051 237.27062 72.777344 236.92969 C 83.040038 235.2888 93.842789 233.98513 103.61523 237.45117 C 107.05632 238.67164 110.30509 240.46585 113.89062 241.19141 C 115.68339 241.55421 117.55725 241.63806 119.33984 241.23047 C 121.12243 240.82288 122.81086 239.89826 123.9375 238.49219 C 125.32872 236.7559 125.75936 234.42371 125.51172 232.23438 C 125.26407 230.04504 124.39624 227.96861 123.40234 225.99023 C 121.27897 221.76361 118.51275 217.74375 117.51953 213.13867 C 116.79247 209.7676 117.06547 206.24772 117.875 202.89453 C 119.08512 197.88205 121.45427 193.21681 123.17383 188.34766 C 124.89339 183.4785 125.95686 178.1427 124.4707 173.20117 C 124.13246 172.07649 123.56646 171.02788 122.86719 170.07422 L 120.19336 166.42773 C 113.39709 163.96251 106.22055 162.49523 98.980469 162.08789 C 97.137182 161.98418 95.293461 161.94735 93.449219 161.96484 z M 98.820312 174.14844 C 103.03732 174.06506 106.65422 174.77299 109.7168 178.68945 C 112.60479 182.38267 102.58354 187.73346 98.873047 190.58984 C 91.823346 196.0168 80.920546 192.08882 76.279297 184.48047 C 73.818684 180.4468 86.042707 174.78443 90.570312 174.63281 C 93.542629 174.53327 96.290109 174.19846 98.820312 174.14844 z "
       transform="matrix(2.1123108,0,0,2.1340821,0.39392115,-280.76349)"
       id="path3902" />
  </g>
</svg>
