<svg width="66" height="66" xmlns="http://www.w3.org/2000/svg">
 <style type="text/css">.st0{fill-rule:evenodd;clip-rule:evenodd;fill:#FFFFFF;}
	.st1{fill:#FFFFFF;}
	.st2{fill-rule:evenodd;clip-rule:evenodd;fill:#96B5C6;}</style>

 <g>
  <title>background</title>
  <rect fill="none" id="canvas_background" height="68" width="68" y="-1" x="-1"/>
 </g>
 <g>
  <title>Layer 1</title>
  <g id="Layer_1"/>
  <g id="Layer_2">
   <g id="svg_26">
    <polygon id="svg_27" points="34.23541471362114,34.1538408100605 57.384412974119186,40.281514912843704 52.07375928759575,45.319825917482376 56.02270719408989,49.81345155835152 49.89502927660942,56.349637776613235 45.53757306933403,52.12835481762886 39.27372571825981,57.03049257397652 " class="st0"/>
    <path id="svg_28" d="m64.87379,43.68578l1.08936,-3.94895l-6.53619,-1.77022l-5.9915,-22.46814l4.6298,-4.6298l-2.85958,-2.85958l-4.76597,4.76597l-22.1958,-5.9915l-1.77022,-6.53619l-3.94895,1.08936l1.77022,6.53619l-16.34047,16.34047l-6.53619,-1.77022l-1.08936,3.94895l6.53619,1.77022l5.9915,22.1958l-4.90214,4.76597l2.85958,2.85958l4.76597,-4.76597l22.1958,5.9915l1.77022,6.67236l4.08512,-1.22553l-1.77022,-6.53619l3.54043,-3.54043l4.49363,4.6298l8.98726,-9.12343l-4.49363,-4.49363l3.6766,-3.6766l6.80853,1.77022zm-17.83834,-27.64262l-3.81278,3.81278l-12.52769,-3.40426l-1.36171,-5.17448l17.70217,4.76597zm-15.2511,20.97027l2.17873,7.89789l-7.89789,-2.17873l5.71916,-5.71916zm-8.44257,2.85958l-2.17873,-8.03406l8.03406,2.17873l-5.85533,5.85533zm8.71492,-18.92771l8.03406,2.17873l-5.85533,5.9915l-2.17873,-8.17023zm10.89364,5.03831l2.17873,8.17023l-8.03406,-2.17873l5.85533,-5.9915zm-12.66386,4.08512l-8.17023,-2.17873l5.9915,-5.9915l2.17873,8.17023zm-4.76597,-17.70217l1.36171,5.17448l-9.2596,9.2596l-5.17448,-1.36171l13.07237,-13.07237zm-14.02557,16.88515l5.17448,1.36171l3.40426,12.39152l-3.81278,3.81278l-4.76597,-17.566zm7.48938,20.69792l3.81278,-3.81278l12.39152,3.40426l1.36171,5.17448l-17.566,-4.76597zm34.99583,-9.12343l-4.90214,4.90214l4.49363,4.49363l0,0l0,0l-3.40426,3.40426l-4.49363,-4.49363l-4.90214,5.03831l-4.90214,-18.11068l0,-0.13617l18.11068,4.90214l0,0l0,0zm-4.35746,-5.58299l-3.40426,-12.66386l3.94895,-3.81278l4.76597,17.97451l-5.31065,-1.49788z" class="st2"/>
   </g>
  </g>
 </g>
</svg>