<svg width="57.00000000000001" height="50.04299999999999" xmlns="http://www.w3.org/2000/svg">

 <g>
  <title>background</title>
  <rect fill="none" id="canvas_background" height="52.043" width="59" y="-1" x="-1"/>
 </g>
 <g>
  <title>Layer 1</title>
  <path id="svg_1" d="m36.469,1.522c-3.193,1.541 -5.588,4.138 -7.338,7.082c-2.812,-4.727 -7.283,-8.562 -14.053,-8.562c-6.774,0 -15.078,5.749 -15.078,15.459c0,9.832 8.204,14.492 12.267,17.123c4.343,2.81 11.754,7.92 16.864,17.375c5.112,-9.456 12.522,-14.565 16.866,-17.375c3.052,-1.979 8.446,-5.103 10.936,-10.709l-20.464,-20.393zm-0.245,20.952l0,-18.475l18.476,18.475l-18.476,0z" fill="#4D90FE"/>
  <path id="svg_2" d="m36,22.474l0,-18.475l18.476,18.475l-18.476,0z" fill="#FFF"/>
 </g>
</svg>