<svg width="90" height="90" viewBox="0 0 90 90" fill="none" xmlns="http://www.w3.org/2000/svg">
<rect width="90" height="90" rx="24" fill="#0077FF"/>
<path fill-rule="evenodd" clip-rule="evenodd" d="M42.007 26.5743C34.6646 26.5743 28.7125 32.5264 28.7125 39.8688C28.7125 40.5011 28.7564 41.1211 28.8408 41.7264L29.3995 45.7327L25.3553 45.8174C20.5809 45.9175 16.74 49.8208 16.74 54.6203C16.74 59.483 20.6821 63.4251 25.5448 63.4251C36.8796 63.4251 48.9533 63.4256 61.4621 63.4256C67.978 63.4256 73.2601 58.1435 73.2601 51.6277C73.2601 45.1119 67.978 39.8298 61.4621 39.8298C60.6979 39.8298 59.9538 39.902 59.2354 40.0389L55.7421 40.7049L55.0381 37.219C53.8116 31.1458 48.4391 26.5743 42.007 26.5743ZM61.7566 70.6138V70.6161H25.0881V70.6092C16.4654 70.3674 9.54956 63.3015 9.54956 54.6203C9.54956 47.171 14.6412 40.9117 21.535 39.132C21.9229 28.1597 30.9401 19.3838 42.007 19.3838C50.7788 19.3838 58.2573 24.8945 61.1794 32.6414C61.2735 32.64 61.3677 32.6393 61.4621 32.6393C71.9491 32.6393 80.4505 41.1407 80.4505 51.6277C80.4505 62.0164 72.1078 70.4565 61.7566 70.6138Z" fill="white"/>
</svg>
