<svg width="32" height="32" fill="none" xmlns="http://www.w3.org/2000/svg"><g clip-path="url(#a)"><path d="M15.995 31.996c8.833 0 15.993-7.162 15.993-15.998C31.988 7.163 24.828 0 15.995 0S.002 7.163.002 15.998c0 8.836 7.16 15.998 15.993 15.998z" fill="#FFC800"/><path d="M22.878 27.918c-5.431 3.135-11.322 3.697-15.084 1.819 4.817 2.87 11.002 3.12 16.2.118 5.2-3.005 8.078-8.487 8-14.096-.254 4.2-3.685 9.024-9.116 12.159zM18.024 1.173c1.1 1.906-1.56 5.507-5.947 8.037-4.386 2.53-8.83 3.038-9.932 1.13a1.72 1.72 0 0 1-.12-.292c-.286-.888.055-2.037.877-3.247a15.9 15.9 0 0 1 5.096-4.66A15.914 15.914 0 0 1 14.581.06c1.457-.109 2.62.17 3.247.86.075.084.14.167.196.254z" fill="#000"/><path d="M24.823 3.237c1.923 3.331-1.957 9.17-8.664 13.044-6.706 3.873-13.704 4.314-15.624.984a4.057 4.057 0 0 1-.524-1.838 15.843 15.843 0 0 0 1.632 7.633l.021.04c.58 1.003 1.437 1.791 2.504 2.362 3.762 2.015 10.124 1.323 16.073-2.113 5.947-3.437 9.728-8.599 9.867-12.864.04-1.204-.21-2.337-.785-3.34a15.89 15.89 0 0 0-5.8-5.264 4.021 4.021 0 0 1 1.303 1.363l-.003-.007z" fill="#000"/><path d="M15.998 31.996c8.833 0 15.993-7.162 15.993-15.998C31.991 7.163 24.831 0 15.998 0 7.166 0 .005 7.163.005 15.998c0 8.836 7.16 15.998 15.993 15.998z" fill="url(#b)"/></g><defs><radialGradient id="b" cx="0" cy="0" r="1" gradientUnits="userSpaceOnUse" gradientTransform="matrix(15.9926 0 0 16.004 15.997 16)"><stop offset=".5" stop-color="#fff" stop-opacity="0"/><stop offset="1" stop-color="#fff" stop-opacity=".35"/></radialGradient><clipPath id="a"><path fill="#fff" d="M0 0h32v32H0z"/></clipPath></defs></svg>