<svg viewBox="0 0 90 90" xmlns="http://www.w3.org/2000/svg" xmlns:xlink="http://www.w3.org/1999/xlink"><defs><radialGradient cx="73.911%" cy="29.063%" fx="73.911%" fy="29.063%" r="78.917%" gradientTransform="matrix(0 .8125 -.4727 0 .876 -.31)" id="i"><stop stop-color="#F17733" offset="0%"/><stop stop-color="#E35834" offset="100%"/></radialGradient><radialGradient cx="73.911%" cy="29.063%" fx="73.911%" fy="29.063%" r="65.577%" gradientTransform="matrix(0 .97778 -.4727 0 .876 -.432)" id="l"><stop stop-color="#F17733" offset="0%"/><stop stop-color="#E35834" offset="100%"/></radialGradient><radialGradient cx="73.911%" cy="29.063%" fx="73.911%" fy="29.063%" r="146.892%" gradientTransform="matrix(0 .4365 -.4727 0 .876 -.032)" id="o"><stop stop-color="#F17733" offset="0%"/><stop stop-color="#E9471E" offset="100%"/></radialGradient><radialGradient cx="19.716%" cy="24.032%" fx="19.716%" fy="24.032%" r="160.873%" gradientTransform="matrix(.3204 .42345 -.31874 .0482 .21 .145)" id="r"><stop stop-color="#EC7027" offset="0%"/><stop stop-color="#E84D0F" offset="100%"/></radialGradient><radialGradient cx="8.012%" cy="27.974%" fx="8.012%" fy="27.974%" r="160.559%" gradientTransform="matrix(.54 .28093 -.06073 .36873 .054 .154)" id="t"><stop stop-color="#FFE397" offset="0%"/><stop stop-color="#F8A04F" offset="100%"/></radialGradient><radialGradient cx="16.363%" cy="42.245%" fx="16.363%" fy="42.245%" r="100%" gradientTransform="matrix(0 1 -.56266 0 .401 .259)" id="v"><stop stop-color="#FFF" stop-opacity=".24" offset="0%"/><stop stop-opacity="0" offset="100%"/></radialGradient><radialGradient cx="77.737%" cy="22.987%" fx="77.737%" fy="22.987%" r="50.278%" gradientTransform="matrix(-.14782 .96487 -1.03495 -.50084 1.13 -.405)" id="w"><stop stop-color="#FFF" stop-opacity=".5" offset="0%"/><stop stop-color="#FFF" stop-opacity="0" offset="100%"/></radialGradient><radialGradient cx="24.772%" cy="22.486%" fx="24.772%" fy="22.486%" r="112.459%" gradientTransform="matrix(.5044 .40527 -.15192 .6211 .157 -.015)" id="A"><stop stop-color="#FE774C" offset="0%"/><stop stop-color="#C5501B" offset="100%"/></radialGradient><filter x="-10.2%" y="-13.3%" width="120.4%" height="124.8%" filterUnits="objectBoundingBox" id="b"><feOffset dy="1" in="SourceAlpha" result="shadowOffsetOuter1"/><feGaussianBlur stdDeviation="1" in="shadowOffsetOuter1" result="shadowBlurOuter1"/><feColorMatrix values="0 0 0 0 0 0 0 0 0 0 0 0 0 0 0 0 0 0 0.25 0" in="shadowBlurOuter1" result="shadowMatrixOuter1"/><feMerge><feMergeNode in="shadowMatrixOuter1"/><feMergeNode in="SourceGraphic"/></feMerge></filter><filter x="-35.9%" y="-20.8%" width="171.8%" height="158.3%" filterUnits="objectBoundingBox" id="g"><feOffset dy="2" in="SourceAlpha" result="shadowOffsetOuter1"/><feGaussianBlur stdDeviation="2" in="shadowOffsetOuter1" result="shadowBlurOuter1"/><feColorMatrix values="0 0 0 0 0.780392157 0 0 0 0 0.270588235 0 0 0 0 0.00784313725 0 0 0 1 0" in="shadowBlurOuter1"/></filter><filter x="-31.8%" y="-22.2%" width="163.6%" height="162.2%" filterUnits="objectBoundingBox" id="j"><feOffset dy="2" in="SourceAlpha" result="shadowOffsetOuter1"/><feGaussianBlur stdDeviation="2" in="shadowOffsetOuter1" result="shadowBlurOuter1"/><feColorMatrix values="0 0 0 0 0.871206975 0 0 0 0 0.296298819 0 0 0 0 0 0 0 0 1 0" in="shadowBlurOuter1"/></filter><filter x="-110.3%" y="-40.7%" width="320.6%" height="196.3%" filterUnits="objectBoundingBox" id="m"><feOffset dy="2" in="SourceAlpha" result="shadowOffsetOuter1"/><feGaussianBlur stdDeviation="4" in="shadowOffsetOuter1" result="shadowBlurOuter1"/><feColorMatrix values="0 0 0 0 0.780392157 0 0 0 0 0.270588235 0 0 0 0 0.00784313725 0 0 0 1 0" in="shadowBlurOuter1"/></filter><filter x="-58%" y="-18.5%" width="216%" height="151.9%" filterUnits="objectBoundingBox" id="p"><feOffset dy="2" in="SourceAlpha" result="shadowOffsetOuter1"/><feGaussianBlur stdDeviation="2" in="shadowOffsetOuter1" result="shadowBlurOuter1"/><feColorMatrix values="0 0 0 0 0.8 0 0 0 0 0.301960784 0 0 0 0 0.031372549 0 0 0 1 0" in="shadowBlurOuter1"/></filter><filter x="-5.5%" y="-35.5%" width="111%" height="171%" filterUnits="objectBoundingBox" id="s"><feGaussianBlur stdDeviation="1" in="SourceGraphic"/></filter><filter x="-12.5%" y="-16.2%" width="125%" height="145.3%" filterUnits="objectBoundingBox" id="x"><feOffset dy="1" in="SourceAlpha" result="shadowOffsetOuter1"/><feGaussianBlur stdDeviation="1" in="shadowOffsetOuter1" result="shadowBlurOuter1"/><feComposite in="shadowBlurOuter1" in2="SourceAlpha" operator="out" result="shadowBlurOuter1"/><feColorMatrix values="0 0 0 0 0 0 0 0 0 0 0 0 0 0 0 0 0 0 0.25 0" in="shadowBlurOuter1"/></filter><path d="M0 0c17 9.5 36 9 55 2-.385.925-.77 2.146-1.23 3.552C51.242 13.274 46.455 26.577 27 27 4 27.5 3 4 0 0Z" id="c"/><path d="M43.5 3h10c-.667 5-2.167 9.5-4.5 13.5s-6.167 7.333-11.5 10L34 27c4-3 6.5-6.833 7.5-11.5s1.667-8.833 2-12.5Z" id="h"/><path d="m33.648 5.5 13.852-1c-.68 4.048-2.037 8.215-4.074 12.5s-5.84 7.452-11.407 9.5L25.5 27c5.432-4 8.42-7.5 8.963-10.5.543-3 .272-6.667-.815-11Z" id="k"/><path d="m24.786 2 10 1.5v25l-5.5.5c-3.334-3.667-5.334-7.667-6-12-.667-4.333-.167-9.333 1.5-15Z" id="n"/><path d="M13 1.5 23 3v25l-5.5.5c-3.944-4.494-6.1-8.827-6.47-13-.369-4.173.288-8.84 1.97-14Z" id="q"/><path d="M31.962 37.787c17.038.215 29.9-3.053 31.538-12.785 1.638-9.733-13.454-23.176-32-23C12.954 2.177 0 11.854 0 21.502s14.924 16.071 31.962 16.285Z" id="u"/><path d="M47 9c0-4.418-7.268-9-15-9S19 3 19 8c0 9.5 28 10 28 1Z" id="y"/><linearGradient x1="50%" y1="0%" x2="50%" y2="100%" id="a"><stop stop-color="#6DCD5B" offset="0%"/><stop stop-color="#39B631" offset="100%"/></linearGradient><linearGradient x1="14.097%" y1="43.036%" x2="82.673%" y2="56.13%" id="d"><stop stop-color="#EA8D25" offset="0%"/><stop stop-color="#E57929" offset="41.694%"/><stop stop-color="#DE5E30" offset="100%"/></linearGradient><linearGradient x1="42.297%" y1="19.254%" x2="59.096%" y2="88.033%" id="e"><stop stop-color="#EF641D" offset="0%"/><stop stop-color="#D66020" offset="100%"/></linearGradient><linearGradient x1="44.349%" y1="38.917%" x2="50%" y2="65.221%" id="z"><stop stop-color="#D55B28" stop-opacity="0" offset="0%"/><stop stop-color="#D0490F" offset="19.535%"/><stop stop-color="#C03B01" offset="100%"/></linearGradient></defs><g fill="none" fill-rule="evenodd"><path fill="url(#a)" d="M0 0h90v90H0z"/><g filter="url(#b)" transform="rotate(27 1.012 64.574)"><g transform="translate(4.5 29.5)"><mask id="f" fill="#fff"><use xlink:href="#c"/></mask><use fill="url(#d)" xlink:href="#c"/><path d="m-.5-2.5 12.5 7c-.667 3.667-.833 7.5-.5 11.5.333 4 1.667 7.167 4 9.5l-10-1-6-27Z" fill="url(#e)" mask="url(#f)"/><g mask="url(#f)"><use fill="#000" filter="url(#g)" xlink:href="#h"/><use fill="url(#i)" xlink:href="#h"/></g><g mask="url(#f)"><use fill="#000" filter="url(#j)" xlink:href="#k"/><use fill="url(#l)" xlink:href="#k"/></g><g mask="url(#f)" transform="matrix(-1 0 0 1 57.786 0)"><use fill="#000" filter="url(#m)" xlink:href="#n"/><use fill="url(#o)" xlink:href="#n"/></g><g mask="url(#f)"><use fill="#000" filter="url(#p)" xlink:href="#q"/><use fill="url(#r)" xlink:href="#q"/></g></g><path d="m31.962 37.288 1.017.009c11.239.049 21.214-1.88 26.535-5.857-.156.403-.315.853-.48 1.342-.15.104-.954.61-1.11.71-5.613 3.609-14.908 4.935-25.962 4.796-10.809-.136-20.806-2.8-26.643-7.17-.026-.02-.627-1.218-.452-1.265.024-.007.23.092.278.13 5.805 4.469 15.875 7.167 26.817 7.305Z" fill="#000" opacity=".491" filter="url(#s)" style="mix-blend-mode:overlay"/><use fill="url(#t)" xlink:href="#u"/><use fill="url(#v)" xlink:href="#u" style="mix-blend-mode:overlay"/><use fill="url(#w)" xlink:href="#u"/><use fill="#000" filter="url(#x)" xlink:href="#y"/><path stroke="url(#z)" stroke-width=".5" d="M32 .25c3.771 0 7.43 1.103 10.169 2.746C44.912 4.642 46.75 6.83 46.75 9c0 .962-.342 1.808-.944 2.54-.668.812-1.653 1.484-2.85 2.023-2.705 1.217-6.482 1.75-10.23 1.616-3.66-.13-7.293-.896-9.877-2.296-1.138-.616-2.07-1.354-2.703-2.22-.573-.783-.896-1.671-.896-2.663 0-2.382 1.247-4.288 3.397-5.61C24.903 1 28.142.25 32 .25Z" stroke-linejoin="square" fill="url(#A)"/></g></g></svg>