<svg width="79.24" height="79.24" xmlns="http://www.w3.org/2000/svg">
 <defs>
  <style>.cls-1{fill:#0066b3;}.cls-2{fill:#fff;}.cls-3{fill:#ed1c24;}.cls-4{fill:#be1e2d;}.cls-5{fill:#808d9c;}.cls-6{fill:none;stroke:#fff;stroke-miterlimit:10;stroke-width:0.03px;}.cls-7{fill:#fabc42;}.cls-8{fill:#3e4040;}</style>
 </defs>
 <title>FNS-LogoAsset 2</title>
 <g>
  <title>background</title>
  <rect fill="#ffffff" id="canvas_background" height="81.24" width="81.24" y="-1" x="-1"/>
 </g>
 <g>
  <title>Layer 1</title>
  <g id="Layer_2">
   <g id="Layer_1-2">
    <path id="svg_1" class="cls-1" d="m40.41495,66.33a29.45233,28.31 0 1 1 28.58884,-29.11a29.44193,28.3 0 0 1 -28.58884,29.11m38.70105,-29.39a39.53333,38 0 1 0 -38.42015,39.11a39.53333,38 0 0 0 38.42015,-39.11"/>
    <path id="svg_2" d="m39.53065,65.66a28.74489,27.63 0 0 1 -0.81147,-55.24l0.84268,0a28.73449,27.62 0 0 1 0.81147,55.23l-0.84268,0m0,0.68l0.86349,0a29.45233,28.31 0 0 0 -0.83228,-56.61l-0.86349,0a29.45233,28.31 0 0 0 0.83228,56.62" class="cls-2"/>
    <path id="svg_3" d="m39.58267,11.1l-0.82188,0a28.02705,26.94 0 0 0 0.76986,53.9l0.82188,0a28.02705,26.94 0 0 0 -0.79067,-53.86l0.02081,-0.04zm-0.05202,55.9a30.17017,29 0 0 1 -21.84737,-48.87a29.93089,28.77 0 0 1 21.01509,-9.08l0.8843,0a30.17017,29 0 0 1 0.84268,58l-0.8947,0" class="cls-1"/>
    <path id="svg_4" d="m67.50568,59.62l0,0l-1.25882,-1.85l-0.90511,1.1l2.16393,0.75zm-4.42149,-0.48l-0.21847,-0.09s-0.07282,-0.06 -0.07282,-0.1a0.21847,0.21 0 0 1 0,-0.15a2.23675,2.15 0 0 1 0.18726,-0.23a2.30958,2.22 0 0 1 0.19767,-0.24a0.6034,0.58 0 0 1 0.13525,-0.11a0.10404,0.1 0 0 1 0.08323,0l0.08323,0l1.04035,0.36l1.20681,-1.46l-0.5826,-0.84a0.42654,0.41 0 0 1 0,-0.09a0.17686,0.17 0 0 1 0,-0.1l0.08323,-0.14l0.16646,-0.21l0.18726,-0.21a0.19767,0.19 0 0 1 0.13525,-0.07s0.07282,0 0.11444,0.05a1.10277,1.06 0 0 1 0.13525,0.18l2.59047,3.93a0.48896,0.47 0 0 1 0,0.1a0.55139,0.53 0 0 1 0,0.12l-0.10404,0.16a2.51765,2.42 0 0 1 -0.19767,0.24l-0.22888,0.28l-0.16646,0.15a0.19767,0.19 0 0 1 -0.11444,0a0.33291,0.32 0 0 1 -0.13525,0l-4.52553,-1.53zm4.78561,-4.45a0.69703,0.67 0 0 0 0.3017,0.1a0.64502,0.62 0 0 0 0.28089,0a0.68663,0.66 0 0 0 0.26009,-0.17a1.21721,1.17 0 0 0 0.27049,-0.35l0.33291,-0.56l-1.30044,-0.71l-0.33291,0.57a1.70618,1.64 0 0 0 -0.16646,0.38a1.04035,1 0 0 0 0,0.29a0.79067,0.76 0 0 0 0.11444,0.26a0.70744,0.68 0 0 0 0.24968,0.2m-0.45775,0.93a1.69577,1.63 0 0 1 -0.49937,-0.41a1.31084,1.26 0 0 1 -0.27049,-0.53a1.59174,1.53 0 0 1 0,-0.67a2.73612,2.63 0 0 1 0.36412,-0.86l0.67623,-1.16a0.32251,0.31 0 0 1 0.17686,-0.17a0.34332,0.33 0 0 1 0.27049,0.06l3.90132,2.11a0.2913,0.28 0 0 1 0.17686,0.19a0.33291,0.32 0 0 1 0,0.23l-1.4773,2.45l-0.05202,0.05l-0.08323,0l-0.13525,0l-0.16646,-0.08l-0.16646,-0.1a0.39533,0.38 0 0 1 -0.09363,-0.09a0.11444,0.11 0 0 1 0,-0.07a0.08323,0.08 0 0 1 0,-0.07l1.04035,-1.82l-1.12358,-0.61l-0.41614,0.72a3.05863,2.94 0 0 1 -0.47856,0.64a1.68537,1.62 0 0 1 -0.52018,0.32a1.15479,1.11 0 0 1 -0.56179,0.07a1.45649,1.4 0 0 1 -0.593,-0.18m1.16519,-4.8a0.09363,0.09 0 0 1 -0.06242,0s0,-0.05 0,-0.09a1.04035,1 0 0 1 0,-0.16a1.84142,1.77 0 0 1 0.08323,-0.25a1.7894,1.72 0 0 1 0.08323,-0.35a0.55139,0.53 0 0 1 0.08323,-0.15a0.16646,0.16 0 0 1 0.08323,-0.06l0.10404,0l1.21721,0a1.87263,1.8 0 0 0 0.44735,0a0.97793,0.94 0 0 0 0.32251,-0.1a0.66582,0.64 0 0 0 0.21847,-0.19a1.04035,1 0 0 0 0.13525,-0.28l0.07282,-0.19l-1.95586,-0.62s0,0 -0.06242,0a0.12484,0.12 0 0 1 0,-0.09a1.30044,1.25 0 0 1 0,-0.15l0.07282,-0.23l0.08323,-0.22l0.08323,-0.14l0.07282,-0.06l0.06242,0l1.94546,0.62l0.07282,-0.18a1.04035,1 0 0 0 0,-0.33a0.57219,0.55 0 0 0 -0.06242,-0.28a0.90511,0.87 0 0 0 -0.18726,-0.26a3.12105,3 0 0 0 -0.32251,-0.26l-1.04035,-0.69l0.06242,-0.14a0.32251,0.31 0 0 1 0,-0.11a1.42528,1.37 0 0 1 0,-0.16a2.0807,2 0 0 1 0.07282,-0.25a2.29918,2.21 0 0 1 0.10404,-0.24a1.11318,1.07 0 0 1 0.07282,-0.15l0.07282,-0.06a0.11444,0.11 0 0 1 0.08323,0l0,0s0,0 0.06242,0l0.07282,0l0.10404,0.08l0.86349,0.64a2.6737,2.57 0 0 1 0.39533,0.33a1.26923,1.22 0 0 1 0.23928,0.29a0.82188,0.79 0 0 1 0.13525,0.28a2.98581,2.87 0 0 1 0,0.31l0,0a0.93632,0.9 0 0 1 0.19767,-0.2a0.76986,0.74 0 0 1 0.26009,-0.14a2.22635,2.14 0 0 1 0.35372,-0.08a3.30832,3.18 0 0 1 0.48896,0l1.186,0l0.11444,0a0.09363,0.09 0 0 1 0.06242,0s0,0.05 0,0.09a1.04035,1 0 0 1 0,0.15a1.59174,1.53 0 0 1 -0.07282,0.24a1.60214,1.54 0 0 1 -0.09363,0.24c0,0.06 0,0.12 -0.08323,0.14a0.17686,0.17 0 0 1 -0.08323,0.07l-0.10404,0l-1.13398,0a2.39281,2.3 0 0 0 -0.40574,0a0.73865,0.71 0 0 0 -0.2913,0.08a0.72825,0.7 0 0 0 -0.20807,0.18a1.04035,1 0 0 0 -0.14565,0.28l-0.06242,0.19l1.83102,0.58a0.10404,0.1 0 0 1 0.06242,0s0,0 0,0.09a0.48896,0.47 0 0 1 0,0.15a1.04035,1 0 0 1 -0.07282,0.23a1.84142,1.77 0 0 1 -0.08323,0.22a0.6034,0.58 0 0 1 -0.08323,0.14a0.13525,0.13 0 0 1 -0.07282,0.06l-0.07282,0l-1.73739,-0.37l-0.06242,0.18a0.92591,0.89 0 0 0 -0.06242,0.31a0.6034,0.58 0 0 0 0.06242,0.26a1.04035,1 0 0 0 0.18726,0.25a1.53972,1.48 0 0 0 0.3017,0.24l0.92591,0.63a0.22888,0.22 0 0 1 0.07282,0.06a0.17686,0.17 0 0 1 0,0.1a0.55139,0.53 0 0 1 0,0.16a1.11318,1.07 0 0 1 -0.07282,0.25a1.43568,1.38 0 0 1 -0.09363,0.23a0.94672,0.91 0 0 1 -0.07282,0.14a0.19767,0.19 0 0 1 -0.07282,0.06l-0.07282,0l-0.12484,0l-0.15605,-0.17l-0.75946,-0.56a4.00535,3.85 0 0 1 -0.36412,-0.29a1.81021,1.74 0 0 1 -0.22888,-0.27a1.04035,1 0 0 1 -0.11444,-0.26a0.96753,0.93 0 0 1 0,-0.29l0,0a1.7686,1.7 0 0 1 -0.24968,0.23a1.30044,1.25 0 0 1 -0.2913,0.15a1.7894,1.72 0 0 1 -0.37453,0.09a3.77647,3.63 0 0 1 -0.52018,0l-1.4773,0m3.51639,-7.59a5.49305,5.28 0 0 1 -0.69703,-0.42a1.46689,1.41 0 0 1 -0.39533,-0.4a0.86349,0.83 0 0 1 -0.17686,-0.43a1.50851,1.45 0 0 1 0,-0.51l0,-0.2c0,-0.06 0,-0.12 0.07282,-0.18a0.63461,0.61 0 0 1 0.07282,-0.14l0.07282,-0.09l0.06242,0l0.09363,0l0.14565,0l0.20807,0a0.86349,0.83 0 0 1 0.32251,0.07c0.06242,0 0.09363,0.07 0.08323,0.11a0.13525,0.13 0 0 1 0,0.08a0.37453,0.36 0 0 0 -0.08323,0.09a0.79067,0.76 0 0 0 -0.07282,0.13a0.81147,0.78 0 0 0 0,0.18a0.39533,0.38 0 0 0 0,0.15a0.40574,0.39 0 0 0 0,0.14a0.70744,0.68 0 0 0 0.12484,0.13a1.33165,1.28 0 0 0 0.21847,0.16l3.65163,-1.17a0.6034,0.58 0 0 1 0.20807,0a0.13525,0.13 0 0 1 0.11444,0a0.31211,0.3 0 0 1 0,0.16a1.96626,1.89 0 0 1 0,0.29c0,0.12 0,0.21 0,0.28a0.39533,0.38 0 0 1 -0.06242,0.17a0.18726,0.18 0 0 1 -0.08323,0.09l-0.13525,0.05l-1.64375,0.49l-0.52018,0.16l-0.53058,0.13l0,0l0.49937,0.23l0.49937,0.25l1.4877,0.76a0.28089,0.27 0 0 1 0.08323,0.07a0.40574,0.39 0 0 1 0,0.09a1.04035,1 0 0 1 0,0.17c0,0.07 0,0.17 0,0.28a2.33039,2.24 0 0 1 0,0.27a0.46816,0.45 0 0 1 -0.06242,0.15a0.09363,0.09 0 0 1 -0.09363,0a0.48896,0.47 0 0 1 -0.23928,0l-3.22509,-1.79zm-0.85309,-4l-0.07282,0a0.12484,0.12 0 0 1 0,-0.08a0.50977,0.49 0 0 1 0,-0.15a1.49811,1.44 0 0 1 0,-0.24l0,-0.25c0,-0.06 0,-0.11 0,-0.15a0.37453,0.36 0 0 1 0,-0.09l0.07282,0l4.1614,-0.12l0,-1.06c-0.61381,-0.06 -1.14439,-0.11 -1.59174,-0.18a8.70774,8.37 0 0 1 -1.1756,-0.2a4.26544,4.1 0 0 1 -0.80107,-0.25a1.90384,1.83 0 0 1 -0.49937,-0.33a1.10277,1.06 0 0 1 -0.27049,-0.43a2.90258,2.79 0 0 1 -0.08323,-0.55a0.35372,0.34 0 0 1 0,-0.1a0.20807,0.2 0 0 1 0.06242,-0.07l0.12484,0l0.19767,0a1.24842,1.2 0 0 1 0.28089,0l0.15605,0a0.12484,0.12 0 0 1 -0.02081,0.04a0.14565,0.14 0 0 1 0,0.07a0.57219,0.55 0 0 0 0.06242,0.22a0.54098,0.52 0 0 0 0.19767,0.21a2.13272,2.05 0 0 0 0.42654,0.18a6.30453,6.06 0 0 0 0.70744,0.17l1.04035,0.14c0.41614,0.05 0.91551,0.09 1.49811,0.14a0.56179,0.54 0 0 1 0.28089,0.08a0.32251,0.31 0 0 1 0.09363,0.2l0.07282,2.43a0.26009,0.25 0 0 1 -0.07282,0.21a0.34332,0.33 0 0 1 -0.24968,0.09l-4.59835,0.07zm0.37453,-5.07l-0.16646,0l-0.11444,0l-0.09363,0l-0.09363,0a0.91551,0.88 0 0 1 -0.14565,-0.14c-0.06242,-0.07 -0.12484,-0.16 -0.19767,-0.26s-0.12484,-0.23 -0.18726,-0.37a4.67117,4.49 0 0 1 -0.13525,-0.47a2.53846,2.44 0 0 1 0,-0.93a1.84142,1.77 0 0 1 0.34332,-0.77a2.13272,2.05 0 0 1 0.70744,-0.58a3.59961,3.46 0 0 1 1.04035,-0.36a3.88051,3.73 0 0 1 1.186,-0.05a2.33039,2.24 0 0 1 0.92591,0.31a1.94546,1.87 0 0 1 0.65542,0.62a2.34079,2.25 0 0 1 0.36412,0.87a1.94546,1.87 0 0 1 0,0.4c0,0.13 0,0.25 0,0.37a1.61254,1.55 0 0 1 -0.07282,0.31a0.80107,0.77 0 0 1 -0.09363,0.2l-0.07282,0.09a0.3017,0.29 0 0 1 -0.08323,0a0.35372,0.34 0 0 1 -0.12484,0l-0.17686,0l-0.20807,0a0.5826,0.56 0 0 1 -0.13525,0a0.11444,0.11 0 0 1 -0.08323,0a0.06242,0.06 0 0 1 0,-0.06a0.20807,0.2 0 0 1 0,-0.15l0.10404,-0.26a2.0807,2 0 0 0 0.14565,-0.21a1.52932,1.47 0 0 0 0,-0.46a1.186,1.14 0 0 0 -0.22888,-0.5a1.23802,1.19 0 0 0 -0.42654,-0.32a2.0807,2 0 0 0 -0.6034,-0.14a3.21468,3.09 0 0 0 -0.74905,0.06a2.64249,2.54 0 0 0 -0.74905,0.23a1.66456,1.6 0 0 0 -0.48896,0.35a1.15479,1.11 0 0 0 -0.22888,0.45a1.27963,1.23 0 0 0 0,0.54a1.45649,1.4 0 0 0 0.15605,0.45a2.31998,2.23 0 0 0 0.20807,0.3a1.15479,1.11 0 0 0 0.18726,0.19a0.39533,0.38 0 0 1 0.09363,0.13s0,0.05 0,0.06s0,0 0,0.05l-0.13525,0l-0.21847,0m-0.19767,-11.73l-0.36412,-0.36a1.75819,1.69 0 0 0 -0.28089,-0.4a0.83228,0.8 0 0 0 -0.26009,-0.16a0.65542,0.63 0 0 0 -0.28089,0a1.04035,1 0 0 0 -0.2913,0.1a1.12358,1.08 0 0 0 -0.23928,0.18a0.69703,0.67 0 0 0 -0.10404,0.28a0.76986,0.74 0 0 0 0,0.3a1.46689,1.41 0 0 0 0.18726,0.43l0.26009,0.47l1.37326,-0.84zm-3.19388,2.81a0.11444,0.11 0 0 1 -0.08323,0s0,0 -0.08323,-0.05l-0.09363,-0.12a1.66456,1.6 0 0 1 -0.13525,-0.21l-0.10404,-0.21a0.44735,0.43 0 0 1 0,-0.15a0.17686,0.17 0 0 1 0,-0.1a0.08323,0.08 0 0 1 0,-0.05l1.68537,-0.88l-0.17686,-0.33a1.04035,1 0 0 0 -0.21847,-0.28a0.47856,0.46 0 0 0 -0.23928,-0.12a0.8843,0.85 0 0 0 -0.3017,0l-0.37453,0l-1.26923,0.33a0.13525,0.13 0 0 1 -0.09363,0s-0.06242,0 -0.09363,-0.05a0.78026,0.75 0 0 1 -0.11444,-0.13c0,-0.06 -0.08323,-0.14 -0.13525,-0.23a2.69451,2.59 0 0 1 -0.12484,-0.25a0.38493,0.37 0 0 1 0,-0.15a0.22888,0.22 0 0 1 0,-0.09l0,0l0.09363,0l0.17686,0l1.04035,-0.14l0.37453,0a2.63209,2.53 0 0 1 0.31211,0a1.04035,1 0 0 1 0.27049,0.09a0.66582,0.64 0 0 1 0.22888,0.14a2.39281,2.3 0 0 1 0,-0.45a1.27963,1.23 0 0 1 0.08323,-0.39a1.23802,1.19 0 0 1 0.22888,-0.33a1.33165,1.28 0 0 1 0.37453,-0.26a1.51891,1.46 0 0 1 0.61381,-0.19a1.29003,1.24 0 0 1 0.593,0.08a1.7894,1.72 0 0 1 0.55139,0.36a3.68284,3.54 0 0 1 0.57219,0.79l0.593,1.07a0.3017,0.29 0 0 1 0,0.22a0.3017,0.29 0 0 1 -0.17686,0.18l-3.97414,1.9zm-0.55139,-8.1l0,0l-2.23675,0.83l0.85309,1.1l1.38367,-1.93zm-1.52932,4a0.68663,0.66 0 0 1 -0.14565,0.17a0.15605,0.15 0 0 1 -0.11444,0.06a0.32251,0.31 0 0 1 -0.13525,-0.09l-0.31211,-0.11l-0.18726,-0.24a0.5826,0.56 0 0 1 -0.08323,-0.15a0.10404,0.1 0 0 1 0,-0.09a0.10404,0.1 0 0 1 0,-0.08l0.593,-0.87l-1.13398,-1.47l-1.04035,0.35l-0.10404,0l-0.09363,0a0.49937,0.48 0 0 1 -0.12484,-0.1l-0.17686,-0.21l-0.12484,-0.24a0.24968,0.24 0 0 1 0,-0.15a0.16646,0.16 0 0 1 0.08323,-0.09l0.21847,-0.09l4.56714,-1.49l0.12484,0a0.26009,0.25 0 0 1 0.11444,0a0.82188,0.79 0 0 1 0.13525,0.13c0.06242,0.06 0.12484,0.14 0.20807,0.24l0.22888,0.29a0.8843,0.85 0 0 1 0.10404,0.18a0.21847,0.21 0 0 1 0,0.13a0.42654,0.41 0 0 1 -0.06242,0.11l-2.53846,3.81zm-2.0807,-7.28a1.10277,1.06 0 0 0 0.16646,-0.23a0.52018,0.5 0 0 0 0,-0.24a0.61381,0.59 0 0 0 -0.09363,-0.24a1.45649,1.4 0 0 0 -0.24968,-0.29l-0.53058,-0.22l-0.90511,0.93l0.42654,0.39a1.04035,1 0 0 0 0.3017,0.2a0.61381,0.59 0 0 0 0.27049,0a0.50977,0.49 0 0 0 0.23928,-0.06a0.64502,0.62 0 0 0 0.20807,-0.16m-1.30044,1.72a1.33165,1.28 0 0 0 0.17686,-0.26a0.71784,0.69 0 0 0 0,-0.28a0.75946,0.73 0 0 0 -0.11444,-0.3a1.33165,1.28 0 0 0 -0.31211,-0.34l-0.39533,-0.41l-1.04035,1l0.55139,0.49a1.04035,1 0 0 0 0.3017,0.21a0.72825,0.7 0 0 0 0.28089,0.08a0.67623,0.65 0 0 0 0.28089,0a0.73865,0.71 0 0 0 0.24968,-0.17m0.81147,0.69a1.74779,1.68 0 0 1 -0.38493,0.3a1.13398,1.09 0 0 1 -0.42654,0.13a1.23802,1.19 0 0 1 -0.43695,0a1.86223,1.79 0 0 1 -0.43695,-0.12a3.59961,3.46 0 0 1 -0.42654,-0.21a5.46184,5.25 0 0 1 -0.43695,-0.34l-0.98833,-0.9a0.3017,0.29 0 0 1 -0.11444,-0.2a0.32251,0.31 0 0 1 0.10404,-0.24l3.05863,-3.15a0.3017,0.29 0 0 1 0.23928,-0.11a0.31211,0.3 0 0 1 0.21847,0.09l0.93632,0.84a2.99621,2.88 0 0 1 0.53058,0.59a1.44609,1.39 0 0 1 0.24968,0.53a1.14439,1.1 0 0 1 0,0.51a1.1756,1.13 0 0 1 -0.31211,0.48a1.37326,1.32 0 0 1 -0.27049,0.22a0.8947,0.86 0 0 1 -0.31211,0.12a1.12358,1.08 0 0 1 -0.32251,0a1.30044,1.25 0 0 1 -0.33291,-0.08a1.61254,1.55 0 0 1 0.19767,0.36a1.37326,1.32 0 0 1 0.06242,0.39a1.49811,1.44 0 0 1 -0.09363,0.4a1.38367,1.33 0 0 1 -0.27049,0.39m-4.22382,-4.79a3.99495,3.84 0 0 0 0.34332,-0.63a1.43568,1.38 0 0 0 0.13525,-0.57a1.04035,1 0 0 0 -0.13525,-0.51a1.40447,1.35 0 0 0 -0.46816,-0.44a1.186,1.14 0 0 0 -1.1756,-0.13a1.75819,1.69 0 0 0 -0.49937,0.34a3.30832,3.18 0 0 0 -0.43695,0.52a3.77647,3.63 0 0 0 -0.35372,0.64a1.43568,1.38 0 0 0 -0.13525,0.57a0.96753,0.93 0 0 0 0.13525,0.51a1.50851,1.45 0 0 0 0.46816,0.44a1.32125,1.27 0 0 0 0.61381,0.22a1.27963,1.23 0 0 0 0.56179,-0.09a1.66456,1.6 0 0 0 0.50977,-0.34a3.92212,3.77 0 0 0 0.43695,-0.53m0.94672,0.53a3.99495,3.84 0 0 1 -0.75946,0.84a2.39281,2.3 0 0 1 -0.86349,0.44a2.0807,2 0 0 1 -0.94672,0a2.84016,2.73 0 0 1 -1.04035,-0.41a3.33953,3.21 0 0 1 -0.79067,-0.68a1.90384,1.83 0 0 1 -0.36412,-0.78a2.0807,2 0 0 1 0.08323,-0.9a3.82849,3.68 0 0 1 0.52018,-1a3.36033,3.23 0 0 1 0.74905,-0.82a2.18474,2.1 0 0 1 0.85309,-0.43a1.94546,1.87 0 0 1 0.94672,0a2.75693,2.65 0 0 1 1.04035,0.41a3.04823,2.93 0 0 1 0.78026,0.67a1.7894,1.72 0 0 1 0.36412,0.78a2.0807,2 0 0 1 -0.06242,0.89a3.88051,3.73 0 0 1 -0.50977,1m-4.06777,-4.78a0.90511,0.87 0 0 1 -0.09363,0.17a0.3017,0.29 0 0 1 -0.08323,0.1a0.15605,0.15 0 0 1 -0.07282,0a0.10404,0.1 0 0 1 -0.07282,0l-1.55012,-0.68l-1.73739,3.62a0.10404,0.1 0 0 1 0,0.06l-0.09363,0l-0.15605,0l-0.23928,-0.1l-0.21847,-0.11a0.37453,0.36 0 0 1 -0.13525,-0.09a0.21847,0.21 0 0 1 -0.06242,-0.08s0,0 0,-0.07l1.93505,-4.09a0.34332,0.33 0 0 1 0.17686,-0.18a0.32251,0.31 0 0 1 0.23928,0l2.22635,1s0.06242,0.06 0.06242,0.13a0.79067,0.76 0 0 1 -0.10404,0.31m-6.14847,-0.26a3.28751,3.16 0 0 0 0.13525,-0.7a1.61254,1.55 0 0 0 -0.05202,-0.58a1.04035,1 0 0 0 -0.2913,-0.44a1.42528,1.37 0 0 0 -0.57219,-0.28a1.22761,1.18 0 0 0 -0.66582,0a1.10277,1.06 0 0 0 -0.49937,0.25a1.60214,1.54 0 0 0 -0.37453,0.46a3.95333,3.8 0 0 0 -0.24968,0.62a4.49432,4.32 0 0 0 -0.14565,0.67a1.59174,1.53 0 0 0 0,0.58a1.04035,1 0 0 0 0.2913,0.45a1.45649,1.4 0 0 0 0.5826,0.28a1.31084,1.26 0 0 0 0.65542,0a1.24842,1.2 0 0 0 0.50977,-0.25a1.85182,1.78 0 0 0 0.37453,-0.48a3.73486,3.59 0 0 0 0.3017,-0.58m1.04035,0.24a3.80768,3.66 0 0 1 -0.46816,1a2.30958,2.22 0 0 1 -0.68663,0.76a2.17433,2.09 0 0 1 -0.8947,0.29a2.81935,2.71 0 0 1 -1.04035,-0.11a3.20428,3.08 0 0 1 -0.96753,-0.42a1.81021,1.74 0 0 1 -0.593,-0.64a2.0807,2 0 0 1 -0.20807,-0.87a4.29665,4.13 0 0 1 0.17686,-1.13a3.98454,3.83 0 0 1 0.45775,-1a2.39281,2.3 0 0 1 0.68663,-0.66a2.0807,2 0 0 1 0.8947,-0.29a2.65289,2.55 0 0 1 1.04035,0.11a3.24589,3.12 0 0 1 0.95712,0.41a1.779,1.71 0 0 1 0.5826,0.64a2.0807,2 0 0 1 0.21847,0.86a3.74526,3.6 0 0 1 -0.16646,1.12m-6.63744,0.85a0.11444,0.11 0 0 1 0,0.06a0.19767,0.19 0 0 1 -0.09363,0l-0.15605,0l-0.26009,0l-0.24968,0l-0.15605,0a0.14565,0.14 0 0 1 -0.07282,-0.06a0.06242,0.06 0 0 1 0,-0.07l0.39533,-4l-1.10277,-0.1c-0.13525,0.58 -0.26009,1.07 -0.37453,1.5s-0.23928,0.79 -0.36412,1.1a4.02616,3.87 0 0 1 -0.35372,0.73a1.56053,1.5 0 0 1 -0.40574,0.43a1.04035,1 0 0 1 -0.47856,0.2a2.50725,2.41 0 0 1 -0.57219,0l-0.10404,0l-0.06242,-0.06a0.45775,0.44 0 0 1 0,-0.13a1.22761,1.18 0 0 1 0,-0.19c0,-0.11 0,-0.2 0,-0.26a0.28089,0.27 0 0 1 0,-0.15a0.16646,0.16 0 0 1 0.11444,-0.16l0.08323,0a0.62421,0.6 0 0 0 0.23928,0a0.82188,0.79 0 0 0 0.23928,-0.17a1.89344,1.82 0 0 0 0.22888,-0.38a3.29791,3.17 0 0 0 0.26009,-0.66c0.09363,-0.26 0.18726,-0.6 0.2913,-1s0.20807,-0.87 0.32251,-1.41a0.64502,0.62 0 0 1 0.12484,-0.27a0.2913,0.28 0 0 1 0.21847,0l2.51765,0.23a0.27049,0.26 0 0 1 0.20807,0.1a0.3017,0.29 0 0 1 0,0.24l-0.43695,4.48zm-7.7194,-4.16l0,0l-0.56179,2.14l1.45649,-0.1l-0.8947,-2.04zm2.64249,3.44c0,0.09 0.06242,0.17 0.07282,0.22a0.12484,0.12 0 0 1 0,0.12a0.20807,0.2 0 0 1 -0.14565,0.06l-0.31211,0l-0.31211,0l-0.17686,0l-0.08323,0a0.5826,0.56 0 0 1 0,-0.08l-0.41614,-1l-1.99747,0.24l-0.24968,1a0.31211,0.3 0 0 1 0,0.1a0.14565,0.14 0 0 1 -0.07282,0.06l-0.16646,0l-0.27049,0l-0.2913,0a0.20807,0.2 0 0 1 -0.14565,-0.05a0.14565,0.14 0 0 1 0,-0.12a0.75946,0.73 0 0 1 0,-0.22l1.20681,-4.47a0.2913,0.28 0 0 1 0,-0.11a0.22888,0.22 0 0 1 0.09363,-0.07a0.71784,0.69 0 0 1 0.18726,0l0.33291,0l0.36412,0l0.22888,0a0.20807,0.2 0 0 1 0.11444,0.06a0.37453,0.36 0 0 1 0.06242,0.11l1.97667,4.15zm-5.70112,0.76a0.11444,0.11 0 0 1 0,0.08l-0.06242,0.07l-0.15605,0.06a0.82188,0.79 0 0 1 -0.23928,0.07a1.34205,1.29 0 0 1 -0.24968,0.05l-0.15605,0a0.17686,0.17 0 0 1 -0.10404,0a0.13525,0.13 0 0 1 0,-0.06l-0.55139,-1.94l-1.86223,0.47l0.49937,1.94a0.09363,0.09 0 0 1 0,0.07l-0.07282,0.07l-0.14565,0.07l-0.23928,0.07l-0.24968,0a0.55139,0.53 0 0 1 -0.16646,0a0.19767,0.19 0 0 1 -0.09363,0a0.07282,0.07 0 0 1 0,-0.06l-1.22761,-4.53a0.20807,0.2 0 0 1 0,-0.07l0.06242,-0.07l0.15605,-0.06l0.23928,-0.08l0.24968,0l0.16646,0a0.12484,0.12 0 0 1 0.09363,0l0,0.06l0.45775,1.76l1.86223,-0.45l-0.45775,-1.76a0.09363,0.09 0 0 1 0,-0.07a0.19767,0.19 0 0 1 0.06242,-0.07l0.14565,-0.07l0.24968,-0.07l0.24968,-0.05l0.15605,0a0.12484,0.12 0 0 1 0.09363,0l0.05202,0l1.23802,4.57zm-12.7547,0.49l-0.44735,0.31a1.61254,1.55 0 0 0 -0.40574,0.3a0.62421,0.6 0 0 0 -0.14565,0.26a0.52018,0.5 0 0 0 0,0.27a1.65416,1.59 0 0 0 0.12484,0.27a0.8843,0.85 0 0 0 0.20807,0.22a0.66582,0.64 0 0 0 0.26009,0.11a0.80107,0.77 0 0 0 0.31211,0a1.97667,1.9 0 0 0 0.43695,-0.2l0.46816,-0.29l-0.81147,-1.25zm3.12105,2.88a0.09363,0.09 0 0 1 0,0.07a0.12484,0.12 0 0 1 0,0.08l-0.11444,0.11l-0.20807,0.14l-0.21847,0.12l-0.15605,0.06l-0.10404,0a0.08323,0.08 0 0 1 0,-0.05l-1.04035,-1.56l-0.32251,0.2a0.97793,0.94 0 0 0 -0.28089,0.23a0.63461,0.61 0 0 0 -0.11444,0.23a0.96753,0.93 0 0 0 0,0.29a2.80895,2.7 0 0 0 0.06242,0.36l0.27049,1.1l0,0.1a0.38493,0.37 0 0 1 -0.06242,0.1l-0.12484,0.11l-0.22888,0.14a1.82061,1.75 0 0 1 -0.24968,0.14l-0.15605,0.06l-0.17686,0l-0.05202,0l0,-0.09a1.26923,1.22 0 0 1 -0.05202,-0.17l-0.20807,-1a1.7894,1.72 0 0 1 -0.05202,-0.36a1.66456,1.6 0 0 1 0,-0.31a2.0807,2 0 0 1 0.07282,-0.26a1.04035,1 0 0 1 0.13525,-0.23a1.94546,1.87 0 0 1 -0.45775,0.08a1.11318,1.07 0 0 1 -0.41614,0a1.04035,1 0 0 1 -0.35372,-0.2a1.29003,1.24 0 0 1 -0.3017,-0.34a1.58133,1.52 0 0 1 -0.23928,-0.57a1.186,1.14 0 0 1 0.05202,-0.58a1.85182,1.78 0 0 1 0.33291,-0.56a3.89091,3.74 0 0 1 0.78026,-0.6l1.04035,-0.64a0.34332,0.33 0 0 1 0.21847,0a0.2913,0.28 0 0 1 0.20807,0.16l2.51765,3.64zm-8.32281,1.06l0,0l0.91551,2l1.06116,-0.89l-1.97667,-1.11zm4.26544,1.2a0.90511,0.87 0 0 1 0.19767,0.13a0.14565,0.14 0 0 1 0.06242,0.11a0.28089,0.27 0 0 1 -0.08323,0.13c0,0.06 -0.12484,0.12 -0.21847,0.21a2.20554,2.12 0 0 1 -0.24968,0.19l-0.13525,0.1a0.20807,0.2 0 0 1 -0.10404,0l-0.08323,0l-0.94672,-0.52l-1.43568,1.23l0.42654,0.93a0.45775,0.44 0 0 1 0,0.1a0.10404,0.1 0 0 1 0,0.09a0.52018,0.5 0 0 1 -0.10404,0.13c0,0.05 -0.11444,0.11 -0.19767,0.19l-0.21847,0.17a0.24968,0.24 0 0 1 -0.14565,0.05a0.15605,0.15 0 0 1 -0.09363,-0.07a0.95712,0.92 0 0 1 -0.10404,-0.2l-1.85182,-4.29a0.22888,0.22 0 0 1 0,-0.22l0.12484,-0.15l0.23928,-0.21l0.28089,-0.23a0.71784,0.69 0 0 1 0.18726,-0.12a0.31211,0.3 0 0 1 0.12484,0l0.12484,0.05l4.20302,2.2zm-4.04696,3.94a0.07282,0.07 0 0 1 0,0.06a0.18726,0.18 0 0 1 0,0.1l-0.07282,0.13a1.56053,1.5 0 0 1 -0.14565,0.2l-0.17686,0.18a0.48896,0.47 0 0 1 -0.11444,0.1a0.13525,0.13 0 0 1 -0.09363,0a0.08323,0.08 0 0 1 -0.07282,0l-1.64375,-1.24l-1.1964,1.45l1.62295,1.25a0.07282,0.07 0 0 1 0,0.06s0,0.05 0,0.09a0.63461,0.61 0 0 1 -0.07282,0.14a1.56053,1.5 0 0 1 -0.14565,0.2a1.58133,1.52 0 0 1 -0.17686,0.18a0.36412,0.35 0 0 1 -0.12484,0.1a0.12484,0.12 0 0 1 -0.08323,0a0.09363,0.09 0 0 1 -0.07282,0l-3.76607,-2.9a0.15605,0.15 0 0 1 -0.05202,-0.06a0.20807,0.2 0 0 1 0,-0.1s0,-0.08 0.07282,-0.14l0.14565,-0.19l0.16646,-0.19a0.94672,0.91 0 0 1 0.13525,-0.1l0.08323,0l0.07282,0l1.4773,1.14l1.1964,-1.45l-1.44609,-1.14s0,0 0,-0.06a0.18726,0.18 0 0 1 0,-0.1a0.91551,0.88 0 0 1 0.07282,-0.13a1.1964,1.15 0 0 1 0.15605,-0.2l0.16646,-0.19l0.11444,-0.1l0.10404,0l0.07282,0l3.79728,2.91zm-4.99368,4.13a1.1964,1.15 0 0 0 -0.33291,-0.12a0.593,0.57 0 0 0 -0.3017,0a0.66582,0.64 0 0 0 -0.2913,0.17a1.69577,1.63 0 0 0 -0.31211,0.42l-0.33291,0.54l1.43568,0.77l0.3017,-0.53a1.65416,1.59 0 0 0 0.20807,-0.5a0.71784,0.69 0 0 0 0,-0.33a0.6034,0.58 0 0 0 -0.15605,-0.25a0.70744,0.68 0 0 0 -0.21847,-0.17m0.44735,-0.95a2.44482,2.35 0 0 1 0.53058,0.41a1.44609,1.39 0 0 1 0.3017,0.55a1.75819,1.69 0 0 1 0,0.71a3.57881,3.44 0 0 1 -0.40574,1l-0.62421,1.08l-0.08323,0.1a0.13525,0.13 0 0 1 -0.09363,0a0.26009,0.25 0 0 1 -0.12484,0a0.38493,0.37 0 0 1 -0.14565,0l-4.08858,-2.2a0.08323,0.08 0 0 1 0,0l0,-0.09a0.66582,0.64 0 0 1 0.06242,-0.16a1.51891,1.46 0 0 1 0.11444,-0.21a1.7894,1.72 0 0 1 0.12484,-0.21l0.10404,-0.12a0.12484,0.12 0 0 1 0.08323,0a0.11444,0.11 0 0 1 0.08323,0l1.51891,0.82l0.35372,-0.61a3.59961,3.46 0 0 1 0.54098,-0.73a1.53972,1.48 0 0 1 0.55139,-0.35a1.33165,1.28 0 0 1 0.6034,-0.08a1.59174,1.53 0 0 1 0.64502,0.19m-1.186,5.16s0,0 0.06242,0s0,0.05 0,0.09a1.42528,1.37 0 0 1 0,0.16a2.24716,2.16 0 0 1 -0.08323,0.23a1.92465,1.85 0 0 1 -0.09363,0.23a0.79067,0.76 0 0 1 -0.07282,0.13a0.21847,0.21 0 0 1 -0.08323,0.06a0.08323,0.08 0 0 1 -0.07282,0l-3.92212,-1.31l-0.36412,1c0.55139,0.27 1.04035,0.51 1.41488,0.72s0.73865,0.42 1.04035,0.6a5.66991,5.45 0 0 1 0.65542,0.52a1.55012,1.49 0 0 1 0.33291,0.48a1.04035,1 0 0 1 0.08323,0.5a2.0807,2 0 0 1 -0.12484,0.54a0.5826,0.56 0 0 1 -0.05202,0.08a0.10404,0.1 0 0 1 -0.08323,0.05a0.24968,0.24 0 0 1 -0.12484,0l-0.19767,-0.06l-0.23928,-0.1a0.38493,0.37 0 0 1 -0.14565,-0.08a0.12484,0.12 0 0 1 -0.09363,-0.05a0.17686,0.17 0 0 1 0,-0.07a0.63461,0.61 0 0 0 0,-0.23a0.54098,0.52 0 0 0 -0.11444,-0.26a1.88303,1.81 0 0 0 -0.32251,-0.32a5.06651,4.87 0 0 0 -0.593,-0.4q-0.37453,-0.22 -0.93632,-0.51c-0.37453,-0.2 -0.82188,-0.41 -1.33165,-0.66a0.52018,0.5 0 0 1 -0.23928,-0.17a0.2913,0.28 0 0 1 0,-0.22l0.85309,-2.29a0.2913,0.28 0 0 1 0.15605,-0.17a0.3017,0.29 0 0 1 0.24968,0l4.4423,1.51zm-6.02363,6.22l0,0l2.01828,1.06l0.24968,-1.38l-2.26796,0.32zm4.1614,-1.61a1.15479,1.11 0 0 1 0.23928,0s0.09363,0 0.11444,0.05s0,0.08 0,0.15s0,0.17 0,0.29s-0.05202,0.23 -0.06242,0.3s0,0.13 0,0.17l-0.06242,0.06a0.14565,0.14 0 0 1 -0.09363,0l-1.04035,0.15l-0.33291,1.84l0.93632,0.47l0.08323,0a0.19767,0.19 0 0 1 0,0.09a0.44735,0.43 0 0 1 0,0.16a1.57093,1.51 0 0 1 0,0.26a1.98707,1.91 0 0 1 -0.06242,0.27a0.18726,0.18 0 0 1 -0.07282,0.13a0.19767,0.19 0 0 1 -0.13525,0l-0.20807,-0.1l-4.36947,-2.18l-0.10404,-0.07a0.23928,0.23 0 0 1 0,-0.11a0.62421,0.6 0 0 1 0,-0.18c0,-0.08 0,-0.18 0,-0.31s0,-0.27 0.07282,-0.36a1.73739,1.67 0 0 1 0.06242,-0.2a0.37453,0.36 0 0 1 0.08323,-0.09a0.26009,0.25 0 0 1 0.13525,0l4.81682,-0.79zm-3.99495,5.76a0.82188,0.79 0 0 0 -0.44735,0.08a0.69703,0.67 0 0 0 -0.26009,0.21a0.67623,0.65 0 0 0 -0.11444,0.29a1.44609,1.39 0 0 0 0,0.3l0,0.43l1.73739,0l0,-0.45a1.26923,1.22 0 0 0 -0.10404,-0.37a0.64502,0.62 0 0 0 -0.17686,-0.26a0.75946,0.73 0 0 0 -0.2913,-0.17a1.04035,1 0 0 0 -0.36412,-0.06m0,-1.06a2.14312,2.06 0 0 1 0.75946,0.15a1.58133,1.52 0 0 1 0.55139,0.4a1.64375,1.58 0 0 1 0.33291,0.62a2.88177,2.77 0 0 1 0.09363,0.85l0,0.46l1.64375,0a0.09363,0.09 0 0 1 0.06242,0a0.15605,0.15 0 0 1 0,0.09a1.04035,1 0 0 1 0,0.15a1.96626,1.89 0 0 1 0,0.24a1.75819,1.69 0 0 1 0,0.25a0.593,0.57 0 0 1 0,0.15a0.22888,0.22 0 0 1 0,0.08l-0.07282,0l-4.62956,-0.12a0.36412,0.35 0 0 1 -0.27049,-0.1a0.38493,0.37 0 0 1 -0.09363,-0.25l0,-1.17l0,-0.33a3.77647,3.63 0 0 1 0.06242,-0.38a2.0807,2 0 0 1 0.18726,-0.44a1.34205,1.29 0 0 1 0.32251,-0.38a1.186,1.14 0 0 1 0.44735,-0.24a1.95586,1.88 0 0 1 0.57219,-0.07m3.12105,4.81l0.19767,0l0.12484,0a0.15605,0.15 0 0 1 0.07282,0a0.09363,0.09 0 0 1 0,0.07l0.3017,2.46a0.34332,0.33 0 0 1 -0.06242,0.22a0.2913,0.28 0 0 1 -0.22888,0.12l-4.4631,0.49a0.27049,0.26 0 0 1 -0.26009,-0.06a0.33291,0.32 0 0 1 -0.10404,-0.19l-0.23928,-2.4a0.13525,0.13 0 0 1 0,-0.06a0.15605,0.15 0 0 1 0.06242,-0.05a0.34332,0.33 0 0 1 0.12484,0l0.19767,0l0.18726,0l0.12484,0a0.11444,0.11 0 0 1 0.07282,0a0.09363,0.09 0 0 1 0,0.06l0.21847,1.75l1.23802,-0.14l-0.13525,-1.5a0.11444,0.11 0 0 1 0,-0.07l0.06242,-0.05a0.23928,0.23 0 0 1 0.11444,0l0.18726,0l0.31211,0l0.07282,0l0,0.06l0.17686,1.48l1.46689,-0.18l-0.20807,-1.77a0.17686,0.17 0 0 1 0,-0.07a0.15605,0.15 0 0 1 0.06242,-0.05a0.34332,0.33 0 0 1 0.12484,0l0.18726,0m-2.75693,6.59l0.33291,1.11l1.04035,-0.15l0.81147,-0.08l0.61381,0l0.45775,0l0.37453,0.02l0.27049,0.09l-0.5826,-1.93l-3.31872,0.94zm4.84803,-3l0.06242,0a0.13525,0.13 0 0 1 0.07282,0a0.45775,0.44 0 0 1 0.06242,0.12l0.07282,0.2c0,0.09 0,0.15 0.05202,0.21a0.79067,0.76 0 0 1 0,0.14a0.19767,0.19 0 0 1 0,0.08l-0.06242,0l-1.16519,0.32l0.93632,3.16l1.15479,-0.23l0.07282,0a0.19767,0.19 0 0 1 0.07282,0.06l0.06242,0.12l0.07282,0.2c0,0.09 0,0.16 0.05202,0.22a0.68663,0.66 0 0 1 0,0.13a0.15605,0.15 0 0 1 0,0.08l-0.06242,0l-1.779,0.49a0.15605,0.15 0 0 1 -0.16646,0a0.19767,0.19 0 0 1 -0.09363,-0.12l-0.07282,-0.18a1.64375,1.58 0 0 0 -0.32251,-0.09a1.25882,1.21 0 0 0 -0.37453,-0.07l-0.48896,0l-0.68663,0c-0.26009,0 -0.57219,0.06 -0.93632,0.11s-0.78026,0.11 -1.25882,0.19a0.52018,0.5 0 0 1 -0.27049,0a0.21847,0.21 0 0 1 -0.13525,-0.17l-0.72825,-2.43a0.24968,0.24 0 0 1 0,-0.22a0.35372,0.34 0 0 1 0.20807,-0.14l3.81809,-1l-0.12484,-0.4a0.17686,0.17 0 0 1 0,-0.16s0.07282,-0.06 0.13525,-0.08l1.82061,-0.54zm0.26009,6l0.17686,-0.07l0.12484,0l0.08323,0l0.05202,0l1.10277,2.25a0.35372,0.34 0 0 1 0,0.22a0.28089,0.27 0 0 1 -0.18726,0.18l-4.05737,1.84a0.32251,0.31 0 0 1 -0.27049,0a0.36412,0.35 0 0 1 -0.16646,-0.16l-1.04035,-2.24a0.13525,0.13 0 0 1 0,-0.06a0.26009,0.25 0 0 1 0,-0.07l0.10404,-0.08l0.17686,-0.09l0.17686,-0.07l0.12484,0l0.04161,0a0.10404,0.1 0 0 1 0,0l0.79067,1.59l1.13398,-0.51l-0.66582,-1.35a0.15605,0.15 0 0 1 0,-0.07l0,-0.07l0.10404,-0.08l0.16646,-0.08l0.17686,-0.07l0.11444,0l0.08323,0a0.12484,0.12 0 0 1 0,0.05l0.65542,1.36l1.31084,-0.6l-0.79067,-1.61a0.09363,0.09 0 0 1 0,-0.07s0,0 0,-0.07l0.10404,-0.08l0.37453,0.01m0.82188,8.19a1.63335,1.57 0 0 0 0.40574,0.32a0.8947,0.86 0 0 0 0.40574,0.13a0.97793,0.94 0 0 0 0.38493,0a1.34205,1.29 0 0 0 0.36412,-0.18a1.7894,1.72 0 0 0 0.35372,-0.31a0.83228,0.8 0 0 0 0.18726,-0.34a0.93632,0.9 0 0 0 0,-0.4a1.56053,1.5 0 0 0 -0.18726,-0.48l-1.91425,1.26zm-0.21847,-2.34a1.65416,1.59 0 0 0 -0.34332,0.29a0.83228,0.8 0 0 0 -0.18726,0.34a0.92591,0.89 0 0 0 0,0.4a1.56053,1.5 0 0 0 0.18726,0.48l1.93505,-1.29a1.4877,1.43 0 0 0 -0.40574,-0.33a1.04035,1 0 0 0 -0.80107,-0.08a1.44609,1.39 0 0 0 -0.37453,0.19m-0.65542,-0.85a1.98707,1.91 0 0 1 0.72825,-0.32a1.71658,1.65 0 0 1 0.72825,0a1.98707,1.91 0 0 1 0.71784,0.3a3.32912,3.2 0 0 1 0.69703,0.62l0.47856,-0.33a0.11444,0.11 0 0 1 0.08323,0a0.12484,0.12 0 0 1 0.08323,0l0.11444,0.1l0.14565,0.2c0.05202,0.08 0.10404,0.14 0.13525,0.2a0.71784,0.69 0 0 1 0.06242,0.13a0.20807,0.2 0 0 1 0,0.1a0.13525,0.13 0 0 1 -0.05202,0.06l-0.48896,0.33a3.45396,3.32 0 0 1 0.40574,0.81a1.7686,1.7 0 0 1 0.07282,0.73a1.55012,1.49 0 0 1 -0.26009,0.65a2.51765,2.42 0 0 1 -0.6034,0.57a1.94546,1.87 0 0 1 -0.70744,0.3a1.66456,1.6 0 0 1 -0.71784,0a1.96626,1.89 0 0 1 -0.71784,-0.29a3.12105,3 0 0 1 -0.69703,-0.62l-0.46816,0.31l-0.07282,0a0.26009,0.25 0 0 1 -0.08323,0a0.593,0.57 0 0 1 -0.10404,-0.11a1.04035,1 0 0 1 -0.15605,-0.19l-0.13525,-0.2a0.55139,0.53 0 0 1 -0.06242,-0.14a0.10404,0.1 0 0 1 0,-0.09a0.05202,0.05 0 0 1 0,0l0.47856,-0.33a3.63082,3.49 0 0 1 -0.36412,-0.79a1.7686,1.7 0 0 1 -0.07282,-0.73a1.41488,1.36 0 0 1 0.24968,-0.65a2.53846,2.44 0 0 1 0.5826,-0.62" class="cls-2"/>
    <path id="svg_5" d="m55.83295,61.94l-0.15605,-0.18a2.88177,2.77 0 0 0 -2.3616,-0.76a7.68819,7.39 0 0 0 -1.83102,0.24c-0.593,0.14 -1.33165,0.37 -2.21595,0.66a2.14312,2.06 0 0 0 -0.36412,-0.52a4.32786,4.16 0 0 0 -3.36033,-1a25.34294,24.36 0 0 0 -8.32281,1.81a16.58319,15.94 0 0 1 -5.75314,1.2a9.83131,9.45 0 0 1 -5.46184,-1.74l-0.71784,-0.41l-0.90511,-0.52l-0.16646,1l-1.87263,10.56l0.67623,0.28l0.32251,-1.83l1.52932,-8.9l0,0l0,0l0.71784,0.41a11.44386,11 0 0 0 4.00535,1.6a10.50754,10.1 0 0 0 1.89344,0.16a17.197,16.53 0 0 0 5.99242,-1.25a24.74994,23.79 0 0 1 8.07312,-1.75a6.73107,6.47 0 0 1 1.36286,0.11a2.53846,2.44 0 0 1 1.4773,0.69a1.51891,1.46 0 0 1 0.39533,0.93c1.09237,-0.35 2.0807,-0.69 2.87137,-0.86a7.28246,7 0 0 1 1.65416,-0.22l0.48896,0l0.31211,0.05l0,0a2.20554,2.12 0 0 1 0.66582,0.23c0.21847,0.11 0.65542,-0.28 0.65542,-0.28l-1.90384,12l0.63461,-0.26c0.05202,-0.29 0.09363,-0.59 0.14565,-0.91c0.20807,-1.23 0.37453,-2.12 0.37453,-2.13l0,-0.23l0,-0.28l0,0c0.14565,-0.85 0.28089,-1.69 0.41614,-2.48c0.38493,-2.36 0.71784,-4.28 0.75946,-4.56a0.08323,0.08 0 0 0 0,0l0,-0.23l0,-0.31l-0.03121,-0.32z" class="cls-1"/>
    <path id="svg_6" d="m39.53065,65.66a28.74489,27.63 0 0 1 -0.81147,-55.24l0.84268,0a28.73449,27.62 0 0 1 0.81147,55.23l-0.84268,0m0,0.68l0.86349,0a29.45233,28.31 0 0 0 -0.83228,-56.61l-0.86349,0a29.45233,28.31 0 0 0 0.83228,56.62" class="cls-2"/>
    <path id="svg_7" d="m45.55428,61a3.72446,3.58 0 0 1 2.81935,0.79a1.51891,1.46 0 0 1 0.39533,0.95c1.10277,-0.36 2.0807,-0.7 2.89218,-0.87a7.28246,7 0 0 1 1.65416,-0.22c1.26923,0 1.57093,0.25 1.66456,0.34l0.45775,-0.32l-2.55926,15.64l-0.68663,-0.37a2.52805,2.43 0 0 0 -1.21721,-0.27a15.10589,14.52 0 0 0 -4.82723,1.33a17.12417,16.46 0 0 1 -3.49558,1.16a7.02237,6.75 0 0 1 -0.97793,0.08c-1.50851,0 -1.74779,-0.78 -1.779,-1.17l0.09363,-0.81l-1.20681,0.44c-0.80107,0.3 -1.56053,0.58 -2.22635,0.8a12.83793,12.34 0 0 1 -4.1614,0.61a17.77959,17.09 0 0 1 -9.7793,-2.64l-0.27049,-0.19l2.48644,-14.45l0.71784,0.41a10.53875,10.13 0 0 0 5.96121,1.76a17.197,16.53 0 0 0 5.99242,-1.25a24.80196,23.84 0 0 1 8.05231,-1.75" class="cls-2"/>
    <path id="svg_8" d="m41.27844,72.09l-0.82188,5.68c-0.21847,1 1.04035,1 2.0807,0.87c2.69451,-0.39 7.4073,-3.49 9.88333,-2.16c0.36412,-2.83 1.04035,-6.45 1.04035,-6.45s-0.61381,-0.82 -2.93379,-0.28s-7.50093,2.68 -9.23831,2.34" class="cls-3"/>
    <path id="svg_9" d="m53.19046,71.66c0.26009,-1.58 0.53058,-3.27 0.78026,-4.77a3.94293,3.79 0 0 0 -3.05863,-0.19c-2.25756,0.53 -7.19923,2.55 -9.06145,2.36l-0.68663,4.23c0.20807,0.69 1.04035,0.86 2.14312,0.77c2.69451,-0.21 7.39689,-3.64 9.88333,-2.4" class="cls-1"/>
    <path id="svg_10" d="m40.39414,78.14c0.16646,-1.08 1.71658,-1.12 2.73612,-1.07s2.91298,0 3.06903,-0.77c0.18726,-1.06 0.27049,-2.36 0.27049,-2.36l-5.38902,0.06l-0.68663,4.14z" class="cls-4"/>
    <path id="svg_11" d="m22.96827,76.05l1.24842,-7.18c2.17433,1.24 5.58668,3 12.55703,0.43c5.58668,-2.06 10.77803,-2.43 10.52835,-0.3c0,0 -1.14439,7.35 -1.14439,7.35c0.41614,-2.52 -6.2421,0.49 -9.76889,1.67c-3.79728,1.27 -10.0706,0.35 -13.42052,-2" class="cls-3"/>
    <path id="svg_12" d="m37.02341,67.81c-6.74147,2.48 -10.27867,0.27 -12.48421,-1l-0.81147,4.65a14.38805,13.83 0 0 0 13.31649,1.22c3.12105,-1.16 9.22791,-3.18 9.90414,-1.37c0.23928,-1.52 0.47856,-3.13 0.68663,-4.53c-0.86349,-1.37 -5.68032,-0.8 -10.63238,1" class="cls-1"/>
    <path id="svg_13" d="m52.7327,42.56c0,-0.06 -0.12484,-0.29 -0.27049,-0.6a3.12105,3 0 0 0 0.37453,0.18l0.22888,0.39a1.61254,1.55 0 0 0 -0.32251,0.07s0,0 0,0m-2.6633,0c0,-0.53 -0.13525,-0.87 -0.3017,-2a20.26603,19.48 0 0 1 0.71784,2.19a2.80895,2.7 0 0 0 -0.41614,-0.14m-1.186,6.45s0,0 0,0l0,0s0,0 0,0.08s0,0 0,0m0,0.71a0.62421,0.6 0 0 0 0,-0.12l0,0a0.31211,0.3 0 0 0 0,0.1s0,0 0,0m3.72446,3.57l-0.6034,1.27l-0.69703,-0.32l0.46816,-1a3.43316,3.3 0 0 0 0.8843,0m0.64502,-0.18l-0.16646,0.34l-0.38493,-0.17a2.45523,2.36 0 0 0 0.55139,-0.17m-21.0671,3.3a0.65542,0.63 0 0 1 0.20807,-0.32a0.67623,0.65 0 0 0 0,0.22l-0.20807,0.1zm-1.26923,-6.7s0,0 0,0zm-0.76986,0a0.31211,0.3 0 0 0 0,-0.1l0,0a0.46816,0.45 0 0 1 0,0.12s0,0 0,0m-3.97414,-2.24l0,0m1.13398,-2.69l-0.79067,-0.35l0,0a1.33165,1.28 0 0 0 -0.68663,-0.86a0.73865,0.71 0 0 0 -0.08323,-0.77c0.41614,-0.51 1.12358,-2 1.91425,-3.2c-0.17686,1.29 -2.46563,3 -0.65542,4.25c1.186,-0.17 1.82061,-1.53 2.28877,-3.4c0.22888,0.44 -1.1964,2.37 0.73865,3c0.85309,-0.15 1.4773,-1.74 1.25882,-2.93a2.35119,2.26 0 0 1 0.27049,0.2c0.26009,-0.27 0.78026,-0.27 0.96753,-0.62l0.17686,0.11c0.5826,0.93 0.62421,2.69 -0.17686,3.33a1.66456,1.6 0 0 0 0.69703,-0.11s0,0 -0.10404,0.16l-0.07282,0.11a0,0 0 0 0 0,0c-0.44735,0.41 -0.57219,0.52 -1.87263,0.34a1.04035,1 0 0 0 0.13525,0.39c-0.64502,0.26 -1.69577,0.22 -1.98707,1.92a0.15605,0.15 0 0 0 -0.06242,-0.05l-0.05202,0s0,0 0,0s-0.08323,0 -0.09363,-0.07s0,-0.08 -0.07282,-0.1l-0.26009,0l0,0l0,0l0,0l-0.19767,0.13c-0.16646,0.07 -0.14565,-0.09 -0.43695,0.31c0,0 0,0 0,0s0,0 0,0.16l0,0l-0.07282,0l-0.27049,-0.13a1.04035,1 0 0 1 -0.23928,-0.1l-0.32251,-0.09l0.15605,0.07l0.36412,0.16l0.21847,0.09l0.04161,0.15l0,0l-0.87389,-0.39l-0.05202,0a0.86349,0.83 0 0 0 -0.20807,-0.09l-0.32251,-0.09l0.73865,-1.53zm27.54849,-3.59a0.26009,0.25 0 0 0 0,0.17l-0.09363,-0.13a0.81147,0.78 0 0 1 0.11444,-0.28l0.06242,0.07a0.39533,0.38 0 0 0 -0.08323,0.17m-2.75693,0l0.27049,0.1l0.16646,0.3l-0.23928,0l-0.19767,-0.42m-5.6491,2.91a1.40447,1.35 0 0 1 -0.67623,-0.64a1.66456,1.6 0 0 0 0.69703,0.11c-0.80107,-0.64 -0.75946,-2.4 -0.17686,-3.33l0.17686,-0.11c0.18726,0.35 0.70744,0.35 0.96753,0.62a2.35119,2.26 0 0 1 0.27049,-0.2a20.15159,19.37 0 0 0 0.14565,2.12a3.21468,3.09 0 0 0 -1.40447,1.43m1.44609,6.5l0,0zm1.40447,4.1l-1.37326,-0.61l0.90511,-1.95a6.60623,6.35 0 0 0 1.29003,0.79l-0.82188,1.77zm-19.11124,-5.29l0,0.11s0,0 0,0a0.31211,0.3 0 0 0 0,-0.08m23.92807,-9.09l0.32251,0.09l0.08323,0.1l-0.33291,-0.09a0.37453,0.36 0 0 0 -0.07282,-0.1m-2.45523,0l0.18726,0.1l0.20807,0.36l-0.17686,0q-0.10404,-0.24 -0.21847,-0.45m-3.79728,9.54l0,0.28l0,-0.28m0,-0.39l0,0a0.73865,0.71 0 0 0 0,0.14a0.61381,0.59 0 0 0 0,-0.14m-3.81809,6.07l0.62421,0.32s-0.18726,0.24 -0.83228,0.24a2.84016,2.73 0 0 0 -0.06242,-0.5l0.22888,0m-6.2421,-1.26l0.5826,-0.28a13.37891,12.86 0 0 0 -0.26009,1.47a3.48517,3.35 0 0 1 -0.57219,0a6.63744,6.38 0 0 1 0.24968,-1.2m-3.38114,1.53l0.33291,-0.16a3.63082,3.49 0 0 0 0,0.35a0.46816,0.45 0 0 1 -0.31211,-0.19m3.89091,-2.93l0.3017,0.13a0.83228,0.8 0 0 0 0,0.15l-0.47856,0.23c0.06242,-0.17 0.13525,-0.34 0.20807,-0.51m6.13807,-5.66a3.82849,3.68 0 0 0 -2.69451,0.7a1.75819,1.69 0 0 1 2.69451,-0.7m-1.66456,3.87a6.2421,6 0 0 1 -1.04035,-0.57s0,0 0,0l0.05202,0l0.23928,0l0,0a1.46689,1.41 0 0 1 0.98833,0.46l-0.23928,0.11zm-4.78561,0l-0.09363,0c0.10404,-0.11 0.20807,-0.22 0.3017,-0.34c-0.07282,0.11 -0.13525,0.22 -0.20807,0.32m0.96753,0l0,0c0,-0.11 0.07282,-0.22 0.09363,-0.33c0,0.11 0,0.22 0,0.33m2.90258,1.12l0.36412,-0.17a6.09646,5.86 0 0 1 1.15479,1a8.32281,8 0 0 1 -1.39407,-0.66l-0.12484,-0.15m-0.26009,-0.63s0,0 0,0l0,0l0,0.03m-1.73739,-0.8a5.72193,5.5 0 0 0 0.16646,0.58l-0.08323,0c0,-0.18 -0.06242,-0.36 -0.08323,-0.55m3.22509,-2.1c0.21847,0.7 0.63461,1.34 2.16393,0.68a0.62421,0.6 0 0 0 0.13525,0.38l-2.33039,1.11c0,-0.7 -0.56179,-1 -1.04035,-1.32c0.16646,-0.22 0,-0.32 1.04035,-0.9m0,0a2.29918,2.21 0 0 1 1.186,0a1.15479,1.11 0 0 1 -1.186,0m2.71532,0.67l0.14565,0.11l0.06242,0l0,0l-0.35372,0.17a2.26796,2.18 0 0 1 0.14565,-0.25m-0.17686,3.36a15.36598,14.77 0 0 0 -2.0807,-1.31l2.9546,-1.42a3.61002,3.47 0 0 1 -0.87389,2.73m-8.93661,-2.09l-0.05202,0l0,0l-0.10404,-0.05l0,0l0.24968,-0.07l0,0c0.10404,0 0.09363,0 0.49937,-0.06a3.61002,3.47 0 0 1 -0.38493,0.26l0,0l-0.10404,0m-1.14439,-0.51l-0.14565,-0.07s0,0 -0.09363,0l0,0s0,0 -0.10404,0l-0.13525,-0.07l-0.09363,0l-0.38493,-0.28l-0.05202,0l0,0l-0.10404,0c0.54098,-0.1 0.79067,0 1.22761,-1c-1.37326,0.69 -2.40321,-1.81 0.33291,-1.75l0,0c1.29003,0.64 1.82061,2.32 -0.16646,3.41l-0.10404,0l-0.09363,0l-0.09363,0l-0.10404,0m-1.35246,4.82a0.36412,0.35 0 0 1 0,-0.11l0.07282,0.06l-0.07282,0.05zm-5.55547,-8.32a0.92591,0.89 0 0 0 0,0.11a0,0 0 0 0 0,0s0,0 -0.06242,0l0,-0.06l0.05202,0m9.36316,10.3a1.21721,1.17 0 0 1 -0.46816,-0.67l0.43695,0a3.64123,3.5 0 0 0 0,0.66m2.77774,-2.41a6.05484,5.82 0 0 0 0.35372,-0.65l0.05202,0c-0.08323,0.7 0.8947,1.35 -0.28089,3a10.28907,9.89 0 0 0 -0.12484,-2.41m9.43598,-7.85l0,0l0,0l0,0.06s0,0.22 0,0.35l-0.71784,0.36a0.81147,0.78 0 0 1 0,-0.22l0.05202,0a0.2913,0.28 0 0 0 0.11444,0l0,0c0.11444,0 0.06242,0.05 0.43695,-0.28a0.2913,0.28 0 0 0 0.09363,-0.18m2.55926,-8.47c0.11444,0.09 0.45775,0.48 0.87389,1l-0.22888,-0.08a9.2071,8.85 0 0 1 -0.64502,-0.87m-1.4877,1a1.21721,1.17 0 0 1 0.12484,0.2l0,0a1.20681,1.16 0 0 1 -0.08323,-0.2m-26.91387,1.22a1.40447,1.35 0 0 0 -0.2913,0c0.71784,-0.83 1.83102,-2.13 2.0807,-2.3c-0.09363,0.19 -1.04035,1.39 -1.75819,2.34m-1.67496,6.24l-0.35372,0a0.73865,0.71 0 0 1 -0.64502,0.65l0,0l-0.11444,-0.06l0,0l-0.09363,-0.08l0,0l-0.08323,-0.1l0,0a0.80107,0.77 0 0 1 -0.08323,-0.42a0.65542,0.63 0 0 1 0.17686,-0.39a2.3824,2.29 0 0 1 -0.21847,-0.23l0,0a2.35119,2.26 0 0 1 -0.16646,-0.26l0,0a2.14312,2.06 0 0 1 -0.14565,-1.46l0,0a2.26796,2.18 0 0 1 2.0807,-1.36c0.08323,-0.16 0,-0.22 0.79067,-0.49c0,0.14 0.40574,0.18 0.08323,0.93a2.0807,2 0 0 1 -1.25882,3.26m15.88616,-26.34a14.65854,14.09 0 0 0 1.72698,0a7.91707,7.61 0 0 0 3.558,1.7a7.15761,6.88 0 0 1 -2.46563,-0.26c0,0.5 1.15479,1.08 1.89344,1.23a3.12105,3 0 0 1 -1.63335,-0.22a1.99747,1.92 0 0 0 1.04035,0.8a3.12105,3 0 0 1 -2.60088,0.88a1.27963,1.23 0 0 0 1.13398,0.44a10.081,9.69 0 0 0 -1.82061,4.62a10.20584,9.81 0 0 0 -1.79981,-4.6a1.29003,1.24 0 0 0 1.14439,-0.44a3.05863,2.94 0 0 1 -2.59047,-0.88a2.0807,2 0 0 0 1.04035,-0.8a3.12105,3 0 0 1 -1.63335,0.22c0.73865,-0.15 1.86223,-0.73 1.89344,-1.23a7.18882,6.91 0 0 1 -2.47603,0.26a7.81303,7.51 0 0 0 3.58921,-1.72m-12.31775,26.6zm0.35372,-1.09l-0.10404,0l0.10404,0m22.15947,2.83s0,0 0,0a0.61381,0.59 0 0 1 0,-0.17a0.15605,0.15 0 0 0 0,0.13m0,0.09a0.17686,0.17 0 0 0 0,0.16s0,0 0,0a0.76986,0.74 0 0 1 0,-0.21l0,0.05zm12.85874,-17.15a4.26544,4.1 0 0 0 -2.3824,-0.36a3.38114,3.25 0 0 0 2.47603,-2.41a4.58795,4.41 0 0 0 -2.22635,0a3.38114,3.25 0 0 0 1.75819,-2.71a5.47224,5.26 0 0 0 -2.46563,0.5c1.68537,-0.89 2.28877,-3 1.39407,-4.2c-0.50977,0.29 -2.89218,2.62 -3.2771,2.88c1.50851,-1.94 3.59961,-4.13 1.22761,-6.51a40.24077,38.68 0 0 1 -3.90132,6.12a0.85309,0.82 0 0 0 -0.37453,-0.28a6.17968,5.94 0 0 1 -1.88303,2.54a2.0807,2 0 0 0 -0.24968,-0.46c-6.07565,3.57 -0.87389,9.65 -6.01323,7.32a1.36286,1.31 0 0 0 0.75946,-2.2c-0.46816,0.27 -0.78026,1.15 -2.46563,-0.07a1.09237,1.05 0 0 0 1.57093,-1.11c-2.39281,1.17 -2.69451,-2.84 -0.48896,-4.5c0.23928,0.46 2.84016,-0.92 3.05863,1.22c0.96753,-0.53 0.61381,-1.38 -0.62421,-1.71c1.04035,0.17 3.78688,2.44 3.98454,-0.46c-0.45775,1.05 -2.24716,0.22 -4.09898,0a2.15353,2.07 0 0 1 2.6633,0.29a1.64375,1.58 0 0 0 -1.30044,-2.75a0.35372,0.34 0 0 0 -0.47856,-0.36a0.31211,0.3 0 0 0 -0.11444,-0.25c1.94546,0.17 3.65163,-1.63 2.69451,-4.16a4.97288,4.78 0 0 0 1.64375,0.61c0.70744,1.19 -1.30044,2.63 0.22888,4.36a0.96753,0.93 0 0 1 -0.34332,0.83c0.65542,-0.15 1.68537,-0.54 0.68663,-2.31c0.16646,1.07 1.68537,-0.61 1.779,1c2.0807,-1.61 -1.43568,-1.07 -0.61381,-2.19c0.66582,-0.9 1.1964,-1.78 -1.186,-2.27c-0.53058,-1.8 -4.86884,-2 -3.47477,1.32c0.39533,0.79 0.83228,2.15 -1.59174,2.59l0,-0.23c0.36412,-0.63 1.26923,-2.41 -0.66582,-2.74c-0.11444,-0.06 0,0 -0.42654,0l0,0.16l-0.12484,0l0,-0.22l0,0c0,-0.08 0.27049,-0.14 0,-0.63l0.14565,0a2.18474,2.1 0 0 1 -0.28089,-0.32a2.52805,2.43 0 0 1 0.33291,0.26l0,-1a3.22509,3.1 0 0 1 -0.33291,0.27a1.73739,1.67 0 0 1 0.28089,-0.32l-1.04035,0a2.24716,2.16 0 0 1 0.28089,0.32a4.1614,4 0 0 1 -0.34332,-0.27l0,1a2.00788,1.93 0 0 1 0.34332,-0.27a3.18347,3.06 0 0 1 -0.28089,0.32l0.14565,0c0,0.1 -0.27049,0.15 0,0.63l0,0l0,0.22l-0.13525,0l0,-0.16c-0.18726,-0.05 0,0 -0.41614,0c-0.8947,0.4 -1.83102,0.81 -0.67623,2.74l0,0.15a9.1967,8.84 0 0 1 -3.22509,-2l0,-0.65c0.72825,-0.92 1.97667,-3.86 -0.82188,-4.25a0.5826,0.56 0 0 0 -0.55139,-0.06l0,0.25l-0.2913,0l0,-0.31l-0.15605,0c0,-0.09 0.63461,-0.28 0.10404,-1.06l0.22888,0a1.89344,1.82 0 0 1 -0.40574,-0.53a1.90384,1.83 0 0 1 0.55139,0.38l0,-1.23a1.64375,1.58 0 0 1 -0.54098,0.38a1.79981,1.73 0 0 1 0.39533,-0.53l-1.31084,0a1.79981,1.73 0 0 1 0.39533,0.53a1.79981,1.73 0 0 1 -0.55139,-0.38l0,1.26a2.23675,2.15 0 0 1 0.55139,-0.38a1.68537,1.62 0 0 1 -0.39533,0.53l0.22888,0c0,0.14 -0.6034,0.33 0.10404,1.06l-0.16646,0l0,0.31l-0.3017,0l0,-0.25a0.5826,0.56 0 0 0 -0.55139,0.06c-1.88303,0.37 -2.3824,2 -0.82188,4.25l0,0.66a8.54128,8.21 0 0 1 -3.21468,2l0,-0.15c0.36412,-0.63 1.26923,-2.41 -0.67623,-2.74c-0.10404,-0.06 0,0 -0.41614,0l0,0.16l-0.12484,0l0,-0.22l0,0c0,-0.08 0.26009,-0.14 0,-0.63l0.14565,0a3.22509,3.1 0 0 1 -0.28089,-0.32a2.58007,2.48 0 0 1 0.34332,0.27l0,-1a2.81935,2.71 0 0 1 -0.34332,0.27a1.73739,1.67 0 0 1 0.28089,-0.32l-1.04035,0a1.71658,1.65 0 0 1 0.28089,0.32a2.81935,2.71 0 0 1 -0.34332,-0.27l0,1l0.34332,-0.26a2.17433,2.09 0 0 1 -0.28089,0.32l0.17686,0c0,0.1 -0.26009,0.15 0,0.63l0,0l0,0.22l-0.12484,0l0,-0.16c-0.19767,-0.05 0,0 -0.42654,0c-0.8947,0.4 -1.84142,0.82 -0.67623,2.74l0,0.23c-3.59961,0.58 0.87389,-8.71 -5.06651,-3.91c-2.94419,-0.23 -0.27049,3.08 -1.64375,2.88c-0.46816,-0.06 -1.27963,0.62 -0.15605,1.58c-0.2913,-0.72 0.62421,-0.33 1.779,-1c-0.15605,0.71 -1.25882,1.65 0.68663,2.31a1.04035,1 0 0 1 -0.34332,-0.83c1.13398,-1.3 0.13525,-2.39 0.22888,-4.36a5.06651,4.87 0 0 0 1.58133,-0.65c0.32251,2 -1.59174,3.65 2.69451,4.16a0.31211,0.3 0 0 0 -0.11444,0.25a0.35372,0.34 0 0 0 -0.47856,0.36c-0.74905,0.05 -2.78814,1 -1.26923,2.72a2.15353,2.07 0 0 1 2.6633,-0.29c-1.04035,-0.45 -2.62168,1.69 -4.09898,0c-0.06242,1.27 1.32125,2.16 3.98454,0.46c-1.23802,0.33 -1.59174,1.18 -0.62421,1.71c0.17686,-1.18 0.42654,-1.17 3.04823,-1.22c0.98833,0.64 3.2771,5.14 -0.47856,4.5a1.09237,1.05 0 0 0 1.57093,1.11c-0.09363,0.08 -1.45649,1.28 -2.46563,0.07a1.36286,1.31 0 0 0 0.75946,2.2c-3.75567,1.72 -2.6633,-0.51 -2.47603,-3.64c-0.48896,-0.68 -2.3616,-2.26 -3.558,-3.68a2.0807,2 0 0 0 -0.24968,0.46a6.09646,5.86 0 0 1 -1.88303,-2.54a0.91551,0.88 0 0 0 -0.37453,0.28a40.24077,38.68 0 0 1 -3.90132,-6.12c-2.0807,1.71 -0.91551,4 1.26923,6.51c-0.37453,-0.26 -2.75693,-2.59 -3.2771,-2.88c-0.8843,1.21 -0.28089,3.31 1.39407,4.2a5.39942,5.19 0 0 0 -2.45523,-0.5a3.38114,3.25 0 0 0 1.72698,2.75a4.58795,4.41 0 0 0 -2.22635,0a3.37074,3.24 0 0 0 2.49684,2.4a4.24463,4.08 0 0 0 -2.372,0.36a2.87137,2.76 0 0 0 2.61128,2a3.17307,3.05 0 0 0 -2.14312,1a2.75693,2.65 0 0 0 2.34079,1.08a2.48644,2.39 0 0 0 -1.4773,1.29c0.63461,0.49 1.43568,0.8 3.2771,0.17c-2.0807,0.84 -1.69577,1.25 -2.01828,2.12c0.81147,0.53 2.42402,0.27 4.03656,-1.21c-0.33291,0.63 -2.90258,1.25 -2.14312,3.13l0.3017,0a0.28089,0.27 0 0 0 -0.06242,0.1c-0.42654,-0.1 -1.46689,-0.16 -2.0807,1.25c-0.15605,-0.1 -0.54098,0 -1.12358,0.83a1.53972,1.48 0 0 0 0,0.16c0,0.06 0,0 0,0.16l0,0.14l0.07282,0.14l0.08323,0.11l0.11444,0.1l0,0l0,0l0,0s0,0 0,0l0,0a1.55012,1.49 0 0 0 -0.21847,0.47a0,0 0 0 1 0,0a0.36412,0.35 0 0 1 0,0.06a1.93505,1.86 0 0 0 0,0.35a0.23928,0.23 0 0 1 0,0.07a0.33291,0.32 0 0 0 0,0.13s0,0.08 0,0.2a0.42654,0.41 0 0 1 0,0.07c0,0.05 0.05202,0.12 0.12484,0.24a0.34332,0.33 0 0 1 0,0.06l0,0l0,0.06l0.09363,0.09a1.39407,1.34 0 0 0 0.27049,0.21l0.06242,0a0.84268,0.81 0 0 0 -0.07282,0.43l0,0.06a0.42654,0.41 0 0 1 0,0.07l0,0.06l0,0a0.68663,0.66 0 0 0 0.44735,0.33a1.04035,1 0 0 0 -0.10404,0.4s0,0 0,0.15l0,0a1.11318,1.07 0 0 0 0.05202,0.23s0,0 0,0.08l0,0l0,0a0.93632,0.9 0 0 0 0.46816,0.4l0.05202,0l0.09363,0l0.09363,0l0.84268,0l0.05202,0l0.40574,0l0.08323,0l0,0l0,0l0,0s0,0 0.15605,-0.12a1.04035,1 0 0 0 0.19767,-0.22l0.18726,0l0.11444,0l0.07282,0s0,0 0.13525,0a0.65542,0.63 0 0 0 0.32251,-0.1l0.05202,0l0.05202,0l0,0l0.05202,0a1.40447,1.35 0 0 0 0.08323,-0.12l0,0a0.92591,0.89 0 0 0 0.19767,0l0,0l0.08323,0l0,0l0.13525,0l0.13525,0a1.56053,1.5 0 0 0 0.35372,-0.07l0.07282,0l0.63461,0.6l0.38493,0l0.73865,-1.5c0.16646,0.1 0,0 0.46816,0.21a0.33291,0.32 0 0 0 0,0.14l2.25756,1a0.3017,0.29 0 0 0 0,0.09l0,0.06s0,0 0,0.06l0,0a0.19767,0.19 0 0 0 0,0.19s0,0 0,0a0.06242,0.06 0 0 0 0,0.06c0.11444,0.2 0,0.4 0.6034,0.39c0.10404,-0.08 0.12484,0 0.26009,-0.56l0,0c0.07282,0.18 -0.05202,0.09 -0.08323,0.68l0,0l0,0a0.36412,0.35 0 0 0 0.23928,0.15s0.06242,0 0.24968,0l0,0c0.06242,0 0.17686,0 0.15605,-0.16l0,0s-0.05202,0.16 0.16646,0.33c0,0 0.06242,0 0.28089,0l0.05202,0l0,0c0.10404,0 0.06242,0.06 0.24968,-0.11s0,0 0.06242,-0.35l4.22382,1.89c-0.37453,-0.12 -3.44356,3.05 -2.80895,0.37c-0.44735,0.06 -1.25882,0.6 -1.25882,1.76c-1.04035,0.15 -2.35119,3.17 -1.40447,3.27a2.76733,2.66 0 0 1 1.04035,-1.62c0,0.58 -0.14565,0.55 0.5826,1.58c-0.06242,0.24 -2.3616,0.75 -2.372,1.46c0.34332,0.39 1.49811,-0.6 2.43442,-0.92l0,0.15c0.32251,-0.1 0.20807,0 0.66582,-0.44l0.48896,-0.24a1.72698,1.66 0 0 0 1.58133,1.06a2.91298,2.8 0 0 1 -3.49558,0.69c0,1.14 4.03656,2 4.88965,-0.71c0.66582,0.28 0.53058,1.28 2.78814,0.48a3.58921,3.45 0 0 0 1.12358,1.33a3.37074,3.24 0 0 0 1.16519,-1.29c0.32251,0.16 2.39281,0.87 3.03782,-1l0,0c0.57219,0.34 2.18474,1.08 2.82975,-0.76l0.38493,0.17c0.16646,0.11 -0.21847,0.29 0.72825,0.64a0.71784,0.69 0 0 1 -0.08323,-0.35l3.00661,1.35l0,0c0.13525,0 0,0 0.52018,0l0.13525,0l0,0s0,0 0.06242,0l0.06242,0s0,0 0.10404,-0.07l0,0l0.09363,-0.1l0.07282,-0.11a0.14565,0.14 0 0 1 0,-0.06a0.40574,0.39 0 0 1 0,-0.06l0,0a0.11444,0.11 0 0 1 0,-0.05s0,-0.08 0,-0.19l0,0s0,0 0,-0.12a0.2913,0.28 0 0 0 -0.06242,-0.11a0.40574,0.39 0 0 0 -0.12484,-0.15l0,0l0,0s0,0 -0.11444,-0.07l0,0l0,0l-0.23928,-0.11l-0.73865,-0.35l0.32251,-0.66l1.52932,0.66l1.69577,-3.46l0,-0.16l-0.48896,-0.22l0,0c1.24842,-0.27 2.3824,-3.92 0.3017,-4.39a1.42528,1.37 0 0 1 -0.97793,-0.1c0,0.34 0.67623,0.92 0.67623,0.92c0.13525,0.2 0.16646,0.5 -0.8843,-0.19c3.28751,3.38 -2.58007,3.06 -3.81809,0.87c0.10404,-0.09 0.11444,-0.08 0.15605,-0.33l0,0c0,0.12 0.10404,0.14 0.16646,0.16l0,0c0.12484,0 0,0 0.24968,0s0,0 0.27049,-0.18l0,0c0.06242,-0.13 -0.05202,-0.11 -0.09363,-0.65l0,-0.14l0,0c0,0.31 -0.14565,0.16 0.23928,0.66c0,0 0.61381,0.09 0.5826,-0.45l0,0a0.19767,0.19 0 0 0 0,-0.19l0,0s0,0 0,0s0,0 0,-0.21a1.04035,1 0 0 0 0.32251,-0.53l0.08323,0a0.34332,0.33 0 0 0 0.14565,0s0,0 0.06242,-0.07l0.18726,-0.09l0,0a0.21847,0.21 0 0 0 0.27049,-0.13l4.27584,-2.06l0.06242,0.11l1.27963,-0.64l-0.05202,-0.08l0.52018,-0.25a3.12105,3 0 0 1 -0.39533,-0.73l-0.50977,0.25l-0.05202,-0.1l-1.30044,0.38l0.07282,0.12l-4.1614,2s0,0 0,0a0.06242,0.06 0 0 0 -0.06242,0l0,0l0,0s0,0 0,-0.06l0,0c0,-0.1 0,-0.07 -0.07282,-0.29a0.56179,0.54 0 0 0 0,-0.08c0,-0.15 0,-0.08 -0.44735,-0.26l-0.19767,-0.13l0,0s0,0 -0.06242,-0.06s0,0 -0.17686,0l-0.08323,0c-0.06242,0 -0.06242,0 -0.07282,0.1s-0.06242,0 -0.09363,0.07s0,0 0,0l0,0s0,0 0,0c-0.17686,-0.76 -0.26009,-1.37 -1.84142,-1.87c0.38493,-1 2.51765,-1.09 2.70491,1.06c0.05202,-0.31 0.17686,-2 0.72825,0.26a1.40447,1.35 0 0 1 0.49937,-0.81s0.34332,-0.44 -0.11444,-1.3a1.16519,1.12 0 0 1 0.33291,0.12c0.24968,-0.45 0.80107,-0.61 0.71784,-1.17a5.20175,5 0 0 0 1.99747,0.52l-0.09363,-0.09l0,0a0.24968,0.24 0 0 0 0,-0.08a0.95712,0.92 0 0 0 0.18726,0.17c0.15605,0 -0.65542,0.32 0.07282,0.77c0.12484,-0.07 -0.43695,0.44 0.20807,0.52c0,0 -0.12484,0.24 0,0.39l1.04035,-0.52c-0.16646,-0.08 -1.91425,-1.12 0.12484,-2.07a0.96753,0.93 0 0 0 0.23928,-0.48a2.99621,2.88 0 0 1 0.54098,-0.08c0.40574,-1 -0.75946,-2.3 -2.14312,-3.13c1.04035,0.52 2.33039,2.31 4.03656,1.21c-0.32251,-0.87 0.08323,-1.28 -2.01828,-2.12c1.84142,0.63 2.64249,0.32 3.2771,-0.17a2.48644,2.39 0 0 0 -1.42528,-1.32a2.74653,2.64 0 0 0 2.34079,-1.08a3.17307,3.05 0 0 0 -2.14312,-1a2.87137,2.76 0 0 0 2.61128,-2" class="cls-5"/>
    <path id="svg_14" d="m58.43382,42.32a1.59174,1.53 0 0 0 -0.83228,1l-0.10404,0.07l-0.05202,0.14a0.2913,0.28 0 0 0 -0.22888,0c-0.3017,0.13 -0.13525,0.46 -0.13525,0.46s0.13525,0.36 0.23928,0.57a5.09772,4.9 0 0 0 0.36412,0.57s0.23928,0.25 0.45775,0.14a0.3017,0.29 0 0 0 0.15605,-0.25l0.11444,0l0.20807,0a1.58133,1.52 0 1 0 -0.18726,-2.79" class="cls-5"/>
    <path id="svg_15" d="m55.13591,45c-0.17686,-0.27 -0.06242,-0.38 -0.06242,-0.38a0.27049,0.26 0 0 1 -0.14565,-0.05l-0.57219,0.28c-0.10404,0.06 -0.3017,0.18 -0.33291,0.31a1.69577,1.63 0 0 0 1.11318,-0.16" class="cls-5"/>
    <path id="svg_16" d="m54.89663,44.55c-0.11444,-0.09 -0.14565,-0.16 -0.12484,-0.26s0,-0.18 0.12484,-0.23l-0.10404,0s-0.31211,0 -0.36412,0a1.97667,1.9 0 0 0 -0.94672,0.41c0.32251,0.32 1.04035,0.22 1.41488,0.12" class="cls-5"/>
    <path id="svg_17" d="m54.75098,44a0.43695,0.42 0 0 1 -0.17686,-0.32a0.39533,0.38 0 0 1 0.14565,-0.33a4.62956,4.45 0 0 0 -1.88303,0.14a1.73739,1.67 0 0 0 1.35246,0.49s0.56179,0 0.56179,0" class="cls-5"/>
    <path id="svg_18" d="m58.6731,46.61c-0.37453,0 -0.6034,0.29 -0.96753,0.29a0.87389,0.84 0 0 1 -0.74905,-0.38a1.4877,1.43 0 0 1 -0.10404,-1.05l-1.04035,0.53c0,0.21 0.31211,0.26 0.31211,0.26a0.36412,0.35 0 0 0 0,0.36c0.10404,0.17 0.35372,0.1 0.35372,0.1s0,0.36 0.14565,0.5a0.43695,0.42 0 0 0 0.44735,0a0.69703,0.67 0 0 0 0.21847,0.51a0.42654,0.41 0 0 0 0.44735,0s0.08323,0.26 0.21847,0.32a0.40574,0.39 0 0 0 0.42654,-0.17a0.85309,0.82 0 0 0 0.38493,0.52a0.57219,0.55 0 0 0 0.54098,-0.07c0.2913,-0.21 0.11444,0.11 0.08323,0.19c-0.12484,0.4 -0.27049,0.78 -0.40574,1.17a1.186,1.14 0 0 0 0,0.94s0.16646,0.18 0.3017,0.15c0.11444,-0.44 0.27049,-0.87 0.39533,-1.31a5.39942,5.19 0 0 0 0.31211,-1.52a1.7686,1.7 0 0 0 -0.33291,-1a0.97793,0.94 0 0 0 -0.90511,-0.38" class="cls-5"/>
    <path id="svg_19" d="m55.96819,46.31s-0.14565,0 -0.28089,-0.27a1.68537,1.62 0 0 0 -0.79067,0.77a0.68663,0.66 0 0 0 0.45775,-0.08a5.59709,5.38 0 0 0 0.57219,-0.28a0.49937,0.48 0 0 1 0,-0.14" class="cls-5"/>
    <path id="svg_20" d="m56.32191,46.9a0.34332,0.33 0 0 1 0,-0.1a0.45775,0.44 0 0 1 -0.28089,0a0.28089,0.27 0 0 1 -0.14565,-0.25c-0.32251,0.25 -0.81147,0.72 -0.72825,1.16a1.88303,1.81 0 0 0 0.90511,-0.49a3.00661,2.89 0 0 0 0.21847,-0.28" class="cls-5"/>
    <path id="svg_21" d="m56.49877,47.3a0.53058,0.51 0 0 1 -0.16646,-0.34s-0.28089,0.42 -0.31211,0.45a1.67496,1.61 0 0 0 -0.38493,1.32a4.55674,4.38 0 0 0 1.22761,-1.37a0.38493,0.37 0 0 1 -0.36412,-0.06" class="cls-5"/>
    <path id="svg_22" d="m57.41428,47.9a0.38493,0.37 0 0 1 -0.32251,-0.16a0.54098,0.52 0 0 1 -0.15605,-0.38s-0.16646,0.26 -0.17686,0.26a3.01702,2.9 0 0 0 -0.5826,1.77a2.0807,2 0 0 0 0.53058,-0.46c0.06242,0 0.68663,-1 0.68663,-1" class="cls-5"/>
    <path id="svg_23" d="m57.60154,48.86l0.42654,-0.69a0.34332,0.33 0 0 1 -0.3017,-0.12a0.57219,0.55 0 0 1 -0.10404,-0.19a0.32251,0.31 0 0 1 -0.12484,0l-0.27049,0.42a4.79602,4.61 0 0 0 -0.5826,2a2.40321,2.31 0 0 0 0.34332,-0.37c0.17686,-0.25 0.61381,-1 0.61381,-1" class="cls-5"/>
    <path id="svg_24" d="m58.51705,48.41a1.04035,1 0 0 1 -0.26009,-0.41a0.35372,0.34 0 0 1 -0.15605,0.12c-0.07282,0.1 -0.50977,0.89 -0.50977,0.89c-0.34332,0.61 -0.84268,1.93 -0.61381,2.29a5.20175,5 0 0 0 0.91551,-1.5l0.62421,-1.39z" class="cls-5"/>
    <path id="svg_25" d="m58.6731,50.09l0.65542,-1.7a0.61381,0.59 0 0 1 -0.72825,0.08s-0.42654,1 -0.66582,1.57a4.06777,3.91 0 0 0 -0.33291,2.1a1.1756,1.13 0 0 0 0.36412,-0.4a2.92339,2.81 0 0 0 0.18726,-0.36l0.52018,-1.29z" class="cls-5"/>
    <path id="svg_26" d="m58.70431,50.31a8.9054,8.56 0 0 0 -0.64502,2a3.75567,3.61 0 0 0 0.27049,1.23l0.83228,-2.59s-0.40574,0 -0.45775,-0.6" class="cls-5"/>
    <path id="svg_27" d="m39.53065,33.19l-5.51386,0l0,11c0,1.36 0.5826,2 1.79981,2l1.82061,0a2.0807,2 0 0 1 1.89344,1.48a1.98707,1.91 0 0 1 1.86223,-1.53l1.83102,0c1.20681,0 1.79981,-0.64 1.79981,-2l0,-11l-5.49305,0.05z" class="cls-2"/>
    <path id="svg_28" d="m39.53065,33.19l-5.51386,0l0,11c0,1.36 0.5826,2 1.79981,2l1.82061,0a2.0807,2 0 0 1 1.89344,1.48a1.98707,1.91 0 0 1 1.86223,-1.53l1.83102,0c1.20681,0 1.79981,-0.64 1.79981,-2l0,-11l-5.49305,0.05z" class="cls-6"/>
    <path id="svg_29" d="m37.28349,43.72l-0.3017,0c0,-0.14 -0.11444,-0.19 -0.12484,-0.34c0,-0.53 -0.21847,-0.32 0.31211,-1.31c0.49937,-0.34 0.14565,-0.36 1.34205,-1c0.14565,0.1 0.11444,0.42 0,0.54a0.8843,0.85 0 0 1 0.06242,0.17a0.8947,0.86 0 0 0 0.28089,0.09c0.22888,0.19 0.16646,0.1 0.81147,1.1c0,0 0,-0.07 0,-0.11l0.11444,0.1l-0.09363,0c0,0.07 0,0.17 0.06242,0.17s-0.26009,0 -0.32251,0.09a0.39533,0.38 0 0 0 -0.23928,0.1c-0.09363,0 -0.13525,0 -0.20807,0.07c0.47856,-0.19 -1.40447,-2.33 -1.72698,0.21c0,0 0,0 -0.10404,0s0.13525,0.06 0.13525,0.14m2.6633,-1.13l-0.47856,-1.65a0.97793,0.94 0 0 0 0.11444,-0.4c0.11444,0 0.23928,0 0.36412,0a0.79067,0.76 0 0 1 0.13525,0.4c0.09363,0 -0.11444,0.15 0,0.42c0.18726,0 0.05202,0 0.38493,-0.08c0,0 0,0 0,0c0.28089,0 0.15605,0 0.52018,0.44a2.98581,2.87 0 0 0 0.43695,0.82c-0.18726,0 0,0 -0.14565,0.25c0,0 0,-0.16 0.16646,-0.11s0,0 0,0s0,0.09 0,0.13s0,0 -0.12484,0.21c0,0 0,-0.05 0,-0.08s0,0 0.14565,0a0.48896,0.47 0 0 1 0,0.18s-0.09363,0.05 -0.11444,0.1a0.32251,0.31 0 0 0 -0.27049,0.05s0,0 0.13525,0s0,0.05 0,0.1s0,0 0,0s-0.10404,0 -0.14565,0s-0.23928,-0.2 -0.42654,-0.18s0,0 -0.21847,0t0,0c0.07282,0 0,0 0.16646,0s0.10404,-0.09 0.18726,-0.1a0.15605,0.15 0 0 1 0,0.08c0,0.1 0.3017,-0.13 -0.07282,-0.24a1.70618,1.64 0 0 0 -0.55139,0.36c0,-0.08 0.07282,-0.18 0,-0.25c0.12484,0 0.12484,-0.2 0.28089,-0.22s0,0.08 0,0.1c0.14565,0 0,0 0.09363,-0.25c-0.06242,0 0,-0.05 -0.20807,0s-0.10404,-0.07 -0.24968,0.25c-0.05202,0 0.10404,-0.11 -0.09363,-0.31l0,0s-0.08323,0 -0.13525,0.05m-2.42402,-8.33c-0.10404,0.16 -0.06242,0 0.06242,0.51c-0.07282,0.13 -0.18726,0.08 -0.14565,0.51c-0.24968,0.13 -1.62295,-0.1 -1.39407,0.76c0,0 -0.41614,0.42 0,0.65c0,0.13 -0.16646,0.19 0.10404,0.38a0.24968,0.24 0 0 0 0.43695,0c0.32251,-0.14 0.20807,0.82 0.67623,0.25a0.80107,0.77 0 0 0 0.35372,0l0.13525,0.09c0.12484,-0.09 0,-0.1 0.35372,0a0.2913,0.28 0 0 1 0.23928,-0.11l0.10404,0.37l-0.08323,0c0,0.31 0.18726,0.46 0.21847,0.75a3.28751,3.16 0 0 0 -1.35246,0.25c-0.37453,-0.68 -1.90384,-0.7 -1.81021,1a0.17686,0.17 0 0 0 -0.05202,0.15a0.76986,0.74 0 0 0 0.18726,-0.09a3.32912,3.2 0 0 0 0,0.89a0.79067,0.76 0 0 0 0.27049,-0.42a0.90511,0.87 0 0 1 0,0.52c0.07282,-0.2 0.44735,-0.1 0.61381,-0.71c0,0.2 0.07282,0.44 -0.06242,0.56a0.37453,0.36 0 0 0 0.12484,-0.08c0.64502,0.44 -0.41614,-2.23 0.63461,-1.55c-0.41614,0.59 0.72825,1.86 -0.2913,2.94a2.47603,2.38 0 0 1 -0.48896,1.26s0,0 0.05202,0l0,0s0,0 0,0s0,0 0.05202,0s0,0 -0.05202,0.31c-0.35372,0.26 0.15605,-1 -0.82188,-1c0.74905,0.16 -0.12484,2.3 2.01828,1.82l0,0.13a0.86349,0.83 0 0 1 -0.28089,0.17c0.72825,-0.16 2.31998,1.33 3.42275,0.23c0,-0.16 0.45775,0.16 0.34332,-0.44c0.07282,0 0,-0.11 0.3017,-0.13l0.07282,0s0.08323,0 0.23928,0s0,0.14 0.46816,0.22a0.8947,0.86 0 0 0 0.10404,-0.16c0.40574,-0.16 1.20681,0.18 1.25882,-0.58a1.69577,1.63 0 0 1 -0.11444,0.17s0,0 0.09363,-0.09c0,0.08 -0.08323,0.17 -0.12484,0.18s0.12484,-0.26 0,-0.39a0.36412,0.35 0 0 1 -0.21847,0.35s0.05202,-0.2 0,-0.24a0.18726,0.18 0 0 1 -0.07282,0.15s0,-0.11 0,-0.12a0.2913,0.28 0 0 1 -0.18726,0.21s0,0 0,-0.09s0,0.06 -0.09363,0.06s0,-0.09 -0.05202,-0.11s0,0.07 -0.06242,0.09s0,-0.08 -0.05202,-0.1s0,0 0,0.06a0.62421,0.6 0 0 0 -0.13525,-0.25c0.07282,0 0,-0.1 0.07282,-0.13s0,0 0.09363,0s0,-0.07 0,-0.09s0,0 0.06242,0s0,-0.06 0,-0.09s0.05202,0 0.08323,-0.06a0.20807,0.2 0 0 1 0.13525,0.14a0.52018,0.5 0 0 0 0,-0.27s0,0 0.07282,0s0.08323,0.14 0.07282,0.18s0,-0.14 0,-0.21s0.06242,0.09 0.10404,0.14c0,-0.33 -0.40574,-0.24 -0.91551,0.15c0,-0.09 -0.14565,-0.13 -0.19767,-0.23a0.68663,0.66 0 0 0 0.08323,-0.21s-0.10404,0 -0.12484,-0.09a0.18726,0.18 0 0 0 0,-0.1s-0.09363,0 -0.13525,0a14.26321,13.71 0 0 0 -0.49937,-2s0,0.13 0,0l0.24968,0.1c0.17686,0.05 0.71784,-0.62 1.44609,-0.76c0.14565,0.16 -0.16646,0.4 -0.32251,0.88c-0.06242,0 0,0.1 -0.06242,0.16c-0.2913,0 -0.26009,-0.3 -0.39533,0.42l0,0c0.2913,0 0,0 0.5826,-0.1c0.44735,-0.3 0.46816,-0.66 0.68663,-1.69c-0.42654,-0.49 -0.07282,-0.29 -1.55012,0c0.14565,-0.34 -0.06242,-0.22 -0.27049,-1.45l0,0c0.14565,0.07 0.14565,0.11 0.42654,-0.19c-0.05202,0 0.12484,0.27 0.33291,0.08c0,0 0,0 0.06242,0s0,0 0.14565,0c0.38493,-0.14 0.50977,-0.2 0.14565,-1.45c0,0 0.07282,0 0.06242,0l0.17686,0c-0.06242,-0.12 0,-0.29 -0.08323,-0.39l0.12484,-0.12a0.81147,0.78 0 0 0 -0.31211,-0.07s0,-0.05 -0.27049,-0.09c0,-0.07 0.11444,-0.14 0.16646,-0.22a1.67496,1.61 0 0 0 -0.34332,0s0,0 -0.27049,-0.06s-0.24968,-0.25 -1.04035,0a0.24968,0.24 0 0 1 0.22888,0.12c-0.31211,0 -0.20807,-0.14 -0.70744,0.16l0,0a0.27049,0.26 0 0 0 -0.17686,0.18l0.12484,0c-0.06242,0.08 -0.41614,0 -0.45775,0.17c0.14565,0 0.08323,0 0.33291,0c-0.18726,0.07 0,0 -0.41614,0.35a0.97793,0.94 0 0 0 -0.54098,-0.71s0,0 0,0s-0.06242,0 0,-0.2c0.06242,0 0.10404,0.06 0.21847,-0.06c0.54098,0.38 0.66582,-1.52 -0.56179,-0.86c0.45775,-0.49 1.61254,0.64 0.57219,0.85l0.08323,-0.07s0,-0.17 0.15605,-0.2a1.04035,1 0 0 0 0,-0.18a0.20807,0.2 0 0 0 0,-0.17c0,0.05 0,0.13 -0.06242,0.16s0,-0.16 0,-0.19a0.22888,0.22 0 0 1 0,0.16s0,-0.05 0,-0.09s0,0.05 0,0.07s-0.06242,-0.07 -0.12484,-0.07s0,0 0,0c-0.23928,0 -0.41614,0.3 -0.46816,0.5c0,0 -0.20807,0 -0.12484,-0.21c-0.08323,0.09 -0.22888,0.12 0,-0.22c-0.11444,0 -0.16646,0.16 -0.22888,0.26c0,-0.08 -0.16646,-0.16 0.13525,-0.36c-0.10404,0 0,0 -0.20807,0.12c-0.11444,-0.1 0.06242,-0.28 0.48896,-0.41c0,0 0,0 -0.23928,0.08l0,0c-0.13525,0 -0.54098,0.45 -0.12484,0.58c0,0.13 0.13525,0 -0.05202,0.25a2.84016,2.73 0 0 0 -1.11318,-0.51l0,-0.1c0.05202,-0.11 0.09363,-0.1 -0.10404,-0.31c0,0 0,0 0,0s0,0 -0.14565,0s0.26009,-0.31 0.03121,-0.69l-0.10404,0.09z" class="cls-5"/>
    <path id="svg_30" d="m53.87709,49.2c-0.13525,0 -0.16646,0.28 0.08323,0.17c0,-0.08 0.07282,-0.08 -0.08323,-0.17m0,0.29s-0.41614,-0.25 0,-0.39c0.0104,-0.1 0.41614,0.3 0,0.39zm-2.62168,-5.11c0.11444,0 0.11444,0.1 0,0s-0.13525,0.41 0,0m0,0.3c-0.19767,0.11 -0.2913,-0.71 0.20807,-0.21c0,0.11 0.0104,0.01 -0.20807,0.21zm7.87546,6.18l-0.87389,2.61a4.33826,4.17 0 0 1 0.38493,-3.21c0.05202,0.64 0.45775,0.6 0.45775,0.6m-1.04035,0.48a1.99747,1.92 0 0 1 -0.56179,0.77c-0.20807,-0.78 0.35372,-2.27 1.04035,-3.69a0.63461,0.61 0 0 0 0.73865,-0.09c-0.20807,0.6 -0.69703,1.88 -1.16519,3.01l-0.05202,0zm-0.23928,-1.54a5.26417,5.06 0 0 1 -0.92591,1.5a6.05484,5.82 0 0 1 1.13398,-3.21a0.26009,0.25 0 0 0 0.22888,-0.09a1.26923,1.22 0 0 0 0.24968,0.37l-0.68663,1.43zm-0.93632,0.05a2.61128,2.51 0 0 1 -0.35372,0.36a4.83763,4.65 0 0 1 0.86349,-2.38a0.32251,0.31 0 0 0 0.12484,0s-0.05202,0.25 0.41614,0.31c-0.2913,0.46 -0.32251,0.53 -1.04035,1.74m-0.27049,-1a2.0807,2 0 0 1 -0.53058,0.46a2.92339,2.81 0 0 1 0.57219,-1.77l0.16646,-0.27c0,-0.11 0,0.52 0.48896,0.55c0,0 -0.63461,1 -0.69703,1m0.13525,-1.57a4.60875,4.43 0 0 1 -1.23802,1.38a1.66456,1.6 0 0 1 0.39533,-1.34s0.31211,-0.45 0.31211,-0.45s-0.09363,0.42 0.53058,0.41m-1.62295,0.33c-0.07282,-0.44 0.41614,-0.92 0.74905,-1.17c0.08323,0.09 -0.11444,0.21 0.41614,0.29a0.32251,0.31 0 0 0 0,0.11a3.45396,3.32 0 0 1 -0.22888,0.27a1.95586,1.88 0 0 1 -0.91551,0.5m0.73865,-1.23a1.86223,1.79 0 0 1 -1.04035,0.36a1.68537,1.62 0 0 1 0.81147,-0.77c0.12484,0.3 0.28089,0.27 0.28089,0.27a0.37453,0.36 0 0 0 -0.05202,0.14m3.70365,0.55c0.28089,0.25 0.27049,0.65 0.34332,1c-0.10404,0.71 0.16646,-0.21 -0.72825,2.84c-1.30044,-0.37 1.12358,-1.63 -0.90511,-2.92c0,0 -0.38493,0.48 -0.65542,-0.14c0.08323,-0.12 -0.64502,0.32 -0.66582,-0.52c0.09363,-0.12 -0.66582,0.31 -0.6034,-0.52c0.13525,0 -0.64502,0.08 -0.32251,-0.47c0,0 -0.28089,0 -0.32251,-0.26l1.10277,-0.53c0,0.18 -0.17686,2.15 1.83102,1.14a1.04035,1 0 0 1 0.92591,0.39m-9.26953,-8.47l2.70491,0.89s-0.27049,0.3 0.23928,0.71c-1.10277,-0.57 -1.37326,0.28 -2.94419,-1.6m2.72572,2.35a4.28625,4.12 0 0 1 -1.99747,-1c1.04035,-0.17 2.76733,0.54 4.24463,0.89c-0.42654,0.15 -0.45775,0.29 -0.50977,0.52l-1.73739,-0.41m-1.67496,0a10.79884,10.38 0 0 1 3.41235,0.57a1.04035,1 0 0 0 0.16646,0.4a0.28089,0.27 0 0 0 -0.18726,0a6.8351,6.57 0 0 1 -3.39154,-1m2.71532,1.6a5.0457,4.85 0 0 1 -2.01828,-0.7a12.48421,12 0 0 1 2.61128,0.17s-0.14565,0.18 0,0.49l-0.09363,0.09l-0.49937,-0.05zm0.31211,0.78a3.12105,3 0 0 1 -1.84142,-0.61a1.97667,1.9 0 0 1 0.70744,-0.14c0.08323,0 1.27963,0.08 1.27963,0.08s-0.26009,0.36 0.17686,0.69l-0.32251,-0.02zm-0.27049,0.7a1.74779,1.68 0 0 1 -1.36286,-0.49a4.78561,4.6 0 0 1 1.91425,-0.14c-0.07282,0.13 -0.32251,0.23 0,0.65c0,0 -0.52018,0 -0.57219,0m-0.71784,0.48a1.79981,1.73 0 0 1 1.34205,-0.42s0.06242,0 0.09363,0s-0.27049,0.12 0,0.49c-0.39533,0.11 -1.10277,0.2 -1.43568,-0.12m0.56179,0.75c0.14565,-0.16 -0.10404,-0.11 0.91551,-0.6a0.44735,0.43 0 0 0 0.14565,0.06s-0.10404,0.1 0.07282,0.37a1.69577,1.63 0 0 1 -1.13398,0.17m-0.90511,-5.37s0,-0.24 0,-0.32a18.48703,17.77 0 0 1 2.82975,1.12c-0.05202,0.3 1.04035,0.28 0.42654,1.79c0,0.34 -2.18474,0.81 -0.11444,2.08c-0.37453,0.19 -1.04035,0.47 -1.10277,0.53c-0.15605,-0.15 0,-0.4 0,-0.4s-0.65542,-0.08 -0.19767,-0.52c0.19767,0.06 -0.72825,-0.39 -0.08323,-0.77c0.19767,0.08 -0.69703,-0.45 -0.05202,-0.82c0.16646,0 -0.56179,-0.41 0.27049,-0.6c-0.33291,-1.41 0.81147,-0.7 -1.99747,-2.09m-0.54098,13.66l-0.66582,1.33l-0.85309,-0.39l0.45775,-0.91a4.49432,4.32 0 0 0 1.04035,0m0.65542,-0.2l-0.17686,0.35l-0.39533,-0.17a3.36033,3.23 0 0 0 0.57219,-0.18m-5.58668,0.89l1.04035,-2a6.80389,6.54 0 0 0 1.50851,1l-0.87389,1.78l-1.67496,-0.78zm-0.36412,1.57l-2.0807,-0.95c0.20807,-0.06 0.14565,0 0.94672,-0.43l1.53972,0.69l-0.40574,0.69zm-8.84298,-0.21a2.81935,2.71 0 0 1 -2.46563,-0.25l3.31872,-1.58l0.56179,0.25a3.05863,2.94 0 0 1 -1.41488,1.58m0.15605,-2.18l-2.73612,1.33a3.12105,3 0 0 1 1.43568,-1.91l1.30044,0.58zm4.22382,-4.26a3.12105,3 0 0 1 3.28751,0.64l-4.55674,2.23c0.11444,-1.1 0.41614,-2.51 1.26923,-2.87m-1.04035,3.48l4.76481,-2.27c0.18726,2 -1.59174,4.52 -4.76481,2.27m-18.87196,-5.16l-0.34332,0c0.14565,0.52 -1.79981,1.12 -1.27963,-0.51a2.0807,2 0 0 1 1.56053,-3.29c0.07282,-0.53 1.67496,-0.73 1.31084,0.62a2.0807,2 0 0 1 -1.24842,3.18m37.75433,-4.42a1.69577,1.63 0 0 0 -3.00661,0.39c-0.48896,0.37 -0.6034,0.68 -0.57219,0.92l-9.36316,4.59c-0.92591,-0.76 0.593,-8.88 2.86096,-3.22c0,-0.16 0.15605,-2.14 0.73865,0.27a1.43568,1.38 0 0 1 0.50977,-0.81c0,-4.27 -7.23044,-3.26 -5.69072,3c-2.86096,-1.73 -5.83637,0.28 -6.00282,3.53a4.99368,4.8 0 0 0 -2.49684,-0.23l-10.76763,-4.82l0,0l-0.55139,-0.23l0.74905,-1.5c-0.10404,0 -0.31211,-0.12 -0.80107,-0.35l0,0a1.32125,1.27 0 0 0 -0.69703,-0.86c0.10404,-0.3 0.14565,-0.13 -0.43695,-1c0.3017,-0.55 -0.49937,-2.21 -1.79981,-0.81c-0.49937,-0.24 0,-0.11 -1.04035,0.31c-0.41614,-0.1 -1.44609,-0.16 -2.02868,1.22c0,0 -1.61254,0 -0.78026,1.6c-0.43695,0.65 -0.68663,1.1 0.3017,2.26c-0.10404,0.29 -0.14565,0.14 0.44735,1c-0.3017,0.54 0.48896,2.19 1.79981,0.8c0.48896,0.24 0,0.11 1.04035,-0.31a1.37326,1.32 0 0 0 1.14439,0l0,0l0.79067,0.36l0.68663,-1.39l10.18503,4.53a4.23423,4.07 0 0 0 -1.20681,2.35c-1.186,-1.76 -6.8247,-0.41 -5.20175,2.55c0.21847,-1 1.74779,-3.48 4.70239,-1.56c-10.51795,5 -3.18347,2.43 0.33291,0.45c-0.15605,0.83 -0.23928,4.25 -4.09898,2.87c0.73865,1.87 5.60749,1.57 5.20175,-2.45c2.98581,1.07 3.96374,0.38 5.43063,-1.9l9.55042,4.25c-0.05202,0 1.66456,0.09 0.61381,-1.24c0,0 0,0 0,0l0,0s-0.37453,-0.18 -1.04035,-0.47l0.34332,-0.69l1.60214,0.71l1.7686,-3.6l-0.48896,-0.22c1.30044,-0.26 2.45523,-4 0.33291,-4.43a1.41488,1.36 0 0 1 -0.97793,-0.09c0.17686,0.47 1.4877,1.8 -0.20807,0.73c3.52679,4.42 -4.05737,2.13 -4.56714,0.15l9.488,-4.52c0.17686,0.17 0.46816,0.23 1.09237,0.06c0.78026,0.14 2.58007,0 2.0807,-2.1" class="cls-7"/>
   </g>
  </g>
 </g>
</svg>