<svg width="50" height="50" viewBox="0 0 50 50" fill="none" xmlns="http://www.w3.org/2000/svg">
<path d="M21.6959 8.91593L19.6286 5.65491C19.3074 5.14889 18.8592 4.73127 18.3263 4.44166C17.7935 4.15204 17.1936 4.00002 16.5837 4H4.84898C3.56258 4.00106 2.32923 4.50046 1.41999 5.38846C0.510743 6.27647 -4.54971e-07 7.48041 0 8.7357V21.6046H50V12.5812C50 11.9062 49.7252 11.2589 49.2361 10.7816C48.747 10.3043 48.0836 10.0361 47.3918 10.0361H23.7541C23.3416 10.0361 22.936 9.93316 22.5758 9.7371C22.2156 9.54104 21.9127 9.25837 21.6959 8.91593Z" fill="#E1C061"/>
<path d="M4.44489 21.6045V16.9117C4.44489 16.6163 4.50451 16.3238 4.62035 16.0509C4.73619 15.778 4.90599 15.53 5.12003 15.3211C5.33408 15.1123 5.58819 14.9466 5.86786 14.8335C6.14753 14.7205 6.44728 14.6623 6.74999 14.6623H43.25C43.5527 14.6623 43.8524 14.7205 44.1321 14.8335C44.4118 14.9466 44.6659 15.1123 44.8799 15.3211C45.094 15.53 45.2638 15.778 45.3796 16.0509C45.4955 16.3238 45.5551 16.6163 45.5551 16.9117V21.6045H4.44489Z" fill="#F7F5FA"/>
<path d="M44.6592 46H5.34082C3.92434 46 2.56589 45.4509 1.56429 44.4735C0.562692 43.4962 0 42.1706 0 40.7883V21.6046H50V40.7883C50 42.1706 49.4373 43.4962 48.4357 44.4735C47.4341 45.4509 46.0757 46 44.6592 46Z" fill="#F6D367"/>
<path d="M32.0408 35.5976C31.7359 35.1612 31.2659 34.8609 30.7341 34.7626C30.2023 34.6644 29.6523 34.7764 29.2051 35.0738L27.0408 36.5097V27.333C27.0408 26.8048 26.8258 26.2983 26.4431 25.9248C26.0603 25.5514 25.5413 25.3415 25 25.3415C24.4587 25.3415 23.9396 25.5514 23.5569 25.9248C23.1742 26.2983 22.9592 26.8048 22.9592 27.333V36.5097L20.799 35.0738C20.3517 34.7812 19.804 34.673 19.2753 34.7727C18.7465 34.8725 18.2796 35.1721 17.9763 35.6063C17.673 36.0405 17.5578 36.5741 17.6559 37.0907C17.754 37.6074 18.0574 38.0654 18.5 38.3647L23.8418 41.9175C24.1517 42.1238 24.5141 42.2424 24.8888 42.26H24.9908H25.0133H25.1153C25.49 42.2424 25.8524 42.1238 26.1622 41.9175L31.5041 38.3647C31.9513 38.0672 32.2591 37.6086 32.3597 37.0896C32.4604 36.5707 32.3457 36.034 32.0408 35.5976Z" fill="#75B59F"/>
<path d="M18.0878 46H5.34082C3.92434 46 2.56589 45.4509 1.56429 44.4735C0.562692 43.4962 0 42.1706 0 40.7883V23.3501C3.62673 32.4653 9.91605 40.3409 18.0878 46Z" fill="#E1C061"/>
</svg>
