<svg width="50" height="50" viewBox="0 0 50 50" fill="none" xmlns="http://www.w3.org/2000/svg">
<path d="M49.0385 6.73077V43.2692C49.0385 46.4519 46.4519 49.0385 43.2692 49.0385H6.73077C3.54808 49.0385 0.96154 46.4519 0.96154 43.2692V6.73077C0.96154 3.54808 3.54808 0.96154 6.73077 0.96154H43.2692C46.4519 0.96154 49.0385 3.54808 49.0385 6.73077Z" fill="#FFF8EE"/>
<path d="M43.2692 0.96154H6.73077C3.54423 0.96154 0.96154 3.54423 0.96154 6.73077V16.3462H49.0385V6.73077C49.0385 3.54423 46.4558 0.96154 43.2692 0.96154Z" fill="#F9DD8F"/>
<path d="M45.1923 0.96154H4.80769L0.96154 4.80769C0.96154 6.40096 2.25289 7.69231 3.84616 7.69231H46.1538C47.7471 7.69231 49.0385 6.40096 49.0385 4.80769L45.1923 0.96154Z" fill="#FFEB9B"/>
<path d="M43.2692 50H6.73077C3.02019 50 0 46.9798 0 43.2692V6.73077C0 3.02019 3.02019 0 6.73077 0H43.2692C46.9798 0 50 3.02019 50 6.73077V43.2692C50 46.9798 46.9798 50 43.2692 50ZM6.73077 1.92308C4.07981 1.92308 1.92308 4.07981 1.92308 6.73077V43.2692C1.92308 45.9202 4.07981 48.0769 6.73077 48.0769H43.2692C45.9202 48.0769 48.0769 45.9202 48.0769 43.2692V6.73077C48.0769 4.07981 45.9202 1.92308 43.2692 1.92308H6.73077Z" fill="#8D6C9F"/>
<path d="M9.61538 17.3077H0.961538C0.429808 17.3077 0 16.8779 0 16.3462C0 15.8144 0.429808 15.3846 0.961538 15.3846H9.61538C10.1471 15.3846 10.5769 15.8144 10.5769 16.3462C10.5769 16.8779 10.1471 17.3077 9.61538 17.3077Z" fill="#8D6C9F"/>
<path d="M49.0385 17.3077H9.61539C9.08365 17.3077 8.65385 16.8779 8.65385 16.3462C8.65385 15.8144 9.08365 15.3846 9.61539 15.3846H49.0385C49.5702 15.3846 50 15.8144 50 16.3462C50 16.8779 49.5702 17.3077 49.0385 17.3077Z" fill="#8D6C9F"/>
<path d="M49.0385 25.9615H0.961539C0.696155 25.9615 0.48077 25.7462 0.48077 25.4808C0.48077 25.2154 0.696155 25 0.961539 25H49.0385C49.3038 25 49.5192 25.2154 49.5192 25.4808C49.5192 25.7462 49.3038 25.9615 49.0385 25.9615Z" fill="#8D6C9F"/>
<path d="M49.0385 34.6154H0.961539C0.696155 34.6154 0.48077 34.4 0.48077 34.1346C0.48077 33.8692 0.696155 33.6538 0.961539 33.6538H49.0385C49.3038 33.6538 49.5192 33.8692 49.5192 34.1346C49.5192 34.4 49.3038 34.6154 49.0385 34.6154Z" fill="#8D6C9F"/>
<path d="M49.0385 43.2692H0.961539C0.696155 43.2692 0.48077 43.0538 0.48077 42.7885C0.48077 42.5231 0.696155 42.3077 0.961539 42.3077H49.0385C49.3038 42.3077 49.5192 42.5231 49.5192 42.7885C49.5192 43.0538 49.3038 43.2692 49.0385 43.2692Z" fill="#8D6C9F"/>
<path d="M10.5769 9.61538C11.1077 9.61538 11.5385 9.18461 11.5385 8.65385V6.73077C11.5385 6.2 11.1077 5.76923 10.5769 5.76923C10.0462 5.76923 9.61539 6.2 9.61539 6.73077V8.65385C9.61539 9.18461 10.0462 9.61538 10.5769 9.61538ZM5.76923 5.76923C5.23846 5.76923 4.80769 6.2 4.80769 6.73077V8.65385C4.80769 9.18461 5.23846 9.61538 5.76923 9.61538C6.3 9.61538 6.73077 9.18461 6.73077 8.65385V6.73077C6.73077 6.2 6.3 5.76923 5.76923 5.76923ZM25 9.61538C25.5308 9.61538 25.9615 9.18461 25.9615 8.65385V6.73077C25.9615 6.2 25.5308 5.76923 25 5.76923C24.4692 5.76923 24.0385 6.2 24.0385 6.73077V8.65385C24.0385 9.18461 24.4692 9.61538 25 9.61538ZM29.8077 9.61538C30.3385 9.61538 30.7692 9.18461 30.7692 8.65385V6.73077C30.7692 6.2 30.3385 5.76923 29.8077 5.76923C29.2769 5.76923 28.8462 6.2 28.8462 6.73077V8.65385C28.8462 9.18461 29.2769 9.61538 29.8077 9.61538ZM34.6154 9.61538C35.1462 9.61538 35.5769 9.18461 35.5769 8.65385V6.73077C35.5769 6.2 35.1462 5.76923 34.6154 5.76923C34.0846 5.76923 33.6538 6.2 33.6538 6.73077V8.65385C33.6538 9.18461 34.0846 9.61538 34.6154 9.61538ZM39.4231 9.61538C39.9538 9.61538 40.3846 9.18461 40.3846 8.65385V6.73077C40.3846 6.2 39.9538 5.76923 39.4231 5.76923C38.8923 5.76923 38.4615 6.2 38.4615 6.73077V8.65385C38.4615 9.18461 38.8923 9.61538 39.4231 9.61538ZM44.2308 5.76923C43.7 5.76923 43.2692 6.2 43.2692 6.73077V8.65385C43.2692 9.18461 43.7 9.61538 44.2308 9.61538C44.7615 9.61538 45.1923 9.18461 45.1923 8.65385V6.73077C45.1923 6.2 44.7615 5.76923 44.2308 5.76923ZM15.3846 9.61538C15.9154 9.61538 16.3462 9.18461 16.3462 8.65385V6.73077C16.3462 6.2 15.9154 5.76923 15.3846 5.76923C14.8538 5.76923 14.4231 6.2 14.4231 6.73077V8.65385C14.4231 9.18461 14.8538 9.61538 15.3846 9.61538ZM20.1923 9.61538C20.7231 9.61538 21.1538 9.18461 21.1538 8.65385V6.73077C21.1538 6.2 20.7231 5.76923 20.1923 5.76923C19.6615 5.76923 19.2308 6.2 19.2308 6.73077V8.65385C19.2308 9.18461 19.6615 9.61538 20.1923 9.61538Z" fill="#8D6C9F"/>
<path d="M5.76923 21.1538C6.30028 21.1538 6.73077 20.7234 6.73077 20.1923C6.73077 19.6613 6.30028 19.2308 5.76923 19.2308C5.23819 19.2308 4.80769 19.6613 4.80769 20.1923C4.80769 20.7234 5.23819 21.1538 5.76923 21.1538Z" fill="#8D6C9F"/>
<path d="M1.92308 21.1538C2.45412 21.1538 2.88462 20.7234 2.88462 20.1923C2.88462 19.6613 2.45412 19.2308 1.92308 19.2308C1.39204 19.2308 0.96154 19.6613 0.96154 20.1923C0.96154 20.7234 1.39204 21.1538 1.92308 21.1538Z" fill="#8D6C9F"/>
<path d="M9.61539 21.1538C10.1464 21.1538 10.5769 20.7234 10.5769 20.1923C10.5769 19.6613 10.1464 19.2308 9.61539 19.2308C9.08434 19.2308 8.65385 19.6613 8.65385 20.1923C8.65385 20.7234 9.08434 21.1538 9.61539 21.1538Z" fill="#8D6C9F"/>
<path d="M13.4615 21.1538C13.9926 21.1538 14.4231 20.7234 14.4231 20.1923C14.4231 19.6613 13.9926 19.2308 13.4615 19.2308C12.9305 19.2308 12.5 19.6613 12.5 20.1923C12.5 20.7234 12.9305 21.1538 13.4615 21.1538Z" fill="#8D6C9F"/>
<path d="M17.3077 21.1538C17.8387 21.1538 18.2692 20.7234 18.2692 20.1923C18.2692 19.6613 17.8387 19.2308 17.3077 19.2308C16.7766 19.2308 16.3462 19.6613 16.3462 20.1923C16.3462 20.7234 16.7766 21.1538 17.3077 21.1538Z" fill="#8D6C9F"/>
<path d="M21.1538 21.1538C21.6849 21.1538 22.1154 20.7234 22.1154 20.1923C22.1154 19.6613 21.6849 19.2308 21.1538 19.2308C20.6228 19.2308 20.1923 19.6613 20.1923 20.1923C20.1923 20.7234 20.6228 21.1538 21.1538 21.1538Z" fill="#8D6C9F"/>
<path d="M25 21.1538C25.531 21.1538 25.9615 20.7234 25.9615 20.1923C25.9615 19.6613 25.531 19.2308 25 19.2308C24.469 19.2308 24.0385 19.6613 24.0385 20.1923C24.0385 20.7234 24.469 21.1538 25 21.1538Z" fill="#8D6C9F"/>
<path d="M28.8462 21.1538C29.3772 21.1538 29.8077 20.7234 29.8077 20.1923C29.8077 19.6613 29.3772 19.2308 28.8462 19.2308C28.3151 19.2308 27.8846 19.6613 27.8846 20.1923C27.8846 20.7234 28.3151 21.1538 28.8462 21.1538Z" fill="#8D6C9F"/>
<path d="M32.6923 21.1538C33.2233 21.1538 33.6538 20.7234 33.6538 20.1923C33.6538 19.6613 33.2233 19.2308 32.6923 19.2308C32.1613 19.2308 31.7308 19.6613 31.7308 20.1923C31.7308 20.7234 32.1613 21.1538 32.6923 21.1538Z" fill="#8D6C9F"/>
<path d="M36.5385 21.1538C37.0695 21.1538 37.5 20.7234 37.5 20.1923C37.5 19.6613 37.0695 19.2308 36.5385 19.2308C36.0074 19.2308 35.5769 19.6613 35.5769 20.1923C35.5769 20.7234 36.0074 21.1538 36.5385 21.1538Z" fill="#8D6C9F"/>
<path d="M40.3846 21.1538C40.9157 21.1538 41.3462 20.7234 41.3462 20.1923C41.3462 19.6613 40.9157 19.2308 40.3846 19.2308C39.8536 19.2308 39.4231 19.6613 39.4231 20.1923C39.4231 20.7234 39.8536 21.1538 40.3846 21.1538Z" fill="#8D6C9F"/>
<path d="M44.2308 21.1538C44.7618 21.1538 45.1923 20.7234 45.1923 20.1923C45.1923 19.6613 44.7618 19.2308 44.2308 19.2308C43.6997 19.2308 43.2692 19.6613 43.2692 20.1923C43.2692 20.7234 43.6997 21.1538 44.2308 21.1538Z" fill="#8D6C9F"/>
<path d="M48.0769 21.1538C48.608 21.1538 49.0385 20.7234 49.0385 20.1923C49.0385 19.6613 48.608 19.2308 48.0769 19.2308C47.5459 19.2308 47.1154 19.6613 47.1154 20.1923C47.1154 20.7234 47.5459 21.1538 48.0769 21.1538Z" fill="#8D6C9F"/>
</svg>
