<svg width="50" height="50" viewBox="0 0 50 50" fill="none" xmlns="http://www.w3.org/2000/svg">
<path d="M46.4407 20.1613H40.2034V39.5161H46.4407V20.1613Z" fill="#85CBF8"/>
<path d="M47.2203 15.3226H39.4237V20.1613H47.2203V15.3226Z" fill="#CED9ED"/>
<path d="M46.4407 15.3226H40.2034V13.7097C40.2034 11.9282 41.5998 10.4839 43.322 10.4839C45.0443 10.4839 46.4407 11.9282 46.4407 13.7097V15.3226Z" fill="#ED7899"/>
<path d="M43.322 43.5484C42.2828 42.204 41.2427 40.8605 40.2034 39.5161C41.2427 38.9782 42.2828 38.4411 43.322 37.9032C44.3613 38.4411 45.4014 38.9782 46.4407 39.5161C45.4014 40.8605 44.3613 42.204 43.322 43.5484Z" fill="#FBE99D"/>
<path d="M9.79661 5.64516H6.97034C4.65397 5.64516 2.77966 7.59274 2.77966 10V44.8387C2.77966 47.246 4.65397 49.1935 6.97034 49.1935H32.1144C34.4308 49.1935 36.3051 47.246 36.3051 44.8387V10C36.3051 7.59274 34.4308 5.64516 32.1144 5.64516C31.1726 5.64516 30.23 5.64516 29.2881 5.64516" fill="#F9DD8F"/>
<path d="M33.1864 8.87097H5.89831V45.9677H33.1864V8.87097Z" fill="#FAEFDE"/>
<path d="M32.1144 50H6.97034C4.22905 50 2 47.6847 2 44.8387V10C2 7.15403 4.22905 4.83871 6.97034 4.83871H9.79661V6.45161H6.97034C5.0898 6.45161 3.55932 8.04355 3.55932 10V44.8387C3.55932 46.7952 5.0898 48.3871 6.97034 48.3871H32.1144C33.995 48.3871 35.5254 46.7952 35.5254 44.8387V10C35.5254 8.04355 33.995 6.45161 32.1144 6.45161H29.2881V4.83871H32.1144C34.8557 4.83871 37.0847 7.15403 37.0847 10V44.8387C37.0847 47.6847 34.8557 50 32.1144 50Z" fill="#8D6C9F"/>
<path d="M32.137 46.7742V45.1613C32.2859 45.1613 32.4068 45.0339 32.4068 44.8766V9.96209C32.4068 9.80484 32.2859 9.67742 32.137 9.67742H29.2881V8.06451H32.137C33.1451 8.06451 33.9661 8.91613 33.9661 9.96209V44.8766C33.9661 45.9226 33.1451 46.7742 32.137 46.7742Z" fill="#8D6C9F"/>
<path d="M43.322 44.3548C43.085 44.3548 42.8613 44.2435 42.7131 44.0524L39.5945 40.0202C39.4838 39.8766 39.4237 39.6992 39.4237 39.5161V20.1613C39.4237 19.7161 39.7722 19.3548 40.2034 19.3548H46.4407C46.8718 19.3548 47.2203 19.7161 47.2203 20.1613V39.5161C47.2203 39.6992 47.1603 39.8766 47.0496 40.0202L43.931 44.0524C43.7828 44.2435 43.5591 44.3548 43.322 44.3548ZM40.9831 39.2331L43.322 42.2573L45.661 39.2331V20.9677H40.9831V39.2331Z" fill="#8D6C9F"/>
<path d="M47.2203 20.9677H39.4237C38.9926 20.9677 38.6441 20.6065 38.6441 20.1613V15.3226C38.6441 14.8774 38.9926 14.5161 39.4237 14.5161H47.2203C47.6515 14.5161 48 14.8774 48 15.3226V20.1613C48 20.6065 47.6515 20.9677 47.2203 20.9677ZM40.2034 19.3548H46.4407V16.129H40.2034V19.3548Z" fill="#8D6C9F"/>
<path d="M47.2203 15.3226H45.661V13.0266C45.325 11.9992 44.3777 11.2903 43.322 11.2903C42.2664 11.2903 41.3191 11.9992 40.9831 13.0266V15.3226H39.4237V12.9032C39.4237 12.8266 39.4347 12.7508 39.4549 12.6774C39.9531 10.9113 41.5429 9.67742 43.322 9.67742C45.1012 9.67742 46.691 10.9113 47.1892 12.6774C47.2094 12.7508 47.2203 12.8266 47.2203 12.9032V15.3226Z" fill="#8D6C9F"/>
<path d="M46.0922 40.2379L43.322 38.8048L40.5519 40.2371L39.8541 38.7944L42.9727 37.1815C43.1918 37.0677 43.4507 37.0677 43.6705 37.1815L46.7892 38.7944L46.0922 40.2379Z" fill="#8D6C9F"/>
<path d="M43.322 38.7097C42.8909 38.7097 42.5424 38.3484 42.5424 37.9032V33.0645C42.5424 32.6194 42.8909 32.2581 43.322 32.2581C43.7532 32.2581 44.1017 32.6194 44.1017 33.0645V37.9032C44.1017 38.3484 43.7532 38.7097 43.322 38.7097Z" fill="#8D6C9F"/>
<path d="M43.322 29.8387C42.8909 29.8387 42.5424 29.4774 42.5424 29.0323V26.6129C42.5424 26.1677 42.8909 25.8064 43.322 25.8064C43.7532 25.8064 44.1017 26.1677 44.1017 26.6129V29.0323C44.1017 29.4774 43.7532 29.8387 43.322 29.8387Z" fill="#8D6C9F"/>
<path d="M16.8136 20.9677H10.5763C10.1451 20.9677 9.79661 20.6065 9.79661 20.1613C9.79661 19.7161 10.1451 19.3548 10.5763 19.3548H16.8136C17.2447 19.3548 17.5932 19.7161 17.5932 20.1613C17.5932 20.6065 17.2447 20.9677 16.8136 20.9677Z" fill="#8D6C9F"/>
<path d="M23.8305 20.9677H20.7119C20.2807 20.9677 19.9322 20.6065 19.9322 20.1613C19.9322 19.7161 20.2807 19.3548 20.7119 19.3548H23.8305C24.2617 19.3548 24.6102 19.7161 24.6102 20.1613C24.6102 20.6065 24.2617 20.9677 23.8305 20.9677Z" fill="#8D6C9F"/>
<path d="M14.4746 25H10.5763C10.1451 25 9.79661 24.6387 9.79661 24.1935C9.79661 23.7484 10.1451 23.3871 10.5763 23.3871H14.4746C14.9057 23.3871 15.2542 23.7484 15.2542 24.1935C15.2542 24.6387 14.9057 25 14.4746 25Z" fill="#8D6C9F"/>
<path d="M21.4915 25H18.3729C17.9417 25 17.5932 24.6387 17.5932 24.1935C17.5932 23.7484 17.9417 23.3871 18.3729 23.3871H21.4915C21.9227 23.3871 22.2712 23.7484 22.2712 24.1935C22.2712 24.6387 21.9227 25 21.4915 25Z" fill="#8D6C9F"/>
<path d="M18.3729 29.0323H10.5763C10.1451 29.0323 9.79661 28.671 9.79661 28.2258C9.79661 27.7806 10.1451 27.4194 10.5763 27.4194H18.3729C18.804 27.4194 19.1525 27.7806 19.1525 28.2258C19.1525 28.671 18.804 29.0323 18.3729 29.0323Z" fill="#8D6C9F"/>
<path d="M25.3898 29.0323H22.2712C21.84 29.0323 21.4915 28.671 21.4915 28.2258C21.4915 27.7806 21.84 27.4194 22.2712 27.4194H25.3898C25.821 27.4194 26.1695 27.7806 26.1695 28.2258C26.1695 28.671 25.821 29.0323 25.3898 29.0323Z" fill="#8D6C9F"/>
<path d="M23.8742 5.64516C23.8742 2.975 21.9328 0.80645 19.5424 0.80645C17.1527 0.80645 15.2106 2.975 15.2106 5.64516H9.79661V10.4839C9.79661 11.821 10.7657 12.9032 11.9625 12.9032H27.1222C28.319 12.9032 29.2881 11.821 29.2881 10.4839V5.64516H23.8742Z" fill="#C2CDE7"/>
<path d="M28.5085 12.9032H10.5763C10.5763 10.6766 12.3219 8.87097 14.4746 8.87097H24.6102C26.7628 8.87097 28.5085 10.6766 28.5085 12.9032Z" fill="#CED9ED"/>
<path d="M32.4068 45.1613H6.67796C6.67796 42.9347 8.42362 41.129 10.5763 41.129H28.5085C30.6611 41.129 32.4068 42.9347 32.4068 45.1613Z" fill="#EFD8BE"/>
<path d="M27.123 13.7097H11.9617C10.3377 13.7097 9.01695 12.2629 9.01695 10.4839V5.64516C9.01695 5.2 9.36546 4.83871 9.79661 4.83871H14.4832C14.8387 2.10645 16.9718 0 19.5424 0C22.1129 0 24.2461 2.10645 24.6016 4.83871H29.2881C29.7193 4.83871 30.0678 5.2 30.0678 5.64516V10.4839C30.0678 12.2629 28.7471 13.7097 27.123 13.7097ZM10.5763 6.45161V10.4839C10.5763 11.3734 11.1977 12.0968 11.9617 12.0968H27.1222C27.8871 12.0968 28.5085 11.3734 28.5085 10.4839V6.45161H23.8742C23.443 6.45161 23.0945 6.09032 23.0945 5.64516C23.0945 3.42177 21.5009 1.6129 19.5424 1.6129C17.5839 1.6129 15.9902 3.42177 15.9902 5.64516C15.9902 6.09032 15.6417 6.45161 15.2106 6.45161H10.5763Z" fill="#8D6C9F"/>
<path d="M32.137 46.7742H6.94773C5.93963 46.7742 5.11864 45.9226 5.11864 44.8766V9.96209C5.11864 8.91613 5.93963 8.06451 6.94773 8.06451H9.79661V9.67742H6.94773C6.79881 9.67742 6.67797 9.80484 6.67797 9.96209V44.8766C6.67797 45.0339 6.79881 45.1613 6.94773 45.1613H32.1378L32.137 46.7742Z" fill="#8D6C9F"/>
<path d="M9.79661 42.7419C9.36546 42.7419 9.01695 42.3806 9.01695 41.9355V40.3226C9.01695 39.8774 9.36546 39.5161 9.79661 39.5161C10.2278 39.5161 10.5763 39.8774 10.5763 40.3226V41.9355C10.5763 42.3806 10.2278 42.7419 9.79661 42.7419Z" fill="#8D6C9F"/>
<path d="M13.6949 42.7419C13.2638 42.7419 12.9153 42.3806 12.9153 41.9355V40.3226C12.9153 39.8774 13.2638 39.5161 13.6949 39.5161C14.1261 39.5161 14.4746 39.8774 14.4746 40.3226V41.9355C14.4746 42.3806 14.1261 42.7419 13.6949 42.7419Z" fill="#8D6C9F"/>
<path d="M17.5932 42.7419C17.1621 42.7419 16.8136 42.3806 16.8136 41.9355V40.3226C16.8136 39.8774 17.1621 39.5161 17.5932 39.5161C18.0244 39.5161 18.3729 39.8774 18.3729 40.3226V41.9355C18.3729 42.3806 18.0244 42.7419 17.5932 42.7419Z" fill="#8D6C9F"/>
<path d="M21.4915 42.7419C21.0604 42.7419 20.7119 42.3806 20.7119 41.9355V40.3226C20.7119 39.8774 21.0604 39.5161 21.4915 39.5161C21.9227 39.5161 22.2712 39.8774 22.2712 40.3226V41.9355C22.2712 42.3806 21.9227 42.7419 21.4915 42.7419Z" fill="#8D6C9F"/>
<path d="M25.3898 42.7419C24.9587 42.7419 24.6102 42.3806 24.6102 41.9355V40.3226C24.6102 39.8774 24.9587 39.5161 25.3898 39.5161C25.821 39.5161 26.1695 39.8774 26.1695 40.3226V41.9355C26.1695 42.3806 25.821 42.7419 25.3898 42.7419Z" fill="#8D6C9F"/>
<path d="M29.2881 42.7419C28.857 42.7419 28.5085 42.3806 28.5085 41.9355V40.3226C28.5085 39.8774 28.857 39.5161 29.2881 39.5161C29.7193 39.5161 30.0678 39.8774 30.0678 40.3226V41.9355C30.0678 42.3806 29.7193 42.7419 29.2881 42.7419Z" fill="#8D6C9F"/>
</svg>
