<svg width="50" height="50" viewBox="0 0 50 50" fill="none" xmlns="http://www.w3.org/2000/svg">
<path d="M22.7793 12.0658H43.9979C46.014 12.0658 47.6483 13.7016 47.6483 15.7194V16.0415C47.6483 18.0593 46.014 19.695 43.9979 19.695H22.7793C20.7632 19.695 19.1289 18.0593 19.1289 16.0415V15.7194C19.1289 13.7016 20.7632 12.0658 22.7793 12.0658Z" fill="#27394C"/>
<path d="M50 23.6457C50 25.7365 48.3912 27.4499 46.3455 27.6137C46.2378 27.6228 46.1298 27.6274 46.0218 27.6273C45.7433 27.6273 45.4719 27.5992 45.2097 27.544H21.2485C20.9862 27.5992 20.7149 27.6273 20.4364 27.6273H20.4336C18.237 27.6255 16.4581 25.8443 16.4581 23.6458C16.4581 21.5731 18.0407 19.8706 20.0628 19.6831C20.1869 19.6707 20.3115 19.6647 20.4363 19.6651C20.6035 19.6651 20.7672 19.675 20.9291 19.6949H45.5289C45.9231 19.6466 46.3224 19.657 46.7136 19.7257C48.5811 20.0523 50 21.6834 50 23.6457Z" fill="#FFCBB3"/>
<path d="M46.7137 19.7257V24.7689C46.7137 25.7482 46.5862 26.7014 46.3456 27.6137C46.2379 27.6228 46.1299 27.6274 46.0218 27.6273C45.7433 27.6273 45.472 27.5992 45.2097 27.544H21.2485C20.9862 27.5992 20.7148 27.6273 20.4363 27.6273H20.4336C20.187 26.6946 20.0624 25.7338 20.0629 24.769V19.6831C20.187 19.6707 20.3116 19.6647 20.4363 19.6651C20.6036 19.6651 20.7673 19.675 20.9292 19.6949H45.529C45.6925 19.6749 45.8571 19.6649 46.0218 19.6651C46.2538 19.6649 46.4853 19.6852 46.7137 19.7257Z" fill="#E89876"/>
<path d="M47.8312 24.5323C47.6819 24.5323 47.5358 24.4887 47.411 24.4068C47.2861 24.3249 47.1879 24.2082 47.1283 24.0712C46.8083 23.3344 45.8416 23.57 45.7327 23.5994C45.3259 23.715 44.9048 23.4778 44.7892 23.0705C44.6737 22.6632 44.9126 22.2386 45.3195 22.123C46.1302 21.8926 47.845 21.8756 48.5331 23.4598C48.5732 23.5522 48.5947 23.6515 48.5965 23.7521C48.5982 23.8528 48.5802 23.9528 48.5433 24.0465C48.5064 24.1401 48.4515 24.2256 48.3816 24.298C48.3117 24.3704 48.2283 24.4284 48.136 24.4685C48.0399 24.5105 47.9361 24.5322 47.8312 24.5323Z" fill="#E89876"/>
<path d="M45.5288 44.8488V49.9998H21.2483V44.8488C21.2483 38.1383 26.6834 32.6977 33.3881 32.6977C34.3368 32.6977 35.2601 32.8072 36.1464 33.0127C38.3918 33.535 40.3977 34.6809 41.973 36.2567C44.1696 38.456 45.5288 41.4935 45.5288 44.8488Z" fill="#27394C"/>
<path d="M45.5288 44.8488V49.9998H26.7648V44.8488C26.7648 39.0878 30.771 34.2626 36.1464 33.0127C38.3918 33.5349 40.3977 34.6808 41.973 36.2566C44.1696 38.4561 45.5288 41.4936 45.5288 44.8488Z" fill="#3E5268"/>
<path d="M27.4595 36.7985L33.3881 48.8399L39.3166 36.7985" fill="white"/>
<path d="M28.1771 37.4178L33.3881 44.0798L38.5991 37.4178" fill="#FC74AF"/>
<path d="M39.2964 36.8408L36.5932 42.3308L33.3883 38.8389H33.3885L30.1835 42.3308L27.4803 36.8408" fill="#BBB8CC"/>
<path d="M33.3884 48.8399V50H30.4063L27.2976 46.8886L28.5956 44.1912H25.6003L24.0653 37.0679C24.77 36.2205 25.589 35.4723 26.498 34.8447L33.3884 48.8399Z" fill="#172635"/>
<path d="M33.3878 48.8399V50H36.3699L39.4786 46.8886L38.1806 44.1912H41.176L42.7109 37.0679C42.0063 36.2205 41.1872 35.4723 40.2783 34.8447L33.3878 48.8399Z" fill="#172635"/>
<path d="M45.5288 17.9009V26.1755C45.5288 32.0967 41.2965 37.0286 35.6942 38.1067C34.9342 38.2529 34.162 38.3262 33.3881 38.3257C26.6834 38.3257 21.2483 32.886 21.2483 26.1755V17.9009C21.2483 11.1905 26.6834 5.74985 33.3881 5.74985C34.1768 5.74985 34.9481 5.82497 35.6942 5.96889C38.1223 6.43591 40.2927 7.62711 41.973 9.30873C44.1696 11.5081 45.5288 14.5457 45.5288 17.9009Z" fill="#E89876"/>
<path d="M45.5288 17.9009V26.1755C45.5288 32.0967 41.2965 37.0286 35.6942 38.1067C30.0918 37.0286 25.8595 32.0967 25.8595 26.1755V17.9009C25.8595 11.9797 30.0918 7.04684 35.6942 5.96889C38.1223 6.4359 40.2927 7.6271 41.973 9.30873C44.1696 11.5081 45.5288 14.5457 45.5288 17.9009Z" fill="#FFCBB3"/>
<path d="M28.0997 25.3037C27.8965 25.3037 27.7017 25.2229 27.5581 25.0792C27.4144 24.9354 27.3337 24.7404 27.3337 24.5371V21.5504C27.3337 21.3471 27.4144 21.1521 27.5581 21.0083C27.7017 20.8646 27.8965 20.7838 28.0997 20.7838C28.3028 20.7838 28.4977 20.8646 28.6413 21.0083C28.7849 21.1521 28.8656 21.3471 28.8656 21.5504V24.5371C28.8656 24.7404 28.7849 24.9354 28.6413 25.0792C28.4977 25.2229 28.3028 25.3037 28.0997 25.3037ZM38.6775 25.3037C38.4744 25.3037 38.2796 25.2229 38.1359 25.0792C37.9923 24.9354 37.9116 24.7404 37.9116 24.5371V21.5504C37.9116 21.3471 37.9923 21.1521 38.1359 21.0083C38.2796 20.8646 38.4744 20.7838 38.6775 20.7838C38.8807 20.7838 39.0755 20.8646 39.2191 21.0083C39.3628 21.1521 39.4435 21.3471 39.4435 21.5504V24.5371C39.4435 24.7404 39.3628 24.9354 39.2191 25.0792C39.0755 25.2229 38.8807 25.3037 38.6775 25.3037Z" fill="#172635"/>
<path d="M44.8071 0.0348511L39.3607 5.48592C38.8994 4.35206 37.7887 3.55193 36.4901 3.55193C35.4244 3.55193 34.4847 4.0905 33.9268 4.91025C32.5034 3.15524 30.3315 2.03344 27.8967 2.03344C23.6072 2.03344 20.1298 5.51383 20.1298 9.80702C20.1298 14.1002 23.6072 17.5806 27.8967 17.5806C29.6886 17.5806 31.3375 16.9716 32.6517 15.9514C36.5088 18.1639 41.5126 17.6237 44.8071 14.3265C48.7502 10.3798 48.7502 3.98133 44.8071 0.0348511Z" fill="#3E5268"/>
<path d="M24.7905 9.80692C24.7905 13.2871 27.0758 16.2339 30.2261 17.2242C29.4922 17.456 28.7088 17.5804 27.8966 17.5804C23.6071 17.5804 20.1298 14.1002 20.1298 9.80702C20.1298 5.51383 23.6071 2.03365 27.8966 2.03365C28.6867 2.03268 29.4723 2.15282 30.2261 2.38987C27.0758 3.37991 24.7905 6.32674 24.7905 9.80692Z" fill="#27394C"/>
<path d="M34.826 45.9186L33.3881 48.8399L31.9502 45.9186L33.3881 44.0798L34.826 45.9186ZM36.277 29.807C36.277 31.4036 34.9841 32.6976 33.3889 32.6976C31.7937 32.6976 30.4998 31.4036 30.4998 29.807C30.4998 29.2285 30.6703 28.8186 30.9634 28.5334C31.4781 28.0275 32.3717 27.9017 33.3889 27.9017C34.4051 27.9017 35.2997 28.0275 35.8144 28.5334C36.1075 28.8186 36.277 29.2275 36.277 29.807Z" fill="#FC74AF"/>
<path d="M35.8145 28.5334C35.2998 29.0384 34.4052 29.1641 33.389 29.1641C32.3718 29.1641 31.4782 29.0384 30.9635 28.5334C31.4782 28.0275 32.3718 27.9017 33.389 27.9017C34.4052 27.9017 35.2998 28.0275 35.8145 28.5334Z" fill="white"/>
<path d="M15.0392 40.029V43.3266H12.3104V40.029C12.3104 39.2747 12.9211 38.6635 13.6748 38.6635C13.8852 38.6635 14.0854 38.7115 14.2631 38.7963C14.7216 39.0161 15.0392 39.4853 15.0392 40.029Z" fill="#E89876"/>
<path d="M15.0393 40.029V41.7932H13.4869V40.029C13.4869 39.4852 13.8035 39.0161 14.2631 38.7963C14.7216 39.0161 15.0393 39.4852 15.0393 40.029Z" fill="#FFCBB3"/>
<path d="M10.9539 46.2743L14.6207 49.9689H23.7693L15.5292 41.7931L12.7838 44.4427L10.9539 46.2743Z" fill="#3E5268"/>
<path d="M15.5293 41.7939L13.2846 43.9915L10.9541 46.2739L7.86273 45.6146C7.41745 45.5196 7.0355 45.2753 6.76487 44.94C6.73525 44.9032 6.70563 44.8644 6.67908 44.8245C6.46155 44.5107 6.33594 44.1294 6.33594 43.7247C6.33594 42.6586 7.19993 41.7939 8.26613 41.7939H15.5293Z" fill="#FFCBB3"/>
<path d="M13.2846 43.9915L10.9541 46.2739L7.86272 45.6146C7.41745 45.5196 7.0355 45.2753 6.76486 44.94C6.73525 44.9032 6.70563 44.8644 6.67908 44.8245C7.02631 44.3206 7.60741 43.9915 8.26612 43.9915H13.2846Z" fill="#E89876"/>
<path d="M10.9539 46.2743L14.6207 49.9689H18.2806L12.7838 44.4427L10.9539 46.2743Z" fill="#27394C"/>
<path d="M0 3.05272V19.2934C0 20.9793 1.36553 22.3461 3.0501 22.3461H17.9668L22.7935 27.2716C23.5109 28.0038 24.7543 27.4953 24.7543 26.4698V3.05272C24.7543 1.36681 23.3888 0 21.7042 0H3.0501C1.36553 0.000102214 0 1.36681 0 3.05272Z" fill="#96EFFF"/>
<path d="M20.4954 5.92974H4.25875C4.0556 5.92974 3.86078 5.84897 3.71714 5.70521C3.5735 5.56144 3.4928 5.36645 3.4928 5.16313C3.4928 4.95982 3.5735 4.76483 3.71714 4.62106C3.86078 4.4773 4.0556 4.39653 4.25875 4.39653H20.4954C20.6985 4.39653 20.8934 4.4773 21.037 4.62106C21.1806 4.76483 21.2613 4.95982 21.2613 5.16313C21.2613 5.36645 21.1806 5.56144 21.037 5.70521C20.8934 5.84897 20.6985 5.92974 20.4954 5.92974ZM20.4954 9.76215H4.25875C4.0556 9.76215 3.86078 9.68138 3.71714 9.53762C3.5735 9.39385 3.4928 9.19886 3.4928 8.99555C3.4928 8.79223 3.5735 8.59724 3.71714 8.45347C3.86078 8.30971 4.0556 8.22894 4.25875 8.22894H20.4954C20.6985 8.22894 20.8934 8.30971 21.037 8.45347C21.1806 8.59724 21.2613 8.79223 21.2613 8.99555C21.2613 9.19886 21.1806 9.39385 21.037 9.53762C20.8934 9.68138 20.6985 9.76215 20.4954 9.76215ZM20.4954 13.5946H4.25875C4.0556 13.5946 3.86078 13.5138 3.71714 13.37C3.5735 13.2263 3.4928 13.0313 3.4928 12.828C3.4928 12.6246 3.5735 12.4297 3.71714 12.2859C3.86078 12.1421 4.0556 12.0614 4.25875 12.0614H20.4954C20.6985 12.0614 20.8934 12.1421 21.037 12.2859C21.1806 12.4297 21.2613 12.6246 21.2613 12.828C21.2613 13.0313 21.1806 13.2263 21.037 13.37C20.8934 13.5138 20.6985 13.5946 20.4954 13.5946ZM20.4954 17.427H4.25875C4.0556 17.427 3.86078 17.3462 3.71714 17.2024C3.5735 17.0587 3.4928 16.8637 3.4928 16.6604C3.4928 16.4571 3.5735 16.2621 3.71714 16.1183C3.86078 15.9745 4.0556 15.8938 4.25875 15.8938H20.4954C20.6985 15.8938 20.8934 15.9745 21.037 16.1183C21.1806 16.2621 21.2613 16.4571 21.2613 16.6604C21.2613 16.8637 21.1806 17.0587 21.037 17.2024C20.8934 17.3462 20.6985 17.427 20.4954 17.427Z" fill="#3E5268"/>
</svg>
