<svg width="50.000000" height="50.000000" viewBox="0 0 50 50" fill="none" xmlns="http://www.w3.org/2000/svg" xmlns:xlink="http://www.w3.org/1999/xlink">
	<desc>
			Created with Pixso.
	</desc>
	<defs/>
	<mask id="mask107_12" mask-type="alpha" maskUnits="userSpaceOnUse" x="0.000000" y="0.000000" width="15.110352" height="15.109863">
		<path id="a" d="M0 0L15.11 0L15.11 15.1L0 15.1L0 0Z" fill="#FFFFFF" fill-opacity="1.000000" fill-rule="nonzero"/>
	</mask>
	<g mask="url(#mask107_12)">
		<path id="path" d="M10.78 11.8L4.64 11.8L4.64 9.75C8.08 6.95 8.41 6.63 8.41 5.98C8.41 5.56 8.02 5.3 7.54 5.3C6.74 5.3 6.13 5.64 5.56 6.2L4.32 4.45C5.18 3.39 6.45 2.98 7.49 2.98C9.44 2.98 10.72 4.23 10.72 5.98C10.72 7.16 10.13 8.14 8.34 9.51L10.78 9.51L10.78 11.8ZM11.3 0L0 0L0 10.71C0 11.92 0.37 12.96 1.11 13.82C1.85 14.68 2.75 15.1 3.8 15.1L15.11 15.1L15.11 4.39C15.11 3.18 14.73 2.14 13.99 1.28C13.25 0.42 12.35 0 11.3 0Z" fill="#21B7EC" fill-opacity="0.498039" fill-rule="evenodd"/>
	</g>
	<path id="path" d="M38.31 26.95L34.64 26.95L34.64 31.32L38.31 31.32C39.52 31.32 40.42 30.52 40.42 29.15C40.42 27.75 39.52 26.95 38.31 26.95Z" fill="#21B7EC" fill-opacity="1.000000" fill-rule="evenodd"/>
	<mask id="mask107_19" mask-type="alpha" maskUnits="userSpaceOnUse" x="15.110352" y="15.109863" width="34.889648" height="34.890137">
		<path id="c" d="M15.11 15.1L50 15.1L50 50L15.11 50L15.11 15.1Z" fill="#FFFFFF" fill-opacity="1.000000" fill-rule="nonzero"/>
	</mask>
	<g mask="url(#mask107_19)">
		<path id="path" d="M38.91 35.89L34.64 35.89L34.64 42.72L30.09 42.72L30.09 22.38L38.91 22.38C42.87 22.38 45.04 25.46 45.04 29.15C45.04 32.81 42.87 35.89 38.91 35.89ZM21.97 42.72L26.51 42.72L26.51 22.38L21.97 22.38L21.97 42.72ZM45.24 15.11L15.11 15.11L15.11 44.5C15.11 45.23 15.23 45.93 15.47 46.6C15.71 47.28 16.05 47.87 16.5 48.39C16.94 48.9 17.46 49.3 18.04 49.58C18.62 49.86 19.23 50 19.86 50L50 50L50 20.6C50 19.87 49.87 19.17 49.63 18.5C49.39 17.82 49.05 17.23 48.6 16.71C48.16 16.2 47.64 15.8 47.06 15.52C46.48 15.24 45.87 15.11 45.24 15.11Z" fill="#53C4EB" fill-opacity="1.000000" fill-rule="evenodd"/>
	</g>
</svg>
