<svg width="50" height="51" viewBox="0 0 50 51" fill="none" xmlns="http://www.w3.org/2000/svg">
<path d="M16.6177 37.5438C15.9351 38.2263 15.9351 39.3295 16.6177 40.012L17.0291 40.4234C17.483 40.8774 17.483 41.6149 17.0291 42.0689L16.2063 42.8916C15.7523 43.3456 15.0147 43.3456 14.5607 42.8916L12.5038 40.8348C11.8212 40.1523 10.718 40.1523 10.0354 40.8348C9.3529 41.5173 9.3529 42.6205 10.0354 43.303L12.0924 45.3599C12.5464 45.8139 12.5464 46.5514 12.0924 47.0054L11.4504 47.6474C10.2577 48.84 8.7597 49.696 7.12245 50.099L4.31129 50.8002C3.52175 50.9966 2.6865 50.766 2.11097 50.1904L0.679419 48.7589C0.103888 48.1824 -0.127779 47.3482 0.0685665 46.5577L0.7698 43.7466C1.17288 42.1094 2.0289 40.6114 3.22152 39.4188L17.8518 24.789L26.0807 33.0176L21.144 37.9541C20.69 38.4081 19.9524 38.4081 19.4984 37.9541L19.0871 37.5427C18.4024 36.8602 17.3002 36.8602 16.6177 37.5438Z" fill="#FFCE29"/>
<path d="M33.8732 36.4592C33.4805 36.4592 33.0857 36.4468 32.6868 36.4208C28.0701 36.1195 23.6425 34.0699 20.2205 30.648C16.7984 27.2261 14.7488 22.7997 14.4475 18.1821C14.1296 13.31 15.7679 8.81395 19.0611 5.52087C22.3522 2.22883 26.8484 0.591634 31.7217 0.907438C36.3384 1.2087 40.7661 3.2583 44.1881 6.6802C47.6101 10.1021 49.6598 14.5285 49.9611 19.1461C50.2789 24.0182 48.6407 28.5143 45.3475 31.8063C42.3254 34.8314 38.2863 36.4592 33.8732 36.4592ZM30.5644 11.2604C28.9168 11.2604 27.4541 11.8224 26.409 12.8685C25.2621 14.0164 24.6959 15.664 24.8164 17.5079C24.9535 19.6074 25.93 21.6653 27.5683 23.3035C29.2056 24.9417 31.2646 25.9182 33.3642 26.0554C35.2144 26.1759 36.8558 25.6108 38.0037 24.4628C39.1506 23.316 39.7158 21.6684 39.5963 19.8234C39.4592 17.724 38.4826 15.6661 36.8444 14.0278C35.2071 12.3896 33.1481 11.4131 31.0485 11.276C30.8854 11.2645 30.7244 11.2604 30.5644 11.2604Z" fill="#FFCE29"/>
<path d="M19.2959 14.2855C19.1203 14.2855 18.9427 14.2564 18.7681 14.193C17.9588 13.9021 17.5381 13.0077 17.83 12.1985C18.4918 10.3608 19.5244 8.73292 20.8999 7.35856C22.1683 6.09015 23.6425 5.11365 25.2808 4.45503C26.0786 4.13092 26.9866 4.52152 27.3076 5.31934C27.6286 6.1182 27.2421 7.02613 26.4422 7.34609C25.1956 7.8468 24.0726 8.59268 23.1033 9.56191C22.0551 10.6101 21.2676 11.8525 20.7627 13.256C20.5332 13.8907 19.9337 14.2855 19.2959 14.2855Z" fill="white"/>
<path opacity="0.3" d="M14.4496 18.1831C14.5628 19.9128 14.9274 21.6123 15.5123 23.2453C18.0025 22.7238 19.8028 20.4582 19.6325 17.8455C19.4143 14.487 20.5165 11.4152 22.7366 9.1952C24.9546 6.97731 28.0358 5.87719 31.3882 6.09326C34.0041 6.25532 36.2699 4.45711 36.7883 1.96392C35.1552 1.3801 33.4535 1.02275 31.7248 0.909515C26.8515 0.593712 22.3553 2.2309 19.0642 5.52295C15.77 8.81499 14.1317 13.311 14.4496 18.1831Z" fill="white"/>
<path opacity="0.15" d="M45.3464 31.8063C42.3233 34.8293 38.2821 36.4603 33.8774 36.4603C33.4826 36.4603 33.0878 36.4499 32.6827 36.4187C29.9816 36.2421 27.3533 35.4526 24.9431 34.1541L21.2759 37.8211C19.6865 36.2421 19.2605 33.7593 20.3721 31.692C21.733 29.1677 24.8808 28.2224 27.4052 29.5832C29.2129 30.5597 31.1036 31.1103 33.0255 31.235C36.4641 31.4739 39.4353 30.3727 41.6688 28.1393C43.892 25.9162 44.9932 22.8412 44.775 19.4858C44.6088 16.868 46.3957 14.5826 48.8993 14.0735C49.4811 15.7045 49.8447 17.4186 49.959 19.143C50.281 24.0151 48.6396 28.5132 45.3464 31.8063Z" fill="black"/>
</svg>
