<svg width="58" height="58" viewBox="0 0 58 58" fill="none" xmlns="http://www.w3.org/2000/svg">
<g filter="url(#filter0_f_207_200)">
<path d="M19.3445 4H5.30005C4.58205 4 4 4.60727 4 5.35638V19.2936C4 20.0427 4.58205 20.65 5.30005 20.65H19.3445C20.0625 20.65 20.6445 20.0427 20.6445 19.2936V5.35638C20.6445 4.60727 20.0625 4 19.3445 4Z" fill="black"/>
</g>
<g filter="url(#filter1_f_207_200)">
<path d="M36.0181 20.6749H21.9547C21.2367 20.6749 20.6546 21.2822 20.6546 22.0313V35.9685C20.6546 36.7177 21.2367 37.3249 21.9547 37.3249H36.0181C36.7361 37.3249 37.3181 36.7177 37.3181 35.9685V22.0313C37.3181 21.2822 36.7361 20.6749 36.0181 20.6749Z" fill="black"/>
</g>
<g filter="url(#filter2_f_207_200)">
<path d="M52.7 37.3498H38.6348C37.9168 37.3498 37.3347 37.9571 37.3347 38.7062V52.6435C37.3347 53.3926 37.9168 53.9999 38.6348 53.9999H52.7C53.418 53.9999 54 53.3926 54 52.6435V38.7062C54 37.9571 53.418 37.3498 52.7 37.3498Z" fill="black"/>
</g>
<path d="M5.26217 6.10723H4V17.7084H5.26217V6.10723Z" fill="url(#paint0_linear_207_200)"/>
<path d="M18.9124 6.13351H20.6444V17.2881H18.9124V6.13351Z" fill="url(#paint1_linear_207_200)"/>
<path d="M18.3844 4.00026H5.46936V4.94025H18.3844V4.00026Z" fill="#F3F3F3"/>
<path d="M5.12134 6.56861L4 6.17916V5.27689C4.05519 4.45372 4.7297 4.00054 5.25078 4.00054L5.48878 4.0003L5.8916 5.66773L5.12134 6.56861Z" fill="url(#paint2_linear_207_200)"/>
<path d="M18.9677 7.30543L20.6444 6.20833V5.2316C20.6052 4.77318 20.251 4.03889 19.3784 4L18.2245 4.00024L17.8264 6.01744L18.9677 7.30543Z" fill="url(#paint3_linear_207_200)"/>
<path d="M18.7158 16.8388L20.6443 17.2285V19.4186C20.6052 19.877 20.251 20.6113 19.3783 20.6502H18.3458L18.0026 18.6776L18.7158 16.8388Z" fill="url(#paint4_linear_207_200)"/>
<path d="M5.91427 17.27L4 17.1833V19.3734C4.05519 20.1966 4.7297 20.6497 5.25078 20.6497H6.29601L6.7131 18.7218L5.91427 17.27Z" fill="url(#paint5_linear_207_200)"/>
<path d="M18.3688 17.559H6.25104V20.6497H18.3688V17.559Z" fill="#B7B7B7"/>
<path d="M35.5862 22.7566H37.3181V33.9112H35.5862V22.7566Z" fill="url(#paint6_linear_207_200)"/>
<path d="M34.9477 20.6752H22.1328V21.7415H34.9477V20.6752Z" fill="#F3F3F3"/>
<path d="M21.7764 23.2435L20.655 22.8541V21.9518C20.7102 21.1287 21.3847 20.6755 21.9058 20.6755L22.1438 20.6752L22.5466 22.3427L21.7764 23.2435Z" fill="url(#paint7_linear_207_200)"/>
<path d="M35.6415 23.9803L37.3181 22.8832V21.9065C37.279 21.4481 36.9248 20.7138 36.0522 20.6749L34.8983 20.6752L34.8711 23.0795L35.6415 23.9803Z" fill="url(#paint8_linear_207_200)"/>
<path d="M52.2663 39.4315H53.9983V50.5861H52.2663V39.4315Z" fill="url(#paint9_linear_207_200)"/>
<path d="M51.6279 37.3501H38.8129V38.7218H51.6279V37.3501Z" fill="#F3F3F3"/>
<path d="M38.8155 40.4553L37.335 39.529V38.6267C37.3902 37.8036 38.0647 37.3504 38.5858 37.3504L38.8238 37.3501L39.2266 39.0176L38.8155 40.4553Z" fill="url(#paint10_linear_207_200)"/>
<path d="M52.3216 40.6553L53.9983 39.5582V38.5814C53.9591 38.123 53.6049 37.3887 52.7323 37.3498L51.5784 37.3501L51.5513 39.7544L52.3216 40.6553Z" fill="url(#paint11_linear_207_200)"/>
<path d="M35.3912 33.5137L37.3198 33.9034V36.0935C37.2806 36.5519 36.9264 37.2862 36.0538 37.3251H35.0212L34.6209 34.4146L35.3912 33.5137Z" fill="url(#paint12_linear_207_200)"/>
<path d="M39.2633 50.1436L37.3348 50.5333V52.7234C37.39 53.5465 38.0645 53.9997 38.5856 53.9997H39.6309L40.0337 51.0445L39.2633 50.1436Z" fill="url(#paint13_linear_207_200)"/>
<path d="M52.0714 50.1886L53.9999 50.5783V52.7684C53.9608 53.2268 53.6066 53.9611 52.7339 54H51.7014L51.3011 51.0895L52.0714 50.1886Z" fill="url(#paint14_linear_207_200)"/>
<path d="M22.5331 34.0692L20.6551 33.8588V36.0489C20.7103 36.8721 21.3848 37.3252 21.9059 37.3252H22.9511L23.8282 35.0543L22.5331 34.0692Z" fill="url(#paint15_linear_207_200)"/>
<path d="M35.2394 34.234H22.9508V37.3247H35.2394V34.234Z" fill="#B7B7B7"/>
<path d="M22.1191 22.704H20.6546V34.3646H22.1191V22.704Z" fill="url(#paint16_linear_207_200)"/>
<path d="M34.9347 21.4815H23.0242C22.4032 21.4815 21.8997 22.0067 21.8997 22.6547V34.7094C21.8997 35.3573 22.4032 35.8826 23.0242 35.8826H34.9347C35.5557 35.8826 36.0591 35.3573 36.0591 34.7094V22.6547C36.0591 22.0067 35.5557 21.4815 34.9347 21.4815Z" fill="url(#paint17_linear_207_200)"/>
<path d="M51.9774 50.9089H39.4601V53.9996H51.9774V50.9089Z" fill="#B7B7B7"/>
<path d="M38.8397 39.3789H37.3347V50.9207H38.8397V39.3789Z" fill="url(#paint18_linear_207_200)"/>
<path d="M51.8487 38.1564H39.9399C39.3189 38.1564 38.8155 38.6817 38.8155 39.3296V51.3843C38.8155 52.0323 39.3189 52.5575 39.9399 52.5575H51.8487C52.4697 52.5575 52.9732 52.0323 52.9732 51.3843V39.3296C52.9732 38.6817 52.4697 38.1564 51.8487 38.1564Z" fill="url(#paint19_linear_207_200)"/>
<path d="M17.843 4.80656H5.9826C5.36159 4.80656 4.85815 5.33181 4.85815 5.97974V18.0345C4.85815 18.6824 5.36159 19.2076 5.9826 19.2076H17.843C18.4641 19.2076 18.9675 18.6824 18.9675 18.0345V5.97974C18.9675 5.33181 18.4641 4.80656 17.843 4.80656Z" fill="url(#paint20_linear_207_200)"/>
<path d="M12.6481 12.5419L12.9939 13.6039H13.5102L12.2438 9.95532H11.708L10.393 13.6039H10.88L11.2453 12.5419H12.6481ZM11.3915 12.1048L11.9516 10.4991H11.9613L12.4776 12.1048H11.3915Z" fill="black"/>
<path d="M30.1106 28.1643H28.2841V26.6551H27.8116V30.3037H28.2841V28.6014H30.1106V30.3037H30.5831V26.6551H30.1106V28.1643Z" fill="black"/>
<path d="M44.9916 45.6783L45.542 45.1295L46.7646 46.9589H47.3783L45.883 44.784L47.3393 43.3103H46.6867L44.9917 45.0787V43.3103H44.5192V46.9589H44.9917L44.9916 45.6783Z" fill="black"/>
<defs>
<filter id="filter0_f_207_200" x="0.976513" y="0.976513" width="22.6915" height="22.697" filterUnits="userSpaceOnUse" color-interpolation-filters="sRGB">
<feFlood flood-opacity="0" result="BackgroundImageFix"/>
<feBlend mode="normal" in="SourceGraphic" in2="BackgroundImageFix" result="shape"/>
<feGaussianBlur stdDeviation="1.51174" result="effect1_foregroundBlur_207_200"/>
</filter>
<filter id="filter1_f_207_200" x="17.6311" y="17.6514" width="22.7105" height="22.697" filterUnits="userSpaceOnUse" color-interpolation-filters="sRGB">
<feFlood flood-opacity="0" result="BackgroundImageFix"/>
<feBlend mode="normal" in="SourceGraphic" in2="BackgroundImageFix" result="shape"/>
<feGaussianBlur stdDeviation="1.51174" result="effect1_foregroundBlur_207_200"/>
</filter>
<filter id="filter2_f_207_200" x="34.3113" y="34.3264" width="22.7122" height="22.697" filterUnits="userSpaceOnUse" color-interpolation-filters="sRGB">
<feFlood flood-opacity="0" result="BackgroundImageFix"/>
<feBlend mode="normal" in="SourceGraphic" in2="BackgroundImageFix" result="shape"/>
<feGaussianBlur stdDeviation="1.51174" result="effect1_foregroundBlur_207_200"/>
</filter>
<linearGradient id="paint0_linear_207_200" x1="4.00001" y1="17.5551" x2="6.35373" y2="6.33602" gradientUnits="userSpaceOnUse">
<stop stop-color="#CFD0D1"/>
<stop offset="1" stop-color="#DBDBDB"/>
</linearGradient>
<linearGradient id="paint1_linear_207_200" x1="20.6442" y1="17.2882" x2="18.981" y2="6.12326" gradientUnits="userSpaceOnUse">
<stop stop-color="#CFD0D1"/>
<stop offset="1" stop-color="#DBDBDB"/>
</linearGradient>
<linearGradient id="paint2_linear_207_200" x1="4.90666" y1="6.29955" x2="6.02457" y2="5.56435" gradientUnits="userSpaceOnUse">
<stop stop-color="#DBDBDB"/>
<stop offset="1" stop-color="#F3F3F3"/>
</linearGradient>
<linearGradient id="paint3_linear_207_200" x1="19.3381" y1="5.97313" x2="18.5199" y2="4.83674" gradientUnits="userSpaceOnUse">
<stop stop-color="#DBDBDB"/>
<stop offset="1" stop-color="#F3F3F3"/>
</linearGradient>
<linearGradient id="paint4_linear_207_200" x1="19.7384" y1="18.3958" x2="18.6205" y2="19.131" gradientUnits="userSpaceOnUse">
<stop stop-color="#CFD0D1"/>
<stop offset="1" stop-color="#B7B7B7"/>
</linearGradient>
<linearGradient id="paint5_linear_207_200" x1="4.90666" y1="18.3508" x2="6.02457" y2="19.086" gradientUnits="userSpaceOnUse">
<stop stop-color="#CFD0D1"/>
<stop offset="1" stop-color="#B7B7B7"/>
</linearGradient>
<linearGradient id="paint6_linear_207_200" x1="37.3179" y1="33.9113" x2="35.6547" y2="22.7464" gradientUnits="userSpaceOnUse">
<stop stop-color="#CFD0D1"/>
<stop offset="1" stop-color="#DBDBDB"/>
</linearGradient>
<linearGradient id="paint7_linear_207_200" x1="21.5614" y1="22.9745" x2="22.6793" y2="22.2393" gradientUnits="userSpaceOnUse">
<stop stop-color="#DBDBDB"/>
<stop offset="1" stop-color="#F3F3F3"/>
</linearGradient>
<linearGradient id="paint8_linear_207_200" x1="36.011" y1="22.648" x2="35.1928" y2="21.5116" gradientUnits="userSpaceOnUse">
<stop stop-color="#DBDBDB"/>
<stop offset="1" stop-color="#F3F3F3"/>
</linearGradient>
<linearGradient id="paint9_linear_207_200" x1="53.9981" y1="50.5862" x2="52.3349" y2="39.4213" gradientUnits="userSpaceOnUse">
<stop stop-color="#CFD0D1"/>
<stop offset="1" stop-color="#DBDBDB"/>
</linearGradient>
<linearGradient id="paint10_linear_207_200" x1="38.239" y1="39.6494" x2="39.3569" y2="38.9142" gradientUnits="userSpaceOnUse">
<stop stop-color="#DBDBDB"/>
<stop offset="1" stop-color="#F3F3F3"/>
</linearGradient>
<linearGradient id="paint11_linear_207_200" x1="52.6914" y1="39.323" x2="51.8731" y2="38.1866" gradientUnits="userSpaceOnUse">
<stop stop-color="#DBDBDB"/>
<stop offset="1" stop-color="#F3F3F3"/>
</linearGradient>
<linearGradient id="paint12_linear_207_200" x1="36.4139" y1="35.0707" x2="35.296" y2="35.806" gradientUnits="userSpaceOnUse">
<stop stop-color="#CFD0D1"/>
<stop offset="1" stop-color="#B7B7B7"/>
</linearGradient>
<linearGradient id="paint13_linear_207_200" x1="38.239" y1="51.7006" x2="39.3569" y2="52.4358" gradientUnits="userSpaceOnUse">
<stop stop-color="#CFD0D1"/>
<stop offset="1" stop-color="#B7B7B7"/>
</linearGradient>
<linearGradient id="paint14_linear_207_200" x1="53.0934" y1="51.7457" x2="51.9755" y2="52.4809" gradientUnits="userSpaceOnUse">
<stop stop-color="#CFD0D1"/>
<stop offset="1" stop-color="#B7B7B7"/>
</linearGradient>
<linearGradient id="paint15_linear_207_200" x1="21.5614" y1="35.0257" x2="22.6793" y2="35.7609" gradientUnits="userSpaceOnUse">
<stop stop-color="#CFD0D1"/>
<stop offset="1" stop-color="#B7B7B7"/>
</linearGradient>
<linearGradient id="paint16_linear_207_200" x1="20.6553" y1="34.3652" x2="22.7805" y2="22.8257" gradientUnits="userSpaceOnUse">
<stop stop-color="#CFD0D1"/>
<stop offset="1" stop-color="#DBDBDB"/>
</linearGradient>
<linearGradient id="paint17_linear_207_200" x1="21.9004" y1="28.6819" x2="28.9796" y2="28.6819" gradientUnits="userSpaceOnUse">
<stop stop-color="#F4F5F7"/>
<stop offset="1" stop-color="#E9EAEB"/>
</linearGradient>
<linearGradient id="paint18_linear_207_200" x1="37.3347" y1="50.9207" x2="39.3656" y2="39.4722" gradientUnits="userSpaceOnUse">
<stop stop-color="#CFD0D1"/>
<stop offset="1" stop-color="#DBDBDB"/>
</linearGradient>
<linearGradient id="paint19_linear_207_200" x1="38.8157" y1="45.3568" x2="45.8942" y2="45.3568" gradientUnits="userSpaceOnUse">
<stop stop-color="#F4F5F7"/>
<stop offset="1" stop-color="#E9EAEB"/>
</linearGradient>
<linearGradient id="paint20_linear_207_200" x1="4.85815" y1="12.0069" x2="11.9127" y2="12.0069" gradientUnits="userSpaceOnUse">
<stop stop-color="#F4F5F7"/>
<stop offset="1" stop-color="#E9EAEB"/>
</linearGradient>
</defs>
</svg>
