<svg width="50" height="50" viewBox="0 0 50 50" fill="none" xmlns="http://www.w3.org/2000/svg">
<path d="M38.1836 7.91016H41.1133V1.46484C41.1133 0.655859 40.4574 0 39.6484 0C38.8395 0 38.1836 0.655859 38.1836 1.46484V7.91016ZM32.3242 7.91016H35.2539V1.46484C35.2539 0.655859 34.598 0 33.7891 0C32.9801 0 32.3242 0.655859 32.3242 1.46484V7.91016ZM26.4648 7.91016H29.3945V1.46484C29.3945 0.655859 28.7387 0 27.9297 0C27.1207 0 26.4648 0.655859 26.4648 1.46484V7.91016Z" fill="#39326C"/>
<path d="M20.6055 7.91016H23.5352V1.46484C23.5352 0.655859 22.8793 0 22.0703 0C21.2613 0 20.6055 0.655859 20.6055 1.46484V7.91016ZM14.7461 7.91016H17.6758V1.46484C17.6758 0.655859 17.0199 0 16.2109 0C15.402 0 14.7461 0.655859 14.7461 1.46484V7.91016ZM8.88672 7.91016H11.8164V1.46484C11.8164 0.655859 11.1605 0 10.3516 0C9.54258 0 8.88672 0.655859 8.88672 1.46484V7.91016Z" fill="#5F55AF"/>
<path d="M39.6484 50C40.4574 50 41.1133 49.3441 41.1133 48.5352V42.0898H38.1836V48.5352C38.1836 49.3441 38.8395 50 39.6484 50ZM33.7891 50C34.598 50 35.2539 49.3441 35.2539 48.5352V42.0898H32.3242V48.5352C32.3242 49.3441 32.9801 50 33.7891 50ZM27.9297 50C28.7387 50 29.3945 49.3441 29.3945 48.5352V42.0898H26.4648V48.5352C26.4648 49.3441 27.1207 50 27.9297 50Z" fill="#39326C"/>
<path d="M22.0703 50C22.8793 50 23.5352 49.3441 23.5352 48.5352V42.0898H20.6055V48.5352C20.6055 49.3441 21.2613 50 22.0703 50ZM16.2109 50C17.0199 50 17.6758 49.3441 17.6758 48.5352V42.0898H14.7461V48.5352C14.7461 49.3441 15.402 50 16.2109 50ZM10.3516 50C11.1605 50 11.8164 49.3441 11.8164 48.5352V42.0898H8.88672V48.5352C8.88672 49.3441 9.54258 50 10.3516 50ZM1.46484 11.8164H7.91016V8.88672H1.46484C0.655859 8.88672 0 9.54258 0 10.3516C0 11.1605 0.655859 11.8164 1.46484 11.8164ZM1.46484 17.6758H7.91016V14.7461H1.46484C0.655859 14.7461 0 15.402 0 16.2109C0 17.0199 0.655859 17.6758 1.46484 17.6758ZM1.46484 23.5352H7.91016V20.6055H1.46484C0.655859 20.6055 0 21.2613 0 22.0703C0 22.8793 0.655859 23.5352 1.46484 23.5352ZM1.46484 29.3945H7.91016V26.4648H1.46484C0.655859 26.4648 0 27.1207 0 27.9297C0 28.7387 0.655859 29.3945 1.46484 29.3945ZM1.46484 35.2539H7.91016V32.3242H1.46484C0.655859 32.3242 0 32.9801 0 33.7891C0 34.598 0.655859 35.2539 1.46484 35.2539ZM1.46484 41.1133H7.91016V38.1836H1.46484C0.655859 38.1836 0 38.8395 0 39.6484C0 40.4574 0.655859 41.1133 1.46484 41.1133Z" fill="#5F55AF"/>
<path d="M42.0898 8.88672V11.8164H48.5352C49.3441 11.8164 50 11.1605 50 10.3516C50 9.54258 49.3441 8.88672 48.5352 8.88672H42.0898ZM42.0898 17.6758H48.5352C49.3441 17.6758 50 17.0199 50 16.2109C50 15.402 49.3441 14.7461 48.5352 14.7461H42.0898V17.6758ZM42.0898 23.5352H48.5352C49.3441 23.5352 50 22.8793 50 22.0703C50 21.2613 49.3441 20.6055 48.5352 20.6055H42.0898V23.5352ZM42.0898 29.3945H48.5352C49.3441 29.3945 50 28.7387 50 27.9297C50 27.1207 49.3441 26.4648 48.5352 26.4648H42.0898V29.3945ZM42.0898 35.2539H48.5352C49.3441 35.2539 50 34.598 50 33.7891C50 32.9801 49.3441 32.3242 48.5352 32.3242H42.0898V35.2539ZM42.0898 41.1133H48.5352C49.3441 41.1133 50 40.4574 50 39.6484C50 38.8395 49.3441 38.1836 48.5352 38.1836H42.0898V41.1133Z" fill="#39326C"/>
<path d="M43.5547 4.98047H6.44531C5.63633 4.98047 4.98047 5.63633 4.98047 6.44531V43.5547C4.98047 44.3637 5.63633 45.0195 6.44531 45.0195H43.5547C44.3637 45.0195 45.0195 44.3637 45.0195 43.5547V6.44531C45.0195 5.63633 44.3637 4.98047 43.5547 4.98047Z" fill="#AED0FF"/>
<path d="M45.0195 43.5547V6.44531C45.0195 5.63633 44.3637 4.98047 43.5547 4.98047H25V45.0195H43.5547C44.3637 45.0195 45.0195 44.3637 45.0195 43.5547Z" fill="#7C84E8"/>
<path d="M37.6953 10.8398H12.3047C11.4957 10.8398 10.8398 11.4957 10.8398 12.3047V37.6953C10.8398 38.5043 11.4957 39.1602 12.3047 39.1602H37.6953C38.5043 39.1602 39.1602 38.5043 39.1602 37.6953V12.3047C39.1602 11.4957 38.5043 10.8398 37.6953 10.8398Z" fill="#5F55AF"/>
<path d="M39.1602 37.6953V12.3047C39.1602 11.4957 38.5043 10.8398 37.6953 10.8398H25V39.1602H37.6953C38.5043 39.1602 39.1602 38.5043 39.1602 37.6953Z" fill="#39326C"/>
<path d="M24.1822 18.788C24.0578 18.4603 23.8365 18.1784 23.5478 17.9796C23.259 17.7809 22.9166 17.6749 22.5661 17.6758H22.5644C22.2148 17.6753 21.8734 17.7811 21.5854 17.979C21.2973 18.177 21.0762 18.4578 20.9514 18.7843L16.551 30.338C16.263 31.094 16.6425 31.9403 17.3985 32.2282C18.1546 32.5163 19.0009 32.1367 19.2888 31.3807L20.0254 29.4467H25.0734L25.8017 31.3766C26.0231 31.9632 26.5804 32.3246 27.1724 32.3246C27.3443 32.3246 27.5191 32.2941 27.6894 32.2299C28.4462 31.9442 28.8283 31.0991 28.5426 30.3422L24.1822 18.788ZM21.1412 26.5171L22.561 22.7895L23.9678 26.5171H21.1412Z" fill="#F9F9F9"/>
<path d="M25.8017 31.3766C26.023 31.9632 26.5804 32.3246 27.1724 32.3246C27.3442 32.3246 27.519 32.2941 27.6894 32.2299C28.4462 31.9442 28.8283 31.0991 28.5426 30.3422L25 20.9549V29.4467H25.0733L25.8017 31.3766ZM32.0801 17.6758C31.2711 17.6758 30.6152 18.3316 30.6152 19.1406V30.8594C30.6152 31.6684 31.2711 32.3242 32.0801 32.3242C32.8891 32.3242 33.5449 31.6684 33.5449 30.8594V19.1406C33.5449 18.3316 32.8891 17.6758 32.0801 17.6758Z" fill="#E2DFF4"/>
</svg>
