<svg width="50" height="50" viewBox="0 0 50 50" fill="none" xmlns="http://www.w3.org/2000/svg">
<path d="M45.8333 45.9722H4.16667C1.80556 45.9722 0 44.1667 0 41.8056V4.16667C0 1.80556 1.80556 0 4.16667 0H45.8333C48.1944 0 50 1.80556 50 4.16667V41.8056C50 44.0278 48.1944 45.9722 45.8333 45.9722Z" fill="#FF8F00"/>
<path d="M45.8333 50H4.16667C1.80556 50 0 48.1944 0 45.8333V11.1111C0 8.75 1.80556 6.94444 4.16667 6.94444H45.8333C48.1944 6.94444 50 8.75 50 11.1111V45.8333C50 48.1944 48.1944 50 45.8333 50Z" fill="#DD2C00"/>
<path d="M12.5 12.5C11.7633 12.5 11.0567 12.7927 10.5358 13.3136C10.0149 13.8345 9.72222 14.5411 9.72222 15.2778C9.72222 16.0145 10.0149 16.721 10.5358 17.242C11.0567 17.7629 11.7633 18.0556 12.5 18.0556C13.2367 18.0556 13.9433 17.7629 14.4642 17.242C14.9851 16.721 15.2778 16.0145 15.2778 15.2778C15.2778 14.5411 14.9851 13.8345 14.4642 13.3136C13.9433 12.7927 13.2367 12.5 12.5 12.5ZM37.5 12.5C36.7633 12.5 36.0567 12.7927 35.5358 13.3136C35.0149 13.8345 34.7222 14.5411 34.7222 15.2778C34.7222 16.0145 35.0149 16.721 35.5358 17.242C36.0567 17.7629 36.7633 18.0556 37.5 18.0556C38.2367 18.0556 38.9433 17.7629 39.4642 17.242C39.9851 16.721 40.2778 16.0145 40.2778 15.2778C40.2778 14.5411 39.9851 13.8345 39.4642 13.3136C38.9433 12.7927 38.2367 12.5 37.5 12.5Z" fill="#B71C1C"/>
<path d="M25 29.1667C17.3611 29.1667 11.1111 22.9167 11.1111 15.2778C11.1111 14.4444 11.6667 13.8889 12.5 13.8889C13.3333 13.8889 13.8889 14.4444 13.8889 15.2778C13.8889 21.3889 18.8889 26.3889 25 26.3889C31.1111 26.3889 36.1111 21.3889 36.1111 15.2778C36.1111 14.4444 36.6667 13.8889 37.5 13.8889C38.3333 13.8889 38.8889 14.4444 38.8889 15.2778C38.8889 22.9167 32.6389 29.1667 25 29.1667Z" fill="white"/>
</svg>
