<svg width="50.000000" height="50.000000" viewBox="0 0 50 50" fill="none" xmlns="http://www.w3.org/2000/svg" xmlns:xlink="http://www.w3.org/1999/xlink">
	<desc>
			Created with Pixso.
	</desc>
	<defs/>
	<mask id="mask119_38" mask-type="alpha" maskUnits="userSpaceOnUse" x="0.000000" y="0.000000" width="50.000000" height="50.000000">
		<path id="path" d="M49.98 17.92C50 17.94 50 17.98 49.97 17.99C49.76 18.1 49.55 18.22 49.33 18.32C47.64 19.1 46.03 20 44.66 21.3C44.2 21.75 43.77 22.25 43.38 22.77C43 23.26 42.88 23.86 42.88 24.48C42.88 24.57 42.9 24.67 42.91 24.77C42.93 24.88 43.01 24.96 43.12 24.96L44.94 24.96C45.05 24.96 45.15 25.06 45.14 25.18C45.1 25.93 44.84 26.59 44.4 27.13C43.8 27.87 43.55 28.75 43.27 29.64C42.86 30.93 42.83 32.25 42.93 33.57C43.03 34.94 42.54 36.04 41.75 37.06C41.13 37.86 40.53 38.68 39.91 39.49C39.28 40.31 39.05 41.25 39.11 42.29C39.2 43.64 39.51 44.93 39.79 46.24C40.02 47.31 40.09 48.41 40.23 49.5C40.24 49.53 40.24 49.56 40.24 49.6C40.23 49.75 40.07 49.84 39.94 49.79C39.73 49.7 39.55 49.63 39.39 49.51C38.6 48.93 38.12 48.1 37.72 47.21C37.53 46.77 37.35 46.34 37.16 45.91C37.14 45.86 37.1 45.82 37.05 45.8C36.52 45.58 36.36 45.44 36.21 45.07C36.17 44.99 36.1 44.93 36.02 44.93C35.19 44.92 34.36 45.01 33.57 45.29C32.14 45.81 30.72 46.31 29.31 46.88C27.75 47.51 26.13 47.64 24.5 47.43C22.94 47.24 21.4 46.89 19.85 46.61C19.33 46.52 18.8 46.47 18.28 46.39C18.15 46.37 18.02 46.31 17.9 46.25C16.96 45.78 16.04 45.28 15.09 44.82C14.06 44.33 13.27 44.68 12.89 45.77C12.73 46.23 12.64 46.7 12.48 47.15C12.25 47.84 12.01 48.53 11.74 49.2C11.56 49.67 11.22 49.91 10.71 49.99C10.59 50.01 10.48 49.9 10.49 49.77C10.53 49.34 10.55 48.92 10.62 48.51C10.76 47.64 11.01 46.78 11.1 45.9C11.18 45.02 11.14 44.12 11.13 43.24C11.13 43.11 11.02 42.96 10.92 42.86C10.22 42.12 9.53 41.39 8.81 40.67C8.06 39.91 7.33 39.13 6.82 38.17C6.37 37.3 5.65 37.18 4.86 37.34C3.58 37.6 2.32 37.93 1.05 38.24C0.73 38.32 0.42 38.4 0.1 38.49C0.06 38.5 0.02 38.48 0.01 38.44C-0.01 38.41 -0.01 38.36 0.02 38.33C0.17 38.17 0.31 38.01 0.48 37.86C1.44 37.03 2.42 36.23 3.37 35.39C3.94 34.89 4.46 34.33 4.99 33.78C5.09 33.67 5.16 33.46 5.15 33.3C4.89 29.36 5.77 25.66 7.34 22.11C8.01 20.62 8.7 19.14 9.39 17.61C9.43 17.53 9.5 17.49 9.59 17.48C10.16 17.43 10.25 16.81 10.48 16.36C10.63 16.07 10.75 15.75 10.87 15.42C10.92 15.28 11.09 15.24 11.2 15.35C11.27 15.42 11.35 15.49 11.43 15.57C11.51 15.65 11.63 15.65 11.72 15.57C11.91 15.39 12.11 15.21 12.26 15C12.85 14.12 13.43 13.24 13.97 12.32C14.21 11.9 14.49 11.64 14.96 11.5C16.54 11.04 18.11 10.53 19.67 10.04C19.72 10.02 19.77 9.99 19.79 9.95C19.79 9.94 19.79 9.93 19.8 9.93C19.91 8.96 19.99 8.88 20.93 8.72C21.94 8.55 22.57 7.99 22.74 6.93C22.91 5.88 22.96 4.8 23.06 3.74C23.14 2.84 23.2 1.94 23.3 1.04C23.36 0.51 23.5 0.24 23.83 0.03C23.93 -0.04 24.05 0.01 24.11 0.11C24.28 0.47 24.48 0.82 24.59 1.19C24.92 2.25 25.18 3.33 25.5 4.39C25.78 5.31 26.07 6.22 26.4 7.11C26.84 8.3 27.75 8.81 28.95 8.83C29.41 8.84 29.87 8.85 30.34 8.83C30.9 8.81 31.43 8.93 31.88 9.27C33.1 10.18 34.34 11.08 35.51 12.06C36.4 12.79 37.2 13.62 38.08 14.45C38.13 14.5 38.21 14.51 38.28 14.5C38.7 14.43 39.08 14.65 39.46 14.92C39.54 14.98 39.57 15.09 39.53 15.19C39.41 15.44 39.29 15.69 39.17 15.95C39.12 16.06 39.17 16.2 39.28 16.25C40.15 16.66 40.77 17.38 41.46 18.01C41.7 18.23 41.96 18.44 42.22 18.64C42.71 19.03 43.25 19.11 43.84 18.96C44.98 18.66 46.13 18.35 47.28 18.09C48.17 17.89 49.02 17.78 49.96 17.92C49.97 17.92 49.97 17.92 49.98 17.92ZM25.79 43.76C26.73 43.76 27.66 43.77 28.6 43.76C28.85 43.75 29.13 43.71 29.34 43.6C30.52 42.98 31.7 42.38 32.84 41.69C34.01 40.99 34.11 40.64 33.76 39.26C33.45 38.02 32.87 36.9 32.26 35.8C31.53 34.5 30.97 33.17 30.93 31.64C30.91 30.83 30.69 30.06 30.32 29.33C29.99 28.69 29.49 28.39 28.81 28.38C26.92 28.36 25.07 28.59 23.27 29.22C18.63 30.86 15.79 34.83 15.72 39.79C15.7 40.99 16.2 41.8 17.2 42.27C17.91 42.6 18.64 42.88 19.37 43.11C21.46 43.78 23.62 43.84 25.79 43.76ZM9.21 30.99C9.4 30.97 9.53 30.97 9.66 30.95C11.31 30.67 12.85 30.04 14.33 29.28C14.8 29.03 15.24 28.72 15.67 28.4C15.83 28.28 15.97 28.06 16.03 27.86C17.28 23.84 18.51 19.82 19.74 15.79C19.76 15.75 19.77 15.71 19.78 15.66C19.8 15.55 19.73 15.43 19.62 15.42C19.17 15.37 18.78 15.52 18.41 15.75C16.96 16.64 15.62 17.67 14.4 18.86C12.61 20.6 11.1 22.55 10.2 24.96C9.49 26.88 9.23 28.87 9.21 30.99ZM39.42 24.39C39.29 24.39 39.17 24.37 39.06 24.4C38.47 24.5 37.88 24.59 37.3 24.74C36.06 25.07 34.87 25.53 33.75 26.19C33.13 26.57 33.02 26.81 33.14 27.54C33.19 27.8 33.23 28.07 33.31 28.32C33.81 29.9 34.28 31.49 34.84 33.04C35.34 34.39 35.95 35.7 36.53 37.01C36.61 37.18 36.73 37.32 36.86 37.48C36.96 37.59 37.14 37.58 37.21 37.44C37.85 36.24 38.32 35.08 38.62 33.84C39.36 30.8 39.48 27.69 39.45 24.57C39.45 24.52 39.44 24.47 39.42 24.39ZM20.12 26.33C20.2 26.34 20.27 26.36 20.33 26.36C21.65 26.36 22.96 26.26 24.24 25.92C25.12 25.68 25.94 25.34 26.7 24.81C27.28 24.4 27.55 23.83 27.45 23.11C27.38 22.64 27.3 22.16 27.15 21.71C26.43 19.51 25.28 17.53 24.17 15.53C23.99 15.23 23.7 15.24 23.52 15.53C23.42 15.69 23.35 15.86 23.29 16.03C23.01 16.84 22.74 17.64 22.48 18.46C21.71 21 20.94 23.53 20.18 26.07C20.15 26.15 20.14 26.23 20.12 26.33ZM28.3 14.8L28.2 14.9C28.19 14.92 28.18 14.94 28.19 14.96C28.75 16.77 29.29 18.58 29.9 20.38C30.12 21.05 30.47 21.68 30.8 22.31C31.1 22.88 31.59 23.09 32.24 23.03C33.84 22.88 35.15 22.01 36.5 21.31C36.56 21.28 36.61 21.22 36.61 21.15C36.66 20.55 36.5 20.06 36.17 19.63C35.94 19.33 35.71 19.02 35.44 18.77C33.65 17.12 31.62 15.87 29.36 15.02C29.02 14.9 28.65 14.87 28.3 14.8ZM12.12 38.72C12.17 38.7 12.21 38.65 12.22 38.59C12.58 37.3 12.94 36.02 13.28 34.73C13.32 34.56 13.34 34.39 13.35 34.2C13.36 34.07 13.26 33.95 13.13 33.96C12.06 34.05 11.1 34.26 10.29 34.98C9.98 35.25 9.72 35.61 9.8 36.04C9.98 37.1 10.42 38.02 11.33 38.63C11.57 38.79 11.83 38.85 12.12 38.72Z" fill="#FFFFFF" fill-opacity="1.000000" fill-rule="nonzero"/>
	</mask>
	<g mask="url(#mask119_38)">
		<path id="path" d="M18.68 40.74C18.63 41.39 18.46 42.07 18.56 42.69C18.81 44.26 17.68 44.14 16.84 44.22C15.93 44.32 15.16 45.27 14.15 44.73C14.2 44.66 14.23 44.61 14.28 44.54C15.47 43.7 16.11 42.15 17.68 41.74C17.99 41.67 17.97 40.72 18.68 40.74Z" fill="#F3AC49" fill-opacity="1.000000" fill-rule="nonzero"/>
		<path id="path" d="M-0.49 25.39C-0.49 16.57 -0.49 7.75 -0.5 -1.06C-0.5 -1.32 -0.45 -1.37 -0.21 -1.37C16.79 -1.36 33.78 -1.36 50.78 -1.37C51.02 -1.37 51.07 -1.32 51.07 -1.06C51.06 16.59 51.06 34.26 51.07 51.91C51.07 52.17 51.02 52.22 50.78 52.22C33.78 52.21 16.79 52.21 -0.21 52.22C-0.45 52.22 -0.5 52.17 -0.5 51.91C-0.49 43.07 -0.49 34.23 -0.49 25.39ZM-0.03 27.82C-0.03 35.49 -0.03 43.16 -0.03 50.83C0.11 51.12 -0.41 51.74 0.28 51.74C15.37 51.76 30.47 51.76 45.57 51.75C45.7 51.75 45.95 51.56 45.94 51.52C45.67 50.3 46.4 50.38 47.17 50.42C48.01 50.46 48.85 50.41 49.7 50.43C50 50.44 50.07 50.35 50.07 50.03C50.06 46.49 50.06 42.95 50.06 39.4C50.06 26.11 50.06 12.81 50.05 -0.48C49.99 -0.53 49.94 -0.62 49.88 -0.62C48.33 -0.62 46.79 -0.62 45.24 -0.6C45.17 -0.6 45.01 -0.34 45.01 -0.22C45 4.3 45.01 8.8 45.07 13.31C45.09 14.38 44.52 14.81 43.7 15.07C43.43 15.14 43.18 15.18 42.91 15.25C41.87 15.25 40.79 14.92 40.35 16.53C40.07 17.54 39.16 18.37 38.53 19.27C38.24 19.5 37.97 19.78 37.65 19.94C36.15 20.69 34.74 19.52 33.15 19.75C31.39 20.01 30.24 20.51 30.18 22.43C30.18 22.52 31.08 24.37 29.42 23.31C29.35 23.26 29.25 23.31 29.15 23.31C27.95 22.48 26.51 23.33 25.28 22.7C25.23 22.6 25.18 22.51 25.12 22.41C25.13 21.91 25.17 21.41 25.13 20.91C25.06 20.22 25.16 19.82 25.99 19.97C26.49 20.06 27.29 20.23 27.47 19.66C28.13 17.6 29.12 15.72 29.97 13.77C30.46 12.64 29.33 11.56 29.19 10.4C29.05 9.3 28.17 8.35 28.51 7.17C28.99 5.54 30.12 4.31 31.03 2.95C31.13 2.85 31.22 2.75 31.32 2.65C32.11 1.44 33.02 0.39 34.43 -0.05C34.65 -0.17 35.12 0.05 35.05 -0.42C34.99 -0.82 34.58 -0.61 34.35 -0.61C23.32 -0.61 12.28 -0.58 1.24 -0.65C-0.05 -0.66 -0.25 -0.2 -0.04 0.89C-0.04 9.56 -0.04 18.25 -0.04 26.92C-0.03 27.22 -0.03 27.52 -0.03 27.82ZM38.16 5.91C38.14 5.91 38.13 5.91 38.11 5.91C38.11 3.94 38.11 1.98 38.11 0.01C38.11 -0.21 38.2 -0.49 37.8 -0.48C37.41 -0.47 37.52 -0.18 37.52 0.02C37.49 3.86 37.47 7.7 37.44 11.54C37.44 11.97 37.62 12.24 37.99 12.39C38.02 12.41 38.15 12.28 38.15 12.23C38.16 10.12 38.16 8.02 38.16 5.91Z" fill="#F4ACBA" fill-opacity="1.000000" fill-rule="nonzero"/>
		<path id="path" d="M50.04 -0.46C50.04 12.83 50.04 26.12 50.05 39.41C50.05 42.96 50.05 46.5 50.06 50.05C50.06 50.36 49.99 50.45 49.68 50.45C48.84 50.42 48 50.47 47.16 50.43C46.38 50.39 45.65 50.31 45.92 51.53C45.94 51.58 45.69 51.76 45.56 51.76C30.46 51.77 15.36 51.77 0.26 51.76C-0.43 51.76 0.09 51.13 -0.05 50.84C0.03 50.76 0.11 50.68 0.18 50.6C0.97 49.69 1.75 48.78 2.53 47.88C5.32 47.83 8.11 47.82 10.9 47.68C11.23 47.67 11.3 48.75 11.69 47.84C11.83 47.53 12.08 47.27 12.28 46.99C12.23 47.2 12.09 47.47 12.16 47.61C12.38 48.02 12.54 47.56 12.65 47.47C13.35 46.89 13.95 47.55 14.53 47.7C14.91 47.8 15.17 48.48 15.45 48.92C15.71 49.3 15.92 49.71 16.15 50.11C16.17 49.78 16.2 49.45 16.2 49.13C16.21 48.83 16.17 48.53 16.21 48.23C16.33 47.29 16.13 46.4 17.29 45.69C18.22 45.12 19.61 44.38 19.36 42.65C19.25 41.91 19.36 41.15 19.37 40.39C20.09 39.85 20.82 39.31 21.54 38.77C22.56 37.86 23.73 37.28 25 36.88C25.03 36.88 25.07 36.88 25.11 36.88C25.16 36.85 25.23 36.82 25.29 36.8C26.71 36.95 26.55 35.73 26.8 34.88C28.64 34.16 30.72 35.56 32.49 34.14C32.98 33.74 33.63 33.53 34.03 33.07C34.69 32.31 35.38 31.73 36.4 31.55C36.96 31.46 37.87 31.84 38.03 31.09C38.19 30.31 37.9 29.44 37.81 28.6C38.15 28.15 38.49 27.71 38.84 27.26C39.12 26.33 39.71 27.04 40.14 27.03C41.59 26.96 41.82 25.58 42.49 24.71C43.74 23.11 44.49 21.2 45.1 19.29C45.69 17.48 45.14 15.57 45.14 13.7C45.14 9.12 45.14 4.54 45.14 -0.05C45.14 -0.17 45.2 -0.3 45.23 -0.42C45.32 -0.37 45.4 -0.34 45.48 -0.29C45.43 -0.27 45.36 -0.25 45.3 -0.23C45.32 -0.2 45.34 -0.18 45.36 -0.15C45.4 -0.2 45.45 -0.24 45.48 -0.29C47.02 -0.37 48.52 -0.42 50.04 -0.46Z" fill="#F18928" fill-opacity="1.000000" fill-rule="nonzero"/>
		<path id="path" d="M45.48 -0.29C45.45 -0.24 45.4 -0.2 45.36 -0.15C45.34 -0.18 45.32 -0.2 45.3 -0.23C45.36 -0.25 45.43 -0.27 45.48 -0.29C47.02 -0.37 48.52 -0.42 50.04 -0.46C50.04 12.83 50.04 26.12 50.05 39.41C50.05 42.96 50.05 46.5 50.06 50.05C50.06 50.36 49.99 50.45 49.68 50.45C48.84 50.42 48 50.47 47.16 50.43C46.38 50.39 45.65 50.31 45.92 51.53C45.94 51.58 45.69 51.76 45.56 51.76C30.46 51.77 15.36 51.77 0.26 51.76C-0.43 51.76 0.09 51.13 -0.05 50.84C0.03 50.76 0.11 50.68 0.18 50.6C0.97 49.69 1.75 48.78 2.53 47.88C5.32 47.83 8.11 47.82 10.9 47.68C11.23 47.67 11.3 48.75 11.69 47.84C11.83 47.53 12.08 47.27 12.28 46.99C12.23 47.2 12.09 47.47 12.16 47.61C12.38 48.02 12.54 47.56 12.65 47.47C13.35 46.89 13.95 47.55 14.53 47.7C14.91 47.8 15.17 48.48 15.45 48.92C15.71 49.3 15.92 49.71 16.15 50.11C16.17 49.78 16.2 49.45 16.2 49.13C16.21 48.83 16.17 48.53 16.21 48.23C16.33 47.29 16.13 46.4 17.29 45.69C18.22 45.12 19.61 44.38 19.36 42.65C19.25 41.91 19.36 41.15 19.37 40.39C20.09 39.85 20.82 39.31 21.54 38.77C22.56 37.86 23.73 37.28 25 36.88C25.03 36.88 25.07 36.88 25.11 36.88C25.16 36.85 25.23 36.82 25.29 36.8C26.71 36.95 26.55 35.73 26.8 34.88C28.64 34.16 30.72 35.56 32.49 34.14C32.98 33.74 33.63 33.53 34.03 33.07C34.69 32.31 35.38 31.73 36.4 31.55C36.96 31.46 37.87 31.84 38.03 31.09C38.19 30.31 37.9 29.44 37.81 28.6C38.15 28.15 38.49 27.71 38.84 27.26C39.12 26.33 39.71 27.04 40.14 27.03C41.59 26.96 41.82 25.58 42.49 24.71C43.74 23.11 44.49 21.2 45.1 19.29C45.69 17.48 45.14 15.57 45.14 13.7C45.14 9.12 45.14 4.54 45.14 -0.05C45.14 -0.17 45.2 -0.3 45.23 -0.42C45.32 -0.37 45.4 -0.34 45.48 -0.29" stroke="#F18928" stroke-opacity="1.000000" stroke-width="0.755388"/>
		<path id="path" d="M-0.05 26.92C-0.05 18.25 -0.05 9.56 -0.05 0.89C-0.02 0.89 0.03 0.88 0.06 0.88C4.44 0.88 8.82 0.93 13.2 0.85C14.4 0.83 15.22 1.17 16.02 2.08C16.79 2.93 17.75 3.59 18.63 4.33C19.41 5.04 19.05 6.09 19.03 6.85C18.97 9.03 18.97 11.24 18.29 13.37C18.13 13.9 18.15 14.5 17.98 15.04C17.62 16.16 18.26 17.41 17.44 18.5C16.77 19.38 16.3 20.42 15.75 21.38C15.26 22.2 14.55 22.89 14.45 23.92C14.4 23.93 14.35 23.94 14.3 23.96C13.24 23.74 11.96 24.95 11.09 23.43C11.09 23.43 11.03 23.45 11.02 23.46C10.77 24.31 9.92 24.34 9.36 24.49C6.91 25.15 4.38 25.12 1.88 24.94C0.26 24.82 -0.25 25.34 0.05 26.91C0.02 26.92 -0.02 26.92 -0.05 26.92Z" fill="#66BCB2" fill-opacity="1.000000" fill-rule="nonzero"/>
		<path id="path" d="M-0.05 0.89C-0.02 0.89 0.03 0.88 0.06 0.88C4.44 0.88 8.82 0.93 13.2 0.85C14.4 0.83 15.22 1.17 16.02 2.08C16.79 2.93 17.75 3.59 18.63 4.33C19.41 5.04 19.05 6.09 19.03 6.85C18.97 9.03 18.97 11.24 18.29 13.37C18.13 13.9 18.15 14.5 17.98 15.04C17.62 16.16 18.26 17.41 17.44 18.5C16.77 19.38 16.3 20.42 15.75 21.38C15.26 22.2 14.55 22.89 14.45 23.92C14.4 23.93 14.35 23.94 14.3 23.96C13.24 23.74 11.96 24.95 11.09 23.43C11.09 23.43 11.03 23.45 11.02 23.46C10.77 24.31 9.92 24.34 9.36 24.49C6.91 25.15 4.38 25.12 1.88 24.94C0.26 24.82 -0.25 25.34 0.05 26.91C0.02 26.92 -0.02 26.92 -0.05 26.92C-0.05 18.25 -0.05 9.56 -0.05 0.89Z" stroke="#66BCB2" stroke-opacity="1.000000" stroke-width="0.755388"/>
		<path id="path" d="M15.76 21.38C16.31 20.41 16.78 19.37 17.44 18.49C18.27 17.4 17.62 16.15 17.98 15.03C18.16 14.5 18.13 13.9 18.3 13.36C18.97 11.24 18.97 9.02 19.03 6.84C19.06 6.08 19.41 5.04 18.64 4.33C19.69 4.83 21.1 4.21 21.87 5.71C22.52 6.97 23.47 5.39 24.3 5.69C24.45 5.18 24.87 4.83 24.88 4.19C24.9 3.69 25.03 2.59 25.62 2.75C27.43 3.24 29.23 2.63 31.01 2.97C30.1 4.33 28.96 5.56 28.49 7.19C28.15 8.37 29.03 9.32 29.17 10.43C29.31 11.58 30.44 12.66 29.95 13.79C29.1 15.75 28.11 17.63 27.45 19.68C27.27 20.25 26.47 20.08 25.97 19.99C25.13 19.84 25.04 20.23 25.11 20.93C25.15 21.43 25.11 21.93 25.1 22.43C24.08 22.38 23.07 22.36 22.06 22.26C21.76 22.23 21.47 22.02 21.17 21.89C21.32 21.59 21.18 21.12 21.67 21.02C21.72 21.02 21.81 20.83 21.79 20.79C21.51 20.39 21.21 20 20.91 19.62C20.9 19.61 20.73 19.71 20.66 19.78C19.35 21.35 17.85 22.36 15.76 21.38Z" fill="#7EBAD2" fill-opacity="1.000000" fill-rule="nonzero"/>
		<path id="path" d="M17.44 18.49C18.27 17.4 17.62 16.15 17.98 15.03C18.16 14.5 18.13 13.9 18.3 13.36C18.97 11.24 18.97 9.02 19.03 6.84C19.06 6.08 19.41 5.04 18.64 4.33C19.69 4.83 21.1 4.21 21.87 5.71C22.52 6.97 23.47 5.39 24.3 5.69C24.45 5.18 24.87 4.83 24.88 4.19C24.9 3.69 25.03 2.59 25.62 2.75C27.43 3.24 29.23 2.63 31.01 2.97C30.1 4.33 28.96 5.56 28.49 7.19C28.15 8.37 29.03 9.32 29.17 10.43C29.31 11.58 30.44 12.66 29.95 13.79C29.1 15.75 28.11 17.63 27.45 19.68C27.27 20.25 26.47 20.08 25.97 19.99C25.13 19.84 25.04 20.23 25.11 20.93C25.15 21.43 25.11 21.93 25.1 22.43C24.08 22.38 23.07 22.36 22.06 22.26C21.76 22.23 21.47 22.02 21.17 21.89C21.32 21.59 21.18 21.12 21.67 21.02C21.72 21.02 21.81 20.83 21.79 20.79C21.51 20.39 21.21 20 20.91 19.62C20.9 19.61 20.73 19.71 20.66 19.78C19.35 21.35 17.85 22.36 15.76 21.38C16.31 20.41 16.78 19.37 17.44 18.49Z" stroke="#7EBAD2" stroke-opacity="1.000000" stroke-width="0.755388"/>
		<path id="path" d="M31.02 2.97C29.24 2.64 27.43 3.24 25.63 2.75C25.03 2.59 24.9 3.69 24.89 4.19C24.87 4.83 24.46 5.18 24.31 5.69C23.48 5.39 22.53 6.97 21.88 5.71C21.11 4.21 19.7 4.83 18.65 4.33C17.77 3.58 16.79 2.93 16.04 2.07C15.24 1.17 14.4 0.82 13.21 0.85C8.82 0.93 4.44 0.88 0.06 0.88C0.29 0.46 -0.44 -0.44 0.49 -0.45C11.36 -0.49 22.23 -0.48 33.1 -0.45C33.54 -0.45 33.97 -0.17 34.41 -0.02C33 0.4 32.09 1.46 31.3 2.67C31.21 2.77 31.11 2.87 31.02 2.97Z" fill="#6E9ACA" fill-opacity="1.000000" fill-rule="nonzero"/>
		<path id="path" d="M25.63 2.75C25.03 2.59 24.9 3.69 24.89 4.19C24.87 4.83 24.46 5.18 24.31 5.69C23.48 5.39 22.53 6.97 21.88 5.71C21.11 4.21 19.7 4.83 18.65 4.33C17.77 3.58 16.79 2.93 16.04 2.07C15.24 1.17 14.4 0.82 13.21 0.85C8.82 0.93 4.44 0.88 0.06 0.88C0.29 0.46 -0.44 -0.44 0.49 -0.45C11.36 -0.49 22.23 -0.48 33.1 -0.45C33.54 -0.45 33.97 -0.17 34.41 -0.02C33 0.4 32.09 1.46 31.3 2.67C31.21 2.77 31.11 2.87 31.02 2.97C29.24 2.64 27.43 3.24 25.63 2.75Z" stroke="#87ADD4" stroke-opacity="1.000000" stroke-width="0.755388"/>
		<path id="path" d="M29.71 31.1C29.78 30.33 30.14 29.95 30.93 29.89C31.75 29.83 31.23 29.02 31.45 28.58C31.94 27.57 32.28 26.46 32.23 25.27C32.55 25.16 32.89 25.08 33.17 24.9C34.15 24.27 34.84 23.32 36.11 22.96C36.8 22.76 37.5 22.81 38.15 22.58C39.34 22.15 39.28 20.81 39.81 19.89C40.46 19.35 40.75 18.61 41.13 17.87C41.47 17.18 40.95 15.88 42.26 15.81C42.65 15.79 42.8 15.59 42.86 15.25C43.14 15.17 43.41 15.1 43.69 15.03C44.34 18.33 42.99 21.03 40.66 22.88C39.04 24.15 39.09 25.64 38.84 27.24C38.49 27.69 38.15 28.13 37.81 28.58C37.44 29.31 36.78 28.94 36.25 29.01C35.77 29.07 35.3 28.93 34.86 29.31C33.38 30.6 31.67 31.26 29.71 31.1Z" fill="#F3AC49" fill-opacity="1.000000" fill-rule="nonzero"/>
		<path id="path" d="M30.93 29.89C31.75 29.83 31.23 29.02 31.45 28.58C31.94 27.57 32.28 26.46 32.23 25.27C32.55 25.16 32.89 25.08 33.17 24.9C34.15 24.27 34.84 23.32 36.11 22.96C36.8 22.76 37.5 22.81 38.15 22.58C39.34 22.15 39.28 20.81 39.81 19.89C40.46 19.35 40.75 18.61 41.13 17.87C41.47 17.18 40.95 15.88 42.26 15.81C42.65 15.79 42.8 15.59 42.86 15.25C43.14 15.17 43.41 15.1 43.69 15.03C44.34 18.33 42.99 21.03 40.66 22.88C39.04 24.15 39.09 25.64 38.84 27.24C38.49 27.69 38.15 28.13 37.81 28.58C37.44 29.31 36.78 28.94 36.25 29.01C35.77 29.07 35.3 28.93 34.86 29.31C33.38 30.6 31.67 31.26 29.71 31.1C29.78 30.33 30.14 29.95 30.93 29.89Z" stroke="#F3AC49" stroke-opacity="1.000000" stroke-width="0.755388"/>
		<path id="path" d="M39.83 19.88C39.3 20.8 39.35 22.15 38.16 22.58C37.51 22.81 36.81 22.76 36.11 22.96C34.85 23.32 34.15 24.27 33.17 24.9C32.89 25.08 32.54 25.16 32.23 25.28C31.2 24.63 30.17 23.95 29.13 23.3C29.23 23.3 29.35 23.26 29.42 23.3C31.01 24.33 30.16 22.52 30.16 22.43C30.22 20.5 31.38 20 33.13 19.75C34.72 19.52 36.13 20.68 37.63 19.94C37.95 19.77 38.22 19.49 38.51 19.27C38.95 19.47 39.4 19.68 39.83 19.88Z" fill="#FBCF67" fill-opacity="1.000000" fill-rule="nonzero"/>
		<path id="path" d="M38.16 22.58C37.51 22.81 36.81 22.76 36.11 22.96C34.85 23.32 34.15 24.27 33.17 24.9C32.89 25.08 32.54 25.16 32.23 25.28C31.2 24.63 30.17 23.95 29.13 23.3C29.23 23.3 29.35 23.26 29.42 23.3C31.01 24.33 30.16 22.52 30.16 22.43C30.22 20.5 31.38 20 33.13 19.75C34.72 19.52 36.13 20.68 37.63 19.94C37.95 19.77 38.22 19.49 38.51 19.27C38.95 19.47 39.4 19.68 39.83 19.88C39.3 20.8 39.35 22.15 38.16 22.58Z" stroke="#FBCF67" stroke-opacity="1.000000" stroke-width="0.755388" stroke-linejoin="bevel"/>
		<path id="path" d="M26.8 34.87C26.54 35.72 26.71 36.94 25.28 36.79C25.25 36.7 25.12 36.79 25.1 36.87C25.06 36.87 25.01 36.84 24.97 36.84C24.76 32.56 24.94 28.28 24.26 24.03C24.31 23.36 24.72 22.97 25.27 22.69C26.5 23.33 27.94 22.47 29.15 23.3C30.18 23.95 31.19 24.62 32.23 25.27C32.28 26.46 31.96 27.55 31.47 28.57C31.25 29 31.77 29.81 30.95 29.87C30.16 29.93 29.8 30.32 29.73 31.09C28.74 32.35 27.76 33.61 26.8 34.87Z" fill="#8D888C" fill-opacity="1.000000" fill-rule="nonzero"/>
		<path id="path" d="M25.28 36.79C25.25 36.7 25.12 36.79 25.1 36.87C25.06 36.87 25.01 36.84 24.97 36.84C24.76 32.56 24.94 28.28 24.26 24.03C24.31 23.36 24.72 22.97 25.27 22.69C26.5 23.33 27.94 22.47 29.15 23.3C30.18 23.95 31.19 24.62 32.23 25.27C32.28 26.46 31.96 27.55 31.47 28.57C31.25 29 31.77 29.81 30.95 29.87C30.16 29.93 29.8 30.32 29.73 31.09C28.74 32.35 27.76 33.61 26.8 34.87C26.54 35.72 26.71 36.94 25.28 36.79Z" stroke="#8D888C" stroke-opacity="1.000000" stroke-width="0.755388"/>
		<path id="path" d="M-0.05 26.92C-0.02 26.92 0.02 26.91 0.05 26.91C4.48 27.08 8.9 27.3 13.32 26.77C12.03 28.47 10.77 29.89 8.28 29.66C5.59 29.42 2.86 29.75 0.15 29.84C0.08 29.17 0.03 28.49 -0.04 27.82C-0.05 27.52 -0.05 27.22 -0.05 26.92Z" fill="#5E5F97" fill-opacity="1.000000" fill-rule="nonzero"/>
		<path id="path" d="M0.05 26.91C4.48 27.08 8.9 27.3 13.32 26.77C12.03 28.47 10.77 29.89 8.28 29.66C5.59 29.42 2.86 29.75 0.15 29.84C0.08 29.17 0.03 28.49 -0.04 27.82C-0.05 27.52 -0.05 27.22 -0.05 26.92C-0.02 26.92 0.02 26.91 0.05 26.91Z" stroke="#5E5F97" stroke-opacity="1.000000" stroke-width="0.755388"/>
		<path id="path" d="M38.84 27.24C39.09 25.64 39.04 24.15 40.66 22.88C42.99 21.03 44.34 18.34 43.68 15.03C44.5 14.77 45.03 14.41 45.02 13.33C44.96 8.82 44.99 4.31 45 -0.2C45 -0.33 45.14 -0.58 45.23 -0.58C46.78 -0.61 48.32 -0.61 49.87 -0.6C49.93 -0.6 49.98 -0.51 50.04 -0.46C48.52 -0.41 47.01 -0.36 45.5 -0.32C45.41 -0.36 45.32 -0.4 45.25 -0.44C45.22 -0.32 45.16 -0.2 45.16 -0.08C45.15 4.51 45.16 9.09 45.15 13.68C45.14 15.54 45.7 17.46 45.12 19.26C44.5 21.18 43.75 23.09 42.51 24.69C41.83 25.56 41.6 26.94 40.15 27C39.71 27.03 39.12 26.32 38.84 27.24Z" fill="#F6A453" fill-opacity="1.000000" fill-rule="nonzero"/>
		<path id="path" d="M25.29 22.68C24.75 22.96 24.32 23.38 24.26 24.05C23.97 24.25 23.67 24.46 23.38 24.66C21.94 24.62 20.51 24.56 19.07 24.52C18.78 24.47 18.49 24.42 18.21 24.38C17.02 23.67 15.71 24.02 14.46 23.91C14.55 22.88 15.27 22.19 15.76 21.38C17.85 22.36 19.34 21.35 20.67 19.77C20.73 19.7 20.91 19.6 20.91 19.61C21.22 19.99 21.51 20.38 21.79 20.78C21.81 20.82 21.74 21 21.68 21.02C21.19 21.11 21.33 21.58 21.18 21.88C21.48 22.01 21.76 22.22 22.07 22.25C23.08 22.34 24.12 22.35 25.13 22.41C25.19 22.5 25.24 22.58 25.29 22.68Z" fill="#87ADD4" fill-opacity="1.000000" fill-rule="nonzero"/>
		<path id="path" d="M38.17 5.9C38.17 8.02 38.16 10.19 38.15 12.3C38.15 12.36 38.02 12.48 37.99 12.46C37.62 12.31 37.44 12.04 37.44 11.61C37.47 7.75 37.48 3.89 37.51 0.04C37.51 -0.17 37.4 -0.48 37.8 -0.48C38.19 -0.49 38.12 -0.21 38.13 0.01C38.13 1.98 38.12 3.92 38.12 5.9C38.13 5.9 38.15 5.9 38.17 5.9Z" fill="#DDC4E0" fill-opacity="1.000000" fill-rule="nonzero"/>
		<path id="path" d="M39.81 19.9C39.38 19.7 38.93 19.46 38.5 19.26C39.12 18.35 40.02 17.54 40.3 16.53C40.74 14.92 41.89 15.24 42.92 15.23C42.86 15.57 42.67 15.8 42.28 15.81C40.96 15.88 41.51 17.19 41.16 17.87C40.79 18.63 40.46 19.36 39.81 19.9Z" fill="#F8C9D1" fill-opacity="1.000000" fill-rule="nonzero"/>
		<path id="path" d="M38.5 19.26C39.12 18.35 40.02 17.54 40.3 16.53C40.74 14.92 41.89 15.24 42.92 15.23C42.86 15.57 42.67 15.8 42.28 15.81C40.96 15.88 41.51 17.19 41.16 17.87C40.79 18.63 40.46 19.36 39.81 19.9C39.38 19.7 38.93 19.46 38.5 19.26Z" stroke="#F8C9D1" stroke-opacity="1.000000" stroke-width="0.755388"/>
		<path id="path" d="M34.41 -0.02C33.97 -0.17 33.54 -0.45 33.1 -0.45C22.23 -0.47 11.36 -0.49 0.49 -0.45C-0.44 -0.45 0.29 0.46 0.06 0.88C0.03 0.88 -0.02 0.89 -0.05 0.89C-0.27 -0.2 -0.07 -0.66 1.22 -0.65C12.26 -0.58 23.3 -0.61 34.33 -0.6C34.57 -0.6 34.97 -0.81 35.03 -0.4C35.11 0.07 34.64 -0.14 34.41 -0.02Z" fill="#7EBAD2" fill-opacity="1.000000" fill-rule="nonzero"/>
		<path id="path" d="M33.1 -0.45C22.23 -0.47 11.36 -0.49 0.49 -0.45C-0.44 -0.45 0.29 0.46 0.06 0.88C0.03 0.88 -0.02 0.89 -0.05 0.89C-0.27 -0.2 -0.07 -0.66 1.22 -0.65C12.26 -0.58 23.3 -0.61 34.33 -0.6C34.57 -0.6 34.97 -0.81 35.03 -0.4C35.11 0.07 34.64 -0.14 34.41 -0.02C33.97 -0.17 33.54 -0.45 33.1 -0.45Z" stroke="#7EBAD2" stroke-opacity="1.000000" stroke-width="0.755388"/>
		<path id="path" d="M-0.05 27.82C0.02 28.49 0.08 29.17 0.14 29.84C0.11 30.3 0.05 30.75 0.05 31.21C0.05 37.53 0.05 43.84 0.05 50.16C0.05 50.3 0.13 50.45 0.18 50.59C0.1 50.67 0.02 50.75 -0.05 50.83C-0.05 43.16 -0.05 35.49 -0.05 27.82Z" fill="#9B8BC1" fill-opacity="1.000000" fill-rule="nonzero"/>
		<path id="path" d="M31.02 2.97C31.11 2.87 31.21 2.78 31.31 2.67C31.21 2.77 31.11 2.87 31.02 2.97Z" fill="#7EBAD2" fill-opacity="1.000000" fill-rule="nonzero"/>
		<path id="path" d="M0.18 50.59C0.13 50.45 0.05 50.3 0.05 50.16C0.05 43.84 0.05 37.53 0.05 31.21C0.05 30.75 0.11 30.3 0.14 29.84C2.86 29.76 5.59 29.42 8.27 29.66C10.76 29.89 12.03 28.47 13.31 26.77C13.34 26.76 13.39 26.76 13.42 26.74C13.93 26.55 14.17 26.85 14.6 27.12C16.31 28.15 18.17 27.62 19.81 26.79C20.9 26.25 21.65 26.57 22.03 27.42C23.02 29.65 22.59 32.12 22.85 34.47C23.15 37.12 21.61 36.49 20.29 36.49C19.41 36.5 18.54 36.51 17.66 36.49C17.47 36.48 17.26 36.4 17.11 36.27C16.14 35.46 14.99 36.44 14 35.93C12.93 35.39 12.22 36.76 11.24 36.46C10.94 36.37 10.72 35.77 10.46 35.78C8.9 35.81 7.33 35.81 6.01 36.94C5.44 37.42 4.48 37.53 4.44 38.5C4.37 40 4.38 41.52 4.39 43.02C4.4 44.41 4.41 44.41 5.18 44.69C5.22 44.7 5.23 44.82 5.25 44.89C4.34 45.88 3.44 46.88 2.53 47.86C1.75 48.78 0.96 49.68 0.18 50.59Z" fill="#513F92" fill-opacity="1.000000" fill-rule="nonzero"/>
		<path id="path" d="M0.05 50.16C0.05 43.84 0.05 37.53 0.05 31.21C0.05 30.75 0.11 30.3 0.14 29.84C2.86 29.76 5.59 29.42 8.27 29.66C10.76 29.89 12.03 28.47 13.31 26.77C13.34 26.76 13.39 26.76 13.42 26.74C13.93 26.55 14.17 26.85 14.6 27.12C16.31 28.15 18.17 27.62 19.81 26.79C20.9 26.25 21.65 26.57 22.03 27.42C23.02 29.65 22.59 32.12 22.85 34.47C23.15 37.12 21.61 36.49 20.29 36.49C19.41 36.5 18.54 36.51 17.66 36.49C17.47 36.48 17.26 36.4 17.11 36.27C16.14 35.46 14.99 36.44 14 35.93C12.93 35.39 12.22 36.76 11.24 36.46C10.94 36.37 10.72 35.77 10.46 35.78C8.9 35.81 7.33 35.81 6.01 36.94C5.44 37.42 4.48 37.53 4.44 38.5C4.37 40 4.38 41.52 4.39 43.02C4.4 44.41 4.41 44.41 5.18 44.69C5.22 44.7 5.23 44.82 5.25 44.89C4.34 45.88 3.44 46.88 2.53 47.86C1.75 48.78 0.96 49.68 0.18 50.59C0.13 50.45 0.05 50.3 0.05 50.16Z" stroke="#513F92" stroke-opacity="1.000000" stroke-width="0.755388"/>
		<path id="path" d="M5.25 44.89C5.23 44.82 5.22 44.71 5.18 44.7C4.41 44.41 4.4 44.42 4.39 43.03C4.38 41.52 4.38 40.01 4.44 38.51C4.48 37.53 5.44 37.43 6.01 36.94C7.33 35.82 8.9 35.81 10.46 35.78C10.71 35.78 10.94 36.38 11.24 36.47C12.22 36.77 12.93 35.39 14 35.94C14.99 36.45 16.14 35.47 17.11 36.28C17.26 36.4 17.47 36.49 17.66 36.49C18.54 36.52 19.41 36.51 20.29 36.5C21.61 36.49 23.14 37.13 22.85 34.48C22.59 32.12 23.02 29.66 22.03 27.42C21.66 26.58 20.9 26.26 19.81 26.8C18.17 27.62 16.31 28.16 14.6 27.12C14.17 26.85 13.93 26.55 13.42 26.75C13.72 25.82 14.01 24.88 14.31 23.95C14.36 23.94 14.41 23.93 14.46 23.91C15.71 24.02 17.02 23.66 18.21 24.37C18.49 24.42 18.78 24.47 19.07 24.52C19.27 24.86 23.03 24.98 23.38 24.66C23.67 24.46 23.97 24.24 24.26 24.04C24.93 28.29 24.77 32.6 24.98 36.88C23.72 37.27 22.53 37.86 21.53 38.77C20.32 38.72 19.08 38.79 17.9 38.57C16.21 38.27 14.91 39.02 13.61 39.88C13.07 40.24 12.48 40.33 11.91 40.15C9.96 39.58 8.18 40.81 8.28 42.86C8.35 44.24 8.18 45.06 6.59 44.59C6.27 44.5 5.87 44.65 5.51 44.69C5.43 44.75 5.33 44.82 5.25 44.89Z" fill="#5E5F97" fill-opacity="1.000000" fill-rule="nonzero"/>
		<path id="path" d="M5.18 44.7C4.41 44.41 4.4 44.42 4.39 43.03C4.38 41.52 4.38 40.01 4.44 38.51C4.48 37.53 5.44 37.43 6.01 36.94C7.33 35.82 8.9 35.81 10.46 35.78C10.71 35.78 10.94 36.38 11.24 36.47C12.22 36.77 12.93 35.39 14 35.94C14.99 36.45 16.14 35.47 17.11 36.28C17.26 36.4 17.47 36.49 17.66 36.49C18.54 36.52 19.41 36.51 20.29 36.5C21.61 36.49 23.14 37.13 22.85 34.48C22.59 32.12 23.02 29.66 22.03 27.42C21.66 26.58 20.9 26.26 19.81 26.8C18.17 27.62 16.31 28.16 14.6 27.12C14.17 26.85 13.93 26.55 13.42 26.75C13.72 25.82 14.01 24.88 14.31 23.95C14.36 23.94 14.41 23.93 14.46 23.91C15.71 24.02 17.02 23.66 18.21 24.37C18.49 24.42 18.78 24.47 19.07 24.52C19.27 24.86 23.03 24.98 23.38 24.66C23.67 24.46 23.97 24.24 24.26 24.04C24.93 28.29 24.77 32.6 24.98 36.88C23.72 37.27 22.53 37.86 21.53 38.77C20.32 38.72 19.08 38.79 17.9 38.57C16.21 38.27 14.91 39.02 13.61 39.88C13.07 40.24 12.48 40.33 11.91 40.15C9.96 39.58 8.18 40.81 8.28 42.86C8.35 44.24 8.18 45.06 6.59 44.59C6.27 44.5 5.87 44.65 5.51 44.69C5.43 44.75 5.33 44.82 5.25 44.89C5.23 44.82 5.22 44.71 5.18 44.7Z" stroke="#5E5F97" stroke-opacity="1.000000" stroke-width="0.755388"/>
		<path id="path" d="M5.52 44.68C5.88 44.64 6.28 44.49 6.6 44.59C8.19 45.05 8.36 44.24 8.29 42.86C8.19 40.81 9.96 39.57 11.92 40.15C12.49 40.32 13.08 40.23 13.62 39.88C14.92 39.02 16.22 38.26 17.9 38.57C19.08 38.78 20.32 38.71 21.53 38.76C20.81 39.3 20.09 39.85 19.37 40.39C19.11 40.54 18.87 40.7 18.62 40.85C17.95 40.84 17.96 41.73 17.67 41.81C16.17 42.2 15.56 43.67 14.42 44.48C14.31 44.26 14.23 44.2 13.96 44.36C13.53 44.6 13.04 44.82 12.57 44.84C10.39 44.94 8.22 44.97 6.05 44.99C5.87 45 5.69 44.79 5.52 44.68Z" fill="#8D888C" fill-opacity="1.000000" fill-rule="nonzero"/>
		<path id="path" d="M6.6 44.59C8.19 45.05 8.36 44.24 8.29 42.86C8.19 40.81 9.96 39.57 11.92 40.15C12.49 40.32 13.08 40.23 13.62 39.88C14.92 39.02 16.22 38.26 17.9 38.57C19.08 38.78 20.32 38.71 21.53 38.76C20.81 39.3 20.09 39.85 19.37 40.39C19.11 40.54 18.87 40.7 18.62 40.85C17.95 40.84 17.96 41.73 17.67 41.81C16.17 42.2 15.56 43.67 14.42 44.48C14.31 44.26 14.23 44.2 13.96 44.36C13.53 44.6 13.04 44.82 12.57 44.84C10.39 44.94 8.22 44.97 6.05 44.99C5.87 45 5.69 44.79 5.52 44.68C5.88 44.64 6.28 44.49 6.6 44.59Z" stroke="#8D888C" stroke-opacity="1.000000" stroke-width="0.755388"/>
		<path id="path" d="M29.71 31.1C31.67 31.26 33.38 30.6 34.87 29.31C35.31 28.93 35.78 29.07 36.26 29.01C36.79 28.94 37.45 29.31 37.81 28.58C37.91 29.42 38.19 30.3 38.04 31.08C37.88 31.83 36.97 31.44 36.41 31.54C35.39 31.72 34.7 32.29 34.04 33.06C33.63 33.52 32.98 33.73 32.5 34.12C30.73 35.55 28.64 34.14 26.81 34.87C27.76 33.61 28.74 32.36 29.71 31.1Z" fill="#F6A453" fill-opacity="1.000000" fill-rule="nonzero"/>
		<path id="path" d="M5.52 44.68C5.7 44.79 5.87 45 6.05 44.99C8.22 44.96 10.4 44.93 12.57 44.84C13.04 44.82 13.53 44.6 13.95 44.35C14.23 44.2 14.32 44.26 14.43 44.48C14.39 44.54 14.35 44.6 14.3 44.66C13.63 45.43 12.96 46.21 12.28 46.98C12.08 47.26 11.83 47.52 11.69 47.83C11.3 48.75 11.23 47.66 10.9 47.68C8.11 47.82 5.31 47.82 2.53 47.87C3.43 46.87 4.34 45.88 5.25 44.89C5.33 44.82 5.43 44.75 5.52 44.68Z" fill="#B59259" fill-opacity="1.000000" fill-rule="nonzero"/>
		<path id="path" d="M6.05 44.99C8.22 44.96 10.4 44.93 12.57 44.84C13.04 44.82 13.53 44.6 13.95 44.35C14.23 44.2 14.32 44.26 14.43 44.48C14.39 44.54 14.35 44.6 14.3 44.66C13.63 45.43 12.96 46.21 12.28 46.98C12.08 47.26 11.83 47.52 11.69 47.83C11.3 48.75 11.23 47.66 10.9 47.68C8.11 47.82 5.31 47.82 2.53 47.87C3.43 46.87 4.34 45.88 5.25 44.89C5.33 44.82 5.43 44.75 5.52 44.68C5.7 44.79 5.87 45 6.05 44.99Z" stroke="#B59259" stroke-opacity="1.000000" stroke-width="0.755388"/>
		<path id="path" d="M12.28 46.97C12.96 46.2 13.63 45.42 14.3 44.65C15.27 45.17 15.99 44.26 16.87 44.17C17.67 44.09 18.74 44.21 18.5 42.71C18.41 42.12 18.57 41.48 18.61 40.86C18.86 40.7 19.11 40.54 19.36 40.39C19.35 41.14 19.24 41.91 19.34 42.65C19.6 44.38 18.21 45.12 17.28 45.69C16.12 46.4 16.31 47.29 16.2 48.23C16.16 48.52 16.2 48.83 16.19 49.13C16.18 49.46 16.15 49.79 16.14 50.11C15.91 49.71 15.69 49.3 15.44 48.92C15.15 48.48 14.9 47.8 14.52 47.7C13.93 47.55 13.34 46.9 12.64 47.47C12.54 47.56 12.37 48.02 12.15 47.61C12.09 47.46 12.23 47.19 12.28 46.97Z" fill="#F8B570" fill-opacity="1.000000" fill-rule="nonzero"/>
		<path id="path" d="M14.31 23.95C14.01 24.88 13.73 25.81 13.43 26.74C13.39 26.75 13.35 26.76 13.32 26.77C8.9 27.3 4.48 27.08 0.05 26.91C-0.24 25.35 0.28 24.83 1.88 24.94C4.38 25.12 6.92 25.15 9.37 24.49C9.92 24.34 10.77 24.3 11.03 23.46C11.04 23.44 11.1 23.43 11.1 23.43C11.97 24.94 13.25 23.74 14.31 23.95Z" fill="#8D888C" fill-opacity="1.000000" fill-rule="nonzero"/>
		<path id="path" d="M13.43 26.74C13.39 26.75 13.35 26.76 13.32 26.77C8.9 27.3 4.48 27.08 0.05 26.91C-0.24 25.35 0.28 24.83 1.88 24.94C4.38 25.12 6.92 25.15 9.37 24.49C9.92 24.34 10.77 24.3 11.03 23.46C11.04 23.44 11.1 23.43 11.1 23.43C11.97 24.94 13.25 23.74 14.31 23.95C14.01 24.88 13.73 25.81 13.43 26.74Z" stroke="#8D888C" stroke-opacity="1.000000" stroke-width="0.755388"/>
		<path id="path" d="M23.38 24.66C23.08 24.99 19.27 24.86 19.07 24.52C20.51 24.56 21.95 24.62 23.38 24.66Z" fill="#7D89C1" fill-opacity="1.000000" fill-rule="nonzero"/>
		<path id="path" d="M19.07 24.52C20.51 24.56 21.95 24.62 23.38 24.66C23.08 24.99 19.27 24.86 19.07 24.52Z" stroke="#7D89C1" stroke-opacity="1.000000" stroke-width="0.755388"/>
		<path id="path" d="M19.07 24.52C18.78 24.47 18.49 24.42 18.21 24.38C18.49 24.42 18.78 24.47 19.07 24.52Z" fill="#7D89C1" fill-opacity="1.000000" fill-rule="nonzero"/>
	</g>
</svg>
