<svg width="50.000000" height="50.000000" viewBox="0 0 50 50" fill="none" xmlns="http://www.w3.org/2000/svg" xmlns:xlink="http://www.w3.org/1999/xlink">
	<desc>
			Created with Pixso.
	</desc>
	<defs/>
	<path id="path" d="M44.73 22.96C46.73 19.64 48.68 17.5 48.68 5C48.68 1.25 47.36 0 44.57 0C37 0 31.57 11.25 31.57 11.25C31.57 11.25 28.94 12.5 25 12.5C21.05 12.5 18.42 11.25 18.42 11.25C18.42 11.25 12.99 0 5.42 0C2.83 0 1.51 1.07 1.33 4.21C1.32 4.46 1.31 4.72 1.31 5C1.31 17.5 3.26 19.64 5.26 22.96C5.26 22.96 1.73 27.02 0.23 31.69C0.15 31.96 0.07 32.22 0 32.5C1.31 32.5 5.09 35 5.09 37.5L14.47 43.75L35.52 43.75L44.9 37.5C44.9 35 48.68 32.5 50 32.5C48.68 27.5 44.73 22.96 44.73 22.96Z" fill="#FB8C00" fill-opacity="1.000000" fill-rule="nonzero"/>
	<path id="path" d="M43.68 2.6C43.71 2.59 44.21 2.5 44.24 2.5C44.4 2.49 44.52 2.5 44.57 2.5C45.67 2.5 46.05 2.5 46.05 5C46.05 18.12 42.1 21.25 42.1 21.25C42.1 21.25 42.1 17.5 40.78 16.25C39.8 17.5 38.15 17.5 38.15 17.5C38.15 17.5 39.17 11.14 38.48 9.37C38.48 9.37 39.68 3.47 43.68 2.6Z" fill="#D7CCC8" fill-opacity="1.000000" fill-rule="nonzero"/>
	<path id="path" d="M44.4 2.49C39.47 2.49 35.52 12.49 35.52 12.49C35.52 12.49 36.84 11.24 38.15 11.24C38.15 13.75 38.15 15.93 38.15 17.5C38.15 17.5 40.78 13.75 40.78 8.75C40.78 4.53 44.73 2.5 44.73 2.5L44.4 2.49Z" fill="#BCAAA4" fill-opacity="1.000000" fill-rule="nonzero"/>
	<path id="path" d="M6.31 2.6C6.28 2.59 5.78 2.5 5.75 2.5C5.59 2.49 5.47 2.5 5.42 2.5C4.32 2.5 3.94 2.5 3.94 5C3.94 18.12 7.89 21.25 7.89 21.25C7.89 21.25 7.89 17.5 9.21 16.25C10.19 17.5 11.84 17.5 11.84 17.5C11.84 17.5 10.82 11.14 11.51 9.37C11.51 9.37 10.31 3.47 6.31 2.6Z" fill="#D7CCC8" fill-opacity="1.000000" fill-rule="nonzero"/>
	<path id="path" d="M5.59 2.49C10.52 2.49 14.47 12.49 14.47 12.49C14.47 12.49 13.15 11.24 11.84 11.24C11.84 13.75 11.84 15.93 11.84 17.5C11.84 17.5 9.21 13.75 9.21 8.75C9.21 4.53 5.26 2.5 5.26 2.5L5.59 2.49Z" fill="#BCAAA4" fill-opacity="1.000000" fill-rule="nonzero"/>
	<path id="path" d="M30.09 26.25C31.57 23.75 36.84 22.5 36.84 22.5L36.84 23.75C38.48 23.75 39.47 22.5 39.47 22.5C39.47 22.5 39.47 26.25 38.15 27.5C35.02 30.47 29.47 31.54 28.94 33.75C28.94 31.65 28.79 28.45 30.09 26.25Z" fill="#FF9800" fill-opacity="1.000000" fill-rule="nonzero"/>
	<path id="path" d="M28.94 34.97C28.94 38.03 32.32 41.25 32.32 41.25C32.32 41.25 40.78 37.57 40.78 26.4C40.78 26.4 39.47 26.25 35.52 26.25C30.26 26.25 28.94 29.76 28.94 34.97Z" fill="#F57C00" fill-opacity="1.000000" fill-rule="nonzero"/>
	<path id="path" d="M19.9 26.25C18.42 23.75 13.15 22.5 13.15 22.5L13.15 23.75C11.51 23.75 10.52 22.5 10.52 22.5C10.52 22.5 10.52 26.25 11.84 27.5C14.97 30.47 20.52 31.54 21.05 33.75C21.05 31.65 21.2 28.45 19.9 26.25Z" fill="#FF9800" fill-opacity="1.000000" fill-rule="nonzero"/>
	<path id="path" d="M14.47 26.25C10.52 26.25 9.21 26.25 9.21 26.25C9.21 37.53 17.67 41.25 17.67 41.25C17.67 41.25 21.05 37.99 21.05 34.9C21.05 29.65 19.73 26.25 14.47 26.25ZM25 10C21.05 10 18.42 11.25 18.42 11.25C18.42 11.25 19.73 14.68 19.73 16.25C19.73 16.25 21.87 16.09 22.36 15C22.36 16.4 25 17.5 25 17.5C25 17.5 27.63 16.4 27.63 15C28.12 16.09 30.26 16.25 30.26 16.25C30.26 14.68 31.57 11.25 31.57 11.25C31.57 11.25 28.94 10 25 10Z" fill="#F57C00" fill-opacity="1.000000" fill-rule="nonzero"/>
	<path id="path" d="M50 36.25C50 36.25 47.36 35 40.78 35C34.21 35 32.23 41.25 32.23 41.25L30.49 48.7C30.49 48.7 46.05 44.84 48.68 41.25C46.05 41.25 44.73 40 44.73 40C48.68 39.37 50 36.25 50 36.25ZM9.21 35C2.63 35 0 36.25 0 36.25C0 36.25 1.31 39.37 5.26 40C5.26 40 3.94 41.25 1.31 41.25C3.94 44.84 19.5 48.7 19.5 48.7L17.76 41.25C17.76 41.25 15.78 35 9.21 35Z" fill="#D7CCC8" fill-opacity="1.000000" fill-rule="nonzero"/>
	<path id="path" d="M27.63 40L25.01 40L22.36 40C18.37 40 17.1 40.98 17.1 43.75C17.1 47.5 19.68 50 23.68 50L24.98 50L26.31 50C30.31 50 32.89 47.5 32.89 43.75C32.89 40.98 31.62 40 27.63 40Z" fill="#BCAAA4" fill-opacity="1.000000" fill-rule="nonzero"/>
	<path id="path" d="M21.62 49.72C21.92 49.79 22.35 49.88 22.67 49.91C23 49.95 23.33 50 23.68 50L24.98 50L26.31 50C26.62 50 26.9 49.95 27.2 49.92C27.22 49.92 27.31 49.92 27.33 49.91C27.65 49.88 27.96 49.82 28.26 49.75C29.11 49.52 29.99 49.13 30.62 48.64C27.63 48.59 25.16 45.93 25.17 44.84L24.83 44.84C24.83 45.93 22.36 48.59 19.37 48.64C20 49.13 20.76 49.5 21.62 49.72Z" fill="#A1887F" fill-opacity="1.000000" fill-rule="nonzero"/>
	<path id="path" d="M25.01 40C22.83 40 21.05 39.87 21.05 41.25C21.05 42.63 23.7 45 25.01 45C26.31 45 28.94 42.63 28.94 41.25C28.94 39.87 27.18 40 25.01 40Z" fill="#3E2723" fill-opacity="1.000000" fill-rule="nonzero"/>
	<path id="path" d="M34.53 28.75C37.34 28.75 38.15 28.75 38.15 28.75C38.15 28.75 36.8 29.75 36.84 30.93C36.89 32.63 35.71 35 32.89 35C31.41 35 28.94 34.99 28.94 34.99C28.94 34.99 28.93 28.75 34.53 28.75Z" fill="#795548" fill-opacity="1.000000" fill-rule="nonzero"/>
	<path id="path" d="M33.55 30C34.22 30 34.77 30.06 35.24 30.15C35.42 30.48 35.52 30.85 35.52 31.25C35.52 32.63 34.34 33.75 32.89 33.75C31.94 33.75 31.11 33.26 30.65 32.55C31.06 31.28 31.88 30 33.55 30Z" fill="#FFB300" fill-opacity="1.000000" fill-rule="nonzero"/>
	<path id="path" d="M33.11 30.04C33.73 30.14 34.21 30.63 34.21 31.25C34.21 31.94 33.62 32.5 32.89 32.5C32.16 32.5 31.57 31.94 31.57 31.25C31.57 31.06 31.62 30.89 31.69 30.74C32.06 30.38 32.53 30.13 33.11 30.04Z" fill="#212121" fill-opacity="1.000000" fill-rule="nonzero"/>
	<path id="path" d="M15.45 28.75C12.65 28.75 11.84 28.75 11.84 28.75C11.84 28.75 13.19 29.75 13.15 30.93C13.1 32.63 14.28 35 17.1 35C18.58 35 21.05 34.99 21.05 34.99C21.05 34.99 21.05 28.75 15.45 28.75Z" fill="#795548" fill-opacity="1.000000" fill-rule="nonzero"/>
	<path id="path" d="M16.44 30C15.77 30 15.22 30.06 14.75 30.15C14.57 30.48 14.47 30.85 14.47 31.25C14.47 32.63 15.65 33.75 17.1 33.75C18.05 33.75 18.88 33.26 19.34 32.55C18.93 31.28 18.11 30 16.44 30Z" fill="#FFB300" fill-opacity="1.000000" fill-rule="nonzero"/>
	<path id="path" d="M16.88 30.04C16.26 30.14 15.78 30.63 15.78 31.25C15.78 31.94 16.37 32.5 17.1 32.5C17.83 32.5 18.42 31.94 18.42 31.25C18.42 31.06 18.37 30.89 18.3 30.74C17.93 30.38 17.46 30.13 16.88 30.04Z" fill="#212121" fill-opacity="1.000000" fill-rule="nonzero"/>
</svg>
