<svg width="50" height="50" viewBox="0 0 50 50" fill="none" xmlns="http://www.w3.org/2000/svg">
<path d="M14.9745 48C23.2447 48 29.949 41.3377 29.949 33.1194C29.949 24.9011 23.2447 18.2389 14.9745 18.2389C6.70433 18.2389 0 24.9011 0 33.1194C0 41.3377 6.70433 48 14.9745 48Z" fill="#04E061"/>
<path d="M40.9516 46.1221C45.9489 46.1221 50 42.0963 50 37.1303C50 32.1643 45.9489 28.1386 40.9516 28.1386C35.9542 28.1386 31.903 32.1643 31.903 37.1303C31.903 42.0963 35.9542 46.1221 40.9516 46.1221Z" fill="#FF4053"/>
<path d="M17.8383 16.299C20.9309 16.299 23.4378 13.8078 23.4378 10.7348C23.4378 7.66169 20.9309 5.17047 17.8383 5.17047C14.7459 5.17047 12.239 7.66169 12.239 10.7348C12.239 13.8078 14.7459 16.299 17.8383 16.299Z" fill="#965EEB"/>
<path d="M37.4362 26.1969C44.1602 26.1969 49.6111 20.7802 49.6111 14.0985C49.6111 7.41665 44.1602 2 37.4362 2C30.7122 2 25.2614 7.41665 25.2614 14.0985C25.2614 20.7802 30.7122 26.1969 37.4362 26.1969Z" fill="#00AAFF"/>
</svg>
