<svg width="50" height="50" viewBox="0 0 50 50" fill="none" xmlns="http://www.w3.org/2000/svg">
<path d="M49.3056 18.1818H0.694445V49.3506H49.3056V18.1818Z" fill="#FFFEEE"/>
<path d="M49.3056 6.49351H0.694445V18.1818H49.3056V6.49351Z" fill="#CE4F32"/>
<path d="M11.4583 12.3377C9.73264 12.3377 8.33333 11.0292 8.33333 9.41558V3.57143C8.33333 1.95779 9.73264 0.649351 11.4583 0.649351C13.184 0.649351 14.5833 1.95779 14.5833 3.57143V9.41558C14.5833 11.0292 13.184 12.3377 11.4583 12.3377Z" fill="#55BFD8"/>
<path d="M38.5417 12.3377C36.816 12.3377 35.4167 11.0292 35.4167 9.41558V3.57143C35.4167 1.95779 36.816 0.649351 38.5417 0.649351C40.2674 0.649351 41.6667 1.95779 41.6667 3.57143V9.41558C41.6667 11.0292 40.2674 12.3377 38.5417 12.3377Z" fill="#55BFD8"/>
<path d="M15.2778 24.6753H8.33333V31.1688H15.2778V24.6753Z" fill="#549BD6"/>
<path d="M15.2778 36.3636H8.33333V42.8571H15.2778V36.3636Z" fill="#549BD6"/>
<path d="M28.4722 24.6753H21.5278V31.1688H28.4722V24.6753Z" fill="#549BD6"/>
<path d="M28.4722 36.3636H21.5278V42.8571H28.4722V36.3636Z" fill="#549BD6"/>
<path d="M41.6667 24.6753H34.7222V31.1688H41.6667V24.6753Z" fill="#549BD6"/>
<path d="M41.6667 36.3636H34.7222V42.8571H41.6667V36.3636Z" fill="#549BD6"/>
<path d="M49.3056 5.84416H42.3611V3.57143C42.3611 1.6026 40.6472 0 38.5417 0C36.4361 0 34.7222 1.6026 34.7222 3.57143V5.84416H15.2778V3.57143C15.2778 1.6026 13.5639 0 11.4583 0C9.35278 0 7.63889 1.6026 7.63889 3.57143V5.84416H0.694444C0.310417 5.84416 0 6.13442 0 6.49351V49.3506C0 49.7097 0.310417 50 0.694444 50H49.3056C49.6896 50 50 49.7097 50 49.3506V6.49351C50 6.13442 49.6896 5.84416 49.3056 5.84416ZM36.1111 3.57143C36.1111 2.31818 37.2014 1.2987 38.5417 1.2987C39.8819 1.2987 40.9722 2.31818 40.9722 3.57143V9.41558C40.9722 10.6688 39.8819 11.6883 38.5417 11.6883C37.2014 11.6883 36.1111 10.6688 36.1111 9.41558V3.57143ZM9.02778 3.57143C9.02778 2.31818 10.1181 1.2987 11.4583 1.2987C12.7986 1.2987 13.8889 2.31818 13.8889 3.57143V9.41558C13.8889 10.6688 12.7986 11.6883 11.4583 11.6883C10.1181 11.6883 9.02778 10.6688 9.02778 9.41558V3.57143ZM7.63889 7.14286V9.41558C7.63889 11.3844 9.35278 12.987 11.4583 12.987C13.5639 12.987 15.2778 11.3844 15.2778 9.41558V7.14286H34.7222V9.41558C34.7222 11.3844 36.4361 12.987 38.5417 12.987C40.6472 12.987 42.3611 11.3844 42.3611 9.41558V7.14286H48.6111V17.5325H1.38889V7.14286H7.63889ZM1.38889 48.7013V18.8312H48.6111V48.7013H1.38889ZM15.2778 24.026H8.33333C7.94931 24.026 7.63889 24.3162 7.63889 24.6753V31.1688C7.63889 31.5279 7.94931 31.8182 8.33333 31.8182H15.2778C15.6618 31.8182 15.9722 31.5279 15.9722 31.1688V24.6753C15.9722 24.3162 15.6618 24.026 15.2778 24.026ZM14.5833 30.5195H9.02778V25.3247H14.5833V30.5195ZM15.2778 35.7143H8.33333C7.94931 35.7143 7.63889 36.0045 7.63889 36.3636V42.8571C7.63889 43.2162 7.94931 43.5065 8.33333 43.5065H15.2778C15.6618 43.5065 15.9722 43.2162 15.9722 42.8571V36.3636C15.9722 36.0045 15.6618 35.7143 15.2778 35.7143ZM14.5833 42.2078H9.02778V37.013H14.5833V42.2078ZM28.4722 24.026H21.5278C21.1437 24.026 20.8333 24.3162 20.8333 24.6753V31.1688C20.8333 31.5279 21.1437 31.8182 21.5278 31.8182H28.4722C28.8562 31.8182 29.1667 31.5279 29.1667 31.1688V24.6753C29.1667 24.3162 28.8562 24.026 28.4722 24.026ZM27.7778 30.5195H22.2222V25.3247H27.7778V30.5195ZM28.4722 35.7143H21.5278C21.1437 35.7143 20.8333 36.0045 20.8333 36.3636V42.8571C20.8333 43.2162 21.1437 43.5065 21.5278 43.5065H28.4722C28.8562 43.5065 29.1667 43.2162 29.1667 42.8571V36.3636C29.1667 36.0045 28.8562 35.7143 28.4722 35.7143ZM27.7778 42.2078H22.2222V37.013H27.7778V42.2078ZM41.6667 24.026H34.7222C34.3382 24.026 34.0278 24.3162 34.0278 24.6753V31.1688C34.0278 31.5279 34.3382 31.8182 34.7222 31.8182H41.6667C42.0507 31.8182 42.3611 31.5279 42.3611 31.1688V24.6753C42.3611 24.3162 42.0507 24.026 41.6667 24.026ZM40.9722 30.5195H35.4167V25.3247H40.9722V30.5195ZM41.6667 35.7143H34.7222C34.3382 35.7143 34.0278 36.0045 34.0278 36.3636V42.8571C34.0278 43.2162 34.3382 43.5065 34.7222 43.5065H41.6667C42.0507 43.5065 42.3611 43.2162 42.3611 42.8571V36.3636C42.3611 36.0045 42.0507 35.7143 41.6667 35.7143ZM40.9722 42.2078H35.4167V37.013H40.9722V42.2078Z" fill="url(#paint0_linear_722_66)"/>
<defs>
<linearGradient id="paint0_linear_722_66" x1="19.2125" y1="-1.31688" x2="27.9517" y2="49.1816" gradientUnits="userSpaceOnUse">
<stop offset="0.004" stop-color="#FFE8C7"/>
<stop offset="0.215" stop-color="#FCDEB2"/>
<stop offset="0.65" stop-color="#F3C37C"/>
<stop offset="1" stop-color="#EBAB4D"/>
</linearGradient>
</defs>
</svg>
