<svg width="50.000000" height="50.000000" viewBox="0 0 50 50" fill="none" xmlns="http://www.w3.org/2000/svg" xmlns:xlink="http://www.w3.org/1999/xlink">
	<desc>
			Created with Pixso.
	</desc>
	<defs/>
	<rect id="Прямоугольник 31" rx="25.000000" width="50.000000" height="50.000000" fill="#453922" fill-opacity="1.000000"/>
	<rect id="Прямоугольник 32" x="1.000000" y="25.000000" rx="3.000000" width="23.000000" height="6.000000" fill="#00FF23" fill-opacity="1.000000"/>
	<rect id="Прямоугольник 32" x="6.000000" y="19.000000" rx="3.000000" width="6.000000" height="6.000000" fill="#00FF23" fill-opacity="1.000000"/>
	<rect id="Прямоугольник 32" x="12.000000" y="19.000000" rx="3.000000" width="12.000000" height="6.000000" fill="#D8FE00" fill-opacity="1.000000"/>
	<rect id="Прямоугольник 32" x="18.000000" y="13.000000" rx="3.000000" width="6.000000" height="6.000000" fill="#D8FE00" fill-opacity="1.000000"/>
	<rect id="Прямоугольник 32" x="12.000000" y="13.000000" rx="3.000000" width="6.000000" height="6.000000" fill="#FF1C00" fill-opacity="1.000000"/>
	<rect id="Прямоугольник 32" x="18.000000" y="7.000000" rx="3.000000" width="6.000000" height="6.000000" fill="#FF1C00" fill-opacity="1.000000"/>
	<rect id="Прямоугольник 32" x="24.000000" y="25.000000" rx="3.000000" width="6.000000" height="6.000000" fill="#FF1C00" fill-opacity="1.000000"/>
	<rect id="Прямоугольник 32" x="30.000000" y="25.000000" rx="3.000000" width="19.000000" height="6.000000" fill="#00FF23" fill-opacity="1.000000"/>
	<rect id="Прямоугольник 32" x="30.000000" y="19.000000" rx="3.000000" width="12.000000" height="6.000000" fill="#D8FE00" fill-opacity="1.000000"/>
	<rect id="Прямоугольник 32" x="30.000000" y="13.000000" rx="3.000000" width="6.000000" height="6.000000" fill="#D8FE00" fill-opacity="1.000000"/>
	<rect id="Прямоугольник 32" x="12.000000" y="31.000000" rx="3.000000" width="12.000000" height="6.000000" fill="#67C16D" fill-opacity="1.000000"/>
	<rect id="Прямоугольник 32" x="18.000000" y="37.000000" rx="3.000000" width="6.000000" height="6.000000" fill="#67C16D" fill-opacity="1.000000"/>
</svg>
