<svg width="50" height="50" viewBox="0 0 50 50" fill="none" xmlns="http://www.w3.org/2000/svg">
<path d="M12.0183 49.9998C13.5982 50.0017 15.1628 49.6912 16.6224 49.0861C18.0819 48.481 19.4076 47.5933 20.5232 46.474L46.4446 20.537C48.6991 18.2804 49.9654 15.2201 49.965 12.0293C49.9645 8.83846 48.6973 5.77852 46.4421 3.52261C45.3254 2.40559 43.9998 1.51959 42.5409 0.915192C41.0821 0.310791 39.5185 -0.000171162 37.9395 5.8301e-05C34.7507 0.000521722 31.6926 1.26851 29.438 3.52508L3.52158 29.4572C1.8404 31.1398 0.695406 33.2833 0.231306 35.6168C-0.232794 37.9504 0.00482438 40.3692 0.914133 42.5676C1.82344 44.766 3.36363 46.6454 5.34007 47.9683C7.3165 49.2912 9.64048 49.9981 12.0183 49.9998Z" fill="#E7EAEF"/>
<path d="M46.4446 20.5369C47.671 19.3265 48.6212 17.8649 49.2298 16.2524C49.8385 14.6399 50.0913 12.9147 49.9708 11.1952C49.8502 9.47577 49.3593 7.80276 48.5317 6.29104C47.7041 4.77932 46.5594 3.46468 45.1761 2.43738C46.9251 4.75044 47.7785 7.61867 47.5786 10.5123C47.3787 13.4059 46.1391 16.1294 44.0887 18.1797L18.1674 44.1167C17.0518 45.236 15.7261 46.1238 14.2666 46.7288C12.807 47.3339 11.2423 47.6444 9.66249 47.6425C7.052 47.6407 4.51373 46.7848 2.43479 45.205C3.54347 46.7014 4.98891 47.9153 6.65396 48.7483C8.31901 49.5814 10.1568 50.0101 12.0184 49.9998C13.5982 50.0017 15.1629 49.6912 16.6224 49.0861C18.082 48.481 19.4076 47.5933 20.5232 46.474L46.4446 20.5369Z" fill="#D8DBE0"/>
<path d="M16.4806 16.4919L33.4838 33.5054L46.4446 20.5369C48.6991 18.2803 49.9654 15.22 49.965 12.0292C49.9645 8.83841 48.6973 5.77847 46.4421 3.52255C44.1869 1.26664 41.1284 -0.000462512 37.9395 1.26643e-07C34.7507 0.000462766 31.6926 1.26845 29.438 3.52502L16.4806 16.4919Z" fill="#FC6067"/>
<path d="M46.4446 3.52505C46.0473 3.13366 45.6235 2.77024 45.1761 2.43738C46.9251 4.75044 47.7785 7.61867 47.5786 10.5123C47.3787 13.4059 46.1391 16.1294 44.0887 18.1797L31.1281 31.1482L33.4839 33.5054L46.4446 20.5369C47.5621 19.4205 48.4486 18.0946 49.0535 16.6351C49.6583 15.1756 49.9697 13.611 49.9697 12.031C49.9697 10.4509 49.6583 8.88637 49.0535 7.42684C48.4486 5.96731 47.5621 4.64143 46.4446 3.52505Z" fill="#FB4B5B"/>
</svg>
