<svg width="50" height="50" viewBox="0 0 50 50" fill="none" xmlns="http://www.w3.org/2000/svg">
<path d="M25.0001 25.0002L35.8256 31.25L25.0001 50C38.8072 50 50 38.8072 50 25.0002C50 20.4452 48.7758 16.1785 46.6472 12.5001H24.9998L25.0001 25.0002Z" fill="url(#paint0_linear_473_15)"/>
<path d="M24.9998 0C15.7466 0 7.67375 5.03075 3.3509 12.503L14.1743 31.25L24.9998 25.0002V12.5001H46.6472C42.3237 5.02964 34.2519 0 24.9998 0Z" fill="url(#paint1_linear_473_15)"/>
<path d="M0.000147638 25.0002C0.000147638 38.8072 11.1926 50 25.0001 50L35.8256 31.25L25.0001 25.0002L14.1745 31.25L3.35116 12.503C1.22381 16.1804 0 20.4456 0 24.9998" fill="url(#paint2_linear_473_15)"/>
<path d="M37.5002 25.0002C37.5002 31.9037 31.9036 37.5003 25.0001 37.5003C18.0965 37.5003 12.4999 31.9037 12.4999 25.0002C12.4999 18.0967 18.0965 12.5001 25.0001 12.5001C31.9036 12.5001 37.5002 18.0967 37.5002 25.0002Z" fill="white"/>
<path d="M35.1565 25.0002C35.1565 30.6093 30.6092 35.1565 25.0001 35.1565C19.3909 35.1565 14.8437 30.6093 14.8437 25.0002C14.8437 19.3911 19.3909 14.8438 25.0001 14.8438C30.6092 14.8438 35.1565 19.3911 35.1565 25.0002Z" fill="url(#paint3_linear_473_15)"/>
<defs>
<linearGradient id="paint0_linear_473_15" x1="37.5533" y1="12.4485" x2="37.4999" y2="50" gradientUnits="userSpaceOnUse">
<stop stop-color="#AFCCFB"/>
<stop offset="1" stop-color="#8BB5F8"/>
</linearGradient>
<linearGradient id="paint1_linear_473_15" x1="21.3742" y1="0.380892" x2="23.4406" y2="33.9766" gradientUnits="userSpaceOnUse">
<stop stop-color="#1972E7"/>
<stop offset="1" stop-color="#1969D5"/>
</linearGradient>
<linearGradient id="paint2_linear_473_15" x1="17.9128" y1="12.503" x2="17.9128" y2="50" gradientUnits="userSpaceOnUse">
<stop stop-color="#659CF6"/>
<stop offset="1" stop-color="#4285F4"/>
</linearGradient>
<linearGradient id="paint3_linear_473_15" x1="24.8965" y1="14.8825" x2="25.0001" y2="35.1565" gradientUnits="userSpaceOnUse">
<stop stop-color="#3680F0"/>
<stop offset="1" stop-color="#2678EC"/>
</linearGradient>
</defs>
</svg>
