<svg width="50" height="50" viewBox="0 0 50 50" fill="none" xmlns="http://www.w3.org/2000/svg">
<path d="M44.9437 30.862L40.9417 31.09C38.7729 31.19 36.4458 32.888 35.6229 34.97L35.3292 35.696C35.2708 35.84 35.3729 35.984 35.5354 35.984H49.2812C49.4417 35.984 49.5875 35.884 49.6333 35.728C49.8667 34.9 50 34.03 50 33.132C50 27.858 45.5729 23.55 40.1375 23.55V23.54C39.9771 23.54 39.8021 23.54 39.6417 23.562C39.5229 23.562 39.4229 23.648 39.3771 23.76L38.6729 26.14C38.3667 27.168 38.4812 28.108 38.9937 28.808C39.4646 29.448 40.2562 29.818 41.2062 29.86L45.0479 30.09C45.1646 30.09 45.2667 30.142 45.325 30.232C45.3833 30.322 45.3979 30.45 45.3687 30.548C45.3104 30.718 45.1333 30.848 44.9437 30.862Z" fill="#F4A83F"/>
<path d="M0 34.634C0 34.988 0.0291667 35.346 0.0729167 35.702C0.102083 35.87 0.247917 36 0.425 36H33.7208C33.9104 36 34.0875 35.87 34.1438 35.686L34.3938 34.82C34.7 33.792 34.5833 32.85 34.0708 32.152C33.6021 31.512 32.8104 31.14 31.8583 31.098L13.8188 30.87C13.8167 30.87 13.8146 30.87 13.8146 30.87C13.7 30.87 13.6 30.814 13.5417 30.726C13.4833 30.64 13.4688 30.524 13.4979 30.41C13.5563 30.24 13.7313 30.11 13.9229 30.094L32.1229 29.866C34.2792 29.766 36.6229 28.068 37.4438 25.986L38.4833 23.348C38.5271 23.234 38.5438 23.118 38.5146 23.008C37.3417 17.85 32.6083 14 26.9521 14C21.7354 14 17.3104 17.28 15.7271 21.826C14.7 21.084 13.3958 20.684 11.9896 20.814C9.48333 21.056 7.47708 23.01 7.22708 25.448C7.16875 26.076 7.2125 26.69 7.35833 27.26C3.26667 27.374 0 30.626 0 34.634Z" fill="#ED7E1F"/>
</svg>
