<svg width="50" height="50" viewBox="0 0 50 50" fill="none" xmlns="http://www.w3.org/2000/svg">
<path d="M6 0H44V50H6V0Z" fill="#F9F6F9"/>
<path d="M25.1734 34.375H9.19556V15.625H28.369L25.1734 34.375Z" fill="#C8EA73"/>
<path d="M9.19556 29.6875L12.3911 26.5625L18.7701 29.6875L15.5867 23.4375L21.9779 21.875L15.5623 18.75L18.7823 15.625H9.19556V29.6875Z" fill="#EFC359"/>
<path d="M6 0H8.05753V50H6V0Z" fill="#DDDAEC"/>
<path d="M9.19556 3.12498H41.1514V12.5H9.19556V3.12498Z" fill="#F5DB5A"/>
<path d="M9.19556 37.5H41.1514V46.875H9.19556V37.5Z" fill="#DF6B57"/>
<path d="M41.1512 34.375H28.3689L31.5646 15.625H41.1512V34.375Z" fill="#9DC6FB"/>
<path d="M16.4023 3.87911C16.6069 3.87911 16.8032 3.79961 16.9479 3.65811C17.0926 3.51661 17.1738 3.32469 17.1738 3.12457C17.1738 2.92446 17.0926 2.73254 16.9479 2.59104C16.8032 2.44954 16.6069 2.37004 16.4023 2.37004H9.19575C8.99112 2.37004 8.79486 2.44954 8.65016 2.59104C8.50547 2.73254 8.42418 2.92446 8.42418 3.12457V12.4999C8.42418 12.7 8.50547 12.8919 8.65016 13.0334C8.79486 13.1749 8.99112 13.2544 9.19575 13.2544H41.1513C41.356 13.2544 41.5522 13.1749 41.6969 13.0334C41.8416 12.8919 41.9229 12.7 41.9229 12.4999V3.12457C41.9229 2.92446 41.8416 2.73254 41.6969 2.59104C41.5522 2.44954 41.356 2.37004 41.1513 2.37004H19.7653C19.5607 2.37004 19.3644 2.44954 19.2197 2.59104C19.075 2.73254 18.9937 2.92446 18.9937 3.12457C18.9937 3.32469 19.075 3.51661 19.2197 3.65811C19.3644 3.79961 19.5607 3.87911 19.7653 3.87911H40.3798V11.7454H9.96733V3.87911H16.4023ZM9.19575 47.63H41.1513C41.356 47.63 41.5522 47.5505 41.6969 47.409C41.8416 47.2675 41.9229 47.0755 41.9229 46.8754V37.5001C41.9229 37.3 41.8416 37.1081 41.6969 36.9666C41.5522 36.8251 41.356 36.7456 41.1513 36.7456H27.1477C26.9431 36.7456 26.7469 36.8251 26.6022 36.9666C26.4575 37.1081 26.3762 37.3 26.3762 37.5001C26.3762 37.7002 26.4575 37.8921 26.6022 38.0336C26.7469 38.1751 26.9431 38.2546 27.1477 38.2546H40.3798V46.1209H9.96733V38.2546H23.7857C23.9904 38.2546 24.1866 38.1751 24.3313 38.0336C24.476 37.8921 24.5573 37.7002 24.5573 37.5001C24.5573 37.3 24.476 37.1081 24.3313 36.9666C24.1866 36.8251 23.9904 36.7456 23.7857 36.7456H9.19575C8.99112 36.7456 8.79486 36.8251 8.65016 36.9666C8.50547 37.1081 8.42418 37.3 8.42418 37.5001V46.8754C8.42418 47.0755 8.50547 47.2675 8.65016 47.409C8.79486 47.5505 8.99112 47.63 9.19575 47.63ZM9.19565 35.1296H25.1735C25.3562 35.1296 25.5329 35.0662 25.6723 34.9508C25.8116 34.8353 25.9046 34.6753 25.9346 34.4991L29.1302 15.7491C29.154 15.2263 28.9004 14.9334 28.3691 14.8705H9.19565C8.99101 14.8705 8.79476 14.95 8.65006 15.0915C8.50536 15.233 8.42407 15.425 8.42407 15.6251V34.375C8.42407 34.5751 8.50536 34.7671 8.65006 34.9086C8.79476 35.0501 8.99101 35.1296 9.19565 35.1296ZM24.52 33.6205H9.96722V30L12.5433 27.4809L18.4245 30.3621C18.9799 30.6342 19.819 30.0544 19.4608 29.3511L16.7057 23.9417L22.1651 22.607C22.9531 22.3926 23.0817 21.6046 22.322 21.1997L16.8699 18.544L19.1002 16.3796H27.4582L24.52 33.6205ZM16.9096 16.3795L15.0189 18.2144C14.6614 18.6849 14.7279 19.0885 15.2184 19.4254L19.7626 21.6389L15.3997 22.7055C14.8828 22.9043 14.7149 23.2605 14.8962 23.7739L17.0488 28.0003L12.7368 25.8879C12.5919 25.817 12.4278 25.7924 12.2679 25.8177C12.1079 25.843 11.9602 25.917 11.8455 26.029L9.96712 27.8659V16.3795H16.9096ZM41.923 15.625C41.923 15.4249 41.8417 15.2329 41.697 15.0914C41.5523 14.9499 41.3561 14.8704 41.1514 14.8704H31.5648C31.3821 14.8704 31.2054 14.9338 31.066 15.0493C30.9267 15.1647 30.8337 15.3248 30.8037 15.5009L27.6081 34.2509C27.5843 34.7737 27.8379 35.0666 28.3692 35.1295H41.1515C41.3562 35.1295 41.5524 35.05 41.6971 34.9085C41.8418 34.767 41.9231 34.575 41.9231 34.3749L41.923 15.625ZM40.3799 33.6205H29.28L32.2183 16.3796H40.3799V33.6205Z" fill="black"/>
</svg>
