<svg width="50" height="50" viewBox="0 0 50 50" fill="none" xmlns="http://www.w3.org/2000/svg">
<path d="M48.6111 0H1.38889C0.555556 0 0 0.555556 0 1.38889V50H50V1.38889C50 0.555556 49.4444 0 48.6111 0Z" fill="#CFD8DC"/>
<path d="M2.77778 9.72222H47.2222V47.2222H2.77778V9.72222Z" fill="#263238"/>
<path d="M18.7222 30.1667C18.5833 31.6945 18.1667 32.8056 17.3333 33.6389C16.5 34.4723 15.3889 34.8889 13.8611 34.8889C12.3333 34.8889 11.0833 34.3334 10.25 33.3611C9.4167 32.3889 9 30.8611 9 29.0556V26.8334C9 25.0278 9.4167 23.5 10.25 22.5278C11.0833 21.5556 12.3333 21 13.8611 21C15.3889 21 16.5 21.4167 17.3333 22.25C18.1667 23.0834 18.5833 24.1945 18.7222 25.8611H15.9444C15.9444 24.8889 15.8056 24.1945 15.5278 23.9167C15.25 23.5 14.6944 23.3611 14 23.3611C13.3056 23.3611 12.75 23.6389 12.3333 24.1945C12.0556 24.75 11.9167 25.5834 11.7778 26.6945V29.1945C11.7778 30.5834 11.9167 31.4167 12.1944 31.9723C12.4722 32.5278 13.0278 32.6667 13.7222 32.6667C14.4167 32.6667 14.9722 32.5278 15.25 32.1111C15.5278 31.6945 15.6667 31.1389 15.6667 30.1667H18.7222ZM21.5 25.1667C21.5 24.75 21.6389 24.4723 21.9167 24.1945C22.1944 23.9167 22.4722 23.7778 22.8889 23.7778C23.3056 23.7778 23.5833 23.9167 23.8611 24.1945C24.1389 24.4723 24.2778 24.75 24.2778 25.1667C24.2778 25.5834 24.1389 25.8611 23.8611 26.1389C23.5833 26.4167 23.3056 26.5556 22.8889 26.5556C22.4722 26.5556 22.1944 26.4167 21.9167 26.1389C21.6389 25.8611 21.5 25.5834 21.5 25.1667ZM21.5 33.5C21.5 33.0834 21.6389 32.8056 21.9167 32.5278C22.1944 32.25 22.4722 32.1111 22.8889 32.1111C23.3056 32.1111 23.5833 32.25 23.8611 32.5278C24.1389 32.8056 24.2778 33.0834 24.2778 33.5C24.2778 33.9167 24.1389 34.1945 23.8611 34.4723C23.5833 34.75 23.3056 34.8889 22.8889 34.8889C22.4722 34.8889 22.1944 34.75 21.9167 34.4723C21.6389 34.1945 21.5 33.9167 21.5 33.5ZM27.0556 21H29.8333L34 34.8889H31.2222L27.0556 21Z" fill="#76FF03"/>
<path d="M10.4167 2.77778C9.86413 2.77778 9.33423 2.99727 8.94353 3.38797C8.55283 3.77867 8.33333 4.30858 8.33333 4.86111C8.33333 5.41365 8.55283 5.94355 8.94353 6.33425C9.33423 6.72495 9.86413 6.94444 10.4167 6.94444C10.9692 6.94444 11.4991 6.72495 11.8898 6.33425C12.2805 5.94355 12.5 5.41365 12.5 4.86111C12.5 4.30858 12.2805 3.77867 11.8898 3.38797C11.4991 2.99727 10.9692 2.77778 10.4167 2.77778ZM4.86111 2.77778C4.30858 2.77778 3.77867 2.99727 3.38797 3.38797C2.99727 3.77867 2.77778 4.30858 2.77778 4.86111C2.77778 5.41365 2.99727 5.94355 3.38797 6.33425C3.77867 6.72495 4.30858 6.94444 4.86111 6.94444C5.41365 6.94444 5.94355 6.72495 6.33425 6.33425C6.72495 5.94355 6.94444 5.41365 6.94444 4.86111C6.94444 4.30858 6.72495 3.77867 6.33425 3.38797C5.94355 2.99727 5.41365 2.77778 4.86111 2.77778Z" fill="#90A4AE"/>
<g id="line">
<rect x="39" y="17" width="2" height="22" fill="black"/>
</g>
<animate
  href="#line"
  attributeName="opacity"
  values="0; 1; 0;"
  dur="2s"
  keyTimes="0; 0.5; 1"
  repeatCount="indefinite"/>
<defs>
<clipPath id="clip0_379_169">
<rect width="50" height="50" fill="white"/>
</clipPath>
</defs>
</svg>
