<svg width="50" height="50" viewBox="0 0 50 50" fill="none" xmlns="http://www.w3.org/2000/svg">
<path d="M25.7645 50H24.2822C24.2135 49.975 24.1445 49.9687 24.0751 49.9687C23.2837 49.9312 22.4981 49.8675 21.7194 49.7616C20.2626 49.5731 18.8303 49.2528 17.436 48.8074C15.0431 48.0416 12.8135 46.9427 10.7471 45.5107C8.831 44.1792 7.13587 42.6096 5.65962 40.8016C3.91925 38.6791 2.56312 36.3367 1.60175 33.7629C0.741 31.4772 0.226125 29.1105 0.0687497 26.6676C0.0687497 26.5358 0.04375 26.4039 0 26.272V23.6913C0.04375 23.5775 0.0624997 23.4587 0.0687497 23.3396C0.0999997 22.7555 0.1625 22.1714 0.23875 21.5941C0.615875 18.8064 1.44437 16.1623 2.71962 13.6568C3.59887 11.9298 4.66675 10.323 5.92237 8.84025C7.16612 7.37125 8.5605 6.05838 10.1051 4.90963C12.6239 3.03813 15.3939 1.68825 18.4209 0.859875C19.8904 0.4585 21.392 0.19475 22.9114 0.0687501C23.1811 0.0437501 23.4644 0.06875 23.7341 0H26.2715C26.466 0.05625 26.6672 0.0249998 26.8616 0.0437498C27.8671 0.13125 28.8656 0.257625 29.8574 0.452C32.9791 1.06737 35.8741 2.23563 38.5503 3.9615C40.6295 5.29888 42.4634 6.9125 44.0647 8.78987C45.3526 10.297 46.4449 11.936 47.337 13.706C48.3921 15.7974 49.1455 17.9882 49.5735 20.2925C49.7992 21.5105 49.9692 22.7413 49.975 23.9846C49.975 24.0671 49.9938 24.1546 50 24.2356V25.7176C49.975 25.8114 49.975 25.912 49.9687 26.0125C49.9687 26.2509 49.9687 26.4903 49.95 26.7285C49.8362 28.2484 49.5982 29.7488 49.2211 31.2305C48.499 34.0124 47.3364 36.5931 45.7222 38.9725C44.5224 40.7434 43.1222 42.3385 41.514 43.7509C39.9126 45.1575 38.1598 46.3444 36.2565 47.3045C34.064 48.4093 31.7591 49.176 29.3409 49.596C28.4116 49.7591 27.4756 49.8656 26.5337 49.9223C26.2856 49.951 26.0224 49.945 25.7645 50Z" fill="#383838"/>
<path style="mix-blend-mode:lighten" d="M18.4975 14.6269C18.48 15.0862 18.5616 15.5884 18.697 16.0907C18.9548 17.0464 19.3821 17.922 19.886 18.7492C21.034 20.6302 22.4809 22.2405 24.0507 23.7357C24.1793 23.8586 24.3324 23.9624 24.4962 24.0415C24.6604 24.1269 24.8243 24.1269 24.9939 24.0537C25.1577 23.9805 25.3044 23.8764 25.4275 23.7411C25.9723 23.1779 26.5108 22.6138 27.0265 22.0316C27.7527 21.2045 28.4443 20.3535 29.071 19.4407C29.6396 18.6136 30.1489 17.7436 30.5234 16.8002C30.8979 15.8626 31.08 14.8955 30.957 13.8786C30.752 12.2006 30.0669 10.7789 28.8424 9.66407C27.3946 8.34806 25.7082 7.82114 23.8103 8.11466C20.7234 8.59304 18.4856 11.4356 18.4975 14.6269Z" fill="url(#paint0_radial_48_745)"/>
<path d="M34.4727 37.4982C34.0842 37.51 33.6479 37.462 33.2118 37.3694C31.9215 37.0869 30.8255 36.5002 29.9833 35.4601C29.4711 34.8258 29.0404 34.1384 28.6693 33.4155C28.2329 32.5637 27.8683 31.6762 27.5503 30.7778C27.1618 29.6911 26.8319 28.5807 26.5779 27.4583C26.4369 26.8295 26.5954 26.4356 27.2909 26.219C28.1743 25.943 29.0642 25.6962 29.9714 25.496C31.4734 25.1669 32.9873 24.9558 34.5314 25.0078C34.9677 25.0253 35.403 25.0722 35.8336 25.1485C37.0827 25.3662 38.1429 25.942 39.0088 26.8523C40.4879 28.4033 41.0762 30.254 40.7115 32.3635C40.1873 35.3778 37.5124 37.522 34.4727 37.4982Z" fill="url(#paint1_radial_48_745)"/>
<path d="M15.0176 37.4982C15.4061 37.51 15.8424 37.462 16.2785 37.3694C17.5689 37.0869 18.6648 36.5002 19.5071 35.4601C20.0193 34.8258 20.4499 34.1384 20.8211 33.4155C21.2574 32.5637 21.622 31.6762 21.94 30.7778C22.3285 29.6911 22.6584 28.5807 22.9124 27.4583C23.0534 26.8295 22.8949 26.4356 22.1994 26.219C21.3161 25.943 20.4261 25.6962 19.5189 25.496C18.0169 25.1669 16.503 24.9558 14.9589 25.0078C14.5226 25.0253 14.0873 25.0722 13.6567 25.1485C12.4076 25.3662 11.3474 25.942 10.4815 26.8523C9.00243 28.4033 8.41413 30.254 8.77886 32.3635C9.30303 35.3778 11.978 37.522 15.0176 37.4982Z" fill="url(#paint2_radial_48_745)"/>
<defs>
<radialGradient id="paint0_radial_48_745" cx="0" cy="0" r="1" gradientUnits="userSpaceOnUse" gradientTransform="translate(24.8661 23.274) rotate(4.82254) scale(6.63894 12.2721)">
<stop stop-color="white"/>
<stop offset="1" stop-color="#009BD8"/>
</radialGradient>
<radialGradient id="paint1_radial_48_745" cx="0" cy="0" r="1" gradientUnits="userSpaceOnUse" gradientTransform="translate(26.6003 27.0741) rotate(21.7759) scale(14.6402 7.82339)">
<stop stop-color="white"/>
<stop offset="1" stop-color="#FF3044"/>
</radialGradient>
<radialGradient id="paint2_radial_48_745" cx="0" cy="0" r="1" gradientUnits="userSpaceOnUse" gradientTransform="translate(22.8124 26.5437) rotate(146.321) scale(14.795 6.72509)">
<stop stop-color="white"/>
<stop offset="1" stop-color="#FCFF7C"/>
</radialGradient>
</defs>
</svg>
