<svg width="50" height="50" viewBox="0 0 50 50" fill="none" xmlns="http://www.w3.org/2000/svg">
<path d="M0.328949 5.33333H49.6711V44.6667H0.328949V5.33333Z" fill="#8BB7F0"/>
<path d="M49.3421 5.66667V44.3333H0.657895V5.66667H49.3421ZM50 5H0V45H50V5Z" fill="#4E7AB5"/>
<path d="M0.657898 39.6667H49.3421V44.3333H0.657898V39.6667Z" fill="#36404D"/>
<path d="M26.7426 24.8856H12.6354V19.1145H26.7426V12.5142L36.2284 22L26.7426 31.4858V24.8856Z" fill="#8BB7F0"/>
<path d="M27.1316 13.5088L36.0697 22L27.1316 30.4912V25.125V24.5H26.4737H12.6579V19.5H26.4737H27.1316V18.875V13.5088ZM26.4737 12V18.875H12V25.125H26.4737V32L37 22L26.4737 12Z" fill="#4E7AB5"/>
</svg>
