<svg width="50" height="50" viewBox="0 0 50 50" fill="none" xmlns="http://www.w3.org/2000/svg">
<path d="M44 50L25 43.5484L6 50V1.6129C6 1.18513 6.16682 0.774886 6.46375 0.472408C6.76068 0.16993 7.16341 0 7.58333 0H42.4167C42.8366 0 43.2393 0.16993 43.5363 0.472408C43.8332 0.774886 44 1.18513 44 1.6129V50Z" fill="#E36861"/>
<path d="M25 34.6774C31.9956 34.6774 37.6667 28.9004 37.6667 21.7742C37.6667 14.6479 31.9956 8.87097 25 8.87097C18.0044 8.87097 12.3333 14.6479 12.3333 21.7742C12.3333 28.9004 18.0044 34.6774 25 34.6774Z" fill="#A8D7E4"/>
<path d="M25 11.2903L27.3362 18.5484H34.5L28.7802 23.1177L31.3333 30.6452L25 25.9411L18.6667 30.6452L21.2198 23.1177L15.5 18.5484H22.6638L25 11.2903Z" fill="#FCEA81"/>
<path d="M11.5417 21.7742C11.5417 24.4857 12.331 27.1363 13.8098 29.3909C15.2886 31.6454 17.3905 33.4026 19.8497 34.4403C22.3089 35.4779 25.0149 35.7494 27.6256 35.2204C30.2362 34.6915 32.6343 33.3857 34.5165 31.4684C36.3987 29.5511 37.6804 27.1082 38.1997 24.4488C38.719 21.7894 38.4525 19.0328 37.4339 16.5277C36.4152 14.0226 34.6903 11.8815 32.477 10.375C30.2638 8.86857 27.6618 8.06452 25 8.06452C21.4318 8.06857 18.011 9.51428 15.4879 12.0845C12.9649 14.6547 11.5456 18.1394 11.5417 21.7742ZM36.875 21.7742C36.875 24.1667 36.1785 26.5055 34.8737 28.4948C33.5689 30.4841 31.7142 32.0346 29.5444 32.9502C27.3745 33.8657 24.9868 34.1053 22.6833 33.6385C20.3798 33.1718 18.2639 32.0197 16.6031 30.3279C14.9424 28.6361 13.8114 26.4807 13.3532 24.1342C12.895 21.7876 13.1301 19.3554 14.0289 17.145C14.9277 14.9346 16.4498 13.0453 18.4026 11.7161C20.3554 10.3869 22.6513 9.67742 25 9.67742C28.1483 9.68105 31.1667 10.9567 33.393 13.2245C35.6192 15.4923 36.8714 18.567 36.875 21.7742Z" fill="black"/>
<path d="M24.2479 11.0387L22.0898 17.7419H15.5C15.3353 17.7419 15.1747 17.7943 15.0405 17.8916C14.9064 17.989 14.8054 18.1266 14.7516 18.2852C14.6979 18.4438 14.694 18.6155 14.7406 18.7765C14.7872 18.9374 14.8819 19.0795 15.0115 19.1831L20.288 23.3976L17.9185 30.3823C17.8637 30.5445 17.8611 30.7203 17.9111 30.8841C17.9611 31.0479 18.0611 31.1912 18.1965 31.2932C18.3319 31.3952 18.4958 31.4505 18.6642 31.4512C18.8326 31.4518 18.9968 31.3977 19.133 31.2968L25 26.9355L30.867 31.2903C31.0032 31.3913 31.1674 31.4454 31.3358 31.4447C31.5043 31.4441 31.6681 31.3888 31.8035 31.2868C31.9389 31.1848 32.0389 31.0415 32.0889 30.8776C32.1389 30.7138 32.1363 30.538 32.0815 30.3758L29.712 23.3911L34.9885 19.1766C35.1156 19.0724 35.208 18.9307 35.253 18.7709C35.2981 18.6112 35.2935 18.4411 35.2401 18.2841C35.1866 18.127 35.0868 17.9907 34.9543 17.8936C34.8218 17.7966 34.6632 17.7436 34.5 17.7419H27.9102L25.7521 11.0387C25.7 10.8774 25.5993 10.7369 25.4642 10.6373C25.3292 10.5377 25.1667 10.4841 25 10.4841C24.8333 10.4841 24.6708 10.5377 24.5358 10.6373C24.4007 10.7369 24.3 10.8774 24.2479 11.0387ZM26.5833 18.8C26.6354 18.9614 26.7361 19.1019 26.8711 19.2015C27.0062 19.3012 27.1687 19.3548 27.3354 19.3548H32.2042L28.2878 22.4831C28.1583 22.5866 28.0636 22.7287 28.0171 22.8896C27.9706 23.0504 27.9744 23.2221 28.0281 23.3806L29.7579 28.479L25.4631 25.2895C25.3277 25.189 25.1644 25.1348 24.9968 25.1348C24.8292 25.1348 24.666 25.189 24.5305 25.2895L20.2358 28.479L21.9655 23.3806C22.0193 23.2221 22.0231 23.0504 21.9766 22.8896C21.93 22.7287 21.8354 22.5866 21.7059 22.4831L17.7958 19.3548H22.667C22.8337 19.3548 22.9962 19.3012 23.1312 19.2015C23.2663 19.1019 23.367 18.9614 23.419 18.8L25.0024 13.8806L26.5833 18.8Z" fill="black"/>
</svg>
