<svg width="50.006470" height="50.000244" viewBox="0 0 50.0065 50.0002" fill="none" xmlns="http://www.w3.org/2000/svg" xmlns:xlink="http://www.w3.org/1999/xlink">
	<desc>
			Created with Pixso.
	</desc>
	<defs>
		<linearGradient x1="45.239140" y1="7.440132" x2="2.923649" y2="46.973049" id="paint_linear_151_11_0" gradientUnits="userSpaceOnUse">
			<stop offset="0.048000" stop-color="#FFF44F"/>
			<stop offset="0.111000" stop-color="#FFE847"/>
			<stop offset="0.225000" stop-color="#FFC830"/>
			<stop offset="0.368000" stop-color="#FF980E"/>
			<stop offset="0.401000" stop-color="#FF8B16"/>
			<stop offset="0.462000" stop-color="#FF672A"/>
			<stop offset="0.534000" stop-color="#FF3647"/>
			<stop offset="0.705000" stop-color="#E31587"/>
		</linearGradient>
		<radialGradient gradientTransform="translate(43.6016 5.28392) rotate(0) scale(53.1384 54.8781)" cx="0.000000" cy="0.000000" r="1.000000" id="paint_radial_151_12_0" gradientUnits="userSpaceOnUse">
			<stop offset="0.129000" stop-color="#FFBD4F"/>
			<stop offset="0.186000" stop-color="#FFAC31"/>
			<stop offset="0.247000" stop-color="#FF9D17"/>
			<stop offset="0.283000" stop-color="#FF980E"/>
			<stop offset="0.403000" stop-color="#FF563B"/>
			<stop offset="0.467000" stop-color="#FF3750"/>
			<stop offset="0.710000" stop-color="#F5156C"/>
			<stop offset="0.782000" stop-color="#EB0878"/>
			<stop offset="0.860000" stop-color="#E50080"/>
		</radialGradient>
		<radialGradient gradientTransform="translate(23.8719 26.2985) rotate(0) scale(53.1384 54.8781)" cx="0.000000" cy="0.000000" r="1.000000" id="paint_radial_151_13_0" gradientUnits="userSpaceOnUse">
			<stop offset="0.300000" stop-color="#960E18"/>
			<stop offset="0.351000" stop-color="#B11927" stop-opacity="0.737255"/>
			<stop offset="0.435000" stop-color="#DB293D" stop-opacity="0.341176"/>
			<stop offset="0.497000" stop-color="#F5334B" stop-opacity="0.090196"/>
			<stop offset="0.530000" stop-color="#FF3750" stop-opacity="0.000000"/>
		</radialGradient>
		<radialGradient gradientTransform="translate(30.4485 -6.17847) rotate(0) scale(38.4924 39.753)" cx="0.000000" cy="0.000000" r="1.000000" id="paint_radial_151_14_0" gradientUnits="userSpaceOnUse">
			<stop offset="0.132000" stop-color="#FFF44F"/>
			<stop offset="0.252000" stop-color="#FFDC3E"/>
			<stop offset="0.506000" stop-color="#FF9D12"/>
			<stop offset="0.526000" stop-color="#FF980E"/>
		</radialGradient>
		<radialGradient gradientTransform="translate(17.9531 39.6715) rotate(0) scale(25.3001 26.1281)" cx="0.000000" cy="0.000000" r="1.000000" id="paint_radial_151_15_0" gradientUnits="userSpaceOnUse">
			<stop offset="0.353000" stop-color="#3A8EE6"/>
			<stop offset="0.472000" stop-color="#5C79F0"/>
			<stop offset="0.669000" stop-color="#9059FF"/>
			<stop offset="1.000000" stop-color="#C139E6"/>
		</radialGradient>
		<radialGradient gradientTransform="translate(26.4422 21.8813) rotate(-13.1759) scale(13.393 16.1937)" cx="0.000000" cy="0.000000" r="1.000000" id="paint_radial_151_16_0" gradientUnits="userSpaceOnUse">
			<stop offset="0.206000" stop-color="#9059FF" stop-opacity="0.000000"/>
			<stop offset="0.278000" stop-color="#8C4FF3" stop-opacity="0.062745"/>
			<stop offset="0.747000" stop-color="#7716A8" stop-opacity="0.447059"/>
			<stop offset="0.975000" stop-color="#6E008B" stop-opacity="0.600000"/>
		</radialGradient>
		<radialGradient gradientTransform="translate(23.2142 3.37346) rotate(0) scale(18.204 18.7997)" cx="0.000000" cy="0.000000" r="1.000000" id="paint_radial_151_17_0" gradientUnits="userSpaceOnUse">
			<stop stop-color="#FFE226"/>
			<stop offset="0.121000" stop-color="#FFDB27"/>
			<stop offset="0.295000" stop-color="#FFC82A"/>
			<stop offset="0.502000" stop-color="#FFA930"/>
			<stop offset="0.732000" stop-color="#FF7E37"/>
			<stop offset="0.792000" stop-color="#FF7139"/>
		</radialGradient>
		<radialGradient gradientTransform="translate(37.6827 -8.08892) rotate(0) scale(77.6691 80.2117)" cx="0.000000" cy="0.000000" r="1.000000" id="paint_radial_151_18_0" gradientUnits="userSpaceOnUse">
			<stop offset="0.113000" stop-color="#FFF44F"/>
			<stop offset="0.456000" stop-color="#FF980E"/>
			<stop offset="0.622000" stop-color="#FF5634"/>
			<stop offset="0.716000" stop-color="#FF3647"/>
			<stop offset="0.904000" stop-color="#E31587"/>
		</radialGradient>
		<radialGradient gradientTransform="translate(31.2272 -3.91922) rotate(83.7804) scale(55.1331 37.3677)" cx="0.000000" cy="0.000000" r="1.000000" id="paint_radial_151_19_0" gradientUnits="userSpaceOnUse">
			<stop stop-color="#FFF44F"/>
			<stop offset="0.060000" stop-color="#FFE847"/>
			<stop offset="0.168000" stop-color="#FFC830"/>
			<stop offset="0.304000" stop-color="#FF980E"/>
			<stop offset="0.356000" stop-color="#FF8B16"/>
			<stop offset="0.455000" stop-color="#FF672A"/>
			<stop offset="0.570000" stop-color="#FF3647"/>
			<stop offset="0.737000" stop-color="#E31587"/>
		</radialGradient>
		<radialGradient gradientTransform="translate(23.2142 9.74158) rotate(0) scale(48.4825 50.0694)" cx="0.000000" cy="0.000000" r="1.000000" id="paint_radial_151_20_0" gradientUnits="userSpaceOnUse">
			<stop offset="0.137000" stop-color="#FFF44F"/>
			<stop offset="0.480000" stop-color="#FF980E"/>
			<stop offset="0.592000" stop-color="#FF5634"/>
			<stop offset="0.655000" stop-color="#FF3647"/>
			<stop offset="0.904000" stop-color="#E31587"/>
		</radialGradient>
		<radialGradient gradientTransform="translate(35.7097 12.2887) rotate(0) scale(53.0661 54.8039)" cx="0.000000" cy="0.000000" r="1.000000" id="paint_radial_151_21_0" gradientUnits="userSpaceOnUse">
			<stop offset="0.094000" stop-color="#FFF44F"/>
			<stop offset="0.231000" stop-color="#FFE141"/>
			<stop offset="0.509000" stop-color="#FFAF1E"/>
			<stop offset="0.626000" stop-color="#FF980E"/>
		</radialGradient>
		<linearGradient x1="44.726097" y1="7.229986" x2="8.726068" y2="42.095116" id="paint_linear_151_22_0" gradientUnits="userSpaceOnUse">
			<stop offset="0.167000" stop-color="#FFF44F" stop-opacity="0.800000"/>
			<stop offset="0.266000" stop-color="#FFF44F" stop-opacity="0.631373"/>
			<stop offset="0.489000" stop-color="#FFF44F" stop-opacity="0.215686"/>
			<stop offset="0.600000" stop-color="#FFF44F" stop-opacity="0.000000"/>
		</linearGradient>
	</defs>
	<path id="path" d="M48.18 16.78C47.1 14.25 44.89 11.51 43.16 10.65C44.4 12.97 45.25 15.42 45.7 18C42.87 11.17 38.07 8.46 34.15 2.46C33.96 2.16 33.76 1.85 33.56 1.53C33.45 1.35 33.37 1.18 33.29 1.03C33.13 0.73 33 0.41 32.91 0.07C32.92 0.04 32.9 0.01 32.86 0.01C32.85 0.01 32.79 0.02 32.78 0.03C26.49 3.59 24.37 10.17 24.18 13.47C21.61 13.64 19.31 14.5 17.28 16.04C17.08 15.87 16.86 15.72 16.64 15.57C16.06 13.6 16.03 11.63 16.57 9.65C14.23 10.74 12.23 12.24 10.54 14.15C9.55 12.94 9.61 8.92 9.67 8.08C9.37 8.2 9.09 8.34 8.83 8.51C7.95 9.12 7.14 9.8 6.38 10.54C5.53 11.39 4.75 12.29 4.04 13.26C2.42 15.49 1.3 17.94 0.69 20.6L0.65 20.76C0.61 20.98 0.44 22.04 0.41 22.28C0.19 23.38 0.05 24.55 0 25.67L0 25.79C0 27.3 0.14 28.79 0.43 30.26C0.72 31.74 1.15 33.18 1.71 34.58C2.28 35.98 2.97 37.32 3.8 38.59C4.62 39.87 5.55 41.06 6.61 42.16C7.66 43.27 8.8 44.27 10.05 45.17C11.29 46.07 12.61 46.85 14 47.51C15.4 48.18 16.84 48.71 18.34 49.11C19.83 49.51 21.36 49.78 22.9 49.9C24.45 50.03 25.99 50.02 27.54 49.87C29.08 49.72 30.6 49.43 32.09 49.01C33.58 48.58 35.01 48.03 36.4 47.34C37.78 46.66 39.09 45.86 40.32 44.94C41.54 44.03 42.68 43.01 43.71 41.88C44.74 40.76 45.66 39.56 46.46 38.27C47.26 36.98 47.94 35.64 48.48 34.23C49.02 32.82 49.42 31.37 49.69 29.89C49.73 29.58 49.77 29.27 49.8 28.96C50.33 24.76 49.79 20.71 48.18 16.78ZM19.33 35.76C19.45 35.81 19.56 35.87 19.68 35.92C19.56 35.87 19.46 35.82 19.33 35.76Z" fill="url(#paint_linear_151_11_0)" fill-opacity="1.000000" fill-rule="nonzero"/>
	<path id="path" d="M48.18 16.78C47.1 14.25 44.89 11.51 43.16 10.65C44.4 12.97 45.25 15.42 45.7 18C46.66 20.68 47.08 23.48 46.95 26.3C46.81 29.13 46.14 31.84 44.92 34.41C42.05 40.37 35.11 46.48 24.24 46.18C12.5 45.86 2.16 37.42 0.23 26.37C-0.13 24.63 0.23 23.74 0.4 22.33C0.16 23.43 0.03 24.54 0 25.67L0 25.8C0 27.3 0.15 28.79 0.44 30.27C0.73 31.74 1.15 33.18 1.72 34.58C2.28 35.98 2.98 37.32 3.8 38.59C4.62 39.87 5.56 41.06 6.61 42.16C7.66 43.27 8.81 44.27 10.05 45.17C11.3 46.07 12.62 46.85 14.01 47.51C15.4 48.18 16.85 48.71 18.34 49.11C19.84 49.51 21.36 49.78 22.91 49.9C24.45 50.03 26 50.02 27.54 49.87C29.09 49.72 30.61 49.43 32.09 49.01C33.58 48.58 35.02 48.03 36.4 47.35C37.79 46.66 39.09 45.86 40.32 44.94C41.55 44.03 42.68 43.01 43.71 41.88C44.75 40.76 45.66 39.56 46.47 38.27C47.27 36.98 47.94 35.64 48.48 34.23C49.03 32.82 49.43 31.37 49.7 29.89C49.74 29.58 49.77 29.27 49.81 28.96C50.33 24.76 49.79 20.71 48.18 16.78Z" fill="url(#paint_radial_151_12_0)" fill-opacity="1.000000" fill-rule="nonzero"/>
	<path id="path" d="M48.18 16.78C47.1 14.25 44.89 11.51 43.16 10.65C44.4 12.97 45.25 15.42 45.7 18C46.66 20.68 47.08 23.48 46.95 26.3C46.81 29.13 46.14 31.84 44.92 34.41C42.05 40.37 35.11 46.48 24.24 46.18C12.5 45.86 2.16 37.42 0.23 26.37C-0.13 24.63 0.23 23.74 0.4 22.33C0.16 23.43 0.03 24.54 0 25.67L0 25.8C0 27.3 0.15 28.79 0.44 30.27C0.73 31.74 1.15 33.18 1.72 34.58C2.28 35.98 2.98 37.32 3.8 38.59C4.62 39.87 5.56 41.06 6.61 42.16C7.66 43.27 8.81 44.27 10.05 45.17C11.3 46.07 12.62 46.85 14.01 47.51C15.4 48.18 16.85 48.71 18.34 49.11C19.84 49.51 21.36 49.78 22.91 49.9C24.45 50.03 26 50.02 27.54 49.87C29.09 49.72 30.61 49.43 32.09 49.01C33.58 48.58 35.02 48.03 36.4 47.35C37.79 46.66 39.09 45.86 40.32 44.94C41.55 44.03 42.68 43.01 43.71 41.88C44.75 40.76 45.66 39.56 46.47 38.27C47.27 36.98 47.94 35.64 48.48 34.23C49.03 32.82 49.43 31.37 49.7 29.89C49.74 29.58 49.77 29.27 49.81 28.96C50.33 24.76 49.79 20.71 48.18 16.78Z" fill="url(#paint_radial_151_13_0)" fill-opacity="1.000000" fill-rule="nonzero"/>
	<path id="path" d="M36.02 19.63C36.07 19.67 36.12 19.7 36.17 19.74C35.54 18.66 34.76 17.68 33.85 16.8C26.06 9.27 31.81 0.47 32.78 0.02C26.49 3.58 24.36 10.17 24.17 13.47C24.46 13.45 24.75 13.43 25.05 13.43C27.32 13.43 29.44 13.99 31.4 15.1C33.36 16.2 34.9 17.72 36.02 19.63Z" fill="url(#paint_radial_151_14_0)" fill-opacity="1.000000" fill-rule="nonzero"/>
	<path id="path" d="M25.06 21.14C25.02 21.74 22.82 23.82 22.05 23.82C14.94 23.82 13.78 27.99 13.78 27.99C14.1 31.5 16.62 34.39 19.68 35.92C19.81 35.99 19.96 36.05 20.1 36.11C20.34 36.22 20.59 36.31 20.83 36.4C21.89 36.76 22.97 36.97 24.09 37.01C36.57 37.58 38.98 22.57 29.98 18.21C32.18 17.93 34.19 18.4 36.01 19.63C34.89 17.71 33.35 16.2 31.39 15.09C29.43 13.99 27.32 13.43 25.05 13.43C24.75 13.43 24.46 13.45 24.17 13.47C21.6 13.64 19.3 14.5 17.28 16.04C17.66 16.35 18.09 16.77 19 17.64C20.7 19.26 25.05 20.94 25.06 21.14Z" fill="url(#paint_radial_151_15_0)" fill-opacity="1.000000" fill-rule="nonzero"/>
	<path id="path" d="M25.06 21.14C25.02 21.74 22.82 23.82 22.05 23.82C14.94 23.82 13.78 27.99 13.78 27.99C14.1 31.5 16.62 34.39 19.68 35.92C19.81 35.99 19.96 36.05 20.1 36.11C20.34 36.22 20.59 36.31 20.83 36.4C21.89 36.76 22.97 36.97 24.09 37.01C36.57 37.58 38.98 22.57 29.98 18.21C32.18 17.93 34.19 18.4 36.01 19.63C34.89 17.71 33.35 16.2 31.39 15.09C29.43 13.99 27.32 13.43 25.05 13.43C24.75 13.43 24.46 13.45 24.17 13.47C21.6 13.64 19.3 14.5 17.28 16.04C17.66 16.35 18.09 16.77 19 17.64C20.7 19.26 25.05 20.94 25.06 21.14Z" fill="url(#paint_radial_151_16_0)" fill-opacity="1.000000" fill-rule="nonzero"/>
	<path id="path" d="M16.11 15.24C16.31 15.36 16.48 15.47 16.63 15.57C16.05 13.6 16.02 11.63 16.56 9.65C14.22 10.74 12.22 12.25 10.53 14.16C10.66 14.15 14.29 14.09 16.11 15.24Z" fill="url(#paint_radial_151_17_0)" fill-opacity="1.000000" fill-rule="nonzero"/>
	<path id="path" d="M0.22 26.37C2.15 37.42 12.5 45.86 24.24 46.18C35.11 46.48 42.05 40.37 44.92 34.41C46.13 31.84 46.81 29.13 46.94 26.31C47.08 23.48 46.66 20.73 45.7 18.05C46.58 23.67 43.64 29.1 39.03 32.78C30.05 39.87 21.44 37.09 19.7 35.94C19.58 35.88 19.46 35.82 19.34 35.76C14.1 33.34 11.93 28.72 12.4 24.76C11.13 24.78 9.96 24.46 8.88 23.8C7.81 23.15 7 22.26 6.47 21.15C7.87 20.32 9.39 19.87 11.02 19.81C12.66 19.74 14.21 20.07 15.67 20.79C18.75 22.14 21.89 22.26 25.07 21.15C25.06 20.95 20.7 19.27 19.01 17.65C18.1 16.78 17.67 16.37 17.29 16.05C17.08 15.88 16.86 15.73 16.64 15.58C16.49 15.48 16.32 15.38 16.12 15.25C14.3 14.1 10.67 14.16 10.55 14.16C9.55 12.95 9.61 8.93 9.67 8.09C9.37 8.21 9.1 8.35 8.83 8.52C7.96 9.13 7.14 9.81 6.39 10.55C5.53 11.39 4.74 12.3 4.04 13.26C2.41 15.49 1.29 17.94 0.68 20.61C0.67 20.65 -0.22 24.42 0.22 26.37Z" fill="url(#paint_radial_151_18_0)" fill-opacity="1.000000" fill-rule="nonzero"/>
	<path id="path" d="M33.85 16.8C34.76 17.68 35.54 18.66 36.17 19.74C36.31 19.84 36.44 19.94 36.55 20.04C42.22 25.1 39.25 32.26 39.03 32.77C43.64 29.09 46.58 23.65 45.7 18.04C42.87 11.2 38.06 8.45 34.15 2.45C33.95 2.15 33.75 1.84 33.56 1.52C33.45 1.34 33.36 1.17 33.28 1.02C33.12 0.71 33 0.39 32.91 0.06C32.91 0.02 32.89 0 32.85 0C32.85 0 32.78 0.01 32.78 0.01C31.81 0.46 26.06 9.27 33.85 16.8Z" fill="url(#paint_radial_151_19_0)" fill-opacity="1.000000" fill-rule="nonzero"/>
	<path id="path" d="M36.55 20.04C36.44 19.95 36.31 19.84 36.17 19.74C36.12 19.71 36.07 19.67 36.01 19.63C34.19 18.41 32.18 17.94 29.98 18.21C38.98 22.57 36.57 37.58 24.09 37.02C22.97 36.97 21.89 36.77 20.83 36.41C20.59 36.32 20.34 36.22 20.1 36.12C19.96 36.06 19.82 35.99 19.68 35.92C21.42 37.07 30.03 39.89 39.01 32.81C39.23 32.3 42.22 25.11 36.55 20.04Z" fill="url(#paint_radial_151_20_0)" fill-opacity="1.000000" fill-rule="nonzero"/>
	<path id="path" d="M13.78 27.98C13.78 27.98 14.94 23.81 22.05 23.81C22.82 23.81 25.02 21.74 25.06 21.13C21.88 22.25 18.75 22.13 15.67 20.77C14.2 20.06 12.66 19.73 11.02 19.79C9.38 19.86 7.86 20.3 6.46 21.13C7 22.25 7.8 23.13 8.88 23.79C9.95 24.44 11.12 24.76 12.39 24.74C11.93 28.71 14.09 33.32 19.33 35.75C19.45 35.8 19.56 35.86 19.68 35.91C16.62 34.39 14.1 31.49 13.78 27.98Z" fill="url(#paint_radial_151_21_0)" fill-opacity="1.000000" fill-rule="nonzero"/>
	<path id="path" d="M48.18 16.78C47.09 14.25 44.89 11.51 43.16 10.65C44.4 12.97 45.25 15.42 45.7 18C42.87 11.17 38.07 8.46 34.15 2.46C33.96 2.16 33.76 1.85 33.56 1.53C33.45 1.35 33.37 1.18 33.29 1.03C33.13 0.73 33 0.41 32.91 0.07C32.92 0.04 32.9 0.01 32.86 0.01C32.85 0.01 32.79 0.02 32.78 0.03C26.49 3.59 24.37 10.17 24.18 13.47C24.47 13.45 24.76 13.43 25.05 13.43C27.33 13.43 29.44 13.99 31.4 15.1C33.36 16.21 34.9 17.72 36.02 19.63C34.2 18.41 32.19 17.94 29.99 18.21C38.99 22.57 36.57 37.58 24.1 37.02C22.98 36.97 21.89 36.77 20.84 36.41C20.59 36.32 20.35 36.22 20.1 36.12C19.96 36.05 19.82 35.99 19.68 35.92C19.56 35.87 19.46 35.82 19.34 35.76C19.45 35.81 19.56 35.87 19.68 35.92C16.63 34.39 14.1 31.5 13.79 27.99C13.79 27.99 14.94 23.82 22.06 23.82C22.83 23.82 25.03 21.74 25.07 21.14C25.06 20.94 20.7 19.27 19.01 17.65C18.1 16.78 17.67 16.36 17.29 16.05C17.08 15.88 16.86 15.72 16.64 15.58C16.06 13.61 16.04 11.63 16.57 9.65C14.24 10.75 12.23 12.25 10.54 14.16C9.55 12.94 9.61 8.93 9.67 8.09C9.37 8.2 9.09 8.35 8.83 8.52C7.95 9.13 7.14 9.8 6.39 10.55C5.53 11.39 4.75 12.3 4.05 13.27C2.42 15.5 1.3 17.94 0.69 20.61L0.65 20.77C0.61 20.98 0.4 22.06 0.37 22.3C0.17 23.42 0.05 24.54 0 25.67L0 25.8C0 27.3 0.14 28.79 0.43 30.27C0.72 31.75 1.15 33.18 1.72 34.58C2.28 35.98 2.97 37.32 3.8 38.6C4.62 39.87 5.56 41.06 6.61 42.17C7.66 43.27 8.81 44.28 10.05 45.18C11.29 46.08 12.61 46.86 14.01 47.52C15.4 48.18 16.84 48.71 18.34 49.11C19.84 49.52 21.36 49.78 22.9 49.91C24.45 50.04 26 50.02 27.54 49.87C29.08 49.72 30.6 49.43 32.09 49.01C33.58 48.59 35.02 48.03 36.4 47.35C37.78 46.67 39.09 45.87 40.32 44.95C41.55 44.03 42.68 43.01 43.71 41.89C44.74 40.77 45.66 39.56 46.46 38.28C47.26 36.99 47.94 35.64 48.48 34.23C49.02 32.82 49.43 31.38 49.69 29.9C49.73 29.59 49.77 29.28 49.8 28.96C50.33 24.77 49.79 20.71 48.18 16.78Z" fill="url(#paint_linear_151_22_0)" fill-opacity="1.000000" fill-rule="nonzero"/>
</svg>
