<svg width="50" height="50" viewBox="0 0 50 50" fill="none" xmlns="http://www.w3.org/2000/svg">
<path d="M17.528 48.5628C19.6302 49.4043 21.9103 49.904 24.305 49.9878C27.5452 50.1003 30.6282 49.4331 33.3828 48.1661C30.0792 46.8743 27.0872 44.9854 24.5326 42.6366C22.8787 45.275 20.4302 47.3575 17.528 48.5628Z" fill="#FF9100"/>
<path d="M24.5338 42.638C18.7044 37.2732 15.1676 29.5075 15.4669 20.9895C15.4766 20.7136 15.4918 20.4363 15.5083 20.1604C14.4641 19.8913 13.3744 19.728 12.2529 19.6882C10.6473 19.6319 9.09271 19.8309 7.62503 20.2414C6.06906 22.954 5.12968 26.066 5.01243 29.4004C4.71034 38.0049 9.94243 45.5221 17.5278 48.5628C20.43 47.3589 22.8785 45.2778 24.5338 42.638Z" fill="#FFC400"/>
<path d="M24.5339 42.6379C25.8899 40.4799 26.7106 37.9485 26.8072 35.2222C27.0582 28.0509 22.2138 21.8817 15.5085 20.1603C15.4919 20.4362 15.4767 20.7135 15.4671 20.9894C15.1691 29.506 18.7045 37.2718 24.5339 42.6379Z" fill="#FF9100"/>
<path d="M26.0565 0C22.2383 3.04478 19.2216 7.05873 17.398 11.6836C16.3538 14.333 15.6972 17.1774 15.5055 20.1603C22.2107 21.8818 27.0552 28.051 26.8028 35.2237C26.7076 37.95 25.8827 40.4786 24.5295 42.6393C27.0828 44.9909 30.0761 46.877 33.3798 48.1688C40.012 45.1185 44.7171 38.554 44.9889 30.7897C45.1654 25.7585 43.2232 21.2751 40.4796 17.4903C37.5814 13.4888 26.0565 0 26.0565 0Z" fill="#DD2C00"/>
</svg>
