<svg width="50.000000" height="50.000000" viewBox="0 0 50 50" fill="none" xmlns="http://www.w3.org/2000/svg" xmlns:xlink="http://www.w3.org/1999/xlink">
	<desc>
			Created with Pixso.
	</desc>
	<defs/>
	<g opacity="0.000000">
		<rect id="Прямоугольник 1" width="50.000000" height="50.000000" fill="#C4C4C4" fill-opacity="1.000000"/>
	</g>
	<path id="path" d="M15.25 9.96C15.25 9.96 8 18.16 8 32.63C8 44.78 12.53 50 16.7 50C18.63 50 24.91 48.55 31.2 37.46C38.46 24.64 37.48 18.65 37.48 18.65L15.25 9.96Z" fill="#FE900D" fill-opacity="1.000000" fill-rule="nonzero"/>
	<path id="path" d="M32.87 8.57C29.56 8.57 27.9 9.41 27.9 9.41C25.95 5.46 24.43 3.57 19.56 3.57C10.78 3.57 8 10.32 8 12.29C8 12.98 9.21 13.58 12.14 13.58C15.07 13.58 18.78 12.74 18.78 12.74C18.22 13.87 17.95 15.25 17.95 16.92C17.95 21.09 20.43 24.42 23.75 24.42C28.73 24.42 31.21 18.58 31.21 18.58C31.21 18.58 37.02 25.26 39.07 25.26C41.02 25.26 42 22.3 42 18.36C42 15.4 39.7 8.57 32.87 8.57Z" fill="#4AAE52" fill-opacity="1.000000" fill-rule="nonzero"/>
	<path id="path" d="M27.26 11.59C27.11 11.59 26.95 11.56 26.81 11.49C26.23 11.23 25.97 10.52 26.22 9.92C27.14 7.74 30.34 2.47 33.59 0.2C34.11 -0.17 34.81 -0.02 35.16 0.53C35.5 1.07 35.36 1.81 34.84 2.18C31.96 4.19 29 9.22 28.3 10.88C28.11 11.33 27.7 11.59 27.26 11.59Z" fill="#4AAE52" fill-opacity="1.000000" fill-rule="nonzero"/>
	<path id="path" d="M12.53 35.71C11.96 35.71 11.47 35.26 11.4 34.65C11.04 31.18 11.44 27.41 12.58 23.46C12.76 22.83 13.39 22.47 13.99 22.67C14.59 22.86 14.93 23.52 14.75 24.15C13.7 27.79 13.33 31.24 13.65 34.39C13.72 35.05 13.27 35.63 12.65 35.7C12.61 35.71 12.57 35.71 12.53 35.71Z" fill="#FDC82E" fill-opacity="1.000000" fill-rule="nonzero"/>
</svg>
