<svg width="50" height="50" viewBox="0 0 50 50" fill="none" xmlns="http://www.w3.org/2000/svg">
<path d="M37.2331 15C42.8129 15 48.5242 10.52 50 5H19.6749C11.1232 5 2.40976 12 0.398195 20.45C-1.53251 28.61 3.75418 35 12.0026 35H16.7333L14.0647 45C19.6445 45 25.3659 40.52 26.8417 35H31.8959C37.4757 35 43.1971 30.52 44.6729 25H29.5103L32.1789 15H37.2331ZM19.4019 25H14.3478C11.4467 25 9.75855 22.57 10.729 19.66C11.2194 18.3386 12.0947 17.1906 13.2444 16.3612C14.3941 15.5318 15.7665 15.0581 17.1882 15H22.0706L19.4019 25Z" fill="#87B43C"/>
</svg>
