<svg width="51" height="51" viewBox="0 0 51 51" fill="none" xmlns="http://www.w3.org/2000/svg">
<path d="M35.2018 6.37713C33.1951 2.7976 29.4162 0.553279 25.3123 0.484088C21.081 0.412751 17.1289 2.66288 15.0493 6.34746L13.4136 9.2456C12.3733 11.0888 10.8458 12.6102 8.99829 13.6434L6.08172 15.2743C2.47615 17.2906 0.224373 21.0804 0.178195 25.2103L0.173757 25.6072C0.126584 29.8259 2.38757 33.7337 6.06908 35.7963L8.86089 37.3605C10.7146 38.3991 12.2454 39.9294 13.2843 41.7826L14.8489 44.5736C16.9122 48.254 20.8212 50.5146 25.0411 50.4673L25.4802 50.4625C29.5888 50.4162 33.3627 48.1893 35.3881 44.6155L37.1853 41.4446C38.229 39.603 39.7595 38.0841 41.6092 37.0543L44.2505 35.5837C47.9674 33.5142 50.2428 29.5674 50.1714 25.3148C50.1019 21.2124 47.8576 17.4558 44.2774 15.4499L41.2958 13.7794C39.4421 12.7408 37.9113 11.2104 36.8724 9.35724L35.2018 6.37713Z" fill="#7556F6"/>
<path d="M35.0476 17.3035C33.5737 16.8744 32.0476 16.2641 30.4999 15.6492C30.4107 15.2588 30.0676 14.7724 29.3722 14.1761C28.3615 13.2931 26.463 13.3164 24.823 13.7067C23.0123 13.2777 21.2231 13.1243 19.5062 13.5394C5.46629 17.4352 13.211 27.3521 8.05568 36.9048C15.2089 40.8527 14.3876 44.7102 27.7601 45.085C27.7601 45.085 24.4384 35.2767 33.2676 30.7319C40.429 27.0468 45.6028 20.2033 35.046 17.3019L35.0476 17.3035Z" fill="#B7A2FF"/>
<path d="M39.9612 25.2703C36.7812 27.5272 33.1612 29.2389 28.0305 29.2389C25.629 29.2389 25.1413 26.669 23.5536 27.9284C22.7337 28.579 19.8445 30.0335 17.5506 29.9235C15.2368 29.812 11.543 28.4582 10.5045 23.5308C10.5631 28.491 10.4124 32.787 8.05105 36.9112C10.8186 37.2828 14.5315 44.5284 15.9961 46.2326C20.1203 51.0318 23.8237 50.7283 27.9103 50.1957C27.0595 44.2119 32.6935 32.9007 35.6197 29.9018C36.7273 28.7664 38.8504 26.9123 39.9612 25.2703Z" fill="#B7A2FF"/>
<path d="M24.4456 13.6994C25.7026 14.2017 30.2928 15.7301 32.2788 16.33C30.2511 12.9665 27.1782 13.1606 24.4456 13.6994Z" fill="#AC94FF"/>
<path d="M25.7953 19.582C25.7953 21.7661 24.0368 23.535 21.8692 23.535C19.7015 23.535 17.9431 21.7661 17.9431 19.582C17.9431 17.3979 19.7015 15.6305 21.8692 15.6305C24.0368 15.6305 25.7953 17.3994 25.7953 19.582Z" fill="white"/>
<path d="M23.5241 22.7783C24.7965 22.7783 25.8279 21.3347 25.8279 19.5539C25.8279 17.773 24.7965 16.3294 23.5241 16.3294C22.2517 16.3294 21.2202 17.773 21.2202 19.5539C21.2202 21.3347 22.2517 22.7783 23.5241 22.7783Z" fill="black"/>
<path d="M23.5241 19.5534L20.7594 17.7109V21.396L23.5241 19.5534Z" fill="white"/>
</svg>
