<svg width="50" height="50" viewBox="0 0 50 50" fill="none" xmlns="http://www.w3.org/2000/svg" xmlns:xlink="http://www.w3.org/1999/xlink">
	<desc>
			Created with Pixso.
	</desc>
	<defs/>
	<path id="path" d="M50 25.56C50 23.79 49.83 22.09 49.53 20.45L25.51 20.45L25.51 30.13L39.23 30.13C38.63 33.25 36.82 35.88 34.11 37.65L34.11 43.95L42.39 43.95C47.21 39.59 50 33.18 50 25.56Z" fill="#4285F4" fill-opacity="1.000000" fill-rule="nonzero"/>
	<path id="path" d="M25.51 50C32.39 50 38.17 47.77 42.39 43.95L34.11 37.65C31.84 39.15 28.94 40.06 25.51 40.06C18.87 40.06 13.24 35.68 11.22 29.77L2.73 29.77L2.73 36.22C6.93 44.38 15.53 50 25.51 50Z" fill="#34A853" fill-opacity="1.000000" fill-rule="nonzero"/>
	<path id="path" d="M11.22 29.75C10.71 28.25 10.41 26.65 10.41 25C10.41 23.34 10.71 21.74 11.22 20.24L11.22 13.79L2.73 13.79C0.99 17.15 0 20.95 0 25C0 29.04 0.99 32.84 2.73 36.2L9.34 31.15L11.22 29.75Z" fill="#FBBC05" fill-opacity="1.000000" fill-rule="nonzero"/>
	<path id="path" d="M25.51 9.95C29.26 9.95 32.6 11.22 35.27 13.68L42.57 6.52C38.14 2.47 32.39 0 25.51 0C15.53 0 6.93 5.61 2.73 13.79L11.22 20.25C13.24 14.34 18.87 9.95 25.51 9.95Z" fill="#EA4335" fill-opacity="1.000000" fill-rule="nonzero"/>
</svg>
