<svg width="50.000000" height="50.000000" viewBox="0 0 50 50" fill="none" xmlns="http://www.w3.org/2000/svg" xmlns:xlink="http://www.w3.org/1999/xlink">
	<desc>
			Created with Pixso.
	</desc>
	<defs/>
	<circle id="bg_circle" cx="25.000000" cy="25.000000" r="25.000000" fill="#1A73E8" fill-opacity="1.000000"/>
	<path id="body_shadow" d="M33.24 37.5L17.04 37.5C15.09 37.5 13.36 36.32 13.36 34.38L13.36 35.8C13.36 37.74 15.09 39.21 17.04 39.21L33.24 39.21C35.2 39.21 36.93 37.74 36.93 35.8L36.93 34.38C36.93 36.32 35.2 37.5 33.24 37.5Z" fill="#185ABC" fill-opacity="1.000000" fill-rule="nonzero"/>
	<path id="head_shadow" d="M25 22.73C22.07 22.72 19.76 20.69 19.6 17.9L19.6 19.04C19.6 21.93 22.02 24.44 25 24.44C27.98 24.44 30.4 21.93 30.4 19.04L30.4 17.9C30.17 20.71 27.93 22.74 25 22.73Z" fill="#185ABC" fill-opacity="1.000000" fill-rule="nonzero"/>
	<path id="body" d="M25 26.14C19.29 26.14 13.35 28.92 13.35 32.66L13.35 34.37C13.35 36.31 14.94 37.78 16.9 37.78L33.37 37.78C35.33 37.78 36.91 36.31 36.91 34.37L36.91 32.66C36.93 28.91 30.7 26.14 25 26.14Z" fill="#FFFFFF" fill-opacity="1.000000" fill-rule="nonzero"/>
	<circle id="head" cx="25.000000" cy="17.609985" r="5.400000" fill="#FFFFFF" fill-opacity="1.000000"/>
</svg>
