<svg width="50.000000" height="50.000000" viewBox="0 0 50 50" fill="none" xmlns="http://www.w3.org/2000/svg" xmlns:xlink="http://www.w3.org/1999/xlink">
	<desc>
			Created with Pixso.
	</desc>
	<defs/>
	<g opacity="0.000000">
		<rect id="Прямоугольник 27" width="50.000000" height="50.000000" fill="#C4C4C4" fill-opacity="1.000000"/>
	</g>
	<path id="path" d="M25.38 14.15L24.41 13L0 50L16.86 50L24.43 38.51L25.38 36.47L25.38 14.15Z" fill="#FBBC04" fill-opacity="1.000000" fill-rule="nonzero"/>
	<path id="path" d="M24.41 13L39.53 13L39.53 50L24.41 50L24.41 13Z" fill="#1A73E8" fill-opacity="1.000000" fill-rule="nonzero"/>
	<ellipse id="circle" cx="8.139542" cy="19.937500" rx="6.976742" ry="6.937500" fill="#EA4335" fill-opacity="1.000000"/>
	<path id="path" d="M40.69 39.59L39.53 50C33.75 50 29.06 45.34 29.06 39.59C29.06 33.84 33.75 29.18 39.53 29.18L40.69 39.59Z" fill="#0D652D" fill-opacity="1.000000" fill-rule="nonzero"/>
	<path id="path" d="M31.39 21.09C31.39 16.62 35.04 13 39.53 13L40.98 21.09L39.53 29.18C35.04 29.18 31.39 25.56 31.39 21.09Z" fill="#174EA6" fill-opacity="1.000000" fill-rule="nonzero"/>
	<path id="path" d="M39.53 13C44.02 13 47.67 16.62 47.67 21.09C47.67 25.56 44.02 29.18 39.53 29.18L39.53 13Z" fill="#1A73E8" fill-opacity="1.000000" fill-rule="nonzero"/>
	<path id="path" d="M39.53 29.18C45.31 29.18 50 33.84 50 39.59C50 45.34 45.31 50 39.53 50L39.53 29.18Z" fill="#34A853" fill-opacity="1.000000" fill-rule="nonzero"/>
</svg>
