<svg width="50.000000" height="50.000000" viewBox="0 0 50 50" fill="none" xmlns="http://www.w3.org/2000/svg" xmlns:xlink="http://www.w3.org/1999/xlink">
	<desc>
			Created with Pixso.
	</desc>
	<defs/>
	<circle id="Эллипс 1" cx="25.000000" cy="25.000000" r="25.000000" fill="#FFFFFF" fill-opacity="1.000000"/>
	<path id="path" d="M18.27 35.6C19.6 37.29 20.95 39.43 21.66 40.72C22.52 42.39 22.88 43.52 23.52 45.55C23.89 46.66 24.25 47 25 47C25.82 47 26.19 46.43 26.48 45.55C27.08 43.65 27.54 42.2 28.27 40.82C31.1 35.38 35.7 31.52 38.29 26.22C38.29 26.22 40 22.98 40 18.45C40 14.22 38.31 11.29 38.31 11.29L18.28 35.63L18.27 35.6Z" fill="#34A853" fill-opacity="1.000000" fill-rule="nonzero"/>
	<path id="path" d="M11.44 25.63C13.05 29.39 16.13 32.68 18.23 35.58L29.34 22.09C29.34 22.09 27.77 24.2 24.94 24.2C21.78 24.2 19.21 21.62 19.21 18.37C19.21 16.13 20.51 14.57 20.51 14.57C12.33 15.82 12.78 17.85 11.42 25.63L11.44 25.63Z" fill="#FBBC04" fill-opacity="1.000000" fill-rule="nonzero"/>
	<path id="path" d="M29.55 3.75C33.26 4.97 36.42 7.54 38.31 11.29L29.41 22.11C29.41 22.11 30.72 20.56 30.72 18.33C30.72 15.01 27.97 12.5 25.01 12.5C22.19 12.5 20.59 14.58 20.59 14.58C21.28 12.99 28.33 4.29 29.56 3.75L29.55 3.75Z" fill="#4285F4" fill-opacity="1.000000" fill-rule="nonzero"/>
	<path id="path" d="M13.47 8.46C15.68 5.77 19.56 3 24.91 3C27.49 3 29.45 3.7 29.45 3.7L20.54 14.52C19.93 14.19 14.07 9.52 13.47 8.45L13.47 8.46Z" fill="#1A73E8" fill-opacity="1.000000" fill-rule="nonzero"/>
	<path id="path" d="M11.45 25.67C11.45 25.67 10 22.7 10 18.43C10 14.38 11.54 10.84 13.49 8.54L20.54 14.63L11.46 25.67L11.45 25.67Z" fill="#EA4335" fill-opacity="1.000000" fill-rule="nonzero"/>
</svg>
