<svg width="50" height="50" viewBox="0 0 50 50" fill="none" xmlns="http://www.w3.org/2000/svg">
<g id="yandex_vk">
    <g id="vk">
        <path d="M27 38.5C27 44.8513 32.1487 50 38.5 50C44.8513 50 50 44.8513 50 38.5C50 32.1487 44.8513 27 38.5 27C32.1487 27 27 32.1487 27 38.5Z" fill="#0077FF"/>
        <path d="M39.236 43.5646C33.992 43.5646 31.002 39.972 30.8778 33.992H33.5044C33.5918 38.385 35.5284 40.2434 37.0602 40.6206V33.992H39.535V37.7732C41.0484 37.6122 42.64 35.8872 43.1736 33.992H45.6484C45.2206 36.0666 44.0936 37.6582 42.2812 38.7622C44.3144 39.7742 45.63 41.375 46.2234 43.5646H43.5002C43.2426 42.6446 42.755 41.8764 42.0328 41.26C41.3106 40.6298 40.478 40.2618 39.535 40.1422V43.5646H39.236Z" fill="white"/>
    </g>
    <g id="yandex">
        <path d="M23 38.5C23 32.1474 17.848 27 11.5 27C5.1474 27 0 32.1474 0 38.5C0 44.848 5.1474 50 11.5 50C17.848 50 23 44.848 23 38.5Z" fill="#F8604A"/>
        <path d="M15.525 45.4184H13.202V33.44H12.0336C10.0418 33.44 9.04362 34.4336 9.04362 35.9286C9.04362 37.5984 9.71522 38.4218 11.2102 39.42L12.3786 40.2434L9.06202 45.4H6.39862L9.56342 40.7402C7.74182 39.42 6.74362 38.247 6.74362 36.085C6.74362 33.417 8.56522 31.6 12.075 31.6H15.525V45.4184Z" fill="white"/>
    </g>
</g>
<g id="google">
<path d="M37 12.78C37 11.895 36.915 11.045 36.765 10.225H24.755V15.065H31.615C31.315 16.625 30.41 17.94 29.055 18.825V21.975H33.195C35.605 19.795 37 16.59 37 12.78Z" fill="#4285F4"/>
<path d="M24.755 25C28.195 25 31.085 23.885 33.195 21.975L29.055 18.825C27.92 19.575 26.47 20.03 24.755 20.03C21.435 20.03 18.62 17.84 17.61 14.885H13.365V18.11C15.465 22.19 19.765 25 24.755 25Z" fill="#34A853"/>
<path d="M17.61 14.875C17.355 14.125 17.205 13.325 17.205 12.5C17.205 11.67 17.355 10.87 17.61 10.12V6.895H13.365C12.495 8.575 12 10.475 12 12.5C12 14.52 12.495 16.42 13.365 18.1L16.67 15.575L17.61 14.875Z" fill="#FBBC05"/>
<path d="M24.755 4.975C26.63 4.975 28.3 5.61 29.635 6.84L33.285 3.26C31.07 1.235 28.195 0 24.755 0C19.765 0 15.465 2.805 13.365 6.895L17.61 10.125C18.62 7.17 21.435 4.975 24.755 4.975Z" fill="#EA4335"/>
</g>
<animateTransform
href="#google"
attributeName="transform" 
type="translate"
values="0 0; 0 0; 0 25; 0 25; 0 0;" 
keyTimes="0;0.814;0.837;0.977;1"
dur="8.6s" 
repeatCount="indefinite"/>
<animateTransform 
href="#vk"
attributeName="transform" 
type="translate"
keyTimes="0;0.837;0.849;0.965;0.977;1"
dur="8.6s"  
values="0 0; 0 0; -27 0; -27 0; 0 0; 0 0;" 
repeatCount="indefinite"/>
<animateTransform 
href="#yandex"
attributeName="transform" 
type="translate"
keyTimes="0;0.837;0.849;0.965;0.977;1"
dur="8.6s"  
values="0 0; 0 0; 27 0; 27 0; 0 0; 0 0;" 
repeatCount="indefinite"/>
<animateTransform 
href="#yandex_vk"
attributeName="transform" 
type="translate"
values="0 0; 0 0; 0 -25; 0 -25; 0 0;" 
keyTimes="0;0.814;0.837;0.977;1"
dur="8.6s"
repeatCount="indefinite"/>
<defs>
<clipPath id="clip0_196_212">
<rect width="50" height="50" fill="white"/>
</clipPath>
</defs>
</svg>
