<svg width="51" height="50" viewBox="0 0 51 50" fill="none" xmlns="http://www.w3.org/2000/svg">
<path d="M2.04823 19.3645C2.17139 19.5403 2.29413 19.7166 2.41765 19.8924C1.67884 19.8704 0.901573 19.8017 0.750999 19.4991C0.754123 19.484 0.757246 19.4688 0.761189 19.4539C1.1761 19.3498 1.53217 19.3434 2.04823 19.3645ZM5.99043 20.9677C6.04934 21.1416 6.10989 21.315 6.16876 21.4883C6.02876 21.494 5.88986 21.5 5.751 21.5053C5.78434 21.3282 5.81822 21.1508 5.85043 20.9737C5.89767 20.9715 5.94323 20.9699 5.99043 20.9677ZM7.41765 24.7698C7.04741 25.0964 6.75969 25.3144 6.53978 25.8064C6.2329 25.5677 6.07534 25.092 5.97668 24.56C5.86983 23.9821 5.83251 23.3377 5.751 22.8563C5.7599 22.7744 5.76845 22.6926 5.77704 22.6105C5.92055 22.6003 6.06405 22.5901 6.20686 22.5806C6.57097 23.2403 6.93642 23.8996 7.3019 24.56C7.34059 24.6296 7.37861 24.6995 7.41765 24.7698ZM6.86209 19.8924C6.90878 19.5954 6.95598 19.2991 7.00489 19.0027C7.01489 18.9433 7.02375 18.8836 7.0321 18.8245C7.0793 18.8223 7.12599 18.8201 7.1721 18.8172C7.06767 19.1758 6.96433 19.5338 6.86209 19.8924ZM6.56395 15.0537C7.21867 15.2234 7.87339 15.3934 8.52878 15.5634C8.52566 15.5916 8.52316 15.6198 8.52066 15.6477C7.6057 16.2902 6.76028 16.5755 6.30653 17.7419C6.36356 16.8758 6.42153 16.0097 6.47826 15.1436C6.5066 15.1133 6.53498 15.0837 6.56395 15.0537ZM8.39909 12.3656C8.27027 13.5734 8.45027 14.1088 8.67092 14.858C9.02134 15.0971 9.15918 15.2393 9.04511 15.5913C8.45512 15.3129 7.83197 15.0207 6.92951 15.0659C6.90663 15.042 6.88407 15.0181 6.86209 14.9946C7.11678 14.041 7.60922 13.456 7.99153 12.7007C8.12758 12.5887 8.26304 12.477 8.39909 12.3656ZM11.2213 10.7583C11.2498 10.7568 11.2787 10.7546 11.3065 10.7527C11.0361 11.6435 10.927 13.6998 10.4526 14.5161C9.33392 14.0097 9.35535 11.8171 10.6086 10.9509C10.8131 10.8864 11.017 10.8222 11.2213 10.7583ZM10.1778 17.361C10.4922 17.6869 10.8061 18.0128 11.1209 18.339C10.7512 19.4273 10.049 20.2469 9.75355 21.5053C9.56691 21.4922 9.3819 21.4787 9.1953 21.4659C8.72035 20.1963 9.91111 18.1294 10.1132 17.2043C10.4041 17.2366 10.6947 17.2683 10.9862 17.301C11.0931 17.5615 11.2 17.822 11.3065 18.0829C10.9307 17.8422 10.5539 17.6013 10.1778 17.361ZM12.7576 10.7527C12.6628 11.8081 12.9061 12.3546 12.9732 13.1742C12.418 13.4422 11.8615 13.7108 11.3065 13.9785C11.4461 12.6321 11.7311 11.7451 12.12 10.7979C12.3327 10.7826 12.5455 10.7676 12.7576 10.7527ZM13.4054 9.14733C13.4466 9.14441 13.4885 9.14228 13.5288 9.13978C13.4678 9.31154 13.4054 9.48331 13.341 9.65466C13.2195 9.66224 13.0956 9.66983 12.9732 9.67741C13.0666 9.57132 13.162 9.46437 13.2579 9.35787C13.3075 9.28752 13.3562 9.21767 13.4054 9.14733ZM13.5288 14.0738C12.974 14.4002 12.4178 14.7273 11.8621 15.0537C11.8958 14.4599 12.687 13.6629 13.3478 13.4408C13.3987 13.4672 13.4477 13.4935 13.4992 13.5199C13.5087 13.7044 13.5186 13.8893 13.5288 14.0738ZM14.6399 10.3686C14.5394 10.9138 14.4389 11.459 14.3397 12.0042C14.2353 12.0669 14.1308 12.1288 14.0276 12.1911C13.9728 12.2497 13.9183 12.3076 13.8629 12.3656C13.5606 11.9601 13.4859 10.9677 13.5499 10.215C13.9138 10.2666 14.2768 10.3177 14.6399 10.3686ZM15.751 9.14131C15.7486 9.15924 15.7465 9.17676 15.7441 9.19428C15.6016 9.32395 15.4599 9.4538 15.3182 9.58365C15.0355 9.68746 15 9.68309 14.6399 9.67169C14.6887 9.49433 14.7402 9.31692 14.7911 9.13978C15.1108 9.14019 15.4313 9.14064 15.751 9.14131ZM16.8621 6.98922C16.6968 7.34728 16.5315 7.70571 16.3662 8.06448C15.7905 8.02485 15.2152 7.98517 14.6399 7.94513C14.643 7.91629 14.6453 7.88745 14.6485 7.85824C15.3583 7.5449 15.98 7.17421 16.8621 6.98922ZM15.9646 9.77988C16.0258 9.74559 16.0867 9.7117 16.1479 9.67741C16.2007 9.85687 16.2538 10.0358 16.3065 10.215C16.1214 10.1806 15.9357 10.1461 15.751 10.1114C15.8218 10.0009 15.8929 9.89019 15.9646 9.77988ZM17.4177 11.3708C16.7559 11.6164 15.8411 11.5489 15.3121 11.8279C15.2736 11.6123 15.2351 11.3974 15.1954 11.1818C15.3121 11.0389 15.4264 10.8956 15.5414 10.7527C16.1019 10.9621 16.662 11.1729 17.2213 11.3828C17.2869 11.379 17.3521 11.3749 17.4177 11.3708ZM15.9968 12.3381C15.7451 12.3471 15.4927 12.3564 15.2422 12.3656C15.2252 12.2897 15.2116 12.2137 15.1954 12.1379C15.7263 11.9316 16.6178 11.9117 17.4177 11.8279C17.1362 11.9757 16.8559 12.1235 16.574 12.2715C16.3816 12.2935 16.19 12.3157 15.9968 12.3381ZM17.9732 12.338C17.3368 12.4889 16.7271 13.0239 16.3113 13.4408C16.2298 12.9553 17.2099 12.0957 17.6794 11.8279C17.8879 12.0049 17.9097 11.9863 17.9732 12.338ZM19.0843 5.91396C19.0818 5.94284 19.0789 5.97063 19.076 5.99913C18.8535 6.12686 18.6305 6.25491 18.4083 6.38263C18.0782 6.4055 17.7477 6.42873 17.4177 6.45159C17.4216 6.4238 17.4245 6.39496 17.4274 6.36717C17.9804 6.21588 18.5331 6.06492 19.0843 5.91396ZM18.1856 7.52685C18.1149 7.4264 18.0445 7.32599 17.9732 7.22554C18.4737 6.82217 19.5812 7.04451 20.1954 7.10387C19.5253 7.24489 18.8561 7.38613 18.1856 7.52685ZM23.1571 5.94344C24.0863 6.01587 24.9346 6.22589 25.579 6.60994C25.6361 6.60632 25.6935 6.60356 25.751 6.60023C25.7169 6.64655 25.6819 6.69235 25.6478 6.73867C25.3514 6.8222 25.0553 6.90573 24.7596 6.98922C24.2262 6.91627 23.6911 6.84301 23.1571 6.76976C21.9851 6.60939 20.8118 6.44872 19.6399 6.28835C19.6423 6.26586 19.6461 6.24393 19.6488 6.22174C20.786 5.97007 22.0302 5.8552 23.1571 5.94344ZM26.8533 5.65987C26.7869 5.74459 26.7217 5.82961 26.6561 5.91396C26.0573 5.87313 25.5623 5.64885 25.1954 5.37633C25.7512 5.44361 26.3059 5.51156 26.8622 5.57921C26.8595 5.60633 26.856 5.63312 26.8533 5.65987ZM29.812 7.64736C29.9647 7.5914 30.1197 7.53541 30.2731 7.47971C30.4328 7.61083 30.5909 7.74285 30.7509 7.87397C30.6865 8.32063 30.2333 8.68807 29.8866 9.12416C29.7976 9.12917 29.7094 9.13448 29.6204 9.13978C28.895 7.99564 27.9807 6.74133 26.3766 6.30082C26.3532 6.25517 26.3301 6.20949 26.3067 6.16384C26.5234 6.08072 26.7385 5.99704 26.9548 5.91396C28.044 6.27669 28.952 6.82736 29.9639 7.1453C30.0935 7.44583 30.0533 7.34448 29.812 7.64736ZM31.153 10.1957C31.1109 10.1564 31.0695 10.1161 31.0269 10.0763C30.9344 10.0817 30.8431 10.0892 30.7509 10.0957C30.9032 9.95642 31.0566 9.81664 31.2108 9.67741C31.1897 9.84996 31.1725 10.0236 31.153 10.1957ZM31.643 16.129C32.3945 16.7501 32.5869 17.6485 32.2738 18.8172C31.951 18.1245 31.6301 17.432 31.3064 16.7393C31.4134 16.5856 31.518 16.4316 31.6234 16.2772C31.6301 16.2279 31.6355 16.178 31.643 16.129ZM31.862 11.2964C31.8585 11.3297 31.8569 11.363 31.853 11.3963C31.7218 11.5399 31.5899 11.6839 31.4579 11.8279C31.4072 11.7326 31.3576 11.6369 31.3064 11.5416C31.543 11.1362 31.3728 11.3539 31.6832 11.311C31.7425 11.306 31.8022 11.3006 31.862 11.2964ZM32.3238 11.2903C32.9106 11.4976 33.4993 11.7052 34.0845 11.9125C34.0806 11.9685 34.0739 12.0249 34.0685 12.0809C33.9205 12.1761 33.7725 12.271 33.6242 12.3656C33.0363 12.1583 32.4499 11.9506 31.862 11.7437C31.8678 11.6874 31.8733 11.631 31.8784 11.575C32.0267 11.4797 32.1751 11.3848 32.3238 11.2903ZM35.751 13.4408C35.4258 13.2339 35.101 13.028 34.7755 12.8221C34.7298 12.7386 34.6853 12.6548 34.64 12.5718C35.0632 12.324 35.0019 12.3363 35.45 12.4187C35.5492 12.7594 35.6499 13.0998 35.751 13.4408ZM36.3066 13.2364C36.2418 13.3046 36.1766 13.3724 36.1114 13.4408C35.8732 13.3248 35.8315 13.1762 35.751 12.9032C35.9209 12.9732 36.0899 13.0437 36.2601 13.1141C36.2761 13.1549 36.2913 13.1957 36.3066 13.2364ZM35.8916 11.6989C35.8428 11.7021 35.7983 11.7048 35.751 11.7086C35.9033 11.5693 36.0575 11.4301 36.2133 11.2903C36.1055 11.4268 35.9958 11.5623 35.8916 11.6989ZM38.5287 14.4032C38.4377 14.441 38.3471 14.4787 38.2577 14.5161C37.7604 14.2502 37.265 13.9847 36.7704 13.7185C36.6158 13.5182 36.4608 13.3172 36.3066 13.1162C37.0772 12.5722 37.1041 13.2016 37.8306 13.5449C38.0621 13.8314 38.2956 14.1179 38.5287 14.4032ZM39.0842 14.8763C38.8991 14.8123 38.7145 14.7484 38.5287 14.6844C38.6403 14.629 38.7524 14.5725 38.8636 14.5161C38.9374 14.6365 39.0108 14.7564 39.0842 14.8763ZM38.4084 15.7432C38.6091 16.1302 38.6075 16.0201 39.0842 15.9635C38.8004 16.1979 38.5154 16.4322 38.2304 16.6666C37.9599 16.1724 37.6889 15.6778 37.4176 15.1843C37.4203 15.1532 37.4239 15.1228 37.4278 15.0917C38.027 14.9689 38.2206 15.176 38.8058 15.2584C38.8812 15.3735 38.9573 15.489 39.0327 15.6045C38.8258 15.6512 38.6173 15.6972 38.4084 15.7432ZM38.5287 16.7077C38.8991 16.5143 39.2688 16.3221 39.6397 16.129C39.4172 16.6068 39.1283 16.8538 38.7844 17.2043C38.7 17.0386 38.6146 16.873 38.5287 16.7077ZM40.7512 18.7596C40.4502 19.008 40.255 19.0883 39.6842 19.1326C39.8369 19.1483 39.9903 19.165 40.1425 19.1811C40.139 19.2074 40.1363 19.2327 40.1336 19.2587C39.6124 19.4697 39.0908 19.6809 38.5685 19.8924C38.554 19.253 38.5423 18.6139 38.5287 17.9747C38.8878 17.5686 39.2489 17.1626 39.6081 16.7558C39.6749 16.7263 39.7393 16.6968 39.8049 16.6666C40.1199 17.3645 40.4369 18.0627 40.7512 18.7596ZM40.1952 15.8194C43.2629 15.0017 42.6703 16.5565 41.3012 17.7419C40.9323 17.1013 40.5626 16.4598 40.1952 15.8194ZM42.9733 16.129C41.8431 21.2004 41.6248 21.4769 37.628 23.6559C37.5589 23.555 37.4879 23.4546 37.4176 23.3538C37.4652 23.1652 37.5117 22.9768 37.5589 22.7882C40.1656 22.0777 41.6483 20.7753 41.4937 17.8226C41.9297 17.2884 42.3646 16.7546 42.7999 16.2205C42.8581 16.19 42.9155 16.1598 42.9733 16.129ZM43.1091 16.129C43.065 15.954 43.0193 15.7785 42.9733 15.6033C43.1126 15.5991 43.2516 15.5951 43.3894 15.5913C43.2961 15.7708 43.2028 15.95 43.1091 16.129ZM36.3066 21.0604C36.3191 20.8738 36.3323 20.6869 36.346 20.5003C36.3565 20.3403 36.3675 20.1799 36.3792 20.0199C36.5072 19.9794 36.6364 19.9386 36.7649 19.8984C36.7836 19.8968 36.8016 19.8944 36.8195 19.8924C36.9277 20.5265 36.8203 20.997 36.5982 21.5053C36.4124 21.3918 36.3757 21.3433 36.3066 21.0604ZM34.0845 25.7646C34.0876 25.7336 34.0903 25.7026 34.0931 25.6716C34.3367 25.1165 34.5795 24.5618 34.8219 24.007C34.8719 23.8897 34.9242 23.7724 34.9757 23.6559C35.402 23.6833 35.8315 23.7108 36.2585 23.7383C36.2773 23.8308 36.2906 23.9199 36.298 24.007C36.3542 24.6392 36.125 25.1456 35.8881 25.8064C35.2869 25.792 34.6864 25.7789 34.0845 25.7646ZM34.64 27.9229C34.6447 27.6457 34.6501 27.3681 34.6556 27.0913C34.663 27.0211 34.67 26.9512 34.6767 26.8818C34.9898 26.9038 35.3017 26.9262 35.614 26.9486L35.751 26.9385C35.5363 27.2777 35.3224 27.6169 35.1092 27.9569C34.9519 27.9457 34.7961 27.9345 34.64 27.9229ZM34.0899 24.4439C34.1083 24.4346 34.1274 24.4254 34.1465 24.4158C34.2949 24.3434 34.4428 24.2706 34.5912 24.1981C34.6072 24.1965 34.6232 24.1951 34.64 24.1935C34.6166 24.2676 34.5951 24.3415 34.5728 24.4161C34.4873 24.7003 34.4018 24.9848 34.316 25.2688C34.2394 25.0162 34.161 24.763 34.0845 24.5099C34.086 24.4875 34.0872 24.4657 34.0899 24.4439ZM33.2233 27.1208C33.1397 27.0409 33.055 26.9606 32.973 26.8818C33.2178 27.0439 33.0581 26.8855 33.2233 27.1208ZM31.862 26.4813C32.1739 26.293 32.512 26.3509 32.973 26.3577C32.927 26.5004 32.8825 26.6442 32.8368 26.7869C32.4569 26.9318 32.4031 26.8784 31.9709 26.8362C31.935 26.7181 31.8994 26.5997 31.862 26.4813ZM32.5424 28.4944C32.6865 28.8176 32.8301 29.1407 32.973 29.4634C32.6408 29.6782 32.3078 29.8927 31.9748 30.1075C31.6777 29.7197 32.0025 28.6289 32.5424 28.4944ZM31.4458 25.1204C31.4005 25.1236 31.3545 25.1263 31.3064 25.1301C31.3681 24.9967 31.4282 24.8639 31.4888 24.7311C31.4759 24.8602 31.4603 24.9903 31.4458 25.1204ZM33.0456 25.2688C33.0222 25.2539 32.9972 25.2393 32.973 25.2243C33.0554 25.0612 33.135 24.8977 33.2174 24.7343C33.2432 24.7331 33.2713 24.7321 33.2982 24.7311C33.3743 24.903 33.4524 25.0752 33.5289 25.2473C33.3677 25.2545 33.2069 25.2617 33.0456 25.2688ZM36.8922 18.2795C36.8832 18.2191 36.8726 18.1581 36.8621 18.0975C37.0085 17.9276 37.1018 17.8217 37.3532 17.7419C37.3751 17.8475 37.3969 17.9537 37.4176 18.0599C37.3103 18.1283 37.2017 18.1968 37.0948 18.2659C37.0268 18.2705 36.9597 18.2751 36.8922 18.2795ZM36.8621 19.5925C36.7618 19.719 36.5837 19.7903 36.4569 19.8924C36.4061 18.9965 36.3558 18.1006 36.3066 17.2043C36.4916 18.0009 36.6767 18.7969 36.8621 19.5925ZM35.8428 23.1956C36.2105 23.0008 36.2621 23.1808 36.3066 23.6559C35.9349 23.6552 35.5664 23.6538 35.1955 23.6531C35.2018 23.5974 35.2076 23.5424 35.2135 23.4874C35.4231 23.3898 35.6328 23.2929 35.8428 23.1956ZM35.2978 21.7095C35.381 21.6417 35.4641 21.5731 35.5488 21.5053C35.616 21.6212 35.6839 21.737 35.751 21.8524C35.7194 21.9161 35.689 21.9793 35.6566 22.0429C35.5031 22.0262 35.3497 22.0091 35.1955 21.9919C35.2303 21.8978 35.2638 21.8037 35.2978 21.7095ZM35.1955 23.1354C35.0031 23.3086 34.8094 23.4826 34.6162 23.6559C34.4905 23.6359 34.3644 23.6163 34.2391 23.596C34.1864 23.6011 34.1352 23.6058 34.0845 23.6105C34.175 23.4459 34.264 23.282 34.355 23.1182C34.6349 23.1241 34.9156 23.1299 35.1955 23.1354ZM33.0987 22.83C32.8676 22.6758 33.0355 22.6967 32.991 22.5806C33.0265 22.6634 33.0632 22.7467 33.0987 22.83ZM34.8508 20.43C34.2254 20.1206 33.5996 19.8108 32.973 19.5009C33.0605 18.2718 33.2186 16.8591 33.0909 15.5913C34.5389 16.0934 35.8361 18.3395 34.8508 20.43ZM33.5289 20.43C33.9908 20.6616 33.9642 20.8759 34.6049 21.0625C34.7169 21.4611 34.5467 21.6181 34.2804 22.0429C34.054 22.0343 33.8272 22.0253 33.6 22.0163C33.4591 21.3087 33.6113 20.9018 33.5289 20.43ZM33.6558 23.9053C33.4231 23.7515 33.5898 23.772 33.5469 23.6559C33.5824 23.7397 33.6179 23.823 33.6558 23.9053ZM37.4176 18.7306C37.4192 18.6977 37.4211 18.6647 37.4231 18.6322C37.5902 18.5142 37.7569 18.3975 37.9239 18.2795C38.0122 18.8299 37.979 19.7463 37.8474 20.43C37.5519 20.208 37.4973 19.2741 37.4176 18.7306ZM37.4176 20.4295C37.5308 20.2505 37.6425 20.0715 37.7533 19.8924C37.687 20.0677 37.621 20.2435 37.5582 20.4199C37.5109 20.4236 37.4649 20.4274 37.4176 20.4295ZM40.6571 18.8223C40.6895 18.8204 40.7203 18.8188 40.7508 18.8172C40.7773 20.8764 39.4461 21.2512 37.6956 22.0261C37.6027 22.032 37.5105 22.0378 37.4176 22.0429C37.7807 21.324 38.1437 20.6047 38.508 19.8857C39.2243 19.5313 39.9415 19.1775 40.6571 18.8223ZM37.3645 14.7987C37.3829 14.8517 37.4004 14.905 37.4176 14.9584C37.3715 14.9904 37.3243 15.0221 37.2786 15.0537C37.1393 14.8744 37.0007 14.6954 36.8621 14.5161C37.0304 14.6104 37.1978 14.7047 37.3645 14.7987ZM36.8621 15.693C36.8695 15.6617 36.8718 15.6296 36.8773 15.5992C36.9179 15.5964 36.9589 15.5937 36.9999 15.5913C37.14 15.7711 37.2786 15.95 37.4176 16.129C37.0963 15.9817 37.0432 15.9462 36.8621 15.693ZM37.4176 17.067C37.1678 17.2918 36.9171 17.517 36.6677 17.7419C36.1305 16.9992 35.5953 16.2555 35.0589 15.5128C34.3652 14.937 33.6679 14.3605 32.973 13.7843C33.1276 13.6699 33.2807 13.5552 33.4329 13.4408C34.4421 13.858 36.2086 14.6525 36.5642 15.6438C36.6802 15.9661 36.2816 16.2327 36.5529 16.5025C36.875 16.8219 37.1974 16.5941 37.4176 17.067ZM32.7286 20.43C32.7845 20.4514 32.8419 20.4727 32.8981 20.4938C32.9231 21.0103 32.9476 21.5268 32.973 22.0429C32.8864 22.0238 32.8009 22.0046 32.713 21.9854C32.469 21.8135 32.298 21.0127 32.5217 20.6651C32.5901 20.5869 32.6599 20.5086 32.7286 20.43ZM31.4981 23.125C31.5575 23.1228 31.6188 23.1204 31.6773 23.1182C31.7386 23.2583 31.8015 23.3984 31.862 23.5388C31.7679 23.5742 31.6719 23.6097 31.5762 23.6451C31.4864 23.6487 31.3978 23.6523 31.3064 23.6559C31.3713 23.4789 31.4353 23.3021 31.4981 23.125ZM30.9902 31.7205C30.911 31.4594 30.8302 31.1975 30.7509 30.9357C31.0933 30.8408 31.4349 30.7459 31.7776 30.6506C31.805 30.6495 31.8343 30.6473 31.862 30.645C31.8585 30.6693 31.8553 30.6943 31.8534 30.7186C31.5657 31.053 31.2783 31.3862 30.9902 31.7205ZM30.1954 29.5699C30.2965 29.255 30.3707 29.2068 30.5542 29.0324C30.6053 29.051 30.6576 29.0701 30.7088 29.0884C30.7228 29.1351 30.7369 29.1814 30.7509 29.2277C30.6369 29.3346 30.5229 29.4414 30.4093 29.549C30.3375 29.5553 30.2664 29.5628 30.1954 29.5699ZM30.4566 30.1075C30.3699 30.0159 30.2825 29.9244 30.1954 29.8333C30.3801 29.7455 30.5667 29.6577 30.7509 29.5699C30.7033 29.7462 30.6549 29.9226 30.6065 30.0985C30.5569 30.1015 30.5065 30.1045 30.4566 30.1075ZM29.8714 32.5476C29.7937 32.4867 29.7168 32.4262 29.6399 32.3653C29.6965 32.3619 29.755 32.3585 29.8113 32.3552C30.0978 32.1434 30.3828 31.9316 30.6682 31.7205C30.6951 31.9361 30.7236 32.152 30.7509 32.3671C30.5335 32.5095 30.3133 32.6533 30.0943 32.7956C30.0201 32.7127 29.9463 32.6301 29.8714 32.5476ZM29.9135 38.7035C28.5764 38.758 27.7781 38.4327 26.6834 38.3408C26.2673 37.5548 25.8511 36.767 25.4351 35.9806C25.3551 35.9018 25.2751 35.823 25.1954 35.7441C27.2944 35.5062 28.6143 34.539 30.1692 33.8707C30.7201 34.3694 31.9666 36.9164 30.8684 38.0442C30.6076 38.4297 30.3121 38.4678 29.9135 38.7035ZM24.1703 36.0523C24.3372 36.0426 24.5052 36.0318 24.6736 36.0213C25.4302 36.5055 25.9456 37.374 26.3067 38.1719C25.5661 37.9683 24.8244 37.7632 24.0843 37.5585C24.2491 37.0213 24.3187 36.4752 24.1703 36.0523ZM22.5742 34.0228C23.4084 33.7923 24.2416 33.5633 25.0758 33.3332C26.3879 33.4561 27.7 33.579 29.0129 33.7008C29.0363 33.7646 29.0605 33.8274 29.0843 33.8902C27.9116 34.3937 26.5784 34.8181 25.2338 35.4684C23.7774 35.579 23.4269 35.0601 22.4177 34.7187C22.4707 34.486 22.523 34.2551 22.5742 34.0228ZM22.4177 36.5559C22.4346 36.4009 22.4508 36.2455 22.4677 36.0897C22.7866 36.0673 23.1055 36.0441 23.4257 36.0213C23.5041 36.427 23.5883 36.6534 23.47 37.0968C23.1192 36.9167 22.7687 36.7359 22.4177 36.5559ZM21.3065 37.3983C21.4304 37.3318 21.555 37.2672 21.6785 37.201C22.1351 36.9126 22.4791 37.2982 22.9732 37.4491C22.9074 37.5103 22.8419 37.5723 22.7764 37.6344C22.2862 37.5559 21.7964 37.4767 21.3065 37.3983ZM22.3853 36.5589C22.2646 36.5073 22.144 36.455 22.0239 36.4016C21.9698 36.2757 21.9157 36.1476 21.8621 36.0213C22.047 36.0325 22.2322 36.0437 22.4177 36.0546C22.4069 36.223 22.3957 36.3908 22.3853 36.5589ZM20.751 36.5589C20.9365 36.7113 21.1212 36.8626 21.3065 37.0135C21.3053 37.2952 21.2801 37.2634 21.2137 37.6344C21.0595 37.2757 20.9058 36.9179 20.751 36.5589ZM19.31 34.5431C19.8314 34.3922 20.527 34.4255 21.3065 34.4087C21.0642 34.588 20.8237 34.7669 20.5811 34.9462C20.082 34.8991 19.583 34.8528 19.0843 34.8057C19.1597 34.7183 19.235 34.6306 19.31 34.5431ZM17.9732 7.60041C19.0044 6.65911 21.593 6.9404 22.2419 7.53802C22.3003 7.53354 22.3595 7.52824 22.4177 7.52334C21.5542 8.29101 20.218 8.37988 19.3972 9.13978C18.754 8.73047 18.2218 8.46834 17.9732 7.60041ZM23.6478 9.13978C23.7935 9.29761 23.9386 9.45544 24.0843 9.61301C23.6951 9.63486 23.2859 9.65701 22.8786 9.68966C21.9591 9.76426 21.0511 9.89546 20.4165 10.2096C20.3895 10.2118 20.3619 10.2132 20.3346 10.215C20.2879 10.1462 20.2415 10.0776 20.1954 10.0092C20.9735 9.63157 21.8222 9.32787 22.8786 9.20026C23.098 9.17392 23.3267 9.15502 23.5658 9.14516C23.5938 9.14307 23.6208 9.14098 23.6478 9.13978ZM25.8119 6.45159C26.53 7.14048 27.6032 7.54714 27.9733 8.60215C26.4648 7.93314 24.1483 7.94285 22.9732 6.87895C24.01 7.08978 24.8902 7.01152 25.8119 6.45159ZM26.3067 10.215C26.9946 10.3052 27.6817 10.3953 28.3672 10.4847C28.4222 10.4811 28.4757 10.4763 28.5288 10.4719C27.9788 10.9241 27.4279 11.3758 26.8763 11.8279C26.6171 11.3298 26.5542 10.6548 26.3067 10.215ZM28.9543 12.5145C28.8122 12.4941 28.6705 12.4731 28.5288 12.4527C28.7139 12.4236 28.8989 12.3946 29.0843 12.3656C29.041 12.4155 28.9973 12.4656 28.9543 12.5145ZM28.5288 11.2297C28.6979 11.071 28.8685 10.9123 29.0375 10.7527C29.0539 10.9317 29.068 11.1108 29.0843 11.2903C28.9622 11.2645 28.8392 11.2392 28.7158 11.213C28.6541 11.2193 28.5905 11.2238 28.5288 11.2297ZM29.5368 29.023C29.4556 29.026 29.3736 29.029 29.2932 29.0324C29.2222 28.9696 29.1534 28.9068 29.0843 28.8445C29.1378 28.7765 29.1905 28.7088 29.2452 28.6412C29.376 28.5923 29.5075 28.5437 29.6399 28.4944C29.6047 28.6704 29.5712 28.8463 29.5368 29.023ZM29.0941 30.0032C29.1616 29.9282 29.2307 29.8534 29.2987 29.7784C29.3045 29.7085 29.3104 29.6386 29.3162 29.5699C29.4244 29.7339 29.5321 29.8975 29.6399 30.0611C29.454 30.0765 29.269 30.0921 29.0843 30.1075C29.0875 30.0731 29.0906 30.038 29.0941 30.0032ZM28.8739 31.7205C28.7592 31.5886 28.6444 31.4571 28.5288 31.3257C28.8985 31.2782 29.2698 31.2304 29.6399 31.1826L29.1105 31.7048C29.032 31.71 28.9528 31.7145 28.8739 31.7205ZM29.0843 33.3332C28.7146 33.291 28.3446 33.248 27.9733 33.2058C28.2337 33.0691 28.4956 32.9327 28.7564 32.7956C28.8657 32.9742 28.9758 33.1535 29.0843 33.3332ZM28.3051 31.8161C28.3797 31.8841 28.4539 31.9521 28.5288 32.0201C28.2606 32.0858 27.9936 32.1523 27.7242 32.2177C27.4369 32.2308 27.1496 32.2442 26.8622 32.2581C27.2616 32.0787 27.6629 31.8991 28.0635 31.7205C28.1447 31.7526 28.2251 31.7844 28.3051 31.8161ZM25.1954 8.60215C25.8445 8.61892 26.5304 8.77608 26.8622 9.13978C26.4141 9.09742 25.61 9.16638 25.4066 8.83701C25.3378 8.7586 25.2661 8.68019 25.1954 8.60215ZM25.7597 10.7527C26.0768 11.0175 26.188 11.3293 26.1303 11.8279C25.6408 11.6667 25.7686 11.1554 25.7597 10.7527ZM26.3067 14.1417C26.3126 14.1112 26.3173 14.0807 26.3239 14.0501C27.4307 13.8207 27.6704 14.1872 27.1656 14.5161C26.7303 14.4594 26.5308 14.3024 26.3067 14.1417ZM27.7297 27.9569C27.8101 27.9759 27.8913 27.9953 27.9733 28.0148C27.9698 28.0398 27.967 28.0641 27.9643 28.0891C27.7816 28.224 27.6001 28.3596 27.4178 28.4944C27.4939 28.3166 27.5696 28.1395 27.645 27.9628C27.6746 27.9602 27.702 27.9587 27.7297 27.9569ZM27.4236 14.8436C27.561 14.7347 27.7 14.6254 27.8374 14.5161C27.8827 14.6957 27.928 14.8745 27.9733 15.0537C27.7879 15.0151 27.6028 14.9761 27.4178 14.9371C27.4193 14.9058 27.4217 14.8745 27.4236 14.8436ZM29.0843 29.2203C28.637 29.3312 28.1896 29.4429 27.7422 29.5542C27.634 29.5594 27.5255 29.5643 27.4178 29.5699C27.4201 29.5516 27.4236 29.5337 27.4264 29.5157C27.9304 29.422 28.2524 29.2625 28.5495 29.0324C28.7061 29.06 28.8634 29.0884 29.0195 29.1164C29.041 29.1508 29.0633 29.1855 29.0843 29.2203ZM28.1259 27.9569C28.0752 27.8575 28.0237 27.7581 27.9733 27.6591C28.1002 27.5796 28.2282 27.4989 28.3559 27.4193C28.4137 27.4496 28.471 27.4787 28.5288 27.5078C28.4558 27.6524 28.3824 27.7966 28.3094 27.9412C28.2485 27.9464 28.1868 27.9516 28.1259 27.9569ZM24.6399 31.6746C24.86 31.5113 25.0812 31.3473 25.301 31.1826C25.9839 31.2386 26.6655 31.2946 27.3487 31.3507C27.3717 31.3989 27.3943 31.4474 27.4178 31.4956C26.9571 31.7496 26.4961 32.004 26.035 32.2581C25.5225 32.1777 25.0787 31.96 24.8132 31.663C24.7557 31.6675 24.6978 31.6708 24.6399 31.6746ZM23.6111 31.7205C23.9539 31.8998 24.2975 32.0787 24.6399 32.2581C24.0843 32.165 23.5287 32.0709 22.9732 31.9783C23.1864 31.8923 23.3984 31.8064 23.6111 31.7205ZM23.5287 32.818C23.5263 32.8621 23.5238 32.9047 23.5217 32.948C23.4155 33.0041 23.3106 33.0601 23.2053 33.1165C23.1271 33.1251 23.0508 33.1359 22.9732 33.1445C22.9757 33.1012 22.9793 33.0582 22.9818 33.0153C23.224 32.7078 23.1828 32.8106 23.5287 32.818ZM20.9092 10.9373C20.8571 10.8835 20.8042 10.83 20.751 10.7768C21.3022 10.4889 22.173 10.3532 23.0294 10.2868C23.7346 10.2323 24.4293 10.224 24.9258 10.215C25.0157 10.7524 25.1059 11.2902 25.1954 11.8279C24.4708 11.7518 23.7762 11.6617 23.0294 11.6287C22.4314 11.6029 21.7998 11.6129 21.0921 11.6965C21.0326 11.4431 20.9713 11.19 20.9092 10.9373ZM21.7262 32.5113C21.7717 32.5872 21.8166 32.6626 21.8621 32.7381C21.8185 32.8991 21.7749 33.0605 21.7313 33.2211C21.2197 33.2588 20.7081 33.2958 20.1954 33.3332C20.3601 32.8531 20.6054 32.6227 20.8694 32.2581C21.1548 32.3425 21.4402 32.4269 21.7262 32.5113ZM19.8322 30.645C19.1345 30.6084 18.1764 30.1198 17.9732 29.5699C18.7145 29.75 19.4542 29.9304 20.1954 30.1105C20.0746 30.2886 19.9538 30.4668 19.8322 30.645ZM20.6126 30.6166C20.4732 30.6267 20.3349 30.6357 20.1954 30.645C20.1999 30.6032 20.206 30.5606 20.2099 30.5176C20.3643 30.3813 20.5171 30.2434 20.6716 30.1075C20.6515 30.2778 20.6321 30.4467 20.6126 30.6166ZM19.0843 10.956C19.31 10.8884 19.5345 10.8203 19.7602 10.7527C19.9053 10.926 20.0507 11.0998 20.1954 11.2735C20.0427 11.2791 19.8918 11.2845 19.739 11.2903C19.5214 11.1789 19.3023 11.0675 19.0843 10.956ZM19.0756 34.0396C19.0406 34.1569 19.0059 34.2742 18.9709 34.3918C18.9166 34.3963 18.8629 34.4019 18.8093 34.4087C18.7161 34.229 18.6223 34.0493 18.5287 33.8707C18.7145 33.889 18.8986 33.907 19.0843 33.9253C19.0814 33.9634 19.0779 34.0011 19.0756 34.0396ZM19.3848 31.7205C19.8173 31.8034 20.2489 31.8875 20.6804 31.9708C20.7042 32.0265 20.7276 32.0825 20.751 32.1385C20.4152 32.5367 20.0801 32.9346 19.7443 33.3332C19.3401 33.2764 18.9344 33.2192 18.5287 33.1625C18.8145 32.6817 19.0996 32.2009 19.3848 31.7205ZM29.0843 14.8715C29.1679 14.7542 29.2514 14.6371 29.335 14.5198C29.3658 14.5185 29.3951 14.5173 29.4259 14.5161C29.659 14.572 29.8905 14.6279 30.1232 14.6838C30.147 14.7152 30.1716 14.7471 30.1954 14.7787C29.9354 14.8701 29.6754 14.9621 29.4146 15.0537C29.3049 14.9929 29.1944 14.9321 29.0843 14.8715ZM30.5866 13.1338C30.4566 13.0569 30.3277 12.9806 30.1954 12.9032C30.5944 13.043 30.3648 12.8865 30.5866 13.1338ZM30.4613 15.5913C30.3719 15.5195 30.2836 15.4476 30.1954 15.3755C30.3804 15.2681 30.5655 15.1607 30.7509 15.0537C30.6541 15.2325 30.5573 15.4121 30.4613 15.5913ZM30.1954 19.3548C30.4831 19.4229 30.7716 19.4909 31.0589 19.5592C31.2912 19.6456 31.2861 19.6693 31.3064 19.8924C30.9352 19.7563 30.3145 19.6629 30.1954 19.3548ZM30.2797 17.8902C30.3191 17.8408 30.3598 17.7915 30.3992 17.7419C30.5171 17.9213 30.6342 18.1003 30.7509 18.2795C30.5659 18.2451 30.3804 18.2109 30.1954 18.1763C30.2235 18.0812 30.2516 17.9858 30.2797 17.8902ZM19.0266 35.5794C19.0458 35.6265 19.0649 35.6735 19.0843 35.7206C18.8348 35.8118 18.5848 35.9029 18.3359 35.994C18.2154 36.003 18.0943 36.0124 17.9732 36.0213C17.9755 35.997 17.9776 35.9728 17.981 35.9481C18.0659 35.8207 18.1502 35.6933 18.2363 35.5663C18.5906 35.4098 18.5987 35.5118 19.0266 35.5794ZM17.4177 8.60215C17.9031 8.94489 18.0275 9.37064 17.9534 10.7527C17.6334 10.3617 17.4406 9.53576 17.4177 8.60215ZM17.7377 7.52685C17.7232 7.65752 17.7093 7.78655 17.6954 7.9161C17.6027 7.92309 17.5099 7.92903 17.4177 7.93545C17.5227 7.79944 17.6304 7.66395 17.7377 7.52685ZM17.4177 8.06448C17.4034 8.19407 17.3913 8.32362 17.3755 8.45321C17.2052 8.42258 17.0323 8.39247 16.8621 8.36236C17.0028 8.26665 17.1441 8.16986 17.2848 8.07416C17.3291 8.07042 17.3744 8.06773 17.4177 8.06448ZM17.4177 39.247C17.5084 38.3344 17.6008 37.4222 17.6923 36.5099C18.3412 36.3467 18.9909 36.1842 19.6399 36.0213C18.9573 37.0647 18.2754 38.1073 17.5925 39.1488C17.5343 39.182 17.4758 39.2153 17.4177 39.247ZM17.555 31.8905C17.6552 31.8333 17.7542 31.7769 17.8536 31.7205C18.1263 32.0298 17.8818 32.474 17.6262 32.7956C17.4107 32.6032 17.3873 32.4844 17.4441 32.0489C17.4808 31.9962 17.5186 31.9428 17.555 31.8905ZM15.751 31.6275C15.9648 31.3006 16.1783 30.973 16.391 30.645C16.7336 30.8367 17.0762 31.0283 17.4177 31.2203C17.066 31.7455 16.7118 32.27 16.3572 32.7956C16.0379 32.5252 15.8426 32.1262 15.751 31.6275ZM15.751 35.8379C16.0912 35.5405 16.4338 35.2436 16.7744 34.9462C16.9362 34.96 17.0984 34.9739 17.2594 34.9877C17.312 35.071 17.3639 35.155 17.4177 35.2387C17.3757 35.4995 17.3358 35.7606 17.295 36.0213C16.78 35.9601 16.266 35.8992 15.751 35.8379ZM14.0843 35.108C14.491 34.8749 14.8994 34.6418 15.306 34.4087C15.6171 34.455 15.9263 34.5013 16.2366 34.5484C16.2592 34.5887 16.2836 34.6294 16.3065 34.6705C15.9799 34.9417 15.6539 35.2126 15.328 35.4838C14.8382 35.4352 14.5132 35.3112 14.2583 35.0986C14.1995 35.1016 14.1414 35.105 14.0843 35.108ZM13.9222 34.0691C14.0717 34.0026 14.2204 33.9368 14.3683 33.8707C14.432 33.8842 14.496 33.8969 14.5601 33.9103C14.5867 33.9398 14.6133 33.9693 14.6399 33.9989C14.2095 34.1356 13.7763 34.2723 13.3455 34.4087C13.2218 34.3672 13.0981 34.3254 12.9732 34.2843C13.2903 34.2122 13.6071 34.1408 13.9222 34.0691ZM12.4177 33.564C12.5264 33.3123 12.6358 33.0605 12.7439 32.8079C13.3529 32.7325 13.4958 33.0194 13.9513 33.2002C13.9945 33.2637 14.0396 33.3279 14.0843 33.3918C13.8576 33.5405 13.6307 33.6881 13.4041 33.8364C13.2199 33.8479 13.0361 33.8595 12.8517 33.8707C12.7074 33.7687 12.5633 33.6668 12.4177 33.564ZM11.3065 35.7707C11.5758 35.3168 11.8455 34.8622 12.1147 34.4087C12.6517 34.4079 12.7164 34.4505 12.9378 34.7213C13.035 34.8782 12.9512 34.7942 12.7366 34.8293C12.7194 34.9858 12.7041 35.1416 12.6869 35.2985C12.9684 35.3403 13.2488 35.381 13.5288 35.4236C13.3639 35.8159 13.3375 35.7643 13.0866 36.0138C12.2597 36.0568 11.8852 35.9055 11.3065 35.7707ZM10.3707 33.8707C10.8414 34.0067 11.3118 34.1419 11.7833 34.2768C11.8092 34.3302 11.835 34.384 11.8621 34.4374C11.5593 34.7863 11.2572 35.1352 10.9552 35.4838C10.5166 35.3463 10.0777 35.2088 9.63987 35.0717C9.88347 34.672 10.1275 34.2716 10.3707 33.8707ZM4.9286 32.4179C4.93481 32.3642 4.94028 32.3111 4.9468 32.2581C5.20933 32.4512 5.47257 32.6447 5.7348 32.8378C5.75779 32.8886 5.78044 32.9398 5.80308 32.991C4.16293 34.1983 6.67037 38.1372 9.52404 35.5857C9.93313 35.7426 10.3412 35.8992 10.751 36.0557C10.2787 36.8592 9.46845 37.1756 8.6149 37.6284C6.57425 37.7909 3.71882 34.6111 4.9286 32.4179ZM6.83187 32.9686C6.8423 33.09 6.85194 33.211 6.86209 33.3332C6.71034 33.2241 6.55954 33.1158 6.40877 33.0067C6.37422 32.9364 6.34061 32.8658 6.30653 32.7956C6.48173 32.8535 6.6567 32.911 6.83187 32.9686ZM9.63987 35.2518C9.30156 35.5017 8.96258 35.7524 8.62361 36.0011C6.6261 36.2018 5.81623 34.8816 5.751 33.2585C5.88116 33.1083 6.00995 32.9585 6.13979 32.8079C6.19714 32.8042 6.25449 32.7994 6.31148 32.7956C7.31814 33.5525 8.20734 34.7064 9.57292 35.0885C9.59455 35.1431 9.61719 35.1972 9.63987 35.2518ZM7.70389 27.4193C7.52193 27.2923 7.51045 27.2318 7.41765 27.0192C7.54519 26.5601 7.67176 26.0998 7.79863 25.6404C7.94683 25.5166 8.09502 25.3921 8.24286 25.2688C8.33827 25.4024 8.43435 25.5353 8.52878 25.6682C8.25402 26.2523 7.97896 26.8354 7.70389 27.4193ZM7.41765 27.8844C7.70986 27.2251 8.00207 26.5657 8.29494 25.907C8.35537 25.8728 8.4151 25.8398 8.47448 25.8064C8.87763 26.4858 9.46205 26.7936 9.63987 27.7159C9.20021 28.1545 8.75985 28.5934 8.3202 29.0324C7.91091 28.7462 7.62554 28.3726 7.41765 27.8844ZM9.08431 29.5281C9.45627 29.1833 9.82718 28.8388 10.1991 28.4944C10.3824 28.8527 10.5667 29.2109 10.751 29.5699C10.1957 29.5553 9.64053 29.5419 9.08431 29.5281ZM11.8621 18.6647C11.3353 19.7385 10.6354 20.4676 10.2157 21.5053C10.033 20.5618 11.1369 19.2057 11.4929 18.3724C11.549 18.3413 11.6058 18.3109 11.6618 18.2795C11.7288 18.4078 11.7951 18.5361 11.8621 18.6647ZM11.8621 15.7079C12.6874 15.4635 13.2421 15.0161 13.8342 14.5161C13.9173 14.7555 14.0013 14.9952 14.0843 15.2346C13.8502 15.5323 13.617 15.8312 13.3832 16.129C12.8757 15.989 12.3692 15.8482 11.8621 15.7079ZM14.6399 15.7621C14.5397 15.8843 14.4391 16.0069 14.3389 16.129C14.2544 16.1157 14.1693 16.1017 14.0843 16.0881L14.0906 16.0298C14.2591 15.8835 14.4276 15.7377 14.595 15.5913C14.6093 15.6484 14.6253 15.7053 14.6399 15.7621ZM14.202 13.4463C14.2312 13.4442 14.2605 13.4427 14.2897 13.4408C14.4062 13.6757 14.5234 13.9105 14.6399 14.1447C14.5955 14.2691 14.5505 14.3926 14.5068 14.5161C13.9993 14.2621 14.0197 13.9612 14.202 13.4463ZM14.0993 29.0324C14.2693 29.1489 14.4404 29.2655 14.6121 29.3828C14.4354 29.3084 14.2604 29.2348 14.0843 29.1624C14.0882 29.1183 14.0932 29.0746 14.0993 29.0324ZM14.0905 29.5699C14.2739 29.6454 14.4569 29.7212 14.6399 29.7974C14.6366 29.8187 14.6335 29.8404 14.6309 29.8624C14.2393 30.1232 13.8453 30.3843 13.453 30.645C13.114 30.5012 13.0724 30.2117 12.9732 29.8942C12.9759 29.8721 12.9792 29.8505 12.9818 29.8288C13.3515 29.7421 13.7215 29.6562 14.0905 29.5699ZM12.4453 28.4944C12.6217 28.5624 12.7969 28.6297 12.9732 28.6973C12.8789 28.7499 12.7856 28.8026 12.6909 28.8549C12.5994 28.865 12.5087 28.874 12.4177 28.8837C12.426 28.7548 12.4355 28.6248 12.4453 28.4944ZM12.4177 17.7419C13.0849 17.9229 12.8737 17.8025 12.9032 18.2795C12.596 18.109 12.5749 18.027 12.4177 17.7419ZM12.4177 27.3457C12.4326 27.1907 12.4485 27.0368 12.464 26.8818C12.7227 27.0532 12.8112 27.1556 12.9732 27.4193C12.7871 27.3943 12.6024 27.3696 12.4177 27.3457ZM13.5288 20.6315C13.3204 20.8882 13.329 20.8169 12.9732 20.9677C13.0543 20.7888 13.1355 20.6092 13.2171 20.43C13.3213 20.4974 13.4255 20.5642 13.5288 20.6315ZM13.5288 18.4698C13.4124 18.5855 13.2965 18.7012 13.1802 18.8172C12.8304 18.628 12.9962 18.7034 13.1529 18.3557C13.2221 18.3306 13.2913 18.3049 13.3614 18.2795C13.418 18.343 13.4738 18.4063 13.5288 18.4698ZM13.4843 17.5548C13.3143 17.4381 13.1432 17.3215 12.9732 17.2043C13.3671 17.3478 13.276 17.2602 13.4843 17.5548ZM12.4177 27.4193C12.603 27.5605 12.7876 27.7014 12.9732 27.8418C12.6887 27.8347 12.5378 27.7768 12.4177 27.4193ZM14.0843 27.3991C14.0094 27.4059 13.9336 27.4126 13.8581 27.4193C13.7935 27.305 13.7285 27.1911 13.6638 27.0764C13.6187 27.0207 13.5733 26.9647 13.5288 26.9087C13.6289 26.8993 13.7291 26.8904 13.8295 26.8818C13.9144 27.0543 13.9989 27.2266 14.0843 27.3991ZM13.7777 17.4441C13.6949 17.3634 13.611 17.2838 13.5288 17.2043C13.7732 17.3671 13.611 17.208 13.7777 17.4441ZM13.8125 26.2979C13.7184 26.11 13.6232 25.9228 13.5288 25.7351C13.5686 25.5809 13.609 25.4275 13.6491 25.2734C13.6722 25.272 13.6956 25.2704 13.7193 25.2688C13.8404 25.6269 13.9629 25.9853 14.0843 26.3438C13.9946 26.3285 13.9041 26.3132 13.8125 26.2979ZM12.3567 32.5532C12.3773 32.5775 12.3974 32.601 12.4177 32.6253C12.3513 32.8614 12.285 33.0978 12.2186 33.3332C11.8097 33.1774 11.3913 32.7739 11.3065 32.2581C11.6573 32.3563 12.0068 32.4542 12.3567 32.5532ZM10.751 33.3332C10.9367 33.4897 11.1209 33.6466 11.3065 33.8035C10.9512 33.6548 10.9294 33.6612 10.751 33.3332ZM11.7099 28.5676C11.7315 28.7227 11.7554 28.8777 11.7771 29.0324C11.6199 28.8527 11.4638 28.6737 11.3065 28.4944C11.4404 28.5187 11.5743 28.5434 11.7099 28.5676ZM11.1608 31.0813C11.0238 30.7571 10.8869 30.4321 10.751 30.1075C11.2359 30.286 11.6162 30.8172 11.8621 31.1826C11.6288 31.1486 11.3948 31.1153 11.1608 31.0813ZM11.5972 21.5095C11.6428 21.5077 11.69 21.5065 11.7355 21.5053C11.6 21.6844 11.4655 21.8636 11.3294 22.0429C11.2622 21.9104 11.3433 21.7829 11.5694 21.6272C11.5778 21.5877 11.5878 21.5487 11.5972 21.5095ZM11.3065 26.1305C11.2698 26.2019 11.2323 26.2725 11.1951 26.3438C11.0886 26.265 10.9829 26.1866 10.8759 26.1075C10.8343 26.0223 10.7924 25.9368 10.751 25.8519C10.8964 25.8368 11.0411 25.8216 11.1864 25.8064C11.2269 25.9143 11.2667 26.0223 11.3065 26.1305ZM7.41765 30.645C8.53144 31.3369 10.4223 31.9779 10.751 33.3332C9.46021 32.7474 8.20199 31.6929 7.41765 30.645ZM10.3047 30.1258C10.4534 30.2991 10.6026 30.4721 10.751 30.645C10.3808 30.4657 10.01 30.2868 9.63987 30.1075C9.86169 30.1134 10.0838 30.1198 10.3047 30.1258ZM14.3729 31.7205C14.0918 31.4508 13.8103 31.18 13.5288 30.9099C14.0204 30.4631 14.5135 30.0171 15.0052 29.5699C15.0687 30.0611 15.1322 30.5527 15.1954 31.0444C14.9214 31.2696 14.6473 31.4952 14.3729 31.7205ZM15.1954 32.6189C15.2452 32.502 15.2935 32.3851 15.343 32.2681C15.408 32.2644 15.4726 32.261 15.5388 32.2581C15.6101 32.437 15.6801 32.6163 15.751 32.7956C15.5661 32.7366 15.3804 32.6779 15.1954 32.6189ZM15.9443 30.645C15.8799 30.4657 15.816 30.2871 15.751 30.1075C15.8865 30.1314 16.0215 30.1549 16.1538 30.1788C16.0849 30.3338 16.0143 30.49 15.9443 30.645ZM15.1954 12.5412C15.1972 12.5257 15.1987 12.5101 15.201 12.4941C15.3847 12.4513 15.5673 12.4086 15.751 12.3656C15.6229 12.5448 15.4945 12.724 15.3668 12.9032C15.3098 12.7826 15.2525 12.6618 15.1954 12.5412ZM9.59431 23.6559C9.42375 23.2969 9.25378 22.9388 9.08431 22.5806C9.73708 22.7173 9.63265 23.161 9.59431 23.6559ZM8.23302 24.1935C7.7587 23.8782 7.45486 23.2531 7.41765 22.5806C8.39215 22.801 8.33948 23.1673 8.52878 24.0162C8.43005 24.0752 8.33175 24.1345 8.23302 24.1935ZM7.65888 21.3881C6.95067 20.7491 7.98302 18.1889 8.437 17.6005C8.67569 17.311 8.9782 17.3163 9.37702 17.2043C9.46498 17.2257 9.55153 17.2479 9.63987 17.2695C8.97246 18.398 8.52101 19.9336 8.36162 21.5053C8.12727 21.4658 7.89358 21.427 7.65888 21.3881ZM6.62219 30.1075C6.73548 30.289 6.84878 30.4706 6.96207 30.6529C6.86146 30.8781 6.75961 31.1034 6.65803 31.329C6.59936 31.388 6.54158 31.4467 6.48353 31.5057C6.73135 31.5393 6.7869 31.3346 7.16039 31.0455C7.87917 32.1617 8.98097 33.2263 10.1954 33.8334C9.97455 34.2039 9.75242 34.5749 9.53189 34.9462C8.86229 34.5345 8.19492 34.1236 7.52567 33.712C7.29558 33.3059 7.61293 32.8397 7.24354 32.5913C6.91003 32.366 6.47845 32.6918 6.13858 32.5939C5.82439 32.3186 5.50958 32.0433 5.19544 31.7679C5.47183 31.1773 5.7387 30.598 6.28771 30.2961C6.39975 30.233 6.5105 30.1699 6.62219 30.1075ZM4.70105 24.1793C4.77136 23.6505 4.8914 23.104 5.02718 22.5869C5.05263 22.5849 5.0775 22.5829 5.10295 22.5806C5.19934 23.1137 5.29573 23.6465 5.3927 24.1793C5.44333 24.4578 5.49303 24.7364 5.54366 25.0146C5.98281 26.1742 6.42231 27.3349 6.86209 28.4944C5.80765 27.9434 5.15386 26.6707 5.24751 24.9584C4.99415 25.5111 5.20508 26.3801 5.28843 26.8661C4.63893 26.342 4.55555 25.2991 4.70105 24.1793ZM3.73799 24.7311C3.64176 24.542 3.57906 24.332 3.54963 24.0835C3.51828 23.8281 3.52273 23.5326 3.55978 23.1793C3.59109 23.1145 3.62306 23.0506 3.65503 22.9866C3.79846 22.8514 3.94154 22.7162 4.08431 22.5806C4.00361 23.0814 3.92288 23.5826 3.84184 24.0835C3.80764 24.2996 3.7725 24.515 3.73799 24.7311ZM42.4177 30.1075C42.0476 29.9715 41.6776 29.8351 41.3067 29.6984C41.6662 29.6558 42.0254 29.6125 42.3849 29.5699C42.3955 29.7488 42.4064 29.9285 42.4177 30.1075ZM13.0171 38.8578C13.1138 38.8081 13.2121 38.7584 13.3088 38.7095C13.1982 38.8877 13.0843 39.0681 12.9732 39.2463C12.9877 39.117 13.0027 38.987 13.0171 38.8578ZM4.63987 20.43C4.48254 20.4152 4.32459 20.4007 4.16598 20.3859C3.57809 20.2027 3.0233 19.5468 2.97322 18.8172C3.87541 18.8946 4.18042 19.3023 4.6264 19.8003C4.63089 20.0099 4.63601 20.2198 4.63987 20.43ZM4.57433 20.3853C4.63893 19.2253 3.71082 18.501 2.50608 18.5321C2.71271 16.9012 4.19686 16.0684 5.52036 15.5206C5.60558 15.5146 5.68947 15.5086 5.7747 15.5026C5.55284 17.5486 5.72125 19.3108 4.91998 21.0808C4.32842 22.3851 2.2314 22.3607 2.34609 24.3709C2.34879 24.4254 2.35316 24.4823 2.35995 24.54C2.65895 27.215 5.70673 27.7593 6.12847 30.1116C1.61111 32.304 7.11748 41.522 10.6908 36.1076C11.3301 36.1954 11.901 36.4726 12.6969 36.2055C13.0666 36.0101 13.14 35.8517 13.2837 35.4445C13.7089 35.6545 14.135 35.8644 14.5602 36.0744C14.5825 36.1255 14.6048 36.1775 14.6278 36.2294C13.4569 37.0957 12.6319 38.2844 11.3758 39.0983C11.415 38.9881 11.4553 38.8776 11.4955 38.7689C11.3852 38.7506 11.2756 38.7311 11.1654 38.7125C11.1065 38.7435 11.0463 38.7748 10.9871 38.8055C10.9323 39.0483 10.8789 39.293 10.8234 39.5362C11.5405 40.2347 13.7163 37.705 14.3535 37.2081C13.9926 38.411 13.1031 39.0292 12.6089 40.1298C12.659 40.1802 12.7104 40.2302 12.7612 40.2796C13.6994 39.6378 14.8501 37.8223 15.0249 36.4405C15.4927 36.5144 15.9611 36.588 16.4299 36.6624C14.6684 38.9362 10.1439 43.9356 7.76584 45.27C8.12605 44.1848 8.70442 43.3562 8.99463 42.4649C8.93748 42.4686 8.88099 42.472 8.82552 42.4765C8.77477 42.426 8.7237 42.3764 8.67264 42.327C8.09459 43.4152 7.13977 44.178 6.96964 45.6454C7.09039 45.8247 7.21926 45.9211 7.34914 46.0186C10.1781 45.5681 14.9001 38.7823 17.1575 36.9298C16.5469 42.7824 13.2607 43.6961 10.4108 47.2424C13.0003 46.0092 14.5717 42.8631 16.7884 41.1148C16.5432 43.5617 15.9337 49.0295 14.3988 50C14.4834 49.9933 14.568 49.988 14.6532 49.9821C16.3724 48.9611 16.4735 44.763 17.0465 42.6162C17.1277 41.8635 17.2095 41.1118 17.2907 40.3606C18.1095 39.262 18.9287 38.1641 19.7476 37.0677C19.8075 37.037 19.8663 37.0053 19.9258 36.9754C20.2005 37.7984 21.4445 38.6915 22.7923 38.4517C23.115 38.3225 23.437 38.1936 23.758 38.0647C24.5684 38.3535 25.3771 38.6422 26.1853 38.9317C26.5039 42.2639 26.3817 44.1325 24.1716 46.6708C26.4297 45.5692 27.2597 41.3225 26.5078 39.0696C31.7589 39.6501 31.5489 37.9579 30.5518 34.3063C30.8602 34.3104 31.1679 34.3156 31.4759 34.3212C31.3064 34.0769 30.8454 34.2585 30.4937 34.071C30.334 33.9727 30.3656 33.991 30.2657 33.8464C31.5153 32.5016 34.5209 33.8375 33.8916 36.0695C34.7544 34.2178 32.845 32.5733 31.0047 33.2346C31.7905 32.3458 32.7423 31.6152 33.24 30.4381C33.3002 30.4071 33.3587 30.3761 33.4188 30.3454C34.8586 31.7896 36.3003 33.2346 37.7409 34.6784C37.8248 34.6728 37.9103 34.6664 37.9954 34.6608C38.061 34.576 38.1254 34.4916 38.1902 34.4068C36.8184 32.8517 35.4442 31.2946 34.072 29.7395C34.2188 29.6753 34.3655 29.6117 34.5139 29.5482C34.7516 29.3323 35.0132 29.261 35.2752 29.2946C35.1986 29.2584 35.1252 29.2232 35.0561 29.19C37.265 29.4022 40.0824 31.1579 42.3857 30.592C42.5985 30.2397 42.6079 30.0484 42.4802 29.7059C44.9334 29.7649 49.3468 28.9812 50.751 27.8429C46.9779 28.6001 42.725 28.8568 39.2583 28.4137C38.2339 28.2998 37.2107 28.1851 36.1867 28.0708C36.1301 28.0749 36.0731 28.0787 36.0157 28.0828C36.2909 27.6106 36.5662 27.1376 36.8418 26.6651C39.3746 26.6206 46.0128 26.5594 47.3554 25.0437C47.2566 24.9177 47.1578 24.7907 47.0599 24.6647C46.6738 24.6119 46.2865 24.5594 45.9012 24.5063C45.8012 24.647 45.7876 24.7814 45.7716 24.916C46.0776 24.9475 46.3818 24.9789 46.6867 25.011C44.6968 25.4895 39.1545 26.4992 37.3442 25.9096C37.1537 25.6897 37.2946 24.9237 37.3028 24.3716C37.3056 24.2623 37.3024 24.1611 37.2907 24.0745C39.8915 23.3322 41.8228 21.6629 42.6145 19.1407C43.0673 17.6986 42.7671 15.802 43.7454 14.9027C44.3705 14.9548 44.4966 15.2062 44.9553 15.3773C44.7121 15.0551 44.3662 14.8766 43.9324 14.7296C43.66 14.9087 43.389 15.0879 43.1181 15.2666C42.3732 15.5417 41.5936 14.8221 40.3315 15.3833C39.3063 14.5461 38.727 13.222 37.3423 12.7157C37.2946 12.6388 37.2462 12.5623 37.199 12.4858C37.7604 11.9657 38.3198 11.4467 38.8808 10.9274C38.3292 11.3665 37.769 11.8859 37.208 12.4049C36.834 12.2448 36.4576 12.0844 36.0821 11.925C36.061 11.8725 36.0384 11.8214 36.0157 11.7696C37.2978 10.9023 38.4369 10.5805 39.8974 10.8562C39.9661 10.9842 40.0379 11.1125 40.1078 11.2408C40.0395 11.3528 39.9794 11.3829 39.9208 11.414C39.7576 11.3722 39.5925 11.3308 39.4293 11.2883C39.6413 11.4073 39.8618 11.4451 40.0816 11.4828C40.1429 11.4247 40.2058 11.3672 40.2671 11.3097C40.2764 11.2288 40.2854 11.1486 40.2948 11.0677C39.9758 10.7964 39.8786 10.6012 39.2532 10.5815C39.3528 10.4408 39.4523 10.3007 39.5523 10.1607C38.8351 10.6303 37.3829 10.7556 36.6696 11.1637C37.2181 10.7516 37.767 10.3395 38.3159 9.92777C38.3811 9.84357 38.4463 9.75866 38.5119 9.67446C37.4965 10.2519 36.4818 10.8304 35.4668 11.4086C34.8168 11.3652 34.1255 11.0754 33.7749 10.7279C33.7187 10.7319 33.6628 10.7359 33.6051 10.7399C34.8114 9.96188 36.0157 9.18386 37.2201 8.40614C37.2006 8.32728 37.1814 8.24876 37.1623 8.16986C35.7901 8.9332 34.419 9.69616 33.0484 10.4598C32.6104 10.3569 32.1735 10.2546 31.7363 10.1517C31.7765 9.77607 31.8175 9.40008 31.8577 9.02409C34.9984 6.66998 38.1394 4.31587 41.2794 1.96209C41.3352 1.95776 41.3918 1.95406 41.4488 1.9504C41.4031 1.84677 41.3582 1.74318 41.3141 1.63959C40.9643 1.48016 39.5308 2.59072 38.9893 2.92326C36.9039 4.20092 35.0593 5.79035 33.007 6.94402C33.8541 5.91703 35.4055 4.89436 35.6609 3.3978C35.5231 3.3811 35.3837 3.36407 35.2455 3.34737C35.0316 3.52216 34.8168 3.69758 34.6006 3.87271C34.8356 3.77614 35.0702 3.67988 35.304 3.58298C34.8496 4.89903 32.7919 7.25415 31.6332 8.00045C31.5879 7.89649 31.5434 7.79391 31.4985 7.68995C32.2531 6.47614 32.9968 4.84692 32.6474 3.29055C32.4358 3.17224 32.2243 3.05394 32.0127 2.93529C31.787 2.95165 31.5618 2.96772 31.3353 2.98341C31.7695 3.14751 32.0642 3.18793 32.3831 3.38913C32.5877 4.89806 31.8089 5.91803 31.3904 7.13786C31.3299 7.16861 31.2713 7.19935 31.212 7.23077C30.9317 6.73815 30.9496 6.49956 30.3761 6.40964C30.359 6.30437 30.3426 6.19877 30.3262 6.09316C30.4562 5.92371 30.587 5.75527 30.7177 5.58616C30.8079 5.52602 30.8981 5.46617 30.9891 5.4067C31.0808 5.57081 31.0847 5.51298 31.1144 5.79771C31.2135 5.6577 31.2276 5.52333 31.2416 5.38866C31.1362 5.3432 31.0281 5.29744 30.9215 5.25197C30.6381 5.53805 30.3555 5.82479 30.0728 6.1112C29.3619 5.6577 28.5823 5.18245 27.586 5.00733C28.1494 3.88675 29.8679 2.08809 28.9797 0.670388C27.8987 -1.05375 24.2041 0.934085 22.8515 2.30162C22.6702 2.48612 22.5295 2.65923 22.4446 2.81097C22.5309 2.7441 22.6705 2.63917 22.8515 2.51085C24.1862 1.55973 27.7422 -0.714181 28.5124 1.10353C29.3205 2.1185 27.7726 4.07055 27.3498 4.86396C25.9097 4.72458 24.403 4.59294 22.8536 4.62234C21.2892 4.65274 19.6796 4.84625 18.0507 5.3599C17.2633 5.60824 13.9128 7.5242 13.785 7.50014C13.2759 7.03024 12.7659 6.55903 12.2562 6.08849C11.1914 5.5775 10.1253 5.06616 9.06026 4.55517C9.05382 4.60863 9.04874 4.66212 9.04335 4.71625C8.98078 4.77408 8.91784 4.83153 8.85628 4.88936C10.221 5.99222 11.5875 7.09576 12.9515 8.19896C12.7432 8.3206 12.5345 8.44159 12.3255 8.56323C10.6411 7.34407 9.48001 6.60382 6.97237 5.98188C6.83168 5.99189 6.69028 6.00156 6.54958 6.01161C8.01409 6.97443 9.48813 7.85675 10.9614 8.73902C11.0598 8.86536 11.1579 8.99166 11.2567 9.11834C10.2048 9.54244 9.76003 10.4201 8.87084 10.9658C7.48242 10.3322 6.19784 9.76 4.51549 9.2734C4.47622 9.38304 4.43566 9.49265 4.39642 9.60225C5.44728 10.2476 6.49782 10.8933 7.54871 11.539C7.6052 11.5349 7.66169 11.5309 7.71783 11.5272C7.53688 11.6462 7.35593 11.7659 7.17565 11.8852C6.92365 12.6923 6.43153 13.627 6.02263 14.7654C4.4519 15.9862 2.41543 15.913 2.09952 18.4008C1.59858 18.5321 1.24242 18.5736 0.785822 18.8931C0.773993 19.0007 0.762828 19.1083 0.750999 19.2156C1.03747 19.6006 3.58976 20.6306 4.20025 20.7315C4.32572 20.6159 4.45018 20.5002 4.57433 20.3853ZM23.2133 3.18509C23.2916 3.1988 23.3677 3.2121 23.4454 3.22581C23.3415 3.21382 23.2373 3.20119 23.133 3.18902C23.0797 3.19163 23.0266 3.19402 22.9732 3.19664C23.2187 2.75804 23.9429 2.65008 24.6399 2.69905C24.6239 2.80395 24.6082 2.90911 24.591 3.01378C24.1376 3.03601 23.683 3.05797 23.2296 3.07975C23.2248 3.11501 23.2187 3.14983 23.2133 3.18509ZM24.1864 3.76344C24.405 3.69459 24.6239 3.62608 24.8418 3.55757C25.1246 3.10829 25.286 2.6323 25.1415 2.19553C24.4685 2.06837 24.0792 2.22582 23.4477 2.47846C23.3335 2.65703 23.2189 2.83652 23.1059 3.01538C23.0619 3.08423 23.0169 3.15308 22.9732 3.22226C23.0169 3.26903 23.0594 3.30986 23.1059 3.34677C23.3188 3.5154 23.5769 3.57371 24.0511 3.5365C24.18 3.74794 24.031 3.65406 23.7958 3.71368C23.9257 3.72982 24.0559 3.74697 24.1864 3.76344ZM40.344 8.60215C40.109 8.64432 39.8739 8.6865 39.6397 8.72804C39.7845 8.71881 39.9298 8.70925 40.0734 8.69905C40.239 8.76663 40.4041 8.83484 40.5681 8.90208C40.3178 9.3402 40.0676 9.7776 39.8173 10.215C40.203 9.78025 40.588 9.47106 40.7512 8.81078C40.6145 8.74089 40.4794 8.67167 40.344 8.60215ZM36.3066 29.5699C36.1309 29.274 35.94 29.0779 35.751 29.0324C35.9201 29.184 36.1145 29.3618 36.3066 29.5699ZM34.0845 36.0213C33.8994 36.1248 33.7136 36.2272 33.5289 36.3288C33.671 36.3161 33.8131 36.303 33.9556 36.2907C33.9994 36.2003 34.0423 36.1114 34.0845 36.0213ZM36.3066 29.5699C36.8707 30.1796 37.2954 31.3454 37.1728 32.2581C37.8131 30.9349 37.0823 30.1097 36.3066 29.5699Z" fill="white"/>
</svg>
