<svg width="50" height="50" viewBox="0 0 50 50" fill="none" xmlns="http://www.w3.org/2000/svg">
<mask id="mask0_441_77" style="mask-type:luminance" maskUnits="userSpaceOnUse" x="0" y="0" width="50" height="50">
<path d="M50 0H0V50H50V0Z" fill="white"/>
</mask>
<g mask="url(#mask0_441_77)">
<path d="M16.3477 50H11.9591C10.6857 50 9.67849 48.8852 9.76536 47.5727L12.764 2.11818C12.8421 0.926137 13.8021 0 14.9577 0H19.3463C20.6197 0 21.6269 1.11477 21.5401 2.42727L18.5414 47.8818C18.4633 49.0739 17.5034 50 16.3477 50Z" fill="white"/>
<path d="M0.0172567 37.2182L0.567065 32.6727C0.704517 31.5352 1.64029 30.6818 2.7498 30.6818H46.7004C48.0232 30.6818 49.047 31.8795 48.8831 33.2364L48.3333 37.7818C48.1948 38.9193 47.259 39.7727 46.1495 39.7727H2.2C0.877157 39.7727 -0.146586 38.575 0.0172567 37.2182Z" fill="white"/>
<path d="M36.1408 50H31.7522C30.4788 50 29.4716 48.8852 29.5584 47.5727L32.5571 2.11818C32.6352 0.926137 33.5951 0 34.7508 0H39.1394C40.4128 0 41.42 1.11477 41.3331 2.42727L38.3345 47.8818C38.2564 49.0739 37.2965 50 36.1408 50Z" fill="white"/>
<path d="M1.11687 16.7636L1.66667 12.2182C1.80413 11.0807 2.7399 10.2273 3.84941 10.2273H47.8C49.1228 10.2273 50.1466 11.425 49.9827 12.7818L49.4329 17.3273C49.2944 18.4648 48.3586 19.3182 47.2491 19.3182H3.29961C1.97677 19.3182 0.95302 18.1205 1.11687 16.7636Z" fill="white"/>
</g>
<rect x="17" y="15" width="17" height="18" fill="white"/>
<g id="notion"><path fill-rule="evenodd" clip-rule="evenodd" d="M38.6275 12C38.8375 12.88 38.6275 13.75 37.7175 13.85L36.1975 14.14V35.53C34.8775 36.21 33.6575 36.6 32.6475 36.6C31.0275 36.6 30.6175 36.11 29.4075 34.65L19.4575 19.68V34.17L22.6075 34.85C22.6075 34.85 22.6075 36.6 20.0675 36.6L13.0775 36.99C12.8675 36.6 13.0775 35.62 13.7875 35.43L15.6075 34.95V15.8L13.0775 15.6C12.8675 14.72 13.3775 13.46 14.7975 13.36L22.3075 12.88L32.6475 28.04V14.63L30.0075 14.34C29.8075 13.27 30.6175 12.49 31.6275 12.39L38.6275 12Z" fill="black"/>
<animateTransform 
      attributeName="transform" 
      type="translate" 
      values="-2;2;-2" 
      dur="2s" 
      repeatCount="indefinite" 
      keyTimes="0;0.5;1"
      calcMode="spline" 
      keySplines="0.42 0 0.58 1; 0.42 0 0.58 1"/>
</g>
</svg>
