<svg width="512.286987" height="512.000000" viewBox="0 0 512.287 512" fill="none" xmlns="http://www.w3.org/2000/svg" xmlns:xlink="http://www.w3.org/1999/xlink">
	<desc>
			Created with Pixso.
	</desc>
	<defs/>
	<path id="path" d="M368 426.66L58.66 426.66C42.47 426.65 28.64 420.92 17.19 409.47C5.74 398.01 0.01 384.19 0 368L0 58.66C0.01 42.47 5.74 28.64 17.19 17.19C28.64 5.74 42.47 0.01 58.66 0L368 0C384.19 0.01 398.01 5.74 409.47 17.19C420.92 28.64 426.65 42.47 426.66 58.66L426.66 368C426.65 384.19 420.92 398.01 409.47 409.47C398.01 420.92 384.19 426.65 368 426.66Z" fill="#607D8B" fill-opacity="1.000000" fill-rule="nonzero"/>
	<path id="path" d="M213.33 0L58.66 0C42.47 0.01 28.64 5.74 17.19 17.19C5.74 28.64 0.01 42.47 0 58.66L0 368C0.01 384.19 5.74 398.01 17.19 409.47C28.64 420.92 42.47 426.65 58.66 426.66L213.33 426.66L213.33 0Z" fill="#546D79" fill-opacity="1.000000" fill-rule="nonzero"/>
	<path id="path" d="M304 272L122.66 272C108.44 272 101.33 264.88 101.33 250.66C101.33 236.44 108.44 229.33 122.66 229.33L304 229.33C318.22 229.33 325.33 236.44 325.33 250.66C325.33 264.88 318.22 272 304 272ZM304 197.33L122.66 197.33C108.44 197.33 101.33 190.22 101.33 176C101.33 161.77 108.44 154.66 122.66 154.66L304 154.66C318.22 154.66 325.33 161.77 325.33 176C325.33 190.22 318.22 197.33 304 197.33Z" fill="#FAFAFA" fill-opacity="1.000000" fill-rule="nonzero"/>
	<path id="path" d="M325.33 176L101.33 176C101.33 190.22 108.44 197.33 122.66 197.33L304 197.33C318.22 197.33 325.33 190.22 325.33 176ZM325.33 250.66L101.33 250.66C101.33 264.88 108.44 272 122.66 272L304 272C318.22 272 325.33 264.88 325.33 250.66Z" fill="#DADADA" fill-opacity="1.000000" fill-rule="nonzero"/>
	<path id="path" d="M236.28 325.01C222.27 322.54 216.5 314.29 218.98 300.28L250.98 118.95C253.7 105.31 261.92 99.69 275.62 102.12C289.32 104.54 295.11 112.62 292.99 126.37L260.99 307.71C258.52 321.7 250.28 327.47 236.28 325.01ZM150.95 325.01C136.94 322.54 131.17 314.29 133.65 300.28L165.65 118.95C168.12 104.94 176.36 99.17 190.37 101.65C204.37 104.13 210.14 112.37 207.65 126.37L175.65 307.71C173.18 321.7 164.95 327.47 150.95 325.01Z" fill="#FAFAFA" fill-opacity="1.000000" fill-rule="nonzero"/>
	<path id="path" d="M186.68 101.33C174.75 101.33 167.75 107.2 165.67 118.95L133.67 300.28C131.19 314.29 136.96 322.54 150.97 325.01L190.4 101.65C189.17 101.44 187.93 101.33 186.68 101.33ZM272.02 101.33C261.86 101.33 252.82 108.6 250.98 118.95L218.98 300.28C216.5 314.29 222.27 322.54 236.28 325.01L275.71 101.65C274.49 101.44 273.26 101.33 272.02 101.33Z" fill="#DADADA" fill-opacity="1.000000" fill-rule="nonzero"/>
	<path id="path" d="M448 512C433.77 512 426.66 504.88 426.66 490.66L426.66 298.66C426.66 284.44 433.77 277.33 448 277.33C462.22 277.33 469.33 284.44 469.33 298.66L469.33 490.66C469.33 504.88 462.22 512 448 512Z" fill="#4CAF50" fill-opacity="1.000000" fill-rule="nonzero"/>
	<path id="path" d="M490.66 341.33L405.33 341.33C395.83 341.33 389.26 336.94 385.62 328.16C381.99 319.38 383.53 311.63 390.25 304.91L432.91 262.25C442.97 252.17 453.02 252.17 463.08 262.25L505.74 304.91C512.46 311.63 514 319.38 510.37 328.16C506.73 336.94 500.16 341.33 490.66 341.33Z" fill="#4CAF50" fill-opacity="1.000000" fill-rule="nonzero"/>
	<path id="path" d="M448 341.33L426.66 341.33L426.66 490.66C426.66 504.88 433.77 512 448 512L448 341.33ZM448 256C442.1 255.99 437.07 258.07 432.91 262.25L390.25 304.91C383.53 311.63 381.99 319.38 385.62 328.16C389.26 336.94 395.83 341.33 405.33 341.33L448 341.33L448 256Z" fill="#429846" fill-opacity="1.000000" fill-rule="nonzero"/>
</svg>
