<svg width="51" height="50" viewBox="0 0 51 50" fill="none" xmlns="http://www.w3.org/2000/svg">
<path d="M47.4542 45.122H4.24701V47.561C4.24701 48.9085 5.32119 50 6.64741 50H45.0538C46.38 50 47.4542 48.9085 47.4542 47.561V45.122Z" fill="url(#paint0_linear_272_19)"/>
<path d="M47.4542 45.122H4.24701V21.9512L25.8506 1.21951L47.4542 21.9512V45.122Z" fill="url(#paint1_linear_272_19)"/>
<path d="M12.6484 28.0488H24.6504C25.3129 28.0488 25.8506 28.5951 25.8506 29.2683V50H11.4482V29.2683C11.4482 28.5951 11.9859 28.0488 12.6484 28.0488Z" fill="#DE490D"/>
<path opacity="0.05" d="M25.8506 2.43902C25.2817 2.43902 24.7128 2.6439 24.2591 3.05244L17.8273 8.91951L4.24701 21.9512V28.5244L25.8506 9.05854L47.4542 28.5244V21.9512L33.8739 8.91951L27.4421 3.05244C26.9884 2.6439 26.4195 2.43902 25.8506 2.43902Z" fill="black"/>
<path opacity="0.07" d="M25.8506 1.21951C25.2817 1.21951 24.7128 1.42317 24.2591 1.82927L17.8273 7.66342L4.24701 20.6207V27.1561L25.8506 7.80122L47.4542 27.1561V20.6207L33.8739 7.66342L27.4421 1.82927C26.9884 1.42317 26.4195 1.21951 25.8506 1.21951Z" fill="black"/>
<path d="M50.4487 21.35L27.4421 0.613415C26.9884 0.204878 26.4195 0 25.8506 0C25.2817 0 24.7128 0.204878 24.2591 0.613415L1.25252 21.35C0.748433 21.8061 0.713627 22.5939 1.1757 23.0939L3.13923 25.2219C3.5821 25.7024 4.32022 25.739 4.80751 25.3037L25.8506 6.61951L46.8937 25.3049C47.3798 25.739 48.1191 25.7037 48.562 25.2232L50.5255 23.0951C50.9876 22.5939 50.9527 21.8061 50.4487 21.35Z" fill="url(#paint2_linear_272_19)"/>
<path d="M31.8516 28.0488H39.0528C39.7153 28.0488 40.253 28.5951 40.253 29.2683V36.5854C40.253 37.2585 39.7153 37.8049 39.0528 37.8049H31.8516C31.1891 37.8049 30.6514 37.2585 30.6514 36.5854V29.2683C30.6514 28.5951 31.1891 28.0488 31.8516 28.0488Z" fill="url(#paint3_linear_272_19)"/>
<defs>
<linearGradient id="paint0_linear_272_19" x1="4.24701" y1="47.561" x2="47.4542" y2="47.561" gradientUnits="userSpaceOnUse">
<stop stop-color="#C8D3DE"/>
<stop offset="1" stop-color="#C8D3DE"/>
</linearGradient>
<linearGradient id="paint1_linear_272_19" x1="13.9626" y1="10.1683" x2="35.2417" y2="50.6826" gradientUnits="userSpaceOnUse">
<stop stop-color="#FCFCFC"/>
<stop offset="0.495" stop-color="#F4F4F4"/>
<stop offset="0.946" stop-color="#E8E8E8"/>
<stop offset="1" stop-color="#E8E8E8"/>
</linearGradient>
<linearGradient id="paint2_linear_272_19" x1="25.8506" y1="-0.385366" x2="25.8506" y2="26.4585" gradientUnits="userSpaceOnUse">
<stop stop-color="#D43A02"/>
<stop offset="1" stop-color="#B9360C"/>
</linearGradient>
<linearGradient id="paint3_linear_272_19" x1="30.7114" y1="28.1098" x2="39.9346" y2="37.1869" gradientUnits="userSpaceOnUse">
<stop stop-color="#33BEF0"/>
<stop offset="1" stop-color="#0A85D9"/>
</linearGradient>
</defs>
</svg>
