<svg width="50" height="50" viewBox="0 0 50 50" fill="none" xmlns="http://www.w3.org/2000/svg">
<path d="M25 0C18.3696 0 12.0107 2.63392 7.32233 7.32233C2.63392 12.0107 0 18.3696 0 25C0 31.6304 2.63392 37.9893 7.32233 42.6777C12.0107 47.3661 18.3696 50 25 50C31.6304 50 37.9893 47.3661 42.6777 42.6777C47.3661 37.9893 50 31.6304 50 25C50 18.3696 47.3661 12.0107 42.6777 7.32233C37.9893 2.63392 31.6304 0 25 0Z" fill="white"/>
<path d="M25 49.9963C24.7512 49.9963 24.185 50.0038 23.9375 49.9963L28.9375 36.2475H35.9688C37.2025 36.2475 38.5575 35.2988 38.98 34.14L44.915 18.2812C45.8212 15.7875 44.3938 13.7487 41.7413 13.7487H31.9863L23.8387 36.57H23.8363L19.1963 49.3175C8.1875 46.7012 0 36.8063 0 24.9988C0 13.5313 7.7225 3.8675 18.25 0.9225L13.4625 14.08H13.4613L5.1875 36.2475H10.4862L17.4563 17.4988H21.4375L14.4675 36.2475L19.3663 36.2488L26.1637 18.2812C27.0712 15.7875 25.6438 13.7487 22.9938 13.7487H18.9375L23.8762 0.0262499C24.2487 0.00999989 24.6238 0 25 0C38.8075 0 50 11.1913 50 24.9988C50 38.8063 38.8075 49.9963 25 49.9963ZM40.1875 17.4988H36.2063L30.57 32.4975H34.5513L40.1875 17.4988Z" fill="#1976D2"/>
</svg>
