<svg width="50.000000" height="50.000122" viewBox="0 0 50 50.0001" fill="none" xmlns="http://www.w3.org/2000/svg" xmlns:xlink="http://www.w3.org/1999/xlink">
	<desc>
			Created with Pixso.
	</desc>
	<defs/>
	<path id="path" d="M25 49.98C38.8 49.98 50 38.79 50 24.99C50 11.18 38.8 0 25 0C11.19 0 0 11.18 0 24.99C0 38.79 11.19 49.98 25 49.98ZM25 35.4C26.38 35.4 27.71 35.14 28.98 34.61C30.26 34.08 31.38 33.33 32.36 32.35C33.34 31.37 34.09 30.25 34.62 28.97C35.15 27.69 35.41 26.37 35.41 24.98C35.41 23.6 35.15 22.27 34.62 21C34.09 19.72 33.34 18.6 32.36 17.62C31.38 16.64 30.26 15.89 28.98 15.36C27.71 14.83 26.38 14.57 25 14.57C23.61 14.57 22.28 14.83 21.01 15.36C19.73 15.89 18.61 16.64 17.63 17.62C16.65 18.6 15.9 19.72 15.37 21C14.84 22.28 14.58 23.61 14.58 24.99C14.58 26.37 14.84 27.7 15.37 28.97C15.9 30.25 16.65 31.37 17.63 32.35C18.61 33.33 19.73 34.08 21.01 34.61C22.29 35.14 23.61 35.4 25 35.4Z" fill="#FF5733" fill-opacity="1.000000" fill-rule="evenodd"/>
	<path id="path" d="M35.41 25L49.99 25C49.99 18.08 47.18 11.81 42.63 7.28L32.32 17.59C34.38 19.62 35.41 22.11 35.41 25Z" fill="#C70039" fill-opacity="1.000000" fill-rule="evenodd"/>
	<path id="path" d="M49.99 24.99C49.99 31.9 47.19 38.15 42.66 42.67L32.34 32.37C34.39 30.33 35.42 27.87 35.41 24.99L49.99 24.99ZM35.41 24.99L49.99 24.99L35.41 24.99Z" fill="#900C3F" fill-opacity="1.000000" fill-rule="evenodd"/>
	<path id="path" d="M42.69 42.64C37.81 47.54 31.91 49.99 24.99 49.98L24.99 35.4C27.88 35.4 30.34 34.38 32.38 32.33L42.69 42.64Z" fill="#581845" fill-opacity="1.000000" fill-rule="evenodd"/>
</svg>
