<svg width="50.000000" height="50.000000" viewBox="0 0 50 50" fill="none" xmlns="http://www.w3.org/2000/svg" xmlns:xlink="http://www.w3.org/1999/xlink">
	<desc>
			Created with Pixso.
	</desc>
	<defs/>
	<path id="path" d="M25 0L0 0L0 50L25 50L25 0Z" fill="#1FB141" fill-opacity="1.000000" fill-rule="nonzero"/>
	<path id="path" d="M37.5 25C40.95 25 43.89 23.77 46.33 21.33C48.77 18.89 50 15.95 50 12.5C50 9.04 48.77 6.1 46.33 3.66C43.89 1.22 40.95 0 37.5 0C34.04 0 31.1 1.22 28.66 3.66C26.22 6.1 25 9.04 25 12.5C25 15.95 26.22 18.89 28.66 21.33C31.1 23.77 34.04 25 37.5 25ZM37.5 50C40.95 50 43.89 48.77 46.33 46.33C48.77 43.89 50 40.95 50 37.5C50 34.04 48.77 31.1 46.33 28.66C43.89 26.22 40.95 25 37.5 25C34.04 25 31.1 26.22 28.66 28.66C26.22 31.1 25 34.04 25 37.5C25 40.95 26.22 43.89 28.66 46.33C31.1 48.77 34.04 50 37.5 50Z" fill="#1FB141" fill-opacity="1.000000" fill-rule="nonzero"/>
</svg>
