<svg width="50.000000" height="50.000000" viewBox="0 0 50 50" fill="none" xmlns="http://www.w3.org/2000/svg" xmlns:xlink="http://www.w3.org/1999/xlink">
	<desc>
			Created with Pixso.
	</desc>
	<defs/>
	<path id="path" d="M7.73 8.92L12.74 13.92C13.52 14.71 14.7 13.53 13.92 12.74L8.91 7.74C8.52 7.35 8.13 7.35 7.73 7.74C7.34 8.13 7.34 8.53 7.73 8.92ZM19.07 3.32C18.56 3.38 18.32 3.66 18.33 4.17L18.33 10C18.33 10.55 18.6 10.83 19.16 10.83C19.72 10.83 20 10.55 20 10L20 4.17C20.01 3.53 19.7 3.25 19.07 3.32ZM4.16 20L9.99 20C11.1 20 11.1 18.33 9.99 18.33L4.12 18.33C2.96 18.39 3.05 20.06 4.16 20ZM36.07 37.26L41.07 42.26C41.86 43.04 43.04 41.86 42.25 41.07L37.25 36.08C36.86 35.68 36.46 35.68 36.07 36.08C35.68 36.47 35.68 36.86 36.07 37.26ZM30.73 39.16C30.23 39.22 29.98 39.5 29.99 40L29.99 45.83C29.96 46.42 30.23 46.72 30.83 46.72C31.42 46.72 31.7 46.42 31.66 45.83L31.66 40C31.67 39.37 31.36 39.08 30.73 39.16ZM40 30C39.44 30 39.16 30.28 39.16 30.83C39.16 31.39 39.44 31.67 40 31.67L45.82 31.67C46.38 31.67 46.66 31.39 46.66 30.83C46.66 30.28 46.38 30 45.82 30L40 30Z" fill="#33658A" fill-opacity="1.000000" fill-rule="nonzero"/>
	<path id="path" d="M39.14 0C36.37 0 33.59 1.07 31.47 3.19L19.84 14.8C18.96 15.68 18.27 16.7 17.76 17.76C19.25 17.04 20.82 16.67 22.48 16.67C23.33 16.67 24.19 16.78 25.03 16.98L35.15 6.87C36.25 5.76 37.58 5.2 39.14 5.2C40.7 5.2 42.04 5.76 43.14 6.87C45.36 9.09 45.36 12.63 43.14 14.85L31.51 26.47C30.41 27.58 29.08 28.14 27.52 28.14C25.96 28.14 24.63 27.58 23.53 26.47C22.27 25.21 21.73 23.53 21.9 21.9C20.66 22.02 19.45 22.57 18.49 23.53L16.98 25.03C17.98 29.14 20.52 31.77 24.59 32.92C28.66 34.06 32.2 33.14 35.19 30.15L46.82 18.53C48.94 16.41 50 13.86 50 10.86C50 7.87 48.94 5.31 46.82 3.19C44.7 1.06 42.14 0 39.14 0Z" fill="#33B9EF" fill-opacity="1.000000" fill-rule="nonzero"/>
	<path id="path" d="M10.85 49.99C13.63 49.99 16.41 48.92 18.53 46.8L30.15 35.2C31.04 34.31 31.73 33.29 32.24 32.23C30.75 32.96 29.17 33.32 27.52 33.32C26.66 33.32 25.81 33.21 24.97 33.01L14.85 43.13C13.75 44.23 12.42 44.79 10.85 44.79C9.29 44.79 7.96 44.23 6.86 43.13C5.75 42.03 5.19 40.7 5.19 39.13C5.19 37.57 5.75 36.24 6.86 35.14L18.48 23.53C19.58 22.42 20.91 21.86 22.48 21.86C24.04 21.86 25.37 22.42 26.47 23.53C27.73 24.79 28.26 26.47 28.09 28.1C29.33 27.97 30.55 27.43 31.51 26.47L33.01 24.97C32.02 20.85 29.48 18.22 25.41 17.08C21.33 15.93 17.8 16.86 14.81 19.85L3.18 31.46C1.06 33.58 0 36.14 0 39.14C0 42.13 1.06 44.69 3.18 46.81C5.29 48.93 7.86 49.99 10.85 49.99Z" fill="#33658A" fill-opacity="1.000000" fill-rule="nonzero"/>
</svg>
