<svg width="50" height="50" viewBox="0 0 50 50" fill="none" xmlns="http://www.w3.org/2000/svg">
<path d="M47.5 3.30556H15C13.7919 3.30556 12.8125 4.26317 12.8125 5.44445V14.3056H49.6875V5.44445C49.6875 4.26317 48.7081 3.30556 47.5 3.30556Z" fill="#DBF2FF"/>
<path d="M12.8125 35.714V44.5556C12.8125 45.7368 13.7919 46.6944 15 46.6944H47.5C48.7081 46.6944 49.6875 45.7368 49.6875 44.5556V35.714H12.8125Z" fill="#7496C4"/>
<path d="M12.8125 14.3056H49.6875V25H12.8125V14.3056Z" fill="#B5DDF5"/>
<path d="M12.8125 25H49.6875V35.7152H12.8125V25Z" fill="#8BB7F0"/>
<path d="M22.5 36.9167H2.5C1.29188 36.9167 0.3125 35.9591 0.3125 34.7778V15.2222C0.3125 14.0409 1.29188 13.0833 2.5 13.0833H22.5C23.7081 13.0833 24.6875 14.0409 24.6875 15.2222V34.7778C24.6875 35.9591 23.7081 36.9167 22.5 36.9167Z" fill="#8BB7F0"/>
<path d="M22.5 37.2222H2.5C1.12125 37.2222 0 36.1259 0 34.7778V15.2222C0 13.8741 1.12125 12.7778 2.5 12.7778H22.5C23.8788 12.7778 25 13.8741 25 15.2222V34.7778C25 36.1259 23.8788 37.2222 22.5 37.2222ZM2.5 13.3889C1.46625 13.3889 0.625 14.2114 0.625 15.2222V34.7778C0.625 35.7886 1.46625 36.6111 2.5 36.6111H22.5C23.5338 36.6111 24.375 35.7886 24.375 34.7778V15.2222C24.375 14.2114 23.5338 13.3889 22.5 13.3889H2.5Z" fill="#4E7AB5"/>
<path d="M21.1381 18.3542H20.3494H17.935H17.4288L17.3231 18.8382L15.995 24.9407L14.52 18.8253L14.4063 18.3548H13.9113H11.2125H10.7175L10.6038 18.8253L9.0625 25.2127L7.67563 18.8388L7.57063 18.3548H7.06438H4.65063H3.86188L4.04188 19.1052L6.935 31.1747L7.04813 31.6464H7.54375H10.4469H10.9481L11.0569 31.1679L12.5613 24.5643L14.0669 31.1679L14.1756 31.6458H14.6769H17.4556H17.9513L18.0644 31.1741L20.9575 19.1046L21.1381 18.3542Z" fill="#4E7AB5"/>
<path d="M17.935 18.9653L16.0269 27.7323L13.9125 18.9653H11.2125L9.03124 28.0042L7.06499 18.9653H4.65062L7.54374 31.0347H10.4469L12.5612 21.7544L14.6769 31.0347H17.4556L20.3487 18.9653H17.935Z" fill="white"/>
<path d="M47.5 47H15C13.6212 47 12.5 45.9037 12.5 44.5556V36.9167H13.125V44.5556C13.125 45.5663 13.9662 46.3889 15 46.3889H47.5C48.5338 46.3889 49.375 45.5663 49.375 44.5556V5.44444C49.375 4.43367 48.5338 3.61111 47.5 3.61111H15C13.9662 3.61111 13.125 4.43367 13.125 5.44444V13.0833H12.5V5.44444C12.5 4.09633 13.6212 3 15 3H47.5C48.8788 3 50 4.09633 50 5.44444V44.5556C50 45.9037 48.8788 47 47.5 47Z" fill="#4E7AB5"/>
<path d="M49.6875 24.6944H24.6875V25.3056H49.6875V24.6944Z" fill="#4E7AB5"/>
<path d="M49.6875 35.3889H24.6875V36H49.6875V35.3889Z" fill="#4E7AB5"/>
<path d="M49.6875 14H24.6875V14.6111H49.6875V14Z" fill="#4E7AB5"/>
</svg>
