<svg width="50.000000" height="50.000000" viewBox="0 0 50 50" fill="none" xmlns="http://www.w3.org/2000/svg" xmlns:xlink="http://www.w3.org/1999/xlink">
	<desc>
			Created with Pixso.
	</desc>
	<defs/>
	<path id="path" d="M26.19 36.22L12.25 49.96C11.99 49.46 12.29 48.82 12.25 48.23L17.15 34.55C23.29 34.55 25.2 33.41 26.19 36.22Z" fill="#46A350" fill-opacity="1.000000" fill-rule="evenodd"/>
	<path id="path" d="M49.65 12.55C50.81 10.57 48.86 8.23 46.64 8.93L1.76 23.18C-0.4 23.87 -0.64 26.77 1.38 27.79L29.66 42.12C29.96 42.27 30.27 42.36 30.6 42.39C30.93 42.42 31.25 42.39 31.56 42.3C31.88 42.2 32.17 42.06 32.43 41.86C32.69 41.66 32.9 41.42 33.06 41.13L49.65 12.55Z" fill="#099718" fill-opacity="1.000000" fill-rule="nonzero"/>
	<path id="path" d="M29.66 25.12C30.46 24 29.22 22.44 27.88 23.03L11.32 30.46C10.87 30.66 10.5 30.97 10.23 31.38C9.96 31.8 9.83 32.25 9.83 32.74L11.55 49.54C11.6 50.08 12.36 50.16 12.54 49.66L16.94 37.12C17.25 36.24 17.77 35.5 18.5 34.9C21.32 32.58 28.67 26.49 29.66 25.12Z" fill="#005513" fill-opacity="1.000000" fill-rule="nonzero"/>
	<path id="path" d="M9.74 14.52C9.74 22.54 16.37 29.04 24.56 29.04C32.75 29.04 39.38 22.54 39.38 14.52C39.38 6.5 32.75 0 24.56 0C16.37 0 9.74 6.5 9.74 14.52Z" fill="#FFBA33" fill-opacity="1.000000" fill-rule="nonzero"/>
	<path id="path" d="M25.58 7.51C25.58 7.23 25.48 6.99 25.28 6.8C25.08 6.6 24.84 6.5 24.56 6.5C24.28 6.5 24.04 6.6 23.84 6.8C23.64 6.99 23.54 7.23 23.54 7.51L23.54 8.51L21.56 8.51C20.4 8.51 19.46 8.95 18.82 9.67C18.2 10.37 17.92 11.27 17.92 12.14C17.92 13 18.2 13.9 18.82 14.6C19.46 15.32 20.4 15.77 21.56 15.77L23.54 15.77L23.54 19.02L19.69 19.02C19.41 19.02 19.17 19.12 18.97 19.32C18.77 19.51 18.67 19.75 18.67 20.02C18.67 20.3 18.77 20.54 18.97 20.73C19.17 20.93 19.41 21.03 19.69 21.03L23.54 21.03L23.54 22.03C23.54 22.3 23.64 22.54 23.84 22.74C24.04 22.93 24.28 23.03 24.56 23.03C24.84 23.03 25.08 22.93 25.28 22.74C25.48 22.54 25.58 22.3 25.58 22.03L25.58 21.03L27.56 21.03C28.72 21.03 29.66 20.58 30.3 19.86C30.92 19.16 31.2 18.26 31.2 17.4C31.2 16.53 30.92 15.63 30.3 14.93C29.66 14.21 28.72 13.77 27.56 13.77L25.58 13.77L25.58 10.51L29.06 10.51C29.34 10.51 29.58 10.41 29.78 10.22C29.98 10.02 30.08 9.79 30.08 9.51C30.08 9.23 29.98 9 29.78 8.8C29.58 8.61 29.34 8.51 29.06 8.51L25.58 8.51L25.58 7.51ZM23.54 10.51L21.56 10.51C20.97 10.51 20.6 10.72 20.36 10.99C20.11 11.27 19.96 11.69 19.96 12.14C19.96 12.59 20.11 13 20.36 13.29C20.6 13.56 20.97 13.77 21.55 13.77L23.54 13.77L23.54 10.51ZM25.58 15.77L25.58 19.02L27.56 19.02C28.15 19.02 28.52 18.81 28.75 18.55C29.01 18.26 29.16 17.85 29.16 17.4C29.16 16.95 29.01 16.53 28.76 16.24C28.52 15.98 28.15 15.77 27.56 15.77L25.58 15.77Z" fill="#FFFFFF" fill-opacity="1.000000" fill-rule="evenodd"/>
</svg>
