<svg width="50" height="50" viewBox="0 0 50 50" fill="none" xmlns="http://www.w3.org/2000/svg">
<g clip-path="url(#clip0_199_69)">
<path d="M32.3449 45.4451C27.4872 45.4451 23.5352 41.4931 23.5352 36.6354V13.5363C23.5352 10.1994 20.8204 7.48457 17.4834 7.48457C14.1464 7.48457 11.4316 10.1993 11.4316 13.5363V34.1972C11.4316 35.0062 10.7758 35.662 9.9668 35.662C9.15781 35.662 8.50195 35.0062 8.50195 34.1972V13.5363C8.50195 8.58398 12.531 4.55488 17.4834 4.55488C22.4358 4.55488 26.4648 8.58389 26.4648 13.5363V36.6354C26.4648 39.8777 29.1026 42.5154 32.3448 42.5154C35.5871 42.5154 38.2249 39.8776 38.2249 36.6354V19.1556C38.2249 18.3466 38.8808 17.6907 39.6897 17.6907C40.4987 17.6907 41.1546 18.3466 41.1546 19.1556V36.6354C41.1546 41.4931 37.2026 45.4451 32.3449 45.4451Z" fill="#705C99"/>
<path d="M39.6895 0.891602L44.3989 9.43262L39.6895 19.7295C34.4961 19.7295 30.2705 15.5039 30.2705 10.3105C30.2705 5.11621 34.4961 0.891602 39.6895 0.891602Z" fill="#E62E6B"/>
<path d="M49.1084 10.3105C49.1084 15.5039 44.8838 19.7295 39.6895 19.7295V0.891602C44.8838 0.891602 49.1084 5.11621 49.1084 10.3105Z" fill="#991F48"/>
<path d="M39.6895 8.23828L41.1546 11.4348L39.6895 12.3818L38.3877 13.6836C38.1025 13.9697 37.7275 14.1123 37.3525 14.1123C36.9775 14.1123 36.6025 13.9697 36.3164 13.6836C35.7441 13.1113 35.7441 12.1836 36.3164 11.6123L37.6182 10.3105L36.3164 9.00879C35.7441 8.43652 35.7441 7.50879 36.3164 6.9375C36.8887 6.36523 37.8164 6.36523 38.3877 6.9375L39.6895 8.23828Z" fill="#E6EEF2"/>
<path d="M39.6895 2.92969L40.6505 1.46484L39.6895 0C34.0049 0 29.3799 4.625 29.3799 10.3105C29.3799 15.9951 34.0049 20.6201 39.6895 20.6201L41.1035 18.6838L39.6895 17.6904C35.6201 17.6904 32.3096 14.3799 32.3096 10.3105C32.3096 6.24023 35.6201 2.92969 39.6895 2.92969Z" fill="#FF6699"/>
<path d="M43.0625 11.6123C43.6348 12.1836 43.6348 13.1113 43.0625 13.6836C42.7773 13.9697 42.4023 14.1123 42.0273 14.1123C41.6523 14.1123 41.2773 13.9697 40.9912 13.6836L39.6895 12.3818V8.23828L40.9912 6.9375C41.5635 6.36523 42.4912 6.36523 43.0625 6.9375C43.6348 7.50879 43.6348 8.43652 43.0625 9.00879L41.7617 10.3105L43.0625 11.6123Z" fill="#B9CED9"/>
<path d="M50 10.3105C50 15.9951 45.375 20.6201 39.6895 20.6201V17.6904C43.7598 17.6904 47.0703 14.3799 47.0703 10.3105C47.0703 6.24023 43.7598 2.92969 39.6895 2.92969V0C45.375 0 50 4.625 50 10.3105Z" fill="#E62E6B"/>
<path d="M9.9668 23.5352L13.4903 30.6123L9.9668 36.2166L0 34.1973V31.1465C0 26.9502 3.41504 23.5352 7.61133 23.5352H9.9668Z" fill="#E6EEF2"/>
<path d="M19.9336 31.1465V34.1973L9.9668 36.2166V23.5352H12.3223C16.5186 23.5352 19.9336 26.9502 19.9336 31.1465Z" fill="#B9CED9"/>
<path d="M9.9668 34.1973L13.4903 41.4674L9.9668 50H7.61133C3.41504 50 0 46.585 0 42.3887V34.1973H9.9668Z" fill="#B9CED9"/>
<path d="M19.9336 34.1973V42.3887C19.9336 46.585 16.5186 50 12.3223 50H9.9668V34.1973H19.9336Z" fill="#8FAFBF"/>
</g>
<defs>
<clipPath id="clip0_199_69">
<rect width="50" height="50" fill="white"/>
</clipPath>
</defs>
</svg>
