<svg width="50.000000" height="50.000000" viewBox="0 0 50 50" fill="none" xmlns="http://www.w3.org/2000/svg" xmlns:xlink="http://www.w3.org/1999/xlink">
	<desc>
			Created with Pixso.
	</desc>
	<defs/>
	<g opacity="0.000000">
		<rect id="Прямоугольник 29" width="50.000000" height="50.000000" fill="#C4C4C4" fill-opacity="1.000000"/>
	</g>
	<path id="path" d="M49.98 15.04C49.99 16.46 49.99 17.88 49.99 19.3C50 26.55 50 33.79 49.99 41.03C49.99 43.14 48.07 44.99 45.87 44.99C31.96 45 18.05 45 4.14 44.99C1.96 44.99 0.01 43.15 0.01 41.09C0.01 32.44 0.01 23.79 0.07 15.1C4.54 15.05 8.95 15.05 13.42 15.05C15.08 15.04 16.69 15.04 18.35 15.04C20.05 15.04 21.69 15.04 23.38 15.04C25.04 15.04 26.65 15.04 28.32 15.05C30.01 15.05 31.66 15.04 33.35 15.04C35.03 15.03 36.66 15.03 38.35 15.03C40.05 15.04 41.7 15.04 43.39 15.04C45.62 15.04 47.8 15.04 49.98 15.04ZM20.92 25.5C21.89 25.59 22.85 25.68 23.76 25.76C23.93 25.16 24.02 24.62 24.23 24.13C24.66 23.1 25.77 22.59 27.08 22.75C28.26 22.9 29 23.57 29.21 24.67C29.44 25.89 29.02 26.95 28.24 27.88C27.74 28.47 27.18 29 26.62 29.53C25.29 30.79 23.93 32.01 22.63 33.29C21.29 34.6 20.22 36.09 19.74 37.91C19.64 38.32 19.58 38.74 19.49 39.18C24.11 39.18 28.62 39.18 33.15 39.18C33.15 38.02 33.15 36.9 33.15 35.71C30.6 35.71 28.09 35.71 25.4 35.71C25.85 35.19 26.16 34.76 26.54 34.41C27.68 33.33 28.87 32.3 30.01 31.23C31.26 30.06 32.3 28.75 32.86 27.13C33.9 24.07 32.55 21.1 29.57 20.09C27.43 19.36 25.26 19.43 23.19 20.36C21.24 21.24 19.83 23.52 20.05 25.4C20.3 25.43 20.56 25.46 20.92 25.5ZM6.95 38.09C8.58 39.39 10.49 39.68 12.53 39.47C15.74 39.15 18.27 36.48 18.31 33.4C18.34 31.24 17.07 29.54 14.93 28.86C14.82 28.82 14.71 28.78 14.54 28.72C14.88 28.49 15.16 28.32 15.43 28.13C17.75 26.46 18.03 23.71 16.15 21.59C13.8 18.93 8.98 19.16 6.8 21.2C5.78 22.16 5.33 23.37 5.05 24.73C5.7 24.83 6.27 24.92 6.84 25.01C7.43 25.11 8.01 25.2 8.55 25.29C8.77 24.75 8.9 24.25 9.16 23.82C9.69 22.97 10.53 22.63 11.56 22.73C12.38 22.82 12.98 23.22 13.28 23.95C13.89 25.39 13.04 26.92 11.45 27.26C11.05 27.34 10.64 27.37 10.2 27.43C10.06 28.41 9.93 29.38 9.79 30.4C10.15 30.32 10.43 30.26 10.7 30.22C12.55 29.9 13.96 30.79 14.22 32.47C14.3 32.96 14.3 33.48 14.22 33.97C14.01 35.34 12.99 36.31 11.69 36.44C10.45 36.56 9.33 35.89 8.84 34.73C8.68 34.38 8.65 33.83 8.39 33.7C8.06 33.54 7.55 33.71 7.12 33.76C6.34 33.85 5.57 33.95 4.76 34.05C4.96 35.68 5.65 37 6.95 38.09ZM36.23 26.56C36.23 27 36.23 27.44 36.23 27.94C38.17 27.36 39.75 26.43 41.29 25.16C41.29 29.92 41.29 34.53 41.29 39.22C42.39 39.22 43.42 39.22 44.45 39.22C45.22 39.22 45.22 39.22 45.22 38.48C45.22 32.43 45.22 26.39 45.22 20.34C45.22 20.23 45.26 20.09 45.21 20.02C45.11 19.87 44.96 19.64 44.83 19.64C44 19.6 43.17 19.61 42.34 19.63C42.2 19.64 41.99 19.78 41.93 19.91C41.1 21.77 39.53 22.91 37.78 23.9C37.28 24.19 36.55 24.34 36.3 24.76C36.04 25.2 36.24 25.88 36.23 26.56Z" fill="#333333" fill-opacity="1.000000" fill-rule="nonzero"/>
	<path id="path" d="M49.99 19.3C50 26.55 50 33.79 49.99 41.03C49.99 43.14 48.07 44.99 45.87 44.99C31.96 45 18.05 45 4.14 44.99C1.96 44.99 0.01 43.15 0.01 41.09C0.01 32.44 0.01 23.79 0.07 15.1C4.54 15.05 8.95 15.05 13.42 15.05C15.08 15.04 16.69 15.04 18.35 15.04C20.05 15.04 21.69 15.04 23.38 15.04C25.04 15.04 26.65 15.04 28.32 15.05C30.01 15.05 31.66 15.04 33.35 15.04C35.03 15.03 36.66 15.03 38.35 15.03C40.05 15.04 41.7 15.04 43.39 15.04C45.62 15.04 47.8 15.04 49.98 15.04C49.99 16.46 49.99 17.88 49.99 19.3ZM23.76 25.76C23.93 25.16 24.02 24.62 24.23 24.13C24.66 23.1 25.77 22.59 27.08 22.75C28.26 22.9 29 23.57 29.21 24.67C29.44 25.89 29.02 26.95 28.24 27.88C27.74 28.47 27.18 29 26.62 29.53C25.29 30.79 23.93 32.01 22.63 33.29C21.29 34.6 20.22 36.09 19.74 37.91C19.64 38.32 19.58 38.74 19.49 39.18C24.11 39.18 28.62 39.18 33.15 39.18C33.15 38.02 33.15 36.9 33.15 35.71C30.6 35.71 28.09 35.71 25.4 35.71C25.85 35.19 26.16 34.76 26.54 34.41C27.68 33.33 28.87 32.3 30.01 31.23C31.26 30.06 32.3 28.75 32.86 27.13C33.9 24.07 32.55 21.1 29.57 20.09C27.43 19.36 25.26 19.43 23.19 20.36C21.24 21.24 19.83 23.52 20.05 25.4C20.3 25.43 20.56 25.46 20.92 25.5C21.89 25.59 22.85 25.68 23.76 25.76ZM12.53 39.47C15.74 39.15 18.27 36.48 18.31 33.4C18.34 31.24 17.07 29.54 14.93 28.86C14.82 28.82 14.71 28.78 14.54 28.72C14.88 28.49 15.16 28.32 15.43 28.13C17.75 26.46 18.03 23.71 16.15 21.59C13.8 18.93 8.98 19.16 6.8 21.2C5.78 22.16 5.33 23.37 5.05 24.73C5.7 24.83 6.27 24.92 6.84 25.01C7.43 25.11 8.01 25.2 8.55 25.29C8.77 24.75 8.9 24.25 9.16 23.82C9.69 22.97 10.53 22.63 11.56 22.73C12.38 22.82 12.98 23.22 13.28 23.95C13.89 25.39 13.04 26.92 11.45 27.26C11.05 27.34 10.64 27.37 10.2 27.43C10.06 28.41 9.93 29.38 9.79 30.4C10.15 30.32 10.43 30.26 10.7 30.22C12.55 29.9 13.96 30.79 14.22 32.47C14.3 32.96 14.3 33.48 14.22 33.97C14.01 35.34 12.99 36.31 11.69 36.44C10.45 36.56 9.33 35.89 8.84 34.73C8.68 34.38 8.65 33.83 8.39 33.7C8.06 33.54 7.55 33.71 7.12 33.76C6.34 33.85 5.57 33.95 4.76 34.05C4.96 35.68 5.65 37 6.95 38.09C8.58 39.39 10.49 39.68 12.53 39.47ZM36.23 27.94C38.17 27.36 39.75 26.43 41.29 25.16C41.29 29.92 41.29 34.53 41.29 39.22C42.39 39.22 43.42 39.22 44.45 39.22C45.22 39.22 45.22 39.22 45.22 38.48C45.22 32.43 45.22 26.39 45.22 20.34C45.22 20.23 45.26 20.09 45.21 20.02C45.11 19.87 44.96 19.64 44.83 19.64C44 19.6 43.17 19.61 42.34 19.63C42.2 19.64 41.99 19.78 41.93 19.91C41.1 21.77 39.53 22.91 37.78 23.9C37.28 24.19 36.55 24.34 36.3 24.76C36.04 25.2 36.24 25.88 36.23 26.56C36.23 27 36.23 27.44 36.23 27.94Z" stroke="#000000" stroke-opacity="0" stroke-width="1.000000"/>
	<path id="path" d="M13.37 15.05C8.95 15.05 4.54 15.05 0.08 15.05C0.02 12.89 -0.05 10.73 0.03 8.57C0.08 7.32 0.87 6.35 1.95 5.65C2.69 5.17 3.5 4.99 4.39 5C7.23 5.01 10.07 5 12.96 5.04C14.78 6.78 16.55 8.48 18.32 10.19C16.76 11.69 15.24 13.14 13.74 14.59C13.59 14.73 13.49 14.89 13.37 15.05ZM3.03 10.49C3.32 11.89 4.52 12.71 5.95 12.48C7.24 12.27 8.16 11.07 7.97 9.84C7.78 8.53 6.58 7.6 5.28 7.74C3.83 7.91 2.89 9.01 3.03 10.49Z" fill="#4E4E4E" fill-opacity="1.000000" fill-rule="nonzero"/>
	<path id="path" d="M0.08 15.05C0.02 12.89 -0.05 10.73 0.03 8.57C0.08 7.32 0.87 6.35 1.95 5.65C2.69 5.17 3.5 4.99 4.39 5C7.23 5.01 10.07 5 12.96 5.04C14.78 6.78 16.55 8.48 18.32 10.19C16.76 11.69 15.24 13.14 13.74 14.59C13.59 14.73 13.49 14.89 13.37 15.05C8.95 15.05 4.54 15.05 0.08 15.05ZM5.95 12.48C7.24 12.27 8.16 11.07 7.97 9.84C7.78 8.53 6.58 7.6 5.28 7.74C3.83 7.91 2.89 9.01 3.03 10.49C3.32 11.89 4.52 12.71 5.95 12.48Z" stroke="#000000" stroke-opacity="0" stroke-width="1.000000"/>
	<path id="path" d="M43.34 15.05C41.7 15.04 40.05 15.04 38.37 15C39.99 13.37 41.64 11.79 43.32 10.18C42.64 9.54 42.03 8.96 41.42 8.37C40.27 7.26 39.12 6.15 37.97 5.03C39.61 5.02 41.25 5.01 42.94 5.04C44.76 6.78 46.53 8.48 48.31 10.2C46.76 11.68 45.26 13.11 43.76 14.55C43.6 14.7 43.48 14.88 43.34 15.05Z" fill="#505050" fill-opacity="1.000000" fill-rule="nonzero"/>
	<path id="path" d="M38.37 15C39.99 13.37 41.64 11.79 43.32 10.18C42.64 9.54 42.03 8.96 41.42 8.37C40.27 7.26 39.12 6.15 37.97 5.03C39.61 5.02 41.25 5.01 42.94 5.04C44.76 6.78 46.53 8.48 48.31 10.2C46.76 11.68 45.26 13.11 43.76 14.55C43.6 14.7 43.48 14.88 43.34 15.05C41.7 15.04 40.05 15.04 38.37 15Z" stroke="#000000" stroke-opacity="0" stroke-width="1.000000"/>
	<path id="path" d="M37.92 5.02C39.12 6.15 40.27 7.26 41.42 8.37C42.03 8.96 42.64 9.54 43.32 10.18C41.64 11.79 39.99 13.37 38.31 14.99C36.67 15.03 35.03 15.03 33.37 15.01C34.99 13.39 36.64 11.79 38.37 10.12C38.15 9.95 37.95 9.83 37.79 9.68C36.17 8.13 34.56 6.57 32.94 5.02C34.58 5.02 36.23 5.01 37.92 5.02Z" fill="#E5E5E5" fill-opacity="1.000000" fill-rule="nonzero"/>
	<path id="path" d="M41.42 8.37C42.03 8.96 42.64 9.54 43.32 10.18C41.64 11.79 39.99 13.37 38.31 14.99C36.67 15.03 35.03 15.03 33.37 15.01C34.99 13.39 36.64 11.79 38.37 10.12C38.15 9.95 37.95 9.83 37.79 9.68C36.17 8.13 34.56 6.57 32.94 5.02C34.58 5.02 36.23 5.01 37.92 5.02C39.12 6.15 40.27 7.26 41.42 8.37Z" stroke="#000000" stroke-opacity="0" stroke-width="1.000000"/>
	<path id="path" d="M13.42 15.05C13.49 14.89 13.59 14.73 13.74 14.59C15.24 13.14 16.76 11.69 18.32 10.19C16.55 8.48 14.78 6.78 13.01 5.04C14.63 5.01 16.25 5.01 17.93 5.05C19.77 6.77 21.55 8.45 23.44 10.25C21.69 11.88 19.99 13.46 18.29 15.04C16.69 15.04 15.08 15.04 13.42 15.05Z" fill="#E5E5E5" fill-opacity="1.000000" fill-rule="nonzero"/>
	<path id="path" d="M13.74 14.59C15.24 13.14 16.76 11.69 18.32 10.19C16.55 8.48 14.78 6.78 13.01 5.04C14.63 5.01 16.25 5.01 17.93 5.05C19.77 6.77 21.55 8.45 23.44 10.25C21.69 11.88 19.99 13.46 18.29 15.04C16.69 15.04 15.08 15.04 13.42 15.05C13.49 14.89 13.59 14.73 13.74 14.59Z" stroke="#000000" stroke-opacity="0" stroke-width="1.000000"/>
	<path id="path" d="M18.35 15.04C19.99 13.46 21.69 11.88 23.44 10.25C21.55 8.45 19.77 6.77 17.98 5.05C19.6 5.01 21.24 5.01 22.93 5.04C24.77 6.78 26.54 8.48 28.33 10.2C27.09 11.38 25.9 12.51 24.72 13.64C24.25 14.1 23.79 14.57 23.33 15.04C21.69 15.04 20.05 15.04 18.35 15.04Z" fill="#4E4E4E" fill-opacity="1.000000" fill-rule="nonzero"/>
	<path id="path" d="M23.44 10.25C21.55 8.45 19.77 6.77 17.98 5.05C19.6 5.01 21.24 5.01 22.93 5.04C24.77 6.78 26.54 8.48 28.33 10.2C27.09 11.38 25.9 12.51 24.72 13.64C24.25 14.1 23.79 14.57 23.33 15.04C21.69 15.04 20.05 15.04 18.35 15.04C19.99 13.46 21.69 11.88 23.44 10.25Z" stroke="#000000" stroke-opacity="0" stroke-width="1.000000"/>
	<path id="path" d="M23.38 15.04C23.79 14.57 24.25 14.1 24.72 13.64C25.9 12.5 27.09 11.38 28.33 10.2C26.54 8.48 24.77 6.78 22.99 5.05C24.59 5.01 26.21 5.01 27.9 5.04C29.75 6.77 31.52 8.47 33.37 10.23C31.63 11.87 29.95 13.46 28.26 15.04C26.65 15.04 25.04 15.04 23.38 15.04Z" fill="#E5E5E5" fill-opacity="1.000000" fill-rule="nonzero"/>
	<path id="path" d="M24.72 13.64C25.9 12.5 27.09 11.38 28.33 10.2C26.54 8.48 24.77 6.78 22.99 5.05C24.59 5.01 26.21 5.01 27.9 5.04C29.75 6.77 31.52 8.47 33.37 10.23C31.63 11.87 29.95 13.46 28.26 15.04C26.65 15.04 25.04 15.04 23.38 15.04C23.79 14.57 24.25 14.1 24.72 13.64Z" stroke="#000000" stroke-opacity="0" stroke-width="1.000000"/>
	<path id="path" d="M28.32 15.05C29.95 13.46 31.63 11.87 33.37 10.23C31.52 8.47 29.75 6.77 27.95 5.04C29.56 5.01 31.2 5.01 32.89 5.01C34.56 6.57 36.17 8.13 37.79 9.68C37.95 9.83 38.15 9.95 38.37 10.12C36.64 11.79 34.99 13.39 33.32 15.01C31.66 15.04 30.01 15.05 28.32 15.05Z" fill="#4E4E4E" fill-opacity="1.000000" fill-rule="nonzero"/>
	<path id="path" d="M33.37 10.23C31.52 8.47 29.75 6.77 27.95 5.04C29.56 5.01 31.2 5.01 32.89 5.01C34.56 6.57 36.17 8.13 37.79 9.68C37.95 9.83 38.15 9.95 38.37 10.12C36.64 11.79 34.99 13.39 33.32 15.01C31.66 15.04 30.01 15.05 28.32 15.05C29.95 13.46 31.63 11.87 33.37 10.23Z" stroke="#000000" stroke-opacity="0" stroke-width="1.000000"/>
	<path id="path" d="M43.39 15.04C43.48 14.88 43.6 14.7 43.76 14.55C45.26 13.11 46.76 11.68 48.31 10.2C46.53 8.48 44.76 6.78 42.99 5.04C45.3 5.01 47.62 5.01 49.99 5.01C49.99 8.33 49.99 11.63 49.99 14.99C47.8 15.04 45.62 15.04 43.39 15.04Z" fill="#E5E5E5" fill-opacity="1.000000" fill-rule="nonzero"/>
	<path id="path" d="M43.76 14.55C45.26 13.11 46.76 11.68 48.31 10.2C46.53 8.48 44.76 6.78 42.99 5.04C45.3 5.01 47.62 5.01 49.99 5.01C49.99 8.33 49.99 11.63 49.99 14.99C47.8 15.04 45.62 15.04 43.39 15.04C43.48 14.88 43.6 14.7 43.76 14.55Z" stroke="#000000" stroke-opacity="0" stroke-width="1.000000"/>
	<path id="path" d="M20.87 25.5C20.56 25.46 20.3 25.43 20.05 25.4C19.83 23.52 21.24 21.24 23.19 20.36C25.26 19.43 27.43 19.36 29.57 20.09C32.55 21.1 33.9 24.07 32.86 27.13C32.3 28.75 31.26 30.06 30.01 31.23C28.87 32.3 27.68 33.33 26.54 34.41C26.16 34.76 25.85 35.19 25.4 35.71C28.09 35.71 30.6 35.71 33.15 35.71C33.15 36.9 33.15 38.02 33.15 39.18C28.62 39.18 24.11 39.18 19.49 39.18C19.58 38.74 19.64 38.32 19.74 37.91C20.22 36.09 21.29 34.6 22.63 33.29C23.93 32.01 25.29 30.79 26.62 29.53C27.18 29 27.74 28.47 28.24 27.88C29.02 26.95 29.44 25.89 29.21 24.67C29 23.57 28.26 22.9 27.08 22.75C25.77 22.59 24.66 23.1 24.23 24.13C24.02 24.62 23.93 25.16 23.76 25.76C22.85 25.68 21.89 25.59 20.87 25.5Z" fill="#5A94F1" fill-opacity="1.000000" fill-rule="nonzero"/>
	<path id="path" d="M20.05 25.4C19.83 23.52 21.24 21.24 23.19 20.36C25.26 19.43 27.43 19.36 29.57 20.09C32.55 21.1 33.9 24.07 32.86 27.13C32.3 28.75 31.26 30.06 30.01 31.23C28.87 32.3 27.68 33.33 26.54 34.41C26.16 34.76 25.85 35.19 25.4 35.71C28.09 35.71 30.6 35.71 33.15 35.71C33.15 36.9 33.15 38.02 33.15 39.18C28.62 39.18 24.11 39.18 19.49 39.18C19.58 38.74 19.64 38.32 19.74 37.91C20.22 36.09 21.29 34.6 22.63 33.29C23.93 32.01 25.29 30.79 26.62 29.53C27.18 29 27.74 28.47 28.24 27.88C29.02 26.95 29.44 25.89 29.21 24.67C29 23.57 28.26 22.9 27.08 22.75C25.77 22.59 24.66 23.1 24.23 24.13C24.02 24.62 23.93 25.16 23.76 25.76C22.85 25.68 21.89 25.59 20.87 25.5C20.56 25.46 20.3 25.43 20.05 25.4Z" stroke="#000000" stroke-opacity="0" stroke-width="1.000000"/>
	<path id="path" d="M6.92 38.06C5.65 37 4.96 35.68 4.76 34.05C5.57 33.95 6.34 33.85 7.12 33.76C7.55 33.71 8.06 33.54 8.39 33.7C8.65 33.83 8.68 34.38 8.84 34.73C9.33 35.89 10.45 36.56 11.69 36.44C12.99 36.31 14.01 35.34 14.22 33.97C14.3 33.48 14.3 32.96 14.22 32.47C13.96 30.79 12.55 29.9 10.7 30.22C10.43 30.26 10.15 30.32 9.79 30.4C9.93 29.38 10.06 28.41 10.2 27.43C10.64 27.37 11.05 27.34 11.45 27.26C13.04 26.92 13.89 25.39 13.28 23.95C12.98 23.22 12.38 22.82 11.56 22.73C10.53 22.63 9.69 22.97 9.16 23.82C8.9 24.25 8.77 24.75 8.55 25.29C8.01 25.2 7.43 25.11 6.84 25.01C6.27 24.92 5.7 24.83 5.05 24.73C5.33 23.37 5.78 22.16 6.8 21.2C8.98 19.16 13.8 18.93 16.15 21.59C18.03 23.71 17.75 26.46 15.43 28.13C15.16 28.32 14.88 28.49 14.54 28.72C14.71 28.78 14.82 28.82 14.93 28.86C17.07 29.54 18.34 31.24 18.31 33.4C18.27 36.48 15.74 39.15 12.53 39.47C10.49 39.68 8.58 39.39 6.92 38.06Z" fill="#EA5B4F" fill-opacity="1.000000" fill-rule="nonzero"/>
	<path id="path" d="M4.76 34.05C5.57 33.95 6.34 33.85 7.12 33.76C7.55 33.71 8.06 33.54 8.39 33.7C8.65 33.83 8.68 34.38 8.84 34.73C9.33 35.89 10.45 36.56 11.69 36.44C12.99 36.31 14.01 35.34 14.22 33.97C14.3 33.48 14.3 32.96 14.22 32.47C13.96 30.79 12.55 29.9 10.7 30.22C10.43 30.26 10.15 30.32 9.79 30.4C9.93 29.38 10.06 28.41 10.2 27.43C10.64 27.37 11.05 27.34 11.45 27.26C13.04 26.92 13.89 25.39 13.28 23.95C12.98 23.22 12.38 22.82 11.56 22.73C10.53 22.63 9.69 22.97 9.16 23.82C8.9 24.25 8.77 24.75 8.55 25.29C8.01 25.2 7.43 25.11 6.84 25.01C6.27 24.92 5.7 24.83 5.05 24.73C5.33 23.37 5.78 22.16 6.8 21.2C8.98 19.16 13.8 18.93 16.15 21.59C18.03 23.71 17.75 26.46 15.43 28.13C15.16 28.32 14.88 28.49 14.54 28.72C14.71 28.78 14.82 28.82 14.93 28.86C17.07 29.54 18.34 31.24 18.31 33.4C18.27 36.48 15.74 39.15 12.53 39.47C10.49 39.68 8.58 39.39 6.92 38.06C5.65 37 4.96 35.68 4.76 34.05Z" stroke="#000000" stroke-opacity="0" stroke-width="1.000000"/>
	<path id="path" d="M36.23 26.51C36.24 25.88 36.04 25.2 36.3 24.76C36.55 24.34 37.28 24.19 37.78 23.9C39.53 22.91 41.1 21.77 41.93 19.91C41.99 19.78 42.2 19.64 42.34 19.63C43.17 19.61 44 19.6 44.83 19.64C44.96 19.64 45.11 19.87 45.21 20.02C45.26 20.09 45.22 20.23 45.22 20.34C45.22 26.39 45.22 32.43 45.22 38.48C45.22 39.22 45.22 39.22 44.45 39.22C43.42 39.22 42.39 39.22 41.29 39.22C41.29 34.53 41.29 29.92 41.29 25.16C39.75 26.43 38.17 27.36 36.23 27.94C36.23 27.44 36.23 27 36.23 26.51Z" fill="#72CC4D" fill-opacity="1.000000" fill-rule="nonzero"/>
	<path id="path" d="M36.3 24.76C36.55 24.34 37.28 24.19 37.78 23.9C39.53 22.91 41.1 21.77 41.93 19.91C41.99 19.78 42.2 19.64 42.34 19.63C43.17 19.61 44 19.6 44.83 19.64C44.96 19.64 45.11 19.87 45.21 20.02C45.26 20.09 45.22 20.23 45.22 20.34C45.22 26.39 45.22 32.43 45.22 38.48C45.22 39.22 45.22 39.22 44.45 39.22C43.42 39.22 42.39 39.22 41.29 39.22C41.29 34.53 41.29 29.92 41.29 25.16C39.75 26.43 38.17 27.36 36.23 27.94C36.23 27.44 36.23 27 36.23 26.51C36.24 25.88 36.04 25.2 36.3 24.76Z" stroke="#000000" stroke-opacity="0" stroke-width="1.000000"/>
	<path id="path" d="M3.02 10.45C2.89 9.01 3.83 7.91 5.28 7.74C6.58 7.6 7.78 8.53 7.97 9.84C8.16 11.07 7.24 12.27 5.95 12.48C4.52 12.71 3.32 11.89 3.02 10.45Z" fill="#E4E4E4" fill-opacity="1.000000" fill-rule="nonzero"/>
	<path id="path" d="M5.28 7.74C6.58 7.6 7.78 8.53 7.97 9.84C8.16 11.07 7.24 12.27 5.95 12.48C4.52 12.71 3.32 11.89 3.02 10.45C2.89 9.01 3.83 7.91 5.28 7.74Z" stroke="#000000" stroke-opacity="0" stroke-width="1.000000"/>
</svg>
