<svg width="50.000000" height="50.000000" viewBox="0 0 50 50" fill="none" xmlns="http://www.w3.org/2000/svg" xmlns:xlink="http://www.w3.org/1999/xlink">
	<desc>
			Created with Pixso.
	</desc>
	<defs/>
	<path id="path" d="M44.26 50C44.23 49.05 44.23 48.11 44.23 47.11C40.47 47.11 36.74 47.11 32.98 47.11C32.98 42.69 32.98 38.32 32.98 33.92C34.36 33.92 35.74 33.92 37.18 33.92C37.18 37.2 37.18 40.5 37.18 43.82C38.77 43.82 40.31 43.82 41.9 43.82C41.9 40.54 41.9 37.25 41.9 33.92C43.34 33.92 44.72 33.92 46.18 33.92C46.18 37.27 46.18 40.65 46.18 44.06C46.69 44.06 47.14 44.06 47.66 44.06C47.66 46.01 47.66 47.92 47.59 49.87C46.67 49.9 45.81 49.89 44.95 49.9C44.78 49.9 44.6 49.96 44.43 50C44.39 50 44.34 50 44.26 50Z" fill="#013499" fill-opacity="1.000000" fill-rule="nonzero"/>
	<path id="path" d="M44.23 47.11C40.47 47.11 36.74 47.11 32.98 47.11C32.98 42.69 32.98 38.32 32.98 33.92C34.36 33.92 35.74 33.92 37.18 33.92C37.18 37.2 37.18 40.5 37.18 43.82C38.77 43.82 40.31 43.82 41.9 43.82C41.9 40.54 41.9 37.25 41.9 33.92C43.34 33.92 44.72 33.92 46.18 33.92C46.18 37.27 46.18 40.65 46.18 44.06C46.69 44.06 47.14 44.06 47.66 44.06C47.66 46.01 47.66 47.92 47.59 49.87C46.67 49.9 45.81 49.89 44.95 49.9C44.78 49.9 44.6 49.96 44.43 50C44.39 50 44.34 50 44.26 50C44.23 49.05 44.23 48.11 44.23 47.11Z" stroke="#000000" stroke-opacity="0" stroke-width="1.000000"/>
	<path id="path" d="M45.65 0.09C45.66 0.22 45.67 0.35 45.67 0.48C45.67 7.68 45.67 14.87 45.67 22.06C45.67 22.16 45.67 22.26 45.67 22.5C45.5 22.29 45.4 22.18 45.31 22.06C43.14 18.8 40.97 15.53 38.81 12.26C38.44 11.71 38.36 11.08 38.36 10.44C38.39 6.99 38.4 3.54 38.4 0.04C38.44 0 38.49 0 38.6 0.02C38.84 0.07 39.03 0.09 39.21 0.09C41.36 0.09 43.5 0.09 45.65 0.09Z" fill="#013499" fill-opacity="1.000000" fill-rule="nonzero"/>
	<path id="path" d="M45.67 0.48C45.67 7.68 45.67 14.87 45.67 22.06C45.67 22.16 45.67 22.26 45.67 22.5C45.5 22.29 45.4 22.18 45.31 22.06C43.14 18.8 40.97 15.53 38.81 12.26C38.44 11.71 38.36 11.08 38.36 10.44C38.39 6.99 38.4 3.54 38.4 0.04C38.44 0 38.49 0 38.6 0.02C38.84 0.07 39.03 0.09 39.21 0.09C41.36 0.09 43.5 0.09 45.65 0.09C45.66 0.22 45.67 0.35 45.67 0.48Z" stroke="#000000" stroke-opacity="0" stroke-width="1.000000"/>
	<path id="path" d="M45.66 0.07C43.5 0.09 41.36 0.09 39.21 0.09C39.03 0.09 38.84 0.07 38.63 0.02C40.92 0 43.24 0 45.61 0C45.66 0.01 45.66 0.03 45.66 0.07Z" fill="#1E4CA4" fill-opacity="1.000000" fill-rule="nonzero"/>
	<path id="path" d="M39.21 0.09C39.03 0.09 38.84 0.07 38.63 0.02C40.92 0 43.24 0 45.61 0C45.66 0.01 45.66 0.03 45.66 0.07C43.5 0.09 41.36 0.09 39.21 0.09Z" stroke="#000000" stroke-opacity="0" stroke-width="1.000000"/>
	<path id="path" d="M44.48 50C44.6 49.96 44.78 49.9 44.95 49.9C45.81 49.89 46.67 49.9 47.58 49.91C47.63 49.93 47.63 49.94 47.62 49.98C46.58 50 45.55 50 44.48 50Z" fill="#2F59AC" fill-opacity="1.000000" fill-rule="nonzero"/>
	<path id="path" d="M44.95 49.9C45.81 49.89 46.67 49.9 47.58 49.91C47.63 49.93 47.63 49.94 47.62 49.98C46.58 50 45.55 50 44.48 50C44.6 49.96 44.78 49.9 44.95 49.9Z" stroke="#000000" stroke-opacity="0" stroke-width="1.000000"/>
	<path id="path" d="M25.75 8.84C24.86 7.41 23.98 6.01 23.04 4.5C23.75 4.5 24.31 4.5 24.86 4.49C27.06 4.46 29.26 4.43 31.46 4.37C31.99 4.36 32.37 4.54 32.68 4.94C32.83 5.13 32.97 5.33 33.11 5.54C37.78 12.83 42.46 20.11 47.14 27.4C48.03 28.8 48.9 30.21 49.78 31.62C49.84 31.73 49.9 31.85 50 32.02C49.82 32.03 49.69 32.04 49.57 32.04C46.84 32.06 44.11 32.07 41.39 32.1C40.96 32.11 40.71 32 40.48 31.65C38.27 28.2 36.03 24.77 33.8 21.32C31.12 17.17 28.45 13.02 25.75 8.84Z" fill="#FE0101" fill-opacity="1.000000" fill-rule="nonzero"/>
	<path id="path" d="M23.04 4.5C23.75 4.5 24.31 4.5 24.86 4.49C27.06 4.46 29.26 4.43 31.46 4.37C31.99 4.36 32.37 4.54 32.68 4.94C32.83 5.13 32.97 5.33 33.11 5.54C37.78 12.83 42.46 20.11 47.14 27.4C48.03 28.8 48.9 30.21 49.78 31.62C49.84 31.73 49.9 31.85 50 32.02C49.82 32.03 49.69 32.04 49.57 32.04C46.84 32.06 44.11 32.07 41.39 32.1C40.96 32.11 40.71 32 40.48 31.65C38.27 28.2 36.03 24.77 33.8 21.32C31.12 17.17 28.45 13.02 25.75 8.84C24.86 7.41 23.98 6.01 23.04 4.5Z" stroke="#000000" stroke-opacity="0" stroke-width="1.000000"/>
	<path id="path" d="M12.24 4.61C12.5 4.56 12.76 4.48 13.03 4.48C15.62 4.45 18.21 4.44 20.79 4.39C21.19 4.39 21.41 4.5 21.61 4.81C24.9 9.97 28.22 15.12 31.51 20.27C32.3 21.5 33.05 22.76 33.81 24.01C33.89 24.15 33.96 24.29 34.06 24.49C33.83 24.49 33.66 24.49 33.5 24.49C30.81 24.49 28.12 24.48 25.43 24.5C25 24.51 24.75 24.38 24.54 24.03C22.97 21.52 21.38 19.02 19.79 16.53C18.94 15.19 18.07 13.87 17.21 12.55C17.08 12.36 16.93 12.19 16.76 11.94C16.55 11.54 16.38 11.18 16.17 10.85C15.22 9.39 14.24 7.95 13.3 6.48C12.91 5.88 12.59 5.23 12.24 4.61Z" fill="#FE0101" fill-opacity="1.000000" fill-rule="nonzero"/>
	<path id="path" d="M13.03 4.48C15.62 4.45 18.21 4.44 20.79 4.39C21.19 4.39 21.41 4.5 21.61 4.81C24.9 9.97 28.22 15.12 31.51 20.27C32.3 21.5 33.05 22.76 33.81 24.01C33.89 24.15 33.96 24.29 34.06 24.49C33.83 24.49 33.66 24.49 33.5 24.49C30.81 24.49 28.12 24.48 25.43 24.5C25 24.51 24.75 24.38 24.54 24.03C22.97 21.52 21.38 19.02 19.79 16.53C18.94 15.19 18.07 13.87 17.21 12.55C17.08 12.36 16.93 12.19 16.76 11.94C16.55 11.54 16.38 11.18 16.17 10.85C15.22 9.39 14.24 7.95 13.3 6.48C12.91 5.88 12.59 5.23 12.24 4.61C12.5 4.56 12.76 4.48 13.03 4.48Z" stroke="#000000" stroke-opacity="0" stroke-width="1.000000"/>
	<path id="path" d="M9.38 19.76C9.55 19.17 9.68 18.62 9.86 18.07C9.9 17.95 10.08 17.78 10.2 17.77C11.95 17.76 13.7 17.76 15.48 17.76C15.48 22.17 15.48 26.54 15.48 30.94C14.35 30.94 13.22 30.94 12.04 30.94C12.04 27.72 12.04 24.48 12.04 21.25C12.01 21.25 11.97 21.24 11.94 21.24C11.07 24.48 10.2 27.71 9.34 30.95C8.26 30.95 7.22 30.95 6.14 30.95C5.28 27.71 4.41 24.48 3.55 21.24C3.53 21.24 3.5 21.25 3.48 21.25C3.48 24.47 3.48 27.68 3.48 30.94C2.3 30.94 1.17 30.94 0 30.94C0 26.57 0 22.19 0 17.78C1.87 17.78 3.74 17.78 5.63 17.78C6.33 20.41 7.02 23.02 7.71 25.63C7.74 25.63 7.77 25.64 7.8 25.64C8.32 23.69 8.85 21.75 9.38 19.76Z" fill="#02349A" fill-opacity="1.000000" fill-rule="nonzero"/>
	<path id="path" d="M9.86 18.07C9.9 17.95 10.08 17.78 10.2 17.77C11.95 17.76 13.7 17.76 15.48 17.76C15.48 22.17 15.48 26.54 15.48 30.94C14.35 30.94 13.22 30.94 12.04 30.94C12.04 27.72 12.04 24.48 12.04 21.25C12.01 21.25 11.97 21.24 11.94 21.24C11.07 24.48 10.2 27.71 9.34 30.95C8.26 30.95 7.22 30.95 6.14 30.95C5.28 27.71 4.41 24.48 3.55 21.24C3.53 21.24 3.5 21.25 3.48 21.25C3.48 24.47 3.48 27.68 3.48 30.94C2.3 30.94 1.17 30.94 0 30.94C0 26.57 0 22.19 0 17.78C1.87 17.78 3.74 17.78 5.63 17.78C6.33 20.41 7.02 23.02 7.71 25.63C7.74 25.63 7.77 25.64 7.8 25.64C8.32 23.69 8.85 21.75 9.38 19.76C9.55 19.17 9.68 18.62 9.86 18.07Z" stroke="#000000" stroke-opacity="0" stroke-width="1.000000"/>
	<path id="path" d="M22.66 37.79C22.66 38.49 22.66 39.13 22.66 39.81C21.23 39.81 19.83 39.81 18.39 39.81C18.39 35.44 18.39 31.07 18.39 26.66C18.52 26.65 18.65 26.64 18.78 26.64C21.03 26.63 23.28 26.62 25.53 26.65C26.16 26.65 26.8 26.72 27.4 26.87C28.86 27.26 29.78 28.21 29.99 29.64C30.1 30.4 30.1 31.21 29.95 31.96C29.59 33.64 28.25 34.67 26.29 34.85C25.31 34.94 24.32 34.92 23.33 34.94C23.13 34.95 22.93 34.94 22.66 34.94C22.66 35.9 22.66 36.82 22.66 37.79ZM23.79 32.27C24.22 32.2 24.67 32.18 25.08 32.06C25.67 31.88 25.96 31.38 25.95 30.76C25.93 30.14 25.63 29.61 25.04 29.5C24.27 29.35 23.48 29.34 22.7 29.26C22.7 30.34 22.7 31.29 22.7 32.27C23.05 32.27 23.37 32.27 23.79 32.27Z" fill="#02349A" fill-opacity="1.000000" fill-rule="nonzero"/>
	<path id="path" d="M22.66 39.81C21.23 39.81 19.83 39.81 18.39 39.81C18.39 35.44 18.39 31.07 18.39 26.66C18.52 26.65 18.65 26.64 18.78 26.64C21.03 26.63 23.28 26.62 25.53 26.65C26.16 26.65 26.8 26.72 27.4 26.87C28.86 27.26 29.78 28.21 29.99 29.64C30.1 30.4 30.1 31.21 29.95 31.96C29.59 33.64 28.25 34.67 26.29 34.85C25.31 34.94 24.32 34.92 23.33 34.94C23.13 34.95 22.93 34.94 22.66 34.94C22.66 35.9 22.66 36.82 22.66 37.79C22.66 38.49 22.66 39.13 22.66 39.81ZM25.08 32.06C25.67 31.88 25.96 31.38 25.95 30.76C25.93 30.14 25.63 29.61 25.04 29.5C24.27 29.35 23.48 29.34 22.7 29.26C22.7 30.34 22.7 31.29 22.7 32.27C23.05 32.27 23.37 32.27 23.79 32.27C24.22 32.2 24.67 32.18 25.08 32.06Z" stroke="#000000" stroke-opacity="0" stroke-width="1.000000"/>
	<path id="path" d="M12.2 4.6C12.59 5.23 12.91 5.88 13.3 6.48C14.24 7.95 15.22 9.39 16.17 10.85C16.38 11.18 16.55 11.54 16.74 11.92C15.97 13.21 15.19 14.46 14.4 15.71C14.34 15.81 14.16 15.9 14.04 15.9C11.08 15.91 8.11 15.91 4.99 15.91C5.33 15.31 5.61 14.77 5.94 14.26C7.88 11.16 9.84 8.06 11.8 4.96C11.89 4.82 12.04 4.72 12.2 4.6Z" fill="#B9BABC" fill-opacity="1.000000" fill-rule="nonzero"/>
	<path id="path" d="M13.3 6.48C14.24 7.95 15.22 9.39 16.17 10.85C16.38 11.18 16.55 11.54 16.74 11.92C15.97 13.21 15.19 14.46 14.4 15.71C14.34 15.81 14.16 15.9 14.04 15.9C11.08 15.91 8.11 15.91 4.99 15.91C5.33 15.31 5.61 14.77 5.94 14.26C7.88 11.16 9.84 8.06 11.8 4.96C11.89 4.82 12.04 4.72 12.2 4.6C12.59 5.23 12.91 5.88 13.3 6.48Z" stroke="#000000" stroke-opacity="0" stroke-width="1.000000"/>
</svg>
