<svg width="50" height="50" viewBox="0 0 50 50" fill="none" xmlns="http://www.w3.org/2000/svg">
<path d="M5.95041 2.40308V10.181C5.95041 10.7978 6.3471 11.3505 6.94214 11.5106C8.59245 11.9512 9.8143 13.4653 9.8143 15.2834V47.5969C9.8143 48.9266 10.8773 50 12.1945 50H43.1366C44.4536 50 45.5168 48.9266 45.5168 47.5969V2.40308C45.5168 1.07325 44.4536 0 43.1366 0H8.33057C7.01362 0 5.95041 1.07325 5.95041 2.40308Z" fill="#F9AC00"/>
<path d="M42.6459 7.34535V47.5969C42.6459 48.9266 41.5829 50 40.2658 50H34.2123V7.34535H42.6459Z" fill="#E9E9FF"/>
<path d="M43.5664 2.40308V10.181C43.5664 10.7978 43.1697 11.3505 42.5746 11.5106C40.9243 11.9512 39.7025 13.4653 39.7025 15.2834V47.5969C39.7025 48.9266 38.6395 50 37.3223 50H6.38016C5.06321 50 4 48.9266 4 47.5969V2.40308C4 1.07325 5.06321 0 6.38016 0H41.1862C42.5032 0 43.5664 1.07325 43.5664 2.40308Z" fill="#FDC72E"/>
<path d="M11.0852 9.8008L11.0851 20.508C11.0851 21.3882 11.7921 22.0942 12.6563 22.0942L32.7667 22.0934C33.6309 22.0934 34.3378 21.3874 34.3378 20.5071L34.3379 9.79995C34.3379 8.92744 33.631 8.21373 32.7668 8.21376L12.6563 8.21449C11.7921 8.21452 11.0852 8.92828 11.0852 9.8008Z" fill="#F9AC00"/>
<path d="M46 22.895V27.105C46 27.5025 45.6869 27.8185 45.2931 27.8185H38.3291C36.79 27.8185 35.5372 26.5629 35.5372 25C35.5372 24.223 35.8505 23.5183 36.3605 23.0126C36.8615 22.4975 37.5594 22.1813 38.3291 22.1813H45.2931C45.6869 22.1813 46 22.4975 46 22.895Z" fill="#F9AC00"/>
<path d="M38.2111 25.943C38.7269 25.943 39.1451 25.5208 39.1451 25C39.1451 24.4792 38.7269 24.057 38.2111 24.057C37.6953 24.057 37.2771 24.4792 37.2771 25C37.2771 25.5208 37.6953 25.943 38.2111 25.943Z" fill="#FDC72E"/>
<path d="M10.2251 8.93239L10.225 19.6396C10.225 20.5198 10.9319 21.2258 11.7961 21.2258L31.9066 21.225C32.7708 21.225 33.4777 20.519 33.4777 19.6387L33.4778 8.93154C33.4778 8.05903 32.7708 7.34532 31.9066 7.34535L11.7962 7.34608C10.932 7.34611 10.2251 8.05987 10.2251 8.93239Z" fill="#E9E9FF"/>
<path d="M30.5997 12.0794L22.0451 12.0798C21.9608 12.0798 21.8924 12.1488 21.8924 12.234L21.8924 13.1358C21.8924 13.2209 21.9608 13.2899 22.0451 13.2899L30.5997 13.2896C30.684 13.2896 30.7524 13.2205 30.7524 13.1354L30.7524 12.2336C30.7524 12.1485 30.684 12.0794 30.5997 12.0794Z" fill="#4F5D99"/>
<path d="M12.9502 12.2332L12.9502 13.1351C12.9502 13.2197 13.0188 13.2894 13.1029 13.2894L19.5129 13.2891C19.5968 13.2891 19.6656 13.2195 19.6656 13.1348L19.6656 12.2329C19.6656 12.1482 19.5968 12.0785 19.5129 12.0786L13.1029 12.0788C13.0188 12.0788 12.9502 12.1485 12.9502 12.2332Z" fill="#4F5D99"/>
<path d="M12.9502 15.4367L12.9502 16.3386C12.9502 16.4233 13.0188 16.4926 13.1029 16.4926L24.5794 16.4921C24.6635 16.4921 24.7321 16.4228 24.7321 16.3382L24.7321 15.4363C24.7321 15.3516 24.6635 15.2819 24.5794 15.2819L13.1029 15.2824C13.0188 15.2824 12.9502 15.352 12.9502 15.4367Z" fill="#4F5D99"/>
<path d="M30.5997 15.2808L27.1089 15.2809C27.0246 15.2809 26.9562 15.35 26.9562 15.4351L26.9562 16.3369C26.9562 16.422 27.0246 16.4911 27.1089 16.4911L30.5997 16.4909C30.684 16.4909 30.7524 16.4219 30.7524 16.3367L30.7524 15.4349C30.7524 15.3498 30.684 15.2808 30.5997 15.2808Z" fill="#4F5D99"/>
<g opacity="0.2">
<path d="M6.86017 0L19.0382 50H31.3015L19.1159 0H6.86017Z" fill="white"/>
<path d="M25.7525 0H22.2683L34.4527 50H37.9289L25.7525 0Z" fill="white"/>
</g>
</svg>
