<svg width="50" height="50" viewBox="0 0 50 50" fill="none" xmlns="http://www.w3.org/2000/svg">
<path d="M47.0554 26.4598C44.7532 24.9172 42.2366 23.5593 39.5074 22.3843C38.3887 21.9147 37.6074 21.2688 37.1636 20.4465C36.7198 19.6241 36.6115 18.5936 36.8427 17.3526C37.5657 13.7297 37.7969 10.2577 37.5324 6.93651C37.2678 3.61534 36.0531 1.55208 33.8823 0.748881L33.0927 0.44715C30.7906 -0.42405 28.5219 -0.0224479 26.2843 1.65408C24.0468 3.33273 22.0489 5.57872 20.2905 8.3963C18.801 10.7825 17.4717 13.241 16.2989 15.7718C15.3613 15.6018 14.478 15.4572 13.6551 15.3383C9.74044 14.8347 6.65082 14.7943 4.37997 15.213C2.11119 15.6336 0.811175 16.4793 0.482004 17.7542L0.0882502 19.214C-0.24092 20.389 0.350753 21.6874 1.86328 23.1132C3.37578 24.5389 4.97163 25.7545 6.64874 26.7615C8.32584 27.8007 9.49251 29.0352 10.1508 30.4589C10.8092 31.8846 11.055 33.7205 10.8904 35.9687C10.6592 38.9881 10.8738 41.7972 11.5321 44.3959C12.1905 46.9946 13.5717 48.6478 15.6759 49.3511L16.8593 49.7527C18.7343 50.3902 20.6989 49.7952 22.7551 47.9657C24.8093 46.1363 26.826 43.4291 28.7989 39.8402C29.5822 38.442 30.3657 36.8653 31.151 35.1123C32.8969 35.3843 34.5907 35.5798 36.224 35.6882C40.022 35.9389 43.097 35.7881 45.4492 35.2356C47.7991 34.6832 49.1408 33.8353 49.47 32.6942L49.9137 31.0347C50.3075 29.5261 49.3533 27.9983 47.0534 26.4556L47.0554 26.4598ZM25.4469 8.72566C27.4865 5.42148 29.6406 3.45172 31.9094 2.81425C33.5532 3.28386 34.5074 4.90302 34.7698 7.6696C35.0323 10.4362 34.9344 13.2283 34.474 16.048C34.2427 17.3909 33.7095 18.3045 32.8698 18.7891C32.0302 19.2757 30.9532 19.3352 29.6385 18.9654C26.8218 18.1409 24.0136 17.4143 21.2134 16.7832C22.4572 13.972 23.8655 11.2861 25.4469 8.72779V8.72566ZM25.0031 28.827C22.6031 28.1896 20.9655 27.0251 20.0947 25.3294C19.2239 23.6359 19.2467 21.6152 20.1696 19.2671C20.1844 19.2332 20.1989 19.1991 20.2113 19.163C20.2551 19.1737 20.2968 19.1822 20.3405 19.1907C23.2843 19.8451 26.2365 20.625 29.1947 21.5302C30.4448 21.8999 31.299 22.5288 31.7593 23.417C32.2198 24.3052 32.2365 25.3719 31.8094 26.6128C31.4094 27.8177 30.9823 28.9842 30.5323 30.1231C28.6906 29.7386 26.8468 29.3093 25.001 28.827H25.0031ZM11.4863 22.1102C9.71126 22.8985 7.81958 22.5543 5.81331 21.0797C4.79455 20.3742 3.93828 19.588 3.2487 18.7147C5.2883 17.7755 8.51126 17.5078 12.9176 17.9094C13.6217 17.9795 14.3863 18.0794 15.2051 18.2069C14.2405 20.1362 13.003 21.4388 11.4884 22.1102H11.4863ZM26.7302 38.0851C25.0198 41.0706 23.2759 43.3844 21.5009 45.0292C19.7259 46.6716 18.1467 47.4112 16.7655 47.2432C15.8113 45.8685 15.2613 44.2238 15.1134 42.3114C14.9655 40.3991 15.0551 38.3868 15.3843 36.2747C15.6134 34.7319 16.4696 33.7417 17.9489 33.3063C19.428 32.8706 21.4177 32.9705 23.9176 33.608C25.4968 34.016 27.0343 34.3665 28.5343 34.6598C27.9323 35.8964 27.3322 37.0418 26.7302 38.0851ZM37.3116 31.3174C35.8762 31.1113 34.4407 30.8753 33.0031 30.6097C33.3782 29.6111 33.7386 28.5996 34.0803 27.5691C34.5406 26.2601 35.2157 25.3974 36.1033 24.9788C36.9908 24.5602 38.0261 24.6197 39.2115 25.1552C43.7491 27.2014 46.3471 29.1138 47.0054 30.8902C44.6366 31.7635 41.4053 31.9059 37.3116 31.3174Z" fill="#00FFA7"/>
</svg>
