<svg width="50" height="50" viewBox="0 0 50 50" fill="none" xmlns="http://www.w3.org/2000/svg">
<path d="M24.9971 7C11.191 7 0 17.8965 0 31.3441V43H4.60873V41.8383C4.60873 36.3845 9.14585 31.9629 14.7456 31.9629C20.3454 31.9629 24.8826 36.3845 24.8826 41.8383V43H29.4913V41.8383C29.4913 33.9065 22.889 27.4794 14.7456 27.4794C11.5748 27.4794 8.63886 28.4526 6.23281 30.1149C8.75057 25.2433 13.9322 21.899 19.9158 21.899C28.3685 21.899 35.2228 28.5764 35.2228 36.8064V43H39.8316V36.8064C39.8316 26.0956 30.9149 17.4099 19.9158 17.4099C14.9691 17.4099 10.4463 19.165 6.96322 22.0734C10.3832 15.7757 17.1746 11.4863 25 11.4863C36.2626 11.4863 45.3913 20.3773 45.3913 31.3441V43H50V31.3441C49.9971 17.8965 38.8061 7 24.9971 7Z" fill="white"/>
</svg>
