<svg width="50" height="50" viewBox="0 0 50 50" fill="none" xmlns="http://www.w3.org/2000/svg">
<path d="M15.101 0.596648C14.9522 0.604648 14.7601 0.693967 14.7081 0.919439L14.4351 2.10268C14.3593 2.4323 14.1592 2.71815 13.8718 2.90726C13.3612 3.24358 12.912 3.72886 13.0412 4.00554C14.5187 7.17075 15.3109 10.2082 15.7365 12.5731C16.7477 12.0468 17.8038 11.6047 18.8912 11.258C19.2589 11.1407 19.6295 11.0387 20.0012 10.9436C18.4511 8.47861 16.6241 4.99091 15.4518 0.824162C15.3771 0.605953 15.1805 0.592717 15.101 0.596648Z" fill="#FFCF70"/>
<path d="M15.7366 12.5731C15.311 10.2083 14.5188 7.17074 13.0413 4.00553C12.912 3.72885 13.3613 3.24357 13.8719 2.90725C14.1593 2.71814 14.3593 2.43231 14.4351 2.10267L14.7081 0.919434C14.7602 0.693962 14.9523 0.604642 15.1011 0.596642C15.1806 0.592711 15.3772 0.605948 15.4519 0.824156C16.6241 4.99091 18.4512 8.47861 20.0013 10.9436C20.1999 10.8927 20.3986 10.8418 20.5982 10.7973C19.0514 8.36615 17.1924 4.86669 16.0086 0.658628L15.9987 0.627934C15.8609 0.224406 15.4983 -0.023039 15.0708 0.00169709C14.619 0.0259888 14.2468 0.339476 14.1446 0.781837L13.8713 1.96537C13.8303 2.14385 13.7197 2.30009 13.5596 2.40541C12.6458 3.00735 12.2569 3.70196 12.5191 4.26346C14.012 7.46151 14.7927 10.5246 15.2017 12.8699C15.3796 12.7702 15.5556 12.6673 15.7366 12.5731Z" fill="#D2935D"/>
<path d="M30.7051 48.9511C30.7218 48.9435 30.7515 48.9036 30.7648 48.8254L31.1054 46.7982C30.8511 46.8996 30.5945 46.9963 30.335 47.0878C30.1434 47.159 29.9499 47.2259 29.7543 47.2882C29.3813 47.4072 29.005 47.5112 28.6273 47.6076L30.6372 48.929C30.6692 48.9504 30.6941 48.9557 30.7051 48.9511Z" fill="#FFCF70"/>
<path d="M26.7381 49.3697C26.7816 49.4017 26.8142 49.4056 26.8178 49.4037C26.8204 49.4029 26.8331 49.3933 26.8489 49.3648L27.7015 47.8215C27.3129 47.9011 26.9226 47.9681 26.5312 48.0241L26.5479 48.9468C26.5516 49.1583 26.6529 49.3069 26.7381 49.3697Z" fill="#FFCF70"/>
<path d="M33.3374 47.3035C33.3549 47.2959 33.3852 47.255 33.3979 47.1739L33.6509 45.5692C33.123 45.8719 32.5798 46.1511 32.0222 46.4061L33.2636 47.2771C33.2992 47.3023 33.3278 47.308 33.3374 47.3035Z" fill="#FFCF70"/>
<path d="M33.6509 45.5692L33.3979 47.1739C33.3851 47.2551 33.3549 47.2959 33.3373 47.3035C33.3277 47.308 33.2991 47.3023 33.2635 47.2772L32.0222 46.4061C32.0127 46.4104 32.0033 46.4147 31.9939 46.419C31.9466 46.5378 31.9024 46.6586 31.853 46.7759L31.526 46.6303C31.3873 46.6892 31.2455 46.7423 31.1053 46.7982L30.7647 48.8254C30.7514 48.9037 30.7217 48.9435 30.705 48.9511C30.694 48.9557 30.6691 48.9504 30.6371 48.929L28.6272 47.6076C28.3198 47.6861 28.0113 47.7581 27.7014 47.8215L26.8489 49.3648C26.833 49.3933 26.8203 49.4029 26.8177 49.4038C26.8141 49.4057 26.7815 49.4017 26.738 49.3697C26.6528 49.3069 26.5515 49.1584 26.5479 48.9468L26.5312 48.0241C26.3387 48.0516 26.146 48.0782 25.953 48.0999L25.9685 48.9579C25.9773 49.4397 26.2732 49.8787 26.6568 49.9791C26.7102 49.9932 26.7634 50 26.8152 50C27.0342 50 27.2316 49.878 27.3524 49.6592L28.2367 48.0583L30.3251 49.4311C30.5214 49.5604 30.7452 49.5843 30.9387 49.4963C31.146 49.4023 31.2906 49.1947 31.3356 48.9269L31.6785 46.8861L32.9371 47.7693C33.1365 47.9095 33.3665 47.9392 33.5659 47.851C33.7792 47.7569 33.9263 47.5448 33.9699 47.2691L34.2989 45.1826C34.0858 45.3158 33.8693 45.4439 33.6509 45.5692Z" fill="#D2935D"/>
<path d="M37.5565 40.8398C37.4756 40.978 37.3924 41.1153 37.3075 41.251C36.7471 42.1468 36.1166 42.9609 35.4259 43.6903C37.5727 42.0617 39.3674 39.9904 40.6836 37.5728C40.7594 37.433 40.8338 37.2924 40.9062 37.151C41.9237 35.1489 42.5933 33.0638 42.9073 31.0204C42.4559 31.2801 41.9491 31.4965 41.3974 31.6481C40.9015 31.7844 40.4121 31.8557 39.9423 31.8741C39.592 34.8092 38.6128 37.7212 37.7005 40.4321L37.5565 40.8398Z" fill="#FFCF70"/>
<path d="M13.2576 14.8314C12.6219 15.3131 12.0115 15.8332 11.4321 16.3975L11.227 16.5955C7.42746 19.4039 5.18126 24.6311 5.63729 29.6027C5.65199 29.7625 5.66954 29.9219 5.68962 30.0812L5.69217 30.1123C5.7421 32.1706 6.15215 34.2797 6.86576 36.2824C7.40602 35.4482 8.38788 34.7104 9.62314 34.29C9.59159 34.1901 9.55687 34.0919 9.52653 33.9913C7.33291 26.7157 9.00306 19.3021 13.2576 14.8314Z" fill="#FFCF70"/>
<path d="M12.8923 29.6736C12.2887 27.64 13.4096 25.486 15.396 24.8624C15.564 24.8096 15.7326 24.774 15.9012 24.746C15.3898 21.1633 15.2951 17.4832 15.6577 13.8317C15.67 13.7072 15.6811 13.5976 15.6915 13.4989C10.1249 17.3904 7.63016 25.6894 10.0799 33.8147C10.1118 33.9205 10.1481 34.0237 10.1814 34.1287C12.4804 33.5613 14.6294 34.3079 15.0284 35.843C15.3644 37.1362 14.3527 38.5825 12.6701 39.4178C14.0996 41.6077 15.9043 43.4567 17.9922 44.8336C20.8927 46.7463 24.0645 47.5622 27.1378 47.2307C26.1988 46.584 25.3123 45.8411 24.4999 45.0051C24.4198 44.9229 24.3412 44.8396 24.2688 44.7518C21.3675 41.1509 19.1222 36.8597 17.6207 32.2121C17.6075 32.2164 17.5953 32.2224 17.5819 32.2265C15.5956 32.8502 13.496 31.7072 12.8923 29.6736Z" fill="#FFCF70"/>
<path d="M8.60815 39.9674C11.0186 43.9582 14.7728 46.9171 19.3193 47.0985L19.3745 47.1061C19.5278 47.1433 19.6825 47.1788 19.8378 47.2124C20.8911 47.44 21.9635 47.5721 23.0415 47.6133C21.2085 47.2297 19.3972 46.468 17.6793 45.3352C15.4944 43.8942 13.6122 41.9524 12.1293 39.6536C11.9227 39.7335 11.711 39.8073 11.4899 39.8681C10.4596 40.1513 9.45162 40.1683 8.60815 39.9674Z" fill="#FFCF70"/>
<path d="M38.6781 25.0893C38.6311 24.9251 38.5833 24.7626 38.5341 24.6032C37.0025 19.4223 33.0276 15.6354 30.7941 13.8389C30.7061 13.7795 30.6051 13.7097 30.5095 13.6423C30.4133 13.5742 30.3222 13.5089 30.2376 13.4461C30.1256 13.378 29.9921 13.2979 29.8583 13.2202C28.1601 12.234 26.3787 11.6084 24.5636 11.3602C24.4233 11.341 24.2827 11.3243 24.1418 11.3098C24.0009 11.2952 23.8598 11.2828 23.7186 11.2728C23.421 11.2519 23.1242 11.2414 22.8283 11.2414C22.6133 11.2414 22.3992 11.249 22.1853 11.26C22.2102 11.2887 22.2324 11.3141 22.2608 11.3472C22.3287 11.4263 22.4068 11.5179 22.4942 11.6215C24.9323 14.8822 26.964 18.0416 28.5941 21.0963C28.9895 20.7324 29.4636 20.4459 30.0049 20.276C31.9913 19.6523 34.0909 20.7953 34.6945 22.8289C35.2982 24.8625 34.1772 27.0165 32.1909 27.6401C31.9851 27.7047 31.7782 27.7459 31.5718 27.7736C33.7653 33.9743 34.1003 39.6746 32.5548 44.8227C32.5229 44.9283 32.4895 45.0366 32.4547 45.1455C32.4229 45.2452 32.3858 45.3439 32.3523 45.4434C34.1108 44.3592 35.6281 42.8342 36.8203 40.9286C36.8967 40.8064 36.9714 40.6832 37.0447 40.5589L37.1527 40.2371C38.0818 37.4764 39.027 34.6639 39.3723 31.8692C37.8646 31.7783 36.6657 31.0821 36.378 29.9751C36.021 28.6014 37.1834 27.0538 39.0567 26.2507C38.9527 25.8707 38.8315 25.4919 38.6866 25.1147L38.6781 25.0893Z" fill="#FFCF70"/>
<path d="M42.5923 24.4875C42.5821 24.369 42.5796 24.2546 42.5779 24.1406C41.4523 18.3602 36.4159 14.6203 32.386 12.5C32.2573 12.4433 32.1127 12.381 31.9671 12.3205C29.9383 11.4797 27.7762 11.0195 25.5874 10.9368C27.1475 11.2607 28.6761 11.8495 30.1429 12.7013C30.2818 12.7818 30.4199 12.8645 30.5571 12.9495C30.6584 13.0237 30.7455 13.0861 30.8375 13.151C30.9311 13.2169 31.0298 13.2852 31.1337 13.3565C33.4384 15.2095 37.5107 19.0923 39.0875 24.4264C39.1356 24.5824 39.1834 24.7444 39.2301 24.9084C39.3748 25.2863 39.4965 25.6664 39.6014 26.048C39.7054 26.0139 39.8093 25.9794 39.9166 25.9499C40.9901 25.6549 42.0375 25.651 42.9017 25.8793C42.8232 25.4251 42.7254 24.9787 42.6028 24.544L42.5923 24.4875Z" fill="#FFCF70"/>
<path d="M27.5013 25.0872C27.1253 23.8202 27.419 22.5068 28.1739 21.5456C26.5462 18.472 24.5056 15.2884 22.0456 11.9981C21.9706 11.9098 21.8937 11.8196 21.8266 11.7418C21.6295 11.5124 21.5194 11.3909 21.5177 11.3891L21.607 11.3036C20.9037 11.373 20.2082 11.5003 19.5248 11.6895C19.3706 11.7344 19.2161 11.7781 19.0627 11.827C18.0882 12.1378 17.1729 12.5624 16.322 13.0853C16.3134 13.1534 16.2956 13.3003 16.2717 13.5248C16.2601 13.631 16.2476 13.7531 16.2344 13.8916C15.8752 17.5064 15.9703 21.1491 16.4787 24.6938C18.095 24.6845 19.5915 25.7507 20.0857 27.4153C20.6279 29.2421 19.7758 31.1624 18.1575 31.9869C19.6359 36.578 21.85 40.8156 24.7124 44.3685C24.7724 44.441 24.8403 44.5127 24.9093 44.5835C25.8548 45.5565 26.9013 46.4021 28.0181 47.1056C28.5442 47.0103 29.0666 46.8837 29.5828 46.7191C29.7697 46.6595 29.9529 46.5926 30.1373 46.5277C30.6329 46.3437 31.1137 46.127 31.5804 45.8828C31.6957 45.5773 31.8055 45.2696 31.9042 44.96C31.9379 44.8538 31.9707 44.7482 32.0018 44.6461C33.5234 39.5773 33.1715 33.9455 30.9685 27.8046C29.4066 27.7535 27.9812 26.7035 27.5013 25.0872ZM30.6162 29.6443C30.6985 29.5032 30.8762 29.4578 31.0139 29.5429C31.1509 29.6279 31.195 29.8109 31.1124 29.9518C31.097 29.9779 30.4515 31.0476 29.2229 32.0667C29.2741 32.1064 29.3156 32.1604 29.3318 32.2296L29.8227 34.2834C30.1916 35.8271 29.0201 37.455 27.2113 37.9122C26.8885 37.9939 26.5665 38.0327 26.2537 38.0327C24.8143 38.0327 23.5647 37.2099 23.2618 35.9419L22.7709 33.888C22.7574 33.8315 22.7654 33.7767 22.782 33.7252C22.0396 33.5692 21.252 33.3031 20.4167 32.8903C20.2727 32.819 20.2119 32.6409 20.2812 32.4927C20.3502 32.3445 20.523 32.2819 20.6679 32.3532C22.4134 33.2163 23.9336 33.4233 25.2273 33.2671L26.8325 32.8613C29.2499 31.9111 30.5306 29.7905 30.6162 29.6443Z" fill="#FFCF70"/>
<path d="M42.9073 31.0204C42.5933 33.0638 41.9236 35.1489 40.9062 37.151C40.8338 37.2924 40.7594 37.4329 40.6836 37.5727C39.3674 39.9903 37.5727 42.0617 35.4259 43.6902C36.1166 42.9609 36.7471 42.1467 37.3075 41.251C37.3924 41.1153 37.4755 40.978 37.5564 40.8398L37.7004 40.432C38.6128 37.7212 39.5919 34.8092 39.9423 31.8741C39.7484 31.8817 39.5581 31.8804 39.3723 31.8692C39.0271 34.6639 38.0818 37.4764 37.1527 40.2371L37.0447 40.5589C36.9714 40.6831 36.8967 40.8063 36.8203 40.9285C35.6281 42.8342 34.1108 44.3592 32.3523 45.4434C32.3858 45.3439 32.4229 45.2452 32.4547 45.1455C32.4895 45.0365 32.5229 44.9283 32.5548 44.8227C34.1004 39.6746 33.7653 33.9743 31.5718 27.7736C31.3694 27.8007 31.1681 27.8112 30.9685 27.8047C33.1714 33.9455 33.5234 39.5773 32.0018 44.6461C31.9707 44.7482 31.9378 44.8538 31.9042 44.96C31.8054 45.2697 31.6957 45.5774 31.5804 45.8828C31.1136 46.127 30.6328 46.3437 30.1372 46.5277C29.9529 46.5926 29.7696 46.6595 29.5827 46.7191C29.0666 46.8837 28.5441 47.0103 28.018 47.1057C26.9012 46.4022 25.8547 45.5566 24.9093 44.5835C24.8403 44.5127 24.7724 44.441 24.7124 44.3685C21.8499 40.8157 19.6358 36.578 18.1574 31.9869C17.9863 32.074 17.8083 32.151 17.6208 32.2121C19.1222 36.8597 21.3676 41.1509 24.2688 44.7518C24.3412 44.8396 24.4199 44.9229 24.4999 45.0051C25.3123 45.8411 26.1989 46.5841 27.1379 47.2307C24.0646 47.5623 20.8927 46.7464 17.9922 44.8336C15.9044 43.4567 14.0996 41.6077 12.6702 39.4178C12.4971 39.5037 12.3158 39.5815 12.1293 39.6536C13.6122 41.9524 15.4944 43.8942 17.6793 45.3352C19.3972 46.468 21.2085 47.2297 23.0415 47.6133C21.9635 47.5721 20.8911 47.44 19.8378 47.2124C19.6825 47.1788 19.5278 47.1433 19.3745 47.1061L19.3193 47.0985C14.7728 46.9171 11.0186 43.9582 8.60815 39.9674C8.30206 39.8945 8.02072 39.7901 7.76477 39.6619C10.2441 44.1087 14.3009 47.4823 19.2687 47.6928C19.4177 47.7285 19.568 47.7629 19.7185 47.7955C21.0452 48.0822 22.4006 48.2249 23.7602 48.2249C24.4912 48.2248 25.2233 48.1823 25.953 48.0999C26.146 48.0782 26.3386 48.0516 26.5311 48.0241C26.9225 47.9682 27.3128 47.9011 27.7014 47.8215C28.0113 47.7581 28.3198 47.686 28.6272 47.6076C29.0049 47.5112 29.3812 47.4072 29.7542 47.2882C29.9497 47.2259 30.1432 47.1589 30.3349 47.0878C30.5944 46.9963 30.851 46.8996 31.1053 46.7982C31.2455 46.7423 31.3874 46.6892 31.526 46.6303L31.853 46.7759C31.9024 46.6586 31.9466 46.5378 31.9939 46.419C32.0034 46.4147 32.0128 46.4104 32.0222 46.4061C32.5798 46.1511 33.1229 45.8719 33.6509 45.5692C33.8693 45.4439 34.0858 45.3158 34.2989 45.1826C37.1677 43.3895 39.5415 40.8901 41.1891 37.8637C41.2675 37.7195 41.3442 37.5746 41.4194 37.428C42.5531 35.1971 43.2695 32.8628 43.5533 30.5875C43.3543 30.7422 43.1388 30.8871 42.9073 31.0204Z" fill="#DF9C62"/>
<path d="M6.86585 36.2824C6.15225 34.2797 5.74218 32.1706 5.69226 30.1123L5.6897 30.0812C5.66962 29.9219 5.65208 29.7624 5.63737 29.6027C5.18134 24.6311 7.42754 19.4039 11.2271 16.5955L11.4322 16.3975C12.0116 15.8332 12.622 15.3131 13.2577 14.8313C9.00313 19.3021 7.33299 26.7157 9.52663 33.9913C9.55697 34.0919 9.59169 34.1901 9.62324 34.29C9.74962 34.247 9.8777 34.206 10.0091 34.1699C10.0668 34.1541 10.124 34.1429 10.1815 34.1287C10.1482 34.0237 10.1119 33.9205 10.08 33.8147C7.63024 25.6893 10.125 17.3904 15.6916 13.4989C15.6812 13.5976 15.6701 13.7072 15.6578 13.8317C15.2952 17.4832 15.3899 21.1633 15.9013 24.746C16.0945 24.714 16.2874 24.6949 16.4787 24.6938C15.9704 21.1491 15.8752 17.5064 16.2344 13.8917C16.2477 13.7532 16.2601 13.631 16.2717 13.5248C16.2956 13.3003 16.3134 13.1534 16.322 13.0853C17.1729 12.5624 18.0882 12.1378 19.0628 11.827C19.2162 11.7781 19.3706 11.7344 19.5248 11.6895C20.2082 11.5003 20.9038 11.373 21.607 11.3036L21.5177 11.3892C21.5194 11.3909 21.6295 11.5124 21.8266 11.7418C21.8937 11.8196 21.9706 11.9098 22.0456 11.9981C24.5057 15.2884 26.5462 18.472 28.174 21.5456C28.3005 21.3844 28.4426 21.2358 28.5941 21.0963C26.964 18.0416 24.9323 14.8822 22.4943 11.6215C22.4069 11.5179 22.3288 11.4263 22.2609 11.3471C22.2325 11.3141 22.2102 11.2886 22.1854 11.26C22.3992 11.249 22.6134 11.2414 22.8284 11.2414C23.1243 11.2414 23.421 11.2518 23.7186 11.2728C23.8598 11.2828 24.001 11.2952 24.1419 11.3097C24.2827 11.3243 24.4233 11.341 24.5637 11.3602C26.3787 11.6084 28.1601 12.234 29.8583 13.2201C29.9921 13.2978 30.1257 13.378 30.2377 13.4461C30.3223 13.5089 30.4134 13.5742 30.5096 13.6423C30.6052 13.7097 30.7062 13.7795 30.7941 13.8388C33.0276 15.6354 37.0026 19.4223 38.5342 24.6031C38.5834 24.7626 38.6312 24.925 38.6782 25.0893L38.6866 25.1146C38.8315 25.4919 38.9527 25.8707 39.0567 26.2506C39.2318 26.1756 39.4145 26.1093 39.6014 26.048C39.4964 25.6664 39.3748 25.2862 39.2301 24.9083C39.1834 24.7444 39.1356 24.5823 39.0875 24.4264C37.5106 19.0923 33.4383 15.2094 31.1336 13.3565C31.0298 13.2852 30.9311 13.2168 30.8374 13.1509C30.7455 13.0861 30.6583 13.0236 30.5571 12.9495C30.4199 12.8645 30.2818 12.7817 30.1429 12.7013C28.6761 11.8495 27.1475 11.2606 25.5874 10.9368C27.7762 11.0195 29.9382 11.4796 31.967 12.3205C32.1127 12.381 32.2573 12.4432 32.386 12.5C36.4158 14.6203 41.4522 18.3601 42.5779 24.1406C42.5796 24.2546 42.5821 24.3689 42.5923 24.4875L42.6028 24.5439C42.7254 24.9786 42.8231 25.4251 42.9016 25.8793C43.1212 25.9373 43.3296 26.0091 43.5226 26.0965C43.4364 25.52 43.3205 24.9547 43.1671 24.4066C43.1595 24.3041 43.1581 24.2047 43.1569 24.1055L43.1516 24.0514C42.2327 19.2788 38.6015 15.1009 32.6332 11.9614C32.483 11.8945 32.3339 11.8302 32.1837 11.7678C28.5438 10.2593 24.4901 9.92905 20.5982 10.7973C20.3986 10.8418 20.1999 10.8927 20.0012 10.9436C19.6295 11.0387 19.259 11.1407 18.8913 11.258C17.8039 11.6047 16.7478 12.0468 15.7366 12.5731C15.5556 12.6673 15.3796 12.7702 15.2016 12.8699C13.6839 13.7193 12.2744 14.7568 11.0339 15.9649L10.8723 16.124C6.92142 19.0546 4.5864 24.4907 5.06082 29.6586C5.07553 29.8204 5.09307 29.9817 5.11344 30.1427C5.17093 32.4366 5.66113 34.7921 6.51618 37.0035C6.59334 36.7585 6.7138 36.5171 6.86585 36.2824Z" fill="#DF9C62"/>
<path d="M20.0857 27.4153C19.5916 25.7507 18.095 24.6845 16.4787 24.6938C16.2874 24.695 16.0945 24.714 15.9013 24.7461C15.7327 24.7741 15.5641 24.8097 15.3961 24.8624C13.4097 25.486 12.2888 27.6401 12.8924 29.6736C13.4961 31.7072 15.5957 32.8502 17.582 32.2266C17.5954 32.2224 17.6076 32.2165 17.6209 32.2121C17.8084 32.151 17.9864 32.074 18.1575 31.9869C19.7759 31.1625 20.628 29.2422 20.0857 27.4153ZM16.7416 30.5713C16.4123 30.6747 16.0639 30.484 15.9634 30.1453C15.8628 29.8067 16.0482 29.4484 16.3775 29.345C16.7068 29.2416 17.0553 29.4323 17.1558 29.771C17.2563 30.1096 17.0708 30.4679 16.7416 30.5713ZM18.2421 29.0709C17.4354 29.3241 16.5818 28.8569 16.3355 28.0273C16.0893 27.1977 16.5436 26.3198 17.3503 26.0666C18.157 25.8133 19.0106 26.2805 19.2568 27.1101C19.5031 27.9398 19.0488 28.8176 18.2421 29.0709Z" fill="#212121"/>
<path d="M19.2568 27.1101C19.0106 26.2805 18.157 25.8133 17.3503 26.0665C16.5436 26.3198 16.0892 27.1976 16.3355 28.0273C16.5818 28.8569 17.4354 29.3241 18.2421 29.0708C19.0488 28.8176 19.5031 27.9397 19.2568 27.1101Z" fill="white"/>
<path d="M34.6945 22.8288C34.0909 20.7953 31.9913 19.6523 30.005 20.2759C29.4636 20.4459 28.9895 20.7324 28.5941 21.0963C28.4426 21.2357 28.3005 21.3844 28.174 21.5456C27.419 22.5068 27.1253 23.8202 27.5013 25.0871C27.9812 26.7035 29.4066 27.7535 30.9685 27.8046C31.1681 27.8112 31.3695 27.8006 31.5718 27.7735C31.7783 27.7459 31.9851 27.7047 32.1909 27.6401C34.1773 27.0165 35.2983 24.8624 34.6945 22.8288ZM31.8943 21.2616C32.701 21.0084 33.5546 21.4756 33.8009 22.3052C34.0471 23.1348 33.5928 24.0127 32.7861 24.2659C31.9795 24.5192 31.1258 24.052 30.8796 23.2223C30.6333 22.3927 31.0876 21.5149 31.8943 21.2616ZM31.6698 25.8846C31.3405 25.988 30.9921 25.7972 30.8916 25.4586C30.7911 25.12 30.9765 24.7616 31.3058 24.6583C31.6351 24.5549 31.9835 24.7456 32.084 25.0842C32.1846 25.4229 31.9991 25.7812 31.6698 25.8846Z" fill="#212121"/>
<path d="M32.7861 24.266C33.5928 24.0127 34.0472 23.1349 33.8009 22.3052C33.5546 21.4756 32.701 21.0084 31.8943 21.2617C31.0876 21.5149 30.6333 22.3928 30.8796 23.2224C31.1258 24.052 31.9795 24.5192 32.7861 24.266Z" fill="white"/>
<path d="M17.1558 29.771C17.0553 29.4323 16.7068 29.2416 16.3775 29.345C16.0483 29.4484 15.8628 29.8067 15.9634 30.1453C16.0639 30.484 16.4123 30.6747 16.7416 30.5713C17.0708 30.4679 17.2563 30.1096 17.1558 29.771Z" fill="white"/>
<path d="M31.3058 24.6583C30.9765 24.7617 30.7911 25.12 30.8916 25.4586C30.9922 25.7973 31.3405 25.988 31.6698 25.8846C31.9991 25.7812 32.1846 25.4229 32.084 25.0843C31.9835 24.7456 31.6351 24.5549 31.3058 24.6583Z" fill="white"/>
<path d="M25.2273 33.2671C25.8087 33.1968 26.3437 33.0534 26.8325 32.8613L25.2273 33.2671Z" fill="#FF5D54"/>
<path d="M26.6004 33.545L26.9627 35.0608C27.0008 35.2207 26.9061 35.382 26.7505 35.4213C26.7273 35.4271 26.7041 35.4299 26.6812 35.4299C26.551 35.4299 26.4325 35.339 26.4003 35.2031L26.0416 33.7021C25.5258 33.8262 24.9738 33.8997 24.3835 33.8997C24.0518 33.8997 23.7073 33.8742 23.3524 33.8255L23.8242 35.7997C24.117 37.0244 25.5742 37.7129 27.0733 37.3336C28.5718 36.9549 29.5529 35.6504 29.2603 34.4258L28.7791 32.412C28.1679 32.858 27.4411 33.2687 26.6004 33.545Z" fill="#FF5D54"/>
<path d="M25.2274 33.2671C23.9336 33.4233 22.4134 33.2163 20.6679 32.3532C20.5231 32.2819 20.3502 32.3445 20.2812 32.4927C20.2119 32.6409 20.2727 32.819 20.4167 32.8903C21.252 33.3031 22.0396 33.5692 22.782 33.7252C22.7655 33.7767 22.7575 33.8314 22.771 33.888L23.2618 35.9419C23.5648 37.2099 24.8143 38.0327 26.2537 38.0327C26.5666 38.0327 26.8885 37.9938 27.2113 37.9122C29.0201 37.455 30.1916 35.8271 29.8227 34.2834L29.3319 32.2296C29.3156 32.1604 29.2742 32.1065 29.223 32.0667C30.4515 31.0476 31.0971 29.978 31.1124 29.9518C31.195 29.8109 31.1509 29.6279 31.014 29.5429C30.8762 29.4578 30.6985 29.5032 30.6162 29.6443C30.5306 29.7905 29.2499 31.9111 26.8326 32.8613C26.3438 33.0534 25.8088 33.1968 25.2274 33.2671ZM29.2603 34.4257C29.5528 35.6504 28.5717 36.9548 27.0732 37.3336C25.5742 37.7128 24.117 37.0243 23.8242 35.7996L23.3524 33.8254C23.7072 33.8741 24.0518 33.8997 24.3835 33.8997C24.9737 33.8997 25.5257 33.8261 26.0415 33.702L26.4002 35.203C26.4325 35.3389 26.551 35.4298 26.6812 35.4298C26.7041 35.4298 26.7273 35.4271 26.7505 35.4212C26.9061 35.382 27.0008 35.2206 26.9626 35.0608L26.6004 33.5449C27.4411 33.2687 28.1678 32.8579 28.7791 32.4119L29.2603 34.4257Z" fill="#212121"/>
<path d="M8.60829 39.9674C9.45174 40.1683 10.4597 40.1513 11.49 39.8681C11.7112 39.8073 11.9228 39.7335 12.1294 39.6536C12.3159 39.5815 12.4973 39.5037 12.6703 39.4178C14.3528 38.5825 15.3646 37.1362 15.0285 35.843C14.6296 34.3079 12.4806 33.5613 10.1816 34.1287C10.124 34.1429 10.0669 34.1541 10.0092 34.1699C9.8778 34.206 9.74971 34.247 9.62333 34.29C8.38807 34.7103 7.40621 35.4482 6.86595 36.2823C6.7139 36.5171 6.59346 36.7585 6.51629 37.0035C6.39105 37.4007 6.36926 37.8049 6.47067 38.1951C6.6366 38.8337 7.1086 39.3333 7.76492 39.662C8.02086 39.7901 8.3022 39.8946 8.60829 39.9674Z" fill="#FF5D54"/>
<path d="M44.9359 27.6229C44.7599 26.9458 44.2421 26.4226 43.5226 26.0966C43.3295 26.0091 43.1211 25.9373 42.9016 25.8793C42.0374 25.651 40.99 25.6549 39.9166 25.9499C39.8092 25.9794 39.7053 26.0139 39.6013 26.048C39.4145 26.1093 39.2317 26.1756 39.0567 26.2506C37.1834 27.0538 36.021 28.6014 36.378 29.9751C36.6656 31.0821 37.8646 31.7783 39.3723 31.8692C39.558 31.8804 39.7484 31.8817 39.9423 31.8741C40.412 31.8557 40.9015 31.7844 41.3973 31.6481C41.949 31.4965 42.4559 31.2801 42.9072 31.0204C43.1388 30.8871 43.3542 30.7422 43.5532 30.5875C44.6278 29.7523 45.2003 28.6407 44.9359 27.6229Z" fill="#FF5D54"/>
</svg>
