<svg width="50.000000" height="50.000000" viewBox="0 0 50 50" fill="none" xmlns="http://www.w3.org/2000/svg" xmlns:xlink="http://www.w3.org/1999/xlink">
	<desc>
			Created with Pixso.
	</desc>
	<defs>
		<linearGradient x1="128.863434" y1="351.291260" x2="225.856674" y2="351.291260" id="paint_linear_392_79_0" gradientUnits="userSpaceOnUse">
			<stop stop-color="#9D9FA2"/>
			<stop offset="1.000000" stop-color="#D1D2D3"/>
		</linearGradient>
		<linearGradient x1="135.711807" y1="341.819794" x2="217.943802" y2="341.819794" id="paint_linear_392_83_0" gradientUnits="userSpaceOnUse">
			<stop stop-color="#169B48"/>
			<stop offset="1.000000" stop-color="#51B848"/>
		</linearGradient>
	</defs>
	<rect id="rect314-9-8" width="50.000004" height="50.000004" fill="url(#paint_linear_392_79_0)" fill-opacity="1.000000"/>
	<rect id="rect318-2-5" x="4.444458" y="4.444336" width="41.111115" height="41.111118" fill="#51B848" fill-opacity="1.000000"/>
	<path id="path325-8-3" d="M4.44 4.44L45.55 4.44L45.55 14.87C42.17 20.99 32.86 19.87 32.86 19.87C7.61 20.45 4.44 36.14 4.44 36.14L4.44 4.44Z" fill="url(#paint_linear_392_83_0)" fill-opacity="1.000000" fill-rule="nonzero"/>
	<path id="path327-3-2" d="" fill="#000000" fill-opacity="0" fill-rule="nonzero"/>
	<path id="path327-3-2" d="" stroke="#000000" stroke-opacity="1.000000" stroke-width="0.512219"/>
	<path id="path331-2-8" d="M29.92 41.9C29.92 41.9 34.11 40.52 35.7 40.5C35.7 40.5 40.81 38.66 43.11 40.26C43.97 40.64 44.8 41.09 45.55 41.71L45.55 45.55L4.44 45.55L4.44 43.39C4.44 43.39 12.52 39.99 16.52 42.87C16.52 42.87 16.9 42.78 17.31 42.51C17.31 42.51 19.36 40.69 21.4 41.07C23.43 41.44 26.31 42.33 26.31 42.33C26.31 42.33 28.26 41.41 29.89 41.63L29.92 41.9Z" fill="#000000" fill-opacity="1.000000" fill-rule="nonzero"/>
	<path id="path331-2-8" d="M35.7 40.5C35.7 40.5 40.81 38.66 43.11 40.26C43.97 40.64 44.8 41.09 45.55 41.71L45.55 45.55L4.44 45.55L4.44 43.39C4.44 43.39 12.52 39.99 16.52 42.87C16.52 42.87 16.9 42.78 17.31 42.51C17.31 42.51 19.36 40.69 21.4 41.07C23.43 41.44 26.31 42.33 26.31 42.33C26.31 42.33 28.26 41.41 29.89 41.63L29.92 41.9C29.92 41.9 34.11 40.52 35.7 40.5Z" stroke="#000000" stroke-opacity="0" stroke-width="0.000000"/>
	<path id="path333-2-3" d="M20.58 5.58C20.47 5.27 20.24 5.44 20.24 5.44C20.19 5.29 19.87 5.4 19.87 5.4C19.73 5.2 19.51 5.44 19.51 5.44C19.41 5.3 19.21 5.44 19.21 5.44C18.91 5.6 19.06 6.02 19.06 6.02C18.76 6.06 18.89 6.73 18.89 6.73C18.83 6.96 18.85 7.05 18.85 7.05C18.86 7.35 19.06 7.48 18.78 8.31C18.51 9.14 18.44 10.39 18.45 10.77C18.45 11.14 18.47 11.75 18.47 11.75L19.89 14.08L19.82 14.6C19.94 14.71 21.29 17.04 21.29 17.04L21.34 19.94L21.36 20.99C21.36 20.99 21.33 22.06 21.32 22.3C21.3 22.54 21.19 23.28 21.19 23.28C20.87 24.44 21.13 24.41 21.13 24.41C21.52 24.4 21.06 24.96 21.06 24.96L17.92 29.43C17.88 29.49 17.07 30.69 16.87 31.05C16.67 31.4 15.95 32.71 15.95 32.71L15.32 34.04C15.32 34.04 14.68 35.61 14.7 35.68C14.72 35.76 14.52 36.3 14.52 36.3L13.54 38.55C13.39 38.81 13.43 39.42 13.43 39.42C13.36 39.58 12.68 40.16 12.68 40.16C12.68 40.44 12.51 40.67 12.51 40.67L12.1 41.06C11.81 41.5 10.77 41.53 10.42 41.56C10.07 41.59 9.87 42.08 9.87 42.08C9.94 42.74 10.18 42.6 10.18 42.6L15.11 42.81C15.11 42.81 15.18 42.54 15.13 42.42C15.07 42.3 15.15 41.89 15.15 41.89C15.15 41.89 15.63 40.81 15.69 40.63C15.75 40.46 16.03 39.44 16.03 39.44L16.46 38.59L16.92 37.62L17.13 37.09L17.27 36.82C17.36 36.49 18.47 34.88 18.52 34.71C18.56 34.54 19.53 33 19.53 33C19.68 32.62 20.98 31.07 20.98 31.07C21.08 30.81 22.51 29.45 22.51 29.45C22.51 29.45 23.93 28.03 24.05 27.93C24.18 27.84 24.52 27.87 24.52 27.87C24.99 27.72 26.61 30.42 26.61 30.42C26.61 30.42 27.83 32.8 27.95 33.03C28.07 33.26 28.14 33.79 28.14 33.79L28.32 34.35C28.26 34.47 28.42 34.77 28.42 34.77L28.38 35.2C28.38 35.2 28.66 37.29 28.58 37.5C28.49 37.71 28.89 39.91 28.89 39.91C28.67 40.63 28.74 41.86 28.74 41.86L28.46 41.96L28.57 42.08C28.48 42.51 28.63 42.41 28.63 42.41C28.63 42.41 34.45 41.69 34.64 41.67C34.82 41.64 34.91 41.37 34.91 41.37C34.91 41.37 34.91 40.91 34.85 40.75C34.78 40.59 34.45 40.38 34.07 40.39C33.68 40.4 32.91 40.2 32.91 40.2C32.64 40.18 32.53 40.08 32.21 39.93C31.89 39.77 31.43 38.89 31.34 38.72C31.25 38.54 31.17 36.8 31.17 36.8C31.16 36.66 31.06 34.93 31.06 34.93C31.06 34.93 31 34.31 30.99 34.05C30.99 33.78 31.08 33.33 31.08 33.33L30.98 32.03C30.89 31.96 30.15 29.42 30.15 29.42C30.04 28.8 29.11 26.98 29.11 26.98C29.08 26.83 28.76 26.32 28.76 26.32C28.76 26.25 28.45 25.55 28.45 25.55C28.47 25.47 28.18 24.88 28.18 24.88C28.18 24.88 28.37 24.34 28.3 24.34C28.24 24.34 28.16 23.98 28.16 23.98L28.54 20.8L28.75 19.25C28.75 19.25 28.88 18.84 29.02 18.84C29.16 18.84 29.79 18.56 29.79 18.56C29.79 18.56 30.23 18.39 30.29 18.35C30.35 18.32 30.88 18.23 31.08 18.2C31.27 18.16 31.25 17.61 31.25 17.61C33.21 17.14 34.34 16.61 34.34 16.61C34.34 16.61 34.74 15.68 34.82 15.66C34.89 15.63 35.27 14.75 35.36 14.48C35.44 14.22 35.9 12.83 35.9 12.83L36.03 12.57C36.03 12.57 36.18 12.22 36.27 12.15C36.36 12.07 36.51 11.62 36.51 11.62C36.58 11.5 36.52 11.29 36.52 11.29C36.57 10.81 36.23 10.81 36.23 10.81C36.23 10.55 35.98 10.65 35.95 10.55C35.92 10.45 35.84 10.42 35.79 10.5C35.75 10.57 35.56 10.51 35.56 10.51C35.33 10.36 35.21 10.52 35.21 10.52C35.21 10.52 34.71 11.23 34.86 11.34C35 11.45 34.97 12.04 34.97 12.04C34.91 12.63 34.25 13.9 34.25 13.9L33.81 14.53C33.6 14.93 32.64 15.76 32.64 15.76C32.52 15.69 31.79 15.75 31.79 15.75C31.79 15.75 31.21 15.83 31.08 15.83C30.95 15.83 30.41 15.9 30.41 15.9C30.41 15.9 30.13 15.98 30.04 15.93C29.95 15.88 29.66 15.85 29.48 15.78C29.3 15.72 28.8 15.65 28.8 15.65L28.41 15.68C27.98 15.45 27.78 15.71 27.78 15.71L27.55 15.75C27.55 15.75 27.44 15.75 27.32 15.74C27.19 15.74 27.21 15.52 27.21 15.52L26.83 15.35L26.71 15.18C26.68 14.81 27.17 13.68 27.17 13.68C27.38 13.68 27.46 13.56 27.44 13.47C27.42 13.38 27.49 13.23 27.49 13.23C27.68 12.8 27.52 12.77 27.52 12.77L27.48 12.61C27.56 12.47 27.53 11.78 27.53 11.78C27.43 10.85 26.25 10.46 25.41 10.72C24.58 10.98 24.55 12.27 24.55 12.27C24.48 12.23 24.37 12.51 24.37 12.51C24.28 12.59 24.36 13.21 24.36 13.21C24.51 13.44 24.64 13.32 24.64 13.32L24.76 14.07C24.76 14.07 24.63 14.77 24.5 14.96C24.37 15.16 24.12 15.16 24.12 15.16C23.95 14.63 23.03 14.36 23.03 14.36L22.55 14.14C22.52 14.04 22.35 13.96 22.35 13.96C22.1 13.94 22.04 13.91 21.84 13.51C21.64 13.11 21.43 13.09 21.43 13.09L21.15 12.72L21.03 12.68C21.05 12.6 20.48 11.98 20.48 11.98C20.25 11.9 20.19 11.57 20.19 11.57C20.24 11.22 19.92 9.75 19.92 9.75L19.89 9.18C19.89 9.18 19.87 8.48 19.93 8.26C20 8.05 20.03 7.2 20.03 7.2L20.14 6.95C20.14 6.95 20.23 6.76 20.4 6.65C20.56 6.54 20.68 6.39 20.71 6.27C20.74 6.15 20.67 5.84 20.67 5.84L20.58 5.58Z" fill="#000000" fill-opacity="1.000000" fill-rule="nonzero"/>
	<path id="path333-2-3" d="M20.24 5.44C20.19 5.29 19.87 5.4 19.87 5.4C19.73 5.2 19.51 5.44 19.51 5.44C19.41 5.3 19.21 5.44 19.21 5.44C18.91 5.6 19.06 6.02 19.06 6.02C18.76 6.06 18.89 6.73 18.89 6.73C18.83 6.96 18.85 7.05 18.85 7.05C18.86 7.35 19.06 7.48 18.78 8.31C18.51 9.14 18.44 10.39 18.45 10.77C18.45 11.14 18.47 11.75 18.47 11.75L19.89 14.08L19.82 14.6C19.94 14.71 21.29 17.04 21.29 17.04L21.34 19.94L21.36 20.99C21.36 20.99 21.33 22.06 21.32 22.3C21.3 22.54 21.19 23.28 21.19 23.28C20.87 24.44 21.13 24.41 21.13 24.41C21.52 24.4 21.06 24.96 21.06 24.96L17.92 29.43C17.88 29.49 17.07 30.69 16.87 31.05C16.67 31.4 15.95 32.71 15.95 32.71L15.32 34.04C15.32 34.04 14.68 35.61 14.7 35.68C14.72 35.76 14.52 36.3 14.52 36.3L13.54 38.55C13.39 38.81 13.43 39.42 13.43 39.42C13.36 39.58 12.68 40.16 12.68 40.16C12.68 40.44 12.51 40.67 12.51 40.67L12.1 41.06C11.81 41.5 10.77 41.53 10.42 41.56C10.07 41.59 9.87 42.08 9.87 42.08C9.94 42.74 10.18 42.6 10.18 42.6L15.11 42.81C15.11 42.81 15.18 42.54 15.13 42.42C15.07 42.3 15.15 41.89 15.15 41.89C15.15 41.89 15.63 40.81 15.69 40.63C15.75 40.46 16.03 39.44 16.03 39.44L16.46 38.59L16.92 37.62L17.13 37.09L17.27 36.82C17.36 36.49 18.47 34.88 18.52 34.71C18.56 34.54 19.53 33 19.53 33C19.68 32.62 20.98 31.07 20.98 31.07C21.08 30.81 22.51 29.45 22.51 29.45C22.51 29.45 23.93 28.03 24.05 27.93C24.18 27.84 24.52 27.87 24.52 27.87C24.99 27.72 26.61 30.42 26.61 30.42C26.61 30.42 27.83 32.8 27.95 33.03C28.07 33.26 28.14 33.79 28.14 33.79L28.32 34.35C28.26 34.47 28.42 34.77 28.42 34.77L28.38 35.2C28.38 35.2 28.66 37.29 28.58 37.5C28.49 37.71 28.89 39.91 28.89 39.91C28.67 40.63 28.74 41.86 28.74 41.86L28.46 41.96L28.57 42.08C28.48 42.51 28.63 42.41 28.63 42.41C28.63 42.41 34.45 41.69 34.64 41.67C34.82 41.64 34.91 41.37 34.91 41.37C34.91 41.37 34.91 40.91 34.85 40.75C34.78 40.59 34.45 40.38 34.07 40.39C33.68 40.4 32.91 40.2 32.91 40.2C32.64 40.18 32.53 40.08 32.21 39.93C31.89 39.77 31.43 38.89 31.34 38.72C31.25 38.54 31.17 36.8 31.17 36.8C31.16 36.66 31.06 34.93 31.06 34.93C31.06 34.93 31 34.31 30.99 34.05C30.99 33.78 31.08 33.33 31.08 33.33L30.98 32.03C30.89 31.96 30.15 29.42 30.15 29.42C30.04 28.8 29.11 26.98 29.11 26.98C29.08 26.83 28.76 26.32 28.76 26.32C28.76 26.25 28.45 25.55 28.45 25.55C28.47 25.47 28.18 24.88 28.18 24.88C28.18 24.88 28.37 24.34 28.3 24.34C28.24 24.34 28.16 23.98 28.16 23.98L28.54 20.8L28.75 19.25C28.75 19.25 28.88 18.84 29.02 18.84C29.16 18.84 29.79 18.56 29.79 18.56C29.79 18.56 30.23 18.39 30.29 18.35C30.35 18.32 30.88 18.23 31.08 18.2C31.27 18.16 31.25 17.61 31.25 17.61C33.21 17.14 34.34 16.61 34.34 16.61C34.34 16.61 34.74 15.68 34.82 15.66C34.89 15.63 35.27 14.75 35.36 14.48C35.44 14.22 35.9 12.83 35.9 12.83L36.03 12.57C36.03 12.57 36.18 12.22 36.27 12.15C36.36 12.07 36.51 11.62 36.51 11.62C36.58 11.5 36.52 11.29 36.52 11.29C36.57 10.81 36.23 10.81 36.23 10.81C36.23 10.55 35.98 10.65 35.95 10.55C35.92 10.45 35.84 10.42 35.79 10.5C35.75 10.57 35.56 10.51 35.56 10.51C35.33 10.36 35.21 10.52 35.21 10.52C35.21 10.52 34.71 11.23 34.86 11.34C35 11.45 34.97 12.04 34.97 12.04C34.91 12.63 34.25 13.9 34.25 13.9L33.81 14.53C33.6 14.93 32.64 15.76 32.64 15.76C32.52 15.69 31.79 15.75 31.79 15.75C31.79 15.75 31.21 15.83 31.08 15.83C30.95 15.83 30.41 15.9 30.41 15.9C30.41 15.9 30.13 15.98 30.04 15.93C29.95 15.88 29.66 15.85 29.48 15.78C29.3 15.72 28.8 15.65 28.8 15.65L28.41 15.68C27.98 15.45 27.78 15.71 27.78 15.71L27.55 15.75C27.55 15.75 27.44 15.75 27.32 15.74C27.19 15.74 27.21 15.52 27.21 15.52L26.83 15.35L26.71 15.18C26.68 14.81 27.17 13.68 27.17 13.68C27.38 13.68 27.46 13.56 27.44 13.47C27.42 13.38 27.49 13.23 27.49 13.23C27.68 12.8 27.52 12.77 27.52 12.77L27.48 12.61C27.56 12.47 27.53 11.78 27.53 11.78C27.43 10.85 26.25 10.46 25.41 10.72C24.58 10.98 24.55 12.27 24.55 12.27C24.48 12.23 24.37 12.51 24.37 12.51C24.28 12.59 24.36 13.21 24.36 13.21C24.51 13.44 24.64 13.32 24.64 13.32L24.76 14.07C24.76 14.07 24.63 14.77 24.5 14.96C24.37 15.16 24.12 15.16 24.12 15.16C23.95 14.63 23.03 14.36 23.03 14.36L22.55 14.14C22.52 14.04 22.35 13.96 22.35 13.96C22.1 13.94 22.04 13.91 21.84 13.51C21.64 13.11 21.43 13.09 21.43 13.09L21.15 12.72L21.03 12.68C21.05 12.6 20.48 11.98 20.48 11.98C20.25 11.9 20.19 11.57 20.19 11.57C20.24 11.22 19.92 9.75 19.92 9.75L19.89 9.18C19.89 9.18 19.87 8.48 19.93 8.26C20 8.05 20.03 7.2 20.03 7.2L20.14 6.95C20.14 6.95 20.23 6.76 20.4 6.65C20.56 6.54 20.68 6.39 20.71 6.27C20.74 6.15 20.67 5.84 20.67 5.84L20.58 5.58C20.47 5.27 20.24 5.44 20.24 5.44Z" stroke="#000000" stroke-opacity="1.000000" stroke-width="0.218101"/>
</svg>
