<svg width="50" height="50" viewBox="0 0 50 50" fill="none" xmlns="http://www.w3.org/2000/svg">
<path d="M25 50C38.8071 50 50 38.8071 50 25C50 11.1929 38.8071 0 25 0C11.1929 0 0 11.1929 0 25C0 38.8071 11.1929 50 25 50Z" fill="url(#paint0_linear_47_29)"/>
<path d="M39.4199 45.4248C37.1023 47.0653 34.5211 48.2973 31.7881 49.0674L10.5781 27.8574L9.86328 26.0215V23.9785L10.6797 22.2383L12.3887 21.457H14.4307L15.9883 21.9971L39.4199 45.4248Z" fill="url(#paint1_linear_47_29)"/>
<path d="M45.2578 39.6484C43.7185 41.7725 41.8565 43.6427 39.7393 45.1914L21.9365 27.3926L21.4531 26.0254V23.9785L22.2969 22.207L23.9785 21.4531H26.0215L27.9111 22.3057L45.2578 39.6484Z" fill="url(#paint2_linear_47_29)"/>
<path d="M49.0615 31.8076C48.3003 34.5008 47.0903 37.0462 45.4824 39.3369L33.7305 27.585L33.0469 26.0225V23.9785L33.8486 22.2383L35.5723 21.457H37.6143L39.3232 22.0703L49.0615 31.8076Z" fill="url(#paint3_linear_47_29)"/>
<path d="M26.0205 21.4531H23.9785C22.5838 21.4531 21.4531 22.5838 21.4531 23.9785V26.0205C21.4531 27.4152 22.5838 28.5459 23.9785 28.5459H26.0205C27.4152 28.5459 28.5459 27.4152 28.5459 26.0205V23.9785C28.5459 22.5838 27.4152 21.4531 26.0205 21.4531Z" fill="white"/>
<path d="M37.6113 21.4531H35.5693C34.1746 21.4531 33.0439 22.5838 33.0439 23.9785V26.0205C33.0439 27.4152 34.1746 28.5459 35.5693 28.5459H37.6113C39.0061 28.5459 40.1367 27.4152 40.1367 26.0205V23.9785C40.1367 22.5838 39.0061 21.4531 37.6113 21.4531Z" fill="white"/>
<path d="M14.4307 21.4531H12.3887C10.9939 21.4531 9.86328 22.5838 9.86328 23.9785V26.0205C9.86328 27.4152 10.9939 28.5459 12.3887 28.5459H14.4307C15.8254 28.5459 16.9561 27.4152 16.9561 26.0205V23.9785C16.9561 22.5838 15.8254 21.4531 14.4307 21.4531Z" fill="white"/>
<defs>
<linearGradient id="paint0_linear_47_29" x1="7.32227" y1="7.32227" x2="42.6777" y2="42.6777" gradientUnits="userSpaceOnUse">
<stop stop-color="#FFCC78"/>
<stop offset="1" stop-color="#FEC35B"/>
</linearGradient>
<linearGradient id="paint1_linear_47_29" x1="10.6377" y1="22.2803" x2="36.6016" y2="48.2432" gradientUnits="userSpaceOnUse">
<stop stop-color="#D69F4D"/>
<stop offset="1" stop-color="#D69F4D" stop-opacity="0"/>
</linearGradient>
<linearGradient id="paint2_linear_47_29" x1="10.6377" y1="22.2803" x2="36.6016" y2="48.2432" gradientUnits="userSpaceOnUse">
<stop stop-color="#D69F4D"/>
<stop offset="1" stop-color="#D69F4D" stop-opacity="0"/>
</linearGradient>
<linearGradient id="paint3_linear_47_29" x1="10.6377" y1="22.2803" x2="36.6016" y2="48.2432" gradientUnits="userSpaceOnUse">
<stop stop-color="#D69F4D"/>
<stop offset="1" stop-color="#D69F4D" stop-opacity="0"/>
</linearGradient>
</defs>
</svg>
