<svg width="50" height="50" viewBox="0 0 50 50" fill="none" xmlns="http://www.w3.org/2000/svg">
<path d="M46 43.0233C46 46.8605 42.85 50 39 50H4V29.0698C4 25.2326 7.15 22.093 11 22.093H46V43.0233Z" fill="url(#paint0_linear_222_47)"/>
<path d="M46 43.0233C46 46.8605 42.85 50 39 50H4V29.0698C4 25.2326 7.15 22.093 11 22.093H46V43.0233Z" fill="url(#paint1_linear_222_47)"/>
<path d="M40.1667 15.1163V22.093H33.1667V15.1163C33.1667 10.6279 29.5033 6.97674 25 6.97674C20.4967 6.97674 16.8333 10.6279 16.8333 15.1163V22.093H11C10.6033 22.093 10.2183 22.1279 9.83333 22.1977V15.1163C9.83333 6.77907 16.635 0 25 0C33.365 0 40.1667 6.77907 40.1667 15.1163Z" fill="url(#paint2_linear_222_47)"/>
<path d="M35.5 39.5349C37.433 39.5349 39 37.9731 39 36.0465C39 34.1199 37.433 32.5581 35.5 32.5581C33.567 32.5581 32 34.1199 32 36.0465C32 37.9731 33.567 39.5349 35.5 39.5349Z" fill="url(#paint3_linear_222_47)"/>
<path d="M25 39.5349C26.933 39.5349 28.5 37.9731 28.5 36.0465C28.5 34.1199 26.933 32.5581 25 32.5581C23.067 32.5581 21.5 34.1199 21.5 36.0465C21.5 37.9731 23.067 39.5349 25 39.5349Z" fill="url(#paint4_linear_222_47)"/>
<path d="M14.5 39.5349C16.433 39.5349 18 37.9731 18 36.0465C18 34.1199 16.433 32.5581 14.5 32.5581C12.567 32.5581 11 34.1199 11 36.0465C11 37.9731 12.567 39.5349 14.5 39.5349Z" fill="url(#paint5_linear_222_47)"/>
<defs>
<linearGradient id="paint0_linear_222_47" x1="-5.98433" y1="53.8756" x2="64.9787" y2="12.7687" gradientUnits="userSpaceOnUse">
<stop stop-color="#262626" stop-opacity="0"/>
<stop offset="1" stop-color="#262626" stop-opacity="0.8"/>
</linearGradient>
<linearGradient id="paint1_linear_222_47" x1="-13.5175" y1="58.2105" x2="50.604" y2="21.0675" gradientUnits="userSpaceOnUse">
<stop stop-color="#8F4433"/>
<stop offset="0.919" stop-color="#E8E189"/>
</linearGradient>
<linearGradient id="paint2_linear_222_47" x1="33.9472" y1="-7.22907" x2="16.4732" y2="40.9385" gradientUnits="userSpaceOnUse">
<stop stop-color="#E0F2FF"/>
<stop offset="1" stop-color="#225949"/>
</linearGradient>
<linearGradient id="paint3_linear_222_47" x1="26.204" y1="41.3953" x2="38.6479" y2="34.1874" gradientUnits="userSpaceOnUse">
<stop stop-color="#B0845D" stop-opacity="0"/>
<stop offset="1" stop-color="#2E424F"/>
</linearGradient>
<linearGradient id="paint4_linear_222_47" x1="15.704" y1="41.3953" x2="28.1479" y2="34.1874" gradientUnits="userSpaceOnUse">
<stop stop-color="#B0845D" stop-opacity="0"/>
<stop offset="1" stop-color="#2E424F"/>
</linearGradient>
<linearGradient id="paint5_linear_222_47" x1="5.204" y1="41.3953" x2="17.6479" y2="34.1874" gradientUnits="userSpaceOnUse">
<stop stop-color="#B0845D" stop-opacity="0"/>
<stop offset="1" stop-color="#2E424F"/>
</linearGradient>
</defs>
</svg>
