<svg width="50.000244" height="50.000000" viewBox="0 0 50.0002 50" fill="none" xmlns="http://www.w3.org/2000/svg" xmlns:xlink="http://www.w3.org/1999/xlink">
	<desc>
			Created with Pixso.
	</desc>
	<defs/>
	<g opacity="0.000000">
		<rect id="Прямоугольник 65" width="50.000000" height="50.000000" fill="#C4C4C4" fill-opacity="1.000000"/>
	</g>
	<path id="path" d="M26.07 36.32L25.19 37.47L22.75 40.68C22.48 41.03 21.98 41.1 21.62 40.84L0.32 25.29C-0.04 25.03 -0.11 24.54 0.15 24.19L12.07 8.53C12.34 8.18 12.84 8.11 13.2 8.37L34.5 23.92C34.86 24.18 34.93 24.68 34.66 25.02L30.55 30.43L28.62 29.1L31.71 25.02L12.91 11.3L3.03 24.28L12.43 31.14L21.83 38L23.3 36.08L24.16 34.95L25.9 34.7L26.07 36.32Z" fill="#0A5FDF" fill-opacity="1.000000" fill-rule="nonzero"/>
	<path id="path" d="M39.03 27.13L39.5 22.47L43.39 25.21L39.03 27.13Z" fill="#16E3FF" fill-opacity="1.000000" fill-rule="nonzero"/>
	<path id="path" d="M11.29 21.89L10.69 26.53L6.88 23.7L11.29 21.89Z" fill="#0A5FDF" fill-opacity="1.000000" fill-rule="nonzero"/>
	<path id="path" d="M24.12 12.41L24.8 11.52L27.24 8.31C27.51 7.96 28.01 7.89 28.37 8.15L49.67 23.7C50.03 23.96 50.1 24.45 49.84 24.8L37.92 40.46C37.65 40.81 37.15 40.88 36.79 40.62L15.49 25.07C15.13 24.81 15.06 24.31 15.33 23.97L19.5 18.49L21.41 19.85L18.28 23.97L37.08 37.69L46.96 24.71L37.56 17.85L28.16 10.99L26.69 12.91L26.03 13.78L24.29 14.03L24.12 12.41Z" fill="#16E3FF" fill-opacity="1.000000" fill-rule="nonzero"/>
</svg>
