<svg width="50" height="50" viewBox="0 0 50 50" fill="none" xmlns="http://www.w3.org/2000/svg">
<path d="M28.2688 13.5423C27.9996 13.3209 27.7191 13.1143 27.4285 12.9233C26.7683 12.4433 26.0302 12.0869 25.2487 11.8706L25.2014 11.858C24.2378 11.5706 23.2304 11.4692 22.2306 11.559C19.909 11.7695 17.7722 12.9401 16.1677 14.6371C15.7732 15.0546 15.4188 15.5101 15.1096 15.9972C14.8985 15.8819 14.6654 15.8152 14.4266 15.8018C14.1878 15.7883 13.949 15.8284 13.7269 15.9193C13.323 16.1155 12.9559 16.3827 12.6421 16.7089C11.925 17.3931 11.3683 18.2879 11.5285 19.3385C11.5285 19.3891 11.545 19.4375 11.5552 19.4838C11.5096 19.6327 11.478 19.7857 11.4607 19.9407C11.397 20.6102 11.6662 21.3387 12.3092 21.6103C12.9523 21.8819 13.6262 21.6355 14.1337 21.1745C14.3478 21.1405 14.5579 21.0833 14.7603 21.0039C15.0042 21.4373 15.3598 21.7934 15.7882 22.0333C16.2166 22.2732 16.7011 22.3876 17.1888 22.364C17.6733 22.3181 18.1244 22.0909 18.456 21.7259C18.7876 21.3609 18.9764 20.8835 18.9865 20.3849C18.986 19.9529 18.9314 19.5227 18.8242 19.1048C18.7931 18.9477 18.7711 18.7888 18.7584 18.629C18.7584 18.6185 18.7584 18.5153 18.7584 18.45C18.7584 18.3848 18.7584 18.3658 18.7584 18.3216C18.7728 18.1679 18.7933 18.0142 18.8221 17.8626C18.8221 17.8479 18.8221 17.8037 18.8385 17.7595C18.855 17.7152 18.8652 17.6689 18.8796 17.6247C18.9271 17.476 18.9819 17.3298 19.044 17.1868C19.0748 17.1152 19.1077 17.0436 19.1426 16.9762C19.1775 16.9089 19.1878 16.8836 19.2125 16.8373C19.272 16.7278 19.2618 16.7446 19.1796 16.8878C19.2956 16.646 19.4497 16.4255 19.6357 16.2351C19.8049 16.2376 19.9733 16.2127 20.1349 16.1614L20.2027 16.1299L20.1719 16.1446C20.2552 16.1142 20.3413 16.0924 20.4287 16.0793C20.5869 16.0393 20.7451 16.0035 20.9033 15.9699C21.2341 15.9004 21.567 15.8393 21.9018 15.7909C22.5583 15.6966 23.2197 15.6431 23.8824 15.6309H24.1536C24.3139 15.6309 24.4762 15.6309 24.6385 15.6477C24.9754 15.6646 25.3144 15.6919 25.6493 15.7298C26.3225 15.808 26.9902 15.9297 27.6484 16.0941C28.2236 16.2372 28.8688 15.6961 28.9283 15.1172C28.9595 14.8187 28.9151 14.5171 28.7996 14.2413C28.6841 13.9655 28.5013 13.7248 28.2688 13.5423ZM16.521 18.7237C16.482 18.6382 16.4323 18.5582 16.3731 18.4858C16.4183 18.3742 16.4635 18.2753 16.5128 18.1553C16.5053 18.3448 16.508 18.5346 16.521 18.7237ZM16.6648 19.7765L16.6012 19.6164C16.6012 19.5996 16.6012 19.5828 16.6012 19.5659C16.6012 19.5491 16.6012 19.4901 16.6012 19.4501L16.6135 19.3701C16.6381 19.5133 16.6648 19.6564 16.6936 19.7912L16.6813 19.7701L16.6648 19.7765Z" fill="white"/>
<path d="M14.1912 21.8398C14.5364 21.8271 14.8836 21.7956 15.2287 21.8103C15.4595 21.8248 15.6874 21.8701 15.9067 21.945C16.1935 22.0326 16.4731 22.1432 16.7429 22.2756C17.2627 22.5388 17.7702 22.823 18.2818 23.1178C18.6639 23.3283 18.6927 23.4778 18.4543 23.8504C18.4086 23.934 18.3681 24.0205 18.3331 24.1094C18.2058 24.0914 18.0814 24.056 17.9633 24.0041C17.1025 23.4946 16.2498 22.9683 15.389 22.4567C15.0952 22.2819 14.7829 22.1366 14.4788 21.9766L14.185 21.884L14.1912 21.8398Z" fill="#8B898A"/>
<path d="M18.6577 22.7072C18.1493 22.3377 17.58 22.0653 16.9771 21.9029C15.9499 21.6587 14.9226 21.4503 13.8501 21.5345C13.5296 21.5597 13.2338 21.6229 13.0283 21.9071C12.5989 22.5388 12.0011 22.7304 11.2964 22.5998C10.6811 22.5023 10.0533 22.5273 9.44728 22.6735C9.29573 22.7321 9.15986 22.8266 9.05075 22.9493C8.89666 23.0883 8.77339 23.263 8.61314 23.3915C8.28647 23.661 7.87556 23.6252 7.46466 23.6399C7.02293 23.661 6.57915 23.6925 6.13537 23.701C5.72447 23.701 5.31356 23.682 4.91498 23.6778C4.83711 23.6852 4.76007 23.7 4.68488 23.722C6.04497 23.9852 7.42562 23.9873 8.80421 24.0378C8.97663 24.0205 9.14484 23.9728 9.30141 23.8968C9.32382 23.8846 9.34357 23.8678 9.35947 23.8476C9.37536 23.8273 9.38706 23.8039 9.39386 23.7789C9.43762 23.5612 9.55003 23.3643 9.71377 23.2186C9.8775 23.0729 10.0835 22.9864 10.2999 22.9725C11.0704 22.9577 11.8408 22.9577 12.6133 22.9725C12.7224 22.9821 12.8323 22.9684 12.9359 22.9321C13.0396 22.8959 13.1347 22.8379 13.2153 22.7619C13.5761 22.4265 13.9939 22.1618 14.448 21.9808L14.1522 21.8861L14.0864 21.8692L14.1583 21.8524C14.5055 21.8398 14.8507 21.8082 15.1856 21.8229C15.4162 21.8383 15.644 21.8836 15.8636 21.9577C16.15 22.0462 16.4295 22.1567 16.6998 22.2882C17.2196 22.5514 17.727 22.8377 18.2407 23.1304C18.4995 23.2757 18.5961 23.3894 18.555 23.5662C18.7362 23.3561 18.8978 23.1291 19.0378 22.8883C18.9803 22.9241 18.892 22.8672 18.6577 22.7072Z" fill="black"/>
<path d="M8.30496 23.6862C7.86118 23.7073 7.4174 23.7389 6.97362 23.7473C6.56272 23.7473 6.15181 23.7283 5.75323 23.7241C5.67525 23.7307 5.59813 23.7455 5.52312 23.7683C5.31264 23.6842 5.09717 23.6139 4.878 23.5578C4.56777 23.4988 4.26164 23.4799 3.93908 23.4483C3.77182 23.4464 3.60493 23.4316 3.43983 23.4041C3.24372 23.3404 3.0516 23.2645 2.86456 23.1767L2.8358 23.1409L2.76389 23.1241L1.98933 22.703C1.46543 22.4209 0.906594 22.1914 0.514178 21.7071C0.479491 21.4983 0.476028 21.2854 0.503906 21.0755C0.537861 21.0051 0.553789 20.927 0.550195 20.8485C0.546601 20.7701 0.523603 20.6939 0.48336 20.627C0.688813 20.3133 1.0463 20.4649 1.30517 20.326C1.5209 20.5828 1.8599 20.4839 2.11671 20.6228C2.45571 20.8018 2.78649 21.0018 3.13165 21.1618C3.33217 21.2386 3.53825 21.2991 3.74801 21.3429C3.87305 21.3671 3.99204 21.4169 4.09793 21.4893C4.20381 21.5616 4.29442 21.655 4.36437 21.764L4.31506 22.1156L4.81637 22.284C4.81637 22.2966 4.83075 22.3156 4.84307 22.324C5.25398 22.6146 5.52929 23.0735 6.0121 23.2588C6.11233 23.284 6.21503 23.2975 6.31823 23.2988C6.82981 23.3599 7.34549 23.4083 7.85296 23.4883C8.01275 23.5298 8.16524 23.5966 8.30496 23.6862Z" fill="#8B898A"/>
<path d="M2.87073 23.1746C3.05776 23.2624 3.24988 23.3383 3.44599 23.402C3.6111 23.4295 3.77798 23.4443 3.94525 23.4462C4.25959 23.4778 4.57393 23.4967 4.88417 23.5557C5.10333 23.6118 5.31881 23.6821 5.52929 23.7662C4.83691 23.8778 4.14659 24.0294 3.44599 23.8526C2.71253 23.6694 1.95851 23.5494 1.27846 23.183C0.978503 23.0209 0.688814 22.8419 0.392962 22.6693C0.37813 22.6623 0.36537 22.6514 0.35598 22.6377C0.175181 22.263 -0.139162 21.9156 0.0683459 21.4503C0.193672 21.166 0.35598 20.8986 0.501852 20.6228C0.542094 20.6897 0.565093 20.7659 0.568687 20.8443C0.572281 20.9228 0.556352 21.0009 0.522397 21.0713C0.494519 21.2811 0.497983 21.4941 0.53267 21.7029C0.62947 22.0587 0.858985 22.3612 1.17163 22.5451C1.42755 22.6912 1.69325 22.8185 1.96673 22.9262C2.23671 23.0117 2.51106 23.082 2.78854 23.1367L2.86045 23.1536L2.87073 23.1746Z" fill="black"/>
<path d="M3.77677 21.3429C3.56702 21.2991 3.36093 21.2386 3.16041 21.1618C2.81525 21.0018 2.48447 20.8018 2.14548 20.6228C1.88866 20.4839 1.54966 20.5828 1.33394 20.326C1.07096 20.4649 0.717576 20.3133 0.512123 20.627C0.58785 20.4811 0.672958 20.3404 0.766885 20.206C0.801812 20.1596 0.902484 20.1533 0.972338 20.1491C1.62362 20.1196 2.16808 20.4081 2.7002 20.7513C3.0392 20.9723 3.41312 21.1429 3.77677 21.3429Z" fill="black"/>
<path d="M4.84513 22.2777L4.34383 22.1093L4.39313 21.7577C4.60474 21.8632 4.76717 22.0501 4.84513 22.2777Z" fill="black"/>
<path d="M2.78238 23.1241C2.5049 23.0693 2.23055 22.999 1.96057 22.9135C1.68708 22.8059 1.42138 22.6786 1.16546 22.5324C0.85282 22.3486 0.623305 22.0461 0.526505 21.6903C0.91892 22.1745 1.47775 22.404 2.00166 22.6861L2.78238 23.1241Z" fill="black"/>
<path d="M5.24782 24.5516L5.15125 24.6126H5.12044C5.07107 24.6289 5.02701 24.6588 4.99306 24.6989L4.93347 24.7389C4.81464 24.8082 4.69183 24.8701 4.56571 24.9242C4.54665 24.9211 4.52724 24.9211 4.50819 24.9242C4.48353 24.9242 4.4712 24.9537 4.4486 24.9663C4.32122 25.0274 4.19384 25.0232 4.07263 25.0779C4.00274 25.1128 3.92983 25.141 3.85485 25.1621L3.7665 25.1832C3.65145 25.2105 3.53434 25.2316 3.41723 25.2484H3.35559C3.28299 25.2532 3.21087 25.2638 3.13987 25.28H3.09056H3.05769C3.03509 25.28 2.99811 25.28 2.9714 25.28H2.91798H2.87278C2.84016 25.2742 2.80679 25.2742 2.77416 25.28C2.77179 25.2868 2.7675 25.2927 2.76183 25.2969C2.74562 25.2918 2.72982 25.2855 2.71458 25.2779H2.69198C2.67045 25.266 2.64676 25.2587 2.62238 25.2565C2.59799 25.2544 2.57343 25.2573 2.55022 25.2653H2.51324C2.48276 25.2676 2.45252 25.2726 2.42284 25.28H2.41051C2.37595 25.2771 2.34337 25.2622 2.31806 25.2379H2.29751C2.27456 25.2274 2.24971 25.222 2.22457 25.222C2.19944 25.222 2.17459 25.2274 2.15164 25.2379H2.12082C2.09106 25.2158 2.05484 25.2046 2.01809 25.2063H1.96262C1.86782 25.1938 1.77383 25.1755 1.68115 25.1516H1.6565C1.63665 25.142 1.61603 25.1343 1.59486 25.1284H1.55582C1.50223 25.1075 1.44635 25.0934 1.38941 25.0863L1.34626 25.0674C1.31502 25.0639 1.28451 25.0554 1.25586 25.0421C1.25586 25.0421 1.21272 25.0274 1.22505 25.0105C1.23737 24.9937 1.19423 25.0105 1.18395 25.0105C1.17163 24.979 1.05246 24.9474 1.00521 24.9432L0.908648 24.8821C0.849066 24.8505 0.824412 24.84 0.807976 24.861L0.727849 24.8189V24.84L0.709358 24.8779C0.758667 24.9011 0.799757 24.9158 0.840848 24.9368C0.884757 24.976 0.935702 25.0061 0.990829 25.0253L1.04425 25.0484L1.2497 25.1326C1.28665 25.1494 1.32521 25.1621 1.36475 25.1705H1.37708C1.44438 25.1937 1.51299 25.2127 1.58253 25.2274L1.62773 25.2379H1.64006C1.68896 25.2785 1.74809 25.3041 1.81059 25.3116C1.99844 25.3655 2.19284 25.3918 2.38791 25.3895H2.49269C2.59336 25.3895 2.69814 25.4021 2.79471 25.3895C2.81089 25.3937 2.82783 25.3937 2.84402 25.3895C2.84402 25.4379 3.02481 25.4274 3.08029 25.4106C3.15621 25.3968 3.23339 25.3919 3.31039 25.3958C3.32888 25.3832 3.35354 25.3769 3.36792 25.3642H3.44394C3.46837 25.3785 3.49465 25.3892 3.52201 25.3958C3.53639 25.3558 3.61036 25.3453 3.65145 25.339L3.72952 25.3263C3.75389 25.3227 3.77794 25.3171 3.80143 25.3095C3.83841 25.3095 3.86717 25.2927 3.87128 25.2695H3.89388C3.93121 25.2768 3.96955 25.2768 4.00688 25.2695C4.05003 25.2695 4.09317 25.2295 4.13837 25.2148L4.19384 25.1874C4.26575 25.1663 4.33355 25.139 4.3993 25.1137C4.47764 25.0984 4.55319 25.0707 4.62324 25.0316C4.66802 25.0156 4.71025 24.9929 4.74857 24.9642C4.84513 24.9179 4.93758 24.8632 5.03415 24.8147L5.3074 24.64L5.24782 24.5516Z" fill="#8B898A"/>
<path d="M5.37109 25.3306L5.29097 25.3706H5.26631C5.22586 25.3765 5.18838 25.3957 5.15948 25.4253L5.11222 25.4569L4.82253 25.5895C4.80762 25.5864 4.79225 25.5864 4.77733 25.5895C4.75679 25.5895 4.74857 25.6148 4.73213 25.6253C4.63763 25.6822 4.52668 25.6653 4.4445 25.7222C4.39405 25.757 4.34037 25.7866 4.28425 25.8106L4.22056 25.8359L3.96374 25.9306H3.91032C3.85631 25.9461 3.80399 25.9673 3.75418 25.9938L3.7172 26.0064H3.69254C3.66999 26.0043 3.6473 26.0043 3.62474 26.0064C3.61154 26.0126 3.59913 26.0203 3.58776 26.0296H3.55283C3.52665 26.027 3.5003 26.0321 3.47682 26.0443C3.47888 26.0497 3.47888 26.0557 3.47682 26.0611H3.43573L3.4234 26.0759C3.405 26.07 3.38542 26.0693 3.36665 26.0737C3.34788 26.0782 3.3306 26.0876 3.31656 26.1011H3.2878C3.26563 26.1108 3.24489 26.1235 3.22616 26.139C3.21352 26.1447 3.19988 26.1476 3.1861 26.1476C3.17232 26.1476 3.15868 26.1447 3.14604 26.139L3.13371 26.1517C3.11417 26.151 3.09477 26.1552 3.07721 26.1641C3.05966 26.1729 3.04449 26.186 3.03304 26.2022H3.00427C2.99131 26.1964 2.97732 26.1934 2.96318 26.1934C2.94904 26.1934 2.93505 26.1964 2.92209 26.2022H2.881C2.81334 26.2196 2.74474 26.233 2.67555 26.2422H2.655C2.63871 26.2391 2.62199 26.2391 2.6057 26.2422H2.57693C2.53395 26.2368 2.49048 26.2368 2.4475 26.2422H2.41257C2.38938 26.2453 2.3659 26.2453 2.34271 26.2422C2.34271 26.2422 2.30779 26.2422 2.31601 26.2169C2.30577 26.2181 2.29543 26.2181 2.28519 26.2169C2.28519 26.1917 2.18863 26.1811 2.15164 26.179L2.0859 26.1327C2.04686 26.1032 2.02837 26.0969 2.01194 26.1138L1.96057 26.0717L1.94619 26.0885L1.91743 26.1201C1.95235 26.1475 1.98112 26.1664 2.01194 26.1875C2.04287 26.224 2.0836 26.2503 2.12904 26.2633L2.17219 26.2801C2.22729 26.2988 2.28358 26.3135 2.34066 26.3243C2.37143 26.3329 2.40332 26.3364 2.43517 26.3348H2.44544C2.50074 26.3411 2.55656 26.3411 2.61186 26.3348H2.64679H2.65706C2.70424 26.352 2.75575 26.352 2.80293 26.3348C2.95331 26.3222 3.10055 26.2838 3.23849 26.2212L3.3104 26.179L3.53229 26.1138C3.54433 26.1177 3.55723 26.1177 3.56927 26.1138C3.58982 26.1601 3.71103 26.1138 3.74801 26.0843C3.80196 26.0577 3.85941 26.0392 3.91854 26.0296C3.91854 26.0169 3.94525 26.0064 3.95552 25.9917L4.01099 25.9727C4.03122 25.9848 4.05356 25.9926 4.07674 25.9959C4.07674 25.9559 4.13221 25.9369 4.16303 25.9264L4.22261 25.9095C4.24052 25.9047 4.25777 25.8977 4.27397 25.8885C4.30068 25.8885 4.31917 25.8674 4.32123 25.8443H4.33561C4.36484 25.8495 4.39472 25.8495 4.42396 25.8443C4.45673 25.8285 4.48832 25.8102 4.51846 25.7895C4.5332 25.783 4.54703 25.7745 4.55955 25.7643L4.7157 25.699C4.77542 25.6849 4.83334 25.6637 4.88828 25.6358C4.92325 25.6243 4.95595 25.6065 4.98484 25.5832C5.13482 25.5158 5.28275 25.4464 5.43067 25.3727L5.37109 25.3306Z" fill="#8B898A"/>
<path d="M5.51902 26.2001L5.48615 26.2275H5.47176C5.44506 26.2275 5.44095 26.2506 5.43067 26.2696L5.41629 26.2927L5.30124 26.3938C5.30124 26.3938 5.28069 26.3938 5.27248 26.3938C5.26426 26.3938 5.27248 26.4127 5.27248 26.4233C5.24166 26.4675 5.17386 26.4527 5.14715 26.4991C5.13485 26.5274 5.11661 26.5525 5.09373 26.5728L5.06908 26.5938L4.9643 26.6738H4.93964C4.91088 26.6738 4.89855 26.7117 4.88006 26.7286L4.86568 26.7412H4.85335C4.85335 26.7412 4.82664 26.7412 4.82048 26.7412C4.81431 26.7412 4.82048 26.7538 4.80815 26.7601H4.79377C4.77939 26.7601 4.76911 26.7601 4.75679 26.7728C4.75764 26.7783 4.75764 26.784 4.75679 26.7896H4.73213V26.8022C4.70953 26.8022 4.68693 26.8022 4.68488 26.8275H4.67255C4.6639 26.8376 4.65821 26.85 4.65612 26.8633C4.64901 26.8678 4.64083 26.8701 4.63249 26.8701C4.62415 26.8701 4.61597 26.8678 4.60886 26.8633C4.60312 26.8636 4.59752 26.8653 4.59252 26.8682C4.58752 26.8711 4.58326 26.8752 4.58007 26.8801C4.57687 26.885 4.57484 26.8906 4.57414 26.8965C4.57343 26.9023 4.57406 26.9083 4.57599 26.9138H4.56161C4.54106 26.9138 4.52873 26.9138 4.52257 26.9265L4.50408 26.937C4.47737 26.958 4.45066 26.9812 4.41984 27.0023C4.41173 27.0004 4.4033 27.0004 4.39519 27.0023C4.3744 27.0109 4.35705 27.0265 4.34588 27.0465H4.32739C4.32001 27.0559 4.31094 27.0637 4.30068 27.0696C4.30068 27.0696 4.28835 27.0823 4.28014 27.0696C4.27192 27.057 4.28014 27.0844 4.28014 27.0907C4.28014 27.097 4.22877 27.1117 4.22261 27.1328C4.20835 27.1347 4.19447 27.139 4.18152 27.1454C4.15892 27.1454 4.1507 27.1623 4.16097 27.1854L4.13221 27.2023L4.14454 27.2212L4.16303 27.2591C4.17639 27.2466 4.19083 27.2353 4.20617 27.2254C4.21702 27.227 4.22806 27.2258 4.23841 27.2222C4.24876 27.2185 4.25813 27.2124 4.26575 27.2044L4.28425 27.1939C4.3068 27.1786 4.33012 27.1645 4.3541 27.1517C4.36643 27.1517 4.38492 27.1517 4.39108 27.1286C4.41332 27.1148 4.43399 27.0986 4.45272 27.0802H4.4671C4.47859 27.0857 4.49147 27.0874 4.50398 27.0852C4.51648 27.0829 4.528 27.0767 4.53695 27.0675C4.59242 27.0233 4.67461 27.0086 4.70953 26.937L4.73008 26.8991L4.79377 26.8675C4.79569 26.8694 4.79827 26.8705 4.80096 26.8705C4.80365 26.8705 4.80623 26.8694 4.80815 26.8675C4.83897 26.9075 4.88417 26.8675 4.89444 26.8401C4.89444 26.8401 4.94375 26.7875 4.9643 26.7917C4.98484 26.7959 4.9643 26.7707 4.9643 26.7601L4.98689 26.7412C5.00333 26.7412 5.01977 26.7622 5.03415 26.7622C5.02898 26.7516 5.02802 26.7393 5.03147 26.7279C5.03491 26.7166 5.04249 26.707 5.05264 26.7012L5.07935 26.6885C5.08769 26.6842 5.09531 26.6785 5.10195 26.6717C5.11633 26.6717 5.12044 26.6549 5.10195 26.6359C5.12044 26.6359 5.13688 26.6359 5.1492 26.6359C5.16153 26.6359 5.16975 26.6022 5.18002 26.5896C5.18519 26.5833 5.18935 26.5762 5.19235 26.5685L5.25604 26.5159C5.28891 26.5159 5.30535 26.4864 5.33 26.4654C5.35466 26.4443 5.36082 26.4464 5.36287 26.4254L5.54162 26.2654L5.51902 26.2001Z" fill="#8B898A"/>
<path d="M43.4374 26.2359C43.1498 25.5011 42.6752 24.8863 42.2047 24.2568C41.6391 23.5338 40.9473 22.9248 40.1646 22.4609C39.1363 21.7829 37.9891 21.3166 36.7869 21.0881C35.7202 20.88 34.6413 20.7443 33.5572 20.6818C33.5476 20.6774 33.5386 20.6718 33.5305 20.6649C32.8011 20.2733 31.9403 20.4754 31.1698 20.5891L29.8652 20.7849L29.6084 20.8228C29.5214 20.7893 29.4272 20.78 29.3355 20.7959C29.2439 20.8118 29.158 20.8524 29.0865 20.9134C28.7802 21.1858 28.5737 21.5572 28.501 21.9661C28.3167 22.2798 28.1107 22.5795 27.8846 22.863C27.8015 22.9082 27.7231 22.9618 27.6504 23.023C27.4922 23.1683 27.3607 23.343 27.2025 23.4904C27.0981 23.585 26.9829 23.6663 26.8594 23.7325L26.7423 23.7936C26.6433 23.7756 26.5412 23.7873 26.4485 23.8273C25.4246 24.2604 24.3464 24.5439 23.2455 24.6694C23.1548 24.6785 23.0675 24.7095 22.9908 24.76C22.8995 24.7258 22.8016 24.7143 22.7052 24.7263C21.2896 24.8926 20.0877 25.7053 18.9454 26.5159C18.8366 26.5964 18.7628 26.7173 18.7399 26.8528C18.7399 26.8528 18.7399 26.8759 18.7235 26.8886C18.6803 27.0065 18.5468 27.0991 18.4769 27.2023C18.1934 27.6613 17.7846 28.0444 17.6551 28.6003C17.575 28.9392 17.5401 29.2909 17.4497 29.6298C17.3651 30.0208 17.4144 30.4297 17.5894 30.7878C17.7188 31.1015 17.8811 31.4026 18.0147 31.7163C18.2201 32.1942 18.3968 32.6848 18.631 33.1543C18.6317 33.2863 18.6703 33.4152 18.742 33.5249C19.6542 34.9481 20.4637 36.5356 21.9347 37.4346C22.5826 37.8358 23.3008 38.1033 24.0488 38.2221C24.581 38.3042 25.2014 38.3568 25.7233 38.1715C25.8105 38.2103 25.9067 38.2227 26.0006 38.2073C26.348 38.1486 26.6741 37.9968 26.9457 37.7673C27.1469 37.5967 27.3066 37.3804 27.4121 37.1357C27.8025 37.2746 28.1805 37.4494 28.5606 37.6115C29.3495 37.9505 30.1857 38.2431 31.0486 38.0936C31.1134 38.0822 31.1763 38.0617 31.2356 38.0326C31.7496 38.1111 32.2703 38.133 32.7888 38.0978C33.9147 38.0326 35.0488 37.9126 36.1644 37.7568C37.2743 37.6304 38.3602 37.3389 39.388 36.8914C40.3844 36.4261 41.2596 35.7419 42.1123 35.0471C42.8293 34.4618 43.6265 33.7838 43.8237 32.8259C43.8237 32.8701 43.8237 32.9143 43.8093 32.9606C44.0424 32.5705 44.1831 32.13 44.2202 31.6742C44.3018 30.8338 44.2963 29.9869 44.2038 29.1477C44.0803 28.1456 43.8224 27.1657 43.4374 26.2359Z" fill="#DABD8F"/>
<path d="M37.9457 18.0353C37.658 17.9005 37.3745 17.751 37.0787 17.6373C36.8795 17.5672 36.6723 17.524 36.4623 17.5089C36.1893 17.4796 35.9145 17.4726 35.6405 17.4879C35.1104 17.5215 34.5845 17.5805 34.0564 17.6352C33.662 17.6773 33.586 17.791 33.6599 18.1911C33.6709 18.2776 33.6757 18.3649 33.6743 18.4521C33.7883 18.4829 33.9057 18.4985 34.0236 18.4985C34.9235 18.3763 35.8213 18.2395 36.7232 18.1174C37.0314 18.0753 37.3396 18.0647 37.656 18.0395L37.9354 18.0668C37.9354 18.0668 37.9436 18.0458 37.9457 18.0353Z" fill="#8B898A"/>
<path d="M33.8798 17.1615C34.4345 17.0329 35.0073 17.0079 35.5706 17.0878C36.526 17.2521 37.4649 17.4479 38.336 17.9026C38.599 18.0395 38.8312 18.1995 38.8969 18.509C39.0428 19.1975 39.4743 19.5617 40.1296 19.7154C40.6821 19.8551 41.2031 20.1025 41.6644 20.4439C41.7733 20.548 41.8564 20.6772 41.9068 20.8207C41.989 20.9913 42.0321 21.1829 42.1225 21.3492C42.3157 21.6966 42.6752 21.8145 43.0039 21.9703C43.3696 22.1472 43.7333 22.3345 44.1052 22.4988C44.4462 22.6504 44.7975 22.7767 45.1324 22.9198C45.1965 22.9524 45.2565 22.9927 45.3112 23.0399C44.0785 22.7704 42.9074 22.2756 41.7281 21.825C41.5886 21.7475 41.4629 21.6464 41.3562 21.5261C41.3409 21.5081 41.3297 21.4869 41.3233 21.464C41.3169 21.441 41.3155 21.417 41.3192 21.3934C41.3569 21.1942 41.3294 20.9878 41.241 20.8063C41.1526 20.6247 41.0082 20.4781 40.8302 20.3891C40.1851 20.0986 39.5338 19.8228 38.8805 19.547C38.7854 19.5169 38.6974 19.4672 38.6218 19.4009C38.5462 19.3346 38.4846 19.2532 38.4408 19.1617C38.2504 18.7492 37.9879 18.376 37.6663 18.0605L37.9457 18.0879H38.0073L37.9518 18.0479C37.6642 17.9132 37.3827 17.7616 37.0869 17.65C36.8876 17.5801 36.6805 17.5362 36.4705 17.5194C36.1976 17.4902 35.9228 17.4832 35.6487 17.4984C35.1207 17.5342 34.5927 17.591 34.0667 17.6458C33.7976 17.6752 33.6764 17.7363 33.6558 17.9005C33.5774 17.6568 33.519 17.4068 33.4812 17.1531C33.5325 17.2289 33.6271 17.212 33.8798 17.1615Z" fill="black"/>
<path d="M42.2787 21.7092C42.6444 21.8882 43.008 22.0735 43.3799 22.2398C43.721 22.3914 44.0723 22.5177 44.4175 22.6609C44.4807 22.6949 44.5405 22.7351 44.5962 22.7809C44.8026 22.7845 45.0085 22.8021 45.2126 22.8335C45.494 22.8967 45.7673 22.9935 46.0344 23.0799C46.176 23.1377 46.3216 23.1848 46.4699 23.2209C46.6571 23.2385 46.8451 23.2434 47.0329 23.2357L47.0699 23.2146L47.1356 23.2251L47.9328 23.1493C48.471 23.0988 49.0217 23.1072 49.5189 22.8377C49.6208 22.6741 49.697 22.495 49.7449 22.3072C49.74 22.2351 49.7533 22.163 49.7836 22.0977C49.8138 22.0324 49.8599 21.9762 49.9174 21.9345C49.8537 21.5976 49.5065 21.5955 49.3237 21.385C49.0525 21.5218 48.7998 21.3176 48.5368 21.3408C48.1896 21.3724 47.8424 21.4208 47.4951 21.4334C47.2985 21.425 47.1027 21.4011 46.9096 21.3618C46.7962 21.3369 46.6791 21.3354 46.5652 21.3575C46.4512 21.3795 46.3427 21.4247 46.246 21.4903C46.2172 21.6082 46.1864 21.7261 46.1679 21.804L45.6872 21.764C45.6748 21.764 45.6646 21.7871 45.6502 21.7892C45.2084 21.8882 44.816 22.1745 44.3435 22.1577C44.2507 22.1423 44.1598 22.1169 44.0723 22.0819C43.6203 21.9492 43.1704 21.8061 42.7122 21.6903C42.5676 21.6749 42.4215 21.6813 42.2787 21.7092Z" fill="#8B898A"/>
<path d="M47.037 23.2314C46.8492 23.2392 46.6612 23.2343 46.474 23.2167C46.3257 23.1806 46.1801 23.1334 46.0385 23.0756C45.7632 22.9893 45.4899 22.8925 45.2167 22.8293C45.0126 22.7978 44.8067 22.7803 44.6003 22.7767C45.1468 23.1178 45.6789 23.4946 46.3282 23.5978C47.0103 23.7052 47.6862 23.8778 48.3827 23.8083C48.6929 23.7789 48.9991 23.7304 49.3072 23.6925C49.3218 23.6922 49.336 23.6879 49.3483 23.6799C49.6298 23.4273 50.014 23.2462 49.9996 22.7809C49.9893 22.4945 49.9462 22.2103 49.9174 21.9261C49.8599 21.9678 49.8138 22.024 49.7836 22.0893C49.7533 22.1545 49.74 22.2267 49.7449 22.2987C49.697 22.4866 49.6208 22.6656 49.5189 22.8293C49.3158 23.0912 49.0209 23.2612 48.697 23.303C48.431 23.3328 48.1633 23.3447 47.8958 23.3388C47.6412 23.3117 47.3881 23.2709 47.1377 23.2167L47.0719 23.2062L47.037 23.2314Z" fill="black"/>
<path d="M46.9117 21.3618C47.1047 21.4011 47.3005 21.425 47.4972 21.4334C47.8444 21.4208 48.1916 21.3724 48.5388 21.3408C48.8018 21.3176 49.0545 21.5218 49.3257 21.385C49.5004 21.5955 49.8558 21.5955 49.9195 21.9345C49.9064 21.7816 49.8838 21.6297 49.8517 21.4797C49.8394 21.4271 49.7551 21.385 49.6955 21.3576C49.1573 21.0987 48.5984 21.1471 48.0314 21.2418C47.6513 21.3071 47.2753 21.3239 46.9117 21.3618Z" fill="black"/>
<path d="M45.6789 21.764L46.1597 21.804C46.1782 21.7261 46.209 21.6082 46.2378 21.4903C46.1316 21.4959 46.0276 21.5231 45.9317 21.57C45.8358 21.617 45.7499 21.6829 45.6789 21.764Z" fill="black"/>
<path d="M47.1294 23.2209C47.3799 23.2751 47.6329 23.3159 47.8875 23.343C48.1551 23.3489 48.4228 23.337 48.6888 23.3072C49.0126 23.2654 49.3076 23.0954 49.5106 22.8335C49.0134 23.103 48.4628 23.0946 47.9245 23.1451L47.1294 23.2209Z" fill="black"/>
<path d="M44.551 29.0656C44.3188 28.0129 44.0908 26.9602 43.5936 25.998C43.0402 24.9838 42.3484 24.0558 41.5391 23.242C41.2555 22.9388 40.8734 22.7367 40.5549 22.4651C39.7331 21.7598 38.7182 21.4124 37.7484 20.9913C37.4178 20.8499 37.0734 20.7447 36.7212 20.6776C35.8357 20.5155 34.942 20.3912 34.0503 20.2375C33.8197 20.1813 33.5926 20.111 33.3702 20.027C33.699 19.3385 33.6866 19.3385 33.7442 18.29C33.775 17.8052 33.6618 17.3222 33.4195 16.9047C32.7785 15.8288 31.9156 15.0098 30.6726 14.6519C30.1593 14.4886 29.6191 14.4334 29.0845 14.4897C28.8179 14.5187 28.5573 14.5897 28.312 14.7003C28.0485 14.8533 27.7971 15.0272 27.56 15.2203C27.3 14.8448 26.9448 14.5492 26.5328 14.3655C26.2842 14.2581 26.0376 14.155 25.7829 14.0539C25.3392 13.8583 24.8782 13.7067 24.4063 13.6012C23.8 13.5324 23.1893 13.512 22.5798 13.5402C22.2795 13.5421 21.9814 13.5925 21.6964 13.6897C21.3028 13.8255 20.9263 14.0086 20.5746 14.235C20.2884 14.4603 20.026 14.7157 19.7918 14.9971C18.933 15.8919 18.3537 16.9783 17.8318 18.0942C17.7624 18.2483 17.7239 18.4151 17.7188 18.5848C17.7044 18.9006 17.7188 19.2164 17.7188 19.5343C17.7188 20.286 17.7024 21.0418 18.1112 21.7198L17.7722 21.764C17.2862 21.8535 16.7958 21.916 16.3032 21.9514C15.4506 21.9703 15.3232 22.025 14.9555 21.2881C14.9226 21.225 14.9062 21.1492 14.8692 21.0776C14.7767 20.9197 14.8199 20.8186 14.9596 20.7113C15.0738 20.6139 15.1784 20.5053 15.2719 20.387L15.2061 20.3091L14.7377 20.5302C14.7283 20.3552 14.7492 20.1798 14.7993 20.0123C14.8651 19.888 15.0315 19.8207 15.1486 19.7322C15.0668 19.699 14.9756 19.7003 14.8947 19.7358C14.8139 19.7713 14.75 19.8381 14.7172 19.9217C14.644 20.1081 14.5836 20.2994 14.5364 20.4944C14.5179 20.5576 14.5138 20.6586 14.4727 20.6797C13.9405 20.9492 13.4454 21.3113 12.829 21.3913C12.0935 21.4839 11.699 21.1997 11.5963 20.4502C11.5963 20.3933 11.5778 20.3386 11.5717 20.2818C11.4131 19.3603 11.6129 18.4118 12.1284 17.6394C12.4458 17.1973 12.8189 16.8002 13.2379 16.4583C13.4686 16.2497 13.7399 16.0938 14.0339 16.0008C14.3279 15.9079 14.6379 15.8801 14.9432 15.9193C14.9575 15.9004 14.9719 15.8835 14.9842 15.8646C14.6961 15.7418 14.3743 15.7298 14.0782 15.8309C13.4475 16.0267 12.9996 16.4815 12.5496 16.9362C12.1332 17.3266 11.8011 17.8019 11.5746 18.3317C11.3482 18.8615 11.2324 19.4339 11.2347 20.0123C11.2162 20.2823 11.2654 20.5527 11.3776 20.7977C11.4898 21.0428 11.6613 21.2544 11.8757 21.4124C12.1384 21.6291 12.4614 21.7546 12.7982 21.7709C13.135 21.7872 13.4681 21.6933 13.7495 21.5029C14.0207 21.3387 14.3001 21.1934 14.5713 21.0397C15.0151 22.1429 15.7054 22.4145 16.7224 22.303C17.2155 22.2461 17.7024 22.1451 18.1975 22.0587L18.2982 22.0419C18.3402 22.12 18.3694 22.2046 18.3845 22.2924C18.5429 22.5226 18.6804 22.7672 18.7954 23.023C18.8778 23.0959 18.9473 23.1828 19.0008 23.2799C19.0562 23.3543 19.1166 23.4247 19.1816 23.4904C19.4124 23.8596 19.739 24.1556 20.1247 24.3452C20.3938 24.4694 20.3897 24.7663 20.1493 24.9389C20.0795 24.9916 19.9911 25.0211 19.9274 25.08C19.3419 25.6127 18.7358 26.1327 18.1893 26.6928C17.808 27.0758 17.4809 27.5117 17.2175 27.9876C16.8448 28.7179 16.6629 29.5346 16.6895 30.3583C16.6632 30.7357 16.7515 31.1123 16.9422 31.4363C17.1365 31.7244 17.3141 32.0239 17.4743 32.3332C17.7353 32.8364 17.9119 33.4006 18.2366 33.8554C18.9721 34.8913 19.7364 35.9103 20.5664 36.8683C20.9917 37.3609 21.5772 37.7104 22.1011 38.1105C22.3649 38.3213 22.6477 38.506 22.9455 38.6621C23.8495 39.1084 24.7741 39.0663 25.7274 38.8032C26.4177 38.6116 26.9457 38.2705 27.2477 37.5904C27.3361 37.3799 27.5128 37.3609 27.7203 37.4473C28.2668 37.6746 28.8051 37.9336 29.3639 38.1042C30.3645 38.4073 31.402 38.3968 32.4457 38.4136C34.0667 38.4431 35.6343 38.0852 37.2184 37.841C37.273 37.8276 37.3266 37.81 37.3786 37.7883C37.7895 37.6662 38.2004 37.5483 38.5929 37.422C38.8956 37.3485 39.1918 37.2492 39.4784 37.1251C40.4348 36.6176 41.353 36.0377 42.2253 35.3903C42.6777 35.0273 43.065 34.5863 43.3696 34.087C43.871 33.4104 44.2407 32.6413 44.4585 31.8216C44.664 30.9078 44.5079 30.0004 44.5633 29.0845C44.56 29.0777 44.5558 29.0714 44.551 29.0656ZM19.9295 23.5241C19.3131 23.1451 19.1364 22.4714 18.8611 21.8861C18.6224 21.3788 18.4451 20.8436 18.3331 20.2923C18.1749 19.4943 18.3557 18.7006 18.516 17.9153C18.6006 17.5774 18.7539 17.2617 18.9659 16.9889C19.007 16.9278 19.1508 16.8457 18.9659 16.7636C18.9669 16.7221 18.9782 16.6815 18.9988 16.6457C19.3722 16.0768 19.7783 15.5312 20.2151 15.0119C20.4924 14.7129 20.9218 14.5571 21.2834 14.3381C21.3184 14.3171 21.3595 14.3108 21.3944 14.2939C22.473 13.7802 23.5866 13.8539 24.7227 14.0371C25.6144 14.1823 26.3766 14.6076 27.1388 15.0498C27.2719 15.1517 27.386 15.2772 27.4758 15.4203C27.9031 15.9551 28.3264 16.4962 28.7804 17.071C28.77 16.9888 28.7479 16.9086 28.7147 16.8331C28.4832 16.513 28.2456 16.1972 28.0018 15.8856C27.6628 15.4645 27.5744 15.3256 28.1168 15.115C28.916 14.7761 29.809 14.7506 30.6254 15.0435C30.7528 15.0898 30.8884 15.1108 31.0178 15.1466C31.4483 15.2555 31.8518 15.4554 32.2024 15.7335C32.553 16.0116 32.8431 16.3617 33.0538 16.7615C33.3588 17.3216 33.5013 17.9593 33.4647 18.5995C33.4524 18.7701 33.4791 18.9448 33.4647 19.1153C33.4298 19.4248 33.3764 19.7322 33.3291 20.0565C31.9711 19.9049 30.687 20.0249 29.3844 20.1765L29.4235 19.9659C29.4567 19.8534 29.4672 19.735 29.4545 19.6181C29.4418 19.5013 29.4061 19.3882 29.3495 19.2859C29.2201 19.0753 29.2694 18.7448 29.2201 18.4732C29.1852 18.3464 29.1377 18.2237 29.0783 18.1069L29.0228 18.1342C29.068 18.4964 29.1256 18.8585 29.1502 19.2227C29.1752 19.3411 29.1693 19.464 29.1333 19.5793C29.0972 19.6946 29.0322 19.7982 28.9448 19.8796C28.8544 19.9554 28.8811 20.1638 28.8297 20.3007C28.7014 20.6885 28.5476 21.0669 28.3695 21.4334C28.1866 21.7367 27.9805 22.0247 27.7532 22.2945C27.6011 22.5051 27.4326 22.6819 27.2806 22.8819C26.9839 23.2337 26.5955 23.4915 26.1609 23.6252C25.4623 23.8968 24.7597 24.1557 24.0468 24.3831C23.7395 24.4694 23.4223 24.5126 23.1037 24.5115C22.7141 24.5306 22.3235 24.5137 21.9368 24.461C21.5391 24.4074 21.1501 24.2998 20.7801 24.141C20.4719 23.9978 20.2274 23.7094 19.9295 23.5241ZM44.1956 29.1603C44.288 29.9995 44.2935 30.8464 44.212 31.6868C44.1749 32.1426 44.0341 32.5832 43.8011 32.9732C43.7579 33.0553 43.7148 33.1375 43.6737 33.2217L43.6388 33.2785C43.3674 33.7183 43.0631 34.1357 42.7286 34.527C42.3113 34.9136 41.8648 35.2656 41.3932 35.5798C41.0511 35.8478 40.6875 36.0859 40.3063 36.2914C39.7227 36.585 39.1224 36.8423 38.5086 37.062C38.0002 37.2241 37.4829 37.3555 36.9595 37.4557C36.4494 37.5803 35.9329 37.6759 35.4124 37.742C34.3852 37.8473 33.3394 37.9147 32.2998 37.9841C32.0101 38.0052 31.7143 37.9841 31.4225 37.9736C30.6184 38.0001 29.8147 37.9058 29.0372 37.6936C28.9482 37.6627 28.8616 37.6247 28.7784 37.5799L28.7147 37.5462C28.2688 37.3588 27.821 37.1757 27.3772 36.9799C27.1491 37.5041 26.691 37.7104 26.2266 37.8704C26.0832 37.9005 25.9342 37.8828 25.8013 37.8199C25.5502 38.0154 25.2455 38.1251 24.9302 38.1336C23.9709 38.1057 23.0331 37.836 22.1998 37.3483C21.7252 37.0683 21.343 36.6219 20.9198 36.2514L20.891 36.2072H20.9465L21.2999 36.3061L21.3266 36.243C21.2701 36.1991 21.2079 36.1636 21.1417 36.1377C20.7837 36.0549 20.4649 35.8472 20.2397 35.5503C19.7876 35.043 19.3888 34.4883 19.0502 33.8954C18.5776 33.2259 18.329 32.4469 18.0065 31.7016C17.8729 31.3879 17.7106 31.0868 17.5812 30.7731C17.4062 30.415 17.3569 30.0061 17.4415 29.6151C17.5298 29.2761 17.5647 28.9245 17.6469 28.5855C17.7784 28.0339 18.1873 27.6465 18.4687 27.1875C18.5386 27.0738 18.6742 26.9917 18.7153 26.8738C18.7975 26.6633 19.007 26.6443 19.1467 26.5222L19.3234 26.259C19.8576 25.9685 20.3897 25.6758 20.9259 25.3895C21.1337 25.2591 21.3549 25.1524 21.5854 25.0716C21.888 24.9727 22.2049 24.9278 22.5223 24.9389C23.3441 25.0168 24.1064 24.8105 24.883 24.6C25.3777 24.4513 25.8562 24.251 26.3109 24.002C26.4917 23.9115 26.6745 23.8294 26.8512 23.7304C26.972 23.6671 27.0851 23.5893 27.1882 23.4988C27.3464 23.3515 27.4778 23.1767 27.636 23.0314C27.7466 22.9443 27.8642 22.8669 27.9874 22.7998C28.3079 22.2356 28.6366 21.6734 28.9448 21.1008C29.0578 20.8902 29.2447 20.9723 29.3886 20.9492C30.0871 20.8439 30.7918 20.7513 31.4965 20.6965C32.0142 20.6544 32.5382 20.6776 33.06 20.6734C34.3126 20.7021 35.5603 20.843 36.789 21.0944C37.9912 21.323 39.1384 21.7892 40.1666 22.4672C40.9494 22.9312 41.6411 23.5401 42.2068 24.2631C42.6711 24.8947 43.1457 25.5074 43.4395 26.2422C43.8215 27.1746 44.0759 28.1566 44.1956 29.1603Z" fill="black"/>
<path d="M33.0538 16.7615C32.8431 16.3642 32.5539 16.0162 32.2048 15.7397C31.8557 15.4631 31.4543 15.264 31.026 15.155C30.8966 15.1193 30.761 15.0982 30.6336 15.0519C29.8172 14.759 28.9242 14.7845 28.125 15.1235C27.5826 15.334 27.671 15.4624 28.01 15.8941C28.2524 16.2057 28.49 16.5215 28.7229 16.8415C28.7561 16.917 28.7783 16.9972 28.7886 17.0794C28.3346 16.5046 27.9114 15.9635 27.484 15.4288C27.3942 15.2856 27.2801 15.1601 27.1471 15.0582C26.3848 14.6161 25.6226 14.1908 24.7309 14.0455C23.5948 13.8623 22.4812 13.7886 21.4026 14.3024C21.3677 14.3192 21.3266 14.3255 21.2917 14.3466C20.9301 14.5571 20.5007 14.7213 20.2233 15.0203C19.7865 15.5396 19.3804 16.0852 19.007 16.6541C18.9866 16.6864 18.9739 16.7232 18.97 16.7615C19.1467 16.8436 19.0029 16.9257 18.97 16.9868C18.758 17.2596 18.6047 17.5753 18.5201 17.9132C18.3598 18.6985 18.179 19.4922 18.3372 20.2902C18.4492 20.8415 18.6265 21.3767 18.8653 21.884C19.1406 22.4756 19.3275 23.1472 19.9336 23.522C20.2315 23.7073 20.476 23.9957 20.7883 24.1389C21.1583 24.2977 21.5473 24.4053 21.945 24.4589C22.3317 24.5116 22.7223 24.5285 23.112 24.5094C23.4305 24.5105 23.7478 24.4673 24.055 24.381C24.7679 24.1536 25.4706 23.8947 26.1691 23.6231C26.5984 23.4827 26.9802 23.2206 27.2703 22.8672C27.4224 22.6567 27.5908 22.4798 27.7429 22.2798C27.9702 22.0099 28.1763 21.722 28.3592 21.4187C28.5373 21.0522 28.6911 20.6737 28.8195 20.286C28.8708 20.1491 28.8441 19.9407 28.9345 19.8649C29.0219 19.7834 29.0869 19.6799 29.123 19.5646C29.1591 19.4493 29.1649 19.3263 29.14 19.208C29.1153 18.8437 29.0578 18.4816 29.0126 18.1195L29.0681 18.0921C29.1274 18.2089 29.1749 18.3317 29.2098 18.4585C29.2591 18.7301 29.2098 19.0564 29.3393 19.2711C29.3958 19.3735 29.4315 19.4865 29.4443 19.6034C29.457 19.7203 29.4464 19.8386 29.4132 19.9512L29.3742 20.1617C30.6768 20.0102 31.9608 19.8901 33.3189 20.0417C33.3661 19.7175 33.4195 19.4101 33.4545 19.1006C33.4709 18.9301 33.4442 18.7553 33.4545 18.5848C33.4914 17.9505 33.3525 17.3184 33.0538 16.7615Z" fill="white"/>
<path d="M26.3068 24.0041C26.3971 24.0763 26.5029 24.1255 26.6153 24.1478C26.7278 24.1701 26.8438 24.1649 26.9539 24.1326C27.0614 24.1031 27.1757 24.1159 27.2744 24.1684C27.3238 24.2021 27.2744 24.36 27.297 24.4589C27.3041 24.5472 27.3263 24.6334 27.3628 24.7137C27.3856 24.7488 27.4005 24.7887 27.4064 24.8305C27.4122 24.8723 27.409 24.9149 27.3968 24.9552C27.3846 24.9956 27.3638 25.0326 27.3359 25.0636C27.3079 25.0947 27.2736 25.119 27.2354 25.1348C26.9478 25.3074 26.6684 25.4969 26.3663 25.6422C25.6637 25.979 24.9569 26.3075 24.2399 26.617C23.5432 26.8971 22.8088 27.0661 22.0621 27.1181C21.7293 27.1475 21.3985 27.1981 21.0698 27.2486C21.004 27.2486 20.9485 27.3286 20.8828 27.3518C20.6417 27.4678 20.3846 27.5452 20.1206 27.5813C19.9562 27.5813 19.7877 27.3707 19.6295 27.2549C19.5447 27.1884 19.4712 27.108 19.4118 27.017C19.3111 26.857 19.2289 26.6865 19.1385 26.5201C19.1981 26.4338 19.2556 26.3454 19.3152 26.2569C19.8494 25.9664 20.3815 25.6737 20.9177 25.3874C21.1257 25.2574 21.3468 25.1508 21.5772 25.0695C21.88 24.9717 22.1968 24.9269 22.5141 24.9368C23.3359 25.0147 24.1002 24.8084 24.8748 24.5979C25.3707 24.4508 25.8506 24.2519 26.3068 24.0041Z" fill="#DABD8F"/>
<path d="M33.0621 20.6649C32.873 20.7386 32.684 20.8123 32.495 20.8902C32.433 20.9228 32.3726 20.9586 32.3142 20.9976C32.3529 21.0172 32.3869 21.0451 32.414 21.0794C32.4411 21.1138 32.4606 21.1538 32.4712 21.1966C32.4817 21.2395 32.4831 21.2841 32.4751 21.3276C32.4672 21.371 32.4501 21.4121 32.4252 21.4482C32.4055 21.5667 32.4281 21.6885 32.4888 21.7913C32.5084 21.8182 32.5208 21.8497 32.5249 21.8829C32.529 21.9161 32.5246 21.9499 32.5122 21.9808C32.4998 22.0118 32.4797 22.0389 32.4541 22.0596C32.4284 22.0803 32.3979 22.0937 32.3656 22.0987C31.8663 22.2798 31.3732 22.4798 30.8617 22.6251C30.2699 22.7938 29.6698 22.9301 29.0639 23.0335C28.6941 23.0967 28.2894 23.1409 27.9894 22.7914C28.3099 22.2272 28.6407 21.665 28.9468 21.0923C29.0598 20.8818 29.2468 20.9639 29.3906 20.9407C30.0912 20.8355 30.7939 20.7428 31.4986 20.6881C32.0184 20.646 32.5402 20.6692 33.0621 20.6649Z" fill="#DABD8F"/>
<path d="M19.3214 26.2717C19.2618 26.3601 19.2042 26.4485 19.1447 26.5349L19.3214 26.2717Z" fill="black"/>
<path d="M15.4897 26.4464L15.4486 26.5012L15.4609 26.4254L15.4897 26.4464Z" fill="#8B898A"/>
<path d="M43.3368 31.8258C43.0231 31.9108 42.7144 32.0142 42.4122 32.1353C42.2171 32.2111 42.0404 32.31 41.8246 32.1963C41.7503 32.1722 41.67 32.1767 41.5986 32.209C41.386 32.3158 41.1609 32.3943 40.9289 32.4427C40.4954 32.4658 40.144 32.6764 39.766 32.8427C39.3797 33.0346 38.9816 33.2006 38.5744 33.3396C37.6991 33.588 36.8588 33.9459 35.9405 34.0554C35.1495 34.1502 34.379 34.4133 33.5901 34.5165C32.6993 34.6399 31.8016 34.7025 30.9027 34.7039C30.2828 34.7138 29.6659 34.6119 29.0804 34.4028C28.4291 34.146 27.8374 33.7143 27.2457 33.3185C26.9293 33.108 26.6889 32.7753 26.3746 32.5627C25.8318 32.2279 25.3397 31.8137 24.9138 31.3331C24.807 31.1731 24.696 31.011 24.581 30.8531C24.4806 30.6662 24.3508 30.4976 24.1968 30.3541C23.9154 30.0049 23.6076 29.679 23.2763 29.3793C22.7988 28.9284 22.1664 28.6899 21.5177 28.7161C21.4891 28.6986 21.4634 28.6765 21.4416 28.6508C21.4231 28.6276 21.3245 28.6698 21.267 28.6929C21.2095 28.7161 21.1745 28.775 21.1499 28.7645C21.0711 28.7257 20.9817 28.7156 20.8965 28.7359C20.8114 28.7562 20.7355 28.8056 20.6815 28.8761C20.5653 28.9109 20.453 28.9582 20.3466 29.0172C19.6562 29.4109 19.2946 30.1857 19.0748 30.9331C18.8078 31.7594 18.775 32.6465 18.9803 33.4912C19.0149 33.6182 19.056 33.7433 19.1036 33.8659C19.0839 33.8788 19.0633 33.8901 19.0419 33.8996C19.3806 34.4925 19.7794 35.0472 20.2315 35.5545C20.2808 35.6134 20.3301 35.6682 20.3815 35.7187C20.4586 35.8463 20.5437 35.9687 20.6363 36.0851C20.8879 36.4087 21.2046 36.673 21.5649 36.8598C21.7573 37.0447 21.968 37.2084 22.1936 37.3483C23.0286 37.8353 23.9678 38.1042 24.9282 38.1315C25.0962 38.1345 25.2629 38.1008 25.4172 38.0326C26.2225 37.9589 26.9971 37.7083 27.447 36.9988C27.8579 37.182 28.2914 37.3546 28.7147 37.5336L28.7763 37.5673H28.8318C29.0288 37.6806 29.2351 37.7764 29.4481 37.8536C29.8249 37.9736 30.2187 38.0284 30.6131 38.0157C30.8683 38.0094 31.1229 37.9862 31.3753 37.9462L31.4205 37.9589C31.7143 37.9589 32.0081 37.9905 32.2998 37.9694C33.3271 37.8999 34.377 37.8326 35.4124 37.7273C35.9322 37.6612 36.448 37.5656 36.9575 37.4409C37.4818 37.3421 37.9998 37.2106 38.5086 37.0472C39.1217 36.8276 39.7214 36.5702 40.3043 36.2766C40.6858 36.0707 41.05 35.8326 41.3932 35.565C41.8641 35.2469 42.31 34.8914 42.7266 34.5018C43.0618 34.1105 43.3668 33.693 43.6388 33.2533L43.6717 33.1964L43.799 32.948C43.8216 32.7374 43.8463 32.5143 43.8627 32.2974C43.8685 32.2279 43.8583 32.158 43.8329 32.0933C43.8074 32.0287 43.7675 31.971 43.7163 31.9251C43.6651 31.8792 43.604 31.8463 43.5381 31.829C43.4722 31.8118 43.4032 31.8107 43.3368 31.8258Z" fill="#DABD8F"/>
<path d="M23.8167 19.4396C23.8578 19.1701 23.8824 18.9722 23.9214 18.7764C23.9266 18.7407 23.9412 18.7072 23.9636 18.6794C23.986 18.6516 24.0154 18.6306 24.0486 18.6187C24.0818 18.6068 24.1176 18.6044 24.152 18.6118C24.1864 18.6191 24.2183 18.636 24.244 18.6606C24.5173 18.9469 24.8234 19.2396 24.846 19.6733C24.8505 19.756 24.8368 19.8387 24.8058 19.9153C24.7749 19.9918 24.7275 20.0602 24.6672 20.1154C24.5794 20.1708 24.4744 20.1903 24.3731 20.17C24.2719 20.1497 24.1818 20.0912 24.1207 20.0059C24.0055 19.8253 23.9039 19.636 23.8167 19.4396Z" fill="black"/>
<path d="M29.7111 18.4058C29.6541 18.5748 29.5854 18.7394 29.5057 18.8985C29.4831 18.9364 29.3413 18.9385 29.2797 18.8985C29.1221 18.8046 28.9954 18.6647 28.9156 18.4968C28.8358 18.3288 28.8067 18.1403 28.8318 17.9553C28.8376 17.9117 28.853 17.8702 28.8768 17.8337C28.9007 17.7972 28.9324 17.7668 28.9694 17.7447C29.0101 17.738 29.0517 17.7412 29.091 17.754C29.1302 17.7668 29.166 17.7888 29.1954 17.8184C29.3721 18.0016 29.5324 18.1995 29.7111 18.4058Z" fill="black"/>
<path d="M32.1498 12.8117C32.5217 12.5738 32.6861 12.5843 32.9162 12.9423C33.2285 13.4307 33.5572 13.9129 33.7072 14.4918C33.7544 14.6708 33.8366 14.8392 33.8941 15.0161C34.0873 15.614 34.0318 15.9046 33.4648 16.4436C33.4268 16.3493 33.3939 16.253 33.3661 16.1551C33.2901 15.7972 33.2203 15.4393 33.1607 15.0814C33.0559 14.5318 32.7128 14.1318 32.3594 13.7444C32.2567 13.66 32.1854 13.542 32.1574 13.4102C32.1293 13.2784 32.1463 13.1407 32.2053 13.0202C32.2135 12.9717 32.1704 12.8938 32.1498 12.8117Z" fill="black"/>
<path d="M16.8292 16.4373C16.9854 15.8962 17.2668 15.2961 17.2401 15.2793C17.3878 14.9386 17.558 14.6087 17.7496 14.2918C18.1133 13.6602 18.5119 13.0665 18.8878 12.4496C19.0345 12.2791 19.1946 12.1214 19.3666 11.978C19.4508 11.858 19.2392 11.3611 19.1611 11.2979C18.7173 10.8874 18.6043 10.9042 18.2201 11.3295C17.3737 12.2601 17.0655 13.4833 16.7409 14.6982C16.6053 15.1993 16.5108 16.0246 16.7039 16.6204" fill="black"/>
<path d="M26.9375 12.6012C26.8344 12.4555 26.7151 12.3227 26.5821 12.2054C25.7993 11.5169 24.8213 11.4032 23.8578 11.2705C22.925 11.1442 22.0087 11.3379 21.117 11.5758C20.7061 11.6874 20.2788 11.818 19.8596 11.9401C19.837 11.9274 18.6557 12.5443 18.5365 12.6117C17.9407 12.9444 17.4209 13.4244 16.8744 13.8476C16.4204 14.1722 16.0184 14.5671 15.6828 15.0182C15.4979 15.2814 15.2719 15.5172 15.0664 15.7635C15.0274 15.734 14.9575 15.7467 14.9863 15.7509C14.6247 16.3825 14.2651 16.9931 13.9097 17.61C13.8378 17.7384 13.733 17.8731 13.8275 18.0311C13.9118 17.8479 13.9857 17.6731 14.0741 17.5068C14.1624 17.3405 14.296 17.1636 14.3761 16.9783C14.7623 16.0751 15.4547 15.4035 16.1101 14.7424C16.7655 14.0813 17.614 13.5402 18.3845 12.9591C18.5105 12.876 18.6439 12.8055 18.7831 12.7486C18.7831 12.7486 19.798 12.2538 19.9747 12.2285C20.158 12.1737 20.3384 12.109 20.515 12.0348C21.982 11.6306 23.4592 11.3569 24.9775 11.7169C25.2907 11.7772 25.5986 11.8638 25.8979 11.9759C26.4198 12.1864 26.8224 12.5464 26.8594 13.2117C26.9053 13.1782 26.9439 13.1353 26.9729 13.0858C27.0019 13.0362 27.0206 12.9811 27.028 12.9238C27.0353 12.8666 27.031 12.8084 27.0155 12.7529C26.9999 12.6974 26.9734 12.6457 26.9375 12.6012Z" fill="black"/>
<path d="M27.0135 36.8809C26.8571 36.8244 26.7059 36.754 26.5615 36.6704C26.1753 36.384 25.8013 36.0787 25.4213 35.7819C25.074 35.5355 24.7165 35.3187 24.5358 34.8765C24.355 34.4344 24.1002 34.0344 23.8804 33.6133C23.8654 33.5738 23.8543 33.5329 23.8475 33.4912C23.4042 32.7124 23.1901 31.8189 23.2311 30.9183C23.2476 30.3141 23.5681 29.8846 24.0242 29.5435C24.2091 29.4824 24.3919 29.4193 24.5789 29.3624C24.7659 29.3056 24.9035 29.2761 25.0617 29.234C24.9898 28.7413 24.8727 28.6613 24.4782 28.7961C24.244 28.8761 24.0139 28.9645 23.7653 29.0529C23.6975 28.9182 23.6174 28.935 23.492 29.0382C23.2866 29.2087 23.0565 29.3435 22.8367 29.493L21.8464 30.4046L21.23 30.9836C21.9183 30.9015 22.2018 31.0784 22.4093 31.7058C22.4874 31.9437 22.5161 32.1984 22.5798 32.4427C22.6094 32.5456 22.6508 32.6445 22.7031 32.7374C23.038 33.3901 23.3421 34.0617 23.7304 34.6828C24.0389 35.2373 24.445 35.7285 24.9282 36.1314C25.1336 36.2851 25.1953 36.6261 25.3124 36.8872C25.3884 37.0556 25.4274 37.2409 25.5178 37.4051C25.6082 37.5694 25.5733 37.6157 25.4069 37.6725L25.6616 37.9315C25.7927 38.0093 25.9447 38.0418 26.0951 38.0241C26.5882 37.9062 27.0813 37.7357 27.3628 37.2157V37.2051L27.2354 37.1357C27.1286 37.0767 27.0751 36.9588 27.0135 36.8809Z" fill="black"/>
</svg>
