<svg width="50.000000" height="50.000122" viewBox="0 0 50 50.0001" fill="none" xmlns="http://www.w3.org/2000/svg" xmlns:xlink="http://www.w3.org/1999/xlink">
	<desc>
			Created with Pixso.
	</desc>
	<defs/>
	<path id="path" d="M17.42 50C17.73 46.16 18.2 42.33 18.75 38.5C18.97 36.95 19.3 35.42 19.63 33.88C20.09 31.7 20.66 31.39 23.19 31.9C25.84 32.43 28.5 32.96 31.52 33.57C29.17 28.81 26.96 24.32 24.57 19.46C24.05 20.29 23.74 20.76 23.46 21.25C20.2 26.97 16.89 32.68 13.74 38.45C12.88 40.02 11.83 40.69 9.75 40.66C4.18 40.57 3.91 40.29 6.35 35.95C10.56 28.45 14.82 20.98 18.98 13.45C19.77 12.02 20.74 11.43 22.65 11.48C31.06 11.72 28.77 10.34 32.07 16.84C35.52 23.63 38.83 30.47 42.19 37.3C43.45 39.84 42.84 40.78 39.62 40.57C36.31 40.36 33.04 39.74 29.76 39.26C28.73 39.1 27.73 38.82 26.58 38.57C26.19 40.67 25.67 42.58 25.53 44.51C25.37 46.63 24.43 48.07 22.01 48.78C21.32 48.98 20.75 49.45 20.28 49.9C19.5 50 18.56 50 17.42 50Z" fill="#F29422" fill-opacity="1.000000" fill-rule="nonzero"/>
	<path id="path" d="M18.75 38.5C18.97 36.95 19.3 35.42 19.63 33.88C20.09 31.7 20.66 31.39 23.19 31.9C25.84 32.43 28.5 32.96 31.52 33.57C29.17 28.81 26.96 24.32 24.57 19.46C24.05 20.29 23.74 20.76 23.46 21.25C20.2 26.97 16.89 32.68 13.74 38.45C12.88 40.02 11.83 40.69 9.75 40.66C4.18 40.57 3.91 40.29 6.35 35.95C10.56 28.45 14.82 20.98 18.98 13.45C19.77 12.02 20.74 11.43 22.65 11.48C31.06 11.72 28.77 10.34 32.07 16.84C35.52 23.63 38.83 30.47 42.19 37.3C43.45 39.84 42.84 40.78 39.62 40.57C36.31 40.36 33.04 39.74 29.76 39.26C28.73 39.1 27.73 38.82 26.58 38.57C26.19 40.67 25.67 42.58 25.53 44.51C25.37 46.63 24.43 48.07 22.01 48.78C21.32 48.98 20.75 49.45 20.28 49.9C19.5 50 18.56 50 17.42 50C17.73 46.16 18.2 42.33 18.75 38.5Z" stroke="#000000" stroke-opacity="0" stroke-width="1.000000"/>
	<path id="path" d="M26.19 0C26.53 1.61 26.68 3.23 26.81 4.85C26.91 6 26.1 6.22 24.96 6.26C23.75 6.29 23.04 5.98 23.16 4.85C23.33 3.34 23.52 1.83 23.67 0.16C24.42 0 25.21 0 26.19 0Z" fill="#EE9221" fill-opacity="1.000000" fill-rule="nonzero"/>
	<path id="path" d="M26.81 4.85C26.91 6 26.1 6.22 24.96 6.26C23.75 6.29 23.04 5.98 23.16 4.85C23.33 3.34 23.52 1.83 23.67 0.16C24.42 0 25.21 0 26.19 0C26.53 1.61 26.68 3.23 26.81 4.85Z" stroke="#000000" stroke-opacity="0" stroke-width="1.000000"/>
	<path id="path" d="M6.96 24.01C4.85 24.29 2.78 24.47 0.72 24.45C0.45 24.45 -0.11 23.34 0.01 22.85C0.14 22.36 0.92 21.71 1.5 21.63C2.9 21.45 4.37 21.47 5.79 21.59C7.52 21.74 6.98 22.95 6.96 24.01Z" fill="#E0891F" fill-opacity="1.000000" fill-rule="nonzero"/>
	<path id="path" d="M0.72 24.45C0.45 24.45 -0.11 23.34 0.01 22.85C0.14 22.36 0.92 21.71 1.5 21.63C2.9 21.45 4.37 21.47 5.79 21.59C7.52 21.74 6.98 22.95 6.96 24.01C4.85 24.29 2.78 24.47 0.72 24.45Z" stroke="#000000" stroke-opacity="0" stroke-width="1.000000"/>
	<path id="path" d="M49.18 21.81C50.65 23.68 50.11 24.71 47.77 24.82C46.86 24.86 45.95 24.8 45.04 24.84C43.68 24.9 42.93 24.54 42.91 23.22C42.89 21.92 43.6 21.47 44.97 21.53C46.32 21.59 47.67 21.66 49.18 21.81Z" fill="#DF891F" fill-opacity="1.000000" fill-rule="nonzero"/>
	<path id="path" d="M47.77 24.82C46.86 24.86 45.95 24.8 45.04 24.84C43.68 24.9 42.93 24.54 42.91 23.22C42.89 21.92 43.6 21.47 44.97 21.53C46.32 21.59 47.67 21.66 49.18 21.81C50.65 23.68 50.11 24.71 47.77 24.82Z" stroke="#000000" stroke-opacity="0" stroke-width="1.000000"/>
	<path id="path" d="M39.76 12.2C38.55 13.36 37.64 12.67 37.12 11.9C36.79 11.4 36.78 10.47 37.12 9.98C37.67 9.17 38.5 8.37 39.44 7.91C40.19 7.54 41.53 7.34 42.15 7.67C43.33 8.31 42.96 9.34 42.08 10.15C41.36 10.81 40.61 11.45 39.76 12.2Z" fill="#E68D20" fill-opacity="1.000000" fill-rule="nonzero"/>
	<path id="path" d="M37.12 11.9C36.79 11.4 36.78 10.47 37.12 9.98C37.67 9.17 38.5 8.37 39.44 7.91C40.19 7.54 41.53 7.34 42.15 7.67C43.33 8.31 42.96 9.34 42.08 10.15C41.36 10.81 40.61 11.45 39.76 12.2C38.55 13.36 37.64 12.67 37.12 11.9Z" stroke="#000000" stroke-opacity="0" stroke-width="1.000000"/>
	<path id="path" d="M12.13 9.8C13.71 11 12.62 11.83 11.64 12.36C11.18 12.6 10.06 12.31 9.48 11.96C8.56 11.41 7.63 10.71 7.13 9.88C6.77 9.29 7.11 8.38 7.14 7.62C8.02 7.66 9.04 7.48 9.74 7.81C10.64 8.22 11.27 9.05 12.13 9.8Z" fill="#EF9221" fill-opacity="1.000000" fill-rule="nonzero"/>
	<path id="path" d="M11.64 12.36C11.18 12.6 10.06 12.31 9.48 11.96C8.56 11.41 7.63 10.71 7.13 9.88C6.77 9.29 7.11 8.38 7.14 7.62C8.02 7.66 9.04 7.48 9.74 7.81C10.64 8.22 11.27 9.05 12.13 9.8C13.71 11 12.62 11.83 11.64 12.36Z" stroke="#000000" stroke-opacity="0" stroke-width="1.000000"/>
</svg>
