<svg width="50.000031" height="50.000000" viewBox="0 0 50 50" fill="none" xmlns="http://www.w3.org/2000/svg" xmlns:xlink="http://www.w3.org/1999/xlink">
	<desc>
			Created with Pixso.
	</desc>
	<defs/>
	<path id="path" d="M0 0L50 0L50 50L0 50L0 0Z" fill="#CC003D" fill-opacity="1.000000" fill-rule="nonzero"/>
	<mask id="mask164_690" mask-type="alpha" maskUnits="userSpaceOnUse" x="7.291351" y="13.541504" width="34.708069" height="23.248535">
		<path id="path" d="M41.99 13.54L7.29 13.54L7.29 36.79L41.99 36.79L41.99 13.54Z" fill="#FFFFFF" fill-opacity="1.000000" fill-rule="nonzero"/>
	</mask>
	<g mask="url(#mask164_690)">
		<path id="path" d="M36.24 29.51C36.39 28.89 36.58 27.09 36.58 27.09L34.86 27.09C34.85 27.28 34.81 27.89 34.76 28.52C34.68 29.44 34.41 30.3 33.48 30.3L32.76 30.3C32.76 30.22 32.76 27.09 32.76 27.09L31 27.09L31 36.79L32.76 36.79L32.76 31.87L33.82 31.87L35.54 36.78L37.42 36.78L35.31 31.1C35.75 30.77 36.09 30.14 36.24 29.51ZM16.36 18.65C16.37 16.03 17.01 15.16 17.68 15.15C18.36 15.16 18.99 16.03 19.01 18.65C18.99 21.21 18.36 22.08 17.68 22.1C17.01 22.08 16.37 21.21 16.36 18.65ZM17.64 23.69C18.8 23.66 20 22.96 20.48 20.98C20.66 20.3 20.76 19.47 20.76 18.6L20.75 18.29C20.72 16.9 20.49 15.91 20.13 15.2C19.55 14 18.64 13.55 17.7 13.54C16.76 13.55 15.81 14 15.24 15.2C14.88 15.91 14.64 16.9 14.61 18.29L14.61 18.6C14.61 19.47 14.71 20.3 14.89 20.98C15.37 22.96 16.48 23.66 17.64 23.69ZM9.64 35.29C9.47 35.29 9.04 35.25 9.04 35.25L9.04 31.84C9.04 31.84 9.18 31.8 9.33 31.8C10.22 31.8 11.27 31.75 11.27 33.54C11.27 35.19 10.11 35.29 9.64 35.29ZM9.85 30.27C9.55 30.27 9.28 30.27 9.04 30.29L9.04 28.71L12.18 28.71L12.18 27.09L7.29 27.09L7.29 36.78L9.94 36.78C12.6 36.78 13.01 34.39 13.01 33.5C13.01 32.45 12.6 30.27 9.85 30.27ZM26.94 30.19L24.54 30.19L24.54 27.09L22.79 27.09L22.79 36.79L24.54 36.79L24.54 31.8L26.94 31.8L26.94 36.79L28.69 36.79L28.69 27.09L26.94 27.09L26.94 30.19ZM32.75 23.47L32.75 15.4L34.2 15.4L34.2 13.79L29.52 13.79L29.52 15.4L30.97 15.4L30.97 23.47L32.75 23.47ZM25.82 18.8L25.82 23.47L27.57 23.47L27.57 13.79L25.82 13.79L25.82 17.16L24.87 17.16C24.47 17.16 24.18 17.07 23.99 16.89C23.86 16.77 23.8 16.59 23.8 16.37L23.8 13.79L22.04 13.79L22.04 16.55C22.04 17.19 22.29 17.73 22.78 18.16C23.26 18.58 23.85 18.8 24.54 18.8L25.82 18.8ZM9.04 15.4L11.21 15.4L11.21 23.47L12.96 23.47L12.96 13.79L7.29 13.79L7.29 23.47L9.04 23.47L9.04 15.4ZM16.66 30.47C16.67 30.27 16.7 28.89 16.71 28.71L17.02 28.69C18.29 28.69 18.53 28.94 18.64 30.47L16.66 30.47ZM17.43 27.09L15.05 27.09L14.73 36.79L16.46 36.79C16.46 36.79 16.62 32.29 16.63 32.08L18.82 32.08C18.84 32.27 19.17 36.79 19.17 36.79L20.96 36.79C20.96 36.79 20.34 30.13 20.29 29.7C20.09 27.99 19.3 27.09 17.43 27.09ZM37.7 17.16C37.7 16.96 37.74 15.59 37.74 15.4L38.07 15.4C39.35 15.4 39.56 15.63 39.68 17.16L37.7 17.16ZM41.33 16.4C41.13 14.68 40.34 13.79 38.47 13.79L36.09 13.79L35.76 23.48L37.5 23.48C37.5 23.48 37.66 18.98 37.67 18.77L39.86 18.77C39.88 18.97 40.2 23.48 40.2 23.48L41.99 23.48C41.99 23.48 41.38 16.82 41.33 16.4Z" fill="#FFFFFF" fill-opacity="1.000000" fill-rule="nonzero"/>
	</g>
</svg>
