<svg width="50.000000" height="50.000000" viewBox="0 0 50 50" fill="none" xmlns="http://www.w3.org/2000/svg" xmlns:xlink="http://www.w3.org/1999/xlink">
	<desc>
			Created with Pixso.
	</desc>
	<defs/>
	<rect id="Прямоугольник 38" width="50.000000" height="50.000000" fill="#1928DC" fill-opacity="1.000000"/>
	<path id="path" d="M10.99 12.18L10.99 23.52L9.1 23.52L9.1 13.81L5.88 13.81L5.88 23.52L4 23.52L4 12.18L10.99 12.18Z" fill="#FFFFFF" fill-opacity="1.000000" fill-rule="nonzero"/>
	<path id="path" d="M14.67 23.07C14.11 22.55 13.69 21.89 13.48 21.15C13.17 20.11 13.02 19.03 13.04 17.95C13.02 16.84 13.17 15.73 13.48 14.66C13.69 13.9 14.1 13.21 14.67 12.66C15.17 12.23 15.81 12 16.46 12C17.12 12 17.76 12.23 18.25 12.66C18.83 13.2 19.24 13.89 19.44 14.66C19.75 15.73 19.9 16.84 19.88 17.95C19.9 19.03 19.75 20.11 19.44 21.15C19.23 21.89 18.82 22.56 18.26 23.08C17.75 23.49 17.12 23.71 16.46 23.71C15.81 23.71 15.18 23.48 14.67 23.07ZM15.14 20.2C15.21 20.7 15.39 21.17 15.67 21.59C15.76 21.72 15.87 21.82 16.01 21.9C16.15 21.98 16.3 22.02 16.46 22.02C16.93 22.02 17.3 21.68 17.57 21C17.88 20.01 18.02 18.97 17.97 17.94C17.98 17.15 17.92 16.36 17.79 15.58C17.72 15.07 17.54 14.58 17.26 14.15C17.18 14.01 17.06 13.89 16.92 13.81C16.78 13.72 16.63 13.68 16.46 13.68C16.3 13.68 16.14 13.72 16 13.81C15.86 13.89 15.75 14.01 15.67 14.15C15.39 14.58 15.21 15.07 15.14 15.58C15 16.36 14.94 17.14 14.95 17.93C14.94 18.69 15 19.45 15.14 20.2Z" fill="#FFFFFF" fill-opacity="1.000000" fill-rule="nonzero"/>
	<path id="path" d="M25.76 12.18L25.76 16.53L24.76 16.53C24.4 16.55 24.04 16.48 23.7 16.34C23.44 16.2 23.24 15.96 23.14 15.68C23.01 15.3 22.95 14.88 22.96 14.47L22.96 12.18L21.07 12.18L21.07 14.46C21.02 15.45 21.31 16.42 21.9 17.21C22.21 17.56 22.6 17.83 23.03 18C23.46 18.17 23.92 18.25 24.39 18.22L25.76 18.22L25.76 23.52L27.65 23.52L27.65 12.18L25.76 12.18Z" fill="#FFFFFF" fill-opacity="1.000000" fill-rule="nonzero"/>
	<path id="path" d="M35.99 13.81L33.77 13.81L33.77 23.52L31.88 23.52L31.88 13.81L29.66 13.81L29.66 12.18L35.99 12.18L35.99 13.81Z" fill="#FFFFFF" fill-opacity="1.000000" fill-rule="nonzero"/>
	<path id="path" d="M39.83 12.18L41.35 12.18C41.97 12.15 42.59 12.3 43.13 12.62C43.59 12.93 43.96 13.38 44.17 13.9C44.43 14.55 44.59 15.23 44.66 15.92L45.53 23.5L43.64 23.5L43.03 18.21L39.82 18.21L39.82 23.52L37.93 23.52L37.93 12.18L39.83 12.18ZM39.83 16.6L42.85 16.6L42.77 15.95C42.74 15.53 42.65 15.12 42.51 14.72C42.42 14.45 42.23 14.23 41.98 14.08C41.67 13.93 41.32 13.86 40.96 13.88L39.83 13.88L39.83 16.6Z" fill="#FFFFFF" fill-opacity="1.000000" fill-rule="nonzero"/>
	<path id="path" d="M6.08 25.78C6.71 25.76 7.33 25.92 7.87 26.24C8.4 26.58 8.82 27.07 9.06 27.66C9.36 28.4 9.51 29.19 9.49 30C9.51 30.76 9.38 31.51 9.1 32.21C8.89 32.76 8.55 33.24 8.11 33.62C7.82 33.9 7.43 34.06 7.03 34.09C6.82 34.11 6.61 34.07 6.41 34C6.21 33.92 6.04 33.8 5.89 33.65L5.89 37.11L4 37.11L4 25.78L6.08 25.78ZM5.99 31.65C6.04 31.85 6.14 32.04 6.27 32.19C6.32 32.25 6.37 32.29 6.44 32.32C6.5 32.36 6.57 32.37 6.64 32.38C6.81 32.37 6.96 32.29 7.08 32.17C7.26 31.99 7.38 31.77 7.45 31.52C7.55 31.14 7.6 30.75 7.59 30.36C7.59 29.3 7.46 28.55 7.2 28.12C7.09 27.91 6.93 27.75 6.73 27.63C6.54 27.52 6.31 27.46 6.08 27.46L5.89 27.46L5.89 30.77C5.88 31.07 5.92 31.36 5.99 31.65Z" fill="#FFFFFF" fill-opacity="1.000000" fill-rule="nonzero"/>
	<path id="path" d="M11.58 36.66C11.01 36.14 10.6 35.47 10.39 34.73C10.08 33.7 9.93 32.62 9.95 31.54C9.93 30.43 10.08 29.32 10.39 28.25C10.6 27.49 11.01 26.8 11.58 26.25C12.08 25.82 12.71 25.59 13.37 25.59C14.03 25.59 14.66 25.82 15.16 26.25C15.73 26.8 16.14 27.49 16.35 28.25C16.66 29.32 16.8 30.43 16.78 31.54C16.81 32.62 16.67 33.7 16.37 34.74C16.16 35.48 15.75 36.15 15.19 36.67C14.68 37.08 14.05 37.31 13.39 37.31C12.74 37.31 12.09 37.08 11.58 36.66ZM12.05 33.8C12.12 34.28 12.3 34.74 12.58 35.14C12.66 35.27 12.78 35.38 12.92 35.46C13.05 35.53 13.2 35.58 13.36 35.58C13.83 35.58 14.19 35.24 14.46 34.56C14.78 33.57 14.92 32.53 14.87 31.5C14.88 30.71 14.82 29.92 14.69 29.14C14.61 28.64 14.43 28.15 14.16 27.72C14.08 27.58 13.96 27.46 13.82 27.37C13.68 27.29 13.52 27.25 13.36 27.25C13.2 27.25 13.04 27.29 12.9 27.37C12.76 27.46 12.65 27.58 12.57 27.72C12.29 28.17 12.12 28.67 12.05 29.19C11.91 29.96 11.85 30.75 11.86 31.54C11.85 32.29 11.91 33.05 12.05 33.8Z" fill="#FFFFFF" fill-opacity="1.000000" fill-rule="nonzero"/>
	<path id="path" d="M18.08 28.34C18.54 27.48 19.26 26.8 20.14 26.4C21.18 25.95 22.3 25.74 23.42 25.78L23.42 27.48C22.07 27.48 21.05 27.81 20.33 28.5C19.62 29.18 19.26 30.19 19.26 31.56C19.26 32.93 19.62 33.83 20.33 34.47C21.04 35.11 22.08 35.43 23.42 35.43L23.42 37.11C21.49 37.11 20 36.65 18.95 35.71C17.9 34.78 17.37 33.39 17.37 31.54C17.33 30.43 17.57 29.33 18.08 28.34Z" fill="#FFFFFF" fill-opacity="1.000000" fill-rule="nonzero"/>
	<path id="path" d="M24.44 28.34C24.9 27.48 25.62 26.8 26.51 26.4C27.53 25.94 28.65 25.73 29.77 25.76L29.77 27.46C28.42 27.46 27.4 27.8 26.68 28.48C25.96 29.16 25.61 30.19 25.61 31.54C25.61 32.88 25.96 33.81 26.67 34.45C27.39 35.09 28.42 35.41 29.76 35.41L29.76 37.11C27.83 37.11 26.34 36.65 25.29 35.71C24.24 34.78 23.71 33.39 23.71 31.54C23.68 30.43 23.93 29.33 24.44 28.34Z" fill="#FFFFFF" fill-opacity="1.000000" fill-rule="nonzero"/>
	<path id="path" d="M32.54 25.78L32.54 29.82L35.75 27.11L37.64 25.52L37.64 37.11L35.75 37.11L35.75 29.4L32.54 32.1L32.54 37.11L30.65 37.11L30.65 25.78L32.54 25.78Z" fill="#FFFFFF" fill-opacity="1.000000" fill-rule="nonzero"/>
	<path id="path" d="M40.42 25.78L40.42 29.82L43.63 27.11L45.51 25.53L45.51 37.11L43.62 37.11L43.62 29.4L40.41 32.1L40.41 37.11L38.53 37.11L38.53 25.78L40.42 25.78Z" fill="#FFFFFF" fill-opacity="1.000000" fill-rule="nonzero"/>
</svg>
