<svg width="50.000000" height="50.000000" viewBox="0 0 50 50" fill="none" xmlns="http://www.w3.org/2000/svg" xmlns:xlink="http://www.w3.org/1999/xlink">
	<desc>
			Created with Pixso.
	</desc>
	<defs/>
	<path id="pyypl" d="M48.03 15.26C46.78 12.29 44.96 9.59 42.67 7.32C40.4 5.03 37.7 3.21 34.73 1.96C31.65 0.66 28.34 -0.01 24.99 4.76e-5C21.65 -0.01 18.34 0.66 15.26 1.96C12.29 3.21 9.59 5.03 7.32 7.32C5.03 9.59 3.21 12.29 1.96 15.26C0.66 18.34 -0.01 21.65 4.57e-5 24.99C-0.01 28.34 0.66 31.65 1.96 34.73C3.21 37.7 5.03 40.4 7.32 42.67C9.59 44.96 12.29 46.78 15.26 48.03C18.34 49.33 21.65 50 25 50C28.34 50 31.65 49.33 34.73 48.03C37.7 46.78 40.4 44.96 42.67 42.67C44.96 40.4 46.78 37.7 48.03 34.73C49.33 31.65 50 28.34 50 25C50 21.65 49.33 18.34 48.03 15.26ZM40.8 40.8C36.58 45.02 30.97 47.34 24.99 47.34C19.02 47.34 13.41 45.02 9.19 40.8C4.97 36.58 2.64 30.96 2.64 24.99C2.64 19.02 4.97 13.41 9.19 9.19C13.41 4.97 19.02 2.64 24.99 2.64C30.97 2.64 36.58 4.97 40.8 9.19C45.02 13.41 47.35 19.02 47.35 24.99C47.35 30.96 45.02 36.58 40.8 40.8ZM36.15 31.99L33.69 29.54L37.42 25.81L37.69 25.53C39.05 24.03 39.83 22.03 39.79 20C39.76 17.93 38.92 15.95 37.44 14.49C35.98 13.02 34 12.18 31.93 12.16C30.87 12.14 29.82 12.33 28.84 12.73C27.86 13.12 26.96 13.71 26.21 14.45C25.76 14.9 25.36 15.4 25.03 15.94C24.69 15.4 24.29 14.9 23.84 14.45C23.09 13.71 22.2 13.12 21.22 12.73C20.24 12.33 19.18 12.14 18.13 12.16C16.05 12.18 14.07 13.02 12.61 14.49C11.14 15.95 10.29 17.93 10.26 20C10.22 22.03 10.96 23.99 12.33 25.49L12.63 25.8L16.37 29.54L9.75 36.15C9.5 36.4 9.36 36.74 9.36 37.09C9.36 37.44 9.5 37.78 9.75 38.03C9.88 38.15 10.02 38.25 10.18 38.31C10.34 38.38 10.52 38.41 10.69 38.41C10.86 38.41 11.04 38.38 11.2 38.31C11.36 38.25 11.5 38.15 11.63 38.03L18.24 31.41L23.02 36.19L25.03 38.25L26.45 36.78L31.82 31.41L32.46 32.05L38.43 38.03C38.55 38.15 38.7 38.25 38.86 38.31C39.02 38.38 39.19 38.41 39.37 38.41C39.54 38.41 39.71 38.38 39.87 38.31C40.03 38.25 40.18 38.15 40.3 38.03C40.55 37.78 40.69 37.44 40.69 37.09C40.69 36.74 40.55 36.4 40.3 36.15L36.15 31.99ZM28.07 16.34C28.58 15.84 29.17 15.45 29.83 15.18C30.48 14.92 31.19 14.79 31.89 14.8C34.74 14.84 37.1 17.19 37.15 20.04C37.17 21.38 36.69 22.69 35.79 23.69L35.54 23.93L31.82 27.66L27.84 23.69C26.8 22.53 26.48 21.7 26.48 20.13C26.48 19.42 26.62 18.72 26.9 18.07C27.17 17.42 27.57 16.83 28.07 16.34ZM14.51 23.93L14.27 23.69C13.37 22.69 12.88 21.39 12.91 20.04C12.96 17.19 15.31 14.84 18.16 14.8C18.87 14.79 19.57 14.92 20.23 15.18C20.88 15.45 21.48 15.84 21.98 16.34C22.49 16.83 22.89 17.42 23.16 18.07C23.43 18.73 23.57 19.43 23.57 20.13C23.57 21.7 23.25 22.53 22.21 23.69L18.24 27.66L14.51 23.93ZM25.03 34.45L20.11 29.54L24.11 25.54C24.43 25.19 24.77 24.78 25.03 24.39C25.3 24.78 25.59 25.15 25.9 25.49L29.7 29.29L29.95 29.53L25.03 34.45Z" fill="#6F46EA" fill-opacity="1.000000" fill-rule="nonzero"/>
</svg>
