<svg width="50.000000" height="50.000000" viewBox="0 0 50 50" fill="none" xmlns="http://www.w3.org/2000/svg" xmlns:xlink="http://www.w3.org/1999/xlink">
	<desc>
			Created with Pixso.
	</desc>
	<defs>
		<linearGradient x1="25.000059" y1="0.000000" x2="25.000059" y2="50.000000" id="paint_linear_124_5_0" gradientUnits="userSpaceOnUse">
			<stop stop-color="#F04E98"/>
			<stop offset="0.500000" stop-color="#5F65D4"/>
			<stop offset="1.000000" stop-color="#4E98F0"/>
		</linearGradient>
		<linearGradient x1="25.000053" y1="15.909059" x2="25.000053" y2="33.991371" id="paint_linear_124_8_0" gradientUnits="userSpaceOnUse">
			<stop stop-color="#F04E98"/>
			<stop offset="0.500000" stop-color="#5F65D4"/>
			<stop offset="1.000000" stop-color="#4E98F0"/>
		</linearGradient>
	</defs>
	<circle id="Ring-Background" cx="25.000000" cy="25.000000" r="25.000000" fill="#1B1B1B" fill-opacity="1.000000"/>
	<path id="Ring1" d="M25 0C38.79 0 50 11.2 50 25C50 38.79 38.79 50 25 50C11.2 50 0 38.79 0 25C0 11.2 11.2 0 25 0ZM25 2.25C37.55 2.25 47.75 12.44 47.75 25C47.75 37.55 37.55 47.75 25 47.75C12.44 47.75 2.25 37.55 2.25 25C2.25 12.44 12.44 2.25 25 2.25Z" fill="url(#paint_linear_124_5_0)" fill-opacity="1.000000" fill-rule="evenodd"/>
	<path id="V-Shape" d="M33.67 16.86C33.76 16.65 33.74 16.41 33.61 16.21C33.49 16.02 33.27 15.9 33.04 15.9C32.72 15.9 32.39 15.9 32.15 15.9C31.96 15.9 31.79 16.02 31.71 16.2C30.93 17.97 26.82 27.34 25.44 30.47C25.36 30.64 25.19 30.76 25 30.76C24.8 30.76 24.63 30.64 24.55 30.47C23.17 27.34 19.06 17.97 18.28 16.2C18.2 16.02 18.03 15.9 17.84 15.9C17.6 15.9 17.27 15.9 16.95 15.9C16.72 15.9 16.5 16.02 16.38 16.21C16.25 16.41 16.23 16.65 16.32 16.86C17.8 20.22 22.69 31.39 23.69 33.68C23.8 33.93 24.05 34.09 24.32 34.09C24.71 34.09 25.28 34.09 25.67 34.09C25.94 34.09 26.19 33.93 26.3 33.68C27.3 31.39 32.19 20.22 33.67 16.86Z" fill="#FFFFFF" fill-opacity="1.000000" fill-rule="evenodd"/>
	<path id="Diamond" d="M25.5 24.7C25.4 24.88 25.2 25 25 25C24.79 25 24.59 24.88 24.49 24.7C23.43 22.86 20.98 18.62 19.92 16.78C19.81 16.6 19.81 16.38 19.92 16.2C20.02 16.02 20.21 15.9 20.42 15.9C22.55 15.9 27.44 15.9 29.57 15.9C29.78 15.9 29.97 16.02 30.07 16.2C30.18 16.38 30.18 16.6 30.07 16.78C29.01 18.62 26.56 22.86 25.5 24.7Z" fill="url(#paint_linear_124_8_0)" fill-opacity="1.000000" fill-rule="evenodd"/>
</svg>
