<svg width="51" height="50" viewBox="0 0 51 50" fill="none" xmlns="http://www.w3.org/2000/svg">
<path d="M38.409 49.9694C32.3514 50.5234 27.2864 43.4249 23.4037 39.8245C21.4404 53.9708 0.0635358 52.6298 0.0781325 38.2794C0.0854308 32.2521 0.0781325 17.5228 0.0781325 11.685C0.0781325 9.58602 0.654701 7.47244 1.73486 5.67957C3.78569 2.20312 7.74871 -0.0416248 11.7847 0.00210388C17.8642 0.00939193 32.5047 -0.00518417 38.409 0.00210388C52.7721 0.00210388 54.137 21.3709 39.9417 23.295L46.6783 30.0219C54.0787 36.9821 48.5245 50.2755 38.409 49.9694ZM35.1467 41.5516C39.3214 45.8518 45.9848 39.1904 41.6858 35.0216L30.0087 23.3606H23.4767C23.4767 23.9947 23.4767 29.4316 23.4767 29.8907L33.5703 39.9703L35.1467 41.5516ZM7.15024 38.2867C7.05536 44.2629 16.4921 44.285 16.3972 38.2867V11.685C16.4775 8.70415 13.3247 6.33549 10.4783 7.2538C10.3542 7.29024 10.2374 7.32668 10.1279 7.37043C8.33987 8.03361 7.09915 9.86293 7.15024 11.7724V38.2867ZM38.409 16.2984C44.4081 16.3931 44.4012 6.96954 38.409 7.0643H22.5497C23.754 9.60059 23.4474 13.5507 23.4694 16.2984C24.3305 16.2984 37.9858 16.2984 38.409 16.2984Z" fill="white"/>
</svg>
