<svg width="50" height="50" viewBox="0 0 50 50" fill="none" xmlns="http://www.w3.org/2000/svg">
<path d="M21.9199 0C20.3982 -1.40848e-07 18.9387 0.604521 17.8627 1.68058L0.960276 18.5833C0.320085 19.2235 -5.24124e-06 20.0625 0 20.9017C5.24149e-06 21.7408 0.320106 22.5798 0.960294 23.2201L12.037 34.2967V14.6869C12.037 13.2235 13.214 12.0372 14.6774 12.0372C20.8602 12.0372 35.91 12.0372 37.9627 12.0372L49.9996 0.000170592L21.9199 0Z" fill="#4A21EF"/>
<path d="M12.0373 37.963H35.3132C36.7767 37.963 37.963 36.7766 37.963 35.3132V15.7033L49.0397 26.7801C49.6799 27.4203 50 28.2593 50 29.0984C50 29.9376 49.6799 30.7766 49.0397 31.4168L32.1373 48.3195C31.0613 49.3956 29.6018 50.0001 28.0801 50.0001L0.000305176 50L12.0373 37.963Z" fill="#4A21EF"/>
</svg>
