<svg width="50" height="50" viewBox="0 0 50 50" fill="none" xmlns="http://www.w3.org/2000/svg">
<path d="M30.6304 25.5321L25.1525 30.9266L44.5221 50L50 44.6055L30.6304 25.5321Z" fill="#FF8405"/>
<path d="M17.0451 32.8072C26.031 32.8072 33.3155 25.6338 33.3155 16.7851C33.3155 7.9363 26.031 0.762957 17.0451 0.762957C8.05927 0.762957 0.774778 7.9363 0.774778 16.7851C0.774778 25.6338 8.05927 32.8072 17.0451 32.8072Z" fill="#4B4DFF"/>
<path d="M17.0451 33.5701C7.6463 33.5701 0 26.0405 0 16.7851C0 7.52962 7.6463 0 17.0451 0C26.444 0 34.0903 7.52962 34.0903 16.7851C34.0903 26.0405 26.444 33.5701 17.0451 33.5701ZM17.0451 4.57774C10.21 4.57774 4.64868 10.0542 4.64868 16.7851C4.64868 23.5159 10.21 28.9924 17.0451 28.9924C23.8802 28.9924 29.4416 23.5159 29.4416 16.7851C29.4416 10.0542 23.8802 4.57774 17.0451 4.57774Z" fill="#4343BF"/>
<path d="M17.0451 36.612C11.8867 36.612 6.72818 34.6787 2.80083 30.812L8.27852 25.4164C13.1116 30.1757 20.9779 30.1757 25.811 25.4164C30.6433 20.6571 30.6433 12.9123 25.8102 8.1522L31.2895 2.75809C39.1426 10.4929 39.1426 23.0772 31.2895 30.812C27.3621 34.6787 22.2036 36.612 17.0451 36.612Z" fill="#3ABCF8"/>
<path d="M23.8655 22.9078L21.6744 20.7501C22.8304 19.6118 23.4665 18.0973 23.4665 16.4883C23.4665 14.8784 22.8304 13.3647 21.6744 12.2264C20.5185 11.0881 18.9813 10.4617 17.3465 10.4617C15.7125 10.4617 14.1746 11.0881 13.0186 12.2264L10.8275 10.0687C12.5685 8.35362 14.8835 7.40984 17.3465 7.40984C19.8096 7.40984 22.1246 8.35362 23.8655 10.0687C25.6072 11.7831 26.5656 14.0628 26.5656 16.4883C26.5656 18.9137 25.6072 21.1934 23.8655 22.9078Z" fill="#EDF7F5"/>
</svg>
