<svg width="50.000000" height="50.000000" viewBox="0 0 50 50" fill="none" xmlns="http://www.w3.org/2000/svg" xmlns:xlink="http://www.w3.org/1999/xlink">
	<desc>
			Created with Pixso.
	</desc>
	<defs/>
	<path id="path" d="M24.96 0C11.91 0 1.21 4.64 0.03 10.58L13.94 13.2C15.07 12.85 16.36 12.69 17.69 12.69L24.21 8.78C24.14 7.81 24.72 6.79 26.05 5.97C27.92 4.76 30.85 4.1 33.82 4.1C35.85 4.06 37.92 4.37 39.68 4.96C44.06 6.44 45.03 9.29 41.91 11.32C39.92 12.61 36.71 13.28 33.55 13.2L24.96 16.28C24.88 16.91 24.45 17.5 23.63 18.04C21.32 19.53 16.83 19.88 13.63 18.78C12.22 18.32 11.28 17.61 10.89 16.91L0.97 15C1.87 16.4 3.32 17.69 5.19 18.82C1.95 20.7 0 23.04 0 25.58C0 28.08 1.87 30.39 5.03 32.26C1.87 34.1 0 36.4 0 38.9C0 45.03 11.17 50 25 50C38.78 50 50 45.03 50 38.9C50 36.4 48.12 34.1 44.96 32.26C48.12 30.39 50 28.08 50 25.58C50 23.04 48.04 20.66 44.76 18.78C48 16.79 49.96 14.33 49.96 11.67C49.96 5.23 38.75 0 24.96 0ZM33.86 5.54C31.83 5.58 29.88 6.01 28.63 6.83C26.48 8.24 27.14 10.15 30.11 11.17C33.08 12.18 37.18 11.87 39.33 10.46C41.48 9.06 40.82 7.14 37.85 6.17C36.64 5.78 35.23 5.58 33.86 5.58L33.86 5.54ZM33.98 6.21C36.87 6.21 39.17 7.3 39.17 8.63C39.17 9.96 36.87 11.05 33.98 11.05C31.09 11.05 28.78 9.96 28.78 8.63C28.78 7.3 31.09 6.21 33.98 6.21ZM17.69 13.43C17.07 13.47 16.48 13.51 15.89 13.59L19.45 14.25C19.97 14.35 20.43 14.49 20.83 14.67C21.23 14.85 21.54 15.06 21.76 15.3C21.98 15.54 22.09 15.79 22.1 16.05C22.1 16.31 22 16.56 21.79 16.8C21.58 17.04 21.28 17.26 20.89 17.44C20.49 17.63 20.04 17.77 19.52 17.87C19.01 17.97 18.47 18.03 17.91 18.03C17.35 18.03 16.8 17.98 16.28 17.89L12.81 17.22C13.2 17.57 13.75 17.89 14.49 18.16C16.99 19.02 20.5 18.75 22.3 17.57C24.1 16.4 23.55 14.76 21.05 13.94C20.03 13.59 18.82 13.43 17.69 13.43ZM42.57 19.92L42.57 23.55C42.57 27.85 34.68 31.32 25 31.32C15.27 31.32 7.42 27.85 7.42 23.55L7.42 19.96C11.91 22.03 18.12 23.32 24.96 23.32C31.83 23.32 38.08 22.03 42.61 19.92L42.57 19.92ZM42.57 33.43L42.57 36.87C42.57 41.17 34.68 44.64 25 44.64C15.27 44.64 7.42 41.17 7.42 36.87L7.42 33.43C11.95 35.42 18.12 36.64 25 36.64C31.87 36.64 38.08 35.42 42.57 33.43Z" fill="#FFFFFF" fill-opacity="1.000000" fill-rule="evenodd"/>
</svg>
