<svg width="50.000000" height="50.000000" viewBox="0 0 50 50" fill="none" xmlns="http://www.w3.org/2000/svg" xmlns:xlink="http://www.w3.org/1999/xlink">
	<desc>
			Created with Pixso.
	</desc>
	<defs>
		<clipPath id="clip44_1">
			<rect id="tilda" width="50.000000" height="50.000000" fill="white" fill-opacity="0"/>
		</clipPath>
	</defs>
	<g clip-path="url(#clip44_1)">
		<path id="path" d="M26.42 22.21L26.42 39.62L23.02 39.62L23.02 21L26.42 22.21Z" fill="#FFFFFF" fill-opacity="1.000000" fill-rule="nonzero"/>
		<path id="path" d="M13.32 20.67C13.2 16.15 15.59 13.81 18.7 13.81C20.6 13.81 22.05 14.42 25.12 15.87C27.39 16.96 29.04 17.77 30.74 17.77C32.44 17.77 33.12 16.43 33.16 13.97L35.87 13.97C36.11 19.02 33.52 20.83 30.7 20.83C28.88 20.83 27.26 20.3 24.15 18.85C22.01 17.8 20.35 16.87 18.74 16.87C17.12 16.87 16.11 18 16.07 20.75L13.32 20.75L13.32 20.67Z" fill="#FFFFFF" fill-opacity="1.000000" fill-rule="nonzero"/>
		<path id="path" d="M25 50C23.35 50 21.73 49.83 20.12 49.51C18.51 49.19 16.94 48.72 15.43 48.09C13.91 47.46 12.47 46.69 11.11 45.78C9.74 44.87 8.48 43.83 7.32 42.67C6.16 41.51 5.12 40.25 4.21 38.88C3.3 37.52 2.53 36.08 1.9 34.56C1.27 33.05 0.8 31.48 0.48 29.87C0.16 28.26 0 26.64 0 25C0 23.35 0.16 21.73 0.48 20.12C0.8 18.51 1.27 16.94 1.9 15.43C2.53 13.91 3.3 12.47 4.21 11.11C5.12 9.74 6.16 8.48 7.32 7.32C8.48 6.16 9.74 5.12 11.11 4.21C12.47 3.3 13.91 2.53 15.43 1.9C16.94 1.27 18.51 0.8 20.12 0.48C21.73 0.16 23.35 0 25 0C26.64 0 28.26 0.16 29.87 0.48C31.48 0.8 33.05 1.27 34.56 1.9C36.08 2.53 37.52 3.3 38.88 4.21C40.25 5.12 41.51 6.16 42.67 7.32C43.83 8.48 44.87 9.74 45.78 11.11C46.69 12.47 47.46 13.91 48.09 15.43C48.72 16.94 49.19 18.51 49.51 20.12C49.83 21.73 50 23.35 50 25C50 26.64 49.83 28.26 49.51 29.87C49.19 31.48 48.72 33.05 48.09 34.56C47.46 36.08 46.69 37.52 45.78 38.88C44.87 40.25 43.83 41.51 42.67 42.67C41.51 43.83 40.25 44.87 38.88 45.78C37.52 46.69 36.08 47.46 34.56 48.09C33.05 48.72 31.48 49.19 29.87 49.51C28.26 49.83 26.64 50 25 50ZM25 1.61C23.46 1.61 21.94 1.76 20.43 2.06C18.93 2.36 17.46 2.8 16.05 3.39C14.63 3.98 13.28 4.7 12 5.55C10.73 6.4 9.54 7.37 8.46 8.46C7.37 9.54 6.4 10.73 5.55 12C4.7 13.28 3.98 14.63 3.39 16.05C2.8 17.46 2.36 18.93 2.06 20.43C1.76 21.94 1.61 23.46 1.61 25C1.61 26.53 1.76 28.05 2.06 29.56C2.36 31.06 2.8 32.53 3.39 33.94C3.98 35.36 4.7 36.71 5.55 37.99C6.4 39.26 7.37 40.45 8.46 41.53C9.54 42.62 10.73 43.59 12 44.44C13.28 45.29 14.63 46.01 16.05 46.6C17.46 47.19 18.93 47.63 20.43 47.93C21.94 48.23 23.46 48.38 25 48.38C26.53 48.38 28.05 48.23 29.56 47.93C31.06 47.63 32.53 47.19 33.94 46.6C35.36 46.01 36.71 45.29 37.99 44.44C39.26 43.59 40.45 42.62 41.53 41.53C42.62 40.45 43.59 39.26 44.44 37.99C45.29 36.71 46.01 35.36 46.6 33.94C47.19 32.53 47.63 31.06 47.93 29.56C48.23 28.05 48.38 26.53 48.38 25C48.38 23.46 48.23 21.94 47.93 20.43C47.63 18.93 47.18 17.47 46.59 16.05C46 14.63 45.28 13.29 44.43 12.01C43.58 10.73 42.61 9.55 41.52 8.47C40.44 7.38 39.26 6.41 37.98 5.56C36.7 4.71 35.36 3.99 33.94 3.4C32.52 2.81 31.06 2.36 29.56 2.06C28.05 1.76 26.53 1.61 25 1.61Z" fill="#FFFFFF" fill-opacity="1.000000" fill-rule="nonzero"/>
	</g>
</svg>
