<svg width="50.000000" height="50.000000" viewBox="0 0 50 50" fill="none" xmlns="http://www.w3.org/2000/svg" xmlns:xlink="http://www.w3.org/1999/xlink">
	<desc>
			Created with Pixso.
	</desc>
	<defs/>
	<path id="path" d="M42.51 0L2.27 0C0.75 0 0 0.75 0 2.27L0 47.72C0 49.24 0.75 50 2.27 50L47.72 50C49.24 50 50 49.24 50 47.72L50 7.48L42.51 0Z" fill="#265EAC" fill-opacity="1.000000" fill-rule="nonzero"/>
	<path id="path" d="M6.81 27.27L6.81 50L43.18 50L43.18 27.27C43.18 25.75 42.42 25 40.9 25L9.09 25C7.57 25 6.81 25.75 6.81 27.27Z" fill="#F2F2F2" fill-opacity="1.000000" fill-rule="nonzero"/>
	<g opacity="0.200000">
		<path id="path" d="M40.9 25L9.09 25C7.57 25 6.81 25.75 6.81 27.27L6.81 27.84C6.81 26.32 7.57 25.56 9.09 25.56L40.9 25.56C42.42 25.56 43.18 26.32 43.18 27.84L43.18 27.27C43.18 25.75 42.42 25 40.9 25Z" fill="#FFFFFF" fill-opacity="1.000000" fill-rule="nonzero"/>
	</g>
	<path id="path" d="M6.81 45.45L43.18 45.45L43.18 50L6.81 50L6.81 45.45ZM37.5 30.68L12.5 30.68C11.74 30.68 11.36 30.3 11.36 29.54C11.36 28.78 11.74 28.4 12.5 28.4L37.5 28.4C38.25 28.4 38.63 28.78 38.63 29.54C38.63 30.3 38.25 30.68 37.5 30.68ZM37.5 36.36L12.5 36.36C11.74 36.36 11.36 35.98 11.36 35.22C11.36 34.46 11.74 34.09 12.5 34.09L37.5 34.09C38.25 34.09 38.63 34.46 38.63 35.22C38.63 35.98 38.25 36.36 37.5 36.36ZM37.5 42.04L12.5 42.04C11.74 42.04 11.36 41.66 11.36 40.9C11.36 40.15 11.74 39.77 12.5 39.77L37.5 39.77C38.25 39.77 38.63 40.15 38.63 40.9C38.63 41.66 38.25 42.04 37.5 42.04Z" fill="#DA1A32" fill-opacity="1.000000" fill-rule="nonzero"/>
	<path id="path" d="M13.63 0L13.63 18.18C13.63 19.69 14.39 20.45 15.9 20.45L38.63 20.45C40.15 20.45 40.9 19.69 40.9 18.18L40.9 0L13.63 0ZM36.36 18.18L29.54 18.18L29.54 3.4L36.36 3.4L36.36 18.18Z" fill="#829BCE" fill-opacity="1.000000" fill-rule="nonzero"/>
	<g opacity="0.200000">
		<path id="path" d="M2.27 45.45L4.54 45.45L4.54 47.72L2.27 47.72L2.27 45.45ZM45.45 45.45L47.72 45.45L47.72 47.72L45.45 47.72L45.45 45.45Z" fill="#000000" fill-opacity="1.000000" fill-rule="nonzero"/>
	</g>
	<g opacity="0.100000">
		<path id="path" d="M13.63 18.18L13.63 0L6.81 0L6.81 18.18C6.81 19.69 7.57 20.45 9.09 20.45L15.9 20.45C14.39 20.45 13.63 19.69 13.63 18.18Z" fill="#000000" fill-opacity="1.000000" fill-rule="nonzero"/>
	</g>
	<g opacity="0.200000">
		<path id="path" d="M42.51 0L2.27 0C0.75 0 0 0.75 0 2.27L0 2.84C0 1.32 0.75 0.56 2.27 0.56L42.51 0.56L50 8.05L50 7.48L42.51 0Z" fill="#FFFFFF" fill-opacity="1.000000" fill-rule="nonzero"/>
	</g>
	<g opacity="0.100000">
		<path id="path" d="M47.72 49.43L2.27 49.43C0.75 49.43 0 48.67 0 47.15L0 47.72C0 49.24 0.75 50 2.27 50L47.72 50C49.24 50 50 49.24 50 47.72L50 47.15C50 48.67 49.24 49.43 47.72 49.43Z" fill="#000000" fill-opacity="1.000000" fill-rule="nonzero"/>
	</g>
</svg>
