<svg width="50.000000" height="50.000000" viewBox="0 0 50 50" fill="none" xmlns="http://www.w3.org/2000/svg" xmlns:xlink="http://www.w3.org/1999/xlink">
	<desc>
			Created with Pixso.
	</desc>
	<defs/>
	<rect id="Прямоугольник 8" width="50.000000" height="50.000000" fill="#0077FF" fill-opacity="1.000000"/>
	<path id="svg_4" d="M25.32 41.62C34.34 41.62 41.65 34.32 41.65 25.31C41.65 16.3 34.34 9 25.32 9C16.3 9 9 16.3 9 25.31C9 34.32 16.3 41.62 25.32 41.62Z" fill="#00D9ED" fill-opacity="1.000000" fill-rule="nonzero"/>
	<path id="svg_5" d="M40.8 7L40.8 10.13L43.89 10.13C45.65 10.13 46.55 12.24 45.33 13.5L41.09 17.92C40.72 18.32 40.19 18.54 39.65 18.54L35.65 18.54L31.51 22.99C31.8 23.71 31.98 24.5 31.98 25.32C31.98 28.63 29.3 31.31 25.99 31.31C22.68 31.31 20 28.63 20 25.32C20 22.02 22.68 19.34 25.99 19.34C26.55 19.34 27.1 19.41 27.61 19.56L32.37 14.44L32.37 11.15C32.37 10.6 32.61 10.08 33 9.7L37.42 5.54C38.7 4.34 40.8 5.26 40.8 7Z" fill="#FFFFFF" fill-opacity="1.000000" fill-rule="evenodd"/>
</svg>
