<svg width="50" height="50" viewBox="0 0 50 50" fill="none" xmlns="http://www.w3.org/2000/svg">
<g clip-path="url(#clip0_780_665)">
<path d="M38.7496 0H11.2504C5.03699 0 0 5.03699 0 11.2504V38.7496C0 44.963 5.03699 50 11.2504 50H38.7496C44.963 50 50 44.963 50 38.7496V11.2504C50 5.03699 44.963 0 38.7496 0Z" fill="white"/>
<path d="M18.0045 7.86867H17.1424C16.8972 7.86867 16.6983 7.66984 16.6983 7.42457V7.0066C16.6983 6.76133 16.8972 6.5625 17.1424 6.5625H18.0045V7.86867Z" fill="black"/>
<path d="M17.9653 7.86867V7.0066C17.9653 6.76133 18.1641 6.5625 18.4094 6.5625H18.8274C19.0727 6.5625 19.2715 6.76133 19.2715 7.0066V7.86867H17.9653Z" fill="black"/>
<path d="M21.8054 7.86867H20.9434C20.6981 7.86867 20.4993 7.66984 20.4993 7.42457V7.0066C20.4993 6.76133 20.6981 6.5625 20.9434 6.5625H21.8054V7.86867Z" fill="black"/>
<path d="M21.7663 7.86867V6.5625H22.6283C22.8736 6.5625 23.0724 6.76133 23.0724 7.0066V7.86867H21.7663Z" fill="black"/>
<path d="M25.5672 6.93606V7.49641C25.5672 7.70278 25.7344 7.86867 25.9408 7.86867H26.5011C26.7088 7.86867 26.8747 7.70148 26.8747 7.4951V6.93606C26.8734 6.72838 26.7062 6.5625 26.4998 6.5625H25.9408C25.7344 6.5625 25.5672 6.72969 25.5672 6.93606Z" fill="black"/>
<path d="M30.6743 7.86867H29.8122C29.567 7.86867 29.3681 7.66984 29.3681 7.42457V7.0066C29.3681 6.76133 29.567 6.5625 29.8122 6.5625H30.6743V7.86867Z" fill="black"/>
<path d="M30.6351 7.86867V6.5625H31.4972C31.7425 6.5625 31.9413 6.76133 31.9413 7.0066V7.86867H30.6351Z" fill="black"/>
<path d="M18.8731 9.10952V9.13565H19.2715V8.73727H19.2454C19.2454 8.94364 19.0782 9.10952 18.8731 9.10952Z" fill="black"/>
<path d="M19.2323 9.13564V8.27358C19.2323 8.02831 19.4311 7.82948 19.6764 7.82948H20.0944C20.3396 7.82948 20.5385 8.02831 20.5385 8.27358V9.13564H19.2323Z" fill="black"/>
<path d="M23.0724 7.82948V9.13565H22.2104C21.9651 9.13565 21.7663 8.93682 21.7663 8.69155V7.82948H23.0724Z" fill="black"/>
<path d="M24.3394 7.82948H23.0332V9.13565H24.3394V7.82948Z" fill="black"/>
<path d="M24.3002 9.13564V7.82948H25.1623C25.4076 7.82948 25.6064 8.02831 25.6064 8.27358V9.13564H24.3002Z" fill="black"/>
<path d="M26.475 9.10952V9.13565H26.8734V8.73727H26.8472C26.8472 8.94364 26.6801 9.10952 26.475 9.10952Z" fill="black"/>
<path d="M28.1403 9.13564H26.8342V8.27358C26.8342 8.02831 27.033 7.82948 27.2783 7.82948H28.1403V9.13564Z" fill="black"/>
<path d="M28.1012 9.13564V8.27358C28.1012 8.02831 28.3 7.82948 28.5453 7.82948H28.9632C29.2085 7.82948 29.4073 8.02831 29.4073 8.27358V9.13564H28.1012Z" fill="black"/>
<path d="M31.9413 7.82948H30.6351V9.13565H31.9413V7.82948Z" fill="black"/>
<path d="M18.0045 10.4026H17.1424C16.8972 10.4026 16.6983 10.2038 16.6983 9.95853V9.54056C16.6983 9.29529 16.8972 9.09646 17.1424 9.09646H18.0045V10.4026Z" fill="black"/>
<path d="M19.2715 9.09646H17.9653V10.4026H19.2715V9.09646Z" fill="black"/>
<path d="M20.5385 9.09646H19.2323V10.4026H20.5385V9.09646Z" fill="black"/>
<path d="M20.4993 10.4026V9.09646H21.3613C21.6066 9.09646 21.8054 9.29529 21.8054 9.54056V10.4026H20.4993Z" fill="black"/>
<path d="M24.3394 9.09646H23.0332V10.4026H24.3394V9.09646Z" fill="black"/>
<path d="M25.6064 9.09646H24.3002V10.4026H25.6064V9.09646Z" fill="black"/>
<path d="M26.8734 9.09646H25.5672V10.4026H26.8734V9.09646Z" fill="black"/>
<path d="M26.8342 9.09646H28.1403V9.95853C28.1403 10.2038 27.9415 10.4026 27.6962 10.4026H26.8342V9.09646Z" fill="black"/>
<path d="M30.6743 10.4026H29.8122C29.567 10.4026 29.3681 10.2038 29.3681 9.95853V9.54056C29.3681 9.29529 29.567 9.09646 29.8122 9.09646H30.6743V10.4026Z" fill="black"/>
<path d="M31.9413 9.09646H30.6351V10.4026H31.9413V9.09646Z" fill="black"/>
<path d="M31.9021 10.4026V9.09646H32.7642C33.0094 9.09646 33.2083 9.29529 33.2083 9.54056V10.4026H31.9021Z" fill="black"/>
<path d="M19.2715 10.3634H17.9653V11.6696H19.2715V10.3634Z" fill="black"/>
<path d="M20.5385 10.3634H19.2323V11.6696H20.5385V10.3634Z" fill="black"/>
<path d="M21.8054 10.3634H20.4993V11.6696H21.8054V10.3634Z" fill="black"/>
<path d="M24.3394 10.3634V11.2255C24.3394 11.4708 24.1406 11.6696 23.8953 11.6696H23.4773C23.2321 11.6696 23.0332 11.4708 23.0332 11.2255V10.3634H24.3394Z" fill="black"/>
<path d="M26.8734 10.3634H25.5672V11.6696H26.8734V10.3634Z" fill="black"/>
<path d="M28.1012 10.737V11.2973C28.1012 11.5037 28.2683 11.6696 28.4747 11.6696H29.0351C29.2427 11.6696 29.4086 11.5024 29.4086 11.296V10.737C29.4073 10.5293 29.2401 10.3634 29.0338 10.3634H28.4747C28.2683 10.3634 28.1012 10.5306 28.1012 10.737Z" fill="black"/>
<path d="M31.9413 10.3634H30.6351V11.6696H31.9413V10.3634Z" fill="black"/>
<path d="M31.9021 10.3634H33.2083V11.2255C33.2083 11.4708 33.0094 11.6696 32.7642 11.6696H31.9021V10.3634Z" fill="black"/>
<path d="M18.0045 12.9366H17.1424C16.8972 12.9366 16.6983 12.7378 16.6983 12.4925V12.0745C16.6983 11.8292 16.8972 11.6304 17.1424 11.6304H18.0045V12.9366Z" fill="black"/>
<path d="M19.2715 11.6304H17.9653V12.9366H19.2715V11.6304Z" fill="black"/>
<path d="M20.5385 11.6304H19.2323V12.9366H20.5385V11.6304Z" fill="black"/>
<path d="M20.4993 11.6304H21.8054V12.4925C21.8054 12.7378 21.6066 12.9366 21.3613 12.9366H20.4993V11.6304Z" fill="black"/>
<path d="M25.6064 12.9366H24.3002V12.0745C24.3002 11.8292 24.499 11.6304 24.7443 11.6304H25.6064V12.9366Z" fill="black"/>
<path d="M26.8734 11.6304H25.5672V12.9366H26.8734V11.6304Z" fill="black"/>
<path d="M30.6743 12.9366H29.3681V12.0745C29.3681 11.8292 29.567 11.6304 29.8122 11.6304H30.6743V12.9366Z" fill="black"/>
<path d="M30.6351 11.6304H31.9413V12.4925C31.9413 12.7378 31.7425 12.9366 31.4972 12.9366H30.6351V11.6304Z" fill="black"/>
<path d="M20.5385 12.8974H19.2323V14.2036H20.5385V12.8974Z" fill="black"/>
<path d="M25.6064 12.8974H24.3002V14.2036H25.6064V12.8974Z" fill="black"/>
<path d="M25.5672 12.8974H26.8734V13.7595C26.8734 14.0047 26.6745 14.2036 26.4293 14.2036H25.5672V12.8974Z" fill="black"/>
<path d="M30.6743 12.8974H29.3681V14.2036H30.6743V12.8974Z" fill="black"/>
<path d="M31.9021 14.2036V13.3415C31.9021 13.0962 32.1009 12.8974 32.3462 12.8974H32.7642C33.0094 12.8974 33.2083 13.0962 33.2083 13.3415V14.2036H31.9021Z" fill="black"/>
<path d="M16.6983 15.4705V14.6085C16.6983 14.3632 16.8972 14.1644 17.1424 14.1644H17.5604C17.8057 14.1644 18.0045 14.3632 18.0045 14.6085V15.4705H16.6983Z" fill="black"/>
<path d="M18.8731 15.4444V15.4705H19.2715V15.0722H19.2454C19.2454 15.2785 19.0782 15.4444 18.8731 15.4444Z" fill="black"/>
<path d="M20.5385 14.1644H19.2323V15.4705H20.5385V14.1644Z" fill="black"/>
<path d="M21.7663 14.5379V15.0983C21.7663 15.3047 21.9335 15.4705 22.1398 15.4705H22.7002C22.9079 15.4705 23.0737 15.3034 23.0737 15.097V14.5379C23.0724 14.3303 22.9052 14.1644 22.6989 14.1644H22.1398C21.9335 14.1644 21.7663 14.3316 21.7663 14.5379Z" fill="black"/>
<path d="M25.6064 14.1644V15.0264C25.6064 15.2717 25.4076 15.4705 25.1623 15.4705H24.7443C24.499 15.4705 24.3002 15.2717 24.3002 15.0264V14.1644H25.6064Z" fill="black"/>
<path d="M26.8342 14.5379V15.0983C26.8342 15.3047 27.0014 15.4705 27.2077 15.4705H27.7681C27.9758 15.4705 28.1417 15.3034 28.1417 15.097V14.5379C28.1403 14.3303 27.9732 14.1644 27.7668 14.1644H27.2077C27.0014 14.1644 26.8342 14.3316 26.8342 14.5379Z" fill="black"/>
<path d="M30.6743 14.1644V15.0264C30.6743 15.2717 30.4755 15.4705 30.2302 15.4705H29.8122C29.567 15.4705 29.3681 15.2717 29.3681 15.0264V14.1644H30.6743Z" fill="black"/>
<path d="M33.2083 14.1644V15.0264C33.2083 15.2717 33.0094 15.4705 32.7642 15.4705H32.3462C32.1009 15.4705 31.9021 15.2717 31.9021 15.0264V14.1644H33.2083Z" fill="black"/>
<path d="M18.0045 15.4314V16.7375H17.1424C16.8972 16.7375 16.6983 16.5387 16.6983 16.2934V15.4314H18.0045Z" fill="black"/>
<path d="M19.2715 15.4314H17.9653V16.7375H19.2715V15.4314Z" fill="black"/>
<path d="M20.5385 15.4314H19.2323V16.7375H20.5385V15.4314Z" fill="black"/>
<path d="M20.4993 16.7375V15.4314H21.3613C21.6066 15.4314 21.8054 15.6302 21.8054 15.8755V16.7375H20.4993Z" fill="black"/>
<path d="M23.0332 15.8049V16.3653C23.0332 16.5716 23.2004 16.7375 23.4068 16.7375H23.9671C24.1748 16.7375 24.3407 16.5703 24.3407 16.364V15.8049C24.3394 15.5972 24.1722 15.4314 23.9658 15.4314H23.4068C23.2004 15.4314 23.0332 15.5985 23.0332 15.8049Z" fill="black"/>
<path d="M30.2759 16.7114V16.7375H30.6743V16.3391H30.6482C30.6482 16.5455 30.481 16.7114 30.2759 16.7114Z" fill="black"/>
<path d="M30.6351 16.7375V15.8755C30.6351 15.6302 30.834 15.4314 31.0792 15.4314H31.4972C31.7425 15.4314 31.9413 15.6302 31.9413 15.8755V16.7375H30.6351Z" fill="black"/>
<path d="M12.5382 17.9784V18.0045H12.9366V17.6061H12.9105C12.9105 17.8125 12.7433 17.9784 12.5382 17.9784Z" fill="black"/>
<path d="M14.2036 18.0045H12.8974V17.1424C12.8974 16.8972 13.0962 16.6983 13.3415 16.6983H14.2036V18.0045Z" fill="black"/>
<path d="M14.1644 18.0045V17.1424C14.1644 16.8972 14.3632 16.6983 14.6085 16.6983H15.0264C15.2717 16.6983 15.4705 16.8972 15.4705 17.1424V18.0045H14.1644Z" fill="black"/>
<path d="M19.2715 16.6983H17.9653V18.0045H19.2715V16.6983Z" fill="black"/>
<path d="M21.8054 16.6983H20.4993V18.0045H21.8054V16.6983Z" fill="black"/>
<path d="M21.7663 18.0045V17.1424C21.7663 16.8972 21.9651 16.6983 22.2104 16.6983H22.6283C22.8736 16.6983 23.0724 16.8972 23.0724 17.1424V18.0045H21.7663Z" fill="black"/>
<path d="M25.208 17.9784V18.0045H25.6064V17.6061H25.5803C25.5803 17.8125 25.4131 17.9784 25.208 17.9784Z" fill="black"/>
<path d="M25.5672 18.0045V17.1424C25.5672 16.8972 25.766 16.6983 26.0113 16.6983H26.4293C26.6745 16.6983 26.8734 16.8972 26.8734 17.1424V18.0045H25.5672Z" fill="black"/>
<path d="M30.6743 18.0045H29.8122C29.567 18.0045 29.3681 17.8057 29.3681 17.5604V17.1424C29.3681 16.8972 29.567 16.6983 29.8122 16.6983H30.6743V18.0045Z" fill="black"/>
<path d="M31.9413 16.6983H30.6351V18.0045H31.9413V16.6983Z" fill="black"/>
<path d="M31.9021 18.0045V16.6983H32.7642C33.0094 16.6983 33.2083 16.8972 33.2083 17.1424V18.0045H31.9021Z" fill="black"/>
<path d="M34.4361 18.0045V17.1424C34.4361 16.8972 34.6349 16.6983 34.8802 16.6983H35.2981C35.5434 16.6983 35.7422 16.8972 35.7422 17.1424V18.0045H34.4361Z" fill="black"/>
<path d="M36.6108 17.9784V18.0045H37.0092V17.6061H36.9831C36.9831 17.8125 36.8159 17.9784 36.6108 17.9784Z" fill="black"/>
<path d="M36.97 18.0045V17.1424C36.97 16.8972 37.1689 16.6983 37.4141 16.6983H37.8321C38.0774 16.6983 38.2762 16.8972 38.2762 17.1424V18.0045H36.97Z" fill="black"/>
<path d="M39.504 17.0719V17.6322C39.504 17.8386 39.6712 18.0045 39.8775 18.0045H40.4379C40.6456 18.0045 40.8115 17.8373 40.8115 17.6309V17.0719C40.8102 16.8642 40.643 16.6983 40.4366 16.6983H39.8775C39.6712 16.6983 39.504 16.8655 39.504 17.0719Z" fill="black"/>
<path d="M42.0379 17.0719V17.6322C42.0379 17.8386 42.2051 18.0045 42.4115 18.0045H42.9719C43.1795 18.0045 43.3454 17.8373 43.3454 17.6309V17.0719C43.3441 16.8642 43.1769 16.6983 42.9705 16.6983H42.4115C42.2051 16.6983 42.0379 16.8655 42.0379 17.0719Z" fill="black"/>
<path d="M10.4026 19.2715H9.09646V18.4094C9.09646 18.1641 9.29529 17.9653 9.54056 17.9653H10.4026V19.2715Z" fill="black"/>
<path d="M11.6696 17.9653H10.3634V19.2715H11.6696V17.9653Z" fill="black"/>
<path d="M12.9366 17.9653H11.6304V19.2715H12.9366V17.9653Z" fill="black"/>
<path d="M14.2036 17.9653H12.8974V19.2715H14.2036V17.9653Z" fill="black"/>
<path d="M16.7375 19.2715H15.8755C15.6302 19.2715 15.4314 19.0727 15.4314 18.8274V18.4094C15.4314 18.1641 15.6302 17.9653 15.8755 17.9653H16.7375V19.2715Z" fill="black"/>
<path d="M18.0045 17.9653H16.6983V19.2715H18.0045V17.9653Z" fill="black"/>
<path d="M19.2715 17.9653H17.9653V19.2715H19.2715V17.9653Z" fill="black"/>
<path d="M21.8054 17.9653V18.8274C21.8054 19.0727 21.6066 19.2715 21.3613 19.2715H20.9434C20.6981 19.2715 20.4993 19.0727 20.4993 18.8274V17.9653H21.8054Z" fill="black"/>
<path d="M25.6064 19.2715H24.7443C24.499 19.2715 24.3002 19.0727 24.3002 18.8274V18.4094C24.3002 18.1641 24.499 17.9653 24.7443 17.9653H25.6064V19.2715Z" fill="black"/>
<path d="M25.5672 17.9653H26.8734V18.8274C26.8734 19.0727 26.6745 19.2715 26.4293 19.2715H25.5672V17.9653Z" fill="black"/>
<path d="M28.1012 18.3389V18.8992C28.1012 19.1056 28.2683 19.2715 28.4747 19.2715H29.0351C29.2427 19.2715 29.4086 19.1043 29.4086 18.8979V18.3389C29.4073 18.1312 29.2401 17.9653 29.0338 17.9653H28.4747C28.2683 17.9653 28.1012 18.1325 28.1012 18.3389Z" fill="black"/>
<path d="M33.2083 17.9653H31.9021V19.2715H33.2083V17.9653Z" fill="black"/>
<path d="M34.0769 19.2454V19.2715H34.4753V18.8731H34.4491C34.4491 19.0795 34.2819 19.2454 34.0769 19.2454Z" fill="black"/>
<path d="M35.7422 17.9653H34.4361V19.2715H35.7422V17.9653Z" fill="black"/>
<path d="M37.0092 17.9653H35.703V19.2715H37.0092V17.9653Z" fill="black"/>
<path d="M38.2762 17.9653H36.97V19.2715H38.2762V17.9653Z" fill="black"/>
<path d="M38.237 19.2715V17.9653H39.0991C39.3443 17.9653 39.5432 18.1641 39.5432 18.4094V19.2715H38.237Z" fill="black"/>
<path d="M40.771 18.3389V18.8992C40.771 19.1056 40.9382 19.2715 41.1445 19.2715H41.7049C41.9126 19.2715 42.0784 19.1043 42.0784 18.8979V18.3389C42.0771 18.1312 41.9099 17.9653 41.7036 17.9653H41.1445C40.9382 17.9653 40.771 18.1325 40.771 18.3389Z" fill="black"/>
<path d="M8.73727 20.5123V20.5385H9.13565V20.1401H9.10952C9.10952 20.3465 8.94233 20.5123 8.73727 20.5123Z" fill="black"/>
<path d="M10.4026 19.2323H9.09646V20.5385H10.4026V19.2323Z" fill="black"/>
<path d="M14.2036 19.2323V20.5385H13.3415C13.0962 20.5385 12.8974 20.3396 12.8974 20.0944V19.2323H14.2036Z" fill="black"/>
<path d="M14.1644 20.5385V19.6764C14.1644 19.4311 14.3632 19.2323 14.6085 19.2323H15.0264C15.2717 19.2323 15.4705 19.4311 15.4705 19.6764V20.5385H14.1644Z" fill="black"/>
<path d="M19.2715 19.2323V20.0944C19.2715 20.3396 19.0727 20.5385 18.8274 20.5385H18.4094C18.1641 20.5385 17.9653 20.3396 17.9653 20.0944V19.2323H19.2715Z" fill="black"/>
<path d="M33.2083 19.2323V20.5385H32.3462C32.1009 20.5385 31.9021 20.3396 31.9021 20.0944V19.2323H33.2083Z" fill="black"/>
<path d="M34.4752 19.2323H33.1691V20.5385H34.4752V19.2323Z" fill="black"/>
<path d="M35.7422 19.2323H34.4361V20.5385H35.7422V19.2323Z" fill="black"/>
<path d="M39.5432 19.2323H38.237V20.5385H39.5432V19.2323Z" fill="black"/>
<path d="M39.504 20.5385V19.6764C39.504 19.4311 39.7028 19.2323 39.9481 19.2323H40.3661C40.6113 19.2323 40.8102 19.4311 40.8102 19.6764V20.5385H39.504Z" fill="black"/>
<path d="M7.86867 21.8054H6.5625V20.9434C6.5625 20.6981 6.76133 20.4993 7.0066 20.4993H7.86867V21.8054Z" fill="black"/>
<path d="M9.13565 20.4993H7.82948V21.8054H9.13565V20.4993Z" fill="black"/>
<path d="M9.09646 20.4993H10.4026V21.3613C10.4026 21.6066 10.2038 21.8054 9.95853 21.8054H9.09646V20.4993Z" fill="black"/>
<path d="M11.6304 21.8054V20.9434C11.6304 20.6981 11.8292 20.4993 12.0745 20.4993H12.4925C12.7378 20.4993 12.9366 20.6981 12.9366 20.9434V21.8054H11.6304Z" fill="black"/>
<path d="M16.7375 21.8054H15.8755C15.6302 21.8054 15.4314 21.6066 15.4314 21.3613V20.9434C15.4314 20.6981 15.6302 20.4993 15.8755 20.4993H16.7375V21.8054Z" fill="black"/>
<path d="M16.6983 21.8054V20.4993H17.5604C17.8057 20.4993 18.0045 20.6981 18.0045 20.9434V21.8054H16.6983Z" fill="black"/>
<path d="M35.7422 20.4993H34.4361V21.8054H35.7422V20.4993Z" fill="black"/>
<path d="M37.0092 20.4993H35.703V21.8054H37.0092V20.4993Z" fill="black"/>
<path d="M38.2762 20.4993H36.97V21.8054H38.2762V20.4993Z" fill="black"/>
<path d="M39.5432 20.4993H38.237V21.8054H39.5432V20.4993Z" fill="black"/>
<path d="M7.86867 21.7663V22.6283C7.86867 22.8736 7.66984 23.0724 7.42457 23.0724H7.0066C6.76133 23.0724 6.5625 22.8736 6.5625 22.6283V21.7663H7.86867Z" fill="black"/>
<path d="M11.2712 23.0463V23.0724H11.6696V22.674H11.6435C11.6435 22.8804 11.4763 23.0463 11.2712 23.0463Z" fill="black"/>
<path d="M12.9366 21.7663H11.6304V23.0724H12.9366V21.7663Z" fill="black"/>
<path d="M14.1644 22.1398V22.7002C14.1644 22.9065 14.3316 23.0724 14.5379 23.0724H15.0983C15.306 23.0724 15.4719 22.9052 15.4719 22.6989V22.1398C15.4705 21.9321 15.3034 21.7663 15.097 21.7663H14.5379C14.3316 21.7663 14.1644 21.9335 14.1644 22.1398Z" fill="black"/>
<path d="M18.0045 21.7663H16.6983V23.0724H18.0045V21.7663Z" fill="black"/>
<path d="M31.9413 23.0724H30.6351V22.2104C30.6351 21.9651 30.834 21.7663 31.0792 21.7663H31.9413V23.0724Z" fill="black"/>
<path d="M33.2083 21.7663H31.9021V23.0724H33.2083V21.7663Z" fill="black"/>
<path d="M34.4752 21.7663H33.1691V23.0724H34.4752V21.7663Z" fill="black"/>
<path d="M35.7422 21.7663H34.4361V23.0724H35.7422V21.7663Z" fill="black"/>
<path d="M39.5432 21.7663H38.237V23.0724H39.5432V21.7663Z" fill="black"/>
<path d="M40.771 22.1398V22.7002C40.771 22.9065 40.9382 23.0724 41.1445 23.0724H41.7049C41.9126 23.0724 42.0784 22.9052 42.0784 22.6989V22.1398C42.0771 21.9321 41.9099 21.7663 41.7036 21.7663H41.1445C40.9382 21.7663 40.771 21.9335 40.771 22.1398Z" fill="black"/>
<path d="M7.82948 23.4068V23.9671C7.82948 24.1735 7.99667 24.3394 8.20304 24.3394H8.76339C8.97107 24.3394 9.13695 24.1722 9.13695 23.9658V23.4068C9.13565 23.1991 8.96846 23.0332 8.76208 23.0332H8.20304C7.99667 23.0332 7.82948 23.2004 7.82948 23.4068Z" fill="black"/>
<path d="M10.0042 24.3133V24.3394H10.4026V23.941H10.3765C10.3765 24.1474 10.2093 24.3133 10.0042 24.3133Z" fill="black"/>
<path d="M11.6696 24.3394H10.3634V23.4773C10.3634 23.2321 10.5623 23.0332 10.8075 23.0332H11.6696V24.3394Z" fill="black"/>
<path d="M11.6304 23.0332H12.9366V23.8953C12.9366 24.1406 12.7378 24.3394 12.4925 24.3394H11.6304V23.0332Z" fill="black"/>
<path d="M15.0722 24.3133V24.3394H15.4705V23.941H15.4444C15.4444 24.1474 15.2772 24.3133 15.0722 24.3133Z" fill="black"/>
<path d="M16.7375 24.3394H15.4314V23.4773C15.4314 23.2321 15.6302 23.0332 15.8755 23.0332H16.7375V24.3394Z" fill="black"/>
<path d="M16.6983 23.0332H18.0045V23.8953C18.0045 24.1406 17.8057 24.3394 17.5604 24.3394H16.6983V23.0332Z" fill="black"/>
<path d="M31.9413 23.0332V24.3394H31.0792C30.834 24.3394 30.6351 24.1406 30.6351 23.8953V23.0332H31.9413Z" fill="black"/>
<path d="M31.9021 23.0332H33.2083V23.8953C33.2083 24.1406 33.0094 24.3394 32.7642 24.3394H31.9021V23.0332Z" fill="black"/>
<path d="M35.7422 23.0332V23.8953C35.7422 24.1406 35.5434 24.3394 35.2981 24.3394H34.8802C34.6349 24.3394 34.4361 24.1406 34.4361 23.8953V23.0332H35.7422Z" fill="black"/>
<path d="M38.2762 24.3394H37.4141C37.1689 24.3394 36.97 24.1406 36.97 23.8953V23.4773C36.97 23.2321 37.1689 23.0332 37.4141 23.0332H38.2762V24.3394Z" fill="black"/>
<path d="M38.237 23.0332H39.5432V23.8953C39.5432 24.1406 39.3443 24.3394 39.0991 24.3394H38.237V23.0332Z" fill="black"/>
<path d="M42.0379 23.4068V23.9671C42.0379 24.1735 42.2051 24.3394 42.4115 24.3394H42.9719C43.1795 24.3394 43.3454 24.1722 43.3454 23.9658V23.4068C43.3441 23.1991 43.1769 23.0332 42.9705 23.0332H42.4115C42.2051 23.0332 42.0379 23.2004 42.0379 23.4068Z" fill="black"/>
<path d="M10.4026 25.6064H9.09646V24.7443C9.09646 24.499 9.29529 24.3002 9.54056 24.3002H10.4026V25.6064Z" fill="black"/>
<path d="M11.6696 24.3002H10.3634V25.6064H11.6696V24.3002Z" fill="black"/>
<path d="M15.4705 25.6064H14.6085C14.3632 25.6064 14.1644 25.4076 14.1644 25.1623V24.7443C14.1644 24.499 14.3632 24.3002 14.6085 24.3002H15.4705V25.6064Z" fill="black"/>
<path d="M16.7375 24.3002H15.4314V25.6064H16.7375V24.3002Z" fill="black"/>
<path d="M33.1691 25.6064V24.7443C33.1691 24.499 33.3679 24.3002 33.6132 24.3002H34.0312C34.2764 24.3002 34.4752 24.499 34.4752 24.7443V25.6064H33.1691Z" fill="black"/>
<path d="M35.703 24.6738V25.2341C35.703 25.4405 35.8702 25.6064 36.0766 25.6064H36.637C36.8446 25.6064 37.0105 25.4392 37.0105 25.2328V24.6738C37.0092 24.4661 36.842 24.3002 36.6356 24.3002H36.0766C35.8702 24.3002 35.703 24.4674 35.703 24.6738Z" fill="black"/>
<path d="M40.4118 25.5803V25.6064H40.8102V25.208H40.784C40.784 25.4144 40.6168 25.5803 40.4118 25.5803Z" fill="black"/>
<path d="M40.771 25.6064V24.7443C40.771 24.499 40.9698 24.3002 41.2151 24.3002H41.633C41.8783 24.3002 42.0771 24.499 42.0771 24.7443V25.6064H40.771Z" fill="black"/>
<path d="M6.5625 26.8734V26.0113C6.5625 25.766 6.76133 25.5672 7.0066 25.5672H7.42457C7.66984 25.5672 7.86867 25.766 7.86867 26.0113V26.8734H6.5625Z" fill="black"/>
<path d="M10.4026 25.5672V26.8734H9.54056C9.29529 26.8734 9.09646 26.6745 9.09646 26.4293V25.5672H10.4026Z" fill="black"/>
<path d="M11.6696 25.5672H10.3634V26.8734H11.6696V25.5672Z" fill="black"/>
<path d="M12.9366 25.5672H11.6304V26.8734H12.9366V25.5672Z" fill="black"/>
<path d="M12.8974 26.8734V25.5672H13.7595C14.0047 25.5672 14.2036 25.766 14.2036 26.0113V26.8734H12.8974Z" fill="black"/>
<path d="M16.7375 25.5672V26.4293C16.7375 26.6745 16.5387 26.8734 16.2934 26.8734H15.8755C15.6302 26.8734 15.4314 26.6745 15.4314 26.4293V25.5672H16.7375Z" fill="black"/>
<path d="M17.6061 26.8472V26.8734H18.0045V26.475H17.9784C17.9784 26.6814 17.8112 26.8472 17.6061 26.8472Z" fill="black"/>
<path d="M17.9653 26.8734V26.0113C17.9653 25.766 18.1641 25.5672 18.4094 25.5672H18.8274C19.0727 25.5672 19.2715 25.766 19.2715 26.0113V26.8734H17.9653Z" fill="black"/>
<path d="M30.6351 25.9408V26.5011C30.6351 26.7075 30.8023 26.8734 31.0087 26.8734H31.569C31.7767 26.8734 31.9426 26.7062 31.9426 26.4998V25.9408C31.9413 25.7331 31.7741 25.5672 31.5677 25.5672H31.0087C30.8023 25.5672 30.6351 25.7344 30.6351 25.9408Z" fill="black"/>
<path d="M34.4753 25.5672V26.8734H33.6132C33.3679 26.8734 33.1691 26.6745 33.1691 26.4293V25.5672H34.4753Z" fill="black"/>
<path d="M34.4361 26.8734V26.0113C34.4361 25.766 34.6349 25.5672 34.8802 25.5672H35.2981C35.5434 25.5672 35.7422 25.766 35.7422 26.0113V26.8734H34.4361Z" fill="black"/>
<path d="M38.2762 26.8734H37.4141C37.1689 26.8734 36.97 26.6745 36.97 26.4293V26.0113C36.97 25.766 37.1689 25.5672 37.4141 25.5672H38.2762V26.8734Z" fill="black"/>
<path d="M39.5432 25.5672H38.237V26.8734H39.5432V25.5672Z" fill="black"/>
<path d="M40.8102 25.5672H39.504V26.8734H40.8102V25.5672Z" fill="black"/>
<path d="M42.0771 25.5672H40.771V26.8734H42.0771V25.5672Z" fill="black"/>
<path d="M7.86867 26.8342H6.5625V28.1403H7.86867V26.8342Z" fill="black"/>
<path d="M7.82948 28.1403V27.2783C7.82948 27.033 8.02831 26.8342 8.27358 26.8342H8.69155C8.93682 26.8342 9.13565 27.033 9.13565 27.2783V28.1403H7.82948Z" fill="black"/>
<path d="M11.6696 26.8342V28.1403H10.8075C10.5623 28.1403 10.3634 27.9415 10.3634 27.6963V26.8342H11.6696Z" fill="black"/>
<path d="M12.9366 26.8342H11.6304V28.1403H12.9366V26.8342Z" fill="black"/>
<path d="M14.2036 26.8342H12.8974V28.1403H14.2036V26.8342Z" fill="black"/>
<path d="M14.1644 28.1403V27.2783C14.1644 27.033 14.3632 26.8342 14.6085 26.8342H15.0264C15.2717 26.8342 15.4705 27.033 15.4705 27.2783V28.1403H14.1644Z" fill="black"/>
<path d="M18.0045 28.1403H16.6983V27.2783C16.6983 27.033 16.8972 26.8342 17.1424 26.8342H18.0045V28.1403Z" fill="black"/>
<path d="M19.2715 26.8342H17.9653V28.1403H19.2715V26.8342Z" fill="black"/>
<path d="M35.703 28.1403V27.2783C35.703 27.033 35.9019 26.8342 36.1471 26.8342H36.5651C36.8104 26.8342 37.0092 27.033 37.0092 27.2783V28.1403H35.703Z" fill="black"/>
<path d="M39.5432 26.8342V28.1403H38.6811C38.4358 28.1403 38.237 27.9415 38.237 27.6963V26.8342H39.5432Z" fill="black"/>
<path d="M40.8102 26.8342H39.504V28.1403H40.8102V26.8342Z" fill="black"/>
<path d="M40.771 26.8342H42.0771V27.6962C42.0771 27.9415 41.8783 28.1403 41.633 28.1403H40.771V26.8342Z" fill="black"/>
<path d="M7.86867 28.1012H6.5625V29.4073H7.86867V28.1012Z" fill="black"/>
<path d="M12.9366 28.1012V28.9632C12.9366 29.2085 12.7378 29.4073 12.4925 29.4073H12.0745C11.8292 29.4073 11.6304 29.2085 11.6304 28.9632V28.1012H12.9366Z" fill="black"/>
<path d="M16.3391 29.3812V29.4073H16.7375V29.0089H16.7114C16.7114 29.2153 16.5442 29.3812 16.3391 29.3812Z" fill="black"/>
<path d="M18.0045 28.1012H16.6983V29.4073H18.0045V28.1012Z" fill="black"/>
<path d="M17.9653 28.1012H19.2715V28.9632C19.2715 29.2085 19.0727 29.4073 18.8274 29.4073H17.9653V28.1012Z" fill="black"/>
<path d="M31.9021 29.4073V28.5453C31.9021 28.3 32.1009 28.1012 32.3462 28.1012H32.7642C33.0094 28.1012 33.2083 28.3 33.2083 28.5453V29.4073H31.9021Z" fill="black"/>
<path d="M37.0092 28.1012H35.703V29.4073H37.0092V28.1012Z" fill="black"/>
<path d="M36.97 29.4073V28.5453C36.97 28.3 37.1689 28.1012 37.4141 28.1012H37.8321C38.0774 28.1012 38.2762 28.3 38.2762 28.5453V29.4073H36.97Z" fill="black"/>
<path d="M42.0379 29.4073V28.5453C42.0379 28.3 42.2368 28.1012 42.482 28.1012H42.9C43.1453 28.1012 43.3441 28.3 43.3441 28.5453V29.4073H42.0379Z" fill="black"/>
<path d="M7.86867 29.3681H6.5625V30.6743H7.86867V29.3681Z" fill="black"/>
<path d="M7.82948 30.6743V29.8122C7.82948 29.567 8.02831 29.3681 8.27358 29.3681H8.69155C8.93682 29.3681 9.13565 29.567 9.13565 29.8122V30.6743H7.82948Z" fill="black"/>
<path d="M14.2036 30.6743H13.3415C13.0962 30.6743 12.8974 30.4755 12.8974 30.2302V29.8122C12.8974 29.567 13.0962 29.3681 13.3415 29.3681H14.2036V30.6743Z" fill="black"/>
<path d="M15.4705 29.3681H14.1644V30.6743H15.4705V29.3681Z" fill="black"/>
<path d="M16.7375 29.3681H15.4314V30.6743H16.7375V29.3681Z" fill="black"/>
<path d="M16.6983 29.3681H18.0045V30.2302C18.0045 30.4755 17.8057 30.6743 17.5604 30.6743H16.6983V29.3681Z" fill="black"/>
<path d="M31.5429 30.6482V30.6743H31.9413V30.2759H31.9152C31.9152 30.4823 31.748 30.6482 31.5429 30.6482Z" fill="black"/>
<path d="M33.2083 29.3681H31.9021V30.6743H33.2083V29.3681Z" fill="black"/>
<path d="M35.3438 30.6482V30.6743H35.7422V30.2759H35.7161C35.7161 30.4823 35.5489 30.6482 35.3438 30.6482Z" fill="black"/>
<path d="M37.0092 29.3681H35.703V30.6743H37.0092V29.3681Z" fill="black"/>
<path d="M43.3441 29.3681V30.2302C43.3441 30.4755 43.1453 30.6743 42.9 30.6743H42.482C42.2368 30.6743 42.0379 30.4755 42.0379 30.2302V29.3681H43.3441Z" fill="black"/>
<path d="M7.86867 30.6351H6.5625V31.9413H7.86867V30.6351Z" fill="black"/>
<path d="M11.6696 31.9413H10.8075C10.5623 31.9413 10.3634 31.7425 10.3634 31.4972V31.0792C10.3634 30.834 10.5623 30.6351 10.8075 30.6351H11.6696V31.9413Z" fill="black"/>
<path d="M11.6304 31.9413V31.0792C11.6304 30.834 11.8292 30.6351 12.0745 30.6351H12.4925C12.7378 30.6351 12.9366 30.834 12.9366 31.0792V31.9413H11.6304Z" fill="black"/>
<path d="M17.9653 31.0087V31.569C17.9653 31.7754 18.1325 31.9413 18.3389 31.9413H18.8992C19.1069 31.9413 19.2728 31.7741 19.2728 31.5677V31.0087C19.2715 30.801 19.1043 30.6351 18.8979 30.6351H18.3389C18.1325 30.6351 17.9653 30.8023 17.9653 31.0087Z" fill="black"/>
<path d="M21.8054 31.9413H20.9434C20.6981 31.9413 20.4993 31.7425 20.4993 31.4972V31.0792C20.4993 30.834 20.6981 30.6351 20.9434 30.6351H21.8054V31.9413Z" fill="black"/>
<path d="M21.7663 31.9413V30.6351H22.6283C22.8736 30.6351 23.0724 30.834 23.0724 31.0792V31.9413H21.7663Z" fill="black"/>
<path d="M25.6064 31.9413H24.7443C24.499 31.9413 24.3002 31.7425 24.3002 31.4972V31.0792C24.3002 30.834 24.499 30.6351 24.7443 30.6351H25.6064V31.9413Z" fill="black"/>
<path d="M26.8734 30.6351H25.5672V31.9413H26.8734V30.6351Z" fill="black"/>
<path d="M26.8342 31.9413V31.0792C26.8342 30.834 27.033 30.6351 27.2783 30.6351H27.6963C27.9415 30.6351 28.1403 30.834 28.1403 31.0792V31.9413H26.8342Z" fill="black"/>
<path d="M31.9413 31.9413H30.6351V31.0792C30.6351 30.834 30.834 30.6351 31.0792 30.6351H31.9413V31.9413Z" fill="black"/>
<path d="M33.2083 30.6351H31.9021V31.9413H33.2083V30.6351Z" fill="black"/>
<path d="M34.4752 30.6351H33.1691V31.9413H34.4752V30.6351Z" fill="black"/>
<path d="M35.7422 30.6351H34.4361V31.9413H35.7422V30.6351Z" fill="black"/>
<path d="M37.0092 30.6351H35.703V31.9413H37.0092V30.6351Z" fill="black"/>
<path d="M38.2762 30.6351H36.97V31.9413H38.2762V30.6351Z" fill="black"/>
<path d="M38.237 31.9413V31.0792C38.237 30.834 38.4358 30.6351 38.6811 30.6351H39.0991C39.3443 30.6351 39.5432 30.834 39.5432 31.0792V31.9413H38.237Z" fill="black"/>
<path d="M7.86867 31.9021V32.7642C7.86867 33.0094 7.66984 33.2083 7.42457 33.2083H7.0066C6.76133 33.2083 6.5625 33.0094 6.5625 32.7642V31.9021H7.86867Z" fill="black"/>
<path d="M9.09646 32.2757V32.836C9.09646 33.0424 9.26365 33.2083 9.47002 33.2083H10.0304C10.238 33.2083 10.4039 33.0411 10.4039 32.8347V32.2757C10.4026 32.068 10.2354 31.9021 10.0291 31.9021H9.47002C9.26365 31.9021 9.09646 32.0693 9.09646 32.2757Z" fill="black"/>
<path d="M14.2036 33.2083H13.3415C13.0962 33.2083 12.8974 33.0094 12.8974 32.7642V32.3462C12.8974 32.1009 13.0962 31.9021 13.3415 31.9021H14.2036V33.2083Z" fill="black"/>
<path d="M15.4705 31.9021H14.1644V33.2083H15.4705V31.9021Z" fill="black"/>
<path d="M16.7375 31.9021H15.4314V33.2083H16.7375V31.9021Z" fill="black"/>
<path d="M16.6983 33.2083V31.9021H17.5604C17.8057 31.9021 18.0045 32.1009 18.0045 32.3462V33.2083H16.6983Z" fill="black"/>
<path d="M19.2323 33.2083V32.3462C19.2323 32.1009 19.4311 31.9021 19.6764 31.9021H20.0944C20.3396 31.9021 20.5385 32.1009 20.5385 32.3462V33.2083H19.2323Z" fill="black"/>
<path d="M23.0724 31.9021V33.2083H22.2104C21.9651 33.2083 21.7663 33.0094 21.7663 32.7642V31.9021H23.0724Z" fill="black"/>
<path d="M23.0332 33.2083V31.9021H23.8953C24.1406 31.9021 24.3394 32.1009 24.3394 32.3462V33.2083H23.0332Z" fill="black"/>
<path d="M25.208 33.1821V33.2083H25.6064V32.8099H25.5803C25.5803 33.0163 25.4131 33.1821 25.208 33.1821Z" fill="black"/>
<path d="M26.8734 31.9021H25.5672V33.2083H26.8734V31.9021Z" fill="black"/>
<path d="M31.9413 31.9021H30.6351V33.2083H31.9413V31.9021Z" fill="black"/>
<path d="M33.2083 31.9021H31.9021V33.2083H33.2083V31.9021Z" fill="black"/>
<path d="M34.4752 31.9021H33.1691V33.2083H34.4752V31.9021Z" fill="black"/>
<path d="M35.7422 31.9021H34.4361V33.2083H35.7422V31.9021Z" fill="black"/>
<path d="M37.0092 31.9021H35.703V33.2083H37.0092V31.9021Z" fill="black"/>
<path d="M38.2762 31.9021H36.97V33.2083H38.2762V31.9021Z" fill="black"/>
<path d="M18.0045 33.1691V34.0312C18.0045 34.2764 17.8057 34.4752 17.5604 34.4752H17.1424C16.8972 34.4752 16.6983 34.2764 16.6983 34.0312V33.1691H18.0045Z" fill="black"/>
<path d="M18.8731 34.4491V34.4753H19.2715V34.0769H19.2454C19.2454 34.2832 19.0782 34.4491 18.8731 34.4491Z" fill="black"/>
<path d="M20.5385 33.1691H19.2323V34.4752H20.5385V33.1691Z" fill="black"/>
<path d="M24.3394 33.1691H23.0332V34.4752H24.3394V33.1691Z" fill="black"/>
<path d="M25.6064 33.1691H24.3002V34.4752H25.6064V33.1691Z" fill="black"/>
<path d="M26.8734 33.1691H25.5672V34.4752H26.8734V33.1691Z" fill="black"/>
<path d="M28.1012 33.5426V34.103C28.1012 34.3094 28.2683 34.4752 28.4747 34.4752H29.0351C29.2427 34.4752 29.4086 34.3081 29.4086 34.1017V33.5426C29.4073 33.335 29.2401 33.1691 29.0338 33.1691H28.4747C28.2683 33.1691 28.1012 33.3363 28.1012 33.5426Z" fill="black"/>
<path d="M31.9413 33.1691H30.6351V34.4752H31.9413V33.1691Z" fill="black"/>
<path d="M33.2083 33.1691H31.9021V34.4752H33.2083V33.1691Z" fill="black"/>
<path d="M38.2762 33.1691H36.97V34.4752H38.2762V33.1691Z" fill="black"/>
<path d="M39.5432 33.1691H38.237V34.4752H39.5432V33.1691Z" fill="black"/>
<path d="M39.504 34.4753V33.6132C39.504 33.3679 39.7028 33.1691 39.9481 33.1691H40.3661C40.6113 33.1691 40.8102 33.3679 40.8102 33.6132V34.4753H39.504Z" fill="black"/>
<path d="M17.6061 35.7161V35.7422H18.0045V35.3438H17.9784C17.9784 35.5502 17.8112 35.7161 17.6061 35.7161Z" fill="black"/>
<path d="M19.2715 35.7422H17.9653V34.8802C17.9653 34.6349 18.1641 34.4361 18.4094 34.4361H19.2715V35.7422Z" fill="black"/>
<path d="M20.5385 34.4361H19.2323V35.7422H20.5385V34.4361Z" fill="black"/>
<path d="M24.3394 34.4361H23.0332V35.7422H24.3394V34.4361Z" fill="black"/>
<path d="M26.8734 34.4361H25.5672V35.7422H26.8734V34.4361Z" fill="black"/>
<path d="M30.2759 35.7161V35.7422H30.6743V35.3438H30.6482C30.6482 35.5502 30.481 35.7161 30.2759 35.7161Z" fill="black"/>
<path d="M31.9413 34.4361H30.6351V35.7422H31.9413V34.4361Z" fill="black"/>
<path d="M33.2083 34.4361H31.9021V35.7422H33.2083V34.4361Z" fill="black"/>
<path d="M34.4361 34.8096V35.37C34.4361 35.5763 34.6033 35.7422 34.8096 35.7422H35.37C35.5777 35.7422 35.7435 35.575 35.7435 35.3687V34.8096C35.7422 34.6019 35.575 34.4361 35.3687 34.4361H34.8096C34.6033 34.4361 34.4361 34.6033 34.4361 34.8096Z" fill="black"/>
<path d="M38.2762 34.4361H36.97V35.7422H38.2762V34.4361Z" fill="black"/>
<path d="M18.0045 37.0092H17.1424C16.8972 37.0092 16.6983 36.8104 16.6983 36.5651V36.1471C16.6983 35.9019 16.8972 35.703 17.1424 35.703H18.0045V37.0092Z" fill="black"/>
<path d="M19.2715 35.703H17.9653V37.0092H19.2715V35.703Z" fill="black"/>
<path d="M20.5385 35.703H19.2323V37.0092H20.5385V35.703Z" fill="black"/>
<path d="M20.4993 37.0092V35.703H21.3613C21.6066 35.703 21.8054 35.9019 21.8054 36.1471V37.0092H20.4993Z" fill="black"/>
<path d="M24.3394 35.703V36.5651C24.3394 36.8104 24.1406 37.0092 23.8953 37.0092H23.4773C23.2321 37.0092 23.0332 36.8104 23.0332 36.5651V35.703H24.3394Z" fill="black"/>
<path d="M26.8734 35.703V37.0092H26.0113C25.766 37.0092 25.5672 36.8104 25.5672 36.5651V35.703H26.8734Z" fill="black"/>
<path d="M28.1403 35.703H26.8342V37.0092H28.1403V35.703Z" fill="black"/>
<path d="M29.4073 35.703H28.1012V37.0092H29.4073V35.703Z" fill="black"/>
<path d="M30.6743 35.703H29.3681V37.0092H30.6743V35.703Z" fill="black"/>
<path d="M31.9413 35.703H30.6351V37.0092H31.9413V35.703Z" fill="black"/>
<path d="M33.2083 35.703H31.9021V37.0092H33.2083V35.703Z" fill="black"/>
<path d="M36.6108 36.9831V37.0092H37.0092V36.6108H36.9831C36.9831 36.8172 36.8159 36.9831 36.6108 36.9831Z" fill="black"/>
<path d="M38.2762 35.703H36.97V37.0092H38.2762V35.703Z" fill="black"/>
<path d="M38.237 37.0092V36.1471C38.237 35.9019 38.4358 35.703 38.6811 35.703H39.0991C39.3443 35.703 39.5432 35.9019 39.5432 36.1471V37.0092H38.237Z" fill="black"/>
<path d="M42.0771 37.0092H40.771V36.1471C40.771 35.9019 40.9698 35.703 41.2151 35.703H42.0771V37.0092Z" fill="black"/>
<path d="M42.0379 37.0092V35.703H42.9C43.1453 35.703 43.3441 35.9019 43.3441 36.1471V37.0092H42.0379Z" fill="black"/>
<path d="M21.8054 36.97V37.8321C21.8054 38.0774 21.6066 38.2762 21.3613 38.2762H20.9434C20.6981 38.2762 20.4993 38.0774 20.4993 37.8321V36.97H21.8054Z" fill="black"/>
<path d="M28.1403 36.97V37.8321C28.1403 38.0774 27.9415 38.2762 27.6963 38.2762H27.2783C27.033 38.2762 26.8342 38.0774 26.8342 37.8321V36.97H28.1403Z" fill="black"/>
<path d="M31.9413 36.97H30.6351V38.2762H31.9413V36.97Z" fill="black"/>
<path d="M33.2083 36.97H31.9021V38.2762H33.2083V36.97Z" fill="black"/>
<path d="M34.4752 36.97H33.1691V38.2762H34.4752V36.97Z" fill="black"/>
<path d="M35.7422 36.97H34.4361V38.2762H35.7422V36.97Z" fill="black"/>
<path d="M37.0092 36.97H35.703V38.2762H37.0092V36.97Z" fill="black"/>
<path d="M36.97 36.97H38.2762V37.8321C38.2762 38.0774 38.0774 38.2762 37.8321 38.2762H36.97V36.97Z" fill="black"/>
<path d="M40.4118 38.2501V38.2762H40.8102V37.8778H40.784C40.784 38.0842 40.6168 38.2501 40.4118 38.2501Z" fill="black"/>
<path d="M42.0771 36.97H40.771V38.2762H42.0771V36.97Z" fill="black"/>
<path d="M42.0379 36.97H43.3441V37.8321C43.3441 38.0774 43.1453 38.2762 42.9 38.2762H42.0379V36.97Z" fill="black"/>
<path d="M24.3394 39.5432H23.4773C23.2321 39.5432 23.0332 39.3443 23.0332 39.0991V38.6811C23.0332 38.4358 23.2321 38.237 23.4773 38.237H24.3394V39.5432Z" fill="black"/>
<path d="M24.3002 39.5432V38.237H25.1623C25.4076 38.237 25.6064 38.4358 25.6064 38.6811V39.5432H24.3002Z" fill="black"/>
<path d="M30.2759 39.517V39.5432H30.6743V39.1448H30.6482C30.6482 39.3512 30.481 39.517 30.2759 39.517Z" fill="black"/>
<path d="M31.9413 38.237H30.6351V39.5432H31.9413V38.237Z" fill="black"/>
<path d="M33.2083 38.237H31.9021V39.5432H33.2083V38.237Z" fill="black"/>
<path d="M37.0092 38.237H35.703V39.5432H37.0092V38.237Z" fill="black"/>
<path d="M39.5432 39.5432H38.6811C38.4358 39.5432 38.237 39.3443 38.237 39.0991V38.6811C38.237 38.4358 38.4358 38.237 38.6811 38.237H39.5432V39.5432Z" fill="black"/>
<path d="M40.8102 38.237H39.504V39.5432H40.8102V38.237Z" fill="black"/>
<path d="M42.0771 38.237H40.771V39.5432H42.0771V38.237Z" fill="black"/>
<path d="M17.9653 39.8775V40.4379C17.9653 40.6443 18.1325 40.8102 18.3389 40.8102H18.8992C19.1069 40.8102 19.2728 40.643 19.2728 40.4366V39.8775C19.2715 39.6699 19.1043 39.504 18.8979 39.504H18.3389C18.1325 39.504 17.9653 39.6712 17.9653 39.8775Z" fill="black"/>
<path d="M21.8054 40.8102H20.9434C20.6981 40.8102 20.4993 40.6113 20.4993 40.3661V39.9481C20.4993 39.7028 20.6981 39.504 20.9434 39.504H21.8054V40.8102Z" fill="black"/>
<path d="M21.7663 40.8102V39.9481C21.7663 39.7028 21.9651 39.504 22.2104 39.504H22.6283C22.8736 39.504 23.0724 39.7028 23.0724 39.9481V40.8102H21.7663Z" fill="black"/>
<path d="M25.6064 39.504H24.3002V40.8102H25.6064V39.504Z" fill="black"/>
<path d="M25.5672 40.8102V39.9481C25.5672 39.7028 25.766 39.504 26.0113 39.504H26.4293C26.6745 39.504 26.8734 39.7028 26.8734 39.9481V40.8102H25.5672Z" fill="black"/>
<path d="M30.6743 40.8102H29.3681V39.9481C29.3681 39.7028 29.567 39.504 29.8122 39.504H30.6743V40.8102Z" fill="black"/>
<path d="M31.9413 39.504H30.6351V40.8102H31.9413V39.504Z" fill="black"/>
<path d="M33.2083 39.504H31.9021V40.8102H33.2083V39.504Z" fill="black"/>
<path d="M34.4752 39.504H33.1691V40.8102H34.4752V39.504Z" fill="black"/>
<path d="M35.7422 39.504H34.4361V40.8102H35.7422V39.504Z" fill="black"/>
<path d="M37.0092 39.504H35.703V40.8102H37.0092V39.504Z" fill="black"/>
<path d="M36.97 40.8102V39.504H37.8321C38.0774 39.504 38.2762 39.7028 38.2762 39.9481V40.8102H36.97Z" fill="black"/>
<path d="M39.1448 40.784V40.8102H39.5432V40.4118H39.517C39.517 40.6182 39.3499 40.784 39.1448 40.784Z" fill="black"/>
<path d="M40.8102 39.504H39.504V40.8102H40.8102V39.504Z" fill="black"/>
<path d="M40.771 39.504H42.0771V40.3661C42.0771 40.6113 41.8783 40.8102 41.633 40.8102H40.771V39.504Z" fill="black"/>
<path d="M25.6064 40.771H24.3002V42.0771H25.6064V40.771Z" fill="black"/>
<path d="M26.8342 41.1445V41.7049C26.8342 41.9112 27.0014 42.0771 27.2077 42.0771H27.7681C27.9758 42.0771 28.1417 41.9099 28.1417 41.7036V41.1445C28.1403 40.9368 27.9732 40.771 27.7668 40.771H27.2077C27.0014 40.771 26.8342 40.9382 26.8342 41.1445Z" fill="black"/>
<path d="M30.6743 40.771V41.633C30.6743 41.8783 30.4755 42.0771 30.2302 42.0771H29.8122C29.567 42.0771 29.3681 41.8783 29.3681 41.633V40.771H30.6743Z" fill="black"/>
<path d="M33.2083 40.771V41.633C33.2083 41.8783 33.0094 42.0771 32.7642 42.0771H32.3462C32.1009 42.0771 31.9021 41.8783 31.9021 41.633V40.771H33.2083Z" fill="black"/>
<path d="M38.2762 40.771H36.97V42.0771H38.2762V40.771Z" fill="black"/>
<path d="M39.5432 40.771H38.237V42.0771H39.5432V40.771Z" fill="black"/>
<path d="M40.8102 40.771H39.504V42.0771H40.8102V40.771Z" fill="black"/>
<path d="M42.0379 41.1445V41.7049C42.0379 41.9112 42.2051 42.0771 42.4115 42.0771H42.9719C43.1795 42.0771 43.3454 41.9099 43.3454 41.7036V41.1445C43.3441 40.9368 43.1769 40.771 42.9705 40.771H42.4115C42.2051 40.771 42.0379 40.9382 42.0379 41.1445Z" fill="black"/>
<path d="M21.8054 43.3441H20.9434C20.6981 43.3441 20.4993 43.1453 20.4993 42.9V42.482C20.4993 42.2368 20.6981 42.0379 20.9434 42.0379H21.8054V43.3441Z" fill="black"/>
<path d="M21.7663 43.3441V42.482C21.7663 42.2368 21.9651 42.0379 22.2104 42.0379H22.6283C22.8736 42.0379 23.0724 42.2368 23.0724 42.482V43.3441H21.7663Z" fill="black"/>
<path d="M25.6064 42.0379V42.9C25.6064 43.1453 25.4076 43.3441 25.1623 43.3441H24.7443C24.499 43.3441 24.3002 43.1453 24.3002 42.9V42.0379H25.6064Z" fill="black"/>
<path d="M34.4753 43.3441H33.6132C33.3679 43.3441 33.1691 43.1453 33.1691 42.9V42.482C33.1691 42.2368 33.3679 42.0379 33.6132 42.0379H34.4753V43.3441Z" fill="black"/>
<path d="M34.4361 43.3441V42.482C34.4361 42.2368 34.6349 42.0379 34.8802 42.0379H35.2981C35.5434 42.0379 35.7422 42.2368 35.7422 42.482V43.3441H34.4361Z" fill="black"/>
<path d="M38.2762 42.0379V43.3441H37.4141C37.1689 43.3441 36.97 43.1453 36.97 42.9V42.0379H38.2762Z" fill="black"/>
<path d="M39.5432 42.0379H38.237V43.3441H39.5432V42.0379Z" fill="black"/>
<path d="M39.504 42.0379H40.8102V42.9C40.8102 43.1453 40.6113 43.3441 40.3661 43.3441H39.504V42.0379Z" fill="black"/>
<path d="M14.3995 12.536V9.73202C14.3995 8.48743 14.2302 8.18375 14.1574 8.11077C14.0844 8.03795 13.7807 7.86864 12.536 7.86864H9.73218C8.48743 7.86864 8.18375 8.03795 8.11093 8.11077C8.03811 8.18375 7.86864 8.48743 7.86864 9.73202V12.536C7.86864 13.7807 8.03811 14.0844 8.11093 14.1574C8.18375 14.23 8.48743 14.3995 9.73218 14.3995H12.536C13.7807 14.3995 14.0844 14.23 14.1574 14.1574C14.2302 14.0844 14.3995 13.7807 14.3995 12.536ZM12.536 6.5625C15.0962 6.5625 15.7057 7.17198 15.7057 9.73202C15.7057 12.2922 15.7057 9.97594 15.7057 12.536C15.7057 15.0962 15.0962 15.7057 12.536 15.7057C9.97594 15.7057 12.2922 15.7057 9.73218 15.7057C7.17198 15.7057 6.5625 15.0962 6.5625 12.536C6.5625 9.97594 6.5625 11.1618 6.5625 9.73202C6.5625 7.17198 7.17198 6.5625 9.73218 6.5625C12.2922 6.5625 9.97594 6.5625 12.536 6.5625ZM11.7349 9.17483C12.8321 9.17483 13.0933 9.43617 13.0933 10.5331C13.0933 11.6304 13.0933 10.6378 13.0933 11.7349C13.0933 12.832 12.8321 13.0933 11.7349 13.0933C10.6378 13.0933 11.6304 13.0933 10.5333 13.0933C9.43617 13.0933 9.17483 12.832 9.17483 11.7349C9.17483 10.6378 9.17483 11.1459 9.17483 10.5331C9.17483 9.43617 9.43617 9.17483 10.5333 9.17483C11.6304 9.17483 10.6378 9.17483 11.7349 9.17483Z" fill="black"/>
<path d="M41.9857 12.536V9.73202C41.9857 8.48743 41.8164 8.18375 41.7436 8.11077C41.6706 8.03795 41.3669 7.86864 40.1222 7.86864H37.3184C36.0736 7.86864 35.77 8.03795 35.6971 8.11077C35.6243 8.18375 35.4548 8.48743 35.4548 9.73202V12.536C35.4548 13.7807 35.6243 14.0844 35.6971 14.1574C35.77 14.23 36.0736 14.3995 37.3184 14.3995H40.1222C41.3669 14.3995 41.6706 14.23 41.7436 14.1574C41.8164 14.0844 41.9857 13.7807 41.9857 12.536ZM40.1222 6.5625C42.6824 6.5625 43.2919 7.17198 43.2919 9.73202C43.2919 12.2922 43.2919 9.97594 43.2919 12.536C43.2919 15.0962 42.6824 15.7057 40.1222 15.7057C37.5621 15.7057 39.8784 15.7057 37.3184 15.7057C34.7582 15.7057 34.1487 15.0962 34.1487 12.536C34.1487 9.97594 34.1487 11.1618 34.1487 9.73202C34.1487 7.17198 34.7582 6.5625 37.3184 6.5625C39.8784 6.5625 37.5621 6.5625 40.1222 6.5625ZM39.3211 9.17483C40.4184 9.17483 40.6795 9.43617 40.6795 10.5331C40.6795 11.6304 40.6795 10.6378 40.6795 11.7349C40.6795 12.832 40.4184 13.0933 39.3211 13.0933C38.224 13.0933 39.2166 13.0933 38.1195 13.0933C37.0224 13.0933 36.761 12.832 36.761 11.7349C36.761 10.6378 36.761 11.1459 36.761 10.5331C36.761 9.43617 37.0224 9.17483 38.1195 9.17483C39.2166 9.17483 38.224 9.17483 39.3211 9.17483Z" fill="black"/>
<path d="M14.3995 40.1222V37.3182C14.3995 36.0736 14.2302 35.77 14.1574 35.697C14.0844 35.6242 13.7807 35.4548 12.536 35.4548H9.73218C8.48743 35.4548 8.18375 35.6242 8.11093 35.697C8.03811 35.77 7.86864 36.0736 7.86864 37.3182V40.1222C7.86864 41.3669 8.03811 41.6706 8.11093 41.7436C8.18375 41.8162 8.48743 41.9857 9.73218 41.9857H12.536C13.7807 41.9857 14.0844 41.8162 14.1574 41.7436C14.2302 41.6706 14.3995 41.3669 14.3995 40.1222ZM12.536 34.1487C15.0962 34.1487 15.7057 34.7582 15.7057 37.3182C15.7057 39.8784 15.7057 37.5621 15.7057 40.1222C15.7057 42.6824 15.0962 43.2919 12.536 43.2919C9.97594 43.2919 12.2922 43.2919 9.73218 43.2919C7.17198 43.2919 6.5625 42.6824 6.5625 40.1222C6.5625 37.5621 6.5625 38.748 6.5625 37.3182C6.5625 34.7582 7.17198 34.1487 9.73218 34.1487C12.2922 34.1487 9.97594 34.1487 12.536 34.1487ZM11.7349 36.761C12.8321 36.761 13.0933 37.0224 13.0933 38.1193C13.0933 39.2166 13.0933 38.224 13.0933 39.3211C13.0933 40.4182 12.8321 40.6795 11.7349 40.6795C10.6378 40.6795 11.6304 40.6795 10.5333 40.6795C9.43617 40.6795 9.17483 40.4182 9.17483 39.3211C9.17483 38.224 9.17483 38.7321 9.17483 38.1193C9.17483 37.0224 9.43617 36.761 10.5333 36.761C11.6304 36.761 10.6378 36.761 11.7349 36.761Z" fill="black"/>
<path fill-rule="evenodd" clip-rule="evenodd" d="M21.3135 24.9707C21.3135 23.2467 21.3135 22.3846 21.849 21.849C22.3846 21.3135 23.2467 21.3135 24.9707 21.3135H25.2755C26.9995 21.3135 27.8616 21.3135 28.3972 21.849C28.9328 22.3846 28.9328 23.2467 28.9328 24.9707V25.2755C28.9328 26.9995 28.9328 27.8616 28.3972 28.3972C27.8616 28.9328 26.9995 28.9328 25.2755 28.9328H24.9707C23.2467 28.9328 22.3846 28.9328 21.849 28.3972C21.3135 27.8616 21.3135 26.9995 21.3135 25.2755V24.9707Z" fill="#0077FF"/>
<path fill-rule="evenodd" clip-rule="evenodd" d="M25.3831 26.8692C23.664 26.8692 22.621 25.6765 22.5802 23.6945H23.4508C23.478 25.1504 24.1404 25.7673 24.6482 25.8942V23.6945H25.4825V24.951C25.9723 24.8967 26.485 24.3252 26.6573 23.6945H27.4786C27.3471 24.47 26.789 25.0415 26.3947 25.2773C26.7893 25.4679 27.4243 25.9668 27.6692 26.8692H26.7665C26.5758 26.266 26.1089 25.7988 25.4828 25.7353V26.8692H25.3831Z" fill="white"/>
</g>
<defs>
<clipPath id="clip0_780_665">
<rect width="50" height="50" fill="white"/>
</clipPath>
</defs>
</svg>
