<svg width="50.000000" height="50.000000" viewBox="0 0 50 50" fill="none" xmlns="http://www.w3.org/2000/svg" xmlns:xlink="http://www.w3.org/1999/xlink">
	<desc>
			Created with Pixso.
	</desc>
	<defs/>
	<rect id="Прямоугольник 13" width="50.000000" height="50.000000" fill="#0077FF" fill-opacity="1.000000"/>
	<path id="path" d="M37.66 39L37.66 16.2L32.88 19.1L32.88 14.26L41.77 9L41.77 39L37.66 39Z" fill="#FFFFFF" fill-opacity="1.000000" fill-rule="evenodd"/>
	<path id="path" d="M24.18 24.32C25.54 24.84 26.68 25.66 27.61 26.8C28.53 27.94 29 29.37 29 31.1C29 32.73 28.59 34.19 27.77 35.49C26.95 36.76 25.81 37.76 24.34 38.49C22.87 39.2 21.2 39.55 19.32 39.55C16.71 39.55 14.49 38.86 12.67 37.48C10.85 36.1 9.62 34.27 9 32L13.04 31.31C13.69 32.77 14.52 33.86 15.53 34.6C16.56 35.33 17.81 35.69 19.28 35.69C20.89 35.69 22.19 35.26 23.2 34.39C24.23 33.53 24.75 32.39 24.75 30.98C24.75 29.63 24.25 28.53 23.24 27.69C22.26 26.83 20.95 26.39 19.32 26.39L16.1 26.39L16.1 22.7L19.32 22.7C20.76 22.7 21.95 22.29 22.87 21.48C23.8 20.67 24.26 19.61 24.26 18.31C24.26 17.01 23.8 15.97 22.87 15.18C21.95 14.37 20.75 13.96 19.28 13.96C18 13.96 16.87 14.32 15.89 15.02C14.94 15.7 14.21 16.64 13.69 17.86L9.73 17.21C10.55 14.91 11.78 13.15 13.44 11.93C15.13 10.72 17.12 10.11 19.4 10.11C21.17 10.11 22.74 10.44 24.1 11.12C25.48 11.8 26.56 12.75 27.32 13.96C28.11 15.16 28.51 16.51 28.51 18.03C28.51 19.54 28.1 20.84 27.28 21.92C26.46 23.01 25.43 23.81 24.18 24.32Z" fill="#FFFFFF" fill-opacity="1.000000" fill-rule="nonzero"/>
</svg>
