<svg width="50.000000" height="50.000000" viewBox="0 0 50 50" fill="none" xmlns="http://www.w3.org/2000/svg" xmlns:xlink="http://www.w3.org/1999/xlink">
	<desc>
			Created with Pixso.
	</desc>
	<defs/>
	<path id="path" d="M0.01 26.08L0.01 43.08L20.44 45.88L20.42 26.21L0.01 26.08Z" fill="#0DA2D6" fill-opacity="1.000000" fill-rule="nonzero"/>
	<path id="path" d="M0.01 43.08L20.44 45.88L20.42 26.21L0.01 43.08ZM49.59 0L22.54 3.94L22.54 23.91L49.59 23.7L49.59 0Z" fill="#20B5EC" fill-opacity="1.000000" fill-rule="nonzero"/>
	<path id="path" d="M49.59 0L22.54 3.94L22.54 23.36L49.59 0Z" fill="#0DA2D6" fill-opacity="1.000000" fill-rule="nonzero"/>
	<path id="path" d="M0 7.07L0.01 24.06L20.44 23.95L20.43 4.3L0 7.07Z" fill="#20B5EC" fill-opacity="1.000000" fill-rule="nonzero"/>
	<path id="path" d="M0.01 24.06L20.44 23.95L20.43 4.3L0.01 24.06Z" fill="#0DA2D6" fill-opacity="1.000000" fill-rule="nonzero"/>
	<path id="path" d="M22.9 46.18L49.99 50L50 26.4L22.86 26.35L22.9 46.18Z" fill="#20B5EC" fill-opacity="1.000000" fill-rule="nonzero"/>
	<path id="path" d="M22.9 46.18L49.99 50L50 26.4L22.9 46.18Z" fill="#0DA2D6" fill-opacity="1.000000" fill-rule="nonzero"/>
</svg>
