<svg width="50" height="50" viewBox="0 0 50 50" fill="none" xmlns="http://www.w3.org/2000/svg">
<path fill-rule="evenodd" clip-rule="evenodd" d="M33.6152 2.00566C31.2734 1.83272 32.5707 5.67291 25.567 6.71976C19.5067 6.6646 19.2282 3.36226 17.832 2.32724C16.8789 1.62075 14.8983 2.50239 12.1974 4.10156C9.70961 5.62174 8.99188 6.44487 8.89567 7.08899C8.73605 8.15766 9.88482 8.63158 10.1131 10.601C10.2352 11.6553 10.5138 13.1381 9.24813 15.3703C7.77929 17.9606 6.52256 18.4925 5.40331 19.0106C1.92384 20.6209 0.51475 16.3174 0.0493702 25.5219C-0.356522 33.5498 1.76818 28.9685 5.39596 30.6712C6.37294 31.1297 7.67139 31.4483 8.80415 33.3056C15.1781 43.7568 2.44966 39.9518 12.8769 46.5572C19.709 50.7755 18.6004 43.1744 24.1228 43.0081C36.5319 42.8161 26.81 51.7321 37.8523 46.1722C39.8706 45.2942 40.9523 44.2171 41.3808 43.5072C41.7492 42.8968 41.6177 42.6667 41.3802 41.8108C40.8737 39.9843 39.5821 37.1872 40.834 35.0319C46.8691 25.1325 49.3849 36.9406 50 24.7519C49.9531 22.3092 49.8651 20.7164 49.2417 20.1028C48.5966 19.4678 47.3969 19.8495 46.1987 19.4954C45.1218 19.1771 43.1099 18.7548 42.1942 17.2571C35.8261 6.74759 47.7493 8.85371 37.1725 3.71656C34.9888 2.65596 34.2838 2.05506 33.6149 2.00566H33.6152Z" fill="url(#paint0_linear_374_16)"/>
<path fill-rule="evenodd" clip-rule="evenodd" d="M25.2438 12.7612C18.4545 12.7612 12.8643 18.2476 12.8643 24.9108C12.8643 31.574 18.4545 37.0605 25.2438 37.0605C32.033 37.0605 37.6232 31.574 37.6232 24.9108C37.6232 18.2476 32.033 12.7612 25.2438 12.7612ZM25.2438 20.6643C27.6812 20.6643 29.5707 22.5186 29.5707 24.9108C29.5707 27.303 27.6812 29.1574 25.2438 29.1574C22.8064 29.1574 20.9169 27.303 20.9169 24.9108C20.9169 22.5186 22.8064 20.6643 25.2438 20.6643Z" fill="url(#paint1_linear_374_16)"/>
<path fill-rule="evenodd" clip-rule="evenodd" d="M33.597 24.9108C33.597 29.4385 29.8572 33.1089 25.2439 33.1089C20.6305 33.1089 16.8907 29.4385 16.8907 24.9108C16.8907 20.3831 20.6305 16.7127 25.2439 16.7127C29.8572 16.7127 33.597 20.3831 33.597 24.9108Z" fill="url(#paint2_linear_374_16)"/>
<defs>
<linearGradient id="paint0_linear_374_16" x1="9.48907" y1="5.09843" x2="9.48907" y2="48.4551" gradientUnits="userSpaceOnUse">
<stop stop-color="#818A92"/>
<stop offset="1" stop-color="#65717B"/>
</linearGradient>
<linearGradient id="paint1_linear_374_16" x1="24.0838" y1="13.8982" x2="24.0838" y2="36.4437" gradientUnits="userSpaceOnUse">
<stop stop-color="#C6CDD0"/>
<stop offset="1" stop-color="#F8FAFB"/>
</linearGradient>
<linearGradient id="paint2_linear_374_16" x1="18.1935" y1="18.9726" x2="30.7919" y2="31.2198" gradientUnits="userSpaceOnUse">
<stop stop-color="#0967B6"/>
<stop offset="1" stop-color="#0F4D8F"/>
</linearGradient>
</defs>
</svg>
