<svg width="50" height="50" viewBox="0 0 50 50" fill="none" xmlns="http://www.w3.org/2000/svg">
<path d="M25 0.0625C18.3862 0.0625 12.0432 2.68984 7.36652 7.36652C2.68984 12.0432 0.0625 18.3862 0.0625 25C0.0625 31.6138 2.68984 37.9568 7.36652 42.6335C12.0432 47.3102 18.3862 49.9375 25 49.9375C31.6138 49.9375 37.9568 47.3102 42.6335 42.6335C47.3102 37.9568 49.9375 31.6138 49.9375 25C49.9375 18.3862 47.3102 12.0432 42.6335 7.36652C37.9568 2.68984 31.6138 0.0625 25 0.0625Z" fill="white"/>
<path d="M5.00125 25C5.00125 32.92 9.60125 39.7575 16.2737 43L6.73125 16.86C5.6225 19.3488 5.00125 22.095 5.00125 25ZM38.505 23.9925C38.505 21.5213 37.1762 19.805 36.4175 18.4775C35.4012 16.8162 34.4475 15.4312 34.4475 13.7875C34.4475 11.9562 36.2862 10.2375 38.2487 10.2375C38.3375 10.2375 38.4175 10.245 38.5062 10.2475C34.9512 6.98 30.21 5 25.0012 5C18.265 5 12.31 8.3325 8.68625 13.4362C8.97125 13.5287 9.07 13.485 9.45 13.485C11.5362 13.485 14.78 13.235 14.78 13.235C15.855 13.1638 15.9862 14.75 14.9037 14.88C14.9037 14.88 13.8237 15.0112 12.6187 15.07L20.0325 37.2925L24.4075 24.1663L21.1537 15.1062C20.0775 15.0487 19.055 14.9162 19.055 14.9162C17.9775 14.8462 18.1025 13.1975 19.1775 13.2712C19.1775 13.2712 22.4875 13.5213 24.4487 13.5213C26.5425 13.5213 29.7787 13.2712 29.7787 13.2712C30.855 13.2 30.985 14.7862 29.9087 14.9162C29.9087 14.9162 28.8212 15.0475 27.6187 15.1062L34.9825 37.1187L36.9812 30.4612C37.9987 27.8612 38.505 25.7113 38.505 23.9925ZM25.3512 26.745L19.3512 44.185C21.1462 44.7175 23.0387 45 25.0012 45C27.3275 45 29.5625 44.595 31.6462 43.8662C31.5962 43.7775 31.54 43.6875 31.4987 43.5913L25.3512 26.745ZM42.5537 15.3975C42.6425 16.035 42.6887 16.7212 42.6887 17.4537C42.6887 19.4887 42.3062 21.7675 41.165 24.625L35.0587 42.2937C41.0062 38.8287 45 32.3775 45 25C45 21.5238 44.1112 18.255 42.5537 15.3975Z" fill="#01579B"/>
<path d="M0 25C0 38.78 11.2125 50 24.9988 50C38.7875 50 50 38.78 50 25C50 11.22 38.7875 0 25 0C11.2125 0 0 11.22 0 25ZM2.49375 25C2.49375 12.595 12.5863 2.50125 24.9988 2.50125C37.4113 2.50125 47.5063 12.595 47.5063 25C47.5063 37.405 37.4112 47.5012 25 47.5012C12.59 47.5012 2.49375 37.405 2.49375 25Z" fill="#01579B"/>
</svg>
