<svg width="50.000000" height="50.000000" viewBox="0 0 50 50" fill="none" xmlns="http://www.w3.org/2000/svg" xmlns:xlink="http://www.w3.org/1999/xlink">
	<desc>
			Created with Pixso.
	</desc>
	<defs/>
	<path id="path" d="M25 50C11.2 50 0 38.83 0 25.04C0 11.25 11.2 0 25 0C38.79 0 50 11.25 50 25.04C50 38.83 38.79 50 25 50Z" fill="#FF5226" fill-opacity="1.000000" fill-rule="nonzero"/>
	<path id="path" d="M23.3 7L1 43L11.22 43L24.11 22.24L23.79 22.1L20.22 36.95L27.79 38.33L35.56 28.22L35.14 28L32.51 39.48L49 36.23L45.63 30.51L39.69 31.91L40.39 32.75L43.16 20.76L36.72 16.3L28.28 27.28L28.7 27.49L32.16 13.11L23.3 7Z" fill="#FFDD00" fill-opacity="1.000000" fill-rule="nonzero"/>
</svg>
