<svg width="51" height="51" viewBox="0 0 51 51" fill="none" xmlns="http://www.w3.org/2000/svg">
<path d="M25.5928 39.3641C40.4592 39.3641 49.1908 32.9829 49.1908 32.9829L49.1838 42.3772C49.1838 42.3772 40.7161 50.2035 25.598 50.2035H25.5928C10.4747 50.2035 2.00703 42.3772 2.00703 42.3772L2 32.9829C2 32.9829 10.7263 39.3621 25.5928 39.3621V39.3641Z" fill="#FF4646"/>
<path d="M38.1494 0.204475C36.4962 0.182728 34.8556 0.524896 33.3225 1.21115C31.7895 1.8974 30.3945 2.9141 29.2185 4.20231C28.0426 5.49053 27.1089 7.02465 26.4717 8.71577C25.8344 10.4069 25.5063 12.2214 25.5063 14.0541C25.5063 15.8868 25.8344 17.7013 26.4717 19.3924C27.1089 21.0836 28.0426 22.6177 29.2185 23.9059C30.3945 25.1941 31.7895 26.2108 33.3225 26.8971C34.8556 27.5833 36.4962 27.9255 38.1494 27.9037C41.4374 27.8605 44.5774 26.3823 46.8886 23.7897C49.1999 21.1971 50.496 17.699 50.496 14.0541C50.496 10.4092 49.1999 6.91113 46.8886 4.31853C44.5774 1.72592 41.4374 0.247726 38.1494 0.204475ZM38.1494 19.2135C35.6459 19.2135 33.6226 16.8283 33.6226 14.0531C33.6226 11.2779 35.6529 8.89474 38.1494 8.89474C40.6477 8.89474 42.678 11.2779 42.678 14.0531C42.6832 16.8283 40.6547 19.2135 38.1494 19.2135ZM10.5823 0.908512H0.495998V27.2523H10.7019C18.1404 27.2523 23.3217 21.3568 23.3217 14.0804V13.7411C23.327 6.46669 17.9205 0.908512 10.5823 0.908512ZM15.5243 14.0804C15.5243 16.7562 13.8283 18.8605 10.9711 18.9541C9.47568 19.0067 8.12626 18.9541 8.12626 18.9541V9.20678C8.12626 9.20678 9.32965 9.15412 10.9711 9.20678C13.8881 9.30039 15.5225 11.4047 15.5225 14.0824L15.5243 14.0804Z" fill="white"/>
</svg>
