<svg width="257" height="257" xmlns="http://www.w3.org/2000/svg">

 <g>
  <title>background</title>
  <rect fill="none" id="canvas_background" height="259" width="259" y="-1" x="-1"/>
 </g>
 <g>
  <title>Layer 1</title>
  <path id="svg_7" fill="#87E64B" d="m140.12933,256.75c6.323,0 11.45,-5.126 11.45,-11.45c0,-6.323 -5.127,-11.45 -11.45,-11.45c-6.3239,0 -11.4502,5.127 -11.4502,11.45c0,6.324 5.1263,11.45 11.4502,11.45z"/>
  <path id="svg_8" fill="#87E64B" d="m205.89933,167.33l-64.51,6.91c-1.18,0.13 -1.79,-1.38 -0.85,-2.11l63.13,-49.15c4.1,-3.35 6.71,-8.57 5.59,-14.16c-1.12,-8.57 -8.2,-14.1597 -17.14,-13.0397l-68.5902,10.0397c-1.21,0.18 -1.86,-1.37 -0.89,-2.11l67.9902,-51.9097c13.42,-10.43 14.53,-30.93 2.24,-42.84996c-11.18,-11.18 -29.07,-10.80999 -40.25,0.37001l-109.56021,111.41965c-4.1,4.47 -5.95999,10.43 -4.83999,16.77c1.86,10.06 11.92,16.77 21.99,14.91l59.06,-12.05c1.28,-0.26 1.98,1.45 0.87,2.15l-65.53,41.94c-8.2,5.22 -11.92001,14.53 -9.32001,23.85c2.61001,12.3 14.91001,19.38 26.83001,16.4l97.9502,-24.13c1.1,-0.27 1.91,1.01 1.2,1.89l-15.3,18.88c-4.1,5.22 2.61,12.3 8.2,8.2l50.31,-41.36c8.94,-7.45 2.98,-21.99 -8.57,-20.87l-0.01,0.01z"/>
 </g>
</svg>