<svg width="29" height="20" xmlns="http://www.w3.org/2000/svg">

 <g>
  <title>background</title>
  <rect fill="none" id="canvas_background" height="22" width="31" y="-1" x="-1"/>
 </g>
 <g>
  <title>Layer 1</title>
  <g id="svg_1" fill="#FFFFFF">
   <path id="svg_2" fill="#FF0033" d="m14.4848,20c0,0 9.0847,0 11.3381,-0.6c1.2688,-0.34 2.223,-1.32 2.5579,-2.53c0.6192,-2.22 0.6192,-6.89 0.6192,-6.89c0,0 0,-4.64 -0.6192,-6.84c-0.3349,-1.24 -1.2891,-2.2 -2.5579,-2.53c-2.2534,-0.61 -11.3381,-0.61 -11.3381,-0.61c0,0 -9.06443,0 -11.30769,0.61c-1.24851,0.33 -2.22296,1.29 -2.57823,2.53c-0.59888,2.2 -0.59888,6.84 -0.59888,6.84c0,0 0,4.67 0.59888,6.89c0.35527,1.21 1.32972,2.19 2.57823,2.53c2.24326,0.6 11.30769,0.6 11.30769,0.6z"/>
   <path id="svg_3" fill="#FFFFFF" d="m19,10l-7.5,-4.25l0,8.5l7.5,-4.25z"/>
  </g>
 </g>
</svg>