<svg width="20" height="20" xmlns="http://www.w3.org/2000/svg">

 <g>
  <title>background</title>
  <rect fill="none" id="canvas_background" height="22" width="22" y="-1" x="-1"/>
 </g>
 <g>
  <title>Layer 1</title>
  <path id="svg_1" fill="#ffffff" d="m11.29297,9.34369l8.012,-9.368l-5.307,0l-11.42,14.239l0,5.723l4.298,0l0,-6.132l1.575,-1.857l6.095,7.989l5.29,0l-8.543,-10.594zm31.45,10.595l5.736,-19.98l-4.828,0l-3.51,14.427l-3.8,-14.427l-3.356,0l-4.17983,14.426l-3.19917,-14.426l-4.811,0l5.77,19.963l4.553,0l3.51,-13.712l3.527,13.712l4.588,0l0,0.017zm16.95,0.357c6.095,0 10.546,-4.31 10.546,-10.322c0,-6.013 -4.434,-10.339 -10.546,-10.339c-6.078,0 -10.512,4.31 -10.512,10.322c0,6.013 4.434,10.34 10.512,10.34l0,-0.001zm0,-3.781c-3.715,0 -6.095,-2.845 -6.095,-6.558c0,-3.747 2.38,-6.558 6.095,-6.558s6.129,2.81 6.129,6.558c0,3.713 -2.414,6.558 -6.13,6.558l0.001,0zm30.132,3.424l-4.537,-7.597c2.174,-0.511 4.417,-2.402 4.417,-5.928c0,-3.713 -2.568,-6.438 -6.762,-6.438l-9.435,0l0,19.963l4.297,0l0,-7.104l3.15,0l3.956,7.103l4.913,0l0.001,0.001zm-7.533,-10.85l-4.503,0l0,-5.384l4.503,0c1.73,0 3.013,1.022 3.013,2.691c0.017,1.687 -1.284,2.691 -3.013,2.691l0,0.002zm28.386,10.849l-8.56,-10.595l8.012,-9.368l-5.29,0l-7.122,8.925l0,-8.941l-4.298,0l0,19.963l4.298,0l0,-6.132l1.575,-1.857l6.095,7.989l5.29,0l0,0.017l0,-0.001z" clip-rule="evenodd" fill-rule="evenodd"/>
  <path id="svg_2" fill="#FFA800" d="m6.87597,4.11469l-4.298,5.195l0,-6.848l-1.9,0l0,-2.589l6.198,0l0,4.242z" clip-rule="evenodd" fill-rule="evenodd"/>
 </g>
</svg>