<svg width="90" height="90" viewBox="0 0 90 90" fill="none" xmlns="http://www.w3.org/2000/svg">
<g clip-path="url(#clip0_18686_3346)">
<rect width="90" height="90" rx="24" fill="#0077FF"/>
<path fill-rule="evenodd" clip-rule="evenodd" d="M43.7978 17.8488C46.7826 17.7507 49.6976 18.832 52.3022 21.1456L52.6044 21.414L52.8326 21.7475C55.7325 25.9857 56.2448 30.6412 54.9695 35.1013C53.7281 39.4428 50.8431 43.4744 47.1461 46.9272C43.4505 50.3788 38.7581 53.4273 33.5542 55.7709C34.878 59.3026 37.1643 62.1926 40.7367 64.0552C45.5808 66.5808 52.0921 66.2789 58.2388 63.7303C57.6806 62.4679 57.2746 61.1549 56.9938 59.8584C56.0632 55.5607 56.3627 50.8904 57.4233 47.2398C59.4843 40.1457 65.7267 36.7458 71.2354 37.6905C74.005 38.1654 76.607 39.7726 78.0752 42.5516C79.5351 45.3149 79.6257 48.7532 78.4085 52.4822C76.7639 57.5209 73.1434 61.9401 68.6507 65.314C74.821 67.7106 83.8575 65.9934 91.6623 55.1867L93.5886 52.5196L98.923 56.3722L96.9967 59.0393C87.4104 72.3127 74.5814 75.5181 64.8393 70.8274C63.8718 70.3616 63.0063 69.7979 62.2341 69.1586C62.0688 69.2359 61.9031 69.3117 61.7371 69.3863C54.2332 72.7556 45.129 73.766 37.6947 69.8899C32.4261 67.143 29.2073 62.8801 27.413 58.1252C24.0004 59.2146 20.4632 59.991 16.9159 60.3831L13.6458 60.7447L12.9227 54.2045L16.1928 53.8429C19.4556 53.4822 22.7076 52.7482 25.8277 51.7224C24.9969 45.598 25.834 39.1795 27.2732 33.8738C28.5477 29.1757 31.8072 23.9134 36.0905 20.75C38.2668 19.1427 40.8931 17.9441 43.7978 17.8488ZM32.1708 49.1542C36.2033 47.1961 39.8091 44.7761 42.6548 42.1183C45.8016 39.1793 47.8329 36.1251 48.643 33.2923C49.3838 30.7013 49.143 28.2077 47.6268 25.8051C46.269 24.7002 45.0605 24.3909 44.0137 24.4253C42.809 24.4649 41.4428 24.9772 39.9996 26.043C37.0439 28.226 34.5563 32.1593 33.6238 35.5966C32.4793 39.8156 31.826 44.6274 32.1708 49.1542ZM64.0345 60.5401C67.982 57.75 70.9401 54.1572 72.1532 50.4405C72.9833 47.8974 72.6643 46.3959 72.2572 45.6253C71.8583 44.8704 71.136 44.3496 70.1233 44.1759C68.0674 43.8234 64.9135 45.0438 63.7421 49.0756C62.9677 51.7411 62.7396 55.3011 63.4249 58.4659C63.5861 59.2103 63.7898 59.9029 64.0345 60.5401Z" fill="white"/>
</g>
<defs>
<clipPath id="clip0_18686_3346">
<rect width="90" height="90" rx="24" fill="white"/>
</clipPath>
</defs>
</svg>
