<svg width="90" height="90" viewBox="0 0 90 90" fill="none" xmlns="http://www.w3.org/2000/svg">
<g clip-path="url(#clip0_18686_3351)">
<rect width="90" height="90" rx="24" fill="#0077FF"/>
<path fill-rule="evenodd" clip-rule="evenodd" d="M94.5753 19.4025C81.4298 22.9078 63.1205 33.4894 44.3921 62.8255L41.5892 67.216L38.2258 63.2385L41.1568 60.7601C38.2258 63.2385 38.2259 63.2386 38.2258 63.2385L37.8188 62.7569C37.5567 62.4468 37.1772 61.9975 36.7073 61.4409C35.7675 60.3278 34.4659 58.7849 33.0185 57.066C30.1266 53.6315 26.6432 49.4833 24.3037 46.6587L21.8554 43.7025L27.7676 38.8058L30.216 41.7619C32.5334 44.5599 35.9985 48.6865 38.8908 52.1213C39.5568 52.9123 40.1919 53.6659 40.775 54.3575C59.3737 26.9397 77.9779 15.8833 92.5973 11.9849C100.238 9.94756 106.65 9.90508 111.209 10.3967C113.486 10.6422 115.299 11.0208 116.572 11.3493C117.209 11.5136 117.711 11.6657 118.07 11.7827C118.25 11.8412 118.394 11.8911 118.5 11.9293C118.554 11.9485 118.598 11.9647 118.633 11.9778L118.678 11.9949L118.695 12.0015L118.703 12.0043C118.706 12.0056 118.709 12.0068 117.316 15.5833L118.709 12.0068C120.684 12.7765 121.662 15.0016 120.892 16.9769C120.125 18.9458 117.911 19.9232 115.941 19.1671C115.939 19.1662 115.935 19.1648 115.929 19.1628C115.925 19.1611 115.918 19.1589 115.911 19.1562C115.872 19.1423 115.799 19.1165 115.691 19.0815C115.477 19.0116 115.128 18.9049 114.654 18.7826C113.705 18.5379 112.259 18.2312 110.386 18.0292C106.643 17.6256 101.191 17.6384 94.5753 19.4025Z" fill="white"/>
</g>
<defs>
<clipPath id="clip0_18686_3351">
<rect width="90" height="90" rx="24" fill="white"/>
</clipPath>
</defs>
</svg>
