<svg width="90" height="90" viewBox="0 0 90 90" fill="none" xmlns="http://www.w3.org/2000/svg">
<rect width="90" height="90" rx="24" fill="#0077FF"/>
<path d="M45 11C63.7359 11 79 26.2641 79 45C79 56.6725 73.5528 62.1796 66.669 62.1796C62.6585 62.1796 59.1866 60.0845 57.2113 56.9718C54.0986 60.1444 49.7887 62.1197 45 62.1197C35.5423 62.1197 27.8803 54.4577 27.8803 45C27.8803 35.5423 35.5423 27.8803 45 27.8803C54.4577 27.8803 62.1197 35.5423 62.1197 45V50.5669C62.1197 53.3803 64.0951 55.3556 66.669 55.3556C69.7218 55.3556 72.2359 52.7817 72.2359 45C72.2359 29.9754 60.0246 17.7641 45 17.7641C29.9754 17.7641 17.7641 29.9754 17.7641 45C17.7641 60.0246 29.9754 72.2359 45 72.2359C53.6796 72.2359 59.6655 67.9261 59.6655 67.9261L64.1549 73.0739C64.1549 73.0739 56.493 79 45 79C26.2641 79 11 63.7359 11 45C11 26.2641 26.2641 11 45 11ZM34.6444 45C34.6444 50.6866 39.2535 55.3556 45 55.3556C50.6866 55.3556 55.3556 50.6866 55.3556 45C55.3556 39.2535 50.6866 34.6444 45 34.6444C39.2535 34.6444 34.6444 39.2535 34.6444 45Z" fill="white"/>
</svg>
