<svg width="90" height="90" viewBox="0 0 90 90" fill="none" xmlns="http://www.w3.org/2000/svg">
<rect width="90" height="90" rx="24" fill="#0077FF"/>
<path fill-rule="evenodd" clip-rule="evenodd" d="M64.5159 72V30.972L55.916 36.186V27.4812L71.916 18V72H64.5159Z" fill="white"/>
<path d="M40.2466 45.5862C42.6956 46.5122 44.7527 47.9986 46.4181 50.0455C48.0834 52.0924 48.916 54.6754 48.916 57.7945C48.916 60.7186 48.1813 63.3503 46.7119 65.6897C45.2425 67.9802 43.1854 69.7834 40.5405 71.0993C37.8956 72.3664 34.8834 73 31.5038 73C26.8017 73 22.8099 71.7572 19.5283 69.2717C16.2466 66.7862 14.0425 63.4966 12.916 59.4028L20.1895 58.16C21.365 60.7917 22.8589 62.7655 24.6711 64.0814C26.5323 65.3972 28.7854 66.0552 31.4303 66.0552C34.3201 66.0552 36.6711 65.2754 38.4834 63.7159C40.3446 62.1563 41.2752 60.1094 41.2752 57.5752C41.2752 55.1384 40.3691 53.1646 38.5568 51.6538C36.7936 50.0943 34.4425 49.3145 31.5038 49.3145H25.6997V42.6621H31.5038C34.0997 42.6621 36.2303 41.931 37.8956 40.469C39.5609 39.0069 40.3936 37.1062 40.3936 34.7669C40.3936 32.4276 39.5609 30.5513 37.8956 29.1379C36.2303 27.6759 34.0752 26.9448 31.4303 26.9448C29.1283 26.9448 27.0956 27.5784 25.3323 28.8455C23.6181 30.0639 22.2956 31.7697 21.365 33.9628L14.2385 32.7931C15.7079 28.6506 17.9364 25.4828 20.9242 23.2897C23.9609 21.0966 27.5364 20 31.6507 20C34.8344 20 37.6507 20.6092 40.0997 21.8276C42.5976 23.046 44.5323 24.7517 45.9038 26.9448C47.3242 29.0892 48.0344 31.526 48.0344 34.2552C48.0344 36.9844 47.2997 39.3237 45.8303 41.2731C44.3609 43.2225 42.4997 44.6602 40.2466 45.5862Z" fill="white"/>
</svg>
