<svg width="114.52" height="114.52" xmlns="http://www.w3.org/2000/svg" class="SVGInline-svg">
 <defs>
  <style>.cls-1{fill:#3F67F8;}</style>
 </defs>
 <g>
  <title>background</title>
  <rect fill="none" id="canvas_background" height="116.52" width="116.52" y="-1" x="-1"/>
 </g>
 <g>
  <title>Layer 1</title>
  <g id="Layer_2">
   <g id="Layer_1-2">
    <polygon id="svg_8" points="0.34 85.03 0.34 85.03 0.34 85.03 0.34 85.03" class="cls-1"/>
    <path id="svg_9" d="m98.03474,0.52a0.74,0.74 0 0 0 -0.82,-0.52c-14.18,1 -40.01,4.06 -53.36,13.22a1.49,1.49 0 0 0 -0.63,1.06a49.45,49.45 0 0 1 -13,27.53a0.76,0.76 0 0 0 0.79,1.24a25,25 0 0 1 5.5,-1.22a24.65,24.65 0 0 1 19.83,6.88c-0.52,0 -1,0 -1.51,0a32.87,32.87 0 0 0 -32.8,34.38l0,0.2l0.06,0.85l0,0.44l0,0.38l0,0.04a0.68,0.68 0 0 0 0,0.15l0,0.12c0.05,0.42 0.1,0.84 0.17,1.25c0,0.15 0,0.3 0.07,0.44l0,0.15c0.05,0.3 0.1,0.6 0.16,0.9s0.1,0.51 0.16,0.76l0.15,0.65l0.24,0.93l0.1,0.33a32.7,32.7 0 0 0 10.2,15.86l0,0l0,0c0.34,0.3 0.68,0.57 1,0.83l0,0a33.58,33.58 0 0 0 5.77,3.64l0.15,0.07c0.38,0.19 0.77,0.37 1.16,0.54l0.12,0.06l1.26,0.51a32.51,32.51 0 0 0 11.83,2.23c0.52,0 1,0 1.57,0l0.06,0l1.07,-0.08l0.22,0l0.45,0l0.13,0l0.35,0l0.38,-0.05c0.28,0 0.56,-0.06 0.83,-0.11a2.25,2.25 0 0 0 0.36,-0.06l0.36,-0.06c0.3,-0.05 0.6,-0.1 0.9,-0.17l0.52,-0.11l0.17,0c0.29,-0.07 0.59,-0.13 0.88,-0.21l0.73,-0.2l0.21,-0.06l0.58,-0.17l1,-0.32l0.19,-0.07l0.31,-0.1l1.11,-0.43l0.13,-0.06l0.21,-0.08c0.41,-0.17 0.8,-0.34 1.19,-0.53l0.25,-0.11c0.39,-0.18 0.8,-0.39 1.22,-0.61l0.19,-0.1c0.38,-0.2 0.76,-0.42 1.17,-0.66l0.22,-0.13c0.36,-0.22 0.72,-0.44 1.08,-0.68l0.29,-0.18l0.95,-0.66l0.12,-0.09l0.27,-0.19l0.78,-0.61l0.12,-0.09l0.4,-0.33c0.21,-0.16 0.4,-0.33 0.6,-0.5l0,0l0.63,-0.55l0.31,-0.29l0.09,-0.09l0.81,-0.78l0.22,-0.23c0.34,-0.35 0.65,-0.68 0.93,-1l0.05,-0.05c0.42,-0.47 0.86,-1 1.35,-1.63l0.48,-0.63l0,0c0.28,-0.38 0.57,-0.79 0.86,-1.22s0.48,-0.72 0.7,-1.09s0.45,-0.72 0.66,-1.1s0.36,-0.65 0.54,-1s0.32,-0.63 0.47,-1l0,0c0.22,-0.45 0.43,-0.91 0.63,-1.37c0,-0.09 0.07,-0.18 0.1,-0.26c0.14,-0.33 0.28,-0.66 0.41,-1l0.39,-1.08c0.13,-0.39 0.25,-0.78 0.37,-1.18l0,0c0.15,-0.48 0.28,-1 0.4,-1.44l0,0l0,0c0.1,-0.42 0.2,-0.84 0.29,-1.27s0.14,-0.69 0.2,-1s0.15,-0.92 0.22,-1.47l0,0a2.89,2.89 0 0 1 0,-0.29l0.06,-0.39c0,-0.34 0,-0.69 0.06,-1l0,-0.42a32.51,32.51 0 0 0 -0.09,-5.22c0,-0.07 0,-0.15 0,-0.22a0.5,0.5 0 0 0 0,-0.12c-0.1,-0.9 -0.23,-1.79 -0.4,-2.67a1.42,1.42 0 0 0 0,-0.2c-0.06,-0.32 -0.11,-0.65 -0.18,-1c-1.76,-9.52 -9,-21.11 -13.08,-27.16c-0.12,-0.19 -0.25,-0.37 -0.39,-0.55a6.73,6.73 0 0 1 -0.51,-0.76a8.25,8.25 0 0 1 -1.41,-5.33a7.7,7.7 0 0 1 8.4,-7a0.79,0.79 0 0 0 0.68,-0.28a0.72,0.72 0 0 0 0.13,-0.69a12.33,12.33 0 0 1 -0.49,-2.37a12.19,12.19 0 0 1 11.12,-13.51c0.24,0 0.48,0 0.75,-0.05a0.76,0.76 0 0 0 0.68,-1a11.62,11.62 0 0 1 -0.61,-2.65a12.12,12.12 0 0 1 5.63,-11.59a0.76,0.76 0 0 0 0.37,-0.89zm-75.66,84.48z" class="cls-1"/>
   </g>
  </g>
 </g>
</svg>