<svg width="24" height="24" xmlns="http://www.w3.org/2000/svg">
 <title>VK Реклама – платформа для рекламы на проектах VK</title>

 <g>
  <title>background</title>
  <rect fill="none" id="canvas_background" height="26" width="26" y="-1" x="-1"/>
 </g>
 <g>
  <title>Layer 1</title>
  <g id="svg_1">
   <path id="svg_3" fill="#0077FF" d="m0,11.4095c0,-5.37787 0,-8.07207 1.67291,-9.73815c1.66763,-1.67135 4.36434,-1.67135 9.74719,-1.67135l1.1821,0c5.3829,0 8.0743,0 9.7472,1.67135c1.6729,1.67136 1.6729,4.36028 1.6729,9.73815l0,1.181c0,5.3779 0,8.0668 -1.6729,9.7381c-1.6729,1.6714 -4.3643,1.6714 -9.7472,1.6714l-1.1821,0c-5.38285,0 -8.07428,0 -9.74719,-1.6714c-1.67291,-1.6713 -1.67291,-4.3602 -1.67291,-9.7381l0,-1.181z"/>
   <path id="svg_4" fill="#00D9ED" d="m11.965,19.7833c4.3281,0 7.8368,-3.5054 7.8368,-7.8295c0,-4.32414 -3.5087,-7.82953 -7.8368,-7.82953c-4.32816,0 -7.83683,3.50539 -7.83683,7.82953c0,4.3241 3.50867,7.8295 7.83683,7.8295z"/>
   <path id="svg_5" fill="white" d="m19.2613,3.17061l0,1.50263l1.4829,0c0.8444,0 1.2771,1.01231 0.6913,1.61863l-2.0317,2.11951c-0.1795,0.1898 -0.4328,0.29525 -0.6913,0.29525l-1.921,0l-1.9895,2.14057c0.1424,0.3427 0.2269,0.7224 0.2269,1.1178c0,1.587 -1.2877,2.8734 -2.8762,2.8734c-1.5884,0 -2.87609,-1.2864 -2.87609,-2.8734c0,-1.587 1.28769,-2.87348 2.87609,-2.87348c0.2692,0 0.5331,0.03691 0.7811,0.10545l2.2851,-2.45694l0,-1.57645c0,-0.26362 0.1108,-0.5167 0.3008,-0.69596l2.1215,-1.99824c0.6121,-0.57469 1.6148,-0.14236 1.6148,0.69596l0.0053,0.00527z" clip-rule="evenodd" fill-rule="evenodd"/>
  </g>
 </g>
</svg>