<svg width="60" height="60" xmlns="http://www.w3.org/2000/svg" xmlns:xlink="http://www.w3.org/1999/xlink">
 <style>a { cursor: pointer; }</style>

 <g>
  <title>background</title>
  <rect x="-1" y="-1" width="62" height="62" id="canvas_background" fill="none"/>
 </g>
 <g>
  <title>Layer 1</title>
  <a xlink:href="/" id="svg_1">
   <g id="Logo" fill="none" fill-rule="evenodd">
    <g id="Logo-Header-Beta">
     <g id="BODY">
      <g id="LIGHTHOUSE" fill="#BE1622">
       <g id="Layer_2">
        <path d="m22.77242,47.55818l1.43665,2.90952l10.85538,-5.35626l-1.43464,-2.90952l-10.85135,5.35626l-0.00604,0zm2.38034,-7.71044l7.53739,3.72242l1.43665,-2.90952l-7.53739,-3.72242l-1.43665,2.91153l0,-0.00201z" id="Shape"/>
        <path d="m22.04604,50.69306l15.06271,4.38642l0.90545,-3.11073l-15.05869,-4.39245l-0.90948,3.11878l0,-0.00201z" id="Shape"/>
       </g>
       <path d="m29.7766,16.89753c-3.48096,0 -6.29793,2.82099 -6.29793,6.29793c0,3.48096 2.81696,6.29793 6.29793,6.29793c3.47694,0 6.29793,-2.81696 6.29793,-6.29793c0,-3.47694 -2.82099,-6.29793 -6.29793,-6.29793zm0,8.27584c-1.09258,0 -1.97791,-0.88533 -1.97791,-1.97791c0,-1.09258 0.88533,-1.9759 1.97791,-1.9759c1.09258,0 1.9759,0.88533 1.9759,1.9759c0,1.09258 -0.88533,1.97791 -1.9759,1.97791z" id="Shape"/>
       <path d="m33.60365,28.36459c-0.3823,-1.19319 -1.73847,-2.159 -3.01818,-2.159l-1.495,0c-1.28172,0 -2.62984,0.97185 -3.01013,2.159l-9.41671,29.42722c-0.3823,1.1952 0.34206,2.16101 1.63988,2.16101l1.85718,0c0.64388,0 1.30385,-0.48291 1.48293,-1.0966l4.81902,-16.4712c1.15093,-3.91156 1.93767,-7.20942 3.19524,-11.0747l0.21127,0c1.20727,3.86327 1.992,7.16314 3.14494,11.07872l4.86932,16.47321c0.17707,0.60364 0.83704,1.09459 1.47488,1.09459l2.07852,0c1.28373,0 2.01212,-0.97185 1.62982,-2.16101l-9.46701,-29.42722l0.00402,-0.00402z" id="V_1_"/>
      </g>
     </g>
     <g id="FLASHES" fill="#BE1622">
      <path d="m42.92378,21.5254l-1.0966,-0.78473l5.00615,-1.93566l-0.84911,-1.19922l11.17731,-0.96984l0.08652,0.26158l-4.54739,1.79078l0.52717,0.97789l-6.0283,1.47891l0.92557,1.163l-8.34023,1.12679l-0.11469,-0.22737l3.25963,-1.68213" id="flash4"/>
      <path d="m42.51129,9.64184l0.91753,0.73845l-7.84323,5.5132l-0.18109,-0.18914l2.79684,-3.80894l-1.4608,0.08652l3.10872,-3.58157l-0.80485,-0.97789l9.62195,-7.27783l0.18511,0.18914l-3.74254,5.14096l1.1791,-0.00402l-3.78278,4.17716" id="flash3"/>
      <path d="m17.1908,9.64184l-0.91753,0.73845l7.84323,5.5132l0.18109,-0.18914l-2.79684,-3.80894l1.4608,0.08652l-3.10872,-3.58157l0.80485,-0.97789l-9.62396,-7.27783l-0.18109,0.18914l3.74254,5.14096l-1.18111,-0.00402l3.78278,4.17716" id="flash2"/>
      <path d="m16.78234,21.5254l1.09459,-0.78473l-5.00615,-1.93566l0.84911,-1.19922l-11.17731,-0.96984l-0.08652,0.26158l4.55342,1.79078l-0.52919,0.97789l6.03032,1.47891l-0.92557,1.163l8.34023,1.12679l0.11469,-0.22737l-3.25963,-1.68213" id="flash1"/>
     </g>
    </g>
   </g>
  </a>
 </g>
</svg>