<svg width="50" height="50" viewBox="0 0 50 50" fill="none" xmlns="http://www.w3.org/2000/svg">
<path d="M11.125 1.37521L1.375 11.1268C0.492187 12.0097 0 13.1974 0 14.4398V47.6559C0 48.9531 1.04688 50 2.34375 50H47.6562C48.9531 50 50 48.9531 50 47.6559V2.34412C50 1.04704 48.9531 0 47.6562 0H14.4453C13.2031 0 12.0078 0.492266 11.1328 1.37521H11.125Z" fill="url(#paint0_radial_143_45)"/>
<path d="M35.3768 32.9419H31.757V18.3749H41.4062V21.767H35.3768V24.3664H41.0594V27.6742H35.3768V32.9425V32.9419Z" fill="white"/>
<path d="M30.0679 26.8285C29.4524 28.9144 27.2615 30.1547 25.105 29.6353C22.9473 29.1141 21.5954 27.0222 22.0433 24.8959C22.4906 22.769 24.5772 21.3676 26.7692 21.7224C27.6672 21.8444 28.4953 22.275 29.1123 22.9407C29.5388 23.3811 29.8588 23.9138 30.0478 24.4977H33.5272C33.0716 20.8411 29.8588 18.379 26.1264 18.379C24.1398 18.3536 22.2237 19.1173 20.7962 20.5035C20.1004 21.179 19.5489 21.9893 19.1753 22.8853C18.8016 23.7813 18.6135 24.7442 18.6225 25.7154C18.6225 29.8897 21.9698 32.9882 26.1276 32.9882C29.9009 32.9882 33.0088 30.5362 33.5491 26.8285H30.0673H30.0679Z" fill="white"/>
<path d="M18.3015 30.8227H13.2723L12.4494 32.9395H8.59375L14.4939 18.3594H17.0651L23.1993 32.9443H19.1309L18.3015 30.8227ZM14.7042 27.2136L14.5786 27.5429H17.0242L16.9389 27.2956L15.8008 24.1691L14.7048 27.2136H14.7042Z" fill="white"/>
<defs>
<radialGradient id="paint0_radial_143_45" cx="0" cy="0" r="1" gradientUnits="userSpaceOnUse" gradientTransform="rotate(45) scale(70.7105)">
<stop stop-color="#0ECAD4"/>
<stop offset="1" stop-color="#006BD6"/>
</radialGradient>
</defs>
</svg>
