<svg width="50" height="50" viewBox="0 0 50 50" fill="none" xmlns="http://www.w3.org/2000/svg">
<mask id="mask0_198_55" style="mask-type:luminance" maskUnits="userSpaceOnUse" x="0" y="0" width="50" height="50">
<path d="M50 0H0V50H50V0Z" fill="white"/>
</mask>
<g mask="url(#mask0_198_55)">
<path d="M16.3477 50H11.9591C10.6857 50 9.67849 48.8852 9.76536 47.5727L12.764 2.11818C12.8421 0.926137 13.8021 0 14.9577 0H19.3463C20.6197 0 21.6269 1.11477 21.5401 2.42727L18.5414 47.8818C18.4633 49.0739 17.5034 50 16.3477 50Z" fill="#4CAF50"/>
<path d="M0.0172567 37.2182L0.567065 32.6727C0.704517 31.5352 1.64029 30.6818 2.7498 30.6818H46.7004C48.0232 30.6818 49.047 31.8795 48.8831 33.2364L48.3333 37.7818C48.1948 38.9193 47.259 39.7727 46.1495 39.7727H2.2C0.877157 39.7727 -0.146586 38.575 0.0172567 37.2182Z" fill="#4CAF50"/>
<path d="M36.1408 50H31.7522C30.4788 50 29.4716 48.8852 29.5584 47.5727L32.5571 2.11818C32.6352 0.926137 33.5951 0 34.7508 0H39.1394C40.4128 0 41.42 1.11477 41.3331 2.42727L38.3345 47.8818C38.2564 49.0739 37.2965 50 36.1408 50Z" fill="#4CAF50"/>
<path d="M1.11687 16.7636L1.66667 12.2182C1.80413 11.0807 2.7399 10.2273 3.84941 10.2273H47.8C49.1228 10.2273 50.1466 11.425 49.9827 12.7818L49.4329 17.3273C49.2944 18.4648 48.3586 19.3182 47.2491 19.3182H3.29961C1.97677 19.3182 0.95302 18.1205 1.11687 16.7636Z" fill="#4CAF50"/>
</g>
<g id="ahk">
<path d="M39 11H12V38H39V11Z" fill="url(#paint0_linear_198_55)"/>
<path d="M34.9519 12.8667H15.8504C14.9557 12.8667 14.2304 13.592 14.2304 14.4867V33.7254C14.2304 34.6201 14.9557 35.3454 15.8504 35.3454H34.9519C35.8466 35.3454 36.5719 34.6201 36.5719 33.7254V14.4867C36.5719 13.592 35.8466 12.8667 34.9519 12.8667Z" fill="url(#paint1_linear_198_55)"/>
<path d="M16.05 27.2054L18.3072 20.9576H19.1442L21.558 27.2054H20.667L19.9812 25.31H17.5188L16.8708 27.2054H16.05ZM17.7402 24.6458H19.7382L19.128 22.9016C18.939 22.3778 18.7986 21.9458 18.7068 21.6056C18.6312 22.0106 18.5286 22.4102 18.3936 22.799L17.7402 24.6458Z" fill="black"/>
<path d="M23.2428 27.2054V20.9576H24.0204V23.5172H27.0768V20.9576H27.8544V27.2054H27.0768V24.257H24.0204V27.2054H23.2428Z" fill="black"/>
<path d="M29.8686 27.2054V20.9576H30.6462V24.0572L33.5676 20.9576H34.626L32.1582 23.4848L34.734 27.2054H33.7026L31.6074 24.041L30.6462 25.04V27.2054H29.8686Z" fill="black"/>
</g>
<animateTransform
href="#ahk"
attributeName="transform" 
type="translate"
values="0 0; -12 0; -12 12; 10 12; 10 -10; -6 -11; 0 0;" 
dur="9s"
keyTimes="0; 0.11; 0.22; 0.44; 0.66; 0.88; 1"
repeatCount="indefinite"/>
<defs>
<linearGradient id="paint0_linear_198_55" x1="10.6886" y1="8.21945" x2="10.6886" y2="9.30535" gradientUnits="userSpaceOnUse">
<stop stop-color="#D8D8D8"/>
<stop offset="1" stop-color="#A3A3A3"/>
</linearGradient>
<linearGradient id="paint1_linear_198_55" x1="10.3262" y1="8.75157" x2="11.0605" y2="8.75157" gradientUnits="userSpaceOnUse">
<stop stop-color="#D7D7D7"/>
<stop offset="0.5" stop-color="#E7E7E7"/>
<stop offset="1" stop-color="#D7D7D7"/>
</linearGradient>
<clipPath id="clip0_198_55">
<rect width="27" height="27" fill="white" transform="translate(12 11)"/>
</clipPath>
</defs>
</svg>
