<svg width="50" height="50" viewBox="0 0 50 50" fill="none" xmlns="http://www.w3.org/2000/svg">
<path d="M20.1613 1.07527V5.10753C20.1613 5.70161 19.6801 6.1828 19.086 6.1828H7.52688C6.78495 6.1828 6.1828 6.78495 6.1828 7.52688V19.086C6.1828 19.6801 5.70161 20.1613 5.10753 20.1613H1.07527C0.481183 20.1613 0 19.6801 0 19.086V1.6129C0 0.721774 0.721774 0 1.6129 0H19.086C19.6801 0 20.1613 0.481183 20.1613 1.07527ZM29.8387 48.9247V44.8925C29.8387 44.2984 30.3199 43.8172 30.914 43.8172H42.4731C43.2151 43.8172 43.8172 43.2151 43.8172 42.4731V30.914C43.8172 30.3199 44.2984 29.8387 44.8925 29.8387H48.9247C49.5188 29.8387 50 30.3199 50 30.914V48.3871C50 49.2782 49.2782 50 48.3871 50H30.914C30.3199 50 29.8387 49.5188 29.8387 48.9247Z" fill="#7E57C2"/>
<path d="M12.6559 38.172C12.4543 38.172 12.2729 38.0914 12.1102 37.9274C11.9462 37.7648 11.8656 37.5833 11.8656 37.3817C11.8656 37.2567 11.8777 37.1438 11.9032 37.043L20.7473 12.8817C20.8226 12.6062 20.9785 12.3616 21.2178 12.1479C21.4557 11.9355 21.7876 11.828 22.2151 11.828H27.785C28.211 11.828 28.543 11.9355 28.7823 12.1479C29.0202 12.3616 29.1774 12.6062 29.2527 12.8817L38.0592 37.043C38.1089 37.1438 38.1344 37.2567 38.1344 37.3817C38.1344 37.5833 38.0524 37.7648 37.8898 37.9274C37.7272 38.0914 37.5323 38.172 37.3065 38.172H32.6774C32.3011 38.172 32.0188 38.078 31.8307 37.8898C31.6425 37.7016 31.5229 37.5323 31.4731 37.3817L30.0054 33.543H19.957L18.5269 37.3817C18.4758 37.5323 18.3629 37.7016 18.1882 37.8898C18.0121 38.078 17.711 38.172 17.285 38.172H12.6559ZM21.5 28.1237H28.5L25 18.1882L21.5 28.1237Z" fill="#BFBFBF"/>
</svg>
