<svg width="50.000854" height="50.021484" viewBox="0 0 50.0009 50.0215" fill="none" xmlns="http://www.w3.org/2000/svg" xmlns:xlink="http://www.w3.org/1999/xlink">
	<desc>
			Created with Pixso.
	</desc>
	<defs/>
	<path id="path" d="M48.11 26.85L15.92 45.17C15.49 45.41 15.04 45.56 14.56 45.61C14.08 45.67 13.6 45.62 13.14 45.48C12.68 45.34 12.25 45.12 11.88 44.81C11.5 44.49 11.19 44.12 10.96 43.68L1.15 25.25C0.92 24.81 0.77 24.34 0.72 23.85C0.67 23.35 0.71 22.86 0.84 22.38C0.98 21.9 1.2 21.46 1.5 21.07C1.8 20.68 2.16 20.37 2.59 20.13L34.78 1.8C35.2 1.56 35.66 1.42 36.14 1.36C36.62 1.31 37.09 1.35 37.55 1.49C38.02 1.63 38.44 1.85 38.82 2.16C39.19 2.48 39.5 2.85 39.73 3.29L49.54 21.72C49.78 22.16 49.92 22.63 49.97 23.13C50.03 23.62 49.99 24.11 49.85 24.59C49.72 25.07 49.5 25.51 49.2 25.9C48.89 26.29 48.53 26.61 48.11 26.85Z" fill="#FEBC1F" fill-opacity="1.000000" fill-rule="nonzero"/>
	<path id="path" d="M47.4 25.53L15.21 43.85C14.79 44.09 14.34 44.24 13.86 44.29C13.37 44.35 12.9 44.3 12.44 44.16C11.97 44.02 11.55 43.8 11.17 43.49C10.8 43.17 10.49 42.8 10.26 42.36L0.45 23.93C0.21 23.49 0.07 23.02 0.02 22.53C-0.04 22.03 0.01 21.54 0.14 21.06C0.28 20.58 0.49 20.14 0.8 19.75C1.1 19.36 1.46 19.05 1.88 18.81L34.08 0.48C34.5 0.24 34.95 0.09 35.43 0.04C35.91 -0.02 36.39 0.03 36.85 0.17C37.32 0.31 37.74 0.53 38.11 0.84C38.49 1.16 38.8 1.53 39.03 1.97L48.84 20.4C49.07 20.84 49.22 21.31 49.27 21.8C49.32 22.3 49.28 22.79 49.15 23.27C49.01 23.75 48.8 24.19 48.49 24.58C48.19 24.97 47.83 25.28 47.4 25.53Z" fill="#FFD475" fill-opacity="1.000000" fill-rule="nonzero"/>
	<path id="path" d="M34.08 0.48L1.88 18.8C1.46 19.05 1.1 19.36 0.8 19.75C0.49 20.14 0.27 20.58 0.14 21.06C0.01 21.54 -0.04 22.03 0.02 22.52C0.07 23.02 0.21 23.49 0.45 23.93L10.26 42.36C10.26 42.36 1.12 24.28 37.33 0.35C36.23 -0.16 35.14 -0.12 34.08 0.48Z" fill="#FEBC1F" fill-opacity="1.000000" fill-rule="nonzero"/>
	<path id="path" d="M3.33 26.19L4.56 28.5C4.72 28.79 4.95 28.99 5.26 29.08C5.57 29.17 5.86 29.14 6.15 28.98L40.11 9.65C40.39 9.49 40.58 9.25 40.67 8.93C40.75 8.61 40.72 8.3 40.57 8.01L39.34 5.7C39.18 5.41 38.95 5.21 38.64 5.12C38.33 5.03 38.03 5.06 37.75 5.22L3.79 24.55C3.51 24.71 3.32 24.95 3.23 25.27C3.14 25.59 3.18 25.9 3.33 26.19Z" fill="#1D2943" fill-opacity="1.000000" fill-rule="nonzero"/>
	<path id="path" d="M2.99 25.55L4.22 27.86C4.38 28.15 4.61 28.34 4.92 28.44C5.23 28.53 5.52 28.5 5.81 28.34L39.77 9.01C40.05 8.85 40.23 8.61 40.32 8.29C40.41 7.97 40.38 7.66 40.23 7.37L38.99 5.06C38.84 4.77 38.61 4.57 38.3 4.48C37.99 4.39 37.69 4.42 37.41 4.58L3.45 23.91C3.17 24.07 2.98 24.31 2.89 24.63C2.8 24.95 2.83 25.25 2.99 25.55Z" fill="#4C5C75" fill-opacity="1.000000" fill-rule="nonzero"/>
	<path id="path" d="M42.29 50.02L5.54 50.02C5.06 50.02 4.59 49.92 4.15 49.73C3.7 49.54 3.3 49.27 2.96 48.91C2.62 48.56 2.36 48.15 2.17 47.69C1.99 47.23 1.89 46.75 1.89 46.25L1.89 25.21C1.89 24.71 1.99 24.22 2.17 23.76C2.36 23.3 2.62 22.89 2.96 22.54C3.3 22.19 3.7 21.91 4.15 21.72C4.59 21.53 5.06 21.43 5.54 21.43L42.29 21.43C42.77 21.43 43.24 21.53 43.68 21.72C44.13 21.91 44.52 22.19 44.87 22.54C45.21 22.89 45.47 23.3 45.66 23.76C45.84 24.22 45.93 24.71 45.93 25.21L45.93 46.25C45.93 46.75 45.84 47.23 45.66 47.69C45.47 48.15 45.21 48.56 44.87 48.91C44.52 49.27 44.13 49.54 43.68 49.73C43.23 49.92 42.77 50.02 42.29 50.02Z" fill="#5094FF" fill-opacity="1.000000" fill-rule="nonzero"/>
	<path id="path" d="M5.54 48.51L42.29 48.51C42.77 48.51 43.24 48.41 43.68 48.22C44.13 48.03 44.52 47.76 44.87 47.4C45.21 47.05 45.47 46.64 45.66 46.18C45.84 45.72 45.93 45.24 45.93 44.74L45.93 23.7C45.93 23.2 45.84 22.72 45.66 22.25C45.47 21.79 45.21 21.38 44.87 21.03C44.52 20.68 44.13 20.4 43.68 20.21C43.24 20.02 42.77 19.93 42.29 19.93L5.54 19.93C5.06 19.93 4.59 20.02 4.15 20.21C3.7 20.4 3.3 20.68 2.96 21.03C2.62 21.38 2.36 21.79 2.17 22.25C1.99 22.72 1.89 23.2 1.89 23.7L1.89 44.74C1.89 45.24 1.99 45.72 2.17 46.18C2.36 46.64 2.62 47.05 2.96 47.4C3.3 47.76 3.7 48.03 4.15 48.22C4.59 48.41 5.06 48.51 5.54 48.51Z" fill="#57B3FE" fill-opacity="1.000000" fill-rule="nonzero"/>
	<path id="path" d="M5.54 19.93L42.29 19.93C42.77 19.93 43.24 20.02 43.68 20.21C44.13 20.41 44.52 20.68 44.87 21.03C45.21 21.39 45.47 21.79 45.66 22.26C45.84 22.72 45.93 23.2 45.93 23.7L45.93 44.74C45.93 44.74 45.51 24.34 2.63 21.43C3.36 20.43 4.33 19.93 5.54 19.93Z" fill="#5094FF" fill-opacity="1.000000" fill-rule="nonzero"/>
	<path id="path" d="M43.08 41.74L43.08 42.32C43.09 43.12 42.45 43.78 41.67 43.78L37.97 43.78C37.22 43.78 36.57 43.13 36.58 42.32L36.57 41.74L36.66 41.74C36.88 41.17 37.48 40.78 38.1 40.78L41.55 40.78C42.17 40.78 42.77 41.17 42.99 41.74L43.08 41.74Z" fill="#E3E7F0" fill-opacity="1.000000" fill-rule="nonzero"/>
	<path id="path" d="M41.67 43.2L38.09 43.2C37.37 43.2 36.69 42.69 36.59 41.96C36.53 41.52 36.64 41.13 36.92 40.79C37.2 40.46 37.56 40.29 37.98 40.29L41.55 40.29C42.31 40.29 43.03 40.86 43.07 41.65C43.1 42.07 42.97 42.43 42.7 42.74C42.42 43.05 42.08 43.2 41.67 43.2Z" fill="#FFFFFF" fill-opacity="1.000000" fill-rule="nonzero"/>
	<path id="path" d="M32.47 41.74L32.47 42.32C32.48 43.12 31.84 43.78 31.07 43.78L27.37 43.78C26.61 43.78 25.96 43.13 25.97 42.32L25.97 41.74L26.06 41.74C26.28 41.17 26.87 40.78 27.5 40.78L30.94 40.78C31.57 40.78 32.16 41.17 32.38 41.74L32.47 41.74Z" fill="#E3E7F0" fill-opacity="1.000000" fill-rule="nonzero"/>
	<path id="path" d="M31.06 43.2L27.49 43.2C26.77 43.2 26.08 42.69 25.98 41.96C25.92 41.52 26.03 41.13 26.31 40.79C26.59 40.46 26.95 40.29 27.38 40.29L30.94 40.29C31.71 40.29 32.42 40.86 32.46 41.65C32.49 42.07 32.37 42.43 32.09 42.74C31.81 43.05 31.47 43.2 31.06 43.2Z" fill="#FFFFFF" fill-opacity="1.000000" fill-rule="nonzero"/>
	<path id="path" d="M21.86 41.74L21.86 42.32C21.88 43.12 21.23 43.78 20.46 43.78L16.76 43.78C16 43.78 15.35 43.13 15.37 42.32L15.36 41.74L15.45 41.74C15.67 41.17 16.26 40.78 16.89 40.78L20.33 40.78C20.96 40.78 21.55 41.17 21.77 41.74L21.86 41.74Z" fill="#E3E7F0" fill-opacity="1.000000" fill-rule="nonzero"/>
	<path id="path" d="M20.46 43.2L16.88 43.2C16.16 43.2 15.48 42.69 15.38 41.96C15.31 41.52 15.42 41.13 15.7 40.79C15.99 40.46 16.34 40.29 16.77 40.29L20.33 40.29C21.1 40.29 21.81 40.86 21.86 41.65C21.88 42.07 21.76 42.43 21.48 42.74C21.21 43.05 20.86 43.2 20.46 43.2Z" fill="#FFFFFF" fill-opacity="1.000000" fill-rule="nonzero"/>
	<path id="path" d="M11.25 41.74L11.25 42.32C11.27 43.12 10.62 43.78 9.85 43.78L6.15 43.78C5.4 43.78 4.74 43.13 4.76 42.32L4.75 41.74L4.84 41.74C5.06 41.17 5.66 40.78 6.28 40.78L9.73 40.78C10.35 40.78 10.95 41.17 11.16 41.74L11.25 41.74Z" fill="#E3E7F0" fill-opacity="1.000000" fill-rule="nonzero"/>
	<path id="path" d="M9.85 43.2L6.27 43.2C5.55 43.2 4.87 42.69 4.77 41.96C4.71 41.52 4.82 41.13 5.1 40.79C5.38 40.46 5.73 40.29 6.16 40.29L9.73 40.29C10.49 40.29 11.2 40.86 11.25 41.65C11.28 42.07 11.15 42.43 10.88 42.74C10.6 43.05 10.26 43.2 9.85 43.2Z" fill="#FFFFFF" fill-opacity="1.000000" fill-rule="nonzero"/>
	<path id="path" d="M4.75 26.57L4.75 30.09C4.75 30.98 5.45 31.7 6.31 31.7L12.68 31.7C13.54 31.7 14.23 30.98 14.23 30.09L14.23 26.57C14.23 25.69 13.54 24.97 12.68 24.97L6.31 24.97C5.45 24.97 4.75 25.68 4.75 26.57Z" fill="#FEBC1F" fill-opacity="1.000000" fill-rule="nonzero"/>
	<path id="path" d="M4.75 26.02L4.75 29.54C4.75 30.43 5.45 31.15 6.31 31.15L12.68 31.15C13.54 31.15 14.23 30.43 14.23 29.54L14.23 26.02C14.23 25.14 13.54 24.42 12.68 24.42L6.31 24.42C5.45 24.42 4.75 25.14 4.75 26.02Z" fill="#FFD475" fill-opacity="1.000000" fill-rule="nonzero"/>
	<path id="path" d="M9.33 27.4L9.33 24.42L8.59 24.42L8.59 27.4L4.76 27.4L4.76 28.17L6.85 28.17L6.85 31.15L7.59 31.15L7.59 28.17L10.91 28.17L10.91 31.15L11.65 31.15L11.65 28.17L14.23 28.17L14.23 27.4L9.33 27.4Z" fill="#FEBC1F" fill-opacity="1.000000" fill-rule="nonzero"/>
	<path id="path" d="M42.4 30.04L38.25 30.04C37.9 30.04 37.58 29.8 37.53 29.44C37.5 29.23 37.55 29.04 37.68 28.88C37.82 28.72 37.99 28.64 38.2 28.64L42.34 28.64C42.71 28.64 43.05 28.91 43.08 29.29C43.09 29.49 43.03 29.67 42.9 29.82C42.76 29.96 42.6 30.04 42.4 30.04ZM42.4 27.04L35.11 27.04C34.76 27.04 34.44 26.8 34.39 26.45C34.36 26.23 34.41 26.05 34.54 25.89C34.68 25.73 34.85 25.64 35.06 25.64L42.34 25.64C42.71 25.64 43.05 25.92 43.08 26.3C43.09 26.5 43.03 26.67 42.9 26.82C42.76 26.97 42.6 27.04 42.4 27.04ZM41.29 10.73C43.03 13.04 44.45 15.54 45.54 18.24C43.8 15.93 42.38 13.43 41.29 10.73ZM8.94 18.24C11.47 16.23 14.19 14.56 17.11 13.23C14.57 15.23 11.85 16.9 8.94 18.24ZM29.83 46.62C33 46.23 36.17 46.23 39.33 46.62C36.17 47.01 33 47 29.83 46.62Z" fill="#FFFFFF" fill-opacity="1.000000" fill-rule="nonzero"/>
</svg>
