<svg width="50" height="50" viewBox="0 0 50 50" fill="none" xmlns="http://www.w3.org/2000/svg">
<path d="M47.4138 47H19.2529C17.8246 47 16.6667 45.8635 16.6667 44.4615V29.2308C16.6667 27.8288 17.8246 26.6923 19.2529 26.6923H47.4138C48.8421 26.6923 50 27.8288 50 29.2308V44.4615C50 45.8635 48.8421 47 47.4138 47Z" fill="#F06423"/>
<path d="M45.6896 47H19.2529C17.8246 47 16.6667 45.8635 16.6667 44.4615V29.2308C16.6667 27.8288 17.8246 26.6923 19.2529 26.6923H45.6896C47.118 26.6923 48.2758 27.8288 48.2758 29.2308V44.4615C48.2758 45.8635 47.118 47 45.6896 47Z" fill="#FAA51E"/>
<path d="M48.2758 30.0769H16.6667V35.1538H48.2758V30.0769Z" fill="#5F78BE"/>
<path d="M48.2759 35.1538H50V30.0769H48.2759V35.1538Z" fill="#46508C"/>
<path d="M36.2069 35.1538H3.44828C1.54386 35.1538 0 33.6385 0 31.7692V9.76923C0 8.83454 0.771875 8.07692 1.72414 8.07692H37.931C38.8833 8.07692 39.6552 8.83454 39.6552 9.76923V31.7692C39.6552 33.6385 38.1113 35.1538 36.2069 35.1538Z" fill="#46508C"/>
<path d="M32.7586 35.1538H3.44828C1.54386 35.1538 0 33.6385 0 31.7692V9.76923C0 8.83454 0.771875 8.07692 1.72414 8.07692H37.931C36.9788 8.07692 36.2069 8.83454 36.2069 9.76923V31.7692C36.2069 33.6385 34.663 35.1538 32.7586 35.1538Z" fill="#5F78BE"/>
<path d="M32.7586 35.1538H3.44828C1.54386 35.1538 0 33.6385 0 31.7692V26.6923H36.2069V31.7692C36.2069 33.6385 34.663 35.1538 32.7586 35.1538Z" fill="#73CDDC"/>
<path d="M27.5862 43.6154H22.4138C21.4615 43.6154 20.6896 42.8578 20.6896 41.9231V40.2308C20.6896 39.2961 21.4615 38.5385 22.4138 38.5385H27.5862C28.5385 38.5385 29.3103 39.2961 29.3103 40.2308V41.9231C29.3103 42.8578 28.5385 43.6154 27.5862 43.6154Z" fill="#73CDDC"/>
<path d="M39.6552 23.3077C45.3685 23.3077 50 18.7617 50 13.1538C50 7.54603 45.3685 3 39.6552 3C33.9419 3 29.3104 7.54603 29.3104 13.1538C29.3104 18.7617 33.9419 23.3077 39.6552 23.3077Z" fill="#73CDDC"/>
<path d="M41.8234 13.4252C43.1042 12.6917 43.9655 11.3296 43.9655 9.76923C43.9655 7.43268 42.0357 5.53846 39.6552 5.53846C37.2747 5.53846 35.3448 7.43268 35.3448 9.76923C35.3448 11.3296 36.2061 12.6917 37.4869 13.4252C35.2293 14 33.3313 15.4499 32.1906 17.3846C33.6813 19.913 36.4649 21.6154 39.6552 21.6154C42.8455 21.6154 45.629 19.913 47.1197 17.3846C45.979 15.4499 44.081 14 41.8234 13.4252Z" fill="#46508C"/>
<path d="M9.48273 24.1538C13.2916 24.1538 16.3793 21.1232 16.3793 17.3846C16.3793 13.6461 13.2916 10.6154 9.48273 10.6154C5.67387 10.6154 2.58618 13.6461 2.58618 17.3846C2.58618 21.1232 5.67387 24.1538 9.48273 24.1538Z" fill="#46508C"/>
<path d="M12.069 16.3269C12.426 16.3269 12.7155 16.0427 12.7155 15.6923V15.4752C12.7155 14.3118 11.7513 13.3654 10.5661 13.3654H10.1293V12.5898C10.1293 12.2394 9.83976 11.9552 9.48276 11.9552C9.12575 11.9552 8.83621 12.2394 8.83621 12.5898V13.3654H8.39946C7.21422 13.3654 6.25 14.3118 6.25 15.4752C6.25 16.3848 6.84062 17.1891 7.71972 17.4766L10.8369 18.4966C11.1871 18.6111 11.4224 18.9316 11.4224 19.2941C11.4224 19.7576 11.0383 20.1346 10.5661 20.1346H8.39957C7.92737 20.1346 7.54321 19.7576 7.54321 19.2941V19.0769C7.54321 18.7265 7.25366 18.4423 6.89666 18.4423C6.53966 18.4423 6.25011 18.7265 6.25011 19.0769V19.2941C6.25 20.4574 7.21422 21.4039 8.39946 21.4039H8.83621V22.1795C8.83621 22.5299 9.12575 22.8141 9.48276 22.8141C9.83976 22.8141 10.1293 22.5299 10.1293 22.1795V21.4039H10.5661C11.7513 21.4039 12.7155 20.4574 12.7155 19.2941C12.7155 18.3845 12.1249 17.5802 11.2458 17.2926L8.12866 16.2727C7.77845 16.1581 7.5431 15.8376 7.5431 15.4752C7.5431 15.0117 7.92726 14.6346 8.39946 14.6346H10.5659C11.0381 14.6346 11.4223 15.0117 11.4223 15.4752V15.6923C11.4224 16.0427 11.712 16.3269 12.069 16.3269Z" fill="#73CDDC"/>
</svg>
