<svg width="50.000000" height="50.000000" viewBox="0 0 50 50" fill="none" xmlns="http://www.w3.org/2000/svg" xmlns:xlink="http://www.w3.org/1999/xlink">
	<desc>
			Created with Pixso.
	</desc>
	<defs/>
	<path id="path" d="M24.99 49.99C38.79 49.99 49.98 38.8 49.98 24.99C49.98 11.19 38.79 0 24.99 0C11.19 0 0 11.19 0 24.99C0 38.8 11.19 49.99 24.99 49.99Z" fill="#FFC800" fill-opacity="1.000000" fill-rule="nonzero"/>
	<path id="path" d="M35.75 43.62C27.26 48.51 18.05 49.39 12.17 46.46C19.7 50.94 29.37 51.33 37.49 46.64C45.62 41.95 50.11 33.38 49.99 24.62C49.6 31.18 44.23 38.72 35.75 43.62Z" fill="#000000" fill-opacity="1.000000" fill-rule="nonzero"/>
	<path id="path" d="M28.16 1.83C29.88 4.81 25.72 10.43 18.87 14.38C12.01 18.34 5.07 19.13 3.35 16.15C3.27 16.01 3.21 15.85 3.16 15.69C2.71 14.31 3.25 12.51 4.53 10.62C4.74 10.33 4.95 10.03 5.17 9.75C7.11 7.22 9.57 5.03 12.49 3.34C15.42 1.65 18.55 0.62 21.7 0.2C22.07 0.15 22.43 0.11 22.78 0.09C25.06 -0.08 26.88 0.35 27.85 1.43C27.97 1.56 28.07 1.69 28.16 1.83Z" fill="#000000" fill-opacity="1.000000" fill-rule="nonzero"/>
	<path id="path" d="M38.79 5.05C41.79 10.26 35.73 19.38 25.25 25.43C14.77 31.48 3.83 32.17 0.83 26.97C0.33 26.1 0.07 25.14 0.01 24.1C-0.12 27.59 0.48 31.15 1.88 34.52C2.09 35.03 2.32 35.53 2.56 36.02C3.47 37.59 4.84 38.88 6.51 39.78C12.39 42.92 22.33 41.84 31.63 36.47C40.92 31.11 46.83 23.04 47.05 16.38C47.11 14.49 46.72 12.72 45.82 11.16C45.48 10.65 45.13 10.15 44.75 9.67C42.55 6.82 39.8 4.55 36.75 2.93C37.6 3.49 38.29 4.19 38.79 5.05Z" fill="#000000" fill-opacity="1.000000" fill-rule="nonzero"/>
</svg>
