<svg width="50.000122" height="50.000122" viewBox="0 0 50.0001 50.0001" fill="none" xmlns="http://www.w3.org/2000/svg" xmlns:xlink="http://www.w3.org/1999/xlink">
	<desc>
			Created with Pixso.
	</desc>
	<defs/>
	<path id="path" d="M49.25 31.04C45.91 44.44 32.34 52.59 18.95 49.25C5.55 45.91 -2.6 32.34 0.74 18.95C4.08 5.56 17.65 -2.6 31.04 0.74C44.44 4.08 52.59 17.65 49.25 31.04Z" fill="#F7931A" fill-opacity="1.000000" fill-rule="nonzero"/>
	<path id="path" d="M36.01 21.43C36.51 18.11 33.98 16.32 30.52 15.13L31.64 10.62L28.9 9.94L27.8 14.32C27.08 14.14 26.34 13.97 25.6 13.81L26.71 9.39L23.96 8.71L22.84 13.21C22.24 13.08 21.66 12.94 21.09 12.8L17.31 11.84L16.58 14.77C16.58 14.77 18.61 15.24 18.57 15.27C19.68 15.54 19.88 16.28 19.85 16.86L18.57 21.99C18.65 22.01 18.75 22.04 18.85 22.09C18.76 22.06 18.67 22.02 18.57 21.99L16.77 29.21C16.63 29.54 16.29 30.05 15.51 29.86C15.54 29.9 13.52 29.36 13.52 29.36L12.16 32.5L15.73 33.39C16.39 33.56 17.04 33.73 17.68 33.89L16.55 38.45L19.29 39.14L20.41 34.63C21.16 34.83 21.89 35.02 22.6 35.19L21.48 39.68L24.22 40.36L25.36 35.82C30.03 36.7 33.55 36.34 35.03 32.11C36.23 28.71 34.97 26.74 32.51 25.46C34.3 25.05 35.65 23.87 36.01 21.43ZM29.75 30.22C28.9 33.63 23.16 31.79 21.3 31.33L22.81 25.29C24.67 25.75 30.63 26.67 29.75 30.22ZM30.6 21.38C29.82 24.48 25.05 22.91 23.5 22.52L24.87 17.05C26.41 17.43 31.4 18.15 30.6 21.38Z" fill="#FFFFFF" fill-opacity="1.000000" fill-rule="nonzero"/>
</svg>
