<svg width="50" height="50" viewBox="0 0 50 50" fill="none" xmlns="http://www.w3.org/2000/svg">
<path d="M7.92683 35.6266C7.92683 39.5833 7.92683 43.0833 5.48781 45.4167C9.57866 45.4167 14.6341 44.25 17.7927 39.9473C20.0707 40.4688 22.4909 40.75 25 40.75C38.4701 40.75 49.3902 32.6539 49.3902 22.6667C49.3902 12.6794 38.4701 4.58333 25 4.58333C11.5299 4.58333 0.609756 12.6794 0.609756 22.6667C0.609756 27.7247 3.41159 32.2998 7.92683 35.5822V35.6266Z" fill="#F4CCCB"/>
<path d="M25 8.08334C19.5016 8.08334 14.2284 9.61979 10.3405 12.3547C6.45252 15.0896 4.2683 18.7989 4.2683 22.6667C4.2683 26.5344 6.45252 30.2437 10.3405 32.9786C14.2284 35.7135 19.5016 37.25 25 37.25C30.4984 37.25 35.7716 35.7135 39.6595 32.9786C43.5475 30.2437 45.7317 26.5344 45.7317 22.6667C45.7317 18.7989 43.5475 15.0896 39.6595 12.3547C35.7716 9.61979 30.4984 8.08334 25 8.08334Z" fill="#78CDD4"/>
<path d="M5.48781 46C5.24146 46 5.01829 45.8583 4.92439 45.6401C4.82988 45.4219 4.88232 45.1711 5.05671 45.0042C7.27012 42.8867 7.31585 39.6376 7.31707 35.8693C2.59573 32.3459 0 27.6676 0 22.6667C0 12.3737 11.2152 4 25 4C38.7848 4 50 12.3737 50 22.6667C50 32.9596 38.7848 41.3333 25 41.3333C22.6348 41.3333 20.2982 41.0877 18.0488 40.603C14.3811 45.2889 8.63171 46 5.48781 46ZM25 5.16667C11.8872 5.16667 1.21951 13.0172 1.21951 22.6667C1.21951 27.3788 3.73232 31.8005 8.29573 35.1179C8.44756 35.2276 8.53659 35.3997 8.53659 35.5822V35.6272C8.53659 39.0694 8.53659 42.3466 6.81524 44.789C9.90488 44.5813 14.4079 43.5436 17.2939 39.6125C17.4372 39.4165 17.6921 39.3249 17.9348 39.3803C20.2134 39.9018 22.5909 40.1667 25 40.1667C38.1128 40.1667 48.7805 32.3162 48.7805 22.6667C48.7805 13.0172 38.1128 5.16667 25 5.16667Z" fill="#49517C"/>
<path d="M36.8902 11.3436C36.8427 11.3436 36.7945 11.3325 36.7494 11.3103C36.5512 11.2112 36.3512 11.1138 36.1476 11.0198C35.9963 10.9493 35.9329 10.7748 36.0067 10.6296C36.0805 10.4849 36.2634 10.4243 36.4146 10.4948C36.6232 10.5923 36.8293 10.692 37.0323 10.7935C37.1817 10.8682 37.2396 11.0443 37.1616 11.1873C37.1061 11.2864 37 11.3436 36.8902 11.3436ZM4.78049 25C4.63842 25 4.51098 24.9038 4.48232 24.7649C4.34025 24.0743 4.2683 23.3684 4.2683 22.6667C4.2683 14.6254 13.5683 8.08334 25 8.08334C28.5683 8.08334 32.0872 8.73317 35.178 9.96284C35.3335 10.0247 35.4067 10.195 35.3427 10.3443C35.2774 10.4931 35.1 10.5613 34.9439 10.5018C31.9262 9.30134 28.4884 8.66667 25 8.66667C13.9049 8.66667 4.87805 14.9474 4.87805 22.6667C4.87805 23.3311 4.94573 23.999 5.07988 24.6518C5.11281 24.8098 5.00488 24.9633 4.83964 24.9942C4.81951 24.9983 4.8 25 4.78049 25ZM7.4372 30.25C7.34878 30.25 7.26098 30.2138 7.20061 30.1421C6.24695 29.0221 5.51159 27.8175 5.01708 26.561C4.95732 26.4099 5.0372 26.2419 5.19451 26.1848C5.35305 26.1258 5.52866 26.204 5.58781 26.3545C6.05915 27.5521 6.76159 28.7018 7.67378 29.7734C7.78049 29.8983 7.76098 30.0814 7.62988 30.1835C7.57317 30.2284 7.50549 30.25 7.4372 30.25ZM25 37.25C18.4579 37.25 12.2226 35.0345 8.32134 31.3245C8.20183 31.2113 8.20183 31.0264 8.32012 30.9121C8.43842 30.7978 8.63171 30.7978 8.75122 30.9109C12.5409 34.5153 18.6146 36.6667 25 36.6667C36.0951 36.6667 45.122 30.3859 45.122 22.6667C45.122 19.5581 43.6793 16.6111 40.9488 14.1453C40.8268 14.0351 40.8213 13.8502 40.9366 13.7329C41.0512 13.6163 41.2451 13.6098 41.3677 13.7213C44.2226 16.3002 45.7317 19.3936 45.7317 22.6667C45.7317 30.7079 36.4317 37.25 25 37.25ZM39.3293 12.7827C39.2671 12.7827 39.2049 12.7652 39.1512 12.7278C38.7634 12.4607 38.3591 12.204 37.95 11.9637C37.8067 11.8791 37.7616 11.6994 37.8494 11.5623C37.9378 11.4253 38.125 11.3827 38.2689 11.4661C38.6902 11.714 39.1073 11.9788 39.5067 12.2542C39.6439 12.3487 39.6744 12.5313 39.5762 12.6613C39.5171 12.7401 39.4238 12.7827 39.3293 12.7827Z" fill="#1F212B"/>
<path d="M35.3659 22.6667H25C24.6628 22.6667 24.3902 22.4059 24.3902 22.0833C24.3902 21.7608 24.6628 21.5 25 21.5H35.3659C35.703 21.5 35.9756 21.7608 35.9756 22.0833C35.9756 22.4059 35.703 22.6667 35.3659 22.6667ZM33.536 31.4167C33.4463 31.4167 33.3543 31.398 33.2683 31.3566C28.4195 29.0816 26.3738 25.4253 26.2896 25.2707C26.1335 24.9854 26.2488 24.6337 26.5457 24.4838C26.8427 24.3338 27.2122 24.4429 27.3695 24.7276C27.3884 24.7626 29.3311 28.2089 33.8061 30.3089C34.1085 30.4507 34.2329 30.8001 34.0848 31.0894C33.978 31.2971 33.7616 31.4167 33.536 31.4167Z" fill="#1F212B"/>
<path d="M25 31.4167C24.7445 31.4167 24.5067 31.2621 24.422 31.0177C24.3152 30.7126 24.4872 30.3818 24.8073 30.2798C31.8506 28.0298 32.8939 22.2379 32.9341 21.9923C32.9878 21.6744 33.2994 21.4539 33.6317 21.5076C33.964 21.5572 34.1915 21.8547 34.1396 22.1726C34.0951 22.4468 32.9616 28.9048 25.1933 31.3863C25.1293 31.4068 25.0634 31.4167 25 31.4167ZM29.8781 22.6667C29.5409 22.6667 29.2683 22.4059 29.2683 22.0833V19.75C29.2683 19.4274 29.5409 19.1667 29.8781 19.1667C30.2152 19.1667 30.4878 19.4274 30.4878 19.75V22.0833C30.4878 22.4059 30.2152 22.6667 29.8781 22.6667ZM21.0366 21.5H16.4634C16.1262 21.5 15.8537 21.2393 15.8537 20.9167C15.8537 20.5941 16.1262 20.3333 16.4634 20.3333H21.0366C21.3738 20.3333 21.6463 20.5941 21.6463 20.9167C21.6463 21.2393 21.3738 21.5 21.0366 21.5Z" fill="#1F212B"/>
<path d="M22.561 25C22.3116 25 22.0768 24.8524 21.9878 24.615L18.5976 15.634L15.2073 24.615C15.0933 24.9183 14.7427 25.0753 14.4268 24.9656C14.1098 24.8559 13.9463 24.5217 14.0604 24.2189L18.0238 13.7189C18.111 13.4879 18.3409 13.3339 18.597 13.3339C18.8531 13.3339 19.0835 13.4879 19.1701 13.7189L23.1335 24.2189C23.2482 24.5222 23.0841 24.8565 22.7671 24.9656C22.7 24.9889 22.6293 25 22.561 25Z" fill="#1F212B"/>
</svg>
