<svg width="50.000000" height="50.000000" viewBox="0 0 50 50" fill="none" xmlns="http://www.w3.org/2000/svg" xmlns:xlink="http://www.w3.org/1999/xlink">
	<desc>
			Created with Pixso.
	</desc>
	<defs/>
	<g opacity="0.000000">
		<rect id="Прямоугольник 51" width="50.000000" height="50.000000" fill="#C4C4C4" fill-opacity="1.000000"/>
	</g>
	<g opacity="0.800000">
		<path id="path" d="M46.99 35C46.99 43.28 40.18 50 31.76 50L2.99 50L2.99 40L31.76 40C34.57 40 36.84 37.76 36.84 35C36.84 32.23 34.57 30 31.76 30L21.61 30L21.61 20L31.76 20C34.57 20 36.84 17.76 36.84 15C36.84 12.23 34.57 10 31.76 10L2.99 10L2.99 0L31.76 0C40.18 0 46.99 6.71 46.99 15C46.99 18.84 45.53 22.34 43.12 25C45.53 27.65 46.99 31.15 46.99 35Z" fill="#FE815F" fill-opacity="1.000000" fill-rule="evenodd"/>
	</g>
	<g opacity="0.120000">
		<path id="path" d="M3 10L27.71 10C22.46 3.92 14.1 0 4.69 0C4.12 0 3.56 0.01 3 0.04L3 10ZM32.88 30L23.3 30L23.3 20L32.88 20C33.26 21.61 33.46 23.28 33.46 25C33.46 26.71 33.26 28.38 32.88 30ZM3 40L27.71 40C22.46 46.07 14.1 50 4.69 50C4.12 50 3.56 49.98 3 49.95L3 40Z" fill="#000000" fill-opacity="1.000000" fill-rule="evenodd"/>
	</g>
	<path id="path" d="M3 0C17.01 0 28.38 11.19 28.38 25C28.38 38.8 17.01 50 3 50L3 40C11.41 40 18.23 33.28 18.23 25C18.23 16.71 11.41 10 3 10L3 0Z" fill="#FF6238" fill-opacity="1.000000" fill-rule="nonzero"/>
</svg>
