<svg width="50.000000" height="50.000000" viewBox="0 0 50 50" fill="none" xmlns="http://www.w3.org/2000/svg" xmlns:xlink="http://www.w3.org/1999/xlink">
	<desc>
			Created with Pixso.
	</desc>
	<defs/>
	<g opacity="0.000000">
		<rect id="Прямоугольник 46" width="50.000000" height="50.000000" fill="#C4C4C4" fill-opacity="1.000000"/>
	</g>
	<path id="path" d="M49.47 9.94C48.95 9.69 48.71 10.16 48.4 10.4C48.3 10.47 48.21 10.58 48.12 10.66C47.35 11.46 46.44 11.97 45.26 11.91C43.54 11.82 42.06 12.33 40.75 13.59C40.48 12.04 39.55 11.12 38.15 10.52C37.42 10.21 36.68 9.91 36.16 9.24C35.81 8.75 35.71 8.22 35.53 7.7C35.41 7.38 35.3 7.06 34.92 7C34.51 6.94 34.34 7.28 34.18 7.55C33.53 8.69 33.27 9.94 33.3 11.2C33.36 14.05 34.62 16.31 37.12 17.93C37.41 18.1 37.49 18.29 37.39 18.56C37.23 19.12 37.02 19.65 36.84 20.21C36.73 20.56 36.55 20.64 36.16 20.49C34.78 19.94 33.59 19.14 32.54 18.15C30.76 16.51 29.14 14.7 27.13 13.28C26.66 12.95 26.18 12.64 25.69 12.35C23.64 10.45 25.97 8.9 26.5 8.71C27.07 8.52 26.69 7.86 24.88 7.86C23.06 7.86 21.4 8.45 19.28 9.22C18.98 9.33 18.65 9.42 18.31 9.49C16.39 9.14 14.4 9.07 12.31 9.28C8.38 9.7 5.24 11.47 2.94 14.48C0.16 18.1 -0.48 22.23 0.31 26.52C1.15 31.04 3.58 34.79 7.31 37.72C11.18 40.76 15.64 42.24 20.72 41.96C23.82 41.79 27.26 41.4 31.13 38.27C32.11 38.73 33.13 38.92 34.83 39.06C36.15 39.18 37.41 39 38.39 38.81C39.92 38.5 39.82 37.15 39.26 36.9C34.77 34.92 35.76 35.72 34.86 35.07C37.14 32.5 40.58 29.83 41.93 21.19C42.03 20.51 41.95 20.07 41.93 19.52C41.92 19.18 42 19.05 42.4 19.01C43.54 18.89 44.63 18.6 45.63 18.07C48.53 16.55 49.71 14.08 49.98 11.1C50.03 10.64 49.97 10.17 49.47 9.94ZM24.12 36.72C19.77 33.47 17.66 32.39 16.79 32.44C15.98 32.49 16.12 33.37 16.3 33.95C16.49 34.52 16.73 34.92 17.08 35.42C17.31 35.75 17.47 36.24 16.83 36.61C15.43 37.43 13 36.33 12.88 36.28C10.05 34.69 7.68 32.59 6.01 29.72C4.4 26.96 3.46 24 3.3 20.85C3.27 20.08 3.5 19.81 4.29 19.67C5.35 19.49 6.43 19.45 7.48 19.6C11.92 20.21 15.7 22.1 18.87 25.09C20.69 26.79 22.05 28.83 23.46 30.82C24.97 32.93 26.57 34.94 28.63 36.6C29.36 37.18 29.93 37.61 30.49 37.93C28.82 38.11 26.03 38.15 24.12 36.72ZM26.21 23.96C26.21 23.62 26.49 23.35 26.85 23.35C26.94 23.35 27 23.36 27.07 23.39C27.16 23.42 27.25 23.47 27.31 23.53C27.42 23.65 27.49 23.8 27.49 23.96C27.49 24.3 27.2 24.57 26.84 24.57C26.49 24.57 26.21 24.3 26.21 23.96ZM32.68 27.12C32.27 27.28 31.85 27.42 31.46 27.44C30.83 27.46 30.16 27.23 29.8 26.94C29.23 26.48 28.82 26.23 28.65 25.43C28.57 25.09 28.61 24.57 28.68 24.27C28.83 23.62 28.66 23.2 28.18 22.82C27.79 22.52 27.29 22.43 26.75 22.43C26.55 22.43 26.36 22.35 26.22 22.27C25.99 22.17 25.8 21.9 25.98 21.56C26.04 21.46 26.31 21.2 26.38 21.15C27.12 20.75 27.97 20.88 28.77 21.19C29.5 21.47 30.06 21.99 30.85 22.73C31.67 23.63 31.82 23.87 32.28 24.54C32.65 25.07 32.98 25.61 33.21 26.23C33.35 26.61 33.17 26.93 32.68 27.12Z" fill="#4D6BFE" fill-opacity="1.000000" fill-rule="nonzero"/>
</svg>
