<svg width="50.000000" height="50.000000" viewBox="0 0 50 50" fill="none" xmlns="http://www.w3.org/2000/svg" xmlns:xlink="http://www.w3.org/1999/xlink">
	<desc>
			Created with Pixso.
	</desc>
	<defs/>
	<path id="path" d="M25 50C38.8 50 50 38.8 50 25C50 11.19 38.8 0 25 0C11.19 0 0 11.19 0 25C0 38.8 11.19 50 25 50Z" fill="#DE5833" fill-opacity="1.000000" fill-rule="evenodd"/>
	<path id="path" d="M28.51 43.65C28.51 43.45 28.56 43.41 27.94 42.17C26.29 38.87 24.63 34.21 25.38 31.2C25.52 30.66 23.83 10.99 22.63 10.36C21.3 9.65 19.67 8.53 18.17 8.28C17.41 8.15 16.42 8.21 15.64 8.32C15.5 8.33 15.5 8.58 15.63 8.63C16.14 8.8 16.76 9.1 17.13 9.56C17.2 9.64 17.1 9.78 16.99 9.78C16.65 9.79 16.02 9.94 15.2 10.64C15.1 10.72 15.18 10.87 15.3 10.85C17.08 10.5 18.89 10.67 19.95 11.64C20.02 11.7 19.99 11.81 19.9 11.84C10.64 14.35 12.47 22.4 14.94 32.28C16.95 40.37 17.81 43.42 18.14 44.53C18.21 44.78 18.39 44.98 18.63 45.06C21.91 46.24 28.51 46.24 28.51 44.14L28.51 43.65Z" fill="#DDDDDD" fill-opacity="1.000000" fill-rule="evenodd"/>
	<path id="path" d="M47.94 25C47.94 37.67 37.67 47.94 25 47.94C12.32 47.94 2.05 37.67 2.05 25C2.05 12.32 12.32 2.05 25 2.05C37.67 2.05 47.94 12.32 47.94 25ZM19.64 45.3C19.01 43.34 17.23 37.67 15.48 30.49L15.31 29.78C13.19 21.12 11.46 14.05 20.94 11.83C21.03 11.81 21.07 11.7 21.01 11.63C19.93 10.34 17.89 9.92 15.31 10.81C15.2 10.84 15.11 10.74 15.18 10.65C15.68 9.95 16.67 9.42 17.16 9.18C17.26 9.13 17.25 8.98 17.15 8.95C16.66 8.8 16.17 8.68 15.67 8.6C15.53 8.58 15.52 8.33 15.66 8.31C19.31 7.82 23.13 8.91 25.05 11.33C32.06 12.83 32.63 23.96 31.83 24.47C31.67 24.57 31.16 24.51 30.48 24.43C27.75 24.13 22.35 23.53 26.81 31.84C26.86 31.92 26.8 32.03 26.7 32.04C24.2 32.43 27.39 40.26 29.76 45.45C39.06 43.29 45.99 34.95 45.99 25C45.99 13.4 36.59 4 25 4C13.4 4 4 13.4 4 25C4 34.74 10.64 42.93 19.64 45.3Z" fill="#FFFFFF" fill-opacity="1.000000" fill-rule="evenodd"/>
	<path id="path" d="M32.92 35.42C32.38 35.18 30.33 36.65 28.97 37.78C28.68 37.38 28.15 37.08 26.94 37.29C25.88 37.48 25.29 37.73 25.03 38.17C23.36 37.54 20.54 36.56 19.86 37.51C19.12 38.54 20.05 43.43 21.03 44.06C21.55 44.39 24.02 42.81 25.3 41.72C25.51 42.01 25.85 42.18 26.53 42.16C27.57 42.14 29.26 41.9 29.52 41.41C30.84 41.91 33.21 42.33 33.73 42.25C35.09 42.04 33.55 35.71 32.92 35.42Z" fill="#3CA82B" fill-opacity="1.000000" fill-rule="nonzero"/>
	<path id="path" d="M29.09 37.92C29.15 38.02 29.2 38.13 29.23 38.24C29.42 38.76 29.73 40.44 29.5 40.86C29.26 41.27 27.75 41.47 26.82 41.49C25.89 41.5 25.68 41.16 25.49 40.64C25.34 40.21 25.27 39.22 25.27 38.65C25.23 37.81 25.54 37.51 26.96 37.28C28.02 37.11 28.57 37.31 28.9 37.65C30.39 36.53 32.88 34.96 33.13 35.25C34.34 36.68 34.5 40.1 34.23 41.47C34.15 41.92 30.13 41.03 30.13 40.54C30.13 38.53 29.61 37.98 29.09 37.92ZM20.29 37.3C20.62 36.77 23.29 37.42 24.75 38.07C24.75 38.07 24.45 39.44 24.93 41.04C25.07 41.51 21.56 43.61 21.1 43.25C20.57 42.83 19.6 38.39 20.29 37.3Z" fill="#4CBA3C" fill-opacity="1.000000" fill-rule="nonzero"/>
	<path id="path" d="M21.58 26.72C21.8 25.78 22.81 24.01 26.4 24.05C28.21 24.04 30.47 24.05 31.96 23.88C33.67 23.69 35.33 23.29 36.93 22.67C38.49 22.08 39.04 22.21 39.23 22.57C39.45 22.96 39.2 23.63 38.65 24.25C37.62 25.43 35.75 26.35 32.46 26.62C29.16 26.89 26.98 26.01 26.04 27.45C25.63 28.07 25.95 29.53 29.13 29.99C33.44 30.61 36.97 29.24 37.41 30.07C37.85 30.9 35.33 32.58 31.02 32.62C26.71 32.65 24.01 31.11 23.06 30.34C21.85 29.37 21.31 27.95 21.58 26.72Z" fill="#FFCC33" fill-opacity="1.000000" fill-rule="evenodd"/>
	<g opacity="0.800000">
		<path id="path" d="M27.08 16.45C27.32 16.06 27.85 15.75 28.72 15.75C29.6 15.75 30.01 16.1 30.29 16.49C30.35 16.57 30.26 16.66 30.17 16.62C29.73 16.41 29.21 16.27 28.72 16.27C28 16.26 27.55 16.44 27.27 16.6C27.17 16.65 27.02 16.54 27.08 16.45ZM17.25 16.96C18.1 16.6 18.76 16.65 19.23 16.76C19.33 16.78 19.4 16.67 19.32 16.61C18.96 16.32 18.14 15.95 17.07 16.35C16.12 16.7 15.67 17.44 15.67 17.92C15.67 18.04 15.9 18.05 15.96 17.95C16.13 17.69 16.4 17.31 17.25 16.96Z" fill="#14307E" fill-opacity="1.000000" fill-rule="nonzero"/>
		<path id="path" d="M29.46 21.84C28.71 21.84 28.11 21.23 28.11 20.49C28.11 19.74 28.71 19.13 29.46 19.13C30.21 19.13 30.82 19.74 30.82 20.49C30.82 21.23 30.21 21.84 29.46 21.84ZM30.42 20.04C30.42 19.8 30.3 19.69 30.07 19.69C29.83 19.69 29.72 19.8 29.72 20.04C29.72 20.27 29.83 20.39 30.07 20.39C30.3 20.39 30.42 20.27 30.42 20.04ZM20.47 21.42C20.47 21.86 20.32 22.23 20.01 22.54C19.7 22.85 19.33 23 18.89 23C18.45 23 18.08 22.85 17.77 22.54C17.46 22.23 17.31 21.86 17.31 21.42C17.31 20.99 17.46 20.61 17.77 20.31C18.08 20 18.45 19.84 18.89 19.85C19.33 19.84 19.7 20 20.01 20.31C20.32 20.61 20.47 20.99 20.47 21.42ZM20.01 20.9C20.01 20.63 19.87 20.49 19.6 20.49C19.32 20.49 19.19 20.63 19.19 20.9C19.19 21.17 19.32 21.31 19.6 21.31C19.87 21.31 20.01 21.17 20.01 20.9Z" fill="#14307E" fill-opacity="1.000000" fill-rule="evenodd"/>
	</g>
</svg>
