<svg width="50.000000" height="50.000000" viewBox="0 0 50 50" fill="none" xmlns="http://www.w3.org/2000/svg" xmlns:xlink="http://www.w3.org/1999/xlink">
	<desc>
			Created with Pixso.
	</desc>
	<defs/>
	<path id="svg_3" d="M0 3.64C0 1.65 1.65 0 3.64 0L46.35 0C48.34 0 50 1.65 50 3.64L50 46.35C50 48.34 48.34 50 46.35 50L3.64 50C1.65 50 0 48.34 0 46.35L0 3.64Z" fill="#3D424E" fill-opacity="1.000000" fill-rule="nonzero"/>
	<path id="svg_3" d="M3.64 0L46.35 0C48.34 0 50 1.65 50 3.64L50 46.35C50 48.34 48.34 50 46.35 50L3.64 50C1.65 50 0 48.34 0 46.35L0 3.64C0 1.65 1.65 0 3.64 0Z" stroke="#FFFFFF" stroke-opacity="1.000000" stroke-width="0.000000"/>
	<path id="svg_1" d="M38.68 27.7L24.9 15.09L7.5 29.4L7.35 21.46L24.73 7.14L42.51 22.17L42.51 29.62L24.4 43.73L13.46 33.87L10.98 36.14L24.4 48.26L46 31.39L46 20.46L24.73 2.1L4.09 19.54L4.09 30.26L8.14 33.31L24.4 20.26L24.4 39.4L38.89 27.7L38.68 27.7Z" fill="#DFE6F7" fill-opacity="1.000000" fill-rule="nonzero"/>
	<path id="svg_1" d="M24.9 15.09L7.5 29.4L7.35 21.46L24.73 7.14L42.51 22.17L42.51 29.62L24.4 43.73L13.46 33.87L10.98 36.14L24.4 48.26L46 31.39L46 20.46L24.73 2.1L4.09 19.54L4.09 30.26L8.14 33.31L24.4 20.26L24.4 39.4L38.89 27.7L38.68 27.7L24.9 15.09Z" stroke="#FFFFFF" stroke-opacity="1.000000" stroke-width="1.000000"/>
</svg>
