<svg width="50.000031" height="50.000000" viewBox="0 0 50 50" fill="none" xmlns="http://www.w3.org/2000/svg" xmlns:xlink="http://www.w3.org/1999/xlink">
	<desc>
			Created with Pixso.
	</desc>
	<defs/>
	<path id="path" d="M3.78 42.85L5.98 47.11C6.44 48.01 7.1 48.71 7.87 49.23L15.75 33.97L3.05e-5 33.97C3.05e-5 34.96 0.22 35.96 0.68 36.85L3.78 42.85Z" fill="#0066DA" fill-opacity="1.000000" fill-rule="nonzero"/>
	<path id="path" d="M25 16.02L17.12 0.76C16.35 1.28 15.69 1.98 15.23 2.88L0.68 31.08C0.22 31.98 0 32.94 0 33.97L15.75 33.97L25 16.02Z" fill="#00AC47" fill-opacity="1.000000" fill-rule="nonzero"/>
	<path id="path" d="M42.12 49.23C42.89 48.71 43.55 48.01 44.01 47.11L44.93 45.35L49.31 36.85C49.77 35.96 50 34.96 50 33.97L34.24 33.97L37.6 41.34L42.12 49.23Z" fill="#EA4335" fill-opacity="1.000000" fill-rule="nonzero"/>
	<path id="path" d="M25 16.02L32.87 0.76C32.1 0.25 31.21 0 30.29 0L19.7 0C18.78 0 17.89 0.28 17.12 0.76L25 16.02Z" fill="#00832D" fill-opacity="1.000000" fill-rule="nonzero"/>
	<path id="path" d="M34.24 33.97L15.75 33.97L7.87 49.23C8.64 49.74 9.53 50 10.45 50L39.54 50C40.46 50 41.35 49.71 42.12 49.23L34.24 33.97Z" fill="#2684FC" fill-opacity="1.000000" fill-rule="nonzero"/>
	<path id="path" d="M42.03 16.98L34.76 2.88C34.3 1.98 33.64 1.28 32.87 0.76L25 16.02L34.24 33.97L49.97 33.97C49.97 32.98 49.74 31.98 49.28 31.08L42.03 16.98Z" fill="#FFBA00" fill-opacity="1.000000" fill-rule="nonzero"/>
</svg>
