<svg width="50.000000" height="50.000000" viewBox="0 0 50 50" fill="none" xmlns="http://www.w3.org/2000/svg" xmlns:xlink="http://www.w3.org/1999/xlink">
	<desc>
			Created with Pixso.
	</desc>
	<defs/>
	<circle id="Эллипс 3" cx="25.000000" cy="25.000000" r="25.000000" fill="#FFFFFF" fill-opacity="1.000000"/>
	<path id="path" d="M45 25.44C45 24.03 44.86 22.67 44.62 21.36L25.4 21.36L25.4 29.1L36.38 29.1C35.9 31.6 34.45 33.7 32.28 35.12L32.28 40.16L38.91 40.16C42.76 36.67 45 31.54 45 25.44Z" fill="#4285F4" fill-opacity="1.000000" fill-rule="nonzero"/>
	<path id="path" d="M25.4 45C30.91 45 35.53 43.21 38.91 40.16L32.28 35.12C30.47 36.32 28.15 37.04 25.4 37.04C20.09 37.04 15.59 33.54 13.97 28.81L7.18 28.81L7.18 33.97C10.54 40.5 17.42 45 25.4 45Z" fill="#34A853" fill-opacity="1.000000" fill-rule="nonzero"/>
	<path id="path" d="M13.97 28.79C13.56 27.6 13.32 26.31 13.32 25C13.32 23.67 13.56 22.39 13.97 21.19L13.97 16.03L7.18 16.03C5.79 18.71 5 21.76 5 25C5 28.23 5.79 31.27 7.18 33.96L12.47 29.91L13.97 28.79Z" fill="#FBBC05" fill-opacity="1.000000" fill-rule="nonzero"/>
	<path id="path" d="M25.4 12.96C28.4 12.96 31.08 13.97 33.21 15.94L39.05 10.21C35.51 6.97 30.91 5 25.4 5C17.42 5 10.54 9.48 7.18 16.03L13.97 21.2C15.59 16.47 20.09 12.96 25.4 12.96Z" fill="#EA4335" fill-opacity="1.000000" fill-rule="nonzero"/>
</svg>
