<svg width="50" height="50" viewBox="0 0 50 50" fill="none" xmlns="http://www.w3.org/2000/svg">
<path d="M20.0002 4.99815V22.4981C20.0002 23.8237 20.5268 25.095 21.4641 26.0324C22.4015 26.9697 23.6728 27.4963 24.9984 27.4963C26.324 27.4963 27.5953 26.9697 28.5326 26.0324C29.4699 25.095 29.9965 23.8237 29.9965 22.4981V10.8556C33.0642 11.9371 35.6973 13.9864 37.4989 16.6946C39.3006 19.4029 40.1732 22.6233 39.9852 25.8706C39.7973 29.118 38.559 32.2163 36.4569 34.6986C34.3549 37.1809 31.503 38.9128 28.331 39.6332C25.159 40.3536 21.8388 40.0235 18.8708 38.6927C15.9027 37.3619 13.4476 35.1024 11.8754 32.2549C10.3032 29.4073 9.6991 26.1259 10.1542 22.9051C10.6092 19.6843 12.0988 16.6987 14.3984 14.3981C15.3207 13.4565 15.8342 12.189 15.8274 10.8709C15.8206 9.55285 15.2939 8.29071 14.3619 7.35868C13.4299 6.42666 12.1678 5.90003 10.8497 5.8932C9.53162 5.88637 8.2641 6.3999 7.32247 7.32222C3.23257 11.4121 0.687324 16.7935 0.120414 22.5496C-0.446496 28.3057 1.00001 34.0803 4.21346 38.8895C7.4269 43.6986 12.2085 47.2448 17.7434 48.9237C23.2783 50.6025 29.2241 50.3103 34.5678 48.0967C39.9114 45.8831 44.3221 41.8852 47.0484 36.7841C49.7748 31.683 50.648 25.7943 49.5194 20.1216C48.3907 14.4488 45.33 9.34289 40.8587 5.67384C36.3875 2.00479 30.7823 -0.000378312 24.9984 5.35369e-08C23.6728 5.35369e-08 22.4015 0.526589 21.4641 1.46392C20.5268 2.40126 20.0002 3.67256 20.0002 4.99815Z" fill="#1D4FC4"/>
</svg>
