<svg width="50" height="50" viewBox="0 0 50 50" fill="none" xmlns="http://www.w3.org/2000/svg">
<path fill-rule="evenodd" clip-rule="evenodd" d="M19.3125 32.095L35.9333 19.2982C36.7479 18.6689 37.9125 18.9141 38.3021 19.8885C40.3437 25.0293 39.4312 31.2052 35.3646 35.4455C31.3 39.6858 25.6417 40.6146 20.4708 38.4966L14.8229 41.2243C22.925 46.9988 32.7625 45.5709 38.9104 39.1563C43.7875 34.0697 45.2979 27.1364 43.8854 20.8845L43.8979 20.8997C41.85 11.7161 44.4021 8.04436 49.6271 0.538171C49.7521 0.360227 49.8771 0.182284 50 0L43.1229 7.172V7.1503L19.3062 32.0993M15.8812 35.2046C10.0646 29.4106 11.0687 20.4462 16.0292 15.2749C19.6979 11.4492 25.7104 9.88672 30.9583 12.1826L36.5937 9.47007C35.4224 8.57258 34.1409 7.84273 32.7833 7.30003C29.3704 5.84501 25.6206 5.47371 22.0056 6.23283C18.3906 6.99194 15.0718 8.84758 12.4667 11.5663C7.18958 17.0696 5.52917 25.5327 8.37917 32.7547C10.5083 38.1516 7.01875 41.9687 3.50417 45.8227C2.25625 47.1898 1.00625 48.5548 0 50L15.875 35.2111" fill="white"/>
</svg>
