<svg width="50" height="50" viewBox="0 0 50 50" fill="none" xmlns="http://www.w3.org/2000/svg">
<path d="M50 0H0L4.41176 44.7368L25 50L45.5882 44.7368L50 0Z" fill="#E65100"/>
<path d="M25 3.94737V45.9211L41.4706 41.7105L45.1471 3.94737H25Z" fill="#FF6D00"/>
<path d="M25 26.3158V21.0526H37.6471L36.6176 36.1842L25 39.6053V34.0789L31.0294 32.2368L31.4706 26.3158H25ZM38.0882 15.7895L38.5294 10.5263H25V15.7895H38.0882Z" fill="white"/>
<path d="M25 34.0789V39.6053L13.3824 36.1842L12.7941 28.9474H18.6765L18.9706 32.2368L25 34.0789ZM17.7941 15.7895H25V10.5263H11.6176L12.6471 26.3158H25V21.0526H18.2353L17.7941 15.7895Z" fill="#EEEEEE"/>
</svg>
