<svg width="50.000000" height="50.000000" viewBox="0 0 50 50" fill="none" xmlns="http://www.w3.org/2000/svg" xmlns:xlink="http://www.w3.org/1999/xlink">
	<desc>
			Created with Pixso.
	</desc>
	<defs>
		<linearGradient x1="50.000031" y1="-0.000004" x2="0.000000" y2="50.000004" id="paint_linear_65_45_0" gradientUnits="userSpaceOnUse">
			<stop offset="0.267176" stop-color="#7EFF33"/>
			<stop offset="1.000000" stop-color="#23D1B9" stop-opacity="0.627451"/>
		</linearGradient>
	</defs>
	<rect id="Прямоугольник 6" width="50.000000" height="50.000000" fill="url(#paint_linear_65_45_0)" fill-opacity="1.000000"/>
	<path id="path" d="M25 8.74C25.37 8.74 25.75 8.83 26.08 9.01L39.07 16.11C39.75 16.48 40.17 17.18 40.17 17.92L40.17 32.07C40.17 32.81 39.75 33.51 39.07 33.88L26.08 40.98C25.75 41.16 25.37 41.25 25 41.25C24.62 41.25 24.24 41.16 23.91 40.98L10.92 33.88C10.24 33.51 9.82 32.81 9.82 32.07L9.82 17.92C9.82 17.18 10.24 16.48 10.92 16.11L23.91 9.01C24.24 8.83 24.62 8.74 25 8.74ZM25 7C24.31 7 23.62 7.16 23.01 7.5L10.01 14.6C8.77 15.28 8 16.55 8 17.92L8 32.07C8 33.44 8.77 34.71 10.01 35.39L23.01 42.49C23.62 42.83 24.31 43 25 43C25.68 43 26.37 42.83 26.98 42.49L39.98 35.39C41.22 34.71 42 33.44 42 32.07L42 17.92C42 16.55 41.22 15.28 39.98 14.6L26.98 7.5C26.37 7.16 25.68 7 25 7Z" fill="#000000" fill-opacity="1.000000" fill-rule="nonzero"/>
	<path id="path" d="M22.57 25.26L23.78 25.26L23.78 26.84C23.78 26.99 23.84 27.14 23.96 27.25L24.51 27.78C24.63 27.89 24.69 28.04 24.69 28.19L24.69 28.77C24.69 28.93 24.63 29.07 24.51 29.18L23.82 29.85C23.79 29.87 23.78 29.9 23.78 29.93C23.78 29.97 23.79 30 23.82 30.02L24.51 30.69C24.63 30.79 24.69 30.94 24.69 31.1L24.69 31.68C24.69 31.83 24.63 31.98 24.51 32.09L23.96 32.62C23.84 32.73 23.78 32.87 23.78 33.03L23.78 33.21C23.78 33.42 23.9 33.61 24.09 33.71L24.7 34.04C24.88 34.14 25.11 34.14 25.29 34.04L25.9 33.71C26.09 33.61 26.21 33.42 26.21 33.21L26.21 25.26L27.42 25.26L27.42 33.55C27.42 33.96 27.19 34.35 26.81 34.56L25.59 35.21C25.22 35.41 24.77 35.41 24.4 35.21L23.18 34.56C22.8 34.35 22.57 33.96 22.57 33.55L22.57 32.55C22.57 32.39 22.63 32.25 22.74 32.14L23.44 31.47C23.46 31.45 23.48 31.42 23.48 31.39C23.48 31.35 23.46 31.32 23.44 31.3L22.74 30.64C22.63 30.53 22.57 30.38 22.57 30.22L22.57 29.64C22.57 29.49 22.63 29.34 22.74 29.23L23.44 28.57C23.46 28.54 23.48 28.51 23.48 28.48C23.48 28.45 23.46 28.42 23.44 28.4L22.74 27.73C22.63 27.62 22.57 27.48 22.57 27.32L22.57 25.26Z" fill="#000000" fill-opacity="1.000000" fill-rule="evenodd"/>
	<path id="path" d="M19.23 20.64C19.23 17.59 21.81 15.13 24.99 15.13C28.18 15.13 30.76 17.59 30.76 20.64C30.76 23.69 28.18 26.16 24.99 26.16C21.81 26.16 19.23 23.69 19.23 20.64ZM24.99 16.29C22.48 16.29 20.44 18.23 20.44 20.64C20.44 23.05 22.48 25 24.99 25C27.51 25 29.55 23.05 29.55 20.64C29.55 18.23 27.51 16.29 24.99 16.29ZM24.99 18.03C24.66 18.03 24.39 18.29 24.39 18.61C24.39 18.93 24.66 19.19 24.99 19.19C25.33 19.19 25.6 18.93 25.6 18.61C25.6 18.29 25.33 18.03 24.99 18.03ZM23.17 18.61C23.17 17.65 23.99 16.87 24.99 16.87C26 16.87 26.82 17.65 26.82 18.61C26.82 19.57 26 20.35 24.99 20.35C23.99 20.35 23.17 19.57 23.17 18.61Z" fill="#000000" fill-opacity="1.000000" fill-rule="evenodd"/>
</svg>
