<svg width="50.000000" height="50.000000" viewBox="0 0 50 50" fill="none" xmlns="http://www.w3.org/2000/svg" xmlns:xlink="http://www.w3.org/1999/xlink">
	<desc>
			Created with Pixso.
	</desc>
	<defs/>
	<g opacity="0.000000">
		<rect id="Прямоугольник 58" width="50.000000" height="50.000000" fill="#C4C4C4" fill-opacity="1.000000"/>
	</g>
	<path id="path" d="M10.21 40.51L44.13 40.51L44.13 47.41L10.21 47.41C8.29 47.41 6.73 45.86 6.73 43.96C6.73 42.06 8.29 40.51 10.21 40.51Z" fill="#D4DDEE" fill-opacity="1.000000" fill-rule="nonzero"/>
	<path id="path" d="M5 43.76L5 6.03C5 2.69 7.72 0 11.08 0L11.95 0.86L11.95 37.06L11.08 38.79L5 43.76Z" fill="#1E719B" fill-opacity="1.000000" fill-rule="nonzero"/>
	<path id="path" d="M45 1.72L45 38.79L11.08 38.79L11.08 0L43.26 0C44.21 0 45 0.77 45 1.72Z" fill="#23B0E2" fill-opacity="1.000000" fill-rule="nonzero"/>
	<path id="path" d="M8.47 44.1C8.55 45.5 9.81 46.55 11.22 46.55L44.13 46.55C44.6 46.55 45 46.93 45 47.41L45 49.13C45 49.61 44.6 50 44.13 50L11.33 50C7.94 50 5.01 47.31 5 43.96L5 43.76C5.05 42.17 5.72 40.75 6.78 39.69C7.96 38.51 9.4 37.92 11.08 37.93L45 37.93L45 40.51C45 40.99 44.6 41.37 44.13 41.37L11.08 41.37C9.59 41.37 8.4 42.6 8.47 44.1Z" fill="#1F97C1" fill-opacity="1.000000" fill-rule="nonzero"/>
	<ellipse id="circle" cx="28.913086" cy="6.465576" rx="2.173913" ry="2.155172" fill="#FFFFFF" fill-opacity="1.000000"/>
	<path id="path" d="M25.41 15.11C25.45 15.01 25.46 14.91 25.46 14.81C25.46 14.19 24.88 13.72 24.27 13.86C23.9 13.95 23.58 14.07 23.34 14.16C23.07 14.27 22.88 14.19 22.79 13.91L22.41 12.77C22.33 12.55 22.4 12.39 22.6 12.28C23.23 11.93 24.8 11.2 26.73 11.2C28.79 11.22 30.33 13.2 29.83 15.18L28.08 21.08C28.05 21.18 28.03 21.29 28.04 21.39C28.04 22.01 28.62 22.48 29.22 22.33C29.59 22.24 29.92 22.13 30.16 22.04C30.43 21.93 30.62 22.01 30.71 22.29L31.09 23.42C31.17 23.64 31.1 23.81 30.9 23.92C30.27 24.26 28.7 25 26.77 25C24.71 24.97 23.16 23 23.66 21.02L25.41 15.11Z" fill="#FFFFFF" fill-opacity="1.000000" fill-rule="nonzero"/>
	<path id="path" d="M35.43 29.31L19.78 29.31C19.2 29.31 18.91 29.02 18.91 28.44C18.91 27.87 19.2 27.58 19.78 27.58L35.43 27.58C36.01 27.58 36.3 27.87 36.3 28.44C36.3 29.02 36.01 29.31 35.43 29.31ZM31.95 33.62L23.26 33.62C22.68 33.62 22.39 33.33 22.39 32.75C22.39 32.18 22.68 31.89 23.26 31.89L31.95 31.89C32.53 31.89 32.82 32.18 32.82 32.75C32.82 33.33 32.53 33.62 31.95 33.62Z" fill="#2682BC" fill-opacity="1.000000" fill-rule="nonzero"/>
</svg>
