<svg width="50" height="50" viewBox="0 0 50 50" fill="none" xmlns="http://www.w3.org/2000/svg">
<rect width="50" height="50" fill="#D9D9D9"/>
<mask id="mask0_255_194" style="mask-type:luminance" maskUnits="userSpaceOnUse" x="0" y="19" width="50" height="12">
<path d="M50 19H0V31H50V19Z" fill="white"/>
</mask>
<g mask="url(#mask0_255_194)">
<path d="M0.837621 29.2734V29.7891H0.243036V29.2734H0V30.6019H0.243036V30.0151H0.837621V30.6019H1.0814V29.2734H0.837621Z" fill="#173583"/>
<path d="M1.97889 29.6562C1.91497 29.6286 1.83916 29.6147 1.75221 29.6147C1.69126 29.6147 1.62809 29.623 1.56268 29.6403C1.49728 29.6576 1.43485 29.6859 1.37539 29.726L1.44005 29.8995C1.48167 29.8684 1.52626 29.8456 1.57457 29.8311C1.62214 29.8166 1.67045 29.809 1.71876 29.809C1.77153 29.809 1.81538 29.8173 1.84883 29.8332C1.88227 29.8491 1.90754 29.8719 1.92389 29.9016C1.94024 29.9306 1.94842 29.9659 1.94842 30.006V30.026C1.8518 30.0184 1.76633 30.0184 1.69349 30.026C1.60876 30.0357 1.53964 30.0537 1.48538 30.0813C1.43113 30.109 1.391 30.1435 1.36498 30.185C1.33897 30.2265 1.32559 30.2742 1.32559 30.3274C1.32559 30.3896 1.33971 30.4428 1.36796 30.4884C1.3962 30.534 1.43485 30.5686 1.4839 30.5935C1.53295 30.6184 1.58944 30.6301 1.65261 30.6301C1.72099 30.6301 1.78342 30.6184 1.83768 30.5949C1.89268 30.5714 1.93578 30.5375 1.967 30.494V30.6025H2.17808V30.0025C2.17808 29.9147 2.16098 29.8422 2.12605 29.7848C2.09186 29.7274 2.04207 29.6852 1.97815 29.6569M1.94767 30.2451C1.94767 30.2859 1.93727 30.3218 1.9172 30.3516C1.89639 30.382 1.86889 30.4048 1.83322 30.4214C1.79828 30.438 1.75815 30.4463 1.7143 30.4463C1.66227 30.4463 1.6214 30.4352 1.59167 30.4124C1.56194 30.3903 1.54707 30.3578 1.54707 30.3163C1.54707 30.2887 1.55599 30.2638 1.57457 30.2431C1.59316 30.2223 1.62065 30.2057 1.65782 30.194C1.69498 30.1815 1.7418 30.1753 1.79829 30.1739C1.84214 30.1725 1.89193 30.176 1.94767 30.1829V30.2451Z" fill="#173583"/>
<path d="M3.33924 29.6528H3.09918V30.4042H2.69337V29.6528H2.45406V30.6019H3.22702H3.33924H3.36303V30.8866H3.58229V30.4042H3.33924V29.6528Z" fill="#173583"/>
<path d="M3.99425 30.2521V29.6528H3.76385V30.6019H3.97271L4.44764 29.9943V30.6019H4.67803V29.6528H4.46621L3.99425 30.2521Z" fill="#173583"/>
<path d="M5.65996 29.6929C5.58268 29.6473 5.49496 29.6245 5.39539 29.6245C5.32032 29.6245 5.25193 29.6376 5.1895 29.6646C5.12707 29.6916 5.07282 29.7282 5.02746 29.7745C4.98139 29.8208 4.94646 29.8747 4.92118 29.9356C4.89668 29.9964 4.88403 30.06 4.88403 30.127C4.88403 30.2183 4.90557 30.3019 4.94943 30.3779C4.99328 30.454 5.0535 30.5148 5.13078 30.5611C5.20807 30.6067 5.29653 30.6302 5.3961 30.6302C5.47118 30.6302 5.53957 30.6171 5.602 30.5901C5.66443 30.5632 5.71868 30.5265 5.76403 30.4795C5.80935 30.4325 5.84503 30.3793 5.87028 30.3185C5.89557 30.2583 5.90821 30.1941 5.90821 30.127C5.90821 30.0358 5.88589 29.9521 5.84207 29.8754C5.79821 29.7987 5.738 29.7379 5.66071 29.6922M5.63468 30.2812C5.61093 30.3247 5.57821 30.3579 5.5366 30.3821C5.49496 30.4056 5.44814 30.4173 5.3961 30.4173C5.3441 30.4173 5.29578 30.4056 5.25489 30.3821C5.21403 30.3586 5.18132 30.3247 5.15753 30.2812C5.13375 30.2376 5.12185 30.1865 5.12185 30.127C5.12185 30.0676 5.13375 30.0157 5.15678 29.9722C5.18057 29.9286 5.21253 29.8955 5.25418 29.872C5.29578 29.8485 5.3426 29.8367 5.3961 29.8367C5.44964 29.8367 5.49646 29.8485 5.53732 29.872C5.57821 29.8955 5.61093 29.9286 5.63468 29.9722C5.65846 30.0157 5.67035 30.0676 5.67035 30.127C5.67035 30.1865 5.65846 30.2376 5.63468 30.2812Z" fill="#173583"/>
<path d="M6.78633 30.0102H6.35525V29.6528H6.11522V30.6019H6.35525V30.2079H6.78633V30.6019H7.02565V29.6528H6.78633V30.0102Z" fill="#173583"/>
<path d="M7.89625 29.6562C7.83232 29.6286 7.75654 29.6147 7.66957 29.6147C7.60861 29.6147 7.54547 29.623 7.48004 29.6403C7.41464 29.6576 7.35222 29.6859 7.29275 29.726L7.35743 29.8995C7.39904 29.8684 7.44364 29.8456 7.49193 29.8311C7.5395 29.8166 7.58782 29.809 7.63611 29.809C7.68889 29.809 7.73275 29.8173 7.76618 29.8332C7.79964 29.8491 7.82489 29.8719 7.84125 29.9016C7.85761 29.9306 7.86579 29.9659 7.86579 30.006V30.026C7.76918 30.0184 7.68368 30.0184 7.61086 30.026C7.52614 30.0357 7.457 30.0537 7.40275 30.0813C7.3485 30.109 7.30836 30.1435 7.28236 30.185C7.25632 30.2265 7.24297 30.2742 7.24297 30.3274C7.24297 30.3896 7.25707 30.4428 7.28532 30.4884C7.31357 30.534 7.35222 30.5686 7.40125 30.5935C7.45032 30.6184 7.50679 30.6301 7.56997 30.6301C7.63836 30.6301 7.70079 30.6184 7.75504 30.5949C7.81004 30.5714 7.85314 30.5375 7.88436 30.494V30.6025H8.09543V30.0025C8.09543 29.9147 8.07836 29.8422 8.04343 29.7848C8.00922 29.7274 7.95943 29.6852 7.8955 29.6569M7.86504 30.2451C7.86504 30.2859 7.85464 30.3218 7.83457 30.3516C7.81375 30.382 7.78625 30.4048 7.75057 30.4214C7.71564 30.438 7.6755 30.4463 7.63168 30.4463C7.57964 30.4463 7.53875 30.4352 7.50904 30.4124C7.47929 30.3903 7.46443 30.3578 7.46443 30.3163C7.46443 30.2887 7.47336 30.2638 7.49193 30.2431C7.5105 30.2223 7.538 30.2057 7.57518 30.194C7.61236 30.1815 7.65918 30.1753 7.71564 30.1739C7.7595 30.1725 7.80929 30.176 7.86504 30.1829V30.2451Z" fill="#173583"/>
<path d="M8.47489 29.9554C8.47489 30.0494 8.47118 30.1261 8.463 30.1862C8.45482 30.2464 8.43625 30.2934 8.4065 30.3279C8.37679 30.3618 8.33068 30.3874 8.26678 30.404L8.34853 30.6217C8.41914 30.6037 8.47711 30.5782 8.52171 30.5436C8.56703 30.5097 8.60196 30.4655 8.62725 30.4116C8.6525 30.3577 8.67036 30.2934 8.68 30.218C8.68968 30.1427 8.69489 30.0556 8.69489 29.9561V29.851H9.01668V30.6023H9.256V29.6533H8.47414V29.9561L8.47489 29.9554Z" fill="#173583"/>
<path d="M9.97472 29.9501H9.78V29.6528H9.54068V30.6019H9.96504C10.0475 30.6019 10.1189 30.5887 10.1799 30.5631C10.2408 30.5369 10.2884 30.4996 10.3218 30.4512C10.3553 30.4028 10.3724 30.344 10.3724 30.2763C10.3724 30.1692 10.3367 30.0883 10.2661 30.033C10.1947 29.9777 10.0974 29.9501 9.97397 29.9501M10.078 30.3862C10.0468 30.4111 10 30.4235 9.93904 30.4235H9.77925V30.1263H9.95464C10.0096 30.1263 10.052 30.1394 10.081 30.1657C10.1107 30.192 10.1249 30.2286 10.1249 30.2763C10.1249 30.324 10.1093 30.3606 10.0773 30.3862" fill="#173583"/>
<path d="M11.2608 30.0102H10.829V29.6528H10.5897V30.6019H10.829V30.2079H11.2608V30.6019H11.5001V29.6528H11.2608V30.0102Z" fill="#173583"/>
<path d="M12.3714 29.6562C12.3075 29.6286 12.2317 29.6147 12.1447 29.6147C12.0838 29.6147 12.0206 29.623 11.9552 29.6403C11.8898 29.6576 11.8274 29.6859 11.7679 29.726L11.8326 29.8995C11.8742 29.8684 11.9188 29.8456 11.9671 29.8311C12.0147 29.8166 12.063 29.809 12.1113 29.809C12.1641 29.809 12.2079 29.8173 12.2414 29.8332C12.2748 29.8491 12.3001 29.8719 12.3164 29.9016C12.3328 29.9306 12.341 29.9659 12.341 30.006V30.026C12.2444 30.0184 12.1589 30.0184 12.086 30.026C12.0013 30.0357 11.9322 30.0537 11.8779 30.0813C11.8237 30.109 11.7835 30.1435 11.7575 30.185C11.7315 30.2265 11.7181 30.2742 11.7181 30.3274C11.7181 30.3896 11.7322 30.4428 11.7605 30.4884C11.7887 30.534 11.8274 30.5686 11.8765 30.5935C11.9255 30.6184 11.982 30.6301 12.0459 30.6301C12.1143 30.6301 12.1767 30.6184 12.231 30.5949C12.286 30.5714 12.3291 30.5375 12.3603 30.494V30.6025H12.5714V30.0025C12.5714 29.9147 12.5543 29.8422 12.5194 29.7848C12.4851 29.7274 12.4354 29.6852 12.3714 29.6569M12.341 30.2451C12.341 30.2859 12.3306 30.3218 12.3105 30.3516C12.2897 30.382 12.2622 30.4048 12.2265 30.4214C12.1916 30.438 12.1514 30.4463 12.1076 30.4463C12.0556 30.4463 12.0147 30.4352 11.985 30.4124C11.9552 30.3903 11.9404 30.3578 11.9404 30.3163C11.9404 30.2887 11.9493 30.2638 11.9679 30.2431C11.9864 30.2223 12.0139 30.2057 12.0511 30.194C12.0883 30.1815 12.1351 30.1753 12.1916 30.1739C12.2354 30.1725 12.2852 30.176 12.341 30.1829V30.2451Z" fill="#173583"/>
<path d="M12.9993 29.6902C12.9398 29.715 12.8944 29.751 12.8625 29.7987C12.8305 29.8457 12.8142 29.9024 12.8142 29.968C12.8142 30.0288 12.829 30.0814 12.8588 30.1256C12.8885 30.1699 12.9309 30.2037 12.9859 30.2279C13 30.2341 13.0156 30.239 13.0312 30.2438L12.7785 30.6019H13.0461L13.2809 30.2652H13.3984V30.6019H13.6273V29.6528H13.2073C13.1278 29.6528 13.058 29.6653 12.9985 29.6902M13.3976 29.8312V30.0938H13.2163C13.1628 30.0938 13.1219 30.0821 13.0936 30.0586C13.0654 30.0351 13.0513 30.0026 13.0513 29.9611C13.0513 29.9196 13.0669 29.8858 13.0974 29.8636C13.1286 29.8415 13.1731 29.8312 13.2326 29.8312H13.3984H13.3976Z" fill="#173583"/>
<path d="M15.2099 30.3604C15.1497 30.3798 15.088 30.3895 15.0248 30.3895C14.9312 30.3895 14.8502 30.3715 14.7825 30.3356C14.7142 30.2996 14.6621 30.2478 14.625 30.1807C14.5886 30.1137 14.57 30.0321 14.57 29.9367C14.57 29.8669 14.5804 29.8047 14.6012 29.7487C14.6212 29.6934 14.651 29.6457 14.6904 29.6056C14.729 29.5662 14.7759 29.5358 14.8309 29.5151C14.8859 29.4944 14.9475 29.484 15.0167 29.484C15.0813 29.484 15.1408 29.493 15.1935 29.5116C15.2471 29.5303 15.2939 29.5586 15.3333 29.5973L15.4574 29.3948C15.4009 29.3464 15.3355 29.3098 15.2627 29.2835C15.1898 29.2573 15.1014 29.2441 14.9988 29.2441C14.8962 29.2441 14.8078 29.2607 14.7246 29.2946C14.6413 29.3285 14.5685 29.3762 14.5075 29.4384C14.4459 29.5006 14.399 29.5738 14.3656 29.6589C14.3321 29.7432 14.3158 29.8365 14.3158 29.9381C14.3158 30.0777 14.344 30.1994 14.4005 30.3031C14.4577 30.4067 14.5373 30.4869 14.6391 30.5436C14.7417 30.6003 14.8606 30.6286 14.9966 30.6286C15.1006 30.6286 15.1935 30.6148 15.276 30.5878C15.3578 30.5609 15.4299 30.5222 15.4923 30.4731L15.3801 30.2657C15.3266 30.3086 15.2694 30.3397 15.2091 30.3597" fill="#173583"/>
<path d="M15.5469 29.8498H15.8412V30.6019H16.0805V29.8498H16.3756V29.6528H15.5469V29.8498Z" fill="#173583"/>
<path d="M17.3639 29.6888C17.2933 29.6459 17.213 29.6245 17.1223 29.6245C17.042 29.6245 16.9729 29.6383 16.9164 29.6667C16.8592 29.695 16.8131 29.7316 16.7767 29.778V29.6529H16.5656V31H16.8042V30.4968C16.8421 30.5383 16.8875 30.5701 16.9395 30.5943C16.9915 30.6178 17.0517 30.6295 17.1186 30.6295C17.1855 30.6295 17.2516 30.6164 17.3089 30.5908C17.3669 30.5645 17.4159 30.5293 17.4582 30.483C17.4999 30.4374 17.5326 30.3841 17.5556 30.3233C17.5787 30.2625 17.5898 30.1968 17.5898 30.127C17.5898 30.0289 17.5698 29.9425 17.5296 29.8664C17.4895 29.7911 17.4338 29.7316 17.3639 29.6888ZM17.317 30.2812C17.2933 30.3247 17.2606 30.3579 17.2197 30.3821C17.1788 30.4056 17.1312 30.4173 17.0785 30.4173C17.0257 30.4173 16.9781 30.4056 16.9365 30.3821C16.8949 30.3586 16.8629 30.3247 16.8391 30.2812C16.8154 30.2376 16.8042 30.1865 16.8042 30.127C16.8042 30.0676 16.8161 30.0157 16.8399 29.9722C16.8637 29.9286 16.8964 29.8955 16.9373 29.8713C16.9781 29.8478 17.0257 29.836 17.0785 29.836C17.1312 29.836 17.1781 29.8478 17.2189 29.8713C17.2606 29.8948 17.2933 29.9286 17.317 29.9722C17.3408 30.0157 17.3527 30.0676 17.3527 30.127C17.3527 30.1865 17.3408 30.2376 17.317 30.2812Z" fill="#173583"/>
<path d="M18.3826 29.6562C18.3187 29.6286 18.2429 29.6147 18.1559 29.6147C18.095 29.6147 18.0318 29.623 17.9664 29.6403C17.901 29.6576 17.8386 29.6859 17.7791 29.726L17.8438 29.8995C17.8854 29.8684 17.93 29.8456 17.9783 29.8311C18.0259 29.8166 18.0742 29.809 18.1225 29.809C18.1753 29.809 18.2191 29.8173 18.2525 29.8332C18.286 29.8491 18.3113 29.8719 18.3276 29.9016C18.344 29.9306 18.3521 29.9659 18.3521 30.006V30.026C18.2555 30.0184 18.17 30.0184 18.0972 30.026C18.0125 30.0357 17.9434 30.0537 17.8891 30.0813C17.8349 30.109 17.7947 30.1435 17.7687 30.185C17.7427 30.2265 17.7293 30.2742 17.7293 30.3274C17.7293 30.3896 17.7434 30.4428 17.7717 30.4884C17.7999 30.534 17.8386 30.5686 17.8876 30.5935C17.9367 30.6184 17.9932 30.6301 18.0571 30.6301C18.1255 30.6301 18.1879 30.6184 18.2421 30.5949C18.2971 30.5714 18.3403 30.5375 18.3715 30.494V30.6025H18.5825V30.0025C18.5825 29.9147 18.5655 29.8422 18.5305 29.7848C18.4963 29.7274 18.4465 29.6852 18.3826 29.6569M18.3521 30.2451C18.3521 30.2859 18.3418 30.3218 18.3217 30.3516C18.3009 30.382 18.2734 30.4048 18.2377 30.4214C18.2028 30.438 18.1626 30.4463 18.1188 30.4463C18.0668 30.4463 18.0259 30.4352 17.9961 30.4124C17.9664 30.3903 17.9515 30.3578 17.9515 30.3163C17.9515 30.2887 17.9605 30.2638 17.979 30.2431C17.9976 30.2223 18.0251 30.2057 18.0623 30.194C18.0994 30.1815 18.1463 30.1753 18.2028 30.1739C18.2466 30.1725 18.2964 30.176 18.3521 30.1829V30.2451Z" fill="#173583"/>
<path d="M19.72 29.6528H19.4257L19.2488 29.9577L19.066 29.6528H18.7642L19.0831 30.1284L18.7456 30.6032L19.0392 30.5998L19.2406 30.2908L19.4383 30.6019H19.7453L19.4101 30.1222L19.72 29.6528Z" fill="#173583"/>
<path d="M20.6013 29.6929C20.524 29.6473 20.4363 29.6245 20.3375 29.6245C20.2624 29.6245 20.194 29.6376 20.1316 29.6646C20.0692 29.6916 20.0149 29.7282 19.9696 29.7745C19.9235 29.8208 19.8886 29.8747 19.8633 29.9356C19.838 29.9964 19.8261 30.06 19.8261 30.127C19.8261 30.2183 19.8477 30.3019 19.8915 30.3779C19.9354 30.454 19.9956 30.5148 20.0721 30.5611C20.1494 30.6067 20.2379 30.6302 20.3375 30.6302C20.4125 30.6302 20.4809 30.6171 20.5434 30.5901C20.6058 30.5632 20.66 30.5265 20.7054 30.4795C20.7507 30.4325 20.7864 30.3793 20.8116 30.3185C20.8369 30.2583 20.8496 30.1941 20.8496 30.127C20.8496 30.0358 20.828 29.9521 20.7834 29.8754C20.7396 29.7987 20.6794 29.7379 20.6021 29.6922M20.5761 30.2812C20.5523 30.3247 20.5196 30.3579 20.478 30.3821C20.4363 30.4056 20.3895 30.4173 20.3375 30.4173C20.2855 30.4173 20.2371 30.4056 20.1962 30.3821C20.1554 30.3586 20.1227 30.3247 20.0989 30.2812C20.0751 30.2376 20.0632 30.1865 20.0632 30.127C20.0632 30.0676 20.0751 30.0157 20.0981 29.9722C20.1219 29.9286 20.1539 29.8955 20.1955 29.872C20.2371 29.8485 20.284 29.8367 20.3375 29.8367C20.391 29.8367 20.4378 29.8485 20.4787 29.872C20.5196 29.8955 20.5523 29.9286 20.5761 29.9722C20.5999 30.0157 20.6117 30.0676 20.6117 30.127C20.6117 30.1865 20.5999 30.2376 20.5761 30.2812Z" fill="#173583"/>
<path d="M21.7368 30.0878C21.7435 30.0843 21.7509 30.0816 21.7569 30.0774C21.791 30.0581 21.8185 30.0332 21.8386 30.0035C21.8587 29.9738 21.8684 29.9378 21.8684 29.8977C21.8684 29.8162 21.8364 29.7546 21.7732 29.7139C21.71 29.6731 21.6246 29.6523 21.5168 29.6523H21.056V30.6014H21.5331C21.6127 30.6014 21.6803 30.5896 21.736 30.5668C21.7925 30.544 21.8349 30.5115 21.8646 30.4693C21.8944 30.4272 21.9092 30.3767 21.9092 30.318C21.9092 30.2482 21.8854 30.1915 21.8371 30.1466C21.8104 30.1217 21.7762 30.1016 21.7375 30.0878M21.2864 29.8258H21.4789C21.5309 29.8258 21.5711 29.8341 21.6 29.8514C21.629 29.8687 21.6439 29.8956 21.6439 29.933C21.6439 29.9703 21.6298 29.9966 21.6008 30.0132C21.5718 30.0297 21.5317 30.038 21.4789 30.038H21.2864V29.8251V29.8258ZM21.6298 30.4002C21.6 30.4196 21.5569 30.4293 21.5019 30.4293H21.2864V30.2032H21.5019C21.5584 30.2032 21.6008 30.2129 21.6305 30.2316C21.6603 30.2502 21.6751 30.2786 21.6751 30.3152C21.6751 30.3518 21.6603 30.3809 21.6305 30.4002" fill="#173583"/>
<path d="M22.7254 29.6562C22.6615 29.6286 22.5857 29.6147 22.4987 29.6147C22.4378 29.6147 22.3746 29.623 22.3092 29.6403C22.2438 29.6576 22.1814 29.6859 22.1219 29.726L22.1866 29.8995C22.2282 29.8684 22.2728 29.8456 22.3211 29.8311C22.3686 29.8166 22.417 29.809 22.4653 29.809C22.518 29.809 22.5619 29.8173 22.5953 29.8332C22.6288 29.8491 22.654 29.8719 22.6711 29.9016C22.6875 29.9306 22.6957 29.9659 22.6957 30.006V30.026C22.599 30.0184 22.5136 30.0184 22.4408 30.026C22.356 30.0357 22.2869 30.0537 22.2326 30.0813C22.1784 30.109 22.1383 30.1435 22.1123 30.185C22.0862 30.2265 22.0729 30.2742 22.0729 30.3274C22.0729 30.3896 22.087 30.4428 22.1152 30.4884C22.1434 30.534 22.1821 30.5686 22.2311 30.5935C22.2802 30.6184 22.3367 30.6301 22.4006 30.6301C22.469 30.6301 22.5307 30.6184 22.5857 30.5949C22.6407 30.5714 22.6838 30.5375 22.715 30.494V30.6025H22.9261V30.0025C22.9261 29.9147 22.909 29.8422 22.874 29.7848C22.8399 29.7274 22.7901 29.6852 22.7261 29.6569M22.6957 30.2451C22.6957 30.2859 22.6853 30.3218 22.6652 30.3516C22.6444 30.382 22.6169 30.4048 22.5812 30.4214C22.5463 30.438 22.5061 30.4463 22.4623 30.4463C22.4103 30.4463 22.3694 30.4352 22.3396 30.4124C22.3099 30.3903 22.2951 30.3578 22.2951 30.3163C22.2951 30.2887 22.304 30.2638 22.3226 30.2431C22.3411 30.2223 22.3686 30.2057 22.4058 30.194C22.443 30.1815 22.4898 30.1753 22.5463 30.1739C22.5901 30.1725 22.6399 30.176 22.6957 30.1829V30.2451Z" fill="#173583"/>
<path d="M23.3526 29.6902C23.2932 29.715 23.2478 29.751 23.2159 29.7987C23.1839 29.8457 23.1676 29.9024 23.1676 29.968C23.1676 30.0288 23.1824 30.0814 23.2121 30.1256C23.2419 30.1699 23.2843 30.2037 23.3393 30.2279C23.3534 30.2341 23.369 30.239 23.3846 30.2438L23.1319 30.6019H23.3995L23.6343 30.2652H23.7518V30.6019H23.9806V29.6528H23.5607C23.4812 29.6528 23.4114 29.6653 23.3526 29.6902ZM23.7518 29.8312V30.0938H23.5704C23.5169 30.0938 23.476 30.0821 23.447 30.0586C23.4188 30.0351 23.4046 30.0026 23.4046 29.9611C23.4046 29.9196 23.4203 29.8858 23.4508 29.8636C23.482 29.8415 23.5265 29.8312 23.586 29.8312H23.7518Z" fill="#173583"/>
<path d="M24.9932 30.2045V29.2734H24.7523V30.6019H24.988L25.6033 29.6633V30.6019H25.8442V29.2734H25.6071L24.9932 30.2045Z" fill="#173583"/>
<path d="M26.8271 30.0102H26.396V29.6528H26.1567V30.6019H26.396V30.2079H26.8271V30.6019H27.0664V29.6528H26.8271V30.0102Z" fill="#173583"/>
<path d="M28.2971 29.6853C28.2272 29.6584 28.1477 29.6411 28.0593 29.6335V29.2354H27.8199V29.6342C27.7344 29.6425 27.6571 29.6591 27.5888 29.6853C27.4884 29.7233 27.4111 29.78 27.3569 29.854C27.3026 29.9286 27.2751 30.0192 27.2751 30.127C27.2751 30.2348 27.3019 30.3247 27.3554 30.3986C27.4089 30.4733 27.4855 30.5293 27.5843 30.568C27.6542 30.595 27.733 30.6122 27.8199 30.6205V31H28.0593V30.6205C28.1135 30.615 28.1648 30.606 28.2131 30.5936C28.2956 30.5714 28.3662 30.5397 28.4249 30.4982C28.4836 30.456 28.529 30.4042 28.5602 30.342C28.5914 30.2798 28.6078 30.2086 28.6078 30.1277C28.6078 30.0192 28.581 29.9279 28.5275 29.854C28.474 29.78 28.3974 29.7233 28.2978 29.6853M27.8206 30.4208C27.7775 30.4152 27.7382 30.4063 27.704 30.3945C27.6401 30.3717 27.5918 30.3385 27.5598 30.2943C27.5271 30.25 27.5115 30.1941 27.5115 30.127C27.5115 30.06 27.5271 30.004 27.5598 29.9597C27.5918 29.9155 27.6401 29.8816 27.7032 29.8595C27.7382 29.8478 27.7775 29.8388 27.8214 29.8332V30.4208H27.8206ZM28.3231 30.2943C28.2911 30.3385 28.2436 30.3717 28.1804 30.3945C28.1455 30.4069 28.1053 30.4159 28.0607 30.4215V29.8339C28.1038 29.8395 28.1425 29.8478 28.1774 29.8602C28.2413 29.8823 28.2896 29.9155 28.3224 29.9604C28.355 30.0054 28.3714 30.0606 28.3714 30.1277C28.3714 30.1947 28.355 30.25 28.3238 30.295" fill="#173583"/>
<path d="M29.5208 29.6929C29.4434 29.6473 29.3558 29.6245 29.2569 29.6245C29.1818 29.6245 29.1135 29.6376 29.051 29.6646C28.9886 29.6916 28.9343 29.7282 28.889 29.7745C28.8429 29.8208 28.808 29.8747 28.7827 29.9356C28.7574 29.9964 28.7455 30.06 28.7455 30.127C28.7455 30.2183 28.7671 30.3019 28.811 30.3779C28.8548 30.454 28.915 30.5148 28.9916 30.5611C29.0689 30.6067 29.1573 30.6302 29.2569 30.6302C29.332 30.6302 29.4003 30.6171 29.4628 30.5901C29.5252 30.5632 29.5795 30.5265 29.6248 30.4795C29.6702 30.4325 29.7058 30.3793 29.7311 30.3185C29.7564 30.2583 29.769 30.1941 29.769 30.127C29.769 30.0358 29.7467 29.9521 29.7028 29.8754C29.659 29.7987 29.5988 29.7379 29.5215 29.6922M29.4955 30.2812C29.4717 30.3247 29.439 30.3579 29.3974 30.3821C29.3558 30.4056 29.3089 30.4173 29.2569 30.4173C29.2049 30.4173 29.1566 30.4056 29.1157 30.3821C29.0748 30.3586 29.0421 30.3247 29.0183 30.2812C28.9945 30.2376 28.9826 30.1865 28.9826 30.127C28.9826 30.0676 28.9945 30.0157 29.0176 29.9722C29.0414 29.9286 29.0733 29.8955 29.1149 29.872C29.1566 29.8485 29.2034 29.8367 29.2569 29.8367C29.3104 29.8367 29.3572 29.8485 29.3981 29.872C29.439 29.8955 29.4717 29.9286 29.4955 29.9722C29.5193 30.0157 29.5312 30.0676 29.5312 30.127C29.5312 30.1865 29.5193 30.2376 29.4955 30.2812Z" fill="#173583"/>
<path d="M30.7724 29.6888C30.7018 29.6459 30.6215 29.6245 30.5309 29.6245C30.4506 29.6245 30.3815 29.6383 30.325 29.6667C30.2678 29.695 30.2217 29.7316 30.1853 29.778V29.6529H29.9742V31H30.2128V30.4968C30.2507 30.5383 30.296 30.5701 30.348 30.5943C30.4001 30.6178 30.4603 30.6295 30.5271 30.6295C30.594 30.6295 30.6602 30.6164 30.7174 30.5908C30.7754 30.5645 30.8245 30.5293 30.8668 30.483C30.9084 30.4374 30.9411 30.3841 30.9642 30.3233C30.9872 30.2625 30.9984 30.1968 30.9984 30.127C30.9984 30.0289 30.9783 29.9425 30.9382 29.8664C30.898 29.7911 30.8423 29.7316 30.7724 29.6888ZM30.7256 30.2812C30.7018 30.3247 30.6691 30.3579 30.6283 30.3821C30.5874 30.4056 30.5398 30.4173 30.487 30.4173C30.4343 30.4173 30.3867 30.4056 30.3451 30.3821C30.3034 30.3586 30.2715 30.3247 30.2477 30.2812C30.2239 30.2376 30.2128 30.1865 30.2128 30.127C30.2128 30.0676 30.2246 30.0157 30.2484 29.9722C30.2722 29.9286 30.3049 29.8955 30.3458 29.8713C30.3867 29.8478 30.4343 29.836 30.487 29.836C30.5398 29.836 30.5866 29.8478 30.6275 29.8713C30.6691 29.8948 30.7018 29.9286 30.7256 29.9722C30.7494 30.0157 30.7613 30.0676 30.7613 30.127C30.7613 30.1865 30.7494 30.2376 30.7256 30.2812Z" fill="#173583"/>
<path d="M31.7695 30.1802L31.4158 29.6528H31.4098H31.2047V30.6019H31.4039L31.4002 30.013L31.6855 30.4221H31.8342L32.1018 30.0185L32.0995 30.6019H32.3136V29.6528H32.1032L31.7695 30.1802Z" fill="#173583"/>
<path d="M33.186 29.6562C33.122 29.6286 33.0462 29.6147 32.9592 29.6147C32.8983 29.6147 32.8351 29.623 32.7697 29.6403C32.7043 29.6576 32.6419 29.6859 32.5825 29.726L32.6471 29.8995C32.6887 29.8684 32.7333 29.8456 32.7816 29.8311C32.8292 29.8166 32.8775 29.809 32.9258 29.809C32.9786 29.809 33.0224 29.8173 33.0559 29.8332C33.0893 29.8491 33.1146 29.8719 33.1317 29.9016C33.148 29.9306 33.1562 29.9659 33.1562 30.006V30.026C33.0596 30.0184 32.9741 30.0184 32.9013 30.026C32.8166 30.0357 32.7474 30.0537 32.6932 30.0813C32.6389 30.109 32.5988 30.1435 32.5728 30.185C32.5468 30.2265 32.5334 30.2742 32.5334 30.3274C32.5334 30.3896 32.5475 30.4428 32.5757 30.4884C32.604 30.534 32.6426 30.5686 32.6917 30.5935C32.7407 30.6184 32.7972 30.6301 32.8611 30.6301C32.9295 30.6301 32.9912 30.6184 33.0462 30.5949C33.1012 30.5714 33.1443 30.5375 33.1755 30.494V30.6025H33.3866V30.0025C33.3866 29.9147 33.3695 29.8422 33.3346 29.7848C33.3004 29.7274 33.2506 29.6852 33.1867 29.6569M33.1562 30.2451C33.1562 30.2859 33.1458 30.3218 33.1257 30.3516C33.1049 30.382 33.0774 30.4048 33.0417 30.4214C33.0068 30.438 32.9667 30.4463 32.9229 30.4463C32.8708 30.4463 32.8299 30.4352 32.8002 30.4124C32.7705 30.3903 32.7556 30.3578 32.7556 30.3163C32.7556 30.2887 32.7645 30.2638 32.7831 30.2431C32.8017 30.2223 32.8292 30.2057 32.8664 30.194C32.9035 30.1815 32.9504 30.1753 33.0068 30.1739C33.0507 30.1725 33.1005 30.176 33.1562 30.1829V30.2451Z" fill="#173583"/>
<path d="M34.5451 29.6528H34.305V30.4042H33.8992V29.6528H33.6599V30.6019H34.4329H34.5451H34.5689V30.8866H34.7881V30.4042H34.5451V29.6528Z" fill="#173583"/>
<path d="M35.2002 30.2521V29.6528H34.9698V30.6019H35.1786L35.6535 29.9943V30.6019H35.8839V29.6528H35.6721L35.2002 30.2521Z" fill="#173583"/>
<path d="M36.8664 29.6929C36.7893 29.6473 36.7014 29.6245 36.6025 29.6245C36.5275 29.6245 36.4593 29.6376 36.3968 29.6646C36.3343 29.6916 36.28 29.7282 36.2346 29.7745C36.1886 29.8208 36.1536 29.8747 36.1282 29.9356C36.1032 29.9964 36.0911 30.06 36.0911 30.127C36.0911 30.2183 36.1128 30.3019 36.1568 30.3779C36.2003 30.454 36.2607 30.5148 36.3379 30.5611C36.4154 30.6067 36.5036 30.6302 36.6032 30.6302C36.6782 30.6302 36.7468 30.6171 36.8093 30.5901C36.8718 30.5632 36.9257 30.5265 36.9711 30.4795C37.0164 30.4325 37.0521 30.3793 37.0775 30.3185C37.1029 30.2583 37.1153 30.1941 37.1153 30.127C37.1153 30.0358 37.0932 29.9521 37.0493 29.8754C37.0053 29.7987 36.9454 29.7379 36.8679 29.6922M36.8418 30.2812C36.8182 30.3247 36.7854 30.3579 36.7439 30.3821C36.7021 30.4056 36.6553 30.4173 36.6032 30.4173C36.5514 30.4173 36.5029 30.4056 36.4621 30.3821C36.4211 30.3586 36.3886 30.3247 36.3646 30.2812C36.3411 30.2376 36.3289 30.1865 36.3289 30.127C36.3289 30.0676 36.3411 30.0157 36.3639 29.9722C36.3879 29.9286 36.4196 29.8955 36.4614 29.872C36.5029 29.8485 36.5496 29.8367 36.6032 29.8367C36.6568 29.8367 36.7029 29.8485 36.7446 29.872C36.7854 29.8955 36.8182 29.9286 36.8418 29.9722C36.8657 30.0157 36.8775 30.0676 36.8775 30.127C36.8775 30.1865 36.8657 30.2376 36.8418 30.2812Z" fill="#173583"/>
<path d="M37.9929 30.0102H37.5618V29.6528H37.3221V30.6019H37.5618V30.2079H37.9929V30.6019H38.2321V29.6528H37.9929V30.0102Z" fill="#173583"/>
<path d="M39.1879 30.0102H38.7568V29.6528H38.5175V30.6019H38.7568V30.2079H39.1879V30.6019H39.4279V29.6528H39.1879V30.0102Z" fill="#173583"/>
<path d="M40.2986 29.6562C40.2346 29.6286 40.1586 29.6147 40.0718 29.6147C40.0107 29.6147 39.9475 29.623 39.8821 29.6403C39.8168 29.6576 39.7543 29.6859 39.695 29.726L39.7596 29.8995C39.8011 29.8684 39.8457 29.8456 39.8943 29.8311C39.9418 29.8166 39.99 29.809 40.0382 29.809C40.0911 29.809 40.135 29.8173 40.1686 29.8332C40.2018 29.8491 40.2271 29.8719 40.2443 29.9016C40.2607 29.9306 40.2686 29.9659 40.2686 30.006V30.026C40.1721 30.0184 40.0868 30.0184 40.0139 30.026C39.9289 30.0357 39.86 30.0537 39.8057 30.0813C39.7514 30.109 39.7114 30.1435 39.6854 30.185C39.6593 30.2265 39.6461 30.2742 39.6461 30.3274C39.6461 30.3896 39.66 30.4428 39.6882 30.4884C39.7164 30.534 39.755 30.5686 39.8043 30.5935C39.8532 30.6184 39.9096 30.6301 39.9736 30.6301C40.0421 30.6301 40.1036 30.6184 40.1586 30.5949C40.2136 30.5714 40.2568 30.5375 40.2882 30.494V30.6025H40.4993V30.0025C40.4993 29.9147 40.4821 29.8422 40.4471 29.7848C40.4129 29.7274 40.3632 29.6852 40.2993 29.6569M40.2686 30.2451C40.2686 30.2859 40.2582 30.3218 40.2382 30.3516C40.2175 30.382 40.19 30.4048 40.1543 30.4214C40.1193 30.438 40.0793 30.4463 40.0354 30.4463C39.9832 30.4463 39.9425 30.4352 39.9129 30.4124C39.8829 30.3903 39.8682 30.3578 39.8682 30.3163C39.8682 30.2887 39.8771 30.2638 39.8957 30.2431C39.9143 30.2223 39.9418 30.2057 39.9789 30.194C40.0161 30.1815 40.0629 30.1753 40.1193 30.1739C40.1632 30.1725 40.2129 30.176 40.2686 30.1829V30.2451Z" fill="#173583"/>
<path d="M40.9257 29.6902C40.8664 29.715 40.8211 29.751 40.7889 29.7987C40.7571 29.8457 40.7407 29.9024 40.7407 29.968C40.7407 30.0288 40.7557 30.0814 40.7854 30.1256C40.815 30.1699 40.8575 30.2037 40.9125 30.2279C40.9264 30.2341 40.9421 30.239 40.9579 30.2438L40.705 30.6019H40.9725L41.2075 30.2652H41.325V30.6019H41.5539V29.6528H41.1339C41.0543 29.6528 40.9846 29.6653 40.9257 29.6902ZM41.325 29.8312V30.0938H41.1436C41.09 30.0938 41.0493 30.0821 41.02 30.0586C40.9918 30.0351 40.9779 30.0026 40.9779 29.9611C40.9779 29.9196 40.9936 29.8858 41.0239 29.8636C41.055 29.8415 41.0996 29.8312 41.1593 29.8312H41.325Z" fill="#173583"/>
<path d="M43.1375 30.3604C43.0775 30.3798 43.0157 30.3895 42.9525 30.3895C42.8589 30.3895 42.7786 30.3715 42.7104 30.3356C42.6429 30.2996 42.59 30.2478 42.5536 30.1807C42.5164 30.1137 42.4979 30.0321 42.4979 29.9367C42.4979 29.8669 42.5082 29.8047 42.5289 29.7487C42.5489 29.6934 42.5789 29.6457 42.6182 29.6056C42.6568 29.5662 42.7036 29.5358 42.7586 29.5151C42.8136 29.4944 42.8754 29.484 42.9443 29.484C43.0089 29.484 43.0686 29.493 43.1214 29.5116C43.175 29.5303 43.2218 29.5586 43.2611 29.5973L43.385 29.3948C43.3286 29.3464 43.2632 29.3098 43.1904 29.2835C43.1175 29.2573 43.0293 29.2441 42.9264 29.2441C42.8239 29.2441 42.7357 29.2607 42.6525 29.2946C42.5689 29.3285 42.4971 29.3762 42.4354 29.4384C42.3736 29.5006 42.3268 29.5738 42.2932 29.6589C42.26 29.7432 42.2436 29.8365 42.2436 29.9381C42.2436 30.0777 42.2718 30.1994 42.3289 30.3031C42.3854 30.4067 42.465 30.4869 42.5675 30.5436C42.6693 30.6003 42.7889 30.6286 42.925 30.6286C43.0293 30.6286 43.1221 30.6148 43.2046 30.5878C43.2871 30.5609 43.3586 30.5222 43.4207 30.4731L43.3086 30.2657C43.255 30.3086 43.1979 30.3397 43.1375 30.3597" fill="#173583"/>
<path d="M43.8432 30.2521V29.6528H43.6125V30.6019H43.8214L44.2964 29.9943V30.6019H44.5268V29.6528H44.315L43.8432 30.2521Z" fill="#173583"/>
<path d="M45.3971 30.3917C45.3571 30.4089 45.3139 30.4172 45.2679 30.4172C45.1764 30.4172 45.105 30.3917 45.0521 30.3398C44.9996 30.288 44.9736 30.2168 44.9736 30.1256C44.9736 30.064 44.9854 30.0122 45.0093 29.9686C45.0329 29.9258 45.0664 29.8926 45.1111 29.8698C45.155 29.847 45.2075 29.8359 45.2686 29.8359C45.3093 29.8359 45.3482 29.8422 45.3854 29.8553C45.4225 29.8684 45.4557 29.8878 45.485 29.9147L45.5964 29.7316C45.5496 29.6949 45.4982 29.668 45.4418 29.65C45.3854 29.632 45.325 29.623 45.2589 29.623C45.1832 29.623 45.1139 29.6355 45.05 29.6604C44.9861 29.6853 44.9304 29.7205 44.8829 29.7654C44.8354 29.8111 44.7989 29.8636 44.7729 29.9251C44.7468 29.9859 44.7336 30.053 44.7336 30.1256C44.7336 30.2216 44.7557 30.308 44.7996 30.3834C44.8436 30.4587 44.9043 30.5188 44.9818 30.5624C45.0589 30.6066 45.1468 30.6281 45.2457 30.6281C45.3111 30.6281 45.3757 30.617 45.4379 30.5949C45.5011 30.5728 45.5586 30.5423 45.6089 30.5036L45.5018 30.3198C45.4721 30.3495 45.4364 30.373 45.3964 30.3903" fill="#173583"/>
<path d="M45.7043 29.8498H45.9993V30.6019H46.2386V29.8498H46.5339V29.6528H45.7043V29.8498Z" fill="#173583"/>
<path d="M47.5121 29.7851C47.4711 29.7339 47.4196 29.6945 47.3582 29.6662C47.2964 29.6378 47.2257 29.624 47.1479 29.624C47.0757 29.624 47.0089 29.6365 46.9486 29.6613C46.8875 29.6862 46.835 29.7208 46.7896 29.7664C46.7443 29.8113 46.7093 29.8653 46.6846 29.9268C46.6604 29.9883 46.6475 30.0553 46.6475 30.1286C46.6475 30.2288 46.6693 30.3159 46.7114 30.3913C46.7539 30.4666 46.8139 30.5254 46.8907 30.5675C46.9671 30.6097 47.0564 30.6304 47.1582 30.6304C47.2021 30.6304 47.2489 30.6256 47.2971 30.6159C47.3454 30.6062 47.3914 30.5931 47.4354 30.5751C47.4793 30.5572 47.5157 30.5364 47.5446 30.5122L47.4607 30.3422C47.4182 30.3733 47.3721 30.3968 47.3232 30.4127C47.2743 30.4286 47.2229 30.4362 47.1693 30.4362C47.1086 30.4362 47.0564 30.4258 47.0118 30.4044C46.9671 30.383 46.9329 30.3539 46.9086 30.3166C46.8846 30.2793 46.8729 30.2357 46.8736 30.186H47.605C47.6175 30.1058 47.6154 30.0318 47.5989 29.9634C47.5825 29.8957 47.5536 29.8362 47.5129 29.7851M46.8875 30.0132C46.8943 29.9496 46.9211 29.8991 46.9671 29.8625C47.0132 29.8265 47.0721 29.8079 47.1425 29.8079C47.2132 29.8079 47.2704 29.8265 47.3096 29.8625C47.35 29.8991 47.3707 29.9489 47.3721 30.0132H46.8868H46.8875Z" fill="#173583"/>
<path d="M48.3843 30.1802L48.0307 29.6528H48.0246H47.8189V30.6019H48.0186L48.015 30.013L48.3004 30.4221H48.4489L48.7164 30.0185L48.7143 30.6019H48.9286V29.6528H48.7182L48.3843 30.1802Z" fill="#173583"/>
<path d="M49.8022 29.6564C49.7382 29.6288 49.6622 29.6143 49.5754 29.6143C49.5143 29.6143 49.4511 29.6232 49.385 29.6398C49.3197 29.6571 49.2571 29.6855 49.1979 29.7255L49.2625 29.899C49.3039 29.8679 49.3493 29.8451 49.3968 29.8306C49.4447 29.8161 49.4929 29.8085 49.5418 29.8085C49.5946 29.8085 49.6386 29.8168 49.6718 29.8327C49.7054 29.8486 49.7307 29.8714 49.7472 29.9011C49.7632 29.9301 49.7722 29.9654 49.7722 30.0055V30.0255C49.6757 30.0179 49.59 30.0179 49.5175 30.0255C49.4325 30.0352 49.3636 30.0532 49.3093 30.0808C49.255 30.1085 49.215 30.143 49.1889 30.1845C49.1629 30.226 49.1493 30.2737 49.1493 30.3269C49.1493 30.3891 49.1636 30.4423 49.1918 30.4879C49.22 30.5336 49.2586 30.5681 49.3079 30.593C49.3568 30.6179 49.4132 30.6296 49.4771 30.6296C49.5457 30.6296 49.6072 30.6179 49.6622 30.5937C49.7172 30.5702 49.7604 30.5363 49.7914 30.4928V30.6013H50.0025V30.0013C50.0025 29.9135 49.9857 29.841 49.9507 29.7836C49.9164 29.7262 49.8668 29.6834 49.8029 29.6557M49.7722 30.2439C49.7722 30.2847 49.7618 30.3207 49.7411 30.3504C49.7204 30.3808 49.6929 30.4036 49.6579 30.4202C49.6229 30.4368 49.5829 30.4451 49.5389 30.4451C49.4868 30.4451 49.4461 30.434 49.4161 30.4112C49.3864 30.3891 49.3718 30.3566 49.3718 30.3151C49.3718 30.2875 49.3807 30.2626 49.3993 30.2419C49.4179 30.2211 49.4454 30.2045 49.4825 30.1928C49.5196 30.1804 49.5664 30.1741 49.6236 30.1728C49.6675 30.1721 49.7171 30.1748 49.7729 30.1817V30.2439H49.7722Z" fill="#173583"/>
<path d="M8.65696 27.7334V19H7.06257V22.4933H1.64165V19H0.0472565V27.7334H1.64165V24.0458H7.06257V27.7334H8.65696Z" fill="#173583"/>
<path d="M26.3859 20.6575V27.7334H27.9803V19H25.6842L20.9657 26.0759V19H19.3705V27.7334H19.8596H20.9657H21.6666L26.3859 20.6575Z" fill="#173583"/>
<path d="M18.2235 26.1809H13.919C12.387 26.1809 11.145 24.9209 11.145 23.367C11.145 21.8132 12.387 20.5524 13.919 20.5524H18.2235V19H13.8231C11.446 19 9.5186 20.9554 9.5186 23.367C9.5186 25.7786 11.446 27.7334 13.8231 27.7334H18.2235V26.1809Z" fill="#173583"/>
<path d="M33.1465 27.7334H37.5468V26.1809H33.2424C31.7104 26.1809 30.4684 24.9209 30.4684 23.367C30.4684 21.8132 31.7104 20.5531 33.2424 20.5531H37.5468V19H33.1465C30.7686 19 28.842 20.9547 28.842 23.3663C28.842 25.778 30.7694 27.7334 33.1465 27.7334Z" fill="#173583"/>
<path d="M42.8275 20.5528C43.135 20.5528 43.3839 20.3005 43.3839 19.9881V19.5651C43.3839 19.2533 43.135 19.001 42.8275 19.001C42.5196 19.001 42.2707 19.2533 42.2707 19.5651V19.9881C42.2707 20.3005 42.5196 20.5528 42.8275 20.5528ZM42.5493 19.5651C42.5493 19.4096 42.6743 19.2831 42.8275 19.2831C42.9804 19.2831 43.1054 19.4096 43.1054 19.5651V19.9881C43.1054 20.1443 42.9804 20.2708 42.8275 20.2708C42.6743 20.2708 42.5493 20.1443 42.5493 19.9881V19.5651Z" fill="#173583"/>
<path d="M41.0568 19C40.7493 19 40.5004 19.2523 40.5004 19.564V19.987C40.5004 20.2995 40.7493 20.5518 41.0568 20.5518C41.3647 20.5518 41.6136 20.2995 41.6136 19.987V19.564C41.6136 19.2523 41.3647 19 41.0568 19ZM41.335 19.9877C41.335 20.1439 41.21 20.2704 41.0568 20.2704C40.9039 20.2704 40.7789 20.1439 40.7789 19.9877V19.5647C40.7789 19.4092 40.9039 19.2827 41.0568 19.2827C41.21 19.2827 41.335 19.4092 41.335 19.5647V19.9877Z" fill="#173583"/>
<path d="M44.3175 20.5524H44.5954V19.2827V19H44.0425V19.2827H44.3175V20.5524Z" fill="#173583"/>
<path d="M48.2325 20.5528C48.54 20.5528 48.7893 20.3005 48.7893 19.9881V19.5651C48.7893 19.2533 48.54 19.001 48.2325 19.001C47.9246 19.001 47.6757 19.2533 47.6757 19.5651V19.9881C47.6757 20.3005 47.9246 20.5528 48.2325 20.5528ZM47.9546 19.5651C47.9546 19.4096 48.0793 19.2831 48.2325 19.2831C48.3857 19.2831 48.5104 19.4096 48.5104 19.5651V19.9881C48.5104 20.1443 48.3857 20.2708 48.2325 20.2708C48.0793 20.2708 47.9546 20.1443 47.9546 19.9881V19.5651Z" fill="#173583"/>
<path d="M39.565 20.5524H39.8429V19.2827V19H39.29V19.2827H39.565V20.5524Z" fill="#173583"/>
<path d="M45.5289 20.5524H45.8071V19.2827V19H45.2532V19.2827H45.5289V20.5524Z" fill="#173583"/>
<path d="M46.74 20.5524H47.0179V19.2827V19H46.4643V19.2827H46.74V20.5524Z" fill="#173583"/>
<path d="M49.7218 20.5524H50V19.2827V19H49.4461V19.2827H49.7218V20.5524Z" fill="#173583"/>
<path d="M42.5079 25.3398C42.8157 25.3398 43.0646 25.0876 43.0646 24.7758V24.3521C43.0646 24.0404 42.8157 23.7881 42.5079 23.7881C42.2004 23.7881 41.9511 24.0404 41.9511 24.3521V24.7758C41.9511 25.0876 42.2004 25.3398 42.5079 25.3398ZM42.23 24.3521C42.23 24.1966 42.3546 24.0701 42.5079 24.0701C42.6611 24.0701 42.7857 24.1966 42.7857 24.3521V24.7758C42.7857 24.9313 42.6611 25.0578 42.5079 25.0578C42.3546 25.0578 42.23 24.9313 42.23 24.7758V24.3521Z" fill="#173583"/>
<path d="M40.8982 23.7871C40.5904 23.7871 40.3414 24.0394 40.3414 24.3511V24.7748C40.3414 25.0866 40.5904 25.3389 40.8982 25.3389C41.2057 25.3389 41.4546 25.0866 41.4546 24.7748V24.3511C41.4546 24.0394 41.2057 23.7871 40.8982 23.7871ZM41.1761 24.7748C41.1761 24.9304 41.0511 25.0569 40.8982 25.0569C40.745 25.0569 40.62 24.9304 40.62 24.7748V24.3511C40.62 24.1956 40.745 24.0691 40.8982 24.0691C41.0511 24.0691 41.1761 24.1956 41.1761 24.3511V24.7748Z" fill="#173583"/>
<path d="M44.1161 25.3396V24.0691V23.7871H43.8378H43.5621V24.0691H43.8378V25.3396H44.1161Z" fill="#173583"/>
<path d="M47.8325 25.3398C48.14 25.3398 48.3889 25.0876 48.3889 24.7758V24.3521C48.3889 24.0404 48.14 23.7881 47.8325 23.7881C47.5246 23.7881 47.2757 24.0404 47.2757 24.3521V24.7758C47.2757 25.0876 47.5246 25.3398 47.8325 25.3398ZM47.5543 24.3521C47.5543 24.1966 47.6793 24.0701 47.8325 24.0701C47.9854 24.0701 48.1104 24.1966 48.1104 24.3521V24.7758C48.1104 24.9313 47.9854 25.0578 47.8325 25.0578C47.6793 25.0578 47.5543 24.9313 47.5543 24.7758V24.3521Z" fill="#173583"/>
<path d="M46.2214 25.3398C46.5293 25.3398 46.7782 25.0876 46.7782 24.7758V24.3521C46.7782 24.0404 46.5293 23.7881 46.2214 23.7881C45.9136 23.7881 45.6646 24.0404 45.6646 24.3521V24.7758C45.6646 25.0876 45.9136 25.3398 46.2214 25.3398ZM45.9436 24.3521C45.9436 24.1966 46.0682 24.0701 46.2214 24.0701C46.3746 24.0701 46.4993 24.1966 46.4993 24.3521V24.7758C46.4993 24.9313 46.3746 25.0578 46.2214 25.0578C46.0682 25.0578 45.9436 24.9313 45.9436 24.7758V24.3521Z" fill="#173583"/>
<path d="M49.4436 23.7871C49.1357 23.7871 48.8868 24.0394 48.8868 24.3511V24.7748C48.8868 25.0866 49.1357 25.3389 49.4436 25.3389C49.7511 25.3389 50 25.0866 50 24.7748V24.3511C50 24.0394 49.7511 23.7871 49.4436 23.7871ZM49.7214 24.7748C49.7214 24.9304 49.5964 25.0569 49.4436 25.0569C49.2904 25.0569 49.1654 24.9304 49.1654 24.7748V24.3511C49.1654 24.1956 49.2904 24.0691 49.4436 24.0691C49.5964 24.0691 49.7214 24.1956 49.7214 24.3511V24.7748Z" fill="#173583"/>
<path d="M39.565 25.3396H39.8429V24.0691V23.7871H39.565H39.2893V24.0691H39.565V25.3396Z" fill="#173583"/>
<path d="M45.1675 25.3396V24.0691V23.7871H44.8889H44.6139V24.0691H44.8889V25.3396H45.1675Z" fill="#173583"/>
<path d="M40.8982 21.3936C40.5904 21.3936 40.3414 21.6465 40.3414 21.9583V22.3813C40.3414 22.6937 40.5904 22.946 40.8982 22.946C41.2057 22.946 41.4546 22.6937 41.4546 22.3813V21.9583C41.4546 21.6465 41.2057 21.3936 40.8982 21.3936ZM41.1761 22.3813C41.1761 22.5375 41.0511 22.664 40.8982 22.664C40.745 22.664 40.62 22.5375 40.62 22.3813V21.9583C40.62 21.8021 40.745 21.6763 40.8982 21.6763C41.0511 21.6763 41.1761 21.8027 41.1761 21.9583V22.3813Z" fill="#173583"/>
<path d="M48.3918 22.946C48.6996 22.946 48.9486 22.6937 48.9486 22.3813V21.9583C48.9486 21.6465 48.6996 21.3936 48.3918 21.3936C48.0843 21.3936 47.835 21.6465 47.835 21.9583V22.3813C47.835 22.6937 48.0843 22.946 48.3918 22.946ZM48.1139 21.9583C48.1139 21.8021 48.2386 21.6763 48.3918 21.6763C48.545 21.6763 48.6696 21.8027 48.6696 21.9583V22.3813C48.6696 22.5375 48.545 22.664 48.3918 22.664C48.2386 22.664 48.1139 22.5375 48.1139 22.3813V21.9583Z" fill="#173583"/>
<path d="M43.5593 22.946C43.8671 22.946 44.1161 22.6937 44.1161 22.3813V21.9583C44.1161 21.6465 43.8671 21.3936 43.5593 21.3936C43.2518 21.3936 43.0029 21.6465 43.0029 21.9583V22.3813C43.0029 22.6937 43.2518 22.946 43.5593 22.946ZM43.2814 21.9583C43.2814 21.8021 43.4064 21.6763 43.5593 21.6763C43.7125 21.6763 43.8375 21.8027 43.8375 21.9583V22.3813C43.8375 22.5375 43.7125 22.664 43.5593 22.664C43.4064 22.664 43.2814 22.5375 43.2814 22.3813V21.9583Z" fill="#173583"/>
<path d="M45.1704 22.946C45.4782 22.946 45.7271 22.6937 45.7271 22.3813V21.9583C45.7271 21.6465 45.4782 21.3936 45.1704 21.3936C44.8629 21.3936 44.6139 21.6465 44.6139 21.9583V22.3813C44.6139 22.6937 44.8629 22.946 45.1704 22.946ZM44.8925 21.9583C44.8925 21.8021 45.0175 21.6763 45.1704 21.6763C45.3236 21.6763 45.4486 21.8027 45.4486 21.9583V22.3813C45.4486 22.5375 45.3236 22.664 45.1704 22.664C45.0175 22.664 44.8925 22.5375 44.8925 22.3813V21.9583Z" fill="#173583"/>
<path d="M46.7814 22.946C47.0893 22.946 47.3382 22.6937 47.3382 22.3813V21.9583C47.3382 21.6465 47.0893 21.3936 46.7814 21.3936C46.4739 21.3936 46.2246 21.6465 46.2246 21.9583V22.3813C46.2246 22.6937 46.4739 22.946 46.7814 22.946ZM46.5036 21.9583C46.5036 21.8021 46.6282 21.6763 46.7814 21.6763C46.9346 21.6763 47.0593 21.8027 47.0593 21.9583V22.3813C47.0593 22.5375 46.9346 22.664 46.7814 22.664C46.6282 22.664 46.5036 22.5375 46.5036 22.3813V21.9583Z" fill="#173583"/>
<path d="M39.565 22.946H39.8429V21.6763V21.3936H39.565H39.2893V21.6763H39.565V22.946Z" fill="#173583"/>
<path d="M42.505 22.946V21.6763V21.3936H42.2268H41.9511V21.6763H42.2268V22.946H42.505Z" fill="#173583"/>
<path d="M50 22.946V21.6763V21.3936H49.7218H49.4461V21.6763H49.7218V22.946H50Z" fill="#173583"/>
<path d="M40.8775 26.1807C40.5704 26.1807 40.3207 26.4336 40.3207 26.7454V27.1684C40.3207 27.4801 40.5696 27.7331 40.8775 27.7331C41.185 27.7331 41.4339 27.4801 41.4339 27.1684V26.7454C41.4339 26.4336 41.185 26.1807 40.8775 26.1807ZM41.1554 27.1684C41.1554 27.3246 41.0311 27.4511 40.8775 27.4511C40.7236 27.4511 40.5993 27.3246 40.5993 27.1684V26.7454C40.5993 26.5892 40.7243 26.4627 40.8775 26.4627C41.0304 26.4627 41.1554 26.5892 41.1554 26.7454V27.1684Z" fill="#173583"/>
<path d="M48.9689 27.1687V26.7457C48.9689 26.4339 48.7196 26.1816 48.4121 26.1816C48.1043 26.1816 47.8553 26.4339 47.8553 26.7457V27.1687C47.8553 27.4811 48.1043 27.7334 48.4121 27.7334C48.7196 27.7334 48.9689 27.4811 48.9689 27.1687ZM48.1343 27.1687V26.7457C48.1343 26.5901 48.2589 26.4637 48.4121 26.4637C48.5653 26.4637 48.69 26.5901 48.69 26.7457V27.1687C48.69 27.3249 48.5653 27.4514 48.4121 27.4514C48.2589 27.4514 48.1343 27.3249 48.1343 27.1687Z" fill="#173583"/>
<path d="M44.1968 27.1687V26.7457C44.1968 26.4339 43.9479 26.1816 43.64 26.1816C43.3325 26.1816 43.0836 26.4339 43.0836 26.7457V27.1687C43.0836 27.4811 43.3325 27.7334 43.64 27.7334C43.9479 27.7334 44.1968 27.4811 44.1968 27.1687ZM43.3621 27.1687V26.7457C43.3621 26.5901 43.4871 26.4637 43.64 26.4637C43.7932 26.4637 43.9182 26.5901 43.9182 26.7457V27.1687C43.9182 27.3249 43.7932 27.4514 43.64 27.4514C43.4871 27.4514 43.3621 27.3249 43.3621 27.1687Z" fill="#173583"/>
<path d="M45.7875 26.7454C45.7875 26.4336 45.5386 26.1807 45.2311 26.1807C44.9232 26.1807 44.6743 26.4336 44.6743 26.7454V27.1684C44.6743 27.4801 44.9232 27.7331 45.2311 27.7331C45.5386 27.7331 45.7875 27.4801 45.7875 27.1684V26.7454ZM45.5096 27.1684C45.5096 27.3246 45.3846 27.4511 45.2318 27.4511C45.0786 27.4511 44.9536 27.3246 44.9536 27.1684V26.7454C44.9536 26.5892 45.0786 26.4627 45.2318 26.4627C45.3846 26.4627 45.5096 26.5892 45.5096 26.7454V27.1684Z" fill="#173583"/>
<path d="M46.8211 27.7334C47.1289 27.7334 47.3779 27.4811 47.3779 27.1687V26.7457C47.3779 26.4339 47.1289 26.1816 46.8211 26.1816C46.5136 26.1816 46.2646 26.4339 46.2646 26.7457V27.1687C46.2646 27.4811 46.5136 27.7334 46.8211 27.7334ZM46.5432 26.7457C46.5432 26.5901 46.6682 26.4637 46.8211 26.4637C46.9743 26.4637 47.0993 26.5901 47.0993 26.7457V27.1687C47.0993 27.3249 46.9743 27.4514 46.8211 27.4514C46.6682 27.4514 46.5432 27.3249 46.5432 27.1687V26.7457Z" fill="#173583"/>
<path d="M39.8429 27.7331V26.4627V26.1807H39.565H39.2893V26.4627H39.565V27.7331H39.8429Z" fill="#173583"/>
<path d="M42.3279 27.7331H42.6061V26.4627V26.1807H42.3279H41.9104V26.4627H42.3279V27.7331Z" fill="#173583"/>
<path d="M50 27.7331V26.4627V26.1807H49.7218H49.4461V26.4627H49.7218V27.7331H50Z" fill="#173583"/>
</g>
</svg>
