<svg width="50.000000" height="50.000000" viewBox="0 0 50 50" fill="none" xmlns="http://www.w3.org/2000/svg" xmlns:xlink="http://www.w3.org/1999/xlink">
	<desc>
			Created with Pixso.
	</desc>
	<defs/>
	<g opacity="0.000000">
		<rect id="Прямоугольник 71" width="50.000000" height="50.000000" fill="#C4C4C4" fill-opacity="1.000000"/>
	</g>
	<path id="path" d="M15.37 50C15.37 50 15.35 50 15.33 49.98C15.21 49.95 15.12 49.91 15.02 49.91C11.49 49.91 7.95 49.91 4.41 49.91C4.35 49.91 4.28 49.92 4.22 49.9C4.17 49.88 4.11 49.82 4.09 49.77C4.07 49.71 4.08 49.63 4.08 49.55C4.08 33.18 4.08 16.8 4.08 0.43C4.08 0.37 4.08 0.31 4.08 0.25C4.07 0.13 4.12 0.07 4.25 0.08C4.31 0.08 4.38 0.08 4.44 0.08C18.15 0.08 31.85 0.08 45.55 0.08C45.61 0.08 45.67 0.08 45.73 0.08C45.87 0.07 45.93 0.14 45.91 0.27C45.91 0.34 45.91 0.4 45.91 0.47C45.91 16.82 45.91 33.16 45.91 49.51C45.91 49.56 45.91 49.61 45.91 49.66C45.94 49.86 45.86 49.91 45.67 49.91C43.32 49.91 40.96 49.91 38.61 49.9C38.53 49.9 38.45 49.86 38.38 49.83C38.74 49.49 39.1 49.16 39.45 48.82C39.84 48.44 40.23 48.05 40.62 47.65C40.72 47.54 40.83 47.49 40.98 47.49C41.6 47.5 42.23 47.5 42.85 47.5C43.07 47.5 43.28 47.5 43.51 47.5C43.51 39.29 43.51 31.09 43.51 22.84C43.25 24.2 43.01 25.51 42.76 26.8C42.68 27.24 42.62 27.69 42.46 28.09C42.11 28.95 41.55 29.69 40.83 30.25C39.72 31.11 38.59 31.95 37.42 32.72C35.83 33.76 34.25 34.81 32.88 36.14C32.83 36.19 32.78 36.24 32.73 36.3C32.74 36.32 32.74 36.34 32.75 36.36C34.32 36.36 35.9 36.37 37.47 36.36C38.12 36.36 38.78 36.31 39.43 36.29C39.53 36.29 39.63 36.34 39.73 36.39C39.72 36.47 39.71 36.53 39.69 36.6C39.43 37.7 38.84 38.57 37.82 39.11C37.79 39.13 37.78 39.18 37.75 39.23C37.74 39.25 37.75 39.26 37.76 39.26C37.76 39.26 37.76 39.26 37.75 39.25C37.34 39.59 36.94 39.92 36.56 40.28C35.09 41.63 33.67 43.03 32.16 44.33C30.61 45.66 28.99 46.9 27.4 48.19C27.25 48.31 27.13 48.46 27 48.59C27 48.59 27 48.59 26.99 48.59C26.97 48.6 26.96 48.62 26.94 48.64C26.29 49.07 25.66 49.49 25.02 49.91C23.2 49.91 21.4 49.91 19.61 49.91C19.5 49.91 19.4 49.88 19.29 49.85C19.67 49.59 20.03 49.35 20.4 49.11C21.54 48.37 22.69 47.63 23.83 46.89C25.97 45.5 28.1 44.12 30.23 42.73C31.57 41.85 32.9 40.94 34.09 39.85C34.65 39.34 35.18 38.8 35.53 38.12C35.8 37.59 35.69 37.37 35.11 37.27C35.08 37.27 35.06 37.27 35.03 37.26C34.04 37.06 33.05 36.88 32.07 36.65C31.06 36.41 30.06 36.12 29.05 35.85C28.48 35.69 27.92 35.53 27.37 35.36C27.46 35.32 27.54 35.29 27.62 35.29C27.84 35.27 28.08 35.3 28.29 35.25C28.91 35.1 29.46 34.81 29.92 34.37C30.44 33.87 30.93 33.34 31.42 32.81C32.29 31.88 33.27 31.13 34.48 30.7C34.88 30.56 35.05 30.28 35.2 29.93C35.23 29.87 35.25 29.81 35.28 29.75C36.01 28.16 36.49 26.51 36.42 24.73C36.37 23.71 36.13 22.75 35.62 21.86C35.49 21.61 35.32 21.38 35.17 21.14C35.15 21.15 35.13 21.16 35.11 21.16C35.15 22.67 34.98 24.13 34.34 25.51C34.29 25.43 34.29 25.35 34.29 25.28C34.3 24.23 34.3 23.18 34.11 22.14C33.96 21.32 33.69 20.56 33.04 20C32.74 19.74 32.4 19.52 32.1 19.26C31.46 18.72 30.84 18.16 30.2 17.62C29.65 17.16 29.05 16.75 28.31 16.64C27.83 16.57 27.27 16.88 27.12 17.32C27.16 17.32 27.2 17.33 27.25 17.33C27.8 17.38 28.1 17.71 28.09 18.27C28.07 18.91 27.52 19.59 26.85 19.77C26.18 19.96 25.56 19.82 24.97 19.5C24.51 19.24 24.27 18.87 24.3 18.32C24.32 17.79 24.55 17.34 24.82 16.91C25.53 15.78 26.4 14.78 27.26 13.78C27.39 13.63 27.5 13.48 27.61 13.33C27.6 13.31 27.59 13.29 27.58 13.27C27.52 13.27 27.45 13.26 27.4 13.27C26.73 13.45 26.05 13.58 25.41 13.82C23.27 14.63 21.25 15.72 19.36 17.02C18.71 17.47 18.06 17.96 17.59 18.62C17.47 18.78 17.39 18.98 17.27 19.22C17.43 19.21 17.51 19.21 17.59 19.19C18.01 19.07 18.43 18.94 18.86 18.82C19.14 18.75 19.42 18.67 19.7 18.61C19.77 18.59 19.85 18.64 19.92 18.66C19.89 18.73 19.88 18.82 19.83 18.86C19.7 18.99 19.55 19.12 19.4 19.22C18.69 19.7 17.97 20.15 17.28 20.65C16.32 21.34 15.4 22.09 14.69 23.06C14.18 23.75 13.82 24.5 13.79 25.38C13.76 26.39 14.09 27.28 14.61 28.12C15.09 28.9 15.49 29.7 15.4 30.66C15.39 30.84 15.37 31.02 15.35 31.21C15.32 31.21 15.3 31.21 15.28 31.22C15.25 31.15 15.22 31.09 15.2 31.03C15 30.51 14.73 30.03 14.38 29.6C14.2 29.39 14.01 29.19 13.82 28.98C13.41 28.54 13.09 28.03 12.86 27.43C12.83 27.51 12.82 27.54 12.81 27.57C12.64 28.6 12.55 29.62 12.67 30.66C12.75 31.37 12.93 32.06 13.24 32.71C13.7 33.68 14.4 34.44 15.29 35.05C15.19 35.13 15.09 35.19 14.99 35.26C14.38 35.65 13.79 36.07 13.35 36.67C12.79 37.45 12.78 38.22 13.35 38.99C13.75 39.53 14.29 39.89 14.86 40.23C15.03 40.33 15.2 40.42 15.4 40.54C15.34 40.58 15.3 40.61 15.27 40.62C14.27 40.92 13.27 41.23 12.27 41.53C12.18 41.55 12.06 41.52 11.97 41.47C9.67 40.27 7.7 38.69 6.3 36.47C6.3 36.52 6.3 36.59 6.3 36.67C6.3 38.07 6.3 39.48 6.3 40.89C6.3 41.29 6.31 41.69 6.31 42.11C6.37 42.25 6.42 42.38 6.48 42.53C6.48 44.2 6.48 45.84 6.48 47.51C10.78 47.51 15.04 47.51 19.31 47.51C19.15 47.66 18.97 47.75 18.79 47.86C17.93 48.38 17.07 48.9 16.22 49.43C15.93 49.61 15.65 49.81 15.37 50ZM22.48 3.94C22.48 3.94 22.47 3.93 22.48 3.9C22.83 3.43 23.19 2.97 23.55 2.5C17.86 2.5 12.18 2.5 6.48 2.5C6.48 2.59 6.48 2.67 6.48 2.75C6.48 4.45 6.48 6.16 6.48 7.87C6.48 7.98 6.43 8.09 6.41 8.2C6.38 8.34 6.31 8.48 6.31 8.61C6.3 14.77 6.3 20.93 6.3 27.09C6.3 27.16 6.3 27.23 6.3 27.33C6.43 27.09 6.53 26.88 6.66 26.68C7.66 25.06 8.88 23.61 10.21 22.26C11.96 20.5 13.88 18.92 15.86 17.42C15.92 17.37 15.97 17.33 16.03 17.28C16.02 17.26 16 17.24 15.99 17.23C12.73 18.47 9.91 20.37 7.56 22.99C7.54 22.92 7.53 22.87 7.54 22.83C7.63 22.12 7.72 21.41 7.83 20.71C8.12 18.84 8.46 16.99 8.91 15.16C9.33 13.47 10.25 12.15 11.65 11.16C12.72 10.41 13.81 9.69 14.91 8.98C17.72 7.13 20.69 5.57 23.75 4.18C24.89 3.67 26.03 3.16 27.19 2.65C27 2.67 26.81 2.67 26.63 2.7C25.66 2.85 24.72 3.12 23.8 3.45C23.36 3.61 22.93 3.79 22.48 3.94ZM24.48 12.31C24.42 12.25 24.35 12.19 24.29 12.14C24.22 12.08 24.16 12.03 24.1 11.98C24.16 11.92 24.21 11.85 24.28 11.81C24.58 11.62 24.9 11.46 25.2 11.26C26.6 10.29 27.81 9.11 28.94 7.84C29.69 6.99 30.35 6.08 30.93 5.1C30.96 5.04 30.99 4.97 31.02 4.91C31 4.9 30.98 4.89 30.96 4.88C30.69 5.11 30.43 5.34 30.16 5.57C28.71 6.79 27.12 7.72 25.25 8.14C24.79 8.25 24.3 8.33 23.88 8.55C21.86 9.59 19.84 10.66 17.84 11.75C17.05 12.18 16.3 12.68 15.54 13.16C15.43 13.23 15.35 13.34 15.25 13.43C15.27 13.46 15.28 13.49 15.29 13.52C15.46 13.5 15.64 13.5 15.8 13.46C17.21 13.06 18.61 12.65 20.02 12.26C20.45 12.15 20.9 12.07 21.34 11.99C21.4 11.98 21.47 12.03 21.53 12.05C21.5 12.11 21.49 12.19 21.44 12.24C21.38 12.31 21.31 12.37 21.24 12.43C20.95 12.66 20.65 12.87 20.38 13.11C20.1 13.36 19.84 13.63 19.59 13.91C19.46 14.06 19.53 14.18 19.73 14.17C19.87 14.17 20.02 14.15 20.15 14.1C21.31 13.69 22.48 13.29 23.63 12.85C23.93 12.74 24.2 12.52 24.48 12.31ZM39.13 19.57C39.26 19.76 39.39 19.96 39.52 20.15C40.12 20.98 40.41 21.9 40.34 22.94C40.31 23.5 40.17 23.99 39.77 24.4C39.49 24.69 39.24 25.01 38.98 25.33C38.93 25.4 38.89 25.54 38.92 25.6C38.96 25.67 39.1 25.71 39.18 25.7C39.56 25.64 39.94 25.55 40.31 25.49C40.5 25.46 40.61 25.35 40.67 25.18C40.75 24.93 40.85 24.69 40.9 24.43C41.13 23.23 41.33 22.01 41.57 20.81C41.73 20 41.6 19.24 41.3 18.49C40.78 17.19 39.99 16.06 39.07 15.02C38.99 14.92 38.9 14.83 38.79 14.72C38.17 16.4 38 18.02 39.13 19.57ZM7.56 33.78C7.92 35.36 8.72 36.69 9.81 37.88C9.85 37.23 9.89 36.59 9.86 35.95C9.84 35.11 9.67 34.3 9.28 33.53C9.1 33.18 8.98 32.79 8.93 32.4C8.84 31.61 8.92 30.82 9.07 30.05C9.27 28.95 9.51 27.87 9.74 26.78C9.76 26.67 9.78 26.56 9.81 26.46C9.83 26.35 9.86 26.25 9.88 26.14C9.86 26.14 9.84 26.13 9.82 26.13C7.89 28.31 6.91 30.78 7.56 33.78ZM29.05 12.35C29.23 12.34 29.42 12.35 29.59 12.31C30.65 12.02 31.54 11.44 32.28 10.62C32.39 10.49 32.48 10.33 32.55 10.18C32.67 9.89 32.56 9.69 32.25 9.68C32.07 9.67 31.88 9.7 31.7 9.75C30.89 9.97 30.2 10.41 29.57 10.95C29.26 11.21 28.96 11.49 28.82 11.89C28.74 12.13 28.78 12.22 29.05 12.35ZM10.33 25.95C10.24 26.42 10.25 26.89 10.34 27.31C10.74 26.65 11.16 25.98 11.56 25.3C11.84 24.83 12.13 24.35 12.36 23.85C12.63 23.28 12.72 22.65 12.79 21.99C12.73 22.03 12.71 22.04 12.7 22.06C12.22 22.7 11.74 23.33 11.28 23.97C10.85 24.56 10.48 25.18 10.33 25.95ZM33.01 17.05C32.47 16.55 31.49 16.61 31.15 17C31.4 17.23 31.64 17.46 31.89 17.67C32.64 18.31 33.39 18.96 33.99 19.76C34.02 19.79 34.09 19.84 34.12 19.82C34.17 19.8 34.23 19.73 34.23 19.68C34.24 19.59 34.21 19.49 34.18 19.41C33.9 18.77 33.62 18.13 33.32 17.5C33.25 17.35 33.13 17.21 33.01 17.05Z" fill="#F1C285" fill-opacity="1.000000" fill-rule="nonzero"/>
	<path id="path" d="M15.33 49.98C15.21 49.95 15.12 49.91 15.02 49.91C11.49 49.91 7.95 49.91 4.41 49.91C4.35 49.91 4.28 49.92 4.22 49.9C4.17 49.88 4.11 49.82 4.09 49.77C4.07 49.71 4.08 49.63 4.08 49.55C4.08 33.18 4.08 16.8 4.08 0.43C4.08 0.37 4.08 0.31 4.08 0.25C4.07 0.13 4.12 0.07 4.25 0.08C4.31 0.08 4.38 0.08 4.44 0.08C18.15 0.08 31.85 0.08 45.55 0.08C45.61 0.08 45.67 0.08 45.73 0.08C45.87 0.07 45.93 0.14 45.91 0.27C45.91 0.34 45.91 0.4 45.91 0.47C45.91 16.82 45.91 33.16 45.91 49.51C45.91 49.56 45.91 49.61 45.91 49.66C45.94 49.86 45.86 49.91 45.67 49.91C43.32 49.91 40.96 49.91 38.61 49.9C38.53 49.9 38.45 49.86 38.38 49.83C38.74 49.49 39.1 49.16 39.45 48.82C39.84 48.44 40.23 48.05 40.62 47.65C40.72 47.54 40.83 47.49 40.98 47.49C41.6 47.5 42.23 47.5 42.85 47.5C43.07 47.5 43.28 47.5 43.51 47.5C43.51 39.29 43.51 31.09 43.51 22.84C43.25 24.2 43.01 25.51 42.76 26.8C42.68 27.24 42.62 27.69 42.46 28.09C42.11 28.95 41.55 29.69 40.83 30.25C39.72 31.11 38.59 31.95 37.42 32.72C35.83 33.76 34.25 34.81 32.88 36.14C32.83 36.19 32.78 36.24 32.73 36.3C32.74 36.32 32.74 36.34 32.75 36.36C34.32 36.36 35.9 36.37 37.47 36.36C38.12 36.36 38.78 36.31 39.43 36.29C39.53 36.29 39.63 36.34 39.73 36.39C39.72 36.47 39.71 36.53 39.69 36.6C39.43 37.7 38.84 38.57 37.82 39.11C37.79 39.13 37.78 39.18 37.75 39.23C37.74 39.25 37.75 39.26 37.76 39.26C37.76 39.26 37.76 39.26 37.75 39.25C37.34 39.59 36.94 39.92 36.56 40.28C35.09 41.63 33.67 43.03 32.16 44.33C30.61 45.66 28.99 46.9 27.4 48.19C27.25 48.31 27.13 48.46 27 48.59C27 48.59 27 48.59 26.99 48.59C26.97 48.6 26.96 48.62 26.94 48.64C26.29 49.07 25.66 49.49 25.02 49.91C23.2 49.91 21.4 49.91 19.61 49.91C19.5 49.91 19.4 49.88 19.29 49.85C19.67 49.59 20.03 49.35 20.4 49.11C21.54 48.37 22.69 47.63 23.83 46.89C25.97 45.5 28.1 44.12 30.23 42.73C31.57 41.85 32.9 40.94 34.09 39.85C34.65 39.34 35.18 38.8 35.53 38.12C35.8 37.59 35.69 37.37 35.11 37.27C35.08 37.27 35.06 37.27 35.03 37.26C34.04 37.06 33.05 36.88 32.07 36.65C31.06 36.41 30.06 36.12 29.05 35.85C28.48 35.69 27.92 35.53 27.37 35.36C27.46 35.32 27.54 35.29 27.62 35.29C27.84 35.27 28.08 35.3 28.29 35.25C28.91 35.1 29.46 34.81 29.92 34.37C30.44 33.87 30.93 33.34 31.42 32.81C32.29 31.88 33.27 31.13 34.48 30.7C34.88 30.56 35.05 30.28 35.2 29.93C35.23 29.87 35.25 29.81 35.28 29.75C36.01 28.16 36.49 26.51 36.42 24.73C36.37 23.71 36.13 22.75 35.62 21.86C35.49 21.61 35.32 21.38 35.17 21.14C35.15 21.15 35.13 21.16 35.11 21.16C35.15 22.67 34.98 24.13 34.34 25.51C34.29 25.43 34.29 25.35 34.29 25.28C34.3 24.23 34.3 23.18 34.11 22.14C33.96 21.32 33.69 20.56 33.04 20C32.74 19.74 32.4 19.52 32.1 19.26C31.46 18.72 30.84 18.16 30.2 17.62C29.65 17.16 29.05 16.75 28.31 16.64C27.83 16.57 27.27 16.88 27.12 17.32C27.16 17.32 27.2 17.33 27.25 17.33C27.8 17.38 28.1 17.71 28.09 18.27C28.07 18.91 27.52 19.59 26.85 19.77C26.18 19.96 25.56 19.82 24.97 19.5C24.51 19.24 24.27 18.87 24.3 18.32C24.32 17.79 24.55 17.34 24.82 16.91C25.53 15.78 26.4 14.78 27.26 13.78C27.39 13.63 27.5 13.48 27.61 13.33C27.6 13.31 27.59 13.29 27.58 13.27C27.52 13.27 27.45 13.26 27.4 13.27C26.73 13.45 26.05 13.58 25.41 13.82C23.27 14.63 21.25 15.72 19.36 17.02C18.71 17.47 18.06 17.96 17.59 18.62C17.47 18.78 17.39 18.98 17.27 19.22C17.43 19.21 17.51 19.21 17.59 19.19C18.01 19.07 18.43 18.94 18.86 18.82C19.14 18.75 19.42 18.67 19.7 18.61C19.77 18.59 19.85 18.64 19.92 18.66C19.89 18.73 19.88 18.82 19.83 18.86C19.7 18.99 19.55 19.12 19.4 19.22C18.69 19.7 17.97 20.15 17.28 20.65C16.32 21.34 15.4 22.09 14.69 23.06C14.18 23.75 13.82 24.5 13.79 25.38C13.76 26.39 14.09 27.28 14.61 28.12C15.09 28.9 15.49 29.7 15.4 30.66C15.39 30.84 15.37 31.02 15.35 31.21C15.32 31.21 15.3 31.21 15.28 31.22C15.25 31.15 15.22 31.09 15.2 31.03C15 30.51 14.73 30.03 14.38 29.6C14.2 29.39 14.01 29.19 13.82 28.98C13.41 28.54 13.09 28.03 12.86 27.43C12.83 27.51 12.82 27.54 12.81 27.57C12.64 28.6 12.55 29.62 12.67 30.66C12.75 31.37 12.93 32.06 13.24 32.71C13.7 33.68 14.4 34.44 15.29 35.05C15.19 35.13 15.09 35.19 14.99 35.26C14.38 35.65 13.79 36.07 13.35 36.67C12.79 37.45 12.78 38.22 13.35 38.99C13.75 39.53 14.29 39.89 14.86 40.23C15.03 40.33 15.2 40.42 15.4 40.54C15.34 40.58 15.3 40.61 15.27 40.62C14.27 40.92 13.27 41.23 12.27 41.53C12.18 41.55 12.06 41.52 11.97 41.47C9.67 40.27 7.7 38.69 6.3 36.47C6.3 36.52 6.3 36.59 6.3 36.67C6.3 38.07 6.3 39.48 6.3 40.89C6.3 41.29 6.31 41.69 6.31 42.11C6.37 42.25 6.42 42.38 6.48 42.53C6.48 44.2 6.48 45.84 6.48 47.51C10.78 47.51 15.04 47.51 19.31 47.51C19.15 47.66 18.97 47.75 18.79 47.86C17.93 48.38 17.07 48.9 16.22 49.43C15.93 49.61 15.65 49.81 15.37 50C15.37 50 15.35 50 15.33 49.98ZM22.48 3.9C22.83 3.43 23.19 2.97 23.55 2.5C17.86 2.5 12.18 2.5 6.48 2.5C6.48 2.59 6.48 2.67 6.48 2.75C6.48 4.45 6.48 6.16 6.48 7.87C6.48 7.98 6.43 8.09 6.41 8.2C6.38 8.34 6.31 8.48 6.31 8.61C6.3 14.77 6.3 20.93 6.3 27.09C6.3 27.16 6.3 27.23 6.3 27.33C6.43 27.09 6.53 26.88 6.66 26.68C7.66 25.06 8.88 23.61 10.21 22.26C11.96 20.5 13.88 18.92 15.86 17.42C15.92 17.37 15.97 17.33 16.03 17.28C16.02 17.26 16 17.24 15.99 17.23C12.73 18.47 9.91 20.37 7.56 22.99C7.54 22.92 7.53 22.87 7.54 22.83C7.63 22.12 7.72 21.41 7.83 20.71C8.12 18.84 8.46 16.99 8.91 15.16C9.33 13.47 10.25 12.15 11.65 11.16C12.72 10.41 13.81 9.69 14.91 8.98C17.72 7.13 20.69 5.57 23.75 4.18C24.89 3.67 26.03 3.16 27.19 2.65C27 2.67 26.81 2.67 26.63 2.7C25.66 2.85 24.72 3.12 23.8 3.45C23.36 3.61 22.93 3.79 22.48 3.94C22.48 3.94 22.47 3.93 22.48 3.9ZM24.29 12.14C24.22 12.08 24.16 12.03 24.1 11.98C24.16 11.92 24.21 11.85 24.28 11.81C24.58 11.62 24.9 11.46 25.2 11.26C26.6 10.29 27.81 9.11 28.94 7.84C29.69 6.99 30.35 6.08 30.93 5.1C30.96 5.04 30.99 4.97 31.02 4.91C31 4.9 30.98 4.89 30.96 4.88C30.69 5.11 30.43 5.34 30.16 5.57C28.71 6.79 27.12 7.72 25.25 8.14C24.79 8.25 24.3 8.33 23.88 8.55C21.86 9.59 19.84 10.66 17.84 11.75C17.05 12.18 16.3 12.68 15.54 13.16C15.43 13.23 15.35 13.34 15.25 13.43C15.27 13.46 15.28 13.49 15.29 13.52C15.46 13.5 15.64 13.5 15.8 13.46C17.21 13.06 18.61 12.65 20.02 12.26C20.45 12.15 20.9 12.07 21.34 11.99C21.4 11.98 21.47 12.03 21.53 12.05C21.5 12.11 21.49 12.19 21.44 12.24C21.38 12.31 21.31 12.37 21.24 12.43C20.95 12.66 20.65 12.87 20.38 13.11C20.1 13.36 19.84 13.63 19.59 13.91C19.46 14.06 19.53 14.18 19.73 14.17C19.87 14.17 20.02 14.15 20.15 14.1C21.31 13.69 22.48 13.29 23.63 12.85C23.93 12.74 24.2 12.52 24.48 12.31C24.42 12.25 24.35 12.19 24.29 12.14ZM39.52 20.15C40.12 20.98 40.41 21.9 40.34 22.94C40.31 23.5 40.17 23.99 39.77 24.4C39.49 24.69 39.24 25.01 38.98 25.33C38.93 25.4 38.89 25.54 38.92 25.6C38.96 25.67 39.1 25.71 39.18 25.7C39.56 25.64 39.94 25.55 40.31 25.49C40.5 25.46 40.61 25.35 40.67 25.18C40.75 24.93 40.85 24.69 40.9 24.43C41.13 23.23 41.33 22.01 41.57 20.81C41.73 20 41.6 19.24 41.3 18.49C40.78 17.19 39.99 16.06 39.07 15.02C38.99 14.92 38.9 14.83 38.79 14.72C38.17 16.4 38 18.02 39.13 19.57C39.26 19.76 39.39 19.96 39.52 20.15ZM9.81 37.88C9.85 37.23 9.89 36.59 9.86 35.95C9.84 35.11 9.67 34.3 9.28 33.53C9.1 33.18 8.98 32.79 8.93 32.4C8.84 31.61 8.92 30.82 9.07 30.05C9.27 28.95 9.51 27.87 9.74 26.78C9.76 26.67 9.78 26.56 9.81 26.46C9.83 26.35 9.86 26.25 9.88 26.14C9.86 26.14 9.84 26.13 9.82 26.13C7.89 28.31 6.91 30.78 7.56 33.78C7.92 35.36 8.72 36.69 9.81 37.88ZM29.59 12.31C30.65 12.02 31.54 11.44 32.28 10.62C32.39 10.49 32.48 10.33 32.55 10.18C32.67 9.89 32.56 9.69 32.25 9.68C32.07 9.67 31.88 9.7 31.7 9.75C30.89 9.97 30.2 10.41 29.57 10.95C29.26 11.21 28.96 11.49 28.82 11.89C28.74 12.13 28.78 12.22 29.05 12.35C29.23 12.34 29.42 12.35 29.59 12.31ZM10.34 27.31C10.74 26.65 11.16 25.98 11.56 25.3C11.84 24.83 12.13 24.35 12.36 23.85C12.63 23.28 12.72 22.65 12.79 21.99C12.73 22.03 12.71 22.04 12.7 22.06C12.22 22.7 11.74 23.33 11.28 23.97C10.85 24.56 10.48 25.18 10.33 25.95C10.24 26.42 10.25 26.89 10.34 27.31ZM31.15 17C31.4 17.23 31.64 17.46 31.89 17.67C32.64 18.31 33.39 18.96 33.99 19.76C34.02 19.79 34.09 19.84 34.12 19.82C34.17 19.8 34.23 19.73 34.23 19.68C34.24 19.59 34.21 19.49 34.18 19.41C33.9 18.77 33.62 18.13 33.32 17.5C33.25 17.35 33.13 17.21 33.01 17.05C32.47 16.55 31.49 16.61 31.15 17Z" fill="#000000" fill-opacity="0" fill-rule="nonzero"/>
	<path id="path" d="M15.02 49.91C11.49 49.91 7.95 49.91 4.41 49.91C4.35 49.91 4.28 49.92 4.22 49.9C4.17 49.88 4.11 49.82 4.09 49.77C4.07 49.71 4.08 49.63 4.08 49.55C4.08 33.18 4.08 16.8 4.08 0.43C4.08 0.37 4.08 0.31 4.08 0.25C4.07 0.13 4.12 0.07 4.25 0.08C4.31 0.08 4.38 0.08 4.44 0.08C18.15 0.08 31.85 0.08 45.55 0.08C45.61 0.08 45.67 0.08 45.73 0.08C45.87 0.07 45.93 0.14 45.91 0.27C45.91 0.34 45.91 0.4 45.91 0.47C45.91 16.82 45.91 33.16 45.91 49.51C45.91 49.56 45.91 49.61 45.91 49.66C45.94 49.86 45.86 49.91 45.67 49.91C43.32 49.91 40.96 49.91 38.61 49.9C38.53 49.9 38.45 49.86 38.38 49.83C38.74 49.49 39.1 49.16 39.45 48.82C39.84 48.44 40.23 48.05 40.62 47.65C40.72 47.54 40.83 47.49 40.98 47.49C41.6 47.5 42.23 47.5 42.85 47.5C43.07 47.5 43.28 47.5 43.51 47.5C43.51 39.29 43.51 31.09 43.51 22.84C43.25 24.2 43.01 25.51 42.76 26.8C42.68 27.24 42.62 27.69 42.46 28.09C42.11 28.95 41.55 29.69 40.83 30.25C39.72 31.11 38.59 31.95 37.42 32.72C35.83 33.76 34.25 34.81 32.88 36.14C32.83 36.19 32.78 36.24 32.73 36.3C32.74 36.32 32.74 36.34 32.75 36.36C34.32 36.36 35.9 36.37 37.47 36.36C38.12 36.36 38.78 36.31 39.43 36.29C39.53 36.29 39.63 36.34 39.73 36.39C39.72 36.47 39.71 36.53 39.69 36.6C39.43 37.7 38.84 38.57 37.82 39.11C37.79 39.13 37.78 39.18 37.75 39.23C37.74 39.25 37.75 39.26 37.76 39.26C37.76 39.26 37.76 39.26 37.75 39.25C37.34 39.59 36.94 39.92 36.56 40.28C35.09 41.63 33.67 43.03 32.16 44.33C30.61 45.66 28.99 46.9 27.4 48.19C27.25 48.31 27.13 48.46 27 48.59C27 48.59 27 48.59 26.99 48.59C26.97 48.6 26.96 48.62 26.94 48.64C26.29 49.07 25.66 49.49 25.02 49.91C23.2 49.91 21.4 49.91 19.61 49.91C19.5 49.91 19.4 49.88 19.29 49.85C19.67 49.59 20.03 49.35 20.4 49.11C21.54 48.37 22.69 47.63 23.83 46.89C25.97 45.5 28.1 44.12 30.23 42.73C31.57 41.85 32.9 40.94 34.09 39.85C34.65 39.34 35.18 38.8 35.53 38.12C35.8 37.59 35.69 37.37 35.11 37.27C35.08 37.27 35.06 37.27 35.03 37.26C34.04 37.06 33.05 36.88 32.07 36.65C31.06 36.41 30.06 36.12 29.05 35.85C28.48 35.69 27.92 35.53 27.37 35.36C27.46 35.32 27.54 35.29 27.62 35.29C27.84 35.27 28.08 35.3 28.29 35.25C28.91 35.1 29.46 34.81 29.92 34.37C30.44 33.87 30.93 33.34 31.42 32.81C32.29 31.88 33.27 31.13 34.48 30.7C34.88 30.56 35.05 30.28 35.2 29.93C35.23 29.87 35.25 29.81 35.28 29.75C36.01 28.16 36.49 26.51 36.42 24.73C36.37 23.71 36.13 22.75 35.62 21.86C35.49 21.61 35.32 21.38 35.17 21.14C35.15 21.15 35.13 21.16 35.11 21.16C35.15 22.67 34.98 24.13 34.34 25.51C34.29 25.43 34.29 25.35 34.29 25.28C34.3 24.23 34.3 23.18 34.11 22.14C33.96 21.32 33.69 20.56 33.04 20C32.74 19.74 32.4 19.52 32.1 19.26C31.46 18.72 30.84 18.16 30.2 17.62C29.65 17.16 29.05 16.75 28.31 16.64C27.83 16.57 27.27 16.88 27.12 17.32C27.16 17.32 27.2 17.33 27.25 17.33C27.8 17.38 28.1 17.71 28.09 18.27C28.07 18.91 27.52 19.59 26.85 19.77C26.18 19.96 25.56 19.82 24.97 19.5C24.51 19.24 24.27 18.87 24.3 18.32C24.32 17.79 24.55 17.34 24.82 16.91C25.53 15.78 26.4 14.78 27.26 13.78C27.39 13.63 27.5 13.48 27.61 13.33C27.6 13.31 27.59 13.29 27.58 13.27C27.52 13.27 27.45 13.26 27.4 13.27C26.73 13.45 26.05 13.58 25.41 13.82C23.27 14.63 21.25 15.72 19.36 17.02C18.71 17.47 18.06 17.96 17.59 18.62C17.47 18.78 17.39 18.98 17.27 19.22C17.43 19.21 17.51 19.21 17.59 19.19C18.01 19.07 18.43 18.94 18.86 18.82C19.14 18.75 19.42 18.67 19.7 18.61C19.77 18.59 19.85 18.64 19.92 18.66C19.89 18.73 19.88 18.82 19.83 18.86C19.7 18.99 19.55 19.12 19.4 19.22C18.69 19.7 17.97 20.15 17.28 20.65C16.32 21.34 15.4 22.09 14.69 23.06C14.18 23.75 13.82 24.5 13.79 25.38C13.76 26.39 14.09 27.28 14.61 28.12C15.09 28.9 15.49 29.7 15.4 30.66C15.39 30.84 15.37 31.02 15.35 31.21C15.32 31.21 15.3 31.21 15.28 31.22C15.25 31.15 15.22 31.09 15.2 31.03C15 30.51 14.73 30.03 14.38 29.6C14.2 29.39 14.01 29.19 13.82 28.98C13.41 28.54 13.09 28.03 12.86 27.43C12.83 27.51 12.82 27.54 12.81 27.57C12.64 28.6 12.55 29.62 12.67 30.66C12.75 31.37 12.93 32.06 13.24 32.71C13.7 33.68 14.4 34.44 15.29 35.05C15.19 35.13 15.09 35.19 14.99 35.26C14.38 35.65 13.79 36.07 13.35 36.67C12.79 37.45 12.78 38.22 13.35 38.99C13.75 39.53 14.29 39.89 14.86 40.23C15.03 40.33 15.2 40.42 15.4 40.54C15.34 40.58 15.3 40.61 15.27 40.62C14.27 40.92 13.27 41.23 12.27 41.53C12.18 41.55 12.06 41.52 11.97 41.47C9.67 40.27 7.7 38.69 6.3 36.47C6.3 36.52 6.3 36.59 6.3 36.67C6.3 38.07 6.3 39.48 6.3 40.89C6.3 41.29 6.31 41.69 6.31 42.11C6.37 42.25 6.42 42.38 6.48 42.53C6.48 44.2 6.48 45.84 6.48 47.51C10.78 47.51 15.04 47.51 19.31 47.51C19.15 47.66 18.97 47.75 18.79 47.86C17.93 48.38 17.07 48.9 16.22 49.43C15.93 49.61 15.65 49.81 15.37 50C15.37 50 15.35 50 15.33 49.98C15.21 49.95 15.12 49.91 15.02 49.91ZM23.55 2.5C17.86 2.5 12.18 2.5 6.48 2.5C6.48 2.59 6.48 2.67 6.48 2.75C6.48 4.45 6.48 6.16 6.48 7.87C6.48 7.98 6.43 8.09 6.41 8.2C6.38 8.34 6.31 8.48 6.31 8.61C6.3 14.77 6.3 20.93 6.3 27.09C6.3 27.16 6.3 27.23 6.3 27.33C6.43 27.09 6.53 26.88 6.66 26.68C7.66 25.06 8.88 23.61 10.21 22.26C11.96 20.5 13.88 18.92 15.86 17.42C15.92 17.37 15.97 17.33 16.03 17.28C16.02 17.26 16 17.24 15.99 17.23C12.73 18.47 9.91 20.37 7.56 22.99C7.54 22.92 7.53 22.87 7.54 22.83C7.63 22.12 7.72 21.41 7.83 20.71C8.12 18.84 8.46 16.99 8.91 15.16C9.33 13.47 10.25 12.15 11.65 11.16C12.72 10.41 13.81 9.69 14.91 8.98C17.72 7.13 20.69 5.57 23.75 4.18C24.89 3.67 26.03 3.16 27.19 2.65C27 2.67 26.81 2.67 26.63 2.7C25.66 2.85 24.72 3.12 23.8 3.45C23.36 3.61 22.93 3.79 22.48 3.94C22.48 3.94 22.47 3.93 22.48 3.9C22.83 3.43 23.19 2.97 23.55 2.5ZM31.72 15.38C32.02 15.18 32.32 14.96 32.63 14.78C34.02 13.96 35.53 13.42 37.11 13.12C38.4 12.87 39.68 12.75 40.99 12.86C41.08 12.87 41.2 12.92 41.26 12.99C41.83 13.6 42.33 14.26 42.7 15.01C43.01 15.66 43.26 16.33 43.5 16.89C43.5 12.17 43.5 7.33 43.5 2.5C43.47 2.49 43.44 2.49 43.42 2.49C40.31 2.48 37.19 2.49 34.08 2.48C33.94 2.48 33.89 2.54 33.86 2.65C33.69 3.2 33.63 3.75 33.65 4.31C33.7 5.36 34.03 6.34 34.4 7.3C34.42 7.34 34.45 7.36 34.48 7.41C34.3 5.8 34.68 3.92 35.25 3.62C35.26 3.65 35.27 3.67 35.27 3.7C35.33 4.33 35.51 4.93 35.77 5.5C36.41 6.94 37.41 8.08 38.61 9.08C38.86 9.29 39.09 9.55 39.24 9.84C39.62 10.56 39.28 11.28 38.51 11.51C37.27 11.88 36.06 12.32 34.87 12.91M24.1 11.98C24.16 11.92 24.21 11.85 24.28 11.81C24.58 11.62 24.9 11.46 25.2 11.26C26.6 10.29 27.81 9.11 28.94 7.84C29.69 6.99 30.35 6.08 30.93 5.1C30.96 5.04 30.99 4.97 31.02 4.91C31 4.9 30.98 4.89 30.96 4.88C30.69 5.11 30.43 5.34 30.16 5.57C28.71 6.79 27.12 7.72 25.25 8.14C24.79 8.25 24.3 8.33 23.88 8.55C21.86 9.59 19.84 10.66 17.84 11.75C17.05 12.18 16.3 12.68 15.54 13.16C15.43 13.23 15.35 13.34 15.25 13.43C15.27 13.46 15.28 13.49 15.29 13.52C15.46 13.5 15.64 13.5 15.8 13.46C17.21 13.06 18.61 12.65 20.02 12.26C20.45 12.15 20.9 12.07 21.34 11.99C21.4 11.98 21.47 12.03 21.53 12.05C21.5 12.11 21.49 12.19 21.44 12.24C21.38 12.31 21.31 12.37 21.24 12.43C20.95 12.66 20.65 12.87 20.38 13.11C20.1 13.36 19.84 13.63 19.59 13.91C19.46 14.06 19.53 14.18 19.73 14.17C19.87 14.17 20.02 14.15 20.15 14.1C21.31 13.69 22.48 13.29 23.63 12.85C23.93 12.74 24.2 12.52 24.48 12.31C24.42 12.25 24.35 12.19 24.29 12.14C24.22 12.08 24.16 12.03 24.1 11.98ZM40.34 22.94C40.31 23.5 40.17 23.99 39.77 24.4C39.49 24.69 39.24 25.01 38.98 25.33C38.93 25.4 38.89 25.54 38.92 25.6C38.96 25.67 39.1 25.71 39.18 25.7C39.56 25.64 39.94 25.55 40.31 25.49C40.5 25.46 40.61 25.35 40.67 25.18C40.75 24.93 40.85 24.69 40.9 24.43C41.13 23.23 41.33 22.01 41.57 20.81C41.73 20 41.6 19.24 41.3 18.49C40.78 17.19 39.99 16.06 39.07 15.02C38.99 14.92 38.9 14.83 38.79 14.72C38.17 16.4 38 18.02 39.13 19.57C39.26 19.76 39.39 19.96 39.52 20.15C40.12 20.98 40.41 21.9 40.34 22.94ZM9.86 35.95C9.84 35.11 9.67 34.3 9.28 33.53C9.1 33.18 8.98 32.79 8.93 32.4C8.84 31.61 8.92 30.82 9.07 30.05C9.27 28.95 9.51 27.87 9.74 26.78C9.76 26.67 9.78 26.56 9.81 26.46C9.83 26.35 9.86 26.25 9.88 26.14C9.86 26.14 9.84 26.13 9.82 26.13C7.89 28.31 6.91 30.78 7.56 33.78C7.92 35.36 8.72 36.69 9.81 37.88C9.85 37.23 9.89 36.59 9.86 35.95ZM32.28 10.62C32.39 10.49 32.48 10.33 32.55 10.18C32.67 9.89 32.56 9.69 32.25 9.68C32.07 9.67 31.88 9.7 31.7 9.75C30.89 9.97 30.2 10.41 29.57 10.95C29.26 11.21 28.96 11.49 28.82 11.89C28.74 12.13 28.78 12.22 29.05 12.35C29.23 12.34 29.42 12.35 29.59 12.31C30.65 12.02 31.54 11.44 32.28 10.62ZM11.56 25.3C11.84 24.83 12.13 24.35 12.36 23.85C12.63 23.28 12.72 22.65 12.79 21.99C12.73 22.03 12.71 22.04 12.7 22.06C12.22 22.7 11.74 23.33 11.28 23.97C10.85 24.56 10.48 25.18 10.33 25.95C10.24 26.42 10.25 26.89 10.34 27.31C10.74 26.65 11.16 25.98 11.56 25.3ZM31.89 17.67C32.64 18.31 33.39 18.96 33.99 19.76C34.02 19.79 34.09 19.84 34.12 19.82C34.17 19.8 34.23 19.73 34.23 19.68C34.24 19.59 34.21 19.49 34.18 19.41C33.9 18.77 33.62 18.13 33.32 17.5C33.25 17.35 33.13 17.21 33.01 17.05C32.47 16.55 31.49 16.61 31.15 17C31.4 17.23 31.64 17.46 31.89 17.67Z" stroke="#000000" stroke-opacity="0" stroke-width="0.999998"/>
	<path id="path" d="M6.31 42.09C6.31 41.69 6.3 41.29 6.3 40.89C6.3 39.48 6.3 38.07 6.3 36.67C6.3 36.59 6.3 36.52 6.3 36.47C7.7 38.69 9.67 40.27 11.97 41.47C12.06 41.52 12.18 41.55 12.27 41.53C13.27 41.23 14.27 40.92 15.27 40.62C15.3 40.61 15.34 40.58 15.4 40.54C15.2 40.43 15.03 40.33 14.86 40.23C14.29 39.89 13.75 39.53 13.35 38.99C12.78 38.22 12.78 37.45 13.35 36.67C13.79 36.07 14.38 35.65 14.99 35.26C15.09 35.2 15.19 35.13 15.3 35.05C15.36 35.02 15.39 35 15.42 34.98C16.73 34.28 18.08 33.72 19.52 33.35C19.59 33.33 19.68 33.24 19.71 33.17C19.88 32.73 20.04 32.28 20.21 31.84C20.37 31.41 20.55 31.33 20.99 31.47C21.23 31.55 21.47 31.66 21.71 31.76C21.86 31.82 21.94 31.79 21.99 31.63C22.28 30.81 22.58 30 22.87 29.18C22.97 28.91 22.96 28.91 22.7 28.81C22.11 28.6 21.53 28.4 20.95 28.18C20.64 28.06 20.59 27.92 20.69 27.6C20.71 27.54 20.73 27.47 20.75 27.41C21.19 26.15 21.63 24.88 22.08 23.62C22.29 23.04 22.48 22.46 22.74 21.9C22.95 21.42 23.34 21.07 23.88 20.98C24.44 20.88 25 20.93 25.54 21.11C26.12 21.31 26.7 21.53 27.28 21.73C27.82 21.91 28.36 22.09 28.8 22.46C29.16 22.76 29.49 23.08 29.56 23.57C29.62 23.99 29.56 24.39 29.42 24.78C28.98 26.02 28.53 27.26 28.09 28.51C27.92 28.98 27.77 29.46 27.6 29.94C27.47 30.32 27.29 30.39 26.92 30.27C26.45 30.11 25.98 29.95 25.51 29.79C25.1 29.65 25.1 29.65 24.95 30.07C24.68 30.82 24.42 31.58 24.15 32.34C24.05 32.62 24.05 32.64 24.34 32.75C24.64 32.86 24.95 32.94 25.24 33.07C25.57 33.21 25.63 33.4 25.51 33.74C25.41 34.03 25.31 34.32 25.19 34.6C25.15 34.72 25.16 34.8 25.29 34.83C25.98 35.01 26.67 35.19 27.36 35.38C27.92 35.53 28.48 35.69 29.05 35.85C30.06 36.12 31.06 36.41 32.07 36.65C33.05 36.88 34.04 37.06 35.03 37.26C35.06 37.27 35.08 37.27 35.11 37.27C35.69 37.37 35.8 37.59 35.53 38.12C35.18 38.8 34.65 39.34 34.09 39.85C32.9 40.95 31.57 41.85 30.23 42.73C28.1 44.12 25.97 45.5 23.83 46.89C22.69 47.63 21.54 48.37 20.4 49.11C20.03 49.35 19.67 49.59 19.28 49.86C19.23 49.91 19.19 49.95 19.16 50C17.91 50 16.66 50 15.39 50C15.65 49.81 15.93 49.61 16.22 49.43C17.07 48.9 17.93 48.38 18.79 47.86C18.97 47.76 19.15 47.66 19.31 47.51C15.04 47.51 10.78 47.51 6.48 47.51C6.48 45.84 6.48 44.2 6.5 42.53C6.56 42.56 6.61 42.6 6.65 42.65C8.38 44.32 10.3 45.73 12.42 46.87C12.58 46.96 12.79 46.96 12.97 47C12.98 46.98 12.98 46.96 12.99 46.94C12.91 46.9 12.83 46.86 12.76 46.82C10.97 45.88 9.31 44.75 7.78 43.43C7.28 42.99 6.8 42.54 6.31 42.09ZM15.62 35.26C14.87 35.65 14.18 36.12 13.65 36.79C13.08 37.52 13.1 38.21 13.7 38.93C13.76 39.01 13.83 39.08 13.91 39.15C14.42 39.64 15.03 40 15.66 40.31C15.76 40.35 15.91 40.35 16.01 40.3C16.97 39.82 17.92 39.33 18.88 38.84C18.92 38.82 18.99 38.83 19.02 38.85C18.42 39.68 17.56 40.22 16.71 40.76C16.75 40.8 16.75 40.82 16.77 40.82C18.15 41.4 19.59 41.79 21.09 41.77C21.89 41.76 22.69 41.54 23.48 41.36C24.7 41.08 25.83 40.54 26.96 40.01C28.3 39.38 29.61 38.69 30.83 37.83C30.88 37.79 30.93 37.74 31 37.68C30.95 37.65 30.93 37.64 30.91 37.63C29.77 37.33 28.62 37.03 27.48 36.72C26.61 36.49 25.73 36.26 24.86 36.01C24.71 35.97 24.63 35.99 24.59 36.15C24.55 36.28 24.49 36.42 24.43 36.55C24.26 36.93 24.11 37.01 23.71 36.9C23.32 36.79 22.93 36.67 22.55 36.54C22.17 36.41 22.21 36.45 22.1 36.75C21.69 37.8 21.3 38.85 20.9 39.89C20.67 40.48 20.39 41.02 19.86 41.39C19.71 41.5 19 41.29 18.93 41.12C18.92 41.1 18.92 41.08 18.91 41.06C18.78 40.56 18.77 40.07 18.91 39.57C18.99 39.32 19.04 39.07 19.11 38.79C19.14 38.7 19.17 38.62 19.2 38.53C19.41 37.84 19.61 37.15 19.84 36.44C19.9 36.23 19.95 36.03 20.02 35.83C20.06 35.7 20.02 35.62 19.89 35.58C19.71 35.52 19.53 35.46 19.36 35.38C19.12 35.28 19.04 35.11 19.1 34.86C19.13 34.76 19.16 34.68 19.2 34.59C19.3 34.31 19.41 34.02 19.53 33.69C19.41 33.72 19.34 33.72 19.27 33.75C18.49 34.03 17.7 34.3 16.93 34.61C16.49 34.79 16.08 35.04 15.62 35.26ZM18.27 41.98C18.63 41.98 18.99 41.98 19.36 41.98C19.36 41.96 19.36 41.94 19.36 41.92C19.31 41.91 19.25 41.89 19.2 41.88C18.29 41.71 17.42 41.43 16.57 41.07C16.41 41 16.28 40.99 16.12 41.08C15.95 41.19 15.77 41.26 15.59 41.34C15.26 41.48 14.92 41.62 14.58 41.75C15.8 41.91 17.01 41.99 18.27 41.98ZM23.66 21.7C23.38 21.96 23.26 22.3 23.24 22.7C23.81 22.11 24.51 21.83 25.32 21.71C24.85 21.4 24.04 21.33 23.66 21.7Z" fill="#1C1B1B" fill-opacity="1.000000" fill-rule="nonzero"/>
	<path id="path" d="M6.3 40.89C6.3 39.48 6.3 38.07 6.3 36.67C6.3 36.59 6.3 36.52 6.3 36.47C7.7 38.69 9.67 40.27 11.97 41.47C12.06 41.52 12.18 41.55 12.27 41.53C13.27 41.23 14.27 40.92 15.27 40.62C15.3 40.61 15.34 40.58 15.4 40.54C15.2 40.43 15.03 40.33 14.86 40.23C14.29 39.89 13.75 39.53 13.35 38.99C12.78 38.22 12.78 37.45 13.35 36.67C13.79 36.07 14.38 35.65 14.99 35.26C15.09 35.2 15.19 35.13 15.3 35.05C15.36 35.02 15.39 35 15.42 34.98C16.73 34.28 18.08 33.72 19.52 33.35C19.59 33.33 19.68 33.24 19.71 33.17C19.88 32.73 20.04 32.28 20.21 31.84C20.37 31.41 20.55 31.33 20.99 31.47C21.23 31.55 21.47 31.66 21.71 31.76C21.86 31.82 21.94 31.79 21.99 31.63C22.28 30.81 22.58 30 22.87 29.18C22.97 28.91 22.96 28.91 22.7 28.81C22.11 28.6 21.53 28.4 20.95 28.18C20.64 28.06 20.59 27.92 20.69 27.6C20.71 27.54 20.73 27.47 20.75 27.41C21.19 26.15 21.63 24.88 22.08 23.62C22.29 23.04 22.48 22.46 22.74 21.9C22.95 21.42 23.34 21.07 23.88 20.98C24.44 20.88 25 20.93 25.54 21.11C26.12 21.31 26.7 21.53 27.28 21.73C27.82 21.91 28.36 22.09 28.8 22.46C29.16 22.76 29.49 23.08 29.56 23.57C29.62 23.99 29.56 24.39 29.42 24.78C28.98 26.02 28.53 27.26 28.09 28.51C27.92 28.98 27.77 29.46 27.6 29.94C27.47 30.32 27.29 30.39 26.92 30.27C26.45 30.11 25.98 29.95 25.51 29.79C25.1 29.65 25.1 29.65 24.95 30.07C24.68 30.82 24.42 31.58 24.15 32.34C24.05 32.62 24.05 32.64 24.34 32.75C24.64 32.86 24.95 32.94 25.24 33.07C25.57 33.21 25.63 33.4 25.51 33.74C25.41 34.03 25.31 34.32 25.19 34.6C25.15 34.72 25.16 34.8 25.29 34.83C25.98 35.01 26.67 35.19 27.36 35.38C27.92 35.53 28.48 35.69 29.05 35.85C30.06 36.12 31.06 36.41 32.07 36.65C33.05 36.88 34.04 37.06 35.03 37.26C35.06 37.27 35.08 37.27 35.11 37.27C35.69 37.37 35.8 37.59 35.53 38.12C35.18 38.8 34.65 39.34 34.09 39.85C32.9 40.95 31.57 41.85 30.23 42.73C28.1 44.12 25.97 45.5 23.83 46.89C22.69 47.63 21.54 48.37 20.4 49.11C20.03 49.35 19.67 49.59 19.28 49.86C19.23 49.91 19.19 49.95 19.16 50C17.91 50 16.66 50 15.39 50C15.65 49.81 15.93 49.61 16.22 49.43C17.07 48.9 17.93 48.38 18.79 47.86C18.97 47.76 19.15 47.66 19.31 47.51C15.04 47.51 10.78 47.51 6.48 47.51C6.48 45.84 6.48 44.2 6.5 42.53C6.56 42.56 6.61 42.6 6.65 42.65C8.38 44.32 10.3 45.73 12.42 46.87C12.58 46.96 12.79 46.96 12.97 47C12.98 46.98 12.98 46.96 12.99 46.94C12.91 46.9 12.83 46.86 12.76 46.82C10.97 45.88 9.31 44.75 7.78 43.43C7.28 42.99 6.8 42.54 6.31 42.09C6.31 41.69 6.3 41.29 6.3 40.89ZM13.65 36.79C13.08 37.52 13.1 38.21 13.7 38.93C13.76 39.01 13.83 39.08 13.91 39.15C14.42 39.64 15.03 40 15.66 40.31C15.76 40.35 15.91 40.35 16.01 40.3C16.97 39.82 17.92 39.33 18.88 38.84C18.92 38.82 18.99 38.83 19.02 38.85C18.42 39.68 17.56 40.22 16.71 40.76C16.75 40.8 16.75 40.82 16.77 40.82C18.15 41.4 19.59 41.79 21.09 41.77C21.89 41.76 22.69 41.54 23.48 41.36C24.7 41.08 25.83 40.54 26.96 40.01C28.3 39.38 29.61 38.69 30.83 37.83C30.88 37.79 30.93 37.74 31 37.68C30.95 37.65 30.93 37.64 30.91 37.63C29.77 37.33 28.62 37.03 27.48 36.72C26.61 36.49 25.73 36.26 24.86 36.01C24.71 35.97 24.63 35.99 24.59 36.15C24.55 36.28 24.49 36.42 24.43 36.55C24.26 36.93 24.11 37.01 23.71 36.9C23.32 36.79 22.93 36.67 22.55 36.54C22.17 36.41 22.21 36.45 22.1 36.75C21.69 37.8 21.3 38.85 20.9 39.89C20.67 40.48 20.39 41.02 19.86 41.39C19.71 41.5 19 41.29 18.93 41.12C18.92 41.1 18.92 41.08 18.91 41.06C18.78 40.56 18.77 40.07 18.91 39.57C18.99 39.32 19.04 39.07 19.11 38.79C19.14 38.7 19.17 38.62 19.2 38.53C19.41 37.84 19.61 37.15 19.84 36.44C19.9 36.23 19.95 36.03 20.02 35.83C20.06 35.7 20.02 35.62 19.89 35.58C19.71 35.52 19.53 35.46 19.36 35.38C19.12 35.28 19.04 35.11 19.1 34.86C19.13 34.76 19.16 34.68 19.2 34.59C19.3 34.31 19.41 34.02 19.53 33.69C19.41 33.72 19.34 33.72 19.27 33.75C18.49 34.03 17.7 34.3 16.93 34.61C16.49 34.79 16.08 35.04 15.62 35.26C14.87 35.65 14.18 36.12 13.65 36.79ZM19.36 41.98C19.36 41.96 19.36 41.94 19.36 41.92C19.31 41.91 19.25 41.89 19.2 41.88C18.29 41.71 17.42 41.43 16.57 41.07C16.41 41 16.28 40.99 16.12 41.08C15.95 41.19 15.77 41.26 15.59 41.34C15.26 41.48 14.92 41.62 14.58 41.75C15.8 41.91 17.01 41.99 18.27 41.98C18.63 41.98 18.99 41.98 19.36 41.98ZM23.24 22.7C23.81 22.11 24.51 21.83 25.32 21.71C24.85 21.4 24.04 21.33 23.66 21.7C23.38 21.96 23.26 22.3 23.24 22.7Z" fill="#000000" fill-opacity="0" fill-rule="nonzero"/>
	<path id="path" d="M6.3 36.67C6.3 36.59 6.3 36.52 6.3 36.47C7.7 38.69 9.67 40.27 11.97 41.47C12.06 41.52 12.18 41.55 12.27 41.53C13.27 41.23 14.27 40.92 15.27 40.62C15.3 40.61 15.34 40.58 15.4 40.54C15.2 40.43 15.03 40.33 14.86 40.23C14.29 39.89 13.75 39.53 13.35 38.99C12.78 38.22 12.78 37.45 13.35 36.67C13.79 36.07 14.38 35.65 14.99 35.26C15.09 35.2 15.19 35.13 15.3 35.05C15.36 35.02 15.39 35 15.42 34.98C16.73 34.28 18.08 33.72 19.52 33.35C19.59 33.33 19.68 33.24 19.71 33.17C19.88 32.73 20.04 32.28 20.21 31.84C20.37 31.41 20.55 31.33 20.99 31.47C21.23 31.55 21.47 31.66 21.71 31.76C21.86 31.82 21.94 31.79 21.99 31.63C22.28 30.81 22.58 30 22.87 29.18C22.97 28.91 22.96 28.91 22.7 28.81C22.11 28.6 21.53 28.4 20.95 28.18C20.64 28.06 20.59 27.92 20.69 27.6C20.71 27.54 20.73 27.47 20.75 27.41C21.19 26.15 21.63 24.88 22.08 23.62C22.29 23.04 22.48 22.46 22.74 21.9C22.95 21.42 23.34 21.07 23.88 20.98C24.44 20.88 25 20.93 25.54 21.11C26.12 21.31 26.7 21.53 27.28 21.73C27.82 21.91 28.36 22.09 28.8 22.46C29.16 22.76 29.49 23.08 29.56 23.57C29.62 23.99 29.56 24.39 29.42 24.78C28.98 26.02 28.53 27.26 28.09 28.51C27.92 28.98 27.77 29.46 27.6 29.94C27.47 30.32 27.29 30.39 26.92 30.27C26.45 30.11 25.98 29.95 25.51 29.79C25.1 29.65 25.1 29.65 24.95 30.07C24.68 30.82 24.42 31.58 24.15 32.34C24.05 32.62 24.05 32.64 24.34 32.75C24.64 32.86 24.95 32.94 25.24 33.07C25.57 33.21 25.63 33.4 25.51 33.74C25.41 34.03 25.31 34.32 25.19 34.6C25.15 34.72 25.16 34.8 25.29 34.83C25.98 35.01 26.67 35.19 27.36 35.38C27.92 35.53 28.48 35.69 29.05 35.85C30.06 36.12 31.06 36.41 32.07 36.65C33.05 36.88 34.04 37.06 35.03 37.26C35.06 37.27 35.08 37.27 35.11 37.27C35.69 37.37 35.8 37.59 35.53 38.12C35.18 38.8 34.65 39.34 34.09 39.85C32.9 40.95 31.57 41.85 30.23 42.73C28.1 44.12 25.97 45.5 23.83 46.89C22.69 47.63 21.54 48.37 20.4 49.11C20.03 49.35 19.67 49.59 19.28 49.86C19.23 49.91 19.19 49.95 19.16 50C17.91 50 16.66 50 15.39 50C15.65 49.81 15.93 49.61 16.22 49.43C17.07 48.9 17.93 48.38 18.79 47.86C18.97 47.76 19.15 47.66 19.31 47.51C15.04 47.51 10.78 47.51 6.48 47.51C6.48 45.84 6.48 44.2 6.5 42.53C6.56 42.56 6.61 42.6 6.65 42.65C8.38 44.32 10.3 45.73 12.42 46.87C12.58 46.96 12.79 46.96 12.97 47C12.98 46.98 12.98 46.96 12.99 46.94C12.91 46.9 12.83 46.86 12.76 46.82C10.97 45.88 9.31 44.75 7.78 43.43C7.28 42.99 6.8 42.54 6.31 42.09C6.31 41.69 6.3 41.29 6.3 40.89C6.3 39.48 6.3 38.07 6.3 36.67ZM13.7 38.93C13.76 39.01 13.83 39.08 13.91 39.15C14.42 39.64 15.03 40 15.66 40.31C15.76 40.35 15.91 40.35 16.01 40.3C16.97 39.82 17.92 39.33 18.88 38.84C18.92 38.82 18.99 38.83 19.02 38.85C18.42 39.68 17.56 40.22 16.71 40.76C16.75 40.8 16.75 40.82 16.77 40.82C18.15 41.4 19.59 41.79 21.09 41.77C21.89 41.76 22.69 41.54 23.48 41.36C24.7 41.08 25.83 40.54 26.96 40.01C28.3 39.38 29.61 38.69 30.83 37.83C30.88 37.79 30.93 37.74 31 37.68C30.95 37.65 30.93 37.64 30.91 37.63C29.77 37.33 28.62 37.03 27.48 36.72C26.61 36.49 25.73 36.26 24.86 36.01C24.71 35.97 24.63 35.99 24.59 36.15C24.55 36.28 24.49 36.42 24.43 36.55C24.26 36.93 24.11 37.01 23.71 36.9C23.32 36.79 22.93 36.67 22.55 36.54C22.17 36.41 22.21 36.45 22.1 36.75C21.69 37.8 21.3 38.85 20.9 39.89C20.67 40.48 20.39 41.02 19.86 41.39C19.71 41.5 19 41.29 18.93 41.12C18.92 41.1 18.92 41.08 18.91 41.06C18.78 40.56 18.77 40.07 18.91 39.57C18.99 39.32 19.04 39.07 19.11 38.79C19.14 38.7 19.17 38.62 19.2 38.53C19.41 37.84 19.61 37.15 19.84 36.44C19.9 36.23 19.95 36.03 20.02 35.83C20.06 35.7 20.02 35.62 19.89 35.58C19.71 35.52 19.53 35.46 19.36 35.38C19.12 35.28 19.04 35.11 19.1 34.86C19.13 34.76 19.16 34.68 19.2 34.59C19.3 34.31 19.41 34.02 19.53 33.69C19.41 33.72 19.34 33.72 19.27 33.75C18.49 34.03 17.7 34.3 16.93 34.61C16.49 34.79 16.08 35.04 15.62 35.26C14.87 35.65 14.18 36.12 13.65 36.79C13.08 37.52 13.1 38.21 13.7 38.93ZM19.36 41.92C19.31 41.91 19.25 41.89 19.2 41.88C18.29 41.71 17.42 41.43 16.57 41.07C16.41 41 16.28 40.99 16.12 41.08C15.95 41.19 15.77 41.26 15.59 41.34C15.26 41.48 14.92 41.62 14.58 41.75C15.8 41.91 17.01 41.99 18.27 41.98C18.63 41.98 18.99 41.98 19.36 41.98C19.36 41.96 19.36 41.94 19.36 41.92ZM25.32 21.71C24.85 21.4 24.04 21.33 23.66 21.7C23.38 21.96 23.26 22.3 23.24 22.7C23.81 22.11 24.51 21.83 25.32 21.71Z" stroke="#000000" stroke-opacity="0" stroke-width="0.999998"/>
	<path id="path" d="M39.74 36.37C39.63 36.34 39.53 36.29 39.43 36.29C38.78 36.31 38.12 36.36 37.47 36.36C35.9 36.37 34.32 36.36 32.75 36.36C32.74 36.34 32.74 36.32 32.73 36.3C32.78 36.24 32.83 36.19 32.88 36.14C34.25 34.81 35.83 33.76 37.42 32.72C38.59 31.95 39.72 31.11 40.83 30.25C41.55 29.69 42.11 28.95 42.46 28.09C42.62 27.69 42.68 27.24 42.76 26.8C43.01 25.51 43.25 24.2 43.51 22.84C43.51 31.09 43.51 39.29 43.51 47.5C43.28 47.5 43.07 47.5 42.85 47.5C42.23 47.5 41.6 47.5 40.98 47.49C40.83 47.49 40.72 47.54 40.62 47.65C40.23 48.05 39.84 48.44 39.45 48.82C39.1 49.16 38.74 49.49 38.37 49.84C38.33 49.87 38.31 49.89 38.28 49.91C38.26 49.95 38.25 49.97 38.24 50C37.01 50 35.77 50 34.51 49.98C34.66 49.8 34.84 49.64 35 49.46C35.49 48.93 35.98 48.4 36.47 47.86C36.7 47.61 36.92 47.35 37.14 47.09C37.51 46.65 37.89 46.21 38.23 45.74C38.77 45.02 39.32 44.29 39.8 43.53C40.1 43.08 40.3 42.56 40.52 42.07C40.65 41.78 40.78 41.48 40.73 41.15C40.69 40.9 40.65 40.64 40.61 40.39C40.49 39.7 40.37 39 40.24 38.3C40.14 37.74 40.03 37.19 39.91 36.63C39.89 36.54 39.8 36.46 39.74 36.37Z" fill="#1B1B1B" fill-opacity="1.000000" fill-rule="nonzero"/>
	<path id="path" d="M39.43 36.29C38.78 36.31 38.12 36.36 37.47 36.36C35.9 36.37 34.32 36.36 32.75 36.36C32.74 36.34 32.74 36.32 32.73 36.3C32.78 36.24 32.83 36.19 32.88 36.14C34.25 34.81 35.83 33.76 37.42 32.72C38.59 31.95 39.72 31.11 40.83 30.25C41.55 29.69 42.11 28.95 42.46 28.09C42.62 27.69 42.68 27.24 42.76 26.8C43.01 25.51 43.25 24.2 43.51 22.84C43.51 31.09 43.51 39.29 43.51 47.5C43.28 47.5 43.07 47.5 42.85 47.5C42.23 47.5 41.6 47.5 40.98 47.49C40.83 47.49 40.72 47.54 40.62 47.65C40.23 48.05 39.84 48.44 39.45 48.82C39.1 49.16 38.74 49.49 38.37 49.84C38.33 49.87 38.31 49.89 38.28 49.91C38.26 49.95 38.25 49.97 38.24 50C37.01 50 35.77 50 34.51 49.98C34.66 49.8 34.84 49.64 35 49.46C35.49 48.93 35.98 48.4 36.47 47.86C36.7 47.61 36.92 47.35 37.14 47.09C37.51 46.65 37.89 46.21 38.23 45.74C38.77 45.02 39.32 44.29 39.8 43.53C40.1 43.08 40.3 42.56 40.52 42.07C40.65 41.78 40.78 41.48 40.73 41.15C40.69 40.9 40.65 40.64 40.61 40.39C40.49 39.7 40.37 39 40.24 38.3C40.14 37.74 40.03 37.19 39.91 36.63C39.89 36.54 39.8 36.46 39.74 36.37C39.63 36.34 39.53 36.29 39.43 36.29Z" fill="#000000" fill-opacity="0" fill-rule="nonzero"/>
	<path id="path" d="M37.47 36.36C35.9 36.37 34.32 36.36 32.75 36.36C32.74 36.34 32.74 36.32 32.73 36.3C32.78 36.24 32.83 36.19 32.88 36.14C34.25 34.81 35.83 33.76 37.42 32.72C38.59 31.95 39.72 31.11 40.83 30.25C41.55 29.69 42.11 28.95 42.46 28.09C42.62 27.69 42.68 27.24 42.76 26.8C43.01 25.51 43.25 24.2 43.51 22.84C43.51 31.09 43.51 39.29 43.51 47.5C43.28 47.5 43.07 47.5 42.85 47.5C42.23 47.5 41.6 47.5 40.98 47.49C40.83 47.49 40.72 47.54 40.62 47.65C40.23 48.05 39.84 48.44 39.45 48.82C39.1 49.16 38.74 49.49 38.37 49.84C38.33 49.87 38.31 49.89 38.28 49.91C38.26 49.95 38.25 49.97 38.24 50C37.01 50 35.77 50 34.51 49.98C34.66 49.8 34.84 49.64 35 49.46C35.49 48.93 35.98 48.4 36.47 47.86C36.7 47.61 36.92 47.35 37.14 47.09C37.51 46.65 37.89 46.21 38.23 45.74C38.77 45.02 39.32 44.29 39.8 43.53C40.1 43.08 40.3 42.56 40.52 42.07C40.65 41.78 40.78 41.48 40.73 41.15C40.69 40.9 40.65 40.64 40.61 40.39C40.49 39.7 40.37 39 40.24 38.3C40.14 37.74 40.03 37.19 39.91 36.63C39.89 36.54 39.8 36.46 39.74 36.37C39.63 36.34 39.53 36.29 39.43 36.29C38.78 36.31 38.12 36.36 37.47 36.36Z" stroke="#000000" stroke-opacity="0" stroke-width="0.999998"/>
	<path id="path" d="M39.73 36.39C39.8 36.46 39.89 36.54 39.91 36.63C40.03 37.19 40.14 37.74 40.24 38.3C40.37 39 40.49 39.7 40.61 40.39C40.65 40.64 40.69 40.9 40.73 41.15C40.78 41.48 40.65 41.78 40.52 42.07C40.3 42.56 40.1 43.08 39.8 43.53C39.32 44.29 38.77 45.02 38.23 45.74C37.89 46.21 37.51 46.65 37.14 47.09C36.92 47.35 36.7 47.61 36.47 47.86C35.98 48.4 35.49 48.93 35 49.46C34.84 49.64 34.66 49.8 34.49 49.98C31.36 49.99 28.22 49.99 25.05 49.98C25.02 49.95 25.03 49.93 25.04 49.91C25.66 49.49 26.29 49.07 26.95 48.63C26.98 48.61 26.99 48.6 27 48.59C27 48.59 27 48.59 27.01 48.59C27.09 48.56 27.16 48.54 27.22 48.5C28.36 47.79 29.51 47.09 30.64 46.35C31.65 45.68 32.61 44.93 33.48 44.08C34.01 43.56 34.51 43.01 35 42.46C35.76 41.63 36.5 40.79 37.25 39.95C37.43 39.73 37.59 39.49 37.76 39.26C37.76 39.26 37.76 39.26 37.77 39.26C37.77 39.25 37.77 39.23 37.76 39.22C37.78 39.18 37.79 39.13 37.82 39.11C38.84 38.57 39.43 37.7 39.69 36.6C39.71 36.53 39.72 36.47 39.73 36.39Z" fill="#917044" fill-opacity="1.000000" fill-rule="nonzero"/>
	<path id="path" d="M39.91 36.63C40.03 37.19 40.14 37.74 40.24 38.3C40.37 39 40.49 39.7 40.61 40.39C40.65 40.64 40.69 40.9 40.73 41.15C40.78 41.48 40.65 41.78 40.52 42.07C40.3 42.56 40.1 43.08 39.8 43.53C39.32 44.29 38.77 45.02 38.23 45.74C37.89 46.21 37.51 46.65 37.14 47.09C36.92 47.35 36.7 47.61 36.47 47.86C35.98 48.4 35.49 48.93 35 49.46C34.84 49.64 34.66 49.8 34.49 49.98C31.36 49.99 28.22 49.99 25.05 49.98C25.02 49.95 25.03 49.93 25.04 49.91C25.66 49.49 26.29 49.07 26.95 48.63C26.98 48.61 26.99 48.6 27 48.59C27 48.59 27 48.59 27.01 48.59C27.09 48.56 27.16 48.54 27.22 48.5C28.36 47.79 29.51 47.09 30.64 46.35C31.65 45.68 32.61 44.93 33.48 44.08C34.01 43.56 34.51 43.01 35 42.46C35.76 41.63 36.5 40.79 37.25 39.95C37.43 39.73 37.59 39.49 37.76 39.26C37.76 39.26 37.76 39.26 37.77 39.26C37.77 39.25 37.77 39.23 37.76 39.22C37.78 39.18 37.79 39.13 37.82 39.11C38.84 38.57 39.43 37.7 39.69 36.6C39.71 36.53 39.72 36.47 39.73 36.39C39.8 36.46 39.89 36.54 39.91 36.63Z" fill="#000000" fill-opacity="0" fill-rule="nonzero"/>
	<path id="path" d="M40.24 38.3C40.37 39 40.49 39.7 40.61 40.39C40.65 40.64 40.69 40.9 40.73 41.15C40.78 41.48 40.65 41.78 40.52 42.07C40.3 42.56 40.1 43.08 39.8 43.53C39.32 44.29 38.77 45.02 38.23 45.74C37.89 46.21 37.51 46.65 37.14 47.09C36.92 47.35 36.7 47.61 36.47 47.86C35.98 48.4 35.49 48.93 35 49.46C34.84 49.64 34.66 49.8 34.49 49.98C31.36 49.99 28.22 49.99 25.05 49.98C25.02 49.95 25.03 49.93 25.04 49.91C25.66 49.49 26.29 49.07 26.95 48.63C26.98 48.61 26.99 48.6 27 48.59C27 48.59 27 48.59 27.01 48.59C27.09 48.56 27.16 48.54 27.22 48.5C28.36 47.79 29.51 47.09 30.64 46.35C31.65 45.68 32.61 44.93 33.48 44.08C34.01 43.56 34.51 43.01 35 42.46C35.76 41.63 36.5 40.79 37.25 39.95C37.43 39.73 37.59 39.49 37.76 39.26C37.76 39.26 37.76 39.26 37.77 39.26C37.77 39.25 37.77 39.23 37.76 39.22C37.78 39.18 37.79 39.13 37.82 39.11C38.84 38.57 39.43 37.7 39.69 36.6C39.71 36.53 39.72 36.47 39.73 36.39C39.8 36.46 39.89 36.54 39.91 36.63C40.03 37.19 40.14 37.74 40.24 38.3Z" stroke="#000000" stroke-opacity="0" stroke-width="0.999998"/>
	<path id="path" d="M38.29 49.91C38.31 49.89 38.33 49.87 38.36 49.85C38.45 49.86 38.53 49.9 38.61 49.9C40.96 49.91 43.32 49.91 45.67 49.91C45.86 49.91 45.94 49.86 45.91 49.66C45.91 49.61 45.91 49.56 45.91 49.51C45.91 33.16 45.91 16.82 45.91 0.47C45.91 0.4 45.91 0.34 45.91 0.27C45.93 0.14 45.87 0.07 45.73 0.08C45.67 0.08 45.61 0.08 45.55 0.08C31.85 0.08 18.15 0.08 4.44 0.08C4.38 0.08 4.31 0.08 4.25 0.08C4.12 0.07 4.07 0.13 4.08 0.25C4.08 0.31 4.08 0.37 4.08 0.43C4.08 16.8 4.08 33.18 4.08 49.55C4.08 49.63 4.07 49.71 4.09 49.77C4.11 49.82 4.17 49.88 4.22 49.9C4.28 49.92 4.35 49.91 4.41 49.91C7.95 49.91 11.49 49.91 15.02 49.91C15.12 49.91 15.21 49.95 15.32 49.98C11.55 50 7.77 50 4 50C4 33.33 4 16.66 4 0C17.99 0 31.99 0 46 0C46 16.66 46 33.33 46 50C43.44 50 40.89 50 38.31 49.98C38.29 49.95 38.29 49.93 38.29 49.91Z" fill="#FFD28E" fill-opacity="1.000000" fill-rule="nonzero"/>
	<path id="path" d="M38.36 49.85C38.45 49.86 38.53 49.9 38.61 49.9C40.96 49.91 43.32 49.91 45.67 49.91C45.86 49.91 45.94 49.86 45.91 49.66C45.91 49.61 45.91 49.56 45.91 49.51C45.91 33.16 45.91 16.82 45.91 0.47C45.91 0.4 45.91 0.34 45.91 0.27C45.93 0.14 45.87 0.07 45.73 0.08C45.67 0.08 45.61 0.08 45.55 0.08C31.85 0.08 18.15 0.08 4.44 0.08C4.38 0.08 4.31 0.08 4.25 0.08C4.12 0.07 4.07 0.13 4.08 0.25C4.08 0.31 4.08 0.37 4.08 0.43C4.08 16.8 4.08 33.18 4.08 49.55C4.08 49.63 4.07 49.71 4.09 49.77C4.11 49.82 4.17 49.88 4.22 49.9C4.28 49.92 4.35 49.91 4.41 49.91C7.95 49.91 11.49 49.91 15.02 49.91C15.12 49.91 15.21 49.95 15.32 49.98C11.55 50 7.77 50 4 50C4 33.33 4 16.66 4 0C17.99 0 31.99 0 46 0C46 16.66 46 33.33 46 50C43.44 50 40.89 50 38.31 49.98C38.29 49.95 38.29 49.93 38.29 49.91C38.31 49.89 38.33 49.87 38.36 49.85Z" fill="#000000" fill-opacity="0" fill-rule="nonzero"/>
	<path id="path" d="M38.61 49.9C40.96 49.91 43.32 49.91 45.67 49.91C45.86 49.91 45.94 49.86 45.91 49.66C45.91 49.61 45.91 49.56 45.91 49.51C45.91 33.16 45.91 16.82 45.91 0.47C45.91 0.4 45.91 0.34 45.91 0.27C45.93 0.14 45.87 0.07 45.73 0.08C45.67 0.08 45.61 0.08 45.55 0.08C31.85 0.08 18.15 0.08 4.44 0.08C4.38 0.08 4.31 0.08 4.25 0.08C4.12 0.07 4.07 0.13 4.08 0.25C4.08 0.31 4.08 0.37 4.08 0.43C4.08 16.8 4.08 33.18 4.08 49.55C4.08 49.63 4.07 49.71 4.09 49.77C4.11 49.82 4.17 49.88 4.22 49.9C4.28 49.92 4.35 49.91 4.41 49.91C7.95 49.91 11.49 49.91 15.02 49.91C15.12 49.91 15.21 49.95 15.32 49.98C11.55 50 7.77 50 4 50C4 33.33 4 16.66 4 0C17.99 0 31.99 0 46 0C46 16.66 46 33.33 46 50C43.44 50 40.89 50 38.31 49.98C38.29 49.95 38.29 49.93 38.29 49.91C38.31 49.89 38.33 49.87 38.36 49.85C38.45 49.86 38.53 49.9 38.61 49.9Z" stroke="#000000" stroke-opacity="0" stroke-width="0.999998"/>
	<path id="path" d="M25.02 49.91C25.03 49.93 25.02 49.95 25.03 49.98C23.09 50 21.15 50 19.18 50C19.19 49.95 19.23 49.91 19.27 49.87C19.4 49.88 19.5 49.91 19.61 49.91C21.4 49.91 23.2 49.91 25.02 49.91Z" fill="#FED490" fill-opacity="1.000000" fill-rule="nonzero"/>
	<path id="path" d="M25.03 49.98C23.09 50 21.15 50 19.18 50C19.19 49.95 19.23 49.91 19.27 49.87C19.4 49.88 19.5 49.91 19.61 49.91C21.4 49.91 23.2 49.91 25.02 49.91C25.03 49.93 25.02 49.95 25.03 49.98Z" fill="#000000" fill-opacity="0" fill-rule="nonzero"/>
	<path id="path" d="M19.18 50C19.19 49.95 19.23 49.91 19.27 49.87C19.4 49.88 19.5 49.91 19.61 49.91C21.4 49.91 23.2 49.91 25.02 49.91C25.03 49.93 25.02 49.95 25.03 49.98C23.09 50 21.15 50 19.18 50Z" stroke="#000000" stroke-opacity="0" stroke-width="0.999998"/>
	<path id="path" d="M38.28 49.91C38.29 49.93 38.29 49.95 38.29 49.98C38.29 50 38.27 50 38.26 50C38.25 49.97 38.26 49.95 38.28 49.91Z" fill="#AC8C62" fill-opacity="1.000000" fill-rule="nonzero"/>
	<path id="path" d="M38.29 49.98C38.29 50 38.27 50 38.26 50C38.25 49.97 38.26 49.95 38.28 49.91C38.29 49.93 38.29 49.95 38.29 49.98Z" fill="#000000" fill-opacity="0" fill-rule="nonzero"/>
	<path id="path" d="M38.26 50C38.25 49.97 38.26 49.95 38.28 49.91C38.29 49.93 38.29 49.95 38.29 49.98C38.29 50 38.27 50 38.26 50Z" stroke="#000000" stroke-opacity="0" stroke-width="0.999998"/>
	<path id="path" d="M27.37 35.36C26.67 35.19 25.98 35.01 25.29 34.83C25.16 34.8 25.15 34.72 25.19 34.6C25.31 34.32 25.41 34.03 25.51 33.74C25.63 33.4 25.57 33.21 25.24 33.07C24.95 32.94 24.64 32.86 24.34 32.75C24.05 32.64 24.05 32.62 24.15 32.34C24.42 31.58 24.68 30.82 24.95 30.07C25.1 29.65 25.1 29.65 25.51 29.79C25.98 29.95 26.45 30.11 26.92 30.27C27.29 30.39 27.47 30.32 27.6 29.94C27.77 29.46 27.92 28.98 28.09 28.51C28.53 27.26 28.98 26.02 29.42 24.78C29.56 24.39 29.62 23.99 29.56 23.57C29.49 23.08 29.16 22.76 28.8 22.46C28.36 22.09 27.82 21.91 27.28 21.73C26.7 21.53 26.12 21.31 25.54 21.11C25 20.93 24.44 20.88 23.88 20.98C23.34 21.07 22.95 21.42 22.74 21.9C22.48 22.46 22.29 23.04 22.08 23.62C21.63 24.88 21.19 26.15 20.75 27.41C20.73 27.47 20.71 27.54 20.69 27.6C20.59 27.92 20.64 28.06 20.95 28.18C21.53 28.4 22.11 28.6 22.7 28.81C22.96 28.91 22.97 28.91 22.87 29.18C22.58 30 22.28 30.81 21.99 31.63C21.94 31.79 21.86 31.82 21.71 31.76C21.47 31.66 21.23 31.55 20.99 31.47C20.55 31.33 20.37 31.41 20.21 31.84C20.04 32.28 19.88 32.73 19.71 33.17C19.68 33.24 19.59 33.33 19.52 33.35C18.08 33.72 16.73 34.28 15.42 34.98C15.39 35 15.36 35.02 15.31 35.03C14.4 34.45 13.7 33.68 13.24 32.71C12.93 32.06 12.75 31.37 12.67 30.66C12.55 29.62 12.64 28.6 12.81 27.57C12.81 27.54 12.83 27.51 12.86 27.43C13.09 28.03 13.41 28.54 13.82 28.98C14.01 29.19 14.2 29.39 14.38 29.6C14.73 30.03 15 30.51 15.2 31.03C15.22 31.09 15.25 31.15 15.28 31.22C15.3 31.21 15.32 31.21 15.35 31.21C15.37 31.02 15.39 30.84 15.4 30.66C15.49 29.7 15.09 28.9 14.61 28.12C14.09 27.28 13.76 26.39 13.79 25.38C13.82 24.5 14.18 23.75 14.69 23.06C15.4 22.09 16.32 21.34 17.28 20.65C17.97 20.15 18.69 19.7 19.4 19.22C19.55 19.12 19.7 18.99 19.83 18.86C19.88 18.82 19.89 18.73 19.92 18.66C19.85 18.64 19.77 18.59 19.7 18.61C19.42 18.67 19.14 18.75 18.86 18.82C18.43 18.94 18.01 19.07 17.59 19.19C17.51 19.21 17.43 19.21 17.27 19.22C17.39 18.98 17.47 18.78 17.59 18.62C18.06 17.96 18.71 17.47 19.36 17.02C21.25 15.72 23.27 14.63 25.41 13.82C26.05 13.58 26.73 13.45 27.4 13.27C27.45 13.26 27.52 13.27 27.58 13.27C27.59 13.29 27.6 13.31 27.61 13.33C27.5 13.48 27.39 13.63 27.26 13.78C26.4 14.78 25.53 15.78 24.82 16.91C24.55 17.34 24.32 17.79 24.3 18.32C24.27 18.87 24.51 19.24 24.97 19.5C25.56 19.82 26.18 19.96 26.85 19.77C27.52 19.59 28.07 18.91 28.09 18.27C28.1 17.71 27.8 17.38 27.25 17.33C27.2 17.33 27.16 17.32 27.12 17.32C27.27 16.88 27.83 16.57 28.31 16.65C29.05 16.75 29.65 17.16 30.2 17.62C30.84 18.16 31.46 18.72 32.1 19.26C32.4 19.52 32.74 19.74 33.04 20C33.69 20.56 33.96 21.32 34.11 22.14C34.3 23.18 34.3 24.23 34.29 25.28C34.29 25.35 34.29 25.43 34.34 25.51C34.98 24.13 35.15 22.67 35.11 21.16C35.13 21.16 35.15 21.15 35.17 21.14C35.32 21.38 35.49 21.61 35.62 21.86C36.13 22.75 36.37 23.71 36.41 24.74C36.49 26.51 36.01 28.16 35.28 29.76C35.25 29.81 35.23 29.87 35.2 29.93C35.05 30.28 34.88 30.56 34.48 30.7C33.27 31.13 32.29 31.88 31.42 32.81C30.93 33.34 30.44 33.87 29.92 34.37C29.46 34.81 28.91 35.1 28.29 35.25C28.08 35.3 27.84 35.27 27.62 35.29C27.54 35.29 27.46 35.32 27.37 35.36Z" fill="#AD3F27" fill-opacity="1.000000" fill-rule="nonzero"/>
	<path id="path" d="M25.29 34.83C25.16 34.8 25.15 34.72 25.19 34.6C25.31 34.32 25.41 34.03 25.51 33.74C25.63 33.4 25.57 33.21 25.24 33.07C24.95 32.94 24.64 32.86 24.34 32.75C24.05 32.64 24.05 32.62 24.15 32.34C24.42 31.58 24.68 30.82 24.95 30.07C25.1 29.65 25.1 29.65 25.51 29.79C25.98 29.95 26.45 30.11 26.92 30.27C27.29 30.39 27.47 30.32 27.6 29.94C27.77 29.46 27.92 28.98 28.09 28.51C28.53 27.26 28.98 26.02 29.42 24.78C29.56 24.39 29.62 23.99 29.56 23.57C29.49 23.08 29.16 22.76 28.8 22.46C28.36 22.09 27.82 21.91 27.28 21.73C26.7 21.53 26.12 21.31 25.54 21.11C25 20.93 24.44 20.88 23.88 20.98C23.34 21.07 22.95 21.42 22.74 21.9C22.48 22.46 22.29 23.04 22.08 23.62C21.63 24.88 21.19 26.15 20.75 27.41C20.73 27.47 20.71 27.54 20.69 27.6C20.59 27.92 20.64 28.06 20.95 28.18C21.53 28.4 22.11 28.6 22.7 28.81C22.96 28.91 22.97 28.91 22.87 29.18C22.58 30 22.28 30.81 21.99 31.63C21.94 31.79 21.86 31.82 21.71 31.76C21.47 31.66 21.23 31.55 20.99 31.47C20.55 31.33 20.37 31.41 20.21 31.84C20.04 32.28 19.88 32.73 19.71 33.17C19.68 33.24 19.59 33.33 19.52 33.35C18.08 33.72 16.73 34.28 15.42 34.98C15.39 35 15.36 35.02 15.31 35.03C14.4 34.45 13.7 33.68 13.24 32.71C12.93 32.06 12.75 31.37 12.67 30.66C12.55 29.62 12.64 28.6 12.81 27.57C12.81 27.54 12.83 27.51 12.86 27.43C13.09 28.03 13.41 28.54 13.82 28.98C14.01 29.19 14.2 29.39 14.38 29.6C14.73 30.03 15 30.51 15.2 31.03C15.22 31.09 15.25 31.15 15.28 31.22C15.3 31.21 15.32 31.21 15.35 31.21C15.37 31.02 15.39 30.84 15.4 30.66C15.49 29.7 15.09 28.9 14.61 28.12C14.09 27.28 13.76 26.39 13.79 25.38C13.82 24.5 14.18 23.75 14.69 23.06C15.4 22.09 16.32 21.34 17.28 20.65C17.97 20.15 18.69 19.7 19.4 19.22C19.55 19.12 19.7 18.99 19.83 18.86C19.88 18.82 19.89 18.73 19.92 18.66C19.85 18.64 19.77 18.59 19.7 18.61C19.42 18.67 19.14 18.75 18.86 18.82C18.43 18.94 18.01 19.07 17.59 19.19C17.51 19.21 17.43 19.21 17.27 19.22C17.39 18.98 17.47 18.78 17.59 18.62C18.06 17.96 18.71 17.47 19.36 17.02C21.25 15.72 23.27 14.63 25.41 13.82C26.05 13.58 26.73 13.45 27.4 13.27C27.45 13.26 27.52 13.27 27.58 13.27C27.59 13.29 27.6 13.31 27.61 13.33C27.5 13.48 27.39 13.63 27.26 13.78C26.4 14.78 25.53 15.78 24.82 16.91C24.55 17.34 24.32 17.79 24.3 18.32C24.27 18.87 24.51 19.24 24.97 19.5C25.56 19.82 26.18 19.96 26.85 19.77C27.52 19.59 28.07 18.91 28.09 18.27C28.1 17.71 27.8 17.38 27.25 17.33C27.2 17.33 27.16 17.32 27.12 17.32C27.27 16.88 27.83 16.57 28.31 16.65C29.05 16.75 29.65 17.16 30.2 17.62C30.84 18.16 31.46 18.72 32.1 19.26C32.4 19.52 32.74 19.74 33.04 20C33.69 20.56 33.96 21.32 34.11 22.14C34.3 23.18 34.3 24.23 34.29 25.28C34.29 25.35 34.29 25.43 34.34 25.51C34.98 24.13 35.15 22.67 35.11 21.16C35.13 21.16 35.15 21.15 35.17 21.14C35.32 21.38 35.49 21.61 35.62 21.86C36.13 22.75 36.37 23.71 36.41 24.74C36.49 26.51 36.01 28.16 35.28 29.76C35.25 29.81 35.23 29.87 35.2 29.93C35.05 30.28 34.88 30.56 34.48 30.7C33.27 31.13 32.29 31.88 31.42 32.81C30.93 33.34 30.44 33.87 29.92 34.37C29.46 34.81 28.91 35.1 28.29 35.25C28.08 35.3 27.84 35.27 27.62 35.29C27.54 35.29 27.46 35.32 27.37 35.36C26.67 35.19 25.98 35.01 25.29 34.83Z" fill="#000000" fill-opacity="0" fill-rule="nonzero"/>
	<path id="path" d="M25.19 34.6C25.31 34.32 25.41 34.03 25.51 33.74C25.63 33.4 25.57 33.21 25.24 33.07C24.95 32.94 24.64 32.86 24.34 32.75C24.05 32.64 24.05 32.62 24.15 32.34C24.42 31.58 24.68 30.82 24.95 30.07C25.1 29.65 25.1 29.65 25.51 29.79C25.98 29.95 26.45 30.11 26.92 30.27C27.29 30.39 27.47 30.32 27.6 29.94C27.77 29.46 27.92 28.98 28.09 28.51C28.53 27.26 28.98 26.02 29.42 24.78C29.56 24.39 29.62 23.99 29.56 23.57C29.49 23.08 29.16 22.76 28.8 22.46C28.36 22.09 27.82 21.91 27.28 21.73C26.7 21.53 26.12 21.31 25.54 21.11C25 20.93 24.44 20.88 23.88 20.98C23.34 21.07 22.95 21.42 22.74 21.9C22.48 22.46 22.29 23.04 22.08 23.62C21.63 24.88 21.19 26.15 20.75 27.41C20.73 27.47 20.71 27.54 20.69 27.6C20.59 27.92 20.64 28.06 20.95 28.18C21.53 28.4 22.11 28.6 22.7 28.81C22.96 28.91 22.97 28.91 22.87 29.18C22.58 30 22.28 30.81 21.99 31.63C21.94 31.79 21.86 31.82 21.71 31.76C21.47 31.66 21.23 31.55 20.99 31.47C20.55 31.33 20.37 31.41 20.21 31.84C20.04 32.28 19.88 32.73 19.71 33.17C19.68 33.24 19.59 33.33 19.52 33.35C18.08 33.72 16.73 34.28 15.42 34.98C15.39 35 15.36 35.02 15.31 35.03C14.4 34.45 13.7 33.68 13.24 32.71C12.93 32.06 12.75 31.37 12.67 30.66C12.55 29.62 12.64 28.6 12.81 27.57C12.81 27.54 12.83 27.51 12.86 27.43C13.09 28.03 13.41 28.54 13.82 28.98C14.01 29.19 14.2 29.39 14.38 29.6C14.73 30.03 15 30.51 15.2 31.03C15.22 31.09 15.25 31.15 15.28 31.22C15.3 31.21 15.32 31.21 15.35 31.21C15.37 31.02 15.39 30.84 15.4 30.66C15.49 29.7 15.09 28.9 14.61 28.12C14.09 27.28 13.76 26.39 13.79 25.38C13.82 24.5 14.18 23.75 14.69 23.06C15.4 22.09 16.32 21.34 17.28 20.65C17.97 20.15 18.69 19.7 19.4 19.22C19.55 19.12 19.7 18.99 19.83 18.86C19.88 18.82 19.89 18.73 19.92 18.66C19.85 18.64 19.77 18.59 19.7 18.61C19.42 18.67 19.14 18.75 18.86 18.82C18.43 18.94 18.01 19.07 17.59 19.19C17.51 19.21 17.43 19.21 17.27 19.22C17.39 18.98 17.47 18.78 17.59 18.62C18.06 17.96 18.71 17.47 19.36 17.02C21.25 15.72 23.27 14.63 25.41 13.82C26.05 13.58 26.73 13.45 27.4 13.27C27.45 13.26 27.52 13.27 27.58 13.27C27.59 13.29 27.6 13.31 27.61 13.33C27.5 13.48 27.39 13.63 27.26 13.78C26.4 14.78 25.53 15.78 24.82 16.91C24.55 17.34 24.32 17.79 24.3 18.32C24.27 18.87 24.51 19.24 24.97 19.5C25.56 19.82 26.18 19.96 26.85 19.77C27.52 19.59 28.07 18.91 28.09 18.27C28.1 17.71 27.8 17.38 27.25 17.33C27.2 17.33 27.16 17.32 27.12 17.32C27.27 16.88 27.83 16.57 28.31 16.65C29.05 16.75 29.65 17.16 30.2 17.62C30.84 18.16 31.46 18.72 32.1 19.26C32.4 19.52 32.74 19.74 33.04 20C33.69 20.56 33.96 21.32 34.11 22.14C34.3 23.18 34.3 24.23 34.29 25.28C34.29 25.35 34.29 25.43 34.34 25.51C34.98 24.13 35.15 22.67 35.11 21.16C35.13 21.16 35.15 21.15 35.17 21.14C35.32 21.38 35.49 21.61 35.62 21.86C36.13 22.75 36.37 23.71 36.41 24.74C36.49 26.51 36.01 28.16 35.28 29.76C35.25 29.81 35.23 29.87 35.2 29.93C35.05 30.28 34.88 30.56 34.48 30.7C33.27 31.13 32.29 31.88 31.42 32.81C30.93 33.34 30.44 33.87 29.92 34.37C29.46 34.81 28.91 35.1 28.29 35.25C28.08 35.3 27.84 35.27 27.62 35.29C27.54 35.29 27.46 35.32 27.37 35.36C26.67 35.19 25.98 35.01 25.29 34.83C25.16 34.8 25.15 34.72 25.19 34.6Z" stroke="#000000" stroke-opacity="0" stroke-width="0.999998"/>
	<path id="path" d="M22.5 3.96C22.93 3.79 23.36 3.61 23.8 3.45C24.72 3.12 25.66 2.85 26.63 2.7C26.81 2.67 27 2.67 27.19 2.65C26.03 3.16 24.89 3.67 23.75 4.18C20.69 5.57 17.72 7.13 14.91 8.98C13.81 9.69 12.72 10.41 11.65 11.16C10.25 12.15 9.33 13.47 8.91 15.16C8.46 16.99 8.12 18.84 7.83 20.71C7.72 21.41 7.63 22.12 7.54 22.83C7.53 22.87 7.54 22.92 7.56 22.99C9.91 20.37 12.73 18.47 15.99 17.23C16 17.24 16.02 17.26 16.03 17.28C15.97 17.33 15.92 17.37 15.86 17.42C13.88 18.92 11.96 20.5 10.21 22.26C8.88 23.61 7.66 25.06 6.66 26.68C6.53 26.88 6.43 27.09 6.3 27.33C6.3 27.23 6.3 27.16 6.3 27.09C6.3 20.93 6.3 14.77 6.31 8.61C6.31 8.48 6.38 8.34 6.41 8.2C6.43 8.09 6.48 7.98 6.48 7.87C6.48 6.16 6.48 4.45 6.48 2.75C6.48 2.67 6.48 2.59 6.48 2.5C12.18 2.5 17.86 2.5 23.55 2.5C23.19 2.97 22.83 3.43 22.46 3.92C22.44 3.95 22.43 3.97 22.43 3.99C22.45 3.98 22.48 3.97 22.5 3.96ZM15.43 7.6C15.65 7.42 15.87 7.25 16.08 7.06C16.22 6.94 16.34 6.81 16.45 6.67C16.5 6.6 16.5 6.5 16.53 6.41C16.45 6.4 16.36 6.37 16.28 6.38C16.16 6.4 16.03 6.45 15.91 6.49C14.71 6.99 13.65 7.71 12.7 8.59C12.24 9.01 11.82 9.48 11.4 9.93C11.3 10.04 11.25 10.18 11.19 10.31C11.26 10.34 11.29 10.33 11.31 10.32C12.68 9.42 14.04 8.52 15.43 7.6Z" fill="#1B1B1B" fill-opacity="1.000000" fill-rule="nonzero"/>
	<path id="path" d="M23.8 3.45C24.72 3.12 25.66 2.85 26.63 2.7C26.81 2.67 27 2.67 27.19 2.65C26.03 3.16 24.89 3.67 23.75 4.18C20.69 5.57 17.72 7.13 14.91 8.98C13.81 9.69 12.72 10.41 11.65 11.16C10.25 12.15 9.33 13.47 8.91 15.16C8.46 16.99 8.12 18.84 7.83 20.71C7.72 21.41 7.63 22.12 7.54 22.83C7.53 22.87 7.54 22.92 7.56 22.99C9.91 20.37 12.73 18.47 15.99 17.23C16 17.24 16.02 17.26 16.03 17.28C15.97 17.33 15.92 17.37 15.86 17.42C13.88 18.92 11.96 20.5 10.21 22.26C8.88 23.61 7.66 25.06 6.66 26.68C6.53 26.88 6.43 27.09 6.3 27.33C6.3 27.23 6.3 27.16 6.3 27.09C6.3 20.93 6.3 14.77 6.31 8.61C6.31 8.48 6.38 8.34 6.41 8.2C6.43 8.09 6.48 7.98 6.48 7.87C6.48 6.16 6.48 4.45 6.48 2.75C6.48 2.67 6.48 2.59 6.48 2.5C12.18 2.5 17.86 2.5 23.55 2.5C23.19 2.97 22.83 3.43 22.46 3.92C22.44 3.95 22.43 3.97 22.43 3.99C22.45 3.98 22.48 3.97 22.5 3.96C22.93 3.79 23.36 3.61 23.8 3.45ZM16.08 7.06C16.22 6.94 16.34 6.81 16.45 6.67C16.5 6.6 16.5 6.5 16.53 6.41C16.45 6.4 16.36 6.37 16.28 6.38C16.16 6.4 16.03 6.45 15.91 6.49C14.71 6.99 13.65 7.71 12.7 8.59C12.24 9.01 11.82 9.48 11.4 9.93C11.3 10.04 11.25 10.18 11.19 10.31C11.26 10.34 11.29 10.33 11.31 10.32C12.68 9.42 14.04 8.52 15.43 7.6C15.65 7.42 15.87 7.25 16.08 7.06Z" fill="#000000" fill-opacity="0" fill-rule="nonzero"/>
	<path id="path" d="M26.63 2.7C26.81 2.67 27 2.67 27.19 2.65C26.03 3.16 24.89 3.67 23.75 4.18C20.69 5.57 17.72 7.13 14.91 8.98C13.81 9.69 12.72 10.41 11.65 11.16C10.25 12.15 9.33 13.47 8.91 15.16C8.46 16.99 8.12 18.84 7.83 20.71C7.72 21.41 7.63 22.12 7.54 22.83C7.53 22.87 7.54 22.92 7.56 22.99C9.91 20.37 12.73 18.47 15.99 17.23C16 17.24 16.02 17.26 16.03 17.28C15.97 17.33 15.92 17.37 15.86 17.42C13.88 18.92 11.96 20.5 10.21 22.26C8.88 23.61 7.66 25.06 6.66 26.68C6.53 26.88 6.43 27.09 6.3 27.33C6.3 27.23 6.3 27.16 6.3 27.09C6.3 20.93 6.3 14.77 6.31 8.61C6.31 8.48 6.38 8.34 6.41 8.2C6.43 8.09 6.48 7.98 6.48 7.87C6.48 6.16 6.48 4.45 6.48 2.75C6.48 2.67 6.48 2.59 6.48 2.5C12.18 2.5 17.86 2.5 23.55 2.5C23.19 2.97 22.83 3.43 22.46 3.92C22.44 3.95 22.43 3.97 22.43 3.99C22.45 3.98 22.48 3.97 22.5 3.96C22.93 3.79 23.36 3.61 23.8 3.45C24.72 3.12 25.66 2.85 26.63 2.7ZM16.45 6.67C16.5 6.6 16.5 6.5 16.53 6.41C16.45 6.4 16.36 6.37 16.28 6.38C16.16 6.4 16.03 6.45 15.91 6.49C14.71 6.99 13.65 7.71 12.7 8.59C12.24 9.01 11.82 9.48 11.4 9.93C11.3 10.04 11.25 10.18 11.19 10.31C11.26 10.34 11.29 10.33 11.31 10.32C12.68 9.42 14.04 8.52 15.43 7.6C15.65 7.42 15.87 7.25 16.08 7.06C16.22 6.94 16.34 6.81 16.45 6.67Z" stroke="#000000" stroke-opacity="0" stroke-width="0.999998"/>
	<path id="path" d="M34.89 12.91C36.06 12.32 37.27 11.88 38.51 11.51C39.28 11.28 39.62 10.56 39.24 9.84C39.09 9.55 38.86 9.29 38.61 9.08C37.41 8.08 36.41 6.94 35.77 5.5C35.51 4.93 35.33 4.33 35.27 3.7C35.27 3.67 35.26 3.65 35.25 3.62C34.68 3.92 34.3 5.8 34.48 7.41C34.45 7.37 34.42 7.34 34.4 7.3C34.03 6.34 33.7 5.36 33.65 4.31C33.63 3.75 33.69 3.2 33.86 2.65C33.89 2.54 33.94 2.48 34.08 2.48C37.19 2.49 40.31 2.49 43.42 2.49C43.44 2.49 43.47 2.49 43.5 2.5C43.5 7.33 43.5 12.17 43.5 16.89C43.26 16.33 43.01 15.66 42.7 15.01C42.33 14.26 41.83 13.6 41.26 12.99C41.2 12.92 41.08 12.87 40.99 12.86C39.68 12.75 38.4 12.87 37.11 13.12C35.53 13.42 34.02 13.96 32.63 14.78C32.32 14.96 32.02 15.18 31.72 15.38C31.67 15.41 31.62 15.44 31.55 15.45C32.46 14.34 33.62 13.56 34.89 12.91ZM38.53 7.42C38.34 6.82 38.03 6.29 37.6 5.83C37.54 5.77 37.48 5.71 37.4 5.67C37.2 5.55 37.05 5.62 37.04 5.85C37.04 6.02 37.07 6.19 37.11 6.34C37.29 6.94 37.59 7.44 38.17 7.72C38.26 7.77 38.41 7.79 38.49 7.74C38.54 7.71 38.53 7.55 38.53 7.42Z" fill="#1C1B1B" fill-opacity="1.000000" fill-rule="nonzero"/>
	<path id="path" d="M38.51 11.51C39.28 11.28 39.62 10.56 39.24 9.84C39.09 9.55 38.86 9.29 38.61 9.08C37.41 8.08 36.41 6.94 35.77 5.5C35.51 4.93 35.33 4.33 35.27 3.7C35.27 3.67 35.26 3.65 35.25 3.62C34.68 3.92 34.3 5.8 34.48 7.41C34.45 7.37 34.42 7.34 34.4 7.3C34.03 6.34 33.7 5.36 33.65 4.31C33.63 3.75 33.69 3.2 33.86 2.65C33.89 2.54 33.94 2.48 34.08 2.48C37.19 2.49 40.31 2.49 43.42 2.49C43.44 2.49 43.47 2.49 43.5 2.5C43.5 7.33 43.5 12.17 43.5 16.89C43.26 16.33 43.01 15.66 42.7 15.01C42.33 14.26 41.83 13.6 41.26 12.99C41.2 12.92 41.08 12.87 40.99 12.86C39.68 12.75 38.4 12.87 37.11 13.12C35.53 13.42 34.02 13.96 32.63 14.78C32.32 14.96 32.02 15.18 31.72 15.38C31.67 15.41 31.62 15.44 31.55 15.45C32.46 14.34 33.62 13.56 34.89 12.91C36.06 12.32 37.27 11.88 38.51 11.51ZM37.6 5.83C37.54 5.77 37.48 5.71 37.4 5.67C37.2 5.55 37.05 5.62 37.04 5.85C37.04 6.02 37.07 6.19 37.11 6.34C37.29 6.94 37.59 7.44 38.17 7.72C38.26 7.77 38.41 7.79 38.49 7.74C38.54 7.71 38.53 7.55 38.53 7.42C38.34 6.82 38.03 6.29 37.6 5.83Z" fill="#000000" fill-opacity="0" fill-rule="nonzero"/>
	<path id="path" d="M39.24 9.84C39.09 9.55 38.86 9.29 38.61 9.08C37.41 8.08 36.41 6.94 35.77 5.5C35.51 4.93 35.33 4.33 35.27 3.7C35.27 3.67 35.26 3.65 35.25 3.62C34.68 3.92 34.3 5.8 34.48 7.41C34.45 7.37 34.42 7.34 34.4 7.3C34.03 6.34 33.7 5.36 33.65 4.31C33.63 3.75 33.69 3.2 33.86 2.65C33.89 2.54 33.94 2.48 34.08 2.48C37.19 2.49 40.31 2.49 43.42 2.49C43.44 2.49 43.47 2.49 43.5 2.5C43.5 7.33 43.5 12.17 43.5 16.89C43.26 16.33 43.01 15.66 42.7 15.01C42.33 14.26 41.83 13.6 41.26 12.99C41.2 12.92 41.08 12.87 40.99 12.86C39.68 12.75 38.4 12.87 37.11 13.12C35.53 13.42 34.02 13.96 32.63 14.78C32.32 14.96 32.02 15.18 31.72 15.38C31.67 15.41 31.62 15.44 31.55 15.45C32.46 14.34 33.62 13.56 34.89 12.91C36.06 12.32 37.27 11.88 38.51 11.51C39.28 11.28 39.62 10.56 39.24 9.84ZM37.4 5.67C37.2 5.55 37.05 5.62 37.04 5.85C37.04 6.02 37.07 6.19 37.11 6.34C37.29 6.94 37.59 7.44 38.17 7.72C38.26 7.77 38.41 7.79 38.49 7.74C38.54 7.71 38.53 7.55 38.53 7.42C38.34 6.82 38.03 6.29 37.6 5.83C37.54 5.77 37.48 5.71 37.4 5.67Z" stroke="#000000" stroke-opacity="0" stroke-width="0.999998"/>
	<path id="path" d="M24.48 12.33C24.2 12.52 23.93 12.74 23.63 12.85C22.48 13.29 21.31 13.69 20.15 14.1C20.02 14.15 19.87 14.17 19.73 14.17C19.53 14.18 19.46 14.06 19.59 13.91C19.84 13.63 20.1 13.36 20.38 13.11C20.65 12.87 20.95 12.66 21.24 12.43C21.31 12.37 21.38 12.31 21.44 12.24C21.49 12.19 21.5 12.11 21.53 12.05C21.47 12.03 21.4 11.98 21.34 11.99C20.9 12.07 20.45 12.15 20.02 12.26C18.61 12.65 17.21 13.06 15.8 13.46C15.64 13.5 15.46 13.5 15.29 13.52C15.28 13.49 15.27 13.46 15.25 13.43C15.35 13.34 15.43 13.23 15.54 13.16C16.3 12.68 17.05 12.18 17.84 11.75C19.84 10.66 21.86 9.59 23.88 8.55C24.3 8.33 24.79 8.25 25.25 8.14C27.12 7.72 28.71 6.79 30.16 5.57C30.43 5.34 30.69 5.11 30.96 4.88C30.98 4.89 31 4.9 31.02 4.91C30.99 4.97 30.96 5.04 30.93 5.1C30.35 6.08 29.69 6.99 28.94 7.84C27.81 9.11 26.6 10.29 25.2 11.26C24.9 11.46 24.58 11.62 24.28 11.81C24.21 11.85 24.16 11.92 24.1 11.98C24.16 12.03 24.22 12.08 24.29 12.14C24.35 12.19 24.42 12.25 24.48 12.33Z" fill="#AE3F27" fill-opacity="1.000000" fill-rule="nonzero"/>
	<path id="path" d="M23.63 12.85C22.48 13.29 21.31 13.69 20.15 14.1C20.02 14.15 19.87 14.17 19.73 14.17C19.53 14.18 19.46 14.06 19.59 13.91C19.84 13.63 20.1 13.36 20.38 13.11C20.65 12.87 20.95 12.66 21.24 12.43C21.31 12.37 21.38 12.31 21.44 12.24C21.49 12.19 21.5 12.11 21.53 12.05C21.47 12.03 21.4 11.98 21.34 11.99C20.9 12.07 20.45 12.15 20.02 12.26C18.61 12.65 17.21 13.06 15.8 13.46C15.64 13.5 15.46 13.5 15.29 13.52C15.28 13.49 15.27 13.46 15.25 13.43C15.35 13.34 15.43 13.23 15.54 13.16C16.3 12.68 17.05 12.18 17.84 11.75C19.84 10.66 21.86 9.59 23.88 8.55C24.3 8.33 24.79 8.25 25.25 8.14C27.12 7.72 28.71 6.79 30.16 5.57C30.43 5.34 30.69 5.11 30.96 4.88C30.98 4.89 31 4.9 31.02 4.91C30.99 4.97 30.96 5.04 30.93 5.1C30.35 6.08 29.69 6.99 28.94 7.84C27.81 9.11 26.6 10.29 25.2 11.26C24.9 11.46 24.58 11.62 24.28 11.81C24.21 11.85 24.16 11.92 24.1 11.98C24.16 12.03 24.22 12.08 24.29 12.14C24.35 12.19 24.42 12.25 24.48 12.33C24.2 12.52 23.93 12.74 23.63 12.85Z" fill="#000000" fill-opacity="0" fill-rule="nonzero"/>
	<path id="path" d="M20.15 14.1C20.02 14.15 19.87 14.17 19.73 14.17C19.53 14.18 19.46 14.06 19.59 13.91C19.84 13.63 20.1 13.36 20.38 13.11C20.65 12.87 20.95 12.66 21.24 12.43C21.31 12.37 21.38 12.31 21.44 12.24C21.49 12.19 21.5 12.11 21.53 12.05C21.47 12.03 21.4 11.98 21.34 11.99C20.9 12.07 20.45 12.15 20.02 12.26C18.61 12.65 17.21 13.06 15.8 13.46C15.64 13.5 15.46 13.5 15.29 13.52C15.28 13.49 15.27 13.46 15.25 13.43C15.35 13.34 15.43 13.23 15.54 13.16C16.3 12.68 17.05 12.18 17.84 11.75C19.84 10.66 21.86 9.59 23.88 8.55C24.3 8.33 24.79 8.25 25.25 8.14C27.12 7.72 28.71 6.79 30.16 5.57C30.43 5.34 30.69 5.11 30.96 4.88C30.98 4.89 31 4.9 31.02 4.91C30.99 4.97 30.96 5.04 30.93 5.1C30.35 6.08 29.69 6.99 28.94 7.84C27.81 9.11 26.6 10.29 25.2 11.26C24.9 11.46 24.58 11.62 24.28 11.81C24.21 11.85 24.16 11.92 24.1 11.98C24.16 12.03 24.22 12.08 24.29 12.14C24.35 12.19 24.42 12.25 24.48 12.33C24.2 12.52 23.93 12.74 23.63 12.85C22.48 13.29 21.31 13.69 20.15 14.1Z" stroke="#000000" stroke-opacity="0" stroke-width="0.999998"/>
	<path id="path" d="M39.12 19.56C38 18.02 38.17 16.4 38.79 14.72C38.9 14.83 38.99 14.92 39.07 15.02C39.99 16.06 40.78 17.19 41.3 18.49C41.6 19.24 41.73 20 41.57 20.81C41.33 22.01 41.13 23.23 40.9 24.43C40.85 24.69 40.75 24.93 40.67 25.18C40.61 25.35 40.5 25.46 40.31 25.49C39.94 25.55 39.56 25.64 39.18 25.7C39.1 25.71 38.96 25.67 38.92 25.6C38.89 25.54 38.93 25.4 38.98 25.33C39.24 25.01 39.49 24.69 39.77 24.4C40.17 23.99 40.31 23.5 40.34 22.94C40.41 21.9 40.12 20.98 39.52 20.15C39.39 19.96 39.26 19.76 39.12 19.56Z" fill="#AE3F27" fill-opacity="1.000000" fill-rule="nonzero"/>
	<path id="path" d="M38.79 14.72C38.9 14.83 38.99 14.92 39.07 15.02C39.99 16.06 40.78 17.19 41.3 18.49C41.6 19.24 41.73 20 41.57 20.81C41.33 22.01 41.13 23.23 40.9 24.43C40.85 24.69 40.75 24.93 40.67 25.18C40.61 25.35 40.5 25.46 40.31 25.49C39.94 25.55 39.56 25.64 39.18 25.7C39.1 25.71 38.96 25.67 38.92 25.6C38.89 25.54 38.93 25.4 38.98 25.33C39.24 25.01 39.49 24.69 39.77 24.4C40.17 23.99 40.31 23.5 40.34 22.94C40.41 21.9 40.12 20.98 39.52 20.15C39.39 19.96 39.26 19.76 39.12 19.56C38 18.02 38.17 16.4 38.79 14.72Z" fill="#000000" fill-opacity="0" fill-rule="nonzero"/>
	<path id="path" d="M39.07 15.02C39.99 16.06 40.78 17.19 41.3 18.49C41.6 19.24 41.73 20 41.57 20.81C41.33 22.01 41.13 23.23 40.9 24.43C40.85 24.69 40.75 24.93 40.67 25.18C40.61 25.35 40.5 25.46 40.31 25.49C39.94 25.55 39.56 25.64 39.18 25.7C39.1 25.71 38.96 25.67 38.92 25.6C38.89 25.54 38.93 25.4 38.98 25.33C39.24 25.01 39.49 24.69 39.77 24.4C40.17 23.99 40.31 23.5 40.34 22.94C40.41 21.9 40.12 20.98 39.52 20.15C39.39 19.96 39.26 19.76 39.12 19.56C38 18.02 38.17 16.4 38.79 14.72C38.9 14.83 38.99 14.92 39.07 15.02Z" stroke="#000000" stroke-opacity="0" stroke-width="0.999998"/>
	<path id="path" d="M7.55 33.77C6.91 30.78 7.89 28.31 9.82 26.13C9.84 26.13 9.86 26.14 9.88 26.14C9.86 26.25 9.83 26.35 9.81 26.46C9.78 26.56 9.76 26.67 9.74 26.78C9.51 27.87 9.27 28.95 9.07 30.05C8.92 30.82 8.84 31.61 8.93 32.4C8.98 32.79 9.1 33.18 9.28 33.53C9.67 34.3 9.84 35.11 9.86 35.95C9.89 36.59 9.85 37.23 9.81 37.88C8.72 36.69 7.92 35.36 7.55 33.77Z" fill="#1D1C1C" fill-opacity="1.000000" fill-rule="nonzero"/>
	<path id="path" d="M9.82 26.13C9.84 26.13 9.86 26.14 9.88 26.14C9.86 26.25 9.83 26.35 9.81 26.46C9.78 26.56 9.76 26.67 9.74 26.78C9.51 27.87 9.27 28.95 9.07 30.05C8.92 30.82 8.84 31.61 8.93 32.4C8.98 32.79 9.1 33.18 9.28 33.53C9.67 34.3 9.84 35.11 9.86 35.95C9.89 36.59 9.85 37.23 9.81 37.88C8.72 36.69 7.92 35.36 7.55 33.77C6.91 30.78 7.89 28.31 9.82 26.13Z" fill="#000000" fill-opacity="0" fill-rule="nonzero"/>
	<path id="path" d="M9.88 26.14C9.86 26.25 9.83 26.35 9.81 26.46C9.78 26.56 9.76 26.67 9.74 26.78C9.51 27.87 9.27 28.95 9.07 30.05C8.92 30.82 8.84 31.61 8.93 32.4C8.98 32.79 9.1 33.18 9.28 33.53C9.67 34.3 9.84 35.11 9.86 35.95C9.89 36.59 9.85 37.23 9.81 37.88C8.72 36.69 7.92 35.36 7.55 33.77C6.91 30.78 7.89 28.31 9.82 26.13C9.84 26.13 9.86 26.14 9.88 26.14Z" stroke="#000000" stroke-opacity="0" stroke-width="0.999998"/>
	<path id="path" d="M37.75 39.25C37.59 39.49 37.43 39.73 37.25 39.95C36.5 40.79 35.76 41.63 35 42.46C34.51 43.01 34.01 43.56 33.48 44.08C32.61 44.93 31.65 45.68 30.64 46.35C29.51 47.09 28.36 47.79 27.22 48.5C27.16 48.54 27.09 48.57 27.01 48.59C27.13 48.46 27.25 48.31 27.4 48.19C28.99 46.9 30.61 45.66 32.16 44.33C33.67 43.03 35.09 41.63 36.56 40.28C36.94 39.92 37.34 39.59 37.75 39.25Z" fill="#1C1C1B" fill-opacity="1.000000" fill-rule="nonzero"/>
	<path id="path" d="M37.25 39.95C36.5 40.79 35.76 41.63 35 42.46C34.51 43.01 34.01 43.56 33.48 44.08C32.61 44.93 31.65 45.68 30.64 46.35C29.51 47.09 28.36 47.79 27.22 48.5C27.16 48.54 27.09 48.57 27.01 48.59C27.13 48.46 27.25 48.31 27.4 48.19C28.99 46.9 30.61 45.66 32.16 44.33C33.67 43.03 35.09 41.63 36.56 40.28C36.94 39.92 37.34 39.59 37.75 39.25C37.59 39.49 37.43 39.73 37.25 39.95Z" fill="#000000" fill-opacity="0" fill-rule="nonzero"/>
	<path id="path" d="M35 42.46C34.51 43.01 34.01 43.56 33.48 44.08C32.61 44.93 31.65 45.68 30.64 46.35C29.51 47.09 28.36 47.79 27.22 48.5C27.16 48.54 27.09 48.57 27.01 48.59C27.13 48.46 27.25 48.31 27.4 48.19C28.99 46.9 30.61 45.66 32.16 44.33C33.67 43.03 35.09 41.63 36.56 40.28C36.94 39.92 37.34 39.59 37.75 39.25C37.59 39.49 37.43 39.73 37.25 39.95C36.5 40.79 35.76 41.63 35 42.46Z" stroke="#000000" stroke-opacity="0" stroke-width="0.999998"/>
	<path id="path" d="M29.03 12.34C28.78 12.22 28.74 12.13 28.82 11.89C28.96 11.49 29.26 11.21 29.57 10.95C30.2 10.41 30.89 9.97 31.7 9.75C31.88 9.7 32.07 9.67 32.25 9.68C32.56 9.69 32.67 9.89 32.55 10.18C32.48 10.34 32.39 10.49 32.28 10.62C31.54 11.44 30.65 12.02 29.59 12.31C29.42 12.35 29.23 12.34 29.03 12.34Z" fill="#AE3F27" fill-opacity="1.000000" fill-rule="nonzero"/>
	<path id="path" d="M28.82 11.89C28.96 11.49 29.26 11.21 29.57 10.95C30.2 10.41 30.89 9.97 31.7 9.75C31.88 9.7 32.07 9.67 32.25 9.68C32.56 9.69 32.67 9.89 32.55 10.18C32.48 10.34 32.39 10.49 32.28 10.62C31.54 11.44 30.65 12.02 29.59 12.31C29.42 12.35 29.23 12.34 29.03 12.34C28.78 12.22 28.74 12.13 28.82 11.89Z" fill="#000000" fill-opacity="0" fill-rule="nonzero"/>
	<path id="path" d="M29.57 10.95C30.2 10.41 30.89 9.97 31.7 9.75C31.88 9.7 32.07 9.67 32.25 9.68C32.56 9.69 32.67 9.89 32.55 10.18C32.48 10.34 32.39 10.49 32.28 10.62C31.54 11.44 30.65 12.02 29.59 12.31C29.42 12.35 29.23 12.34 29.03 12.34C28.78 12.22 28.74 12.13 28.82 11.89C28.96 11.49 29.26 11.21 29.57 10.95Z" stroke="#000000" stroke-opacity="0" stroke-width="0.999998"/>
	<path id="path" d="M10.33 25.94C10.48 25.18 10.85 24.56 11.28 23.97C11.74 23.33 12.22 22.7 12.69 22.06C12.71 22.04 12.73 22.03 12.79 21.99C12.72 22.65 12.63 23.28 12.36 23.85C12.13 24.35 11.84 24.83 11.56 25.3C11.16 25.98 10.74 26.65 10.34 27.31C10.25 26.89 10.24 26.42 10.33 25.94Z" fill="#1E1D1C" fill-opacity="1.000000" fill-rule="nonzero"/>
	<path id="path" d="M11.28 23.97C11.74 23.33 12.22 22.7 12.69 22.06C12.71 22.04 12.73 22.03 12.79 21.99C12.72 22.65 12.63 23.28 12.36 23.85C12.13 24.35 11.84 24.83 11.56 25.3C11.16 25.98 10.74 26.65 10.34 27.31C10.25 26.89 10.24 26.42 10.33 25.94C10.48 25.18 10.85 24.56 11.28 23.97Z" fill="#000000" fill-opacity="0" fill-rule="nonzero"/>
	<path id="path" d="M12.69 22.06C12.71 22.04 12.73 22.03 12.79 21.99C12.72 22.65 12.63 23.28 12.36 23.85C12.13 24.35 11.84 24.83 11.56 25.3C11.16 25.98 10.74 26.65 10.34 27.31C10.25 26.89 10.24 26.42 10.33 25.94C10.48 25.18 10.85 24.56 11.28 23.97C11.74 23.33 12.22 22.7 12.69 22.06Z" stroke="#000000" stroke-opacity="0" stroke-width="0.999998"/>
	<path id="path" d="M33.02 17.06C33.13 17.21 33.25 17.35 33.32 17.5C33.62 18.13 33.9 18.77 34.18 19.41C34.21 19.49 34.24 19.59 34.23 19.68C34.23 19.73 34.17 19.8 34.12 19.82C34.09 19.84 34.02 19.79 33.99 19.76C33.39 18.96 32.64 18.31 31.89 17.67C31.64 17.46 31.4 17.23 31.15 17C31.49 16.61 32.47 16.55 33.02 17.06Z" fill="#AE4028" fill-opacity="1.000000" fill-rule="nonzero"/>
	<path id="path" d="M33.32 17.5C33.62 18.13 33.9 18.77 34.18 19.41C34.21 19.49 34.24 19.59 34.23 19.68C34.23 19.73 34.17 19.8 34.12 19.82C34.09 19.84 34.02 19.79 33.99 19.76C33.39 18.96 32.64 18.31 31.89 17.67C31.64 17.46 31.4 17.23 31.15 17C31.49 16.61 32.47 16.55 33.02 17.06C33.13 17.21 33.25 17.35 33.32 17.5Z" fill="#000000" fill-opacity="0" fill-rule="nonzero"/>
	<path id="path" d="M34.18 19.41C34.21 19.49 34.24 19.59 34.23 19.68C34.23 19.73 34.17 19.8 34.12 19.82C34.09 19.84 34.02 19.79 33.99 19.76C33.39 18.96 32.64 18.31 31.89 17.67C31.64 17.46 31.4 17.23 31.15 17C31.49 16.61 32.47 16.55 33.02 17.06C33.13 17.21 33.25 17.35 33.32 17.5C33.62 18.13 33.9 18.77 34.18 19.41Z" stroke="#000000" stroke-opacity="0" stroke-width="0.999998"/>
	<path id="path" d="M37.75 39.23C37.77 39.23 37.77 39.25 37.77 39.26C37.75 39.26 37.74 39.25 37.75 39.23Z" fill="#1C1C1B" fill-opacity="1.000000" fill-rule="nonzero"/>
	<path id="path" d="M37.77 39.26C37.75 39.26 37.74 39.25 37.75 39.23C37.77 39.23 37.77 39.25 37.77 39.26Z" fill="#000000" fill-opacity="0" fill-rule="nonzero"/>
	<path id="path" d="M37.75 39.23C37.77 39.23 37.77 39.25 37.77 39.26C37.75 39.26 37.74 39.25 37.75 39.23Z" stroke="#000000" stroke-opacity="0" stroke-width="0.999998"/>
	<path id="path" d="M26.99 48.59C26.99 48.6 26.98 48.61 26.96 48.63C26.96 48.62 26.97 48.6 26.99 48.59Z" fill="#1C1C1B" fill-opacity="1.000000" fill-rule="nonzero"/>
	<path id="path" d="M26.96 48.63C26.96 48.62 26.97 48.6 26.99 48.59C26.99 48.6 26.98 48.61 26.96 48.63Z" fill="#000000" fill-opacity="0" fill-rule="nonzero"/>
	<path id="path" d="M26.99 48.59C26.99 48.6 26.98 48.61 26.96 48.63C26.96 48.62 26.97 48.6 26.99 48.59Z" stroke="#000000" stroke-opacity="0" stroke-width="0.999998"/>
	<path id="path" d="M19.1 38.82C19.04 39.07 18.99 39.32 18.91 39.57C18.77 40.07 18.78 40.56 18.91 41.06C18.92 41.08 18.92 41.1 18.93 41.12C19 41.29 19.71 41.5 19.86 41.39C20.39 41.02 20.67 40.48 20.9 39.89C21.3 38.85 21.69 37.8 22.1 36.75C22.21 36.45 22.17 36.41 22.55 36.54C22.93 36.67 23.32 36.79 23.71 36.9C24.11 37.01 24.26 36.93 24.43 36.55C24.49 36.42 24.55 36.28 24.59 36.15C24.63 35.99 24.71 35.97 24.86 36.01C25.73 36.26 26.61 36.49 27.48 36.73C28.62 37.03 29.77 37.33 30.91 37.63C30.93 37.64 30.95 37.65 31 37.68C30.93 37.74 30.88 37.79 30.83 37.83C29.61 38.69 28.3 39.38 26.96 40.01C25.83 40.54 24.7 41.08 23.48 41.36C22.69 41.54 21.89 41.76 21.09 41.77C19.59 41.79 18.15 41.4 16.77 40.82C16.75 40.82 16.75 40.8 16.71 40.76C17.56 40.22 18.42 39.68 19.05 38.83C19.08 38.82 19.09 38.82 19.1 38.82Z" fill="#F0C284" fill-opacity="1.000000" fill-rule="nonzero"/>
	<path id="path" d="M18.91 39.57C18.77 40.07 18.78 40.56 18.91 41.06C18.92 41.08 18.92 41.1 18.93 41.12C19 41.29 19.71 41.5 19.86 41.39C20.39 41.02 20.67 40.48 20.9 39.89C21.3 38.85 21.69 37.8 22.1 36.75C22.21 36.45 22.17 36.41 22.55 36.54C22.93 36.67 23.32 36.79 23.71 36.9C24.11 37.01 24.26 36.93 24.43 36.55C24.49 36.42 24.55 36.28 24.59 36.15C24.63 35.99 24.71 35.97 24.86 36.01C25.73 36.26 26.61 36.49 27.48 36.73C28.62 37.03 29.77 37.33 30.91 37.63C30.93 37.64 30.95 37.65 31 37.68C30.93 37.74 30.88 37.79 30.83 37.83C29.61 38.69 28.3 39.38 26.96 40.01C25.83 40.54 24.7 41.08 23.48 41.36C22.69 41.54 21.89 41.76 21.09 41.77C19.59 41.79 18.15 41.4 16.77 40.82C16.75 40.82 16.75 40.8 16.71 40.76C17.56 40.22 18.42 39.68 19.05 38.83C19.08 38.82 19.09 38.82 19.1 38.82C19.04 39.07 18.99 39.32 18.91 39.57Z" fill="#000000" fill-opacity="0" fill-rule="nonzero"/>
	<path id="path" d="M18.91 41.06C18.92 41.08 18.92 41.1 18.93 41.12C19 41.29 19.71 41.5 19.86 41.39C20.39 41.02 20.67 40.48 20.9 39.89C21.3 38.85 21.69 37.8 22.1 36.75C22.21 36.45 22.17 36.41 22.55 36.54C22.93 36.67 23.32 36.79 23.71 36.9C24.11 37.01 24.26 36.93 24.43 36.55C24.49 36.42 24.55 36.28 24.59 36.15C24.63 35.99 24.71 35.97 24.86 36.01C25.73 36.26 26.61 36.49 27.48 36.73C28.62 37.03 29.77 37.33 30.91 37.63C30.93 37.64 30.95 37.65 31 37.68C30.93 37.74 30.88 37.79 30.83 37.83C29.61 38.69 28.3 39.38 26.96 40.01C25.83 40.54 24.7 41.08 23.48 41.36C22.69 41.54 21.89 41.76 21.09 41.77C19.59 41.79 18.15 41.4 16.77 40.82C16.75 40.82 16.75 40.8 16.71 40.76C17.56 40.22 18.42 39.68 19.05 38.83C19.08 38.82 19.09 38.82 19.1 38.82C19.04 39.07 18.99 39.32 18.91 39.57C18.77 40.07 18.78 40.56 18.91 41.06Z" stroke="#000000" stroke-opacity="0" stroke-width="0.999998"/>
	<path id="path" d="M19.1 38.8C19.09 38.82 19.08 38.82 19.06 38.83C18.99 38.83 18.92 38.82 18.88 38.84C17.92 39.33 16.97 39.82 16.01 40.3C15.91 40.35 15.76 40.35 15.66 40.31C15.03 40 14.42 39.64 13.9 39.15C13.83 39.08 13.76 39.01 13.7 38.93C13.1 38.21 13.08 37.52 13.65 36.79C14.18 36.12 14.87 35.65 15.65 35.27C16.42 35.71 17.22 35.99 18.05 36.16C18.63 36.29 19.23 36.36 19.82 36.46C19.61 37.15 19.41 37.84 19.2 38.53C19.17 38.62 19.14 38.7 19.1 38.8Z" fill="#E8C688" fill-opacity="1.000000" fill-rule="nonzero"/>
	<path id="path" d="M19.06 38.83C18.99 38.83 18.92 38.82 18.88 38.84C17.92 39.33 16.97 39.82 16.01 40.3C15.91 40.35 15.76 40.35 15.66 40.31C15.03 40 14.42 39.64 13.9 39.15C13.83 39.08 13.76 39.01 13.7 38.93C13.1 38.21 13.08 37.52 13.65 36.79C14.18 36.12 14.87 35.65 15.65 35.27C16.42 35.71 17.22 35.99 18.05 36.16C18.63 36.29 19.23 36.36 19.82 36.46C19.61 37.15 19.41 37.84 19.2 38.53C19.17 38.62 19.14 38.7 19.1 38.8C19.09 38.82 19.08 38.82 19.06 38.83Z" fill="#000000" fill-opacity="0" fill-rule="nonzero"/>
	<path id="path" d="M18.88 38.84C17.92 39.33 16.97 39.82 16.01 40.3C15.91 40.35 15.76 40.35 15.66 40.31C15.03 40 14.42 39.64 13.9 39.15C13.83 39.08 13.76 39.01 13.7 38.93C13.1 38.21 13.08 37.52 13.65 36.79C14.18 36.12 14.87 35.65 15.65 35.27C16.42 35.71 17.22 35.99 18.05 36.16C18.63 36.29 19.23 36.36 19.82 36.46C19.61 37.15 19.41 37.84 19.2 38.53C19.17 38.62 19.14 38.7 19.1 38.8C19.09 38.82 19.08 38.82 19.06 38.83C18.99 38.83 18.92 38.82 18.88 38.84Z" stroke="#000000" stroke-opacity="0" stroke-width="0.999998"/>
	<path id="path" d="M19.83 36.45C19.23 36.36 18.63 36.29 18.05 36.16C17.22 35.99 16.42 35.71 15.66 35.27C16.08 35.04 16.49 34.79 16.93 34.61C17.7 34.3 18.49 34.03 19.27 33.75C19.34 33.72 19.41 33.72 19.53 33.69C19.41 34.02 19.3 34.31 19.2 34.59C19.16 34.68 19.13 34.76 19.1 34.86C19.04 35.11 19.12 35.28 19.36 35.38C19.53 35.46 19.71 35.52 19.89 35.58C20.02 35.62 20.06 35.7 20.02 35.83C19.95 36.03 19.9 36.24 19.83 36.45Z" fill="#AC3F28" fill-opacity="1.000000" fill-rule="nonzero"/>
	<path id="path" d="M18.05 36.16C17.22 35.99 16.42 35.71 15.66 35.27C16.08 35.04 16.49 34.79 16.93 34.61C17.7 34.3 18.49 34.03 19.27 33.75C19.34 33.72 19.41 33.72 19.53 33.69C19.41 34.02 19.3 34.31 19.2 34.59C19.16 34.68 19.13 34.76 19.1 34.86C19.04 35.11 19.12 35.28 19.36 35.38C19.53 35.46 19.71 35.52 19.89 35.58C20.02 35.62 20.06 35.7 20.02 35.83C19.95 36.03 19.9 36.24 19.83 36.45C19.23 36.36 18.63 36.29 18.05 36.16Z" fill="#000000" fill-opacity="0" fill-rule="nonzero"/>
	<path id="path" d="M15.66 35.27C16.08 35.04 16.49 34.79 16.93 34.61C17.7 34.3 18.49 34.03 19.27 33.75C19.34 33.72 19.41 33.72 19.53 33.69C19.41 34.02 19.3 34.31 19.2 34.59C19.16 34.68 19.13 34.76 19.1 34.86C19.04 35.11 19.12 35.28 19.36 35.38C19.53 35.46 19.71 35.52 19.89 35.58C20.02 35.62 20.06 35.7 20.02 35.83C19.95 36.03 19.9 36.24 19.83 36.45C19.23 36.36 18.63 36.29 18.05 36.16C17.22 35.99 16.42 35.71 15.66 35.27Z" stroke="#000000" stroke-opacity="0" stroke-width="0.999998"/>
	<path id="path" d="M18.24 41.98C17.01 41.99 15.8 41.91 14.58 41.75C14.92 41.62 15.26 41.48 15.59 41.34C15.77 41.26 15.95 41.19 16.12 41.08C16.28 40.99 16.41 41 16.57 41.07C17.42 41.43 18.29 41.71 19.2 41.88C19.25 41.89 19.31 41.91 19.36 41.92C19.36 41.94 19.36 41.96 19.36 41.98C18.99 41.98 18.63 41.98 18.24 41.98Z" fill="#E1C184" fill-opacity="1.000000" fill-rule="nonzero"/>
	<path id="path" d="M14.58 41.75C14.92 41.62 15.26 41.48 15.59 41.34C15.77 41.26 15.95 41.19 16.12 41.08C16.28 40.99 16.41 41 16.57 41.07C17.42 41.43 18.29 41.71 19.2 41.88C19.25 41.89 19.31 41.91 19.36 41.92C19.36 41.94 19.36 41.96 19.36 41.98C18.99 41.98 18.63 41.98 18.24 41.98C17.01 41.99 15.8 41.91 14.58 41.75Z" fill="#000000" fill-opacity="0" fill-rule="nonzero"/>
	<path id="path" d="M15.59 41.34C15.77 41.26 15.95 41.19 16.12 41.08C16.28 40.99 16.41 41 16.57 41.07C17.42 41.43 18.29 41.71 19.2 41.88C19.25 41.89 19.31 41.91 19.36 41.92C19.36 41.94 19.36 41.96 19.36 41.98C18.99 41.98 18.63 41.98 18.24 41.98C17.01 41.99 15.8 41.91 14.58 41.75C14.92 41.62 15.26 41.48 15.59 41.34Z" stroke="#000000" stroke-opacity="0" stroke-width="0.999998"/>
	<path id="path" d="M23.67 21.69C24.04 21.34 24.85 21.4 25.32 21.71C24.51 21.83 23.81 22.11 23.24 22.7C23.26 22.3 23.38 21.96 23.67 21.69Z" fill="#A73D27" fill-opacity="1.000000" fill-rule="nonzero"/>
	<path id="path" d="M25.32 21.71C24.51 21.83 23.81 22.11 23.24 22.7C23.26 22.3 23.38 21.96 23.67 21.69C24.04 21.34 24.85 21.4 25.32 21.71Z" fill="#000000" fill-opacity="0" fill-rule="nonzero"/>
	<path id="path" d="M23.24 22.7C23.26 22.3 23.38 21.96 23.67 21.69C24.04 21.34 24.85 21.4 25.32 21.71C24.51 21.83 23.81 22.11 23.24 22.7Z" stroke="#000000" stroke-opacity="0" stroke-width="0.999998"/>
	<path id="path" d="M15.41 7.61C14.04 8.52 12.68 9.42 11.31 10.32C11.29 10.33 11.26 10.34 11.19 10.31C11.25 10.18 11.3 10.04 11.4 9.93C11.82 9.48 12.24 9.01 12.7 8.59C13.65 7.71 14.71 6.99 15.91 6.49C16.03 6.45 16.16 6.4 16.28 6.38C16.36 6.37 16.45 6.4 16.53 6.41C16.5 6.5 16.5 6.6 16.45 6.67C16.34 6.81 16.22 6.94 16.08 7.06C15.87 7.25 15.65 7.42 15.41 7.61Z" fill="#E4C385" fill-opacity="1.000000" fill-rule="nonzero"/>
	<path id="path" d="M11.31 10.32C11.29 10.33 11.26 10.34 11.19 10.31C11.25 10.18 11.3 10.04 11.4 9.93C11.82 9.48 12.24 9.01 12.7 8.59C13.65 7.71 14.71 6.99 15.91 6.49C16.03 6.45 16.16 6.4 16.28 6.38C16.36 6.37 16.45 6.4 16.53 6.41C16.5 6.5 16.5 6.6 16.45 6.67C16.34 6.81 16.22 6.94 16.08 7.06C15.87 7.25 15.65 7.42 15.41 7.61C14.04 8.52 12.68 9.42 11.31 10.32Z" fill="#000000" fill-opacity="0" fill-rule="nonzero"/>
	<path id="path" d="M11.19 10.31C11.25 10.18 11.3 10.04 11.4 9.93C11.82 9.48 12.24 9.01 12.7 8.59C13.65 7.71 14.71 6.99 15.91 6.49C16.03 6.45 16.16 6.4 16.28 6.38C16.36 6.37 16.45 6.4 16.53 6.41C16.5 6.5 16.5 6.6 16.45 6.67C16.34 6.81 16.22 6.94 16.08 7.06C15.87 7.25 15.65 7.42 15.41 7.61C14.04 8.52 12.68 9.42 11.31 10.32C11.29 10.33 11.26 10.34 11.19 10.31Z" stroke="#000000" stroke-opacity="0" stroke-width="0.999998"/>
	<path id="path" d="M22.49 3.95C22.48 3.97 22.45 3.98 22.43 3.99C22.43 3.97 22.44 3.95 22.45 3.93C22.47 3.93 22.48 3.94 22.49 3.95Z" fill="#F1C285" fill-opacity="1.000000" fill-rule="nonzero"/>
	<path id="path" d="M22.43 3.99C22.43 3.97 22.44 3.95 22.45 3.93C22.47 3.93 22.48 3.94 22.49 3.95C22.48 3.97 22.45 3.98 22.43 3.99Z" fill="#000000" fill-opacity="0" fill-rule="nonzero"/>
	<path id="path" d="M22.45 3.93C22.47 3.93 22.48 3.94 22.49 3.95C22.48 3.97 22.45 3.98 22.43 3.99C22.43 3.97 22.44 3.95 22.45 3.93Z" stroke="#000000" stroke-opacity="0" stroke-width="0.999998"/>
	<path id="path" d="M38.54 7.43C38.53 7.55 38.54 7.71 38.49 7.74C38.41 7.79 38.26 7.77 38.17 7.72C37.59 7.44 37.29 6.94 37.11 6.34C37.07 6.19 37.04 6.02 37.04 5.85C37.05 5.62 37.2 5.55 37.4 5.67C37.48 5.71 37.54 5.77 37.6 5.83C38.03 6.29 38.34 6.82 38.54 7.43Z" fill="#E4C385" fill-opacity="1.000000" fill-rule="nonzero"/>
	<path id="path" d="M38.49 7.74C38.41 7.79 38.26 7.77 38.17 7.72C37.59 7.44 37.29 6.94 37.11 6.34C37.07 6.19 37.04 6.02 37.04 5.85C37.05 5.62 37.2 5.55 37.4 5.67C37.48 5.71 37.54 5.77 37.6 5.83C38.03 6.29 38.34 6.82 38.54 7.43C38.53 7.55 38.54 7.71 38.49 7.74Z" fill="#000000" fill-opacity="0" fill-rule="nonzero"/>
	<path id="path" d="M38.17 7.72C37.59 7.44 37.29 6.94 37.11 6.34C37.07 6.19 37.04 6.02 37.04 5.85C37.05 5.62 37.2 5.55 37.4 5.67C37.48 5.71 37.54 5.77 37.6 5.83C38.03 6.29 38.34 6.82 38.54 7.43C38.53 7.55 38.54 7.71 38.49 7.74C38.41 7.79 38.26 7.77 38.17 7.72Z" stroke="#000000" stroke-opacity="0" stroke-width="0.999998"/>
</svg>
