<svg width="50.000000" height="50.000000" viewBox="0 0 50 50" fill="none" xmlns="http://www.w3.org/2000/svg" xmlns:xlink="http://www.w3.org/1999/xlink">
	<desc>
			Created with Pixso.
	</desc>
	<defs/>
	<circle id="Эллипс 5" cx="25.000000" cy="25.000000" r="25.000000" fill="#FFFFFF" fill-opacity="1.000000"/>
	<path id="path" d="M17.14 45.04C6.07 40.71 0.61 28.2 4.94 17.13L5.18 17.26C5.3 17.31 5.45 17.35 5.58 17.33C5.99 17.29 6.32 16.91 6.28 16.49L5.98 12.85C5.96 12.74 5.94 12.63 5.88 12.54C5.69 12.16 5.21 12.04 4.83 12.25L1.5 14.1C1.35 14.17 1.24 14.3 1.19 14.43C1.01 14.81 1.15 15.28 1.53 15.46L1.82 15.61C-0.24 20.72 -0.57 26.35 0.9 31.67C4.58 44.97 18.36 52.76 31.66 49.08C44.97 45.4 52.76 31.63 49.08 18.32C45.4 5.02 31.63 -2.77 18.32 0.91L19.25 4.24C20.79 3.81 22.38 3.55 23.98 3.48C35.87 2.92 45.95 12.11 46.51 23.98C47.07 35.85 37.88 45.95 26.01 46.51C22.98 46.65 19.95 46.15 17.14 45.04ZM16.74 1.4C15.28 1.9 13.88 2.56 12.54 3.32L14.24 6.33C15.4 5.66 16.62 5.11 17.87 4.66L16.74 1.4ZM8.68 6.07C9.49 5.38 10.34 4.73 11.23 4.15L13.14 7.03C12.37 7.54 11.63 8.1 10.94 8.7L8.68 6.07Z" fill="#FB1600" fill-opacity="1.000000" fill-rule="nonzero"/>
	<path id="path" d="M36.22 11.38C31.96 12.24 28.03 14.39 24.95 17.56C23.64 16.2 22.2 14.99 20.64 13.94C18.47 12.52 15.98 11.42 13.45 11.25C12.17 11.16 11.06 12.15 10.97 13.47C10.97 13.53 10.97 13.59 10.97 13.64L10.97 33.77C10.97 35.08 11.99 36.15 13.25 36.2C15.3 36.33 17.34 36.69 19.33 37.25C20.29 37.51 21.22 37.88 22.13 38.31C22.93 38.72 24.95 41.25 24.95 41.25C24.95 41.25 27.01 38.74 27.84 38.33C28.77 37.88 29.74 37.53 30.72 37.25C32.69 36.69 34.71 36.33 36.74 36.18C38.02 36.13 39.02 35.06 39.02 33.76L39.02 13.75C39.02 12.43 37.98 11.34 36.69 11.34C36.51 11.33 36.36 11.34 36.22 11.38ZM35.52 32.73C33.58 32.93 31.65 33.31 29.77 33.85C28.59 34.19 27.42 34.62 26.31 35.16C25.86 35.38 25.4 35.64 24.99 35.94C24.57 35.64 24.15 35.38 23.69 35.16C22.6 34.62 21.45 34.19 20.29 33.85C18.38 33.29 16.43 32.92 14.47 32.73L14.47 14.99C15.87 15.3 17.34 15.99 18.78 16.93C20.98 18.37 23.78 20.98 25.02 23.32C25.55 24.19 25.86 24.96 25.95 25.48C26.01 25.78 25.91 26.79 25.15 26.79C24.39 26.79 24.24 25.74 24.29 25.45C24.31 25.37 24.33 25.24 24.39 25.07C24.57 24.36 24.46 23.61 24.06 23.02C23.57 22.27 23 21.56 22.4 20.91C21.6 22.29 21.04 23.8 20.87 24.94C20.71 26.12 20.96 27.33 21.56 28.34C22.33 29.63 23.69 30.39 25.17 30.36C26.64 30.39 28.01 29.61 28.77 28.32C29.37 27.29 29.59 26.08 29.39 24.88C29.15 23.43 28.34 21.82 27.24 20.27C29.52 17.84 32.39 16.09 35.56 15.19L35.52 32.73Z" fill="#0A4D8D" fill-opacity="1.000000" fill-rule="nonzero"/>
</svg>
