<svg width="50.041115" height="50.000000" viewBox="0 0 50.0411 50" fill="none" xmlns="http://www.w3.org/2000/svg" xmlns:xlink="http://www.w3.org/1999/xlink">
	<desc>
			Created with Pixso.
	</desc>
	<defs/>
	<path id="path" d="M5.18 28.44L44.85 28.44L44.85 47.41C44.85 48.12 44.59 48.73 44.09 49.24C43.58 49.74 42.98 50 42.26 50L7.77 50C7.06 50 6.45 49.74 5.94 49.24C5.44 48.73 5.18 48.12 5.18 47.41L5.18 28.44Z" fill="#F29C1F" fill-opacity="1.000000" fill-rule="nonzero"/>
	<path id="path" d="M48.3 30.17L1.73 30.17C1.04 30.17 0.53 29.85 0.21 29.24C-0.11 28.62 -0.07 28.02 0.33 27.45L3.95 22.28C4.27 21.82 4.8 21.55 5.36 21.55L44.68 21.55C45.24 21.55 45.76 21.82 46.08 22.28L49.7 27.45C50.1 28.02 50.14 28.62 49.82 29.24C49.5 29.85 48.99 30.17 48.3 30.17Z" fill="#F3D55B" fill-opacity="1.000000" fill-rule="nonzero"/>
	<path id="path" d="M25.02 0C22.19 -0.01 19.54 0.68 17.07 2.06C15.4 2.99 13.93 4.17 12.68 5.61C11.42 7.05 10.44 8.66 9.75 10.43C9.06 12.21 8.69 14.06 8.64 15.97C8.59 17.87 8.87 19.74 9.47 21.55L25.02 21.55C24.17 21.55 23.38 21.35 22.63 20.96C21.88 20.57 21.26 20.03 20.78 19.34C20.29 18.65 20 17.89 19.89 17.05C19.78 16.21 19.86 15.4 20.15 14.61C20.6 13.4 21.38 12.48 22.51 11.85C23.29 11.41 24.12 11.2 25.02 11.2C25.7 11.2 26.36 11.33 27 11.6C27.63 11.86 28.19 12.23 28.67 12.72C29.16 13.2 29.53 13.76 29.8 14.39C30.06 15.03 30.19 15.69 30.19 16.37C30.19 17.06 30.06 17.72 29.8 18.35C29.53 18.99 29.16 19.55 28.67 20.03C28.19 20.52 27.63 20.89 27 21.15C26.36 21.42 25.7 21.55 25.02 21.55L40.56 21.55C40.97 20.32 41.23 19.05 41.34 17.76C41.45 16.47 41.41 15.18 41.21 13.9C41.01 12.62 40.67 11.38 40.18 10.17C39.69 8.97 39.06 7.85 38.3 6.8C37.54 5.74 36.67 4.79 35.69 3.95C34.7 3.1 33.63 2.39 32.48 1.8C31.32 1.2 30.12 0.76 28.85 0.45C27.59 0.15 26.31 0 25.02 0Z" fill="#B0D3F0" fill-opacity="1.000000" fill-rule="nonzero"/>
	<path id="path" d="M37.95 21.55L25.02 21.55C26.28 21.55 27.4 21.14 28.36 20.32C29.33 19.5 29.92 18.46 30.12 17.21L37.95 21.55ZM22.51 11.85C21.38 12.48 20.6 13.4 20.15 14.61L9.62 10.77C11.02 6.94 13.5 4.04 17.07 2.06L22.51 11.85Z" fill="#90BAE1" fill-opacity="1.000000" fill-rule="nonzero"/>
	<path id="path" d="M25.02 11.2C24.12 11.2 23.29 11.41 22.51 11.85C21.68 12.3 21.03 12.94 20.56 13.75C20.08 14.56 19.84 15.43 19.84 16.37C19.84 17.06 19.97 17.72 20.24 18.35C20.5 18.99 20.87 19.55 21.36 20.03C21.84 20.52 22.4 20.89 23.04 21.15C23.67 21.42 24.33 21.55 25.02 21.55C25.7 21.55 26.36 21.42 27 21.15C27.63 20.89 28.19 20.52 28.67 20.03C29.16 19.55 29.53 18.99 29.8 18.35C30.06 17.72 30.19 17.06 30.19 16.37C30.19 15.69 30.06 15.03 29.8 14.39C29.53 13.76 29.16 13.2 28.67 12.72C28.19 12.23 27.63 11.86 27 11.6C26.36 11.33 25.7 11.2 25.02 11.2ZM25.02 18.1C24.54 18.1 24.13 17.93 23.8 17.59C23.46 17.26 23.29 16.85 23.29 16.37C23.29 15.9 23.46 15.49 23.8 15.16C24.13 14.82 24.54 14.65 25.02 14.65C25.49 14.65 25.9 14.82 26.24 15.16C26.57 15.49 26.74 15.9 26.74 16.37C26.74 16.85 26.57 17.26 26.24 17.59C25.9 17.93 25.49 18.1 25.02 18.1Z" fill="#41767F" fill-opacity="1.000000" fill-rule="nonzero"/>
	<path id="path" d="M19.84 44.82C19.6 44.82 19.4 44.74 19.23 44.57L14.92 40.26C14.51 39.85 14.51 39.45 14.92 39.04L19.23 34.73C19.64 34.34 20.04 34.34 20.44 34.74C20.84 35.14 20.84 35.54 20.45 35.95L16.75 39.65L20.45 43.35C20.72 43.62 20.79 43.94 20.64 44.29C20.49 44.65 20.23 44.82 19.84 44.82ZM30.19 44.82C29.81 44.82 29.54 44.65 29.39 44.29C29.25 43.94 29.31 43.62 29.58 43.35L33.28 39.65L29.58 35.95C29.19 35.54 29.19 35.14 29.59 34.74C29.99 34.34 30.39 34.34 30.8 34.73L35.11 39.04C35.52 39.45 35.52 39.85 35.11 40.26L30.8 44.57C30.63 44.74 30.43 44.82 30.19 44.82ZM23.29 44.82C22.99 44.82 22.75 44.7 22.58 44.44C22.41 44.19 22.38 43.92 22.49 43.64L25.94 35.02C26.15 34.49 26.53 34.33 27.06 34.54C27.59 34.75 27.75 35.13 27.54 35.66L24.09 44.28C23.95 44.64 23.68 44.82 23.29 44.82Z" fill="#F9EAB0" fill-opacity="1.000000" fill-rule="nonzero"/>
</svg>
