<svg width="50" height="50" viewBox="0 0 50 50" fill="none" xmlns="http://www.w3.org/2000/svg">
<path d="M25.5198 32.4738V45.4709C25.5198 47.9713 23.3374 50 20.6443 50H4.87554C2.18245 50 0 47.9712 0 45.4709V32.4738C0 30.0774 2.09126 28.1361 4.66955 28.1361H20.8503C23.4286 28.1361 25.5198 30.0774 25.5198 32.4738Z" fill="#D0E7F2"/>
<path d="M20.8503 28.1361H18.3623C20.9406 28.1361 23.0318 30.0774 23.0318 32.4738V45.4709C23.0318 47.9713 20.8494 50 18.1563 50H20.6443C23.3374 50 25.5198 47.9712 25.5198 45.4709V32.4738C25.5198 30.0774 23.4285 28.1361 20.8503 28.1361Z" fill="#B7D9EB"/>
<path d="M25.5198 30.4819V32.4738H0.00012207V30.4819C0.00012207 28.0855 2.09139 26.1449 4.67 26.1449H20.85C23.4286 26.1449 25.5198 28.0855 25.5198 30.4819Z" fill="#30DDE5"/>
<path d="M25.5198 30.4819V32.4738H23.0322V30.4819C23.0322 28.0855 20.9409 26.1449 18.3623 26.1449H20.8499C23.4286 26.1449 25.5198 28.0855 25.5198 30.4819Z" fill="#02C7DD"/>
<path d="M9.0709 39.1429H6.62301C5.68015 39.1429 4.91577 38.4328 4.91577 37.5569V37.2466C4.91577 36.3707 5.68015 35.6607 6.62301 35.6607H9.0709C10.0138 35.6607 10.7781 36.3707 10.7781 37.2466V37.5569C10.7781 38.4328 10.0138 39.1429 9.0709 39.1429Z" fill="#00F2A6"/>
<path d="M9.07095 35.6606H7.16315C8.106 35.6606 8.87049 36.3706 8.87049 37.2466V37.5569C8.87049 38.4328 8.10611 39.143 7.16315 39.143H9.07084C10.0138 39.143 10.7782 38.4329 10.7782 37.5569V37.2466C10.7782 36.3706 10.0138 35.6606 9.07095 35.6606Z" fill="#05E39C"/>
<path d="M9.0709 46.1101H6.62301C5.68015 46.1101 4.91577 45.4 4.91577 44.5241V44.2138C4.91577 43.3379 5.68015 42.6279 6.62301 42.6279H9.0709C10.0138 42.6279 10.7781 43.3379 10.7781 44.2138V44.5241C10.7781 45.4 10.0138 46.1101 9.0709 46.1101Z" fill="#00F2A6"/>
<path d="M9.07095 42.6278H7.16315C8.106 42.6278 8.87049 43.3378 8.87049 44.2137V44.524C8.87049 45.4 8.10611 46.1101 7.16315 46.1101H9.07084C10.0138 46.1101 10.7782 45.4 10.7782 44.524V44.2137C10.7782 43.3378 10.0138 42.6278 9.07095 42.6278Z" fill="#05E39C"/>
<path d="M19.1708 46.2053H16.7229C15.78 46.2053 15.0156 45.4953 15.0156 44.6194V37.2466C15.0156 36.3707 15.78 35.6607 16.7229 35.6607H19.1708C20.1136 35.6607 20.878 36.3707 20.878 37.2466V44.6194C20.878 45.4953 20.1136 46.2053 19.1708 46.2053Z" fill="#AF66DA"/>
<path d="M19.1708 35.6606H17.2631C18.2059 35.6606 18.9703 36.3706 18.9703 37.2466V44.6194C18.9703 45.4954 18.2059 46.2054 17.2631 46.2054H19.1708C20.1136 46.2054 20.8781 45.4954 20.8781 44.6194V37.2466C20.878 36.3706 20.1136 35.6606 19.1708 35.6606Z" fill="#9857BD"/>
<path d="M34.0874 19.7354C33.8957 19.9135 34.0029 20.3692 33.7993 20.5352C31.7665 22.1962 29.1543 23.2606 26.279 23.4286C26.1165 23.4386 25.9519 23.3038 25.7873 23.1972C25.6812 23.1268 25.574 23.0684 25.4667 23.0684V17.164C25.7429 17.164 26.0136 16.7364 26.279 16.6992C26.8757 16.6157 27.44 16.4416 27.9555 16.1922C28.2078 16.0714 28.4471 15.9326 28.6735 15.7777C28.8944 15.6278 29.3103 15.6559 29.5031 15.4769L34.0874 19.7354Z" fill="#BD80E1"/>
<path d="M34.0874 19.7354C33.8957 19.9135 34.0029 20.3692 33.7993 20.5352C31.7665 22.1962 29.1543 23.2606 26.279 23.4286C26.1165 23.4386 25.9519 23.3038 25.7873 23.1972C28.2143 22.7173 30.3846 21.5895 32.0752 20.0191L27.9555 16.1922C28.2078 16.0714 28.4471 15.9326 28.6735 15.7777C28.8944 15.6278 29.3103 15.6559 29.503 15.4769L34.0874 19.7354Z" fill="#AF66DA"/>
<path d="M21.4293 15.4769L16.8136 19.7656C16.6219 19.5875 16.1627 19.6569 15.9851 19.4678C15.7794 19.2505 15.5823 19.0262 15.396 18.7958C13.9458 17.0181 13.0296 14.8461 12.8694 12.4819C12.8509 12.2354 13.1737 11.9859 13.1737 11.7354H19.7464C19.7464 11.9889 20.0734 12.2384 20.1135 12.4819C20.1804 12.8953 20.303 13.2992 20.4785 13.6841C20.6453 14.0503 20.8575 14.3944 21.1077 14.7093C21.2691 14.9125 21.2377 15.2988 21.4293 15.4769Z" fill="#017297"/>
<path d="M21.4294 15.4769L16.8136 19.7656C16.6219 19.5875 16.1628 19.6569 15.9851 19.4678C15.7794 19.2505 15.5823 19.0262 15.396 18.7958L19.1767 15.2827C18.683 14.8241 18.2891 14.2813 18.0168 13.6841C17.7362 13.0675 17.5915 12.4049 17.5912 11.7354H19.7464C19.7464 11.9889 20.0735 12.2384 20.1135 12.4819C20.1804 12.8953 20.303 13.2992 20.4785 13.6841C20.6453 14.0503 20.8575 14.3944 21.1077 14.7093C21.2691 14.9125 21.2377 15.2988 21.4294 15.4769Z" fill="#025F80"/>
<path d="M38.0901 11.7354L35.7335 11.7324L31.2846 11.7274C31.2846 11.4708 30.859 11.2193 30.8189 10.9728C30.6886 10.166 30.3472 9.40122 29.8247 8.74547C29.6644 8.54125 29.7543 8.0996 29.5626 7.92153L33.1354 4.60262L34.0408 3.76258C34.2325 3.94065 34.7697 3.79678 34.9484 3.98592C36.7364 5.87525 37.8822 8.30282 38.0631 10.9728C38.0815 11.2223 37.6753 11.4738 37.6753 11.7274L38.0901 11.7354Z" fill="#F6C2E0"/>
<path d="M35.7335 11.7274C35.7335 9.04829 34.7643 6.57847 33.1354 4.60262L34.0408 3.76258C34.2325 3.94065 34.7697 3.79678 34.9484 3.98592C36.7364 5.87525 37.8822 8.30282 38.0631 10.9728C38.0815 11.2223 37.6754 11.4738 37.6754 11.7274L35.7335 11.7354V11.7274Z" fill="#F6A6D2"/>
<path d="M25.4668 0.44467V6.30081C25.1906 6.30081 24.9198 6.71731 24.6545 6.75554C24.0903 6.833 23.5542 6.99296 23.0614 7.22133C22.7777 7.35211 22.508 7.50503 22.2557 7.67908C22.0369 7.82797 21.3763 7.57143 21.1846 7.7495C21.099 7.84004 21.164 8.67505 21.1077 8.74648C20.5853 9.40193 20.244 10.1664 20.1135 10.9728C20.0734 11.2183 19.6121 11.7354 19.6121 11.7354H13.3589C13.3708 11.5584 12.8184 11.8582 12.8715 10.9728C12.8737 10.9306 12.8758 10.8863 12.8791 10.839C13.0459 8.7505 13.804 6.81489 14.9974 5.17405C15.0473 5.13984 15.2216 4.78773 15.9862 3.98793C16.1443 3.82395 16.6793 3.96781 16.8916 3.76358C17.0833 3.58551 16.9295 3.08451 17.1331 2.91851C18.7836 1.56942 20.8164 0.615696 23.0614 0.213281C23.5823 0.11972 24.113 0.0563397 24.6545 0.0241465C24.9231 0.00804995 25.1938 0.44467 25.4668 0.44467Z" fill="#6CF5C2"/>
<path d="M25.4667 0.44467V6.30081C25.1906 6.30081 24.9198 6.71731 24.6545 6.75554C24.0902 6.833 23.5542 6.99296 23.0614 7.22133V0.213281C23.5823 0.11972 24.113 0.0563397 24.6545 0.0241465C24.9231 0.00804995 25.1938 0.44467 25.4667 0.44467ZM21.2831 8.53622C21.2246 8.60161 21.1683 8.66902 21.1131 8.73843C20.588 9.39597 20.2447 10.1632 20.1135 10.9728C20.0734 11.2183 19.612 11.4708 19.612 11.7274L17.5912 11.7304L13.4725 11.7354C13.4834 11.5594 12.8184 11.8571 12.8715 10.9728C12.8737 10.9306 12.8758 10.8863 12.8791 10.839C13.0502 8.75352 13.8072 6.81489 14.9974 5.17405C15.0407 5.14588 15.1035 4.99799 15.4241 4.61368C15.5606 4.45071 15.7436 4.24447 15.9916 3.98592C16.1475 3.82394 16.6815 3.96781 16.8926 3.76258L21.1846 7.7495C21.0979 7.83904 21.6708 8.11871 21.2831 8.53622Z" fill="#00F2A6"/>
<path d="M21.2832 8.53622C21.2247 8.60161 21.1684 8.66902 21.1132 8.73843C20.588 9.39597 20.2448 10.1632 20.1136 10.9728C20.0735 11.2183 19.6121 11.4708 19.6121 11.7274L17.5913 11.7304C17.5915 10.3957 18.1617 9.11562 19.1768 8.17103L15.3939 4.65795C15.4047 4.64588 15.4155 4.63079 15.4242 4.61368C15.5606 4.45071 15.7437 4.24447 15.9917 3.98592C16.1476 3.82395 16.6815 3.96781 16.8927 3.76258L21.1846 7.7495C21.098 7.83904 21.6709 8.11871 21.2832 8.53622Z" fill="#05E39C"/>
<path d="M38.0631 12.4819C37.8822 15.1529 36.7364 17.5795 34.9484 19.4678C34.7697 19.6569 34.2791 19.5573 34.0874 19.7354L29.5746 15.5433C29.7663 15.3652 29.6634 14.9135 29.8237 14.7103C30.347 14.0545 30.6888 13.2892 30.8189 12.4819C30.8579 12.2384 31.2846 11.9889 31.2846 11.7354H37.6776C37.6776 11.9859 38.0815 12.2354 38.0631 12.4819Z" fill="#FFC344"/>
<path d="M38.0631 12.4819C37.8822 15.1529 36.7364 17.5795 34.9484 19.4678C34.7697 19.6569 34.2791 19.5573 34.0874 19.7354L33.1343 18.8501C34.7588 16.8773 35.727 14.4115 35.7292 11.7354H37.6775C37.6775 11.9859 38.0815 12.2354 38.0631 12.4819Z" fill="#FEB137"/>
<path d="M34.1036 3.70322L29.5085 7.97183C29.3168 7.79376 28.8955 7.82797 28.6767 7.67807C28.4114 7.49598 28.1266 7.33602 27.8266 7.20121C27.3381 6.98025 26.8163 6.82964 26.279 6.75453C26.0136 6.7173 25.7429 6.22636 25.4667 6.22636V0.328973C25.5382 0.328973 25.6097 0.30684 25.6812 0.274647C25.8815 0.184104 26.0808 0.0120714 26.279 0.0251498C29.1543 0.193158 31.7665 1.25754 33.7993 2.91851C34.0029 3.08451 33.9119 3.52515 34.1036 3.70322Z" fill="#FE5CA7"/>
<path d="M34.1037 3.70322L29.5085 7.97183C29.3168 7.79376 28.8955 7.82797 28.6768 7.67807C28.4114 7.49598 28.1266 7.33602 27.8266 7.20121L31.8814 3.43561V3.43461C30.2103 1.88229 28.0736 0.76358 25.6812 0.274647C25.8816 0.184104 26.0808 0.0120714 26.279 0.0251498C29.1544 0.193158 31.7666 1.25754 33.7993 2.91851C34.003 3.08451 33.912 3.52515 34.1037 3.70322Z" fill="#FE3D97"/>
<path d="M25.4657 17.0342V23.0251C25.1928 23.0251 24.9231 23.4457 24.6545 23.4286C24.1152 23.3964 23.5856 23.334 23.0669 23.2414C23.0647 23.2414 23.0636 23.2404 23.0615 23.2404C20.8175 22.839 18.7847 21.8833 17.1331 20.5352C16.9295 20.3692 17.0053 19.9447 16.8137 19.7666L21.4294 15.4769C21.6211 15.6559 22.0369 15.6268 22.2557 15.7767C22.5091 15.9497 22.7777 16.1026 23.0615 16.2334C23.5631 16.465 24.1006 16.6221 24.6545 16.6992C24.9188 16.7364 25.1895 17.0342 25.4657 17.0342Z" fill="#AF66DA"/>
<path d="M25.4657 17.0342V23.0251C25.1927 23.0251 24.9231 23.4457 24.6545 23.4286C24.1152 23.3964 23.5856 23.334 23.0668 23.2414C23.0646 23.2414 23.0636 23.2404 23.0614 23.2404V16.2334C23.563 16.465 24.1005 16.6221 24.6545 16.6992C24.9187 16.7364 25.1895 17.0342 25.4657 17.0342Z" fill="#9857BD"/>
<path d="M14.9598 30.1323H10.56C10.1113 30.1323 9.74774 29.7946 9.74774 29.3778C9.74774 28.961 10.1113 28.6232 10.56 28.6232H14.9598C15.4085 28.6232 15.772 28.961 15.772 29.3778C15.772 29.7946 15.4085 30.1323 14.9598 30.1323Z" fill="#02C7DD"/>
<path d="M20.1135 12.4819H12.8693C12.8509 12.2354 12.8423 11.9859 12.8423 11.7354C12.8542 11.5584 12.8184 11.8581 12.8715 10.9728H20.1135C20.0734 11.2183 20.0529 11.4708 20.0529 11.7274V11.7354C20.0529 11.9889 20.0734 12.2384 20.1135 12.4819ZM21.6384 15.2827C21.8301 15.4618 22.0369 15.6268 22.2557 15.7767L17.1331 20.5352C16.9295 20.3692 16.7324 20.1982 16.5407 20.0201V20.0191C16.349 19.841 16.1627 19.6569 15.9851 19.4678L21.1077 14.7093C21.2691 14.9125 21.4467 15.1046 21.6384 15.2827ZM22.2123 7.63783L22.2557 7.67907C22.0367 7.8282 21.8303 7.99266 21.6384 8.17103C21.5528 8.26157 21.6709 8.11871 21.2831 8.53622C21.2225 8.60463 21.164 8.67505 21.1077 8.74648L21.0579 8.6992L15.9862 3.98793C16.1443 3.82394 16.3263 3.63984 16.5385 3.43561C16.7302 3.25755 16.9295 3.08451 17.1331 2.91851L22.2123 7.63783ZM25.4668 0C25.7397 0 26.0104 0.00804829 26.279 0.0251509V6.75453C26.0137 6.7173 25.7429 6.69819 25.4668 6.69819C25.1906 6.69819 24.9198 6.7173 24.6545 6.75553V0.0241449C24.9231 0.00804829 25.1938 0 25.4668 0ZM29.8691 14.7495L34.9484 19.4678C34.7697 19.6569 34.5845 19.841 34.3928 20.0191C34.2011 20.1972 34.0029 20.3692 33.7993 20.5352L28.7298 15.826L28.6735 15.7777C28.8938 15.6278 29.1013 15.4623 29.2941 15.2827C29.4857 15.1046 29.6634 14.9135 29.8236 14.7103L29.8486 14.7314C29.855 14.7374 29.8626 14.7435 29.8691 14.7495ZM29.2941 8.17103C29.1018 7.99262 28.8955 7.82784 28.6768 7.67807L33.7993 2.91851C34.0029 3.08451 34.2011 3.25654 34.3928 3.43461V3.43561C34.5845 3.61368 34.7697 3.79678 34.9484 3.98592L29.8247 8.74547C29.6641 8.54152 29.4867 8.34946 29.2941 8.17103ZM38.0901 11.7274V11.7354C38.0901 11.9859 38.0815 12.2354 38.0631 12.4819H30.8189C30.8579 12.2384 30.8796 11.9889 30.8796 11.7354V11.7274C30.8796 11.4708 30.859 11.2193 30.8189 10.9728H38.0631C38.0815 11.2223 38.0901 11.4738 38.0901 11.7274Z" fill="#EDF5FA"/>
<path d="M25.4664 38.0596C25.3598 38.0596 25.2541 38.0401 25.1556 38.0021C25.057 37.9642 24.9675 37.9087 24.892 37.8386C24.8166 37.7685 24.7568 37.6853 24.716 37.5938C24.6752 37.5022 24.6542 37.4041 24.6542 37.305V13.0754C24.6542 12.6585 25.0177 12.3208 25.4664 12.3208C25.9151 12.3208 26.2787 12.6585 26.2787 13.0754V37.305C26.2787 37.5051 26.1931 37.6971 26.0408 37.8386C25.8884 37.9801 25.6818 38.0596 25.4664 38.0596Z" fill="#017297"/>
<path d="M25.5198 13.679C26.6754 13.679 27.6122 12.8088 27.6122 11.7353C27.6122 10.6619 26.6754 9.79165 25.5198 9.79165C24.3643 9.79165 23.4275 10.6619 23.4275 11.7353C23.4275 12.8088 24.3643 13.679 25.5198 13.679Z" fill="#30DDE5"/>
<path d="M39.2057 25.4774C38.1109 24.4604 38.0341 22.8347 39.0289 21.7326L44.316 16.4419C45.4422 15.1943 47.4774 15.1114 48.7168 16.2627L49.1252 16.6421C50.3645 17.7934 50.2753 19.6839 48.9323 20.7301L43.2368 25.6415C42.0504 26.5656 40.3005 26.4944 39.2057 25.4774Z" fill="#017297"/>
<path d="M49.1251 16.6421L48.7167 16.2627C47.7466 15.3615 46.2888 15.2166 45.1609 15.7947C45.4068 15.9207 45.6323 16.0782 45.8308 16.2627L46.2392 16.6421C47.4785 17.7934 47.3893 19.6839 46.0463 20.7301L40.3508 25.6415C40.2029 25.7566 40.0434 25.8583 39.8745 25.9451C40.9301 26.4864 42.2703 26.3943 43.2368 25.6415L48.9323 20.7301C50.2754 19.684 50.3645 17.7934 49.1251 16.6421Z" fill="#025F80"/>
<path d="M28.7677 37.7459L24.125 40.212C23.361 40.7016 22.7565 40.068 23.2652 39.3468L24.6541 37.0799L25.9986 35.1734L38.2727 23.3496L41.496 26.3439L28.7677 37.7459Z" fill="#FFDFCF"/>
<path d="M39.9312 24.8903L27.2028 36.2928L25.1398 37.6152C24.8012 37.8323 24.3879 37.4575 24.6132 37.1378L23.565 38.6247L22.7701 39.7515C22.2611 40.4728 23.1935 41.3189 23.957 40.829L28.7677 37.7455L41.4962 26.3441L39.9312 24.8903Z" fill="#FFCEBF"/>
<path d="M43.5615 25.9463L38.7007 21.4309C38.6338 21.3688 38.5544 21.3195 38.467 21.2858C38.3797 21.2522 38.286 21.2349 38.1914 21.2349C38.0968 21.2349 38.0032 21.2522 37.9158 21.2858C37.8284 21.3195 37.749 21.3688 37.6821 21.4309L36.6019 22.4346C36.4928 22.536 36.4315 22.6735 36.4315 22.8168C36.4315 22.9601 36.4928 23.0976 36.6019 23.199L41.5605 27.8052C41.6273 27.8674 41.7067 27.9166 41.7941 27.9503C41.8815 27.9839 41.9752 28.0012 42.0697 28.0012C42.1643 28.0012 42.258 27.9839 42.3454 27.9503C42.4327 27.9166 42.5121 27.8674 42.579 27.8052L43.5615 26.8926C43.6966 26.7671 43.7724 26.5969 43.7724 26.4194C43.7724 26.242 43.6966 26.0718 43.5615 25.9463Z" fill="#30DDE5"/>
<path d="M41.4365 23.9722C41.5446 24.0727 41.6054 24.209 41.6054 24.3512C41.6054 24.4933 41.5446 24.6296 41.4365 24.7301L40.2512 25.8311C40.143 25.9316 39.9963 25.988 39.8433 25.988C39.6903 25.988 39.5435 25.9316 39.4353 25.8311L41.5605 27.8052C41.6273 27.8674 41.7067 27.9166 41.7941 27.9503C41.8815 27.9839 41.9752 28.0012 42.0697 28.0012C42.1643 28.0012 42.258 27.9839 42.3454 27.9503C42.4328 27.9166 42.5121 27.8674 42.579 27.8052L43.5615 26.8926C43.6284 26.8304 43.6815 26.7567 43.7177 26.6755C43.7539 26.5943 43.7725 26.5073 43.7725 26.4195C43.7725 26.3316 43.7539 26.2446 43.7177 26.1634C43.6815 26.0823 43.6284 26.0085 43.5615 25.9464L41.4365 23.9722Z" fill="#02C7DD"/>
</svg>
