<svg width="50.000000" height="50.000000" viewBox="0 0 50 50" fill="none" xmlns="http://www.w3.org/2000/svg" xmlns:xlink="http://www.w3.org/1999/xlink">
	<desc>
			Created with Pixso.
	</desc>
	<defs/>
	<path id="path" d="M45.75 0.44C39.16 3.74 10.87 17.92 3.06 21.78C-2.18 24.26 0.89 26.58 0.89 26.58C0.89 26.58 5.36 28.43 9.2 29.83C13.03 31.22 15.08 29.67 15.08 29.67L33.1 14.98C39.49 9.72 37.96 14.05 36.42 15.9C33.1 19.93 27.6 26.27 23 31.37C20.96 33.54 21.98 35.39 22.87 36.32C26.2 39.72 35.27 46.69 35.78 47.15C38.48 49.46 43.8 52.79 44.6 45.76L47.8 21.47C48.82 13.28 49.84 5.7 49.97 3.53C50.36 -1.73 45.75 0.44 45.75 0.44Z" fill="#1B92D1" fill-opacity="1.000000" fill-rule="nonzero"/>
</svg>
