<svg width="50.000000" height="50.000000" viewBox="0 0 50 50" fill="none" xmlns="http://www.w3.org/2000/svg" xmlns:xlink="http://www.w3.org/1999/xlink">
	<desc>
			Created with Pixso.
	</desc>
	<defs/>
	<path id="path" d="M50 25C50 11.18 38.8 0 25 0C11.19 0 0 11.18 0 25C0 38.8 11.19 50 25 50C38.8 50 50 38.8 50 25Z" fill="#F8604A" fill-opacity="1.000000" fill-rule="nonzero"/>
	<path id="path" d="M26.65 42.81C27.66 43.23 28.68 43.19 29.72 42.67L42.13 36.62C43.81 35.8 44.5 34.55 44.19 32.87C42.77 25.32 42.88 25.65 42.77 25.43C42.1 24.04 41.06 22.98 39.64 22.26C38.23 21.53 36.69 21.26 35.02 21.44L27.82 22.22L24.81 16.04C24.28 14.96 23.41 14.24 22.2 13.89C20.98 13.54 19.78 13.66 18.58 14.24C17.39 14.82 16.55 15.7 16.08 16.87C15.61 18.05 15.64 19.18 16.17 20.26L21.47 31.13L20.48 31.04C18.97 30.9 17.58 31.27 16.3 32.14C15.01 33.01 14.18 34.15 13.79 35.56C13.49 36.71 13.89 37.52 14.99 37.97L26.65 42.81ZM20.06 33.25L23.23 33.54C23.7 33.58 24.08 33.42 24.37 33.05C24.66 32.68 24.71 32.3 24.52 31.9L18.33 19.2C17.69 17.9 18.09 16.89 19.53 16.19C20.98 15.49 22.01 15.79 22.65 17.09L25.99 23.93C26.2 24.37 26.57 24.56 27.11 24.51L35.1 23.65C37.65 23.37 39.47 24.27 40.55 26.36L41.85 33.42C41.96 33.98 41.73 34.4 41.16 34.67L28.77 40.72C28.42 40.89 28.08 40.9 27.75 40.76L16.08 35.93C16.32 35.1 16.82 34.42 17.58 33.91C18.34 33.4 19.17 33.18 20.06 33.25ZM27.58 13.48L29.74 12.43C30.46 12.07 30.98 12.22 31.3 12.88C31.61 13.53 31.41 14.03 30.69 14.38L28.53 15.43C27.81 15.79 27.29 15.64 26.97 14.98C26.65 14.33 26.86 13.83 27.58 13.48ZM9.68 23.42C9.36 22.77 9.56 22.26 10.28 21.91L12.45 20.86C13.17 20.51 13.69 20.66 14 21.31C14.32 21.96 14.12 22.46 13.4 22.81L11.24 23.87C10.52 24.22 10 24.07 9.68 23.42ZM16.07 11.83L15.12 9.88C14.8 9.23 15 8.73 15.72 8.37C16.44 8.02 16.96 8.17 17.28 8.82L18.23 10.78C18.55 11.43 18.35 11.93 17.63 12.28C16.91 12.63 16.39 12.48 16.07 11.83ZM10.15 16.35C9.4 16.14 9.17 15.68 9.46 14.96C9.75 14.24 10.26 13.99 11 14.22L13.21 14.86C13.92 15.08 14.14 15.54 13.86 16.23C13.58 16.93 13.08 17.18 12.35 16.98L10.15 16.35ZM23.05 11.77C22.32 11.55 22.09 11.09 22.38 10.38L23.23 8.26C23.52 7.56 24.03 7.32 24.75 7.53C25.47 7.74 25.7 8.19 25.43 8.89L24.58 11.02C24.29 11.73 23.78 11.98 23.05 11.77Z" fill="#FFFFFF" fill-opacity="1.000000" fill-rule="nonzero"/>
</svg>
