<svg width="50.468750" height="50.000000" viewBox="0 0 50.4688 50" fill="none" xmlns="http://www.w3.org/2000/svg" xmlns:xlink="http://www.w3.org/1999/xlink">
	<desc>
			Created with Pixso.
	</desc>
	<defs>
		<filter id="filter_252_114_dd" x="-1.257324" y="6.460205" width="27.570801" height="33.687256" filterUnits="userSpaceOnUse" color-interpolation-filters="sRGB">
			<feFlood flood-opacity="0" result="BackgroundImageFix"/>
			<feBlend mode="normal" in="SourceGraphic" in2="BackgroundImageFix" result="shape"/>
			<feGaussianBlur stdDeviation="1.8758" result="effect_layerBlur_1"/>
		</filter>
		<filter id="filter_252_116_dd" x="-3.601074" y="8.799927" width="26.799316" height="33.612671" filterUnits="userSpaceOnUse" color-interpolation-filters="sRGB">
			<feFlood flood-opacity="0" result="BackgroundImageFix"/>
			<feBlend mode="normal" in="SourceGraphic" in2="BackgroundImageFix" result="shape"/>
			<feGaussianBlur stdDeviation="1.8758" result="effect_layerBlur_1"/>
		</filter>
		<filter id="filter_252_122_dd" x="-5.384766" y="2.034668" width="63.592041" height="42.597900" filterUnits="userSpaceOnUse" color-interpolation-filters="sRGB">
			<feFlood flood-opacity="0" result="BackgroundImageFix"/>
			<feBlend mode="normal" in="SourceGraphic" in2="BackgroundImageFix" result="shape"/>
			<feGaussianBlur stdDeviation="1.8758" result="effect_layerBlur_1"/>
		</filter>
		<filter id="filter_252_124_dd" x="-7.737793" y="4.372559" width="63.599609" height="42.599609" filterUnits="userSpaceOnUse" color-interpolation-filters="sRGB">
			<feFlood flood-opacity="0" result="BackgroundImageFix"/>
			<feBlend mode="normal" in="SourceGraphic" in2="BackgroundImageFix" result="shape"/>
			<feGaussianBlur stdDeviation="1.8758" result="effect_layerBlur_1"/>
		</filter>
		<filter id="filter_252_132_dd" x="16.826172" y="11.857056" width="39.569580" height="28.124146" filterUnits="userSpaceOnUse" color-interpolation-filters="sRGB">
			<feFlood flood-opacity="0" result="BackgroundImageFix"/>
			<feBlend mode="normal" in="SourceGraphic" in2="BackgroundImageFix" result="shape"/>
			<feGaussianBlur stdDeviation="1.85646" result="effect_layerBlur_1"/>
		</filter>
		<filter id="filter_252_134_dd" x="15.765869" y="14.177612" width="37.973877" height="28.112549" filterUnits="userSpaceOnUse" color-interpolation-filters="sRGB">
			<feFlood flood-opacity="0" result="BackgroundImageFix"/>
			<feBlend mode="normal" in="SourceGraphic" in2="BackgroundImageFix" result="shape"/>
			<feGaussianBlur stdDeviation="1.85646" result="effect_layerBlur_1"/>
		</filter>
		<filter id="filter_252_140_dd" x="16.432861" y="9.202515" width="41.115723" height="35.044434" filterUnits="userSpaceOnUse" color-interpolation-filters="sRGB">
			<feFlood flood-opacity="0" result="BackgroundImageFix"/>
			<feBlend mode="normal" in="SourceGraphic" in2="BackgroundImageFix" result="shape"/>
			<feGaussianBlur stdDeviation="1.85646" result="effect_layerBlur_1"/>
		</filter>
		<filter id="filter_252_142_dd" x="14.112305" y="11.523926" width="41.115723" height="35.044434" filterUnits="userSpaceOnUse" color-interpolation-filters="sRGB">
			<feFlood flood-opacity="0" result="BackgroundImageFix"/>
			<feBlend mode="normal" in="SourceGraphic" in2="BackgroundImageFix" result="shape"/>
			<feGaussianBlur stdDeviation="1.85646" result="effect_layerBlur_1"/>
		</filter>
	</defs>
	<g opacity="0.000000">
		<rect id="Прямоугольник 42" x="0.234375" width="50.000000" height="50.000000" fill="#C4C4C4" fill-opacity="1.000000"/>
	</g>
	<path id="path" d="M0.23 10L0.23 39L21.59 39L22.51 39L50.23 39L50.23 16.44L22.51 16.44L22.51 10L0.23 10Z" fill="#000000" fill-opacity="1.000000" fill-rule="nonzero"/>
	<path id="path" d="M0.23 39L21.59 39L22.51 39L50.23 39L50.23 16.44L22.51 16.44L22.51 10L0.23 10L0.23 39Z" stroke="#000000" stroke-opacity="1.000000" stroke-width="0.468949"/>
	<path id="path" d="M4.37 14.43L18.34 14.43L18.34 18.71C14.69 23.15 12.39 28.27 12.18 34.43L7.4 34.43C7.59 29.11 8.13 23.89 12.18 19.54L4.37 19.54L4.37 14.43Z" fill="#FFFFFF" fill-opacity="1.000000" fill-rule="evenodd"/>
	<path id="path" d="M18.34 14.43L18.34 18.71C14.69 23.15 12.39 28.27 12.18 34.43L7.4 34.43C7.59 29.11 8.13 23.89 12.18 19.54L4.37 19.54L4.37 14.43L18.34 14.43Z" stroke="#000000" stroke-opacity="1.000000" stroke-width="0.468949"/>
	<mask id="mask252_112" mask-type="alpha" maskUnits="userSpaceOnUse" x="4.370117" y="14.425781" width="13.971191" height="20.013062">
		<path id="path" d="M4.37 14.43L18.34 14.43L18.34 18.71C14.69 23.15 12.39 28.27 12.18 34.43L7.4 34.43C7.59 29.11 8.13 23.89 12.18 19.54L4.37 19.54L4.37 14.43Z" fill="#FFFFFF" fill-opacity="1.000000" fill-rule="nonzero"/>
	</mask>
	<g mask="url(#mask252_112)">
		<g filter="url(#filter_252_114_dd)">
			<path id="path" d="" fill="#000000" fill-opacity="0" fill-rule="nonzero"/>
			<path id="path" d="M4.37 14.43L18.34 14.43L18.34 18.71C14.69 23.15 12.39 28.27 12.18 34.43" stroke="#FFFFFF" stroke-opacity="1.000000" stroke-width="4.689490"/>
		</g>
		<g filter="url(#filter_252_116_dd)">
			<path id="path" d="" fill="#000000" fill-opacity="0" fill-rule="nonzero"/>
			<path id="path" d="M12.18 34.44L7.4 34.44C7.59 29.12 8.13 23.89 12.18 19.54L4.37 19.54L4.37 14.42" stroke="#000000" stroke-opacity="1.000000" stroke-width="4.689490"/>
		</g>
	</g>
	<mask id="mask252_120" mask-type="alpha" maskUnits="userSpaceOnUse" x="0.234375" y="10.000000" width="50.000000" height="29.000000">
		<path id="path" d="M0.23 10L0.23 39L21.59 39L22.51 39L50.23 39L50.23 16.44L22.51 16.44L22.51 10L0.23 10Z" fill="#FFFFFF" fill-opacity="1.000000" fill-rule="nonzero"/>
	</mask>
	<g mask="url(#mask252_120)">
		<g filter="url(#filter_252_122_dd)">
			<path id="path" d="" fill="#000000" fill-opacity="0" fill-rule="nonzero"/>
			<path id="path" d="M50.23 39L50.23 16.44L22.51 16.44L22.51 10L0.24 10" stroke="#FFFFFF" stroke-opacity="1.000000" stroke-width="4.689490"/>
		</g>
		<g filter="url(#filter_252_124_dd)">
			<path id="path" d="" fill="#000000" fill-opacity="0" fill-rule="nonzero"/>
			<path id="path" d="M0.23 10L0.23 39L50.23 39" stroke="#000000" stroke-opacity="1.000000" stroke-width="4.689490"/>
		</g>
	</g>
	<path id="path" d="M49.65 17.09L49.65 38.67L22 38.67L22 17.09L49.65 17.09Z" fill="#FFFFFF" fill-opacity="1.000000" fill-rule="nonzero"/>
	<path id="path" d="M49.65 38.67L22 38.67L22 17.09L49.65 17.09L49.65 38.67Z" stroke="#000000" stroke-opacity="1.000000" stroke-width="0.464114"/>
	<path id="path" d="M34.62 19.74L34.62 34.23L37.63 34.23L37.63 19.74L34.62 19.74ZM23.83 19.83L23.83 23.13L28.49 23.13L23.65 31.11L23.65 34.32L32.52 34.32L32.52 31.11L26.85 31.11L32.7 22.77L32.7 19.84L23.83 19.83ZM40.37 19.84L40.37 34.4L43.66 34.4L43.66 29.27L45.85 29.27C49.36 29.26 49.45 19.73 45.66 19.83L40.37 19.84ZM43.48 22.96L44.76 22.96C46.19 22.91 46.22 26.18 44.76 25.97L43.57 26.07L43.48 22.96Z" fill="#000000" fill-opacity="1.000000" fill-rule="evenodd"/>
	<path id="path" d="M34.62 34.23L37.63 34.23L37.63 19.74L34.62 19.74L34.62 34.23ZM23.83 23.13L28.49 23.13L23.65 31.11L23.65 34.32L32.52 34.32L32.52 31.11L26.85 31.11L32.7 22.77L32.7 19.84L23.83 19.83L23.83 23.13ZM40.37 34.4L43.66 34.4L43.66 29.27L45.85 29.27C49.36 29.26 49.45 19.73 45.66 19.83L40.37 19.84L40.37 34.4ZM44.76 22.96C46.19 22.91 46.22 26.18 44.76 25.97L43.57 26.07L43.48 22.96L44.76 22.96Z" stroke="#000000" stroke-opacity="1.000000" stroke-width="0.464114"/>
	<mask id="mask252_130" mask-type="alpha" maskUnits="userSpaceOnUse" x="23.656494" y="19.746948" width="24.842041" height="14.662109">
		<path id="path" d="M34.62 19.74L34.62 34.23L37.63 34.23L37.63 19.74L34.62 19.74ZM23.83 19.83L23.83 23.13L28.49 23.13L23.65 31.11L23.65 34.32L32.52 34.32L32.52 31.11L26.85 31.11L32.7 22.77L32.7 19.84L23.83 19.83ZM40.37 19.84L40.37 34.4L43.66 34.4L43.66 29.27L45.85 29.27C49.36 29.26 49.45 19.73 45.66 19.83L40.37 19.84ZM43.48 22.96L44.76 22.96C46.19 22.91 46.22 26.18 44.76 25.97L43.57 26.07L43.48 22.96Z" fill="#FFFFFF" fill-opacity="1.000000" fill-rule="nonzero"/>
	</mask>
	<g mask="url(#mask252_130)">
		<g filter="url(#filter_252_132_dd)">
			<path id="path" d="" fill="#000000" fill-opacity="0" fill-rule="nonzero"/>
			<path id="path" d="M37.63 34.23L37.63 19.74L34.62 19.74M32.52 34.32L32.52 31.11L26.85 31.11L32.7 22.77L32.7 19.83L23.84 19.83M43.67 34.41L43.67 29.28M45.86 29.28C49.37 29.26 49.46 19.73 45.67 19.84L40.38 19.84M44.77 25.97L43.58 26.07L43.48 22.95" stroke="#FFFFFF" stroke-opacity="1.000000" stroke-width="4.641140"/>
		</g>
		<g filter="url(#filter_252_134_dd)">
			<path id="path" d="" fill="#000000" fill-opacity="0" fill-rule="nonzero"/>
			<path id="path" d="M34.62 19.74L34.62 34.23L37.63 34.23M23.83 19.82L23.83 23.13L28.49 23.13L23.65 31.1L23.65 34.31L32.52 34.31M40.37 19.83L40.37 34.4L43.66 34.4M43.66 29.26L45.85 29.26M43.48 22.95L44.76 22.95C46.19 22.9 46.22 26.16 44.76 25.96" stroke="#000000" stroke-opacity="1.000000" stroke-width="4.641140"/>
		</g>
	</g>
	<mask id="mask252_138" mask-type="alpha" maskUnits="userSpaceOnUse" x="22.002197" y="17.092407" width="27.656494" height="21.585205">
		<path id="path" d="M49.65 17.09L49.65 38.67L22 38.67L22 17.09L49.65 17.09Z" fill="#FFFFFF" fill-opacity="1.000000" fill-rule="nonzero"/>
	</mask>
	<g mask="url(#mask252_138)">
		<g filter="url(#filter_252_140_dd)">
			<path id="path" d="" fill="#000000" fill-opacity="0" fill-rule="nonzero"/>
			<path id="path" d="M49.65 38.67L49.65 17.09L22 17.09" stroke="#FFFFFF" stroke-opacity="1.000000" stroke-width="4.641140"/>
		</g>
		<g filter="url(#filter_252_142_dd)">
			<path id="path" d="" fill="#000000" fill-opacity="0" fill-rule="nonzero"/>
			<path id="path" d="M49.65 38.67L22 38.67L22 17.09" stroke="#000000" stroke-opacity="1.000000" stroke-width="4.641140"/>
		</g>
	</g>
</svg>
