<svg width="50" height="50" viewBox="0 0 50 50" fill="none" xmlns="http://www.w3.org/2000/svg">
<path d="M8.83926 0H41.1605C46.0715 0 50 3.92852 50 8.83926V41.1607C50 46.0715 46.0715 50 41.1605 50H8.83926C3.92852 50 0 46.0715 0 41.1607V8.83926C0 3.92852 3.92852 0 8.83926 0Z" fill="#FA0F00"/>
<path d="M39.8719 28.8393C37.5502 26.4285 31.2109 27.4107 29.6932 27.5893C27.4611 25.4463 25.9434 22.857 25.4076 21.9643C26.2111 19.5535 26.7467 17.1428 26.8361 14.5537C26.8361 12.3215 25.9434 9.91094 23.4432 9.91094C22.5504 9.91094 21.7467 10.4465 21.3002 11.1607C20.2289 13.0359 20.6752 16.7859 22.3717 20.6252C21.3896 23.393 20.4967 26.0715 17.9967 30.8037C15.4074 31.8748 9.96094 34.375 9.51445 37.0537C9.33594 37.857 9.60371 38.6609 10.2287 39.2857C10.8537 39.8215 11.6572 40.0893 12.4609 40.0893C15.7645 40.0893 18.9787 35.5359 21.2109 31.6963C23.0859 31.0715 26.0324 30.1785 28.9789 29.6428C32.4609 32.6785 35.4967 33.1248 37.1039 33.1248C39.2467 33.1248 40.0504 32.232 40.3182 31.4283C40.7645 30.5357 40.4967 29.5535 39.8719 28.8393ZM37.6395 30.3572C37.5502 30.9822 36.7469 31.607 35.3182 31.25C33.6217 30.8037 32.1039 30 30.7646 28.9285C31.9254 28.7498 34.5145 28.482 36.3896 28.8393C37.1039 29.0178 37.8182 29.4643 37.6395 30.3572ZM22.7289 11.9643C22.9074 11.6965 23.1754 11.518 23.4432 11.518C24.2467 11.518 24.4252 12.5 24.4252 13.3037C24.3359 15.1789 23.9787 17.0537 23.3539 18.8395C22.0145 15.268 22.2824 12.7678 22.7289 11.9643ZM22.5504 29.2857C23.2646 27.8572 24.2469 25.357 24.6039 24.2855C25.4074 25.6246 26.7467 27.232 27.4611 27.9463C27.4611 28.0357 24.6932 28.5713 22.5504 29.2857ZM17.2824 32.8572C15.2289 36.25 13.0859 38.3928 11.9252 38.3928C11.7467 38.3928 11.568 38.3035 11.3895 38.2143C11.1215 38.0355 11.0322 37.7678 11.1215 37.4107C11.3895 36.1607 13.7109 34.4643 17.2824 32.8572Z" fill="white"/>
</svg>
