<svg width="50" height="50" viewBox="0 0 50 50" fill="none" xmlns="http://www.w3.org/2000/svg">
<path d="M25 28.1609C26.6055 28.1609 27.907 26.8744 27.907 25.2874C27.907 23.7004 26.6055 22.4137 25 22.4137C23.3945 22.4137 22.0931 23.7004 22.0931 25.2874C22.0931 26.8744 23.3945 28.1609 25 28.1609Z" fill="url(#paint0_linear_11_38)"/>
<path fill-rule="evenodd" clip-rule="evenodd" d="M26.6268 1.5307C26.5841 0.673374 25.8684 0 25 0C24.1316 0 23.416 0.673373 23.3732 1.5307L23.2902 3.1905C23.0713 3.27468 22.8575 3.37561 22.6504 3.49331L7.00085 12.3873C5.54686 13.2136 4.65117 14.7408 4.65117 16.3934V23.5278L1.5485 23.6792C0.681203 23.7215 0 24.429 0 25.2874C0 26.1458 0.681204 26.8531 1.5485 26.8955L4.65117 27.047V34.1814C4.65117 35.834 5.54686 37.3611 7.00085 38.1875L22.6504 47.0814C22.8667 47.2044 23.0904 47.309 23.3196 47.3954L23.3732 48.4692C23.416 49.3266 24.1316 50 25 50C25.8684 50 26.5841 49.3266 26.6268 48.4692L26.6806 47.3954C26.9096 47.309 27.1334 47.2044 27.3498 47.0814L42.9992 38.1875C44.4532 37.3611 45.3489 35.834 45.3489 34.1814V27.047L48.4516 26.8955C49.3188 26.8531 50 26.1458 50 25.2874C50 24.429 49.3188 23.7215 48.4516 23.6792L45.3489 23.5278V16.3934C45.3489 14.7408 44.4532 13.2136 42.9992 12.3873L27.3498 3.49331C27.1426 3.37561 26.9287 3.27468 26.7098 3.1905L26.6268 1.5307ZM23.0133 8.73519C15.2798 9.63255 9.14677 15.7035 8.25201 23.352L12.9869 23.1209C13.8894 18.1988 17.8116 14.3162 22.7881 13.416C22.7855 13.3516 22.7859 13.2867 22.7891 13.2212L23.0133 8.73519ZM27.2121 13.416C27.2145 13.3516 27.2142 13.2867 27.2109 13.2212L26.9868 8.73519C34.7202 9.63255 40.8532 15.7035 41.748 23.352L37.0131 23.1209C36.1106 18.1988 32.1884 14.3162 27.2121 13.416ZM37.0131 27.4539L41.748 27.2228C40.8521 34.8808 34.7051 40.9573 26.9579 41.8429L27.1917 37.1624C32.1778 36.269 36.1095 32.3826 37.0131 27.4539ZM25 34.4828C30.1376 34.4828 34.3023 30.3659 34.3023 25.2874C34.3023 20.2089 30.1376 16.092 25 16.092C19.8624 16.092 15.6977 20.2089 15.6977 25.2874C15.6977 30.3659 19.8624 34.4828 25 34.4828ZM12.9869 27.4539C13.8907 32.3826 17.8222 36.269 22.8083 37.1624L23.0421 41.8429C15.2951 40.9573 9.14789 34.8808 8.25201 27.2228L12.9869 27.4539Z" fill="url(#paint1_linear_11_38)"/>
<defs>
<linearGradient id="paint0_linear_11_38" x1="25" y1="9.01639" x2="25" y2="38.5246" gradientUnits="userSpaceOnUse">
<stop stop-color="#8D98FF"/>
<stop offset="1" stop-color="#707BDE"/>
</linearGradient>
<linearGradient id="paint1_linear_11_38" x1="25" y1="9.01639" x2="25" y2="38.5246" gradientUnits="userSpaceOnUse">
<stop stop-color="#8D98FF"/>
<stop offset="1" stop-color="#707BDE"/>
</linearGradient>
</defs>
</svg>
