<svg width="51" height="51" viewBox="0 0 51 51" fill="none" xmlns="http://www.w3.org/2000/svg">
<path d="M38.0935 7.17741H10.8659C7.84861 7.17741 5.40259 9.7592 5.40259 12.944V38.6492C5.40259 41.834 7.84861 44.4158 10.8659 44.4158H38.0935C41.1108 44.4158 43.5568 41.834 43.5568 38.6492V12.944C43.5568 9.7592 41.1108 7.17741 38.0935 7.17741Z" fill="#8BD5EF"/>
<path d="M45.0597 34.5445L46.5887 37.3393C46.6851 37.5155 46.8237 37.6617 46.9906 37.7634C47.1575 37.8651 47.3468 37.9187 47.5395 37.9187C47.7322 37.9187 47.9215 37.8651 48.0884 37.7634C48.2553 37.6617 48.3939 37.5155 48.4902 37.3393L50.0192 34.5445C50.1156 34.3683 50.1663 34.1685 50.1663 33.9651C50.1664 33.7617 50.1156 33.5618 50.0193 33.3856C49.9229 33.2095 49.7843 33.0632 49.6174 32.9614C49.4505 32.8597 49.2612 32.8062 49.0685 32.8062H46.0105C45.8178 32.8062 45.6284 32.8597 45.4615 32.9614C45.2946 33.0631 45.156 33.2094 45.0597 33.3856C44.9633 33.5618 44.9126 33.7616 44.9126 33.9651C44.9126 34.1685 44.9634 34.3683 45.0597 34.5445Z" fill="#8BD5EF"/>
<path d="M38.0937 45.0762H10.8656C9.25139 45.0741 7.70387 44.3963 6.56255 43.1914C5.42122 41.9865 4.7793 40.353 4.77761 38.6492V24.4924C4.77761 24.3173 4.84351 24.1494 4.96081 24.0255C5.07811 23.9017 5.2372 23.8322 5.40309 23.8322C5.56898 23.8322 5.72807 23.9017 5.84537 24.0255C5.96267 24.1494 6.02857 24.3173 6.02857 24.4924V38.6492C6.02989 40.0029 6.5399 41.3009 7.4467 42.2582C8.3535 43.2155 9.58305 43.7541 10.8656 43.7558H38.0937C39.3764 43.7543 40.6061 43.2158 41.5131 42.2584C42.4201 41.3011 42.9303 40.0031 42.9318 38.6492V12.9444C42.9303 11.5905 42.4201 10.2925 41.5131 9.3352C40.6061 8.37785 39.3764 7.83934 38.0937 7.83781H10.8656C9.58305 7.8395 8.3535 8.37809 7.4467 9.33544C6.5399 10.2928 6.02989 11.5907 6.02857 12.9444V19.3428C6.02857 19.5179 5.96267 19.6859 5.84537 19.8097C5.72807 19.9335 5.56898 20.003 5.40309 20.003C5.2372 20.003 5.07811 19.9335 4.96081 19.8097C4.84351 19.6859 4.77761 19.5179 4.77761 19.3428V12.9444C4.7793 11.2406 5.42123 9.60709 6.56255 8.40221C7.70387 7.19733 9.25139 6.5195 10.8656 6.51742H38.0937C39.708 6.51936 41.2557 7.19711 42.3972 8.40199C43.5388 9.60687 44.1809 11.2405 44.1827 12.9444V38.6492C44.1809 40.3531 43.5388 41.9868 42.3973 43.1916C41.2557 44.3965 39.708 45.0743 38.0937 45.0762Z" fill="#1D71A0"/>
<path d="M5.40305 23.0729C5.23716 23.0729 5.07807 23.0034 4.96077 22.8796C4.84347 22.7558 4.77757 22.5878 4.77757 22.4127V21.4224C4.77757 21.2473 4.84347 21.0794 4.96077 20.9556C5.07807 20.8318 5.23716 20.7622 5.40305 20.7622C5.56894 20.7622 5.72803 20.8318 5.84533 20.9556C5.96263 21.0794 6.02853 21.2473 6.02853 21.4224V22.4127C6.02853 22.5878 5.96263 22.7558 5.84533 22.8796C5.72803 23.0034 5.56894 23.0729 5.40305 23.0729Z" fill="#1D71A0"/>
<path d="M50.5605 33.0551C50.4107 32.7775 50.1935 32.547 49.9314 32.3872C49.6692 32.2275 49.3715 32.1443 49.0688 32.1462H48.1649V7.36466C48.163 5.6234 47.5068 3.95405 46.3402 2.72279C45.1737 1.49153 43.5922 0.798888 41.9425 0.796801H7.01677C5.36708 0.798888 3.78552 1.49153 2.619 2.72279C1.45249 3.95405 0.796278 5.6234 0.7943 7.36466V44.2289C0.796278 45.9702 1.45249 47.6396 2.619 48.8708C3.78552 50.1021 5.36708 50.7947 7.01677 50.7968H37.0627C37.2286 50.7968 37.3877 50.7272 37.505 50.6034C37.6223 50.4796 37.6882 50.3117 37.6882 50.1366C37.6882 49.9615 37.6223 49.7936 37.505 49.6698C37.3877 49.546 37.2286 49.4764 37.0627 49.4764H7.01677C5.69866 49.475 4.43493 48.9217 3.50288 47.9379C2.57083 46.9541 2.04662 45.6202 2.04526 44.2289V7.36466C2.04662 5.97339 2.57084 4.63951 3.50288 3.65573C4.43493 2.67195 5.69866 2.11863 7.01677 2.11719H41.9425C43.2606 2.11863 44.5243 2.67195 45.4564 3.65573C46.3884 4.63951 46.9126 5.97339 46.914 7.36466V32.1462H46.0102C45.7077 32.1463 45.4105 32.2304 45.1485 32.3901C44.8866 32.5498 44.6691 32.7795 44.5179 33.0561C44.3667 33.3326 44.2871 33.6463 44.2872 33.9656C44.2873 34.2849 44.3671 34.5986 44.5184 34.8751L46.0467 37.6699C46.1981 37.9463 46.4158 38.1757 46.6778 38.3352C46.9398 38.4948 47.237 38.5787 47.5395 38.5787C47.8419 38.5787 48.1391 38.4948 48.4011 38.3352C48.6632 38.1757 48.8808 37.9463 49.0323 37.6699L50.5605 34.8751C50.7136 34.599 50.7943 34.2849 50.7943 33.9651C50.7943 33.6452 50.7136 33.3312 50.5605 33.0551ZM49.4774 34.2149L47.9481 37.0097C47.9066 37.0853 47.847 37.1481 47.7753 37.1917C47.7036 37.2354 47.6223 37.2583 47.5395 37.2583C47.4567 37.2583 47.3753 37.2354 47.3036 37.1917C47.2319 37.1481 47.1723 37.0853 47.1308 37.0097L45.6015 34.2149C45.56 34.1391 45.538 34.0531 45.538 33.9656C45.5379 33.878 45.5596 33.792 45.6011 33.7161C45.6425 33.6403 45.7021 33.5773 45.7739 33.5335C45.8457 33.4897 45.9272 33.4666 46.0102 33.4666H49.0688C49.1517 33.4666 49.2332 33.4897 49.305 33.5335C49.3768 33.5773 49.4364 33.6403 49.4779 33.7161C49.5193 33.792 49.5411 33.878 49.541 33.9656C49.5409 34.0531 49.519 34.1391 49.4774 34.2149Z" fill="#1D71A0"/>
<path d="M20.5873 31.9586C20.4589 31.9586 20.3337 31.9168 20.2286 31.8391C20.1234 31.7614 20.0435 31.6514 19.9996 31.5241L16.2053 20.5208C16.1761 20.4391 16.1626 20.3521 16.1655 20.2648C16.1684 20.1775 16.1877 20.0917 16.2222 20.0124C16.2567 19.933 16.3058 19.8617 16.3667 19.8025C16.4275 19.7433 16.4989 19.6975 16.5766 19.6676C16.6544 19.6377 16.7369 19.6244 16.8196 19.6285C16.9022 19.6325 16.9833 19.6538 17.0581 19.6912C17.1329 19.7285 17.1999 19.7812 17.2553 19.8461C17.3106 19.9109 17.3533 19.9868 17.3807 20.0692L21.175 31.0724C21.2093 31.1722 21.2204 31.2792 21.2073 31.3844C21.1941 31.4896 21.1571 31.5899 21.0995 31.6769C21.0418 31.7638 20.9652 31.8348 20.876 31.8838C20.7869 31.9329 20.6878 31.9585 20.5873 31.9586Z" fill="#1D71A0"/>
<path d="M12.9988 31.9586C12.8982 31.9585 12.7992 31.9329 12.7101 31.8838C12.6209 31.8348 12.5442 31.7638 12.4866 31.6769C12.4289 31.5899 12.392 31.4896 12.3788 31.3844C12.3657 31.2792 12.3767 31.1722 12.4111 31.0724L16.2053 20.0692C16.2327 19.9868 16.2753 19.9109 16.3307 19.8461C16.3861 19.7812 16.4531 19.7285 16.5279 19.6912C16.6027 19.6538 16.6837 19.6325 16.7664 19.6285C16.849 19.6244 16.9316 19.6377 17.0094 19.6676C17.0871 19.6975 17.1585 19.7433 17.2193 19.8025C17.2801 19.8617 17.3292 19.933 17.3638 20.0124C17.3983 20.0917 17.4176 20.1775 17.4205 20.2648C17.4234 20.3521 17.4099 20.4391 17.3807 20.5208L13.5865 31.5241C13.5426 31.6514 13.4627 31.7614 13.3575 31.8391C13.2524 31.9168 13.1271 31.9586 12.9988 31.9586Z" fill="#1D71A0"/>
<path d="M19.0132 27.9908H14.5728C14.4069 27.9908 14.2478 27.9212 14.1305 27.7974C14.0132 27.6736 13.9473 27.5057 13.9473 27.3306C13.9473 27.1555 14.0132 26.9876 14.1305 26.8637C14.2478 26.7399 14.4069 26.6704 14.5728 26.6704H19.0132C19.1791 26.6704 19.3382 26.7399 19.4555 26.8637C19.5728 26.9876 19.6387 27.1555 19.6387 27.3306C19.6387 27.5057 19.5728 27.6736 19.4555 27.7974C19.3382 27.9212 19.1791 27.9908 19.0132 27.9908Z" fill="#1D71A0"/>
<path d="M35.9606 31.9584H32.7859C32.4115 31.958 32.0526 31.8008 31.7878 31.5214C31.5231 31.242 31.3742 30.8631 31.3738 30.4679V20.295C31.3738 20.1199 31.4397 19.9519 31.557 19.8281C31.6743 19.7043 31.8333 19.6348 31.9992 19.6348C32.1651 19.6348 32.3242 19.7043 32.4415 19.8281C32.5588 19.9519 32.6247 20.1199 32.6247 20.295V30.4679C32.6248 30.513 32.6418 30.5563 32.672 30.5882C32.7022 30.6201 32.7431 30.638 32.7859 30.638H35.9606C36.1265 30.638 36.2856 30.7076 36.4029 30.8314C36.5202 30.9552 36.5861 31.1231 36.5861 31.2982C36.5861 31.4733 36.5202 31.6413 36.4029 31.7651C36.2856 31.8889 36.1265 31.9584 35.9606 31.9584Z" fill="#1D71A0"/>
<path d="M27.9336 31.9584H24.7589C24.3845 31.958 24.0256 31.8008 23.7608 31.5214C23.4961 31.242 23.3472 30.8631 23.3468 30.4679V20.295C23.3468 20.2083 23.363 20.1224 23.3944 20.0423C23.4258 19.9622 23.4719 19.8894 23.53 19.8281C23.5881 19.7668 23.657 19.7182 23.7329 19.685C23.8088 19.6518 23.8901 19.6348 23.9723 19.6348C24.0544 19.6348 24.1357 19.6518 24.2116 19.685C24.2875 19.7182 24.3565 19.7668 24.4145 19.8281C24.4726 19.8894 24.5187 19.9622 24.5501 20.0423C24.5816 20.1224 24.5977 20.2083 24.5977 20.295V30.4679C24.5978 30.513 24.6148 30.5563 24.645 30.5882C24.6752 30.6201 24.7162 30.638 24.7589 30.638H27.9336C28.0995 30.638 28.2586 30.7076 28.3759 30.8314C28.4932 30.9552 28.5591 31.1231 28.5591 31.2982C28.5591 31.4733 28.4932 31.6413 28.3759 31.7651C28.2586 31.8889 28.0995 31.9584 27.9336 31.9584Z" fill="#1D71A0"/>
</svg>
