<svg width="50" height="50" viewBox="0 0 50 50" fill="none" xmlns="http://www.w3.org/2000/svg">
<path d="M35.577 22.7048C33.9437 23.5846 32.3518 24.4449 30.6981 25.3051C29.1889 22.0987 27.7005 18.9511 26.1913 15.7056C25.8398 16.4486 25.5505 17.0937 25.2404 17.7584C23.8346 20.8084 22.4289 23.8388 21.023 26.8888C20.4855 28.0617 19.9274 29.2349 19.3693 30.4079C19.3072 30.5447 19.1832 30.6815 19.0591 30.7403C15.7102 32.1675 12.3611 33.6143 8.82599 34.5918C7.23416 35.0415 5.60099 35.3933 3.92647 35.4911C3.01686 35.5498 2.12792 35.5106 1.28033 35.2175C0.122634 34.8263 -0.270146 34.0052 0.184665 32.9104C0.556769 32.0306 1.21831 31.3462 1.92119 30.7011C3.69908 29.1175 5.80772 28.0227 7.97839 27.0452C9.23944 26.4781 10.5419 25.9893 11.8235 25.4614C11.8443 25.5006 11.865 25.5202 11.865 25.5592C11.7409 25.6178 11.6375 25.6766 11.5135 25.7352C9.65287 26.5563 7.87502 27.4753 6.26253 28.6874C5.7457 29.0783 5.27023 29.5476 4.8361 30.0364C4.58801 30.3101 4.33994 30.6621 4.56734 31.053C4.77408 31.4244 5.2082 31.4636 5.60099 31.4636C6.69667 31.5028 7.75099 31.2681 8.76397 30.9357C10.4178 30.3688 12.051 29.7627 13.6841 29.1371C13.8908 29.0589 14.0563 28.8047 14.1597 28.5896C15.2966 26.2045 16.3924 23.7997 17.5294 21.4144C19.0178 18.2472 20.4855 15.08 21.9741 11.9127C22.5735 10.6615 23.4005 9.64485 24.8683 9.21472C26.9769 8.58909 29.0649 9.35158 30.1192 11.2285C30.8015 12.4406 31.3389 13.7114 31.9384 14.9822C33.1167 17.4651 34.2951 19.9482 35.4528 22.4506C35.4942 22.4898 35.5149 22.568 35.577 22.7048Z" fill="white"/>
<path d="M36.9799 18.055C39.1684 17.171 41.3361 16.4023 43.5866 15.922C44.6601 15.6913 45.775 15.5184 46.8899 15.4223C47.5093 15.3647 48.1905 15.4223 48.7893 15.5568C49.8421 15.7874 50.2345 16.4985 49.8629 17.4592C49.5531 18.2856 48.9751 18.9583 48.3557 19.6116C46.6421 21.3795 44.6188 22.8208 42.5336 24.1851C40.9853 25.2038 39.3747 26.1645 37.7852 27.1253C37.2483 27.4521 37.2483 27.4329 37.5168 27.9902C39.3747 31.8527 41.2124 35.6961 43.0703 39.5587C43.2769 40.0007 43.504 40.4619 43.7311 40.9423C43.5658 40.9423 43.442 40.9615 43.3387 40.9615C41.5633 40.9615 39.7877 40.9615 38.0123 40.9615C37.6818 40.9615 37.558 40.8463 37.4341 40.5964C35.8031 37.1373 34.1721 33.6976 32.5411 30.2577C32.5204 30.2001 32.4585 30.1424 32.4171 30.0656C24.7369 34.1204 16.7677 37.5987 8.65387 41C8.73644 40.8271 8.75709 40.7117 8.81902 40.6157C9.58287 39.0207 10.3262 37.4257 11.1107 35.8499C11.2139 35.6577 11.3997 35.4655 11.6063 35.3886C15.9211 33.6015 20.2774 31.8911 24.4685 29.8927C28.639 27.8941 32.8507 25.934 36.8353 23.628C38.6522 22.5709 40.4071 21.3987 42.1413 20.2265C42.7607 19.8038 43.2356 19.2272 43.7517 18.7084C43.9169 18.5353 44.0202 18.3048 44.1027 18.0935C44.2267 17.7283 44.1027 17.4016 43.6898 17.2671C43.3595 17.1518 43.0085 17.075 42.6782 17.075C40.8819 17.0173 39.1684 17.4784 37.4754 17.9782C37.3722 18.0166 37.2689 18.055 37.1657 18.0742C37.1451 18.0742 37.1038 18.0742 36.9799 18.055Z" fill="#FBD506"/>
</svg>
