<svg width="50.000000" height="50.000000" viewBox="0 0 50 50" fill="none" xmlns="http://www.w3.org/2000/svg" xmlns:xlink="http://www.w3.org/1999/xlink">
	<desc>
			Created with Pixso.
	</desc>
	<defs/>
	<g opacity="0.000000">
		<rect id="Прямоугольник 50" width="50.000000" height="50.000000" fill="#C4C4C4" fill-opacity="1.000000"/>
	</g>
	<path id="path" d="M50 5C44.22 5 38.52 6.46 33.49 9.24C30.79 10.73 28.31 12.58 26.1 14.73C25.58 15.24 25.07 15.76 24.58 16.3C22.95 18.11 21.51 20.09 20.29 22.19C19.86 22.94 19.39 23.68 18.87 24.38C18.81 24.47 18.74 24.57 18.67 24.66C14.2 30.6 7.4 34.01 0 34.01L0 45C5.77 45 11.47 43.53 16.5 40.75C19.19 39.27 21.68 37.42 23.89 35.26C24.41 34.75 24.92 34.23 25.41 33.69C27.04 31.88 28.48 29.9 29.69 27.8C30.1 27.09 30.64 26.27 31.11 25.61C31.18 25.52 31.25 25.43 31.32 25.33C35.79 19.39 42.59 15.98 50 15.98L50 5Z" fill="#2954FE" fill-opacity="1.000000" fill-rule="nonzero"/>
	<path id="path" d="M50 34.01C42.59 34.01 35.79 30.6 31.32 24.66C31.25 24.57 31.18 24.48 31.11 24.38C30.6 23.68 30.13 22.95 29.7 22.19C28.48 20.09 27.04 18.11 25.41 16.3C24.92 15.77 24.41 15.24 23.89 14.73C21.68 12.58 19.2 10.73 16.5 9.25C11.47 6.47 5.77 5 0 5L0 15.99C7.4 15.99 14.2 19.39 18.67 25.34C18.74 25.43 18.81 25.52 18.88 25.61C19.36 26.27 19.81 26.96 20.21 27.66C21.43 29.76 22.95 31.88 24.58 33.69C25.07 34.23 25.58 34.75 26.1 35.26C28.31 37.42 30.8 39.27 33.49 40.75C38.52 43.53 44.22 44.99 50 44.99L50 34.01Z" fill="#2954FE" fill-opacity="1.000000" fill-rule="nonzero"/>
</svg>
