<svg width="51" height="51" viewBox="0 0 51 51" fill="none" xmlns="http://www.w3.org/2000/svg">
<path d="M14.718 10.117C21.809 3.03169 33.332 3.03169 40.423 10.117C47.5143 17.2024 47.5143 28.7161 40.423 35.8014L32.4053 43.8127L24.3473 35.8014L21.1241 39.022L32.365 50.2539L43.6061 39.022C52.4698 30.1654 52.4698 15.7934 43.6061 6.89641C34.7421 -1.96027 20.3586 -1.96027 11.4545 6.89641L0.253905 18.1283L3.47711 21.3489L14.718 10.117Z" fill="#004559"/>
<path d="M35.6273 21.3484L29.1809 14.9475L21.1633 22.9587L22.7346 24.569L17.94 29.4L8.27043 19.7381L5.08752 22.9587L17.94 35.8009L25.9577 27.7897L27.5693 29.4L35.6273 21.3484Z" fill="#EE7203"/>
</svg>
