<svg width="50" height="50" viewBox="0 0 50 50" fill="none" xmlns="http://www.w3.org/2000/svg">
<path d="M48.6111 0H1.38889C0.555556 0 0 0.555556 0 1.38889V50H50V1.38889C50 0.555556 49.4444 0 48.6111 0Z" fill="#CFD8DC"/>
<path d="M2.77778 9.72222H47.2222V47.2222H2.77778V9.72222Z" fill="#263238"/>
<path d="M22.2222 30C22.0833 31.5278 21.6667 32.6389 20.8333 33.4722C20 34.3056 18.8889 34.7222 17.3611 34.7222C15.8333 34.7222 14.5833 34.1667 13.75 33.1944C12.9167 32.2222 12.5 30.6944 12.5 28.8889V26.6667C12.5 24.8611 12.9167 23.3333 13.75 22.3611C14.5833 21.3889 15.8333 20.8333 17.3611 20.8333C18.8889 20.8333 20 21.25 20.8333 22.0833C21.6667 22.9167 22.0833 24.0278 22.2222 25.6944H19.4444C19.4444 24.7222 19.3056 24.0278 19.0278 23.75C18.75 23.3333 18.1944 23.1944 17.5 23.1944C16.8056 23.1944 16.25 23.4722 15.8333 24.0278C15.5556 24.5833 15.4167 25.4167 15.2778 26.5278V29.0278C15.2778 30.4167 15.4167 31.25 15.6944 31.8056C15.9722 32.3611 16.5278 32.5 17.2222 32.5C17.9167 32.5 18.4722 32.3611 18.75 31.9444C19.0278 31.5278 19.1667 30.9722 19.1667 30H22.2222ZM25 25C25 24.5833 25.1389 24.3056 25.4167 24.0278C25.6944 23.75 25.9722 23.6111 26.3889 23.6111C26.8056 23.6111 27.0833 23.75 27.3611 24.0278C27.6389 24.3056 27.7778 24.5833 27.7778 25C27.7778 25.4167 27.6389 25.6944 27.3611 25.9722C27.0833 26.25 26.8056 26.3889 26.3889 26.3889C25.9722 26.3889 25.6944 26.25 25.4167 25.9722C25.1389 25.6944 25 25.4167 25 25ZM25 33.3333C25 32.9167 25.1389 32.6389 25.4167 32.3611C25.6944 32.0833 25.9722 31.9444 26.3889 31.9444C26.8056 31.9444 27.0833 32.0833 27.3611 32.3611C27.6389 32.6389 27.7778 32.9167 27.7778 33.3333C27.7778 33.75 27.6389 34.0278 27.3611 34.3056C27.0833 34.5833 26.8056 34.7222 26.3889 34.7222C25.9722 34.7222 25.6944 34.5833 25.4167 34.3056C25.1389 34.0278 25 33.75 25 33.3333ZM30.5556 20.8333H33.3333L37.5 34.7222H34.7222L30.5556 20.8333Z" fill="#76FF03"/>
<path d="M10.4167 2.77778C9.86413 2.77778 9.33423 2.99727 8.94353 3.38797C8.55283 3.77867 8.33333 4.30858 8.33333 4.86111C8.33333 5.41365 8.55283 5.94355 8.94353 6.33425C9.33423 6.72495 9.86413 6.94444 10.4167 6.94444C10.9692 6.94444 11.4991 6.72495 11.8898 6.33425C12.2805 5.94355 12.5 5.41365 12.5 4.86111C12.5 4.30858 12.2805 3.77867 11.8898 3.38797C11.4991 2.99727 10.9692 2.77778 10.4167 2.77778ZM4.86111 2.77778C4.30858 2.77778 3.77867 2.99727 3.38797 3.38797C2.99727 3.77867 2.77778 4.30858 2.77778 4.86111C2.77778 5.41365 2.99727 5.94355 3.38797 6.33425C3.77867 6.72495 4.30858 6.94444 4.86111 6.94444C5.41365 6.94444 5.94355 6.72495 6.33425 6.33425C6.72495 5.94355 6.94444 5.41365 6.94444 4.86111C6.94444 4.30858 6.72495 3.77867 6.33425 3.38797C5.94355 2.99727 5.41365 2.77778 4.86111 2.77778Z" fill="#90A4AE"/>
</svg>
