<svg width="50" height="50" viewBox="0 0 50 50" fill="none" xmlns="http://www.w3.org/2000/svg">
<path d="M49.1382 9.82051H0.861572V40.1795H49.1382V9.82051Z" fill="#FFE2E2"/>
<path d="M43.4204 13.7179H37.7125V21.4103H43.4204V13.7179Z" fill="#FF4A73"/>
<path d="M4.09184 9.82051H0.860962V40.1795H4.09184V9.82051Z" fill="#FFEFEE"/>
<path d="M49.1388 9.82051H45.908V40.1795H49.1388V9.82051Z" fill="#FFCFCF"/>
<path d="M49.1382 9H0.861568C0.385767 9 0 9.36738 0 9.82051V40.1795C0 40.6326 0.385767 41 0.861568 41H49.1384C49.6142 41 50 40.6326 50 40.1795V9.82051C49.9998 9.36738 49.614 9 49.1382 9ZM48.2766 39.359H1.72314V10.641H48.2769L48.2766 39.359Z" fill="#5F266D"/>
<path d="M24.9999 35.9791C25.4757 35.9791 25.8614 35.6117 25.8614 35.1586V14.8414C25.8614 14.3883 25.4757 14.0209 24.9999 14.0209C24.5241 14.0209 24.1383 14.3883 24.1383 14.8414V35.1588C24.1383 35.6117 24.5241 35.9791 24.9999 35.9791Z" fill="#5F266D"/>
<path d="M37.7125 22.2308H43.4204C43.8962 22.2308 44.282 21.8634 44.282 21.4103V13.7179C44.282 13.2648 43.8962 12.8974 43.4204 12.8974H37.7125C37.2367 12.8974 36.851 13.2648 36.851 13.7179V21.4103C36.851 21.8634 37.2367 22.2308 37.7125 22.2308ZM38.5741 14.5385H42.5588V20.5897H38.5741V14.5385Z" fill="#5F266D"/>
<path d="M28.9847 30.7436H43.4205C43.8963 30.7436 44.282 30.3762 44.282 29.9231C44.282 29.4699 43.8963 29.1026 43.4205 29.1026H28.9847C28.5089 29.1026 28.1231 29.4699 28.1231 29.9231C28.1231 30.3762 28.5089 30.7436 28.9847 30.7436Z" fill="#5F266D"/>
<path d="M5.64086 18.7436H20.0766C20.5524 18.7436 20.9382 18.3762 20.9382 17.9231C20.9382 17.4699 20.5524 17.1026 20.0766 17.1026H5.64086C5.16506 17.1026 4.7793 17.4699 4.7793 17.9231C4.7793 18.3762 5.16506 18.7436 5.64086 18.7436Z" fill="#5F266D"/>
<path d="M5.64086 23.4615H20.0766C20.5524 23.4615 20.9382 23.0942 20.9382 22.641C20.9382 22.1879 20.5524 21.8205 20.0766 21.8205H5.64086C5.16506 21.8205 4.7793 22.1879 4.7793 22.641C4.7793 23.0942 5.16506 23.4615 5.64086 23.4615Z" fill="#5F266D"/>
<path d="M5.64086 28.1795H20.0766C20.5524 28.1795 20.9382 27.8121 20.9382 27.359C20.9382 26.9058 20.5524 26.5385 20.0766 26.5385H5.64086C5.16506 26.5385 4.7793 26.9058 4.7793 27.359C4.7793 27.8121 5.16506 28.1795 5.64086 28.1795Z" fill="#5F266D"/>
<path d="M5.64086 32.8974H20.0766C20.5524 32.8974 20.9382 32.53 20.9382 32.0769C20.9382 31.6238 20.5524 31.2564 20.0766 31.2564H5.64086C5.16506 31.2564 4.7793 31.6238 4.7793 32.0769C4.7793 32.53 5.16506 32.8974 5.64086 32.8974Z" fill="#5F266D"/>
<path d="M37.7125 34.3381H35.8772C35.4014 34.3381 35.0156 34.7054 35.0156 35.1586C35.0156 35.6117 35.4014 35.9791 35.8772 35.9791H37.7125C38.1883 35.9791 38.5741 35.6117 38.5741 35.1586C38.5741 34.7054 38.1883 34.3381 37.7125 34.3381Z" fill="#5F266D"/>
<path d="M28.9847 35.9791H32.6463C33.1221 35.9791 33.5079 35.6117 33.5079 35.1586C33.5079 34.7054 33.1221 34.3381 32.6463 34.3381H28.9847C28.5089 34.3381 28.1231 34.7054 28.1231 35.1586C28.1231 35.6117 28.5089 35.9791 28.9847 35.9791Z" fill="#5F266D"/>
</svg>
