<svg width="50" height="50" viewBox="0 0 50 50" fill="none" xmlns="http://www.w3.org/2000/svg">
<g clip-path="url(#clip0_672_52)">
<path d="M0 1.51V6.32C0 7.15 0.7 7.82 1.59 7.82H48.4C49.29 7.82 50 7.15 50 6.32V1.51C50 0.67 49.29 0 48.4 0H1.59C0.7 0 0 0.67 0 1.51Z" fill="#FD4755"/>
<path d="M48.4 0H46.34V3.26C46.34 4.1 45.64 4.78 44.76 4.78H0V6.32C0 7.15 0.7 7.82 1.59 7.82H48.4C49.29 7.82 50 7.15 50 6.32V1.51C50 0.67 49.29 0 48.4 0Z" fill="#FB2B3A"/>
<path d="M48.42 29.21H30.42V30.17C30.42 30.95 29.76 31.57 28.93 31.57H19.48V48.5C19.48 49.32 20.18 50 21.07 50H48.42C49.29 50 50 49.32 50 48.5V30.73C50 29.89 49.29 29.21 48.42 29.21Z" fill="#60B7FF"/>
<path d="M48.42 29.21H46.85V45.48C46.85 46.32 46.14 47 45.26 47H19.48V48.5C19.48 49.32 20.18 50 21.07 50H48.42C49.29 50 50 49.32 50 48.5V30.73C50 29.89 49.29 29.21 48.42 29.21Z" fill="#26A6FE"/>
<path d="M39.29 38.73L32.82 35.18C32.1 34.79 31.23 35.28 31.23 36.04V43.17C31.23 43.93 32.1 44.42 32.82 44.04L39.29 40.48C40 40.09 40 39.12 39.29 38.73Z" fill="white"/>
<path d="M39.29 38.73L37.64 37.82L31.23 41.34V43.15C31.23 43.93 32.1 44.42 32.82 44.03L39.29 40.48C40 40.09 40 39.12 39.29 38.73Z" fill="#F8F6F6"/>
<path d="M0.01 25.92L4.06 22.07C4.34 21.81 4.71 21.65 5.1 21.65C5.5 21.65 5.87 21.81 6.15 22.07L9.84 25.57C9.96 25.68 10.1 25.75 10.28 25.75C10.46 25.75 10.6 25.68 10.73 25.57L20.18 16.57C20.48 16.29 20.84 16.15 21.25 16.15C21.65 16.15 22.03 16.31 22.31 16.57L30.5 24.37L30.51 24.35V12.4C30.51 11.56 29.81 10.89 28.93 10.89H1.59C0.7 10.89 0 11.56 0 12.4V25.9L0.01 25.92Z" fill="#EAF6FF"/>
<path d="M30.5 24.37L30.51 24.35V12.4C30.51 11.56 29.81 10.89 28.92 10.89H26.85V20.9L30.5 24.37Z" fill="#D8ECFE"/>
<path d="M22.39 16.51C21.76 15.9 20.75 15.9 20.12 16.51L10.65 25.51C10.6 25.56 10.54 25.59 10.48 25.62C10.42 25.64 10.35 25.65 10.28 25.65C10.21 25.65 10.15 25.64 10.07 25.62C10.01 25.59 9.96 25.56 9.9 25.51L6.23 22C5.6 21.42 4.6 21.42 3.98 22L0 25.79V30.17C0 31 0.7 31.67 1.57 31.67H28.93C29.81 31.67 30.51 31 30.51 30.17V24.25L22.39 16.51Z" fill="#05E39C"/>
<path d="M26.85 20.76V27.17C26.85 28.01 26.15 28.68 25.28 28.68H0V30.17C0 31 0.7 31.67 1.57 31.67H28.93C29.81 31.67 30.51 31 30.51 30.17V24.25L26.85 20.76Z" fill="#0ED290"/>
<path d="M10.3125 18.6302C11.422 18.6302 12.3215 17.7744 12.3215 16.7188C12.3215 15.6631 11.422 14.8073 10.3125 14.8073C9.20295 14.8073 8.30348 15.6631 8.30348 16.7188C8.30348 17.7744 9.20295 18.6302 10.3125 18.6302Z" fill="#FFD15B"/>
<path d="M11.12 14.98C11.21 15.2 11.25 15.42 11.25 15.64C11.25 16.7 10.35 17.56 9.25 17.56C8.95 17.56 8.68 17.5 8.42 17.39C8.7 18.1 9.43 18.64 10.29 18.64C11.42 18.64 12.31 17.78 12.31 16.71C12.31 15.95 11.82 15.28 11.12 14.98Z" fill="#FFC344"/>
<path d="M48.42 25.9H35.81C34.92 25.9 34.21 25.23 34.21 24.39V12.4C34.21 11.56 34.92 10.89 35.81 10.89H48.42C49.29 10.89 50 11.56 50 12.4V24.39C50 25.23 49.29 25.9 48.42 25.9Z" fill="#FFD15B"/>
<path d="M48.42 10.89H46.89V21.4C46.89 22.23 46.18 22.92 45.29 22.92H34.21V24.39C34.21 25.23 34.92 25.9 35.81 25.9H48.42C49.29 25.9 50 25.23 50 24.39V12.4C50 11.56 49.29 10.89 48.42 10.89Z" fill="#FFC344"/>
<path d="M46.32 13.65H37.87C37.78 13.65 37.67 13.67 37.57 13.71C37.48 13.75 37.4 13.79 37.32 13.87C37.26 13.93 37.2 14.01 37.17 14.1C37.12 14.2 37.1 14.29 37.1 14.39V15.9C37.1 16.31 37.45 16.64 37.87 16.64C38.29 16.64 38.65 16.31 38.65 15.9V15.12H41.32V21.68H40.57C40.14 21.68 39.79 22.01 39.79 22.42C39.79 22.82 40.14 23.15 40.57 23.15H43.62C44.06 23.15 44.4 22.82 44.4 22.42C44.4 22.01 44.06 21.68 43.62 21.68H42.87V15.12H45.54V15.9C45.54 16.31 45.89 16.64 46.32 16.64C46.75 16.64 47.09 16.31 47.09 15.9V14.39C47.09 14.29 47.07 14.2 47.03 14.1C47 14.01 46.93 13.93 46.85 13.87C46.79 13.79 46.7 13.75 46.6 13.71C46.51 13.67 46.42 13.65 46.32 13.65Z" fill="white"/>
<path d="M15.07 37.98H1.79C1.37 37.98 1.03 37.65 1.03 37.25C1.03 36.84 1.37 36.51 1.79 36.51H15.07C15.17 36.51 15.28 36.53 15.37 36.57C15.46 36.6 15.54 36.65 15.62 36.73C15.68 36.79 15.75 36.87 15.78 36.96C15.82 37.06 15.84 37.15 15.84 37.25C15.84 37.34 15.82 37.43 15.78 37.53C15.75 37.62 15.68 37.7 15.62 37.76C15.54 37.82 15.46 37.89 15.37 37.92C15.28 37.96 15.17 37.98 15.07 37.98ZM15.07 42H1.79C1.37 42 1.03 41.67 1.03 41.26C1.03 40.87 1.37 40.54 1.79 40.54H15.07C15.17 40.54 15.28 40.56 15.37 40.59C15.46 40.62 15.54 40.68 15.62 40.75C15.68 40.82 15.75 40.9 15.78 40.98C15.82 41.07 15.84 41.17 15.84 41.26C15.84 41.37 15.82 41.46 15.78 41.54C15.75 41.64 15.68 41.71 15.62 41.79C15.54 41.85 15.46 41.9 15.37 41.95C15.28 41.98 15.17 42 15.07 42ZM15.07 46.03H1.79C1.37 46.03 1.03 45.7 1.03 45.29C1.03 44.89 1.37 44.56 1.79 44.56H15.07C15.17 44.56 15.28 44.57 15.37 44.62C15.46 44.65 15.54 44.7 15.62 44.78C15.68 44.84 15.75 44.92 15.78 45.01C15.82 45.1 15.84 45.2 15.84 45.29C15.84 45.39 15.82 45.48 15.78 45.57C15.75 45.67 15.68 45.75 15.62 45.81C15.54 45.89 15.46 45.93 15.37 45.96C15.28 46.01 15.17 46.03 15.07 46.03Z" fill="#8AC9FE"/>
<path d="M40.29 4.65H40.18C39.76 4.65 39.42 4.32 39.42 3.92C39.42 3.51 39.76 3.18 40.18 3.18H40.29C40.71 3.18 41.06 3.51 41.06 3.92C41.06 4.32 40.71 4.65 40.29 4.65ZM43.21 4.65H43.1C42.68 4.65 42.34 4.32 42.34 3.92C42.34 3.51 42.68 3.18 43.1 3.18H43.21C43.64 3.18 43.98 3.51 43.98 3.92C43.98 4.32 43.64 4.65 43.21 4.65ZM46.14 4.65H46.03C45.6 4.65 45.26 4.32 45.26 3.92C45.26 3.51 45.6 3.18 46.03 3.18H46.14C46.56 3.18 46.9 3.51 46.9 3.92C46.9 4.32 46.56 4.65 46.14 4.65ZM5.96 4.65H3.84C3.42 4.65 3.07 4.32 3.07 3.92C3.07 3.51 3.42 3.18 3.84 3.18H5.96C6.06 3.18 6.15 3.2 6.25 3.25C6.35 3.28 6.43 3.32 6.5 3.4C6.57 3.46 6.64 3.54 6.67 3.64C6.71 3.73 6.73 3.82 6.73 3.92C6.73 4.01 6.71 4.1 6.67 4.2C6.64 4.29 6.57 4.37 6.5 4.43C6.43 4.5 6.35 4.56 6.25 4.59C6.15 4.64 6.06 4.65 5.96 4.65Z" fill="white"/>
</g>
<defs>
<clipPath id="clip0_672_52">
<rect width="50" height="50" fill="white"/>
</clipPath>
</defs>
</svg>
