<svg width="50.000000" height="50.000000" viewBox="0 0 50 50" fill="none" xmlns="http://www.w3.org/2000/svg" xmlns:xlink="http://www.w3.org/1999/xlink">
	<desc>
			Created with Pixso.
	</desc>
	<defs/>
	<g opacity="0.000000">
		<rect id="Прямоугольник 70" width="50.000000" height="50.000000" fill="#C4C4C4" fill-opacity="1.000000"/>
	</g>
	<path id="blue" d="M41.02 35.25C41.76 35.2 42.61 35.34 43.16 35.14C43.68 35.36 44.35 34.99 44.87 35.08C45.23 35.15 45.24 35.41 45.59 35.47C46.49 34.76 47.14 33.8 47.95 33C47.86 32.69 47.81 32.34 47.73 32.01L47.4 31.52L47.06 31.52C47.04 31.28 46.97 31.06 46.85 30.85C46.67 30.88 46.48 30.88 46.3 30.85C46.05 30.84 45.82 30.92 45.69 30.85C45.24 30.54 44.82 30.2 44.43 29.81C44.15 29.56 43.43 28.92 43.05 28.88C42.68 28.84 42.26 29.09 41.84 29.21C41.42 29.34 41 29.45 40.57 29.54C39.79 29.65 38.86 29.61 37.99 29.65C32.52 29.84 26.45 30.23 21.1 30.3C27.78 26.75 34.59 22.81 41.3 19.19C41.8 18.91 42.44 18.47 42.78 18.42C43.27 18.34 43.9 18.52 44.38 18.58C44.88 18.63 45.38 18.73 45.86 18.86C47.2 18.12 48.69 17.54 50 16.77C49.71 16.65 49.47 16.47 49.28 16.22C49.29 16.18 49.29 16.14 49.28 16.09C49.52 15.98 49.75 15.87 49.99 15.78C49.59 15.25 48.85 14.94 48.16 14.54C48.09 14.47 47.97 14.41 48.04 14.31C47.32 13.87 46.62 13.39 45.84 13C45.08 13.26 44.67 13.51 43.9 13.76C43.78 13.82 43.58 13.62 43.41 13.6C42.27 14.28 41.07 14.87 39.83 15.35C38.91 15.74 38.03 16.19 37.19 16.72C36.91 16.9 36.6 17.05 36.31 17.22L35.54 17.78C26.14 22.47 18.48 25.79 9.41 29.92C9.57 30.01 9.71 30.13 9.83 30.27L5.89 31.68C4.75 32.3 2.88 32.99 1.32 32.5C0.84 32.69 0.4 32.95 0 33.27C0.45 33.51 0.94 33.75 1.44 33.99C1.37 34.02 1.29 34.06 1.21 34.1C2.72 34.78 4.47 35.64 6.06 36.29C6.61 36.55 7.18 36.77 7.77 36.95C8.19 37.01 8.61 37.01 9.03 36.95C10.8 36.87 12.47 36.77 14.15 36.62C15.12 36.53 16.12 36.35 17.07 36.35C18.63 36.35 20.18 36.41 21.75 36.4C23.33 36.4 24.94 36.2 26.54 36.13C29.69 35.99 32.92 35.83 36.18 35.64C37.81 35.53 39.44 35.36 41.02 35.25Z" fill="#52BEDC" fill-opacity="1.000000" fill-rule="nonzero"/>
	<path id="yellow" d="M32.89 35.14C33.32 35.11 33.75 35.08 34.18 35.05L32.89 35.05L32.89 35.14ZM44.51 34.67C44.5 34.66 44.47 34.67 44.46 34.67C44.55 34.75 44.64 34.81 44.76 34.85C44.81 34.81 44.86 34.77 44.92 34.72C44.91 34.72 44.91 34.67 44.9 34.67C44.89 34.66 44.86 34.67 44.84 34.67C44.79 34.66 44.73 34.66 44.68 34.67C44.68 34.69 44.68 34.7 44.68 34.72C44.67 34.73 44.63 34.72 44.62 34.72C44.6 34.72 44.59 34.72 44.57 34.72C44.56 34.72 44.52 34.73 44.51 34.72C44.51 34.72 44.52 34.68 44.51 34.67ZM32.78 35.11L32.78 35.05L31.96 35.05C31.95 35.04 31.97 35.01 31.96 35C31.95 34.99 31.91 35 31.9 35C31.85 35 31.79 35 31.74 35C31.74 34.99 31.73 34.95 31.74 34.94C31.74 34.94 31.78 34.95 31.79 34.94C31.83 34.94 31.87 34.95 31.9 34.94L33.06 34.94C33.1 34.95 33.13 34.95 33.17 34.94C33.18 34.94 33.17 34.89 33.17 34.89C33.18 34.88 33.22 34.89 33.22 34.89L33.28 34.89C33.27 34.84 33.29 34.78 33.28 34.72C33.28 34.72 33.28 34.68 33.28 34.67C33.27 34.66 33.23 34.68 33.22 34.67C33.21 34.66 33.23 34.63 33.22 34.62C33.21 34.61 33.18 34.63 33.17 34.62L33.17 34.56C33.18 34.55 33.21 34.57 33.22 34.56L33.34 34.56C33.35 34.57 33.38 34.55 33.39 34.56C33.4 34.57 33.38 34.61 33.39 34.62C33.4 34.62 33.43 34.61 33.44 34.62C33.48 34.62 33.52 34.61 33.56 34.62C33.55 34.63 33.56 34.66 33.56 34.67C33.55 34.68 33.51 34.67 33.5 34.67C33.48 34.67 33.47 34.67 33.45 34.67C33.43 34.69 33.45 34.76 33.45 34.78L33.45 34.84C33.47 34.85 33.54 34.82 33.56 34.84C33.56 34.84 33.55 34.89 33.56 34.89C33.61 34.89 33.67 34.89 33.72 34.89C33.82 34.9 33.91 34.88 34 34.89L34.33 34.89C34.42 34.89 34.51 34.88 34.6 34.89C34.64 34.89 34.68 34.89 34.72 34.89C34.72 34.89 34.76 34.88 34.77 34.89C34.78 34.9 34.76 34.93 34.77 34.94L35.95 34.94C37.54 34.85 39.12 34.75 40.61 34.67C40.61 34.65 40.61 34.63 40.61 34.62L40.5 34.62C40.48 34.61 40.46 34.61 40.44 34.62C40.43 34.62 40.45 34.66 40.44 34.67C40.43 34.68 40.4 34.66 40.39 34.67L39.78 34.67C39.77 34.66 39.79 34.63 39.78 34.62C39.77 34.61 39.73 34.62 39.73 34.62C39.67 34.61 39.61 34.62 39.56 34.62L39.34 34.62C39.34 34.6 39.33 34.57 39.34 34.56C39.35 34.55 39.38 34.57 39.39 34.56C39.4 34.56 39.44 34.57 39.45 34.56C39.45 34.56 39.44 34.51 39.45 34.51C39.5 34.49 39.56 34.52 39.61 34.51L40.88 34.51C40.88 34.5 40.87 34.46 40.88 34.45C40.88 34.45 40.93 34.45 40.93 34.45C41.04 34.45 41.15 34.45 41.26 34.45L45.24 34.45C45.93 33.81 46.48 33.03 47.18 32.39C47.04 31.92 47.13 31.28 46.85 30.86C46.67 30.88 46.48 30.88 46.3 30.86C46.27 30.86 46.25 30.86 46.22 30.86L46.22 30.89C46.21 30.9 46.18 30.88 46.17 30.89C46.16 30.9 46.18 30.94 46.17 30.95C46.16 30.95 46.12 30.95 46.11 30.95C46.12 30.93 46.12 30.91 46.11 30.89C46.11 30.88 46.07 30.89 46.06 30.89C46.03 30.88 45.98 30.9 45.95 30.89C45.87 30.91 45.78 30.89 45.7 30.86C45.24 30.55 44.82 30.2 44.43 29.81C44.15 29.56 43.43 28.92 43.06 28.88C42.69 28.84 42.26 29.09 41.84 29.21C41.43 29.34 41.01 29.45 40.58 29.54C39.79 29.65 38.86 29.62 37.99 29.65C34.9 29.75 31.62 29.93 28.39 30.07C28.39 30.08 28.39 30.12 28.39 30.12C28.44 30.13 28.5 30.13 28.56 30.12C28.59 30.13 28.63 30.12 28.67 30.12C28.69 30.13 28.7 30.13 28.72 30.12C28.73 30.12 28.77 30.13 28.78 30.12C28.78 30.12 28.77 30.08 28.78 30.07C28.81 30.07 28.85 30.07 28.89 30.07C28.96 30.07 29.03 30.07 29.11 30.07C29.15 30.07 29.18 30.07 29.22 30.07C29.23 30.07 29.27 30.06 29.27 30.07C29.28 30.08 29.27 30.11 29.27 30.12L29.71 30.12C29.74 30.14 29.81 30.11 29.83 30.12C29.84 30.14 29.82 30.17 29.83 30.18C29.86 30.18 29.9 30.17 29.94 30.18C29.94 30.18 29.98 30.17 29.99 30.18C30 30.19 29.98 30.22 29.99 30.23L30.48 30.23C30.49 30.22 30.48 30.19 30.48 30.18C30.49 30.17 30.53 30.18 30.54 30.18C30.59 30.18 30.65 30.18 30.71 30.18C30.71 30.18 30.75 30.18 30.76 30.18C30.77 30.17 30.75 30.13 30.76 30.12C30.79 30.11 30.84 30.13 30.87 30.12C30.87 30.14 30.86 30.17 30.87 30.18C30.87 30.18 30.92 30.18 30.92 30.18C30.93 30.18 30.97 30.17 30.98 30.18C30.99 30.18 30.97 30.23 30.98 30.23C30.99 30.24 31.02 30.23 31.03 30.23C31.04 30.24 31.08 30.22 31.09 30.23C31.09 30.24 31.08 30.28 31.09 30.29C31.12 30.3 31.16 30.27 31.2 30.29L31.36 30.29C31.37 30.27 31.35 30.24 31.36 30.23C31.37 30.23 31.41 30.23 31.42 30.23C31.44 30.23 31.45 30.23 31.47 30.23C31.49 30.23 31.57 30.24 31.58 30.23C31.59 30.22 31.57 30.19 31.58 30.18L31.91 30.18C31.92 30.19 31.9 30.22 31.91 30.23C31.92 30.24 31.96 30.23 31.96 30.23C31.98 30.23 32 30.23 32.02 30.23C32.03 30.24 32.07 30.22 32.07 30.23C32.08 30.24 32.06 30.28 32.07 30.29C32.09 30.3 32.12 30.28 32.13 30.29L32.4 30.29C32.41 30.27 32.39 30.24 32.4 30.23C32.41 30.22 32.45 30.24 32.46 30.23C32.47 30.22 32.5 30.24 32.51 30.23C32.52 30.22 32.5 30.18 32.51 30.18C32.52 30.17 32.56 30.19 32.57 30.18C32.57 30.17 32.56 30.13 32.57 30.12C32.6 30.11 32.64 30.13 32.67 30.12C32.73 30.12 32.79 30.13 32.84 30.12C32.85 30.14 32.83 30.17 32.84 30.18C32.85 30.19 32.89 30.17 32.89 30.18C32.91 30.18 32.94 30.17 32.95 30.18C32.96 30.19 32.94 30.22 32.95 30.23C32.99 30.24 33.02 30.22 33.06 30.23C33.07 30.24 33.11 30.23 33.12 30.23C33.12 30.24 33.11 30.28 33.12 30.29L33.34 30.29C33.37 30.29 33.41 30.29 33.44 30.29C33.45 30.28 33.44 30.24 33.44 30.23C33.45 30.22 33.49 30.24 33.5 30.23C33.51 30.22 33.54 30.24 33.55 30.23C33.56 30.22 33.54 30.19 33.55 30.18L33.94 30.18C33.95 30.19 33.93 30.22 33.94 30.23C33.95 30.24 33.98 30.22 33.99 30.23C34.01 30.24 34.04 30.22 34.05 30.23C34.06 30.24 34.04 30.28 34.05 30.29L34.49 30.29C34.5 30.27 34.48 30.24 34.49 30.23C34.5 30.22 34.53 30.24 34.54 30.23C34.56 30.22 34.59 30.24 34.6 30.23C34.6 30.23 34.59 30.18 34.6 30.18C34.65 30.16 34.71 30.19 34.76 30.18L34.93 30.18C34.94 30.19 34.92 30.22 34.93 30.23C34.94 30.24 34.98 30.22 34.98 30.23C34.99 30.24 34.98 30.28 34.98 30.29C34.99 30.3 35.03 30.28 35.04 30.29C35.05 30.29 35.03 30.33 35.04 30.34C35.04 30.35 35.09 30.34 35.09 30.34C35.15 30.34 35.2 30.34 35.26 30.34C35.27 30.33 35.25 30.3 35.26 30.29C35.27 30.28 35.31 30.29 35.31 30.29C35.33 30.29 35.35 30.29 35.37 30.29C35.39 30.28 35.47 30.3 35.48 30.29C35.49 30.27 35.47 30.24 35.48 30.23C35.49 30.22 35.52 30.24 35.53 30.23C35.54 30.23 35.53 30.18 35.53 30.18C35.53 30.17 35.53 30.13 35.53 30.12C35.55 30.12 35.57 30.12 35.59 30.12C35.6 30.13 35.58 30.17 35.59 30.18L35.92 30.18C35.92 30.19 35.91 30.22 35.92 30.23C35.93 30.24 35.96 30.22 35.97 30.23C35.99 30.25 36.07 30.21 36.08 30.23C36.09 30.24 36.07 30.27 36.08 30.29L36.41 30.29C36.42 30.28 36.45 30.3 36.46 30.29C36.47 30.28 36.45 30.24 36.46 30.23C36.47 30.22 36.51 30.24 36.52 30.23C36.53 30.22 36.51 30.19 36.52 30.18C36.54 30.19 36.61 30.16 36.63 30.18C36.64 30.19 36.62 30.22 36.63 30.23C36.68 30.24 36.74 30.22 36.79 30.23C36.8 30.24 36.84 30.23 36.85 30.23C36.86 30.24 36.84 30.28 36.85 30.29C36.86 30.3 36.89 30.28 36.9 30.29C36.91 30.29 36.9 30.33 36.9 30.34C36.91 30.35 36.95 30.34 36.96 30.34C36.97 30.34 37 30.33 37.01 30.34C37.02 30.35 37 30.39 37.01 30.4C37.02 30.41 37.06 30.39 37.06 30.4L37.23 30.4C37.24 30.39 37.22 30.35 37.23 30.34C37.24 30.33 37.28 30.35 37.29 30.34C37.29 30.33 37.28 30.29 37.29 30.29C37.31 30.27 37.38 30.3 37.4 30.29C37.41 30.27 37.39 30.24 37.4 30.23C37.42 30.22 37.49 30.25 37.51 30.23C37.51 30.22 37.5 30.19 37.51 30.18C37.52 30.18 37.55 30.17 37.56 30.18C37.57 30.19 37.55 30.23 37.56 30.23C37.57 30.24 37.6 30.23 37.61 30.23C37.67 30.24 37.73 30.22 37.78 30.23C37.8 30.25 37.88 30.21 37.89 30.23C37.9 30.24 37.88 30.28 37.89 30.29C37.9 30.3 37.94 30.28 37.95 30.29C37.96 30.3 37.94 30.33 37.95 30.34L38.33 30.34C38.34 30.33 38.32 30.3 38.33 30.29C38.34 30.28 38.38 30.29 38.39 30.29C38.4 30.29 38.43 30.29 38.44 30.29C38.45 30.28 38.44 30.24 38.44 30.23C38.45 30.22 38.49 30.24 38.5 30.23L38.72 30.23C38.72 30.22 38.71 30.19 38.72 30.18C38.73 30.16 38.81 30.19 38.83 30.18C38.84 30.21 38.82 30.26 38.83 30.29C38.83 30.3 38.88 30.28 38.88 30.29C38.89 30.3 38.88 30.33 38.88 30.34L39.32 30.34C39.34 30.35 39.36 30.35 39.38 30.34C39.38 30.34 39.37 30.3 39.38 30.29C39.39 30.28 39.42 30.3 39.43 30.29C39.44 30.28 39.43 30.24 39.43 30.24C39.44 30.23 39.48 30.24 39.49 30.24C39.5 30.23 39.53 30.24 39.54 30.24C39.55 30.23 39.53 30.19 39.54 30.18C39.55 30.19 39.59 30.17 39.6 30.18C39.6 30.19 39.59 30.23 39.6 30.24C39.61 30.24 39.64 30.23 39.65 30.24C39.66 30.24 39.64 30.28 39.65 30.29C39.66 30.3 39.7 30.29 39.7 30.29C39.71 30.29 39.75 30.28 39.76 30.29C39.77 30.3 39.75 30.33 39.76 30.34C39.77 30.35 39.81 30.33 39.81 30.34C39.82 30.36 39.8 30.39 39.81 30.4C39.82 30.41 39.86 30.39 39.87 30.4C39.88 30.41 39.86 30.44 39.87 30.46C39.89 30.47 39.96 30.44 39.98 30.46C39.98 30.46 39.97 30.51 39.98 30.51C40 30.52 40.08 30.49 40.09 30.51C40.09 30.52 40.08 30.56 40.09 30.56C40.1 30.57 40.13 30.55 40.14 30.56C40.15 30.57 40.13 30.61 40.14 30.62C40.15 30.63 40.18 30.61 40.2 30.62C40.21 30.62 40.24 30.61 40.25 30.62C40.26 30.63 40.24 30.66 40.25 30.67C40.27 30.68 40.35 30.65 40.36 30.67C40.37 30.68 40.35 30.71 40.36 30.73L40.53 30.73L40.53 30.78C40.56 30.78 40.6 30.78 40.64 30.78C40.65 30.78 40.69 30.79 40.69 30.78C40.69 30.78 40.69 30.73 40.69 30.73C40.73 30.72 40.77 30.72 40.8 30.73C40.81 30.73 40.8 30.77 40.8 30.78C40.81 30.79 40.85 30.77 40.86 30.78L40.97 30.78C40.96 30.79 40.98 30.82 40.97 30.83C40.96 30.84 40.92 30.82 40.91 30.83C40.91 30.84 40.92 30.89 40.91 30.89C40.89 30.89 40.88 30.89 40.86 30.89L40.25 30.89C40.21 30.88 40.18 30.88 40.14 30.89C40.14 30.89 40.15 30.94 40.14 30.94C40.13 30.95 40.1 30.93 40.09 30.94C40.08 30.95 40.1 30.99 40.09 31C40.07 31.01 40.05 31.01 40.03 31C40.01 30.98 40.01 30.96 40.03 30.94C40.05 30.93 40.08 30.95 40.09 30.94C40.08 30.93 40.1 30.89 40.09 30.89C40.07 30.88 40 30.89 39.98 30.89L39.87 30.89C39.86 30.9 39.88 30.93 39.87 30.94C39.86 30.95 39.82 30.93 39.81 30.94C39.8 30.95 39.82 30.99 39.81 31C39.8 31.01 39.77 30.99 39.76 31L39.21 31C39.2 31 39.21 31.05 39.21 31.05C39.19 31.05 39.17 31.05 39.15 31.05C39.15 31.04 39.16 31.01 39.15 31C39.15 30.98 39.16 30.95 39.15 30.94C39.15 30.94 39.11 30.95 39.1 30.94C39.06 30.94 39.03 30.94 38.99 30.94L38.88 30.94C38.87 30.95 38.89 30.99 38.88 31C38.87 31 38.83 31 38.83 31C38.81 30.99 38.79 30.99 38.77 31C38.68 31.01 38.59 31 38.5 31L38.28 31C38.24 31.01 38.2 30.98 38.16 31C38.16 31 38.17 31.04 38.16 31.05C38.15 31.06 38.12 31.04 38.11 31.05C38.1 31.06 38.06 31.04 38.06 31.05C38.05 31.06 38.06 31.1 38.06 31.1C38.04 31.11 38.01 31.1 38 31.1C37.98 31.09 37.9 31.12 37.89 31.1C37.88 31.09 37.9 31.06 37.89 31.05L37.73 31.05C37.72 31.04 37.74 31.01 37.73 31C37.72 30.99 37.68 31 37.67 31C37.62 30.99 37.56 31 37.51 31C37.49 30.99 37.41 31.01 37.4 31C37.39 30.98 37.4 30.95 37.4 30.94L37.18 30.94C37.17 30.95 37.19 30.99 37.18 31C37.17 31.01 37.13 30.99 37.12 31C37.11 31.01 37.13 31.04 37.12 31.05C37.11 31.06 37.08 31.04 37.07 31.05C37.06 31.06 37.07 31.1 37.07 31.1C37.06 31.11 37.02 31.1 37.01 31.1L36.79 31.1C36.76 31.1 36.72 31.11 36.68 31.1C36.67 31.1 36.63 31.11 36.63 31.1C36.62 31.1 36.63 31.05 36.63 31.05C36.61 31.04 36.53 31.07 36.52 31.05C36.51 31.04 36.52 31.01 36.52 31L36.13 31C36.13 31.01 36.14 31.04 36.13 31.05C36.13 31.06 36.09 31.05 36.08 31.05C36.04 31.06 36 31.06 35.97 31.05C35.91 31.05 35.86 31.05 35.8 31.05C35.8 31.06 35.81 31.1 35.8 31.1C35.8 31.11 35.75 31.1 35.75 31.1L35.36 31.1C35.36 31.09 35.37 31.06 35.36 31.05C35.36 31.04 35.32 31.05 35.31 31.05C35.2 31.04 35.09 31.05 34.98 31.05C34.89 31.05 34.8 31.05 34.71 31.05C34.62 31.05 34.52 31.04 34.43 31.05C34.42 31.05 34.33 31.04 34.32 31.05C34.32 31.06 34.33 31.1 34.32 31.1C34.3 31.11 34.28 31.11 34.27 31.1L34.21 31.1C34.21 31.1 34.21 31.05 34.21 31.05C34.21 31.04 34.16 31.05 34.16 31.05C34.1 31.05 34.05 31.05 33.99 31.05C33.9 31.05 33.81 31.05 33.72 31.05C33.63 31.05 33.53 31.04 33.44 31.05C33.4 31.05 33.37 31.05 33.33 31.05C33.32 31.05 33.28 31.04 33.28 31.05C33.28 31.05 33.28 31.1 33.28 31.1C33.24 31.11 33.2 31.11 33.17 31.1C33.16 31.1 33.17 31.05 33.17 31.05C33.13 31.05 33.09 31.05 33.06 31.05L33 31.05C32.93 31.05 32.86 31.05 32.78 31.05C32.77 31.05 32.73 31.04 32.73 31.05C32.72 31.06 32.73 31.1 32.73 31.1C32.69 31.11 32.66 31.11 32.62 31.1C32.62 31.1 32.62 31.05 32.62 31.05C32.61 31.04 32.57 31.05 32.57 31.05C32.51 31.05 32.45 31.05 32.4 31.05C32.29 31.05 32.21 31.05 32.07 31.05C32.05 31.05 32.03 31.05 32.02 31.05C32.01 31.05 32.02 31.1 32.02 31.1C32.01 31.11 31.97 31.1 31.96 31.1C31.89 31.11 31.81 31.11 31.74 31.1L31.41 31.1C31.39 31.11 31.38 31.11 31.36 31.1C31.35 31.1 31.36 31.06 31.36 31.05C31.35 31.04 31.31 31.06 31.3 31.05L31.19 31.05C31.19 31.06 31.2 31.1 31.19 31.1C31.19 31.11 31.15 31.1 31.14 31.1C31.1 31.11 31.07 31.11 31.03 31.1C30.98 31.11 30.92 31.1 30.87 31.1L30.76 31.1C30.75 31.12 30.77 31.15 30.76 31.16C30.75 31.16 30.71 31.16 30.7 31.16C30.61 31.16 30.52 31.16 30.43 31.16L28.88 31.16C28.83 31.17 28.77 31.14 28.72 31.16C28.71 31.16 28.72 31.21 28.72 31.21C28.71 31.22 28.67 31.21 28.66 31.21L28.5 31.21C28.49 31.21 28.46 31.22 28.45 31.21C28.44 31.21 28.45 31.16 28.45 31.16C28.44 31.15 28.4 31.17 28.39 31.16C28.38 31.15 28.4 31.12 28.39 31.1L28.17 31.1C28.14 31.1 28.1 31.1 28.06 31.1C28.06 31.1 28.07 31.16 28.06 31.16C28.06 31.16 28.01 31.16 28.01 31.16L27.95 31.16C27.88 31.15 27.81 31.17 27.73 31.16C27.72 31.16 27.63 31.17 27.63 31.16C27.62 31.15 27.63 31.12 27.63 31.1L27.46 31.1C27.45 31.12 27.47 31.15 27.46 31.16C27.45 31.16 27.41 31.16 27.4 31.16C27.39 31.16 27.37 31.16 27.35 31.16C27.33 31.18 27.36 31.24 27.35 31.27L27.18 31.27C27.17 31.25 27.2 31.17 27.18 31.16C27.18 31.15 27.14 31.16 27.13 31.16C27.09 31.15 27.06 31.15 27.02 31.16L26.63 31.16C26.63 31.15 26.64 31.11 26.63 31.1C26.63 31.1 26.58 31.1 26.58 31.1L26.08 31.1C26.08 31.12 26.09 31.15 26.08 31.16C26.06 31.16 26.05 31.16 26.03 31.16C25.99 31.15 25.95 31.17 25.92 31.16C25.91 31.16 25.87 31.16 25.86 31.16C25.86 31.16 25.87 31.1 25.86 31.1C25.81 31.1 25.75 31.1 25.7 31.1C25.63 31.1 25.55 31.1 25.48 31.1C25.42 31.1 25.37 31.1 25.31 31.1C25.31 31.1 25.32 31.16 25.31 31.16C25.31 31.16 25.26 31.16 25.26 31.16C25.24 31.16 25.22 31.16 25.2 31.16C25.17 31.16 25.13 31.16 25.09 31.16C25.09 31.16 25.05 31.16 25.04 31.16C25.03 31.15 25.05 31.12 25.04 31.1L24.71 31.1C24.7 31.11 24.67 31.1 24.66 31.1C24.65 31.11 24.66 31.16 24.66 31.16C24.63 31.17 24.58 31.16 24.55 31.16C24.48 31.17 24.4 31.15 24.33 31.16L24.33 31.05C24.33 31.01 24.33 30.98 24.33 30.94C24.32 30.93 24.33 30.89 24.33 30.89C24.32 30.88 24.28 30.89 24.27 30.89C24.26 30.88 24.28 30.84 24.27 30.83C24.26 30.82 24.23 30.84 24.22 30.83L24.11 30.83C24.1 30.84 24.12 30.88 24.11 30.89C24.1 30.89 24.06 30.88 24.06 30.89C24.05 30.89 24.06 30.93 24.06 30.94C24.05 30.98 24.06 31.01 24.06 31.05C24.05 31.08 24.07 31.13 24.06 31.16C24.05 31.16 24.01 31.15 24 31.16C23.99 31.17 24.01 31.2 24 31.21L23.89 31.21C23.89 31.22 23.9 31.26 23.89 31.27C23.88 31.29 23.8 31.26 23.78 31.27C23.77 31.25 23.8 31.17 23.78 31.16C23.77 31.15 23.74 31.16 23.73 31.16C23.68 31.14 23.61 31.17 23.56 31.16L23.07 31.16L23.07 30.99C23.07 30.96 23.07 30.92 23.07 30.88C23.06 30.87 23.07 30.83 23.07 30.83C23.06 30.82 23.02 30.84 23.01 30.83C23 30.82 23.02 30.78 23.01 30.77C23 30.76 22.97 30.78 22.96 30.77L22.85 30.77C22.84 30.79 22.85 30.82 22.85 30.83C22.84 30.83 22.79 30.82 22.79 30.83C22.78 30.86 22.8 30.91 22.79 30.94C22.78 30.95 22.75 30.93 22.74 30.94C22.73 30.95 22.74 30.98 22.74 30.99C22.73 31.03 22.74 31.07 22.74 31.1C22.72 31.11 22.64 31.08 22.62 31.1C22.62 31.11 22.63 31.14 22.62 31.16C22.55 31.15 22.48 31.17 22.4 31.16C22.39 31.15 22.3 31.17 22.3 31.16C22.29 31.14 22.3 31.11 22.3 31.1L22.19 31.1C22.15 31.11 22.11 31.09 22.08 31.1C22.07 31.1 22.03 31.1 22.02 31.1C22.01 31.11 22.03 31.15 22.02 31.16L21.91 31.16C21.91 31.14 21.92 31.11 21.91 31.1C21.91 31.1 21.87 31.1 21.86 31.1C21.82 31.1 21.78 31.1 21.75 31.1C21.74 31.11 21.75 31.15 21.75 31.16C21.74 31.16 21.7 31.15 21.69 31.16C21.69 31.16 21.69 31.2 21.69 31.21C21.69 31.23 21.69 31.25 21.69 31.26C21.69 31.27 21.64 31.26 21.64 31.26C21.62 31.25 21.66 31.17 21.64 31.15C21.63 31.14 21.59 31.16 21.58 31.15C21.57 31.14 21.59 31.11 21.58 31.1C21.58 31.09 21.54 31.1 21.53 31.1C21.49 31.09 21.46 31.09 21.42 31.1L21.14 31.1C21.14 31.11 21.15 31.14 21.14 31.15C21.13 31.16 21.11 31.16 21.09 31.15C21.09 31.15 21.09 31.1 21.09 31.1C21.04 31.09 20.98 31.1 20.92 31.1L20.76 31.1C20.76 31.11 20.75 31.14 20.76 31.15C20.75 31.14 20.71 31.16 20.7 31.15C20.7 31.15 20.71 31.11 20.7 31.1C20.7 31.06 20.71 31.02 20.7 30.99C20.7 30.98 20.71 30.94 20.7 30.94C20.7 30.93 20.66 30.95 20.65 30.94C20.64 30.92 20.66 30.89 20.65 30.88L20.37 30.88C20.37 30.89 20.38 30.93 20.37 30.94C20.37 30.95 20.33 30.93 20.32 30.94C20.31 30.94 20.28 30.93 20.27 30.94C20.26 30.95 20.28 30.98 20.27 30.99C20.26 31 20.22 30.98 20.21 30.99C20.21 31 20.21 31.04 20.21 31.04L20.21 31.1L20.1 31.1C20.1 31.12 20.1 31.13 20.1 31.15C20.09 31.15 20.05 31.16 20.05 31.15C20.04 31.14 20.05 31.1 20.05 31.1C20.03 31.09 20 31.1 19.99 31.1C19.96 31.09 19.92 31.1 19.88 31.1C19.84 31.1 19.8 31.09 19.77 31.1C19.76 31.1 19.72 31.09 19.72 31.1C19.71 31.11 19.72 31.14 19.72 31.15L19.5 31.15C19.48 31.1 19.51 31.04 19.5 30.99C19.5 30.98 19.44 30.99 19.44 30.99C19.44 30.98 19.44 30.94 19.44 30.94L19.44 30.88L18.95 30.88C18.93 30.9 18.96 30.98 18.95 30.99C18.94 31 18.89 30.99 18.89 30.99C18.89 31.01 18.91 31.09 18.89 31.1C18.88 31.11 18.8 31.1 18.78 31.1C18.77 31.1 18.75 31.1 18.73 31.1C18.72 31.1 18.74 31.15 18.73 31.16C18.72 31.16 18.68 31.15 18.67 31.16L18.67 31.21C18.67 31.22 18.68 31.26 18.67 31.26C18.66 31.27 18.64 31.27 18.62 31.26C18.61 31.26 18.62 31.22 18.62 31.21C18.61 31.17 18.63 31.13 18.62 31.1L17.85 31.1C17.84 31.11 17.86 31.14 17.85 31.15C17.84 31.16 17.8 31.15 17.8 31.15L17.74 31.15C17.75 31.14 17.73 31.11 17.74 31.1C17.75 31.09 17.79 31.11 17.8 31.1C17.8 31.09 17.79 31.06 17.8 31.04C17.8 31.01 17.8 30.97 17.8 30.94C17.79 30.93 17.8 30.89 17.8 30.88C17.79 30.87 17.75 30.89 17.74 30.88C17.73 30.87 17.75 30.84 17.74 30.83C17.73 30.82 17.7 30.83 17.69 30.83L17.52 30.83C17.51 30.88 17.53 30.94 17.52 30.99C17.52 31 17.53 31.04 17.52 31.05C17.51 31.06 17.47 31.04 17.47 31.05C17.46 31.06 17.47 31.09 17.47 31.1C17.45 31.11 17.42 31.09 17.41 31.1C17.41 31.12 17.41 31.14 17.41 31.16C17.4 31.15 17.36 31.16 17.36 31.16C17.35 31.15 17.37 31.11 17.36 31.1C17.35 31.09 17.31 31.11 17.3 31.1C17.29 31.09 17.31 31.06 17.3 31.05C17.3 31.04 17.26 31.05 17.25 31.05C17.18 31.03 17.1 31.06 17.03 31.05L16.86 31.05C16.86 31.06 16.87 31.09 16.86 31.1C16.86 31.11 16.82 31.1 16.81 31.1C16.77 31.1 16.73 31.1 16.7 31.1C16.62 31.11 16.55 31.1 16.48 31.1L16.48 30.99C16.48 30.96 16.48 30.92 16.48 30.88C16.47 30.87 16.48 30.83 16.48 30.83C16.47 30.82 16.43 30.84 16.42 30.83C16.41 30.82 16.43 30.78 16.42 30.77C16.41 30.76 16.38 30.78 16.37 30.77L16.26 30.77C16.25 30.79 16.27 30.82 16.26 30.83C16.25 30.84 16.21 30.82 16.2 30.83C16.19 30.84 16.21 30.87 16.2 30.88C16.2 30.89 16.15 30.88 16.15 30.88C16.14 30.92 16.14 30.96 16.15 30.99L16.15 31.1L16.04 31.1C16.02 31.09 15.99 31.11 15.98 31.1C15.98 31.09 15.99 31.05 15.98 31.05C15.97 31.04 15.94 31.05 15.93 31.05C15.89 31.04 15.85 31.05 15.82 31.05L15.32 31.05C15.3 31.04 15.28 31.04 15.27 31.05C15.26 31.05 15.27 31.1 15.27 31.1C15.26 31.11 15.22 31.1 15.21 31.1C15.21 31.1 15.21 31.15 15.21 31.16C15.19 31.16 15.18 31.16 15.16 31.16C15.15 31.16 15.16 31.1 15.16 31.1C15.15 31.1 15.11 31.11 15.1 31.1C15.1 31.08 15.1 31.07 15.1 31.05C15.11 31.04 15.15 31.05 15.16 31.05L15.16 30.83C15.14 30.81 15.18 30.73 15.16 30.72C15.15 30.71 15.1 30.73 15.1 30.72C15.1 30.7 15.1 30.68 15.1 30.67L15.1 30.5C15.11 30.48 15.11 30.46 15.1 30.45C15.1 30.44 15.05 30.45 15.05 30.45C15.04 30.44 15.05 30.4 15.05 30.39L14.5 30.39C14.41 30.39 14.31 30.39 14.22 30.39C14.22 30.39 14.23 30.44 14.22 30.45C14.22 30.45 14.18 30.45 14.17 30.45C14.15 30.45 14.13 30.45 14.12 30.45C14.12 30.46 14.11 30.49 14.12 30.5C14.12 30.51 14.16 30.49 14.17 30.5C14.17 30.52 14.17 30.54 14.17 30.55C14.16 30.56 14.12 30.55 14.12 30.55L13.68 30.55C13.62 30.55 13.57 30.56 13.51 30.55C13.5 30.55 13.41 30.57 13.4 30.55C13.39 30.54 13.41 30.51 13.4 30.5L13.29 30.5L13.29 30.61C13.28 30.65 13.28 30.69 13.29 30.72C13.29 30.73 13.34 30.72 13.35 30.72C13.35 30.73 13.34 30.77 13.35 30.78C13.35 30.79 13.39 30.77 13.4 30.78C13.41 30.79 13.39 30.82 13.4 30.83C13.41 30.84 13.45 30.82 13.45 30.83C13.46 30.84 13.44 30.88 13.45 30.89C13.46 30.89 13.5 30.88 13.51 30.89C13.52 30.89 13.5 30.93 13.51 30.94C13.51 30.95 13.56 30.93 13.56 30.94C13.57 30.95 13.56 30.99 13.56 30.99L13.56 31.05L13.35 31.05C13.29 31.05 13.23 31.04 13.18 31.05C13.18 31.05 13.18 31.1 13.18 31.1C13.16 31.1 13.14 31.1 13.12 31.1C13.12 31.09 13.13 31.06 13.12 31.05L12.8 31.05C12.76 31.05 12.72 31.04 12.69 31.05C12.68 31.05 12.64 31.04 12.63 31.05C12.62 31.06 12.64 31.09 12.63 31.1C12.61 31.11 12.54 31.08 12.52 31.1C12.52 31.1 12.53 31.16 12.52 31.16C12.52 31.16 12.47 31.16 12.47 31.16C12.47 31.14 12.47 31.12 12.47 31.1C12.48 31.09 12.51 31.11 12.52 31.1C12.53 31.07 12.51 31.03 12.52 30.99C12.53 30.98 12.52 30.95 12.52 30.94C12.53 30.93 12.57 30.94 12.58 30.94C12.63 30.92 12.7 30.95 12.74 30.94L13.24 30.94C13.25 30.92 13.22 30.84 13.24 30.83C13.25 30.82 13.29 30.83 13.29 30.83C13.3 30.81 13.3 30.79 13.29 30.77L13.29 30.72C13.29 30.72 13.24 30.72 13.24 30.72C13.23 30.71 13.24 30.67 13.24 30.67C13.23 30.63 13.25 30.59 13.24 30.55C13.23 30.55 13.19 30.56 13.19 30.55C13.18 30.55 13.19 30.5 13.19 30.5C13.15 30.49 13.11 30.49 13.08 30.5C13.06 30.5 13.04 30.5 13.02 30.5C13.01 30.5 12.97 30.49 12.97 30.5C12.96 30.51 12.98 30.55 12.97 30.55C12.96 30.56 12.93 30.55 12.91 30.55L12.8 30.55L12.8 30.39L11.2 30.39C11.2 30.4 11.21 30.44 11.2 30.45C11.19 30.45 11.17 30.45 11.15 30.45C11.14 30.44 11.15 30.4 11.15 30.39L11.15 30.33C11.13 30.35 11.05 30.32 11.04 30.33C11.03 30.35 11.05 30.38 11.04 30.39L10.43 30.39C10.43 30.38 10.44 30.35 10.43 30.33C10.43 30.33 10.39 30.33 10.38 30.33L10.21 30.33C10.21 30.35 10.22 30.38 10.21 30.39C10.21 30.4 10.17 30.39 10.16 30.39C10.14 30.39 10.12 30.39 10.1 30.39C10.09 30.39 10.06 30.38 10.05 30.39C10.04 30.4 10.06 30.44 10.05 30.45C10.04 30.46 10.01 30.44 10 30.45C9.99 30.46 10.01 30.49 10 30.5C9.99 30.51 9.95 30.49 9.94 30.5C9.93 30.51 9.95 30.55 9.94 30.55L9.83 30.55C9.82 30.57 9.84 30.6 9.83 30.61C9.82 30.61 9.78 30.61 9.78 30.61C9.72 30.62 9.66 30.6 9.61 30.61L9.61 30.77C9.59 30.79 9.51 30.76 9.5 30.77C9.49 30.78 9.5 30.83 9.5 30.83C9.48 30.83 9.46 30.83 9.44 30.83C9.44 30.81 9.44 30.79 9.44 30.77C9.46 30.76 9.49 30.78 9.5 30.77C9.48 30.75 9.52 30.68 9.5 30.66C9.48 30.66 9.46 30.66 9.44 30.66C9.44 30.68 9.44 30.7 9.44 30.72C9.43 30.71 9.4 30.72 9.39 30.72C9.38 30.71 9.4 30.67 9.39 30.66C9.38 30.66 9.34 30.67 9.33 30.66C9.33 30.66 9.33 30.62 9.33 30.61L9.33 30.55L9.5 30.55C9.49 30.54 9.51 30.51 9.5 30.5C9.49 30.49 9.45 30.51 9.45 30.5C9.43 30.47 9.45 30.43 9.45 30.4L6.87 31.32C6.88 31.32 6.9 31.32 6.92 31.32C6.92 31.34 6.92 31.36 6.92 31.38C6.9 31.38 6.88 31.38 6.86 31.38C6.86 31.36 6.86 31.34 6.87 31.32L6.42 31.48L5.89 31.67C4.76 32.29 2.88 32.98 1.32 32.49C0.85 32.69 0.41 32.94 0 33.26C1.55 34.08 3.47 34.89 5.12 35.62C5.71 35.91 6.31 36.14 6.94 36.33C7.66 36.49 8.54 36.32 9.36 36.27C10.04 36.23 10.73 36.22 11.4 36.16C12.74 36.06 14.1 35.9 15.47 35.78C17.55 35.61 19.8 35.82 21.7 35.73C23.52 35.64 25.31 35.55 27.07 35.46L27.07 34.88L29.83 34.88C29.84 34.89 29.87 34.88 29.88 34.88C29.88 34.9 29.88 34.92 29.88 34.94C29.86 34.96 29.79 34.93 29.77 34.94L29.22 34.94C29.18 34.93 29.15 34.93 29.11 34.94C29.1 34.94 29.06 34.93 29.05 34.94C29.05 34.94 29.05 34.99 29.05 34.99L29.05 35.16C29.02 35.15 28.97 35.17 28.94 35.16C28.94 35.15 28.95 35.11 28.94 35.1C28.93 35.09 28.9 35.11 28.89 35.1L27.9 35.1C27.88 35.11 27.85 35.09 27.84 35.1C27.83 35.11 27.85 35.15 27.84 35.16C27.83 35.17 27.8 35.15 27.79 35.16C27.75 35.16 27.71 35.15 27.68 35.16L27.4 35.16L27.4 35.38C27.42 35.39 27.5 35.36 27.51 35.38C27.51 35.38 27.5 35.43 27.51 35.43C27.53 35.43 27.55 35.43 27.56 35.43L27.62 35.43C27.64 35.43 27.67 35.43 27.69 35.43C29.19 35.35 30.67 35.28 32.16 35.18C32.37 35.17 32.58 35.15 32.8 35.14C32.79 35.13 32.78 35.12 32.78 35.11ZM45.28 30.89C45.31 30.9 45.38 30.87 45.39 30.89C45.4 30.89 45.39 30.94 45.39 30.94C45.42 30.95 45.48 30.92 45.5 30.94C45.51 30.95 45.5 30.98 45.5 30.99C45.48 30.98 45.41 31.01 45.39 30.99C45.38 30.98 45.4 30.95 45.39 30.94L45.34 30.94C45.33 30.94 45.29 30.95 45.28 30.94C45.27 30.93 45.29 30.9 45.28 30.89ZM44.73 30.78L44.79 30.78C44.82 30.77 44.86 30.77 44.89 30.78C44.9 30.78 44.89 30.82 44.89 30.83C44.9 30.84 44.95 30.82 44.95 30.83C44.96 30.85 44.94 30.87 44.95 30.89L44.78 30.89C44.78 30.87 44.79 30.84 44.78 30.83C44.77 30.82 44.73 30.84 44.73 30.83C44.72 30.82 44.74 30.79 44.73 30.78ZM44.02 30.94C44.03 30.93 44.06 30.95 44.07 30.94C44.08 30.93 44.06 30.9 44.07 30.89C44.08 30.88 44.12 30.89 44.12 30.89C44.16 30.88 44.2 30.89 44.23 30.89L44.23 31L44.01 31C44.03 30.98 44.01 30.95 44.02 30.94ZM43.41 30.72L43.52 30.72C43.53 30.73 43.51 30.77 43.52 30.78C43.54 30.79 43.62 30.76 43.63 30.78C43.64 30.79 43.63 30.82 43.63 30.83L43.63 30.94C43.62 30.93 43.59 30.95 43.58 30.94C43.57 30.94 43.58 30.89 43.58 30.89C43.54 30.88 43.51 30.88 43.47 30.89L43.42 30.89L43.41 30.72ZM42.58 30.89C42.6 30.87 42.62 30.87 42.64 30.89C42.66 30.9 42.66 30.92 42.64 30.94L42.58 30.94C42.58 30.92 42.58 30.9 42.58 30.89ZM42.04 30.78C42.04 30.77 42.08 30.78 42.09 30.78C42.13 30.77 42.16 30.78 42.2 30.78L42.31 30.78L42.31 30.89L42.09 30.89C42.08 30.88 42.1 30.84 42.09 30.83C42.08 30.82 42.04 30.84 42.04 30.83C42.04 30.82 42.03 30.79 42.04 30.78ZM41.98 32.97C41.99 32.96 42.07 32.97 42.09 32.97C42.14 32.96 42.2 32.97 42.25 32.97L43.9 32.97C43.99 32.97 44.09 32.96 44.23 32.97C44.29 32.97 44.35 32.96 44.4 32.97C44.41 32.97 44.5 32.96 44.51 32.97C44.52 32.98 44.51 33.01 44.51 33.02L42.03 33.02C42.02 33.01 41.99 33.03 41.98 33.02L41.98 32.97ZM41.48 32.81C41.46 32.82 41.45 32.82 41.43 32.81C41.41 32.79 41.41 32.77 41.43 32.75C41.45 32.73 41.46 32.73 41.48 32.75C41.5 32.77 41.5 32.79 41.48 32.81ZM41.32 30.89C41.33 30.88 41.37 30.89 41.37 30.89C41.43 30.88 41.49 30.89 41.54 30.89C41.55 30.89 41.59 30.88 41.59 30.89C41.6 30.89 41.59 30.93 41.59 30.94C41.58 30.95 41.55 30.93 41.54 30.94C41.53 30.95 41.55 30.99 41.54 30.99C41.53 31 41.5 30.99 41.49 30.99C41.45 31 41.41 30.99 41.38 30.99C41.37 30.98 41.39 30.95 41.38 30.94C41.37 30.93 41.33 30.95 41.32 30.94C41.33 30.93 41.31 30.89 41.32 30.89ZM40.71 33.19L40.99 33.19C40.99 33.18 40.98 33.14 40.99 33.13C40.99 33.13 41.04 33.13 41.04 33.13L41.1 33.13C41.09 33.15 41.11 33.18 41.1 33.19C41.09 33.2 41.05 33.18 41.04 33.19C41.04 33.19 41.05 33.24 41.04 33.24C41.02 33.25 41.01 33.25 40.99 33.24C40.97 33.24 40.95 33.24 40.93 33.24C40.93 33.25 40.94 33.29 40.93 33.3C40.93 33.3 40.88 33.3 40.88 33.3C40.82 33.3 40.77 33.29 40.71 33.3L40.71 33.19ZM40.11 32.75C40.13 32.73 40.14 32.73 40.16 32.75C40.18 32.77 40.18 32.79 40.16 32.8C40.14 32.82 40.13 32.82 40.11 32.8C40.09 32.79 40.09 32.77 40.11 32.75ZM39.45 33.24C39.46 33.23 39.49 33.25 39.5 33.24L39.5 33.13L39.83 33.13C39.87 33.14 39.91 33.12 39.94 33.13C39.95 33.13 39.99 33.13 40 33.13C40.01 33.14 39.99 33.18 40 33.19C40.01 33.19 40.04 33.18 40.05 33.19C40.06 33.19 40.05 33.23 40.05 33.24C40.04 33.25 40.01 33.23 40 33.24C39.99 33.25 40.01 33.29 40 33.29C39.98 33.3 39.95 33.29 39.94 33.29C39.89 33.3 39.83 33.3 39.78 33.29C39.69 33.3 39.59 33.29 39.5 33.29C39.48 33.3 39.47 33.3 39.45 33.29C39.45 33.28 39.45 33.26 39.45 33.24ZM38.07 33.19C38.08 33.2 38.12 33.18 38.12 33.19C38.13 33.2 38.12 33.24 38.12 33.24C38.13 33.25 38.17 33.24 38.18 33.24C38.22 33.25 38.25 33.24 38.29 33.24L38.29 33.13C38.3 33.13 38.34 33.14 38.34 33.13C38.35 33.12 38.34 33.09 38.34 33.08C38.38 33.09 38.42 33.07 38.45 33.08C38.46 33.08 38.5 33.07 38.51 33.08C38.52 33.09 38.5 33.12 38.51 33.13C38.58 33.12 38.66 33.14 38.73 33.13C38.73 33.13 38.73 33.08 38.73 33.08L38.78 33.08C38.79 33.09 38.78 33.12 38.78 33.13C38.8 33.14 38.83 33.12 38.84 33.13C38.84 33.15 38.84 33.17 38.84 33.19C38.83 33.19 38.79 33.18 38.78 33.19C38.78 33.2 38.79 33.23 38.78 33.24C38.78 33.25 38.74 33.24 38.73 33.24C38.7 33.25 38.65 33.23 38.62 33.24C38.61 33.25 38.63 33.29 38.62 33.29C38.6 33.31 38.54 33.29 38.51 33.29L38.07 33.29L38.07 33.19ZM37.3 32.7C37.3 32.69 37.35 32.7 37.35 32.7L37.41 32.7C37.43 32.71 37.5 32.68 37.51 32.7C37.52 32.71 37.51 32.74 37.51 32.75L37.41 32.75C37.4 32.76 37.41 32.79 37.41 32.8C37.39 32.8 37.37 32.8 37.35 32.8C37.35 32.8 37.35 32.75 37.35 32.75C37.34 32.74 37.31 32.76 37.3 32.75C37.31 32.74 37.29 32.7 37.3 32.7ZM37.3 33.13C37.33 33.14 37.37 33.13 37.41 33.13C37.42 33.14 37.46 33.13 37.46 33.13C37.47 33.14 37.46 33.18 37.46 33.19C37.43 33.18 37.39 33.2 37.35 33.19C37.35 33.19 37.31 33.2 37.3 33.19C37.29 33.18 37.31 33.15 37.3 33.13ZM36.75 33.24L36.75 33.13L36.8 33.13L36.8 33.08C36.81 33.09 36.85 33.07 36.86 33.08C36.86 33.08 36.85 33.13 36.86 33.13C36.89 33.14 36.93 33.12 36.97 33.13L36.97 33.24C36.97 33.24 37.02 33.25 37.02 33.24C37.01 33.25 37.03 33.29 37.02 33.3C37.01 33.3 36.97 33.3 36.97 33.3C36.91 33.3 36.85 33.3 36.8 33.3C36.79 33.3 36.75 33.3 36.74 33.3C36.74 33.29 36.75 33.25 36.75 33.24ZM36.09 32.7C36.11 32.71 36.18 32.68 36.2 32.7C36.2 32.71 36.2 32.73 36.2 32.75C36.16 32.75 36.12 32.75 36.09 32.75C36.08 32.74 36.1 32.71 36.09 32.7ZM35.48 33.13C35.49 33.13 35.53 33.13 35.54 33.13L35.7 33.13C35.71 33.13 35.69 33.08 35.7 33.08C35.74 33.08 35.77 33.08 35.81 33.08L36.09 33.08L36.09 33.19L35.98 33.19C35.97 33.19 35.93 33.19 35.92 33.19C35.91 33.21 35.94 33.28 35.92 33.3L35.65 33.3C35.62 33.29 35.56 33.32 35.54 33.3C35.52 33.28 35.55 33.22 35.54 33.19C35.53 33.19 35.48 33.2 35.48 33.19C35.48 33.17 35.48 33.15 35.48 33.13ZM34.99 34.56C35.01 34.58 35.01 34.6 34.99 34.61C34.97 34.63 34.95 34.63 34.93 34.61C34.91 34.6 34.91 34.58 34.93 34.56C34.95 34.56 34.97 34.56 34.99 34.56ZM34.71 32.7C34.75 32.7 34.78 32.69 34.82 32.7C34.83 32.7 34.87 32.69 34.87 32.7C34.88 32.7 34.87 32.74 34.87 32.75C34.84 32.74 34.8 32.76 34.76 32.75C34.75 32.75 34.71 32.76 34.71 32.75C34.7 32.74 34.72 32.71 34.71 32.7ZM34.05 33.24C34.06 33.24 34.1 33.25 34.11 33.24C34.11 33.23 34.09 33.14 34.11 33.13C34.12 33.12 34.19 33.13 34.22 33.13L34.33 33.13C34.33 33.12 34.32 33.09 34.33 33.08C34.33 33.07 34.37 33.09 34.38 33.08C34.39 33.07 34.43 33.09 34.43 33.08C34.44 33.07 34.43 33.03 34.43 33.02L34.66 33.02C34.66 33.03 34.65 33.07 34.66 33.08C34.66 33.08 34.7 33.08 34.71 33.08C34.78 33.08 34.86 33.07 34.93 33.08C34.92 33.09 34.94 33.12 34.93 33.13C34.92 33.14 34.88 33.12 34.88 33.13C34.87 33.14 34.88 33.18 34.88 33.19C34.86 33.19 34.84 33.19 34.82 33.19L34.77 33.19C34.76 33.19 34.77 33.13 34.77 33.13C34.76 33.13 34.72 33.13 34.71 33.13C34.66 33.12 34.6 33.14 34.55 33.13L34.55 33.3L34.05 33.3C34.06 33.29 34.04 33.25 34.05 33.24ZM33.72 34.56C33.73 34.55 33.76 34.57 33.77 34.56C33.78 34.55 33.76 34.51 33.77 34.51L33.83 34.51C33.83 34.51 33.82 34.56 33.83 34.56C33.84 34.57 33.93 34.55 33.94 34.56C33.94 34.58 33.94 34.6 33.94 34.61C33.93 34.62 33.89 34.61 33.88 34.61C33.87 34.63 33.89 34.66 33.88 34.67C33.86 34.67 33.85 34.67 33.83 34.67C33.82 34.66 33.83 34.61 33.83 34.61C33.81 34.61 33.72 34.63 33.72 34.61C33.72 34.6 33.72 34.58 33.72 34.56ZM33.17 32.7C33.18 32.69 33.22 32.7 33.22 32.7L33.28 32.7C33.3 32.7 33.31 32.7 33.33 32.7C33.34 32.69 33.32 32.65 33.33 32.64C33.34 32.63 33.38 32.64 33.39 32.64L33.55 32.64C33.54 32.65 33.56 32.69 33.55 32.7C33.54 32.7 33.5 32.69 33.5 32.7C33.5 32.7 33.5 32.75 33.5 32.75C33.48 32.75 33.46 32.75 33.44 32.75L33.17 32.75C33.18 32.74 33.16 32.7 33.17 32.7ZM32.78 33.08L33.11 33.08C33.15 33.09 33.19 33.07 33.22 33.08C33.23 33.08 33.21 33.13 33.22 33.13C33.23 33.14 33.27 33.13 33.28 33.13L33.44 33.13C33.43 33.15 33.45 33.18 33.44 33.19C33.43 33.2 33.4 33.19 33.39 33.19C33.35 33.2 33.31 33.18 33.28 33.19C33.27 33.2 33.23 33.18 33.22 33.19C33.21 33.2 33.23 33.23 33.22 33.24C33.22 33.25 33.23 33.29 33.22 33.3C33.21 33.31 33.18 33.29 33.17 33.3C33.13 33.3 33.1 33.3 33.06 33.3L32.79 33.3L32.78 33.08ZM6.19 31.71L6.3 31.71C6.31 31.7 6.34 31.72 6.35 31.71C6.36 31.7 6.35 31.67 6.35 31.65C6.37 31.67 6.45 31.64 6.46 31.65C6.47 31.67 6.46 31.7 6.46 31.71C6.45 31.72 6.42 31.7 6.41 31.71C6.39 31.72 6.42 31.8 6.41 31.82L6.19 31.82L6.19 31.71ZM6.19 32.26C6.19 32.25 6.24 32.26 6.24 32.26C6.25 32.26 6.29 32.25 6.3 32.26C6.3 32.27 6.3 32.29 6.3 32.31C6.29 32.32 6.25 32.31 6.24 32.31L6.19 32.31C6.19 32.3 6.18 32.27 6.19 32.26ZM5.36 32.7C5.36 32.68 5.36 32.66 5.36 32.64C5.38 32.64 5.4 32.64 5.42 32.64C5.42 32.66 5.42 32.68 5.42 32.7C5.4 32.7 5.38 32.7 5.36 32.7ZM5.53 33.08C5.52 33.09 5.48 33.08 5.47 33.08C5.46 33.08 5.42 33.09 5.42 33.08C5.41 33.07 5.42 33.04 5.42 33.03C5.42 33.01 5.41 32.98 5.42 32.97C5.44 32.97 5.45 32.97 5.47 32.97C5.48 32.97 5.47 33.02 5.47 33.03C5.48 33.03 5.52 33.02 5.53 33.03C5.52 33.03 5.54 33.07 5.53 33.08ZM5.53 32.64C5.51 32.64 5.49 32.64 5.47 32.64C5.47 32.62 5.47 32.6 5.47 32.59C5.49 32.58 5.51 32.58 5.53 32.59C5.53 32.6 5.53 32.62 5.53 32.64ZM5.97 32.2C5.96 32.21 5.92 32.19 5.91 32.2C5.9 32.21 5.92 32.24 5.91 32.26C5.9 32.25 5.87 32.27 5.86 32.26C5.85 32.25 5.87 32.21 5.86 32.2C5.85 32.2 5.81 32.21 5.8 32.2C5.8 32.18 5.8 32.17 5.8 32.15C5.8 32.14 5.8 32.1 5.8 32.09C5.81 32.09 5.85 32.09 5.86 32.09L5.91 32.09C5.92 32.11 5.9 32.14 5.91 32.15C5.92 32.15 5.97 32.14 5.97 32.15C5.97 32.17 5.97 32.18 5.97 32.2ZM6.13 32.64C6.15 32.64 6.17 32.64 6.19 32.64C6.19 32.66 6.19 32.68 6.19 32.7C6.17 32.7 6.15 32.7 6.13 32.7L6.13 32.64ZM6.52 33.3C6.51 33.31 6.47 33.3 6.46 33.3C6.43 33.31 6.39 33.29 6.35 33.3L6.13 33.3L6.13 33.19C6.14 33.18 6.18 33.2 6.19 33.19C6.19 33.18 6.18 33.14 6.19 33.13C6.19 33.1 6.18 33.06 6.19 33.03L6.24 33.03C6.24 33.02 6.24 32.97 6.24 32.97C6.25 32.97 6.29 32.97 6.29 32.97C6.3 32.98 6.29 33.02 6.29 33.03C6.31 33.03 6.34 33.02 6.35 33.03C6.36 33.03 6.34 33.07 6.35 33.08C6.36 33.09 6.4 33.07 6.4 33.08C6.41 33.09 6.39 33.13 6.4 33.13C6.41 33.14 6.45 33.13 6.46 33.13C6.47 33.16 6.45 33.21 6.46 33.25C6.46 33.25 6.51 33.24 6.51 33.25C6.52 33.25 6.52 33.3 6.52 33.3ZM6.63 32.7C6.61 32.7 6.59 32.7 6.57 32.7C6.57 32.68 6.57 32.66 6.57 32.64C6.59 32.64 6.61 32.64 6.63 32.64L6.63 32.7ZM6.79 31.76C6.79 31.75 6.79 31.73 6.79 31.71C6.81 31.71 6.83 31.71 6.85 31.71C6.85 31.73 6.85 31.75 6.85 31.76C6.83 31.77 6.81 31.77 6.79 31.76ZM6.9 32.7C6.89 32.7 6.87 32.7 6.85 32.7C6.85 32.68 6.85 32.66 6.85 32.64C6.87 32.64 6.89 32.64 6.9 32.64L6.9 32.7ZM9 31.76C9.03 31.77 9.07 31.75 9.11 31.76C9.11 31.77 9.15 31.76 9.16 31.76C9.17 31.77 9.15 31.81 9.16 31.82C9.12 31.81 9.08 31.83 9.05 31.82C9.04 31.81 9 31.82 8.99 31.82C8.99 31.81 9 31.78 9 31.76ZM9 32.31C9.01 32.3 8.99 32.27 9 32.26C9.01 32.25 9.04 32.26 9.05 32.26C9.05 32.27 9.06 32.3 9.05 32.31C9.04 32.32 9.01 32.3 9 32.31C8.99 32.32 9.01 32.36 9 32.36C8.98 32.37 8.96 32.37 8.94 32.36C8.94 32.35 8.94 32.33 8.94 32.31C8.95 32.3 8.99 32.32 9 32.31ZM8.78 31.32C8.79 31.33 8.82 31.32 8.83 31.32C8.84 31.33 8.82 31.38 8.83 31.38C8.85 31.39 8.92 31.36 8.94 31.38C8.95 31.4 8.95 31.41 8.94 31.43C8.93 31.44 8.9 31.43 8.89 31.43C8.88 31.44 8.89 31.48 8.89 31.49C8.87 31.49 8.85 31.49 8.83 31.49C8.82 31.48 8.84 31.44 8.83 31.43C8.83 31.42 8.84 31.39 8.83 31.38C8.82 31.37 8.78 31.38 8.78 31.38C8.77 31.36 8.78 31.34 8.78 31.32ZM7.89 32.26C7.91 32.25 7.93 32.25 7.95 32.26C7.95 32.27 7.95 32.29 7.95 32.31C7.93 32.31 7.91 32.31 7.89 32.31C7.89 32.29 7.89 32.27 7.89 32.26ZM7.67 31.71C7.67 31.72 7.68 31.75 7.67 31.76C7.67 31.77 7.63 31.76 7.62 31.76C7.58 31.77 7.55 31.77 7.51 31.76C7.5 31.76 7.52 31.72 7.51 31.71C7.52 31.7 7.56 31.72 7.57 31.71C7.57 31.71 7.56 31.65 7.57 31.65C7.58 31.65 7.6 31.65 7.62 31.65C7.63 31.66 7.61 31.7 7.62 31.71C7.63 31.72 7.66 31.7 7.67 31.71ZM7.51 32.7C7.5 32.7 7.46 32.69 7.45 32.7C7.44 32.7 7.46 32.74 7.45 32.75C7.44 32.75 7.42 32.75 7.4 32.75C7.4 32.73 7.4 32.71 7.4 32.7C7.41 32.69 7.44 32.7 7.45 32.7C7.46 32.69 7.44 32.65 7.45 32.64C7.46 32.63 7.5 32.65 7.51 32.64C7.5 32.65 7.52 32.69 7.51 32.7ZM7.45 31.32C7.46 31.32 7.5 31.33 7.51 31.32C7.54 31.32 7.58 31.33 7.62 31.32C7.6 31.35 7.63 31.42 7.62 31.44C7.6 31.44 7.57 31.43 7.56 31.44C7.56 31.44 7.57 31.49 7.56 31.49C7.54 31.49 7.53 31.49 7.51 31.49C7.5 31.48 7.51 31.44 7.51 31.44C7.5 31.42 7.52 31.39 7.51 31.38C7.5 31.37 7.46 31.39 7.45 31.38C7.46 31.37 7.44 31.33 7.45 31.32ZM7.34 31.76C7.36 31.78 7.44 31.75 7.45 31.76C7.46 31.78 7.46 31.8 7.45 31.82C7.42 31.82 7.38 31.82 7.34 31.82C7.34 31.81 7.35 31.78 7.34 31.76ZM7.12 32.2L6.96 32.2L6.96 32.09C6.99 32.1 7.04 32.08 7.07 32.09C7.07 32.09 7.06 32.14 7.07 32.14C7.07 32.15 7.12 32.14 7.12 32.14C7.13 32.16 7.12 32.19 7.12 32.2ZM7.18 31.71C7.16 31.71 7.14 31.71 7.12 31.71C7.12 31.7 7.13 31.67 7.12 31.65C7.12 31.64 7.13 31.61 7.12 31.6C7.12 31.59 7.08 31.61 7.07 31.6L7.07 31.49C7.08 31.5 7.12 31.48 7.12 31.49C7.13 31.5 7.12 31.54 7.12 31.55C7.13 31.56 7.12 31.59 7.12 31.6C7.13 31.61 7.18 31.59 7.18 31.6C7.18 31.62 7.18 31.64 7.18 31.65C7.18 31.67 7.18 31.69 7.18 31.71ZM8 33.08C8 33.09 7.95 33.08 7.95 33.08C7.93 33.08 7.91 33.08 7.89 33.08C7.88 33.09 7.85 33.07 7.84 33.08C7.83 33.09 7.85 33.13 7.84 33.13C7.83 33.14 7.79 33.13 7.79 33.13C7.78 33.17 7.78 33.21 7.79 33.25L7.79 33.3C7.72 33.29 7.63 33.31 7.57 33.3C7.56 33.3 7.52 33.31 7.51 33.3C7.5 33.29 7.52 33.25 7.51 33.25C7.5 33.24 7.47 33.25 7.46 33.25C7.45 33.24 7.47 33.2 7.46 33.19C7.45 33.19 7.41 33.2 7.4 33.19C7.39 33.18 7.41 33.15 7.4 33.14C7.4 33.13 7.35 33.15 7.35 33.14C7.34 33.13 7.35 33.09 7.35 33.08L7.35 33.03L7.51 33.03C7.52 33.04 7.5 33.07 7.51 33.08C7.52 33.09 7.56 33.08 7.57 33.08C7.61 33.09 7.64 33.09 7.68 33.08L7.84 33.08C7.85 33.07 7.84 33.04 7.85 33.03C7.85 33.02 7.89 33.03 7.9 33.03C7.94 33.02 7.98 33.02 8.01 33.03C8.01 33.03 8.01 33.08 8 33.08ZM8.06 31.6C8.04 31.6 8.02 31.6 8.01 31.6C8 31.58 8 31.56 8.01 31.54C8.02 31.54 8.04 31.54 8.06 31.54L8.06 31.6ZM8.34 32.2C8.32 32.21 8.3 32.21 8.28 32.2C8.28 32.16 8.28 32.13 8.28 32.09C8.29 32.08 8.32 32.1 8.34 32.09C8.32 32.11 8.35 32.19 8.34 32.2ZM8.72 31.82C8.71 31.82 8.67 31.82 8.67 31.82C8.66 31.81 8.67 31.78 8.67 31.76C8.69 31.75 8.76 31.78 8.78 31.76C8.79 31.75 8.77 31.72 8.78 31.71C8.79 31.7 8.82 31.72 8.83 31.71C8.84 31.7 8.83 31.67 8.83 31.65L8.95 31.65L8.95 31.76C8.91 31.77 8.87 31.76 8.83 31.76C8.82 31.77 8.79 31.76 8.78 31.76C8.77 31.77 8.79 31.81 8.78 31.82C8.76 31.82 8.74 31.82 8.72 31.82ZM9.27 33.13C9.27 33.14 9.22 33.13 9.22 33.13L9.16 33.13C9.14 33.13 9.13 33.13 9.11 33.13L9.11 33.3L9 33.3C8.96 33.31 8.92 33.31 8.88 33.3C8.87 33.29 8.9 33.2 8.88 33.19C8.87 33.17 8.8 33.2 8.78 33.19L8.78 33.08L8.88 33.08C8.9 33.07 8.92 33.07 8.94 33.08C8.95 33.08 8.93 33.13 8.94 33.13C8.95 33.14 8.98 33.13 8.99 33.13L9.11 33.13C9.11 33.12 9.09 33.09 9.1 33.08C9.12 33.08 9.14 33.08 9.16 33.08C9.19 33.07 9.23 33.07 9.27 33.08C9.27 33.08 9.27 33.13 9.27 33.13ZM9.27 31.38C9.25 31.38 9.24 31.38 9.22 31.38C9.21 31.36 9.21 31.35 9.22 31.33C9.24 31.32 9.25 31.32 9.27 31.33L9.27 31.38ZM9.38 33.08C9.36 33.08 9.34 33.08 9.33 33.08C9.32 33.06 9.32 33.04 9.33 33.03C9.34 33.02 9.36 33.02 9.38 33.03C9.38 33.04 9.38 33.06 9.38 33.08ZM9.55 31C9.53 31 9.51 31 9.49 31C9.49 30.99 9.49 30.95 9.49 30.94L9.49 30.89C9.5 30.89 9.54 30.88 9.55 30.89C9.55 30.89 9.55 30.93 9.55 30.94C9.55 30.95 9.55 30.99 9.55 31ZM9.88 32.2C9.87 32.21 9.83 32.19 9.82 32.2C9.82 32.21 9.83 32.25 9.82 32.26C9.78 32.26 9.75 32.26 9.71 32.26C9.7 32.26 9.67 32.26 9.66 32.26C9.65 32.25 9.66 32.21 9.66 32.2C9.65 32.19 9.61 32.21 9.6 32.2C9.6 32.2 9.6 32.16 9.6 32.15L9.6 32.09L9.72 32.09C9.72 32.11 9.71 32.14 9.72 32.15C9.72 32.15 9.76 32.14 9.77 32.15C9.8 32.16 9.85 32.14 9.88 32.15C9.87 32.16 9.89 32.19 9.88 32.2ZM10.48 33.3L10.15 33.3C10.15 33.29 10.16 33.25 10.15 33.25C10.14 33.24 10.1 33.25 10.1 33.25C10.09 33.23 10.1 33.2 10.1 33.19C10.1 33.17 10.1 33.16 10.1 33.14C10.1 33.12 10.1 33.1 10.1 33.08C10.09 33.07 10.11 33.04 10.1 33.03C10.09 33.02 10.05 33.04 10.04 33.03C10.04 33.02 10.05 32.98 10.04 32.97C10.04 32.97 9.99 32.98 9.99 32.97C9.99 32.96 9.99 32.94 9.99 32.92C10 32.91 10.04 32.93 10.04 32.92L10.04 32.81L10.1 32.81L10.1 32.76C10.11 32.76 10.14 32.75 10.15 32.76C10.16 32.76 10.15 32.8 10.15 32.81C10.16 32.84 10.14 32.89 10.15 32.92C10.16 32.93 10.14 32.97 10.15 32.97C10.16 32.98 10.2 32.97 10.21 32.97C10.22 32.97 10.25 32.97 10.26 32.97C10.27 32.98 10.26 33.02 10.26 33.03C10.27 33.04 10.31 33.02 10.32 33.03C10.32 33.03 10.32 33.07 10.32 33.08C10.31 33.1 10.31 33.12 10.32 33.14C10.32 33.15 10.31 33.19 10.32 33.19C10.33 33.2 10.36 33.18 10.37 33.19C10.37 33.2 10.36 33.25 10.37 33.25C10.39 33.26 10.46 33.23 10.48 33.25C10.49 33.25 10.48 33.29 10.48 33.3ZM10.15 31.76C10.16 31.75 10.15 31.72 10.15 31.71C10.17 31.72 10.25 31.69 10.26 31.71C10.27 31.72 10.25 31.76 10.26 31.76C10.27 31.77 10.3 31.76 10.32 31.76L10.37 31.76C10.36 31.78 10.38 31.81 10.37 31.82C10.36 31.83 10.33 31.81 10.32 31.82C10.3 31.83 10.27 31.81 10.26 31.82C10.26 31.82 10.27 31.87 10.26 31.87C10.24 31.87 10.23 31.87 10.21 31.87C10.2 31.86 10.22 31.82 10.21 31.82C10.2 31.81 10.17 31.82 10.15 31.82C10.12 31.81 10.08 31.81 10.04 31.82C10.02 31.82 10.01 31.82 9.99 31.82C9.98 31.81 9.99 31.77 9.99 31.76C10.02 31.76 10.06 31.77 10.1 31.76C10.11 31.76 10.14 31.77 10.15 31.76ZM10.15 31.38C10.16 31.38 10.2 31.38 10.21 31.38C10.21 31.38 10.26 31.38 10.26 31.38C10.27 31.4 10.27 31.42 10.26 31.44C10.26 31.44 10.21 31.44 10.21 31.44L10.15 31.44C10.16 31.42 10.14 31.39 10.15 31.38ZM10.43 32.37C10.42 32.37 10.39 32.36 10.37 32.37C10.34 32.37 10.3 32.36 10.26 32.37C10.26 32.36 10.27 32.32 10.26 32.31C10.25 32.3 10.22 32.32 10.21 32.31C10.21 32.3 10.2 32.27 10.21 32.26C10.21 32.25 10.26 32.26 10.26 32.26C10.32 32.26 10.37 32.26 10.43 32.26C10.44 32.26 10.47 32.25 10.48 32.26C10.49 32.26 10.48 32.31 10.48 32.31C10.47 32.32 10.44 32.3 10.43 32.31C10.42 32.32 10.44 32.36 10.43 32.37ZM10.59 32.75C10.59 32.74 10.6 32.7 10.59 32.7C10.6 32.68 10.59 32.65 10.59 32.64C10.6 32.63 10.64 32.64 10.65 32.64C10.65 32.64 10.7 32.63 10.7 32.64C10.71 32.65 10.7 32.69 10.7 32.7C10.69 32.7 10.66 32.69 10.65 32.7C10.65 32.7 10.65 32.75 10.65 32.75C10.64 32.75 10.6 32.76 10.59 32.75ZM10.76 33.19C10.74 33.21 10.67 33.18 10.65 33.19L10.65 33.13C10.65 33.12 10.63 33.03 10.65 33.03C10.66 33.02 10.68 33.02 10.7 33.03C10.71 33.03 10.69 33.07 10.7 33.08C10.71 33.09 10.74 33.07 10.75 33.08C10.75 33.1 10.78 33.17 10.76 33.19ZM11.2 32.26L10.98 32.26C10.97 32.24 10.99 32.21 10.98 32.2C10.97 32.19 10.93 32.21 10.92 32.2C10.93 32.19 10.91 32.16 10.92 32.15C10.93 32.14 10.97 32.15 10.98 32.15C11.01 32.14 11.05 32.15 11.09 32.15L11.2 32.15L11.2 32.26ZM11.09 31.22C11.11 31.21 11.13 31.21 11.14 31.22C11.15 31.23 11.15 31.25 11.14 31.27C11.13 31.27 11.11 31.27 11.09 31.27C11.09 31.25 11.09 31.23 11.09 31.22ZM11.75 33.3L11.53 33.3C11.52 33.3 11.48 33.31 11.48 33.3C11.47 33.3 11.48 33.25 11.48 33.25L11.48 33.13C11.47 33.13 11.42 33.14 11.42 33.13C11.42 33.12 11.42 33.1 11.42 33.08C11.43 33.07 11.47 33.08 11.48 33.08C11.51 33.07 11.55 33.09 11.58 33.08C11.6 33.07 11.63 33.09 11.64 33.08C11.65 33.07 11.63 33.04 11.64 33.03L11.75 33.03L11.75 33.3ZM11.47 32.75C11.48 32.77 11.48 32.79 11.47 32.8C11.45 32.81 11.44 32.81 11.42 32.8C11.42 32.79 11.42 32.77 11.42 32.75L11.47 32.75ZM11.47 32.26C11.49 32.25 11.51 32.25 11.53 32.26C11.53 32.27 11.53 32.29 11.53 32.31C11.51 32.31 11.49 32.31 11.47 32.31L11.47 32.26ZM11.75 31.82C11.74 31.82 11.7 31.82 11.7 31.82C11.64 31.81 11.59 31.81 11.53 31.82C11.52 31.82 11.48 31.81 11.48 31.82C11.47 31.83 11.48 31.86 11.48 31.87L11.36 31.87C11.37 31.86 11.36 31.83 11.36 31.82C11.37 31.81 11.41 31.83 11.42 31.82C11.42 31.81 11.41 31.77 11.42 31.76C11.44 31.75 11.52 31.78 11.53 31.76C11.54 31.75 11.52 31.72 11.53 31.71L11.64 31.71C11.65 31.72 11.63 31.75 11.64 31.76C11.65 31.77 11.69 31.76 11.69 31.76L11.75 31.76C11.74 31.78 11.76 31.81 11.75 31.82ZM11.58 31.54C11.57 31.53 11.54 31.55 11.53 31.54C11.52 31.53 11.54 31.5 11.53 31.49C11.52 31.48 11.54 31.44 11.53 31.44C11.53 31.43 11.48 31.44 11.48 31.44C11.48 31.43 11.47 31.38 11.48 31.38C11.48 31.37 11.52 31.39 11.53 31.38L11.58 31.38C11.59 31.38 11.63 31.38 11.64 31.38C11.64 31.4 11.64 31.42 11.64 31.44C11.63 31.44 11.59 31.43 11.58 31.44C11.57 31.47 11.59 31.51 11.58 31.54ZM11.91 32.75C11.9 32.74 11.92 32.71 11.91 32.7C11.93 32.71 12.01 32.68 12.02 32.7C12.03 32.71 12.03 32.73 12.02 32.75C11.99 32.76 11.95 32.76 11.91 32.75ZM12.13 33.08C12.13 33.09 12.09 33.07 12.08 33.08C12.07 33.09 12.09 33.13 12.08 33.13C12.07 33.14 12.03 33.13 12.03 33.13C12.03 33.12 12.02 33.09 12.03 33.08C12.03 33.07 12.07 33.09 12.08 33.08C12.09 33.07 12.07 33.03 12.08 33.03C12.1 33.02 12.12 33.02 12.13 33.03C12.14 33.04 12.14 33.06 12.13 33.08ZM12.25 31C12.24 31 12.2 30.99 12.19 31C12.19 31 12.2 31.05 12.19 31.05C12.15 31.06 12.12 31.06 12.08 31.05L11.2 31.05C11.19 31.01 11.21 30.98 11.2 30.94C11.2 30.93 11.2 30.89 11.2 30.89C11.19 30.88 11.15 30.9 11.14 30.89C11.13 30.88 11.15 30.85 11.14 30.83L11.14 30.78L10.92 30.78C10.92 30.82 10.93 30.86 10.92 30.89C10.92 30.9 10.93 30.94 10.92 30.95C10.92 30.95 10.87 30.94 10.87 30.95C10.86 30.96 10.88 31.04 10.87 31.05C10.86 31.06 10.83 31.05 10.81 31.05L10.59 31.05C10.59 31.04 10.6 31.01 10.59 31C10.59 30.99 10.55 31 10.54 31C10.51 30.99 10.46 31.01 10.43 31C10.42 31 10.43 30.95 10.43 30.95C10.42 30.94 10.38 30.95 10.37 30.95C10.36 30.94 10.33 30.95 10.32 30.95C10.31 30.93 10.33 30.9 10.32 30.89C10.31 30.88 10.27 30.9 10.27 30.89C10.26 30.88 10.27 30.85 10.27 30.84C10.26 30.83 10.22 30.85 10.21 30.84C10.2 30.82 10.23 30.74 10.21 30.73C10.2 30.72 10.17 30.74 10.16 30.73C10.15 30.72 10.17 30.68 10.16 30.67C10.15 30.67 10.11 30.67 10.1 30.67C10.09 30.67 10.06 30.68 10.05 30.67C10.04 30.67 10 30.68 9.99 30.67C9.99 30.67 9.99 30.63 9.99 30.62L9.99 30.57L10.6 30.57C10.62 30.58 10.7 30.55 10.71 30.57C10.72 30.58 10.7 30.61 10.71 30.62C10.72 30.63 10.75 30.61 10.76 30.62C10.77 30.63 10.75 30.67 10.76 30.67C10.78 30.68 10.81 30.67 10.82 30.67C10.83 30.68 10.86 30.67 10.87 30.67C10.88 30.68 10.87 30.73 10.87 30.73C10.91 30.73 10.94 30.73 10.98 30.73L11.15 30.73C11.15 30.74 11.13 30.77 11.14 30.78C11.15 30.79 11.2 30.77 11.2 30.78C11.21 30.79 11.2 30.82 11.2 30.84L11.86 30.84C11.91 30.82 11.98 30.85 12.03 30.84C12.04 30.83 12.08 30.84 12.08 30.84C12.09 30.83 12.08 30.79 12.08 30.78C12.1 30.79 12.18 30.76 12.19 30.78C12.2 30.79 12.19 30.83 12.19 30.84C12.21 30.84 12.23 30.84 12.25 30.84C12.27 30.84 12.29 30.84 12.3 30.84C12.31 30.86 12.31 30.87 12.3 30.89C12.29 30.9 12.26 30.88 12.25 30.89C12.23 30.92 12.26 30.96 12.25 31ZM12.52 32.2L12.52 32.31C12.51 32.3 12.48 32.32 12.47 32.31C12.46 32.31 12.47 32.26 12.47 32.26C12.43 32.25 12.39 32.25 12.36 32.26L12.3 32.26L12.3 32.09L12.41 32.09C12.42 32.1 12.4 32.14 12.41 32.15C12.43 32.16 12.51 32.13 12.52 32.15C12.53 32.16 12.51 32.19 12.52 32.2ZM13.02 31.82C13.03 31.81 13.05 31.81 13.07 31.82C13.07 31.84 13.07 31.85 13.07 31.87C13.05 31.87 13.03 31.87 13.02 31.87C13.01 31.85 13.01 31.84 13.02 31.82ZM12.8 31.38C12.8 31.38 12.84 31.38 12.85 31.38C12.89 31.38 12.92 31.38 12.96 31.38C12.97 31.39 12.95 31.43 12.96 31.44C12.95 31.44 12.91 31.43 12.9 31.44C12.9 31.44 12.91 31.49 12.9 31.49C12.89 31.49 12.87 31.49 12.85 31.49C12.84 31.48 12.86 31.44 12.85 31.44C12.84 31.43 12.81 31.44 12.8 31.44C12.8 31.42 12.79 31.39 12.8 31.38ZM12.68 31.82C12.69 31.81 12.73 31.83 12.74 31.82C12.75 31.81 12.73 31.77 12.74 31.76C12.75 31.75 12.78 31.77 12.79 31.76C12.8 31.76 12.84 31.77 12.85 31.76C12.86 31.75 12.84 31.72 12.85 31.71C12.86 31.7 12.89 31.72 12.9 31.71C12.91 31.72 12.89 31.75 12.9 31.76C12.91 31.77 12.95 31.76 12.96 31.76C12.95 31.78 12.96 31.81 12.96 31.82C12.95 31.82 12.91 31.82 12.9 31.82C12.88 31.81 12.86 31.81 12.85 31.82C12.83 31.82 12.8 31.81 12.79 31.82C12.79 31.82 12.8 31.87 12.79 31.87C12.76 31.88 12.71 31.86 12.68 31.87C12.69 31.86 12.67 31.83 12.68 31.82ZM13.12 33.24L13.12 33.3L12.74 33.3L12.74 33.13C12.74 33.12 12.75 33.09 12.74 33.08C12.74 33.07 12.69 33.09 12.69 33.08C12.68 33.07 12.69 33.03 12.69 33.02C12.68 32.99 12.68 32.95 12.69 32.91C12.69 32.9 12.74 32.92 12.74 32.91C12.75 32.9 12.74 32.87 12.74 32.86L12.74 32.75L12.8 32.75L12.8 32.69C12.81 32.7 12.84 32.68 12.85 32.69C12.86 32.7 12.85 32.74 12.85 32.75C12.85 32.82 12.85 32.89 12.85 32.97C12.87 32.98 12.95 32.95 12.96 32.97C12.96 32.97 12.95 33.02 12.96 33.02C12.98 33.03 13.06 33 13.07 33.02C13.08 33.03 13.07 33.07 13.07 33.07C13.07 33.09 13.06 33.18 13.07 33.19C13.08 33.19 13.12 33.18 13.12 33.19C13.13 33.2 13.13 33.22 13.12 33.24ZM13.12 32.37L12.9 32.37C12.91 32.36 12.9 32.32 12.9 32.31C12.91 32.3 12.95 32.32 12.96 32.31C12.96 32.3 12.95 32.27 12.96 32.26C12.96 32.25 13 32.26 13.01 32.26C13.05 32.25 13.09 32.27 13.12 32.26L13.12 32.37ZM13.35 31.71C13.36 31.71 13.38 31.71 13.4 31.71C13.4 31.73 13.4 31.75 13.4 31.76C13.38 31.77 13.36 31.77 13.35 31.76L13.35 31.71ZM13.4 33.08C13.38 33.08 13.36 33.08 13.35 33.08C13.34 33.06 13.34 33.04 13.35 33.03C13.36 33.02 13.38 33.02 13.4 33.03C13.4 33.04 13.4 33.06 13.4 33.08ZM13.4 32.75C13.39 32.75 13.35 32.74 13.35 32.75C13.34 32.77 13.34 32.79 13.35 32.8L13.35 32.86C13.33 32.85 13.3 32.87 13.29 32.86C13.28 32.85 13.29 32.81 13.29 32.8C13.28 32.75 13.3 32.69 13.29 32.64L13.4 32.64C13.39 32.66 13.42 32.73 13.4 32.75ZM13.84 32.26L13.68 32.26C13.67 32.24 13.69 32.21 13.68 32.2C13.67 32.19 13.63 32.21 13.62 32.2C13.61 32.19 13.63 32.16 13.62 32.15L13.68 32.15C13.71 32.14 13.75 32.14 13.79 32.15C13.8 32.15 13.78 32.2 13.79 32.2C13.8 32.21 13.84 32.19 13.84 32.2C13.85 32.22 13.83 32.24 13.84 32.26ZM14.06 31.82C14.06 31.81 14.11 31.82 14.12 31.82C14.12 31.81 14.11 31.78 14.12 31.76L14.17 31.76C14.19 31.76 14.27 31.75 14.28 31.76C14.29 31.77 14.28 31.81 14.28 31.82C14.26 31.83 14.18 31.8 14.17 31.82C14.16 31.83 14.18 31.86 14.17 31.87C14.16 31.88 14.12 31.86 14.12 31.87C14.11 31.89 14.11 31.91 14.12 31.93C14.11 31.93 14.07 31.93 14.06 31.93C14.05 31.92 14.06 31.88 14.06 31.87C14.06 31.85 14.06 31.84 14.06 31.82ZM14.12 31.38C14.14 31.36 14.15 31.36 14.17 31.38C14.19 31.4 14.19 31.42 14.17 31.44C14.15 31.45 14.14 31.45 14.12 31.44C14.1 31.42 14.1 31.4 14.12 31.38ZM14.06 32.81C14.07 32.8 14.11 32.81 14.12 32.81C14.12 32.8 14.11 32.7 14.12 32.7C14.13 32.69 14.15 32.7 14.17 32.7C14.17 32.71 14.17 32.73 14.17 32.75C14.18 32.79 14.18 32.82 14.17 32.86C14.13 32.86 14.1 32.86 14.06 32.86L14.06 32.81ZM14.34 33.3C14.33 33.31 14.29 33.3 14.28 33.3L14.23 33.3C14.19 33.31 14.15 33.31 14.12 33.3C14.11 33.3 14.12 33.25 14.12 33.25C14.11 33.24 14.07 33.25 14.06 33.25C14.07 33.23 14.05 33.2 14.06 33.19C14.07 33.18 14.11 33.2 14.12 33.19C14.13 33.18 14.11 33.15 14.12 33.14C14.12 33.13 14.17 33.14 14.17 33.14C14.18 33.14 14.22 33.13 14.23 33.14C14.24 33.15 14.22 33.19 14.23 33.19C14.24 33.2 14.28 33.18 14.28 33.19C14.29 33.2 14.28 33.23 14.28 33.25L14.34 33.25C14.33 33.25 14.35 33.29 14.34 33.3ZM14.39 32.37C14.37 32.35 14.3 32.39 14.28 32.37C14.28 32.36 14.29 32.33 14.28 32.31L14.23 32.31C14.22 32.31 14.18 32.32 14.18 32.31C14.17 32.3 14.18 32.27 14.18 32.26C14.2 32.27 14.27 32.24 14.29 32.26C14.29 32.27 14.28 32.31 14.28 32.31C14.31 32.32 14.38 32.3 14.4 32.31C14.4 32.32 14.38 32.36 14.39 32.37ZM14.5 32.81C14.49 32.8 14.51 32.76 14.5 32.75C14.51 32.74 14.49 32.71 14.5 32.7C14.51 32.69 14.55 32.7 14.56 32.7C14.57 32.7 14.61 32.69 14.61 32.7C14.62 32.71 14.6 32.74 14.61 32.75C14.6 32.76 14.57 32.74 14.56 32.75C14.55 32.76 14.56 32.81 14.56 32.81C14.54 32.81 14.52 32.81 14.5 32.81ZM14.56 31.76C14.57 31.75 14.59 31.75 14.61 31.76C14.63 31.78 14.63 31.8 14.61 31.82C14.59 31.82 14.57 31.82 14.56 31.82L14.56 31.76ZM14.67 33.13C14.63 33.14 14.59 33.14 14.56 33.13C14.55 33.12 14.56 33.09 14.56 33.08C14.58 33.1 14.65 33.06 14.67 33.08C14.67 33.1 14.67 33.12 14.67 33.13ZM14.78 31.05L14.67 31.05C14.66 31.06 14.68 31.1 14.67 31.1C14.65 31.11 14.63 31.11 14.61 31.1C14.61 31.1 14.62 31.05 14.61 31.05C14.61 31.04 14.57 31.05 14.56 31.05C14.49 31.04 14.41 31.06 14.34 31.05L14.17 31.05C14.15 31.07 14.08 31.03 14.06 31.05C14.06 31.06 14.07 31.1 14.06 31.1C14.04 31.11 13.97 31.09 13.96 31.1C13.95 31.12 13.96 31.15 13.96 31.16L13.85 31.16L13.85 31C13.86 30.99 13.89 31.01 13.9 31C13.91 30.99 13.89 30.95 13.9 30.94C13.93 30.93 13.98 30.95 14.01 30.94C14.06 30.94 14.12 30.95 14.18 30.94L14.18 30.78L14.29 30.78C14.29 30.79 14.28 30.82 14.29 30.83C14.3 30.84 14.33 30.82 14.34 30.83C14.35 30.84 14.33 30.88 14.34 30.89C14.35 30.89 14.39 30.88 14.4 30.89L14.51 30.89C14.51 30.87 14.5 30.84 14.51 30.83C14.51 30.82 14.56 30.83 14.56 30.83C14.63 30.83 14.71 30.83 14.78 30.83L14.78 31.05ZM14.83 31.32C14.85 31.32 14.87 31.32 14.89 31.32C14.89 31.36 14.89 31.4 14.89 31.44C14.88 31.44 14.85 31.43 14.83 31.44C14.85 31.41 14.82 31.34 14.83 31.32ZM15.11 32.26C15.1 32.27 15.06 32.25 15.05 32.26C15.05 32.27 15.06 32.3 15.05 32.31C15.05 32.32 15.01 32.31 15 32.31C15 32.29 15 32.27 15 32.26C14.99 32.25 14.95 32.26 14.95 32.26C14.91 32.25 14.87 32.26 14.83 32.26L14.83 32.14L15.05 32.14C15.06 32.16 15.05 32.19 15.05 32.2C15.06 32.2 15.11 32.2 15.11 32.2C15.11 32.22 15.11 32.24 15.11 32.26ZM15.38 31.44C15.39 31.43 15.43 31.44 15.44 31.44C15.45 31.44 15.49 31.43 15.49 31.44C15.5 31.44 15.49 31.48 15.49 31.49C15.49 31.5 15.5 31.53 15.49 31.54C15.47 31.55 15.46 31.55 15.44 31.54C15.43 31.53 15.44 31.5 15.44 31.49C15.43 31.48 15.39 31.5 15.38 31.49C15.38 31.47 15.38 31.45 15.38 31.44ZM15.27 31.82L15.38 31.82C15.39 31.81 15.37 31.77 15.38 31.76C15.39 31.75 15.43 31.77 15.44 31.76C15.44 31.75 15.43 31.71 15.44 31.71C15.46 31.71 15.47 31.71 15.49 31.71C15.5 31.72 15.48 31.76 15.49 31.76C15.5 31.77 15.54 31.76 15.55 31.76C15.56 31.78 15.54 31.8 15.55 31.82C15.56 31.82 15.6 31.81 15.6 31.82C15.6 31.84 15.6 31.85 15.6 31.87C15.59 31.88 15.56 31.87 15.55 31.87C15.51 31.88 15.47 31.87 15.44 31.87C15.43 31.88 15.39 31.86 15.38 31.87C15.38 31.88 15.39 31.92 15.38 31.93C15.35 31.94 15.3 31.92 15.27 31.93L15.27 31.82ZM15.33 32.7C15.35 32.69 15.37 32.69 15.38 32.7C15.39 32.73 15.39 32.77 15.38 32.81C15.37 32.82 15.34 32.8 15.33 32.81C15.34 32.79 15.31 32.71 15.33 32.7ZM15.38 32.31C15.37 32.29 15.37 32.27 15.38 32.26C15.4 32.24 15.42 32.24 15.44 32.26C15.46 32.27 15.46 32.29 15.44 32.31C15.42 32.33 15.4 32.33 15.38 32.31ZM15.55 33.3L15.27 33.3L15.27 33.08L15.55 33.08L15.55 33.3ZM15.71 32.37L15.55 32.37C15.56 32.36 15.54 32.32 15.55 32.31C15.56 32.31 15.6 32.31 15.6 32.31C15.62 32.31 15.64 32.31 15.66 32.31C15.67 32.32 15.71 32.31 15.71 32.31C15.72 32.32 15.71 32.36 15.71 32.37ZM15.82 32.81C15.82 32.8 15.83 32.76 15.82 32.75C15.83 32.74 15.82 32.71 15.82 32.7C15.83 32.69 15.87 32.7 15.88 32.7C15.89 32.7 15.93 32.69 15.93 32.7C15.94 32.71 15.93 32.74 15.93 32.75C15.92 32.76 15.89 32.74 15.88 32.75C15.88 32.76 15.88 32.81 15.88 32.81C15.86 32.81 15.84 32.81 15.82 32.81ZM15.93 33.13C15.91 33.15 15.9 33.15 15.88 33.13C15.86 33.12 15.86 33.1 15.88 33.08C15.9 33.06 15.91 33.06 15.93 33.08C15.95 33.1 15.95 33.12 15.93 33.13ZM16.43 32.26L16.43 32.31C16.39 32.3 16.35 32.32 16.32 32.31C16.31 32.31 16.33 32.26 16.32 32.26C16.31 32.25 16.27 32.26 16.27 32.26C16.26 32.24 16.27 32.22 16.27 32.2C16.26 32.21 16.21 32.2 16.21 32.2C16.21 32.19 16.2 32.15 16.21 32.15C16.22 32.14 16.26 32.15 16.27 32.15C16.3 32.14 16.34 32.14 16.37 32.15C16.38 32.16 16.36 32.19 16.37 32.2C16.38 32.21 16.42 32.19 16.43 32.2C16.43 32.21 16.43 32.25 16.43 32.26ZM17.26 31.32C17.27 31.31 17.29 31.31 17.31 31.32C17.33 31.34 17.33 31.36 17.31 31.38C17.29 31.4 17.27 31.4 17.26 31.38C17.24 31.36 17.24 31.34 17.26 31.32ZM17.26 31.76C17.27 31.75 17.29 31.75 17.31 31.76C17.33 31.78 17.33 31.8 17.31 31.82C17.29 31.84 17.27 31.84 17.26 31.82C17.24 31.8 17.24 31.78 17.26 31.76ZM16.59 31.82C16.6 31.81 16.64 31.83 16.65 31.82C16.66 31.81 16.69 31.83 16.7 31.82C16.71 31.81 16.69 31.77 16.7 31.76C16.71 31.76 16.75 31.77 16.76 31.76C16.77 31.75 16.76 31.68 16.76 31.65L16.76 31.49C16.75 31.48 16.71 31.5 16.7 31.49C16.7 31.47 16.7 31.45 16.7 31.44C16.71 31.43 16.75 31.44 16.76 31.44L16.87 31.44C16.86 31.45 16.88 31.48 16.87 31.49C16.86 31.5 16.82 31.48 16.81 31.49C16.81 31.5 16.81 31.53 16.81 31.54C16.81 31.58 16.81 31.62 16.81 31.65C16.81 31.67 16.81 31.69 16.81 31.71C16.81 31.72 16.81 31.76 16.81 31.76C16.82 31.77 16.86 31.75 16.87 31.76C16.88 31.77 16.86 31.81 16.87 31.82C16.88 31.83 16.91 31.81 16.92 31.82C16.93 31.83 16.97 31.81 16.97 31.82C16.98 31.82 16.97 31.87 16.97 31.87L16.97 31.93L16.86 31.93C16.86 31.91 16.87 31.88 16.86 31.87C16.86 31.87 16.81 31.87 16.81 31.87C16.75 31.87 16.7 31.87 16.64 31.87C16.64 31.89 16.65 31.91 16.64 31.93C16.62 31.93 16.61 31.93 16.59 31.93C16.58 31.92 16.59 31.88 16.59 31.87C16.59 31.87 16.59 31.82 16.59 31.82ZM16.98 33.13L16.98 33.3L16.59 33.3L16.59 32.97C16.59 32.94 16.59 32.9 16.59 32.86C16.59 32.86 16.65 32.87 16.65 32.86C16.65 32.86 16.65 32.82 16.65 32.81L16.65 32.76L16.7 32.76L16.7 32.7C16.71 32.71 16.75 32.69 16.76 32.7C16.76 32.71 16.76 32.75 16.76 32.76C16.76 32.77 16.76 32.79 16.76 32.81C16.76 32.82 16.76 32.86 16.76 32.86C16.75 32.87 16.71 32.85 16.7 32.86C16.69 32.88 16.71 32.91 16.7 32.92L16.7 33.08L16.87 33.08C16.89 33.1 16.97 33.06 16.98 33.08C16.99 33.09 16.97 33.12 16.98 33.13ZM17.04 32.37L16.81 32.37C16.8 32.36 16.77 32.38 16.76 32.37C16.75 32.36 16.77 32.32 16.76 32.31C16.81 32.32 16.87 32.31 16.93 32.31C16.94 32.32 17.03 32.3 17.04 32.31C17.04 32.32 17.03 32.36 17.04 32.37ZM17.31 33.19C17.29 33.19 17.27 33.19 17.26 33.19C17.25 33.18 17.26 33.15 17.26 33.13C17.24 33.13 17.21 33.14 17.2 33.13C17.2 33.12 17.2 33.1 17.2 33.08C17.22 33.08 17.24 33.08 17.26 33.08C17.26 33.08 17.3 33.07 17.31 33.08C17.32 33.09 17.3 33.13 17.31 33.13C17.3 33.15 17.32 33.18 17.31 33.19ZM17.42 32.75C17.41 32.76 17.38 32.74 17.37 32.75C17.36 32.76 17.32 32.74 17.31 32.75C17.3 32.76 17.32 32.79 17.31 32.8C17.3 32.81 17.27 32.79 17.26 32.8C17.26 32.81 17.26 32.86 17.26 32.86C17.24 32.86 17.22 32.86 17.2 32.86C17.2 32.85 17.21 32.81 17.2 32.8C17.19 32.79 17.16 32.81 17.15 32.8L17.15 32.69L17.37 32.69C17.38 32.69 17.42 32.69 17.42 32.69C17.42 32.71 17.42 32.73 17.42 32.75ZM17.53 31.49L17.53 31.44C17.54 31.44 17.58 31.43 17.58 31.44C17.59 31.44 17.58 31.48 17.58 31.49C17.58 31.5 17.59 31.54 17.58 31.54C17.57 31.55 17.55 31.55 17.53 31.54C17.52 31.54 17.53 31.5 17.53 31.49ZM17.75 32.26L17.75 32.31C17.74 32.3 17.71 32.32 17.7 32.31C17.69 32.3 17.71 32.26 17.7 32.26C17.69 32.25 17.65 32.26 17.64 32.26C17.61 32.25 17.57 32.26 17.53 32.26L17.53 32.14C17.54 32.15 17.58 32.14 17.58 32.14C17.59 32.15 17.58 32.2 17.58 32.2C17.61 32.21 17.67 32.18 17.7 32.2C17.71 32.21 17.74 32.19 17.75 32.2C17.75 32.22 17.75 32.24 17.75 32.26ZM18.03 31.44C18.03 31.43 18.07 31.44 18.08 31.44C18.12 31.43 18.15 31.43 18.19 31.44C18.2 31.44 18.19 31.48 18.19 31.49L18.19 31.54C18.18 31.55 18.15 31.53 18.14 31.54C18.13 31.55 18.14 31.6 18.14 31.6C18.12 31.6 18.1 31.6 18.08 31.6C18.07 31.59 18.09 31.55 18.08 31.54C18.07 31.53 18.04 31.55 18.03 31.54L18.03 31.49C18.03 31.48 18.02 31.44 18.03 31.44ZM17.92 31.82C17.94 31.81 18.01 31.84 18.03 31.82C18.03 31.81 18.02 31.78 18.03 31.76L18.19 31.76C18.2 31.78 18.18 31.81 18.19 31.82C18.2 31.83 18.24 31.81 18.25 31.82C18.24 31.83 18.26 31.86 18.25 31.87C18.24 31.88 18.2 31.87 18.19 31.87C18.16 31.88 18.12 31.86 18.08 31.87C18.07 31.87 18.03 31.87 18.03 31.87C18.02 31.88 18.03 31.92 18.03 31.93L17.92 31.93L17.92 31.82ZM18.03 32.86C18.01 32.86 17.99 32.86 17.97 32.86C17.97 32.85 17.97 32.81 17.97 32.81C17.97 32.8 17.97 32.76 17.97 32.75C17.98 32.74 18.02 32.76 18.03 32.75C18.03 32.74 18.02 32.71 18.03 32.7C18.03 32.69 18.07 32.71 18.08 32.7C18.07 32.73 18.09 32.78 18.08 32.81C18.08 32.82 18.03 32.8 18.03 32.81C18.02 32.81 18.03 32.86 18.03 32.86ZM18.3 33.3C18.29 33.31 18.26 33.3 18.25 33.3C18.21 33.31 18.17 33.29 18.14 33.3L17.97 33.3L17.97 33.19C17.97 33.18 17.98 33.14 17.97 33.13C17.96 33.13 17.92 33.14 17.92 33.13C17.91 33.12 17.92 33.09 17.92 33.08C17.91 33.04 17.92 33.01 17.92 32.97C17.93 32.98 17.96 32.96 17.97 32.97C17.98 32.98 17.97 33.02 17.97 33.03C17.98 33.04 17.96 33.07 17.97 33.08C17.98 33.09 18.02 33.07 18.03 33.08C18.03 33.09 18.02 33.13 18.03 33.13C18.06 33.14 18.1 33.14 18.14 33.13C18.15 33.13 18.19 33.14 18.19 33.13L18.19 33.08C18.2 33.09 18.24 33.07 18.25 33.08C18.25 33.09 18.25 33.13 18.25 33.13L18.25 33.24C18.26 33.25 18.3 33.23 18.3 33.24C18.3 33.26 18.3 33.28 18.3 33.3ZM18.36 32.37C18.35 32.37 18.31 32.36 18.3 32.37C18.3 32.37 18.31 32.42 18.3 32.42C18.27 32.43 18.23 32.43 18.19 32.42C18.19 32.42 18.2 32.37 18.19 32.37C18.19 32.36 18.15 32.37 18.14 32.37C18.12 32.37 18.1 32.37 18.09 32.37C18.09 32.36 18.08 32.32 18.09 32.31C18.09 32.31 18.13 32.31 18.14 32.31C18.19 32.31 18.25 32.31 18.31 32.31C18.32 32.31 18.35 32.31 18.36 32.31C18.36 32.31 18.35 32.36 18.36 32.37ZM18.58 33.13C18.57 33.14 18.53 33.13 18.52 33.13C18.51 33.14 18.53 33.18 18.52 33.19C18.51 33.21 18.49 33.21 18.47 33.19C18.45 33.17 18.45 33.15 18.47 33.13C18.48 33.13 18.51 33.14 18.52 33.13C18.53 33.13 18.51 33.09 18.52 33.08C18.53 33.07 18.57 33.09 18.58 33.08C18.57 33.09 18.59 33.13 18.58 33.13ZM18.58 32.75C18.57 32.76 18.53 32.74 18.52 32.75C18.51 32.76 18.53 32.79 18.52 32.8C18.51 32.82 18.49 32.82 18.47 32.8C18.45 32.79 18.45 32.77 18.47 32.75C18.48 32.74 18.51 32.76 18.52 32.75C18.53 32.74 18.51 32.7 18.52 32.7C18.53 32.69 18.57 32.7 18.58 32.7C18.57 32.71 18.59 32.74 18.58 32.75ZM19.29 31.38C19.31 31.38 19.33 31.38 19.35 31.38C19.35 31.38 19.35 31.44 19.35 31.44C19.4 31.44 19.46 31.43 19.51 31.44L19.51 31.6C19.5 31.59 19.47 31.61 19.46 31.6C19.45 31.59 19.47 31.55 19.46 31.55C19.45 31.54 19.41 31.56 19.41 31.55C19.4 31.54 19.41 31.5 19.41 31.49C19.4 31.48 19.36 31.5 19.35 31.49C19.34 31.48 19.35 31.45 19.35 31.44L19.3 31.44C19.3 31.42 19.28 31.39 19.29 31.38ZM19.13 32.31L19.02 32.31C18.98 32.31 18.95 32.31 18.91 32.31C18.9 32.31 18.91 32.26 18.91 32.26C18.9 32.25 18.86 32.26 18.86 32.26C18.85 32.26 18.81 32.26 18.8 32.26C18.79 32.25 18.81 32.21 18.8 32.2L18.86 32.2C18.86 32.19 18.85 32.16 18.86 32.15C18.87 32.14 18.89 32.14 18.91 32.15C18.91 32.15 18.91 32.2 18.91 32.2C18.98 32.21 19.06 32.2 19.13 32.2L19.13 32.31ZM19.57 33.3C19.56 33.31 19.52 33.3 19.51 33.3C19.48 33.31 19.44 33.29 19.4 33.3L19.24 33.3C19.25 33.29 19.23 33.25 19.24 33.25C19.24 33.24 19.28 33.25 19.29 33.25C19.3 33.25 19.34 33.25 19.35 33.25C19.35 33.24 19.34 33.2 19.35 33.19C19.35 33.19 19.4 33.2 19.4 33.19C19.41 33.18 19.4 33.15 19.4 33.14L19.4 33.08L19.45 33.08C19.46 33.07 19.44 33.04 19.45 33.03C19.46 33.02 19.5 33.03 19.51 33.03C19.52 33.08 19.49 33.14 19.51 33.19C19.51 33.2 19.5 33.24 19.51 33.25C19.52 33.25 19.55 33.24 19.56 33.25C19.56 33.25 19.58 33.29 19.57 33.3ZM19.35 32.75C19.36 32.76 19.39 32.74 19.4 32.75C19.41 32.76 19.4 32.79 19.4 32.8C19.4 32.82 19.4 32.84 19.4 32.86C19.37 32.86 19.33 32.86 19.29 32.86C19.28 32.85 19.3 32.82 19.29 32.8C19.31 32.79 19.34 32.81 19.35 32.8C19.36 32.8 19.34 32.76 19.35 32.75ZM19.68 32.42L19.4 32.42L19.4 32.31L19.68 32.31L19.68 32.42ZM19.68 31.93L19.24 31.93L19.24 31.82L19.35 31.82C19.36 31.81 19.39 31.83 19.4 31.82C19.41 31.81 19.4 31.78 19.4 31.76L19.51 31.76C19.52 31.78 19.51 31.81 19.51 31.82C19.53 31.84 19.6 31.81 19.62 31.82C19.63 31.83 19.61 31.86 19.62 31.87C19.63 31.88 19.67 31.86 19.68 31.87C19.69 31.89 19.67 31.91 19.68 31.93ZM19.73 31.38C19.72 31.36 19.72 31.35 19.73 31.33C19.75 31.31 19.77 31.31 19.79 31.33C19.79 31.35 19.79 31.36 19.79 31.38L19.73 31.38ZM19.9 33.19C19.86 33.19 19.83 33.19 19.79 33.19C19.78 33.18 19.8 33.15 19.79 33.13C19.81 33.15 19.89 33.12 19.9 33.13C19.9 33.15 19.9 33.17 19.9 33.19ZM19.95 32.81L19.84 32.81L19.84 32.7L19.95 32.7L19.95 32.81ZM20.67 31.44C20.68 31.43 20.71 31.44 20.72 31.44L20.83 31.44L20.83 31.55L20.72 31.55C20.72 31.53 20.73 31.5 20.72 31.49C20.72 31.49 20.67 31.5 20.67 31.49C20.67 31.47 20.67 31.45 20.67 31.44ZM20.56 31.87C20.57 31.86 20.65 31.89 20.67 31.87C20.67 31.86 20.66 31.83 20.67 31.82C20.68 31.8 20.76 31.84 20.78 31.82C20.81 31.83 20.85 31.81 20.89 31.82C20.9 31.82 20.94 31.81 20.94 31.82C20.95 31.83 20.94 31.87 20.94 31.87C20.95 31.88 20.98 31.87 21 31.87C21 31.89 21 31.91 21 31.93C20.99 31.94 20.95 31.92 20.94 31.93L20.72 31.93C20.7 31.94 20.63 31.91 20.61 31.93C20.61 31.93 20.61 31.98 20.61 31.98C20.6 31.98 20.56 31.99 20.56 31.98C20.55 31.97 20.56 31.94 20.56 31.93C20.57 31.92 20.55 31.88 20.56 31.87ZM20.73 32.86C20.71 32.86 20.69 32.86 20.67 32.86C20.66 32.85 20.67 32.81 20.67 32.81L20.67 32.75C20.68 32.76 20.72 32.74 20.73 32.75C20.73 32.76 20.73 32.8 20.73 32.81C20.73 32.82 20.73 32.84 20.73 32.86ZM20.23 31.44C20.25 31.42 20.27 31.42 20.28 31.44C20.3 31.45 20.3 31.47 20.28 31.49C20.27 31.51 20.25 31.51 20.23 31.49C20.21 31.47 20.21 31.45 20.23 31.44ZM20.39 32.31L20.28 32.31C20.27 32.31 20.24 32.32 20.23 32.31C20.22 32.3 20.24 32.26 20.23 32.26L20.23 32.2L20.18 32.2C20.18 32.19 20.17 32.16 20.18 32.15C20.19 32.14 20.21 32.14 20.23 32.15C20.23 32.15 20.23 32.2 20.23 32.2C20.27 32.21 20.31 32.19 20.34 32.2C20.35 32.21 20.39 32.2 20.39 32.2C20.4 32.21 20.39 32.25 20.39 32.26C20.4 32.25 20.45 32.26 20.45 32.26C20.44 32.27 20.45 32.3 20.45 32.31C20.44 32.32 20.4 32.31 20.39 32.31ZM20.78 33.3L20.45 33.3L20.45 33.19L20.78 33.19L20.78 33.3ZM20.89 32.37C20.89 32.36 20.83 32.37 20.83 32.37C20.83 32.35 20.83 32.33 20.83 32.31C20.84 32.3 20.88 32.32 20.89 32.31L21 32.31L21 32.42L20.89 32.42C20.88 32.41 20.9 32.38 20.89 32.37ZM21.11 33.3L20.94 33.3L20.94 33.19L21.11 33.19L21.11 33.3ZM21.27 32.81C21.27 32.81 21.23 32.8 21.22 32.81C21.21 32.82 21.23 32.85 21.22 32.86C21.21 32.85 21.18 32.87 21.17 32.86C21.16 32.85 21.17 32.82 21.17 32.81C21.16 32.77 21.17 32.73 21.17 32.7L21.27 32.7C21.27 32.73 21.29 32.77 21.27 32.81ZM21.27 32.37C21.26 32.39 21.24 32.39 21.22 32.37C21.2 32.35 21.2 32.33 21.22 32.31C21.24 32.3 21.26 32.3 21.27 32.31C21.29 32.33 21.29 32.35 21.27 32.37ZM21.33 31.82C21.32 31.83 21.28 31.81 21.27 31.82L21.27 31.65C21.29 31.66 21.32 31.65 21.33 31.65C21.34 31.66 21.33 31.7 21.33 31.71C21.33 31.73 21.33 31.75 21.33 31.76C21.33 31.77 21.34 31.81 21.33 31.82ZM21.77 32.31C21.76 32.32 21.72 32.31 21.72 32.31C21.7 32.31 21.68 32.31 21.66 32.31C21.65 32.31 21.61 32.32 21.61 32.31C21.6 32.3 21.62 32.26 21.61 32.26C21.59 32.25 21.56 32.26 21.55 32.26C21.55 32.26 21.5 32.25 21.5 32.26C21.5 32.24 21.49 32.21 21.5 32.2C21.5 32.2 21.55 32.2 21.55 32.2L21.61 32.2C21.64 32.2 21.68 32.2 21.72 32.2C21.72 32.21 21.71 32.25 21.72 32.26C21.72 32.27 21.76 32.25 21.77 32.26C21.76 32.27 21.78 32.3 21.77 32.31ZM22.32 33.3C22.32 33.31 22.27 33.3 22.27 33.3C22.21 33.3 22.16 33.3 22.1 33.3C22.07 33.29 22.03 33.31 21.99 33.3C21.98 33.3 21.95 33.31 21.94 33.3C21.93 33.29 21.95 33.25 21.94 33.25L21.94 33.13C21.95 33.14 21.98 33.13 21.99 33.13C22 33.14 21.99 33.19 21.99 33.19C22.02 33.2 22.07 33.18 22.1 33.19C22.11 33.2 22.09 33.24 22.1 33.24C22.12 33.25 22.19 33.24 22.21 33.24L22.32 33.24C22.31 33.25 22.33 33.29 22.32 33.3ZM22.43 32.81C22.42 32.8 22.44 32.76 22.43 32.75C22.44 32.74 22.42 32.71 22.43 32.7C22.44 32.69 22.48 32.7 22.49 32.7C22.49 32.7 22.54 32.69 22.54 32.7C22.55 32.71 22.53 32.74 22.54 32.75C22.53 32.76 22.49 32.74 22.49 32.75C22.48 32.76 22.49 32.81 22.49 32.81C22.47 32.81 22.45 32.81 22.43 32.81ZM22.54 33.19C22.52 33.19 22.51 33.19 22.49 33.19C22.49 33.15 22.49 33.11 22.49 33.08C22.5 33.07 22.53 33.09 22.54 33.08C22.53 33.1 22.56 33.17 22.54 33.19ZM22.87 32.81C22.85 32.82 22.84 32.82 22.82 32.81C22.8 32.79 22.8 32.77 22.82 32.75C22.84 32.75 22.85 32.75 22.87 32.75L22.87 32.81ZM23.7 33.13C23.69 33.14 23.65 33.13 23.65 33.13C23.64 33.14 23.65 33.18 23.65 33.19C23.64 33.19 23.59 33.18 23.59 33.19C23.58 33.22 23.6 33.27 23.59 33.3L23.37 33.3C23.33 33.29 23.29 33.31 23.26 33.3C23.25 33.3 23.21 33.31 23.2 33.3C23.2 33.29 23.21 33.25 23.2 33.25L23.2 33.13L23.31 33.13C23.33 33.13 23.36 33.14 23.37 33.13C23.38 33.13 23.36 33.09 23.37 33.08C23.38 33.07 23.41 33.09 23.42 33.08C23.43 33.07 23.47 33.09 23.48 33.08C23.49 33.07 23.47 33.04 23.48 33.03C23.51 33.03 23.55 33.02 23.58 33.03C23.59 33.03 23.63 33.02 23.64 33.03C23.65 33.03 23.63 33.07 23.64 33.08L23.69 33.08C23.69 33.09 23.71 33.13 23.7 33.13ZM23.92 33.24C23.9 33.26 23.88 33.26 23.86 33.24C23.84 33.22 23.84 33.21 23.86 33.19C23.88 33.17 23.9 33.17 23.92 33.19C23.94 33.21 23.94 33.22 23.92 33.24ZM24.03 32.81C24.02 32.81 23.98 32.81 23.97 32.81L23.92 32.81C23.93 32.79 23.91 32.76 23.92 32.75C23.93 32.75 23.97 32.75 23.97 32.75C23.98 32.75 24.03 32.75 24.03 32.75L24.03 32.81ZM25.19 32.64C25.22 32.65 25.26 32.63 25.3 32.64C25.31 32.64 25.35 32.63 25.35 32.64C25.36 32.65 25.35 32.69 25.35 32.7C25.32 32.69 25.28 32.7 25.24 32.7C25.23 32.69 25.19 32.7 25.19 32.7C25.18 32.69 25.19 32.65 25.19 32.64ZM24.58 32.81C24.57 32.82 24.59 32.85 24.58 32.86C24.56 32.88 24.54 32.88 24.52 32.86C24.51 32.84 24.51 32.82 24.52 32.81C24.53 32.8 24.57 32.82 24.58 32.81C24.59 32.8 24.57 32.76 24.58 32.75C24.59 32.74 24.62 32.76 24.63 32.75C24.63 32.76 24.64 32.8 24.63 32.81C24.62 32.82 24.59 32.8 24.58 32.81ZM25.46 33.08C25.45 33.09 25.41 33.07 25.41 33.08C25.4 33.09 25.41 33.13 25.41 33.13C25.4 33.14 25.36 33.13 25.35 33.13C25.34 33.13 25.31 33.13 25.3 33.13C25.28 33.14 25.25 33.13 25.24 33.13C25.24 33.14 25.25 33.18 25.24 33.19C25.23 33.22 25.25 33.26 25.24 33.3L24.75 33.3C24.73 33.29 24.65 33.32 24.64 33.3C24.63 33.29 24.64 33.26 24.64 33.25L24.64 33.13L24.75 33.13C24.75 33.12 24.74 33.09 24.75 33.08C24.75 33.07 24.8 33.08 24.8 33.08L24.86 33.08C24.86 33.07 24.85 33.03 24.86 33.03C24.89 33.02 24.93 33.02 24.96 33.03L25.41 33.03C25.41 33.03 25.45 33.02 25.46 33.03C25.46 33.04 25.46 33.06 25.46 33.08ZM26.89 33.08C26.88 33.09 26.85 33.07 26.84 33.08L26.84 33.25L26.67 33.25C26.66 33.25 26.63 33.24 26.62 33.25C26.61 33.25 26.62 33.3 26.62 33.3C26.58 33.3 26.54 33.3 26.5 33.3L26.12 33.3L26.12 33.08C26.11 33.07 26.07 33.09 26.06 33.08C26.06 33.06 26.06 33.04 26.06 33.03C26.07 33.02 26.11 33.03 26.12 33.03C26.15 33.02 26.19 33.03 26.23 33.03L26.5 33.03C26.51 33.02 26.5 32.97 26.5 32.97C26.54 32.97 26.58 32.97 26.62 32.97C26.63 32.97 26.65 32.97 26.67 32.97C26.69 32.97 26.77 32.96 26.78 32.97C26.79 32.98 26.77 33.01 26.78 33.03C26.8 33.04 26.87 33.01 26.89 33.03C26.89 33.04 26.89 33.06 26.89 33.08ZM27.06 32.7C27.04 32.71 27.02 32.71 27 32.7C26.98 32.68 26.98 32.66 27 32.64C27.02 32.64 27.04 32.64 27.06 32.64L27.06 32.7ZM28.05 33.24C28.04 33.25 28 33.23 27.99 33.24C27.99 33.25 28 33.29 27.99 33.3C27.96 33.31 27.92 33.29 27.88 33.3C27.81 33.29 27.73 33.3 27.66 33.3C27.63 33.3 27.59 33.3 27.55 33.3C27.54 33.29 27.5 33.3 27.5 33.3C27.49 33.29 27.5 33.25 27.5 33.24L27.5 33.13L27.61 33.13C27.62 33.13 27.66 33.14 27.66 33.13C27.67 33.12 27.66 33.09 27.66 33.08C27.68 33.07 27.71 33.09 27.72 33.08C27.73 33.07 27.71 33.03 27.72 33.02L28.05 33.02L28.05 33.24ZM29.26 32.7C29.27 32.69 29.31 32.7 29.31 32.7C29.32 32.68 29.31 32.65 29.31 32.64L29.48 32.64C29.47 32.65 29.49 32.69 29.48 32.7C29.47 32.7 29.43 32.69 29.42 32.7C29.42 32.7 29.43 32.74 29.42 32.75C29.42 32.76 29.38 32.75 29.37 32.75C29.33 32.76 29.3 32.74 29.26 32.75C29.27 32.74 29.25 32.7 29.26 32.7ZM29.65 33.08C29.64 33.09 29.6 33.08 29.59 33.08C29.57 33.08 29.55 33.08 29.54 33.08C29.53 33.09 29.55 33.13 29.54 33.13C29.53 33.14 29.49 33.13 29.48 33.13C29.48 33.17 29.48 33.21 29.48 33.25L29.48 33.3L28.88 33.3C28.86 33.3 28.84 33.3 28.82 33.3C28.82 33.28 28.82 33.26 28.82 33.25C28.83 33.24 28.87 33.25 28.88 33.25C28.88 33.23 28.87 33.2 28.88 33.19C28.88 33.19 28.93 33.2 28.93 33.19C28.94 33.18 28.92 33.15 28.93 33.14C28.94 33.13 28.98 33.15 28.99 33.14C28.99 33.13 28.98 33.09 28.99 33.08C29.02 33.08 29.06 33.08 29.1 33.08L29.37 33.08C29.38 33.08 29.42 33.09 29.42 33.08C29.43 33.08 29.42 33.03 29.42 33.03C29.44 33.02 29.47 33.03 29.48 33.03L29.59 33.03C29.6 33.03 29.64 33.02 29.65 33.03C29.65 33.03 29.65 33.08 29.65 33.08ZM29.59 35.22L29.48 35.22C29.44 35.22 29.41 35.22 29.37 35.22C29.37 35.2 29.37 35.18 29.37 35.16C29.38 35.16 29.42 35.16 29.42 35.16L29.48 35.16C29.5 35.18 29.58 35.15 29.59 35.16C29.6 35.17 29.58 35.21 29.59 35.22ZM30.8 33.13C30.79 33.14 30.76 33.13 30.75 33.13C30.74 33.14 30.7 33.13 30.69 33.13C30.68 33.14 30.7 33.18 30.69 33.19C30.69 33.2 30.65 33.18 30.64 33.19C30.63 33.19 30.64 33.24 30.64 33.24C30.64 33.26 30.64 33.28 30.64 33.3C30.6 33.3 30.57 33.3 30.53 33.3L30.03 33.3C30.04 33.28 30.03 33.25 30.03 33.24C30.04 33.23 30.08 33.25 30.09 33.24C30.1 33.23 30.08 33.2 30.09 33.19C30.1 33.18 30.13 33.19 30.14 33.19C30.18 33.19 30.22 33.19 30.26 33.19C30.27 33.19 30.29 33.19 30.31 33.19C30.33 33.19 30.35 33.19 30.36 33.19C30.37 33.18 30.35 33.14 30.36 33.13C30.37 33.13 30.41 33.13 30.42 33.13C30.43 33.13 30.46 33.14 30.47 33.13C30.48 33.13 30.47 33.09 30.47 33.08C30.48 33.07 30.52 33.09 30.53 33.08C30.54 33.07 30.57 33.09 30.58 33.08C30.59 33.07 30.58 33.03 30.58 33.03C30.62 33.02 30.65 33.02 30.69 33.03C30.7 33.03 30.68 33.07 30.69 33.08C30.7 33.09 30.74 33.07 30.74 33.08L30.8 33.08C30.79 33.09 30.81 33.13 30.8 33.13ZM30.8 32.7C30.76 32.7 30.73 32.7 30.69 32.7C30.68 32.68 30.7 32.65 30.69 32.64C30.71 32.65 30.79 32.62 30.8 32.64L30.8 32.7ZM32.01 32.7C32.03 32.71 32.11 32.68 32.12 32.7C32.13 32.71 32.13 32.73 32.12 32.75C32.09 32.75 32.05 32.75 32.01 32.75C32 32.74 32.02 32.71 32.01 32.7ZM31.46 33.19C31.48 33.18 31.51 33.2 31.52 33.19C31.53 33.18 31.51 33.15 31.52 33.13C31.52 33.12 31.51 33.09 31.52 33.08C31.53 33.07 31.56 33.09 31.57 33.08L31.57 33.03L31.68 33.03C31.69 33.04 31.67 33.07 31.68 33.08C31.69 33.09 31.73 33.08 31.74 33.08C31.77 33.08 31.81 33.08 31.85 33.08L32.07 33.08C32.09 33.08 32.1 33.08 32.12 33.08C32.12 33.1 32.12 33.12 32.12 33.13C32.11 33.14 32.08 33.13 32.07 33.13L31.9 33.13C31.89 33.15 31.91 33.18 31.9 33.19C31.9 33.19 31.85 33.18 31.85 33.19C31.84 33.21 31.86 33.29 31.85 33.3C31.83 33.31 31.76 33.3 31.74 33.3L31.46 33.3L31.46 33.19ZM14.06 30.39C14.04 30.37 14.02 30.37 14.01 30.39C13.99 30.41 13.99 30.43 14.01 30.45C14.02 30.46 14.05 30.44 14.06 30.45C14.05 30.45 14.07 30.4 14.06 30.39ZM27.77 30.12L27.88 30.12C27.92 30.12 27.96 30.12 27.99 30.12C28 30.12 28.04 30.12 28.05 30.12C28.05 30.11 28.05 30.09 28.05 30.08C27.96 30.08 27.86 30.12 27.77 30.12ZM24.96 30.2C24.69 30.21 24.41 30.22 24.14 30.23L24.31 30.23C24.32 30.24 24.35 30.22 24.36 30.23C24.37 30.24 24.35 30.28 24.36 30.28C24.37 30.29 24.4 30.28 24.42 30.28C24.45 30.29 24.49 30.29 24.53 30.28C24.54 30.28 24.58 30.29 24.58 30.28C24.59 30.27 24.58 30.24 24.58 30.23L24.96 30.2ZM23.42 30.28C23.49 30.27 23.57 30.3 23.64 30.28C23.65 30.28 23.69 30.29 23.7 30.28C23.7 30.28 23.7 30.26 23.7 30.24C23.61 30.24 23.51 30.24 23.42 30.25C23.42 30.26 23.42 30.27 23.42 30.28ZM27.39 30.12C27.44 30.11 27.5 30.13 27.55 30.12C27.46 30.12 27.37 30.11 27.28 30.11L27.39 30.12ZM9.44 29.9C9.43 29.91 9.42 29.91 9.4 29.92C9.42 29.93 9.43 29.93 9.44 29.94L9.44 29.9ZM11.69 29.63C11.71 29.63 11.74 29.62 11.75 29.63C11.75 29.63 11.74 29.68 11.75 29.68C11.78 29.69 11.82 29.69 11.86 29.68C11.87 29.68 11.91 29.69 11.91 29.68C11.92 29.67 11.9 29.63 11.91 29.63C11.94 29.61 11.99 29.63 12.02 29.63L12.02 29.73C12.03 29.74 12.06 29.72 12.07 29.73C12.08 29.74 12.07 29.78 12.07 29.79C12.08 29.8 12.06 29.83 12.07 29.84C12.08 29.85 12.12 29.83 12.13 29.84C12.14 29.85 12.12 29.89 12.13 29.9C12.14 29.9 12.18 29.89 12.18 29.9C12.19 29.91 12.18 29.94 12.18 29.95L12.29 29.95C12.3 29.96 12.28 30 12.29 30C12.31 30.02 12.38 30 12.4 30L12.73 30C12.76 29.99 12.81 30.02 12.84 30C12.85 30 12.83 29.96 12.84 29.95C12.85 29.94 12.89 29.96 12.9 29.95C12.91 29.94 12.94 29.96 12.95 29.95C12.96 29.94 12.94 29.9 12.95 29.9C12.96 29.89 12.99 29.9 13 29.9C13.01 29.89 12.99 29.85 13 29.84C13.01 29.83 13.05 29.85 13.06 29.84C13.07 29.86 13.04 29.93 13.06 29.95C13.07 29.96 13.1 29.95 13.11 29.95C13.15 29.96 13.19 29.94 13.22 29.95L13.44 29.95C13.45 29.94 13.49 29.96 13.5 29.95C13.5 29.94 13.49 29.9 13.5 29.9C13.53 29.88 13.57 29.9 13.6 29.9L13.72 29.9C13.72 29.91 13.71 29.94 13.72 29.95C13.72 29.96 13.76 29.95 13.77 29.95C13.81 29.95 13.84 29.95 13.88 29.95C13.93 29.95 13.99 29.95 14.05 29.95C14.05 29.95 14.04 30 14.05 30C14.07 30.02 14.14 29.99 14.15 30C14.16 30.01 14.15 30.06 14.15 30.06C14.21 30.07 14.27 30.05 14.32 30.06C14.34 30.07 14.41 30.04 14.43 30.06C14.45 30.08 14.41 30.15 14.43 30.17C14.44 30.18 14.48 30.16 14.49 30.17C14.49 30.18 14.48 30.22 14.49 30.22C14.52 30.24 14.57 30.21 14.6 30.22L14.82 30.22C14.82 30.21 14.81 30.18 14.82 30.17C14.82 30.16 14.86 30.18 14.87 30.17C14.88 30.16 14.87 30.13 14.87 30.12C14.87 30.1 14.87 30.08 14.87 30.06C14.87 30.05 14.86 30.01 14.87 30.01C14.89 30 14.91 30 14.92 30.01C14.93 30.02 14.92 30.05 14.92 30.06L15.25 30.06C15.29 30.07 15.33 30.05 15.37 30.06C15.37 30.06 15.36 30.11 15.37 30.12C15.37 30.12 15.41 30.11 15.42 30.12C15.43 30.12 15.41 30.16 15.42 30.17C15.43 30.18 15.47 30.16 15.47 30.17C15.48 30.18 15.47 30.21 15.47 30.22L15.8 30.22C15.81 30.21 15.79 30.18 15.8 30.17C15.81 30.16 15.85 30.17 15.86 30.17L15.91 30.17L15.91 30.06L16.02 30.06C16.03 30.08 16.01 30.11 16.02 30.12C16.03 30.12 16.07 30.12 16.08 30.12L16.13 30.12C16.14 30.12 16.18 30.12 16.19 30.12C16.2 30.11 16.18 30.07 16.19 30.06C16.2 30.06 16.23 30.07 16.24 30.06L16.35 30.06C16.36 30.1 16.34 30.14 16.35 30.18C16.35 30.18 16.4 30.17 16.4 30.18C16.41 30.18 16.4 30.22 16.4 30.23L16.84 30.23C16.85 30.22 16.84 30.18 16.84 30.18C16.85 30.17 16.89 30.18 16.9 30.18C16.91 30.16 16.89 30.13 16.9 30.12C16.91 30.11 16.89 30.08 16.9 30.07C16.91 30.06 16.94 30.07 16.95 30.07L17.23 30.07C17.25 30.08 17.33 30.05 17.34 30.07C17.35 30.08 17.33 30.11 17.34 30.12C17.35 30.13 17.39 30.11 17.39 30.12C17.4 30.13 17.39 30.17 17.39 30.18C17.4 30.18 17.39 30.22 17.39 30.23C17.4 30.24 17.44 30.22 17.45 30.23C17.46 30.24 17.44 30.27 17.45 30.28C17.46 30.29 17.49 30.27 17.5 30.28L17.61 30.28C17.62 30.27 17.61 30.24 17.61 30.23C17.62 30.22 17.66 30.23 17.67 30.23C17.72 30.23 17.78 30.23 17.84 30.23C17.84 30.22 17.83 30.18 17.84 30.18C17.84 30.17 17.88 30.18 17.89 30.18C17.9 30.16 17.88 30.13 17.89 30.12C17.9 30.11 17.88 30.08 17.89 30.07C17.9 30.06 17.94 30.07 17.94 30.07L18.22 30.07C18.24 30.08 18.31 30.05 18.33 30.07C18.35 30.09 18.31 30.16 18.33 30.18C18.34 30.19 18.38 30.17 18.38 30.18C18.39 30.19 18.38 30.23 18.38 30.23C18.4 30.24 18.43 30.23 18.44 30.23C18.45 30.24 18.48 30.22 18.49 30.23C18.5 30.24 18.49 30.28 18.49 30.29C18.53 30.29 18.57 30.29 18.61 30.29C18.62 30.29 18.64 30.29 18.66 30.29C18.67 30.28 18.71 30.29 18.71 30.29C18.72 30.28 18.71 30.23 18.71 30.23C18.73 30.23 18.75 30.23 18.77 30.23C18.78 30.24 18.76 30.28 18.77 30.29L18.77 30.67L20.03 30.67L20.03 30.39L20.58 30.39L20.58 30.72L21.85 30.72L21.85 30.39L23.33 30.39L23.33 30.25C21.88 30.29 20.47 30.31 19.12 30.3C20.13 29.78 21.12 29.23 22.13 28.7L22.13 28.42C22.14 28.41 22.17 28.43 22.18 28.42C22.19 28.41 22.18 28.37 22.18 28.37L22.18 28.26C22.18 28.25 22.17 28.21 22.18 28.2C22.2 28.2 22.22 28.2 22.24 28.2C22.24 28.21 22.23 28.25 22.24 28.26C22.25 28.27 22.28 28.25 22.29 28.26C22.3 28.27 22.28 28.3 22.29 28.31C22.3 28.32 22.34 28.31 22.34 28.31C22.36 28.31 22.38 28.31 22.4 28.31C22.39 28.32 22.41 28.36 22.4 28.37C22.39 28.37 22.35 28.36 22.34 28.37C22.33 28.37 22.24 28.35 22.24 28.37C22.22 28.38 22.24 28.46 22.24 28.48L22.24 28.58C22.23 28.6 22.23 28.62 22.24 28.64C22.38 28.56 22.53 28.49 22.68 28.41L22.68 28.37C22.68 28.36 22.72 28.38 22.73 28.37C22.74 28.36 22.72 28.32 22.73 28.31C22.74 28.31 22.78 28.32 22.78 28.31C22.78 28.32 22.79 28.35 22.79 28.36C29.31 24.88 35.72 21.29 42.24 17.81C43.12 18 44.05 18.13 44.94 18.3C44.98 18.22 45.03 18.15 45.1 18.09L45.13 18.1C45.84 17.71 46.59 17.36 47.33 17.01C47.43 16.96 47.54 16.92 47.64 16.87C48.44 16.5 49.19 16.09 49.96 15.78C49.56 15.25 48.82 14.94 48.12 14.54C48.06 14.47 47.94 14.41 48.01 14.31C47.28 13.87 46.59 13.39 45.81 13C45.04 13.26 44.64 13.51 43.87 13.76C43.75 13.82 43.54 13.62 43.38 13.6C42.23 14.28 41.04 14.87 39.8 15.35C38.88 15.74 38 16.19 37.16 16.72C36.88 16.9 36.57 17.05 36.27 17.22L35.51 17.78C27.78 21.65 21.21 24.58 14.06 27.81C14.07 27.81 14.11 27.82 14.12 27.82C14.21 27.82 14.3 27.82 14.39 27.82L14.66 27.82L14.66 27.93L14.44 27.93C14.44 27.96 14.46 28 14.44 28.03C14.44 28.04 14.4 28.03 14.39 28.03C14.38 28.04 14.4 28.08 14.39 28.09C14.37 28.1 14.3 28.07 14.28 28.09C14.28 28.09 14.29 28.14 14.28 28.14C14.26 28.14 14.24 28.14 14.23 28.14L14.17 28.14C14.17 28.15 14.18 28.19 14.17 28.2C14.17 28.2 14.12 28.2 14.12 28.2C14.1 28.19 14.08 28.19 14.06 28.2C14.05 28.2 14.02 28.19 14.01 28.2C14 28.2 14.02 28.25 14.01 28.25C13.99 28.26 13.91 28.24 13.9 28.25C13.89 28.26 13.91 28.3 13.9 28.31C13.89 28.31 13.86 28.3 13.85 28.31C13.84 28.31 13.85 28.35 13.85 28.36L13.73 28.36C13.73 28.37 13.74 28.4 13.73 28.41C13.73 28.42 13.69 28.41 13.68 28.41C13.67 28.41 13.63 28.41 13.63 28.41C13.62 28.42 13.63 28.46 13.63 28.47C13.62 28.48 13.58 28.46 13.57 28.47C13.56 28.47 13.58 28.52 13.57 28.52C13.57 28.53 13.52 28.52 13.52 28.52C13.51 28.52 13.47 28.52 13.46 28.52C13.45 28.52 13.47 28.57 13.46 28.58C13.46 28.58 13.41 28.57 13.41 28.58C13.41 28.59 13.41 28.61 13.41 28.63C13.42 28.64 13.46 28.62 13.46 28.63C13.47 28.64 13.46 28.68 13.46 28.69C13.48 28.69 13.5 28.69 13.52 28.69L13.57 28.69C13.57 28.7 13.58 28.73 13.57 28.74C13.57 28.75 13.53 28.74 13.52 28.74C13.48 28.75 13.44 28.74 13.41 28.74C13.4 28.73 13.41 28.7 13.41 28.69C13.4 28.68 13.36 28.7 13.35 28.69C13.35 28.68 13.36 28.64 13.35 28.63C13.33 28.63 13.31 28.63 13.3 28.63L13.24 28.63C13.24 28.65 13.25 28.68 13.24 28.69C13.23 28.7 13.19 28.68 13.19 28.69C13.19 28.69 13.19 28.74 13.19 28.74C13.17 28.75 13.15 28.75 13.13 28.74C13.12 28.74 13.09 28.74 13.08 28.74C13.07 28.75 13.09 28.79 13.08 28.8C13.07 28.81 13.03 28.79 13.02 28.8C13.01 28.81 12.98 28.79 12.97 28.8C12.96 28.81 12.98 28.84 12.97 28.85C12.95 28.87 12.87 28.83 12.86 28.85C12.86 28.86 12.87 28.91 12.86 28.91C12.84 28.91 12.83 28.91 12.81 28.91L12.74 28.91C12.74 28.92 12.75 28.95 12.74 28.96C12.73 28.97 12.7 28.95 12.69 28.96C12.67 28.97 12.64 28.95 12.63 28.96C12.62 28.97 12.64 29.01 12.63 29.01C12.6 29.02 12.55 29 12.52 29.01C12.52 29.02 12.53 29.06 12.52 29.07C12.51 29.08 12.48 29.06 12.47 29.07C12.46 29.08 12.42 29.06 12.42 29.07C12.41 29.08 12.42 29.11 12.42 29.12C12.41 29.13 12.37 29.11 12.36 29.12C12.35 29.13 12.37 29.17 12.36 29.18C12.34 29.19 12.26 29.16 12.25 29.18C12.24 29.19 12.25 29.22 12.25 29.23L12.14 29.23C12.13 29.24 12.15 29.28 12.14 29.29C12.13 29.29 12.09 29.29 12.09 29.29C12.07 29.28 12.05 29.28 12.03 29.29C12.01 29.29 11.93 29.27 11.92 29.29C11.91 29.3 11.93 29.33 11.92 29.34C11.89 29.35 11.84 29.33 11.81 29.34C11.81 29.34 11.82 29.39 11.81 29.39C11.8 29.4 11.77 29.39 11.76 29.39C11.75 29.43 11.77 29.47 11.76 29.51C11.75 29.51 11.71 29.5 11.7 29.51C11.7 29.51 11.71 29.55 11.7 29.56C11.69 29.59 11.7 29.61 11.69 29.63ZM19.35 29.3C19.33 29.32 19.31 29.32 19.29 29.3C19.28 29.28 19.28 29.26 19.29 29.24C19.31 29.24 19.33 29.24 19.35 29.24L19.35 29.3ZM21.94 28.09C21.95 28.07 21.97 28.07 21.99 28.09C22.01 28.11 22.01 28.12 21.99 28.14C21.97 28.16 21.95 28.16 21.94 28.14C21.92 28.12 21.92 28.11 21.94 28.09ZM21.88 28.31C21.9 28.29 21.92 28.29 21.94 28.31C21.95 28.33 21.95 28.34 21.94 28.36C21.92 28.38 21.9 28.38 21.88 28.36C21.86 28.34 21.86 28.33 21.88 28.31ZM21.77 28.36L21.82 28.36C21.84 28.38 21.84 28.4 21.82 28.42C21.81 28.43 21.79 28.43 21.77 28.42L21.77 28.36ZM21.55 28.75C21.57 28.77 21.57 28.78 21.55 28.8C21.53 28.82 21.51 28.82 21.5 28.8C21.49 28.78 21.49 28.77 21.5 28.75L21.55 28.75ZM21.39 28.36C21.4 28.35 21.38 28.32 21.39 28.31C21.4 28.3 21.43 28.31 21.44 28.31C21.44 28.31 21.44 28.25 21.44 28.25C21.45 28.25 21.49 28.25 21.5 28.25C21.5 28.26 21.5 28.3 21.5 28.31C21.5 28.32 21.5 28.36 21.5 28.36C21.49 28.37 21.45 28.35 21.44 28.36C21.43 28.37 21.4 28.35 21.39 28.36C21.38 28.37 21.39 28.42 21.39 28.42C21.37 28.42 21.35 28.41 21.33 28.42C21.34 28.4 21.32 28.37 21.33 28.36C21.34 28.35 21.38 28.37 21.39 28.36ZM21.27 27.98C21.29 27.96 21.31 27.96 21.33 27.98C21.35 28 21.35 28.02 21.33 28.03C21.31 28.05 21.29 28.05 21.27 28.03C21.26 28.02 21.26 28 21.27 27.98ZM20.89 28.86C20.92 28.86 20.96 28.85 21 28.86C21.01 28.86 21.05 28.85 21.05 28.86C21.06 28.87 21.05 28.9 21.05 28.91C21.02 28.91 20.98 28.92 20.94 28.91C20.93 28.91 20.89 28.92 20.89 28.91C20.88 28.9 20.9 28.87 20.89 28.86ZM20.45 28.42C20.46 28.41 20.5 28.43 20.5 28.42C20.51 28.41 20.5 28.38 20.5 28.37L20.73 28.37C20.72 28.38 20.73 28.41 20.73 28.42C20.72 28.43 20.68 28.41 20.67 28.42C20.66 28.43 20.68 28.46 20.67 28.47C20.66 28.48 20.63 28.47 20.62 28.47C20.6 28.48 20.57 28.46 20.56 28.47C20.55 28.48 20.57 28.52 20.56 28.53C20.54 28.53 20.53 28.53 20.51 28.53C20.5 28.52 20.51 28.48 20.51 28.47C20.5 28.47 20.45 28.48 20.45 28.47C20.45 28.47 20.44 28.42 20.45 28.42ZM19.95 28.8C19.96 28.8 20 28.8 20.01 28.8L20.06 28.8C20.07 28.79 20.05 28.76 20.06 28.75C20.07 28.74 20.11 28.75 20.12 28.75C20.13 28.75 20.15 28.75 20.17 28.75C20.16 28.76 20.18 28.79 20.17 28.8C20.16 28.81 20.12 28.79 20.12 28.8C20.11 28.81 20.12 28.85 20.12 28.86C20.11 28.86 20.07 28.85 20.06 28.86C20.02 28.86 19.99 28.85 19.95 28.86C19.96 28.85 19.94 28.81 19.95 28.8ZM19.95 29.13C19.96 29.13 20 29.14 20.01 29.13C20.04 29.13 20.08 29.13 20.12 29.13C20.12 29.14 20.11 29.18 20.12 29.19C20.1 29.19 20.07 29.18 20.06 29.19C20.06 29.19 20.07 29.24 20.06 29.24C20.04 29.24 20.02 29.24 20.01 29.24C20 29.23 20.02 29.19 20.01 29.19C19.99 29.18 19.96 29.19 19.95 29.19C19.96 29.17 19.94 29.14 19.95 29.13ZM19.84 28.42C19.86 28.4 19.88 28.4 19.9 28.42C19.92 28.44 19.92 28.46 19.9 28.47C19.88 28.49 19.86 28.49 19.84 28.47C19.83 28.46 19.83 28.44 19.84 28.42ZM19.51 28.47C19.53 28.47 19.55 28.47 19.57 28.47C19.57 28.51 19.57 28.55 19.57 28.58C19.56 28.59 19.53 28.58 19.51 28.58C19.53 28.56 19.5 28.49 19.51 28.47ZM19.18 28.42C19.19 28.41 19.23 28.43 19.24 28.42C19.25 28.41 19.23 28.38 19.24 28.37L19.24 28.26L19.35 28.26C19.34 28.27 19.36 28.3 19.35 28.31C19.34 28.32 19.3 28.3 19.29 28.31C19.29 28.32 19.3 28.35 19.29 28.37C19.28 28.43 19.31 28.52 19.29 28.58C19.3 28.62 19.28 28.66 19.29 28.7C19.3 28.71 19.34 28.69 19.35 28.7C19.36 28.71 19.34 28.74 19.35 28.75C19.36 28.76 19.39 28.74 19.4 28.75C19.41 28.76 19.39 28.8 19.4 28.81C19.41 28.81 19.45 28.8 19.46 28.81C19.46 28.83 19.46 28.84 19.46 28.86C19.45 28.87 19.41 28.85 19.4 28.86C19.39 28.85 19.36 28.87 19.35 28.86C19.34 28.85 19.36 28.81 19.35 28.81C19.34 28.8 19.31 28.82 19.29 28.81C19.28 28.8 19.3 28.76 19.29 28.75C19.29 28.75 19.25 28.75 19.24 28.75C19.22 28.75 19.2 28.75 19.19 28.75C19.17 28.73 19.19 28.67 19.19 28.64C19.18 28.6 19.18 28.57 19.19 28.53C19.19 28.5 19.17 28.45 19.18 28.42ZM18.8 28.31C18.81 28.3 18.84 28.32 18.85 28.31C18.86 28.3 18.85 28.27 18.85 28.25C18.87 28.26 18.9 28.25 18.91 28.25C18.91 28.26 18.91 28.3 18.91 28.31C18.91 28.31 18.91 28.36 18.91 28.36C18.87 28.37 18.83 28.37 18.8 28.36C18.79 28.35 18.8 28.32 18.8 28.31ZM18.91 28.58C18.89 28.58 18.87 28.58 18.85 28.58C18.85 28.56 18.85 28.55 18.85 28.53C18.87 28.51 18.89 28.51 18.91 28.53C18.93 28.55 18.93 28.56 18.91 28.58ZM18.8 28.8C18.8 28.8 18.84 28.8 18.85 28.8C18.89 28.8 18.93 28.8 18.96 28.8C18.97 28.81 18.96 28.85 18.96 28.86C18.95 28.86 18.92 28.85 18.91 28.86C18.91 28.86 18.92 28.91 18.91 28.91C18.89 28.91 18.87 28.91 18.86 28.91C18.85 28.9 18.87 28.86 18.86 28.86C18.84 28.85 18.81 28.86 18.8 28.86C18.8 28.85 18.79 28.81 18.8 28.8ZM18.58 28.75C18.59 28.76 18.57 28.79 18.58 28.8L18.47 28.8C18.43 28.81 18.39 28.81 18.36 28.8C18.35 28.78 18.35 28.77 18.36 28.75C18.36 28.74 18.41 28.75 18.41 28.75C18.43 28.75 18.45 28.75 18.47 28.75C18.49 28.76 18.56 28.73 18.58 28.75ZM18.14 28.69C18.14 28.69 18.19 28.7 18.19 28.69C18.2 28.67 18.19 28.61 18.19 28.58C18.2 28.53 18.19 28.47 18.19 28.42L18.19 28.25L18.41 28.25C18.41 28.27 18.42 28.3 18.41 28.31C18.41 28.31 18.36 28.31 18.36 28.31C18.35 28.31 18.31 28.3 18.3 28.31C18.29 28.31 18.26 28.3 18.25 28.31C18.24 28.31 18.25 28.36 18.25 28.36L18.25 28.58C18.26 28.6 18.23 28.68 18.25 28.69C18.25 28.69 18.3 28.69 18.3 28.69C18.3 28.71 18.3 28.73 18.3 28.75C18.29 28.76 18.26 28.74 18.25 28.75L18.14 28.75C18.14 28.74 18.13 28.7 18.14 28.69ZM17.92 28.8C17.92 28.8 17.97 28.8 17.97 28.8L18.03 28.8C18.02 28.81 18.03 28.85 18.03 28.86C18.02 28.86 17.98 28.86 17.97 28.86C17.95 28.86 17.94 28.86 17.92 28.86C17.91 28.84 17.91 28.82 17.92 28.8ZM17.75 28.31C17.77 28.29 17.79 28.29 17.81 28.31C17.82 28.33 17.82 28.34 17.81 28.36C17.79 28.38 17.77 28.38 17.75 28.36C17.73 28.34 17.73 28.33 17.75 28.31ZM17.26 28.31C17.28 28.32 17.35 28.29 17.37 28.31C17.37 28.33 17.37 28.34 17.37 28.36C17.33 28.37 17.29 28.37 17.26 28.36C17.25 28.35 17.26 28.32 17.26 28.31ZM17.15 28.47C17.16 28.48 17.19 28.46 17.2 28.47C17.21 28.48 17.2 28.52 17.2 28.53C17.21 28.55 17.19 28.62 17.2 28.64C17.21 28.65 17.25 28.63 17.26 28.64C17.26 28.65 17.25 28.68 17.26 28.69C17.26 28.7 17.3 28.69 17.31 28.69C17.32 28.7 17.36 28.68 17.36 28.69C17.37 28.7 17.36 28.74 17.36 28.75L17.53 28.75C17.55 28.76 17.63 28.73 17.64 28.75C17.65 28.76 17.64 28.79 17.64 28.8L17.37 28.8C17.35 28.81 17.33 28.81 17.31 28.8C17.31 28.8 17.32 28.76 17.31 28.75L17.15 28.75L17.15 28.47ZM16.27 28.31C16.28 28.29 16.3 28.29 16.32 28.31C16.34 28.33 16.34 28.34 16.32 28.36C16.3 28.38 16.28 28.38 16.27 28.36C16.25 28.34 16.25 28.33 16.27 28.31ZM16.15 28.47C16.17 28.48 16.2 28.46 16.21 28.47C16.22 28.48 16.2 28.52 16.21 28.53C16.21 28.55 16.19 28.62 16.21 28.64C16.22 28.65 16.25 28.63 16.26 28.64C16.27 28.65 16.25 28.68 16.26 28.69C16.27 28.7 16.31 28.69 16.32 28.69C16.33 28.7 16.36 28.68 16.37 28.69C16.38 28.7 16.36 28.74 16.37 28.75L16.54 28.75C16.56 28.76 16.63 28.73 16.65 28.75C16.65 28.76 16.64 28.79 16.65 28.8L16.37 28.8C16.35 28.81 16.33 28.81 16.32 28.8C16.31 28.8 16.32 28.76 16.32 28.75L16.15 28.75L16.15 28.47ZM15.88 28.53C15.9 28.51 15.91 28.51 15.93 28.53C15.95 28.55 15.95 28.56 15.93 28.58C15.91 28.6 15.9 28.6 15.88 28.58C15.86 28.56 15.86 28.55 15.88 28.53ZM15.77 28.31C15.79 28.29 15.81 28.29 15.82 28.31C15.84 28.33 15.84 28.34 15.82 28.36C15.81 28.38 15.79 28.38 15.77 28.36C15.75 28.34 15.75 28.33 15.77 28.31ZM15.44 28.75C15.44 28.74 15.48 28.75 15.49 28.75C15.51 28.75 15.53 28.75 15.55 28.75C15.57 28.76 15.64 28.73 15.66 28.75C15.66 28.76 15.65 28.79 15.66 28.8L15.55 28.8C15.51 28.81 15.48 28.81 15.44 28.8C15.44 28.78 15.44 28.77 15.44 28.75ZM15.11 28.42C15.11 28.41 15.16 28.42 15.16 28.42C15.17 28.42 15.21 28.43 15.22 28.42C15.24 28.4 15.21 28.34 15.22 28.31L15.38 28.31C15.38 28.32 15.39 28.35 15.38 28.36C15.38 28.37 15.34 28.36 15.33 28.36C15.31 28.36 15.29 28.36 15.27 28.36C15.27 28.4 15.27 28.44 15.27 28.47C15.27 28.51 15.27 28.55 15.27 28.58C15.28 28.59 15.33 28.58 15.33 28.58C15.34 28.59 15.32 28.63 15.33 28.64C15.34 28.65 15.32 28.68 15.33 28.69C15.34 28.7 15.38 28.68 15.38 28.69C15.39 28.71 15.39 28.73 15.38 28.75C15.37 28.76 15.34 28.74 15.33 28.75C15.3 28.74 15.25 28.76 15.22 28.75C15.21 28.75 15.23 28.7 15.22 28.69C15.21 28.69 15.17 28.7 15.17 28.69C15.15 28.67 15.17 28.61 15.17 28.58L15.17 28.47C15.16 28.48 15.11 28.47 15.11 28.47C15.11 28.46 15.1 28.43 15.11 28.42ZM14.89 28.53C14.91 28.51 14.92 28.51 14.94 28.53C14.96 28.55 14.96 28.56 14.94 28.58C14.92 28.6 14.91 28.6 14.89 28.58C14.87 28.56 14.87 28.55 14.89 28.53ZM14.72 28.75C14.74 28.73 14.76 28.73 14.78 28.75C14.79 28.77 14.79 28.78 14.78 28.8C14.76 28.82 14.74 28.82 14.72 28.8C14.7 28.78 14.7 28.77 14.72 28.75ZM14.28 28.58C14.29 28.59 14.27 28.63 14.28 28.64C14.29 28.65 14.33 28.63 14.34 28.64C14.34 28.65 14.33 28.69 14.34 28.69C14.36 28.71 14.43 28.68 14.45 28.69C14.46 28.71 14.44 28.74 14.45 28.75C14.46 28.76 14.5 28.74 14.5 28.75C14.52 28.77 14.52 28.79 14.5 28.8C14.48 28.82 14.47 28.82 14.45 28.8C14.44 28.79 14.45 28.76 14.45 28.75L14.34 28.75C14.32 28.75 14.3 28.75 14.28 28.75C14.28 28.75 14.29 28.7 14.28 28.69C14.27 28.69 14.23 28.7 14.23 28.69C14.22 28.68 14.23 28.65 14.23 28.64L14.23 28.58C14.24 28.59 14.27 28.57 14.28 28.58ZM14.17 28.42C14.19 28.4 14.21 28.4 14.23 28.42C14.25 28.44 14.25 28.46 14.23 28.47C14.21 28.48 14.19 28.48 14.17 28.47C14.17 28.46 14.17 28.44 14.17 28.42ZM13.95 28.75C13.97 28.76 14.05 28.73 14.06 28.75C14.06 28.77 14.06 28.78 14.06 28.8C14.02 28.8 13.99 28.8 13.95 28.8C13.94 28.79 13.96 28.76 13.95 28.75ZM13.57 29.52C13.58 29.5 13.6 29.5 13.62 29.52C13.64 29.54 13.64 29.55 13.62 29.57C13.6 29.57 13.58 29.57 13.57 29.57L13.57 29.52ZM13.46 29.63C13.47 29.62 13.49 29.62 13.51 29.63C13.51 29.64 13.51 29.66 13.51 29.68C13.49 29.7 13.47 29.7 13.46 29.68C13.44 29.66 13.44 29.64 13.46 29.63ZM12.08 29.57C12.1 29.57 12.12 29.57 12.13 29.57C12.14 29.59 12.14 29.61 12.13 29.63L12.08 29.63C12.08 29.61 12.08 29.59 12.08 29.57Z" fill="#FCEE0A" fill-opacity="1.000000" fill-rule="nonzero"/>
</svg>
