<svg width="50" height="50" viewBox="0 0 50 50" fill="none" xmlns="http://www.w3.org/2000/svg">
<path d="M43.3333 36.4025C45.2834 37.092 46.9718 38.3692 48.1658 40.0582C49.3597 41.7472 50.0006 43.7649 50 45.8333V50H-3.43835e-06V45.8333C-0.000570759 43.7649 0.640272 41.7472 1.83424 40.0582C3.02821 38.3692 4.71654 37.092 6.66666 36.4025" fill="#2D4D83"/>
<path d="M18.4583 29.1667C16.1983 25.5556 14.9999 21.3816 15 17.1217V14.1667L20.5725 10.4517C21.8292 9.61352 23.3061 9.16638 24.8167 9.16667C26.5539 9.16677 28.2394 8.57544 29.5958 7.49L31.6667 5.83333L33.6008 8.73417C34.5133 10.1031 35.0001 11.7115 35 13.3567V17.1217C35.0002 21.3817 33.8014 25.5559 31.5408 29.1667" fill="#FADFB2"/>
<path d="M15.8733 23.3567C15.2938 21.329 14.9999 19.2305 15 17.1217V16.6667H13.9167C13.3199 16.6667 12.7476 16.9037 12.3257 17.3257C11.9037 17.7476 11.6667 18.3199 11.6667 18.9167C11.6666 19.2542 11.7426 19.5875 11.8889 19.8917C12.0351 20.1959 12.248 20.4634 12.5117 20.6742L15.8733 23.355V23.3567ZM34.1667 23.3333L37.4883 20.6758C37.7522 20.4649 37.9652 20.1972 38.1115 19.8926C38.2578 19.5881 38.3336 19.2545 38.3333 18.9167C38.3333 18.6212 38.2751 18.3286 38.1621 18.0556C38.049 17.7826 37.8833 17.5346 37.6743 17.3257C37.4654 17.1167 37.2173 16.951 36.9444 16.8379C36.6714 16.7249 36.3788 16.6667 36.0833 16.6667H35V17.1217C35.0002 19.2195 34.7094 21.3071 34.1358 23.325L34.1667 23.3333Z" fill="#F5CF88"/>
<path d="M35 16.6667L37.2592 10.4542C37.9484 8.55895 37.8758 6.47029 37.0567 4.6275C36.4446 3.25017 35.4462 2.07993 34.1824 1.25858C32.9187 0.437239 31.4439 5.05154e-05 29.9367 0H22.8617C17.7241 0.000249199 12.6901 1.444 8.33333 4.16667L10.3425 4.83333C10.7276 4.96093 11.0825 5.16601 11.3853 5.43593C11.6882 5.70585 11.9325 6.0349 12.1034 6.40282C12.2743 6.77075 12.3681 7.16976 12.379 7.57529C12.3898 7.98082 12.3176 8.38428 12.1667 8.76083C12.0109 9.1506 11.9394 9.56891 11.9568 9.98829C11.9741 10.4077 12.08 10.8186 12.2675 11.1942L15 16.6667V14.1667L20.5725 10.4517C21.8292 9.61352 23.3061 9.16638 24.8167 9.16667C26.5539 9.16677 28.2394 8.57544 29.5958 7.49L31.6667 5.83333L33.6008 8.73417C34.5133 10.1031 35.0001 11.7115 35 13.3567V16.6667Z" fill="#976947"/>
<path d="M18.3333 16.6667H23.3333V20C23.3333 20.442 23.1577 20.8659 22.8452 21.1785C22.5326 21.4911 22.1087 21.6667 21.6667 21.6667H20C19.558 21.6667 19.134 21.4911 18.8215 21.1785C18.5089 20.8659 18.3333 20.442 18.3333 20V16.6667ZM26.6667 16.6667H31.6667V20C31.6667 20.442 31.4911 20.8659 31.1785 21.1785C30.8659 21.4911 30.442 21.6667 30 21.6667H28.3333C27.8913 21.6667 27.4674 21.4911 27.1548 21.1785C26.8423 20.8659 26.6667 20.442 26.6667 20V16.6667Z" fill="#F2F0EB"/>
<path d="M31.6667 16.6667V18.3333H34.9575C34.9792 17.9308 35 17.5283 35 17.1225V16.6667H31.6667ZM15 17.1217C15 17.5275 15.0208 17.93 15.0425 18.3325H18.3333V16.6667H15V17.1217Z" fill="#C1C8D1"/>
<path d="M23.3333 17.5H26.6667V19.1667H23.3333V17.5Z" fill="#A8B0BC"/>
<path d="M6.66666 50V32.5C6.66666 31.6159 7.01785 30.7681 7.64297 30.143C8.2681 29.5179 9.11594 29.1667 10 29.1667H40C40.8841 29.1667 41.7319 29.5179 42.357 30.143C42.9821 30.7681 43.3333 31.6159 43.3333 32.5V50" fill="#D5CEC2"/>
<path d="M25 45.8333C26.3807 45.8333 27.5 44.714 27.5 43.3333C27.5 41.9526 26.3807 40.8333 25 40.8333C23.6193 40.8333 22.5 41.9526 22.5 43.3333C22.5 44.714 23.6193 45.8333 25 45.8333Z" fill="#E7E4DD"/>
<path d="M19.41 38.9225L16.0767 35.5892C15.9992 35.5118 15.9377 35.4199 15.8958 35.3187C15.8538 35.2175 15.8323 35.1091 15.8323 34.9996C15.8323 34.8901 15.8538 34.7816 15.8958 34.6805C15.9377 34.5793 15.9992 34.4874 16.0767 34.41L19.41 31.0767L20.5892 32.2558L17.845 35L20.5892 37.7433L19.41 38.9225ZM30.5892 38.9225L29.41 37.7433L32.1542 35L29.41 32.2558L30.5892 31.0767L33.9225 34.41C34 34.4874 34.0614 34.5793 34.1034 34.6805C34.1453 34.7816 34.1669 34.8901 34.1669 34.9996C34.1669 35.1091 34.1453 35.2175 34.1034 35.3187C34.0614 35.4199 34 35.5118 33.9225 35.5892L30.5892 38.9225ZM21.8325 37.8392L26.8325 31.1725L28.1658 32.1725L23.1658 38.8392L21.8325 37.8392Z" fill="#C66B60"/>
</svg>
