<svg width="51" height="51" viewBox="0 0 51 51" fill="none" xmlns="http://www.w3.org/2000/svg">
<path d="M43.6085 2.00332V9.60801H8.12856V5.26113C8.12856 4.40644 8.83295 3.72129 9.71062 3.72129H33.3725C33.5515 3.72005 33.7227 3.64966 33.8484 3.52558C33.9742 3.40151 34.0442 3.2339 34.0431 3.05957V2.00332C34.0431 1.14785 34.7555 0.462692 35.6252 0.462692H42.0272C42.8961 0.462692 43.6085 1.14785 43.6085 2.00332Z" fill="#FFAF57"/>
<path d="M45.2234 38.8525V44.4979C45.2234 44.9416 44.8512 45.3041 44.3955 45.3041C44.1761 45.3035 43.9659 45.2183 43.8108 45.0673C43.6556 44.9162 43.5682 44.7115 43.5676 44.4979V38.8525C43.5676 38.4166 43.2025 38.0619 42.7557 38.0619H26.6968V44.4979C26.6968 44.9416 26.3246 45.3041 25.8689 45.3041C25.6494 45.3037 25.439 45.2186 25.2837 45.0676C25.1284 44.9165 25.0408 44.7116 25.0402 44.4979V38.0619H8.98217C8.52648 38.0619 8.16226 38.4166 8.16226 38.8525V44.4979C8.16226 44.9416 7.79723 45.3041 7.33352 45.3041C7.11414 45.3035 6.90392 45.2183 6.74879 45.0673C6.59366 44.9162 6.50623 44.7115 6.50559 44.4979V38.8525C6.50591 38.5363 6.57024 38.2232 6.69491 37.9312C6.81958 37.6391 7.00214 37.3739 7.23216 37.1506C7.46217 36.9274 7.73512 36.7505 8.0354 36.63C8.33569 36.5095 8.65741 36.4479 8.98217 36.4486H25.0402V28.1018C25.0402 27.658 25.4132 27.2955 25.8689 27.2955C26.3246 27.2955 26.6968 27.658 26.6968 28.1018V36.4486H42.7557C43.4102 36.449 44.0377 36.7025 44.5004 37.1532C44.9632 37.604 45.2232 38.2152 45.2234 38.8525Z" fill="#DDDEE0"/>
<path d="M8.12856 7.99551H43.6085V9.60879H8.12856V7.99551Z" fill="#3B3E3F" fill-opacity="0.082"/>
<path d="M40.876 30.5213H10.849C10.2142 30.5214 9.60065 30.2988 9.12074 29.8941C8.64083 29.4895 8.32675 28.93 8.23607 28.3182L5.73302 11.4822C5.69875 11.2499 5.71617 11.0131 5.78412 10.7879C5.85206 10.5626 5.96893 10.3543 6.12681 10.1769C6.28468 9.99953 6.47987 9.85728 6.69915 9.7598C6.91843 9.66231 7.15666 9.61188 7.39771 9.61191H44.3281C44.5696 9.61163 44.8083 9.66186 45.0281 9.7592C45.248 9.85654 45.4438 9.99872 45.6023 10.1761C45.7608 10.3535 45.8783 10.562 45.947 10.7875C46.0156 11.013 46.0337 11.2501 46 11.483L43.4889 28.3189C43.3981 28.9306 43.0839 29.49 42.604 29.8944C42.1241 30.2989 41.5107 30.5215 40.876 30.5213Z" fill="#FFD550"/>
<path d="M13.7973 44.0854V49.2627C13.7973 49.9252 13.2454 50.4627 12.5651 50.4627H2.09878C1.77197 50.4627 1.45853 50.3363 1.22744 50.1112C0.996342 49.8862 0.866514 49.581 0.866514 49.2627V44.0854C0.866514 43.4229 1.41847 42.8853 2.09878 42.8853H12.5651C13.2454 42.8853 13.7973 43.4229 13.7973 44.0854Z" fill="#00CC6F"/>
<path d="M32.3319 44.0854V49.2627C32.3319 49.9252 31.78 50.4627 31.0996 50.4627H20.6334C20.3066 50.4627 19.9931 50.3363 19.762 50.1112C19.5309 49.8862 19.4011 49.581 19.4011 49.2627V44.0854C19.4011 43.4229 19.9531 42.8853 20.6334 42.8853H31.0996C31.78 42.8853 32.3319 43.4229 32.3319 44.0854Z" fill="#F95353"/>
<path d="M50.8665 44.0854V49.2627C50.8665 49.9252 50.3146 50.4627 49.6342 50.4627H39.168C38.8412 50.4627 38.5277 50.3363 38.2966 50.1112C38.0655 49.8862 37.9357 49.581 37.9357 49.2627V44.0854C37.9357 43.4229 38.4877 42.8853 39.168 42.8853H49.6342C50.3146 42.8853 50.8665 43.4229 50.8665 44.0854Z" fill="#178BFF"/>
</svg>
