<svg width="50.000244" height="50.000366" viewBox="0 0 50.0002 50.0004" fill="none" xmlns="http://www.w3.org/2000/svg" xmlns:xlink="http://www.w3.org/1999/xlink">
	<desc>
			Created with Pixso.
	</desc>
	<defs/>
	<path id="path" d="M23.25 0C38.37 0 50 9.99 50 24.84C50 39.68 38.37 49.99 23.25 49.99L6.26 49.99C5.42 50.03 4.61 49.9 3.82 49.61C3.03 49.32 2.34 48.89 1.74 48.32C1.15 47.74 0.7 47.08 0.4 46.32C0.09 45.57 -0.04 44.78 0 43.97L0 6.24C-0.04 5.42 0.08 4.63 0.38 3.86C0.68 3.09 1.13 2.4 1.72 1.81C2.31 1.22 3 0.77 3.79 0.45C4.58 0.13 5.41 -0.02 6.26 0L23.25 0Z" fill="#FF6900" fill-opacity="1.000000" fill-rule="nonzero"/>
	<path id="path" d="M40.65 19.45C40.57 20.07 39.83 20.07 39.51 19.52C38.45 17.81 37.07 17.49 34.88 17.34C33.25 17.26 31.3 17.41 29.51 17.41C29.27 17.44 29.13 17.34 29.1 17.1C29.43 15.62 30.73 12.88 32.11 12.65C32.76 12.57 34.23 12.42 35.04 12.42C38.78 12.42 40.81 16.56 40.65 19.45ZM19.51 33.58C22.29 34.29 25.1 34.55 27.97 34.37C31.75 34.12 35.24 33.03 38.45 31.08C37.23 34.05 32.6 35.93 28.21 36.4C28.21 36.63 28.13 36.79 28.13 37.02C30.97 36.91 33.62 36.18 36.1 34.83C35.28 37.72 31.22 38.9 27.48 39.13C27.39 39.35 27.28 39.55 27.15 39.75C29.01 39.78 30.82 39.55 32.6 39.05C30.89 42.1 23.58 44.21 17.4 41.4C18.7 38.94 19.41 36.34 19.51 33.58ZM39.92 12.81C38.48 11.5 36.77 10.88 34.79 10.93C32.36 10.93 30.32 11.56 27.32 11.63C25.28 11.71 23.41 7.42 20.98 6.87C19.92 4.6 17.48 4.29 16.02 5.46C14.64 4.68 12.52 5.07 12.44 6.56C10.9 6.09 8.86 6.87 9.76 8.9C5.94 8.98 5.29 12.26 7.81 12.57C4.48 14.37 6.02 17.49 8.78 16.87C9.27 21.55 11.47 27.65 7.89 29.13C7.48 29.29 5.86 29.68 2.77 28.98L0 28.27L0 30.69C2.69 31.32 5.37 31.79 7.08 31.63C11.79 31.16 12.03 27.41 11.79 24.13C11.55 20.85 10.41 17.18 10.82 14.52L10.65 14.37C8.95 16.09 7.81 15.62 7.65 15.07C7.4 13.98 9.43 12.57 10.57 12.1C10.57 12.03 10.65 11.95 10.65 11.87C9.6 12.03 8.3 11.87 8.21 11.17C8.13 10.31 10 9.45 12.44 9.68C12.52 9.68 12.52 9.6 12.6 9.6L12.12 9.37C11.47 9.06 11.3 8.51 11.55 8.2C11.94 7.78 12.43 7.6 13.01 7.65C13.78 7.66 14.51 7.81 15.21 8.12C15.29 8.12 15.29 8.04 15.37 8.04C15.21 7.89 14.96 7.73 14.88 7.57C14.67 7.29 14.7 7.03 14.96 6.79C15.69 6.45 16.34 6.55 16.91 7.1L17.32 7.49C17.41 7.51 17.49 7.48 17.56 7.42C17.41 7.26 17.33 7.08 17.32 6.87C17.18 6.54 17.29 6.34 17.64 6.24C18.05 6.18 18.38 6.31 18.62 6.64C18.83 6.95 19 7.29 19.11 7.65C17.07 7.74 15.42 8.55 14.15 10.07C12.75 12.06 12.43 14.19 13.17 16.48C13.76 18.88 14.55 21.22 15.53 23.51L15.53 23.59C17.48 28.98 21.22 42.25 3.09 49.28C4.04 49.72 5.05 49.96 6.1 49.99L7.97 49.99C11.16 48.44 13.84 46.31 16.02 43.58C24.31 47.1 31.87 45.3 35.12 39.52C37.28 38.21 38.5 36.34 38.78 33.9C40.06 32.4 40.47 30.71 40 28.82C39.92 28.51 39.59 28.51 39.1 28.74C32.36 32.65 26.42 33.27 19.35 31.24C19.16 29.11 18.84 27 18.38 24.91C18.21 22.18 19.11 20.85 24.31 22.49C27.72 23.35 29.27 24.84 30.49 25.62C31.06 26.01 31.79 26.48 32.19 26.16C32.44 26.01 32.52 25.54 32.52 24.99C32.37 23.26 31.88 21.62 31.06 20.07C32.6 19.99 34.14 19.99 35.69 20.07C36.88 20.13 37.67 20.7 38.05 21.79C38.62 23.35 41.79 22.96 42.03 21.63C42.52 18.9 42.68 15.31 39.92 12.81ZM3.82 36.24C2.55 36.16 1.28 36.16 0 36.24L0 37.88C2.2 37.41 3.58 37.18 3.58 37.18L3.82 36.24Z" fill="#000000" fill-opacity="1.000000" fill-rule="nonzero"/>
	<path id="path" d="M24.15 19.13C21.3 18.51 18.13 17.73 16.51 15.38C16.51 15.31 16.42 15.31 16.34 15.31C16.29 15.31 16.26 15.33 16.26 15.38C16.25 15.52 16.28 15.65 16.34 15.77L16.1 15.85C15.58 15.25 15.56 14.62 16.02 13.98C16.38 13.63 16.81 13.43 17.31 13.39C17.82 13.35 18.28 13.46 18.7 13.74L18.62 13.98C18.23 13.88 17.85 13.91 17.48 14.06C17.17 14.2 17.12 14.41 17.32 14.68C18.7 17.18 22.76 17.73 27.56 17.34C27.94 17.39 28.16 17.23 28.21 16.87C28.58 15.29 29.33 13.91 30.49 12.73C29.71 12.85 28.92 12.9 28.13 12.88C25.69 13.04 24.23 12.73 23.82 12.42L23.9 12.18C24.15 12.26 24.47 12.26 24.47 12.18C24.47 12.1 24.47 12.03 24.39 11.95C23.9 11.56 21.79 9.45 21.79 9.45C21.55 7.65 18.86 7.65 17.81 9.37L17.48 9.29C17.55 8.95 17.69 8.64 17.89 8.35C16.87 8.62 16.02 9.14 15.34 9.91C14.65 10.68 14.26 11.57 14.15 12.57C13.17 20.54 25.77 18.66 29.35 21.87C29.43 21.95 29.59 22.18 29.67 22.02C29.76 21.87 28.21 19.99 24.15 19.13ZM19.76 9.6C20.33 9.45 21.22 9.99 21.63 10.85C22.03 11.71 21.95 12.57 21.38 12.81C20.81 13.04 19.92 12.42 19.51 11.56C19.43 11.4 19.43 11.32 19.35 11.17L19.43 11.17C19.59 11.34 19.78 11.39 20 11.32C20.24 11.17 20.16 10.85 20 10.54C19.84 10.23 19.59 10.07 19.35 10.07L19.27 9.99C19.39 9.82 19.55 9.69 19.76 9.6ZM38.45 31.08C35.24 33.03 31.75 34.12 27.97 34.37C25.11 34.51 22.29 34.25 19.51 33.58C19.51 34.37 19.43 35.15 19.27 35.93C21.65 36.47 24.06 36.75 26.5 36.79C25.97 39.11 24.8 41.09 23.01 42.72C27.4 42.88 31.38 41.24 32.6 39.05C30.83 39.58 29.01 39.81 27.15 39.75C27.24 39.52 27.4 39.36 27.48 39.13C31.22 38.97 35.28 37.8 36.1 34.83C33.62 36.18 30.97 36.91 28.13 37.02C28.13 36.79 28.21 36.63 28.21 36.4C32.6 35.85 37.23 34.05 38.45 31.08Z" fill="#FFFFFF" fill-opacity="1.000000" fill-rule="nonzero"/>
</svg>
