<svg width="50.000000" height="50.000000" viewBox="0 0 50 50" fill="none" xmlns="http://www.w3.org/2000/svg" xmlns:xlink="http://www.w3.org/1999/xlink">
	<desc>
			Created with Pixso.
	</desc>
	<defs/>
	<g opacity="0.000000">
		<rect id="Прямоугольник 1" width="50.000000" height="50.000000" fill="#C4C4C4" fill-opacity="1.000000"/>
	</g>
	<path id="path" d="M42.85 39.35L7.11 39.35C5.38 39.35 4 37.89 4 36.1L4 3.25C4 1.46 5.38 0 7.11 0L42.85 0C44.58 0 46 1.46 46 3.25L46 36.1C46 37.89 44.58 39.35 42.85 39.35Z" fill="#3F7E9F" fill-opacity="1.000000" fill-rule="evenodd"/>
	<path id="path" d="M4.96 10.05L4.96 36.1C4.96 37.33 5.95 38.33 7.11 38.33L42.85 38.33C44.04 38.33 45 37.33 45 36.1L45 10.05L4.96 10.05Z" fill="#D6E3FF" fill-opacity="1.000000" fill-rule="evenodd"/>
	<path id="path" d="M4.96 10.05L4.96 10.49L45 10.49L45 10.05L4.96 10.05Z" fill="#B4C2DA" fill-opacity="1.000000" fill-rule="evenodd"/>
	<path id="path" d="M4 10.05L4 3.25C4 1.46 5.38 0 7.11 0L42.85 0C44.58 0 46 1.46 46 3.25L46 10.05L4 10.05Z" fill="#386F8C" fill-opacity="1.000000" fill-rule="evenodd"/>
	<path id="path" d="M24.5 0L25.49 0L25.49 10.05L24.5 10.05L24.5 0Z" fill="#528BA9" fill-opacity="1.000000" fill-rule="evenodd"/>
	<path id="path" d="M10.42 5.12L7.71 5.12C7.05 5.12 7.05 4.1 7.71 4.1L10.42 4.1C11.08 4.1 11.08 5.12 10.42 5.12Z" fill="#FFCC00" fill-opacity="1.000000" fill-rule="evenodd"/>
	<path id="path" d="M16.09 5.12L13.37 5.12C12.72 5.12 12.72 4.1 13.37 4.1L16.09 4.1C16.74 4.1 16.74 5.12 16.09 5.12Z" fill="#2DB181" fill-opacity="1.000000" fill-rule="evenodd"/>
	<path id="path" d="M21.75 5.12L19.03 5.12C18.38 5.12 18.38 4.1 19.03 4.1L21.75 4.1C22.4 4.1 22.4 5.12 21.75 5.12Z" fill="#FA3C48" fill-opacity="1.000000" fill-rule="evenodd"/>
	<path id="path" d="M42.68 8.08L27.81 8.08C27.1 8.08 26.51 7.47 26.51 6.74L26.51 3.31C26.51 2.57 27.1 1.99 27.81 1.99L42.68 1.99C43.39 1.99 43.96 2.57 43.96 3.31L43.96 6.74C43.96 7.47 43.39 8.08 42.68 8.08Z" fill="#2D5A72" fill-opacity="1.000000" fill-rule="evenodd"/>
	<path id="path" d="M41.01 5.53L29.48 5.53C28.83 5.53 28.83 4.51 29.48 4.51L41.01 4.51C41.66 4.51 41.66 5.53 41.01 5.53Z" fill="#528BA9" fill-opacity="1.000000" fill-rule="evenodd"/>
	<path id="path" d="M35.74 26.72C33.45 26.72 31.35 25.7 29.91 23.88L14.19 23.88L14.19 13.83L29.91 13.83C33 9.99 38.72 10.08 41.69 13.97C41.97 14.33 41.72 14.91 41.24 14.91L36.34 14.91C36 14.91 35.71 15.2 35.71 15.56L35.71 22.15C35.71 22.5 36 22.79 36.34 22.79L41.24 22.79C41.72 22.79 41.97 23.35 41.69 23.73C40.22 25.64 38.07 26.72 35.74 26.72Z" fill="#4A4153" fill-opacity="1.000000" fill-rule="evenodd"/>
	<path id="path" d="M28.27 19.42L16.57 19.42C15.8 19.42 15.8 18.25 16.57 18.25L28.27 18.25C29.03 18.25 29.03 19.42 28.27 19.42Z" fill="#D7D7D7" fill-opacity="1.000000" fill-rule="evenodd"/>
	<path id="path" d="M26.17 49.99C22.46 49.99 22.46 50.25 22.06 46.77C21.92 46.68 21.75 46.62 21.58 46.53C18.92 48.76 19.12 48.53 16.48 45.83C15.32 44.6 16.71 43.25 17.48 42.28C17.39 42.11 17.31 41.93 17.25 41.78C13.88 41.37 14.13 41.37 14.13 37.54C14.13 35.81 16.06 35.89 17.25 35.75C17.33 35.57 17.39 35.4 17.48 35.25C15.35 32.47 15.55 32.67 18.16 29.97C19.35 28.74 20.65 30.18 21.58 30.97C21.75 30.88 21.92 30.82 22.09 30.77C22.46 27.25 22.46 27.54 26.17 27.54C27.84 27.54 27.78 29.51 27.93 30.74C28.07 30.82 28.24 30.88 28.41 30.97C31.07 28.74 30.87 28.98 33.51 31.67C34.69 32.91 33.28 34.25 32.54 35.22C32.6 35.4 32.68 35.57 32.74 35.75C36.11 36.13 35.86 36.13 35.86 39.97C35.86 41.7 33.96 41.64 32.74 41.78C32.68 41.93 32.6 42.11 32.54 42.28C34.67 45.04 34.47 44.83 31.83 47.56C30.65 48.79 29.37 47.32 28.41 46.56C28.24 46.62 28.07 46.71 27.93 46.77C27.78 48.03 27.84 49.99 26.17 49.99Z" fill="#4182C8" fill-opacity="1.000000" fill-rule="evenodd"/>
	<path id="path" d="M24.98 44.31C22.04 44.31 19.63 41.81 19.63 38.77C19.63 35.69 22.04 33.2 24.98 33.2C27.95 33.2 30.36 35.69 30.36 38.77C30.36 41.81 27.95 44.31 24.98 44.31Z" fill="#3C6CBA" fill-opacity="1.000000" fill-rule="evenodd"/>
	<path id="path" d="M24.98 34.9C20.08 34.9 20.08 42.61 24.98 42.61C29.91 42.61 29.91 34.9 24.98 34.9Z" fill="#FEFEFE" fill-opacity="1.000000" fill-rule="evenodd"/>
	<path id="path" d="M13.06 13.83L11.42 13.83C9.63 13.83 8.19 15.32 8.19 17.2L8.19 20.51C8.19 22.38 9.63 23.88 11.42 23.88L14.19 23.88L14.19 13.83L13.06 13.83Z" fill="#D7D7D7" fill-opacity="1.000000" fill-rule="evenodd"/>
</svg>
