<svg width="50" height="50" viewBox="0 0 50 50" fill="none" xmlns="http://www.w3.org/2000/svg">
<path d="M48.8778 38.2C48.3791 41 46.2594 43.1333 43.6409 43.5333C39.5262 44.2 32.6683 45 24.9377 45C17.3317 45 10.4738 44.2 6.23441 43.5333C3.61596 43.1333 1.49626 41 0.997506 38.2C0.498753 35.1333 0 30.6 0 25C0 19.4 0.498753 14.8667 0.997506 11.8C1.49626 9 3.61596 6.86667 6.23441 6.46667C10.3491 5.8 17.207 5 24.9377 5C32.6683 5 39.4015 5.8 43.6409 6.46667C46.2594 6.86667 48.3791 9 48.8778 11.8C49.3766 14.8667 50 19.4 50 25C49.8753 30.6 49.3766 35.1333 48.8778 38.2Z" fill="#FF3D00"/>
<path d="M15 34H22.259V15H27.259V34H34.518L24.759 43.792L15 34Z" fill="white"/>
<path d="M24.925 27.7063C18.9801 27.7063 14.1438 22.8696 14.1438 16.925C14.1438 10.9804 18.9801 6.14375 24.925 6.14375C30.8699 6.14375 35.7063 10.9801 35.7063 16.925C35.7063 22.8699 30.8699 27.7063 24.925 27.7063Z" fill="white"/>
<path d="M24.925 6.2875C30.7906 6.2875 35.5625 11.0594 35.5625 16.925C35.5625 22.7906 30.7906 27.5625 24.925 27.5625C19.0594 27.5625 14.2875 22.7906 14.2875 16.925C14.2875 11.0594 19.0594 6.2875 24.925 6.2875ZM24.925 6C18.8912 6 14 10.8912 14 16.925C14 22.9588 18.8912 27.85 24.925 27.85C30.9588 27.85 35.85 22.9588 35.85 16.925C35.85 10.8912 30.9588 6 24.925 6Z" fill="#788B9C"/>
<path d="M29.0322 20.0668C28.2057 20.0668 27.5332 19.3943 27.5332 18.5678C27.5332 17.7412 28.2057 17.0688 29.0322 17.0688C30.0971 17.0688 30.5313 17.3445 30.5313 18.0204C30.5313 18.8285 29.8597 20.0668 29.0322 20.0668Z" fill="#FFEEA3"/>
<path d="M29.0322 17.2125C30.1607 17.2125 30.3875 17.5216 30.3875 18.0201C30.3875 18.8334 29.7173 19.9231 29.0322 19.9231C28.2847 19.9231 27.677 19.315 27.677 18.5678C27.6767 17.8206 28.2847 17.2125 29.0322 17.2125ZM29.0322 16.925C28.1249 16.925 27.3895 17.6604 27.3895 18.5678C27.3895 19.4751 28.1249 20.2106 29.0322 20.2106C29.9396 20.2106 30.675 18.9274 30.675 18.0201C30.675 17.1127 29.9393 16.925 29.0322 16.925Z" fill="#BA9B48"/>
<path d="M20.8178 20.0668C19.9904 20.0668 19.3188 18.8283 19.3188 18.0201C19.3188 17.3442 19.7532 17.0685 20.8178 17.0685C21.6443 17.0685 22.3168 17.7409 22.3168 18.5675C22.3168 19.3941 21.6443 20.0668 20.8178 20.0668Z" fill="#FFEEA3"/>
<path d="M20.8178 17.2125C21.5653 17.2125 22.1731 17.8206 22.1731 18.5678C22.1731 19.3153 21.565 19.9231 20.8178 19.9231C20.1324 19.9231 19.4625 18.8334 19.4625 18.0201C19.4625 17.5216 19.6891 17.2125 20.8178 17.2125ZM20.8178 16.925C19.9104 16.925 19.175 17.1127 19.175 18.0201C19.175 18.9274 19.9104 20.2106 20.8178 20.2106C21.7251 20.2106 22.4606 19.4751 22.4606 18.5678C22.4606 17.6604 21.7251 16.925 20.8178 16.925Z" fill="#BA9B48"/>
<path d="M24.925 24.8313C24.5389 24.8313 24.1663 24.6889 23.8759 24.4308L23.85 24.4075L23.8161 24.3989C21.8453 23.8931 20.4687 22.1201 20.4687 20.0875V14.7409C20.4687 13.6113 21.3876 12.6924 22.5172 12.6924H27.3328C28.4624 12.6924 29.3812 13.6113 29.3812 14.7409V20.0875C29.3812 22.1204 28.0047 23.8931 26.0339 24.3989L26 24.4075L25.9741 24.4308C25.6834 24.6889 25.3108 24.8313 24.925 24.8313Z" fill="#FFF7D1"/>
<path d="M27.3325 12.8359C28.3828 12.8359 29.2372 13.6903 29.2372 14.7406V20.0875C29.2372 22.0546 27.9052 23.7704 25.9977 24.2597L25.9301 24.277L25.8781 24.3232C25.6144 24.5581 25.2757 24.6875 24.925 24.6875C24.5742 24.6875 24.2356 24.5581 23.9716 24.3232L23.9196 24.277L23.852 24.2597C21.9445 23.7701 20.6125 22.0546 20.6125 20.0875V14.7409C20.6125 13.6906 21.4669 12.8362 22.5172 12.8362L27.3325 12.8359ZM27.3325 12.5484H22.5172C21.3065 12.5484 20.325 13.5299 20.325 14.7406V20.0875C20.325 22.2323 21.7947 24.0286 23.7805 24.538C24.0852 24.8088 24.4851 24.975 24.925 24.975C25.3649 24.975 25.7648 24.8091 26.0695 24.538C28.0553 24.0286 29.525 22.232 29.525 20.0875V14.7409C29.525 13.5299 28.5435 12.5484 27.3325 12.5484Z" fill="#BA9B48"/>
<path d="M29.3813 19.0813V16.925C29.3813 14.8806 27.321 14.3527 27.3 14.3476L27.2328 14.3312L27.1779 14.3737C27.1626 14.3855 25.6317 15.549 22.9988 15.549C21.9126 15.549 20.4688 15.7514 20.4688 17.5V19.0813H20.4167C20.2195 18.648 19.3188 16.5702 19.3188 14.8041C19.3188 11.6876 21.4563 9.59375 24.6375 9.59375C26.9479 9.59375 27.639 11.1638 27.6675 11.2308L27.7046 11.3185L27.8 11.3188C28.8143 11.3188 30.5313 12.0168 30.5313 14.6336C30.5313 16.2502 29.6219 18.5991 29.4284 19.0813H29.3813Z" fill="#FFC49C"/>
<path d="M24.6375 9.7375C26.8449 9.7375 27.5082 11.2239 27.5346 11.2857L27.6085 11.4625H27.8C28.0648 11.4625 30.3875 11.5516 30.3875 14.6336C30.3875 15.8521 29.8585 17.5037 29.525 18.4232V16.925C29.525 15.1997 28.0921 14.3933 27.3345 14.2078L27.1997 14.1754L27.0899 14.2599C27.0749 14.2714 25.5759 15.405 22.9988 15.405C22.3375 15.405 20.325 15.405 20.325 17.4997V18.4988C19.9938 17.6751 19.4625 16.1447 19.4625 14.8038C19.4625 11.7736 21.542 9.7375 24.6375 9.7375ZM24.6375 9.45C21.2916 9.45 19.175 11.7391 19.175 14.8041C19.175 16.8339 20.325 19.225 20.325 19.225H20.6125C20.6125 19.225 20.6125 18.0586 20.6125 17.5C20.6125 15.9659 21.7763 15.6928 22.9988 15.6928C25.7185 15.6928 27.2661 14.4873 27.2661 14.4873C27.2661 14.4873 29.2375 14.9694 29.2375 16.925C29.2375 17.5394 29.2375 19.225 29.2375 19.225H29.525C29.525 19.225 30.675 16.4837 30.675 14.6336C30.675 12.0361 29.021 11.175 27.8 11.175C27.8 11.175 27.0795 9.45 24.6375 9.45Z" fill="#A16A4A"/>
</svg>
