<svg width="50.000000" height="50.000000" viewBox="0 0 50 50" fill="none" xmlns="http://www.w3.org/2000/svg" xmlns:xlink="http://www.w3.org/1999/xlink">
	<desc>
			Created with Pixso.
	</desc>
	<defs/>
	<path id="svg_4" d="M49.95 24.93C49.95 23.27 49.78 21.63 49.46 20.01C48.46 15.25 46.27 11.13 42.88 7.64L42.59 7.33C41.35 6.11 40 5.03 38.54 4.09C36.05 2.45 33.34 1.31 30.42 0.67C28.68 0.25 26.91 0.03 25.12 0L24.83 0C19.96 0.03 15.49 1.37 11.4 4.02C9.95 4.96 8.6 6.04 7.36 7.26L7.06 7.58C5.87 8.79 4.82 10.12 3.91 11.55C2.24 14.2 1.09 17.05 0.49 20.12C0.16 21.74 0 23.38 0 25.04L0 25.64C0.03 27.26 0.22 28.85 0.55 30.43C1.25 33.49 2.47 36.32 4.22 38.93C5.08 40.2 6.05 41.39 7.13 42.48L7.73 43.06C8.82 44.11 9.99 45.05 11.25 45.88C13.95 47.67 16.9 48.88 20.08 49.5C21.56 49.79 23.05 49.96 24.56 50L25.43 50C26.94 49.96 28.43 49.79 29.91 49.5C33.08 48.88 36.02 47.67 38.72 45.88C39.99 45.05 41.17 44.11 42.25 43.06C42.47 42.88 42.67 42.69 42.86 42.48C43.94 41.39 44.91 40.2 45.77 38.93C47.51 36.31 48.76 33.39 49.44 30.32C49.77 28.74 49.96 27.14 50 25.53L49.95 24.93ZM45.63 27.48C45.18 31.48 43.69 35.05 41.16 38.19C40.81 37.97 40.49 37.72 40.2 37.43C39.37 36.58 38.84 35.46 38.62 34.3C38.4 33.13 38.52 32 38.98 30.91C39.44 29.82 40.17 28.94 41.16 28.29C42.15 27.64 43.24 27.31 44.42 27.32C44.83 27.33 45.24 27.38 45.63 27.48ZM24.99 38.39C22.98 35.75 20.31 34.43 17 34.43C16.56 34.41 16.12 34.41 15.68 34.43C15.71 33.99 15.71 33.55 15.68 33.11C15.68 29.8 14.36 27.15 11.72 25.15C14.36 23.14 15.68 20.48 15.68 17.17C15.71 16.73 15.71 16.29 15.68 15.85C16.12 15.88 16.56 15.88 17 15.85C20.31 15.85 22.98 14.53 24.99 11.89C26.99 14.54 29.65 15.86 32.97 15.85C33.4 15.88 33.84 15.88 34.27 15.85C34.25 16.29 34.25 16.73 34.27 17.17C34.28 20.48 35.6 23.14 38.23 25.15C35.6 27.15 34.28 29.81 34.27 33.11C34.25 33.55 34.25 33.99 34.27 34.43C33.84 34.41 33.4 34.41 32.97 34.43C29.65 34.42 26.99 35.74 24.99 38.39ZM9.82 37.43C9.53 37.72 9.21 37.97 8.86 38.19C6.32 35.05 4.83 31.48 4.38 27.48C4.84 27.37 5.3 27.31 5.77 27.32C6.75 27.32 7.67 27.55 8.54 28.01C9.4 28.47 10.11 29.11 10.66 29.92C11.21 30.73 11.54 31.62 11.64 32.6C11.74 33.57 11.61 34.52 11.25 35.43C10.96 36.13 10.53 36.77 10 37.32L9.82 37.43ZM4.22 22.96C4.64 18.91 6.14 15.3 8.7 12.14C9.12 12.38 9.51 12.68 9.86 13.03C10.99 14.17 11.66 15.65 11.65 17.26C11.65 18.04 11.5 18.79 11.19 19.51C10.89 20.23 10.47 20.87 9.91 21.42C9.36 21.97 8.72 22.39 8 22.69C7.28 22.99 6.53 23.14 5.74 23.14C5.23 23.14 4.72 23.09 4.22 22.96ZM38.29 17.26C38.31 15.65 38.88 14.28 40.02 13.14C40.37 12.79 40.75 12.38 41.18 12.14C43.74 15.3 45.23 18.91 45.66 22.96C45.18 23.08 44.69 23.14 44.2 23.14C43.42 23.13 42.68 22.98 41.96 22.68C41.24 22.38 40.61 21.95 40.06 21.4C39.51 20.85 39.09 20.22 38.79 19.5C38.49 18.78 38.3 18.03 38.29 17.26ZM38.09 8.94C37.85 9.38 37.55 9.78 37.2 10.15L37.06 10.15C36.22 10.98 35.21 11.5 34.04 11.72C32.88 11.94 31.75 11.82 30.66 11.36C29.57 10.9 28.69 10.17 28.04 9.18C27.38 8.19 27.06 7.11 27.06 5.92C27.06 5.37 27.13 4.84 27.29 4.31C31.34 4.79 34.95 6.34 38.09 8.94ZM22.66 4.47C22.82 4.99 22.9 5.53 22.9 6.08C22.9 6.95 22.72 7.79 22.34 8.59C21.97 9.38 21.44 10.06 20.77 10.62C20.09 11.18 19.33 11.57 18.48 11.79C17.62 12.01 16.77 12.03 15.91 11.87C14.74 11.65 13.73 11.13 12.88 10.3C12.52 9.94 12.1 9.54 11.85 9.1C15 6.49 18.6 4.95 22.66 4.47ZM12.03 41.3C12.24 40.96 12.49 40.65 12.77 40.38C13.62 39.55 14.74 38.92 15.9 38.7C17.07 38.48 18.2 38.6 19.29 39.06C20.38 39.52 21.26 40.25 21.92 41.23C22.57 42.22 22.9 43.31 22.9 44.49C22.89 44.91 22.85 45.32 22.77 45.72C18.76 45.3 15.18 43.83 12.03 41.3ZM27.18 45.77C27.1 45.36 27.07 44.95 27.06 44.54C27.05 43.66 27.23 42.81 27.59 42.01C27.96 41.21 28.48 40.52 29.15 39.95C29.83 39.38 30.59 38.98 31.45 38.76C32.3 38.53 33.16 38.5 34.03 38.67C35.2 38.88 36.21 39.41 37.06 40.24L37.2 40.36C37.47 40.64 37.71 40.95 37.91 41.27C34.77 43.82 31.19 45.34 27.18 45.77Z" fill="#FF5044" fill-opacity="1.000000" fill-rule="nonzero"/>
</svg>
