<svg width="50.117065" height="50.000000" viewBox="0 0 50.1171 50" fill="none" xmlns="http://www.w3.org/2000/svg" xmlns:xlink="http://www.w3.org/1999/xlink">
	<desc>
			Created with Pixso.
	</desc>
	<defs/>
	<path id="path" d="M27.16 17.33L15.79 17.33L12.24 10.46L30.72 10.46L36.1 0L5.56 0C3.45 -0.01 1.87 1.02 0.8 3.07C-0.27 5.12 -0.27 7.17 0.8 9.22L20.28 46.97C21.81 49.89 25.2 50.87 27.83 49.14C28.64 48.6 29.29 47.87 29.79 46.97L30.42 45.73L21.48 28.32L27.16 17.33Z" fill="#17D1C6" fill-opacity="1.000000" fill-rule="nonzero"/>
	<path id="path" d="M49.33 3.07C48.28 1.01 46.69 -0.02 44.58 0L43.25 0L28.62 28.32L34.01 38.79L49.33 9.15C50.37 7.12 50.37 5.1 49.33 3.07Z" fill="#17D1C6" fill-opacity="1.000000" fill-rule="nonzero"/>
</svg>
