<svg width="50.000000" height="50.000244" viewBox="0 0 50 50.0002" fill="none" xmlns="http://www.w3.org/2000/svg" xmlns:xlink="http://www.w3.org/1999/xlink">
	<desc>
			Created with Pixso.
	</desc>
	<defs/>
	<path id="polygon1021" d="M27.91 21.09L24.7 22.15L27.5 30.32L35.54 27.65L34.41 24.39L29.59 25.99L27.91 21.09Z" fill="#FFFFFF" fill-opacity="1.000000" fill-rule="nonzero"/>
	<path id="polygon1023" d="M22.46 15.62L25.67 14.56L23.99 9.66L28.81 8.06L27.68 4.79L19.65 7.46L22.46 15.62Z" fill="#FFFFFF" fill-opacity="1.000000" fill-rule="nonzero"/>
	<path id="polygon1025" d="M34.11 2.66L35.23 5.93L40.05 4.33L41.74 9.22L44.95 8.16L42.14 0L34.11 2.66Z" fill="#FFFFFF" fill-opacity="1.000000" fill-rule="nonzero"/>
	<path id="polygon1027" d="M45.66 20.65L40.84 22.25L41.96 25.52L50 22.85L47.19 14.69L43.98 15.75L45.66 20.65Z" fill="#FFFFFF" fill-opacity="1.000000" fill-rule="nonzero"/>
	<path id="path3902" d="M18.24 31.65C17.16 31.66 16.07 31.76 15 31.87C14.19 31.96 13.39 32.05 12.59 32.15C12.05 32.21 11.52 32.28 10.98 32.35C8.21 32.73 5.37 33.37 3.13 35C2.69 35.32 2.27 35.69 2.06 36.18C1.95 36.43 1.91 36.7 1.95 36.96C1.99 37.23 2.12 37.48 2.33 37.65C2.51 37.79 2.74 37.88 2.97 37.89C3.2 37.91 3.44 37.87 3.66 37.8C4.1 37.64 4.47 37.35 4.84 37.07C5.42 36.64 6.04 36.22 6.75 36.03C7.1 35.94 7.48 35.91 7.84 35.97C8.2 36.03 8.55 36.18 8.82 36.43C8.9 36.5 8.97 36.58 9.03 36.66C9.15 36.85 9.22 37.06 9.24 37.28C9.26 37.49 9.22 37.71 9.14 37.92C8.99 38.32 8.68 38.66 8.32 38.92C7.61 39.44 6.7 39.64 5.92 40.06C4.56 40.79 3.67 42.12 2.9 43.44C2.3 44.48 1.74 45.55 0.93 46.45C0.69 46.71 0.43 46.97 0.24 47.27C0.15 47.42 0.07 47.58 0.03 47.76C-0.01 47.93 -0.02 48.11 0.03 48.28C0.08 48.48 0.2 48.67 0.36 48.8C0.52 48.94 0.72 49.03 0.93 49.06C1.27 49.12 1.61 49.04 1.92 48.9C2.23 48.76 2.49 48.55 2.75 48.33C3.01 48.11 3.25 47.89 3.53 47.69C3.8 47.5 4.11 47.34 4.44 47.28C4.92 47.19 5.44 47.33 5.81 47.63C6.18 47.94 6.39 48.42 6.38 48.89C6.91 49.59 7.8 50.01 8.69 49.99C9.58 49.97 10.45 49.51 10.95 48.79C11.3 48.29 11.47 47.68 11.89 47.23C12.18 46.92 12.56 46.72 12.96 46.58C13.36 46.45 13.78 46.38 14.19 46.31C16.2 45.99 18.32 45.74 20.23 46.41C20.9 46.65 21.54 47 22.24 47.15C22.59 47.22 22.96 47.23 23.31 47.15C23.66 47.07 23.99 46.89 24.21 46.62C24.48 46.28 24.57 45.82 24.52 45.39C24.47 44.97 24.3 44.56 24.1 44.17C23.69 43.34 23.15 42.56 22.95 41.66C22.81 41 22.86 40.31 23.02 39.65C23.26 38.67 23.72 37.76 24.06 36.81C24.4 35.86 24.6 34.81 24.31 33.84C24.25 33.62 24.14 33.42 24 33.23L23.48 32.52C22.15 32.04 20.74 31.75 19.32 31.67C18.96 31.65 18.6 31.64 18.24 31.65ZM19.29 34.03C20.12 34.01 20.83 34.15 21.42 34.92C21.99 35.64 20.03 36.69 19.3 37.25C17.92 38.31 15.79 37.54 14.88 36.05C14.4 35.26 16.79 34.15 17.68 34.12C18.26 34.11 18.8 34.04 19.29 34.03Z" fill="#FFFFFF" fill-opacity="1.000000" fill-rule="nonzero"/>
	<path id="path3902" d="M15 31.87C14.19 31.96 13.39 32.05 12.59 32.15C12.05 32.21 11.52 32.28 10.98 32.35C8.21 32.73 5.37 33.37 3.13 35C2.69 35.32 2.27 35.69 2.06 36.18C1.95 36.43 1.91 36.7 1.95 36.96C1.99 37.23 2.12 37.48 2.33 37.65C2.51 37.79 2.74 37.88 2.97 37.89C3.2 37.91 3.44 37.87 3.66 37.8C4.1 37.64 4.47 37.35 4.84 37.07C5.42 36.64 6.04 36.22 6.75 36.03C7.1 35.94 7.48 35.91 7.84 35.97C8.2 36.03 8.55 36.18 8.82 36.43C8.9 36.5 8.97 36.58 9.03 36.66C9.15 36.85 9.22 37.06 9.24 37.28C9.26 37.49 9.22 37.71 9.14 37.92C8.99 38.32 8.68 38.66 8.32 38.92C7.61 39.44 6.7 39.64 5.92 40.06C4.56 40.79 3.67 42.12 2.9 43.44C2.3 44.48 1.74 45.55 0.93 46.45C0.69 46.71 0.43 46.97 0.24 47.27C0.15 47.42 0.07 47.58 0.03 47.76C-0.01 47.93 -0.02 48.11 0.03 48.28C0.08 48.48 0.2 48.67 0.36 48.8C0.52 48.94 0.72 49.03 0.93 49.06C1.27 49.12 1.61 49.04 1.92 48.9C2.23 48.76 2.49 48.55 2.75 48.33C3.01 48.11 3.25 47.89 3.53 47.69C3.8 47.5 4.11 47.34 4.44 47.28C4.92 47.19 5.44 47.33 5.81 47.63C6.18 47.94 6.39 48.42 6.38 48.89C6.91 49.59 7.8 50.01 8.69 49.99C9.58 49.97 10.45 49.51 10.95 48.79C11.3 48.29 11.47 47.68 11.89 47.23C12.18 46.92 12.56 46.72 12.96 46.58C13.36 46.45 13.78 46.38 14.19 46.31C16.2 45.99 18.32 45.74 20.23 46.41C20.9 46.65 21.54 47 22.24 47.15C22.59 47.22 22.96 47.23 23.31 47.15C23.66 47.07 23.99 46.89 24.21 46.62C24.48 46.28 24.57 45.82 24.52 45.39C24.47 44.97 24.3 44.56 24.1 44.17C23.69 43.34 23.15 42.56 22.95 41.66C22.81 41 22.86 40.31 23.02 39.65C23.26 38.67 23.72 37.76 24.06 36.81C24.4 35.86 24.6 34.81 24.31 33.84C24.25 33.62 24.14 33.42 24 33.23L23.48 32.52C22.15 32.04 20.74 31.75 19.32 31.67C18.96 31.65 18.6 31.64 18.24 31.65C17.16 31.66 16.07 31.76 15 31.87ZM21.42 34.92C21.99 35.64 20.03 36.69 19.3 37.25C17.92 38.31 15.79 37.54 14.88 36.05C14.4 35.26 16.79 34.15 17.68 34.12C18.26 34.11 18.8 34.04 19.29 34.03C20.12 34.01 20.83 34.15 21.42 34.92Z" stroke="#000000" stroke-opacity="0" stroke-width="0.490640"/>
</svg>
