<svg width="50.000000" height="50.000000" viewBox="0 0 50 50" fill="none" xmlns="http://www.w3.org/2000/svg" xmlns:xlink="http://www.w3.org/1999/xlink">
	<desc>
			Created with Pixso.
	</desc>
	<defs/>
	<path id="path" d="M25 0C11.18 0 0 11.46 0 25.63C0 36.97 7.15 46.55 17.09 49.94C18.34 50.17 18.81 49.4 18.81 48.73C18.81 48.12 18.78 46.1 18.78 43.95C12.5 45.14 10.87 42.38 10.37 40.94C10.09 40.21 8.87 37.93 7.81 37.32C6.93 36.84 5.68 35.65 7.78 35.62C9.75 35.59 11.15 37.48 11.62 38.25C13.87 42.13 17.46 41.04 18.9 40.36C19.12 38.7 19.78 37.58 20.5 36.94C14.93 36.3 9.12 34.09 9.12 24.28C9.12 21.49 10.09 19.19 11.68 17.39C11.43 16.75 10.56 14.12 11.93 10.6C11.93 10.6 14.03 9.93 18.81 13.23C20.81 12.65 22.93 12.36 25.06 12.36C27.18 12.36 29.31 12.65 31.31 13.23C36.09 9.9 38.18 10.6 38.18 10.6C39.56 14.12 38.68 16.75 38.43 17.39C40.03 19.19 41 21.46 41 24.28C41 34.12 35.15 36.29 29.59 36.94C30.5 37.74 31.28 39.28 31.28 41.68C31.28 45.11 31.25 47.86 31.25 48.73C31.25 49.4 31.71 50.2 32.96 49.95C42.84 46.55 50 36.94 50 25.63C50 11.46 38.81 0 25 0Z" fill="#FFFFFF" fill-opacity="1.000000" fill-rule="nonzero"/>
</svg>
