<svg width="50" height="50" viewBox="0 0 50 50" fill="none" xmlns="http://www.w3.org/2000/svg">
<path d="M48.8778 38.2C48.3791 41 46.2594 43.1333 43.6409 43.5333C39.5262 44.2 32.6683 45 24.9377 45C17.3317 45 10.4738 44.2 6.23441 43.5333C3.61596 43.1333 1.49626 41 0.997506 38.2C0.498753 35.1333 0 30.6 0 25C0 19.4 0.498753 14.8667 0.997506 11.8C1.49626 9 3.61596 6.86667 6.23441 6.46667C10.3491 5.8 17.207 5 24.9377 5C32.6683 5 39.4015 5.8 43.6409 6.46667C46.2594 6.86667 48.3791 9 48.8778 11.8C49.3766 14.8667 50 19.4 50 25C49.8753 30.6 49.3766 35.1333 48.8778 38.2Z" fill="#FF3D00"/>
<path d="M19.9501 34.3333V15.6667L34.9127 25L19.9501 34.3333Z" fill="white"/>
</svg>
