<svg width="50.000000" height="50.000000" viewBox="0 0 50 50" fill="none" xmlns="http://www.w3.org/2000/svg" xmlns:xlink="http://www.w3.org/1999/xlink">
	<desc>
			Created with Pixso.
	</desc>
	<defs/>
	<path id="path" d="M38.15 11.84L26.31 10.52L11.84 11.84L10.52 25L11.84 38.15L25 39.8L38.15 38.15L39.47 24.67L38.15 11.84Z" fill="#FFFFFF" fill-opacity="1.000000" fill-rule="nonzero"/>
	<path id="path" d="M17.24 32.25C16.25 31.59 15.57 30.62 15.2 29.33L17.48 28.39C17.69 29.18 18.05 29.79 18.57 30.23C19.08 30.66 19.71 30.88 20.44 30.88C21.18 30.88 21.82 30.65 22.36 30.2C22.9 29.74 23.17 29.16 23.17 28.46C23.17 27.74 22.88 27.16 22.32 26.71C21.75 26.25 21.04 26.02 20.19 26.02L18.87 26.02L18.87 23.76L20.06 23.76C20.79 23.76 21.4 23.57 21.9 23.17C22.4 22.78 22.65 22.24 22.65 21.55C22.65 20.94 22.43 20.45 21.98 20.09C21.53 19.72 20.97 19.54 20.28 19.54C19.61 19.54 19.08 19.72 18.68 20.07C18.29 20.43 18 20.87 17.82 21.39L15.56 20.45C15.86 19.6 16.41 18.85 17.22 18.21C18.02 17.56 19.05 17.23 20.3 17.23C21.23 17.23 22.06 17.41 22.79 17.77C23.53 18.13 24.11 18.62 24.53 19.25C24.95 19.89 25.15 20.6 25.15 21.39C25.15 22.2 24.96 22.88 24.57 23.44C24.18 23.99 23.71 24.42 23.14 24.72L23.14 24.86C23.89 25.17 24.5 25.65 24.98 26.29C25.45 26.93 25.69 27.7 25.69 28.59C25.69 29.49 25.47 30.28 25.01 30.99C24.56 31.69 23.93 32.24 23.13 32.64C22.33 33.04 21.44 33.24 20.44 33.24C19.28 33.25 18.22 32.92 17.24 32.25Z" fill="#1A73E8" fill-opacity="1.000000" fill-rule="nonzero"/>
	<path id="path" d="M31.25 20.92L28.75 22.74L27.5 20.83L32 17.59L33.72 17.59L33.72 32.89L31.25 32.89L31.25 20.92Z" fill="#1A73E8" fill-opacity="1.000000" fill-rule="nonzero"/>
	<path id="path" d="M38.15 50L50 38.15L44.07 35.52L38.15 38.15L35.52 44.07L38.15 50Z" fill="#EA4335" fill-opacity="1.000000" fill-rule="nonzero"/>
	<path id="path" d="M9.21 44.07L11.84 50L38.15 50L38.15 38.15L11.84 38.15L9.21 44.07Z" fill="#34A853" fill-opacity="1.000000" fill-rule="nonzero"/>
	<path id="path" d="M3.94 0C1.76 0 0 1.76 0 3.94L0 38.15L5.92 40.78L11.84 38.15L11.84 11.84L38.15 11.84L40.78 5.92L38.15 0L3.94 0Z" fill="#4285F4" fill-opacity="1.000000" fill-rule="nonzero"/>
	<path id="path" d="M0 38.15L0 46.05C0 48.23 1.76 50 3.94 50L11.84 50L11.84 38.15L0 38.15Z" fill="#188038" fill-opacity="1.000000" fill-rule="nonzero"/>
	<path id="path" d="M38.15 11.84L38.15 38.15L50 38.15L50 11.84L44.07 9.21L38.15 11.84Z" fill="#FBBC04" fill-opacity="1.000000" fill-rule="nonzero"/>
	<path id="path" d="M50 11.84L50 3.94C50 1.76 48.23 0 46.05 0L38.15 0L38.15 11.84L50 11.84Z" fill="#1967D2" fill-opacity="1.000000" fill-rule="nonzero"/>
</svg>
