<svg width="50.000000" height="50.000000" viewBox="0 0 50 50" fill="none" xmlns="http://www.w3.org/2000/svg" xmlns:xlink="http://www.w3.org/1999/xlink">
	<desc>
			Created with Pixso.
	</desc>
	<defs/>
	<ellipse id="circle" cx="25.012878" cy="24.987061" rx="24.987101" ry="24.987099" fill="#1A73E8" fill-opacity="1.000000"/>
	<path id="path" d="M34.1 35.78L17.07 35.78C14.65 35.78 12.54 33.95 12.54 31.53L12.54 31.5L12.54 32.92C12.54 35.34 14.65 37.45 17.07 37.45L34.1 37.45C36.55 37.45 38.63 35.31 38.63 32.92L38.63 31.5C38.63 33.92 36.52 35.78 34.1 35.78ZM12.51 23.57L12.51 21.63L9.35 16.4C9.17 16.12 9.09 15.86 9.11 15.61L9.11 17.82C9.11 18.03 9.19 18.23 9.32 18.46L12.51 23.57Z" fill="#185ABC" fill-opacity="1.000000" fill-rule="nonzero"/>
	<path id="path" d="M34.1 14.76L10.25 14.76C9.29 14.76 8.75 15.58 9.4 16.46L12.51 21.87L12.51 31.53C12.51 34 14.32 36.06 16.76 36.06L34.08 36.06C36.52 36.06 38.61 33.97 38.61 31.53L38.61 19.32C38.63 16.84 36.55 14.76 34.1 14.76Z" fill="#FFFFFF" fill-opacity="1.000000" fill-rule="nonzero"/>
	<path id="path" d="M33.82 21.58L17.36 21.58C16.64 21.58 15.94 21.14 15.94 20.45C15.94 19.75 16.64 19.31 17.36 19.31L33.82 19.31C34.54 19.31 35.23 19.75 35.23 20.45C35.23 21.14 34.54 21.58 33.82 21.58ZM33.82 26.12L17.36 26.12C16.64 26.12 15.94 25.68 15.94 24.98C15.94 24.29 16.64 23.85 17.36 23.85L33.82 23.85C34.54 23.85 35.23 24.29 35.23 24.98C35.23 25.68 34.54 26.12 33.82 26.12ZM29.26 30.68L17.33 30.68C16.61 30.68 15.91 30.24 15.91 29.54C15.91 28.85 16.61 28.41 17.33 28.41L29.26 28.41C29.98 28.41 30.68 28.85 30.68 29.54C30.68 30.24 29.98 30.68 29.26 30.68Z" fill="#8AB4F8" fill-opacity="1.000000" fill-rule="nonzero"/>
	<path id="path" d="M50 24.85C49.94 35.8 42.81 45.1 32.97 48.4C30.47 49.25 27.79 49.69 25.01 49.69C11.25 49.69 0.1 38.58 0.02 24.85L0.02 25.01C0.02 38.82 11.2 50 25.01 50C27.79 50 30.47 49.53 32.97 48.71C42.86 45.38 50 36.03 50 25.01L50 24.85Z" fill="#185ABC" fill-opacity="1.000000" fill-rule="nonzero"/>
	<path id="path" d="M32.94 1.28C30.44 0.43 27.76 0 24.98 0C11.17 0 0 11.17 0 24.98L0 25.14C0.07 11.41 11.23 0.3 24.98 0.3C27.76 0.3 30.44 0.77 32.94 1.59C42.81 4.89 49.92 14.19 49.97 25.14L49.97 24.98C50 13.96 42.86 4.61 32.94 1.28Z" fill="#8AB4F8" fill-opacity="1.000000" fill-rule="nonzero"/>
</svg>
