<svg width="50.000000" height="50.000000" viewBox="0 0 50 50" fill="none" xmlns="http://www.w3.org/2000/svg" xmlns:xlink="http://www.w3.org/1999/xlink">
	<desc>
			Created with Pixso.
	</desc>
	<defs>
		<linearGradient x1="25.591646" y1="5.999995" x2="25.591646" y2="44.571171" id="paint_linear_102_12_0" gradientUnits="userSpaceOnUse">
			<stop stop-color="#0066B3"/>
			<stop offset="0.354167" stop-color="#0066B3"/>
			<stop offset="0.687500" stop-color="#EE2F53"/>
			<stop offset="1.000000" stop-color="#EE2F53"/>
		</linearGradient>
	</defs>
	<rect id="Прямоугольник 21" width="50.000000" height="50.000000" fill="#FFFFFF" fill-opacity="1.000000"/>
	<path id="path" d="M42.65 18.79C42.5 16.8 40.98 14.25 39.46 13.03C37.75 11.78 35.97 10.62 34.14 9.56C32.32 8.48 30.44 7.49 28.51 6.61C27.49 6.19 26.38 5.98 25.27 6C24.16 5.97 23.06 6.18 22.03 6.61C20.1 7.49 18.23 8.48 16.41 9.56C13.47 11.35 11.09 13.03 11.09 13.03C9.82 14.1 8.87 15.47 8.31 17.01C8.2 17.28 8.41 17.57 8.71 17.57L11.14 17.57C11.46 17.57 11.76 17.38 11.93 17.11C12.36 16.41 12.91 15.77 13.55 15.24C13.55 15.24 15.52 13.86 17.94 12.39C19.45 11.5 21 10.69 22.59 9.97C23.43 9.62 24.35 9.45 25.26 9.47C26.18 9.45 27.09 9.62 27.94 9.97C29.53 10.69 31.08 11.5 32.58 12.39C34.1 13.26 35.57 14.21 36.98 15.24C38.23 16.24 39.49 18.33 39.61 19.96C39.61 19.96 39.9 22.38 39.95 25.25C39.94 27.03 39.85 28.8 39.65 30.56C39.36 32.41 38.41 34.08 36.98 35.28C36.98 35.28 35.01 36.71 32.58 38.17C31.08 39.06 29.53 39.87 27.94 40.59C27.09 40.94 26.18 41.11 25.26 41.09C24.35 41.11 23.44 40.95 22.59 40.6C21 39.88 19.45 39.07 17.94 38.18C15.52 36.76 13.55 35.3 13.55 35.3C12.99 34.85 12.43 34.19 11.97 33.44C11.8 33.17 11.51 32.99 11.19 32.99L8.72 32.99C8.42 32.99 8.21 33.28 8.32 33.56C8.93 35.09 10.01 36.63 11.09 37.5C11.09 37.5 13.47 39.28 16.41 41.01C18.23 42.1 20.1 43.08 22.03 43.97C23.06 44.38 24.16 44.59 25.27 44.56C26.38 44.59 27.49 44.38 28.51 43.95C30.44 43.07 32.32 42.08 34.14 41C37.08 39.21 39.46 37.48 39.46 37.48C41.19 36.02 42.35 33.97 42.7 31.72C42.93 29.57 43.05 27.41 43.05 25.25C43 21.75 42.65 18.79 42.65 18.79Z" fill="url(#paint_linear_102_12_0)" fill-opacity="1.000000" fill-rule="nonzero"/>
	<path id="path" d="M8 21.04C8 20.61 8.34 20.27 8.77 20.27L20.72 20.27C21.15 20.27 21.5 20.61 21.5 21.04L21.5 23.35C21.5 23.78 21.15 24.12 20.72 24.12L8 24.12L8 21.04Z" fill="#0066B3" fill-opacity="1.000000" fill-rule="nonzero"/>
	<path id="path" d="M8 26.44L32.3 26.44C32.72 26.44 33.07 26.78 33.07 27.21L33.07 29.52C33.07 29.95 32.72 30.29 32.3 30.29L8.77 30.29C8.34 30.29 8 29.95 8 29.52L8 26.44Z" fill="#EE2F53" fill-opacity="1.000000" fill-rule="nonzero"/>
</svg>
