<svg width="50" height="50" viewBox="0 0 50 50" fill="none" xmlns="http://www.w3.org/2000/svg">
<path d="M42 28.2083L39.7333 29.4849L42 30.7726V47.4356L37.4667 50L21.6 38.266V35.302L19.3333 36.5897L8 28.2083V16.663L10.2667 15.3863L8 14.0986V2.56439L12.5333 0L23.8667 4.4405V6.60524L26.1333 5.3286L42 11.5453V28.2083Z" fill="#66E1FF"/>
<path d="M42 11.5408L26.1333 5.32526L21.6 7.88853L37.4667 14.1041L42 11.5408Z" fill="#5CCAE6"/>
<path d="M23.8644 4.43827L12.5333 0.00332642L8.00222 2.56549L19.3333 7.00044L23.8644 4.43827Z" fill="#5CCAE6"/>
<path d="M37.4667 14.1041V30.7682L41.9966 28.206L42 11.5408L37.4667 14.1041Z" fill="#479DB3"/>
<path d="M37.4667 33.3326L37.4644 49.9978L41.9943 47.4356L41.9977 30.7704L37.4667 33.3326Z" fill="#479DB3"/>
<path d="M8.00222 16.6663L10.2723 15.3863L19.331 20.5173L21.5977 19.2329L21.5954 21.7973L19.331 23.0806L8.00222 16.6663Z" fill="#5CCAE6"/>
<path d="M21.5955 24.3605L23.8655 23.0806L37.4667 30.7682L39.7333 29.4849L41.9977 30.7704L37.4667 33.3326L21.5955 24.3605Z" fill="#5CCAE6"/>
<path d="M23.8644 4.43826L23.8667 6.60523L21.6 7.88853L21.5977 19.2329L19.3311 20.5173L19.3333 7.00043L23.8644 4.43826Z" fill="#479DB3"/>
<path d="M19.3311 23.0806L21.5955 21.7973L23.8655 23.0806L21.5955 24.3606L21.5977 35.302L19.3333 36.5853L19.3311 23.0806Z" fill="#479DB3"/>
</svg>
