<svg width="50" height="50" viewBox="0 0 50 50" fill="none" xmlns="http://www.w3.org/2000/svg">
  <desc>Created with Pixso.</desc>
  <defs/>
  <path d="M16.34 50L11.95 50C10.68 50 9.67 48.88 9.76 47.57L12.76 2.11C12.84 0.92 13.8 0 14.95 0L19.34 0C20.61 0 21.62 1.11 21.54 2.42L18.54 47.88C18.46 49.07 17.5 50 16.34 50Z" fill="#0077FF"/>
  <path d="M0.01 37.21L0.56 32.67C0.7 31.53 1.64 30.68 2.74 30.68L46.7 30.68C48.02 30.68 49.04 31.87 48.88 33.23L48.33 37.78C48.19 38.91 47.25 39.77 46.14 39.77L2.19 39.77C0.87 39.77 -0.15 38.57 0.01 37.21Z" fill="#0077FF"/>
  <path d="M36.14 50L31.75 50C30.47 50 29.47 48.88 29.55 47.57L32.55 2.11C32.63 0.92 33.59 0 34.75 0L39.13 0C40.41 0 41.42 1.11 41.33 2.42L38.33 47.88C38.25 49.07 37.29 50 36.14 50Z" fill="#0077FF"/>
  <path d="M1.11 16.76L1.66 12.21C1.8 11.08 2.73 10.22 3.84 10.22L47.8 10.22C49.12 10.22 50.14 11.42 49.98 12.78L49.43 17.32C49.29 18.46 48.35 19.31 47.24 19.31L3.29 19.31C1.97 19.31 0.95 18.12 1.11 16.76Z" fill="#0077FF"/>
  
  <g id="vk">
    <path d="M27.17 35.81C15.77 35.81 9.27 28 9 15L14.71 15C14.9 24.55 19.11 28.59 22.43 29.41L22.43 15L27.81 15L27.81 23.22C31.11 22.87 34.56 19.12 35.73 15L41.11 15C40.18 19.51 37.73 22.97 33.79 25.37C38.21 27.57 41.06 31.05 42.36 35.81L36.43 35.81C35.88 33.81 34.81 32.14 33.25 30.8C31.68 29.43 29.87 28.63 27.81 28.37L27.81 35.81L27.17 35.81Z" fill="#FFFFFF"/>
    <animateTransform 
      attributeName="transform" 
      type="translate" 
      values="-2;2;-2" 
      dur="2s" 
      repeatCount="indefinite" 
      keyTimes="0;0.5;1"
      calcMode="spline" 
      keySplines="0.42 0 0.58 1; 0.42 0 0.58 1"/>
  </g>
</svg>
