<svg width="50" height="50" viewBox="0 0 50 50" fill="none" xmlns="http://www.w3.org/2000/svg">
<g clip-path="url(#clip0_163_11)">
<path
d="M16.3477 50H11.9591C10.6857 50 9.67849 48.8852 9.76536 47.5727L12.764 2.11818C12.8421 0.926137 13.8021 0 14.9577 0H19.3463C20.6197 0 21.6269 1.11477 21.5401 2.42727L18.5414 47.8818C18.4633 49.0739 17.5034 50 16.3477 50Z"
fill="#24A0DB"
/>
<path
d="M0.0172567 37.2182L0.567065 32.6727C0.704517 31.5352 1.64029 30.6818 2.7498 30.6818H46.7004C48.0232 30.6818 49.047 31.8795 48.8831 33.2364L48.3333 37.7818C48.1948 38.9193 47.259 39.7727 46.1495 39.7727H2.2C0.877157 39.7727 -0.146586 38.575 0.0172567 37.2182Z"
fill="#24A0DB"
/>
<path
d="M36.1408 50H31.7522C30.4788 50 29.4716 48.8852 29.5584 47.5727L32.5571 2.11818C32.6352 0.926137 33.5951 0 34.7508 0H39.1394C40.4128 0 41.42 1.11477 41.3331 2.42727L38.3345 47.8818C38.2564 49.0739 37.2965 50 36.1408 50Z"
fill="#24A0DB"
/>
<path
d="M1.11687 16.7636L1.66667 12.2182C1.80413 11.0807 2.7399 10.2273 3.84941 10.2273H47.8C49.1228 10.2273 50.1466 11.425 49.9827 12.7818L49.4329 17.3273C49.2944 18.4648 48.3586 19.3182 47.2491 19.3182H3.29961C1.97677 19.3182 0.953023 18.1205 1.11687 16.7636Z"
fill="#24A0DB"
/>

<g class="plane">
<path
fill-rule="evenodd"
clip-rule="evenodd"
d="M11.3 24.72C18.58 21.56 23.43 19.46 25.87 18.44C32.8 15.54 34.26 15.05 35.19 15.02C35.4 15.02 35.86 15.07 36.17 15.32C36.42 15.52 36.49 15.79 36.53 16C36.57 16.21 36.61 16.65 36.57 16.98C36.19 20.94 34.57 30.53 33.74 34.95C33.38 36.82 32.7 37.44 32.03 37.51C30.57 37.63 29.47 36.55 28.08 35.63C25.87 34.2 24.64 33.3 22.5 31.89C20.02 30.26 21.62 29.37 23.04 27.91C23.41 27.53 29.8 21.71 29.93 21.19C29.95 21.12 29.95 20.87 29.8 20.75C29.66 20.62 29.45 20.67 29.28 20.71C29.05 20.75 25.56 23.08 18.75 27.68C17.75 28.37 16.86 28.7 16.04 28.68C15.15 28.66 13.44 28.18 12.15 27.76C10.59 27.26 9.34 26.99 9.45 26.12C9.51 25.66 10.13 25.2 11.3 24.72Z"
fill="white"
>
<!-- Анимация движения вправо-влево -->
<animateTransform attributeName="transform" type="translate" values="2,0; -2,0; 2,0" dur="2s" repeatCount="indefinite" />

<!-- Анимация плавного подъема и опускания -->
<animateTransform attributeName="transform" type="translate" additive="sum" values="0,2; 0,-2; 0,2" dur="2s" repeatCount="indefinite" />
</path>
</g>
</g>
<defs>
<clipPath id="clip0_163_11">
<rect width="50" height="50" fill="white" />
</clipPath>
</defs>
</svg>