<svg width="50.000000" height="50.000000" viewBox="0 0 50 50" fill="none" xmlns="http://www.w3.org/2000/svg" xmlns:xlink="http://www.w3.org/1999/xlink">
	<desc>
			Created with Pixso.
	</desc>
	<defs/>
	<g opacity="0.000000">
		<rect id="Прямоугольник 66" width="50.000000" height="50.000000" fill="#C4C4C4" fill-opacity="1.000000"/>
	</g>
	<path id="path" d="M24.19 13.73L12.44 7L0.76 13.73L0 21.47L12.52 28.65L24.95 21.47L24.19 13.73Z" fill="#E3E3E3" fill-opacity="1.000000" fill-rule="nonzero"/>
	<path id="path" d="M24.19 13.73L12.51 20.46L0.76 13.73L12.44 7L24.19 13.73Z" fill="#FFFFFF" fill-opacity="1.000000" fill-rule="nonzero"/>
	<path id="path" d="M0.76 13.73L0 21.47L12.52 28.65L12.52 20.46L0.76 13.73Z" fill="#E3E3E3" fill-opacity="1.000000" fill-rule="nonzero"/>
	<path id="path" d="M24.19 13.73L24.95 21.47L12.52 28.65L12.52 20.46L24.19 13.73Z" fill="#E3E3E3" fill-opacity="1.000000" fill-rule="nonzero"/>
	<path id="path" d="M11.22 13.3L14.66 12.42L13.11 14.38L11.22 13.3ZM16.11 12.05L15.31 11.59L7.24 13.59L8.21 14.15L10.38 13.59L12.62 14.87L11.67 16.13L12.63 16.68L16.11 12.05Z" fill="#000000" fill-opacity="1.000000" fill-rule="nonzero"/>
	<path id="path" d="M49.15 13.73L37.4 7L25.72 13.73L24.95 21.47L37.47 28.65L49.91 21.47L49.15 13.73Z" fill="#E3E3E3" fill-opacity="1.000000" fill-rule="nonzero"/>
	<path id="path" d="M49.15 13.73L37.47 20.46L25.72 13.73L37.4 7L49.15 13.73Z" fill="#FFFFFF" fill-opacity="1.000000" fill-rule="nonzero"/>
	<path id="path" d="M25.72 13.73L24.95 21.47L37.47 28.65L37.47 20.46L25.72 13.73Z" fill="#E3E3E3" fill-opacity="1.000000" fill-rule="nonzero"/>
	<path id="path" d="M49.15 13.73L49.91 21.47L37.47 28.65L37.47 20.46L49.15 13.73Z" fill="#E3E3E3" fill-opacity="1.000000" fill-rule="nonzero"/>
	<path id="path" d="M44 14.87L42.99 14.29L36.48 15.97L37.74 14.26L41.29 13.34L40.43 12.85L37.76 13.57L39 12.03L38.14 11.54L36.57 13.59L33.58 14.31L36.48 10.56L35.48 9.99L32.11 14.68L32.9 15.13L36.56 14.27L35.06 16.37L35.84 16.82L44 14.87Z" fill="#000000" fill-opacity="1.000000" fill-rule="nonzero"/>
	<path id="path" d="M36.71 20.9L24.96 14.17L13.28 20.9L12.51 28.65L25.04 35.82L37.47 28.65L36.71 20.9Z" fill="#E3E3E3" fill-opacity="1.000000" fill-rule="nonzero"/>
	<path id="path" d="M36.71 20.9L25.03 27.63L13.28 20.9L24.96 14.17L36.71 20.9Z" fill="#FFFFFF" fill-opacity="1.000000" fill-rule="nonzero"/>
	<path id="path" d="M13.28 20.9L12.51 28.65L25.04 35.82L25.04 27.63L13.28 20.9Z" fill="#E3E3E3" fill-opacity="1.000000" fill-rule="nonzero"/>
	<path id="path" d="M36.71 20.9L37.47 28.65L25.04 35.82L25.04 27.63L36.71 20.9Z" fill="#E3E3E3" fill-opacity="1.000000" fill-rule="nonzero"/>
	<path id="path" d="M27.94 19.01C27.64 18.84 27.32 18.7 26.99 18.6C26.67 18.5 26.33 18.43 25.99 18.41C25.65 18.39 25.32 18.41 24.99 18.47C24.67 18.54 24.36 18.65 24.08 18.81C23.85 18.94 23.69 19.08 23.61 19.21C23.52 19.35 23.49 19.49 23.51 19.64C23.54 19.79 23.61 19.95 23.74 20.12C23.87 20.29 24.05 20.48 24.26 20.69C24.43 20.85 24.59 21.01 24.74 21.18C24.88 21.33 24.98 21.46 25.04 21.58C25.11 21.7 25.13 21.81 25.1 21.91C25.08 22.01 24.99 22.1 24.85 22.18C24.6 22.32 24.32 22.37 24 22.33C23.68 22.29 23.34 22.17 22.98 21.96C22.76 21.83 22.57 21.7 22.41 21.55C22.26 21.4 22.13 21.25 22.02 21.11C21.92 20.97 21.84 20.83 21.8 20.71C21.75 20.58 21.73 20.48 21.73 20.4L20.53 20.61C20.61 20.94 20.79 21.27 21.07 21.58C21.34 21.89 21.7 22.17 22.15 22.43C22.44 22.59 22.74 22.73 23.06 22.84C23.38 22.95 23.7 23.03 24.03 23.06C24.35 23.1 24.68 23.09 25 23.03C25.32 22.97 25.63 22.86 25.92 22.69C26.18 22.54 26.36 22.39 26.45 22.23C26.54 22.07 26.57 21.91 26.53 21.75C26.49 21.58 26.4 21.41 26.25 21.22C26.09 21.04 25.91 20.84 25.68 20.63C25.53 20.48 25.37 20.33 25.22 20.17C25.09 20.04 25 19.92 24.95 19.81C24.9 19.7 24.89 19.61 24.92 19.52C24.95 19.44 25.04 19.36 25.18 19.28C25.43 19.13 25.71 19.07 26.04 19.1C26.36 19.12 26.72 19.24 27.1 19.46C27.28 19.56 27.43 19.67 27.56 19.79C27.68 19.91 27.79 20.02 27.87 20.13C27.95 20.25 28 20.35 28.04 20.45C28.08 20.55 28.09 20.63 28.09 20.7L29.25 20.51C29.18 20.26 29.05 20 28.84 19.74C28.63 19.48 28.33 19.23 27.94 19.01Z" fill="#000000" fill-opacity="1.000000" fill-rule="nonzero"/>
	<path id="path" d="M49.23 28.08L37.48 21.34L25.8 28.08L25.04 35.82L37.56 43L50 35.82L49.23 28.08Z" fill="#E3E3E3" fill-opacity="1.000000" fill-rule="nonzero"/>
	<path id="path" d="M49.23 28.08L37.55 34.81L25.8 28.08L37.48 21.34L49.23 28.08Z" fill="#FFFFFF" fill-opacity="1.000000" fill-rule="nonzero"/>
	<path id="path" d="M25.8 28.08L25.04 35.82L37.56 43L37.56 34.81L25.8 28.08Z" fill="#E3E3E3" fill-opacity="1.000000" fill-rule="nonzero"/>
	<path id="path" d="M49.23 28.08L50 35.82L37.56 43L37.56 34.81L49.23 28.08Z" fill="#E3E3E3" fill-opacity="1.000000" fill-rule="nonzero"/>
	<path id="path" d="M34.19 28.4L38.34 26.01L39.49 26.66C39.79 26.83 40 27.02 40.13 27.21C40.26 27.4 40.32 27.6 40.3 27.8C40.28 28 40.19 28.19 40.02 28.39C39.85 28.58 39.61 28.77 39.31 28.94C39.01 29.12 38.69 29.25 38.36 29.35C38.03 29.45 37.69 29.51 37.34 29.52C36.99 29.54 36.64 29.51 36.3 29.43C35.96 29.36 35.64 29.23 35.33 29.06L34.19 28.4ZM40.29 26.2L38.23 25.02L32.47 28.34L34.53 29.52C34.96 29.77 35.42 29.95 35.9 30.07C36.39 30.19 36.88 30.25 37.38 30.25C37.87 30.24 38.37 30.17 38.85 30.05C39.34 29.92 39.81 29.73 40.24 29.48C40.64 29.25 40.95 29 41.18 28.73C41.41 28.46 41.53 28.18 41.56 27.9C41.58 27.61 41.49 27.32 41.29 27.03C41.09 26.75 40.76 26.47 40.29 26.2Z" fill="#000000" fill-opacity="1.000000" fill-rule="nonzero"/>
	<path id="path" d="M34.19 28.4L38.34 26.01L39.49 26.66C39.79 26.83 40 27.02 40.13 27.21C40.26 27.4 40.32 27.6 40.3 27.8C40.28 28 40.19 28.19 40.02 28.39C39.85 28.58 39.61 28.77 39.31 28.94C39.01 29.12 38.69 29.25 38.36 29.35C38.03 29.45 37.69 29.51 37.34 29.52C36.99 29.54 36.64 29.51 36.3 29.43C35.96 29.36 35.64 29.23 35.33 29.06L34.19 28.4ZM40.29 26.2L38.23 25.02L32.47 28.34L34.53 29.52C34.96 29.77 35.42 29.95 35.9 30.07C36.39 30.19 36.88 30.25 37.38 30.25C37.87 30.24 38.37 30.17 38.85 30.05C39.34 29.92 39.81 29.73 40.24 29.48C40.64 29.25 40.95 29 41.18 28.73C41.41 28.46 41.53 28.18 41.56 27.9C41.58 27.61 41.49 27.32 41.29 27.03C41.09 26.75 40.76 26.47 40.29 26.2Z" fill="#000000" fill-opacity="1.000000" fill-rule="nonzero"/>
</svg>
