<svg width="50.000000" height="50.000000" viewBox="0 0 50 50" fill="none" xmlns="http://www.w3.org/2000/svg" xmlns:xlink="http://www.w3.org/1999/xlink">
	<desc>
			Created with Pixso.
	</desc>
	<defs/>
	<path id="path" d="M24.85 45.21C26.15 45.21 27.43 45.07 28.7 44.8C29.98 44.52 31.21 44.12 32.41 43.58C33.61 43.04 34.74 42.39 35.82 41.61C36.9 40.83 37.9 39.94 38.81 38.95C39.73 37.96 40.55 36.88 41.27 35.71C41.99 34.54 42.6 33.31 43.09 32.01C43.59 30.72 43.96 29.38 44.22 28C44.47 26.63 44.6 25.24 44.6 23.83C44.6 22.43 44.47 21.04 44.22 19.66C43.96 18.29 43.59 16.95 43.09 15.65C42.6 14.36 41.99 13.12 41.27 11.96C40.55 10.79 39.73 9.71 38.81 8.72C37.9 7.72 36.9 6.84 35.82 6.06C34.74 5.28 33.61 4.62 32.41 4.08C31.21 3.55 29.98 3.14 28.7 2.87C27.43 2.59 26.15 2.46 24.85 2.46C23.56 2.46 22.27 2.59 21 2.87C19.73 3.14 18.5 3.55 17.3 4.08C16.1 4.62 14.96 5.28 13.88 6.06C12.81 6.84 11.81 7.72 10.89 8.72C9.98 9.71 9.16 10.79 8.44 11.96C7.72 13.12 7.11 14.36 6.61 15.65C6.12 16.95 5.74 18.29 5.49 19.66C5.24 21.04 5.11 22.43 5.11 23.83C5.11 25.24 5.24 26.63 5.49 28C5.74 29.38 6.12 30.72 6.61 32.01C7.11 33.31 7.72 34.54 8.44 35.71C9.16 36.88 9.98 37.96 10.89 38.95C11.81 39.94 12.81 40.83 13.88 41.61C14.96 42.39 16.1 43.04 17.3 43.58C18.5 44.12 19.73 44.52 21 44.8C22.27 45.07 23.56 45.21 24.85 45.21Z" fill="#FFD21E" fill-opacity="1.000000" fill-rule="nonzero"/>
	<path id="path" d="M44.6 23.83C44.6 22.43 44.47 21.04 44.22 19.66C43.96 18.29 43.59 16.95 43.09 15.65C42.6 14.36 41.99 13.12 41.27 11.96C40.55 10.79 39.73 9.71 38.81 8.72C37.9 7.72 36.9 6.84 35.82 6.06C34.74 5.28 33.61 4.62 32.41 4.08C31.21 3.55 29.98 3.14 28.7 2.87C27.43 2.59 26.15 2.46 24.85 2.46C23.56 2.46 22.27 2.59 21 2.87C19.73 3.14 18.5 3.55 17.3 4.08C16.1 4.62 14.96 5.28 13.88 6.06C12.81 6.84 11.81 7.72 10.89 8.72C9.98 9.71 9.16 10.79 8.44 11.96C7.72 13.12 7.11 14.36 6.61 15.65C6.12 16.95 5.74 18.29 5.49 19.66C5.24 21.04 5.11 22.43 5.11 23.83C5.11 25.24 5.24 26.63 5.49 28C5.74 29.38 6.12 30.72 6.61 32.01C7.11 33.31 7.72 34.54 8.44 35.71C9.16 36.88 9.98 37.96 10.89 38.95C11.81 39.94 12.81 40.83 13.88 41.61C14.96 42.39 16.1 43.04 17.3 43.58C18.5 44.12 19.73 44.52 21 44.8C22.27 45.07 23.56 45.21 24.85 45.21C26.15 45.21 27.43 45.07 28.7 44.8C29.98 44.52 31.21 44.12 32.41 43.58C33.61 43.04 34.74 42.39 35.82 41.61C36.9 40.83 37.9 39.94 38.81 38.95C39.73 37.96 40.55 36.88 41.27 35.71C41.99 34.54 42.6 33.31 43.09 32.01C43.59 30.72 43.96 29.38 44.22 28C44.47 26.63 44.6 25.24 44.6 23.83ZM2.84 23.83C2.84 22.27 2.98 20.72 3.26 19.18C3.54 17.65 3.96 16.16 4.51 14.71C5.07 13.26 5.74 11.89 6.55 10.59C7.35 9.29 8.26 8.08 9.28 6.98C10.31 5.87 11.42 4.88 12.62 4.01C13.82 3.14 15.09 2.41 16.43 1.81C17.76 1.21 19.14 0.76 20.56 0.45C21.98 0.15 23.41 0 24.85 0C26.3 0 27.73 0.15 29.15 0.45C30.57 0.76 31.94 1.21 33.28 1.81C34.61 2.41 35.88 3.14 37.08 4.01C38.29 4.88 39.4 5.87 40.42 6.98C41.44 8.08 42.36 9.29 43.16 10.59C43.96 11.89 44.64 13.26 45.19 14.71C45.75 16.16 46.16 17.65 46.45 19.18C46.73 20.72 46.87 22.27 46.87 23.83C46.87 25.4 46.73 26.95 46.45 28.48C46.16 30.02 45.75 31.51 45.19 32.95C44.64 34.4 43.96 35.77 43.16 37.08C42.36 38.38 41.44 39.58 40.42 40.69C39.4 41.79 38.29 42.78 37.08 43.65C35.88 44.52 34.61 45.26 33.28 45.86C31.94 46.45 30.57 46.91 29.15 47.21C27.73 47.52 26.3 47.67 24.85 47.67C23.41 47.67 21.98 47.52 20.56 47.21C19.14 46.91 17.76 46.45 16.43 45.86C15.09 45.26 13.82 44.52 12.62 43.65C11.42 42.78 10.31 41.79 9.28 40.69C8.26 39.58 7.35 38.38 6.55 37.08C5.74 35.77 5.07 34.4 4.51 32.95C3.96 31.51 3.54 30.02 3.26 28.48C2.98 26.95 2.84 25.4 2.84 23.83Z" fill="#FF9D0B" fill-opacity="1.000000" fill-rule="nonzero"/>
	<path id="path" d="M31.27 18.02C31.99 18.29 32.28 19.9 33.01 19.48C33.34 19.29 33.63 19.04 33.87 18.72C34.11 18.41 34.29 18.06 34.4 17.67C34.51 17.28 34.54 16.88 34.51 16.47C34.47 16.07 34.37 15.68 34.19 15.32C34.01 14.96 33.78 14.65 33.49 14.39C33.2 14.13 32.87 13.95 32.51 13.83C32.15 13.71 31.78 13.67 31.41 13.71C31.03 13.74 30.68 13.86 30.35 14.05C30.01 14.24 29.73 14.49 29.49 14.81C29.25 15.12 29.07 15.48 28.96 15.87C28.85 16.26 28.82 16.65 28.85 17.06C28.89 17.47 28.99 17.85 29.17 18.21C29.52 18.92 30.61 17.77 31.27 18.02ZM17.89 18.02C17.16 18.29 16.87 19.9 16.14 19.48C15.81 19.29 15.52 19.04 15.28 18.72C15.04 18.41 14.87 18.06 14.76 17.67C14.65 17.28 14.61 16.88 14.65 16.47C14.68 16.07 14.79 15.68 14.97 15.32C15.14 14.96 15.38 14.65 15.67 14.39C15.96 14.13 16.28 13.95 16.64 13.83C17 13.71 17.37 13.67 17.75 13.71C18.12 13.74 18.48 13.86 18.81 14.05C19.14 14.24 19.43 14.49 19.67 14.81C19.91 15.12 20.08 15.48 20.19 15.87C20.3 16.26 20.34 16.65 20.3 17.06C20.27 17.47 20.16 17.85 19.98 18.21C19.64 18.92 18.53 17.77 17.89 18.02Z" fill="#3A3B45" fill-opacity="1.000000" fill-rule="nonzero"/>
	<path id="path" d="M24.71 32.78C30.3 32.78 32.1 27.39 32.1 24.62C32.1 23.18 31.21 23.64 29.77 24.4C28.45 25.11 26.67 26.08 24.72 26.08C20.63 26.08 17.33 21.85 17.33 24.62C17.33 27.39 19.12 32.78 24.71 32.78Z" fill="#FF323D" fill-opacity="1.000000" fill-rule="nonzero"/>
	<path id="path" d="M20.43 31.37C21.07 29.97 22.07 29.05 23.44 28.61C23.67 28.53 23.9 28.96 24.15 29.39C24.38 29.81 24.61 30.24 24.85 30.24C25.11 30.24 25.36 29.82 25.61 29.41C25.86 28.98 26.11 28.56 26.36 28.64C27.63 29.07 28.58 29.93 29.2 31.2C31.32 29.39 32.1 26.44 32.1 24.62C32.1 23.18 31.21 23.64 29.77 24.4L29.69 24.44C28.38 25.15 26.63 26.08 24.71 26.08C22.79 26.08 21.05 25.15 19.73 24.44C18.25 23.65 17.32 23.15 17.32 24.62C17.32 26.5 18.15 29.58 20.43 31.37Z" fill="#3A3B45" fill-opacity="1.000000" fill-rule="evenodd"/>
	<path id="path" d="M38.21 20.91C38.72 20.91 39.15 20.72 39.51 20.32C39.87 19.93 40.05 19.46 40.05 18.91C40.05 18.36 39.87 17.89 39.51 17.5C39.15 17.11 38.72 16.91 38.21 16.91C37.7 16.91 37.26 17.11 36.9 17.5C36.54 17.89 36.36 18.36 36.36 18.91C36.36 19.46 36.54 19.93 36.9 20.32C37.26 20.72 37.7 20.91 38.21 20.91ZM11.79 20.91C12.29 20.91 12.73 20.72 13.09 20.32C13.45 19.93 13.63 19.46 13.63 18.91C13.63 18.36 13.45 17.89 13.09 17.5C12.73 17.11 12.29 16.91 11.79 16.91C11.28 16.91 10.84 17.11 10.48 17.5C10.12 17.89 9.94 18.36 9.94 18.91C9.94 19.46 10.12 19.93 10.48 20.32C10.84 20.72 11.28 20.91 11.79 20.91ZM7.98 27.68C7.06 27.68 6.25 28.08 5.67 28.83C5.17 29.5 4.92 30.27 4.92 31.14C4.56 31.02 4.19 30.96 3.81 30.96C2.93 30.96 2.14 31.32 1.57 31.98C1.06 32.56 0.76 33.25 0.67 34.05C0.59 34.85 0.74 35.59 1.12 36.28C0.6 36.74 0.27 37.32 0.1 38.02C-0.03 38.57 -0.17 39.74 0.56 40.93C-0.04 41.92 -0.11 42.95 0.35 44.02C0.93 45.45 2.38 46.57 5.19 47.77C6.93 48.52 8.54 49 8.55 49.01C10.58 49.62 12.65 49.95 14.76 50C18.09 50 20.47 48.89 21.84 46.71C24.04 43.21 23.73 40 20.87 36.92C19.3 35.21 18.25 32.69 18.03 32.14C17.59 30.5 16.42 28.68 14.48 28.68C13.37 28.7 12.5 29.2 11.86 30.19C11.3 29.42 10.74 28.81 10.24 28.46C9.56 27.96 8.81 27.7 7.98 27.68ZM7.98 30.14C8.27 30.14 8.63 30.27 9.02 30.54C10.23 31.37 12.57 35.72 13.43 37.41C13.71 37.98 14.21 38.22 14.64 38.22C15.52 38.22 16.21 37.28 14.73 36.08C12.5 34.28 13.28 31.33 14.34 31.15C14.39 31.14 14.44 31.14 14.48 31.14C15.44 31.14 15.87 32.94 15.87 32.94C15.87 32.94 17.12 36.34 19.27 38.66C21.41 40.98 21.52 42.85 19.96 45.33C18.89 47.02 16.85 47.53 14.76 47.53C12.59 47.53 10.36 46.97 9.12 46.63C9.06 46.61 1.48 44.29 2.44 42.32C2.6 41.99 2.86 41.86 3.2 41.86C4.55 41.86 7.01 44.03 8.07 44.03C8.3 44.03 8.47 43.93 8.54 43.66C8.99 41.91 1.69 41.17 2.3 38.64C2.42 38.19 2.71 38.01 3.12 38.01C4.9 38.01 8.92 41.41 9.76 41.41C9.82 41.41 9.87 41.39 9.89 41.35C10.31 40.61 10.08 40.1 7.11 38.15C4.15 36.21 2.06 35.04 3.25 33.64C3.38 33.48 3.57 33.41 3.81 33.41C5.61 33.41 9.87 37.61 9.87 37.61C9.87 37.61 11.02 38.9 11.72 38.9C11.88 38.9 12.01 38.84 12.1 38.66C12.59 37.77 7.52 33.61 7.24 31.89C7.05 30.72 7.38 30.14 7.98 30.14Z" fill="#FF9D0B" fill-opacity="1.000000" fill-rule="nonzero"/>
	<path id="path" d="M19.96 45.33C21.52 42.84 21.41 40.98 19.27 38.66C17.12 36.34 15.87 32.94 15.87 32.94C15.87 32.94 15.4 30.97 14.34 31.15C13.28 31.34 12.5 34.28 14.73 36.08C16.95 37.88 14.28 39.11 13.43 37.42C12.57 35.72 10.23 31.37 9.02 30.54C7.81 29.71 6.96 30.17 7.24 31.89C7.52 33.61 12.6 37.77 12.1 38.66C11.61 39.56 9.87 37.61 9.87 37.61C9.87 37.61 4.43 32.25 3.25 33.64C2.06 35.04 4.15 36.21 7.11 38.15C10.08 40.1 10.31 40.61 9.89 41.35C9.47 42.09 2.92 36.1 2.3 38.65C1.69 41.17 8.99 41.91 8.54 43.66C8.09 45.41 3.39 40.35 2.44 42.32C1.47 44.29 9.06 46.61 9.12 46.63C11.56 47.32 17.78 48.78 19.96 45.33Z" fill="#FFD21E" fill-opacity="1.000000" fill-rule="nonzero"/>
	<path id="path" d="M42.01 27.68C42.93 27.68 43.75 28.08 44.32 28.83C44.82 29.5 45.07 30.27 45.07 31.14C45.44 31.02 45.8 30.96 46.18 30.96C47.06 30.96 47.86 31.32 48.42 31.98C48.94 32.56 49.24 33.25 49.32 34.05C49.41 34.85 49.26 35.59 48.88 36.28C49.39 36.74 49.73 37.32 49.89 38.02C50.02 38.57 50.16 39.74 49.43 40.93C50.03 41.92 50.1 42.95 49.64 44.02C49.06 45.45 47.61 46.57 44.81 47.77C43.06 48.52 41.46 49 41.44 49.01C39.41 49.62 37.34 49.95 35.23 50C31.9 50 29.52 48.89 28.15 46.71C25.95 43.21 26.26 40 29.12 36.92C30.7 35.21 31.75 32.69 31.97 32.14C32.41 30.5 33.57 28.68 35.51 28.68C36.62 28.7 37.49 29.2 38.13 30.19C38.69 29.42 39.25 28.81 39.76 28.46C40.44 27.96 41.19 27.7 42.01 27.68ZM42.01 30.14C41.72 30.14 41.36 30.27 40.97 30.54C39.76 31.37 37.42 35.72 36.56 37.42C36.31 37.95 35.9 38.22 35.35 38.22C34.47 38.22 33.78 37.28 35.27 36.08C37.49 34.28 36.71 31.33 35.65 31.15C35.6 31.14 35.56 31.14 35.51 31.14C34.55 31.14 34.12 32.94 34.12 32.94C34.12 32.94 32.87 36.34 30.73 38.66C28.58 40.98 28.47 42.85 30.03 45.33C31.1 47.02 33.14 47.53 35.23 47.53C37.4 47.53 39.63 46.97 40.88 46.63C40.93 46.61 48.52 44.29 47.56 42.32C47.39 41.99 47.13 41.86 46.8 41.86C45.44 41.86 42.98 44.03 41.93 44.03C41.69 44.03 41.52 43.93 41.46 43.67C41 41.91 48.3 41.17 47.69 38.64C47.58 38.19 47.29 38.01 46.87 38.01C45.09 38.01 41.07 41.41 40.23 41.41C40.18 41.41 40.13 41.4 40.1 41.35C39.68 40.61 39.91 40.1 42.88 38.15C45.85 36.21 47.93 35.04 46.74 33.64C46.61 33.48 46.42 33.41 46.18 33.41C44.38 33.41 40.12 37.61 40.12 37.61C40.12 37.61 38.97 38.9 38.28 38.9C38.11 38.91 37.98 38.83 37.89 38.66C37.4 37.77 42.47 33.61 42.75 31.89C42.94 30.72 42.61 30.14 42.01 30.14Z" fill="#FF9D0B" fill-opacity="1.000000" fill-rule="nonzero"/>
	<path id="path" d="M30.03 45.33C28.47 42.84 28.58 40.98 30.73 38.66C32.87 36.34 34.12 32.94 34.12 32.94C34.12 32.94 34.59 30.97 35.65 31.15C36.71 31.34 37.49 34.28 35.27 36.08C33.04 37.88 35.71 39.11 36.56 37.42C37.42 35.72 39.76 31.37 40.97 30.54C42.18 29.71 43.04 30.17 42.75 31.89C42.47 33.61 37.4 37.77 37.89 38.66C38.38 39.56 40.12 37.61 40.12 37.61C40.12 37.61 45.56 32.25 46.74 33.64C47.93 35.04 45.85 36.21 42.88 38.15C39.91 40.1 39.68 40.61 40.1 41.35C40.52 42.09 47.07 36.1 47.69 38.65C48.3 41.17 41.01 41.91 41.45 43.66C41.91 45.41 46.6 40.35 47.56 42.32C48.52 44.29 40.94 46.61 40.88 46.63C38.43 47.32 32.21 48.78 30.03 45.33Z" fill="#FFD21E" fill-opacity="1.000000" fill-rule="nonzero"/>
</svg>
