<svg width="50" height="50" viewBox="0 0 50 50" fill="none" xmlns="http://www.w3.org/2000/svg">
<path d="M25 0H0V50H25V0Z" fill="#1FB141"/>
<path d="M37.5 25C40.95 25 43.89 23.77 46.33 21.33C48.77 18.89 50 15.95 50 12.5C50 9.04 48.77 6.1 46.33 3.66C43.89 1.22 40.95 0 37.5 0C34.04 0 31.1 1.22 28.66 3.66C26.22 6.1 25 9.04 25 12.5C25 15.95 26.22 18.89 28.66 21.33C31.1 23.77 34.04 25 37.5 25ZM37.5 50C40.95 50 43.89 48.77 46.33 46.33C48.77 43.89 50 40.95 50 37.5C50 34.04 48.77 31.1 46.33 28.66C43.89 26.22 40.95 25 37.5 25C34.04 25 31.1 26.22 28.66 28.66C26.22 31.1 25 34.04 25 37.5C25 40.95 26.22 43.89 28.66 46.33C31.1 48.77 34.04 50 37.5 50Z" fill="#1FB141"/>
<path fill-rule="evenodd" clip-rule="evenodd" d="M6.05401 12H18.9459C22.2755 12 25 14.6783 25 17.9545V31.0455C25 34.3203 22.2755 37 18.9459 37H6.05401C2.72442 37 0 34.3203 0 31.0455V17.9545C0 14.6783 2.72442 12 6.05401 12Z" fill="url(#paint0_linear_136_60)"/>
<path d="M7.62876 30.5943H17.3713C17.4006 30.5942 17.4298 30.5999 17.4569 30.6109C17.4841 30.622 17.5088 30.6382 17.5296 30.6586C17.5504 30.6791 17.5668 30.7033 17.5781 30.7301C17.5893 30.7568 17.595 30.7854 17.595 30.8143V32.0379C17.595 32.0668 17.5893 32.0954 17.5781 32.1222C17.5668 32.1489 17.5504 32.1732 17.5296 32.1936C17.5088 32.214 17.4841 32.2302 17.4569 32.2413C17.4298 32.2523 17.4006 32.258 17.3713 32.258H7.62876C7.59936 32.258 7.57025 32.2523 7.54308 32.2413C7.51591 32.2302 7.49123 32.214 7.47044 32.1936C7.44966 32.1732 7.43318 32.1489 7.42195 32.1222C7.41072 32.0954 7.40496 32.0668 7.40501 32.0379V30.8143C7.40496 30.7854 7.41072 30.7568 7.42195 30.7301C7.43318 30.7033 7.44966 30.6791 7.47044 30.6586C7.49123 30.6382 7.51591 30.622 7.54308 30.6109C7.57025 30.5999 7.59936 30.5942 7.62876 30.5943ZM12.3417 29.1936L7.54992 24.4792C7.46636 24.3984 7.40948 24.2947 7.38669 24.1817C7.36488 24.0695 7.37711 23.9535 7.42184 23.8481C7.46831 23.7388 7.54426 23.6488 7.63854 23.5865C7.73573 23.5231 7.84982 23.4894 7.96645 23.4896H10.2265V16.9608C10.2264 16.9318 10.2322 16.9032 10.2434 16.8765C10.2547 16.8498 10.2711 16.8255 10.2919 16.805C10.3127 16.7846 10.3374 16.7684 10.3646 16.7573C10.3917 16.7463 10.4208 16.7406 10.4502 16.7407H14.5496C14.672 16.7407 14.7733 16.839 14.7733 16.9608V23.4896H17.0334C17.153 23.4896 17.2656 23.5243 17.3612 23.5865C17.4555 23.6488 17.5315 23.7388 17.5779 23.8481C17.6227 23.9535 17.6349 24.0695 17.6131 24.1817C17.5904 24.2948 17.5335 24.3985 17.4499 24.4792L12.6582 29.1936C12.6161 29.2348 12.5592 29.2579 12.4999 29.2579C12.4406 29.2579 12.3837 29.2348 12.3417 29.1936Z" fill="url(#paint1_linear_136_60)"/>
<defs>
<linearGradient id="paint0_linear_136_60" x1="0" y1="24.5" x2="24.9999" y2="24.5" gradientUnits="userSpaceOnUse">
<stop stop-color="#E1F1E9"/>
<stop offset="1" stop-color="#C3E5D9"/>
</linearGradient>
<linearGradient id="paint1_linear_136_60" x1="7.37612" y1="24.4993" x2="17.6238" y2="24.4993" gradientUnits="userSpaceOnUse">
<stop stop-color="#3EBC9E"/>
<stop offset="1" stop-color="#8FCEA5"/>
</linearGradient>
</defs>
</svg>
