<svg width="50" height="50" viewBox="0 0 50 50" fill="none" xmlns="http://www.w3.org/2000/svg">
<path d="M42.4419 44.7674H6.39535C5.77857 44.7674 5.18705 45.0125 4.75091 45.4486C4.31478 45.8847 4.06977 46.4762 4.06977 47.093C4.06977 47.7098 4.31478 48.3013 4.75091 48.7375C5.18705 49.1736 5.77857 49.4186 6.39535 49.4186H42.4419L45.9302 47.093L42.4419 44.7674Z" fill="#FFBA00"/>
<path d="M0.581395 42.4419V9.88372H47.6744V17.4419H43.6046V34.8837H47.6744V42.4419H0.581395Z" fill="#C4EAFF"/>
<path d="M2.90698 12.2093V34.3023L8.72093 40.1163H45.3488V34.8837H43.6046V17.4419H45.3488V12.2093H2.90698Z" fill="#6499F3"/>
<path d="M33.1395 40.1163L22.093 29.0698L33.4302 17.7326L43.6047 27.907V34.8837H45.3488V40.1163H33.1395Z" fill="#FF8E00"/>
<path d="M2.90698 34.3994L15.1163 22.093L33.1395 40.1163H8.72093L2.90698 34.3994Z" fill="#FFBA00"/>
<path d="M10.4651 44.7674H8.13953V49.4186H10.4651V44.7674Z" fill="#FF8E00"/>
<path d="M22.093 20.3488C23.0563 20.3488 23.8372 19.5679 23.8372 18.6047C23.8372 17.6414 23.0563 16.8605 22.093 16.8605C21.1297 16.8605 20.3488 17.6414 20.3488 18.6047C20.3488 19.5679 21.1297 20.3488 22.093 20.3488Z" fill="#FFBA00"/>
<path d="M49.4186 0.581395H0.581395V7.55814H49.4186V0.581395Z" fill="#FFBA00"/>
<path d="M49.4186 0.581395H0.581395V2.32558H49.4186V0.581395Z" fill="#FF8E00"/>
<path d="M49.4186 17.4419H43.6047V34.8837H49.4186V17.4419Z" fill="#FFBA00"/>
<path d="M2.90698 34.3023H8.72093V40.1163L2.90698 34.3023Z" fill="#3D72C1"/>
<path d="M42.4419 44.7674H40.1163V49.4186H42.4419V44.7674Z" fill="#FF8E00"/>
<path d="M49.4186 16.8605H48.2558V9.88372C48.2558 9.72952 48.1946 9.58164 48.0855 9.47261C47.9765 9.36358 47.8286 9.30233 47.6744 9.30233H0.581395C0.4272 9.30233 0.279319 9.36358 0.170287 9.47261C0.0612539 9.58164 0 9.72952 0 9.88372V42.4419C0 42.5961 0.0612539 42.7439 0.170287 42.853C0.279319 42.962 0.4272 43.0233 0.581395 43.0233H47.6744C47.8286 43.0233 47.9765 42.962 48.0855 42.853C48.1946 42.7439 48.2558 42.5961 48.2558 42.4419V35.4651H49.4186C49.5728 35.4651 49.7207 35.4039 49.8297 35.2948C49.9387 35.1858 50 35.0379 50 34.8837V17.4419C50 17.2877 49.9387 17.1398 49.8297 17.0308C49.7207 16.9217 49.5728 16.8605 49.4186 16.8605ZM47.093 41.8605H1.16279V10.4651H47.093V16.8605H45.9302V12.2093C45.9302 12.0551 45.869 11.9072 45.7599 11.7982C45.6509 11.6892 45.503 11.6279 45.3488 11.6279H2.90698C2.75278 11.6279 2.6049 11.6892 2.49587 11.7982C2.38684 11.9072 2.32558 12.0551 2.32558 12.2093V34.3023C2.33204 34.4552 2.39238 34.6008 2.49593 34.7134L8.30988 40.5273C8.41904 40.6361 8.5668 40.6974 8.72093 40.6977H45.3488C45.503 40.6977 45.6509 40.6364 45.7599 40.5274C45.869 40.4184 45.9302 40.2705 45.9302 40.1163V35.4651H47.093V41.8605ZM43.6046 16.8605C43.4505 16.8605 43.3026 16.9217 43.1935 17.0308C43.0845 17.1398 43.0233 17.2877 43.0233 17.4419V26.5034L33.8413 17.3215C33.7873 17.2675 33.7232 17.2247 33.6527 17.1954C33.5822 17.1662 33.5066 17.1511 33.4302 17.1511C33.3539 17.1511 33.2783 17.1662 33.2078 17.1954C33.1372 17.2247 33.0731 17.2675 33.0192 17.3215L23.4262 26.9145C23.3203 27.0242 23.2617 27.1711 23.263 27.3235C23.2643 27.4759 23.3254 27.6218 23.4332 27.7295C23.541 27.8373 23.6869 27.8985 23.8393 27.8998C23.9917 27.9011 24.1386 27.8425 24.2483 27.7366L33.4302 18.5547L43.0233 28.1477V34.8837C43.0233 35.0379 43.0845 35.1858 43.1935 35.2948C43.3026 35.4039 43.4505 35.4651 43.6046 35.4651H44.7674V39.5349H9.30233V34.3023C9.30233 34.1481 9.24107 34.0003 9.13204 33.8912C9.02301 33.7822 8.87513 33.7209 8.72093 33.7209H4.31052L15.1163 22.9152L29.2401 37.039C29.2937 37.0945 29.3579 37.1388 29.4288 37.1692C29.4998 37.1997 29.5761 37.2158 29.6533 37.2164C29.7305 37.2171 29.807 37.2024 29.8785 37.1732C29.9499 37.1439 30.0148 37.1008 30.0694 37.0462C30.124 36.9916 30.1672 36.9267 30.1964 36.8552C30.2256 36.7838 30.2403 36.7072 30.2397 36.63C30.239 36.5528 30.223 36.4765 30.1925 36.4056C30.162 36.3346 30.1177 36.2705 30.0622 36.2169L15.5273 21.682C15.4734 21.628 15.4093 21.5851 15.3388 21.5559C15.2682 21.5267 15.1926 21.5116 15.1163 21.5116C15.0399 21.5116 14.9643 21.5267 14.8938 21.5559C14.8233 21.5851 14.7592 21.628 14.7052 21.682L3.48837 32.8988V12.7907H44.7674V16.8605H43.6046ZM8.13953 38.7127L4.31052 34.8837H8.13953V38.7127ZM48.8372 34.3023H44.186V18.0233H48.8372V34.3023Z" fill="#32233F"/>
<path d="M22.093 16.2791C21.6331 16.2791 21.1834 16.4155 20.801 16.671C20.4186 16.9265 20.1205 17.2897 19.9445 17.7147C19.7684 18.1396 19.7224 18.6072 19.8121 19.0583C19.9019 19.5095 20.1233 19.9238 20.4486 20.2491C20.7738 20.5743 21.1882 20.7958 21.6393 20.8855C22.0904 20.9753 22.558 20.9292 22.983 20.7532C23.4079 20.5772 23.7711 20.2791 24.0267 19.8967C24.2822 19.5142 24.4186 19.0646 24.4186 18.6047C24.4179 17.9881 24.1727 17.397 23.7367 16.961C23.3007 16.525 22.7096 16.2798 22.093 16.2791ZM22.093 19.7674C21.863 19.7674 21.6382 19.6992 21.447 19.5715C21.2558 19.4437 21.1068 19.2621 21.0187 19.0496C20.9307 18.8372 20.9077 18.6034 20.9526 18.3778C20.9974 18.1522 21.1082 17.9451 21.2708 17.7824C21.4334 17.6198 21.6406 17.5091 21.8662 17.4642C22.0917 17.4193 22.3255 17.4424 22.538 17.5304C22.7505 17.6184 22.9321 17.7674 23.0598 17.9586C23.1876 18.1499 23.2558 18.3747 23.2558 18.6047C23.2555 18.9129 23.1329 19.2085 22.9149 19.4265C22.6969 19.6445 22.4013 19.7671 22.093 19.7674Z" fill="#32233F"/>
<path d="M22.093 15.6977C22.2472 15.6977 22.3951 15.6364 22.5041 15.5274C22.6132 15.4184 22.6744 15.2705 22.6744 15.1163V14.5349C22.6744 14.3807 22.6132 14.2328 22.5041 14.1238C22.3951 14.0147 22.2472 13.9535 22.093 13.9535C21.9388 13.9535 21.7909 14.0147 21.6819 14.1238C21.5729 14.2328 21.5116 14.3807 21.5116 14.5349V15.1163C21.5116 15.2705 21.5729 15.4184 21.6819 15.5274C21.7909 15.6364 21.9388 15.6977 22.093 15.6977Z" fill="#32233F"/>
<path d="M19.2151 16.5491C19.2691 16.6031 19.3332 16.6459 19.4038 16.6751C19.4743 16.7043 19.5499 16.7194 19.6263 16.7194C19.7026 16.7194 19.7783 16.7043 19.8488 16.6751C19.9193 16.6459 19.9834 16.6031 20.0374 16.5491C20.0914 16.4951 20.1343 16.431 20.1635 16.3604C20.1927 16.2899 20.2078 16.2143 20.2078 16.1379C20.2078 16.0615 20.1927 15.9859 20.1635 15.9154C20.1343 15.8448 20.0914 15.7807 20.0374 15.7267L19.6263 15.3157C19.5167 15.2098 19.3698 15.1512 19.2174 15.1525C19.0649 15.1538 18.9191 15.215 18.8113 15.3228C18.7035 15.4306 18.6424 15.5764 18.6411 15.7288C18.6397 15.8813 18.6983 16.0281 18.8042 16.1378L19.2151 16.5491Z" fill="#32233F"/>
<path d="M19.186 18.6047C19.186 18.4505 19.1248 18.3026 19.0158 18.1935C18.9067 18.0845 18.7588 18.0233 18.6047 18.0233H18.0233C17.8691 18.0233 17.7212 18.0845 17.6121 18.1935C17.5031 18.3026 17.4419 18.4505 17.4419 18.6047C17.4419 18.7588 17.5031 18.9067 17.6121 19.0158C17.7212 19.1248 17.8691 19.186 18.0233 19.186H18.6047C18.7588 19.186 18.9067 19.1248 19.0158 19.0158C19.1248 18.9067 19.186 18.7588 19.186 18.6047Z" fill="#32233F"/>
<path d="M19.2151 20.6602L18.8041 21.0713C18.6982 21.181 18.6396 21.3279 18.6409 21.4803C18.6422 21.6327 18.7034 21.7786 18.8112 21.8863C18.9189 21.9941 19.0648 22.0553 19.2172 22.0566C19.3696 22.0579 19.5165 21.9993 19.6262 21.8934L20.0373 21.4824C20.0924 21.4287 20.1363 21.3645 20.1664 21.2937C20.1965 21.2229 20.2123 21.1468 20.2128 21.0698C20.2133 20.9928 20.1985 20.9165 20.1692 20.8453C20.14 20.7741 20.0969 20.7094 20.0425 20.655C19.9881 20.6006 19.9234 20.5575 19.8522 20.5283C19.781 20.499 19.7047 20.4842 19.6277 20.4847C19.5507 20.4852 19.4746 20.501 19.4038 20.5311C19.333 20.5612 19.2688 20.6051 19.2151 20.6602Z" fill="#32233F"/>
<path d="M22.093 21.5116C21.9388 21.5116 21.7909 21.5729 21.6819 21.6819C21.5729 21.7909 21.5116 21.9388 21.5116 22.093V22.6744C21.5116 22.8286 21.5729 22.9765 21.6819 23.0855C21.7909 23.1946 21.9388 23.2558 22.093 23.2558C22.2472 23.2558 22.3951 23.1946 22.5041 23.0855C22.6132 22.9765 22.6744 22.8286 22.6744 22.6744V22.093C22.6744 21.9388 22.6132 21.7909 22.5041 21.6819C22.3951 21.5729 22.2472 21.5116 22.093 21.5116Z" fill="#32233F"/>
<path d="M24.9709 20.6602C24.8619 20.5512 24.714 20.4899 24.5598 20.4899C24.4056 20.4899 24.2577 20.5512 24.1486 20.6602C24.0396 20.7693 23.9783 20.9172 23.9783 21.0714C23.9783 21.2256 24.0396 21.3735 24.1486 21.4826L24.5597 21.8936C24.6694 21.9995 24.8162 22.0581 24.9687 22.0568C25.1211 22.0555 25.2669 21.9943 25.3747 21.8865C25.4825 21.7787 25.5437 21.6329 25.545 21.4805C25.5463 21.328 25.4877 21.1812 25.3818 21.0715L24.9709 20.6602Z" fill="#32233F"/>
<path d="M26.1628 18.0233H25.5814C25.4272 18.0233 25.2793 18.0845 25.1703 18.1935C25.0613 18.3026 25 18.4505 25 18.6047C25 18.7588 25.0613 18.9067 25.1703 19.0158C25.2793 19.1248 25.4272 19.186 25.5814 19.186H26.1628C26.317 19.186 26.4649 19.1248 26.5739 19.0158C26.6829 18.9067 26.7442 18.7588 26.7442 18.6047C26.7442 18.4505 26.6829 18.3026 26.5739 18.1935C26.4649 18.0845 26.317 18.0233 26.1628 18.0233Z" fill="#32233F"/>
<path d="M24.9709 16.5491L25.382 16.138C25.4879 16.0283 25.5465 15.8815 25.5452 15.729C25.5438 15.5766 25.4827 15.4308 25.3749 15.323C25.2671 15.2152 25.1213 15.154 24.9688 15.1527C24.8164 15.1514 24.6695 15.21 24.5599 15.3159L24.1488 15.7269C24.0937 15.7807 24.0498 15.8448 24.0196 15.9156C23.9895 15.9864 23.9737 16.0626 23.9733 16.1395C23.9728 16.2165 23.9876 16.2928 24.0168 16.364C24.046 16.4352 24.0891 16.4999 24.1435 16.5543C24.198 16.6087 24.2627 16.6518 24.3339 16.681C24.4051 16.7103 24.4814 16.7251 24.5583 16.7246C24.6353 16.7241 24.7114 16.7083 24.7822 16.6782C24.8531 16.6481 24.9172 16.6042 24.9709 16.5491Z" fill="#32233F"/>
<path d="M49.4186 0H0.581395C0.4272 0 0.279319 0.0612539 0.170287 0.170287C0.0612539 0.279319 0 0.4272 0 0.581395V7.55814C0 7.71233 0.0612539 7.86021 0.170287 7.96925C0.279319 8.07828 0.4272 8.13953 0.581395 8.13953H49.4186C49.5728 8.13953 49.7207 8.07828 49.8297 7.96925C49.9387 7.86021 50 7.71233 50 7.55814V0.581395C50 0.4272 49.9387 0.279319 49.8297 0.170287C49.7207 0.0612539 49.5728 0 49.4186 0ZM48.8372 1.16279V1.74419H1.16279V1.16279H48.8372ZM45.9302 6.97674V5.81395C45.9302 5.65976 45.869 5.51188 45.7599 5.40284C45.6509 5.29381 45.503 5.23256 45.3488 5.23256C45.1946 5.23256 45.0468 5.29381 44.9377 5.40284C44.8287 5.51188 44.7674 5.65976 44.7674 5.81395V6.97674H41.8605V5.81395C41.8605 5.65976 41.7992 5.51188 41.6902 5.40284C41.5811 5.29381 41.4333 5.23256 41.2791 5.23256C41.1249 5.23256 40.977 5.29381 40.868 5.40284C40.7589 5.51188 40.6977 5.65976 40.6977 5.81395V6.97674H37.7907V5.81395C37.7907 5.65976 37.7294 5.51188 37.6204 5.40284C37.5114 5.29381 37.3635 5.23256 37.2093 5.23256C37.0551 5.23256 36.9072 5.29381 36.7982 5.40284C36.6892 5.51188 36.6279 5.65976 36.6279 5.81395V6.97674H33.7209V5.81395C33.7209 5.65976 33.6597 5.51188 33.5506 5.40284C33.4416 5.29381 33.2937 5.23256 33.1395 5.23256C32.9853 5.23256 32.8375 5.29381 32.7284 5.40284C32.6194 5.51188 32.5581 5.65976 32.5581 5.81395V6.97674H29.6512V5.81395C29.6512 5.65976 29.5899 5.51188 29.4809 5.40284C29.3718 5.29381 29.224 5.23256 29.0698 5.23256C28.9156 5.23256 28.7677 5.29381 28.6587 5.40284C28.5496 5.51188 28.4884 5.65976 28.4884 5.81395V6.97674H25.5814V5.81395C25.5814 5.65976 25.5201 5.51188 25.4111 5.40284C25.3021 5.29381 25.1542 5.23256 25 5.23256C24.8458 5.23256 24.6979 5.29381 24.5889 5.40284C24.4799 5.51188 24.4186 5.65976 24.4186 5.81395V6.97674H21.5116V5.81395C21.5116 5.65976 21.4504 5.51188 21.3413 5.40284C21.2323 5.29381 21.0844 5.23256 20.9302 5.23256C20.776 5.23256 20.6282 5.29381 20.5191 5.40284C20.4101 5.51188 20.3488 5.65976 20.3488 5.81395V6.97674H17.4419V5.81395C17.4419 5.65976 17.3806 5.51188 17.2716 5.40284C17.1625 5.29381 17.0147 5.23256 16.8605 5.23256C16.7063 5.23256 16.5584 5.29381 16.4494 5.40284C16.3403 5.51188 16.2791 5.65976 16.2791 5.81395V6.97674H13.3721V5.81395C13.3721 5.65976 13.3108 5.51188 13.2018 5.40284C13.0928 5.29381 12.9449 5.23256 12.7907 5.23256C12.6365 5.23256 12.4886 5.29381 12.3796 5.40284C12.2706 5.51188 12.2093 5.65976 12.2093 5.81395V6.97674H9.30233V5.81395C9.30233 5.65976 9.24107 5.51188 9.13204 5.40284C9.02301 5.29381 8.87513 5.23256 8.72093 5.23256C8.56673 5.23256 8.41885 5.29381 8.30982 5.40284C8.20079 5.51188 8.13953 5.65976 8.13953 5.81395V6.97674H5.23256V5.81395C5.23256 5.65976 5.1713 5.51188 5.06227 5.40284C4.95324 5.29381 4.80536 5.23256 4.65116 5.23256C4.49697 5.23256 4.34909 5.29381 4.24005 5.40284C4.13102 5.51188 4.06977 5.65976 4.06977 5.81395V6.97674H1.16279V2.90698H48.8372V6.97674H45.9302Z" fill="#32233F"/>
<path d="M46.2527 46.6093L42.7644 44.2837C42.6667 44.2247 42.5558 44.1911 42.4419 44.186H6.39535C5.62437 44.186 4.88497 44.4923 4.33981 45.0375C3.79464 45.5826 3.48837 46.322 3.48837 47.093C3.48837 47.864 3.79464 48.6034 4.33981 49.1486C4.88497 49.6937 5.62437 50 6.39535 50H42.4419C42.5558 49.995 42.6667 49.9614 42.7644 49.9023L46.2527 47.5767C46.3324 47.5236 46.3977 47.4517 46.4428 47.3673C46.488 47.283 46.5116 47.1887 46.5116 47.093C46.5116 46.9973 46.488 46.9031 46.4428 46.8187C46.3977 46.7343 46.3324 46.6624 46.2527 46.6093ZM39.5349 45.3488V46.5116H11.0465V45.3488H39.5349ZM4.65116 47.093C4.65167 46.6306 4.8356 46.1872 5.16258 45.8603C5.48957 45.5333 5.93292 45.3493 6.39535 45.3488H7.55814V48.8372H6.39535C5.93292 48.8367 5.48957 48.6528 5.16258 48.3258C4.8356 47.9988 4.65167 47.5555 4.65116 47.093ZM8.72093 45.3488H9.88372V48.8372H8.72093V45.3488ZM11.0465 48.8372V47.6744H39.5349V48.8372H11.0465ZM40.6977 48.8372V45.3488H41.8605V48.8372H40.6977ZM43.0233 48.3323V45.8538L44.8822 47.093L43.0233 48.3323Z" fill="#32233F"/>
</svg>
