<svg width="50" height="50" viewBox="0 0 50 50" fill="none" xmlns="http://www.w3.org/2000/svg">
<path d="M20.9945 15.7296L14.4567 3L0 40.9119L8.10312 36.9916L14.8711 38.6059L19.7514 44.6939L25 47L29.8803 44.6939L34.9907 38.6059L41.6206 36.9916L50 40.9119L35.4051 3L28.8213 15.7296H20.9945Z" fill="black"/>
<path d="M43.0036 26.5322L34.2899 37.3716L29.082 43.5669L24.949 40.6803L20.8138 43.5638L15.6081 37.3716L6.89434 26.5322L14.6134 6.32082L20.2098 17.1015H29.6881L35.2846 6.32082L43.0036 26.5322Z" fill="#FF7200"/>
<path d="M18.1858 17.1015H12.419L14.863 10.7016L18.1858 17.1015Z" fill="#FF6700"/>
<path d="M37.4771 17.1015H31.7105L35.0327 10.7016L37.4771 17.1015Z" fill="#FF6700"/>
<path d="M15.6077 37.3714L8.20633 35.5548L2.4401 38.1933L6.89395 26.532L15.6077 37.3714Z" fill="#E5E6E8"/>
<path d="M47.4561 38.1933L41.6903 35.5548L34.289 37.3714L43.0028 26.532L47.4561 38.1933Z" fill="#E5E6E8"/>
<path d="M29.0819 43.5666L24.9669 45.4827L20.8137 43.5636L24.949 40.6801L29.0819 43.5666Z" fill="black"/>
<path d="M20.9547 18.8825L24.9489 28.9291L28.9432 18.8825H20.9547Z" fill="#FF6700"/>
<path d="M15.204 26.3346H18.1316L20.9718 29.5099V31.8348L16.6022 28.7289L15.204 26.3346Z" fill="black"/>
<path d="M31.765 26.3346L28.9248 29.5099V31.8348L33.2944 28.7285L34.6927 26.3346H31.765Z" fill="black"/>
</svg>
