<svg width="50" height="50" viewBox="0 0 50 50" fill="none" xmlns="http://www.w3.org/2000/svg">
<path d="M42.5 0H7.5C3.35786 0 0 3.35786 0 7.5V42.5C0 46.6421 3.35786 50 7.5 50H42.5C46.6421 50 50 46.6421 50 42.5V7.5C50 3.35786 46.6421 0 42.5 0Z" fill="#FFDD22"/>
<path d="M40.8203 29.8828L40.2343 28.2227C40.2343 28.2227 42.6758 24.5117 36.6211 23.2422C36.6211 23.2422 37.0117 18.6523 34.8633 16.5039C39.5508 11.9141 38.4765 4.98047 27.832 9.47265C22.3633 -0.976564 1.2695 23.5352 10.0586 27.4414C9.17966 28.6133 9.17966 34.4727 15.2343 35.0586C19.3359 43.8477 29.2968 44.4336 35.0586 41.7969C40.8203 39.1602 44.1406 30.7617 40.8203 29.8828ZM15.1367 33.7891C10.1562 33.3008 9.66794 26.4648 13.9648 25.7812C18.2617 25.0977 19.3359 34.1797 15.1367 33.7891ZM13.6718 24.5117C12.3047 24.5117 10.6445 26.3672 10.6445 26.3672C4.00388 23.1445 22.6562 1.75781 26.6601 10.0586C26.6601 10.0586 16.8945 14.7461 13.6718 24.5117ZM33.2031 32.8125C33.2031 32.4219 31.1523 33.3984 27.4414 32.1289C27.7343 30.0781 32.1289 33.8867 39.4531 28.9062L40.039 30.957C42.7734 30.4687 40.039 39.7461 31.25 39.6484C24.1211 39.5508 21.875 32.2266 25.7812 28.2227C26.5625 27.4414 22.9492 25.8789 23.6328 22.4609C23.9258 20.9961 25.1953 18.8477 28.4179 19.4336C31.6406 20.0195 32.3242 17.0898 34.4726 18.1641C36.6211 19.2383 35.3515 23.3398 35.6445 23.9258C35.9375 24.5117 39.0625 24.6094 39.6484 26.2695C40.2343 27.9297 35.6445 31.543 28.5156 30.5664C26.8554 30.3711 25.8789 32.5195 26.9531 33.8867C29.1015 37.0117 37.8906 34.9609 39.3554 31.9336C35.6445 34.7656 28.0273 35.8398 27.4414 32.8125C29.5898 33.7891 33.2031 33.2031 33.2031 32.8125ZM20.4101 17.3828C22.5586 14.7461 25.3906 13.1836 25.3906 13.1836L24.8047 14.6484C24.8047 14.6484 26.8554 13.0859 29.1015 13.0859L28.3203 13.8672C30.8593 13.9648 31.9336 14.9414 31.9336 14.9414C31.9336 14.9414 25.9765 13.1836 20.4101 17.3828ZM33.5937 21.1914C34.8633 21.0937 34.4726 24.0234 34.4726 24.0234H33.6914C33.6914 24.0234 32.3242 21.2891 33.5937 21.1914ZM27.832 24.4141C26.9531 24.5117 25.9765 25 26.0742 24.6094C26.4648 23.0469 30.0781 23.4375 29.9804 24.8047C29.8828 26.1719 29.1015 24.2187 27.832 24.4141ZM29.8828 25.5859C29.9804 25.7812 29.1992 25.5859 28.6133 25.6836C28.0273 25.7812 27.4414 26.0742 27.4414 25.8789C27.4414 25.6836 29.6875 24.8047 29.8828 25.5859ZM31.8359 25.8789C32.1289 25.293 33.3008 25.8789 33.0078 26.4648C32.7148 27.0508 31.5429 26.4648 31.8359 25.8789ZM34.2773 26.0742C33.6914 26.0742 33.6914 24.8047 34.2773 24.8047C34.8633 24.8047 34.8633 26.1719 34.2773 26.1719V26.0742ZM16.6992 31.25C16.9922 31.543 16.1133 32.1289 15.4297 31.6406C14.7461 31.1523 16.2109 28.8086 14.4531 28.2227C12.6953 27.6367 13.1836 29.8828 12.6953 29.5898C12.207 29.2969 13.3789 26.1719 15.4297 27.4414C17.4804 28.7109 14.8437 30.6641 16.0156 31.25C17.1875 31.8359 16.5039 31.0547 16.6992 31.25Z" fill="#222222"/>
</svg>
