<svg width="50" height="51" viewBox="0 0 50 51" fill="none" xmlns="http://www.w3.org/2000/svg">
<path d="M0 35.0233H50V50.8H0V35.0233Z" fill="#D32F2F"/>
<path d="M15 32.5961H35V50.8H15V32.5961Z" fill="#E53935"/>
<path d="M30 19.2466H20L25 3.59126L30 19.2466Z" fill="#388E3C"/>
<path d="M25 19.2466H20L25 3.59126V19.2466Z" fill="#43A047"/>
<path d="M17.5 20.4602H32.5V32.5961H17.5V20.4602Z" fill="#D32F2F"/>
<path d="M30 50.8H20V44.732C20 42.0621 22.25 39.8777 25 39.8777C27.75 39.8777 30 42.0621 30 44.732V50.8Z" fill="#B71C1C"/>
<path d="M25 0.8L25.875 2.37767L27.75 2.62039L26.375 3.83398L26.75 5.65437L25 4.80485L23.375 5.65437L23.75 3.83398L22.375 2.62039L24.25 2.37767L25 0.8Z" fill="#E53935"/>
<path d="M50 37.4505H45V32.5961L47.5 35.0233L50 32.5961V37.4505ZM42.5 37.4505H37.5V32.5961L40 35.0233L42.5 32.5961V37.4505ZM30 24.101H25V19.2466L27.5 16.8194L30 19.2466V24.101ZM32.5 24.101H30V19.2466L31.25 16.8194L32.5 19.2466V24.101ZM20 24.101H17.5V19.2466L18.75 16.8194L20 19.2466V24.101ZM25 24.101H20V19.2466L22.5 16.8194L25 19.2466V24.101ZM12.5 37.4505H7.5V32.5961L10 35.0233L12.5 32.5961V37.4505ZM5 37.4505H0V32.5961L2.5 35.0233L5 32.5961V37.4505Z" fill="#D32F2F"/>
<path d="M29.375 26.5282C29.375 28.834 27.375 30.7757 25 30.7757C22.625 30.7757 20.625 28.834 20.625 26.5282C20.625 24.2223 22.625 22.2806 25 22.2806C27.375 22.2806 29.375 24.2223 29.375 26.5282Z" fill="#424242"/>
<path d="M25 22.8874C27.125 22.8874 28.75 24.465 28.75 26.5282C28.75 28.5913 27.125 30.1689 25 30.1689C22.875 30.1689 21.25 28.5913 21.25 26.5282C21.25 24.465 22.875 22.8874 25 22.8874ZM25 21.6738C22.25 21.6738 20 23.8583 20 26.5282C20 29.1981 22.25 31.3825 25 31.3825C27.75 31.3825 30 29.1981 30 26.5282C30 23.8583 27.75 21.6738 25 21.6738Z" fill="#FFC107"/>
<path d="M25.75 26.5282C25.75 26.8922 25.375 27.2563 25 27.2563C24.625 27.2563 24.25 26.8922 24.25 26.5282C24.25 26.1641 24.625 25.8 25 25.8C25.375 25.8 25.75 26.1641 25.75 26.5282Z" fill="#FFC107"/>
<path d="M26.125 27.9845L24.625 26.5282L26.125 24.101L26.625 24.3437L25.375 26.5282L26.5 27.6204L26.125 27.9845Z" fill="#FFC107"/>
</svg>
