<svg width="50" height="50" viewBox="0 0 50 50" fill="none" xmlns="http://www.w3.org/2000/svg">
<path d="M22.5 2.42509C18.787 0.965311 14.8384 0.146445 10.8333 0.00563499C7.15334 -0.0622327 3.48874 0.483389 0 1.6186V16.3848C3.48874 15.2496 7.15334 14.704 10.8333 14.7718C14.8384 14.9126 18.787 15.7315 22.5 17.1913C27.7003 18.9535 36.1327 19.7504 50 14.7718V0.00563499C36.1327 4.98424 27.7003 4.18731 22.5 2.42509Z" fill="#C0D4F2"/>
<path d="M25.8333 23.386H24.1667C21.4052 23.386 19.1667 25.5525 19.1667 28.2249V36.2898C19.1667 38.9622 21.4052 41.1287 24.1667 41.1287H25.8333C28.5948 41.1287 30.8333 38.9622 30.8333 36.2898V28.2249C30.8333 25.5525 28.5948 23.386 25.8333 23.386Z" fill="#64778C"/>
<path d="M38.6312 36.5733L37.2526 35.6676C37.9605 34.6423 38.3367 33.4361 38.3334 32.203C38.33 30.9699 37.9473 29.7657 37.2339 28.7439L38.5995 27.8193C39.5066 29.1089 39.9944 30.6316 40 32.1916C40.0057 33.7516 39.529 35.2776 38.6312 36.5733Z" fill="#759ACC"/>
<path d="M41.4811 38.343L40.0846 37.4625C41.1341 35.8921 41.6842 34.0581 41.6667 32.188C41.669 30.3231 41.1139 28.4974 40.0683 26.9309L41.4648 26.0504C42.682 27.8833 43.3304 30.0156 43.3333 32.1944C43.3362 34.3732 42.6934 36.5071 41.4811 38.343Z" fill="#759ACC"/>
<path d="M35.9351 34.8193L34.4979 34.0018C34.828 33.4554 35.0013 32.8336 35 32.2006C35.0001 31.5654 34.822 30.9421 34.4849 30.3971L35.9155 29.5685C36.4038 30.362 36.6632 31.2678 36.6666 32.1913C36.6701 33.1149 36.4174 34.0225 35.9351 34.8193Z" fill="#759ACC"/>
<path d="M11.4006 36.5741C10.4934 35.2845 10.0056 33.7618 9.99999 32.2018C9.99433 30.6418 10.471 29.1158 11.3688 27.8201L12.7474 28.7258C12.0396 29.7514 11.6633 30.9578 11.6667 32.1911C11.67 33.4245 12.0527 34.629 12.7661 35.651L11.4006 36.5741Z" fill="#759ACC"/>
<path d="M8.53515 38.343C7.31799 36.5101 6.66952 34.3778 6.66664 32.199C6.66375 30.0202 7.30658 27.8863 8.51888 26.0504L9.91536 26.9309C8.86599 28.5016 8.31592 30.3358 8.33333 32.2061C8.33087 34.0708 8.88597 35.8963 9.93166 37.4625L8.53515 38.343Z" fill="#759ACC"/>
<path d="M14.0853 34.8256C13.5927 34.0302 13.3328 33.1201 13.3333 32.1928C13.3325 31.2727 13.585 30.369 14.0649 29.5748L15.5021 30.3908C15.1723 30.9376 14.999 31.5596 15 32.1928C14.9997 32.8277 15.1775 33.4507 15.5143 33.9955L14.0853 34.8256Z" fill="#759ACC"/>
<path d="M31.6667 36.2898V28.2249C31.6648 26.7282 31.0496 25.2933 29.9561 24.235C28.8625 23.1767 27.3799 22.5813 25.8333 22.5795H24.1667C22.6201 22.5813 21.1375 23.1767 20.0439 24.235C18.9504 25.2933 18.3352 26.7282 18.3333 28.2249V36.2898C18.3352 37.7865 18.9504 39.2213 20.0439 40.2797C21.1375 41.338 22.6201 41.9333 24.1667 41.9352V48.387H20V50H30V48.387H25.8333V41.9352C27.3799 41.9333 28.8625 41.338 29.9561 40.2797C31.0496 39.2213 31.6648 37.7865 31.6667 36.2898ZM20.0842 37.0962H23.3333V35.4833H20V33.0638H23.3333V31.4508H20V29.0314H23.3333V27.4184H20.0842C20.2775 26.5083 20.7891 25.6906 21.5327 25.1029C22.2764 24.5153 23.2066 24.1938 24.1667 24.1925H25.8333C26.7934 24.1938 27.7236 24.5153 28.4673 25.1029C29.2109 25.6906 29.7225 26.5083 29.9158 27.4184H26.6667V29.0314H30V31.4508H26.6667V33.0638H30V35.4833H26.6667V37.0962H29.9158C29.7225 38.0063 29.2109 38.8241 28.4673 39.4117C27.7236 39.9994 26.7934 40.3209 25.8333 40.3222H24.1667C23.2066 40.3209 22.2764 39.9994 21.5327 39.4117C20.7891 38.8241 20.2775 38.0063 20.0842 37.0962Z" fill="#526273"/>
<path d="M44.9988 11.2052L45 5.24009C45 5.1823 44.9872 5.12517 44.9624 5.07259C44.9377 5.02 44.9015 4.97319 44.8564 4.93532C44.8113 4.89745 44.7583 4.86941 44.701 4.8531C44.6437 4.83679 44.5834 4.83259 44.5243 4.84079L38.691 5.64727C38.5918 5.66107 38.5011 5.70898 38.4354 5.78224C38.3697 5.85549 38.3335 5.94919 38.3333 6.04617L38.3272 10.7033C38.0765 10.5602 37.7911 10.4839 37.5 10.4822C37.1704 10.4822 36.8481 10.5768 36.574 10.7541C36.3 10.9313 36.0863 11.1832 35.9602 11.478C35.8341 11.7727 35.801 12.097 35.8654 12.4099C35.9297 12.7228 36.0884 13.0102 36.3215 13.2358C36.5546 13.4613 36.8515 13.615 37.1748 13.6772C37.4981 13.7394 37.8333 13.7075 38.1378 13.5854C38.4423 13.4633 38.7026 13.2566 38.8858 12.9913C39.0689 12.7261 39.1667 12.4142 39.1667 12.0952C39.1667 12.044 39.1559 11.9956 39.151 11.9456H39.1589L39.1663 6.39626L44.1667 5.70515L44.1657 9.89957C43.9138 9.75464 43.6264 9.67738 43.3333 9.67576C43.0037 9.67576 42.6815 9.77036 42.4074 9.94759C42.1333 10.1248 41.9197 10.3767 41.7935 10.6715C41.6674 10.9662 41.6344 11.2905 41.6987 11.6034C41.763 11.9163 41.9217 12.2037 42.1548 12.4293C42.3879 12.6548 42.6849 12.8085 43.0082 12.8707C43.3315 12.9329 43.6666 12.901 43.9711 12.7789C44.2757 12.6568 44.536 12.4501 44.7191 12.1848C44.9022 11.9196 45 11.6077 45 11.2887C45 11.2601 44.9928 11.2334 44.9913 11.2052L44.9988 11.2052Z" fill="#4D6F99"/>
<path d="M14.1655 9.59226L14.1667 3.62712C14.1667 3.56933 14.1539 3.5122 14.1291 3.45962C14.1043 3.40703 14.0682 3.36022 14.0231 3.32235C13.9779 3.28448 13.9249 3.25644 13.8677 3.24013C13.8104 3.22382 13.7501 3.21962 13.691 3.22782L7.85767 4.0343C7.75847 4.0481 7.66773 4.09601 7.60205 4.16927C7.53636 4.24252 7.50014 4.33622 7.5 4.4332L7.4939 9.09033C7.24318 8.9472 6.95775 8.87093 6.66667 8.86927C6.33703 8.86927 6.0148 8.96387 5.74072 9.14111C5.46664 9.31834 5.25301 9.57026 5.12687 9.86499C5.00072 10.1597 4.96772 10.484 5.03203 10.7969C5.09633 11.1098 5.25507 11.3972 5.48816 11.6228C5.72124 11.8484 6.01822 12.002 6.34152 12.0642C6.66482 12.1265 6.99993 12.0945 7.30447 11.9724C7.60902 11.8504 7.86931 11.6436 8.05245 11.3784C8.23559 11.1131 8.33333 10.8013 8.33333 10.4822C8.33333 10.431 8.32255 10.3826 8.31772 10.3326H8.3256L8.33293 4.78329L13.3333 4.09218L13.3324 8.2866C13.0805 8.14167 12.7931 8.06441 12.5 8.06279C12.1704 8.06279 11.8481 8.15739 11.5741 8.33462C11.3 8.51186 11.0863 8.76377 10.9602 9.0585C10.8341 9.35323 10.8011 9.67755 10.8654 9.99043C10.9297 10.3033 11.0884 10.5907 11.3215 10.8163C11.5546 11.0419 11.8515 11.1955 12.1749 11.2577C12.4982 11.32 12.8333 11.288 13.1378 11.1659C13.4424 11.0439 13.7026 10.8371 13.8858 10.5719C14.0689 10.3066 14.1667 9.99477 14.1667 9.67576C14.1667 9.64716 14.1595 9.62047 14.158 9.59227L14.1655 9.59226Z" fill="#4D6F99"/>
<path d="M25.9347 7.59498L29.1667 7.25159L29.0755 6.44982L25.4728 6.83259C25.3709 6.84352 25.2767 6.8904 25.2083 6.96427C25.1398 7.03815 25.1019 7.13384 25.1017 7.23307L25.0955 12.3139C24.8448 12.1708 24.5594 12.0946 24.2684 12.0929C23.9388 12.0929 23.6165 12.1875 23.3425 12.3647C23.0684 12.542 22.8548 12.7939 22.7286 13.0886C22.6025 13.3834 22.5695 13.7077 22.6338 14.0206C22.6981 14.3334 22.8568 14.6208 23.0899 14.8464C23.323 15.072 23.62 15.2256 23.9433 15.2879C24.2666 15.3501 24.6017 15.3181 24.9062 15.1961C25.2108 15.074 25.4711 14.8672 25.6542 14.602C25.8373 14.3367 25.9351 14.0249 25.9351 13.7059C25.9351 13.6545 25.9243 13.606 25.9194 13.5559H25.9273L25.9347 7.59498Z" fill="#C76962"/>
</svg>
