<svg width="50.000000" height="50.005859" viewBox="0 0 50 50.0059" fill="none" xmlns="http://www.w3.org/2000/svg" xmlns:xlink="http://www.w3.org/1999/xlink">
	<desc>
			Created with Pixso.
	</desc>
	<defs>
		<radialGradient gradientTransform="translate(25 0.00292969) rotate(0) scale(50.055 50.1652)" cx="0.000000" cy="0.000000" r="1.000000" id="paint_radial_53_5_0" gradientUnits="userSpaceOnUse">
			<stop stop-color="#20C6B7"/>
			<stop offset="1.000000" stop-color="#4D9ABF"/>
		</radialGradient>
	</defs>
	<path id="path" d="M36.23 17.35C36.2 17.31 36.14 17.25 36.15 17.2L37.16 11.04L41.89 15.77L36.97 17.86C36.78 17.65 36.48 17.48 36.23 17.35ZM43.1 16.97L48.16 22.03C49.21 23.08 49.73 23.6 49.92 24.21C49.95 24.3 49.98 24.39 50 24.48L37.9 19.37C37.9 19.32 37.84 19.2 37.88 19.18L43.1 16.97ZM49.79 26.11C49.53 26.6 49.02 27.1 48.16 27.97L42.45 33.66L35.07 32.13C35.01 32.12 34.9 32.1 34.9 32.04C34.84 31.4 34.56 30.88 34.05 30.48C34.05 30.48 34.03 30.35 34.03 30.35L35.42 21.84C35.43 21.77 35.45 21.67 35.51 21.67C36.13 21.59 36.64 21.3 37.02 20.8C37.06 20.78 37.15 20.76 37.19 20.78L49.79 26.11ZM41.14 34.97L31.76 44.35L33.36 34.49C33.72 34.33 34.13 34 34.38 33.7C34.39 33.7 34.52 33.62 34.53 33.62L41.14 34.97ZM29.77 46.33L28.72 47.38L17.03 30.51C17.03 30.49 16.99 30.37 17.01 30.36C17.04 30.3 17.09 30.24 17.12 30.18C17.15 30.17 17.28 30.04 17.31 30.05L30.26 32.72C30.46 33.45 31.03 34.06 31.73 34.35C31.72 34.37 31.72 34.49 31.71 34.51C31.55 35.5 30.15 44.03 29.77 46.33ZM27.56 48.53C26.79 49.3 26.33 49.71 25.81 49.88C25.28 50.04 24.76 50.04 24.23 49.88C23.62 49.68 23.1 49.16 22.05 48.11L10.31 36.38L13.37 31.63C13.41 31.61 13.51 31.56 13.54 31.57C14.27 31.79 14.98 31.75 15.68 31.46C15.7 31.47 15.81 31.49 15.82 31.51L27.56 48.53ZM9.17 35.25L6.48 32.56L11.8 30.29C11.84 30.29 11.91 30.33 11.94 30.37C11.99 30.45 12.05 30.53 12.11 30.61L9.17 35.25ZM5.29 31.37L1.88 27.97C1.3 27.39 0.88 26.97 0.59 26.61L10.95 28.75C11.01 28.76 11.12 28.78 11.12 28.84C11.12 28.91 11.05 28.94 10.98 28.96L5.29 31.37ZM0 24.86C0.01 24.64 0.05 24.42 0.11 24.21C0.31 23.6 0.83 23.08 1.88 22.03L6.24 17.67C8.25 20.58 10.26 23.49 12.28 26.39C12.32 26.44 12.36 26.49 12.32 26.53C12.13 26.74 11.93 26.97 11.8 27.22L0 24.86ZM7.41 16.51L13.27 10.65C13.82 10.89 15.83 11.74 17.62 12.49C18.98 13.07 20.22 13.59 20.61 13.76C20.62 13.78 20.7 13.88 20.7 13.91C20.5 14.83 20.72 15.62 21.38 16.29C21.42 16.33 21.38 16.39 21.35 16.44L15.38 25.67C15.34 25.69 15.24 25.75 15.21 25.74C14.98 25.68 14.74 25.65 14.5 25.64C14.28 25.64 14.05 25.68 13.82 25.72C13.79 25.71 13.7 25.68 13.69 25.65L7.41 16.51ZM14.46 9.47L22.05 1.89C23.1 0.84 23.62 0.31 24.23 0.12C24.76 -0.05 25.28 -0.05 25.81 0.12C26.41 0.31 26.94 0.84 27.99 1.89L29.64 3.53L24.24 11.88C24.21 11.9 24.11 11.96 24.07 11.94C23.15 11.66 22.31 11.82 21.56 12.43C21.53 12.46 21.47 12.44 21.43 12.42C20.72 12.11 15.24 9.8 14.46 9.47ZM30.78 4.67L35.77 9.65L34.57 17.08C34.31 17.16 33.99 17.39 33.77 17.55C33.76 17.55 33.66 17.6 33.64 17.59L26.05 14.37C26 13.94 25.75 13.44 25.52 13.08C25.48 13.02 25.44 12.95 25.47 12.89L30.78 4.67ZM25.65 15.9L32.77 18.91C32.78 18.93 32.88 19.03 32.87 19.06C32.85 19.16 32.83 19.28 32.83 19.4L32.83 19.6C31.7 20.08 16.88 26.44 16.86 26.44C16.82 26.4 16.79 26.33 16.83 26.28L22.7 17.2C22.73 17.15 22.78 17.07 22.84 17.07C22.98 17.09 23.15 17.11 23.27 17.11C24.16 17.11 24.98 16.68 25.48 15.94C25.49 15.92 25.63 15.91 25.65 15.9ZM17.5 27.87L33.53 21.04C33.61 21.13 33.73 21.21 33.81 21.27L32.53 29.82C32.52 29.89 32.51 30 32.45 30C31.66 30.05 31.06 30.42 30.66 31.1C30.63 31.11 30.52 31.19 30.49 31.19L17.71 28.55C17.7 28.55 17.51 27.88 17.5 27.87Z" fill="url(#paint_radial_53_5_0)" fill-opacity="1.000000" fill-rule="nonzero"/>
</svg>
