<svg width="51" height="51" viewBox="0 0 51 51" fill="none" xmlns="http://www.w3.org/2000/svg">
<path fill-rule="evenodd" clip-rule="evenodd" d="M50.4912 8.41391C50.4912 5.90354 48.5065 3.86845 46.0578 3.86845C38.3312 3.86845 21.2732 3.86845 13.5465 3.86845C11.0981 3.86845 9.11317 5.90354 9.11317 8.41391C9.11317 17.0381 9.11317 37.1634 9.11317 45.7875C9.11317 48.2979 11.0981 50.333 13.5465 50.333C21.2732 50.333 38.3312 50.333 46.0578 50.333C48.5065 50.333 50.4912 48.2979 50.4912 45.7875C50.4912 37.1634 50.4912 17.0381 50.4912 8.41391Z" fill="#FA890F"/>
<path fill-rule="evenodd" clip-rule="evenodd" d="M13.5942 3.86845C11.5985 3.86845 9.84876 5.23573 9.31959 7.20864C7.48506 14.0485 2.94299 30.9826 0.649876 39.5319C0.283148 40.8995 0.559967 42.3643 1.39858 43.4923C2.2372 44.6205 3.54132 45.2826 4.92471 45.2826C13.476 45.2826 30.299 45.2826 37.1434 45.2826C39.1391 45.2826 40.8889 43.9154 41.418 41.9423C43.2526 35.1025 47.7947 18.1685 50.0878 9.61918C50.4547 8.25154 50.1777 6.78682 49.3392 5.65864C48.5006 4.53045 47.1965 3.86845 45.8131 3.86845H13.5942Z" fill="#E7EADF"/>
<path fill-rule="evenodd" clip-rule="evenodd" d="M30.3965 0.334455C32.5245 0.389727 34.2356 2.17827 34.2356 4.37355C34.2356 4.931 33.7941 5.38355 33.2504 5.38355C32.7237 5.38355 32.2929 4.95882 32.2665 4.42536L32.2626 4.26955C32.2098 3.20264 31.3483 2.35318 30.2949 2.35318C29.2073 2.35318 28.3244 3.25845 28.3244 4.37355C28.3244 4.931 27.883 5.38355 27.3393 5.38355C26.7956 5.38355 26.354 4.931 26.354 4.37355C26.354 2.14355 28.1199 0.333 30.2949 0.333L30.3965 0.334455Z" fill="#4E3D7C"/>
<path fill-rule="evenodd" clip-rule="evenodd" d="M19.5594 0.334455C21.6873 0.389727 23.3985 2.17827 23.3985 4.37355C23.3985 4.931 22.957 5.38355 22.4133 5.38355C21.8866 5.38355 21.4558 4.95882 21.4294 4.42536L21.4255 4.26955C21.3727 3.20264 20.5112 2.35318 19.4576 2.35318C18.3702 2.35318 17.4873 3.25845 17.4873 4.37355C17.4873 4.931 17.0459 5.38355 16.5022 5.38355C15.9585 5.38355 15.5169 4.931 15.5169 4.37355C15.5169 2.14355 17.2828 0.333 19.4576 0.333L19.5594 0.334455Z" fill="#4E3D7C"/>
<path fill-rule="evenodd" clip-rule="evenodd" d="M50.0709 9.63045C50.4417 8.26173 50.1672 6.79409 49.3288 5.66336C48.4905 4.53245 47.1846 3.86845 45.7993 3.86845C37.2402 3.86845 20.422 3.86845 13.5863 3.86845C11.5948 3.86845 9.84769 5.22991 9.31463 7.19736C8.59571 9.85082 7.65335 13.3292 7.65335 13.3292C7.61221 13.4812 7.64271 13.6443 7.73581 13.7699C7.82892 13.8957 7.97415 13.9694 8.12808 13.9694H48.5208C48.7421 13.9694 48.9363 13.8181 48.9956 13.5995C48.9956 13.5995 49.5114 11.6957 50.0709 9.63045Z" fill="#FFBC15"/>
<path fill-rule="evenodd" clip-rule="evenodd" d="M16.5527 3.36463C17.0563 3.391 17.4605 3.80536 17.486 4.32154L17.4899 4.47736C17.5428 5.54427 18.4043 6.39373 19.4576 6.39373C20.0015 6.39373 20.4429 6.84627 20.4429 7.40373C20.4429 7.96118 20.0015 8.41391 19.4576 8.41391C17.2828 8.41391 15.5169 6.60336 15.5169 4.37354C15.5169 3.81591 15.9585 3.36336 16.5022 3.36336L16.5527 3.36463Z" fill="#4E3D7C"/>
<path fill-rule="evenodd" clip-rule="evenodd" d="M27.39 3.36463C27.8934 3.391 28.2976 3.80536 28.3231 4.32154L28.327 4.47736C28.3799 5.54427 29.2414 6.39373 30.2949 6.39373C30.8386 6.39373 31.28 6.84627 31.28 7.40373C31.28 7.96118 30.8386 8.41391 30.2949 8.41391C28.1199 8.41391 26.354 6.60336 26.354 4.37354C26.354 3.81591 26.7956 3.36336 27.3393 3.36336L27.39 3.36463Z" fill="#4E3D7C"/>
<path fill-rule="evenodd" clip-rule="evenodd" d="M41.2336 0.334455C43.3616 0.389727 45.0727 2.17827 45.0727 4.37355C45.0727 4.931 44.6314 5.38355 44.0875 5.38355C43.5608 5.38355 43.13 4.95882 43.1036 4.42536L43.0997 4.26955C43.0469 3.20264 42.1854 2.35318 41.132 2.35318C40.0444 2.35318 39.1617 3.25845 39.1617 4.37355C39.1617 5.48845 40.0444 6.39373 41.132 6.39373C41.6757 6.39373 42.1171 6.84627 42.1171 7.40373C42.1171 7.96118 41.6757 8.41391 41.132 8.41391C38.957 8.41391 37.1911 6.60336 37.1911 4.37355C37.1911 2.14355 38.957 0.333 41.132 0.333L41.2336 0.334455Z" fill="#4E3D7C"/>
<path fill-rule="evenodd" clip-rule="evenodd" d="M12.9927 24.6021C15.4552 23.3725 18.0154 23.3965 20.5332 23.8512C23.2299 24.3379 25.8834 25.3154 28.3504 25.9474C32.0362 26.8915 35.331 27.0297 37.8878 24.4083C38.2723 24.0141 38.2723 23.3739 37.8878 22.9797C37.5034 22.5855 36.879 22.5855 36.4945 22.9797C35.2675 24.2379 33.8063 24.6099 32.1975 24.5508C30.3846 24.4841 28.3996 23.8965 26.3185 23.2759C21.763 21.9177 16.7946 20.4565 12.13 22.7859C11.6411 23.0301 11.4375 23.6352 11.6757 24.1363C11.9138 24.6375 12.504 24.8463 12.9927 24.6021Z" fill="#4E3D7C"/>
<path fill-rule="evenodd" clip-rule="evenodd" d="M11.0224 33.693C14.0777 32.1674 17.2798 32.563 20.3723 33.3361C20.9004 33.4683 21.434 33.1357 21.5628 32.5941C21.6917 32.0525 21.3673 31.5055 20.8391 31.3735C17.3057 30.4901 13.6506 30.1335 10.1596 31.8768C9.67071 32.121 9.46713 32.7261 9.70529 33.2272C9.94345 33.7285 10.5336 33.9372 11.0224 33.693Z" fill="#4E3D7C"/>
<path fill-rule="evenodd" clip-rule="evenodd" d="M24.4319 34.4948C26.5649 35.1232 28.6005 35.651 30.4581 35.6675C32.5008 35.6855 34.3443 35.1119 35.9175 33.4992C36.3019 33.105 36.3019 32.4648 35.9175 32.0706C35.533 31.6765 34.9086 31.6765 34.5242 32.0706C33.3605 33.2637 31.9862 33.6608 30.4749 33.6474C28.7785 33.6325 26.924 33.127 24.9759 32.5532C24.4533 32.3992 23.9071 32.7092 23.7571 33.245C23.6069 33.7808 23.9093 34.3408 24.4319 34.4948Z" fill="#4E3D7C"/>
</svg>
