<svg width="50.000000" height="50.000000" viewBox="0 0 50 50" fill="none" xmlns="http://www.w3.org/2000/svg" xmlns:xlink="http://www.w3.org/1999/xlink">
	<g opacity="0.000000">
		<rect id="Прямоугольник 28" width="50.000000" height="50.000000" fill="#C4C4C4" fill-opacity="1.000000"/>
	</g>
	<path id="path" d="M13.83 13.83C15.17 12.52 17.09 12.17 18.84 11.62C20.83 11.51 22.83 12.12 24.65 12.94C25.43 13.25 25.39 14.17 25.56 14.87C24.99 15 24.42 15.11 23.86 15.25C24.11 14.86 24.35 14.48 24.58 14.09C24.57 13.72 24.13 13.58 23.91 13.32L23.01 13.92L22.39 13.41C21.84 13.49 21.24 13.57 20.72 13.27C19.84 12.88 18.9 12.59 17.92 12.68C17.48 12.87 17.13 13.21 16.77 13.5C16.77 13.35 16.79 13.04 16.79 12.88C16.58 13.11 16.38 13.35 16.19 13.6C14.84 13.74 14.21 15.12 14.51 16.32C14.22 16.54 13.92 16.77 13.64 16.99C13.95 16.38 14.22 15.71 13.86 15.06C12.85 15.35 12.77 16.44 12.32 17.22C11.84 18.08 11.04 18.73 10.66 19.63C10.63 20.13 10.71 20.61 10.76 21.11C10.38 21 10 20.91 9.64 20.8C10.58 18.26 11.73 15.65 13.83 13.83Z" fill="#90E59A" fill-opacity="1.000000" fill-rule="nonzero"/>
	<path id="path" d="M16.77 13.52C17.15 13.22 17.48 12.87 17.92 12.69C18.9 12.6 19.84 12.9 20.72 13.29C20.6 13.83 20.41 14.36 20.16 14.86C19.4 14.47 18.65 14.05 17.94 13.6L18.36 14.44C18.21 14.65 18.03 14.86 17.87 15.08C17.56 14.67 17.25 14.27 16.95 13.85C16.84 14.45 16.38 14.9 15.75 14.56C15.89 14.24 16.03 13.92 16.17 13.61C16.36 13.36 16.57 13.13 16.77 12.9C16.79 13.04 16.77 13.35 16.77 13.52Z" fill="#5CCE74" fill-opacity="1.000000" fill-rule="nonzero"/>
	<path id="path" d="M20.72 13.27C21.24 13.57 21.83 13.49 22.39 13.41L23.01 13.92L23.91 13.32C24.11 13.58 24.57 13.72 24.58 14.09C24.36 14.48 24.11 14.87 23.86 15.25C23.72 15.28 23.43 15.34 23.31 15.39C23.59 15.73 23.87 16.07 24.16 16.4C22.96 16.46 22.09 15.65 21.18 15.06C20.35 15.18 19.75 16.07 18.88 16.16C18.46 15.98 18.06 15.73 17.67 15.48C17.53 15.93 17.43 16.4 17.17 16.79C16.77 17.05 16.27 17.05 15.81 17.18C15.83 17.38 15.86 17.6 15.88 17.8C15.39 17.33 14.79 16.9 14.1 17.21C14.6 17.72 13.84 17.92 13.5 18.16C12.82 18.53 12.06 19.01 11.99 19.85C11.8 20.33 12 21.08 11.45 21.34C10.81 21.52 10.14 21.41 9.5 21.39C9.55 21.24 9.62 20.94 9.67 20.78C10.05 20.89 10.43 20.99 10.79 21.1C10.73 20.6 10.65 20.12 10.69 19.62C11.07 18.72 11.88 18.06 12.35 17.21C12.8 16.43 12.88 15.34 13.89 15.04C14.25 15.7 13.99 16.37 13.67 16.97C13.95 16.74 14.24 16.52 14.54 16.3C14.24 15.11 14.87 13.72 16.22 13.58C16.08 13.89 15.94 14.22 15.8 14.53C16.41 14.87 16.88 14.42 16.99 13.81C17.29 14.24 17.61 14.64 17.92 15.04C18.08 14.83 18.24 14.62 18.41 14.41L17.98 13.57C18.71 14.02 19.45 14.42 20.2 14.83C20.41 14.36 20.6 13.83 20.72 13.27ZM14.44 23.16C14.79 23.23 15.12 23.29 15.47 23.37C15.07 24.41 14.52 25.47 14.58 26.62C14.79 27.37 15.42 27.93 15.89 28.53C15.2 28.73 14.24 28.58 13.77 29.22C13.48 30.46 14.63 31.18 15.37 31.94C14.3 31.55 13.1 30.99 12.73 29.82C13.25 29.19 13.89 28.67 14.57 28.17C13.59 26.71 13.17 24.57 14.44 23.16ZM25.35 25.79C25.61 26.01 25.87 26.23 26.13 26.43C26.16 26.85 26.19 27.29 26.2 27.71C25.76 27.15 25.37 26.54 25.35 25.79ZM32.06 26.12C32.33 25.75 32.79 25.78 33.07 26.11C33.6 26.79 33.9 27.6 34.27 28.38C34.72 28.41 35.18 28.44 35.62 28.47C34.72 28.8 33.87 29.29 33.75 30.32C33.37 29.79 33.92 29.31 34.14 28.83C33.64 27.79 32.41 27.26 32.06 26.12ZM19.21 26.79L19.48 26.65C19.53 27.35 19.86 28.16 19.34 28.75C18.82 28.7 18.32 28.67 17.81 28.58C18.49 28.14 18.99 27.6 19.21 26.79ZM26.2 27.72C26.58 28.22 27.01 28.66 27.48 29.06C27.98 28.49 29.1 27.57 29.56 28.66C28.8 29.01 27.86 29.28 27.61 30.18C27.61 30.21 27.59 30.26 27.59 30.29C27.7 31.08 28 31.85 28.24 32.61C26.5 31.5 27.54 29.12 26.2 27.72ZM35.62 27.94C36.36 28.02 37.15 28.19 37.71 28.73C37.01 28.69 36.28 28.72 35.62 28.47L35.62 27.94ZM33.76 31.96C34.66 32.34 35.54 32.76 36.49 33.08C37.02 32.86 37.78 31.69 38.22 32.55C37.52 33.17 36.56 33.81 35.59 33.59C34.83 33.23 34.34 32.52 33.76 31.96ZM8.77 32.09C8.95 32.13 9.28 32.17 9.47 32.19C10.22 33.92 10.25 35.92 11.29 37.54C11.89 38.5 12.38 39.52 12.95 40.5C13.54 41.51 14.54 42.19 15.47 42.89C17.45 44.34 20.72 44.12 22.13 41.99C23.02 40.09 21.91 38.08 21.13 36.34C19.81 34.29 16.36 35.84 16.46 38.08C16.06 35.86 18.95 33.98 20.87 35.11C22.24 35.98 22.61 37.63 23.15 39.05C23.78 40.74 22.85 42.75 21.23 43.5C19.97 44.29 18.43 43.98 17.02 43.98C15.1 43.89 13.86 42.35 12.62 41.12C11.4 39.66 10.62 37.91 9.67 36.26C9.17 34.94 8.88 33.53 8.77 32.09ZM18.98 37.79C19.2 38.04 19.37 38.32 19.59 38.58C19.06 39.27 18.19 39.24 17.42 39.13C17.1 38.78 16.77 38.44 16.46 38.1C17.21 38.55 18.06 39.47 19.01 38.89C18.98 38.52 18.98 38.16 18.98 37.79Z" fill="#75D66F" fill-opacity="1.000000" fill-rule="nonzero"/>
	<path id="path" d="M18.85 16.16C19.72 16.07 20.32 15.18 21.15 15.06C22.08 15.67 22.94 16.46 24.13 16.4C23.84 16.06 23.56 15.71 23.28 15.39C23.42 15.35 23.7 15.28 23.83 15.25C24.39 15.11 24.96 15 25.53 14.87C25.67 15.4 25.81 15.95 25.98 16.48C25.72 16.74 25.45 17.02 25.16 17.28C25.75 18.08 26.28 18.92 26.87 19.71C28.08 19.38 28.85 20.54 29.38 21.44C28.3 21.38 27.07 21.36 26.22 20.58C25.7 20.12 25.2 19.63 24.65 19.18L23.65 19.46C23.39 18.82 23.23 17.98 22.41 17.83C22.47 18.16 22.55 18.47 22.61 18.79C22.13 19.07 21.59 19.2 21.04 19.04C21.26 18.59 21.5 18.16 21.73 17.7C21.06 17.64 20.66 18.22 20.28 18.67C20.2 18.44 20.13 18.2 20.06 17.97C19.81 17.94 19.58 17.88 19.32 17.86C18.96 17.94 18.82 18.45 18.43 18.47C17.78 18.4 17.17 18.14 16.5 18.11C15.72 18.22 14.98 18.56 14.21 18.78C13.95 18.58 13.69 18.37 13.43 18.17C13.78 17.92 14.55 17.74 14.03 17.22C14.74 16.91 15.32 17.35 15.81 17.81C15.8 17.61 15.76 17.39 15.75 17.19C16.21 17.08 16.69 17.07 17.1 16.8C17.37 16.41 17.47 15.93 17.61 15.5C18.03 15.73 18.43 15.98 18.85 16.16Z" fill="#8FE772" fill-opacity="1.000000" fill-rule="nonzero"/>
	<path id="path" d="M25.18 17.28C25.45 17.02 25.72 16.74 26 16.48C26.27 17.27 26.61 18.08 27.29 18.61C28.42 19.46 29.61 20.4 31.02 20.72C32.28 20.96 33.67 20.82 34.75 20.1C35.7 19.26 36.14 18.03 37.12 17.22C38.03 17.67 39.05 17.88 39.93 18.39C40.85 18.96 41.29 19.99 41.84 20.88C41.24 20.99 40.66 21.11 40.06 21.24C40.28 21.61 40.52 22 40.75 22.37C40.6 22.6 40.44 22.84 40.3 23.09C40 22.62 39.71 22.15 39.43 21.69C38.78 21.84 38.17 22.09 37.62 22.43L37.81 23.32C36.42 22.62 34.94 23.32 33.7 24.01C33.32 24.21 32.93 24.44 32.55 24.64C31.76 24.22 30.99 23.79 30.16 23.46C29.83 23.99 29.43 24.5 29.04 25C28.9 24.6 28.74 24.19 28.61 23.77C28.47 23.79 28.19 23.83 28.05 23.85C27.98 24.43 28 25 28.08 25.58C27.7 25.53 27.31 25.48 26.93 25.44C27.1 24.66 27.31 23.9 27.46 23.1C27.27 23.12 26.88 23.15 26.69 23.16C26.05 24.15 26.02 25.33 26.14 26.46C25.87 26.25 25.62 26.03 25.37 25.83C25.4 25.02 25.51 24.22 25.57 23.41C24.72 23.06 24.38 24.02 24.22 24.64C23.75 24.49 23.28 24.35 22.82 24.18C21.76 23.85 21.07 22.93 20.05 22.53C19.51 22.31 19.12 21.87 18.71 21.48C18.66 21.64 18.57 21.95 18.54 22.11C18.95 22.79 18.95 23.68 18.14 24.1C17.89 24.07 17.39 24.01 17.12 23.96C17.97 24.81 19.21 24.97 20.33 25.27L19.7 25.7C18.63 25.36 17.47 25.33 16.46 24.78C16.43 24.38 16.38 23.96 16.35 23.55C16.05 23.49 15.76 23.45 15.47 23.38C15.12 23.32 14.79 23.26 14.44 23.18C14.19 22.88 13.91 22.37 13.45 22.64C13.09 22.96 12.79 23.35 12.44 23.71C12.24 23.43 12.02 23.15 11.81 22.87C10.27 23.06 10.4 24.89 9.4 25.72C8.77 26.17 8.81 27.02 8.22 27.52C8.14 26.82 8.1 26.14 8.18 25.44C8.49 24.21 9.04 23.06 9.36 21.81C9.39 21.72 9.44 21.52 9.47 21.41C10.11 21.44 10.79 21.53 11.42 21.36C11.97 21.1 11.75 20.35 11.95 19.87C12.05 19.03 12.79 18.54 13.47 18.17C13.72 18.37 13.99 18.58 14.24 18.78C15.01 18.54 15.75 18.22 16.54 18.11C17.2 18.14 17.81 18.4 18.46 18.47C18.85 18.45 18.98 17.94 19.35 17.86C19.61 17.88 19.84 17.94 20.09 17.97C20.17 18.2 20.25 18.44 20.32 18.67C20.71 18.22 21.09 17.64 21.76 17.7C21.53 18.16 21.31 18.59 21.07 19.04C21.62 19.2 22.16 19.06 22.65 18.79C22.57 18.47 22.5 18.16 22.44 17.83C23.26 17.97 23.42 18.81 23.68 19.46L24.68 19.18C25.21 19.63 25.73 20.12 26.25 20.58C27.1 21.36 28.33 21.38 29.42 21.44C28.9 20.55 28.11 19.38 26.9 19.71C26.31 18.92 25.76 18.08 25.18 17.28Z" fill="#A9F37E" fill-opacity="1.000000" fill-rule="nonzero"/>
	<path id="path" d="M40.08 21.24C40.67 21.11 41.26 21 41.85 20.88C42.04 21.28 42.2 21.69 42.36 22.09C40.72 23.71 38.31 24.13 36.16 24.63C35.26 24.89 34.42 24.43 33.68 24.01C34.93 23.34 36.41 22.62 37.79 23.32L37.6 22.43C38.17 22.09 38.78 21.84 39.41 21.69C39.7 22.15 40 22.62 40.28 23.09C40.42 22.85 40.58 22.6 40.74 22.37C40.53 22 40.3 21.61 40.08 21.24Z" fill="#87DE71" fill-opacity="1.000000" fill-rule="nonzero"/>
	<path id="path" d="M19.59 38.58C19.37 38.33 19.2 38.04 18.98 37.79C18.98 38.16 18.99 38.52 19.01 38.89C18.06 39.47 17.21 38.55 16.46 38.1C16.77 38.44 17.1 38.77 17.42 39.13C18.19 39.24 19.06 39.27 19.59 38.58Z" fill="#000000" fill-opacity="0" fill-rule="nonzero"/>
	<path id="path" d="M11.86 29.75C11.28 29.08 10.29 29.39 9.5 29.28C8.65 29.33 7.29 29.14 6.96 30.17C8.51 30.21 10.05 30.23 11.59 30.31C11.67 30.17 11.8 29.89 11.86 29.75Z" fill="#000000" fill-opacity="0" fill-rule="nonzero"/>
	<path id="path" d="M29.24 27.63C30.09 29 31.76 28.83 33.16 28.8C32.58 28.25 31.87 27.83 31.38 27.19C31.1 26.93 30.99 26.4 30.55 26.35C29.7 26.46 28.85 26.59 27.98 26.56L27.94 26.56L27.04 26.56C26.99 27.07 26.99 27.58 26.99 28.1C27.2 28.21 27.62 28.42 27.83 28.55C28.11 28 28.68 27.79 29.24 27.63Z" fill="#000000" fill-opacity="0" fill-rule="nonzero"/>
	<path id="path" d="M6.41 29.26L6.35 29.09C6.32 29.15 6.27 29.28 6.25 29.34L6.08 29.54C6.05 29.57 5.99 29.65 5.97 29.68C5.56 30.03 5.64 30.55 5.59 31.02C5.66 31.13 5.8 31.36 5.86 31.49C6.57 31.91 6.43 30.37 5.94 30.34C6.24 29.98 6.57 29.64 6.66 29.17L6.41 29.26Z" fill="#000000" fill-opacity="0" fill-rule="nonzero"/>
	<path id="path" d="M8.77 32.09C8.88 33.51 9.17 34.94 9.66 36.28C10.6 37.91 11.39 39.66 12.6 41.13C13.86 42.36 15.1 43.9 17.01 44C18.41 44 19.97 44.31 21.21 43.51C22.83 42.77 23.76 40.76 23.13 39.06C22.6 37.66 22.2 36 20.85 35.13C18.93 33.99 16.05 35.88 16.44 38.1C16.35 35.86 19.8 34.3 21.12 36.36C21.89 38.08 22.99 40.11 22.11 42.01C20.69 44.14 17.43 44.35 15.45 42.91C14.52 42.21 13.53 41.52 12.93 40.51C12.36 39.55 11.86 38.52 11.28 37.56C10.25 35.92 10.21 33.93 9.45 32.2C9.28 32.17 8.95 32.13 8.77 32.09Z" fill="#000000" fill-opacity="0" fill-rule="nonzero"/>
	<path id="path" d="M7.34 30.99C7.39 31.1 7.5 31.32 7.56 31.43C9.25 31.6 10.93 31.47 12.62 31.47C12.55 31.39 12.43 31.25 12.35 31.18C10.68 31.11 9.01 30.73 7.34 30.99Z" fill="#000000" fill-opacity="0" fill-rule="nonzero"/>
	<path id="path" d="M33.07 26.11C32.79 25.78 32.33 25.75 32.06 26.12C32.41 27.24 33.64 27.79 34.14 28.83C33.92 29.29 33.37 29.79 33.75 30.32C33.89 29.31 34.74 28.8 35.62 28.47C35.16 28.44 34.71 28.41 34.27 28.38C33.9 27.6 33.59 26.79 33.07 26.11Z" fill="#000000" fill-opacity="0" fill-rule="nonzero"/>
	<path id="path" d="M4.44 28.97C4.27 29.36 4.07 29.76 3.86 30.13C4.03 30.63 4.3 31.1 4.62 31.52C4.71 31.47 4.9 31.39 4.98 31.36C4.3 30.59 4.84 29.65 5.28 28.91C5 28.95 4.71 28.97 4.44 28.97Z" fill="#000000" fill-opacity="0" fill-rule="nonzero"/>
	<path id="path" d="M37.71 28.73C37.16 28.21 36.39 28.03 35.64 27.96L35.62 27.96L35.62 28.47C36.28 28.72 37.01 28.69 37.71 28.73Z" fill="#000000" fill-opacity="0" fill-rule="nonzero"/>
	<path id="path" d="M13.54 27.91C12.9 26.9 12.68 25.72 13.07 24.57C12.79 24.64 12.51 24.71 12.22 24.77C11.59 25.87 10.74 27.01 10.93 28.35C11.81 28.35 12.73 28.33 13.54 27.91Z" fill="#000000" fill-opacity="0" fill-rule="nonzero"/>
	<path id="path" d="M3.88 28.61C3.34 28.7 2.81 28.72 2.27 28.64C1.96 29.19 1.55 29.68 0.98 29.99C0.41 30.34 0.67 31.13 0.76 31.66C1.77 31.85 2.81 31.78 3.83 31.83C3.58 31.25 3.23 30.71 3.09 30.1C3.01 29.47 3.85 29.22 3.88 28.61Z" fill="#000000" fill-opacity="0" fill-rule="nonzero"/>
	<path id="path" d="M17.56 27.51C17.62 27.15 17.72 26.77 17.8 26.42C17.21 25.87 16.33 25.89 15.61 25.69C15.4 26.67 15.62 27.65 16.21 28.45C16.63 28.13 17.07 27.77 17.56 27.51Z" fill="#000000" fill-opacity="0" fill-rule="nonzero"/>
	<path id="path" d="M38.36 30.91C36.82 31.18 35.24 30.99 33.7 31.19C32.05 30.87 30.36 30.82 28.68 30.94C28.69 31.1 28.71 31.41 28.72 31.57C30.38 31.46 32.06 31.63 33.7 31.29C35.13 31.6 36.6 31.47 38.04 31.38C38.78 31.3 39.46 31.75 40.19 31.67C40.33 30.68 38.99 30.96 38.36 30.91Z" fill="#000000" fill-opacity="0" fill-rule="nonzero"/>
	<path id="path" d="M34.8 29.65C34.74 29.76 34.61 29.99 34.55 30.12C35.48 30.4 36.47 30.23 37.41 30.35C38.64 30.52 39.97 30.66 41.11 30.09C40.72 29.84 40.36 29.47 39.89 29.37C38.19 29.28 36.49 29.5 34.8 29.65Z" fill="#000000" fill-opacity="0" fill-rule="nonzero"/>
	<path id="path" d="M36.49 33.08C35.56 32.76 34.66 32.36 33.76 31.95C34.34 32.51 34.83 33.23 35.57 33.59C36.55 33.81 37.51 33.17 38.2 32.55C37.78 31.69 37.02 32.86 36.49 33.08Z" fill="#000000" fill-opacity="0" fill-rule="nonzero"/>
	<path id="path" d="M30.05 29.57C29.67 29.67 28.85 29.54 28.94 30.18C30.01 30.24 31.1 30.24 32.17 30.21C32.61 30.23 32.8 30.01 32.75 29.56C31.86 29.56 30.94 29.51 30.05 29.57Z" fill="#000000" fill-opacity="0" fill-rule="nonzero"/>
	<path id="path" d="M42.59 29.33C42.55 29.7 42.52 30.07 42.48 30.45C42.33 30.54 42.03 30.73 41.89 30.83C41.89 31.18 41.85 31.53 41.84 31.88C43.15 31.85 44.34 31.3 45.62 31.05C45.82 30.65 45.7 30.2 45.7 29.76C44.64 29.67 43.65 29.28 42.59 29.33Z" fill="#000000" fill-opacity="0" fill-rule="nonzero"/>
	<path id="path" d="M19.48 26.67L19.21 26.81C18.99 27.61 18.49 28.16 17.81 28.59C18.32 28.69 18.82 28.72 19.34 28.77C19.86 28.16 19.53 27.35 19.48 26.67Z" fill="#000000" fill-opacity="0" fill-rule="nonzero"/>
	<path id="path" d="M25.95 28.94C25.65 28.21 25.37 27.4 24.72 26.9C23.35 26.96 21.98 26.91 20.61 26.96C20.44 27.6 20.22 28.21 20.09 28.86C22.03 29.03 24 28.95 25.95 28.94Z" fill="#000000" fill-opacity="0" fill-rule="nonzero"/>
	<path id="path" d="M27.61 30.18C27.86 29.28 28.8 29.01 29.56 28.66C29.09 27.55 27.98 28.49 27.48 29.06C27.1 28.73 26.76 28.38 26.44 28C27.42 29.42 26.63 31.58 28.24 32.62C28 31.86 27.72 31.1 27.59 30.31L27.61 30.18Z" fill="#000000" fill-opacity="0" fill-rule="nonzero"/>
	<path id="path" d="M17.87 30.2C18.82 29.92 19.72 30.54 20.66 30.54C22.47 30.59 24.28 30.59 26.09 30.51C26.08 30.31 26.05 29.89 26.03 29.68C23.62 29.68 21.13 29.33 18.79 29.99C18.13 29.98 17.51 29.68 16.87 29.57C16.43 28.98 15.28 29.4 14.55 29.23C14.66 29.56 14.76 29.9 14.85 30.23C15.43 30.24 16.03 30.26 16.62 30.26C16.99 30.66 17.47 30.23 17.87 30.2Z" fill="#000000" fill-opacity="0" fill-rule="nonzero"/>
	<path id="path" d="M15.73 31.15C15.88 31.33 16.02 31.53 16.16 31.72C16.73 31.74 17.31 31.75 17.87 31.78C20.6 31.8 23.31 31.85 26.03 31.75C26.08 31.66 26.17 31.49 26.24 31.41C23.45 31.22 20.66 31.19 17.87 31.15C17.17 31.16 16.46 31.16 15.73 31.15Z" fill="#000000" fill-opacity="0" fill-rule="nonzero"/>
	<path id="path" d="M28.17 17.6L28.14 17.78C29.49 19.12 31.51 19.94 33.4 19.4C34.12 19.01 34.85 18.53 35.19 17.77C36.38 15.36 36.58 12.51 35.78 9.96C35.05 9.44 34.36 8.85 33.93 8.07C33.07 6.89 31.64 5.65 30.06 6.21C28.46 6.43 27.32 7.83 26.88 9.29C26.28 11.15 26.08 13.27 26.9 15.11C27.05 16.02 27.23 17.16 28.17 17.6ZM31.2 13.01C31.54 14.02 30.97 15.42 29.72 15.43C29.15 15.04 28.36 14.69 28.49 13.88C28.27 12.38 30.31 12.43 31.2 13.01Z" fill="#FBFDFC" fill-opacity="1.000000" fill-rule="nonzero"/>
	<path id="path" d="M41.79 18.89C42.52 18.12 43.4 17.53 44.17 16.83C45.49 14.92 46.61 12.38 45.6 10.08C45.26 8.56 43.46 8.03 42.06 8.2C40.22 8.51 38.19 9.16 37.21 10.89C37.24 12.57 37.51 14.25 37.16 15.92C38.96 16.38 40.91 17.16 41.79 18.89ZM43.11 11.81C43.48 11.73 43.85 11.64 44.22 11.53C44.63 12.15 44.61 13.04 44.39 13.72C43.67 14.42 42.63 13.71 42.33 12.94C42.59 12.55 42.86 12.18 43.11 11.81Z" fill="#FBFDFC" fill-opacity="1.000000" fill-rule="nonzero"/>
	<path id="path" d="" fill="#231F20" fill-opacity="1.000000" fill-rule="nonzero"/>
	<path id="path" d="M41.79 18.89C42.52 18.12 43.4 17.53 44.17 16.83C45.49 14.92 46.61 12.38 45.6 10.08C45.26 8.56 43.46 8.03 42.06 8.2C40.22 8.51 38.19 9.16 37.21 10.89C37.24 12.57 37.51 14.25 37.16 15.92C38.96 16.38 40.91 17.16 41.79 18.89ZM43.11 11.81C43.48 11.73 43.85 11.64 44.22 11.53C44.63 12.15 44.61 13.04 44.39 13.72C43.67 14.42 42.63 13.71 42.33 12.94C42.59 12.55 42.86 12.18 43.11 11.81Z" fill="#000000" fill-opacity="0" fill-rule="nonzero"/>
	<path id="path" d="M11.61 30.31L11.86 29.75C11.28 29.08 10.29 29.39 9.5 29.28C8.84 29.33 7.89 29.22 7.34 29.64L7.34 30.18C8.76 30.21 10.19 30.24 11.61 30.31Z" fill="#000000" fill-opacity="0" fill-rule="nonzero"/>
	<path id="path" d="M13.07 24.57C12.79 24.64 12.51 24.71 12.22 24.77C11.59 25.87 10.74 27.01 10.93 28.35C11.83 28.35 12.74 28.33 13.54 27.91C12.9 26.9 12.68 25.72 13.07 24.57Z" fill="#000000" fill-opacity="0" fill-rule="nonzero"/>
	<path id="path" d="M13.77 29.2C14.24 28.56 15.18 28.72 15.89 28.52C15.42 27.91 14.77 27.37 14.58 26.6C14.52 25.47 15.07 24.41 15.47 23.35C15.76 23.41 16.05 23.46 16.35 23.52C16.39 23.93 16.43 24.33 16.46 24.75C17.47 25.3 18.63 25.33 19.7 25.67C21.18 26.15 22.77 25.98 24.27 25.64C24.24 25.3 24.22 24.95 24.22 24.61C24.38 23.99 24.72 23.02 25.57 23.38C25.5 24.19 25.4 24.99 25.37 25.79C25.39 26.53 25.76 27.15 26.22 27.71C26.2 27.29 26.17 26.85 26.14 26.43C26.02 25.31 26.05 24.11 26.69 23.13C26.88 23.12 27.27 23.09 27.46 23.07C27.31 23.85 27.1 24.63 26.93 25.41C27.31 25.45 27.7 25.5 28.08 25.55C29.62 25.72 31.18 25.33 32.55 24.61C32.94 24.41 33.32 24.19 33.7 23.97C34.44 24.41 35.27 24.86 36.17 24.6C38.33 24.1 40.74 23.68 42.37 22.06C42.25 21.73 42.11 21.41 41.97 21.08L41.87 20.85C41.34 19.96 40.89 18.93 39.97 18.36C39.08 17.84 38.06 17.63 37.15 17.19C36.17 18 35.71 19.23 34.79 20.07C33.7 20.78 32.31 20.92 31.05 20.69C29.62 20.36 28.46 19.43 27.32 18.58C26.63 18.05 26.28 17.24 26.03 16.44C25.87 15.92 25.72 15.39 25.57 14.84C25.4 14.16 25.45 13.24 24.66 12.91L24.57 12.87C22.79 12.06 20.83 11.47 18.85 11.57C17.12 12.1 15.2 12.48 13.84 13.78C11.75 15.6 10.58 18.2 9.66 20.75C9.61 20.91 9.53 21.2 9.48 21.36C9.45 21.47 9.4 21.66 9.37 21.76C9.06 22.99 8.51 24.16 8.19 25.39C8.11 26.09 8.16 26.79 8.24 27.47C8.24 27.6 8.25 27.86 8.27 28C8.7 28 9.12 28.02 9.55 28.03C10.43 26.53 10.99 24.77 12.46 23.66C12.8 23.32 13.1 22.93 13.47 22.59C13.92 22.34 14.22 22.85 14.46 23.13C13.18 24.53 13.61 26.68 14.6 28.13C13.94 28.61 13.28 29.12 12.76 29.78C13.12 30.94 14.32 31.5 15.4 31.89C14.63 31.16 13.48 30.45 13.77 29.2Z" fill="#000000" fill-opacity="0" fill-rule="nonzero"/>
	<path id="path" d="M24.71 26.9C23.34 26.96 21.97 26.91 20.6 26.96C20.43 27.6 20.21 28.21 20.08 28.86C22.03 29.03 24 28.97 25.95 28.94C25.65 28.21 25.37 27.4 24.71 26.9Z" fill="#000000" fill-opacity="0" fill-rule="nonzero"/>
	<path id="path" d="M19.59 38.58C19.37 38.33 19.2 38.04 18.98 37.79C18.98 38.16 18.99 38.52 19.01 38.89C18.06 39.47 17.21 38.55 16.46 38.1C16.77 38.44 17.1 38.77 17.42 39.13C18.19 39.24 19.06 39.27 19.59 38.58Z" fill="#000000" fill-opacity="0" fill-rule="nonzero"/>
	<path id="path" d="M12.62 31.47C12.55 31.39 12.43 31.25 12.35 31.18C10.68 31.11 9.01 30.73 7.34 30.99C7.39 31.1 7.5 31.32 7.56 31.43C9.23 31.6 10.93 31.47 12.62 31.47Z" fill="#000000" fill-opacity="0" fill-rule="nonzero"/>
	<path id="path" d="M8.77 32.09C8.88 33.51 9.17 34.94 9.66 36.28C10.6 37.91 11.39 39.66 12.6 41.13C13.86 42.36 15.1 43.9 17.01 44C18.41 44 19.97 44.31 21.21 43.51C22.83 42.77 23.76 40.76 23.13 39.06C22.6 37.66 22.2 36 20.85 35.13C18.93 33.99 16.05 35.88 16.44 38.1C16.35 35.86 19.8 34.3 21.12 36.36C21.89 38.08 22.99 40.11 22.11 42.01C20.69 44.14 17.43 44.35 15.45 42.91C14.52 42.21 13.53 41.52 12.93 40.51C12.36 39.55 11.86 38.52 11.28 37.56C10.25 35.92 10.21 33.93 9.45 32.2C9.28 32.17 8.95 32.13 8.77 32.09Z" fill="#000000" fill-opacity="0" fill-rule="nonzero"/>
	<path id="path" d="M30.05 29.57C29.67 29.67 28.85 29.54 28.94 30.18C30.01 30.24 31.1 30.24 32.17 30.21C32.61 30.23 32.8 30.01 32.75 29.56C31.86 29.56 30.94 29.51 30.05 29.57Z" fill="#000000" fill-opacity="0" fill-rule="nonzero"/>
	<path id="path" d="M31.38 27.19C31.1 26.93 30.99 26.4 30.55 26.35C29.7 26.46 28.85 26.59 27.98 26.56L27.94 26.56L27.04 26.56C26.99 27.07 26.99 27.58 26.99 28.1C27.2 28.21 27.62 28.42 27.83 28.55C28.12 28 28.69 27.79 29.26 27.63C30.11 29 31.78 28.83 33.18 28.8C32.58 28.25 31.87 27.82 31.38 27.19Z" fill="#000000" fill-opacity="0" fill-rule="nonzero"/>
	<path id="path" d="M28.17 17.6L28.14 17.78C29.49 19.12 31.51 19.94 33.4 19.4C34.12 19.01 34.85 18.53 35.19 17.77C36.38 15.36 36.58 12.51 35.78 9.96C35.05 9.44 34.36 8.85 33.93 8.07C33.07 6.89 31.64 5.65 30.06 6.21C28.46 6.43 27.32 7.83 26.88 9.29C26.28 11.15 26.08 13.27 26.9 15.11C27.05 16.02 27.23 17.16 28.17 17.6ZM31.2 13.01C31.54 14.02 30.97 15.42 29.72 15.43C29.15 15.04 28.36 14.69 28.49 13.88C28.27 12.38 30.31 12.43 31.2 13.01Z" fill="#000000" fill-opacity="0" fill-rule="nonzero"/>
	<path id="path" d="M34.8 29.65C34.74 29.76 34.61 29.99 34.55 30.12C35.48 30.4 36.47 30.23 37.41 30.35C38.64 30.52 39.97 30.66 41.11 30.09C40.72 29.84 40.36 29.47 39.89 29.37C38.19 29.28 36.49 29.5 34.8 29.65Z" fill="#000000" fill-opacity="0" fill-rule="nonzero"/>
	<path id="path" d="M38.36 30.91C36.82 31.18 35.24 30.99 33.7 31.19C32.05 30.87 30.36 30.82 28.68 30.94C28.69 31.1 28.71 31.41 28.72 31.57C30.38 31.46 32.06 31.63 33.7 31.29C35.13 31.6 36.6 31.47 38.04 31.38C38.78 31.3 39.46 31.75 40.19 31.67C40.33 30.68 38.99 30.96 38.36 30.91Z" fill="#000000" fill-opacity="0" fill-rule="nonzero"/>
	<path id="path" d="M36.49 33.08C35.56 32.76 34.66 32.36 33.76 31.95C34.34 32.51 34.83 33.23 35.57 33.59C36.55 33.81 37.51 33.17 38.2 32.55C37.78 31.69 37.02 32.86 36.49 33.08Z" fill="#000000" fill-opacity="0" fill-rule="nonzero"/>
	<path id="path" d="M42.59 29.33C42.55 29.7 42.52 30.07 42.48 30.45C42.33 30.54 42.03 30.73 41.89 30.83C41.89 31.18 41.85 31.53 41.84 31.88C43.15 31.85 44.34 31.3 45.62 31.05C45.82 30.65 45.7 30.2 45.7 29.76C44.64 29.67 43.65 29.28 42.59 29.33Z" fill="#000000" fill-opacity="0" fill-rule="nonzero"/>
	<path id="path" d="M33.07 26.11C32.79 25.78 32.33 25.75 32.06 26.12C32.41 27.24 33.64 27.79 34.14 28.83C33.92 29.29 33.37 29.79 33.75 30.32C33.89 29.31 34.74 28.8 35.62 28.47C35.16 28.44 34.71 28.41 34.27 28.38C33.9 27.6 33.59 26.79 33.07 26.11Z" fill="#000000" fill-opacity="0" fill-rule="nonzero"/>
	<path id="path" d="M17.87 30.2C18.82 29.92 19.72 30.54 20.66 30.54C22.47 30.59 24.28 30.59 26.09 30.51C26.08 30.31 26.05 29.89 26.03 29.68C23.62 29.68 21.13 29.33 18.79 29.99C18.13 29.98 17.51 29.68 16.87 29.57C16.43 28.98 15.28 29.4 14.55 29.23C14.66 29.56 14.76 29.9 14.85 30.23C15.43 30.24 16.03 30.26 16.62 30.26C16.99 30.66 17.47 30.23 17.87 30.2Z" fill="#000000" fill-opacity="0" fill-rule="nonzero"/>
	<path id="path" d="M15.73 31.15C15.88 31.33 16.02 31.53 16.16 31.72C16.73 31.74 17.31 31.75 17.87 31.78C20.6 31.8 23.31 31.85 26.03 31.75C26.08 31.66 26.17 31.49 26.24 31.41C23.45 31.22 20.66 31.19 17.87 31.15C17.17 31.16 16.46 31.16 15.73 31.15Z" fill="#000000" fill-opacity="0" fill-rule="nonzero"/>
	<path id="path" d="M16.19 28.47C16.63 28.13 17.07 27.79 17.54 27.52C17.61 27.16 17.7 26.79 17.78 26.43C17.2 25.89 16.32 25.9 15.59 25.7C15.4 26.67 15.62 27.65 16.19 28.47Z" fill="#000000" fill-opacity="0" fill-rule="nonzero"/>
	<path id="path" d="M17.81 28.58C18.32 28.67 18.82 28.7 19.34 28.75C19.86 28.16 19.53 27.35 19.48 26.65L19.21 26.79C18.99 27.6 18.49 28.14 17.81 28.58Z" fill="#000000" fill-opacity="0" fill-rule="nonzero"/>
	<path id="path" d="M27.61 30.18C27.86 29.28 28.8 29.01 29.56 28.66C29.09 27.55 27.98 28.49 27.48 29.06C27.1 28.73 26.76 28.38 26.44 28C27.42 29.42 26.63 31.58 28.24 32.62C28 31.86 27.72 31.1 27.59 30.31L27.61 30.18Z" fill="#000000" fill-opacity="0" fill-rule="nonzero"/>
	<path id="path" d="M4.44 28.97C4.27 29.36 4.07 29.76 3.86 30.13C4.03 30.63 4.3 31.1 4.62 31.52C4.71 31.47 4.9 31.39 4.98 31.36C4.3 30.59 4.84 29.65 5.28 28.91C5 28.95 4.71 28.97 4.44 28.97Z" fill="#FFFFFF" fill-opacity="1.000000" fill-rule="nonzero"/>
	<path id="path" d="M6.41 29.26L6.35 29.09C6.32 29.15 6.27 29.28 6.25 29.34L6.08 29.54C6.05 29.57 5.99 29.65 5.97 29.68C5.56 30.03 5.64 30.55 5.59 31.02C5.66 31.13 5.8 31.36 5.86 31.49C6.57 31.91 6.43 30.37 5.94 30.34C6.24 29.98 6.57 29.64 6.66 29.17L6.41 29.26Z" fill="#FFFFFF" fill-opacity="1.000000" fill-rule="nonzero"/>
	<path id="path" d="M29.72 15.43C30.97 15.43 31.53 14.02 31.2 13.01C30.31 12.43 28.28 12.38 28.49 13.86C28.36 14.67 29.15 15.04 29.72 15.43Z" fill="#231F20" fill-opacity="1.000000" fill-rule="nonzero"/>
	<path id="path" d="M44.39 13.71C44.61 13.02 44.63 12.13 44.22 11.51C43.85 11.62 43.49 11.71 43.11 11.79C42.85 12.17 42.59 12.54 42.33 12.91C42.63 13.69 43.65 14.41 44.39 13.71Z" fill="#231F20" fill-opacity="1.000000" fill-rule="nonzero"/>
	<path id="path" d="M43.7 28.75C42.08 28.47 40.44 28.73 38.82 28.7C38.09 28.22 37.38 27.66 36.49 27.6C36.2 27.72 35.92 27.83 35.64 27.94C36.38 28.02 37.15 28.19 37.71 28.72C37.01 28.67 36.28 28.7 35.62 28.45C34.72 28.78 33.87 29.28 33.75 30.31C33.37 29.78 33.92 29.29 34.14 28.81C33.64 27.77 32.42 27.23 32.06 26.11C32.33 25.73 32.79 25.76 33.07 26.09C33.6 26.77 33.9 27.58 34.27 28.36C34.72 28.39 35.18 28.42 35.62 28.45L35.64 27.94C35.41 28.03 35.16 28.13 34.94 28.24C34.55 27.38 34.22 26.51 33.93 25.62C34.47 25.75 34.99 25.93 35.53 26.04C37.98 25.67 40.61 25.19 42.53 23.51C42.94 23.1 43.67 22.74 43.54 22.08C43.49 21.73 43.38 21.41 43.22 21.11C42.96 20.55 42.58 20.04 42.34 19.45C42.89 19.24 43.46 19.04 44 18.79C45.92 16.94 46.88 14.3 47.08 11.68C46.89 10.3 46.5 8.77 45.41 7.79C43.43 6.81 41.1 7.13 39.08 7.84C38.17 8.2 37.51 8.93 36.74 9.52C36.12 9.38 35.75 8.68 35.34 8.21C34.55 6.89 33.48 5.68 32.01 5.1C30.79 5.06 29.38 4.73 28.33 5.51C27.79 5.85 27.2 6.16 26.82 6.71C25.97 8.28 25.48 10.02 25.34 11.78C25.07 11.67 24.8 11.57 24.53 11.47C22.66 10.78 20.71 10.31 18.71 10.38C17.32 10.64 15.97 11.05 14.68 11.62C12.05 12.97 10.38 15.62 9.4 18.31C8.81 19.49 8.38 20.74 8.14 22.03C7.92 23.2 7.47 24.33 7.4 25.53C7.4 26.34 7.47 27.15 7.45 27.96C7.42 27.97 7.37 28 7.34 28.02C6.49 28.49 5.48 28.47 4.54 28.63C3.83 28.61 3.15 28.27 2.44 28.47C1.69 28.83 0.87 29.03 0.11 29.37C-0.06 30.43 -0.23 31.89 1.06 32.3L2.44 32.3C4.08 32.3 5.7 32.31 7.34 32.33L7.72 32.33C8.11 34.35 8.51 36.44 9.59 38.22C10.87 40.26 12.13 42.39 14.06 43.89C15.92 45.12 18.27 45.16 20.39 44.79C21.2 44.7 21.76 44.07 22.49 43.78C22.93 43.51 23.59 43.45 23.75 42.89C25.2 40.56 24.09 37.68 22.77 35.55C21.94 34.09 20.11 33.79 18.57 33.85C17.65 33.99 17.09 34.76 16.35 35.22C15.54 35.7 14.76 36.73 15.37 37.66C15.89 38.64 16.54 39.95 17.86 39.87C18.69 39.78 19.8 39.59 20.16 38.74C20.32 37.7 19.07 37.2 18.24 37.01C18.28 37.52 18.33 38.02 18.38 38.54C17.95 38.24 17.51 37.96 17.07 37.66C17.34 36.3 18.88 36.33 19.95 35.91C21.04 37.57 22.17 39.72 21.29 41.71C20.27 42.97 18.43 42.81 17.01 42.49C15.15 42.21 13.91 40.56 13.09 39.02C11.84 36.89 10.33 34.6 10.6 32.03C11.47 32.02 12.35 31.95 13.2 32.05C14.03 32.23 14.77 32.95 15.67 32.61C17.59 32.09 19.59 32.41 21.56 32.37C23.1 32.3 24.66 32.22 26.2 32.31C26.76 32.47 27.07 33.14 27.72 33.09C28.46 33.34 28.88 32.58 29.43 32.27C30.68 32.22 31.94 32.19 33.16 32.27C33.75 33.28 34.63 34.37 35.89 34.52C37.41 34.58 38.72 33.51 39.54 32.33C40.63 32.58 41.79 32.9 42.85 32.37C45.13 31.43 47.65 31.43 50 30.76L50 30.09C48.15 28.94 45.82 29.28 43.7 28.75ZM33.16 28.8C31.76 28.83 30.09 29 29.24 27.63C28.68 27.79 28.11 28 27.81 28.55C27.61 28.44 27.18 28.21 26.98 28.1C26.98 27.58 26.98 27.07 27.02 26.56L27.92 26.56L27.97 26.56C28.83 26.6 29.68 26.46 30.53 26.35C30.97 26.4 31.09 26.93 31.37 27.19C31.87 27.82 32.58 28.25 33.16 28.8ZM32.17 30.21C31.09 30.24 30.01 30.24 28.94 30.18C28.83 29.54 29.65 29.67 30.05 29.57C30.96 29.51 31.86 29.56 32.77 29.56C32.8 30.01 32.61 30.23 32.17 30.21ZM37.21 10.91C38.19 9.18 40.22 8.53 42.06 8.21C43.46 8.04 45.24 8.57 45.6 10.1C46.61 12.38 45.49 14.92 44.17 16.85C43.4 17.56 42.52 18.14 41.79 18.9C40.91 17.16 38.96 16.38 37.16 15.95C37.49 14.27 37.24 12.57 37.21 10.91ZM26.88 9.29C27.32 7.83 28.46 6.42 30.06 6.21C31.64 5.65 33.08 6.89 33.93 8.07C34.38 8.87 35.05 9.44 35.78 9.96C36.58 12.51 36.38 15.36 35.19 17.77C34.85 18.54 34.11 19.01 33.4 19.4C31.49 19.94 29.49 19.12 28.14 17.78L28.17 17.6C27.21 17.16 27.05 16.01 26.88 15.11C26.08 13.27 26.28 11.15 26.88 9.29ZM2.44 31.8C1.88 31.78 1.33 31.75 0.76 31.66C0.67 31.13 0.43 30.35 0.98 29.99C1.55 29.68 1.94 29.19 2.27 28.64C2.33 28.66 2.38 28.66 2.44 28.66C2.92 28.72 3.4 28.7 3.88 28.61C3.83 29.22 3 29.48 3.11 30.1C3.25 30.71 3.59 31.25 3.85 31.83C3.37 31.81 2.92 31.8 2.44 31.8ZM4.98 31.38C4.88 31.43 4.7 31.5 4.62 31.53C4.3 31.1 4.05 30.65 3.86 30.15C4.08 29.78 4.27 29.37 4.44 28.98C4.71 28.97 5 28.95 5.26 28.92C4.84 29.67 4.3 30.59 4.98 31.38ZM5.83 31.47C5.77 31.36 5.63 31.13 5.56 31.01C5.61 30.54 5.53 30.01 5.94 29.67C5.97 29.64 6.02 29.57 6.05 29.53L6.22 29.33C6.25 29.26 6.3 29.14 6.32 29.08L6.38 29.25L6.6 29.15C6.52 29.62 6.18 29.96 5.88 30.32C6.41 30.35 6.54 31.89 5.83 31.47ZM6.98 30.17C7.06 29.93 7.18 29.76 7.34 29.64C7.89 29.22 8.84 29.33 9.5 29.28C10.29 29.39 11.26 29.08 11.86 29.75L11.61 30.31C10.19 30.24 8.76 30.21 7.34 30.18C7.22 30.18 7.1 30.18 6.98 30.17ZM13.54 27.91C12.73 28.33 11.81 28.35 10.93 28.35C10.74 27.01 11.59 25.87 12.22 24.77C12.51 24.71 12.79 24.64 13.07 24.57C12.68 25.72 12.9 26.9 13.54 27.91ZM11.28 37.56C11.88 38.52 12.36 39.53 12.93 40.51C13.53 41.52 14.52 42.21 15.45 42.91C17.43 44.35 20.71 44.14 22.11 42.01C23.01 40.11 21.89 38.1 21.12 36.36C19.8 34.3 16.35 35.86 16.44 38.1C17.2 38.55 18.05 39.47 18.99 38.89C18.98 38.54 18.96 38.16 18.96 37.79C19.18 38.04 19.35 38.32 19.58 38.58C19.04 39.27 18.17 39.24 17.4 39.13C17.09 38.78 16.76 38.44 16.44 38.1C16.05 35.88 18.93 33.99 20.85 35.13C22.22 36 22.6 37.65 23.13 39.06C23.76 40.76 22.83 42.77 21.21 43.51C19.95 44.31 18.41 44 17.01 44C15.09 43.9 13.84 42.36 12.6 41.13C11.39 39.67 10.6 37.93 9.66 36.28C9.17 34.94 8.88 33.51 8.77 32.09C8.95 32.13 9.28 32.17 9.47 32.19C10.21 33.93 10.25 35.92 11.28 37.56ZM7.56 31.43C7.5 31.32 7.4 31.1 7.34 30.99C9.01 30.73 10.68 31.11 12.35 31.18C12.41 31.25 12.54 31.39 12.62 31.47C10.93 31.47 9.23 31.6 7.56 31.43ZM12.74 29.81C13.26 29.17 13.91 28.66 14.58 28.16C13.61 26.71 13.17 24.57 14.44 23.16C14.19 22.87 13.91 22.36 13.45 22.62C13.09 22.95 12.79 23.34 12.44 23.69C10.98 24.8 10.41 26.56 9.53 28.07C9.1 28.05 8.68 28.03 8.25 28.03C8.25 27.91 8.24 27.65 8.22 27.51C8.14 26.81 8.1 26.12 8.18 25.42C8.49 24.19 9.04 23.04 9.36 21.8C9.39 21.7 9.44 21.5 9.47 21.39C9.51 21.24 9.59 20.94 9.64 20.78C10.58 18.25 11.75 15.65 13.83 13.81C15.17 12.51 17.09 12.15 18.84 11.61C20.8 11.5 22.77 12.09 24.55 12.9L24.65 12.94C25.43 13.25 25.39 14.17 25.56 14.87C25.7 15.4 25.84 15.95 26.02 16.48C26.28 17.27 26.63 18.08 27.31 18.61C28.44 19.46 29.62 20.4 31.04 20.72C32.3 20.96 33.68 20.82 34.77 20.1C35.71 19.26 36.15 18.03 37.13 17.22C38.04 17.67 39.07 17.88 39.95 18.39C40.86 18.96 41.3 19.99 41.85 20.88L41.95 21.11C42.09 21.44 42.22 21.76 42.36 22.09C40.72 23.71 38.31 24.13 36.15 24.63C35.26 24.89 34.42 24.43 33.68 24.01C33.31 24.21 32.91 24.44 32.53 24.64C31.18 25.36 29.61 25.75 28.06 25.58C27.68 25.53 27.29 25.48 26.91 25.44C27.09 24.66 27.29 23.9 27.45 23.1C27.26 23.12 26.87 23.15 26.68 23.16C26.03 24.15 26 25.33 26.13 26.46C26.16 26.88 26.19 27.32 26.2 27.74C25.75 27.18 25.37 26.56 25.35 25.83C25.39 25.02 25.5 24.22 25.56 23.41C24.71 23.06 24.36 24.02 24.2 24.64C24.2 24.99 24.24 25.33 24.25 25.67C22.76 26.01 21.17 26.18 19.69 25.7C18.61 25.36 17.45 25.33 16.44 24.78C16.41 24.38 16.36 23.96 16.33 23.55C16.03 23.49 15.75 23.45 15.45 23.38C15.06 24.43 14.51 25.48 14.57 26.63C14.77 27.38 15.4 27.94 15.88 28.55C15.18 28.75 14.22 28.59 13.75 29.23C13.47 30.48 14.62 31.19 15.36 31.95C14.3 31.53 13.1 30.97 12.74 29.81ZM25.95 28.94C24 28.97 22.03 29.03 20.08 28.86C20.21 28.22 20.43 27.6 20.6 26.96C21.97 26.91 23.34 26.96 24.71 26.9C25.37 27.4 25.65 28.21 25.95 28.94ZM19.34 28.75C18.82 28.7 18.32 28.67 17.81 28.58C18.49 28.13 18.99 27.58 19.21 26.79L19.48 26.65C19.53 27.35 19.86 28.16 19.34 28.75ZM17.8 26.42C17.7 26.77 17.62 27.13 17.56 27.51C17.07 27.77 16.63 28.13 16.21 28.45C15.64 27.63 15.42 26.67 15.61 25.69C16.33 25.9 17.21 25.87 17.8 26.42ZM14.87 30.24C14.77 29.92 14.68 29.57 14.57 29.25C15.29 29.42 16.44 29 16.88 29.59C17.53 29.7 18.14 29.99 18.8 30.01C21.15 29.33 23.64 29.7 26.05 29.7C26.06 29.9 26.09 30.32 26.11 30.52C24.3 30.59 22.49 30.6 20.68 30.55C19.73 30.55 18.84 29.93 17.89 30.21C17.48 30.24 17.01 30.68 16.65 30.31C16.03 30.27 15.45 30.26 14.87 30.24ZM26.03 31.75C23.31 31.85 20.6 31.8 17.87 31.78C17.31 31.77 16.73 31.74 16.16 31.72C16.02 31.53 15.88 31.33 15.73 31.15C16.44 31.15 17.15 31.16 17.87 31.15C20.66 31.18 23.45 31.22 26.24 31.41C26.17 31.5 26.08 31.67 26.03 31.75ZM26.44 27.99C26.76 28.38 27.1 28.72 27.48 29.05C27.98 28.47 29.1 27.55 29.56 28.64C28.8 29 27.86 29.26 27.61 30.17L27.59 30.27C27.7 31.07 28 31.83 28.24 32.59C26.61 31.57 27.42 29.42 26.44 27.99ZM35.59 33.59C34.83 33.23 34.36 32.51 33.78 31.95C34.67 32.34 35.56 32.76 36.5 33.08C37.04 32.86 37.79 31.69 38.23 32.55C37.52 33.17 36.56 33.81 35.59 33.59ZM40.19 31.67C39.46 31.77 38.78 31.32 38.04 31.38C36.6 31.47 35.13 31.6 33.7 31.29C32.06 31.63 30.38 31.47 28.72 31.57C28.71 31.41 28.69 31.1 28.68 30.94C30.36 30.8 32.05 30.87 33.7 31.19C35.24 30.99 36.82 31.18 38.36 30.91C38.99 30.96 40.33 30.68 40.19 31.67ZM37.41 30.35C36.47 30.23 35.48 30.4 34.55 30.12C34.61 30.01 34.74 29.78 34.8 29.65C36.49 29.51 38.17 29.28 39.89 29.37C40.36 29.47 40.72 29.84 41.11 30.09C39.97 30.65 38.64 30.51 37.41 30.35ZM45.62 31.05C44.34 31.29 43.15 31.85 41.84 31.88C41.87 31.53 41.89 31.18 41.89 30.83C42.03 30.74 42.33 30.54 42.48 30.45C42.52 30.07 42.56 29.7 42.59 29.33C43.65 29.28 44.64 29.67 45.68 29.78C45.7 30.18 45.82 30.65 45.62 31.05Z" fill="#231F20" fill-opacity="1.000000" fill-rule="nonzero"/>
	<path id="path" d="M18.71 21.47C19.12 21.86 19.51 22.29 20.05 22.51C21.06 22.9 21.76 23.83 22.82 24.16C22.72 24.32 22.63 24.49 22.54 24.64C21.1 24.19 19.58 24.53 18.14 24.08C18.95 23.66 18.95 22.78 18.54 22.09C18.57 21.94 18.66 21.62 18.71 21.47Z" fill="#97EB74" fill-opacity="1.000000" fill-rule="nonzero"/>
	<path id="path" d="M9.39 25.7C10.38 24.88 10.25 23.04 11.8 22.85C12.02 23.13 12.22 23.41 12.43 23.69C10.96 24.8 10.4 26.56 9.51 28.07C9.09 28.05 8.66 28.03 8.24 28.03C8.24 27.91 8.22 27.65 8.21 27.51C8.79 27.01 8.76 26.15 9.39 25.7Z" fill="#84CB71" fill-opacity="1.000000" fill-rule="nonzero"/>
	<path id="path" d="M30.14 23.46C30.97 23.79 31.75 24.22 32.53 24.64C31.18 25.36 29.61 25.75 28.06 25.58C27.98 25 27.97 24.43 28.03 23.85C28.17 23.83 28.46 23.8 28.6 23.77C28.74 24.18 28.88 24.58 29.02 25C29.42 24.5 29.79 23.99 30.14 23.46Z" fill="#6CB960" fill-opacity="1.000000" fill-rule="nonzero"/>
	<path id="path" d="M17.12 23.94C17.37 23.97 17.87 24.04 18.14 24.08C19.58 24.53 21.1 24.19 22.54 24.64C22.63 24.49 22.72 24.32 22.82 24.16C23.29 24.33 23.75 24.47 24.22 24.63C24.22 24.97 24.25 25.31 24.27 25.65C22.77 26 21.18 26.17 19.7 25.69L20.33 25.25C19.21 24.95 17.97 24.8 17.12 23.94Z" fill="#77C66C" fill-opacity="1.000000" fill-rule="nonzero"/>
	<path id="path" d="M2.29 28.64C2.82 28.72 3.36 28.72 3.89 28.61C3.85 29.22 3.01 29.48 3.12 30.1C3.26 30.71 3.61 31.25 3.86 31.83C2.84 31.78 1.8 31.85 0.79 31.66C0.7 31.13 0.46 30.35 1.01 29.99C1.56 29.67 1.96 29.19 2.29 28.64Z" fill="#D07B84" fill-opacity="1.000000" fill-rule="nonzero"/>
	<path id="path" d="M42.59 29.33C43.65 29.28 44.64 29.67 45.68 29.78C45.68 30.2 45.81 30.66 45.6 31.07C44.33 31.3 43.13 31.86 41.82 31.89C41.85 31.55 41.87 31.19 41.87 30.85C42.01 30.76 42.31 30.55 42.47 30.46C42.52 30.07 42.56 29.7 42.59 29.33Z" fill="#FEFEFE" fill-opacity="1.000000" fill-rule="nonzero"/>
	<path id="path" d="M14.57 29.25C15.29 29.42 16.44 29 16.88 29.59L16.38 29.53C16.46 29.78 16.54 30.04 16.63 30.29C16.05 30.29 15.45 30.26 14.87 30.26C14.77 29.92 14.66 29.57 14.57 29.25ZM7.34 30.99C9.01 30.73 10.68 31.11 12.35 31.18C12.41 31.25 12.54 31.39 12.62 31.47C10.93 31.47 9.23 31.6 7.56 31.43C7.5 31.32 7.39 31.1 7.34 30.99Z" fill="#E1CB86" fill-opacity="1.000000" fill-rule="nonzero"/>
	<path id="path" d="M6.98 30.17C7.29 29.14 8.65 29.33 9.51 29.28C10.3 29.39 11.28 29.08 11.88 29.75L11.62 30.31C10.07 30.23 8.52 30.21 6.98 30.17ZM17.87 31.16C20.66 31.19 23.45 31.24 26.24 31.43C26.19 31.52 26.08 31.69 26.03 31.77C23.31 31.86 20.6 31.81 17.87 31.8L17.87 31.16Z" fill="#DDC377" fill-opacity="1.000000" fill-rule="nonzero"/>
	<path id="path" d="M16.38 29.53L16.88 29.59C17.53 29.7 18.14 29.99 18.8 30.01C21.15 29.33 23.64 29.7 26.05 29.7C26.06 29.9 26.09 30.32 26.11 30.52C24.3 30.59 22.49 30.6 20.68 30.55C19.73 30.55 18.84 29.93 17.89 30.21C17.48 30.24 17.01 30.68 16.65 30.31C16.54 30.03 16.46 29.78 16.38 29.53ZM15.73 31.15C16.44 31.15 17.15 31.16 17.87 31.15L17.87 31.78C17.31 31.77 16.73 31.74 16.16 31.72C16.02 31.53 15.88 31.35 15.73 31.15Z" fill="#DCC576" fill-opacity="1.000000" fill-rule="nonzero"/>
	<path id="path" d="M28.94 30.18C28.83 29.54 29.65 29.67 30.05 29.57C30.96 29.51 31.86 29.56 32.77 29.56C32.82 30.01 32.63 30.23 32.19 30.21C31.1 30.24 30.01 30.24 28.94 30.18ZM34.8 29.65C36.49 29.51 38.17 29.28 39.89 29.37C40.36 29.47 40.72 29.84 41.11 30.09C39.97 30.65 38.66 30.52 37.41 30.35C36.47 30.23 35.48 30.4 34.55 30.12C34.61 29.99 34.74 29.76 34.8 29.65ZM28.68 30.96C30.36 30.82 32.05 30.88 33.7 31.21C35.24 31.01 36.82 31.19 38.36 30.93C39 30.97 40.34 30.69 40.19 31.69C39.46 31.78 38.78 31.33 38.04 31.39C36.6 31.49 35.13 31.61 33.7 31.3C32.06 31.64 30.38 31.49 28.72 31.58C28.71 31.43 28.69 31.11 28.68 30.96Z" fill="#F5D776" fill-opacity="1.000000" fill-rule="nonzero"/>
	<path id="path" d="M27.59 30.29C27.59 30.26 27.61 30.21 27.61 30.18L27.59 30.29Z" fill="#959D64" fill-opacity="1.000000" fill-rule="nonzero"/>
</svg>
