<svg width="50" height="50" viewBox="0 0 50 50" fill="none" xmlns="http://www.w3.org/2000/svg">
<path d="M11.6842 42.8571H4.42105V48.8095H11.6842V42.8571Z" fill="#4F4038"/>
<path d="M5.02631 48.8095C4.69221 48.8095 4.42105 48.5429 4.42105 48.2143V49.1071C4.42105 49.6 4.82779 50 5.32895 50H12.8947V48.8095C12.8947 48.8095 5.36042 48.8095 5.02631 48.8095Z" fill="#685446"/>
<path d="M43.1579 44.0476V48.8095H11.6842V50H44.3684C45.0366 50 45.5789 49.4667 45.5789 48.8095V45.2381V44.0476H43.1579Z" fill="url(#paint0_linear_492_279)"/>
<path d="M12.8947 42.8571H4.42105V44.3452C4.42105 44.8381 4.82779 45.2381 5.32895 45.2381H12.8947V42.8571Z" fill="#685446"/>
<path d="M12.8947 0V44.0476H5.63158C4.96337 44.0476 4.42105 43.5143 4.42105 42.8571V1.19048C4.42105 0.533333 4.96337 0 5.63158 0H12.8947Z" fill="#96755F"/>
<path d="M44.3684 0H11.6842V44.0476H45.5789V1.19048C45.5789 0.535714 45.0342 0 44.3684 0Z" fill="#FFA000"/>
<path d="M44.3684 44.0476H11.6842V45.2381H44.6711C45.1722 45.2381 45.5789 44.8381 45.5789 44.3452V42.8571C45.5789 43.5143 45.0366 44.0476 44.3684 44.0476Z" fill="#FB8C00"/>
<path d="M44.3684 45.2381H5.63158V48.8095H44.3684V45.2381Z" fill="#B8B7AA"/>
<path d="M44.3684 45.4083H5.63158V48.6393H44.3684V45.4083Z" fill="#BEBDAF"/>
<path d="M44.3684 45.5786H5.63158V48.4702H44.3684V45.5786Z" fill="#C3C2B5"/>
<path d="M44.3684 45.7488H5.63158V48.3H44.3684V45.7488Z" fill="#C9C8BA"/>
<path d="M44.3684 45.9179H5.63158V48.1286H44.3684V45.9179Z" fill="#CFCDBF"/>
<path d="M44.3684 46.0881H5.63158V47.9583H44.3684V46.0881Z" fill="#D5D3C4"/>
<path d="M44.3684 46.2583H5.63158V47.7893H44.3684V46.2583Z" fill="#DAD8CA"/>
<path d="M44.3684 46.4286H5.63158V47.619H44.3684V46.4286Z" fill="#E0DECF"/>
<path d="M7.44737 37.5C8.11592 37.5 8.65789 36.967 8.65789 36.3095C8.65789 35.652 8.11592 35.119 7.44737 35.119C6.77881 35.119 6.23684 35.652 6.23684 36.3095C6.23684 36.967 6.77881 37.5 7.44737 37.5Z" fill="#685446"/>
<path d="M7.44737 37.4357C8.07982 37.4357 8.59252 36.9315 8.59252 36.3095C8.59252 35.6875 8.07982 35.1833 7.44737 35.1833C6.81491 35.1833 6.30221 35.6875 6.30221 36.3095C6.30221 36.9315 6.81491 37.4357 7.44737 37.4357Z" fill="#634F42"/>
<path d="M7.44737 37.3726C8.04439 37.3726 8.52837 36.8967 8.52837 36.3095C8.52837 35.7224 8.04439 35.2464 7.44737 35.2464C6.85035 35.2464 6.36637 35.7224 6.36637 36.3095C6.36637 36.8967 6.85035 37.3726 7.44737 37.3726Z" fill="#5E4A3F"/>
<path d="M7.44737 37.3083C8.00829 37.3083 8.463 36.8612 8.463 36.3095C8.463 35.7579 8.00829 35.3107 7.44737 35.3107C6.88645 35.3107 6.43174 35.7579 6.43174 36.3095C6.43174 36.8612 6.88645 37.3083 7.44737 37.3083Z" fill="#59453B"/>
<path d="M7.44737 37.2452C7.97285 37.2452 8.39884 36.8263 8.39884 36.3095C8.39884 35.7927 7.97285 35.3738 7.44737 35.3738C6.92189 35.3738 6.4959 35.7927 6.4959 36.3095C6.4959 36.8263 6.92189 37.2452 7.44737 37.2452Z" fill="#534038"/>
<path d="M7.44737 37.181C7.93675 37.181 8.33348 36.7908 8.33348 36.3095C8.33348 35.8282 7.93675 35.4381 7.44737 35.4381C6.95799 35.4381 6.56126 35.8282 6.56126 36.3095C6.56126 36.7908 6.95799 37.181 7.44737 37.181Z" fill="#4E3B34"/>
<path d="M7.44737 37.1179C7.90132 37.1179 8.26931 36.756 8.26931 36.3095C8.26931 35.8631 7.90132 35.5012 7.44737 35.5012C6.99342 35.5012 6.62542 35.8631 6.62542 36.3095C6.62542 36.756 6.99342 37.1179 7.44737 37.1179Z" fill="#493631"/>
<path d="M7.44737 37.0536C7.86521 37.0536 8.20395 36.7204 8.20395 36.3095C8.20395 35.8986 7.86521 35.5655 7.44737 35.5655C7.02952 35.5655 6.69079 35.8986 6.69079 36.3095C6.69079 36.7204 7.02952 37.0536 7.44737 37.0536Z" fill="#44312D"/>
<path d="M7.44737 38.0952H4.42105V36.3095H8.05263C8.05263 36.3095 8.05263 37.1726 8.05263 37.5C8.05263 37.8274 7.78026 38.0952 7.44737 38.0952Z" fill="url(#paint1_radial_492_279)"/>
<path d="M7.83716 35.8548C7.74637 35.7798 6.90505 35.119 5.39068 35.119C3.52163 35.119 2 36.4548 2 38.0952C2 39.4381 3.02653 40.5631 4.42105 40.9321V39.6857C3.70684 39.3929 3.21053 38.7929 3.21053 38.0952C3.21053 37.1107 4.18863 36.3095 5.39068 36.3095C6.45595 36.3095 7.02732 36.7417 7.06242 36.7691C7.31784 36.9762 7.69432 36.9429 7.911 36.6941C8.12647 36.4417 8.09258 36.0655 7.83716 35.8548Z" fill="#B2B0A6"/>
<path d="M7.76453 35.8667C7.64711 35.7762 6.83 35.1679 5.39068 35.1679C3.54947 35.1679 2.05084 36.481 2.05084 38.094C2.05084 39.4107 3.05437 40.5143 4.42105 40.8798V39.7381C3.67779 39.4429 3.15968 38.8202 3.15968 38.0952C3.15968 37.0833 4.15958 36.2595 5.38947 36.2595C6.42084 36.2595 6.99221 36.6619 7.05637 36.7071C7.29968 36.8798 7.63742 36.8702 7.83595 36.6357C8.03689 36.4 8.003 36.0512 7.76453 35.8667Z" fill="#B7B5AC"/>
<path d="M7.69189 35.8798C7.54784 35.7738 6.75495 35.2179 5.39068 35.2179C3.57732 35.2179 2.10168 36.5083 2.10168 38.0952C2.10168 39.3845 3.08342 40.4667 4.42226 40.8298V39.7929C3.64874 39.4917 3.11005 38.8476 3.11005 38.0952C3.11005 37.056 4.13295 36.2107 5.39068 36.2107C6.38937 36.2107 6.95832 36.5833 7.05274 36.6476C7.27426 36.7988 7.58174 36.7976 7.76453 36.5798C7.94853 36.3595 7.90979 36.0393 7.69189 35.8798Z" fill="#BCBBB1"/>
<path d="M7.61805 35.8917C7.44737 35.7702 6.67869 35.2679 5.38948 35.2679C3.60395 35.2679 2.15011 36.5357 2.15011 38.0952C2.15011 39.3583 3.10885 40.4179 4.41985 40.7786V39.8452C3.6209 39.5417 3.05921 38.8738 3.05921 38.0952C3.05921 37.0286 4.10511 36.1607 5.39069 36.1607C6.35548 36.1607 6.92442 36.5036 7.0479 36.5857C7.24521 36.7167 7.52484 36.7238 7.69069 36.5214C7.85895 36.3179 7.81416 36.0309 7.61805 35.8917Z" fill="#C2C0B7"/>
<path d="M7.54542 35.9048C7.34689 35.769 6.60363 35.3179 5.39068 35.3179C3.633 35.3179 2.20216 36.5643 2.20216 38.0952C2.20216 39.331 3.1391 40.369 4.42105 40.7274V39.8988C3.59184 39.5905 3.00837 38.9012 3.00837 38.0952C3.00837 37.0012 4.07605 36.1107 5.38947 36.1107C6.32037 36.1107 6.8881 36.425 7.04305 36.525C7.21616 36.6369 7.46795 36.65 7.61684 36.4643C7.76937 36.2762 7.71853 36.0226 7.54542 35.9048Z" fill="#C7C5BC"/>
<path d="M7.47279 35.9179C7.24642 35.7679 6.52858 35.3679 5.39068 35.3679C3.66084 35.3679 2.253 36.5917 2.253 38.0964C2.253 39.3048 3.16695 40.3214 4.42226 40.6774V39.9524C3.56279 39.6405 2.95873 38.9274 2.95873 38.0952C2.95873 36.9738 4.04942 36.0619 5.39068 36.0619C6.28889 36.0619 6.85421 36.3476 7.03942 36.4643C7.18831 36.5583 7.41226 36.5774 7.54542 36.4083C7.67979 36.2345 7.62168 36.0155 7.47279 35.9179Z" fill="#CCCBC2"/>
<path d="M7.39895 35.9298C7.14474 35.7667 6.45232 35.4167 5.38948 35.4167C3.68626 35.4167 2.30142 36.6179 2.30142 38.0952C2.30142 39.2774 3.19358 40.2714 4.41984 40.6262V40.0071C3.53374 39.6893 2.9079 38.9548 2.9079 38.0952C2.9079 36.9464 4.02158 36.0119 5.39069 36.0119C6.255 36.0119 6.8179 36.2702 7.03458 36.4036C7.15805 36.4798 7.35537 36.5036 7.47158 36.3512C7.59142 36.1929 7.52363 36.0095 7.39895 35.9298Z" fill="#D1D0C7"/>
<path d="M7.32631 35.9429C7.04184 35.769 6.37726 35.4667 5.39068 35.4667C3.71531 35.4667 2.35347 36.6464 2.35347 38.0952C2.35347 39.25 3.22384 40.2226 4.42105 40.575V40.0595C3.50589 39.7393 2.85705 38.9821 2.85705 38.0952C2.85705 36.919 3.99252 35.9619 5.38947 35.9619C6.21989 35.9619 6.78037 36.194 7.02852 36.3417C7.12779 36.4012 7.29726 36.4298 7.39652 36.2929C7.50184 36.1512 7.42558 36.0036 7.32631 35.9429Z" fill="#D7D5CD"/>
<path d="M7.25369 35.9548C6.93774 35.7726 6.30221 35.5155 5.39069 35.5155C3.74316 35.5155 2.40432 36.6726 2.40432 38.0952C2.40432 39.2226 3.25169 40.1738 4.42227 40.5238V40.1131C3.47685 39.7881 2.80742 39.0083 2.80742 38.0952C2.80742 36.8917 3.9659 35.9131 5.39069 35.9131C6.18842 35.9131 6.74285 36.1226 7.02611 36.2821C7.09995 36.3238 7.24279 36.3571 7.32511 36.2369C7.41227 36.1095 7.32874 35.9988 7.25369 35.9548Z" fill="#DCDBD2"/>
<path d="M7.17984 35.9679C6.82758 35.7869 6.22595 35.5655 5.38947 35.5655C3.76979 35.5655 2.45274 36.7 2.45274 38.0952C2.45274 39.1964 3.27831 40.125 4.41984 40.4726V40.1667C3.44779 39.8381 2.75658 39.0357 2.75658 38.0952C2.75658 36.8643 3.93805 35.8631 5.39068 35.8631C6.15452 35.8631 6.70047 36.0583 7.02126 36.2214C7.06968 36.2464 7.18589 36.2845 7.25247 36.1809C7.32268 36.0679 7.23068 35.994 7.17984 35.9679Z" fill="#E1E0D8"/>
<path d="M7.83716 35.8548C7.74637 35.7798 6.90505 35.119 5.39068 35.119C3.52163 35.119 2 36.4548 2 38.0952C2 39.4381 3.02653 40.5631 4.42105 40.9321V39.6857C3.70684 39.3929 3.21053 38.7929 3.21053 38.0952C3.21053 37.1107 4.18863 36.3095 5.39068 36.3095C6.45595 36.3095 7.02732 36.7417 7.06242 36.7691C7.31784 36.9762 7.69432 36.9429 7.911 36.6941C8.12647 36.4417 8.09258 36.0655 7.83716 35.8548Z" fill="url(#paint2_linear_492_279)"/>
<path d="M7.44737 30.3571C8.11592 30.3571 8.65789 29.8241 8.65789 29.1667C8.65789 28.5092 8.11592 27.9762 7.44737 27.9762C6.77881 27.9762 6.23684 28.5092 6.23684 29.1667C6.23684 29.8241 6.77881 30.3571 7.44737 30.3571Z" fill="#685446"/>
<path d="M7.44737 30.2929C8.07982 30.2929 8.59252 29.7886 8.59252 29.1667C8.59252 28.5447 8.07982 28.0405 7.44737 28.0405C6.81491 28.0405 6.30221 28.5447 6.30221 29.1667C6.30221 29.7886 6.81491 30.2929 7.44737 30.2929Z" fill="#634F42"/>
<path d="M7.44737 30.2298C8.04439 30.2298 8.52837 29.7538 8.52837 29.1667C8.52837 28.5795 8.04439 28.1036 7.44737 28.1036C6.85035 28.1036 6.36637 28.5795 6.36637 29.1667C6.36637 29.7538 6.85035 30.2298 7.44737 30.2298Z" fill="#5E4A3F"/>
<path d="M7.44737 30.1655C8.00829 30.1655 8.463 29.7183 8.463 29.1667C8.463 28.615 8.00829 28.1679 7.44737 28.1679C6.88645 28.1679 6.43174 28.615 6.43174 29.1667C6.43174 29.7183 6.88645 30.1655 7.44737 30.1655Z" fill="#59453B"/>
<path d="M7.44737 30.1024C7.97285 30.1024 8.39884 29.6834 8.39884 29.1667C8.39884 28.6499 7.97285 28.2309 7.44737 28.2309C6.92189 28.2309 6.4959 28.6499 6.4959 29.1667C6.4959 29.6834 6.92189 30.1024 7.44737 30.1024Z" fill="#534038"/>
<path d="M7.44737 30.0381C7.93675 30.0381 8.33348 29.6479 8.33348 29.1667C8.33348 28.6854 7.93675 28.2952 7.44737 28.2952C6.95799 28.2952 6.56126 28.6854 6.56126 29.1667C6.56126 29.6479 6.95799 30.0381 7.44737 30.0381Z" fill="#4E3B34"/>
<path d="M7.44737 29.975C7.90132 29.975 8.26931 29.6131 8.26931 29.1667C8.26931 28.7202 7.90132 28.3583 7.44737 28.3583C6.99342 28.3583 6.62542 28.7202 6.62542 29.1667C6.62542 29.6131 6.99342 29.975 7.44737 29.975Z" fill="#493631"/>
<path d="M7.44737 29.9107C7.86521 29.9107 8.20395 29.5776 8.20395 29.1667C8.20395 28.7557 7.86521 28.4226 7.44737 28.4226C7.02952 28.4226 6.69079 28.7557 6.69079 29.1667C6.69079 29.5776 7.02952 29.9107 7.44737 29.9107Z" fill="#44312D"/>
<path d="M7.44737 30.9524H4.42105V29.1667H8.05263C8.05263 29.1667 8.05263 30.0298 8.05263 30.3571C8.05263 30.6845 7.78026 30.9524 7.44737 30.9524Z" fill="url(#paint3_radial_492_279)"/>
<path d="M7.83716 28.7119C7.74637 28.6369 6.90505 27.9762 5.39068 27.9762C3.52163 27.9762 2 29.3119 2 30.9524C2 32.2952 3.02653 33.4202 4.42105 33.7893V32.5429C3.70684 32.25 3.21053 31.65 3.21053 30.9524C3.21053 29.9679 4.18863 29.1667 5.39068 29.1667C6.45595 29.1667 7.02732 29.5988 7.06242 29.6262C7.31784 29.8333 7.69432 29.8 7.911 29.5512C8.12647 29.2988 8.09258 28.9226 7.83716 28.7119Z" fill="#B2B0A6"/>
<path d="M7.76453 28.7238C7.64711 28.6333 6.83 28.025 5.39068 28.025C3.54947 28.025 2.05084 29.3381 2.05084 30.9512C2.05084 32.2679 3.05437 33.3714 4.42105 33.7369V32.5952C3.67779 32.3 3.15968 31.6774 3.15968 30.9524C3.15968 29.9405 4.15958 29.1167 5.38947 29.1167C6.42084 29.1167 6.99221 29.519 7.05637 29.5643C7.29968 29.7369 7.63742 29.7274 7.83595 29.4929C8.03689 29.2571 8.003 28.9083 7.76453 28.7238Z" fill="#B7B5AC"/>
<path d="M7.69189 28.7369C7.54784 28.6309 6.75495 28.075 5.39068 28.075C3.57732 28.075 2.10168 29.3655 2.10168 30.9524C2.10168 32.2417 3.08342 33.3238 4.42226 33.6869V32.65C3.64874 32.3488 3.11005 31.7048 3.11005 30.9524C3.11005 29.9131 4.13295 29.0679 5.39068 29.0679C6.38937 29.0679 6.95832 29.4405 7.05274 29.5048C7.27426 29.6559 7.58174 29.6548 7.76453 29.4369C7.94853 29.2167 7.90979 28.8964 7.69189 28.7369Z" fill="#BCBBB1"/>
<path d="M7.61805 28.7488C7.44737 28.6274 6.67869 28.125 5.38948 28.125C3.60395 28.125 2.15011 29.3929 2.15011 30.9524C2.15011 32.2155 3.10885 33.275 4.41985 33.6357V32.7024C3.6209 32.3988 3.05921 31.731 3.05921 30.9524C3.05921 29.8857 4.10511 29.0179 5.39069 29.0179C6.35548 29.0179 6.92442 29.3607 7.0479 29.4429C7.24521 29.5738 7.52484 29.581 7.69069 29.3786C7.85895 29.175 7.81416 28.8881 7.61805 28.7488Z" fill="#C2C0B7"/>
<path d="M7.54542 28.7619C7.34689 28.6262 6.60363 28.175 5.39068 28.175C3.633 28.175 2.20216 29.4214 2.20216 30.9524C2.20216 32.1881 3.1391 33.2262 4.42105 33.5845V32.7559C3.59184 32.4476 3.00837 31.7583 3.00837 30.9524C3.00837 29.8583 4.07605 28.9679 5.38947 28.9679C6.32037 28.9679 6.8881 29.2821 7.04305 29.3821C7.21616 29.494 7.46795 29.5071 7.61684 29.3214C7.76937 29.1333 7.71853 28.8798 7.54542 28.7619Z" fill="#C7C5BC"/>
<path d="M7.47279 28.775C7.24642 28.625 6.52858 28.225 5.39068 28.225C3.66084 28.225 2.253 29.4488 2.253 30.9536C2.253 32.1619 3.16695 33.1786 4.42226 33.5345V32.8095C3.56279 32.4976 2.95873 31.7845 2.95873 30.9524C2.95873 29.831 4.04942 28.919 5.39068 28.919C6.28889 28.919 6.85421 29.2048 7.03942 29.3214C7.18831 29.4155 7.41226 29.4345 7.54542 29.2655C7.67979 29.0917 7.62168 28.8726 7.47279 28.775Z" fill="#CCCBC2"/>
<path d="M7.39895 28.7869C7.14474 28.6238 6.45232 28.2738 5.38948 28.2738C3.68626 28.2738 2.30142 29.475 2.30142 30.9524C2.30142 32.1345 3.19358 33.1286 4.41984 33.4833V32.8643C3.53374 32.5464 2.9079 31.8119 2.9079 30.9524C2.9079 29.8036 4.02158 28.869 5.39069 28.869C6.255 28.869 6.8179 29.1274 7.03458 29.2607C7.15805 29.3369 7.35537 29.3607 7.47158 29.2083C7.59142 29.05 7.52363 28.8667 7.39895 28.7869Z" fill="#D1D0C7"/>
<path d="M7.32631 28.8C7.04184 28.6262 6.37726 28.3238 5.39068 28.3238C3.71531 28.3238 2.35347 29.5036 2.35347 30.9524C2.35347 32.1071 3.22384 33.0798 4.42105 33.4321V32.9167C3.50589 32.5964 2.85705 31.8393 2.85705 30.9524C2.85705 29.7762 3.99252 28.819 5.38947 28.819C6.21989 28.819 6.78037 29.0512 7.02852 29.1988C7.12779 29.2583 7.29726 29.2869 7.39652 29.15C7.50184 29.0083 7.42558 28.8607 7.32631 28.8Z" fill="#D7D5CD"/>
<path d="M7.25369 28.8119C6.93774 28.6298 6.30221 28.3726 5.39069 28.3726C3.74316 28.3726 2.40432 29.5298 2.40432 30.9524C2.40432 32.0798 3.25169 33.031 4.42227 33.381V32.9702C3.47685 32.6452 2.80742 31.8655 2.80742 30.9524C2.80742 29.7488 3.9659 28.7702 5.39069 28.7702C6.18842 28.7702 6.74285 28.9798 7.02611 29.1393C7.09995 29.181 7.24279 29.2143 7.32511 29.094C7.41227 28.9667 7.32874 28.856 7.25369 28.8119Z" fill="#DCDBD2"/>
<path d="M7.17984 28.825C6.82758 28.644 6.22595 28.4226 5.38947 28.4226C3.76979 28.4226 2.45274 29.5571 2.45274 30.9524C2.45274 32.0536 3.27831 32.9821 4.41984 33.3298V33.0238C3.44779 32.6952 2.75658 31.8929 2.75658 30.9524C2.75658 29.7214 3.93805 28.7202 5.39068 28.7202C6.15452 28.7202 6.70047 28.9155 7.02126 29.0786C7.06968 29.1036 7.18589 29.1417 7.25247 29.0381C7.32268 28.925 7.23068 28.8512 7.17984 28.825Z" fill="#E1E0D8"/>
<path d="M7.83716 28.7119C7.74637 28.6369 6.90505 27.9762 5.39068 27.9762C3.52163 27.9762 2 29.3119 2 30.9524C2 32.2952 3.02653 33.4202 4.42105 33.7893V32.5429C3.70684 32.25 3.21053 31.65 3.21053 30.9524C3.21053 29.9679 4.18863 29.1667 5.39068 29.1667C6.45595 29.1667 7.02732 29.5988 7.06242 29.6262C7.31784 29.8333 7.69432 29.8 7.911 29.5512C8.12647 29.2988 8.09258 28.9226 7.83716 28.7119Z" fill="url(#paint4_linear_492_279)"/>
<path d="M7.44737 23.2143C8.11592 23.2143 8.65789 22.6813 8.65789 22.0238C8.65789 21.3663 8.11592 20.8333 7.44737 20.8333C6.77881 20.8333 6.23684 21.3663 6.23684 22.0238C6.23684 22.6813 6.77881 23.2143 7.44737 23.2143Z" fill="#685446"/>
<path d="M7.44737 23.15C8.07982 23.15 8.59252 22.6458 8.59252 22.0238C8.59252 21.4018 8.07982 20.8976 7.44737 20.8976C6.81491 20.8976 6.30221 21.4018 6.30221 22.0238C6.30221 22.6458 6.81491 23.15 7.44737 23.15Z" fill="#634F42"/>
<path d="M7.44737 23.0869C8.04439 23.0869 8.52837 22.6109 8.52837 22.0238C8.52837 21.4367 8.04439 20.9607 7.44737 20.9607C6.85035 20.9607 6.36637 21.4367 6.36637 22.0238C6.36637 22.6109 6.85035 23.0869 7.44737 23.0869Z" fill="#5E4A3F"/>
<path d="M7.44737 23.0226C8.00829 23.0226 8.463 22.5754 8.463 22.0238C8.463 21.4722 8.00829 21.025 7.44737 21.025C6.88645 21.025 6.43174 21.4722 6.43174 22.0238C6.43174 22.5754 6.88645 23.0226 7.44737 23.0226Z" fill="#59453B"/>
<path d="M7.44737 22.9595C7.97285 22.9595 8.39884 22.5406 8.39884 22.0238C8.39884 21.507 7.97285 21.0881 7.44737 21.0881C6.92189 21.0881 6.4959 21.507 6.4959 22.0238C6.4959 22.5406 6.92189 22.9595 7.44737 22.9595Z" fill="#534038"/>
<path d="M7.44737 22.8952C7.93675 22.8952 8.33348 22.5051 8.33348 22.0238C8.33348 21.5425 7.93675 21.1524 7.44737 21.1524C6.95799 21.1524 6.56126 21.5425 6.56126 22.0238C6.56126 22.5051 6.95799 22.8952 7.44737 22.8952Z" fill="#4E3B34"/>
<path d="M7.44737 22.8321C7.90132 22.8321 8.26931 22.4702 8.26931 22.0238C8.26931 21.5774 7.90132 21.2155 7.44737 21.2155C6.99342 21.2155 6.62542 21.5774 6.62542 22.0238C6.62542 22.4702 6.99342 22.8321 7.44737 22.8321Z" fill="#493631"/>
<path d="M7.44737 22.7679C7.86521 22.7679 8.20395 22.4347 8.20395 22.0238C8.20395 21.6129 7.86521 21.2798 7.44737 21.2798C7.02952 21.2798 6.69079 21.6129 6.69079 22.0238C6.69079 22.4347 7.02952 22.7679 7.44737 22.7679Z" fill="#44312D"/>
<path d="M7.44737 23.8095H4.42105V22.0238H8.05263C8.05263 22.0238 8.05263 22.8869 8.05263 23.2143C8.05263 23.5417 7.78026 23.8095 7.44737 23.8095Z" fill="url(#paint5_radial_492_279)"/>
<path d="M7.83716 21.5691C7.74637 21.4941 6.90505 20.8333 5.39068 20.8333C3.52163 20.8333 2 22.1691 2 23.8095C2 25.1524 3.02653 26.2774 4.42105 26.6464V25.4C3.70684 25.1071 3.21053 24.5071 3.21053 23.8095C3.21053 22.825 4.18863 22.0238 5.39068 22.0238C6.45595 22.0238 7.02732 22.456 7.06242 22.4833C7.31784 22.6905 7.69432 22.6571 7.911 22.4083C8.12647 22.156 8.09258 21.7798 7.83716 21.5691Z" fill="#B2B0A6"/>
<path d="M7.76453 21.581C7.64711 21.4905 6.83 20.8821 5.39068 20.8821C3.54947 20.8821 2.05084 22.1952 2.05084 23.8083C2.05084 25.125 3.05437 26.2286 4.42105 26.5941V25.4524C3.67779 25.1571 3.15968 24.5345 3.15968 23.8095C3.15968 22.7976 4.15958 21.9738 5.38947 21.9738C6.42084 21.9738 6.99221 22.3762 7.05637 22.4214C7.29968 22.594 7.63742 22.5845 7.83595 22.35C8.03689 22.1143 8.003 21.7655 7.76453 21.581Z" fill="#B7B5AC"/>
<path d="M7.69189 21.594C7.54784 21.4881 6.75495 20.9321 5.39068 20.9321C3.57732 20.9321 2.10168 22.2226 2.10168 23.8095C2.10168 25.0988 3.08342 26.181 4.42226 26.544V25.5071C3.64874 25.206 3.11005 24.5619 3.11005 23.8095C3.11005 22.7702 4.13295 21.925 5.39068 21.925C6.38937 21.925 6.95832 22.2976 7.05274 22.3619C7.27426 22.5131 7.58174 22.5119 7.76453 22.294C7.94853 22.0738 7.90979 21.7536 7.69189 21.594Z" fill="#BCBBB1"/>
<path d="M7.61805 21.606C7.44737 21.4845 6.67869 20.9821 5.38948 20.9821C3.60395 20.9821 2.15011 22.25 2.15011 23.8095C2.15011 25.0726 3.10885 26.1321 4.41985 26.4929V25.5595C3.6209 25.256 3.05921 24.5881 3.05921 23.8095C3.05921 22.7429 4.10511 21.875 5.39069 21.875C6.35548 21.875 6.92442 22.2179 7.0479 22.3C7.24521 22.431 7.52484 22.4381 7.69069 22.2357C7.85895 22.0321 7.81416 21.7452 7.61805 21.606Z" fill="#C2C0B7"/>
<path d="M7.54542 21.619C7.34689 21.4833 6.60363 21.0321 5.39068 21.0321C3.633 21.0321 2.20216 22.2786 2.20216 23.8095C2.20216 25.0452 3.1391 26.0833 4.42105 26.4417V25.6131C3.59184 25.3048 3.00837 24.6155 3.00837 23.8095C3.00837 22.7155 4.07605 21.825 5.38947 21.825C6.32037 21.825 6.8881 22.1393 7.04305 22.2393C7.21616 22.3512 7.46795 22.3643 7.61684 22.1786C7.76937 21.9905 7.71853 21.7369 7.54542 21.619Z" fill="#C7C5BC"/>
<path d="M7.47279 21.6321C7.24642 21.4821 6.52858 21.0821 5.39068 21.0821C3.66084 21.0821 2.253 22.306 2.253 23.8107C2.253 25.0191 3.16695 26.0357 4.42226 26.3917V25.6667C3.56279 25.3548 2.95873 24.6417 2.95873 23.8095C2.95873 22.6881 4.04942 21.7762 5.39068 21.7762C6.28889 21.7762 6.85421 22.0619 7.03942 22.1786C7.18831 22.2726 7.41226 22.2917 7.54542 22.1226C7.67979 21.9488 7.62168 21.7298 7.47279 21.6321Z" fill="#CCCBC2"/>
<path d="M7.39895 21.644C7.14474 21.481 6.45232 21.131 5.38948 21.131C3.68626 21.131 2.30142 22.3321 2.30142 23.8095C2.30142 24.9917 3.19358 25.9857 4.41984 26.3405V25.7214C3.53374 25.4036 2.9079 24.669 2.9079 23.8095C2.9079 22.6607 4.02158 21.7262 5.39069 21.7262C6.255 21.7262 6.8179 21.9845 7.03458 22.1179C7.15805 22.1941 7.35537 22.2179 7.47158 22.0655C7.59142 21.9071 7.52363 21.7238 7.39895 21.644Z" fill="#D1D0C7"/>
<path d="M7.32631 21.6571C7.04184 21.4833 6.37726 21.181 5.39068 21.181C3.71531 21.181 2.35347 22.3607 2.35347 23.8095C2.35347 24.9643 3.22384 25.9369 4.42105 26.2893V25.7738C3.50589 25.4536 2.85705 24.6964 2.85705 23.8095C2.85705 22.6333 3.99252 21.6762 5.38947 21.6762C6.21989 21.6762 6.78037 21.9083 7.02852 22.056C7.12779 22.1155 7.29726 22.144 7.39652 22.0071C7.50184 21.8655 7.42558 21.7179 7.32631 21.6571Z" fill="#D7D5CD"/>
<path d="M7.25369 21.6691C6.93774 21.4869 6.30221 21.2298 5.39069 21.2298C3.74316 21.2298 2.40432 22.3869 2.40432 23.8095C2.40432 24.9369 3.25169 25.8881 4.42227 26.2381V25.8274C3.47685 25.5024 2.80742 24.7226 2.80742 23.8095C2.80742 22.606 3.9659 21.6274 5.39069 21.6274C6.18842 21.6274 6.74285 21.8369 7.02611 21.9964C7.09995 22.0381 7.24279 22.0714 7.32511 21.9512C7.41227 21.8238 7.32874 21.7131 7.25369 21.6691Z" fill="#DCDBD2"/>
<path d="M7.17984 21.6821C6.82758 21.5012 6.22595 21.2798 5.38947 21.2798C3.76979 21.2798 2.45274 22.4143 2.45274 23.8095C2.45274 24.9107 3.27831 25.8393 4.41984 26.1869V25.881C3.44779 25.5524 2.75658 24.75 2.75658 23.8095C2.75658 22.5786 3.93805 21.5774 5.39068 21.5774C6.15452 21.5774 6.70047 21.7726 7.02126 21.9357C7.06968 21.9607 7.18589 21.9988 7.25247 21.8952C7.32268 21.7821 7.23068 21.7083 7.17984 21.6821Z" fill="#E1E0D8"/>
<path d="M7.83716 21.5691C7.74637 21.4941 6.90505 20.8333 5.39068 20.8333C3.52163 20.8333 2 22.1691 2 23.8095C2 25.1524 3.02653 26.2774 4.42105 26.6464V25.4C3.70684 25.1071 3.21053 24.5071 3.21053 23.8095C3.21053 22.825 4.18863 22.0238 5.39068 22.0238C6.45595 22.0238 7.02732 22.456 7.06242 22.4833C7.31784 22.6905 7.69432 22.6571 7.911 22.4083C8.12647 22.156 8.09258 21.7798 7.83716 21.5691Z" fill="url(#paint6_linear_492_279)"/>
<path d="M7.44737 16.0714C8.11592 16.0714 8.65789 15.5384 8.65789 14.881C8.65789 14.2235 8.11592 13.6905 7.44737 13.6905C6.77881 13.6905 6.23684 14.2235 6.23684 14.881C6.23684 15.5384 6.77881 16.0714 7.44737 16.0714Z" fill="#685446"/>
<path d="M7.44737 16.0071C8.07982 16.0071 8.59252 15.5029 8.59252 14.881C8.59252 14.259 8.07982 13.7548 7.44737 13.7548C6.81491 13.7548 6.30221 14.259 6.30221 14.881C6.30221 15.5029 6.81491 16.0071 7.44737 16.0071Z" fill="#634F42"/>
<path d="M7.44737 15.944C8.04439 15.944 8.52837 15.4681 8.52837 14.881C8.52837 14.2938 8.04439 13.8179 7.44737 13.8179C6.85035 13.8179 6.36637 14.2938 6.36637 14.881C6.36637 15.4681 6.85035 15.944 7.44737 15.944Z" fill="#5E4A3F"/>
<path d="M7.44737 15.8798C8.00829 15.8798 8.463 15.4326 8.463 14.881C8.463 14.3293 8.00829 13.8821 7.44737 13.8821C6.88645 13.8821 6.43174 14.3293 6.43174 14.881C6.43174 15.4326 6.88645 15.8798 7.44737 15.8798Z" fill="#59453B"/>
<path d="M7.44737 15.8167C7.97285 15.8167 8.39884 15.3977 8.39884 14.881C8.39884 14.3642 7.97285 13.9452 7.44737 13.9452C6.92189 13.9452 6.4959 14.3642 6.4959 14.881C6.4959 15.3977 6.92189 15.8167 7.44737 15.8167Z" fill="#534038"/>
<path d="M7.44737 15.7524C7.93675 15.7524 8.33348 15.3622 8.33348 14.881C8.33348 14.3997 7.93675 14.0095 7.44737 14.0095C6.95799 14.0095 6.56126 14.3997 6.56126 14.881C6.56126 15.3622 6.95799 15.7524 7.44737 15.7524Z" fill="#4E3B34"/>
<path d="M7.44737 15.6893C7.90132 15.6893 8.26931 15.3274 8.26931 14.8809C8.26931 14.4345 7.90132 14.0726 7.44737 14.0726C6.99342 14.0726 6.62542 14.4345 6.62542 14.8809C6.62542 15.3274 6.99342 15.6893 7.44737 15.6893Z" fill="#493631"/>
<path d="M7.44737 15.625C7.86521 15.625 8.20395 15.2919 8.20395 14.881C8.20395 14.47 7.86521 14.1369 7.44737 14.1369C7.02952 14.1369 6.69079 14.47 6.69079 14.881C6.69079 15.2919 7.02952 15.625 7.44737 15.625Z" fill="#44312D"/>
<path d="M7.44737 16.6667H4.42105V14.881H8.05263C8.05263 14.881 8.05263 15.744 8.05263 16.0714C8.05263 16.3988 7.78026 16.6667 7.44737 16.6667Z" fill="url(#paint7_radial_492_279)"/>
<path d="M7.83716 14.4262C7.74637 14.3512 6.90505 13.6905 5.39068 13.6905C3.52163 13.6905 2 15.0262 2 16.6667C2 18.0095 3.02653 19.1345 4.42105 19.5036V18.2571C3.70684 17.9643 3.21053 17.3643 3.21053 16.6667C3.21053 15.6821 4.18863 14.881 5.39068 14.881C6.45595 14.881 7.02732 15.3131 7.06242 15.3405C7.31784 15.5476 7.69432 15.5143 7.911 15.2655C8.12647 15.0131 8.09258 14.6369 7.83716 14.4262Z" fill="#B2B0A6"/>
<path d="M7.76453 14.4381C7.64711 14.3476 6.83 13.7393 5.39068 13.7393C3.54947 13.7393 2.05084 15.0524 2.05084 16.6655C2.05084 17.9821 3.05437 19.0857 4.42105 19.4512V18.3095C3.67779 18.0143 3.15968 17.3917 3.15968 16.6667C3.15968 15.6548 4.15958 14.831 5.38947 14.831C6.42084 14.831 6.99221 15.2333 7.05637 15.2786C7.29968 15.4512 7.63742 15.4417 7.83595 15.2071C8.03689 14.9714 8.003 14.6226 7.76453 14.4381Z" fill="#B7B5AC"/>
<path d="M7.69189 14.4512C7.54784 14.3452 6.75495 13.7893 5.39068 13.7893C3.57732 13.7893 2.10168 15.0798 2.10168 16.6667C2.10168 17.956 3.08342 19.0381 4.42226 19.4012V18.3643C3.64874 18.0631 3.11005 17.419 3.11005 16.6667C3.11005 15.6274 4.13295 14.7821 5.39068 14.7821C6.38937 14.7821 6.95832 15.1548 7.05274 15.219C7.27426 15.3702 7.58174 15.369 7.76453 15.1512C7.94853 14.931 7.90979 14.6107 7.69189 14.4512Z" fill="#BCBBB1"/>
<path d="M7.61805 14.4631C7.44737 14.3417 6.67869 13.8393 5.38948 13.8393C3.60395 13.8393 2.15011 15.1071 2.15011 16.6667C2.15011 17.9298 3.10885 18.9893 4.41985 19.35V18.4167C3.6209 18.1131 3.05921 17.4452 3.05921 16.6667C3.05921 15.6 4.10511 14.7321 5.39069 14.7321C6.35548 14.7321 6.92442 15.075 7.0479 15.1571C7.24521 15.2881 7.52484 15.2952 7.69069 15.0929C7.85895 14.8893 7.81416 14.6024 7.61805 14.4631Z" fill="#C2C0B7"/>
<path d="M7.54542 14.4762C7.34689 14.3405 6.60363 13.8893 5.39068 13.8893C3.633 13.8893 2.20216 15.1357 2.20216 16.6667C2.20216 17.9024 3.1391 18.9405 4.42105 19.2988V18.4702C3.59184 18.1619 3.00837 17.4726 3.00837 16.6667C3.00837 15.5726 4.07605 14.6821 5.38947 14.6821C6.32037 14.6821 6.8881 14.9964 7.04305 15.0964C7.21616 15.2083 7.46795 15.2214 7.61684 15.0357C7.76937 14.8476 7.71853 14.594 7.54542 14.4762Z" fill="#C7C5BC"/>
<path d="M7.47279 14.4893C7.24642 14.3393 6.52858 13.9393 5.39068 13.9393C3.66084 13.9393 2.253 15.1631 2.253 16.6679C2.253 17.8762 3.16695 18.8929 4.42226 19.2488V18.5238C3.56279 18.2119 2.95873 17.4988 2.95873 16.6667C2.95873 15.5452 4.04942 14.6333 5.39068 14.6333C6.28889 14.6333 6.85421 14.919 7.03942 15.0357C7.18831 15.1298 7.41226 15.1488 7.54542 14.9798C7.67979 14.806 7.62168 14.5869 7.47279 14.4893Z" fill="#CCCBC2"/>
<path d="M7.39895 14.5012C7.14474 14.3381 6.45232 13.9881 5.38948 13.9881C3.68626 13.9881 2.30142 15.1893 2.30142 16.6667C2.30142 17.8488 3.19358 18.8429 4.41984 19.1976V18.5786C3.53374 18.2607 2.9079 17.5262 2.9079 16.6667C2.9079 15.5179 4.02158 14.5833 5.39069 14.5833C6.255 14.5833 6.8179 14.8417 7.03458 14.975C7.15805 15.0512 7.35537 15.075 7.47158 14.9226C7.59142 14.7643 7.52363 14.581 7.39895 14.5012Z" fill="#D1D0C7"/>
<path d="M7.32631 14.5143C7.04184 14.3405 6.37726 14.0381 5.39068 14.0381C3.71531 14.0381 2.35347 15.2179 2.35347 16.6667C2.35347 17.8214 3.22384 18.794 4.42105 19.1464V18.631C3.50589 18.3107 2.85705 17.5536 2.85705 16.6667C2.85705 15.4905 3.99252 14.5333 5.38947 14.5333C6.21989 14.5333 6.78037 14.7655 7.02852 14.9131C7.12779 14.9726 7.29726 15.0012 7.39652 14.8643C7.50184 14.7226 7.42558 14.575 7.32631 14.5143Z" fill="#D7D5CD"/>
<path d="M7.25369 14.5262C6.93774 14.344 6.30221 14.0869 5.39069 14.0869C3.74316 14.0869 2.40432 15.244 2.40432 16.6667C2.40432 17.794 3.25169 18.7452 4.42227 19.0952V18.6845C3.47685 18.3595 2.80742 17.5798 2.80742 16.6667C2.80742 15.4631 3.9659 14.4845 5.39069 14.4845C6.18842 14.4845 6.74285 14.694 7.02611 14.8536C7.09995 14.8952 7.24279 14.9286 7.32511 14.8083C7.41227 14.681 7.32874 14.5702 7.25369 14.5262Z" fill="#DCDBD2"/>
<path d="M7.17984 14.5393C6.82758 14.3583 6.22595 14.1369 5.38947 14.1369C3.76979 14.1369 2.45274 15.2714 2.45274 16.6667C2.45274 17.7679 3.27831 18.6964 4.41984 19.044V18.7381C3.44779 18.4095 2.75658 17.6071 2.75658 16.6667C2.75658 15.4357 3.93805 14.4345 5.39068 14.4345C6.15452 14.4345 6.70047 14.6298 7.02126 14.7929C7.06968 14.8179 7.18589 14.856 7.25247 14.7524C7.32268 14.6393 7.23068 14.5655 7.17984 14.5393Z" fill="#E1E0D8"/>
<path d="M7.83716 14.4262C7.74637 14.3512 6.90505 13.6905 5.39068 13.6905C3.52163 13.6905 2 15.0262 2 16.6667C2 18.0095 3.02653 19.1345 4.42105 19.5036V18.2571C3.70684 17.9643 3.21053 17.3643 3.21053 16.6667C3.21053 15.6821 4.18863 14.881 5.39068 14.881C6.45595 14.881 7.02732 15.3131 7.06242 15.3405C7.31784 15.5476 7.69432 15.5143 7.911 15.2655C8.12647 15.0131 8.09258 14.6369 7.83716 14.4262Z" fill="url(#paint8_linear_492_279)"/>
<path d="M7.44737 8.92857C8.11592 8.92857 8.65789 8.39558 8.65789 7.7381C8.65789 7.08061 8.11592 6.54762 7.44737 6.54762C6.77881 6.54762 6.23684 7.08061 6.23684 7.7381C6.23684 8.39558 6.77881 8.92857 7.44737 8.92857Z" fill="#685446"/>
<path d="M7.44737 8.86429C8.07982 8.86429 8.59252 8.36007 8.59252 7.73809C8.59252 7.11612 8.07982 6.6119 7.44737 6.6119C6.81491 6.6119 6.30221 7.11612 6.30221 7.73809C6.30221 8.36007 6.81491 8.86429 7.44737 8.86429Z" fill="#634F42"/>
<path d="M7.44737 8.80119C8.04439 8.80119 8.52837 8.32523 8.52837 7.73809C8.52837 7.15096 8.04439 6.675 7.44737 6.675C6.85035 6.675 6.36637 7.15096 6.36637 7.73809C6.36637 8.32523 6.85035 8.80119 7.44737 8.80119Z" fill="#5E4A3F"/>
<path d="M7.44737 8.7369C8.00829 8.7369 8.463 8.28972 8.463 7.7381C8.463 7.18647 8.00829 6.73929 7.44737 6.73929C6.88645 6.73929 6.43174 7.18647 6.43174 7.7381C6.43174 8.28972 6.88645 8.7369 7.44737 8.7369Z" fill="#59453B"/>
<path d="M7.44737 8.67381C7.97285 8.67381 8.39884 8.25487 8.39884 7.73809C8.39884 7.22131 7.97285 6.80238 7.44737 6.80238C6.92189 6.80238 6.4959 7.22131 6.4959 7.73809C6.4959 8.25487 6.92189 8.67381 7.44737 8.67381Z" fill="#534038"/>
<path d="M7.44737 8.60952C7.93675 8.60952 8.33348 8.21937 8.33348 7.73809C8.33348 7.25682 7.93675 6.86666 7.44737 6.86666C6.95799 6.86666 6.56126 7.25682 6.56126 7.73809C6.56126 8.21937 6.95799 8.60952 7.44737 8.60952Z" fill="#4E3B34"/>
<path d="M7.44737 8.54643C7.90132 8.54643 8.26931 8.18453 8.26931 7.7381C8.26931 7.29166 7.90132 6.92976 7.44737 6.92976C6.99342 6.92976 6.62542 7.29166 6.62542 7.7381C6.62542 8.18453 6.99342 8.54643 7.44737 8.54643Z" fill="#493631"/>
<path d="M7.44737 8.48214C7.86521 8.48214 8.20395 8.14902 8.20395 7.73809C8.20395 7.32717 7.86521 6.99405 7.44737 6.99405C7.02952 6.99405 6.69079 7.32717 6.69079 7.73809C6.69079 8.14902 7.02952 8.48214 7.44737 8.48214Z" fill="#44312D"/>
<path d="M7.44737 9.52381H4.42105V7.73809H8.05263C8.05263 7.73809 8.05263 8.60119 8.05263 8.92857C8.05263 9.25595 7.78026 9.52381 7.44737 9.52381Z" fill="url(#paint9_radial_492_279)"/>
<path d="M7.83716 7.28333C7.74637 7.20714 6.90626 6.54762 5.39068 6.54762C3.52163 6.54762 2 7.88333 2 9.52381C2 10.8667 3.02653 11.9917 4.42105 12.3607V11.1143C3.70684 10.8214 3.21053 10.2214 3.21053 9.52381C3.21053 8.53929 4.18863 7.7381 5.39068 7.7381C6.45595 7.7381 7.02732 8.17024 7.06242 8.19762C7.31784 8.40476 7.69432 8.37143 7.911 8.12262C8.12647 7.87024 8.09258 7.49405 7.83716 7.28333Z" fill="#B2B0A6"/>
<path d="M7.76453 7.29524C7.64711 7.20476 6.83 6.59762 5.39068 6.59762C3.54947 6.59762 2.05084 7.91071 2.05084 9.52381C2.05084 10.8405 3.05437 11.944 4.42105 12.3095V11.1679C3.67779 10.8714 3.15968 10.2488 3.15968 9.52381C3.15968 8.5119 4.15958 7.68809 5.38947 7.68809C6.42084 7.68809 6.99221 8.09048 7.05637 8.13571C7.29968 8.30833 7.63742 8.29881 7.83595 8.06429C8.03689 7.82857 8.003 7.47976 7.76453 7.29524Z" fill="#B7B5AC"/>
<path d="M7.69189 7.30833C7.54784 7.20238 6.75495 6.64643 5.39068 6.64643C3.57732 6.64643 2.10168 7.93691 2.10168 9.52381C2.10168 10.8131 3.08342 11.8952 4.42226 12.2583V11.2214C3.64874 10.9202 3.11005 10.2762 3.11005 9.52381C3.11005 8.48452 4.13295 7.63929 5.39068 7.63929C6.38937 7.63929 6.95832 8.01191 7.05274 8.07619C7.27426 8.22738 7.58174 8.22619 7.76453 8.00833C7.94853 7.7881 7.90979 7.46786 7.69189 7.30833Z" fill="#BCBBB1"/>
<path d="M7.61805 7.32024C7.44737 7.2 6.67868 6.69643 5.39068 6.69643C3.60516 6.69643 2.15131 7.96429 2.15131 9.52381C2.15131 10.7869 3.11005 11.8464 4.42105 12.2071V11.2738C3.62089 10.9702 3.05921 10.3024 3.05921 9.52381C3.05921 8.45714 4.1051 7.58929 5.39068 7.58929C6.35547 7.58929 6.92442 7.93214 7.04789 8.01429C7.24521 8.14524 7.52484 8.15238 7.69068 7.95C7.85895 7.74643 7.81416 7.45952 7.61805 7.32024Z" fill="#C2C0B7"/>
<path d="M7.54542 7.33333C7.34689 7.19762 6.60363 6.74643 5.39068 6.74643C3.633 6.74643 2.20216 7.99286 2.20216 9.52381C2.20216 10.7595 3.1391 11.7976 4.42105 12.156V11.3274C3.59184 11.019 3.00837 10.3298 3.00837 9.52381C3.00837 8.42976 4.07605 7.53929 5.38947 7.53929C6.32037 7.53929 6.8881 7.85357 7.04305 7.95357C7.21616 8.06548 7.46795 8.07857 7.61684 7.89286C7.76937 7.70476 7.71853 7.45119 7.54542 7.33333Z" fill="#C7C5BC"/>
<path d="M7.47279 7.34643C7.24642 7.19643 6.52858 6.79643 5.39068 6.79643C3.66084 6.79643 2.253 8.02024 2.253 9.525C2.253 10.7333 3.16695 11.75 4.42226 12.106V11.381C3.56279 11.069 2.95873 10.356 2.95873 9.52381C2.95873 8.40238 4.04942 7.49048 5.39068 7.49048C6.28889 7.49048 6.85421 7.77619 7.03942 7.89286C7.18831 7.98691 7.41226 8.00595 7.54542 7.83691C7.67979 7.6631 7.62168 7.44405 7.47279 7.34643Z" fill="#CCCBC2"/>
<path d="M7.39895 7.35833C7.14474 7.19524 6.45232 6.84524 5.39069 6.84524C3.68748 6.84524 2.30264 8.04643 2.30264 9.52381C2.30264 10.706 3.19479 11.7 4.42106 12.0548V11.4357C3.53374 11.1179 2.9079 10.3833 2.9079 9.52381C2.9079 8.375 4.02158 7.44048 5.39069 7.44048C6.255 7.44048 6.8179 7.69881 7.03458 7.83214C7.15806 7.90833 7.35537 7.93214 7.47158 7.77976C7.59143 7.62143 7.52364 7.43809 7.39895 7.35833Z" fill="#D1D0C7"/>
<path d="M7.32631 7.37143C7.04184 7.19762 6.37726 6.89524 5.39068 6.89524C3.71531 6.89524 2.35347 8.075 2.35347 9.52381C2.35347 10.6786 3.22384 11.6512 4.42105 12.0036V11.4881C3.50589 11.1679 2.85705 10.4107 2.85705 9.52381C2.85705 8.34762 3.99252 7.39048 5.38947 7.39048C6.21989 7.39048 6.78037 7.62262 7.02852 7.77024C7.12779 7.82976 7.29726 7.85833 7.39652 7.72143C7.50184 7.57976 7.42558 7.43214 7.32631 7.37143Z" fill="#D7D5CD"/>
<path d="M7.25369 7.38333C6.93774 7.20119 6.30221 6.94405 5.39069 6.94405C3.74316 6.94405 2.40311 8.10119 2.40311 9.52381C2.40311 10.6512 3.25047 11.6024 4.42105 11.9524V11.5417C3.47684 11.2167 2.80742 10.4369 2.80742 9.52381C2.80742 8.32024 3.9659 7.34167 5.39069 7.34167C6.18842 7.34167 6.74284 7.55119 7.02611 7.71071C7.09995 7.75238 7.24279 7.78571 7.32511 7.66548C7.41226 7.5381 7.32874 7.42738 7.25369 7.38333Z" fill="#DCDBD2"/>
<path d="M7.17984 7.39643C6.82758 7.21548 6.22595 6.99405 5.39069 6.99405C3.771 6.99405 2.45395 8.12857 2.45395 9.52381C2.45395 10.625 3.27953 11.5536 4.42105 11.9012V11.5952C3.44779 11.2667 2.75658 10.4643 2.75658 9.52381C2.75658 8.29286 3.93805 7.29167 5.39069 7.29167C6.15453 7.29167 6.70048 7.4869 7.02127 7.65C7.06969 7.675 7.1859 7.7131 7.25248 7.60952C7.32269 7.49643 7.23069 7.42262 7.17984 7.39643Z" fill="#E1E0D8"/>
<path d="M7.83716 7.28333C7.74637 7.20714 6.90626 6.54762 5.39068 6.54762C3.52163 6.54762 2 7.88333 2 9.52381C2 10.8667 3.02653 11.9917 4.42105 12.3607V11.1143C3.70684 10.8214 3.21053 10.2214 3.21053 9.52381C3.21053 8.53929 4.18863 7.7381 5.39068 7.7381C6.45595 7.7381 7.02732 8.17024 7.06242 8.19762C7.31784 8.40476 7.69432 8.37143 7.911 8.12262C8.12647 7.87024 8.09258 7.49405 7.83716 7.28333Z" fill="url(#paint10_linear_492_279)"/>
<path d="M46.7895 14.881H45.5789V7.73809H46.7895C47.4577 7.73809 48 8.27143 48 8.92857V13.6905C48 14.3476 47.4577 14.881 46.7895 14.881Z" fill="#43A047"/>
<path d="M46.7895 14.881H45.5789V7.73809H46.7895C47.4577 7.73809 48 8.27143 48 8.92857V13.6905C48 14.3476 47.4577 14.881 46.7895 14.881Z" fill="url(#paint11_linear_492_279)"/>
<path d="M46.7895 14.881H45.5789V7.73809H46.7895C47.4577 7.73809 48 8.27143 48 8.92857V13.6905C48 14.3476 47.4577 14.881 46.7895 14.881Z" fill="url(#paint12_linear_492_279)"/>
<path d="M46.7895 20.2381H45.5789V13.0952H46.7895C47.4577 13.0952 48 13.6286 48 14.2857V19.0476C48 19.7048 47.4577 20.2381 46.7895 20.2381Z" fill="#FDD835"/>
<path d="M45.5789 22.619V15.4762H46.7895C47.4577 15.4762 48 16.0095 48 16.6667V22.619H45.5789Z" fill="url(#paint13_linear_492_279)"/>
<path d="M46.7895 20.2381H45.5789V13.0952H46.7895C47.4577 13.0952 48 13.6286 48 14.2857V19.0476C48 19.7048 47.4577 20.2381 46.7895 20.2381Z" fill="url(#paint14_linear_492_279)"/>
<path d="M46.7895 25H45.5789V17.8571H46.7895C47.4577 17.8571 48 18.3905 48 19.0476V23.8095C48 24.4667 47.4577 25 46.7895 25Z" fill="#E53935"/>
<path d="M46.7895 25H45.5789V17.8571H46.7895C47.4577 17.8571 48 18.3905 48 19.0476V23.8095C48 24.4667 47.4577 25 46.7895 25Z" fill="url(#paint15_linear_492_279)"/>
<defs>
<linearGradient id="paint0_linear_492_279" x1="11.6842" y1="47.0238" x2="45.5789" y2="47.0238" gradientUnits="userSpaceOnUse">
<stop stop-color="#FB8C00"/>
<stop offset="1" stop-color="#EF6C00"/>
</linearGradient>
<radialGradient id="paint1_radial_492_279" cx="0" cy="0" r="1" gradientUnits="userSpaceOnUse" gradientTransform="translate(4.79995 36.3576) scale(4.16179 1.66784)">
<stop offset="0.29" stop-opacity="0.3"/>
<stop offset="0.935" stop-opacity="0"/>
</radialGradient>
<linearGradient id="paint2_linear_492_279" x1="7.47642" y1="39.5571" x2="3.19801" y2="36.2682" gradientUnits="userSpaceOnUse">
<stop offset="0.29" stop-opacity="0.3"/>
<stop offset="0.935" stop-opacity="0"/>
</linearGradient>
<radialGradient id="paint3_radial_492_279" cx="0" cy="0" r="1" gradientUnits="userSpaceOnUse" gradientTransform="translate(4.79995 29.2147) scale(4.16179 1.66784)">
<stop offset="0.29" stop-opacity="0.3"/>
<stop offset="0.935" stop-opacity="0"/>
</radialGradient>
<linearGradient id="paint4_linear_492_279" x1="7.47642" y1="32.4155" x2="3.19804" y2="29.1253" gradientUnits="userSpaceOnUse">
<stop offset="0.29" stop-opacity="0.3"/>
<stop offset="0.935" stop-opacity="0"/>
</linearGradient>
<radialGradient id="paint5_radial_492_279" cx="0" cy="0" r="1" gradientUnits="userSpaceOnUse" gradientTransform="translate(4.79995 22.0719) scale(4.16179 1.66784)">
<stop offset="0.29" stop-opacity="0.3"/>
<stop offset="0.935" stop-opacity="0"/>
</radialGradient>
<linearGradient id="paint6_linear_492_279" x1="7.47642" y1="25.2726" x2="3.19804" y2="21.9824" gradientUnits="userSpaceOnUse">
<stop offset="0.29" stop-opacity="0.3"/>
<stop offset="0.935" stop-opacity="0"/>
</linearGradient>
<radialGradient id="paint7_radial_492_279" cx="0" cy="0" r="1" gradientUnits="userSpaceOnUse" gradientTransform="translate(4.79995 14.9302) scale(4.16179 1.66784)">
<stop offset="0.29" stop-opacity="0.3"/>
<stop offset="0.935" stop-opacity="0"/>
</radialGradient>
<linearGradient id="paint8_linear_492_279" x1="7.47642" y1="18.1298" x2="3.19804" y2="14.8396" gradientUnits="userSpaceOnUse">
<stop offset="0.29" stop-opacity="0.3"/>
<stop offset="0.935" stop-opacity="0"/>
</linearGradient>
<radialGradient id="paint9_radial_492_279" cx="0" cy="0" r="1" gradientUnits="userSpaceOnUse" gradientTransform="translate(4.79995 7.78734) scale(4.16179 1.66784)">
<stop offset="0.29" stop-opacity="0.3"/>
<stop offset="0.935" stop-opacity="0"/>
</radialGradient>
<linearGradient id="paint10_linear_492_279" x1="7.47642" y1="10.9869" x2="3.19804" y2="7.69672" gradientUnits="userSpaceOnUse">
<stop offset="0.29" stop-opacity="0.3"/>
<stop offset="0.935" stop-opacity="0"/>
</linearGradient>
<linearGradient id="paint11_linear_492_279" x1="48" y1="11.3095" x2="45.5789" y2="11.3095" gradientUnits="userSpaceOnUse">
<stop stop-opacity="0"/>
<stop offset="1" stop-color="#006837" stop-opacity="0.3"/>
</linearGradient>
<linearGradient id="paint12_linear_492_279" x1="48" y1="11.3095" x2="45.5789" y2="11.3095" gradientUnits="userSpaceOnUse">
<stop stop-opacity="0"/>
<stop offset="0.003" stop-color="#000100" stop-opacity="0.01"/>
<stop offset="0.114" stop-color="#002111" stop-opacity="0.034"/>
<stop offset="0.234" stop-color="#003B1F" stop-opacity="0.07"/>
<stop offset="0.366" stop-color="#004F2A" stop-opacity="0.11"/>
<stop offset="0.516" stop-color="#005D31" stop-opacity="0.155"/>
<stop offset="0.698" stop-color="#006536" stop-opacity="0.209"/>
<stop offset="1" stop-color="#006837" stop-opacity="0.3"/>
</linearGradient>
<linearGradient id="paint13_linear_492_279" x1="46.7895" y1="22.619" x2="46.7895" y2="15.4762" gradientUnits="userSpaceOnUse">
<stop stop-color="#754C24" stop-opacity="0.3"/>
<stop offset="1" stop-opacity="0"/>
</linearGradient>
<linearGradient id="paint14_linear_492_279" x1="45.5789" y1="16.6667" x2="48" y2="16.6667" gradientUnits="userSpaceOnUse">
<stop stop-color="#754C24" stop-opacity="0.3"/>
<stop offset="0.038" stop-color="#684320" stop-opacity="0.288"/>
<stop offset="0.146" stop-color="#482F16" stop-opacity="0.256"/>
<stop offset="0.262" stop-color="#2E1E0E" stop-opacity="0.221"/>
<stop offset="0.39" stop-color="#191008" stop-opacity="0.183"/>
<stop offset="0.534" stop-color="#0B0703" stop-opacity="0.14"/>
<stop offset="0.709" stop-color="#030201" stop-opacity="0.087"/>
<stop offset="1" stop-opacity="0"/>
</linearGradient>
<linearGradient id="paint15_linear_492_279" x1="45.5789" y1="21.4286" x2="48" y2="21.4286" gradientUnits="userSpaceOnUse">
<stop stop-color="#754C24" stop-opacity="0.3"/>
<stop offset="0.038" stop-color="#684320" stop-opacity="0.288"/>
<stop offset="0.146" stop-color="#482F16" stop-opacity="0.256"/>
<stop offset="0.262" stop-color="#2E1E0E" stop-opacity="0.221"/>
<stop offset="0.39" stop-color="#191008" stop-opacity="0.183"/>
<stop offset="0.534" stop-color="#0B0703" stop-opacity="0.14"/>
<stop offset="0.709" stop-color="#030201" stop-opacity="0.087"/>
<stop offset="1" stop-opacity="0"/>
</linearGradient>
</defs>
</svg>
