<svg width="50.000000" height="50.000000" viewBox="0 0 50 50" fill="none" xmlns="http://www.w3.org/2000/svg" xmlns:xlink="http://www.w3.org/1999/xlink">
	<desc>
			Created with Pixso.
	</desc>
	<defs/>
	<g opacity="0.000000">
		<rect id="Прямоугольник 45" width="50.000000" height="50.000000" fill="#C4C4C4" fill-opacity="1.000000"/>
	</g>
	<path id="path" d="M18.64 18.54L18.64 15.65C18.93 15.64 19.23 15.62 19.52 15.62C27.69 15.37 33.05 22.42 33.05 22.42C33.05 22.42 27.27 30.19 21.07 30.19C20.24 30.19 19.43 30.06 18.66 29.81L18.66 21.05C21.84 21.42 22.48 22.78 24.38 25.86L28.63 22.4C28.63 22.4 25.52 18.47 20.29 18.47C19.74 18.45 19.19 18.49 18.64 18.54ZM18.64 9L18.64 13.3L19.52 13.25C30.87 12.88 38.29 22.26 38.29 22.26C38.29 22.26 29.79 32.27 20.94 32.27C20.16 32.27 19.41 32.2 18.66 32.07L18.66 34.74C19.28 34.82 19.93 34.87 20.55 34.87C28.8 34.87 34.76 30.79 40.54 25.98C41.49 26.73 45.41 28.53 46.22 29.31C40.74 33.77 27.95 37.34 20.7 37.34C20 37.34 19.34 37.31 18.67 37.24L18.67 41L50 41L50 9L18.64 9ZM18.66 29.81L18.64 32.09C11.02 30.77 8.9 23.1 8.9 23.1C8.9 23.1 12.56 19.18 18.64 18.54L18.66 21.05L18.62 21.03C15.43 20.66 12.93 23.54 12.93 23.54C12.93 23.54 14.37 28.41 18.66 29.81ZM5.11 22.78C5.11 22.78 9.62 16.33 18.66 15.65L18.64 13.3C8.63 14.09 0 22.28 0 22.28C0 22.28 4.89 35.99 18.64 37.24L18.66 34.74C8.57 33.53 5.11 22.78 5.11 22.78Z" fill="#76B900" fill-opacity="1.000000" fill-rule="nonzero"/>
</svg>
