<svg width="50.000000" height="50.000000" viewBox="0 0 50 50" fill="none" xmlns="http://www.w3.org/2000/svg" xmlns:xlink="http://www.w3.org/1999/xlink">
	<desc>
			Created with Pixso.
	</desc>
	<defs/>
	<path id="path" d="M10.41 0L39.58 0C45.33 0 50 4.66 50 10.41L50 39.58C50 45.33 45.33 50 39.58 50L10.41 50C4.66 50 0 45.33 0 39.58L0 10.41C0 4.66 4.66 0 10.41 0Z" fill="#2962FF" fill-opacity="1.000000" fill-rule="nonzero"/>
	<path id="path" d="M21.52 27.89L17.95 27.89L22.51 21.86C22.61 21.73 22.58 21.53 22.45 21.43C22.4 21.39 22.33 21.37 22.27 21.37L15.67 21.37C15.09 21.37 14.61 21.85 14.61 22.43C14.61 23 15.09 23.48 15.67 23.48L18.63 23.48L14.05 29.52C13.95 29.65 13.98 29.84 14.11 29.95C14.17 29.99 14.23 30.01 14.3 30.01L21.52 30.01C22.1 29.98 22.54 29.48 22.52 28.9C22.49 28.36 22.06 27.92 21.52 27.89ZM44.58 21.37C44 21.37 43.53 21.85 43.53 22.43L43.53 25.97L37.83 21.44C37.7 21.34 37.51 21.35 37.4 21.49C37.36 21.54 37.34 21.61 37.34 21.68L37.34 28.95C37.34 29.53 37.81 30.01 38.39 30.01C38.97 30.01 39.45 29.54 39.45 28.95L39.45 25.41L45.15 29.94C45.28 30.05 45.47 30.03 45.58 29.89C45.62 29.84 45.64 29.77 45.64 29.7L45.64 22.43C45.64 21.84 45.17 21.37 44.58 21.37ZM29.5 28.09C27.09 28.09 25.29 26.82 25.29 25.68C25.29 24.55 27.09 23.28 29.5 23.28C31.92 23.28 33.72 24.55 33.72 25.68C33.72 26.82 31.92 28.09 29.5 28.09ZM29.5 21.17C26.01 21.17 23.18 23.19 23.18 25.68C23.18 28.18 26.01 30.2 29.5 30.2C32.99 30.2 35.83 28.18 35.83 25.68C35.83 23.19 32.99 21.17 29.5 21.17ZM8.74 28.1C7.41 28.1 6.33 27.02 6.33 25.69C6.33 24.36 7.4 23.28 8.74 23.28C10.07 23.28 11.15 24.35 11.15 25.68C11.15 27.01 10.07 28.09 8.74 28.1ZM8.74 21.17C6.25 21.17 4.22 23.19 4.22 25.68C4.22 28.18 6.24 30.2 8.74 30.21C11.23 30.21 13.25 28.19 13.26 25.69C13.25 23.19 11.23 21.17 8.74 21.17Z" fill="#FFFFFF" fill-opacity="1.000000" fill-rule="nonzero"/>
</svg>
