<svg width="50.000000" height="50.000000" viewBox="0 0 50 50" fill="none" xmlns="http://www.w3.org/2000/svg" xmlns:xlink="http://www.w3.org/1999/xlink">
	<desc>
			Created with Pixso.
	</desc>
	<defs/>
	<rect id="Прямоугольник 52" width="50.000000" height="50.000000" fill="#4F95D3" fill-opacity="1.000000"/>
	<path id="a" d="M18.88 31.11L18.88 34.76L18.88 35.66C18.88 39.03 18.89 42.85 18.88 43.75C18.88 44.57 18.5 44.97 17.73 44.98C16.2 45 14.66 45 13.13 44.98C12.35 44.98 12 44.59 12 43.75L12 6.18C12 5.37 12.33 5.02 13.1 5.02C14.42 5.02 15.74 5.01 17.06 5.01C20.2 4.99 23.35 4.98 26.49 5.05C32.92 5.19 37.69 10.19 37.97 16.93C38.12 20.51 37.48 23.85 35.26 26.68C33.01 29.56 30.02 30.95 26.52 31.09C24.59 31.18 20.67 31.13 19.32 31.11L18.88 31.11ZM18.91 25.14L21.02 25.13C22.4 25.13 23.76 25.13 25.13 25.14C26.87 25.15 28.29 24.44 29.37 23.04C31.05 20.87 31.48 18.38 30.81 15.71C30.04 12.67 27.85 10.97 24.87 10.97L18.92 10.97C18.91 15.72 18.91 20.39 18.91 25.14Z" fill="#FFFFFF" fill-opacity="1.000000" fill-rule="evenodd"/>
</svg>
