<svg width="50.000488" height="50.000000" viewBox="0 0 50.0005 50" fill="none" xmlns="http://www.w3.org/2000/svg" xmlns:xlink="http://www.w3.org/1999/xlink">
	<desc>
			Created with Pixso.
	</desc>
	<defs/>
	<path id="path" d="M19.55 10C19.12 10 18.73 10.11 18.4 10.34C18.07 10.57 17.87 10.86 17.8 11.21L14.89 26.21L12.21 39.99L14.89 26.21C15.03 25.51 15.77 25 16.64 25L25.18 25C33.76 25 41.05 19.91 42.38 13.01C42.48 12.49 42.54 11.97 42.55 11.46C40.37 10.53 37.8 10 35 10L19.55 10Z" fill="#001C64" fill-opacity="1.000000" fill-rule="nonzero"/>
	<path id="path" d="M42.55 11.46C42.54 11.97 42.48 12.49 42.38 13.01C41.05 19.91 33.76 25 25.17 25L16.64 25C15.77 25 15.03 25.51 14.89 26.21L12.22 40L10.54 48.64C10.5 48.81 10.52 48.98 10.57 49.14C10.63 49.31 10.73 49.46 10.86 49.59C11 49.72 11.16 49.82 11.36 49.89C11.55 49.96 11.75 50 11.96 50L21.22 50C21.66 50 22.04 49.88 22.37 49.65C22.7 49.42 22.9 49.13 22.97 48.78L25.41 36.21C25.55 35.51 26.29 35 27.17 35L32.62 35C41.21 35 48.49 29.91 49.82 23.01C50.77 18.12 47.74 13.66 42.55 11.46Z" fill="#0070E0" fill-opacity="1.000000" fill-rule="nonzero"/>
	<path id="path" d="M9.03 0C8.6 0 8.21 0.11 7.88 0.34C7.55 0.57 7.35 0.86 7.28 1.21L0.01 38.64C-0.02 38.81 -0.01 38.98 0.05 39.14C0.11 39.31 0.2 39.45 0.34 39.58C0.48 39.72 0.64 39.82 0.83 39.89C1.02 39.96 1.23 40 1.44 40L12.21 40L14.89 26.21L17.8 11.21C17.87 10.86 18.07 10.57 18.4 10.34C18.73 10.11 19.12 10 19.55 10L35 10C37.8 10 40.37 10.53 42.55 11.46C42.7 5.18 36.32 0 27.55 0L9.03 0Z" fill="#003087" fill-opacity="1.000000" fill-rule="nonzero"/>
</svg>
