<svg width="50.000000" height="50.000000" viewBox="0 0 50 50" fill="none" xmlns="http://www.w3.org/2000/svg" xmlns:xlink="http://www.w3.org/1999/xlink">
	<desc>
			Created with Pixso.
	</desc>
	<defs/>
	<path id="path" d="M8.85 0L41.14 0C46.04 0 50 4.05 50 9.08L50 40.91C50 45.94 46.04 50 41.14 50L8.85 50C3.95 50 0 45.94 0 40.91L0 9.08C0 4.05 3.95 0 8.85 0Z" fill="#001E36" fill-opacity="1.000000" fill-rule="nonzero"/>
	<path id="path" d="M11.25 35.06L11.25 13.07C11.25 12.92 11.31 12.84 11.45 12.84C11.81 12.84 12.14 12.84 12.62 12.82C13.12 12.79 13.64 12.79 14.2 12.77C14.77 12.75 15.37 12.75 16.02 12.73C16.66 12.71 17.29 12.71 17.91 12.71C19.62 12.71 21.04 12.92 22.2 13.37C23.25 13.73 24.2 14.33 25 15.12C25.66 15.81 26.18 16.64 26.52 17.56C26.83 18.46 27 19.38 27 20.34C27 22.17 26.58 23.69 25.75 24.89C24.91 26.08 23.75 26.98 22.39 27.5C20.97 28.03 19.41 28.22 17.7 28.22C17.2 28.22 16.87 28.22 16.66 28.2C16.45 28.18 16.16 28.18 15.77 28.18L15.77 35.04C15.79 35.19 15.68 35.32 15.54 35.34C15.52 35.34 15.5 35.34 15.45 35.34L11.5 35.34C11.33 35.34 11.25 35.25 11.25 35.06ZM15.79 16.96L15.79 24.14C16.08 24.16 16.35 24.18 16.6 24.18L17.7 24.18C18.52 24.18 19.33 24.05 20.1 23.8C20.77 23.61 21.35 23.2 21.81 22.67C22.25 22.13 22.45 21.41 22.45 20.47C22.47 19.8 22.31 19.14 21.97 18.56C21.62 18.01 21.12 17.58 20.52 17.35C19.75 17.02 18.91 16.9 18.06 16.92C17.52 16.92 17.04 16.92 16.64 16.94C16.22 16.92 15.93 16.94 15.79 16.96Z" fill="#31A8FF" fill-opacity="1.000000" fill-rule="nonzero"/>
	<path id="path" d="M40 22.84C39.37 22.5 38.7 22.26 38 22.11C37.22 21.94 36.45 21.83 35.66 21.83C35.25 21.81 34.81 21.88 34.41 21.98C34.14 22.05 33.91 22.2 33.77 22.41C33.66 22.58 33.6 22.79 33.6 22.99C33.6 23.18 33.68 23.37 33.81 23.54C34 23.78 34.25 23.97 34.52 24.12C35 24.38 35.5 24.61 36 24.82C37.12 25.21 38.2 25.74 39.2 26.38C39.89 26.83 40.45 27.43 40.85 28.16C41.18 28.84 41.35 29.59 41.33 30.36C41.35 31.36 41.06 32.37 40.52 33.2C39.93 34.05 39.12 34.72 38.18 35.1C37.16 35.55 35.91 35.79 34.41 35.79C33.45 35.79 32.52 35.7 31.58 35.51C30.85 35.38 30.12 35.14 29.45 34.82C29.31 34.74 29.2 34.59 29.22 34.42L29.22 30.7C29.22 30.64 29.25 30.55 29.31 30.51C29.37 30.47 29.43 30.49 29.5 30.53C30.31 31.02 31.16 31.36 32.08 31.58C32.87 31.79 33.7 31.9 34.54 31.9C35.33 31.9 35.89 31.79 36.27 31.6C36.6 31.45 36.83 31.08 36.83 30.7C36.83 30.4 36.66 30.12 36.33 29.85C36 29.57 35.31 29.25 34.29 28.84C33.22 28.46 32.25 27.94 31.33 27.3C30.68 26.83 30.14 26.21 29.75 25.49C29.41 24.8 29.25 24.05 29.27 23.31C29.27 22.39 29.52 21.51 29.97 20.72C30.5 19.87 31.27 19.18 32.16 18.76C33.14 18.24 34.37 18.01 35.85 18.01C36.7 18.01 37.58 18.07 38.43 18.2C39.06 18.29 39.66 18.46 40.22 18.69C40.31 18.71 40.39 18.8 40.43 18.88C40.45 18.97 40.47 19.05 40.47 19.14L40.47 22.62C40.47 22.71 40.43 22.79 40.37 22.84C40.18 22.88 40.08 22.88 40 22.84Z" fill="#31A8FF" fill-opacity="1.000000" fill-rule="nonzero"/>
</svg>
