<svg width="50" height="50" viewBox="0 0 50 50" fill="none" xmlns="http://www.w3.org/2000/svg">
<path d="M25 38.4375C11.3875 38.4375 0.3125 32.4094 0.3125 25C0.3125 17.5906 11.3875 11.5625 25 11.5625C38.6125 11.5625 49.6875 17.5906 49.6875 25C49.6875 32.4094 38.6125 38.4375 25 38.4375Z" fill="#DCD5F2"/>
<path d="M25 11.875C38.4406 11.875 49.375 17.7631 49.375 25C49.375 32.2369 38.4406 38.125 25 38.125C11.5594 38.125 0.625 32.2369 0.625 25C0.625 17.7631 11.5594 11.875 25 11.875ZM25 11.25C11.1931 11.25 0 17.4063 0 25C0 32.5937 11.1931 38.75 25 38.75C38.8069 38.75 50 32.5937 50 25C50 17.4063 38.8069 11.25 25 11.25Z" fill="#8B75A1"/>
<path d="M15.695 21.25C16.7731 21.25 17.7037 21.6388 18.2475 22.3163C18.7156 22.9 18.8606 23.6731 18.665 24.5519C18.1394 26.9213 17.1219 27.5 13.4812 27.5H10.8938L11.9875 21.25H15.695ZM15.695 20H10.9375L8.75 32.5H10L10.66 28.75H13.4819C17.1462 28.75 19.14 28.1844 19.8856 24.8225C20.5262 21.935 18.3975 20 15.695 20ZM38.195 21.25C39.2731 21.25 40.2037 21.6388 40.7475 22.3163C41.2156 22.9 41.3606 23.6731 41.165 24.5519C40.6394 26.9213 39.6219 27.5 35.9812 27.5H33.3938L34.4875 21.25H38.195ZM38.195 20H33.4375L31.25 32.5H32.5L33.16 28.75H35.9819C39.6462 28.75 41.64 28.1844 42.3856 24.8225C43.0263 21.935 40.8975 20 38.195 20Z" fill="#36404D"/>
<path d="M30.67 20.7575C30.1206 20.2175 29.1525 20 27.7087 20H24.2475L25 16.25H23.6875L21.25 28.75H22.4938L23.9862 21.25H24.2481H27.7094C29.1706 21.25 29.6431 21.5 29.7937 21.6481C30.0081 21.8594 30.0588 22.4144 29.9294 23.125L28.825 28.75H30.1413L31.1575 23.3562C31.3744 22.1637 31.21 21.2888 30.67 20.7575Z" fill="#36404D"/>
</svg>
