<svg width="50" height="50" viewBox="0 0 50 50" fill="none" xmlns="http://www.w3.org/2000/svg">
<g clip-path="url(#clip0_666_137)">
<path fill-rule="evenodd" clip-rule="evenodd" d="M0 0H50V50H0V0Z" fill="url(#paint0_linear_666_137)"/>
<g filter="url(#filter0_d_666_137)">
<path d="M11.343 19.3924C17.2246 28.3742 26.6878 32.9909 37.8404 34.4378C37.4109 34.7904 36.9044 35.2874 36.313 35.8553C33.0641 38.9744 27.255 44.2372 17.5883 39.4666C6.16019 33.8266 11.777 22.1105 11.343 19.3924Z" fill="url(#paint1_linear_666_137)"/>
<mask id="mask0_666_137" style="mask-type:luminance" maskUnits="userSpaceOnUse" x="10" y="19" width="28" height="23">
<path d="M11.3629 19.3924C17.2313 28.3747 26.688 32.9868 37.8389 34.4261C37.4089 34.7792 36.9016 35.2768 36.3094 35.8455C33.0557 38.9688 27.2385 44.239 17.5785 39.473C6.15838 33.8386 11.7929 22.1117 11.3629 19.3924Z" fill="white"/>
</mask>
<g mask="url(#mask0_666_137)">
<path fill-rule="evenodd" clip-rule="evenodd" d="M11.6932 18.0288L15.9346 24.7036C14.664 26.332 13.5929 28.1717 12.7202 30.2226C11.8475 32.2735 11.6747 34.1744 12.201 35.9244L7.61885 32.8439L11.6932 18.0288Z" fill="url(#paint2_linear_666_137)"/>
</g>
<mask id="mask1_666_137" style="mask-type:luminance" maskUnits="userSpaceOnUse" x="10" y="19" width="28" height="23">
<path d="M11.3629 19.3924C17.2313 28.3747 26.688 32.9868 37.8389 34.4261C37.4089 34.7792 36.9016 35.2768 36.3094 35.8455C33.0557 38.9688 27.2385 44.239 17.5785 39.473C6.15838 33.8386 11.7929 22.1117 11.3629 19.3924Z" fill="white"/>
</mask>
<g mask="url(#mask1_666_137)">
<g filter="url(#filter1_d_666_137)">
<path d="M31.9927 31.9247L36.8611 34.5268C35.2421 36.7958 33.3471 38.6038 31.1759 39.9508C29.0047 41.2978 26.2754 41.9284 22.9887 41.8436L21.1553 41.1772C23.8792 40.7524 26.0885 39.5305 27.7834 37.5108C29.4783 35.4911 30.8813 33.6295 31.9927 31.9247Z" fill="black"/>
</g>
<path d="M31.9927 31.9247L36.8611 34.5268C35.2421 36.7958 33.3471 38.6038 31.1759 39.9508C29.0047 41.2978 26.2754 41.9284 22.9887 41.8436L21.1553 41.1772C23.8792 40.7524 26.0885 39.5305 27.7834 37.5108C29.4783 35.4911 30.8813 33.6295 31.9927 31.9247Z" fill="url(#paint3_radial_666_137)"/>
</g>
<mask id="mask2_666_137" style="mask-type:luminance" maskUnits="userSpaceOnUse" x="10" y="19" width="28" height="23">
<path d="M11.3629 19.3924C17.2313 28.3747 26.688 32.9868 37.8389 34.4261C37.4089 34.7792 36.9016 35.2768 36.3094 35.8455C33.0557 38.9688 27.2385 44.239 17.5785 39.473C6.15838 33.8386 11.7929 22.1117 11.3629 19.3924Z" fill="white"/>
</mask>
<g mask="url(#mask2_666_137)">
<g filter="url(#filter2_d_666_137)">
<path d="M26.5006 30.6527L33.5127 33.7572C32.1305 35.5564 30.3873 37.2381 28.2821 38.801C26.1768 40.3638 23.5008 40.9231 20.2554 40.4788L16.9478 39.0321C20.6341 38.4888 22.9992 37.5556 24.0426 36.2324C25.086 34.9091 25.9058 33.0492 26.5006 30.6527Z" fill="black"/>
</g>
<path d="M26.5006 30.6527L33.5127 33.7572C32.1305 35.5564 30.3873 37.2381 28.2821 38.801C26.1768 40.3638 23.5008 40.9231 20.2554 40.4788L16.9478 39.0321C20.6341 38.4888 22.9992 37.5556 24.0426 36.2324C25.086 34.9091 25.9058 33.0492 26.5006 30.6527Z" fill="url(#paint4_radial_666_137)"/>
</g>
<mask id="mask3_666_137" style="mask-type:luminance" maskUnits="userSpaceOnUse" x="10" y="19" width="28" height="23">
<path d="M11.3629 19.3924C17.2313 28.3747 26.688 32.9868 37.8389 34.4261C37.4089 34.7792 36.9016 35.2768 36.3094 35.8455C33.0557 38.9688 27.2385 44.239 17.5785 39.473C6.15838 33.8386 11.7929 22.1117 11.3629 19.3924Z" fill="white"/>
</mask>
<g mask="url(#mask3_666_137)">
<g filter="url(#filter3_d_666_137)">
<path d="M26.981 28.7998L21.7325 26.9198L15.3338 39.1921L17.8813 40.8765C20.4417 39.9487 22.4384 38.5084 23.8715 36.5556C25.3049 34.6031 26.3415 32.0178 26.981 28.7998Z" fill="black"/>
</g>
<path d="M26.981 28.7998L21.7325 26.9198L15.3338 39.1921L17.8813 40.8765C20.4417 39.9487 22.4384 38.5084 23.8715 36.5556C25.3049 34.6031 26.3415 32.0178 26.981 28.7998Z" fill="url(#paint5_radial_666_137)"/>
</g>
<mask id="mask4_666_137" style="mask-type:luminance" maskUnits="userSpaceOnUse" x="10" y="19" width="28" height="23">
<path d="M11.3629 19.3924C17.2313 28.3747 26.688 32.9868 37.8389 34.4261C37.4089 34.7792 36.9016 35.2768 36.3094 35.8455C33.0557 38.9688 27.2385 44.239 17.5785 39.473C6.15838 33.8386 11.7929 22.1117 11.3629 19.3924Z" fill="white"/>
</mask>
<g mask="url(#mask4_666_137)">
<g filter="url(#filter4_d_666_137)">
<path d="M17.2777 23.4332L21.7577 26.7857L15.3563 39.0556L12.553 37.862C11.7853 34.6245 11.8461 31.9338 12.7346 29.789C13.6237 27.6443 15.1383 25.5257 17.2777 23.4332Z" fill="black"/>
</g>
<path d="M17.2777 23.4332L21.7577 26.7857L15.3563 39.0556L12.553 37.862C11.7853 34.6245 11.8461 31.9338 12.7346 29.789C13.6237 27.6443 15.1383 25.5257 17.2777 23.4332Z" fill="url(#paint6_radial_666_137)"/>
</g>
<g style="mix-blend-mode:overlay" opacity="0.491" filter="url(#filter5_f_666_137)">
<path fill-rule="evenodd" clip-rule="evenodd" d="M22.7542 30.1544L23.2548 30.4162C28.8 33.2853 34.2255 34.8672 37.8727 34.2694C37.6926 34.427 37.499 34.6068 37.2925 34.8041C37.1918 34.817 36.6649 34.8609 36.5622 34.8703C32.8646 35.2142 27.9295 33.5096 22.4988 30.6434C17.1884 27.8406 12.9255 24.0072 11.1555 20.3927C11.1477 20.3764 11.1566 19.6384 11.2551 19.6597C11.2688 19.6624 11.3454 19.763 11.3594 19.7937C13.0883 23.4485 17.3787 27.317 22.7542 30.1544Z" fill="black"/>
</g>
<path d="M22.5375 30.29C30.862 34.7626 38.0306 36.4662 41.3456 32.1402C44.6609 27.8138 40.7043 17.3894 31.5374 12.7209C22.3707 8.05196 13.5043 9.45017 11.0165 14.155C8.52881 18.8599 14.2128 25.8179 22.5375 30.29Z" fill="url(#paint7_radial_666_137)"/>
<path style="mix-blend-mode:overlay" d="M22.5375 30.29C30.862 34.7626 38.0306 36.4662 41.3456 32.1402C44.6609 27.8138 40.7043 17.3894 31.5374 12.7209C22.3707 8.05196 13.5043 9.45017 11.0165 14.155C8.52881 18.8599 14.2128 25.8179 22.5375 30.29Z" fill="url(#paint8_radial_666_137)"/>
<path d="M22.5375 30.29C30.862 34.7626 38.0306 36.4662 41.3456 32.1402C44.6609 27.8138 40.7043 17.3894 31.5374 12.7209C22.3707 8.05196 13.5043 9.45017 11.0165 14.155C8.52881 18.8599 14.2128 25.8179 22.5375 30.29Z" fill="url(#paint9_radial_666_137)"/>
<g filter="url(#filter6_d_666_137)">
<path d="M37.2926 20.0117C38.4317 17.8574 36.038 13.7604 32.2346 11.7787C28.4312 9.79709 25.0663 9.90982 23.7771 12.3479C21.3277 16.9803 34.9721 24.4003 37.2926 20.0117Z" fill="black"/>
</g>
<path fill-rule="evenodd" clip-rule="evenodd" d="M32.17 11.9008C34.0251 12.8671 35.5408 14.3425 36.4647 15.8455C37.3897 17.351 37.7298 18.8888 37.1703 19.9469C36.9223 20.416 36.5359 20.7409 36.051 20.9435C35.5131 21.1683 34.8552 21.2435 34.1274 21.1996C32.4829 21.0999 30.4873 20.392 28.678 19.3663C26.911 18.365 25.3212 17.0606 24.411 15.7158C24.01 15.1239 23.7417 14.5252 23.6536 13.9407C23.5736 13.4121 23.6436 12.8964 23.8994 12.4127C24.5135 11.2512 25.6184 10.6414 27.017 10.5477C28.4852 10.448 30.272 10.9123 32.17 11.9008Z" fill="url(#paint10_radial_666_137)" stroke="url(#paint11_linear_666_137)" stroke-width="0.5"/>
</g>
</g>
<defs>
<filter id="filter0_d_666_137" x="8.33941" y="8.84372" width="36.1655" height="35.5408" filterUnits="userSpaceOnUse" color-interpolation-filters="sRGB">
<feFlood flood-opacity="0" result="BackgroundImageFix"/>
<feColorMatrix in="SourceAlpha" type="matrix" values="0 0 0 0 0 0 0 0 0 0 0 0 0 0 0 0 0 0 127 0" result="hardAlpha"/>
<feOffset dy="1"/>
<feGaussianBlur stdDeviation="1"/>
<feColorMatrix type="matrix" values="0 0 0 0 0 0 0 0 0 0 0 0 0 0 0 0 0 0 0.25 0"/>
<feBlend mode="normal" in2="BackgroundImageFix" result="effect1_dropShadow_666_137"/>
<feBlend mode="normal" in="SourceGraphic" in2="effect1_dropShadow_666_137" result="shape"/>
</filter>
<filter id="filter1_d_666_137" x="17.1553" y="29.9247" width="23.7058" height="17.9264" filterUnits="userSpaceOnUse" color-interpolation-filters="sRGB">
<feFlood flood-opacity="0" result="BackgroundImageFix"/>
<feColorMatrix in="SourceAlpha" type="matrix" values="0 0 0 0 0 0 0 0 0 0 0 0 0 0 0 0 0 0 127 0" result="hardAlpha"/>
<feOffset dy="2"/>
<feGaussianBlur stdDeviation="2"/>
<feColorMatrix type="matrix" values="0 0 0 0 0.780392 0 0 0 0 0.270588 0 0 0 0 0.00784314 0 0 0 1 0"/>
<feBlend mode="normal" in2="BackgroundImageFix" result="effect1_dropShadow_666_137"/>
<feBlend mode="normal" in="SourceGraphic" in2="effect1_dropShadow_666_137" result="shape"/>
</filter>
<filter id="filter2_d_666_137" x="12.9478" y="28.6527" width="24.565" height="17.9736" filterUnits="userSpaceOnUse" color-interpolation-filters="sRGB">
<feFlood flood-opacity="0" result="BackgroundImageFix"/>
<feColorMatrix in="SourceAlpha" type="matrix" values="0 0 0 0 0 0 0 0 0 0 0 0 0 0 0 0 0 0 127 0" result="hardAlpha"/>
<feOffset dy="2"/>
<feGaussianBlur stdDeviation="2"/>
<feColorMatrix type="matrix" values="0 0 0 0 0.871207 0 0 0 0 0.296299 0 0 0 0 0 0 0 0 1 0"/>
<feBlend mode="normal" in2="BackgroundImageFix" result="effect1_dropShadow_666_137"/>
<feBlend mode="normal" in="SourceGraphic" in2="effect1_dropShadow_666_137" result="shape"/>
</filter>
<filter id="filter3_d_666_137" x="7.33382" y="20.9198" width="27.6472" height="29.9567" filterUnits="userSpaceOnUse" color-interpolation-filters="sRGB">
<feFlood flood-opacity="0" result="BackgroundImageFix"/>
<feColorMatrix in="SourceAlpha" type="matrix" values="0 0 0 0 0 0 0 0 0 0 0 0 0 0 0 0 0 0 127 0" result="hardAlpha"/>
<feOffset dy="2"/>
<feGaussianBlur stdDeviation="4"/>
<feColorMatrix type="matrix" values="0 0 0 0 0.780392 0 0 0 0 0.270588 0 0 0 0 0.00784314 0 0 0 1 0"/>
<feBlend mode="normal" in2="BackgroundImageFix" result="effect1_dropShadow_666_137"/>
<feBlend mode="normal" in="SourceGraphic" in2="effect1_dropShadow_666_137" result="shape"/>
</filter>
<filter id="filter4_d_666_137" x="8.0194" y="21.4332" width="17.7383" height="23.6224" filterUnits="userSpaceOnUse" color-interpolation-filters="sRGB">
<feFlood flood-opacity="0" result="BackgroundImageFix"/>
<feColorMatrix in="SourceAlpha" type="matrix" values="0 0 0 0 0 0 0 0 0 0 0 0 0 0 0 0 0 0 127 0" result="hardAlpha"/>
<feOffset dy="2"/>
<feGaussianBlur stdDeviation="2"/>
<feColorMatrix type="matrix" values="0 0 0 0 0.8 0 0 0 0 0.301961 0 0 0 0 0.0313725 0 0 0 1 0"/>
<feBlend mode="normal" in2="BackgroundImageFix" result="effect1_dropShadow_666_137"/>
<feBlend mode="normal" in="SourceGraphic" in2="effect1_dropShadow_666_137" result="shape"/>
</filter>
<filter id="filter5_f_666_137" x="10.1533" y="18.6593" width="28.7194" height="17.2549" filterUnits="userSpaceOnUse" color-interpolation-filters="sRGB">
<feFlood flood-opacity="0" result="BackgroundImageFix"/>
<feBlend mode="normal" in="SourceGraphic" in2="BackgroundImageFix" result="shape"/>
<feGaussianBlur stdDeviation="0.5" result="effect1_foregroundBlur_666_137"/>
</filter>
<filter id="filter6_d_666_137" x="21.4841" y="9.39605" width="18.0936" height="14.9538" filterUnits="userSpaceOnUse" color-interpolation-filters="sRGB">
<feFlood flood-opacity="0" result="BackgroundImageFix"/>
<feColorMatrix in="SourceAlpha" type="matrix" values="0 0 0 0 0 0 0 0 0 0 0 0 0 0 0 0 0 0 127 0" result="hardAlpha"/>
<feOffset dy="1"/>
<feGaussianBlur stdDeviation="1"/>
<feComposite in2="hardAlpha" operator="out"/>
<feColorMatrix type="matrix" values="0 0 0 0 0 0 0 0 0 0 0 0 0 0 0 0 0 0 0.25 0"/>
<feBlend mode="normal" in2="BackgroundImageFix" result="effect1_dropShadow_666_137"/>
<feBlend mode="normal" in="SourceGraphic" in2="effect1_dropShadow_666_137" result="shape"/>
</filter>
<linearGradient id="paint0_linear_666_137" x1="2500" y1="0" x2="2500" y2="5000" gradientUnits="userSpaceOnUse">
<stop stop-color="#6DCD5B"/>
<stop offset="1" stop-color="#39B631"/>
</linearGradient>
<linearGradient id="paint1_linear_666_137" x1="90.1032" y1="784.56" x2="1401.96" y2="2308.4" gradientUnits="userSpaceOnUse">
<stop stop-color="#EA8D25"/>
<stop offset="0.41694" stop-color="#E57929"/>
<stop offset="1" stop-color="#DE5E30"/>
</linearGradient>
<linearGradient id="paint2_linear_666_137" x1="199.937" y1="458.054" x2="114.35" y2="1496.79" gradientUnits="userSpaceOnUse">
<stop stop-color="#EF641D"/>
<stop offset="1" stop-color="#D66020"/>
</linearGradient>
<radialGradient id="paint3_radial_666_137" cx="0" cy="0" r="1" gradientUnits="userSpaceOnUse" gradientTransform="translate(-459.378 518.615) rotate(117.917) scale(691.257 494.217)">
<stop stop-color="#F17733"/>
<stop offset="1" stop-color="#E35834"/>
</radialGradient>
<radialGradient id="paint4_radial_666_137" cx="0" cy="0" r="1" gradientUnits="userSpaceOnUse" gradientTransform="translate(-558.831 726.625) rotate(118.008) scale(779.752 385.12)">
<stop stop-color="#F17733"/>
<stop offset="1" stop-color="#E35834"/>
</radialGradient>
<radialGradient id="paint5_radial_666_137" cx="0" cy="0" r="1" gradientUnits="userSpaceOnUse" gradientTransform="translate(120.14 322.938) rotate(117.537) scale(418.36 1035.44)">
<stop stop-color="#F17733"/>
<stop offset="1" stop-color="#E9471E"/>
</radialGradient>
<radialGradient id="paint6_radial_666_137" cx="0" cy="0" r="1" gradientUnits="userSpaceOnUse" gradientTransform="translate(-85.653 53.1627) rotate(80.7651) scale(573.73 675.97)">
<stop stop-color="#EC7027"/>
<stop offset="1" stop-color="#E84D0F"/>
</radialGradient>
<radialGradient id="paint7_radial_666_137" cx="0" cy="0" r="1" gradientUnits="userSpaceOnUse" gradientTransform="translate(-10.3617 308.952) rotate(54.9585) scale(3436.4 1129.96)">
<stop stop-color="#FFE397"/>
<stop offset="1" stop-color="#F8A04F"/>
</radialGradient>
<radialGradient id="paint8_radial_666_137" cx="0" cy="0" r="1" gradientUnits="userSpaceOnUse" gradientTransform="translate(-670.782 293.155) rotate(117.868) scale(3509.55 1117.08)">
<stop stop-color="white" stop-opacity="0.24"/>
<stop offset="1" stop-opacity="0"/>
</radialGradient>
<radialGradient id="paint9_radial_666_137" cx="0" cy="0" r="1" gradientUnits="userSpaceOnUse" gradientTransform="translate(-1886.16 1723.13) rotate(126.617) scale(1724.15 1095.77)">
<stop stop-color="white" stop-opacity="0.5"/>
<stop offset="1" stop-color="white" stop-opacity="0"/>
</radialGradient>
<radialGradient id="paint10_radial_666_137" cx="0" cy="0" r="1" gradientUnits="userSpaceOnUse" gradientTransform="translate(38.188 321.352) rotate(66.2747) scale(1104.17 540.012)">
<stop stop-color="#FE774C"/>
<stop offset="1" stop-color="#C5501B"/>
</radialGradient>
<linearGradient id="paint11_linear_666_137" x1="475.887" y1="604.82" x2="395.563" y2="815.23" gradientUnits="userSpaceOnUse">
<stop stop-color="#D55B28" stop-opacity="0"/>
<stop offset="0.19535" stop-color="#D0490F"/>
<stop offset="1" stop-color="#C03B01"/>
</linearGradient>
<clipPath id="clip0_666_137">
<rect width="50" height="50" fill="white"/>
</clipPath>
</defs>
</svg>
