<svg width="50" height="50" viewBox="0 0 50 50" fill="none" xmlns="http://www.w3.org/2000/svg">
<path d="M35.4289 15.9438V16.7451H42.3692C42.8307 16.7451 43.5265 16.7451 43.9898 17.2025C44.4531 17.6616 44.4531 18.3494 44.4531 18.8085V25.6865C44.4531 26.1456 44.4531 26.8334 43.9898 27.2908C43.5265 27.7499 42.8307 27.7499 42.3692 27.7499H39.0224C38.4446 27.7499 37.6907 27.7499 37.4018 27.1197C37.1147 26.4878 37.517 25.9152 37.8668 25.4578L42.3763 19.505H35.436L32.6528 23.171C32.1878 23.7854 31.7862 24.3179 31.7862 25.0039C31.7862 25.6917 32.1596 26.1875 32.6528 26.8369L33.3468 27.7534C34.0409 28.6699 34.7349 29.5863 35.6544 30.0402C36.5809 30.4959 37.6801 30.4959 39.1774 30.4959H42.1895C43.9264 30.4959 46.5228 30.4959 48.2667 28.7781C50 27.0586 50 24.5361 50 23.6283V20.8701C50 19.9519 50 17.4311 48.2667 15.7204C46.5299 13.9991 43.9334 14.0044 42.1895 14.0026L37.3983 14C36.9385 14 36.3572 14 35.894 14.4591C35.4342 14.9182 35.4342 15.4908 35.4342 15.9499" fill="#DA4216"/>
<path d="M27.1499 19.4876H34.0197L25.7407 30.4854H18.6947L27.1499 19.4876Z" fill="#DA4216"/>
<path d="M0.0228994 21.4427C0.0228994 20.9854 0.0228994 20.411 0.486172 19.9519C0.947684 19.4945 1.52898 19.4945 1.99049 19.4945H13.6163C15.1189 19.4945 16.2234 19.4945 17.1393 19.9519C18.0624 20.4128 18.7564 21.3293 19.4469 22.2388L20.1427 23.1552C20.6377 23.8064 21.0129 24.3022 21.0129 24.9882C21.0129 25.676 20.6077 26.2085 20.1427 26.8212L17.3595 30.4871H10.4192L14.9287 24.5343C15.2757 24.0752 15.6826 23.5044 15.3919 22.8724C15.1048 22.244 14.3527 22.244 13.7749 22.244H8.33187V36H2.78316V22.244H0V21.441" fill="#DA4216"/>
</svg>
