<svg width="50" height="50" viewBox="0 0 50 50" fill="none" xmlns="http://www.w3.org/2000/svg">
<path d="M40.5596 19.4692C38.0829 15.9007 35.0123 12.2112 29.4353 9.27107C36.4258 17.2093 35.5349 31.6158 35.5231 31.7541C35.7052 33.5715 35.5564 35.4058 35.0836 37.1731C35.0152 38.4701 34.543 39.7164 33.7294 40.7474C38.7362 38.3434 38.7956 32.884 38.7956 32.8322V32.5958L38.9559 32.7745C40.3279 34.2849 40.8921 36.4122 41.1238 37.9629C41.2525 38.7987 41.3141 39.6429 41.3079 40.4879C43.3391 35.876 42.1988 29.6211 42.1869 29.5346L42.1572 29.3617L42.3176 29.4424C46.7245 31.5466 48.898 36.8964 49.7057 39.4214C49.4295 37.8809 49.0423 36.3611 48.5476 34.8729C46.19 27.8513 43.452 23.5795 40.5596 19.4692Z" fill="#FF0046"/>
<path d="M29.2984 9C35.0536 11.9747 38.2073 15.7392 40.7137 19.3768C43.5823 23.5045 46.356 27.782 48.7198 34.8209C49.2989 36.5774 49.7223 38.3787 49.9849 40.2053C50.6085 13.2603 31.7632 9.39201 29.2984 9Z" fill="#FF0046"/>
<path d="M10.9579 32.7917C9.79473 32.6687 8.67981 32.273 7.70916 31.6387C7.70916 31.6387 9.49094 34.0773 11.0886 34.0773C12.5675 34.0773 14.1592 33.8582 13.9097 30.9642C13.9097 30.9642 14.0404 26.4503 16.5408 26.0064C16.5408 26.0064 14.4027 26.3235 13.393 27.7359C12.9892 25.0783 13.0426 22.7954 15.8459 22.0978C20.1994 21.0198 23.8877 21.7289 27.6888 18.76C25.6302 19.2505 23.5281 19.5497 21.411 19.6535C21.411 19.6535 26.596 16.7134 28.6688 9.6572C28.6688 9.6572 25.0577 15.4221 20.3538 17.5436C20.3538 17.5436 23.2641 11.4904 23.5313 9C23.5313 9 21.0369 15.5604 18.4414 16.9671C18.3761 17.0017 17.8475 16.7999 17.9247 16.7826C20.4845 15.9813 23.5135 9.04612 23.5313 9C23.5313 9 20.5142 14.6727 18.7799 15.8141C18.3202 16.1311 17.7754 16.3114 17.212 16.3329C17.212 16.3329 17.9069 13.5889 18.186 11.8594C18.186 11.8594 16.327 15.6412 15.157 15.8083C13.987 15.9755 10.9639 14.7534 10.9639 14.7534C10.9639 14.7534 5.4166 21.9018 0 21.0947C0.46445 22.4013 1.01395 23.6779 1.64517 24.9169C2.42322 26.3004 2.47073 27.9838 4.46038 29.1195C4.46038 29.1195 3.45071 26.8135 4.07433 25.4184C4.19906 25.1302 4.76922 25.084 5.476 25.0437C5.65726 25.5704 5.89204 26.0783 6.17683 26.5598C6.27958 25.9843 6.50188 25.4352 6.83015 24.9457V24.9111C7.4116 24.8273 7.95813 24.5899 8.40999 24.2251C8.56025 24.6015 8.73279 24.9691 8.92671 25.3262C8.80198 24.5537 9.87105 22.7666 9.87105 22.7666C10.4115 22.4495 10.7204 22.5821 10.7204 22.5821C10.7204 22.5821 10.3759 26.1102 11.4568 27.9204C11.9939 28.8146 12.2768 29.8311 12.2764 30.8662C11.7558 31.0483 11.197 31.1037 10.6491 31.0276C10.947 31.1038 11.2217 31.2483 11.4501 31.4489C11.6785 31.6496 11.8539 31.9005 11.9617 32.1806C11.8732 32.3658 11.7313 32.5221 11.5532 32.6306C11.375 32.7391 11.1682 32.795 10.9579 32.7917ZM11.6172 16.7595L11.0589 20.9564H6.53318C7.44189 20.3453 8.34466 19.6535 9.18209 18.9733C10.0561 18.3006 10.8706 17.5581 11.6172 16.7538V16.7595Z" fill="#FF0046"/>
<path d="M19.1663 33.3221C21.3698 31.5927 23.4544 29.9958 23.5495 27.9838C23.6089 26.7444 23.4782 25.3147 21.2094 24.0925C20.3751 23.6884 19.451 23.4904 18.5189 23.516C17.0103 23.516 15.4899 23.9542 14.8425 24.8074C15.1202 24.5483 15.4508 24.3488 15.813 24.2217C16.1752 24.0946 16.5609 24.0427 16.945 24.0695C17.7784 24.0937 18.6033 24.2395 19.392 24.5018C19.9875 24.6439 20.5214 24.9652 20.9173 25.4198C21.313 25.8745 21.5504 26.439 21.5955 27.0326C21.7024 28.6814 20.366 31.0969 16.2976 32.9128C11.9798 34.8383 8.99235 36.9482 8.45187 40.903V40.9952H14.498L14.4565 40.903C13.5299 37.6919 16.3927 35.4724 19.1663 33.3221Z" fill="#FF0046"/>
<path d="M20.7639 37.8649C21.2316 37.0389 21.8804 36.3225 22.6645 35.7665C22.6441 36.6366 22.4421 37.4936 22.0706 38.2857C23.5272 36.7537 24.4858 34.8386 24.8265 32.7803L24.8739 32.7111C25.4678 33.8641 25.2065 35.6743 25.2065 35.6743C26.8873 31.3333 26.1628 29.7018 26.1034 29.4078C26.5499 29.7982 26.9485 30.2373 27.2913 30.7165C26.9587 27.1941 26.6973 24.8939 23.2288 23.1875C20.5146 21.8443 14.3734 22.513 14.3912 25.3378C14.7178 24.0234 16.6362 23.3374 18.5487 23.3374C19.51 23.3039 20.4649 23.5019 21.3282 23.9139C23.7039 25.1822 23.8227 26.6695 23.7573 27.9493C23.6623 30.0362 21.548 31.6792 19.3089 33.4144C16.5531 35.5532 13.7022 37.7611 14.6821 40.9088V40.9376H20.8055C20.3926 39.9551 20.3777 38.8575 20.7639 37.8649Z" fill="#FF0046"/>
<path d="M34.9052 37.1556C34.9408 37.0403 34.9645 36.925 34.9942 36.8097L35.0655 36.533C35.0655 36.4177 35.113 36.3081 35.1308 36.1929C35.1487 36.0776 35.1724 36.0026 35.1902 35.9104C35.2081 35.8181 35.2259 35.6855 35.2437 35.5702C35.2615 35.4549 35.2734 35.3742 35.2853 35.2762C35.2971 35.1782 35.2853 35.0456 35.3209 34.9303L35.3565 34.6248V34.2731C35.3565 34.1636 35.3565 34.0656 35.3565 33.9561C35.3565 33.8465 35.3565 33.7024 35.3565 33.5756C35.3565 33.4488 35.3565 33.3681 35.3565 33.2643C35.3565 33.1605 35.3565 32.9645 35.3565 32.8146C35.3565 32.6647 35.3565 32.6302 35.3565 32.5379C35.3565 32.29 35.3565 32.0421 35.309 31.7827C34.9521 29.2083 33.6203 26.8551 31.5732 25.1819C34.9348 29.3442 33.9905 33.7889 33.2243 37.3862C33.1531 37.7321 33.0818 38.0664 33.0165 38.3893C33.0038 38.4289 32.9938 38.4694 32.9868 38.5103C33.6587 38.1654 34.2935 37.7559 34.8814 37.2882C34.8873 37.2305 34.8992 37.1959 34.9052 37.1556Z" fill="#FF0046"/>
<path d="M31.134 24.9052C34.5134 32.9126 29.6966 36.9135 29.6966 36.9135C30.4687 33.3277 29.3996 32.0018 29.3996 32.0018C27.8792 38.6775 20.7996 40.995 20.7996 40.995C26.7388 41.093 30.635 39.7267 32.8147 38.5968V38.5219L33.0582 37.3343C33.8541 33.6621 34.8163 29.1078 31.134 24.9052Z" fill="#FF0046"/>
</svg>
