<svg width="50" height="50" viewBox="0 0 50 50" fill="none" xmlns="http://www.w3.org/2000/svg">
<path d="M14.8691 35.1562H28.9779V49.2188H14.8691V35.1562ZM28.9783 35.1562H43.0871V49.2188H28.9783V35.1562ZM14.8696 21.0938V7.03125H0.760796V21.0938H0.760306V35.1562H14.8691V21.0938H14.8696Z" fill="#57A4FF"/>
<path d="M49.6299 7.54189L37.6475 0.117773C37.471 0.00840161 37.2581 -0.0266005 37.0556 0.0204655C36.8532 0.0675316 36.6778 0.192811 36.5681 0.36875L29.1195 12.3121C29.0652 12.3992 29.0286 12.4962 29.0118 12.5974C28.9951 12.6986 28.9985 12.8022 29.0219 12.9021C29.0452 13.002 29.0881 13.0963 29.1481 13.1797C29.2081 13.2631 29.2839 13.3339 29.3713 13.3881L41.354 20.8121C41.4414 20.8663 41.5387 20.9028 41.6402 20.9195C41.7418 20.9362 41.8457 20.9328 41.9459 20.9095C42.0461 20.8862 42.1408 20.8434 42.2245 20.7836C42.3081 20.7239 42.3792 20.6483 42.4335 20.5611L49.882 8.61777C49.9917 8.44178 50.0267 8.22956 49.9795 8.0278C49.9322 7.82603 49.8064 7.65125 49.6299 7.54189ZM41.5157 19.0723L30.8647 12.4733L37.4855 1.85723L48.1364 8.45645L41.5157 19.0723ZM43.1101 34.375H29.7852V21.0937C29.7852 20.8866 29.7026 20.6878 29.5556 20.5413C29.4086 20.3948 29.2092 20.3125 29.0014 20.3125H15.6764V7.03125C15.6764 6.82405 15.5938 6.62534 15.4468 6.47882C15.2998 6.33231 15.1005 6.25 14.8926 6.25H0.783821C0.575939 6.25 0.376571 6.33231 0.229576 6.47882C0.0825809 6.62534 0 6.82405 0 7.03125L0 49.2188C0 49.426 0.0825809 49.6247 0.229576 49.7712C0.376571 49.9177 0.575939 50 0.783821 50H43.1101C43.318 50 43.5174 49.9177 43.6644 49.7712C43.8114 49.6247 43.894 49.426 43.894 49.2188V35.1563C43.894 34.949 43.8114 34.7503 43.6644 34.6038C43.5174 34.4573 43.318 34.375 43.1101 34.375ZM14.1088 48.4375H1.56764V35.9375H14.1088V48.4375ZM14.1088 34.375H1.56764V21.875H14.1088V34.375ZM14.1088 20.3125H1.56764V7.8125H14.1088V20.3125ZM28.2175 48.4375H15.6764V35.9375H28.2175V48.4375ZM28.2175 34.375H15.6764V21.875H28.2175V34.375ZM42.3263 48.4375H29.7852V35.9375H42.3263V48.4375Z" fill="#004FAC"/>
</svg>
