<svg width="50.000000" height="50.000000" viewBox="0 0 50 50" fill="none" xmlns="http://www.w3.org/2000/svg" xmlns:xlink="http://www.w3.org/1999/xlink">
	<desc>
			Created with Pixso.
	</desc>
	<defs/>
	<g opacity="0.000000">
		<rect id="Прямоугольник 44" width="50.000000" height="50.000000" fill="#C4C4C4" fill-opacity="1.000000"/>
	</g>
	<path id="Shape" d="M37.49 3L43.75 13.75L50 24.5L43.75 35.25L37.49 46L25 46L12.5 46L6.24 35.25L0 24.5L6.24 13.75L12.5 3L25 3L37.49 3Z" fill="#F4D44D" fill-opacity="1.000000" fill-rule="evenodd"/>
	<path id="Shape" d="M43.75 13.75L50 24.5L43.75 35.25L37.49 46L25 46L12.5 46L6.24 35.25L0 24.5L6.24 13.75L12.5 3L25 3L37.49 3L43.75 13.75Z" stroke="#000000" stroke-opacity="0" stroke-width="1.000000"/>
	<path id="Shape" d="M12.5 3L25 24.5L12.5 46L0 24.5L12.5 3Z" fill="#DCB822" fill-opacity="1.000000" fill-rule="evenodd"/>
	<path id="Shape" d="M25 24.5L12.5 46L0 24.5L12.5 3L25 24.5Z" stroke="#000000" stroke-opacity="0" stroke-width="1.000000"/>
	<path id="Shape" d="M12.5 46L37.49 46L50 24.5L25 24.5L12.5 46Z" fill="#E5C51C" fill-opacity="1.000000" fill-rule="evenodd"/>
	<path id="Shape" d="M37.49 46L50 24.5L25 24.5L12.5 46L37.49 46Z" stroke="#000000" stroke-opacity="0" stroke-width="1.000000"/>
</svg>
