<svg width="50.000000" height="50.000000" viewBox="0 0 50 50" fill="none" xmlns="http://www.w3.org/2000/svg" xmlns:xlink="http://www.w3.org/1999/xlink">
	<desc>
			Created with Pixso.
	</desc>
	<defs/>
	<path id="path" d="M29.83 14.13L0 14.13L0 50L8.3 50L8.3 38.33L24.21 38.33L31.47 50L40.77 50L32.76 38.27C35.25 37.84 37.04 36.82 38.13 35.21C39.22 33.6 39.77 31.01 39.77 27.57L39.77 24.88C39.77 22.84 39.57 21.23 39.22 19.99C38.88 18.75 38.28 17.68 37.43 16.71C36.54 15.8 35.55 15.15 34.35 14.72C33.16 14.35 31.67 14.13 29.83 14.13ZM28.48 30.42L8.3 30.42L8.3 22.03L28.48 22.03C29.63 22.03 30.42 22.25 30.82 22.63C31.22 23 31.47 23.7 31.47 24.72L31.47 27.73C31.47 28.81 31.22 29.51 30.82 29.89C30.42 30.26 29.63 30.42 28.48 30.42Z" fill="#FFFFFF" fill-opacity="1.000000" fill-rule="nonzero"/>
	<path id="path" d="M44.5 11C47.53 11 50 8.53 50 5.5C50 2.46 47.53 0 44.5 0C41.46 0 39 2.46 39 5.5C39 8.53 41.46 11 44.5 11Z" fill="#F41240" fill-opacity="1.000000" fill-rule="nonzero"/>
</svg>
