<svg width="50.000000" height="50.000000" viewBox="0 0 50 50" fill="none" xmlns="http://www.w3.org/2000/svg" xmlns:xlink="http://www.w3.org/1999/xlink">
	<desc>
			Created with Pixso.
	</desc>
	<defs/>
	<path id="path" d="M25.02 49.99L24.99 49.99C21.71 49.99 19.05 47.33 19.05 44.06L19.05 42.67C19.05 41.86 19.71 41.21 20.52 41.21L29.49 41.21C30.3 41.21 30.96 41.86 30.96 42.67L30.96 44.06C30.96 47.33 28.3 49.99 25.02 49.99Z" fill="#FFA81C" fill-opacity="1.000000" fill-rule="nonzero"/>
	<path id="path" d="M29.49 41.21L25 41.21L25 50L25.02 50C28.3 50 30.96 47.33 30.96 44.06L30.96 42.67C30.96 41.86 30.3 41.21 29.49 41.21Z" fill="#FF9300" fill-opacity="1.000000" fill-rule="nonzero"/>
	<path id="path" d="M27.93 9.15L22.08 9.15C21.27 9.15 20.61 8.49 20.61 7.69L20.61 4.39C20.61 1.97 22.58 0 25 0C27.43 0 29.4 1.97 29.4 4.39L29.4 7.69C29.4 8.49 28.74 9.15 27.93 9.15Z" fill="#FFA81C" fill-opacity="1.000000" fill-rule="nonzero"/>
	<path id="path" d="M27.93 9.15C28.74 9.15 29.4 8.49 29.4 7.69L29.4 4.39C29.4 1.97 27.43 0 25 0L25 9.15L27.93 9.15Z" fill="#FF9300" fill-opacity="1.000000" fill-rule="nonzero"/>
	<path id="path" d="M40.53 44.14L9.48 44.14C8.22 44.14 7.18 43.11 7.18 41.84L7.18 39.75C7.18 38.6 7.39 37.49 7.8 36.42C8.21 35.35 8.8 34.39 9.56 33.54C10.09 32.96 10.49 32.3 10.77 31.57C11.05 30.84 11.19 30.08 11.19 29.3L11.19 19.81C11.19 12.19 17.39 5.99 25 5.99C32.62 5.99 38.82 12.19 38.82 19.81L38.82 29.3C38.82 30.08 38.96 30.84 39.24 31.57C39.52 32.3 39.92 32.96 40.45 33.54C41.21 34.39 41.8 35.35 42.21 36.42C42.62 37.49 42.83 38.6 42.83 39.75L42.83 41.84C42.83 43.11 41.79 44.14 40.53 44.14Z" fill="#FFCF2C" fill-opacity="1.000000" fill-rule="nonzero"/>
	<path id="path" d="M40.53 44.14C41.79 44.14 42.83 43.11 42.83 41.84L42.83 39.75C42.83 38.6 42.62 37.49 42.21 36.42C41.8 35.35 41.21 34.39 40.45 33.54C39.92 32.96 39.52 32.3 39.24 31.57C38.96 30.84 38.82 30.08 38.82 29.3L38.82 19.81C38.82 12.19 32.62 5.99 25 5.99L25 44.14L40.53 44.14Z" fill="#FFC12E" fill-opacity="1.000000" fill-rule="nonzero"/>
	<path id="path" d="M7.18 39.75L7.18 41.84C7.18 43.11 8.22 44.14 9.48 44.14L40.53 44.14C41.79 44.14 42.83 43.11 42.83 41.84L42.83 39.75C42.83 38.74 42.67 37.77 42.35 36.82L7.66 36.82C7.34 37.77 7.18 38.74 7.18 39.75Z" fill="#FFF566" fill-opacity="1.000000" fill-rule="nonzero"/>
	<path id="path" d="M25 36.82L25 44.14L40.53 44.14C41.79 44.14 42.83 43.11 42.83 41.84L42.83 39.75C42.83 38.74 42.67 37.77 42.35 36.82L25 36.82Z" fill="#FFE645" fill-opacity="1.000000" fill-rule="nonzero"/>
	<path id="path" d="M1.46 16.17C1.36 16.17 1.25 16.16 1.15 16.14C0.36 15.97 -0.14 15.19 0.03 14.4C1.2 8.97 4.19 3.97 8.46 0.34C9.07 -0.18 10 -0.11 10.52 0.51C11.05 1.13 10.97 2.05 10.36 2.58C6.58 5.79 3.93 10.21 2.89 15.02C2.74 15.7 2.14 16.17 1.46 16.17Z" fill="#FF8B6E" fill-opacity="1.000000" fill-rule="nonzero"/>
	<path id="path" d="M48.53 16.17C47.85 16.17 47.25 15.7 47.1 15.02C46.06 10.21 43.41 5.79 39.63 2.58C39.02 2.05 38.94 1.13 39.47 0.51C39.99 -0.11 40.92 -0.18 41.53 0.34C45.8 3.97 48.79 8.97 49.96 14.4C50.13 15.19 49.63 15.97 48.84 16.14C48.73 16.16 48.63 16.17 48.53 16.17Z" fill="#FF674F" fill-opacity="1.000000" fill-rule="nonzero"/>
	<path id="path" d="M7.09 17.89C7 17.89 6.91 17.88 6.82 17.86C6.03 17.71 5.5 16.95 5.65 16.15C6.46 11.87 8.71 7.92 12 5.02C12.61 4.49 13.53 4.55 14.07 5.15C14.6 5.76 14.54 6.69 13.94 7.22C11.14 9.69 9.22 13.05 8.53 16.69C8.4 17.4 7.78 17.89 7.09 17.89Z" fill="#FF8B6E" fill-opacity="1.000000" fill-rule="nonzero"/>
	<path id="path" d="M42.9 17.89C42.21 17.89 41.59 17.4 41.46 16.69C40.77 13.05 38.86 9.69 36.05 7.22C35.45 6.69 35.39 5.76 35.92 5.15C36.46 4.55 37.38 4.49 37.99 5.02C41.28 7.92 43.53 11.87 44.34 16.15C44.49 16.95 43.96 17.71 43.17 17.86C43.08 17.88 42.99 17.89 42.9 17.89Z" fill="#FF674F" fill-opacity="1.000000" fill-rule="nonzero"/>
</svg>
