<svg width="50" height="50" viewBox="0 0 50 50" fill="none" xmlns="http://www.w3.org/2000/svg">
<path d="M15.114 41.8008C17.8065 45.1405 20.5603 48.5559 24.9999 48.5559C29.4391 48.5559 32.1932 45.1405 34.8857 41.8008C35.3605 41.2121 35.8334 40.6255 36.2078 40.1803L36.2295 40.1544L36.23 40.1535C39.5571 36.203 39.9809 30.4942 40.3892 24.9949C40.4499 24.1781 40.5101 23.3656 40.5711 22.6506L40.5777 22.5721C40.5722 16.0136 39.6808 10.7748 37.2792 7.16708C34.9168 3.61739 31.0325 1.61453 24.9999 1.44525C18.9672 1.61453 15.0827 3.61768 12.7202 7.16708C10.3189 10.7745 9.42724 16.0133 9.42197 22.5721C9.48604 23.3166 9.54844 24.1533 9.61085 24.9949C10.0191 30.4942 10.4426 36.203 13.7697 40.1532C14.1475 40.6019 14.6298 41.1999 15.114 41.8008ZM24.9999 50C19.8883 50 16.9182 46.3163 14.0143 42.7149C13.5778 42.1699 13.1352 41.63 12.6867 41.0955C9.05642 36.7851 8.61433 30.8314 8.18887 25.0967C8.12976 24.2842 8.0668 23.4719 8 22.66C8 15.7692 8.95602 10.2471 11.5429 6.36053C14.1732 2.40714 18.4283 0.180372 24.9832 0H25.0165C31.5717 0.180372 35.8265 2.40714 38.4571 6.35996C41.044 10.2468 42 15.7686 42 22.6298V22.689C41.9976 22.7156 41.9952 22.7421 41.9931 22.7687C41.9223 23.5957 41.8669 24.3442 41.8111 25.0964C41.3857 30.8311 40.9438 36.7845 37.3133 41.0952C36.7936 41.7126 36.3903 42.2127 35.9857 42.7146C33.0815 46.3163 30.1114 50 24.9999 50Z" fill="black"/>
<path fill-rule="evenodd" clip-rule="evenodd" d="M25 49.2779C19.4657 49.2779 16.5014 44.5112 13.2281 40.6244C9.24678 35.8969 9.2551 28.9423 8.71094 22.6298C8.71094 9.18275 12.4027 1.06858 25 0.722054C37.5972 1.06858 41.2887 9.18275 41.2887 22.6298C40.7445 28.9423 40.7528 35.8969 36.7715 40.6244C33.4982 44.5112 30.5339 49.2779 25 49.2779Z" fill="#CC2229"/>
<path d="M24.9999 26.4407C18.7872 17.939 13.1249 10.2328 15.1529 3.58781C16.6333 2.50728 18.415 1.71922 20.5418 1.24354C18.9387 8.47094 21.8189 16.9828 24.9999 26.4407ZM24.9999 26.4407C31.2122 17.939 36.8749 10.2328 34.8469 3.58781C33.3664 2.50728 31.5847 1.71922 29.4577 1.24354C31.0605 8.47094 28.1808 16.9826 24.9999 26.4407ZM24.9999 26.4407C18.5496 28.7542 13.4785 30.1784 9.57591 31.6097M24.9999 26.4407C31.4502 28.7542 36.5212 30.1784 40.4235 31.6097M24.9999 26.4407C20.1415 32.9389 15.5633 35.6473 15.1212 42.9467M24.9999 26.4407C29.8582 32.9389 34.4364 35.6473 34.8782 42.9467M24.9999 26.4407C32.6026 31.6262 36.5612 32.3463 38.1221 38.6898M24.9999 26.4407C18.3096 21.9997 13.1049 18.1208 9.14685 15.5603M24.9999 26.4407C18.0745 24.1883 12.7413 22 8.73499 20.8031M24.9999 26.4407C18.2289 26.5767 12.9776 26.247 9.00235 26.4066M24.9999 26.4407C31.6901 21.9997 36.8948 18.1208 40.8526 15.5603M24.9999 26.4407C31.7708 26.5767 37.0221 26.247 40.9974 26.4066M24.9999 26.4407C25.003 26.4376 25.0062 26.4347 25.0096 26.4319M24.9999 26.4407C20.0079 21.8916 15.2516 19.6238 12.3749 15.5709M24.9999 26.4407C27.5401 33.463 31.9688 41.918 30.5122 47.4088M24.9999 26.4407C22.4596 33.463 18.0306 41.918 19.4873 47.4088M24.9999 26.4407C17.3972 31.6262 13.4383 32.3463 11.8774 38.6898M24.9999 26.4407C31.925 24.1883 37.2582 22 41.2645 20.8031M24.9999 26.4407C29.9919 21.8916 34.7479 19.6238 37.6245 15.5709M24.9996 21.0879L25.0054 21.0805L25.0356 21.1194L25.0465 21.1328M24.9996 21.0879C24.6471 21.5422 24.2175 21.9277 23.4456 21.7573C23.2354 22.3445 22.9028 22.6529 22.3778 22.8224C22.4433 23.2663 22.2871 23.6116 21.9327 23.7422M24.9996 21.0879L25.0304 21.1263C25.3771 21.5633 25.8047 21.9226 26.5541 21.7573C26.7644 22.3445 27.0969 22.6529 27.6222 22.8224C27.5568 23.2663 27.7126 23.6116 28.0671 23.7422M18.9889 21.9283C19.6004 21.9513 20.562 20.8509 20.5503 20.2056C21.5238 20.3721 22.2727 19.6204 22.4513 18.592C23.9565 18.9262 24.6901 17.9945 25.0001 17.2195C25.3102 17.9945 26.0438 18.9262 27.549 18.592C27.7276 19.6204 28.4764 20.3721 29.4499 20.2056C29.438 20.8509 30.3999 21.9513 31.0114 21.9283M16.1677 18.642C16.7792 18.6651 18.2092 17.1698 18.1973 16.5245C19.1708 16.6909 21.1286 15.4662 21.3072 14.4377C22.8124 14.772 24.6901 13.3441 25.0001 12.5691C25.3102 13.3441 27.1879 14.772 28.6931 14.4377C28.8717 15.4662 30.8295 16.6909 31.803 16.5245C31.791 17.1698 33.2211 18.6651 33.8323 18.642M13.2156 15.3347C13.6629 15.3874 15.9422 12.9592 16.019 12.2323C16.8111 12.3211 19.9973 10.3751 20.3165 9.38304C22.1021 9.4792 24.9014 7.98245 25.0001 7.22398C25.0989 7.98245 27.8982 9.4792 29.6837 9.38304C30.003 10.3751 33.1892 12.3208 33.9813 12.2323C34.0581 12.9592 36.3374 15.3874 36.7847 15.3347M10.8617 11.0021C12.1067 10.8639 13.9192 9.36881 14.8403 8.0513C16.011 8.16311 20.0714 5.53662 20.1102 4.56762C21.6021 4.37217 24.7003 2.93887 25.0001 2.37983C25.3 2.93887 28.3985 4.37217 29.8901 4.56762C29.9289 5.53662 33.9893 8.16311 35.16 8.0513C36.0811 9.36881 37.8936 10.8639 39.1389 11.0021M21.2054 1.1067C20.9866 1.18551 20.7739 1.26573 20.5698 1.34596C18.5581 2.79833 16.5784 3.35708 15.0025 4.078C14.2559 5.146 12.8165 6.87803 11.635 7.56908M28.7954 1.10698C29.0137 1.18579 29.2267 1.26602 29.4305 1.34625C31.4421 2.79861 33.4219 3.35736 34.9978 4.07828C35.7441 5.14601 37.183 6.87746 38.3645 7.56879M24.9999 31.3796L25.0304 31.3409L25.0362 31.3335M24.9999 31.3796C24.6474 30.9252 24.1074 30.5534 23.3355 30.7235C23.1255 30.1366 22.9028 29.8416 22.3778 29.6723C22.4433 29.2285 22.2871 28.8558 21.9327 28.7252C22.2874 28.8558 22.4435 29.2012 22.3778 29.6447M24.9999 31.3796C25.3524 30.9252 25.8924 30.5534 26.6642 30.7235C26.8742 30.1366 27.0969 29.8416 27.6219 29.6723C27.5565 29.2285 27.7123 28.8558 28.0668 28.7252C27.7123 28.8558 27.5562 29.2012 27.6219 29.6447M18.9889 30.6982C19.6007 30.6752 20.1618 31.6183 20.1499 32.2635C21.1234 32.0971 21.8628 32.8118 22.0414 33.8399C23.5468 33.5059 24.6901 34.632 25.0001 35.4069C25.3102 34.632 26.4535 33.5059 27.9592 33.8399C28.1375 32.8118 28.8772 32.0971 29.8504 32.2635C29.8388 31.6183 30.3996 30.6752 31.0114 30.6982M14.6617 33.4214C15.9358 33.0991 17.6479 34.8394 17.6362 35.4846C18.6097 35.3182 20.5362 36.3518 20.7148 37.3802C22.2203 37.0459 24.6901 38.7396 25.0001 39.5145C25.3102 38.7396 27.78 37.0459 29.2855 37.3802C29.4641 36.3518 31.3908 35.3182 32.3643 35.4846C32.3524 34.8394 34.0648 33.0991 35.3389 33.4214M8.7483 23.0731C8.99736 24.2774 9.18845 25.443 9.26445 26.3949C9.83773 27.6256 10.1475 29.8146 9.84383 31.6112C11.0386 32.2399 12.8115 34.2018 12.8794 35.9165C13.9949 35.6983 16.1749 38.3322 15.8509 39.1583C16.6431 39.0696 19.2407 40.7373 19.5599 41.7294C21.3455 41.6332 24.9014 43.4082 25.0001 44.1666C25.0989 43.4082 28.6548 41.6332 30.4404 41.7294C30.7596 40.7373 33.3572 39.0696 34.1494 39.1583C33.8254 38.3322 36.0054 35.6983 37.1209 35.9165C37.1888 34.2018 38.9616 32.2399 40.1565 31.6112C39.8525 29.8146 40.1626 27.6256 40.7358 26.3949C40.8118 25.4444 41.0024 24.2805 41.2509 23.0782M11.8488 38.64C13.0697 39.015 15.1365 41.4434 15.213 42.1689C16.0054 42.0801 18.9148 44.3399 19.234 45.332C21.0196 45.2358 24.9014 47.128 25.0001 47.8867C25.0989 47.128 28.9807 45.2358 30.7662 45.332C31.0852 44.3399 33.9949 42.0801 34.787 42.1689C34.8635 41.4437 36.9295 39.0161 38.1507 38.64M11.8313 38.609C11.6538 38.0309 11.2228 37.0109 10.6434 35.9714M10.4604 10.1034C10.9086 11.2263 11.5174 12.3794 12.2274 13.5666M39.5394 10.1034C39.0912 11.2263 38.4824 12.3794 37.7724 13.5666M24.9999 0.722054V49.2779M38.1695 38.6067C38.3473 38.0286 38.7769 37.0118 39.3546 35.9742" stroke="black" stroke-width="0.2" stroke-miterlimit="2.613"/>
<path fill-rule="evenodd" clip-rule="evenodd" d="M23.8498 26.2785C20.8694 20.3985 15.4422 19.685 10.8138 10.7805C7.99315 18.2085 8.59361 28.3116 14.7136 33.4928C19.0217 32.7147 21.9003 30.0225 23.8498 26.2785Z" fill="black" stroke="black" stroke-width="0.89647" stroke-miterlimit="2.613"/>
<path fill-rule="evenodd" clip-rule="evenodd" d="M21.2019 26.212C19.1891 22.7129 14.6553 21.3283 11.9844 17.0679C10.6601 20.2691 11.3415 27.2356 15.3276 30.4072C17.6551 30.7796 20.8122 29.084 21.2019 26.212Z" fill="white" stroke="black" stroke-width="0.89647" stroke-miterlimit="2.613"/>
<path fill-rule="evenodd" clip-rule="evenodd" d="M26.2013 26.2785C29.1817 20.3985 34.6086 19.685 39.2376 10.7805C42.0579 18.2085 41.4577 28.3116 35.3375 33.4928C31.0294 32.7147 28.1505 30.0225 26.2013 26.2785Z" fill="black" stroke="black" stroke-width="0.89647" stroke-miterlimit="2.613"/>
<path fill-rule="evenodd" clip-rule="evenodd" d="M28.8492 26.212C30.8622 22.7129 35.3958 21.3283 38.0667 17.0679C39.391 20.2691 38.7096 27.2356 34.7235 30.4072C32.396 30.7796 29.2389 29.084 28.8492 26.212Z" fill="white" stroke="black" stroke-width="0.89647" stroke-miterlimit="2.613"/>
</svg>
