<svg width="50.000000" height="50.000000" viewBox="0 0 50 50" fill="none" xmlns="http://www.w3.org/2000/svg" xmlns:xlink="http://www.w3.org/1999/xlink">
	<desc>
			Created with Pixso.
	</desc>
	<defs/>
	<path id="path" d="M25 0C11.19 0 0 11.19 0 25C0 38.8 11.19 50 25 50C38.8 50 50 38.8 50 25C50 11.19 38.8 0 25 0Z" fill="#1ED760" fill-opacity="1.000000" fill-rule="nonzero"/>
	<path id="path" d="M40.98 22.48C40.46 22.48 40.14 22.35 39.68 22.09C32.51 17.81 19.67 16.78 11.37 19.1C11 19.2 10.55 19.36 10.07 19.36C8.73 19.36 7.72 18.32 7.72 16.98C7.72 15.61 8.56 14.83 9.47 14.57C13.02 13.53 16.99 13.04 21.32 13.04C28.67 13.04 36.39 14.57 42.02 17.86C42.81 18.31 43.32 18.94 43.32 20.14C43.32 21.51 42.21 22.48 40.98 22.48ZM37.86 30.17C37.33 30.17 36.98 29.93 36.62 29.74C30.32 26.01 20.92 24.51 12.57 26.78C12.08 26.91 11.82 27.04 11.37 27.04C10.29 27.04 9.41 26.16 9.41 25.09C9.41 24.01 9.93 23.29 10.97 23C13.78 22.21 16.64 21.63 20.83 21.63C27.37 21.63 33.69 23.25 38.67 26.21C39.49 26.7 39.81 27.32 39.81 28.2C39.8 29.29 38.96 30.17 37.86 30.17ZM35.15 36.78C34.72 36.78 34.46 36.65 34.07 36.42C27.78 32.63 20.46 32.46 13.23 33.95C12.84 34.05 12.32 34.21 12.03 34.21C11.05 34.21 10.44 33.43 10.44 32.62C10.44 31.58 11.05 31.08 11.81 30.92C20.07 29.1 28.5 29.26 35.7 33.56C36.32 33.96 36.68 34.31 36.68 35.23C36.68 36.14 35.96 36.78 35.15 36.78Z" fill="#000000" fill-opacity="1.000000" fill-rule="nonzero"/>
</svg>
