<svg width="50" height="50" viewBox="0 0 50 50" fill="none" xmlns="http://www.w3.org/2000/svg">
<path d="M48.8071 32.605C44.6008 45.6839 30.8232 52.7313 17.9979 49.0092C17.379 48.8187 16.7599 48.6123 16.1408 48.3822C13.6012 47.4298 11.3155 46.1045 9.30759 44.4934L35.4978 32.8114L35.5058 32.7955L35.5375 32.478L36.6327 21.3355C36.7517 20.153 36.228 19.0023 35.2597 18.3119L26.1645 11.7962L25.8946 11.5978L-0.00976598 23.3434C0.148965 20.9545 0.656898 18.542 1.54578 16.1848C2.22037 14.3993 3.07749 12.7406 4.08542 11.2089C10.752 1.13777 24.0772 -3.05256 35.6962 2.4155C46.9579 7.71692 52.6166 20.772 48.8071 32.605Z" fill="#FF3200"/>
<path d="M32.458 30.5177L26.2835 26.0336C25.3391 25.3433 24.8233 24.2083 24.9344 23.0497L25.6407 15.4467L31.8152 19.9306C32.7676 20.6211 33.2756 21.7561 33.1724 22.9227L32.458 30.5177Z" fill="#FF3200"/>
<path d="M16.2519 19.3909L15.871 23.5575L0.49816 30.2002C0.236264 28.97 0.0696044 27.7081 -0.00976598 26.4225L16.2519 19.3909Z" fill="#FF3200"/>
<path d="M17.0298 30.1683L2.59339 36.1919C2.04577 35.1047 1.57753 33.9698 1.19658 32.7952L15.5774 26.7875L15.5853 26.9462C15.6091 28.0969 16.1011 29.2398 16.9107 30.0652L17.0298 30.1683Z" fill="#FF3200"/>
<path d="M23.1169 34.6444L6.46635 41.8347C5.61714 40.8981 4.83937 39.9061 4.13303 38.8506L19.6725 32.1366L23.1169 34.6444Z" fill="#FF3200"/>
</svg>
