<svg width="50.002441" height="50.003418" viewBox="0 0 50.0024 50.0034" fill="none" xmlns="http://www.w3.org/2000/svg" xmlns:xlink="http://www.w3.org/1999/xlink">
	<desc>
			Created with Pixso.
	</desc>
	<defs/>
	<path id="path" d="M24.99 0C21.81 -0.01 18.75 0.56 15.79 1.73C12.84 2.89 10.2 4.55 7.88 6.71C5.56 8.88 3.71 11.4 2.35 14.26C0.99 17.13 0.21 20.14 0 23.31C0.21 23.62 0.4 23.97 0.56 24.31L13.52 29.52C14.77 28.7 16.13 28.33 17.62 28.4L23.77 19.66C23.77 14.51 28.05 10.17 33.3 10.17C35.91 10.15 38.14 11.06 40 12.88C41.86 14.71 42.8 16.93 42.83 19.53C42.8 22.18 41.84 24.42 39.93 26.26C38.01 28.1 35.73 28.98 33.08 28.9L24.3 35.05C24.3 35.98 24.15 36.92 23.77 37.85C22.4 40.88 20.06 42.25 16.75 41.96C13.44 41.67 11.38 39.91 10.56 36.7L1.24 32.95C2.23 35.88 3.7 38.52 5.66 40.9C7.62 43.28 9.95 45.23 12.63 46.75C15.31 48.26 18.18 49.25 21.23 49.71C24.28 50.17 27.31 50.08 30.33 49.42C33.34 48.76 36.13 47.58 38.71 45.89C41.29 44.2 43.48 42.1 45.28 39.6C47.08 37.1 48.38 34.36 49.17 31.38C49.95 28.4 50.18 25.38 49.85 22.31C49.52 19.25 48.65 16.35 47.25 13.6C45.84 10.86 43.99 8.46 41.7 6.4C39.4 4.34 36.82 2.76 33.94 1.66C31.06 0.55 28.07 0 24.99 0ZM33.3 13.32C29.8 13.32 26.96 16.13 26.96 19.56C26.96 23 29.8 25.78 33.3 25.78C36.8 25.78 39.64 22.97 39.64 19.53C39.64 16.1 36.83 13.32 33.3 13.32ZM33.3 14.88C35.96 14.88 38.08 16.94 38.08 19.53C38.08 22.12 35.96 24.21 33.3 24.21C30.68 24.21 28.55 22.12 28.55 19.53C28.55 16.94 30.68 14.88 33.3 14.88ZM17.4 29.96C16.71 29.96 16.05 30.08 15.46 30.3L18.65 31.61C20.68 32.42 21.62 34.7 20.77 36.67C19.93 38.63 17.65 39.57 15.62 38.76L12.49 37.51C13.52 39.55 15.17 40.54 17.46 40.49C19.75 40.43 21.35 39.35 22.27 37.26C22.83 35.95 22.83 34.51 22.3 33.2C21.39 31.03 19.76 29.94 17.4 29.96Z" fill="#FFFFFF" fill-opacity="1.000000" fill-rule="nonzero"/>
</svg>
