<svg width="50" height="50" viewBox="0 0 50 50" fill="none" xmlns="http://www.w3.org/2000/svg">
<rect width="50" height="50" rx="6" fill="white"/>
<path d="M22.1934 25.9897H14.1623C13.1261 25.9897 12.3489 26.7642 12.3489 27.7969V35.8003C12.3489 36.833 13.1261 37.6076 14.1623 37.6076H22.1934C23.2297 37.6076 24.0069 36.833 24.0069 35.8003V27.7969C24.0069 26.7642 23.2297 25.9897 22.1934 25.9897ZM22.1071 29.6902V33.9071C22.1071 34.9398 21.3299 35.7143 20.2936 35.7143H16.0622C15.0259 35.7143 14.2487 34.9398 14.2487 33.9071V29.6902C14.2487 28.6575 15.0259 27.883 16.0622 27.883H20.2936C21.3299 27.883 22.1071 28.6575 22.1071 29.6902Z" fill="#474747"/>
<path d="M29.8791 33.5628V31.6695H27.8929V33.5628H25.9931V35.6282H27.8929V37.5215H29.8791V35.5422H31.7789V33.5628H29.8791Z" fill="#474747"/>
<path d="M35.6649 27.883V25.9897H31.7789V29.7762H29.8791V31.6695H31.7789V33.5628H33.6788V31.6695H37.6511V27.883H35.6649Z" fill="#474747"/>
<path d="M33.6788 33.5628V35.5422H31.7789V37.5215H35.6649V35.5422H37.6511V33.5628H33.6788Z" fill="#474747"/>
<path d="M29.8791 25.9897H27.8929V27.883H25.9931V31.6695H27.8929V29.7762H29.8791V25.9897Z" fill="#474747"/>
<path d="M19.171 33.5628H17.5302C16.9257 33.5628 16.4076 33.0465 16.4076 32.4441V30.809C16.4076 30.2065 16.9257 29.6902 17.5302 29.6902H19.171C19.7755 29.6902 20.2936 30.2065 20.2936 30.809V32.4441C20.1209 33.2186 19.6891 33.5628 19.171 33.5628Z" fill="#474747"/>
<path d="M18.9983 20.1377H17.3575C16.753 20.1377 16.2349 19.6213 16.2349 19.0189V17.3838C16.2349 16.7814 16.753 16.2651 17.3575 16.2651H18.9983C19.6028 16.2651 20.1209 16.7814 20.1209 17.3838V19.0189C20.1209 19.6213 19.6891 20.1377 18.9983 20.1377Z" fill="#474747"/>
<path d="M22.1934 12.3924H14.1623C13.1261 12.3924 12.3489 13.167 12.3489 14.1997V22.2031C12.3489 23.2358 13.1261 24.0103 14.1623 24.0103H22.1934C23.2297 24.0103 24.0069 23.2358 24.0069 22.2031V14.1997C24.0069 13.253 23.2297 12.3924 22.1934 12.3924ZM20.2936 22.031H16.0622C15.0259 22.031 14.2487 21.2565 14.2487 20.2238V16.0069C14.2487 14.9742 15.0259 14.1997 16.0622 14.1997H20.2936C21.3299 14.1997 22.1071 14.9742 22.1071 16.0069V20.2238C22.1071 21.2565 21.3299 22.031 20.2936 22.031Z" fill="#474747"/>
<path d="M32.6425 16.3511H31.0017C30.3972 16.3511 29.8791 16.8675 29.8791 17.4699V19.105C29.8791 19.7074 30.3972 20.2238 31.0017 20.2238H32.6425C33.247 20.2238 33.7651 19.7074 33.7651 19.105V17.2978C33.6788 16.6954 33.1606 16.3511 32.6425 16.3511Z" fill="#474747"/>
<path d="M35.8377 12.3924H27.8066C26.7703 12.3924 25.9931 13.167 25.9931 14.1997V22.2031C25.9931 23.2358 26.7703 24.0103 27.8066 24.0103H35.8377C36.8739 24.0103 37.6511 23.2358 37.6511 22.2031V14.1997C37.6511 13.167 36.7012 12.3924 35.8377 12.3924ZM33.9378 22.031H29.7064C28.6701 22.031 27.8929 21.2565 27.8929 20.2238V16.0069C27.8929 14.9742 28.6701 14.1997 29.7064 14.1997H33.9378C34.9741 14.1997 35.7513 14.9742 35.7513 16.0069V20.2238C35.6649 21.2565 34.8014 22.031 33.9378 22.031Z" fill="#474747"/>
<path d="M0 4.21687V45.7831C0 48.1067 1.89983 50 4.23143 50H37.9965L33.7651 44.3201H8.54922C6.99482 44.3201 5.78584 43.0293 5.78584 41.5663V8.60585C5.78584 7.0568 7.08118 5.85198 8.54922 5.85198H41.5371C43.0915 5.85198 44.3005 7.14286 44.3005 8.60585V41.4802C44.3005 43.0293 43.0052 44.2341 41.5371 44.2341H40.9326L45.1641 49.9139H45.7686C48.1002 49.9139 50 48.0207 50 45.6971V4.21687C50 1.89329 48.1002 0 45.7686 0H4.23143C1.81347 0.0860585 0 1.80723 0 4.21687Z" fill="#F0D703"/>
</svg>
