<svg width="50.000000" height="50.000000" viewBox="0 0 50 50" fill="none" xmlns="http://www.w3.org/2000/svg" xmlns:xlink="http://www.w3.org/1999/xlink">
	<desc>
			Created with Pixso.
	</desc>
	<defs/>
	<rect id="Прямоугольник 22" width="50.000000" height="50.000000" fill="#6B9BD2" fill-opacity="1.000000"/>
	<path id="Path_4" d="M14.96 17.07L13.2 17.07L13.2 22L9.49 22L9.49 5L16.73 5C17.52 4.99 18.29 5.15 19.02 5.47C20.49 6.1 21.54 7.16 22.15 8.67C22.47 9.42 22.62 10.2 22.62 11.02C22.62 11.65 22.52 12.26 22.33 12.86C22.14 13.44 21.88 13.98 21.54 14.48C21.21 14.97 20.81 15.41 20.35 15.79C19.9 16.17 19.39 16.46 18.84 16.67L22.61 21.99L18.06 21.99L14.96 17.07ZM13.2 13.5L16.73 13.5C17.06 13.5 17.37 13.43 17.67 13.3C18.28 13.04 18.71 12.6 18.97 11.98C19.1 11.67 19.16 11.35 19.16 11.02C19.17 10.38 18.96 9.83 18.53 9.38C18.12 8.92 17.62 8.65 17.02 8.56L13.19 8.56L13.2 13.5Z" fill="#F7F7F7" fill-opacity="1.000000" fill-rule="nonzero"/>
	<path id="Path_5" d="M31.79 18.21L39.55 18.21L39.55 22L27.7 22L27.7 5L39.55 5L39.55 8.79L31.79 8.79L31.79 11.44L38.26 11.44L38.26 15.22L31.79 15.22L31.79 18.21Z" fill="#F7F7F7" fill-opacity="1.000000" fill-rule="nonzero"/>
	<path id="Path_6" d="M22.12 33.68C22.13 34.5 21.97 35.28 21.66 36.03C21.36 36.75 20.94 37.39 20.4 37.96C19.86 38.52 19.24 38.95 18.53 39.26C17.79 39.58 17.03 39.73 16.24 39.73L12.7 39.73L12.7 44.66L9 44.66L9 27.66L16.23 27.66C17.03 27.65 17.79 27.81 18.52 28.13C20 28.76 21.04 29.82 21.66 31.33C21.97 32.08 22.13 32.87 22.12 33.68ZM12.69 36.16L16.23 36.16C16.56 36.16 16.87 36.1 17.17 35.97C17.78 35.7 18.21 35.26 18.46 34.64C18.87 33.68 18.72 32.81 18.02 32.04C17.62 31.59 17.12 31.32 16.52 31.23L12.69 31.23L12.69 36.16Z" fill="#F7F7F7" fill-opacity="1.000000" fill-rule="nonzero"/>
	<path id="Path_7" d="M25.85 35.93C25.84 34.72 26.05 33.54 26.49 32.41C26.89 31.35 27.46 30.4 28.21 29.56C28.94 28.75 29.79 28.11 30.77 27.64C31.77 27.17 32.81 26.94 33.91 26.94C35.02 26.93 36.08 27.17 37.09 27.64C38.07 28.11 38.93 28.75 39.66 29.56C40.41 30.4 40.99 31.35 41.39 32.41C41.82 33.54 42.03 34.72 42.02 35.93C42.03 37.14 41.82 38.3 41.39 39.42C40.98 40.47 40.41 41.42 39.66 42.26C38.93 43.07 38.07 43.71 37.09 44.17C36.08 44.65 35.02 44.88 33.91 44.87C32.81 44.88 31.76 44.65 30.77 44.17C29.79 43.71 28.94 43.07 28.21 42.26C27.46 41.42 26.89 40.47 26.49 39.42C26.06 38.3 25.85 37.14 25.85 35.93ZM29.2 35.93C29.2 36.64 29.32 37.33 29.57 37.99C29.81 38.6 30.15 39.16 30.59 39.65C31.01 40.12 31.51 40.49 32.08 40.76C32.66 41.03 33.27 41.17 33.91 41.16C34.56 41.17 35.18 41.03 35.77 40.76C36.35 40.49 36.85 40.12 37.28 39.65C37.73 39.16 38.07 38.61 38.3 37.99C38.55 37.33 38.67 36.64 38.66 35.93C38.67 35.22 38.55 34.54 38.3 33.88C38.06 33.25 37.73 32.7 37.28 32.21C36.85 31.72 36.35 31.34 35.77 31.07C35.18 30.79 34.56 30.65 33.91 30.65C33.27 30.65 32.66 30.79 32.08 31.07C31.51 31.35 31.01 31.72 30.59 32.21C30.15 32.7 29.82 33.26 29.57 33.88C29.32 34.54 29.2 35.22 29.2 35.93Z" fill="#F7F7F7" fill-opacity="1.000000" fill-rule="nonzero"/>
</svg>
