<svg width="50.000000" height="50.000000" viewBox="0 0 50 50" fill="none" xmlns="http://www.w3.org/2000/svg" xmlns:xlink="http://www.w3.org/1999/xlink">
	<desc>
			Created with Pixso.
	</desc>
	<defs/>
	<path id="path" d="M0 0L50 0L50 24.25C50 30.93 46.56 37.1 40.97 40.44L25 50L9.02 40.44C3.43 37.1 0 30.93 0 24.25L0 0Z" fill="#FFDD2D" fill-opacity="1.000000" fill-rule="nonzero"/>
	<path id="path" d="M13.79 12.49L13.79 20.54C14.85 19.3 16.78 18.46 18.99 18.46L21.39 18.46L21.39 27.82C21.39 30.31 20.74 32.74 19.77 33.94L30.22 33.94C29.25 32.74 28.6 30.31 28.6 27.82L28.6 18.46L31 18.46C33.21 18.46 35.14 19.3 36.2 20.54L36.2 12.49L13.79 12.49Z" fill="#333333" fill-opacity="1.000000" fill-rule="evenodd"/>
</svg>
