<svg width="50.000000" height="50.000000" viewBox="0 0 50 50" fill="none" xmlns="http://www.w3.org/2000/svg" xmlns:xlink="http://www.w3.org/1999/xlink">
	<desc>
			Created with Pixso.
	</desc>
	<defs>
		<linearGradient x1="24.979179" y1="0.000000" x2="24.979179" y2="49.607105" id="paint_linear_73_3_0" gradientUnits="userSpaceOnUse">
			<stop stop-color="#2AABEE"/>
			<stop offset="1.000000" stop-color="#229ED9"/>
		</linearGradient>
	</defs>
	<ellipse id="circle" cx="25.000000" cy="25.000000" rx="25.000000" ry="25.000004" fill="url(#paint_linear_73_3_0)" fill-opacity="1.000000"/>
	<path id="path" d="M11.3 24.72C18.58 21.56 23.43 19.46 25.87 18.44C32.8 15.54 34.26 15.04 35.19 15.02C35.4 15.02 35.86 15.07 36.17 15.32C36.42 15.52 36.49 15.79 36.53 16C36.57 16.21 36.61 16.65 36.57 16.98C36.19 20.94 34.57 30.53 33.74 34.95C33.38 36.82 32.7 37.44 32.03 37.51C30.57 37.63 29.47 36.55 28.08 35.63C25.87 34.2 24.64 33.3 22.5 31.89C20.02 30.26 21.62 29.37 23.04 27.91C23.41 27.53 29.8 21.71 29.93 21.19C29.95 21.12 29.95 20.87 29.8 20.75C29.66 20.62 29.45 20.67 29.28 20.71C29.05 20.75 25.56 23.08 18.75 27.68C17.75 28.37 16.86 28.7 16.04 28.68C15.15 28.66 13.44 28.18 12.15 27.76C10.59 27.26 9.34 26.99 9.45 26.12C9.51 25.66 10.13 25.2 11.3 24.72Z" fill="#FFFFFF" fill-opacity="1.000000" fill-rule="evenodd"/>
</svg>
