<svg width="50" height="50" viewBox="0 0 50 50" fill="none" xmlns="http://www.w3.org/2000/svg">
<g clip-path="url(#clip0_389_72)">
<path d="M25 49.0234C38.2678 49.0234 49.0234 38.2678 49.0234 25C49.0234 11.7322 38.2678 0.976562 25 0.976562C11.7322 0.976562 0.976562 11.7322 0.976562 25C0.976562 38.2678 11.7322 49.0234 25 49.0234Z" fill="#F2E4FF"/>
<path fill-rule="evenodd" clip-rule="evenodd" d="M25.0513 45.4531V42.4225C34.651 42.3948 42.4239 34.6059 42.4239 24.9993C42.4239 15.3934 34.651 7.60451 25.0513 7.57679V4.54621C36.3246 4.57462 45.4538 13.7197 45.4538 24.9993C45.4538 36.2796 36.3246 45.4254 25.0513 45.4531ZM25.0513 34.8457C30.4658 34.8173 34.8485 30.4215 34.8485 24.9993C34.8485 19.5778 30.4658 15.182 25.0513 15.1536V12.1237C32.1402 12.1514 37.8791 17.9042 37.8791 24.9993C37.8791 32.0951 32.1402 37.8479 25.0513 37.8756V34.8457ZM25.0513 19.6991C27.9557 19.7268 30.303 22.0879 30.303 24.9993C30.303 27.9114 27.9557 30.2725 25.0513 30.3002V19.6991ZM0 24.9993C0 38.807 11.1923 50 25 50C38.807 50 50 38.807 50 24.9993C50 11.1923 38.807 0 25 0C11.1923 0 0 11.1923 0 24.9993Z" fill="url(#paint0_linear_389_72)"/>
<g filter="url(#filter0_d_389_72)">
<path d="M25 2.83203C12.5412 2.83203 2.44141 12.8881 2.44141 25.293C2.44141 37.6978 12.5412 47.7539 25 47.7539V2.83203Z" fill="black"/>
</g>
<path d="M25 2.83203C12.5412 2.83203 2.44141 12.8881 2.44141 25.293C2.44141 37.6978 12.5412 47.7539 25 47.7539V2.83203Z" fill="url(#paint1_linear_389_72)"/>
</g>
<defs>
<filter id="filter0_d_389_72" x="-25.5586" y="-17.168" width="62.5586" height="84.9219" filterUnits="userSpaceOnUse" color-interpolation-filters="sRGB">
<feFlood flood-opacity="0" result="BackgroundImageFix"/>
<feColorMatrix in="SourceAlpha" type="matrix" values="0 0 0 0 0 0 0 0 0 0 0 0 0 0 0 0 0 0 127 0" result="hardAlpha"/>
<feOffset dx="-8"/>
<feGaussianBlur stdDeviation="10"/>
<feColorMatrix type="matrix" values="0 0 0 0 0.25098 0 0 0 0 0.25098 0 0 0 0 0.25098 0 0 0 0.2 0"/>
<feBlend mode="normal" in2="BackgroundImageFix" result="effect1_dropShadow_389_72"/>
<feBlend mode="normal" in="SourceGraphic" in2="effect1_dropShadow_389_72" result="shape"/>
</filter>
<linearGradient id="paint0_linear_389_72" x1="2500" y1="5000" x2="2500" y2="0" gradientUnits="userSpaceOnUse">
<stop stop-color="#420C5D"/>
<stop offset="1" stop-color="#951AD1"/>
</linearGradient>
<linearGradient id="paint1_linear_389_72" x1="-1102.93" y1="4495.02" x2="-1102.93" y2="2.83203" gradientUnits="userSpaceOnUse">
<stop stop-color="#420C5D"/>
<stop offset="1" stop-color="#951AD1"/>
</linearGradient>
<clipPath id="clip0_389_72">
<rect width="50" height="50" fill="white"/>
</clipPath>
</defs>
</svg>
