<svg width="50.000000" height="50.001953" viewBox="0 0 50 50.002" fill="none" xmlns="http://www.w3.org/2000/svg" xmlns:xlink="http://www.w3.org/1999/xlink">
	<desc>
			Created with Pixso.
	</desc>
	<defs/>
	<g opacity="0.000000">
		<rect id="Прямоугольник 48" y="0.001953" width="50.000000" height="50.000000" fill="#C4C4C4" fill-opacity="1.000000"/>
	</g>
	<path id="path" d="M41.98 0.23C41.93 0.05 41.8 -0.03 41.61 0C35.28 0.44 23.73 1.77 17.76 5.78C17.6 5.89 17.5 6.04 17.48 6.24C16.87 10.86 14.94 14.87 11.67 18.27C11.55 18.39 11.54 18.53 11.63 18.67C11.73 18.82 11.86 18.86 12.02 18.81C12.82 18.54 13.64 18.37 14.48 18.28C16.12 18.11 17.71 18.29 19.26 18.81C20.81 19.34 22.17 20.16 23.35 21.28C23.11 21.28 22.9 21.28 22.67 21.28C21.68 21.29 20.7 21.38 19.72 21.58C18.75 21.78 17.81 22.06 16.9 22.45C15.99 22.83 15.12 23.3 14.31 23.85C13.49 24.4 12.74 25.03 12.06 25.73C11.37 26.43 10.77 27.2 10.24 28.02C9.71 28.84 9.27 29.71 8.93 30.62C8.58 31.52 8.33 32.46 8.17 33.42C8.02 34.37 7.96 35.34 8.01 36.31L8.01 36.39L8.04 36.77L8.04 36.96L8.04 37.12C8.03 37.15 8.03 37.19 8.04 37.21L8.04 37.26C8.06 37.44 8.08 37.63 8.11 37.81C8.11 37.87 8.11 37.94 8.14 38L8.14 38.06C8.17 38.19 8.19 38.33 8.22 38.46C8.24 38.59 8.26 38.68 8.29 38.79L8.35 39.07L8.46 39.48L8.51 39.62C9.31 42.38 10.83 44.69 13.07 46.55C13.22 46.68 13.37 46.8 13.51 46.92C14.32 47.53 15.18 48.06 16.09 48.51L16.16 48.54C16.33 48.62 16.5 48.7 16.68 48.77L16.73 48.8L17.29 49.02C19 49.67 20.76 50 22.58 50C22.81 50 23.03 50 23.28 50L23.79 49.96L23.89 49.96L24.09 49.96L24.15 49.96L24.3 49.96L24.47 49.94C24.6 49.94 24.72 49.91 24.84 49.89C24.9 49.89 24.95 49.88 25 49.87L25.17 49.84C25.3 49.82 25.43 49.8 25.57 49.77L25.8 49.72L25.88 49.72C26.01 49.69 26.14 49.66 26.27 49.63L26.6 49.54L26.69 49.51L26.95 49.44L27.4 49.3L27.48 49.27L27.62 49.22L28.12 49.04L28.17 49.01L28.27 48.97C28.45 48.9 28.63 48.83 28.8 48.74L28.91 48.7C29.09 48.62 29.27 48.52 29.46 48.43L29.54 48.38C29.71 48.3 29.88 48.2 30.06 48.1L30.16 48.04C30.32 47.94 30.48 47.85 30.65 47.74L30.77 47.66L31.2 47.38L31.25 47.34L31.37 47.25L31.72 46.99L31.78 46.95L31.96 46.8C32.05 46.73 32.13 46.66 32.22 46.58L32.5 46.34L32.64 46.22L33.05 45.84L33.14 45.74C33.3 45.58 33.43 45.44 33.56 45.3C33.75 45.09 33.97 44.84 34.19 44.57L34.4 44.29C34.53 44.12 34.65 43.95 34.78 43.76C34.91 43.57 35 43.44 35.1 43.28C35.2 43.12 35.3 42.97 35.39 42.8C35.49 42.63 35.55 42.52 35.63 42.36C35.71 42.21 35.78 42.09 35.84 41.93C35.94 41.73 36.04 41.53 36.13 41.33C36.13 41.29 36.16 41.25 36.17 41.21C36.23 41.07 36.3 40.93 36.35 40.78L36.53 40.31C36.59 40.13 36.64 39.96 36.69 39.79C36.76 39.58 36.82 39.35 36.87 39.16C36.92 38.98 36.96 38.79 37 38.61C37.04 38.42 37.06 38.3 37.09 38.17C37.12 38.03 37.16 37.77 37.19 37.53C37.19 37.48 37.19 37.44 37.19 37.4L37.22 37.23C37.22 37.08 37.22 36.93 37.24 36.79L37.24 36.61C37.29 35.85 37.28 35.09 37.2 34.33C37.2 34.3 37.2 34.26 37.2 34.23C37.2 34.21 37.2 34.2 37.2 34.18C37.16 33.79 37.1 33.4 37.02 33.01C37.03 32.98 37.03 32.95 37.02 32.93C37 32.79 36.97 32.64 36.94 32.49C36.16 28.33 32.92 23.26 31.1 20.62C31.04 20.54 30.99 20.46 30.92 20.38C30.84 20.27 30.76 20.16 30.69 20.05C30.2 19.34 29.99 18.57 30.06 17.72C30.1 17.27 30.23 16.85 30.44 16.45C30.65 16.05 30.94 15.71 31.29 15.43C31.64 15.14 32.04 14.93 32.48 14.8C32.91 14.66 33.36 14.62 33.82 14.66C33.94 14.67 34.04 14.63 34.12 14.54C34.2 14.45 34.22 14.35 34.18 14.24C34.07 13.9 34 13.55 33.96 13.2C33.88 12.49 33.94 11.78 34.15 11.09C34.36 10.4 34.7 9.78 35.17 9.22C35.64 8.67 36.2 8.22 36.85 7.89C37.5 7.55 38.2 7.36 38.93 7.3C39.04 7.3 39.15 7.3 39.27 7.28C39.38 7.27 39.47 7.22 39.53 7.13C39.59 7.04 39.61 6.94 39.57 6.84C39.43 6.46 39.34 6.08 39.3 5.68C39.19 4.67 39.36 3.71 39.81 2.79C40.27 1.88 40.93 1.15 41.82 0.62C41.98 0.53 42.03 0.4 41.98 0.23Z" fill="#3F67F8" fill-opacity="1.000000" fill-rule="nonzero"/>
</svg>
