<svg width="50.000000" height="50.000000" viewBox="0 0 50 50" fill="none" xmlns="http://www.w3.org/2000/svg" xmlns:xlink="http://www.w3.org/1999/xlink">
	<desc>
			Created with Pixso.
	</desc>
	<defs/>
	<path id="path" d="M43.94 36.38C43.15 37.25 42.37 38.12 41.59 39C41.4 39.21 41.23 39.43 41.05 39.64C40.29 40.49 39.54 41.33 38.76 42.2C38.6 42.23 38.46 42.25 38.32 42.25C37.19 42.24 36.06 42.23 34.93 42.22C32.85 42.2 30.77 42.18 28.69 42.17C27.8 42.16 26.91 42.14 26.02 42.17C25.65 42.18 25.26 42.26 24.92 42.4C24.17 42.7 23.44 43.07 22.7 43.41C20.05 44.62 17.41 45.84 14.77 47.05C14.68 47.09 14.56 47.05 14.46 47.05C14.47 46.94 14.46 46.81 14.51 46.72C14.99 45.66 15.01 44.61 14.46 43.59C13.92 42.6 13.08 42.16 12.05 42.16C9.05 42.15 6.04 42.15 3.03 42.15C2.61 42.15 2.6 42.15 2.6 41.69C2.6 32.17 2.6 22.64 2.6 13.11C2.6 12.75 2.6 12.75 2.93 12.75C16.36 12.75 29.79 12.75 43.21 12.75C43.55 12.75 43.55 12.75 43.55 13.11C43.55 17.58 43.55 22.04 43.55 26.5C43.55 26.74 43.54 26.99 43.55 27.23C43.56 27.44 43.48 27.49 43.31 27.49C42.91 27.48 42.5 27.48 42.1 27.48C41.53 27.48 40.96 27.48 40.38 27.48C39.8 27.49 39.56 27.91 39.83 28.47C39.88 28.59 39.94 28.69 40 28.8C41.25 31.18 42.5 33.56 43.75 35.94C43.83 36.08 43.88 36.23 43.94 36.38ZM14 32.31C14 32.82 13.95 32.76 14.42 32.76C15.38 32.76 16.34 32.76 17.3 32.76C17.64 32.76 17.64 32.76 17.64 32.4C17.64 28.29 17.64 24.18 17.64 20.08C17.64 19.71 17.64 19.7 17.31 19.7C16.31 19.7 15.31 19.7 14.31 19.7C14 19.7 14 19.71 14 20.06C14 24.13 14 28.19 14 32.31ZM31.67 32.76C31.86 32.76 32.05 32.82 32.05 32.46C32.03 28.3 32.04 24.15 32.04 19.99C32.04 19.77 31.99 19.7 31.78 19.7C30.74 19.71 29.7 19.71 28.66 19.7C28.45 19.7 28.4 19.77 28.4 19.99C28.41 24.15 28.41 28.3 28.4 32.46C28.4 32.72 28.49 32.77 28.7 32.77C29.67 32.76 30.65 32.76 31.67 32.76Z" fill="#C298C5" fill-opacity="1.000000" fill-rule="nonzero"/>
	<path id="path" d="M41.59 39C41.4 39.21 41.23 39.43 41.05 39.64C40.29 40.49 39.54 41.33 38.76 42.2C38.6 42.23 38.46 42.25 38.32 42.25C37.19 42.24 36.06 42.23 34.93 42.22C32.85 42.2 30.77 42.18 28.69 42.17C27.8 42.16 26.91 42.14 26.02 42.17C25.65 42.18 25.26 42.26 24.92 42.4C24.17 42.7 23.44 43.07 22.7 43.41C20.05 44.62 17.41 45.84 14.77 47.05C14.68 47.09 14.56 47.05 14.46 47.05C14.47 46.94 14.46 46.81 14.51 46.72C14.99 45.66 15.01 44.61 14.46 43.59C13.92 42.6 13.08 42.16 12.05 42.16C9.05 42.15 6.04 42.15 3.03 42.15C2.61 42.15 2.6 42.15 2.6 41.69C2.6 32.17 2.6 22.64 2.6 13.11C2.6 12.75 2.6 12.75 2.93 12.75C16.36 12.75 29.79 12.75 43.21 12.75C43.55 12.75 43.55 12.75 43.55 13.11C43.55 17.58 43.55 22.04 43.55 26.5C43.55 26.74 43.54 26.99 43.55 27.23C43.56 27.44 43.48 27.49 43.31 27.49C42.91 27.48 42.5 27.48 42.1 27.48C41.53 27.48 40.96 27.48 40.38 27.48C39.8 27.49 39.56 27.91 39.83 28.47C39.88 28.59 39.94 28.69 40 28.8C41.25 31.18 42.5 33.56 43.75 35.94C43.83 36.08 43.88 36.23 43.94 36.38C43.15 37.25 42.37 38.12 41.59 39ZM14.42 32.76C15.38 32.76 16.34 32.76 17.3 32.76C17.64 32.76 17.64 32.76 17.64 32.4C17.64 28.29 17.64 24.18 17.64 20.08C17.64 19.71 17.64 19.7 17.31 19.7C16.31 19.7 15.31 19.7 14.31 19.7C14 19.7 14 19.71 14 20.06C14 24.13 14 28.19 14 32.31C14 32.82 13.95 32.76 14.42 32.76ZM32.05 32.46C32.03 28.3 32.04 24.15 32.04 19.99C32.04 19.77 31.99 19.7 31.78 19.7C30.74 19.71 29.7 19.71 28.66 19.7C28.45 19.7 28.4 19.77 28.4 19.99C28.41 24.15 28.41 28.3 28.4 32.46C28.4 32.72 28.49 32.77 28.7 32.77C29.67 32.76 30.65 32.76 31.67 32.76C31.86 32.76 32.05 32.82 32.05 32.46Z" stroke="#000000" stroke-opacity="0" stroke-width="1.000000"/>
	<path id="path" d="M43.95 36.39C43.88 36.23 43.83 36.08 43.75 35.94C42.5 33.56 41.25 31.18 40 28.8C39.94 28.69 39.88 28.59 39.83 28.47C39.56 27.91 39.8 27.49 40.38 27.48C40.96 27.48 41.53 27.48 42.1 27.48C42.5 27.48 42.91 27.48 43.31 27.49C43.48 27.49 43.56 27.44 43.55 27.23C43.54 26.99 43.55 26.74 43.55 26.5C43.55 22.04 43.55 17.58 43.55 13.11C43.55 12.75 43.55 12.75 43.21 12.75C29.79 12.75 16.36 12.75 2.93 12.75C2.6 12.75 2.6 12.75 2.6 13.11C2.6 22.64 2.6 32.17 2.6 41.69C2.6 42.15 2.61 42.15 3.03 42.15C6.04 42.15 9.05 42.15 12.05 42.16C13.08 42.16 13.92 42.6 14.46 43.59C15.01 44.61 14.99 45.66 14.51 46.72C14.46 46.81 14.47 46.94 14.46 47.05C14.56 47.05 14.68 47.09 14.77 47.05C17.41 45.84 20.05 44.62 22.7 43.41C23.44 43.07 24.17 42.7 24.92 42.4C25.27 42.26 25.65 42.18 26.02 42.17C26.91 42.14 27.8 42.16 28.69 42.17C30.77 42.18 32.85 42.2 34.93 42.22C36.06 42.23 37.19 42.24 38.32 42.25C38.46 42.25 38.6 42.23 38.76 42.22C39.24 42.21 39.7 42.22 40.16 42.21C40.74 42.21 41.19 42.71 41.19 43.34C41.19 43.55 41.19 43.77 41.19 43.98C41.19 44.61 40.75 45.12 40.19 45.13C38.21 45.13 36.24 45.13 34.27 45.13C33.5 45.12 32.73 45.09 31.96 45.08C30.21 45.05 28.46 45.06 26.71 45.01C26.15 45 25.65 45.14 25.14 45.38C23.84 46 22.52 46.59 21.2 47.2C19.85 47.82 18.5 48.45 17.15 49.07C16.52 49.36 15.89 49.68 15.24 49.89C13.68 50.38 12.05 49.12 11.83 47.35C11.75 46.64 11.87 46 12.19 45.39C12.33 45.11 12.28 45.02 11.97 45.02C8.9 45.02 5.84 45.03 2.78 45.02C1.46 45.01 0.4 44.07 0.06 42.66C0.01 42.47 0 42.26 0 42.05C-0.01 31.45 0 20.84 0 10.24C0 10.13 0 10.02 0 9.9C15.38 9.9 30.75 9.9 46.15 9.9C46.15 15.75 46.15 21.59 46.15 27.48C46.25 27.48 46.34 27.48 46.43 27.48C47.42 27.48 48.42 27.48 49.42 27.48C49.86 27.48 50.13 27.95 49.92 28.37C49.51 29.19 49.08 29.99 48.66 30.8C48.2 31.67 47.74 32.54 47.28 33.42C46.83 34.28 46.37 35.15 45.92 36.02C45.72 36.39 45.52 36.77 45.31 37.14C45.11 37.5 44.69 37.55 44.45 37.22C44.26 36.97 44.13 36.67 43.95 36.39Z" fill="#804198" fill-opacity="1.000000" fill-rule="nonzero"/>
	<path id="path" d="M43.75 35.94C42.5 33.56 41.25 31.18 40 28.8C39.94 28.69 39.88 28.59 39.83 28.47C39.56 27.91 39.8 27.49 40.38 27.48C40.96 27.48 41.53 27.48 42.1 27.48C42.5 27.48 42.91 27.48 43.31 27.49C43.48 27.49 43.56 27.44 43.55 27.23C43.54 26.99 43.55 26.74 43.55 26.5C43.55 22.04 43.55 17.58 43.55 13.11C43.55 12.75 43.55 12.75 43.21 12.75C29.79 12.75 16.36 12.75 2.93 12.75C2.6 12.75 2.6 12.75 2.6 13.11C2.6 22.64 2.6 32.17 2.6 41.69C2.6 42.15 2.61 42.15 3.03 42.15C6.04 42.15 9.05 42.15 12.05 42.16C13.08 42.16 13.92 42.6 14.46 43.59C15.01 44.61 14.99 45.66 14.51 46.72C14.46 46.81 14.47 46.94 14.46 47.05C14.56 47.05 14.68 47.09 14.77 47.05C17.41 45.84 20.05 44.62 22.7 43.41C23.44 43.07 24.17 42.7 24.92 42.4C25.27 42.26 25.65 42.18 26.02 42.17C26.91 42.14 27.8 42.16 28.69 42.17C30.77 42.18 32.85 42.2 34.93 42.22C36.06 42.23 37.19 42.24 38.32 42.25C38.46 42.25 38.6 42.23 38.76 42.22C39.24 42.21 39.7 42.22 40.16 42.21C40.74 42.21 41.19 42.71 41.19 43.34C41.19 43.55 41.19 43.77 41.19 43.98C41.19 44.61 40.75 45.12 40.19 45.13C38.21 45.13 36.24 45.13 34.27 45.13C33.5 45.12 32.73 45.09 31.96 45.08C30.21 45.05 28.46 45.06 26.71 45.01C26.15 45 25.65 45.14 25.14 45.38C23.84 46 22.52 46.59 21.2 47.2C19.85 47.82 18.5 48.45 17.15 49.07C16.52 49.36 15.89 49.68 15.24 49.89C13.68 50.38 12.05 49.12 11.83 47.35C11.75 46.64 11.87 46 12.19 45.39C12.33 45.11 12.28 45.02 11.97 45.02C8.9 45.02 5.84 45.03 2.78 45.02C1.46 45.01 0.4 44.07 0.06 42.66C0.01 42.47 0 42.26 0 42.05C-0.01 31.45 0 20.84 0 10.24C0 10.13 0 10.02 0 9.9C15.38 9.9 30.75 9.9 46.15 9.9C46.15 15.75 46.15 21.59 46.15 27.48C46.25 27.48 46.34 27.48 46.43 27.48C47.42 27.48 48.42 27.48 49.42 27.48C49.86 27.48 50.13 27.95 49.92 28.37C49.51 29.19 49.08 29.99 48.66 30.8C48.2 31.67 47.74 32.54 47.28 33.42C46.83 34.28 46.37 35.15 45.92 36.02C45.72 36.39 45.52 36.77 45.31 37.14C45.11 37.5 44.69 37.55 44.45 37.22C44.26 36.97 44.13 36.67 43.95 36.39C43.88 36.23 43.83 36.08 43.75 35.94Z" stroke="#000000" stroke-opacity="0" stroke-width="1.000000"/>
	<path id="path" d="M36.96 8.91C24.65 8.91 12.36 8.91 0.04 8.91C0.04 8.79 0.04 8.7 0.04 8.6C0.04 7.84 0.04 7.07 0.04 6.31C0.04 4.64 0.06 2.98 0.04 1.31C0.02 0.51 0.64 -0.01 1.25 0C5.94 0.01 10.63 0 15.33 0C15.68 0 15.96 0.14 16.22 0.4C17.07 1.28 17.94 2.15 18.8 3.02C19.15 3.38 19.5 3.72 19.85 4.07C20.03 4.25 20.21 4.45 20.41 4.62C20.47 4.68 20.59 4.7 20.68 4.7C22.61 4.7 24.54 4.7 26.48 4.7C32.6 4.7 38.72 4.7 44.83 4.69C45.42 4.69 46.06 5.14 46.09 5.95C46.13 6.92 46.1 7.9 46.1 8.91C43.05 8.91 40.02 8.91 36.96 8.91Z" fill="#804198" fill-opacity="1.000000" fill-rule="nonzero"/>
	<path id="path" d="M0.04 8.91C0.04 8.79 0.04 8.7 0.04 8.6C0.04 7.84 0.04 7.07 0.04 6.31C0.04 4.64 0.06 2.98 0.04 1.31C0.02 0.51 0.64 -0.01 1.25 0C5.94 0.01 10.63 0 15.33 0C15.68 0 15.96 0.14 16.22 0.4C17.07 1.28 17.94 2.15 18.8 3.02C19.15 3.38 19.5 3.72 19.85 4.07C20.03 4.25 20.21 4.45 20.41 4.62C20.47 4.68 20.59 4.7 20.68 4.7C22.61 4.7 24.54 4.7 26.48 4.7C32.6 4.7 38.72 4.7 44.83 4.69C45.42 4.69 46.06 5.14 46.09 5.95C46.13 6.92 46.1 7.9 46.1 8.91C43.05 8.91 40.02 8.91 36.96 8.91C24.65 8.91 12.36 8.91 0.04 8.91Z" stroke="#000000" stroke-opacity="0" stroke-width="1.000000"/>
	<path id="path" d="M14 32.28C14 28.19 14 24.13 14 20.06C14 19.71 14 19.7 14.31 19.7C15.31 19.7 16.31 19.7 17.31 19.7C17.64 19.7 17.64 19.7 17.64 20.08C17.64 24.18 17.64 28.29 17.64 32.4C17.64 32.76 17.64 32.76 17.3 32.76C16.34 32.76 15.38 32.76 14.42 32.76C13.95 32.76 14 32.82 14 32.28Z" fill="#FFFFFF" fill-opacity="1.000000" fill-rule="nonzero"/>
	<path id="path" d="M14 20.06C14 19.71 14 19.7 14.31 19.7C15.31 19.7 16.31 19.7 17.31 19.7C17.64 19.7 17.64 19.7 17.64 20.08C17.64 24.18 17.64 28.29 17.64 32.4C17.64 32.76 17.64 32.76 17.3 32.76C16.34 32.76 15.38 32.76 14.42 32.76C13.95 32.76 14 32.82 14 32.28C14 28.19 14 24.13 14 20.06Z" stroke="#000000" stroke-opacity="0" stroke-width="1.000000"/>
	<path id="path" d="M31.65 32.76C30.65 32.76 29.67 32.76 28.7 32.77C28.49 32.77 28.4 32.72 28.4 32.46C28.41 28.3 28.41 24.15 28.4 19.99C28.4 19.77 28.45 19.7 28.66 19.7C29.7 19.71 30.74 19.71 31.78 19.7C31.99 19.7 32.04 19.77 32.04 19.99C32.04 24.15 32.03 28.3 32.05 32.46C32.05 32.82 31.86 32.76 31.65 32.76Z" fill="#FFFFFF" fill-opacity="1.000000" fill-rule="nonzero"/>
	<path id="path" d="M28.7 32.77C28.49 32.77 28.4 32.72 28.4 32.46C28.41 28.3 28.41 24.15 28.4 19.99C28.4 19.77 28.45 19.7 28.66 19.7C29.7 19.71 30.74 19.71 31.78 19.7C31.99 19.7 32.04 19.77 32.04 19.99C32.04 24.15 32.03 28.3 32.05 32.46C32.05 32.82 31.86 32.76 31.65 32.76C30.65 32.76 29.67 32.76 28.7 32.77Z" stroke="#000000" stroke-opacity="0" stroke-width="1.000000"/>
</svg>
