<svg width="50.000000" height="50.000000" viewBox="0 0 50 50" fill="none" xmlns="http://www.w3.org/2000/svg" xmlns:xlink="http://www.w3.org/1999/xlink">
	<desc>
			Created with Pixso.
	</desc>
	<defs/>
	<mask id="mask77_7" mask-type="alpha" maskUnits="userSpaceOnUse" x="0.000000" y="0.000000" width="50.000000" height="50.000000">
		<path id="path1623" d="M12.42 0.02L14.56 0L36.81 0C37.15 0.01 37.36 0.01 37.57 0.02C38.67 0.05 39.79 0.11 40.88 0.31C41.98 0.49 43.02 0.83 44.02 1.33C45.01 1.83 45.91 2.48 46.7 3.25C47.49 4.03 48.13 4.91 48.64 5.9C49.16 6.89 49.48 7.91 49.68 9.01C49.88 10.09 49.94 11.19 49.97 12.28C49.98 12.78 49.99 13.28 49.99 13.78L50 14.67L50 34.42C50 35.02 50 35.61 49.99 36.21C49.99 36.71 49.98 37.21 49.97 37.71C49.94 38.8 49.88 39.9 49.68 40.98C49.49 42.07 49.14 43.1 48.64 44.09C48.13 45.07 47.49 45.96 46.7 46.73C45.91 47.52 45.01 48.16 44.02 48.66C43.02 49.15 41.98 49.5 40.88 49.68C39.79 49.88 38.67 49.94 37.57 49.97L34.25 50L13.18 49.98C12.93 49.98 12.67 49.98 12.42 49.97C11.32 49.94 10.21 49.88 9.11 49.68C8.02 49.5 6.97 49.15 5.97 48.66C3.94 47.63 2.4 46.11 1.35 44.09C0.85 43.1 0.5 42.07 0.31 40.98C0.11 39.9 0.05 38.8 0.02 37.71C0.01 37.21 0 36.71 0 36.21L0 35.31L0 15.56C0 14.97 0 14.37 0 13.78C0 13.28 0.01 12.78 0.02 12.28C0.05 11.19 0.12 10.09 0.31 9.01C0.5 7.92 0.85 6.88 1.35 5.9C2.39 3.88 3.94 2.35 5.97 1.33C6.97 0.83 8.02 0.49 9.11 0.31C10.21 0.11 11.32 0.05 12.42 0.02Z" fill="#FFFFFF" fill-opacity="1.000000" fill-rule="evenodd"/>
	</mask>
	<g mask="url(#mask77_7)">
		<path id="path1626" d="M0 0L50 0L50 50L0 50L0 0Z" fill="#19AA1E" fill-opacity="1.000000" fill-rule="nonzero"/>
		<path id="path1628" d="M0 -0.01L50 -0.01L50 16.4L0 8.59L0 -0.01Z" fill="#FFB919" fill-opacity="1.000000" fill-rule="evenodd"/>
		<path id="path1630" d="M0 44.53L50 36.71L50 50L0 50L0 44.53Z" fill="#82D714" fill-opacity="1.000000" fill-rule="evenodd"/>
		<path id="path1632" d="M0 7.6L17.45 10.33C19.62 8.95 22.21 8.19 25 8.19C28.86 8.19 32.33 9.64 34.86 12.18C35.18 12.5 35.48 12.84 35.76 13.19L50 15.41L50 17.39L37.2 15.39C38.18 17.24 38.66 19.22 38.67 21.32C38.67 24 38.07 26.67 36.83 29.35L36.27 30.56L35.02 30.56C32.45 30.56 30.75 31.33 29.64 32.69C28.76 33.76 28.26 35.2 28.09 36.77L28.06 37.07L28.02 37.4C27.96 38.1 27.92 38.69 27.89 39.18L50 35.72L50 37.7L0 45.51L0 43.54L22.12 40.08L22.11 39.64L22.11 39.45C22.09 38.91 22.03 38.12 21.96 37.28L21.94 37.13L21.91 36.85C21.76 35.27 21.26 33.81 20.38 32.73C19.28 31.35 17.6 30.57 15.05 30.56L13.72 30.56L13.2 29.43C11.94 26.72 11.32 24.02 11.32 21.32C11.32 17.91 12.7 14.62 15.13 12.18L15.35 11.97L0 9.57L0 7.6Z" fill="#FFFFFF" fill-opacity="1.000000" fill-rule="evenodd"/>
		<path id="path1634" d="M25 10.15C31.98 10.15 36.71 15.52 36.71 21.32C36.71 23.65 36.21 26.07 35.02 28.61C28.15 28.61 26.46 33.52 26.14 36.62L26.12 36.83C26.01 37.93 25.95 38.82 25.93 39.48L24.07 39.78C24.04 38.79 23.98 37.75 23.87 36.77C23.57 33.68 21.91 28.61 14.97 28.61C13.78 26.07 13.28 23.65 13.28 21.32C13.28 15.52 18.02 10.15 25 10.15Z" fill="#0073FA" fill-opacity="1.000000" fill-rule="evenodd"/>
	</g>
</svg>
