<svg width="50.000000" height="50.000000" viewBox="0 0 50 50" fill="none" xmlns="http://www.w3.org/2000/svg" xmlns:xlink="http://www.w3.org/1999/xlink">
	<desc>
			Created with Pixso.
	</desc>
	<defs>
		<clipPath id="clip81_1">
			<rect id="Срез 2.svg" width="50.000000" height="50.000000" fill="white" fill-opacity="0"/>
		</clipPath>
	</defs>
	<g opacity="0.000000">
		<rect id="Прямоугольник 17" width="50.000000" height="50.000000" fill="#C4C4C4" fill-opacity="1.000000"/>
	</g>
	<g clip-path="url(#clip81_1)">
		<rect id="rect" width="50.000000" height="50.000000" fill="#000000" fill-opacity="0"/>
		<rect id="Прямоугольник 16" width="50.000000" height="50.000000" fill="#0077FF" fill-opacity="1.000000"/>
		<path id="path" d="M52.54 10.76C45.23 12.72 35.06 18.6 24.66 34.89L23.1 37.34L21.23 35.13L22.86 33.75C21.23 35.13 21.23 35.13 21.23 35.13L21.01 34.86C20.86 34.68 20.65 34.43 20.39 34.13C19.87 33.5 19.14 32.64 18.34 31.7C16.73 29.78 14.8 27.49 13.5 25.91L12.14 24.26L15.42 21.54L16.78 23.2C18.07 24.75 19.99 27.03 21.6 28.95C21.97 29.38 22.32 29.8 22.65 30.18C32.98 14.96 43.32 8.81 51.44 6.64C55.68 5.51 59.25 5.5 61.78 5.76C63.04 5.9 64.05 6.12 64.76 6.29C65.11 6.38 65.39 6.47 65.58 6.53C65.69 6.56 65.76 6.59 65.83 6.62C65.83 6.62 65.94 6.66 65.17 8.64L65.83 6.62C66.93 7.04 67.58 8.32 67.16 9.42C66.73 10.51 65.5 11.05 64.41 10.63C64.39 10.63 64.33 10.62 64.26 10.6C64.15 10.55 63.96 10.5 63.69 10.42C63.16 10.28 62.36 10.12 61.32 10.01C59.24 9.78 56.21 9.78 52.54 10.76Z" fill="#FFFFFF" fill-opacity="1.000000" fill-rule="evenodd"/>
	</g>
</svg>
