<svg width="51" height="50" viewBox="0 0 51 50" fill="none" xmlns="http://www.w3.org/2000/svg">
<path fill-rule="evenodd" clip-rule="evenodd" d="M3.9678 3.51471C0.558237 6.9243 0.456236 12.3497 0.453187 22.9997C9.99716 22.9996 15.956 18.9022 21.1828 15.3081C25.2662 12.5003 28.9028 9.9997 33.4531 9.9997C40.2258 9.9997 46.1394 14.7884 49.275 17.3276C49.7172 17.6856 50.1041 17.999 50.4306 18.2478C50.3316 10.6547 49.7989 6.37525 46.9384 3.51471C43.4237 -2.87309e-06 37.7668 -3.3781e-06 26.4531 -4.36718e-06L24.4531 -4.54202e-06C13.1394 -1.7164e-06 7.48251 -2.15783e-06 3.9678 3.51471ZM22.9831 49.9997C23.4622 50 23.9521 50 24.4531 50H26.4531C26.954 50 27.4439 50 27.923 49.9997H22.9831Z" fill="#0077FF"/>
<path fill-rule="evenodd" clip-rule="evenodd" d="M0.453224 22.9997C9.99721 22.9996 15.956 18.9022 21.1829 15.3081C25.2662 12.5003 28.9028 9.9997 33.4531 9.9997C40.2259 9.9997 46.1394 14.7884 49.275 17.3276C49.7172 17.6856 50.1042 17.999 50.4306 18.2478C50.4531 19.9843 50.4531 21.8942 50.4531 24V26C50.4531 37.3137 50.4531 42.9705 46.9384 46.4853C43.5793 49.8444 38.2635 49.9931 27.9227 49.9997H22.9835C12.6428 49.9931 7.32696 49.8444 3.96784 46.4853C0.453128 42.9705 0.453128 37.3137 0.453129 26L0.45313 24C0.45313 23.6615 0.453129 23.3281 0.453224 22.9997Z" fill="#F45FFF"/>
<path d="M39.2034 25.4875C39.2034 24.2518 40.2176 23.25 41.4534 23.25C42.6891 23.25 43.7034 24.2518 43.7034 25.4875V34.5125C43.7034 35.7482 42.6891 36.75 41.4534 36.75C40.2176 36.75 39.2034 35.7482 39.2034 34.5125V25.4875Z" fill="white"/>
<path d="M31.2036 19.7376C31.2036 18.5018 32.2179 17.5001 33.4536 17.5001C34.6894 17.5001 35.7036 18.5018 35.7036 19.7376V40.2626C35.7036 41.4983 34.6894 42.5001 33.4536 42.5001C32.2179 42.5001 31.2036 41.4983 31.2036 40.2626V19.7376Z" fill="white"/>
<path d="M23.2036 25.4875C23.2036 24.2518 24.2179 23.25 25.4536 23.25C26.6894 23.25 27.7036 24.2518 27.7036 25.4875V34.5125C27.7036 35.7482 26.6894 36.75 25.4536 36.75C24.2179 36.75 23.2036 35.7482 23.2036 34.5125V25.4875Z" fill="white"/>
<path d="M15.2026 28.7374C15.2026 27.5017 16.2169 26.4999 17.4526 26.4999C18.6884 26.4999 19.7026 27.5017 19.7026 28.7374V31.2624C19.7026 32.4982 18.6884 33.4999 17.4526 33.4999C16.2169 33.4999 15.2026 32.4982 15.2026 31.2624V28.7374Z" fill="white"/>
<path d="M7.20261 28.7374C7.20261 27.5017 8.21691 26.4999 9.45261 26.4999C10.6884 26.4999 11.7026 27.5017 11.7026 28.7374V31.2624C11.7026 32.4982 10.6884 33.4999 9.45261 33.4999C8.21691 33.4999 7.20261 32.4982 7.20261 31.2624V28.7374Z" fill="white"/>
</svg>
