<svg width="50.000000" height="50.000000" viewBox="0 0 50 50" fill="none" xmlns="http://www.w3.org/2000/svg" xmlns:xlink="http://www.w3.org/1999/xlink">
	<desc>
			Created with Pixso.
	</desc>
	<defs/>
	<rect id="Прямоугольник 9" width="50.000000" height="50.000000" fill="#0077FF" fill-opacity="1.000000"/>
	<path id="path" d="M23.03 14.99C18.95 14.99 15.64 18.3 15.64 22.38C15.64 22.73 15.67 23.07 15.71 23.41L16.02 25.63L13.78 25.68C11.12 25.74 8.99 27.9 8.99 30.57C8.99 33.27 11.18 35.46 13.88 35.46C20.18 35.46 26.89 35.46 33.84 35.46C37.46 35.46 40.39 32.53 40.39 28.91C40.39 25.29 37.46 22.35 33.84 22.35C33.41 22.35 33 22.39 32.6 22.47L30.66 22.84L30.27 20.9C29.59 17.53 26.6 14.99 23.03 14.99ZM34 39.46L13.63 39.46C8.84 39.32 5 35.39 5 30.57C5 26.43 7.82 22.96 11.65 21.97C11.87 15.87 16.88 11 23.03 11C27.9 11 32.05 14.06 33.68 18.36C33.73 18.36 33.78 18.36 33.84 18.36C39.66 18.36 44.38 23.08 44.38 28.91C44.38 34.68 39.75 39.37 34 39.46Z" fill="#FFFFFF" fill-opacity="1.000000" fill-rule="evenodd"/>
</svg>
