<svg width="48.000000" height="48.000000" viewBox="0 0 48 48" fill="none" xmlns="http://www.w3.org/2000/svg" xmlns:xlink="http://www.w3.org/1999/xlink">
	<desc>
			Created with Pixso.
	</desc>
	<defs>
		<linearGradient x1="16.145496" y1="52.145500" x2="45.600006" y2="3.054564" id="paint_linear_89_91_0" gradientUnits="userSpaceOnUse">
			<stop stop-color="#6F01FB"/>
			<stop offset="1.000000" stop-color="#FF49D7"/>
		</linearGradient>
	</defs>
	<path id="path" d="M0 22.53C0 14.64 0 10.7 1.53 7.68C2.88 5.03 5.03 2.88 7.68 1.53C10.7 0 14.64 0 22.53 0L25.46 0C33.35 0 37.29 0 40.31 1.53C42.96 2.88 45.11 5.03 46.46 7.68C48 10.7 48 14.64 48 22.53L48 25.46C48 33.35 48 37.29 46.46 40.31C45.11 42.96 42.96 45.11 40.31 46.46C37.29 48 33.35 48 25.46 48L22.53 48C14.64 48 10.7 48 7.68 46.46C5.03 45.11 2.88 42.96 1.53 40.31C0 37.29 0 33.35 0 25.46L0 22.53Z" fill="url(#paint_linear_89_91_0)" fill-opacity="1.000000" fill-rule="nonzero"/>
	<path id="path" d="M36.31 16.93C34.59 16.93 33.04 17.45 31.72 18.34L31.72 10.22L28.05 10.22L28.05 25.2C28.05 29.76 31.76 33.42 36.29 33.42C40.83 33.42 44.58 29.78 44.58 25.16C44.58 20.54 40.91 16.93 36.31 16.93ZM19.67 26.26L16.31 17.51L13.75 17.51L10.37 26.26L6.99 17.51L2.99 17.51L8.9 32.89L11.47 32.89L15.01 23.73L18.57 32.89L21.14 32.89L27.02 17.51L23.05 17.51L19.67 26.26ZM36.29 29.76C33.81 29.76 31.72 27.77 31.72 25.18C31.72 22.59 33.68 20.62 36.31 20.62C38.94 20.62 40.91 22.67 40.91 25.18C40.91 27.68 38.82 29.76 36.29 29.76Z" fill="#FFFFFF" fill-opacity="1.000000" fill-rule="nonzero"/>
</svg>
