<svg width="50" height="44" viewBox="0 0 50 44" fill="none" xmlns="http://www.w3.org/2000/svg">
<g clip-path="url(#clip0_613_373)">
<path d="M23.3433 22.7024L18.4987 39.3082C14.2903 36.4867 9.71099 34.1603 0.000999451 38.167L4.73447 21.7427L4.79141 21.7166C14.4639 17.7483 19.1488 19.8645 23.3433 22.7024Z" fill="#03A9F4"/>
<path d="M25.8795 24.3098L21.0919 40.7313C25.2975 43.5762 29.9574 45.8436 39.6549 41.8382L44.2717 25.8292C34.3895 29.2048 30.0838 27.1299 25.8795 24.3098Z" fill="#FFC107"/>
<path d="M24.1489 19.7132L28.9282 3.2628C24.7225 0.428941 20.0585 -1.84805 10.3527 2.16693L5.5706 18.6861C9.42487 17.1007 12.4722 16.3734 15.0236 16.3954C18.8946 16.4201 21.6155 18.0151 24.1489 19.7132Z" fill="#FF5722"/>
<path d="M31.4491 4.99254L26.6712 21.5378C30.863 24.3744 35.9339 26.6968 45.2259 22.5526L50.001 6.07053C40.3077 10.0608 35.6464 7.8209 31.4491 4.99254Z" fill="#7CB342"/>
<path d="M9 44C7.698 42.698 6.96866 41.9687 5.66666 40.6667V26.352C5.66666 26.1573 5.824 26 6.01866 26H11.9813C12.176 26 12.3333 26.1573 12.3333 26.352V40.6667C11.0313 41.9687 10.302 42.698 9 44Z" fill="#F5BC00"/>
<path d="M17 16H1V28.6667H17V16Z" fill="#F5BC00"/>
<path d="M12.3333 26H5.66666V28.6667H12.3333V26Z" fill="#EB7900"/>
<path d="M13 19.3333H5.00001V22H13V19.3333Z" fill="#FADB00"/>
<path d="M14.3333 38H9V40.6667H14.3333V38Z" fill="#F5BC00"/>
<path d="M14.3333 33.3333H9V36H14.3333V33.3333Z" fill="#F5BC00"/>
<path d="M11.6667 33.3333H6.33333V37.3333H11.6667V33.3333Z" fill="#F5BC00"/>
<path d="M11.6667 37.3333H6.33333V41.3333H11.6667V37.3333Z" fill="#F5BC00"/>
<path d="M12.3333 38H9V40.6667H12.3333V38Z" fill="#EB7900"/>
<path d="M12.3333 33.3333H9V36H12.3333V33.3333Z" fill="#EB7900"/>
</g>
<defs>
<clipPath id="clip0_613_373">
<rect width="50" height="44" fill="white"/>
</clipPath>
</defs>
</svg>
