<svg width="50.000000" height="50.000000" viewBox="0 0 50 50" fill="none" xmlns="http://www.w3.org/2000/svg" xmlns:xlink="http://www.w3.org/1999/xlink">
	<desc>
			Created with Pixso.
	</desc>
	<defs>
		<linearGradient x1="0.000000" y1="0.000000" x2="49.999996" y2="0.000000" id="paint_linear_73_29_0" gradientUnits="userSpaceOnUse">
			<stop offset="0.093248" stop-color="#CF3BFF"/>
			<stop offset="1.000000" stop-color="#4A26FF"/>
		</linearGradient>
		<linearGradient x1="12.845551" y1="13.332887" x2="36.952251" y2="13.332887" id="paint_linear_73_31_0" gradientUnits="userSpaceOnUse">
			<stop stop-color="#CF3BFF"/>
			<stop offset="1.000000" stop-color="#4A26FF"/>
		</linearGradient>
	</defs>
	<g style="mix-blend-mode:normal">
		<path id="path251" d="M0 10L0 40C0 40.65 0.06 41.3 0.19 41.95C0.32 42.59 0.5 43.22 0.76 43.82C1.01 44.43 1.32 45 1.68 45.55C2.05 46.1 2.46 46.6 2.92 47.07C3.39 47.53 3.89 47.94 4.44 48.31C4.99 48.67 5.56 48.98 6.17 49.23C6.77 49.49 7.4 49.67 8.04 49.8C8.69 49.93 9.34 50 10 50L40 50C40.65 50 41.3 49.93 41.95 49.8C42.59 49.67 43.22 49.49 43.82 49.23C44.43 48.98 45 48.67 45.55 48.31C46.1 47.95 46.6 47.53 47.07 47.07C47.53 46.6 47.94 46.1 48.31 45.55C48.67 45 48.98 44.43 49.23 43.82C49.49 43.22 49.67 42.59 49.8 41.95C49.93 41.3 50 40.65 50 40L50 10C50 9.34 49.93 8.69 49.8 8.04C49.67 7.4 49.49 6.77 49.23 6.17C48.98 5.56 48.67 4.99 48.31 4.44C47.94 3.89 47.53 3.39 47.07 2.92C46.6 2.46 46.1 2.05 45.55 1.68C45 1.32 44.43 1.01 43.82 0.76C43.22 0.5 42.59 0.32 41.95 0.19C41.3 0.06 40.65 0 40 0L9.99 0C9.34 0 8.69 0.06 8.04 0.19C7.4 0.32 6.77 0.5 6.17 0.76C5.56 1.01 4.99 1.32 4.44 1.68C3.89 2.05 3.39 2.46 2.92 2.92C2.46 3.39 2.05 3.89 1.68 4.44C1.32 4.99 1.01 5.56 0.76 6.17C0.5 6.77 0.32 7.4 0.19 8.04C0.06 8.69 0 9.34 0 10Z" fill="url(#paint_linear_73_29_0)" fill-opacity="1.000000" fill-rule="nonzero"/>
	</g>
	<path id="path943" d="M11.78 40.02C9.89 39.72 8.28 38.28 7.77 36.41C7.62 35.86 7.6 35.2 7.6 29.61C7.6 23.48 7.6 23.4 7.82 22.57C8.16 21.21 8.47 20.72 9.88 19.31C10.57 18.63 12.03 17.3 13.13 16.36C14.98 14.79 15.84 14.05 19.35 10.97C20.68 9.81 21.66 9.04 22.55 8.47C23.56 7.83 25.24 7.69 26.68 8.13C27.62 8.42 29.25 9.71 34.55 14.35C40.34 19.42 41.1 20.17 41.74 21.44C42.32 22.57 42.31 22.47 42.35 29.29C42.39 34.79 42.37 35.61 42.24 36.13C41.76 38.02 40.4 39.46 38.63 39.96C38.15 40.09 12.61 40.15 11.78 40.02Z" fill="#FFFFFF" fill-opacity="1.000000" fill-rule="nonzero"/>
	<path id="path943" d="M7.77 36.41C7.62 35.86 7.6 35.2 7.6 29.61C7.6 23.48 7.6 23.4 7.82 22.57C8.16 21.21 8.47 20.72 9.88 19.31C10.57 18.63 12.03 17.3 13.13 16.36C14.98 14.79 15.84 14.05 19.35 10.97C20.68 9.81 21.66 9.04 22.55 8.47C23.56 7.83 25.24 7.69 26.68 8.13C27.62 8.42 29.25 9.71 34.55 14.35C40.34 19.42 41.1 20.17 41.74 21.44C42.32 22.57 42.31 22.47 42.35 29.29C42.39 34.79 42.37 35.61 42.24 36.13C41.76 38.02 40.4 39.46 38.63 39.96C38.15 40.09 12.61 40.15 11.78 40.02C9.89 39.72 8.28 38.28 7.77 36.41Z" stroke="#000000" stroke-opacity="0" stroke-width="1.303623"/>
	<path id="path259" d="M24.89 13.33C22.69 13.33 20.91 15.11 20.91 17.32C20.91 18.99 21.94 20.42 23.4 21.01L23.4 29.86L20.49 26.95C20.7 26.47 20.81 25.94 20.81 25.39C20.81 23.19 19.03 21.4 16.83 21.4C14.62 21.4 12.84 23.19 12.84 25.39C12.84 27.59 14.62 29.38 16.83 29.38C17.38 29.38 17.9 29.27 18.38 29.06L23.4 34.08L23.4 40.14L26.39 40.14L26.39 34.08L31.41 29.06C31.88 29.27 32.41 29.38 32.96 29.38C35.16 29.38 36.95 27.59 36.95 25.39C36.95 23.19 35.16 21.4 32.96 21.4C30.76 21.4 28.98 23.19 28.98 25.39C28.98 25.94 29.09 26.47 29.29 26.95L26.39 29.86L26.39 21.01C27.85 20.42 28.88 18.99 28.88 17.32C28.88 15.11 27.09 13.33 24.89 13.33ZM24.89 15.72C25.77 15.72 26.49 16.43 26.49 17.32C26.49 18.2 25.77 18.91 24.89 18.91C24.01 18.91 23.3 18.2 23.3 17.32C23.3 16.43 24.01 15.72 24.89 15.72ZM16.83 23.8C17.71 23.8 18.42 24.51 18.42 25.39C18.42 26.27 17.71 26.99 16.83 26.99C15.94 26.99 15.23 26.27 15.23 25.39C15.23 24.51 15.94 23.8 16.83 23.8ZM32.96 23.8C33.84 23.8 34.56 24.51 34.56 25.39C34.56 26.27 33.84 26.99 32.96 26.99C32.08 26.99 31.37 26.27 31.37 25.39C31.37 24.51 32.08 23.8 32.96 23.8Z" fill="url(#paint_linear_73_31_0)" fill-opacity="1.000000" fill-rule="nonzero"/>
</svg>
