<svg width="50.000000" height="50.000000" viewBox="0 0 50 50" fill="none" xmlns="http://www.w3.org/2000/svg" xmlns:xlink="http://www.w3.org/1999/xlink">
	<desc>
			Created with Pixso.
	</desc>
	<defs/>
	<g opacity="0.000000">
		<rect id="Прямоугольник 34" width="50.000000" height="50.000000" fill="#C4C4C4" fill-opacity="1.000000"/>
	</g>
	<path id="path" d="M48.93 15.04C46.9 12.82 41.98 12.11 38.39 11.89C36.8 11.79 35.22 11.51 33.68 11.07C32.99 10.88 32.29 10.63 31.62 10.37C28.6 9.19 23.63 8.05 18.27 10.22C18.1 10.3 17.93 10.36 17.77 10.44C17.61 10.5 17.44 10.58 17.27 10.66C12.03 13.08 9.48 17.47 8.31 20.46C8.05 21.14 7.76 21.81 7.42 22.44C6.71 23.86 5.85 25.19 4.85 26.42C2.57 29.17 -0.24 33.22 0.01 36.21C0.05 36.73 0.19 37.23 0.44 37.67C0.94 38.55 1.74 39.02 2.36 39.31C6.86 41.44 17.28 40.36 28.48 34.71C40.27 30.41 48.15 23.56 49.61 18.84C49.82 18.2 50.02 17.29 49.71 16.33C49.56 15.86 49.28 15.43 48.93 15.04Z" fill="#263238" fill-opacity="1.000000" fill-rule="nonzero"/>
	<path id="path" d="M49.65 16.13C51.94 21.21 42.67 30.14 29.05 36.04C15.42 41.94 2.15 42.75 0.31 37.5C-1 33.77 7.71 23.81 21.34 17.91C34.96 12.01 48.1 12.7 49.65 16.13Z" fill="#2962FF" fill-opacity="1.000000" fill-rule="evenodd"/>
	<path id="path" d="M14.2 34.51C13.25 32.34 18.02 28.17 24.87 25.21C31.72 22.24 38.04 21.6 39 23.77C39.96 25.94 35.18 30.11 28.34 33.07C21.49 36.04 15.16 36.68 14.2 34.51Z" fill="#FFFFFF" fill-opacity="1.000000" fill-rule="evenodd"/>
</svg>
