<svg width="50.000000" height="50.000000" viewBox="0 0 50 50" fill="none" xmlns="http://www.w3.org/2000/svg" xmlns:xlink="http://www.w3.org/1999/xlink">
	<desc>
			Created with Pixso.
	</desc>
	<defs>
		<linearGradient x1="65.235291" y1="-5.720585" x2="11.970591" y2="40.161766" id="paint_linear_31_21_0" gradientUnits="userSpaceOnUse">
			<stop stop-color="#FFFFFF"/>
			<stop offset="1.000000" stop-color="#FFFFFF" stop-opacity="0.000000"/>
		</linearGradient>
	</defs>
	<path id="path" d="M50 50L35.83 50L14.16 0L50 0L50 50Z" fill="#FC3F1D" fill-opacity="1.000000" fill-rule="nonzero"/>
	<path id="path" d="M50 50L35.83 50L14.16 0L50 0L50 50Z" fill="#2B2B2B" fill-opacity="1.000000" fill-rule="nonzero"/>
	<path id="path" d="M42.22 21.07C41.57 19.57 40.49 18.5 38.98 17.88C39.25 16.7 39.33 15.73 39.36 15.08L36.72 15.08C36.67 15.78 36.57 16.47 36.42 17.16C34.36 16.86 32.04 17.16 29.8 17.95C29.55 16.51 29.39 15.16 29.3 13.98C37.26 13.54 41.95 11.66 42.17 11.55L41.17 9.17C41.13 9.17 36.67 10.94 29.22 11.38C29.22 9.6 29.16 9.61 29.25 9.01L26.6 8.98C26.54 9.48 26.55 10.01 26.57 11.48L26.32 11.48C23.94 11.48 21.73 11.3 21.2 11.26L20.72 13.89C21.5 13.95 23.88 14.08 26.01 14.08L26.33 14.08L26.67 14.07C26.77 15.54 26.97 17.24 27.32 19.1C23.8 21.16 21 25.13 22.44 28.36C23.02 29.72 24.19 30.6 25.67 30.82C25.94 30.85 26.2 30.88 26.47 30.88C27.98 30.88 29.72 30.27 31.38 29.24C31.97 30.15 32.65 30.98 33.42 31.75L35.25 29.85C35.22 29.83 34.45 29.11 33.48 27.66C35.64 25.63 37.24 23.22 38.27 20.44C38.86 20.77 39.45 21.27 39.77 22.04C40.83 24.61 39.3 27.6 37.86 28.89L39.67 30.8C42.05 28.64 43.67 24.61 42.22 21.07ZM26.07 28.23C25.47 28.18 25.07 27.88 24.85 27.32C24.2 25.83 25.61 23.39 27.94 21.77C28.52 23.83 29.26 25.6 30.01 27.01C28.6 27.89 27.14 28.39 26.07 28.23ZM32.7 24.7L32.11 25.32C31.47 23.99 30.82 22.41 30.35 20.52C32.07 19.83 33.86 19.55 35.72 19.67C35.02 21.54 34.01 23.2 32.7 24.7Z" fill="#FFFFFF" fill-opacity="1.000000" fill-rule="evenodd"/>
	<path id="path" d="M0 0L14.16 0L35.83 50L0 50L0 0Z" fill="#FC3F1D" fill-opacity="1.000000" fill-rule="nonzero"/>
	<path id="path" d="M0 0L14.16 0L35.83 50L0 50L0 0Z" fill="url(#paint_linear_31_21_0)" fill-opacity="0.400000" fill-rule="nonzero"/>
	<path id="path" d="M15.26 18.26L6.64 38.17L10.17 38.17L12.29 32.86L21.01 32.86L23.13 38.17L26.66 38.17L18.04 18.26L15.26 18.26ZM16.64 22.36L19.86 30.17L13.44 30.17L16.64 22.36Z" fill="#FFFFFF" fill-opacity="1.000000" fill-rule="evenodd"/>
</svg>
