<svg width="51.026306" height="50.000000" viewBox="0 0 51.0263 50" fill="none" xmlns="http://www.w3.org/2000/svg" xmlns:xlink="http://www.w3.org/1999/xlink">
	<desc>
			Created with Pixso.
	</desc>
	<defs/>
	<g opacity="0.000000">
		<rect id="Прямоугольник 63" x="0.526306" width="50.000000" height="50.000000" fill="#C4C4C4" fill-opacity="1.000000"/>
	</g>
	<path id="path" d="M0.52 20.98L6.43 24.23L0.52 27.58L1.82 29.46L8.9 25.22L8.9 23.24L1.79 19L0.52 20.98ZM16.52 33L16.52 30.82L7.44 30.82L7.44 33L16.52 33Z" fill="#FFFFFF" fill-opacity="1.000000" fill-rule="evenodd"/>
	<path id="path" d="M6.43 24.23L0.52 27.58L1.82 29.46L8.9 25.22L8.9 23.24L1.79 19L0.52 20.98L6.43 24.23ZM16.52 30.82L7.44 30.82L7.44 33L16.52 33L16.52 30.82Z" stroke="#282828" stroke-opacity="1.000000" stroke-width="1.000000" stroke-linejoin="round"/>
	<path id="path" d="M21.22 30.39C20.86 30.27 20.57 30.06 20.33 29.78C20.09 29.5 19.91 29.18 19.79 28.83C19.67 28.47 19.59 28.11 19.55 27.74C19.51 27.36 19.51 26.98 19.54 26.6C19.57 26.21 19.63 25.82 19.7 25.43L20.18 22.53C20.27 22 20.42 21.49 20.62 20.99C20.83 20.48 21.13 20.02 21.51 19.63C21.9 19.22 22.36 18.92 22.88 18.71C23.39 18.5 23.91 18.4 24.46 18.4C24.78 18.4 25.08 18.44 25.39 18.52C25.68 18.6 25.93 18.74 26.16 18.93C26.38 19.13 26.56 19.36 26.7 19.63C26.83 19.89 26.93 20.16 26.99 20.45L28.08 14L31.27 14L28.52 30.42L25.31 30.42L25.56 28.9C25.39 29.17 25.18 29.41 24.94 29.62C24.7 29.84 24.44 30.02 24.16 30.17C23.87 30.32 23.58 30.43 23.27 30.49C22.96 30.56 22.66 30.59 22.34 30.59C21.96 30.6 21.58 30.53 21.22 30.39ZM24.79 27.9C25.02 27.83 25.21 27.72 25.39 27.57C25.56 27.41 25.7 27.23 25.79 27.02C25.89 26.82 25.96 26.61 25.99 26.39L26.49 23.49C26.52 23.31 26.54 23.13 26.56 22.94C26.57 22.76 26.58 22.58 26.57 22.39C26.56 22.22 26.53 22.04 26.49 21.87C26.45 21.71 26.38 21.55 26.28 21.41C26.19 21.27 26.06 21.17 25.9 21.1C25.73 21.02 25.56 20.99 25.37 20.99C25.11 20.99 24.85 21.03 24.61 21.13C24.36 21.23 24.14 21.37 23.95 21.57C23.76 21.75 23.62 21.97 23.52 22.21C23.42 22.45 23.35 22.7 23.32 22.95L22.82 25.86C22.78 26.11 22.76 26.36 22.76 26.62C22.77 26.86 22.82 27.1 22.92 27.32C23.02 27.54 23.18 27.71 23.4 27.82C23.63 27.94 23.86 28 24.12 28C24.35 28 24.57 27.97 24.79 27.9ZM30.29 27.82L33.03 27.82L34.92 16.59L32.87 16.59L32.87 14L38.56 14L36.22 27.82L38.27 27.82L38.27 30.42L30.29 30.42L30.29 27.82ZM41.53 18.57L44.74 18.57L44.49 20.07C44.67 19.81 44.88 19.58 45.11 19.36C45.35 19.14 45.6 18.95 45.89 18.8C46.17 18.65 46.46 18.55 46.78 18.49C47.08 18.43 47.39 18.4 47.7 18.4C48.09 18.39 48.46 18.46 48.83 18.6C49.18 18.73 49.47 18.93 49.72 19.21C49.95 19.49 50.13 19.8 50.25 20.15C50.37 20.5 50.45 20.86 50.49 21.23C50.53 21.62 50.53 22 50.5 22.38C50.47 22.78 50.43 23.17 50.36 23.56L49.86 26.46C49.77 26.98 49.62 27.49 49.42 27.98C49.21 28.49 48.92 28.95 48.54 29.35C48.16 29.77 47.7 30.08 47.17 30.28C46.66 30.49 46.13 30.59 45.58 30.59C45.27 30.59 44.97 30.55 44.67 30.47C44.38 30.4 44.12 30.26 43.89 30.06C43.68 29.86 43.5 29.63 43.37 29.37C43.23 29.1 43.13 28.83 43.05 28.54L41.96 35L38.77 35L41.53 18.57ZM45.43 27.86C45.69 27.76 45.91 27.61 46.09 27.42C46.28 27.23 46.43 27.01 46.53 26.76C46.62 26.53 46.69 26.29 46.74 26.04L47.22 23.13C47.27 22.88 47.29 22.63 47.28 22.37C47.27 22.13 47.22 21.89 47.12 21.67C47.02 21.45 46.86 21.28 46.64 21.17C46.42 21.05 46.18 20.99 45.92 20.99C45.69 20.99 45.47 21.02 45.25 21.09C45.03 21.16 44.83 21.27 44.66 21.42C44.49 21.58 44.35 21.76 44.26 21.97C44.17 22.17 44.1 22.38 44.05 22.6L43.58 25.5C43.55 25.68 43.52 25.86 43.5 26.05C43.47 26.23 43.47 26.4 43.48 26.58C43.5 26.76 43.53 26.93 43.56 27.1C43.6 27.27 43.67 27.42 43.76 27.57C43.85 27.71 43.98 27.82 44.15 27.89C44.31 27.97 44.49 28 44.67 28C44.93 28 45.19 27.95 45.43 27.86Z" fill="#FF0000" fill-opacity="1.000000" fill-rule="evenodd"/>
	<path id="path" d="M20.33 29.78C20.09 29.5 19.91 29.18 19.79 28.83C19.67 28.47 19.59 28.11 19.55 27.74C19.51 27.36 19.51 26.98 19.54 26.6C19.57 26.21 19.63 25.82 19.7 25.43L20.18 22.53C20.27 22 20.42 21.49 20.62 20.99C20.83 20.48 21.13 20.02 21.51 19.63C21.9 19.22 22.36 18.92 22.88 18.71C23.39 18.5 23.91 18.4 24.46 18.4C24.78 18.4 25.08 18.44 25.39 18.52C25.68 18.6 25.93 18.74 26.16 18.93C26.38 19.13 26.56 19.36 26.7 19.63C26.83 19.89 26.93 20.16 26.99 20.45L28.08 14L31.27 14L28.52 30.42L25.31 30.42L25.56 28.9C25.39 29.17 25.18 29.41 24.94 29.62C24.7 29.84 24.44 30.02 24.16 30.17C23.87 30.32 23.58 30.43 23.27 30.49C22.96 30.56 22.66 30.59 22.34 30.59C21.96 30.6 21.58 30.53 21.22 30.39C20.86 30.27 20.57 30.06 20.33 29.78ZM25.39 27.57C25.56 27.41 25.7 27.23 25.79 27.02C25.89 26.82 25.96 26.61 25.99 26.39L26.49 23.49C26.52 23.31 26.54 23.13 26.56 22.94C26.57 22.76 26.58 22.58 26.57 22.39C26.56 22.22 26.53 22.04 26.49 21.87C26.45 21.71 26.38 21.55 26.28 21.41C26.19 21.27 26.06 21.17 25.9 21.1C25.73 21.02 25.56 20.99 25.37 20.99C25.11 20.99 24.85 21.03 24.61 21.13C24.36 21.23 24.14 21.37 23.95 21.57C23.76 21.75 23.62 21.97 23.52 22.21C23.42 22.45 23.35 22.7 23.32 22.95L22.82 25.86C22.78 26.11 22.76 26.36 22.76 26.62C22.77 26.86 22.82 27.1 22.92 27.32C23.02 27.54 23.18 27.71 23.4 27.82C23.63 27.94 23.86 28 24.12 28C24.35 28 24.57 27.97 24.79 27.9C25.02 27.83 25.21 27.72 25.39 27.57ZM33.03 27.82L34.92 16.59L32.87 16.59L32.87 14L38.56 14L36.22 27.82L38.27 27.82L38.27 30.42L30.29 30.42L30.29 27.82L33.03 27.82ZM44.74 18.57L44.49 20.07C44.67 19.81 44.88 19.58 45.11 19.36C45.35 19.14 45.6 18.95 45.89 18.8C46.17 18.65 46.46 18.55 46.78 18.49C47.08 18.43 47.39 18.4 47.7 18.4C48.09 18.39 48.46 18.46 48.83 18.6C49.18 18.73 49.47 18.93 49.72 19.21C49.95 19.49 50.13 19.8 50.25 20.15C50.37 20.5 50.45 20.86 50.49 21.23C50.53 21.62 50.53 22 50.5 22.38C50.47 22.78 50.43 23.17 50.36 23.56L49.86 26.46C49.77 26.98 49.62 27.49 49.42 27.98C49.21 28.49 48.92 28.95 48.54 29.35C48.16 29.77 47.7 30.08 47.17 30.28C46.66 30.49 46.13 30.59 45.58 30.59C45.27 30.59 44.97 30.55 44.67 30.47C44.38 30.4 44.12 30.26 43.89 30.06C43.68 29.86 43.5 29.63 43.37 29.37C43.23 29.1 43.13 28.83 43.05 28.54L41.96 35L38.77 35L41.53 18.57L44.74 18.57ZM46.09 27.42C46.28 27.23 46.43 27.01 46.53 26.76C46.62 26.53 46.69 26.29 46.74 26.04L47.22 23.13C47.27 22.88 47.29 22.63 47.28 22.37C47.27 22.13 47.22 21.89 47.12 21.67C47.02 21.45 46.86 21.28 46.64 21.17C46.42 21.05 46.18 20.99 45.92 20.99C45.69 20.99 45.47 21.02 45.25 21.09C45.03 21.16 44.83 21.27 44.66 21.42C44.49 21.58 44.35 21.76 44.26 21.97C44.17 22.17 44.1 22.38 44.05 22.6L43.58 25.5C43.55 25.68 43.52 25.86 43.5 26.05C43.47 26.23 43.47 26.4 43.48 26.58C43.5 26.76 43.53 26.93 43.56 27.1C43.6 27.27 43.67 27.42 43.76 27.57C43.85 27.71 43.98 27.82 44.15 27.89C44.31 27.97 44.49 28 44.67 28C44.93 28 45.19 27.95 45.43 27.86C45.69 27.76 45.91 27.61 46.09 27.42Z" stroke="#282828" stroke-opacity="1.000000" stroke-width="1.000000" stroke-linejoin="round"/>
</svg>
