<svg width="50.000122" height="50.000000" viewBox="0 0 50.0001 50" fill="none" xmlns="http://www.w3.org/2000/svg" xmlns:xlink="http://www.w3.org/1999/xlink">
	<desc>
			Created with Pixso.
	</desc>
	<defs/>
	<path id="path" d="M27.1 29.27C28.33 29.96 29.53 30.62 30.73 31.25C30.87 31.33 31.08 31.34 31.24 31.31C32.43 31.09 33.62 30.85 34.8 30.61C34.99 30.57 35.17 30.5 35.29 30.54C33.7 30 32.09 29.52 30.52 28.92C28.53 28.16 26.76 27 25.08 25.72C24.28 25.11 23.61 24.34 22.8 23.75C21.45 22.77 20.05 21.85 18.63 20.97C17.54 20.29 16.77 19.33 16.03 18.32C15.79 17.99 15.62 17.59 15.32 17.06C16.1 17.3 16.74 17.47 17.36 17.7C19.77 18.61 21.98 19.88 24 21.46C25.01 22.23 25.91 23.13 26.89 23.94C28.49 25.25 30.3 26.24 32.23 26.96C33.7 27.51 35.25 27.95 36.8 28.21C38.43 28.48 40.09 28.56 41.77 28.41C43.93 28.21 46 27.76 48.01 27C48.63 26.77 49.23 26.51 49.96 26.21C49.36 34.37 45.86 40.9 39.15 45.39C30.92 50.92 22.02 51.55 13.29 46.86C3.55 41.63 -0.61 33.06 0.07 22.09C2.17 21.44 4.21 21.04 6.32 20.87C9.67 20.59 12.89 21.09 16.04 22.15C18.66 23.02 21.04 24.35 23.18 26.1C24.47 27.15 25.77 28.2 27.1 29.27ZM31.15 36.53C33.69 35.73 36.29 35.28 38.95 35.38C40.59 35.44 42.22 35.75 43.85 35.96C44.3 36.02 44.68 35.98 44.9 35.5C45.08 35.08 45.29 34.68 45.51 34.23C45.33 34.15 45.16 34.03 44.97 33.98C44.14 33.76 43.3 33.55 42.47 33.34C39.98 32.69 37.45 32.68 34.95 33.02C33.31 33.24 31.68 33.72 30.11 34.26C27.87 35.02 25.84 36.24 24.05 37.78C22.24 39.33 20.47 40.89 18.37 42.05C16.8 42.92 15.16 43.61 13.35 44.17C14.36 44.68 15.3 45.15 16.26 45.61C16.35 45.66 16.52 45.62 16.63 45.57C18.4 44.71 20.01 43.61 21.53 42.38C22.92 41.26 24.29 40.1 25.75 39.08C27.36 37.95 29.17 37.16 31.15 36.53ZM12.51 23.69C9.12 23.01 5.75 23.09 2.41 23.94C2.41 24.56 2.41 25.14 2.41 25.75C2.57 25.75 2.72 25.78 2.86 25.75C5.07 25.3 7.31 25.26 9.54 25.52C11.62 25.77 13.67 26.21 15.62 27C18.32 28.08 20.8 29.52 22.96 31.48C23.73 32.18 24.54 32.83 25.35 33.48C25.47 33.58 25.73 33.62 25.85 33.56C26.46 33.25 27.05 32.9 27.69 32.54C25.68 31.53 24.02 30.15 22.41 28.69C21.15 27.54 19.75 26.58 18.24 25.79C16.45 24.86 14.6 24.12 12.51 23.69ZM34.15 38.27C33.43 38.46 32.7 38.61 32 38.85C29.13 39.83 26.5 41.22 24.23 43.28C23.21 44.21 22.09 45.03 21.01 45.88C20.62 46.19 20.18 46.43 19.7 46.75C20.46 46.91 21.1 47.08 21.75 47.17C22.03 47.21 22.4 47.17 22.61 47.01C23.27 46.52 23.86 45.95 24.48 45.42C26.63 43.59 29.07 42.22 31.75 41.35C33.34 40.85 34.98 40.48 36.62 40.24C38.1 40.02 39.62 40 41.12 39.99C41.5 39.98 41.76 39.98 41.99 39.68C42.36 39.21 42.74 38.74 43.2 38.17C41.82 38.06 40.55 37.93 39.27 37.85C37.58 37.74 35.91 37.93 34.15 38.27ZM3.23 28.12C2.85 28.16 2.7 28.37 2.77 28.74C2.85 29.19 2.93 29.64 3.02 30.11C10.26 29.47 16.59 31.5 22.02 36.22C22.48 35.86 22.93 35.51 23.41 35.14C22.79 34.62 22.15 34.14 21.58 33.59C19.63 31.72 17.36 30.35 14.85 29.37C12.6 28.48 10.27 27.88 7.84 27.89C6.34 27.89 4.84 28.04 3.23 28.12ZM16.34 35.22C12.44 33.03 8.24 32.18 3.75 32.54C4.01 33.13 4.24 33.73 4.51 34.3C4.58 34.44 4.8 34.57 4.96 34.59C6.29 34.78 7.63 34.89 8.95 35.11C12.2 35.63 15.13 36.99 17.84 38.79C18.35 39.12 18.62 39.07 19 38.79C19.38 38.51 19.75 38.2 20.14 37.88C19.75 37.57 19.38 37.25 18.98 36.97C18.14 36.38 17.28 35.81 16.34 35.22ZM15.77 40.4C13.52 38.8 7.79 36.89 6.11 37.2C7.35 38.89 8.61 40.53 10.22 41.88C10.55 42.16 10.88 42.3 11.22 42.19C12.78 41.68 14.32 41.13 15.87 40.58C15.87 40.58 15.85 40.5 15.77 40.4ZM31.46 44.07C29.57 44.91 27.75 45.86 26.04 47.35C30.94 47.05 35.15 45.46 38.84 42.46C37.74 42.52 36.63 42.59 35.58 42.85C34.22 43.18 32.9 43.65 31.46 44.07ZM46.53 31.57C46.68 31.06 46.84 30.54 47 30.04C45.45 30.32 43.96 30.58 42.71 30.81C43.7 31.09 44.9 31.44 46.12 31.77C46.23 31.8 46.39 31.71 46.53 31.57Z" fill="#FFFFFF" fill-opacity="1.000000" fill-rule="nonzero"/>
	<path id="path" d="M30.73 31.25C30.87 31.33 31.08 31.34 31.24 31.31C32.43 31.09 33.62 30.85 34.8 30.61C34.99 30.57 35.17 30.5 35.29 30.54C33.7 30 32.09 29.52 30.52 28.92C28.53 28.16 26.76 27 25.08 25.72C24.28 25.11 23.61 24.34 22.8 23.75C21.45 22.77 20.05 21.85 18.63 20.97C17.54 20.29 16.77 19.33 16.03 18.32C15.79 17.99 15.62 17.59 15.32 17.06C16.1 17.3 16.74 17.47 17.36 17.7C19.77 18.61 21.98 19.88 24 21.46C25.01 22.23 25.91 23.13 26.89 23.94C28.49 25.25 30.3 26.24 32.23 26.96C33.7 27.51 35.25 27.95 36.8 28.21C38.43 28.48 40.09 28.56 41.77 28.41C43.93 28.21 46 27.76 48.01 27C48.63 26.77 49.23 26.51 49.96 26.21C49.36 34.37 45.86 40.9 39.15 45.39C30.92 50.92 22.02 51.55 13.29 46.86C3.55 41.63 -0.61 33.06 0.07 22.09C2.17 21.44 4.21 21.04 6.32 20.87C9.67 20.59 12.89 21.09 16.04 22.15C18.66 23.02 21.04 24.35 23.18 26.1C24.47 27.15 25.77 28.2 27.1 29.27C28.33 29.96 29.53 30.62 30.73 31.25ZM38.95 35.38C40.59 35.44 42.22 35.75 43.85 35.96C44.3 36.02 44.68 35.98 44.9 35.5C45.08 35.08 45.29 34.68 45.51 34.23C45.33 34.15 45.16 34.03 44.97 33.98C44.14 33.76 43.3 33.55 42.47 33.34C39.98 32.69 37.45 32.68 34.95 33.02C33.31 33.24 31.68 33.72 30.11 34.26C27.87 35.02 25.84 36.24 24.05 37.78C22.24 39.33 20.47 40.89 18.37 42.05C16.8 42.92 15.16 43.61 13.35 44.17C14.36 44.68 15.3 45.15 16.26 45.61C16.35 45.66 16.52 45.62 16.63 45.57C18.4 44.71 20.01 43.61 21.53 42.38C22.92 41.26 24.29 40.1 25.75 39.08C27.36 37.95 29.17 37.16 31.15 36.53C33.69 35.73 36.29 35.28 38.95 35.38ZM2.41 23.94C2.41 24.56 2.41 25.14 2.41 25.75C2.57 25.75 2.72 25.78 2.86 25.75C5.07 25.3 7.31 25.26 9.54 25.52C11.62 25.77 13.67 26.21 15.62 27C18.32 28.08 20.8 29.52 22.96 31.48C23.73 32.18 24.54 32.83 25.35 33.48C25.47 33.58 25.73 33.62 25.85 33.56C26.46 33.25 27.05 32.9 27.69 32.54C25.68 31.53 24.02 30.15 22.41 28.69C21.15 27.54 19.75 26.58 18.24 25.79C16.45 24.86 14.6 24.12 12.51 23.69C9.12 23.01 5.75 23.09 2.41 23.94ZM32 38.85C29.13 39.83 26.5 41.22 24.23 43.28C23.21 44.21 22.09 45.03 21.01 45.88C20.62 46.19 20.18 46.43 19.7 46.75C20.46 46.91 21.1 47.08 21.75 47.17C22.03 47.21 22.4 47.17 22.61 47.01C23.27 46.52 23.86 45.95 24.48 45.42C26.63 43.59 29.07 42.22 31.75 41.35C33.34 40.85 34.98 40.48 36.62 40.24C38.1 40.02 39.62 40 41.12 39.99C41.5 39.98 41.76 39.98 41.99 39.68C42.36 39.21 42.74 38.74 43.2 38.17C41.82 38.06 40.55 37.93 39.27 37.85C37.58 37.74 35.91 37.93 34.15 38.27C33.43 38.46 32.7 38.61 32 38.85ZM2.77 28.74C2.85 29.19 2.93 29.64 3.02 30.11C10.26 29.47 16.59 31.5 22.02 36.22C22.48 35.86 22.93 35.51 23.41 35.14C22.79 34.62 22.15 34.14 21.58 33.59C19.63 31.72 17.36 30.35 14.85 29.37C12.6 28.48 10.27 27.88 7.84 27.89C6.34 27.89 4.84 28.04 3.23 28.12C2.85 28.16 2.7 28.37 2.77 28.74ZM3.75 32.54C4.01 33.13 4.24 33.73 4.51 34.3C4.58 34.44 4.8 34.57 4.96 34.59C6.29 34.78 7.63 34.89 8.95 35.11C12.2 35.63 15.13 36.99 17.84 38.79C18.35 39.12 18.62 39.07 19 38.79C19.38 38.51 19.75 38.2 20.14 37.88C19.75 37.57 19.38 37.25 18.98 36.97C18.14 36.38 17.28 35.81 16.34 35.22C12.44 33.03 8.24 32.18 3.75 32.54ZM6.11 37.2C7.35 38.89 8.61 40.53 10.22 41.88C10.55 42.16 10.88 42.3 11.22 42.19C12.78 41.68 14.32 41.13 15.87 40.58C15.87 40.58 15.85 40.5 15.77 40.4C13.52 38.8 7.79 36.89 6.11 37.2ZM26.04 47.35C30.94 47.05 35.15 45.46 38.84 42.46C37.74 42.52 36.63 42.59 35.58 42.85C34.22 43.18 32.9 43.65 31.46 44.07C29.57 44.91 27.75 45.86 26.04 47.35ZM47 30.04C45.45 30.32 43.96 30.58 42.71 30.81C43.7 31.09 44.9 31.44 46.12 31.77C46.23 31.8 46.39 31.71 46.53 31.57C46.68 31.06 46.84 30.54 47 30.04Z" stroke="#000000" stroke-opacity="0" stroke-width="1.000000"/>
	<rect id="path" width="35.975395" height="25.995026" transform="translate(14.024658 0.000000)" fill="#FFFFFF" fill-opacity="0"/>
	<path id="path" d="M23.31 7.53C24.35 7.15 25.32 6.48 26.39 6.35C28.86 6.05 31.2 6.6 33.29 8.01C33.8 8.36 34.25 8.79 34.82 9.26C29.81 12.82 28.39 17.5 29.93 23.2C29.88 23.24 29.83 23.29 29.77 23.33C29 22.85 28.18 22.44 27.47 21.88C26.38 21.01 25.33 20.08 24.32 19.12C22.54 17.45 20.52 16.17 18.25 15.3C17.17 14.89 16.06 14.55 14.94 14.28C14.37 14.14 14.21 13.81 14.14 13.33C13.79 10.74 14.18 8.26 15.44 5.99C17.15 2.93 19.69 0.9 23.22 0.19C24.87 -0.14 26.48 0.02 28.12 0.19C31.01 0.49 33.72 1.38 36.3 2.67C38.16 3.61 39.86 4.78 41.45 6.15C44.01 8.35 45.98 10.98 47.47 13.96C48.57 16.16 49.32 18.49 49.65 20.95C49.77 21.83 49.9 22.72 49.99 23.6C50.01 23.73 49.86 23.93 49.73 24.01C48.02 25 46.16 25.58 44.19 25.74C42.48 25.88 40.77 25.97 39.06 25.99C37.15 26.01 35.29 25.61 33.49 24.98C33.15 24.87 32.84 24.48 32.66 24.15C31.94 22.82 31.46 21.43 31.37 19.88C31.25 17.67 31.7 15.65 32.9 13.81C33.66 12.65 34.66 11.71 35.9 11.05C36.6 10.68 37.31 10.32 38.02 9.95C32.46 2.36 22.76 2.63 18.42 9.45C21.42 10.68 24.42 11.92 27.42 13.15C27.7 12.58 27.98 12 28.27 11.4C26.13 10.5 23.99 9.6 21.81 8.65C21.77 8.6 21.76 8.54 21.76 8.54C21.76 8.5 21.81 8.47 21.9 8.43C22.31 8.16 22.38 8.11 22.62 7.97C22.87 7.83 23 7.72 23.31 7.53ZM41.85 16.41C40.86 16.8 40.42 17.66 40.79 18.45C41.22 19.37 42.19 19.66 43.04 19.14C43.67 18.76 43.95 17.92 43.65 17.28C43.3 16.54 42.62 16.18 41.85 16.41Z" fill="#FF7133" fill-opacity="1.000000" fill-rule="nonzero"/>
	<path id="path" d="M26.39 6.35C28.86 6.05 31.2 6.6 33.29 8.01C33.8 8.36 34.25 8.79 34.82 9.26C29.81 12.82 28.39 17.5 29.93 23.2C29.88 23.24 29.83 23.29 29.77 23.33C29 22.85 28.18 22.44 27.47 21.88C26.38 21.01 25.33 20.08 24.32 19.12C22.54 17.45 20.52 16.17 18.25 15.3C17.17 14.89 16.06 14.55 14.94 14.28C14.37 14.14 14.21 13.81 14.14 13.33C13.79 10.74 14.18 8.26 15.44 5.99C17.15 2.93 19.69 0.9 23.22 0.19C24.87 -0.14 26.48 0.02 28.12 0.19C31.01 0.49 33.72 1.38 36.3 2.67C38.16 3.61 39.86 4.78 41.45 6.15C44.01 8.35 45.98 10.98 47.47 13.96C48.57 16.16 49.32 18.49 49.65 20.95C49.77 21.83 49.9 22.72 49.99 23.6C50.01 23.73 49.86 23.93 49.73 24.01C48.02 25 46.16 25.58 44.19 25.74C42.48 25.88 40.77 25.97 39.06 25.99C37.15 26.01 35.29 25.61 33.49 24.98C33.15 24.87 32.84 24.48 32.66 24.15C31.94 22.82 31.46 21.43 31.37 19.88C31.25 17.67 31.7 15.65 32.9 13.81C33.66 12.65 34.66 11.71 35.9 11.05C36.6 10.68 37.31 10.32 38.02 9.95C32.46 2.36 22.76 2.63 18.42 9.45C21.42 10.68 24.42 11.92 27.42 13.15C27.7 12.58 27.98 12 28.27 11.4C26.13 10.5 23.99 9.6 21.81 8.65C21.77 8.6 21.76 8.54 21.76 8.54C21.76 8.5 21.81 8.47 21.9 8.43C22.31 8.16 22.38 8.11 22.62 7.97C22.87 7.83 23 7.72 23.31 7.53C24.35 7.15 25.32 6.48 26.39 6.35ZM40.79 18.45C41.22 19.37 42.19 19.66 43.04 19.14C43.67 18.76 43.95 17.92 43.65 17.28C43.3 16.54 42.62 16.18 41.85 16.41C40.86 16.8 40.42 17.66 40.79 18.45Z" stroke="#000000" stroke-opacity="0" stroke-width="1.000000"/>
	<path id="path" d="M13.81 19.15C11.76 18.69 9.74 18.6 7.69 18.65C5.38 18.7 3.18 19.23 1.02 20.02C0.84 20.08 0.65 20.12 0.46 20.17C0.4 20.13 0.34 20.09 0.27 20.05C0.67 18.75 1.01 17.43 1.47 16.15C2.53 13.24 4.12 10.63 6.19 8.32C8.65 5.59 11.58 3.5 14.93 1.99C15.08 1.92 15.29 1.96 15.59 1.95C15.34 2.34 15.18 2.67 14.95 2.94C13.37 4.77 12.48 6.94 12.06 9.28C11.73 11.06 11.78 12.87 12.2 14.66C12.53 16.09 13.02 17.45 13.77 18.71C13.85 18.83 13.83 19 13.81 19.15Z" fill="#FF7133" fill-opacity="1.000000" fill-rule="nonzero"/>
	<path id="path" d="M7.69 18.65C5.38 18.7 3.18 19.23 1.02 20.02C0.84 20.08 0.65 20.12 0.46 20.17C0.4 20.13 0.34 20.09 0.27 20.05C0.67 18.75 1.01 17.43 1.47 16.15C2.53 13.24 4.12 10.63 6.19 8.32C8.65 5.59 11.58 3.5 14.93 1.99C15.08 1.92 15.29 1.96 15.59 1.95C15.34 2.34 15.18 2.67 14.95 2.94C13.37 4.77 12.48 6.94 12.06 9.28C11.73 11.06 11.78 12.87 12.2 14.66C12.53 16.09 13.02 17.45 13.77 18.71C13.85 18.83 13.83 19 13.81 19.15C11.76 18.69 9.74 18.6 7.69 18.65Z" stroke="#000000" stroke-opacity="0" stroke-width="1.000000"/>
</svg>
